<svg width="1136" height="99" viewBox="0 0 1136 99" fill="none" xmlns="http://www.w3.org/2000/svg">
<path d="M14.32 73V19.4H5.28V73H14.32ZM33.7581 73V51.16C33.7581 44.76 35.9981 40.52 41.2781 40.52C46.5581 40.52 48.7981 43.24 48.7981 48.6V73H57.7581V51.16C57.7581 44.76 59.9981 40.52 65.2781 40.52C70.5581 40.52 72.7981 43.24 72.7981 48.6V73H81.7581V45.88C81.7581 37.8 77.8381 33.24 70.3981 33.24C62.9581 33.24 59.1181 38.6 57.7581 44.76C57.3581 37.4 53.5181 33.24 46.3981 33.24C39.0381 33.24 35.1981 38.52 33.7581 44.68V34.04H24.7981V73H33.7581ZM99.93 87.88V62.6C101.21 68.6 104.49 73.8 112.25 73.8C121.85 73.8 127.93 66.04 127.93 53.48C127.93 40.92 121.85 33.16 112.41 33.16C104.65 33.16 101.21 38.36 99.93 44.44V34.04H90.97V87.88H99.93ZM99.93 55.88V51.08C99.93 44.68 102.57 40.44 108.89 40.44C114.49 40.44 118.73 44.68 118.73 53.48C118.73 62.28 114.49 66.52 108.89 66.52C102.57 66.52 99.93 62.28 99.93 55.88ZM144.149 73V51.56C144.149 45.08 148.309 39.96 152.789 39.96C155.429 39.96 156.469 41.72 156.469 43.88C156.469 46.12 155.269 48.68 153.989 49.96H163.189C163.909 48.76 164.949 45.96 164.949 42.2C164.949 36.44 161.349 33.24 156.469 33.24C149.509 33.24 145.589 38.84 144.149 45.08V34.04H135.189V73H144.149ZM186.354 73.8C197.714 73.8 205.394 65.64 205.394 53.56C205.394 41.4 197.714 33.24 186.354 33.24C175.154 33.24 167.474 41.4 167.474 53.56C167.474 65.64 175.154 73.8 186.354 73.8ZM186.434 66.36C180.674 66.36 176.674 62.52 176.674 53.56C176.674 44.52 180.674 40.68 186.434 40.68C192.274 40.68 196.274 44.52 196.274 53.56C196.274 62.52 192.274 66.36 186.434 66.36ZM232.086 73L246.006 34.04H236.246L229.686 55.24L226.566 67.16L223.366 55.24L216.726 34.04H206.806L220.646 73H232.086ZM266.297 73.8C274.937 73.8 280.217 69.88 283.177 65.4L277.657 59.64C276.217 62.92 273.177 66.44 266.377 66.44C260.217 66.44 256.137 62.68 255.657 55.72H283.497C283.657 54.92 283.817 53.24 283.817 51.8C283.817 41 277.337 33.24 265.657 33.24C254.697 33.24 247.097 41.32 247.097 53.56C247.097 65.72 254.697 73.8 266.297 73.8ZM265.657 40.44C271.577 40.44 275.097 43.8 275.737 49.96H255.737C256.457 43.64 260.137 40.44 265.657 40.44ZM316.07 86.36C322.39 86.36 326.95 83.56 329.75 75.72L344.15 34.04H334.23L327.27 56.12L324.47 66.52L321.67 56.12L314.63 34.04H304.79L317.67 70.6H323.19L322.47 72.76C321.03 77.08 319.11 78.44 316.07 78.44C312.47 78.44 310.07 76.2 307.99 73.24L303.75 80.44C305.91 83.48 310.47 86.36 316.07 86.36ZM364.245 73.8C375.605 73.8 383.285 65.64 383.285 53.56C383.285 41.4 375.605 33.24 364.245 33.24C353.045 33.24 345.365 41.4 345.365 53.56C345.365 65.64 353.045 73.8 364.245 73.8ZM364.325 66.36C358.565 66.36 354.565 62.52 354.565 53.56C354.565 44.52 358.565 40.68 364.325 40.68C370.165 40.68 374.165 44.52 374.165 53.56C374.165 62.52 370.165 66.36 364.325 66.36ZM402.89 73.8C410.65 73.8 414.65 68.52 416.09 62.36V73H425.13V34.04H416.09V55.88C416.09 62.28 413.85 66.52 407.29 66.52C401.29 66.52 399.69 63.24 399.69 58.44V34.04H390.73V61.16C390.73 69.24 395.37 73.8 402.89 73.8ZM443.524 73V51.56C443.524 45.08 447.684 39.96 452.164 39.96C454.804 39.96 455.844 41.72 455.844 43.88C455.844 46.12 454.644 48.68 453.364 49.96H462.564C463.284 48.76 464.324 45.96 464.324 42.2C464.324 36.44 460.724 33.24 455.844 33.24C448.884 33.24 444.964 38.84 443.524 45.08V34.04H434.564V73H443.524ZM498.671 73V41H511.951V73H520.991V34.04H498.671V31.48C498.671 27.72 500.191 25.72 504.031 25.72C508.031 25.72 511.471 27.64 513.311 29.72L517.231 23.4C515.071 21.48 510.191 18.6 503.871 18.6C495.231 18.6 489.711 23.08 489.711 31.32V34.04H483.711V41H489.711V73H498.671ZM539.383 73V51.16C539.383 44.76 541.623 40.52 548.183 40.52C554.183 40.52 555.783 43.8 555.783 48.6V73H564.823V45.88C564.823 37.8 560.183 33.24 552.583 33.24C544.823 33.24 540.823 38.52 539.383 44.68V34.04H530.423V73H539.383ZM582.335 73.8C590.495 73.8 594.255 67.72 595.455 62.6V65.48C595.455 71.08 598.735 73 602.895 73H608.415V65.32H605.935C604.495 65.32 603.855 64.76 603.855 63V48.36C603.855 38.76 598.415 33.24 588.735 33.24C580.095 33.24 574.015 37.72 570.975 41.88L576.335 48.28C578.575 44.2 582.655 41.16 587.855 41.16C593.215 41.16 594.975 43.8 595.295 47.72L582.255 53.24C575.935 55.72 572.095 59.08 572.095 64.6C572.095 70.2 575.935 73.8 582.335 73.8ZM580.735 63.24C580.735 61.24 582.095 59.88 585.455 58.36L595.455 53.88V58.04C595.455 63.32 591.455 66.84 585.535 66.84C582.255 66.84 580.735 65.48 580.735 63.24ZM624.227 73V51.16C624.227 44.76 626.467 40.52 633.027 40.52C639.027 40.52 640.627 43.8 640.627 48.6V73H649.667V45.88C649.667 37.8 645.027 33.24 637.427 33.24C629.667 33.24 625.667 38.52 624.227 44.68V34.04H615.267V73H624.227ZM675.584 73.8C685.344 73.8 691.504 68.28 693.584 60.92L685.504 56.92C684.624 62.52 681.824 66.28 675.744 66.28C669.584 66.28 665.824 61.72 665.824 53.56C665.824 45.32 669.584 40.76 675.744 40.76C681.744 40.76 684.624 44.52 685.504 50.12L693.584 46.12C691.504 38.76 685.344 33.24 675.584 33.24C663.984 33.24 656.704 41.4 656.704 53.56C656.704 65.64 663.984 73.8 675.584 73.8ZM709.461 28.52V19.4H700.501V28.52H709.461ZM709.461 73V34.04H700.501V73H709.461ZM727.179 73.8C735.339 73.8 739.099 67.72 740.299 62.6V65.48C740.299 71.08 743.579 73 747.739 73H753.259V65.32H750.779C749.339 65.32 748.699 64.76 748.699 63V48.36C748.699 38.76 743.259 33.24 733.579 33.24C724.939 33.24 718.859 37.72 715.819 41.88L721.179 48.28C723.419 44.2 727.499 41.16 732.699 41.16C738.059 41.16 739.819 43.8 740.139 47.72L727.099 53.24C720.779 55.72 716.939 59.08 716.939 64.6C716.939 70.2 720.779 73.8 727.179 73.8ZM725.579 63.24C725.579 61.24 726.939 59.88 730.299 58.36L740.299 53.88V58.04C740.299 63.32 736.299 66.84 730.379 66.84C727.099 66.84 725.579 65.48 725.579 63.24ZM769.071 73V19.4H760.111V73H769.071ZM805.086 28.52V19.4H796.126V28.52H805.086ZM792.766 88.68C800.126 88.68 805.086 83.32 805.086 75.24V34.04H796.126V75C796.126 79 794.686 80.44 791.726 80.44C788.846 80.44 786.766 78.6 785.566 76.36L780.766 83.16C782.606 85.4 786.206 88.68 792.766 88.68ZM830.964 73.8C842.324 73.8 850.004 65.64 850.004 53.56C850.004 41.4 842.324 33.24 830.964 33.24C819.764 33.24 812.084 41.4 812.084 53.56C812.084 65.64 819.764 73.8 830.964 73.8ZM831.044 66.36C825.284 66.36 821.284 62.52 821.284 53.56C821.284 44.52 825.284 40.68 831.044 40.68C836.884 40.68 840.884 44.52 840.884 53.56C840.884 62.52 836.884 66.36 831.044 66.36ZM869.609 73.8C877.369 73.8 881.369 68.52 882.809 62.36V73H891.849V34.04H882.809V55.88C882.809 62.28 880.569 66.52 874.009 66.52C868.009 66.52 866.409 63.24 866.409 58.44V34.04H857.449V61.16C857.449 69.24 862.089 73.8 869.609 73.8ZM910.243 73V51.56C910.243 45.08 914.403 39.96 918.883 39.96C921.523 39.96 922.563 41.72 922.563 43.88C922.563 46.12 921.363 48.68 920.082 49.96H929.283C930.003 48.76 931.043 45.96 931.043 42.2C931.043 36.44 927.443 33.24 922.563 33.24C915.603 33.24 911.683 38.84 910.243 45.08V34.04H901.283V73H910.243ZM945.321 73V51.16C945.321 44.76 947.561 40.52 954.121 40.52C960.121 40.52 961.721 43.8 961.721 48.6V73H970.761V45.88C970.761 37.8 966.121 33.24 958.521 33.24C950.761 33.24 946.761 38.52 945.321 44.68V34.04H936.361V73H945.321ZM997.078 73.8C1005.72 73.8 1011 69.88 1013.96 65.4L1008.44 59.64C1007 62.92 1003.96 66.44 997.158 66.44C990.998 66.44 986.918 62.68 986.438 55.72H1014.28C1014.44 54.92 1014.6 53.24 1014.6 51.8C1014.6 41 1008.12 33.24 996.438 33.24C985.478 33.24 977.878 41.32 977.878 53.56C977.878 65.72 985.478 73.8 997.078 73.8ZM996.438 40.44C1002.36 40.44 1005.88 43.8 1006.52 49.96H986.518C987.238 43.64 990.918 40.44 996.438 40.44ZM1029.04 86.36C1035.36 86.36 1039.92 83.56 1042.72 75.72L1057.12 34.04H1047.2L1040.24 56.12L1037.44 66.52L1034.64 56.12L1027.6 34.04H1017.76L1030.64 70.6H1036.16L1035.44 72.76C1034 77.08 1032.08 78.44 1029.04 78.44C1025.44 78.44 1023.04 76.2 1020.96 73.24L1016.72 80.44C1018.88 83.48 1023.44 86.36 1029.04 86.36Z" fill="url(#paint0_linear_82_6708)"/>
<circle cx="1122" cy="53" r="14" fill="#FDC416"/>
<defs>
<linearGradient id="paint0_linear_82_6708" x1="1056" y1="73" x2="147.932" y2="-319.098" gradientUnits="userSpaceOnUse">
<stop stop-color="#FFC711"/>
<stop offset="1" stop-color="#8807F7"/>
</linearGradient>
</defs>
</svg>
