<svg width="22" height="32" viewBox="0 0 22 32" fill="none" xmlns="http://www.w3.org/2000/svg">
<rect width="22" height="32" rx="11" fill="#2563EB"/>
<path d="M9.648 22.24C9.36 22.24 9.056 22.2187 8.736 22.176C8.416 22.144 8.10667 22.096 7.808 22.032C7.50933 21.968 7.23733 21.8987 6.992 21.824C6.74667 21.7493 6.55467 21.68 6.416 21.616L6.88 19.632C7.15733 19.7493 7.50933 19.8773 7.936 20.016C8.37333 20.144 8.912 20.208 9.552 20.208C10.288 20.208 10.8267 20.0693 11.168 19.792C11.5093 19.5147 11.68 19.1413 11.68 18.672C11.68 18.384 11.616 18.144 11.488 17.952C11.3707 17.7493 11.2053 17.5893 10.992 17.472C10.7787 17.344 10.5227 17.2587 10.224 17.216C9.936 17.1627 9.62667 17.136 9.296 17.136H8.368V15.216H9.424C9.65867 15.216 9.88267 15.1947 10.096 15.152C10.32 15.1093 10.5173 15.04 10.688 14.944C10.8587 14.8373 10.992 14.6987 11.088 14.528C11.1947 14.3467 11.248 14.1227 11.248 13.856C11.248 13.6533 11.2053 13.4773 11.12 13.328C11.0347 13.1787 10.9227 13.056 10.784 12.96C10.656 12.864 10.5013 12.7947 10.32 12.752C10.1493 12.6987 9.97333 12.672 9.792 12.672C9.33333 12.672 8.90667 12.7413 8.512 12.88C8.128 13.0187 7.776 13.1893 7.456 13.392L6.608 11.648C6.77867 11.5413 6.976 11.4293 7.2 11.312C7.43467 11.1947 7.69067 11.088 7.968 10.992C8.24533 10.896 8.53867 10.816 8.848 10.752C9.168 10.688 9.504 10.656 9.856 10.656C10.5067 10.656 11.0667 10.736 11.536 10.896C12.016 11.0453 12.4107 11.264 12.72 11.552C13.0293 11.8293 13.2587 12.16 13.408 12.544C13.5573 12.9173 13.632 13.328 13.632 13.776C13.632 14.2133 13.5093 14.64 13.264 15.056C13.0187 15.4613 12.688 15.7707 12.272 15.984C12.848 16.2187 13.2907 16.5707 13.6 17.04C13.92 17.4987 14.08 18.0533 14.08 18.704C14.08 19.216 13.9947 19.6907 13.824 20.128C13.6533 20.5547 13.3867 20.928 13.024 21.248C12.6613 21.5573 12.1973 21.8027 11.632 21.984C11.0773 22.1547 10.416 22.24 9.648 22.24Z" fill="white"/>
</svg>
