<svg width="1157" height="99" viewBox="0 0 1157 99" fill="none" xmlns="http://www.w3.org/2000/svg">
<path d="M43.2 73V65H14.32V49.64H38.24V41.64H14.32V27.4H43.2V19.4H5.28V73H43.2ZM58.5238 73V51.16C58.5238 44.76 60.7638 40.52 67.3238 40.52C73.3238 40.52 74.9238 43.8 74.9238 48.6V73H83.9638V45.88C83.9638 37.8 79.3238 33.24 71.7238 33.24C63.9638 33.24 59.9638 38.52 58.5238 44.68V34.04H49.5638V73H58.5238ZM102.118 73V51.16C102.118 44.76 104.358 40.52 110.918 40.52C116.918 40.52 118.518 43.8 118.518 48.6V73H127.558V45.88C127.558 37.8 122.918 33.24 115.318 33.24C107.558 33.24 103.558 38.52 102.118 44.68V19.4H93.1575V73H102.118ZM145.069 73.8C153.229 73.8 156.989 67.72 158.189 62.6V65.48C158.189 71.08 161.469 73 165.629 73H171.149V65.32H168.669C167.229 65.32 166.589 64.76 166.589 63V48.36C166.589 38.76 161.149 33.24 151.469 33.24C142.829 33.24 136.749 37.72 133.709 41.88L139.069 48.28C141.309 44.2 145.389 41.16 150.589 41.16C155.949 41.16 157.709 43.8 158.029 47.72L144.989 53.24C138.669 55.72 134.829 59.08 134.829 64.6C134.829 70.2 138.669 73.8 145.069 73.8ZM143.469 63.24C143.469 61.24 144.829 59.88 148.189 58.36L158.189 53.88V58.04C158.189 63.32 154.189 66.84 148.269 66.84C144.989 66.84 143.469 65.48 143.469 63.24ZM194.725 73.8C204.485 73.8 210.645 68.28 212.725 60.92L204.645 56.92C203.765 62.52 200.965 66.28 194.885 66.28C188.725 66.28 184.965 61.72 184.965 53.56C184.965 45.32 188.725 40.76 194.885 40.76C200.885 40.76 203.765 44.52 204.645 50.12L212.725 46.12C210.645 38.76 204.485 33.24 194.725 33.24C183.125 33.24 175.845 41.4 175.845 53.56C175.845 65.64 183.125 73.8 194.725 73.8ZM236.219 73.8C244.859 73.8 250.139 69.88 253.099 65.4L247.579 59.64C246.139 62.92 243.099 66.44 236.299 66.44C230.139 66.44 226.059 62.68 225.579 55.72H253.419C253.579 54.92 253.739 53.24 253.739 51.8C253.739 41 247.259 33.24 235.579 33.24C224.619 33.24 217.019 41.32 217.019 53.56C217.019 65.72 224.619 73.8 236.219 73.8ZM235.579 40.44C241.499 40.44 245.019 43.8 245.659 49.96H225.659C226.379 43.64 230.059 40.44 235.579 40.44ZM285.992 86.36C292.312 86.36 296.872 83.56 299.672 75.72L314.072 34.04H304.152L297.192 56.12L294.392 66.52L291.592 56.12L284.552 34.04H274.712L287.592 70.6H293.112L292.392 72.76C290.952 77.08 289.032 78.44 285.992 78.44C282.392 78.44 279.992 76.2 277.912 73.24L273.672 80.44C275.832 83.48 280.392 86.36 285.992 86.36ZM334.167 73.8C345.527 73.8 353.207 65.64 353.207 53.56C353.207 41.4 345.527 33.24 334.167 33.24C322.967 33.24 315.287 41.4 315.287 53.56C315.287 65.64 322.967 73.8 334.167 73.8ZM334.247 66.36C328.487 66.36 324.487 62.52 324.487 53.56C324.487 44.52 328.487 40.68 334.247 40.68C340.087 40.68 344.087 44.52 344.087 53.56C344.087 62.52 340.087 66.36 334.247 66.36ZM372.812 73.8C380.572 73.8 384.572 68.52 386.012 62.36V73H395.052V34.04H386.012V55.88C386.012 62.28 383.772 66.52 377.212 66.52C371.212 66.52 369.612 63.24 369.612 58.44V34.04H360.652V61.16C360.652 69.24 365.292 73.8 372.812 73.8ZM413.446 73V51.56C413.446 45.08 417.606 39.96 422.086 39.96C424.726 39.96 425.766 41.72 425.766 43.88C425.766 46.12 424.566 48.68 423.286 49.96H432.486C433.206 48.76 434.246 45.96 434.246 42.2C434.246 36.44 430.646 33.24 425.766 33.24C418.806 33.24 414.886 38.84 413.446 45.08V34.04H404.486V73H413.446ZM474.113 73L479.553 52.76L482.113 40.68L484.593 52.76L490.113 73H501.553L511.553 34.04H501.553L497.473 55.96L495.793 66.92L493.393 55.96L487.393 34.04H476.753L470.833 55.96L468.353 66.92L466.673 55.96L462.673 34.04H452.673L462.593 73H474.113ZM532.078 73.8C540.718 73.8 545.998 69.88 548.958 65.4L543.438 59.64C541.998 62.92 538.958 66.44 532.158 66.44C525.998 66.44 521.918 62.68 521.438 55.72H549.278C549.438 54.92 549.598 53.24 549.598 51.8C549.598 41 543.118 33.24 531.438 33.24C520.478 33.24 512.878 41.32 512.878 53.56C512.878 65.72 520.478 73.8 532.078 73.8ZM531.438 40.44C537.358 40.44 540.878 43.8 541.518 49.96H521.518C522.238 43.64 525.918 40.44 531.438 40.44ZM565.851 73.8C574.011 73.8 577.771 67.72 578.971 62.6V65.48C578.971 71.08 582.251 73 586.411 73H591.931V65.32H589.451C588.011 65.32 587.371 64.76 587.371 63V48.36C587.371 38.76 581.931 33.24 572.251 33.24C563.611 33.24 557.531 37.72 554.491 41.88L559.851 48.28C562.091 44.2 566.171 41.16 571.371 41.16C576.731 41.16 578.491 43.8 578.811 47.72L565.771 53.24C559.451 55.72 555.611 59.08 555.611 64.6C555.611 70.2 559.451 73.8 565.851 73.8ZM564.251 63.24C564.251 61.24 565.611 59.88 568.971 58.36L578.971 53.88V58.04C578.971 63.32 574.971 66.84 569.051 66.84C565.771 66.84 564.251 65.48 564.251 63.24ZM607.743 73V19.4H598.783V73H607.743ZM631.3 73.88C636.98 73.88 640.82 71.24 642.5 68.76L639.7 60.76C638.58 63 636.34 65.48 633.3 65.48C630.66 65.48 628.66 64.44 628.66 60.2V41H640.58V34.04H628.66V23.64L619.7 29.32V34.04H613.62V41H619.7V62.36C619.7 69.24 623.94 73.88 631.3 73.88ZM657.508 73V51.16C657.508 44.76 659.748 40.52 666.308 40.52C672.308 40.52 673.908 43.8 673.908 48.6V73H682.948V45.88C682.948 37.8 678.308 33.24 670.708 33.24C662.948 33.24 658.948 38.52 657.508 44.68V19.4H648.548V73H657.508ZM717.743 73V62.68C719.023 68.68 722.303 73.88 730.063 73.88C739.743 73.88 745.823 66.12 745.823 53.56C745.823 41 739.743 33.24 730.223 33.24C722.463 33.24 719.023 38.44 717.743 44.52V19.4H708.783V73H717.743ZM717.743 56.04V51.16C717.743 44.76 720.383 40.52 726.703 40.52C732.383 40.52 736.623 44.84 736.623 53.56C736.623 62.36 732.383 66.6 726.703 66.6C720.383 66.6 717.743 62.44 717.743 56.04ZM759.586 86.36C765.906 86.36 770.466 83.56 773.266 75.72L787.666 34.04H777.746L770.786 56.12L767.986 66.52L765.186 56.12L758.146 34.04H748.306L761.186 70.6H766.706L765.986 72.76C764.546 77.08 762.626 78.44 759.586 78.44C755.986 78.44 753.586 76.2 751.506 73.24L747.266 80.44C749.426 83.48 753.986 86.36 759.586 86.36ZM826.688 73.8C835.328 73.8 840.608 69.88 843.568 65.4L838.048 59.64C836.608 62.92 833.568 66.44 826.768 66.44C820.608 66.44 816.528 62.68 816.048 55.72H843.888C844.048 54.92 844.208 53.24 844.208 51.8C844.208 41 837.728 33.24 826.048 33.24C815.088 33.24 807.488 41.32 807.488 53.56C807.488 65.72 815.088 73.8 826.688 73.8ZM826.048 40.44C831.968 40.44 835.488 43.8 836.128 49.96H816.128C816.848 43.64 820.528 40.44 826.048 40.44ZM860.46 73.8C868.62 73.8 872.38 67.72 873.58 62.6V65.48C873.58 71.08 876.86 73 881.02 73H886.54V65.32H884.06C882.62 65.32 881.98 64.76 881.98 63V48.36C881.98 38.76 876.54 33.24 866.86 33.24C858.22 33.24 852.14 37.72 849.1 41.88L854.46 48.28C856.7 44.2 860.78 41.16 865.98 41.16C871.34 41.16 873.1 43.8 873.42 47.72L860.38 53.24C854.06 55.72 850.22 59.08 850.22 64.6C850.22 70.2 854.06 73.8 860.46 73.8ZM858.86 63.24C858.86 61.24 860.22 59.88 863.58 58.36L873.58 53.88V58.04C873.58 63.32 869.58 66.84 863.66 66.84C860.38 66.84 858.86 65.48 858.86 63.24ZM902.352 73V51.56C902.352 45.08 906.512 39.96 910.992 39.96C913.632 39.96 914.672 41.72 914.672 43.88C914.672 46.12 913.472 48.68 912.192 49.96H921.392C922.112 48.76 923.152 45.96 923.152 42.2C923.152 36.44 919.552 33.24 914.672 33.24C907.712 33.24 903.792 38.84 902.352 45.08V34.04H893.392V73H902.352ZM937.43 73V51.16C937.43 44.76 939.67 40.52 946.23 40.52C952.23 40.52 953.83 43.8 953.83 48.6V73H962.87V45.88C962.87 37.8 958.23 33.24 950.63 33.24C942.87 33.24 938.87 38.52 937.43 44.68V34.04H928.47V73H937.43ZM981.024 28.52V19.4H972.064V28.52H981.024ZM981.024 73V34.04H972.064V73H981.024ZM999.461 73V51.16C999.461 44.76 1001.7 40.52 1008.26 40.52C1014.26 40.52 1015.86 43.8 1015.86 48.6V73H1024.9V45.88C1024.9 37.8 1020.26 33.24 1012.66 33.24C1004.9 33.24 1000.9 38.52 999.461 44.68V34.04H990.501V73H999.461ZM1049.63 61.32C1059.23 61.32 1065.71 55.56 1065.71 47.32C1065.71 42.44 1063.47 38.44 1059.63 35.96L1066.91 27.96L1058.27 25L1056.35 34.36C1054.35 33.64 1052.11 33.24 1049.63 33.24C1040.03 33.24 1033.47 39.08 1033.47 47.32C1033.47 52.28 1035.87 56.36 1039.79 58.76C1036.19 61.24 1033.15 64.68 1033.15 68.2C1033.15 71.16 1034.99 73 1037.79 73.8C1034.03 74.68 1030.51 76.68 1030.51 80.36C1030.51 85.24 1036.83 88.68 1047.71 88.68C1061.87 88.68 1069.07 83.08 1069.07 75.72C1069.07 69.88 1064.83 66.76 1057.07 66.76H1044.51C1040.91 66.76 1039.87 65.72 1039.87 63.72C1039.87 62.36 1040.75 60.84 1041.47 59.64C1043.79 60.76 1046.59 61.32 1049.63 61.32ZM1049.63 54.92C1045.39 54.92 1042.03 52.2 1042.03 47.32C1042.03 42.44 1045.39 39.72 1049.63 39.72C1053.87 39.72 1057.23 42.44 1057.23 47.32C1057.23 52.2 1053.87 54.92 1049.63 54.92ZM1048.11 81.96C1040.99 81.96 1037.79 80.28 1037.79 77.4C1037.79 76.04 1038.75 74.76 1039.63 73.88H1055.87C1059.31 73.88 1060.99 74.76 1060.99 76.84C1060.99 80.12 1056.51 81.96 1048.11 81.96Z" fill="url(#paint0_linear_82_6711)"/>
<circle cx="1143" cy="52" r="14" fill="#FDC416"/>
<defs>
<linearGradient id="paint0_linear_82_6711" x1="1069.74" y1="73" x2="153.627" y2="-327.719" gradientUnits="userSpaceOnUse">
<stop stop-color="#FFC711"/>
<stop offset="1" stop-color="#8807F7"/>
</linearGradient>
</defs>
</svg>
