<svg width="778" height="691" viewBox="0 0 778 691" fill="none" xmlns="http://www.w3.org/2000/svg">
<g clip-path="url(#clip0_10919_114255)">
<mask id="mask0_10919_114255" style="mask-type:luminance" maskUnits="userSpaceOnUse" x="-427" y="-42" width="1205" height="804">
<path d="M778 -42H-427V761.333H778V-42Z" fill="white"/>
</mask>
<g mask="url(#mask0_10919_114255)">
<path d="M369.582 233.336L321.305 228.246C318.646 224.96 317.154 223.117 314.494 219.832L319.553 171.84C322.839 169.18 324.681 167.689 327.968 165.03L376.246 170.119C378.904 173.406 380.396 175.249 383.056 178.534L377.997 226.525C374.71 229.185 372.869 230.676 369.582 233.336Z" fill="#380F8F"/>
<path d="M370.829 226.437L321.519 221.238L326.717 171.928L376.028 177.126L370.829 226.437Z" fill="#8550FB"/>
<path d="M376.243 170.119L376.026 177.127L383.054 178.535L376.243 170.119Z" fill="#7861EB"/>
<path d="M327.968 165.03L326.719 171.928L319.552 171.841L327.968 165.03Z" fill="#7861EB"/>
<path d="M321.303 228.247L321.52 221.239L314.492 219.831L321.303 228.247Z" fill="#7861EB"/>
<path d="M369.581 233.338L370.83 226.439L377.997 226.527L369.581 233.338Z" fill="#7861EB"/>
<path d="M397.41 287.627L398.372 279.165C419.94 281.619 439.273 267.92 441.468 248.626C443.813 228.025 431.171 212.012 410.724 209.685L411.689 201.221C436.714 204.068 452.797 224.411 449.931 249.59C447.206 273.549 423.644 290.613 397.41 287.627Z" fill="#8550FB"/>
<path d="M404.977 190.398C399.553 189.781 394.498 192.297 391.609 196.505L398.649 197.306C402.311 197.722 404.942 201.029 404.525 204.691C404.109 208.354 400.802 210.985 397.14 210.568L390.1 209.767C391.97 214.516 396.33 218.104 401.754 218.722C409.576 219.612 416.638 213.993 417.528 206.171C418.417 198.35 412.799 191.288 404.977 190.398Z" fill="#F38346"/>
<path d="M413.359 206.009C413.483 204.916 412.698 203.928 411.605 203.804C410.512 203.679 409.525 204.465 409.4 205.558C409.275 206.651 410.061 207.638 411.155 207.763C412.248 207.887 413.235 207.102 413.359 206.009Z" fill="#380F8F"/>
<path d="M406.171 295.87L397.893 294.998L400.255 272.606L408.531 273.479L406.171 295.87Z" fill="#380F8F"/>
<path d="M401.014 305.081L392.739 304.209L397.134 262.523L405.408 263.395L401.014 305.081Z" fill="#8550FB"/>
<path d="M283.145 276.418C265.102 277.571 249.016 269.074 241.163 254.242C235.747 244.015 234.84 229.695 238.739 215.94C242.816 201.554 251.43 189.98 262.375 184.184L266.36 191.711C257.461 196.425 250.381 206.102 246.934 218.263C243.619 229.959 244.276 241.92 248.69 250.257C254.955 262.087 267.949 268.854 282.601 267.917L283.145 276.418Z" fill="#8550FB"/>
<path d="M259.943 172.338C264.076 168.034 270.084 166.625 275.45 168.149L270.087 173.735C267.297 176.641 267.39 181.258 270.297 184.048C273.203 186.839 277.82 186.744 280.612 183.839L285.974 178.253C287.715 183.553 286.55 189.615 282.417 193.919C276.458 200.125 266.598 200.325 260.39 194.366C254.184 188.406 253.984 178.544 259.943 172.338Z" fill="#F38346"/>
<path d="M278.781 164.232L273.273 170.583L276.019 178.529L284.274 180.123L289.781 173.772L287.036 165.826L278.781 164.232ZM284.703 174.933C283.182 176.686 280.526 176.876 278.773 175.354C277.018 173.833 276.829 171.177 278.35 169.423C279.873 167.669 282.527 167.48 284.282 169.001C286.036 170.523 286.225 173.178 284.703 174.933Z" fill="#380F8F"/>
<path d="M267.283 188.404C267.204 187.307 266.252 186.48 265.154 186.558C264.058 186.636 263.231 187.589 263.309 188.686C263.386 189.784 264.34 190.61 265.437 190.533C266.535 190.454 267.362 189.501 267.283 188.404Z" fill="#380F8F"/>
<path d="M274.973 259.399L283.249 260.273L280.889 282.665L272.612 281.792L274.973 259.399Z" fill="#380F8F"/>
<path d="M280.128 250.186L288.404 251.06L284.01 292.746L275.733 291.874L280.128 250.186Z" fill="#8550FB"/>
<path d="M374.034 356.473L291.27 347.749C286.711 342.115 284.154 338.956 279.594 333.321L288.267 251.048C293.901 246.489 297.061 243.933 302.696 239.373L385.458 248.097C390.019 253.731 392.574 256.891 397.135 262.526L388.461 344.798C382.827 349.357 379.668 351.914 374.034 356.473Z" fill="#F38346"/>
<path d="M376.175 344.645L291.639 335.735L300.551 251.2L385.086 260.112L376.175 344.645Z" fill="#FB8E52"/>
<path d="M385.459 248.098L385.087 260.112L397.135 262.525L385.459 248.098Z" fill="#FB8E52"/>
<path d="M302.694 239.374L300.551 251.201L288.267 251.049L302.694 239.374Z" fill="#FB8E52"/>
<path d="M291.269 347.751L291.64 335.737L279.592 333.324L291.269 347.751Z" fill="#FB8E52"/>
<path d="M374.035 356.475L376.178 344.648L388.462 344.8L374.035 356.475Z" fill="#FB8E52"/>
<path d="M314.203 258.095L306.761 268.089L311.695 279.53L324.07 280.978L331.511 270.984L326.578 259.542L314.203 258.095ZM324.135 273.258C322.079 276.018 318.175 276.59 315.415 274.534C312.655 272.478 312.084 268.575 314.138 265.815C316.194 263.054 320.098 262.483 322.857 264.538C325.619 266.593 326.19 270.497 324.135 273.258Z" fill="#F4D27D"/>
<path d="M345.094 266.196L340.34 272.58L343.491 279.888L351.397 280.813L356.15 274.428L352.998 267.12L345.094 266.196ZM351.438 275.881C350.125 277.644 347.631 278.01 345.869 276.696C344.105 275.383 343.74 272.89 345.053 271.127C346.365 269.364 348.859 268.998 350.622 270.312C352.385 271.624 352.75 274.118 351.438 275.881Z" fill="#F4D27D"/>
<path d="M365.053 269.141L360.299 275.525L363.451 282.833L371.356 283.758L376.109 277.375L372.958 270.066L365.053 269.141ZM371.397 278.827C370.085 280.59 367.591 280.955 365.828 279.642C364.064 278.329 363.699 275.836 365.012 274.072C366.325 272.309 368.818 271.945 370.581 273.258C372.345 274.57 372.709 277.064 371.397 278.827Z" fill="#F4D27D"/>
<path d="M335.406 230.691L355.241 232.783L354.738 237.568L334.902 235.477L335.406 230.691Z" fill="#F38346"/>
<path d="M334.777 236.64L354.612 238.731L354.109 243.516L334.273 241.425L334.777 236.64Z" fill="#F38346"/>
<path d="M365.175 222.369L327.865 218.437L328.967 207.975L366.277 211.909L365.175 222.369Z" fill="#380F8F"/>
<path d="M362.737 220.551L330.622 217.166L331.393 209.85L363.508 213.235L362.737 220.551Z" fill="#A795FF"/>
<mask id="mask1_10919_114255" style="mask-type:luminance" maskUnits="userSpaceOnUse" x="-460" y="-90" width="1290" height="936">
<path d="M-459.498 47.3994L737.664 -89.8129L829.139 708.295L-368.023 845.508L-459.498 47.3994Z" fill="white"/>
</mask>
<g mask="url(#mask1_10919_114255)">
<g opacity="0.0746">
<path d="M356.423 218.006L355.159 217.873L355.671 213.004L356.934 213.138L356.423 218.006Z" fill="#380F8F"/>
</g>
<g opacity="0.341267">
<path d="M357.958 219.454L356.695 219.321L357.206 214.452L358.469 214.586L357.958 219.454Z" fill="#380F8F"/>
</g>
<g opacity="0.607933">
<path d="M359.764 218.357L358.501 218.224L359.013 213.356L360.276 213.49L359.764 218.357Z" fill="#380F8F"/>
</g>
<g opacity="0.8746">
<path d="M360.744 216.043L362.058 216.182L362.034 217.419C362.174 217.284 362.272 217.104 362.293 216.896L362.42 215.698C362.469 215.227 362.128 214.805 361.658 214.755L361.434 214.733C360.963 214.683 360.543 215.023 360.494 215.494L360.367 216.692C360.344 216.9 360.403 217.096 360.511 217.257L360.744 216.043Z" fill="#380F8F"/>
<path d="M361.917 216.44L360.827 216.324L359.939 221.346L361.739 221.536L361.917 216.44ZM360.399 220.806L360.615 220.058L361.346 220.136L361.401 220.913L360.399 220.806Z" fill="#380F8F"/>
</g>
</g>
<path d="M348.729 198.047L341.674 206.869L353.79 208.147L348.729 198.047Z" fill="#380F8F"/>
<path d="M335.969 195.856C332.203 195.459 329.46 192.073 329.858 188.307C330.255 184.541 333.643 181.8 337.408 182.197C341.174 182.594 343.915 185.98 343.518 189.747C343.122 193.513 339.735 196.254 335.969 195.856ZM337.335 182.906C333.959 182.55 330.923 185.006 330.567 188.382C330.212 191.756 332.668 194.791 336.043 195.147C339.417 195.503 342.452 193.046 342.808 189.672C343.164 186.297 340.709 183.262 337.335 182.906Z" fill="#F6D5F9"/>
<path d="M335.766 197.77C330.945 197.261 327.436 192.926 327.945 188.103C328.453 183.282 332.788 179.774 337.609 180.282C342.431 180.79 345.94 185.125 345.433 189.948C344.924 194.769 340.587 198.278 335.766 197.77ZM337.536 180.991C333.106 180.525 329.121 183.748 328.655 188.178C328.187 192.609 331.411 196.592 335.842 197.06C340.273 197.526 344.256 194.303 344.723 189.873C345.19 185.443 341.967 181.459 337.536 180.991Z" fill="#F6D5F9"/>
<path d="M361.665 198.563C357.899 198.166 355.159 194.78 355.555 191.014C355.952 187.248 359.34 184.507 363.105 184.904C366.871 185.301 369.611 188.688 369.214 192.454C368.817 196.22 365.431 198.961 361.665 198.563ZM363.03 185.613C359.655 185.258 356.621 187.714 356.265 191.089C355.91 194.463 358.365 197.498 361.74 197.854C365.114 198.21 368.148 195.753 368.505 192.379C368.861 189.004 366.405 185.969 363.03 185.613Z" fill="#F6D5F9"/>
<path d="M361.46 200.478C356.639 199.969 353.132 195.634 353.64 190.812C354.149 185.99 358.484 182.483 363.306 182.991C368.127 183.499 371.636 187.834 371.129 192.656C370.62 197.478 366.283 200.987 361.46 200.478ZM363.231 183.7C358.801 183.233 354.817 186.457 354.35 190.887C353.883 195.318 357.107 199.301 361.537 199.769C365.968 200.235 369.952 197.011 370.419 192.582C370.885 188.151 367.662 184.168 363.231 183.7Z" fill="#F6D5F9"/>
<path d="M358.824 194.236L364.273 187.821L365.945 189.24L360.496 195.655L358.824 194.236Z" fill="#F4D27D"/>
<path d="M364.88 195.3L358.464 189.852L359.884 188.179L366.3 193.627L364.88 195.3Z" fill="#F4D27D"/>
<path d="M332.463 190.058L339.873 186.067L340.914 187.997L333.503 191.988L332.463 190.058Z" fill="#F4D27D"/>
<path d="M337.72 193.252L333.728 185.841L335.66 184.801L339.651 192.213L337.72 193.252Z" fill="#F4D27D"/>
<path d="M385.223 209.88L381.613 209.499L382.967 196.655L386.577 197.034L385.223 209.88Z" fill="#380F8F"/>
<path d="M382.835 215.225L379.225 214.845L381.745 190.931L385.356 191.312L382.835 215.225Z" fill="#8550FB"/>
<path d="M312.371 189.213L315.982 189.595L314.628 202.439L311.018 202.059L312.371 189.213Z" fill="#380F8F"/>
<path d="M314.762 183.87L318.371 184.25L315.852 208.163L312.241 207.782L314.762 183.87Z" fill="#8550FB"/>
<path d="M352.76 164.152L351.396 164.008C353.309 163.513 355.469 162.161 355.987 161.123C356.287 160.526 356.317 159.93 356.075 159.352C354.417 159.69 352.625 159.818 350.858 159.723C350.577 159.708 350.262 159.677 350.01 159.519C349.684 159.313 349.664 159.058 349.68 158.923C349.735 158.498 350.3 158.128 350.802 157.964C352.936 157.268 354.573 157.268 355.674 157.967C355.973 158.156 356.222 158.397 356.416 158.684C356.425 158.681 356.434 158.679 356.444 158.677C357.763 158.367 358.699 157.967 359.306 157.454C360.013 156.854 360.225 156.055 359.847 155.42C359.808 155.354 359.763 155.289 359.712 155.224C357.875 156.09 355.326 156.498 352.116 156.436C351.874 156.432 351.602 156.435 351.315 156.438C349.882 156.456 348.401 156.478 348.087 155.711C348.028 155.307 348.138 155 348.394 154.726C349.399 153.663 352.512 153.376 354.279 153.298C355.31 153.252 356.522 153.241 357.673 153.505C358.544 153.705 359.298 154.056 359.828 154.498C359.974 154.417 360.112 154.334 360.246 154.249C361.325 153.545 361.979 152.483 361.993 151.41C361.997 151.109 361.951 150.744 361.787 150.362C360.862 150.81 359.788 151.06 358.841 151.246C355.739 151.853 352.496 152.046 349.201 151.817C347.524 151.695 346.519 151.288 346.181 150.588C345.815 149.83 346.409 149.026 347.775 148.437C350.314 147.345 353.415 146.905 356.507 147.198C358.481 147.38 360.057 147.875 361.115 148.642C361.484 148.908 361.788 149.211 362.026 149.543C362.917 148.949 363.431 148.069 363.45 147.088C363.47 145.934 362.821 144.845 361.671 144.099C360.196 143.144 357.976 142.667 355.582 142.79L355.186 142.81L355.241 142.457C355.54 140.528 355.359 138.433 355.184 136.408C355.044 134.782 354.912 133.244 355.019 131.83L355.655 131.883C355.551 133.255 355.681 134.771 355.82 136.376C355.988 138.313 356.16 140.312 355.92 142.201C358.313 142.142 360.522 142.656 362.035 143.635C363.343 144.482 364.111 145.782 364.087 147.11C364.066 148.3 363.43 149.364 362.332 150.06C362.535 150.489 362.637 150.949 362.63 151.429C362.615 152.681 361.865 153.91 360.627 154.717C360.509 154.794 360.386 154.869 360.26 154.94C360.315 155.011 360.365 155.082 360.41 155.156C360.927 156.029 360.668 157.096 359.747 157.877C359.076 158.445 358.077 158.884 356.694 159.215C356.969 159.916 356.926 160.658 356.571 161.37C355.974 162.561 354.551 163.601 352.76 164.152ZM354.104 158.045C353.103 157.94 351.948 158.206 351.031 158.505C350.577 158.654 350.308 158.929 350.314 159.005C350.481 159.122 350.691 159.138 350.882 159.15C352.533 159.237 354.204 159.125 355.759 158.823C355.631 158.672 355.483 158.541 355.315 158.435C354.963 158.212 354.549 158.092 354.104 158.045ZM356.586 153.909C355.807 153.826 355.023 153.842 354.323 153.873C351.532 153.994 349.498 154.456 348.885 155.104C348.742 155.258 348.682 155.417 348.703 155.591C348.838 155.894 350.435 155.873 351.291 155.864C351.587 155.86 351.868 155.856 352.114 155.861C355.125 155.918 357.513 155.558 359.241 154.79C358.805 154.475 358.21 154.219 357.53 154.063C357.219 153.992 356.903 153.942 356.586 153.909ZM356.619 147.788C356.564 147.782 356.508 147.776 356.454 147.771C353.477 147.487 350.496 147.909 348.059 148.958C347.787 149.076 346.44 149.697 346.764 150.368C346.991 150.838 347.869 151.148 349.237 151.244C352.469 151.468 355.65 151.279 358.692 150.684C359.603 150.504 360.632 150.266 361.494 149.844C361.308 149.586 361.057 149.33 360.722 149.087C359.792 148.413 358.411 147.976 356.619 147.788Z" fill="#F38346"/>
<path d="M357.237 132.058C357.336 131.114 356.566 130.26 355.516 130.149C354.467 130.038 353.535 130.713 353.437 131.658C353.337 132.601 354.106 133.457 355.157 133.567C356.206 133.679 357.137 133.002 357.237 132.058Z" fill="#F38346"/>
<path d="M358.954 169.183C359.358 165.351 356.579 161.919 352.747 161.514C348.915 161.11 345.481 163.889 345.077 167.721C344.673 171.554 358.55 173.015 358.954 169.183Z" fill="#8550FB"/>
<path d="M656.087 234.84L611.929 239.65L614.262 255.708L656.087 234.84Z" fill="#380F8F"/>
<path d="M656.088 234.841L618.706 244.164L614.262 255.708L656.088 234.841Z" fill="#8550FB"/>
<path d="M656.09 234.841L601.898 229.94L611.931 239.651L656.09 234.841Z" fill="#A795FF"/>
<path d="M656.088 234.84L618.705 244.163L631.551 254.9L656.088 234.84Z" fill="#A795FF"/>
<path d="M69.0605 92.6445L118.846 116.431L109.657 132.811L69.0605 92.6445Z" fill="#380F8F"/>
<path d="M69.0605 92.6445L109.096 118.458L109.657 132.811L69.0605 92.6445Z" fill="#8550FB"/>
<path d="M69.0612 92.6454L134.503 110.157L118.847 116.432L69.0612 92.6454Z" fill="#A795FF"/>
<path d="M69.0605 92.6445L109.095 118.458L89.7331 124.66L69.0605 92.6445Z" fill="#A795FF"/>
<path d="M453.781 318.826L460.48 317.658C462.324 321.818 464.756 325.619 467.659 328.972L463.747 334.537C462.447 336.382 462.891 338.932 464.739 340.23L476.195 348.285C478.041 349.583 480.59 349.139 481.888 347.293L485.801 341.728C489.938 343.325 494.336 344.328 498.876 344.656L500.044 351.355C500.432 353.579 502.548 355.068 504.772 354.68L518.568 352.275C520.793 351.888 522.281 349.771 521.893 347.547L520.725 340.848C524.887 339.003 528.687 336.571 532.039 333.669L537.604 337.581C539.451 338.88 541.999 338.436 543.297 336.589L551.352 325.133C552.651 323.287 552.206 320.737 550.36 319.44L544.796 315.527C546.394 311.39 547.395 306.991 547.724 302.452L554.423 301.284C556.646 300.896 558.135 298.779 557.747 296.556L555.343 282.76C554.955 280.535 552.837 279.048 550.614 279.435L543.915 280.603C542.07 276.441 539.64 272.641 536.736 269.288L540.649 263.724C541.947 261.877 541.503 259.328 539.656 258.031L528.201 249.976C526.354 248.677 523.806 249.121 522.507 250.968L518.594 256.532C514.457 254.936 510.059 253.932 505.519 253.604L504.351 246.904C503.964 244.681 501.847 243.193 499.623 243.581L485.827 245.985C483.603 246.373 482.115 248.49 482.502 250.713L483.67 257.413C479.508 259.257 475.709 261.689 472.356 264.591L466.791 260.679C464.945 259.381 462.396 259.825 461.098 261.672L453.043 273.127C451.743 274.973 452.188 277.522 454.035 278.821L459.6 282.733C458.002 286.871 456.999 291.269 456.672 295.809L449.973 296.977C447.749 297.364 446.26 299.481 446.648 301.705L449.053 315.501C449.44 317.724 451.557 319.213 453.781 318.826ZM497.454 271.916C512.485 269.296 526.793 279.357 529.412 294.387C532.032 309.417 521.972 323.725 506.941 326.345C491.91 328.965 477.602 318.904 474.982 303.874C472.362 288.844 482.423 274.536 497.454 271.916Z" fill="#8550FB"/>
<path d="M156.834 405.13C155.988 403.55 155.118 402.015 154.227 400.524L156.834 405.13Z" fill="#F4D27D"/>
<path d="M156.613 414.899L154.192 400.464C149.757 393.061 144.866 386.804 140.666 382.222C137.614 386.803 138.495 399.265 138.495 399.265C136.688 386.546 137.398 382.532 136.823 378.364C130.13 372.16 121.119 369.714 113.79 366.591C118.998 381.186 119.445 385.013 119.445 385.013C117.038 376.149 113.025 370.418 110.626 365.319C92.1132 358.278 83.8462 362.355 83.8462 362.355C85.0933 368.684 89.5671 382.428 91.1209 387.758C99.2531 392.597 110.117 396.896 110.117 396.896C104.737 396.131 97.3847 393.311 92.1243 391.063C94.5424 398.748 94.2271 397.472 97.3062 403.351C105.486 408.612 121.114 413.565 121.114 413.565C114.622 413.116 105.114 409.905 99.8929 407.978C105.792 417.879 112.744 425.377 120.681 431.777C128.596 433.782 136.848 434.879 136.848 434.879C133.223 435.281 128.529 434.98 124.155 434.467C133.416 441.358 143.912 447.096 155.543 453.561L166.608 456L167.225 439.987C166.625 427.414 162.351 415.466 156.909 405.268L156.613 414.899Z" fill="#F4D27D"/>
<path d="M150.968 431.263C153.55 434.607 156.057 438.026 158.39 441.589C160.725 445.144 162.868 448.877 164.519 452.864L164.349 452.946C162.593 449.039 160.362 445.406 157.941 441.952C155.522 438.491 152.932 435.177 150.27 431.938C144.957 425.442 139.361 419.225 133.747 413.028C128.137 406.825 122.368 400.779 116.986 394.3C114.294 391.064 111.638 387.787 109.09 384.408C106.531 381.039 104.082 377.563 101.805 373.959L101.949 373.833C107.299 380.331 112.788 386.63 118.333 392.891C123.889 399.135 129.308 405.546 134.809 411.881C140.295 418.228 145.772 424.603 150.968 431.263Z" fill="#FDF3F8"/>
<path d="M140.712 457.888C140.778 442.412 141.753 435.892 140.605 430.788C131.68 424.211 121.99 420.006 112.6 417.389C120.567 434.706 118.662 446.972 118.662 446.972C118.191 434.422 112.055 422.304 108.553 416.356C84.9203 410.805 64.2548 414.701 64.2548 414.701C66.4594 422.388 68.7998 429.379 71.2787 435.765C81.8427 440.382 95.7299 443.848 95.7299 443.848C88.9955 443.836 79.6074 441.603 72.8658 439.716C76.6607 448.889 80.7641 456.743 85.1885 463.546C95.8556 468.682 115.702 472.131 115.702 472.131C107.626 472.708 95.5296 470.364 88.8729 468.872C97.2037 480.203 106.585 488.35 117.071 494.952C127.069 496.072 137.391 495.995 137.391 495.995C132.948 497.131 127.112 497.578 121.648 497.704C133.822 504.688 147.405 510.017 162.466 516.052L176.406 517.16L175.496 497.052C171.523 466.909 159.984 447.433 145.762 434.933C142.466 441.189 140.712 457.888 140.712 457.888Z" fill="#A795FF"/>
<path d="M173.298 513.741C170.719 509.168 167.578 505.023 164.222 501.132C160.87 497.234 157.319 493.549 153.687 489.968C146.436 482.786 138.866 476.004 131.274 469.246C123.688 462.481 115.92 455.942 108.588 448.793C104.919 445.224 101.293 441.595 97.786 437.821C94.2701 434.06 90.8755 430.151 87.6823 426.049L87.8494 425.865C95.1455 433.043 102.593 439.946 110.106 446.796C117.63 453.622 125.001 460.681 132.467 467.628C139.917 474.594 147.356 481.596 154.479 489.005C158.022 492.728 161.482 496.559 164.739 500.6C167.999 504.631 171.041 508.919 173.499 513.609L173.298 513.741Z" fill="#7861EB"/>
<path d="M574.521 443.329C576.226 441.8 577.872 440.243 579.451 438.67L574.521 443.329Z" fill="#A795FF"/>
<path d="M562.129 445.268L579.512 438.608C587.353 430.782 593.594 422.596 597.958 415.745C591.156 412.586 575.743 416.669 575.743 416.669C591.169 411.25 596.469 411.306 601.529 409.554C607.101 398.89 607.15 385.891 608.622 375.057C591.973 385.602 587.299 387.097 587.299 387.097C597.664 381.737 603.538 374.883 609.16 370.398C611.807 343.229 603.886 332.756 603.886 332.756C596.326 335.933 580.503 345.27 574.305 348.641C570.942 360.977 569.179 376.958 569.179 376.958C568.332 369.357 569.415 358.562 570.479 350.784C561.605 355.89 563.106 355.161 556.73 360.763C552.85 373.262 551.866 395.968 551.866 395.968C550.247 386.906 551.095 373.045 551.766 365.397C541.271 375.815 534.158 387.136 528.759 399.562C528.893 410.945 530.288 422.586 530.288 422.586C528.564 417.675 527.363 411.131 526.537 404.976C520.966 419.34 517.264 435.147 513.028 452.685L513.675 468.518L534.072 465.686C549.72 461.966 563.345 453.319 574.372 443.464L562.129 445.268Z" fill="#A795FF"/>
<path d="M539.598 441.244C536.249 445.576 532.784 449.824 529.078 453.864C525.381 457.904 521.396 461.72 516.926 464.916L516.764 464.699C521.102 461.378 524.926 457.462 528.468 453.327C532.017 449.193 535.324 444.855 538.512 440.435C544.914 431.609 550.867 422.457 556.791 413.282C562.724 404.114 568.405 394.761 574.762 385.845C577.935 381.383 581.174 376.965 584.576 372.67C587.962 368.365 591.518 364.183 595.295 360.211L595.503 360.383C589.113 369.263 583.02 378.285 576.991 387.379C570.987 396.484 564.729 405.435 558.594 414.483C552.439 423.515 546.246 432.54 539.598 441.244Z" fill="#7861EB"/>
<path d="M546.377 407.335C545.603 408.791 544.777 410.25 543.904 411.704L546.377 407.335ZM543.827 411.831C538.174 421.206 530.42 430.291 520.16 436.332L506.349 442.779L502.441 431.72C501.617 418.39 500.792 406.402 501.602 395.026C503.528 399.201 505.804 403.568 508.095 406.668C508.095 406.668 504.571 398.736 501.995 390.712C503.107 380.747 505.672 371.188 510.828 361.531C512.019 367.088 514.438 377.078 517.558 383.137C517.558 383.137 513.308 366.859 513.33 357.172C516.618 351.819 515.716 352.663 520.88 347.117C521.822 352.851 523.409 360.724 525.665 365.917C525.665 365.917 523.429 354.226 523.121 344.766C526.771 341.032 535.929 330.98 540.586 327.085C540.586 327.085 548.47 332.767 552.517 352.564C549.518 356.961 546.857 363.091 540.693 369.141C540.693 369.141 543.673 367.064 553.152 355.976C554.471 363.961 557.268 373.168 555.651 381.924C552.453 384.268 548.691 385.383 538.958 392.577C538.958 392.577 548.974 386.331 554.473 387.083C552.879 392.88 550.248 400.033 546.406 407.276L535.56 415.776L543.827 411.831ZM526.355 394.766C528.723 387.029 531.199 379.332 533.463 371.584C535.747 363.838 538.09 356.127 540.676 348.454L540.492 348.378C538.685 352.011 537.08 355.744 535.624 359.527C534.151 363.307 532.823 367.139 531.55 370.985C528.997 378.677 527.016 386.532 524.817 394.31C522.625 402.091 520.408 409.862 517.803 417.5C516.51 421.322 515.116 425.111 513.506 428.809C511.902 432.506 510.048 436.109 507.705 439.404L507.865 439.522C510.331 436.289 512.319 432.719 514.054 429.056C515.796 425.391 517.322 421.63 518.745 417.836C521.552 410.231 523.968 402.498 526.355 394.766Z" fill="#FB8E52"/>
<path d="M555.285 482.583C570.552 485.864 576.768 488.288 582.071 488.085C590.616 479.646 596.994 469.878 601.736 460.108C582.805 465.268 571.127 460.63 571.127 460.63C583.632 462.714 597.007 458.488 603.685 455.877C614.595 431.072 615.492 407.569 615.492 407.569C607.395 408.395 599.954 409.518 593.079 410.917C586.091 421.561 579.479 436.093 579.479 436.093C581.038 428.7 585.399 418.851 588.812 411.838C578.879 414.104 570.182 416.984 562.448 420.432C554.923 431.082 546.96 452.164 546.96 452.164C548.247 443.174 553.339 430.376 556.342 423.372C543.237 430.172 533.037 438.79 524.108 448.937C520.708 459.685 518.413 471.037 518.413 471.037C518.312 465.923 519.209 459.419 520.339 453.392C510.647 465.316 502.266 479.128 492.848 494.415L488.551 509.497L508.619 512.665C539.301 514.552 561.184 505.918 576.793 492.891C571.374 487.974 555.285 482.583 555.285 482.583Z" fill="#F4D27D"/>
<path d="M492.639 506.787C497.748 504.902 502.562 502.313 507.176 499.434C511.795 496.56 516.251 493.427 520.619 490.18C529.377 483.707 537.814 476.797 546.231 469.86C554.654 462.93 562.897 455.757 571.64 449.187C576.008 445.898 580.425 442.666 584.957 439.598C589.477 436.515 594.119 433.6 598.903 430.944L599.046 431.164C590.282 437.689 581.753 444.437 573.264 451.267C564.793 458.116 556.131 464.748 547.556 471.508C538.965 478.244 530.342 484.965 521.39 491.252C516.898 494.37 512.319 497.375 507.582 500.115C502.852 502.859 497.92 505.309 492.723 507.037L492.639 506.787Z" fill="#FCEAB0"/>
<path d="M90.1837 312.271L100.872 314.134C101.396 321.377 102.997 328.395 105.545 334.996L96.666 341.238C93.7194 343.309 93.0106 347.375 95.0828 350.321L107.934 368.597C110.005 371.543 114.072 372.252 117.018 370.181L125.895 363.938C131.244 368.57 137.307 372.449 143.946 375.392L142.083 386.08C141.465 389.628 143.839 393.005 147.386 393.623L169.397 397.46C172.944 398.078 176.321 395.703 176.94 392.155L178.803 381.468C186.046 380.944 193.063 379.345 199.664 376.796L205.907 385.674C207.978 388.62 212.044 389.328 214.99 387.257L233.266 374.406C236.212 372.335 236.921 368.269 234.85 365.323L228.608 356.446C233.239 351.096 237.119 345.033 240.061 338.394L250.75 340.257C254.297 340.875 257.674 338.501 258.292 334.953L262.129 312.943C262.747 309.396 260.372 306.019 256.825 305.4L246.137 303.537C245.614 296.294 244.014 289.277 241.466 282.676L250.343 276.433C253.289 274.362 253.997 270.296 251.926 267.35L239.075 249.074C237.004 246.128 232.938 245.419 229.992 247.49L221.115 253.732C215.765 249.101 209.702 245.221 203.063 242.279L204.926 231.591C205.545 228.042 203.17 224.666 199.623 224.048L177.612 220.211C174.065 219.593 170.688 221.967 170.069 225.516L168.206 236.203C160.963 236.726 153.946 238.326 147.345 240.874L141.103 231.997C139.032 229.052 134.965 228.343 132.019 230.414L113.743 243.265C110.796 245.336 110.087 249.402 112.159 252.348L118.403 261.226C113.772 266.576 109.891 272.638 106.948 279.277L96.2592 277.414C92.7121 276.796 89.3371 279.17 88.7189 282.718L84.8825 304.728C84.2641 308.276 86.6366 311.652 90.1837 312.271ZM181.072 265.417C205.052 269.596 221.103 292.424 216.923 316.403C212.744 340.382 189.916 356.434 165.937 352.254C141.957 348.075 125.907 325.246 130.087 301.268C134.267 277.288 157.093 261.237 181.072 265.417Z" fill="#FB8E52"/>
<path d="M514.28 517.169H149.648V305.789C149.648 295.831 157.72 287.758 167.679 287.758H496.249C506.207 287.758 514.28 295.831 514.28 305.789V517.169Z" fill="#380F8F"/>
<path d="M496.975 497.363H166.959V304.557H496.975V497.363Z" fill="#E7CDFE"/>
<path d="M581.181 573.747H82.748L149.649 517.168H514.28L581.181 573.747Z" fill="#A795FF"/>
<path d="M563.383 595.257H100.548C90.717 595.257 82.748 587.288 82.748 577.457V573.746H581.181V577.457C581.181 587.288 573.213 595.257 563.383 595.257Z" fill="#380F8F"/>
<path d="M197.134 532.471H176.95C176.322 532.471 176.016 531.704 176.473 531.273L182.773 525.31C182.901 525.188 183.072 525.12 183.25 525.12H202.531C203.133 525.12 203.449 525.834 203.044 526.281L197.649 532.243C197.516 532.388 197.33 532.471 197.134 532.471Z" fill="#FDF3F8"/>
<path d="M229.086 532.471H208.706C208.115 532.471 207.794 531.783 208.174 531.33L213.172 525.369C213.305 525.211 213.498 525.12 213.704 525.12H233.184C233.743 525.12 234.072 525.747 233.756 526.208L229.659 532.17C229.529 532.359 229.315 532.471 229.086 532.471Z" fill="#FDF3F8"/>
<path d="M261.025 532.471H240.48C239.937 532.471 239.603 531.873 239.891 531.411L243.591 525.448C243.717 525.244 243.94 525.12 244.18 525.12H263.824C264.332 525.12 264.667 525.648 264.452 526.11L261.654 532.071C261.54 532.316 261.295 532.471 261.025 532.471Z" fill="#FDF3F8"/>
<path d="M292.943 532.471H272.277C271.785 532.471 271.449 531.973 271.633 531.518L274.035 525.555C274.14 525.292 274.394 525.12 274.678 525.12H294.44C294.892 525.12 295.223 525.545 295.114 525.983L293.616 531.946C293.538 532.255 293.26 532.471 292.943 532.471Z" fill="#FDF3F8"/>
<path d="M324.825 532.471H304.096C303.663 532.471 303.336 532.077 303.414 531.651L304.514 525.688C304.575 525.359 304.862 525.12 305.198 525.12H325.023C325.415 525.12 325.732 525.445 325.718 525.838L325.52 531.799C325.507 532.174 325.201 532.471 324.825 532.471Z" fill="#FDF3F8"/>
<path d="M356.677 532.471H335.948C335.573 532.471 335.267 532.174 335.255 531.799L335.055 525.838C335.042 525.445 335.356 525.12 335.749 525.12H355.576C355.911 525.12 356.198 525.359 356.259 525.688L357.359 531.651C357.439 532.077 357.112 532.471 356.677 532.471Z" fill="#FDF3F8"/>
<path d="M388.499 532.471H367.833C367.514 532.471 367.237 532.255 367.16 531.946L365.662 525.983C365.552 525.545 365.883 525.12 366.336 525.12H386.097C386.382 525.12 386.636 525.292 386.741 525.555L389.143 531.518C389.326 531.973 388.99 532.471 388.499 532.471Z" fill="#FDF3F8"/>
<path d="M420.291 532.471H399.745C399.476 532.471 399.231 532.316 399.116 532.071L396.319 526.11C396.102 525.648 396.44 525.12 396.949 525.12H416.59C416.831 525.12 417.054 525.244 417.18 525.448L420.881 531.411C421.168 531.873 420.835 532.471 420.291 532.471Z" fill="#FDF3F8"/>
<path d="M452.067 532.471H431.686C431.457 532.471 431.243 532.359 431.113 532.17L427.016 526.208C426.699 525.747 427.029 525.12 427.588 525.12H447.066C447.271 525.12 447.467 525.211 447.598 525.369L452.599 531.33C452.977 531.783 452.655 532.471 452.067 532.471Z" fill="#FDF3F8"/>
<path d="M483.827 532.471H463.644C463.447 532.471 463.26 532.388 463.129 532.243L457.732 526.281C457.327 525.834 457.645 525.12 458.247 525.12H477.527C477.704 525.12 477.875 525.188 478.004 525.31L484.304 531.273C484.76 531.704 484.455 532.471 483.827 532.471Z" fill="#FDF3F8"/>
<path d="M187.05 543.611H165.18C164.552 543.611 164.247 542.845 164.703 542.414L172.19 535.325C172.319 535.204 172.491 535.135 172.668 535.135H193.464C194.066 535.135 194.383 535.849 193.978 536.296L187.564 543.383C187.433 543.529 187.246 543.611 187.05 543.611Z" fill="#FDF3F8"/>
<path d="M221.433 543.611H199.365C198.776 543.611 198.454 542.923 198.834 542.471L204.777 535.384C204.91 535.226 205.103 535.135 205.309 535.135H226.303C226.863 535.135 227.192 535.762 226.876 536.222L222.005 543.311C221.876 543.5 221.662 543.611 221.433 543.611Z" fill="#FDF3F8"/>
<path d="M255.799 543.611H233.566C233.022 543.611 232.689 543.013 232.977 542.549L237.374 535.463C237.502 535.258 237.726 535.135 237.966 535.135H259.123C259.632 535.135 259.968 535.664 259.752 536.124L256.427 543.212C256.312 543.457 256.068 543.611 255.799 543.611Z" fill="#FDF3F8"/>
<path d="M175.309 556.58H151.477C150.848 556.58 150.544 555.814 151 555.382L159.972 546.889C160.101 546.767 160.272 546.699 160.449 546.699H182.996C183.598 546.699 183.915 547.413 183.512 547.86L175.824 556.352C175.693 556.498 175.505 556.58 175.309 556.58Z" fill="#FDF3F8"/>
<path d="M212.521 556.58H188.491C187.901 556.58 187.58 555.892 187.958 555.44L195.08 546.947C195.212 546.791 195.406 546.699 195.612 546.699H218.358C218.916 546.699 219.245 547.325 218.928 547.787L213.093 556.28C212.964 556.468 212.75 556.58 212.521 556.58Z" fill="#FDF3F8"/>
<path d="M249.713 556.58H225.517C224.973 556.58 224.641 555.983 224.927 555.519L230.198 547.027C230.325 546.823 230.547 546.699 230.788 546.699H253.696C254.205 546.699 254.542 547.227 254.326 547.689L250.342 556.181C250.226 556.426 249.982 556.58 249.713 556.58Z" fill="#FDF3F8"/>
<path d="M290.143 543.611H267.79C267.299 543.611 266.963 543.114 267.147 542.658L270 535.57C270.106 535.308 270.362 535.135 270.644 535.135H291.923C292.375 535.135 292.707 535.559 292.596 535.997L290.816 543.086C290.738 543.394 290.46 543.611 290.143 543.611Z" fill="#FDF3F8"/>
<path d="M398.204 556.58H262.568C262.077 556.58 261.741 556.083 261.923 555.627L265.344 547.135C265.449 546.872 265.704 546.699 265.988 546.699H394.786C395.068 546.699 395.323 546.872 395.429 547.135L398.848 555.627C399.031 556.083 398.697 556.58 398.204 556.58Z" fill="#FDF3F8"/>
<path d="M324.456 543.611H302.039C301.605 543.611 301.279 543.218 301.357 542.791L302.667 535.704C302.727 535.374 303.014 535.135 303.348 535.135H324.692C325.085 535.135 325.397 535.46 325.385 535.852L325.148 542.94C325.136 543.315 324.83 543.611 324.456 543.611Z" fill="#FDF3F8"/>
<path d="M358.734 543.611H336.319C335.945 543.611 335.637 543.315 335.625 542.94L335.389 535.852C335.376 535.46 335.691 535.135 336.084 535.135H357.426C357.76 535.135 358.048 535.374 358.108 535.704L359.417 542.791C359.495 543.218 359.169 543.611 358.734 543.611Z" fill="#FDF3F8"/>
<path d="M392.983 543.611H370.632C370.313 543.611 370.037 543.394 369.958 543.086L368.177 535.997C368.068 535.559 368.399 535.135 368.851 535.135H390.13C390.413 535.135 390.667 535.308 390.773 535.57L393.627 542.658C393.811 543.114 393.476 543.611 392.983 543.611Z" fill="#FDF3F8"/>
<path d="M427.204 543.611H404.972C404.703 543.611 404.459 543.457 404.344 543.212L401.018 536.124C400.802 535.664 401.137 535.135 401.647 535.135H422.805C423.046 535.135 423.269 535.258 423.396 535.463L427.794 542.549C428.081 543.013 427.748 543.611 427.204 543.611Z" fill="#FDF3F8"/>
<path d="M461.406 543.611H439.339C439.111 543.611 438.898 543.5 438.767 543.311L433.897 536.222C433.58 535.762 433.909 535.135 434.47 535.135H455.464C455.669 535.135 455.864 535.226 455.996 535.384L461.939 542.471C462.318 542.923 461.996 543.611 461.406 543.611Z" fill="#FDF3F8"/>
<path d="M467.642 551.047H444.449C444.22 551.047 444.006 550.934 443.877 550.746L441.844 547.787C441.527 547.326 441.858 546.699 442.416 546.699H465.161C465.366 546.699 465.561 546.791 465.693 546.947L468.174 549.906C468.552 550.358 468.231 551.047 467.642 551.047Z" fill="#FDF3F8"/>
<path d="M472.282 556.581H448.253C448.023 556.581 447.81 556.469 447.681 556.28L445.408 552.974C445.092 552.514 445.422 551.887 445.981 551.887H469.511C469.716 551.887 469.911 551.977 470.043 552.135L472.815 555.44C473.194 555.893 472.872 556.581 472.282 556.581Z" fill="#FDF3F8"/>
<path d="M509.298 556.581H485.464C485.269 556.581 485.082 556.498 484.949 556.352L481.958 553.046C481.554 552.6 481.872 551.887 482.474 551.887H505.804C505.982 551.887 506.152 551.955 506.282 552.077L509.774 555.382C510.23 555.814 509.926 556.581 509.298 556.581Z" fill="#FDF3F8"/>
<path d="M435.251 556.581H411.055C410.786 556.581 410.541 556.426 410.427 556.181L408.878 552.875C408.661 552.416 408.996 551.887 409.505 551.887H433.199C433.44 551.887 433.662 552.011 433.79 552.215L435.84 555.52C436.127 555.983 435.795 556.581 435.251 556.581Z" fill="#FDF3F8"/>
<path d="M495.595 543.611H473.725C473.528 543.611 473.341 543.529 473.21 543.383L466.794 536.296C466.39 535.849 466.707 535.135 467.309 535.135H488.106C488.282 535.135 488.454 535.204 488.584 535.325L496.071 542.414C496.527 542.845 496.223 543.611 495.595 543.611Z" fill="#FDF3F8"/>
<path d="M458.634 422.341C458.634 424.338 457.977 426.012 456.669 427.36C455.359 428.711 453.459 429.386 450.973 429.386H447.241V439.949C447.241 445.703 444.295 448.578 438.402 448.578C433.424 448.578 430.938 445.469 430.938 439.245V429.386H398.136C390.54 429.386 386.742 427.333 386.742 423.222C386.742 421.58 387.363 419.732 388.609 417.676C389.852 415.624 390.868 414.009 391.653 412.835L417.581 372.687C419.674 369.754 421.869 367.581 424.161 366.172C426.45 364.764 429.103 364.059 432.117 364.059C436.959 364.059 440.691 365.291 443.313 367.757C445.931 370.222 447.241 374.333 447.241 380.083V415.299H450.973C453.459 415.299 455.359 416.004 456.669 417.411C457.977 418.821 458.634 420.465 458.634 422.341ZM430.938 415.299V379.028L408.153 415.299H430.938Z" fill="#8807F7"/>
<path d="M277.189 425.278C277.189 427.275 276.532 428.948 275.224 430.296C273.912 431.648 272.014 432.323 269.527 432.323H265.796V442.886C265.796 448.64 262.849 451.514 256.957 451.514C251.979 451.514 249.492 448.405 249.492 442.181V432.323H216.69C209.094 432.323 205.297 430.269 205.297 426.158C205.297 424.516 205.918 422.668 207.164 420.613C208.406 418.56 209.422 416.945 210.208 415.771L236.136 375.623C238.229 372.691 240.424 370.518 242.716 369.109C245.005 367.7 247.657 366.995 250.671 366.995C255.514 366.995 259.246 368.228 261.868 370.694C264.485 373.159 265.796 377.27 265.796 383.019V418.235H269.527C272.014 418.235 273.912 418.94 275.224 420.348C276.532 421.757 277.189 423.401 277.189 425.278ZM249.492 418.235V381.964L226.707 418.235H249.492Z" fill="#8807F7"/>
<path d="M286.137 409.686L291.268 410.653C291.472 414.143 292.196 417.531 293.377 420.723L289.065 423.668C287.634 424.645 287.265 426.597 288.242 428.028L294.304 436.908C295.282 438.339 297.234 438.707 298.666 437.73L302.979 434.786C305.522 437.05 308.414 438.957 311.588 440.417L310.621 445.548C310.3 447.251 311.42 448.892 313.123 449.213L323.688 451.205C325.392 451.527 327.032 450.406 327.353 448.703L328.321 443.572C331.81 443.369 335.197 442.645 338.391 441.463L341.336 445.776C342.313 447.207 344.265 447.575 345.697 446.598L354.575 440.536C356.007 439.56 356.375 437.607 355.397 436.176L352.454 431.863C354.717 429.32 356.625 426.428 358.086 423.252L363.216 424.22C364.919 424.541 366.559 423.421 366.88 421.719L368.872 411.152C369.193 409.45 368.074 407.808 366.371 407.487L361.241 406.52C361.037 403.03 360.313 399.642 359.132 396.449L363.444 393.505C364.876 392.528 365.244 390.576 364.266 389.145L358.205 380.264C357.227 378.833 355.275 378.465 353.844 379.442L349.53 382.387C346.987 380.122 344.096 378.216 340.92 376.756L341.887 371.626C342.208 369.923 341.089 368.281 339.385 367.96L328.82 365.967C327.117 365.646 325.476 366.768 325.155 368.471L324.187 373.601C320.699 373.804 317.311 374.527 314.119 375.71L311.174 371.396C310.196 369.965 308.244 369.597 306.812 370.574L297.933 376.637C296.502 377.614 296.134 379.566 297.111 380.997L300.055 385.309C297.792 387.853 295.884 390.745 294.424 393.921L289.292 392.953C287.59 392.632 285.949 393.753 285.628 395.455L283.636 406.022C283.315 407.724 284.435 409.365 286.137 409.686ZM330.184 387.744C341.696 389.915 349.267 401.005 347.096 412.515C344.926 424.027 333.835 431.6 322.324 429.43C310.813 427.259 303.241 416.167 305.412 404.655C307.583 393.145 318.674 385.574 330.184 387.744Z" fill="#8807F7"/>
<path d="M360.062 383.355L362.795 383.086C363.413 384.817 364.277 386.422 365.346 387.859L363.601 389.983C363.023 390.687 363.126 391.727 363.83 392.306L368.2 395.896C368.904 396.475 369.944 396.372 370.522 395.668L372.266 393.545C373.884 394.313 375.626 394.85 377.445 395.119L377.713 397.852C377.8 398.76 378.609 399.423 379.516 399.334L385.144 398.782C386.052 398.694 386.716 397.886 386.627 396.978L386.358 394.245C388.091 393.627 389.694 392.763 391.133 391.695L393.255 393.439C393.959 394.018 394.999 393.916 395.578 393.211L399.167 388.841C399.747 388.137 399.644 387.097 398.94 386.517L396.817 384.774C397.585 383.156 398.122 381.414 398.392 379.596L401.125 379.327C402.032 379.239 402.695 378.431 402.606 377.525L402.054 371.895C401.965 370.988 401.157 370.325 400.25 370.414L397.517 370.681C396.9 368.95 396.035 367.346 394.968 365.908L396.711 363.785C397.29 363.08 397.188 362.04 396.483 361.462L392.113 357.872C391.408 357.294 390.368 357.397 389.789 358.101L388.046 360.222C386.428 359.455 384.687 358.917 382.868 358.649L382.6 355.915C382.511 355.009 381.704 354.346 380.796 354.434L375.167 354.986C374.26 355.075 373.597 355.883 373.685 356.789L373.953 359.523C372.222 360.141 370.619 361.005 369.18 362.073L367.057 360.329C366.352 359.751 365.313 359.852 364.734 360.556L361.145 364.928C360.566 365.632 360.668 366.672 361.373 367.25L363.495 368.995C362.727 370.612 362.19 372.354 361.921 374.173L359.189 374.441C358.281 374.529 357.617 375.337 357.706 376.244L358.259 381.873C358.348 382.78 359.155 383.444 360.062 383.355ZM379.068 365.78C385.2 365.179 390.658 369.663 391.26 375.795C391.861 381.928 387.377 387.386 381.245 387.988C375.113 388.59 369.654 384.105 369.053 377.973C368.451 371.841 372.935 366.382 379.068 365.78Z" fill="#8807F7"/>
<path d="M417.521 161.185C418.162 160.677 418.773 160.083 419.328 159.39" stroke="#F38346" stroke-width="1.25521" stroke-linecap="round"/>
<path d="M419.355 147.491C419.723 148.251 420.074 149.073 420.405 149.965" stroke="#8550FC" stroke-width="1.25521" stroke-linecap="round"/>
<path d="M300.246 137.706C299.435 137.979 298.614 138.356 297.796 138.86" stroke="#F38346" stroke-width="1.25521" stroke-linecap="round"/>
<path d="M293.242 145.211C293.245 144.367 293.29 143.474 293.384 142.528" stroke="#8550FC" stroke-width="1.25521" stroke-linecap="round"/>
</g>
</g>
<defs>
<clipPath id="clip0_10919_114255">
<rect width="778" height="691" fill="white"/>
</clipPath>
</defs>
</svg>
