<svg width="142" height="28" viewBox="0 0 142 28" fill="none" xmlns="http://www.w3.org/2000/svg">
<rect x="-0.753906" y="9.16406" width="27.1654" height="19.8454" rx="3.25335" transform="rotate(-19.5235 -0.753906 9.16406)" fill="#8807F7"/>
<g clip-path="url(#clip0_291_73934)">
<path d="M0.3125 7.71128C0.3125 6.81609 0.668116 5.95755 1.30112 5.32455C1.93412 4.69155 2.79265 4.33594 3.68785 4.33594H23.9399C24.8351 4.33594 25.6937 4.69155 26.3267 5.32455C26.9597 5.95755 27.3153 6.81609 27.3153 7.71128V9.39896H0.3125V7.71128ZM0.3125 12.7743V21.2127C0.3125 22.1079 0.668116 22.9664 1.30112 23.5994C1.93412 24.2324 2.79265 24.588 3.68785 24.588H23.9399C24.8351 24.588 25.6937 24.2324 26.3267 23.5994C26.9597 22.9664 27.3153 22.1079 27.3153 21.2127V12.7743H0.3125ZM5.37552 16.1496H7.06319C7.51079 16.1496 7.94006 16.3275 8.25656 16.644C8.57306 16.9605 8.75087 17.3897 8.75087 17.8373V19.525C8.75087 19.9726 8.57306 20.4019 8.25656 20.7184C7.94006 21.0349 7.51079 21.2127 7.06319 21.2127H5.37552C4.92792 21.2127 4.49865 21.0349 4.18215 20.7184C3.86565 20.4019 3.68785 19.9726 3.68785 19.525V17.8373C3.68785 17.3897 3.86565 16.9605 4.18215 16.644C4.49865 16.3275 4.92792 16.1496 5.37552 16.1496Z" fill="white"/>
<rect x="1.94141" y="15.1133" width="7.64536" height="7.15736" fill="white"/>
</g>
<g clip-path="url(#clip1_291_73934)">
<path opacity="0.5" d="M21.4793 20.1534C21.1095 20.1534 20.748 20.0438 20.4405 19.8384C20.133 19.633 19.8934 19.3411 19.7518 18.9994C19.6102 18.6578 19.5732 18.2819 19.6452 17.9192C19.7173 17.5565 19.8953 17.2234 20.1568 16.9619C20.4182 16.7004 20.7513 16.5222 21.114 16.45C21.4767 16.3778 21.8526 16.4148 22.1942 16.5563C22.5359 16.6977 22.8279 16.9373 23.0334 17.2448C23.2389 17.5522 23.3486 17.9136 23.3487 18.2834V18.2837C23.3481 18.7794 23.151 19.2546 22.8006 19.6051C22.4501 19.9556 21.975 20.1528 21.4793 20.1534Z" fill="#8807F7"/>
<path d="M19.6548 20.1534C19.285 20.1534 18.9235 20.0437 18.6161 19.8383C18.3086 19.6328 18.069 19.3408 17.9275 18.9992C17.786 18.6576 17.7489 18.2816 17.8211 17.919C17.8932 17.5563 18.0713 17.2231 18.3328 16.9617C18.5942 16.7002 18.9274 16.5221 19.2901 16.45C19.6527 16.3778 20.0286 16.4149 20.3703 16.5564C20.7119 16.6979 21.0039 16.9375 21.2094 17.245C21.4148 17.5524 21.5244 17.9139 21.5244 18.2837C21.5239 18.7794 21.3268 19.2547 20.9763 19.6052C20.6258 19.9557 20.1505 20.1528 19.6548 20.1534Z" fill="#8807F7"/>
</g>
<g clip-path="url(#clip2_291_73934)">
<path d="M7.4987 21.4154C9.10953 21.4154 10.4154 20.1095 10.4154 18.4987C10.4154 16.8879 9.10953 15.582 7.4987 15.582C5.88787 15.582 4.58203 16.8879 4.58203 18.4987C4.58203 20.1095 5.88787 21.4154 7.4987 21.4154Z" stroke="#8807F7" stroke-width="0.583333" stroke-linecap="round" stroke-linejoin="round"/>
<path d="M7.5 17.332V19.6654" stroke="#8807F7" stroke-width="0.583333" stroke-linecap="round" stroke-linejoin="round"/>
<path d="M6.33203 18.5H8.66536" stroke="#8807F7" stroke-width="0.583333" stroke-linecap="round" stroke-linejoin="round"/>
</g>
<path d="M36.5234 18L37.3994 15.756H40.9154L41.7914 18H42.9434L39.7034 9.96H38.6594L35.4194 18H36.5234ZM38.7554 12.288L39.1634 11.028L39.5594 12.288L40.5554 14.832H37.7594L38.7554 12.288ZM45.6096 18.144C46.7256 18.144 47.2776 17.4 47.4816 16.512V18H48.5256V9.96H47.4816V13.704C47.2776 12.816 46.7256 12.072 45.6096 12.072C44.1456 12.072 43.2336 13.272 43.2336 15.108C43.2336 16.944 44.1456 18.144 45.6096 18.144ZM44.2896 15.108C44.2896 13.632 45.0456 12.96 45.9576 12.96C47.0736 12.96 47.4816 13.74 47.4816 14.7V15.528C47.4816 16.488 47.0736 17.268 45.9576 17.268C45.0456 17.268 44.2896 16.596 44.2896 15.108ZM52.1604 18.144C53.2764 18.144 53.8284 17.4 54.0324 16.512V18H55.0764V9.96H54.0324V13.704C53.8284 12.816 53.2764 12.072 52.1604 12.072C50.6964 12.072 49.7844 13.272 49.7844 15.108C49.7844 16.944 50.6964 18.144 52.1604 18.144ZM50.8404 15.108C50.8404 13.632 51.5964 12.96 52.5084 12.96C53.6244 12.96 54.0324 13.74 54.0324 14.7V15.528C54.0324 16.488 53.6244 17.268 52.5084 17.268C51.5964 17.268 50.8404 16.596 50.8404 15.108ZM60.4599 18V12.768L60.3999 11.7L61.1199 12.768L64.8039 18H65.7399V9.96H64.6959V15.096L64.7559 16.32L63.9279 15.072L60.3399 9.96H59.4159V18H60.4599ZM69.8656 18.12C71.1256 18.12 71.9296 17.532 72.3616 16.836L71.7256 16.116C71.4976 16.62 71.0296 17.256 69.8656 17.256C68.8336 17.256 68.1496 16.56 68.0896 15.336H72.3976C72.4216 15.228 72.4456 15.048 72.4456 14.868C72.4456 13.164 71.4496 12.072 69.8056 12.072C68.2096 12.072 67.0816 13.26 67.0816 15.096C67.0816 16.944 68.2216 18.12 69.8656 18.12ZM69.8056 12.948C70.7776 12.948 71.4016 13.512 71.5096 14.58H68.1136C68.2456 13.5 68.8696 12.948 69.8056 12.948ZM75.707 18L76.703 14.604L77.099 13.056L77.471 14.604L78.467 18H79.835L81.335 12.192H80.171L79.427 15.768L79.151 17.244L78.779 15.768L77.735 12.192H76.451L75.395 15.768L75.035 17.244L74.759 15.768L74.003 12.192H72.839L74.351 18H75.707ZM87.8654 18C90.3974 18 91.6574 16.524 91.6574 13.98C91.6574 11.436 90.3974 9.96 87.8654 9.96H85.0214V18H87.8654ZM87.6974 10.884C89.5214 10.884 90.5774 11.688 90.5774 13.98C90.5774 16.272 89.5214 17.076 87.6974 17.076H86.0654V10.884H87.6974ZM95.5648 18.12C96.8248 18.12 97.6288 17.532 98.0608 16.836L97.4248 16.116C97.1968 16.62 96.7288 17.256 95.5648 17.256C94.5328 17.256 93.8488 16.56 93.7888 15.336H98.0968C98.1208 15.228 98.1448 15.048 98.1448 14.868C98.1448 13.164 97.1488 12.072 95.5048 12.072C93.9088 12.072 92.7808 13.26 92.7808 15.096C92.7808 16.944 93.9208 18.12 95.5648 18.12ZM95.5048 12.948C96.4768 12.948 97.1008 13.512 97.2088 14.58H93.8128C93.9448 13.5 94.5688 12.948 95.5048 12.948ZM100.535 18V16.512C100.739 17.4 101.291 18.144 102.407 18.144C103.883 18.144 104.795 16.944 104.795 15.108C104.795 13.272 103.883 12.072 102.407 12.072C101.291 12.072 100.739 12.816 100.535 13.704V9.96H99.4912V18H100.535ZM100.535 15.528V14.7C100.535 13.74 100.943 12.96 102.047 12.96C102.983 12.96 103.739 13.632 103.739 15.108C103.739 16.596 102.983 17.268 102.047 17.268C100.943 17.268 100.535 16.488 100.535 15.528ZM107.098 11.256V9.96H106.054V11.256H107.098ZM107.098 18V12.192H106.054V18H107.098ZM110.611 18.132C111.415 18.132 111.967 17.76 112.219 17.364L111.871 16.332C111.715 16.692 111.355 17.124 110.839 17.124C110.383 17.124 110.035 16.944 110.035 16.2V13.008H111.943V12.192H110.035V10.68L108.991 11.448V12.192H108.055V13.008H108.991V16.512C108.991 17.508 109.663 18.132 110.611 18.132ZM119.38 18.096C121.18 18.096 122.392 17.136 122.908 15.48L121.972 14.868C121.708 16.212 120.916 17.112 119.392 17.112C117.556 17.112 116.716 15.804 116.716 13.968C116.716 12.132 117.556 10.824 119.392 10.824C120.916 10.824 121.708 11.724 121.972 13.068L122.908 12.456C122.392 10.8 121.18 9.84 119.38 9.84C116.944 9.84 115.612 11.652 115.612 13.968C115.612 16.284 116.944 18.096 119.38 18.096ZM125.441 18.12C126.641 18.12 127.265 17.256 127.457 16.488V16.896C127.457 17.712 127.889 18 128.489 18H129.161V17.052H128.789C128.573 17.052 128.465 16.968 128.465 16.692V14.304C128.465 12.924 127.697 12.072 126.269 12.072C124.973 12.072 124.109 12.804 123.761 13.404L124.469 14.136C124.769 13.5 125.321 13.02 126.149 13.02C127.061 13.02 127.385 13.524 127.421 14.208L125.321 15.144C124.493 15.516 123.905 16.008 123.905 16.788C123.905 17.556 124.457 18.12 125.441 18.12ZM124.961 16.62C124.961 16.26 125.213 16.02 125.765 15.756L127.457 14.964V15.768C127.457 16.608 126.761 17.256 125.777 17.256C125.237 17.256 124.961 17.016 124.961 16.62ZM131.414 18V14.712C131.414 13.716 132.086 12.84 132.83 12.84C133.25 12.84 133.43 13.128 133.43 13.464C133.43 13.788 133.274 14.148 133.082 14.316H134.222C134.318 14.172 134.45 13.812 134.45 13.32C134.45 12.504 133.85 12.06 133.226 12.06C132.242 12.06 131.642 12.84 131.414 13.74V12.192H130.37V18H131.414ZM137.332 18.144C138.448 18.144 139 17.4 139.204 16.512V18H140.248V9.96H139.204V13.704C139 12.816 138.448 12.072 137.332 12.072C135.868 12.072 134.956 13.272 134.956 15.108C134.956 16.944 135.868 18.144 137.332 18.144ZM136.012 15.108C136.012 13.632 136.768 12.96 137.68 12.96C138.796 12.96 139.204 13.74 139.204 14.7V15.528C139.204 16.488 138.796 17.268 137.68 17.268C136.768 17.268 136.012 16.596 136.012 15.108Z" fill="white"/>
<defs>
<clipPath id="clip0_291_73934">
<rect width="27.0028" height="27.0028" fill="white" transform="translate(0.3125 0.960938)"/>
</clipPath>
<clipPath id="clip1_291_73934">
<rect width="6.66936" height="6.66936" fill="white" transform="translate(17.2344 14.9492)"/>
</clipPath>
<clipPath id="clip2_291_73934">
<rect width="7" height="7" fill="white" transform="translate(4 15)"/>
</clipPath>
</defs>
</svg>
