<svg width="1170" height="220" viewBox="0 0 1170 220" fill="none" xmlns="http://www.w3.org/2000/svg">
<g clip-path="url(#clip0_170_14570)">
<rect width="1170" height="220" rx="16" fill="#8807F7"/>
<rect x="1" y="1" width="1168" height="218" rx="15" stroke="#F3F4F6" stroke-width="2"/>
<path d="M84.464 76.672C84.464 77.584 84.576 78.416 84.8 79.168C85.024 79.904 85.344 80.536 85.76 81.064C86.192 81.576 86.712 81.976 87.32 82.264C87.928 82.552 88.616 82.696 89.384 82.696C90.136 82.696 90.816 82.552 91.424 82.264C92.032 81.976 92.544 81.576 92.96 81.064C93.392 80.536 93.72 79.904 93.944 79.168C94.168 78.416 94.28 77.584 94.28 76.672C94.28 75.76 94.168 74.936 93.944 74.2C93.72 73.448 93.392 72.816 92.96 72.304C92.544 71.776 92.032 71.368 91.424 71.08C90.816 70.792 90.136 70.648 89.384 70.648C88.616 70.648 87.928 70.792 87.32 71.08C86.712 71.368 86.192 71.776 85.76 72.304C85.344 72.832 85.024 73.464 84.8 74.2C84.576 74.936 84.464 75.76 84.464 76.672ZM97.448 76.672C97.448 78.096 97.232 79.352 96.8 80.44C96.384 81.528 95.808 82.44 95.072 83.176C94.352 83.896 93.504 84.44 92.528 84.808C91.552 85.176 90.512 85.36 89.408 85.36C88.304 85.36 87.256 85.176 86.264 84.808C85.288 84.44 84.432 83.896 83.696 83.176C82.976 82.44 82.4 81.528 81.968 80.44C81.536 79.352 81.32 78.096 81.32 76.672C81.32 75.248 81.536 74 81.968 72.928C82.4 71.84 82.984 70.928 83.72 70.192C84.472 69.456 85.336 68.904 86.312 68.536C87.288 68.168 88.32 67.984 89.408 67.984C90.496 67.984 91.528 68.168 92.504 68.536C93.48 68.904 94.328 69.456 95.048 70.192C95.784 70.928 96.368 71.84 96.8 72.928C97.232 74 97.448 75.248 97.448 76.672ZM100.621 72.856C101.181 72.696 101.909 72.544 102.805 72.4C103.701 72.256 104.693 72.184 105.781 72.184C106.805 72.184 107.661 72.328 108.349 72.616C109.037 72.888 109.581 73.28 109.981 73.792C110.397 74.288 110.685 74.896 110.845 75.616C111.021 76.32 111.109 77.096 111.109 77.944V85H108.205V78.4C108.205 77.728 108.157 77.16 108.061 76.696C107.981 76.216 107.837 75.832 107.629 75.544C107.437 75.24 107.165 75.024 106.813 74.896C106.477 74.752 106.061 74.68 105.565 74.68C105.197 74.68 104.813 74.704 104.413 74.752C104.013 74.8 103.717 74.84 103.525 74.872V85H100.621V72.856ZM119.029 85.24C118.165 85.224 117.445 85.128 116.869 84.952C116.309 84.776 115.861 84.528 115.525 84.208C115.189 83.872 114.949 83.464 114.805 82.984C114.677 82.488 114.613 81.928 114.613 81.304V66.856L117.517 66.376V80.752C117.517 81.104 117.541 81.4 117.589 81.64C117.653 81.88 117.757 82.088 117.901 82.264C118.045 82.424 118.237 82.552 118.477 82.648C118.733 82.728 119.053 82.792 119.437 82.84L119.029 85.24ZM124.714 85H121.81V72.448H124.714V85ZM125.026 68.776C125.026 69.32 124.85 69.752 124.498 70.072C124.146 70.392 123.73 70.552 123.25 70.552C122.754 70.552 122.33 70.392 121.978 70.072C121.626 69.752 121.45 69.32 121.45 68.776C121.45 68.216 121.626 67.776 121.978 67.456C122.33 67.136 122.754 66.976 123.25 66.976C123.73 66.976 124.146 67.136 124.498 67.456C124.85 67.776 125.026 68.216 125.026 68.776ZM128.418 72.856C128.978 72.696 129.706 72.544 130.602 72.4C131.498 72.256 132.49 72.184 133.578 72.184C134.602 72.184 135.458 72.328 136.146 72.616C136.834 72.888 137.378 73.28 137.778 73.792C138.194 74.288 138.482 74.896 138.642 75.616C138.818 76.32 138.906 77.096 138.906 77.944V85H136.002V78.4C136.002 77.728 135.954 77.16 135.858 76.696C135.778 76.216 135.634 75.832 135.426 75.544C135.234 75.24 134.962 75.024 134.61 74.896C134.274 74.752 133.858 74.68 133.362 74.68C132.994 74.68 132.61 74.704 132.21 74.752C131.81 74.8 131.514 74.84 131.322 74.872V85H128.418V72.856ZM141.761 78.784C141.761 77.68 141.921 76.712 142.241 75.88C142.577 75.048 143.017 74.36 143.561 73.816C144.105 73.256 144.729 72.84 145.433 72.568C146.137 72.28 146.857 72.136 147.593 72.136C149.321 72.136 150.665 72.672 151.625 73.744C152.601 74.816 153.089 76.416 153.089 78.544C153.089 78.704 153.081 78.888 153.065 79.096C153.065 79.288 153.057 79.464 153.041 79.624H144.761C144.841 80.632 145.193 81.416 145.817 81.976C146.457 82.52 147.377 82.792 148.577 82.792C149.281 82.792 149.921 82.728 150.497 82.6C151.089 82.472 151.553 82.336 151.889 82.192L152.273 84.568C152.113 84.648 151.889 84.736 151.601 84.832C151.329 84.912 151.009 84.984 150.641 85.048C150.289 85.128 149.905 85.192 149.489 85.24C149.073 85.288 148.649 85.312 148.217 85.312C147.113 85.312 146.153 85.152 145.337 84.832C144.521 84.496 143.849 84.04 143.321 83.464C142.793 82.872 142.401 82.184 142.145 81.4C141.889 80.6 141.761 79.728 141.761 78.784ZM150.185 77.488C150.185 77.088 150.129 76.712 150.017 76.36C149.905 75.992 149.737 75.68 149.513 75.424C149.305 75.152 149.041 74.944 148.721 74.8C148.417 74.64 148.049 74.56 147.617 74.56C147.169 74.56 146.777 74.648 146.441 74.824C146.105 74.984 145.817 75.2 145.577 75.472C145.353 75.744 145.177 76.056 145.049 76.408C144.921 76.76 144.833 77.12 144.785 77.488H150.185ZM165.946 82.744C167.034 82.744 167.826 82.56 168.322 82.192C168.818 81.824 169.066 81.304 169.066 80.632C169.066 80.232 168.978 79.888 168.802 79.6C168.642 79.312 168.402 79.056 168.082 78.832C167.778 78.592 167.402 78.376 166.954 78.184C166.506 77.976 165.994 77.776 165.418 77.584C164.842 77.376 164.282 77.152 163.738 76.912C163.21 76.656 162.738 76.344 162.322 75.976C161.922 75.608 161.594 75.168 161.338 74.656C161.098 74.144 160.978 73.528 160.978 72.808C160.978 71.304 161.498 70.128 162.538 69.28C163.578 68.416 164.994 67.984 166.786 67.984C167.826 67.984 168.746 68.104 169.546 68.344C170.362 68.568 171.002 68.816 171.466 69.088L170.53 71.536C169.986 71.232 169.386 71 168.73 70.84C168.09 70.68 167.426 70.6 166.738 70.6C165.922 70.6 165.282 70.768 164.818 71.104C164.37 71.44 164.146 71.912 164.146 72.52C164.146 72.888 164.218 73.208 164.362 73.48C164.522 73.736 164.738 73.968 165.01 74.176C165.298 74.384 165.626 74.576 165.994 74.752C166.378 74.928 166.794 75.096 167.242 75.256C168.026 75.544 168.722 75.84 169.33 76.144C169.954 76.432 170.474 76.784 170.89 77.2C171.322 77.6 171.65 78.08 171.874 78.64C172.098 79.184 172.21 79.848 172.21 80.632C172.21 82.136 171.674 83.304 170.602 84.136C169.546 84.952 167.994 85.36 165.946 85.36C165.258 85.36 164.626 85.312 164.05 85.216C163.49 85.136 162.986 85.032 162.538 84.904C162.106 84.776 161.73 84.648 161.41 84.52C161.09 84.376 160.834 84.248 160.642 84.136L161.53 81.664C161.962 81.904 162.546 82.144 163.282 82.384C164.018 82.624 164.906 82.744 165.946 82.744ZM179.147 82.96C180.043 82.96 180.723 82.912 181.187 82.816V79.6C181.027 79.552 180.795 79.504 180.491 79.456C180.187 79.408 179.851 79.384 179.483 79.384C179.163 79.384 178.835 79.408 178.499 79.456C178.179 79.504 177.883 79.592 177.611 79.72C177.355 79.848 177.147 80.032 176.987 80.272C176.827 80.496 176.747 80.784 176.747 81.136C176.747 81.824 176.963 82.304 177.395 82.576C177.827 82.832 178.411 82.96 179.147 82.96ZM178.907 72.136C179.867 72.136 180.675 72.256 181.331 72.496C181.987 72.736 182.507 73.072 182.891 73.504C183.291 73.936 183.571 74.464 183.731 75.088C183.907 75.696 183.995 76.368 183.995 77.104V84.712C183.547 84.808 182.867 84.92 181.955 85.048C181.059 85.192 180.043 85.264 178.907 85.264C178.155 85.264 177.467 85.192 176.843 85.048C176.219 84.904 175.683 84.672 175.235 84.352C174.803 84.032 174.459 83.616 174.203 83.104C173.963 82.592 173.843 81.96 173.843 81.208C173.843 80.488 173.979 79.88 174.251 79.384C174.539 78.888 174.923 78.488 175.403 78.184C175.883 77.864 176.435 77.64 177.059 77.512C177.699 77.368 178.363 77.296 179.051 77.296C179.371 77.296 179.707 77.32 180.059 77.368C180.411 77.4 180.787 77.464 181.187 77.56V77.08C181.187 76.744 181.147 76.424 181.067 76.12C180.987 75.816 180.843 75.552 180.635 75.328C180.443 75.088 180.179 74.904 179.843 74.776C179.523 74.648 179.115 74.584 178.619 74.584C177.947 74.584 177.331 74.632 176.771 74.728C176.211 74.824 175.755 74.936 175.403 75.064L175.043 72.712C175.411 72.584 175.947 72.456 176.651 72.328C177.355 72.2 178.107 72.136 178.907 72.136ZM190.462 85C189.662 83.352 188.838 81.464 187.99 79.336C187.158 77.192 186.398 74.896 185.71 72.448H188.806C188.982 73.152 189.182 73.912 189.406 74.728C189.646 75.528 189.894 76.336 190.15 77.152C190.422 77.952 190.694 78.736 190.966 79.504C191.254 80.256 191.518 80.936 191.758 81.544C191.998 80.936 192.254 80.256 192.526 79.504C192.798 78.736 193.062 77.952 193.318 77.152C193.59 76.336 193.846 75.528 194.086 74.728C194.326 73.912 194.534 73.152 194.71 72.448H197.71C197.022 74.896 196.254 77.192 195.406 79.336C194.574 81.464 193.758 83.352 192.958 85H190.462ZM202.807 85H199.903V72.448H202.807V85ZM203.119 68.776C203.119 69.32 202.943 69.752 202.591 70.072C202.239 70.392 201.823 70.552 201.343 70.552C200.847 70.552 200.423 70.392 200.071 70.072C199.719 69.752 199.543 69.32 199.543 68.776C199.543 68.216 199.719 67.776 200.071 67.456C200.423 67.136 200.847 66.976 201.343 66.976C201.823 66.976 202.239 67.136 202.591 67.456C202.943 67.776 203.119 68.216 203.119 68.776ZM206.512 72.856C207.072 72.696 207.8 72.544 208.696 72.4C209.592 72.256 210.584 72.184 211.672 72.184C212.696 72.184 213.552 72.328 214.24 72.616C214.928 72.888 215.472 73.28 215.872 73.792C216.288 74.288 216.576 74.896 216.736 75.616C216.912 76.32 217 77.096 217 77.944V85H214.096V78.4C214.096 77.728 214.048 77.16 213.952 76.696C213.872 76.216 213.728 75.832 213.52 75.544C213.328 75.24 213.056 75.024 212.704 74.896C212.368 74.752 211.952 74.68 211.456 74.68C211.088 74.68 210.704 74.704 210.304 74.752C209.904 74.8 209.608 74.84 209.416 74.872V85H206.512V72.856ZM222.831 78.4C222.831 79.632 223.095 80.536 223.623 81.112C224.167 81.672 224.863 81.952 225.711 81.952C226.175 81.952 226.607 81.888 227.007 81.76C227.423 81.632 227.759 81.48 228.015 81.304V74.8C227.807 74.752 227.551 74.712 227.247 74.68C226.943 74.632 226.559 74.608 226.095 74.608C225.039 74.608 224.231 74.96 223.671 75.664C223.111 76.352 222.831 77.264 222.831 78.4ZM230.919 83.728C230.919 85.728 230.407 87.192 229.383 88.12C228.375 89.048 226.823 89.512 224.727 89.512C223.959 89.512 223.207 89.448 222.471 89.32C221.751 89.192 221.095 89.024 220.503 88.816L221.031 86.344C221.527 86.552 222.087 86.72 222.711 86.848C223.351 86.976 224.039 87.04 224.775 87.04C225.943 87.04 226.775 86.8 227.271 86.32C227.767 85.84 228.015 85.128 228.015 84.184V83.704C227.727 83.848 227.343 83.992 226.863 84.136C226.399 84.28 225.863 84.352 225.255 84.352C224.455 84.352 223.719 84.224 223.047 83.968C222.391 83.712 221.823 83.336 221.343 82.84C220.879 82.344 220.511 81.728 220.239 80.992C219.983 80.24 219.855 79.376 219.855 78.4C219.855 77.488 219.991 76.648 220.263 75.88C220.551 75.112 220.959 74.456 221.487 73.912C222.031 73.368 222.687 72.944 223.455 72.64C224.223 72.336 225.095 72.184 226.071 72.184C227.015 72.184 227.911 72.256 228.759 72.4C229.607 72.544 230.327 72.696 230.919 72.856V83.728ZM237.758 82.912C238.526 82.912 239.086 82.824 239.438 82.648C239.79 82.456 239.966 82.136 239.966 81.688C239.966 81.272 239.774 80.928 239.39 80.656C239.022 80.384 238.406 80.088 237.542 79.768C237.014 79.576 236.526 79.376 236.078 79.168C235.646 78.944 235.27 78.688 234.95 78.4C234.63 78.112 234.374 77.768 234.182 77.368C234.006 76.952 233.918 76.448 233.918 75.856C233.918 74.704 234.342 73.8 235.19 73.144C236.038 72.472 237.19 72.136 238.646 72.136C239.382 72.136 240.086 72.208 240.758 72.352C241.43 72.48 241.934 72.608 242.27 72.736L241.742 75.088C241.422 74.944 241.014 74.816 240.518 74.704C240.022 74.576 239.446 74.512 238.79 74.512C238.198 74.512 237.718 74.616 237.35 74.824C236.982 75.016 236.798 75.32 236.798 75.736C236.798 75.944 236.83 76.128 236.894 76.288C236.974 76.448 237.102 76.6 237.278 76.744C237.454 76.872 237.686 77.008 237.974 77.152C238.262 77.28 238.614 77.416 239.03 77.56C239.718 77.816 240.302 78.072 240.782 78.328C241.262 78.568 241.654 78.848 241.958 79.168C242.278 79.472 242.51 79.824 242.654 80.224C242.798 80.624 242.87 81.104 242.87 81.664C242.87 82.864 242.422 83.776 241.526 84.4C240.646 85.008 239.382 85.312 237.734 85.312C236.63 85.312 235.742 85.216 235.07 85.024C234.398 84.848 233.926 84.704 233.654 84.592L234.158 82.168C234.59 82.344 235.102 82.512 235.694 82.672C236.302 82.832 236.99 82.912 237.758 82.912ZM251.04 69.136L253.944 68.656V72.448H258.408V74.872H253.944V79.984C253.944 80.992 254.104 81.712 254.424 82.144C254.744 82.576 255.288 82.792 256.056 82.792C256.584 82.792 257.048 82.736 257.448 82.624C257.864 82.512 258.192 82.408 258.432 82.312L258.912 84.616C258.576 84.76 258.136 84.904 257.592 85.048C257.048 85.208 256.408 85.288 255.672 85.288C254.776 85.288 254.024 85.168 253.416 84.928C252.824 84.688 252.352 84.344 252 83.896C251.648 83.432 251.4 82.88 251.256 82.24C251.112 81.584 251.04 80.84 251.04 80.008V69.136ZM261.215 85V66.856L264.119 66.376V72.592C264.439 72.48 264.807 72.384 265.223 72.304C265.655 72.224 266.079 72.184 266.495 72.184C267.503 72.184 268.335 72.328 268.991 72.616C269.663 72.888 270.199 73.28 270.599 73.792C270.999 74.288 271.279 74.888 271.439 75.592C271.615 76.296 271.703 77.08 271.703 77.944V85H268.799V78.4C268.799 77.728 268.751 77.16 268.655 76.696C268.575 76.216 268.431 75.832 268.223 75.544C268.031 75.24 267.767 75.024 267.431 74.896C267.095 74.752 266.679 74.68 266.183 74.68C265.799 74.68 265.407 74.72 265.007 74.8C264.607 74.88 264.311 74.952 264.119 75.016V85H261.215ZM279.6 82.96C280.496 82.96 281.176 82.912 281.64 82.816V79.6C281.48 79.552 281.248 79.504 280.944 79.456C280.64 79.408 280.304 79.384 279.936 79.384C279.616 79.384 279.288 79.408 278.952 79.456C278.632 79.504 278.336 79.592 278.064 79.72C277.808 79.848 277.6 80.032 277.44 80.272C277.28 80.496 277.2 80.784 277.2 81.136C277.2 81.824 277.416 82.304 277.848 82.576C278.28 82.832 278.864 82.96 279.6 82.96ZM279.36 72.136C280.32 72.136 281.128 72.256 281.784 72.496C282.44 72.736 282.96 73.072 283.344 73.504C283.744 73.936 284.024 74.464 284.184 75.088C284.36 75.696 284.448 76.368 284.448 77.104V84.712C284 84.808 283.32 84.92 282.408 85.048C281.512 85.192 280.496 85.264 279.36 85.264C278.608 85.264 277.92 85.192 277.296 85.048C276.672 84.904 276.136 84.672 275.688 84.352C275.256 84.032 274.912 83.616 274.656 83.104C274.416 82.592 274.296 81.96 274.296 81.208C274.296 80.488 274.432 79.88 274.704 79.384C274.992 78.888 275.376 78.488 275.856 78.184C276.336 77.864 276.888 77.64 277.512 77.512C278.152 77.368 278.816 77.296 279.504 77.296C279.824 77.296 280.16 77.32 280.512 77.368C280.864 77.4 281.24 77.464 281.64 77.56V77.08C281.64 76.744 281.6 76.424 281.52 76.12C281.44 75.816 281.296 75.552 281.088 75.328C280.896 75.088 280.632 74.904 280.296 74.776C279.976 74.648 279.568 74.584 279.072 74.584C278.4 74.584 277.784 74.632 277.224 74.728C276.664 74.824 276.208 74.936 275.856 75.064L275.496 72.712C275.864 72.584 276.4 72.456 277.104 72.328C277.808 72.2 278.56 72.136 279.36 72.136ZM287.86 69.136L290.764 68.656V72.448H295.228V74.872H290.764V79.984C290.764 80.992 290.924 81.712 291.244 82.144C291.564 82.576 292.108 82.792 292.876 82.792C293.404 82.792 293.868 82.736 294.268 82.624C294.684 82.512 295.012 82.408 295.252 82.312L295.732 84.616C295.396 84.76 294.956 84.904 294.412 85.048C293.868 85.208 293.228 85.288 292.492 85.288C291.596 85.288 290.844 85.168 290.236 84.928C289.644 84.688 289.172 84.344 288.82 83.896C288.468 83.432 288.22 82.88 288.076 82.24C287.932 81.584 287.86 80.84 287.86 80.008V69.136ZM303.637 85V66.856L306.541 66.376V72.592C306.861 72.48 307.229 72.384 307.645 72.304C308.077 72.224 308.501 72.184 308.917 72.184C309.925 72.184 310.757 72.328 311.413 72.616C312.085 72.888 312.621 73.28 313.021 73.792C313.421 74.288 313.701 74.888 313.861 75.592C314.037 76.296 314.125 77.08 314.125 77.944V85H311.221V78.4C311.221 77.728 311.173 77.16 311.077 76.696C310.997 76.216 310.853 75.832 310.645 75.544C310.453 75.24 310.189 75.024 309.853 74.896C309.517 74.752 309.101 74.68 308.605 74.68C308.221 74.68 307.829 74.72 307.429 74.8C307.029 74.88 306.733 74.952 306.541 75.016V85H303.637ZM322.022 82.96C322.918 82.96 323.598 82.912 324.062 82.816V79.6C323.902 79.552 323.67 79.504 323.366 79.456C323.062 79.408 322.726 79.384 322.358 79.384C322.038 79.384 321.71 79.408 321.374 79.456C321.054 79.504 320.758 79.592 320.486 79.72C320.23 79.848 320.022 80.032 319.862 80.272C319.702 80.496 319.622 80.784 319.622 81.136C319.622 81.824 319.838 82.304 320.27 82.576C320.702 82.832 321.286 82.96 322.022 82.96ZM321.782 72.136C322.742 72.136 323.55 72.256 324.206 72.496C324.862 72.736 325.382 73.072 325.766 73.504C326.166 73.936 326.446 74.464 326.606 75.088C326.782 75.696 326.87 76.368 326.87 77.104V84.712C326.422 84.808 325.742 84.92 324.83 85.048C323.934 85.192 322.918 85.264 321.782 85.264C321.03 85.264 320.342 85.192 319.718 85.048C319.094 84.904 318.558 84.672 318.11 84.352C317.678 84.032 317.334 83.616 317.078 83.104C316.838 82.592 316.718 81.96 316.718 81.208C316.718 80.488 316.854 79.88 317.126 79.384C317.414 78.888 317.798 78.488 318.278 78.184C318.758 77.864 319.31 77.64 319.934 77.512C320.574 77.368 321.238 77.296 321.926 77.296C322.246 77.296 322.582 77.32 322.934 77.368C323.286 77.4 323.662 77.464 324.062 77.56V77.08C324.062 76.744 324.022 76.424 323.942 76.12C323.862 75.816 323.718 75.552 323.51 75.328C323.318 75.088 323.054 74.904 322.718 74.776C322.398 74.648 321.99 74.584 321.494 74.584C320.822 74.584 320.206 74.632 319.646 74.728C319.086 74.824 318.63 74.936 318.278 75.064L317.918 72.712C318.286 72.584 318.822 72.456 319.526 72.328C320.23 72.2 320.982 72.136 321.782 72.136ZM333.57 82.912C334.338 82.912 334.898 82.824 335.25 82.648C335.602 82.456 335.778 82.136 335.778 81.688C335.778 81.272 335.586 80.928 335.202 80.656C334.834 80.384 334.218 80.088 333.354 79.768C332.826 79.576 332.338 79.376 331.89 79.168C331.458 78.944 331.082 78.688 330.762 78.4C330.442 78.112 330.186 77.768 329.994 77.368C329.818 76.952 329.73 76.448 329.73 75.856C329.73 74.704 330.154 73.8 331.002 73.144C331.85 72.472 333.002 72.136 334.458 72.136C335.194 72.136 335.898 72.208 336.57 72.352C337.242 72.48 337.746 72.608 338.082 72.736L337.554 75.088C337.234 74.944 336.826 74.816 336.33 74.704C335.834 74.576 335.258 74.512 334.602 74.512C334.01 74.512 333.53 74.616 333.162 74.824C332.794 75.016 332.61 75.32 332.61 75.736C332.61 75.944 332.642 76.128 332.706 76.288C332.786 76.448 332.914 76.6 333.09 76.744C333.266 76.872 333.498 77.008 333.786 77.152C334.074 77.28 334.426 77.416 334.842 77.56C335.53 77.816 336.114 78.072 336.594 78.328C337.074 78.568 337.466 78.848 337.77 79.168C338.09 79.472 338.322 79.824 338.466 80.224C338.61 80.624 338.682 81.104 338.682 81.664C338.682 82.864 338.234 83.776 337.338 84.4C336.458 85.008 335.194 85.312 333.546 85.312C332.442 85.312 331.554 85.216 330.882 85.024C330.21 84.848 329.738 84.704 329.466 84.592L329.97 82.168C330.402 82.344 330.914 82.512 331.506 82.672C332.114 82.832 332.802 82.912 333.57 82.912ZM346.996 85V66.856L349.9 66.376V72.592C350.22 72.48 350.588 72.384 351.004 72.304C351.436 72.224 351.86 72.184 352.276 72.184C353.284 72.184 354.116 72.328 354.772 72.616C355.444 72.888 355.98 73.28 356.38 73.792C356.78 74.288 357.06 74.888 357.22 75.592C357.396 76.296 357.484 77.08 357.484 77.944V85H354.58V78.4C354.58 77.728 354.532 77.16 354.436 76.696C354.356 76.216 354.212 75.832 354.004 75.544C353.812 75.24 353.548 75.024 353.212 74.896C352.876 74.752 352.46 74.68 351.964 74.68C351.58 74.68 351.188 74.72 350.788 74.8C350.388 74.88 350.092 74.952 349.9 75.016V85H346.996ZM360.269 78.784C360.269 77.68 360.429 76.712 360.749 75.88C361.085 75.048 361.525 74.36 362.069 73.816C362.613 73.256 363.237 72.84 363.941 72.568C364.645 72.28 365.365 72.136 366.101 72.136C367.829 72.136 369.173 72.672 370.133 73.744C371.109 74.816 371.597 76.416 371.597 78.544C371.597 78.704 371.589 78.888 371.573 79.096C371.573 79.288 371.565 79.464 371.549 79.624H363.269C363.349 80.632 363.701 81.416 364.325 81.976C364.965 82.52 365.885 82.792 367.085 82.792C367.789 82.792 368.429 82.728 369.005 82.6C369.597 82.472 370.061 82.336 370.397 82.192L370.781 84.568C370.621 84.648 370.397 84.736 370.109 84.832C369.837 84.912 369.517 84.984 369.149 85.048C368.797 85.128 368.413 85.192 367.997 85.24C367.581 85.288 367.157 85.312 366.725 85.312C365.621 85.312 364.661 85.152 363.845 84.832C363.029 84.496 362.357 84.04 361.829 83.464C361.301 82.872 360.909 82.184 360.653 81.4C360.397 80.6 360.269 79.728 360.269 78.784ZM368.693 77.488C368.693 77.088 368.637 76.712 368.525 76.36C368.413 75.992 368.245 75.68 368.021 75.424C367.813 75.152 367.549 74.944 367.229 74.8C366.925 74.64 366.557 74.56 366.125 74.56C365.677 74.56 365.285 74.648 364.949 74.824C364.613 74.984 364.325 75.2 364.085 75.472C363.861 75.744 363.685 76.056 363.557 76.408C363.429 76.76 363.341 77.12 363.293 77.488H368.693ZM379.044 85.24C378.18 85.224 377.46 85.128 376.884 84.952C376.324 84.776 375.876 84.528 375.54 84.208C375.204 83.872 374.964 83.464 374.82 82.984C374.692 82.488 374.628 81.928 374.628 81.304V66.856L377.532 66.376V80.752C377.532 81.104 377.556 81.4 377.604 81.64C377.668 81.88 377.772 82.088 377.916 82.264C378.06 82.424 378.252 82.552 378.492 82.648C378.748 82.728 379.068 82.792 379.452 82.84L379.044 85.24ZM390.129 78.784C390.129 77.488 389.833 76.48 389.241 75.76C388.665 75.04 387.729 74.68 386.433 74.68C386.161 74.68 385.873 74.696 385.569 74.728C385.281 74.744 384.993 74.792 384.705 74.872V82.048C384.961 82.224 385.297 82.392 385.713 82.552C386.145 82.696 386.601 82.768 387.081 82.768C388.137 82.768 388.905 82.408 389.385 81.688C389.881 80.968 390.129 80 390.129 78.784ZM393.105 78.736C393.105 79.696 392.977 80.576 392.721 81.376C392.481 82.176 392.129 82.864 391.665 83.44C391.201 84.016 390.617 84.464 389.913 84.784C389.225 85.104 388.441 85.264 387.561 85.264C386.969 85.264 386.425 85.192 385.929 85.048C385.433 84.904 385.025 84.744 384.705 84.568V89.44H381.801V72.856C382.393 72.696 383.121 72.544 383.985 72.4C384.849 72.256 385.761 72.184 386.721 72.184C387.713 72.184 388.601 72.336 389.385 72.64C390.169 72.944 390.833 73.384 391.377 73.96C391.937 74.52 392.361 75.208 392.649 76.024C392.953 76.824 393.105 77.728 393.105 78.736ZM395.402 78.784C395.402 77.68 395.562 76.712 395.882 75.88C396.218 75.048 396.658 74.36 397.202 73.816C397.746 73.256 398.37 72.84 399.074 72.568C399.778 72.28 400.498 72.136 401.234 72.136C402.962 72.136 404.306 72.672 405.266 73.744C406.242 74.816 406.73 76.416 406.73 78.544C406.73 78.704 406.722 78.888 406.706 79.096C406.706 79.288 406.698 79.464 406.682 79.624H398.402C398.482 80.632 398.834 81.416 399.458 81.976C400.098 82.52 401.018 82.792 402.218 82.792C402.922 82.792 403.562 82.728 404.138 82.6C404.73 82.472 405.194 82.336 405.53 82.192L405.914 84.568C405.754 84.648 405.53 84.736 405.242 84.832C404.97 84.912 404.65 84.984 404.282 85.048C403.93 85.128 403.546 85.192 403.13 85.24C402.714 85.288 402.29 85.312 401.858 85.312C400.754 85.312 399.794 85.152 398.978 84.832C398.162 84.496 397.49 84.04 396.962 83.464C396.434 82.872 396.042 82.184 395.786 81.4C395.53 80.6 395.402 79.728 395.402 78.784ZM403.826 77.488C403.826 77.088 403.77 76.712 403.658 76.36C403.546 75.992 403.378 75.68 403.154 75.424C402.946 75.152 402.682 74.944 402.362 74.8C402.058 74.64 401.69 74.56 401.258 74.56C400.81 74.56 400.418 74.648 400.082 74.824C399.746 74.984 399.458 75.2 399.218 75.472C398.994 75.744 398.818 76.056 398.69 76.408C398.562 76.76 398.474 77.12 398.426 77.488H403.826ZM412.089 78.688C412.089 79.968 412.393 80.976 413.001 81.712C413.609 82.432 414.449 82.792 415.521 82.792C415.985 82.792 416.377 82.776 416.697 82.744C417.033 82.696 417.305 82.648 417.513 82.6V75.4C417.257 75.224 416.913 75.064 416.481 74.92C416.065 74.76 415.617 74.68 415.137 74.68C414.081 74.68 413.305 75.04 412.809 75.76C412.329 76.48 412.089 77.456 412.089 78.688ZM420.417 84.616C419.841 84.792 419.113 84.952 418.233 85.096C417.369 85.24 416.457 85.312 415.497 85.312C414.505 85.312 413.617 85.16 412.833 84.856C412.049 84.552 411.377 84.12 410.817 83.56C410.273 82.984 409.849 82.296 409.545 81.496C409.257 80.68 409.113 79.768 409.113 78.76C409.113 77.768 409.233 76.872 409.473 76.072C409.729 75.256 410.097 74.56 410.577 73.984C411.057 73.408 411.641 72.968 412.329 72.664C413.017 72.344 413.809 72.184 414.705 72.184C415.313 72.184 415.849 72.256 416.313 72.4C416.777 72.544 417.177 72.704 417.513 72.88V66.856L420.417 66.376V84.616ZM434.123 82.96C435.019 82.96 435.699 82.912 436.163 82.816V79.6C436.003 79.552 435.771 79.504 435.467 79.456C435.163 79.408 434.827 79.384 434.459 79.384C434.139 79.384 433.811 79.408 433.475 79.456C433.155 79.504 432.859 79.592 432.587 79.72C432.331 79.848 432.123 80.032 431.963 80.272C431.803 80.496 431.723 80.784 431.723 81.136C431.723 81.824 431.939 82.304 432.371 82.576C432.803 82.832 433.387 82.96 434.123 82.96ZM433.883 72.136C434.843 72.136 435.651 72.256 436.307 72.496C436.963 72.736 437.483 73.072 437.867 73.504C438.267 73.936 438.547 74.464 438.707 75.088C438.883 75.696 438.971 76.368 438.971 77.104V84.712C438.523 84.808 437.843 84.92 436.931 85.048C436.035 85.192 435.019 85.264 433.883 85.264C433.131 85.264 432.443 85.192 431.819 85.048C431.195 84.904 430.659 84.672 430.211 84.352C429.779 84.032 429.435 83.616 429.179 83.104C428.939 82.592 428.819 81.96 428.819 81.208C428.819 80.488 428.955 79.88 429.227 79.384C429.515 78.888 429.899 78.488 430.379 78.184C430.859 77.864 431.411 77.64 432.035 77.512C432.675 77.368 433.339 77.296 434.027 77.296C434.347 77.296 434.683 77.32 435.035 77.368C435.387 77.4 435.763 77.464 436.163 77.56V77.08C436.163 76.744 436.123 76.424 436.043 76.12C435.963 75.816 435.819 75.552 435.611 75.328C435.419 75.088 435.155 74.904 434.819 74.776C434.499 74.648 434.091 74.584 433.595 74.584C432.923 74.584 432.307 74.632 431.747 74.728C431.187 74.824 430.731 74.936 430.379 75.064L430.019 72.712C430.387 72.584 430.923 72.456 431.627 72.328C432.331 72.2 433.083 72.136 433.883 72.136ZM446.896 85.24C446.032 85.224 445.312 85.128 444.736 84.952C444.176 84.776 443.728 84.528 443.392 84.208C443.056 83.872 442.816 83.464 442.672 82.984C442.544 82.488 442.48 81.928 442.48 81.304V66.856L445.384 66.376V80.752C445.384 81.104 445.408 81.4 445.456 81.64C445.52 81.88 445.624 82.088 445.768 82.264C445.912 82.424 446.104 82.552 446.344 82.648C446.6 82.728 446.92 82.792 447.304 82.84L446.896 85.24ZM461.005 78.712C461.005 79.704 460.861 80.608 460.573 81.424C460.285 82.24 459.877 82.936 459.349 83.512C458.821 84.088 458.181 84.536 457.429 84.856C456.693 85.176 455.877 85.336 454.981 85.336C454.085 85.336 453.269 85.176 452.533 84.856C451.797 84.536 451.165 84.088 450.637 83.512C450.109 82.936 449.693 82.24 449.389 81.424C449.101 80.608 448.957 79.704 448.957 78.712C448.957 77.72 449.101 76.824 449.389 76.024C449.693 75.208 450.109 74.512 450.637 73.936C451.181 73.36 451.821 72.92 452.557 72.616C453.293 72.296 454.101 72.136 454.981 72.136C455.861 72.136 456.669 72.296 457.405 72.616C458.157 72.92 458.797 73.36 459.325 73.936C459.853 74.512 460.261 75.208 460.549 76.024C460.853 76.824 461.005 77.72 461.005 78.712ZM458.029 78.712C458.029 77.464 457.757 76.48 457.213 75.76C456.685 75.024 455.941 74.656 454.981 74.656C454.021 74.656 453.269 75.024 452.725 75.76C452.197 76.48 451.933 77.464 451.933 78.712C451.933 79.976 452.197 80.976 452.725 81.712C453.269 82.448 454.021 82.816 454.981 82.816C455.941 82.816 456.685 82.448 457.213 81.712C457.757 80.976 458.029 79.976 458.029 78.712ZM463.852 69.136L466.756 68.656V72.448H471.22V74.872H466.756V79.984C466.756 80.992 466.916 81.712 467.236 82.144C467.556 82.576 468.1 82.792 468.868 82.792C469.396 82.792 469.86 82.736 470.26 82.624C470.676 82.512 471.004 82.408 471.244 82.312L471.724 84.616C471.388 84.76 470.948 84.904 470.404 85.048C469.86 85.208 469.22 85.288 468.484 85.288C467.588 85.288 466.836 85.168 466.228 84.928C465.636 84.688 465.164 84.344 464.812 83.896C464.46 83.432 464.212 82.88 464.068 82.24C463.924 81.584 463.852 80.84 463.852 80.008V69.136ZM490.981 78.712C490.981 79.704 490.837 80.608 490.549 81.424C490.261 82.24 489.853 82.936 489.325 83.512C488.797 84.088 488.157 84.536 487.405 84.856C486.669 85.176 485.853 85.336 484.957 85.336C484.061 85.336 483.245 85.176 482.509 84.856C481.773 84.536 481.141 84.088 480.613 83.512C480.085 82.936 479.669 82.24 479.365 81.424C479.077 80.608 478.933 79.704 478.933 78.712C478.933 77.72 479.077 76.824 479.365 76.024C479.669 75.208 480.085 74.512 480.613 73.936C481.157 73.36 481.797 72.92 482.533 72.616C483.269 72.296 484.077 72.136 484.957 72.136C485.837 72.136 486.645 72.296 487.381 72.616C488.133 72.92 488.773 73.36 489.301 73.936C489.829 74.512 490.237 75.208 490.525 76.024C490.829 76.824 490.981 77.72 490.981 78.712ZM488.005 78.712C488.005 77.464 487.733 76.48 487.189 75.76C486.661 75.024 485.917 74.656 484.957 74.656C483.997 74.656 483.245 75.024 482.701 75.76C482.173 76.48 481.909 77.464 481.909 78.712C481.909 79.976 482.173 80.976 482.701 81.712C483.245 82.448 483.997 82.816 484.957 82.816C485.917 82.816 486.661 82.448 487.189 81.712C487.733 80.976 488.005 79.976 488.005 78.712ZM499.085 66.376C499.757 66.376 500.349 66.44 500.861 66.568C501.373 66.68 501.757 66.784 502.013 66.88L501.461 69.28C501.189 69.152 500.869 69.048 500.501 68.968C500.149 68.888 499.765 68.848 499.349 68.848C498.885 68.848 498.493 68.92 498.173 69.064C497.853 69.192 497.597 69.376 497.405 69.616C497.213 69.856 497.077 70.152 496.997 70.504C496.917 70.84 496.877 71.208 496.877 71.608V72.448H501.437V74.872H496.877V85H493.973V71.56C493.973 69.944 494.397 68.68 495.245 67.768C496.093 66.84 497.373 66.376 499.085 66.376ZM520.536 85C519.992 84.088 519.384 83.112 518.712 82.072C518.04 81.016 517.344 79.96 516.624 78.904C515.904 77.832 515.168 76.8 514.416 75.808C513.68 74.8 512.976 73.896 512.304 73.096V85H509.328V68.368H511.8C512.44 69.04 513.128 69.84 513.864 70.768C514.6 71.68 515.336 72.632 516.072 73.624C516.824 74.616 517.544 75.616 518.232 76.624C518.936 77.616 519.56 78.544 520.104 79.408V68.368H523.104V85H520.536ZM529.878 85H526.974V72.448H529.878V85ZM530.19 68.776C530.19 69.32 530.014 69.752 529.662 70.072C529.31 70.392 528.894 70.552 528.414 70.552C527.918 70.552 527.494 70.392 527.142 70.072C526.79 69.752 526.614 69.32 526.614 68.776C526.614 68.216 526.79 67.776 527.142 67.456C527.494 67.136 527.918 66.976 528.414 66.976C528.894 66.976 529.31 67.136 529.662 67.456C530.014 67.776 530.19 68.216 530.19 68.776ZM535.862 78.4C535.862 79.632 536.126 80.536 536.654 81.112C537.198 81.672 537.894 81.952 538.742 81.952C539.206 81.952 539.638 81.888 540.038 81.76C540.454 81.632 540.79 81.48 541.046 81.304V74.8C540.838 74.752 540.582 74.712 540.278 74.68C539.974 74.632 539.59 74.608 539.126 74.608C538.07 74.608 537.262 74.96 536.702 75.664C536.142 76.352 535.862 77.264 535.862 78.4ZM543.95 83.728C543.95 85.728 543.438 87.192 542.414 88.12C541.406 89.048 539.854 89.512 537.758 89.512C536.99 89.512 536.238 89.448 535.502 89.32C534.782 89.192 534.126 89.024 533.534 88.816L534.062 86.344C534.558 86.552 535.118 86.72 535.742 86.848C536.382 86.976 537.07 87.04 537.806 87.04C538.974 87.04 539.806 86.8 540.302 86.32C540.798 85.84 541.046 85.128 541.046 84.184V83.704C540.758 83.848 540.374 83.992 539.894 84.136C539.43 84.28 538.894 84.352 538.286 84.352C537.486 84.352 536.75 84.224 536.078 83.968C535.422 83.712 534.854 83.336 534.374 82.84C533.91 82.344 533.542 81.728 533.27 80.992C533.014 80.24 532.886 79.376 532.886 78.4C532.886 77.488 533.022 76.648 533.294 75.88C533.582 75.112 533.99 74.456 534.518 73.912C535.062 73.368 535.718 72.944 536.486 72.64C537.254 72.336 538.126 72.184 539.102 72.184C540.046 72.184 540.942 72.256 541.79 72.4C542.638 72.544 543.358 72.696 543.95 72.856V83.728ZM546.949 78.784C546.949 77.68 547.109 76.712 547.429 75.88C547.765 75.048 548.205 74.36 548.749 73.816C549.293 73.256 549.917 72.84 550.621 72.568C551.325 72.28 552.045 72.136 552.781 72.136C554.509 72.136 555.853 72.672 556.813 73.744C557.789 74.816 558.277 76.416 558.277 78.544C558.277 78.704 558.269 78.888 558.253 79.096C558.253 79.288 558.245 79.464 558.229 79.624H549.949C550.029 80.632 550.381 81.416 551.005 81.976C551.645 82.52 552.565 82.792 553.765 82.792C554.469 82.792 555.109 82.728 555.685 82.6C556.277 82.472 556.741 82.336 557.077 82.192L557.461 84.568C557.301 84.648 557.077 84.736 556.789 84.832C556.517 84.912 556.197 84.984 555.829 85.048C555.477 85.128 555.093 85.192 554.677 85.24C554.261 85.288 553.837 85.312 553.405 85.312C552.301 85.312 551.341 85.152 550.525 84.832C549.709 84.496 549.037 84.04 548.509 83.464C547.981 82.872 547.589 82.184 547.333 81.4C547.077 80.6 546.949 79.728 546.949 78.784ZM555.373 77.488C555.373 77.088 555.317 76.712 555.205 76.36C555.093 75.992 554.925 75.68 554.701 75.424C554.493 75.152 554.229 74.944 553.909 74.8C553.605 74.64 553.237 74.56 552.805 74.56C552.357 74.56 551.965 74.648 551.629 74.824C551.293 74.984 551.005 75.2 550.765 75.472C550.541 75.744 550.365 76.056 550.237 76.408C550.109 76.76 550.021 77.12 549.973 77.488H555.373ZM568.508 75.064C568.268 74.984 567.932 74.904 567.5 74.824C567.084 74.728 566.596 74.68 566.036 74.68C565.716 74.68 565.372 74.712 565.004 74.776C564.652 74.84 564.404 74.896 564.26 74.944V85H561.356V73.048C561.916 72.84 562.612 72.648 563.444 72.472C564.292 72.28 565.228 72.184 566.252 72.184C566.444 72.184 566.668 72.2 566.924 72.232C567.18 72.248 567.436 72.28 567.692 72.328C567.948 72.36 568.196 72.408 568.436 72.472C568.676 72.52 568.868 72.568 569.012 72.616L568.508 75.064ZM573.964 85H571.06V72.448H573.964V85ZM574.276 68.776C574.276 69.32 574.1 69.752 573.748 70.072C573.396 70.392 572.98 70.552 572.5 70.552C572.004 70.552 571.58 70.392 571.228 70.072C570.876 69.752 570.7 69.32 570.7 68.776C570.7 68.216 570.876 67.776 571.228 67.456C571.58 67.136 572.004 66.976 572.5 66.976C572.98 66.976 573.396 67.136 573.748 67.456C574.1 67.776 574.276 68.216 574.276 68.776ZM582.084 82.96C582.98 82.96 583.66 82.912 584.124 82.816V79.6C583.964 79.552 583.732 79.504 583.428 79.456C583.124 79.408 582.788 79.384 582.42 79.384C582.1 79.384 581.772 79.408 581.436 79.456C581.116 79.504 580.82 79.592 580.548 79.72C580.292 79.848 580.084 80.032 579.924 80.272C579.764 80.496 579.684 80.784 579.684 81.136C579.684 81.824 579.9 82.304 580.332 82.576C580.764 82.832 581.348 82.96 582.084 82.96ZM581.844 72.136C582.804 72.136 583.612 72.256 584.268 72.496C584.924 72.736 585.444 73.072 585.828 73.504C586.228 73.936 586.508 74.464 586.668 75.088C586.844 75.696 586.932 76.368 586.932 77.104V84.712C586.484 84.808 585.804 84.92 584.892 85.048C583.996 85.192 582.98 85.264 581.844 85.264C581.092 85.264 580.404 85.192 579.78 85.048C579.156 84.904 578.62 84.672 578.172 84.352C577.74 84.032 577.396 83.616 577.14 83.104C576.9 82.592 576.78 81.96 576.78 81.208C576.78 80.488 576.916 79.88 577.188 79.384C577.476 78.888 577.86 78.488 578.34 78.184C578.82 77.864 579.372 77.64 579.996 77.512C580.636 77.368 581.3 77.296 581.988 77.296C582.308 77.296 582.644 77.32 582.996 77.368C583.348 77.4 583.724 77.464 584.124 77.56V77.08C584.124 76.744 584.084 76.424 584.004 76.12C583.924 75.816 583.78 75.552 583.572 75.328C583.38 75.088 583.116 74.904 582.78 74.776C582.46 74.648 582.052 74.584 581.556 74.584C580.884 74.584 580.268 74.632 579.708 74.728C579.148 74.824 578.692 74.936 578.34 75.064L577.98 72.712C578.348 72.584 578.884 72.456 579.588 72.328C580.292 72.2 581.044 72.136 581.844 72.136ZM590.489 72.856C591.049 72.696 591.777 72.544 592.673 72.4C593.569 72.256 594.561 72.184 595.649 72.184C596.673 72.184 597.529 72.328 598.217 72.616C598.905 72.888 599.449 73.28 599.849 73.792C600.265 74.288 600.553 74.896 600.713 75.616C600.889 76.32 600.977 77.096 600.977 77.944V85H598.073V78.4C598.073 77.728 598.025 77.16 597.929 76.696C597.849 76.216 597.705 75.832 597.497 75.544C597.305 75.24 597.033 75.024 596.681 74.896C596.345 74.752 595.929 74.68 595.433 74.68C595.065 74.68 594.681 74.704 594.281 74.752C593.881 74.8 593.585 74.84 593.393 74.872V85H590.489V72.856ZM607.672 82.912C608.44 82.912 609 82.824 609.352 82.648C609.704 82.456 609.88 82.136 609.88 81.688C609.88 81.272 609.688 80.928 609.304 80.656C608.936 80.384 608.32 80.088 607.456 79.768C606.928 79.576 606.44 79.376 605.992 79.168C605.56 78.944 605.184 78.688 604.864 78.4C604.544 78.112 604.288 77.768 604.096 77.368C603.92 76.952 603.832 76.448 603.832 75.856C603.832 74.704 604.256 73.8 605.104 73.144C605.952 72.472 607.104 72.136 608.56 72.136C609.296 72.136 610 72.208 610.672 72.352C611.344 72.48 611.848 72.608 612.184 72.736L611.656 75.088C611.336 74.944 610.928 74.816 610.432 74.704C609.936 74.576 609.36 74.512 608.704 74.512C608.112 74.512 607.632 74.616 607.264 74.824C606.896 75.016 606.712 75.32 606.712 75.736C606.712 75.944 606.744 76.128 606.808 76.288C606.888 76.448 607.016 76.6 607.192 76.744C607.368 76.872 607.6 77.008 607.888 77.152C608.176 77.28 608.528 77.416 608.944 77.56C609.632 77.816 610.216 78.072 610.696 78.328C611.176 78.568 611.568 78.848 611.872 79.168C612.192 79.472 612.424 79.824 612.568 80.224C612.712 80.624 612.784 81.104 612.784 81.664C612.784 82.864 612.336 83.776 611.44 84.4C610.56 85.008 609.296 85.312 607.648 85.312C606.544 85.312 605.656 85.216 604.984 85.024C604.312 84.848 603.84 84.704 603.568 84.592L604.072 82.168C604.504 82.344 605.016 82.512 605.608 82.672C606.216 82.832 606.904 82.912 607.672 82.912Z" fill="white"/>
<rect x="80" y="110" width="109" height="40" rx="20" fill="white"/>
<path d="M108.592 134.126C110.314 134.126 111.672 133.23 111.672 131.592C111.672 129.87 110.37 129.31 108.928 128.974L107.822 128.708C106.604 128.414 105.918 127.994 105.918 126.972C105.918 125.95 106.828 125.362 107.962 125.362C109.32 125.362 110.328 125.978 110.762 127.294L111.532 126.678C110.986 125.264 109.698 124.494 107.976 124.494C106.394 124.494 104.952 125.376 104.952 127.042C104.952 128.68 106.212 129.254 107.528 129.562L108.55 129.786C109.978 130.122 110.748 130.514 110.748 131.62C110.748 132.81 109.74 133.272 108.592 133.272C107.36 133.272 105.834 132.684 105.386 131.074L104.672 131.69C105.274 133.426 106.898 134.126 108.592 134.126ZM115.285 134.154C116.153 134.154 116.811 133.748 117.105 133.258L116.783 132.362C116.559 132.838 116.069 133.272 115.467 133.272C114.879 133.272 114.375 133.006 114.375 132.04V127.994H116.629V127.28H114.375V125.628L113.465 126.314V127.28H112.373V127.994H113.465V132.292C113.465 133.51 114.263 134.154 115.285 134.154ZM119.448 134.14C120.792 134.14 121.66 133.104 121.884 132.138V132.852C121.884 133.706 122.332 134 123.004 134H123.634V133.174H123.242C122.92 133.174 122.766 133.048 122.766 132.698V129.548C122.766 128.05 121.954 127.14 120.386 127.14C118.958 127.14 117.978 127.938 117.558 128.638L118.202 129.282C118.552 128.54 119.28 127.966 120.288 127.966C121.38 127.966 121.856 128.554 121.856 129.562V129.618L119.308 130.78C118.37 131.2 117.712 131.76 117.712 132.642C117.712 133.538 118.342 134.14 119.448 134.14ZM118.636 132.516C118.636 132.012 118.972 131.676 119.7 131.34L121.884 130.304V131.494C121.884 132.404 120.96 133.37 119.714 133.37C119.056 133.37 118.636 133.076 118.636 132.516ZM126.043 134V130.108C126.043 128.946 126.841 127.826 127.849 127.826C128.465 127.826 128.717 128.218 128.717 128.652C128.717 129.058 128.549 129.492 128.367 129.702H129.361C129.487 129.478 129.613 129.058 129.613 128.554C129.613 127.63 128.969 127.126 128.185 127.126C127.037 127.126 126.295 128.05 126.043 129.114V127.28H125.119V134H126.043ZM133.018 134.154C133.886 134.154 134.544 133.748 134.838 133.258L134.516 132.362C134.292 132.838 133.802 133.272 133.2 133.272C132.612 133.272 132.108 133.006 132.108 132.04V127.994H134.362V127.28H132.108V125.628L131.198 126.314V127.28H130.106V127.994H131.198V132.292C131.198 133.51 131.996 134.154 133.018 134.154ZM140.101 134V127.182L140.045 126.132L140.731 127.168L145.435 134H146.261V124.62H145.337V131.312L145.393 132.53L144.581 131.284L140.003 124.62H139.177V134H140.101ZM151.008 134.14C152.856 134.14 154.158 132.768 154.158 130.64C154.158 128.512 152.856 127.14 151.008 127.14C149.16 127.14 147.872 128.512 147.872 130.64C147.872 132.768 149.16 134.14 151.008 134.14ZM151.008 133.356C149.692 133.356 148.796 132.418 148.796 130.64C148.796 128.848 149.692 127.896 151.008 127.896C152.338 127.896 153.234 128.848 153.234 130.64C153.234 132.418 152.338 133.356 151.008 133.356ZM157.766 134L159.194 129.52L159.586 128.05L159.964 129.52L161.392 134H162.582L164.416 127.28H163.38L162.288 131.816L161.98 133.314L161.574 131.816L160.146 127.28H159.012L157.584 131.816L157.178 133.314L156.87 131.816L155.764 127.28H154.742L156.576 134H157.766Z" fill="#3D0072"/>
<g clip-path="url(#clip1_170_14570)">
<rect x="714" y="36" width="377" height="149" rx="8" fill="#F9FAFB"/>
<path d="M999.478 87.1593L983.247 88.1922L992.258 101.733L1008.49 100.706L999.478 87.1593Z" fill="#BA68C8"/>
<path opacity="0.3" d="M999.478 87.1593L983.247 88.1922L992.258 101.733L1008.49 100.706L999.478 87.1593Z" fill="black"/>
<path d="M1008.5 100.679L987.616 142.811L971.383 143.838L992.254 101.734L1008.5 100.679Z" fill="#BA68C8"/>
<path opacity="0.4" d="M1008.5 100.679L987.616 142.811L971.383 143.838L992.254 101.734L1008.5 100.679Z" fill="black"/>
<path d="M992.256 101.738L971.385 143.842L962.375 130.297L983.246 88.1934L992.256 101.738Z" fill="#BA68C8"/>
<path opacity="0.55" d="M992.256 101.738L971.385 143.842L962.375 130.297L983.246 88.1934L992.256 101.738Z" fill="black"/>
<path d="M957.576 111.776L941.346 112.806L950.356 126.351L966.585 125.321L957.576 111.776Z" fill="#BA68C8"/>
<path opacity="0.3" d="M957.576 111.776L941.346 112.806L950.356 126.351L966.585 125.321L957.576 111.776Z" fill="white"/>
<path d="M966.591 125.325L956.958 144.757L940.724 145.788L950.358 126.353L966.591 125.325Z" fill="#BA68C8"/>
<path d="M950.357 126.353L940.723 145.789L931.713 132.244L941.348 112.809L950.357 126.353Z" fill="#BA68C8"/>
<path opacity="0.1" d="M950.357 126.353L940.723 145.789L931.713 132.244L941.348 112.809L950.357 126.353Z" fill="black"/>
<path d="M938.954 89.4364L922.719 90.4676L931.731 104.009L947.962 102.976L938.954 89.4364Z" fill="#BA68C8"/>
<path opacity="0.7" d="M938.954 89.4364L922.719 90.4676L931.731 104.009L947.962 102.976L938.954 89.4364Z" fill="white"/>
<path d="M947.962 102.979L926.281 146.717L910.053 147.735L931.729 104.007L947.962 102.979Z" fill="#BA68C8"/>
<path opacity="0.6" d="M947.962 102.979L926.281 146.717L910.053 147.735L931.729 104.007L947.962 102.979Z" fill="white"/>
<path d="M931.73 104.008L910.054 147.735L901.045 134.191L922.719 90.4668L931.73 104.008Z" fill="#BA68C8"/>
<path opacity="0.4" d="M931.73 104.008L910.054 147.735L901.045 134.191L922.719 90.4668L931.73 104.008Z" fill="white"/>
<path d="M903.478 101.097L887.245 102.133L896.255 115.678L912.484 114.648L903.478 101.097Z" fill="#455A64"/>
<path d="M912.501 114.622L895.633 148.651L879.398 149.682L896.248 115.679L912.501 114.622Z" fill="#37474F"/>
<path d="M896.25 115.678L879.399 149.681L870.39 136.136L887.258 102.107L896.25 115.678Z" fill="#263238"/>
<path d="M1004.49 80.5729L1002.89 83.8092L999.747 79.0774C999.599 78.8274 999.513 78.546 999.494 78.2562C999.476 77.9664 999.526 77.6764 999.641 77.4097L1000.92 74.834L1004.49 80.5729Z" fill="#B16668"/>
<path d="M1011.75 90.3385L1010.25 93.3604C1010.01 93.8383 1009.58 93.8661 1009.29 93.4216L1005.89 88.3258L1007.5 85.0859L1011.75 90.3385Z" fill="#B16668"/>
<path d="M943.144 86.5722L944.169 85.9688L956.814 118.742L957.97 119.122L957.938 119.141C957.732 119.275 957.482 119.323 957.241 119.275C956.999 119.227 956.787 119.086 956.648 118.883L954.448 115.603C954.252 115.306 954.088 114.988 953.959 114.656L943.144 86.5722Z" fill="#B16668"/>
<path d="M1004.5 80.57L1007.5 85.0848L958.783 116.409L956.79 111.245L1004.5 80.57Z" fill="#FFA8A7"/>
<path d="M1007.5 85.0873L1005.9 88.3237L957.985 119.129C957.889 119.199 957.778 119.245 957.661 119.263C957.543 119.282 957.423 119.272 957.31 119.235C957.197 119.198 957.095 119.134 957.012 119.05C956.928 118.965 956.866 118.862 956.83 118.749L944.507 86.8621C944.469 86.7478 944.406 86.6437 944.321 86.5579C944.237 86.4722 944.133 86.4071 944.02 86.3676C943.906 86.3282 943.785 86.3154 943.665 86.3304C943.546 86.3454 943.431 86.3876 943.331 86.4539L907.191 107.682L903.092 110.089C902.898 110.201 902.672 110.243 902.45 110.209L904.055 106.972L904.703 106.856L908.799 104.448L944.945 83.2141C945.046 83.1482 945.161 83.1063 945.28 83.0917C945.4 83.0772 945.521 83.0903 945.634 83.1301C945.748 83.1699 945.851 83.2353 945.935 83.3212C946.019 83.4072 946.083 83.5114 946.12 83.6257L958.433 115.507C958.469 115.62 958.532 115.723 958.615 115.807C958.699 115.891 958.801 115.954 958.914 115.991C959.026 116.028 959.146 116.038 959.263 116.02C959.38 116.002 959.492 115.956 959.588 115.887L1007.5 85.0873Z" fill="#F28F8F"/>
<path d="M904.053 106.989L902.448 110.226C902.305 110.208 902.168 110.159 902.046 110.083C901.923 110.007 901.818 109.906 901.738 109.786L900.039 107.236L900.018 107.226C899.878 106.978 899.797 106.7 899.781 106.416C899.766 106.131 899.817 105.847 899.93 105.585L901.297 102.826L904.053 106.989Z" fill="#B16668"/>
<path d="M904.707 106.862L944.949 83.2202C945.127 83.1158 945.338 83.0825 945.539 83.127C945.74 83.1716 945.917 83.2906 946.034 83.4603L943.286 79.034C943.149 78.8152 942.933 78.6581 942.683 78.5961C942.432 78.5341 942.168 78.572 941.945 78.7018L901.704 102.349C901.597 102.411 901.503 102.494 901.429 102.594C901.355 102.694 901.303 102.807 901.275 102.928C901.247 103.049 901.244 103.175 901.267 103.297C901.29 103.419 901.338 103.535 901.407 103.637L903.343 106.549C903.49 106.763 903.711 106.914 903.964 106.972C904.217 107.03 904.482 106.991 904.707 106.862Z" fill="#FFA8A7"/>
<path d="M1001.02 75.3531L1010.97 90.3012C1011.26 90.7457 1011.64 90.6988 1011.8 90.1878L1016.22 76.9652C1016.27 76.8559 1016.29 76.7373 1016.27 76.6198C1016.26 76.5022 1016.22 76.3892 1016.16 76.2904C1016.09 76.1916 1016.01 76.11 1015.9 76.0526C1015.8 75.9951 1015.68 75.9636 1015.57 75.9607L1001.44 74.6484C1000.92 74.594 1000.73 74.9087 1001.02 75.3531Z" fill="#FFA8A7"/>
</g>
</g>
<defs>
<clipPath id="clip0_170_14570">
<rect width="1170" height="220" rx="20" fill="white"/>
</clipPath>
<clipPath id="clip1_170_14570">
<rect x="794" y="36" width="297" height="149" rx="8" fill="white"/>
</clipPath>
</defs>
</svg>
