<svg width="32" height="32" viewBox="0 0 32 32" fill="none" xmlns="http://www.w3.org/2000/svg">
<path d="M14.6693 26.8L25.6026 15.8666C26.2693 15.2 27.0693 14.8 28.0026 14.8C28.9359 14.8 29.7359 15.2 30.4026 15.8666L30.6693 16.1333V5.33329C30.6693 3.86663 29.4693 2.66663 28.0026 2.66663H4.0026C2.53594 2.66663 1.33594 3.86663 1.33594 5.33329V26.6666C1.33594 28.1333 2.53594 29.3333 4.0026 29.3333H14.6693V26.8ZM4.0026 5.33329H28.0026V9.33329H4.0026V5.33329ZM28.0026 17.4666C27.8693 17.4666 27.6026 17.6 27.4693 17.7333L26.1359 19.0666L28.9359 21.8666L30.2693 20.5333C30.5359 20.2666 30.5359 19.7333 30.2693 19.4666L28.5359 17.7333C28.4026 17.6 28.2693 17.4666 28.0026 17.4666ZM25.4693 19.8666L17.3359 27.8666V30.6666H20.1359L28.2693 22.5333L25.4693 19.8666Z" fill="#3D0072"/>
</svg>
