<svg width="381" height="235" viewBox="0 0 381 235" fill="none" xmlns="http://www.w3.org/2000/svg">
<g clip-path="url(#clip0_5986_88525)">
<rect width="381" height="235" fill="#8807F7"/>
<g clip-path="url(#clip1_5986_88525)">
<path d="M117.958 119.922C118.05 117.671 118.001 115.401 117.893 113.172C117.825 111.659 118.25 109.994 119.098 108.649C119.945 107.306 121.193 106.311 122.765 106.065L122.766 106.065C122.966 106.034 123.165 106.003 123.363 105.972C124.99 105.72 126.543 105.479 127.901 105.088C129.423 104.65 130.754 104.01 131.704 102.906C131.76 102.849 131.816 102.784 131.867 102.718C131.867 105.941 131.867 109.175 131.886 112.399C131.885 115.149 130.997 117.721 128.552 119.072C127.099 119.868 125.318 120.176 123.449 120.234C121.583 120.291 119.668 120.099 117.958 119.922Z" fill="white" stroke="#8807F7" stroke-width="0.802705"/>
<path d="M146.296 123.051C146.124 122.841 145.942 122.631 145.742 122.421C143.26 119.711 139.413 118.288 135.748 118.775C131.195 119.376 127.186 122.956 126.002 127.395M146.296 123.051L145.98 123.3C145.981 123.301 145.982 123.302 145.983 123.303M146.296 123.051L145.985 123.306C145.984 123.305 145.983 123.304 145.983 123.303M146.296 123.051C148.749 126.163 149.417 130.583 147.995 134.286L147.62 134.142C148.991 130.572 148.346 126.303 145.983 123.303M145.983 123.303C145.816 123.099 145.642 122.898 145.452 122.699L145.446 122.692L145.446 122.692C143.052 120.077 139.335 118.704 135.801 119.173L135.801 119.173C131.411 119.753 127.533 123.213 126.39 127.498M126.39 127.498C126.39 127.498 126.39 127.498 126.39 127.498L126.002 127.395M126.39 127.498L126.002 127.395M126.39 127.498C126.038 128.824 126.012 130.203 126.026 131.635C126.028 131.812 126.031 131.99 126.033 132.168C126.05 133.42 126.067 134.712 125.874 135.979M126.002 127.395C125.589 128.952 125.61 130.563 125.632 132.176C125.648 133.431 125.665 134.686 125.477 135.919M125.477 135.919L125.874 135.979C125.874 135.979 125.874 135.979 125.874 135.979M125.477 135.919L125.874 135.979M125.477 135.919L128.73 141.445M125.874 135.979C125.684 137.23 125.059 138.472 124.222 139.529C123.676 140.218 123.031 140.839 122.34 141.34C123.692 141.394 125.046 141.406 126.405 141.417C127.179 141.424 127.953 141.43 128.73 141.445M128.73 141.445C129.549 141.458 130.363 141.494 131.171 141.53C133.367 141.628 135.515 141.723 137.585 141.346L137.585 141.346C139.604 140.979 141.751 140.136 143.578 138.898C145.406 137.66 146.889 136.044 147.62 134.142L128.73 141.445Z" fill="white" stroke="#8807F7" stroke-width="0.802705"/>
<path d="M139.674 106.982C139.356 101.577 141.906 96.1945 146.158 92.8696C146.221 93.3879 146.422 93.8789 146.6 94.2816L146.6 94.2816L146.601 94.2834C147.57 96.4437 148.941 98.4189 150.432 100.316C151.178 101.264 151.956 102.198 152.731 103.125L152.79 103.195C153.547 104.1 154.299 105 155.02 105.912C157.981 109.658 160.358 113.536 160.187 118.474C160.028 122.983 157.777 128.254 154.056 130.894L154.053 130.897C153.897 131.01 153.762 131.102 153.627 131.175C153.382 130.605 153.221 129.934 153.062 129.21C153.044 129.125 153.025 129.039 153.006 128.952C152.839 128.18 152.662 127.364 152.369 126.65L152.368 126.649C151.575 124.724 150.52 122.811 149.029 121.29L149.028 121.29C148.307 120.559 147.501 119.986 146.726 119.438L146.697 119.418C145.925 118.872 145.186 118.349 144.53 117.698C141.696 114.864 139.907 110.985 139.674 106.982L139.674 106.982Z" fill="white" stroke="#8807F7" stroke-width="0.802705"/>
<path d="M120.2 112.427C120.2 112.427 120.067 109.879 122.682 110.003C122.682 110.003 123.637 112.79 120.2 112.427Z" fill="#8807F7" stroke="white" stroke-width="0.401352" stroke-miterlimit="10"/>
<path d="M123.266 129.704C123.266 131.876 121.505 133.636 119.334 133.636C117.162 133.636 115.401 131.876 115.401 129.704C115.401 127.532 117.162 125.772 119.334 125.772C121.505 125.772 123.266 127.532 123.266 129.704Z" fill="white" stroke="#8807F7" stroke-width="0.802705"/>
<path d="M170.832 134.105L179.136 111.912H183.584L191.889 134.105H187.545L185.512 128.721H177.237L175.203 134.105H170.812H170.832ZM178.63 125.122H184.166L181.37 116.646L178.63 125.122Z" fill="white"/>
<path d="M194.113 134.104V119.07H198.046V122.592C198.409 121.304 198.981 120.339 199.764 119.7C200.537 119.06 201.387 118.736 202.313 118.736C203.239 118.736 204.069 118.917 204.785 119.289L204.107 122.812C203.506 122.535 202.752 122.401 201.826 122.401C199.306 122.401 198.056 124.53 198.056 128.778V134.104H194.123H194.113Z" fill="white"/>
<path d="M206.703 129.818C206.302 128.835 206.102 127.757 206.102 126.602C206.102 125.447 206.302 124.368 206.703 123.366C207.104 122.363 207.638 121.533 208.316 120.855C208.994 120.187 209.786 119.662 210.683 119.29C211.59 118.918 212.535 118.727 213.528 118.727C214.521 118.727 215.494 118.937 216.353 119.347C217.212 119.758 217.842 120.34 218.253 121.075V110.861H222.185V134.095H218.253V132.052C217.842 132.787 217.212 133.369 216.344 133.78C215.485 134.2 214.54 134.4 213.528 134.4C212.516 134.4 211.59 134.209 210.693 133.837C209.796 133.465 209.003 132.949 208.326 132.281C207.648 131.613 207.104 130.792 206.703 129.799V129.818ZM210.225 126.544C210.225 127.757 210.607 128.74 211.361 129.503C212.125 130.267 213.06 130.649 214.177 130.649C215.294 130.649 216.229 130.267 217.021 129.513C217.814 128.759 218.196 127.766 218.196 126.554C218.196 125.342 217.795 124.358 216.993 123.623C216.191 122.888 215.256 122.526 214.177 122.526C213.098 122.526 212.115 122.898 211.361 123.643C210.607 124.387 210.225 125.361 210.225 126.563V126.544Z" fill="white"/>
<path d="M225.965 113.229C225.965 112.57 226.213 112.007 226.719 111.549C227.225 111.09 227.817 110.861 228.504 110.861C229.191 110.861 229.773 111.09 230.27 111.549C230.766 112.007 231.005 112.56 231.005 113.229C231.005 113.897 230.757 114.46 230.27 114.918C229.783 115.376 229.191 115.605 228.504 115.605C227.817 115.605 227.206 115.376 226.709 114.918C226.213 114.46 225.965 113.897 225.965 113.229ZM226.518 134.104V119.07H230.451V134.104H226.518Z" fill="white"/>
<path d="M234.879 134.104V115.605H238.812V134.104H234.879Z" fill="white"/>
<path d="M243.238 134.104V110.871H247.171V134.104H243.238Z" fill="white"/>
<path d="M250.688 126.563C250.688 125.389 250.898 124.31 251.327 123.308C251.757 122.315 252.329 121.485 253.045 120.826C253.761 120.168 254.582 119.652 255.508 119.289C256.434 118.927 257.398 118.736 258.4 118.736C259.231 118.736 260.09 118.908 260.977 119.261C261.865 119.614 262.562 120.168 263.068 120.922V119.06H267V134.094H263.068V132.147C262.629 132.863 261.951 133.417 261.035 133.798C260.118 134.18 259.24 134.371 258.41 134.371C257.064 134.371 255.813 134.056 254.649 133.436C253.484 132.815 252.53 131.889 251.795 130.677C251.06 129.465 250.697 128.09 250.697 126.544L250.688 126.563ZM254.811 126.563C254.811 127.737 255.222 128.701 256.052 129.465C256.882 130.228 257.847 130.61 258.954 130.61C260.061 130.61 261.035 130.248 261.846 129.513C262.657 128.778 263.058 127.794 263.058 126.563C263.058 125.332 262.648 124.348 261.827 123.614C261.006 122.879 260.042 122.516 258.944 122.516C257.847 122.516 256.854 122.898 256.033 123.652C255.212 124.415 254.802 125.379 254.802 126.563H254.811Z" fill="white"/>
</g>
<g filter="url(#filter0_d_5986_88525)">
<rect x="24" y="16" width="22" height="22" rx="11" fill="white"/>
<path d="M38.75 28.875V30.75H31.25V28.875H30V30.75C30 31.4375 30.5625 32 31.25 32H38.75C39.4375 32 40 31.4375 40 30.75V28.875H38.75ZM38.125 26.375L37.2438 25.4938L35.625 27.1062V22H34.375V27.1062L32.7562 25.4938L31.875 26.375L35 29.5L38.125 26.375Z" fill="black"/>
</g>
</g>
<defs>
<filter id="filter0_d_5986_88525" x="20" y="16" width="30" height="30" filterUnits="userSpaceOnUse" color-interpolation-filters="sRGB">
<feFlood flood-opacity="0" result="BackgroundImageFix"/>
<feColorMatrix in="SourceAlpha" type="matrix" values="0 0 0 0 0 0 0 0 0 0 0 0 0 0 0 0 0 0 127 0" result="hardAlpha"/>
<feOffset dy="4"/>
<feGaussianBlur stdDeviation="2"/>
<feComposite in2="hardAlpha" operator="out"/>
<feColorMatrix type="matrix" values="0 0 0 0 0 0 0 0 0 0 0 0 0 0 0 0 0 0 0.25 0"/>
<feBlend mode="normal" in2="BackgroundImageFix" result="effect1_dropShadow_5986_88525"/>
<feBlend mode="normal" in="SourceGraphic" in2="effect1_dropShadow_5986_88525" result="shape"/>
</filter>
<clipPath id="clip0_5986_88525">
<rect width="381" height="235" rx="8" fill="white"/>
</clipPath>
<clipPath id="clip1_5986_88525">
<rect width="152" height="50.0176" fill="white" transform="translate(115 92)"/>
</clipPath>
</defs>
</svg>
