<svg width="429" height="287" viewBox="0 0 429 287" fill="none" xmlns="http://www.w3.org/2000/svg">
<path d="M26.282 281V277.822H28.816C30.664 277.822 32.12 276.8 32.12 274.798C32.12 272.642 30.664 271.62 28.816 271.62H25.064V281H26.282ZM28.62 272.698C29.754 272.698 30.86 273.118 30.86 274.798C30.86 276.324 29.754 276.744 28.62 276.744H26.282V272.698H28.62ZM34.4135 281V277.164C34.4135 276.002 35.1975 274.98 36.0655 274.98C36.5555 274.98 36.7655 275.316 36.7655 275.708C36.7655 276.086 36.5835 276.506 36.3595 276.702H37.6895C37.8015 276.534 37.9555 276.114 37.9555 275.54C37.9555 274.588 37.2555 274.07 36.5275 274.07C35.3795 274.07 34.6795 274.98 34.4135 276.03V274.224H33.1955V281H34.4135ZM40.3197 273.132V271.62H39.1017V273.132H40.3197ZM40.3197 281V274.224H39.1017V281H40.3197ZM43.3686 281V277.164C43.3686 276.03 43.8446 275.12 44.8666 275.12C45.8886 275.12 46.3506 275.61 46.3506 276.604V281H47.5686V277.164C47.5686 276.03 48.0446 275.12 49.0806 275.12C50.0886 275.12 50.5646 275.61 50.5646 276.604V281H51.7686V276.31C51.7686 274.882 51.0826 274.084 49.7526 274.084C48.5206 274.084 47.8206 274.994 47.5546 276.072C47.4846 274.798 46.7986 274.084 45.5526 274.084C44.3346 274.084 43.6346 274.98 43.3686 276.016V274.224H42.1506V281H43.3686ZM55.0076 281.14C56.4076 281.14 57.1356 280.132 57.3596 279.236V279.712C57.3596 280.664 57.8636 281 58.5636 281H59.3476V279.894H58.9136C58.6616 279.894 58.5356 279.796 58.5356 279.474V276.688C58.5356 275.078 57.6396 274.084 55.9736 274.084C54.4616 274.084 53.4536 274.938 53.0476 275.638L53.8736 276.492C54.2236 275.75 54.8676 275.19 55.8336 275.19C56.8976 275.19 57.2756 275.778 57.3176 276.576L54.8676 277.668C53.9016 278.102 53.2156 278.676 53.2156 279.586C53.2156 280.482 53.8596 281.14 55.0076 281.14ZM54.4476 279.39C54.4476 278.97 54.7416 278.69 55.3856 278.382L57.3596 277.458V278.396C57.3596 279.376 56.5476 280.132 55.3996 280.132C54.7696 280.132 54.4476 279.852 54.4476 279.39ZM61.976 281V277.164C61.976 276.002 62.76 274.98 63.628 274.98C64.118 274.98 64.328 275.316 64.328 275.708C64.328 276.086 64.146 276.506 63.922 276.702H65.252C65.364 276.534 65.518 276.114 65.518 275.54C65.518 274.588 64.818 274.07 64.09 274.07C62.942 274.07 62.242 274.98 61.976 276.03V274.224H60.758V281H61.976ZM67.5765 283.212C68.5285 283.212 69.2845 282.806 69.7185 281.56L72.3225 274.224H71.0205L69.5785 278.578L69.1025 280.034L68.6265 278.578L67.1705 274.224H65.8685L68.1505 280.636L68.9065 280.622L68.7665 281.056C68.5005 281.882 68.1365 282.148 67.5905 282.148C66.9465 282.148 66.5965 281.742 66.2745 281.196L65.6165 282.12C65.9105 282.68 66.6105 283.212 67.5765 283.212ZM82.6706 281V279.922H77.7566V271.62H76.5386V281H82.6706ZM86.0326 281.14C87.9086 281.14 89.2386 279.754 89.2386 277.612C89.2386 275.47 87.9086 274.084 86.0326 274.084C84.1566 274.084 82.8406 275.47 82.8406 277.612C82.8406 279.754 84.1566 281.14 86.0326 281.14ZM86.0326 280.118C84.8846 280.118 84.0866 279.32 84.0866 277.612C84.0866 275.89 84.8846 275.106 86.0326 275.106C87.1946 275.106 88.0066 275.89 88.0066 277.612C88.0066 279.32 87.1946 280.118 86.0326 280.118ZM93.3591 278.928C94.9551 278.928 96.0331 277.92 96.0331 276.506C96.0331 275.666 95.6411 274.952 94.9971 274.532L96.2431 273.132L94.9831 272.684L94.5631 274.308C94.2131 274.168 93.8071 274.084 93.3591 274.084C91.7631 274.084 90.6851 275.092 90.6851 276.506C90.6851 277.36 91.0771 278.074 91.7491 278.494C91.0911 279.026 90.6851 279.614 90.6851 280.146C90.6851 280.594 90.9091 280.916 91.3431 281.056C90.8251 281.266 90.2511 281.644 90.2511 282.274C90.2511 283.17 91.3431 283.744 93.0791 283.744C95.3611 283.744 96.6211 282.834 96.6211 281.546C96.6211 280.524 95.8511 280.034 94.6191 280.034H92.5751C91.8751 280.034 91.6791 279.852 91.6791 279.488C91.6791 279.194 91.8751 278.872 92.0431 278.648C92.4211 278.83 92.8691 278.928 93.3591 278.928ZM93.3591 277.99C92.5191 277.99 91.8611 277.43 91.8611 276.506C91.8611 275.582 92.5191 275.022 93.3591 275.022C94.2131 275.022 94.8571 275.582 94.8571 276.506C94.8571 277.43 94.2131 277.99 93.3591 277.99ZM93.0791 282.778C91.8611 282.778 91.2311 282.442 91.2311 281.896C91.2311 281.574 91.4691 281.28 91.6931 281.084H94.4651C95.1511 281.084 95.4871 281.28 95.4871 281.714C95.4871 282.386 94.6191 282.778 93.0791 282.778ZM100.388 281.14C102.264 281.14 103.594 279.754 103.594 277.612C103.594 275.47 102.264 274.084 100.388 274.084C98.512 274.084 97.196 275.47 97.196 277.612C97.196 279.754 98.512 281.14 100.388 281.14ZM100.388 280.118C99.24 280.118 98.442 279.32 98.442 277.612C98.442 275.89 99.24 275.106 100.388 275.106C101.55 275.106 102.362 275.89 102.362 277.612C102.362 279.32 101.55 280.118 100.388 280.118Z" fill="#3D0072"/>
<g filter="url(#filter0_d_5962_87726)">
<g clip-path="url(#clip0_5962_87726)">
<rect x="24" y="12" width="381" height="235" fill="#8807F7"/>
<g clip-path="url(#clip1_5962_87726)">
<path d="M156.268 114.567C156.268 117.841 156.268 121.124 156.287 124.398C156.287 127.224 155.371 129.973 152.746 131.424C149.682 133.104 145.329 132.674 141.912 132.321C141.778 132.321 141.664 132.292 141.54 132.283C141.654 129.925 141.606 127.539 141.492 125.191C141.349 122.002 143.277 118.203 146.704 117.669C150.417 117.087 153.653 116.686 155.409 114.633C155.466 114.576 155.523 114.509 155.571 114.443C155.829 114.089 156.106 113.755 156.383 113.412C156.297 113.784 156.268 114.175 156.268 114.557V114.567Z" fill="white"/>
<path d="M145.033 153.674C147.591 153.837 150.168 153.798 152.727 153.846C155.714 153.894 158.778 154.266 161.661 153.741C165.804 152.987 170.462 150.286 171.999 146.286C173.421 142.583 172.753 138.163 170.299 135.051C170.128 134.841 169.946 134.631 169.746 134.421C167.264 131.711 163.417 130.288 159.752 130.775C155.199 131.376 151.19 134.956 150.006 139.395C149.271 142.163 149.911 145.103 149.481 147.919C149.128 150.248 147.133 152.634 145.023 153.674H145.033Z" fill="white"/>
<path d="M170.627 104C170.398 104.697 170.675 105.451 170.971 106.119C174.77 114.586 184.945 120.313 184.592 130.488C184.43 135.089 182.139 140.492 178.292 143.222C178.015 143.422 177.758 143.594 177.433 143.69C176.698 142.315 176.622 140.31 176.001 138.802C175.219 136.903 174.188 135.041 172.746 133.571C171.362 132.168 169.635 131.357 168.25 129.982C165.349 127.081 163.516 123.11 163.277 119.005C162.934 113.164 165.855 107.36 170.637 104.019L170.627 104Z" fill="white"/>
<path d="M144.204 124.427C144.204 124.427 144.071 121.879 146.686 122.003C146.686 122.003 147.641 124.79 144.204 124.427V124.427Z" fill="#8807F7"/>
<path d="M143.334 146.038C145.727 146.038 147.667 144.098 147.667 141.704C147.667 139.311 145.727 137.371 143.334 137.371C140.94 137.371 139 139.311 139 141.704C139 144.098 140.94 146.038 143.334 146.038Z" fill="white"/>
<path d="M194.832 146.105L203.136 123.912H207.584L215.889 146.105H211.545L209.512 140.721H201.237L199.203 146.105H194.812H194.832ZM202.63 137.122H208.166L205.37 128.646L202.63 137.122V137.122Z" fill="white"/>
<path d="M218.109 146.104V131.07H222.042V134.592C222.405 133.304 222.978 132.339 223.76 131.7C224.533 131.06 225.383 130.736 226.309 130.736C227.235 130.736 228.065 130.917 228.781 131.289L228.103 134.812C227.502 134.535 226.748 134.401 225.822 134.401C223.302 134.401 222.052 136.53 222.052 140.778V146.104H218.119H218.109Z" fill="white"/>
<path d="M230.703 141.818C230.302 140.835 230.102 139.757 230.102 138.602C230.102 137.447 230.302 136.368 230.703 135.366C231.104 134.363 231.638 133.533 232.316 132.855C232.994 132.187 233.786 131.662 234.683 131.29C235.59 130.918 236.535 130.727 237.528 130.727C238.521 130.727 239.494 130.937 240.353 131.347C241.212 131.758 241.842 132.34 242.253 133.075V122.861H246.185V146.095H242.253V144.052C241.842 144.787 241.212 145.369 240.344 145.78C239.485 146.2 238.54 146.4 237.528 146.4C236.516 146.4 235.59 146.209 234.693 145.837C233.796 145.465 233.003 144.949 232.326 144.281C231.648 143.613 231.104 142.792 230.703 141.799V141.818ZM234.225 138.544C234.225 139.757 234.607 140.74 235.361 141.503C236.125 142.267 237.06 142.649 238.177 142.649C239.294 142.649 240.229 142.267 241.021 141.513C241.814 140.759 242.196 139.766 242.196 138.554C242.196 137.342 241.795 136.358 240.993 135.623C240.191 134.888 239.256 134.526 238.177 134.526C237.098 134.526 236.115 134.898 235.361 135.643C234.607 136.387 234.225 137.361 234.225 138.563V138.544Z" fill="white"/>
<path d="M249.969 125.229C249.969 124.57 250.217 124.007 250.723 123.549C251.229 123.09 251.821 122.861 252.508 122.861C253.195 122.861 253.777 123.09 254.274 123.549C254.77 124.007 255.009 124.56 255.009 125.229C255.009 125.897 254.761 126.46 254.274 126.918C253.787 127.376 253.195 127.605 252.508 127.605C251.821 127.605 251.21 127.376 250.713 126.918C250.217 126.46 249.969 125.897 249.969 125.229V125.229ZM250.522 146.104V131.07H254.455V146.104H250.522Z" fill="white"/>
<path d="M258.875 146.104V127.605H262.808V146.104H258.875Z" fill="white"/>
<path d="M267.234 146.104V122.871H271.167V146.104H267.234Z" fill="white"/>
<path d="M274.688 138.563C274.688 137.389 274.898 136.31 275.327 135.308C275.757 134.315 276.329 133.485 277.045 132.826C277.761 132.168 278.582 131.652 279.508 131.289C280.434 130.927 281.398 130.736 282.4 130.736C283.231 130.736 284.09 130.908 284.977 131.261C285.865 131.614 286.562 132.168 287.068 132.922V131.06H291V146.094H287.068V144.147C286.629 144.863 285.951 145.417 285.035 145.798C284.118 146.18 283.24 146.371 282.41 146.371C281.064 146.371 279.813 146.056 278.649 145.436C277.484 144.815 276.53 143.889 275.795 142.677C275.06 141.465 274.697 140.09 274.697 138.544L274.688 138.563ZM278.811 138.563C278.811 139.737 279.222 140.701 280.052 141.465C280.882 142.228 281.847 142.61 282.954 142.61C284.061 142.61 285.035 142.248 285.846 141.513C286.657 140.778 287.058 139.794 287.058 138.563C287.058 137.332 286.648 136.348 285.827 135.614C285.006 134.879 284.042 134.516 282.944 134.516C281.847 134.516 280.854 134.898 280.033 135.652C279.212 136.415 278.802 137.379 278.802 138.563H278.811Z" fill="white"/>
</g>
<g filter="url(#filter1_d_5962_87726)">
<rect x="48" y="28" width="22" height="22" rx="11" fill="white"/>
<path d="M62.75 40.875V42.75H55.25V40.875H54V42.75C54 43.4375 54.5625 44 55.25 44H62.75C63.4375 44 64 43.4375 64 42.75V40.875H62.75ZM62.125 38.375L61.2438 37.4938L59.625 39.1063V34H58.375V39.1063L56.7562 37.4938L55.875 38.375L59 41.5L62.125 38.375Z" fill="black"/>
</g>
</g>
</g>
<defs>
<filter id="filter0_d_5962_87726" x="0" y="0" width="429" height="283" filterUnits="userSpaceOnUse" color-interpolation-filters="sRGB">
<feFlood flood-opacity="0" result="BackgroundImageFix"/>
<feColorMatrix in="SourceAlpha" type="matrix" values="0 0 0 0 0 0 0 0 0 0 0 0 0 0 0 0 0 0 127 0" result="hardAlpha"/>
<feOffset dy="12"/>
<feGaussianBlur stdDeviation="12"/>
<feComposite in2="hardAlpha" operator="out"/>
<feColorMatrix type="matrix" values="0 0 0 0 0.45225 0 0 0 0 0.42 0 0 0 0 0.48 0 0 0 0.15 0"/>
<feBlend mode="normal" in2="BackgroundImageFix" result="effect1_dropShadow_5962_87726"/>
<feBlend mode="normal" in="SourceGraphic" in2="effect1_dropShadow_5962_87726" result="shape"/>
</filter>
<filter id="filter1_d_5962_87726" x="44" y="28" width="30" height="30" filterUnits="userSpaceOnUse" color-interpolation-filters="sRGB">
<feFlood flood-opacity="0" result="BackgroundImageFix"/>
<feColorMatrix in="SourceAlpha" type="matrix" values="0 0 0 0 0 0 0 0 0 0 0 0 0 0 0 0 0 0 127 0" result="hardAlpha"/>
<feOffset dy="4"/>
<feGaussianBlur stdDeviation="2"/>
<feComposite in2="hardAlpha" operator="out"/>
<feColorMatrix type="matrix" values="0 0 0 0 0 0 0 0 0 0 0 0 0 0 0 0 0 0 0.25 0"/>
<feBlend mode="normal" in2="BackgroundImageFix" result="effect1_dropShadow_5962_87726"/>
<feBlend mode="normal" in="SourceGraphic" in2="effect1_dropShadow_5962_87726" result="shape"/>
</filter>
<clipPath id="clip0_5962_87726">
<rect x="24" y="12" width="381" height="235" rx="8" fill="white"/>
</clipPath>
<clipPath id="clip1_5962_87726">
<rect width="152" height="50.0176" fill="white" transform="translate(139 104)"/>
</clipPath>
</defs>
</svg>
