<svg width="85" height="29" viewBox="0 0 85 29" fill="none" xmlns="http://www.w3.org/2000/svg">
<g clip-path="url(#clip0_10253_113315)">
<path d="M9.65388 5.96033C9.65388 7.79122 9.65388 9.62744 9.66456 11.4583C9.66456 13.0383 9.15212 14.5756 7.68421 15.387C5.97076 16.3264 3.5367 16.0862 1.62575 15.8887C1.55102 15.8887 1.48696 15.8727 1.41757 15.8674C1.48163 14.5489 1.45494 13.2145 1.39088 11.9014C1.31082 10.1185 2.38906 7.99406 4.30535 7.69514C6.38178 7.36953 8.19131 7.14534 9.17348 5.9977C9.2055 5.96567 9.23753 5.92831 9.26422 5.89094C9.40834 5.69344 9.56314 5.50662 9.71794 5.31445C9.6699 5.52263 9.65388 5.74148 9.65388 5.955V5.96033Z" fill="#8807F7"/>
<path d="M3.37253 27.829C4.80307 27.9198 6.24429 27.8984 7.67484 27.9251C9.34558 27.9518 11.059 28.16 12.6711 27.8664C14.9877 27.4447 17.5926 25.9341 18.452 23.6975C19.2473 21.6264 18.8737 19.155 17.5018 17.4149C17.4057 17.2974 17.3043 17.18 17.1922 17.0626C15.8044 15.5466 13.6532 14.7513 11.6035 15.0235C9.05734 15.3598 6.81544 17.3615 6.15355 19.8436C5.74253 21.3916 6.10017 23.0356 5.85997 24.6103C5.66246 25.9127 4.54685 27.2472 3.36719 27.829H3.37253Z" fill="#8807F7"/>
<path d="M17.684 0.0507812C17.5559 0.440445 17.7107 0.862135 17.8762 1.23578C20.0007 5.97046 25.6908 9.17317 25.4933 14.8633C25.4026 17.4362 24.1215 20.4574 21.9703 21.984C21.8155 22.0961 21.6714 22.1922 21.4899 22.2456C21.0789 21.4769 21.0362 20.356 20.6892 19.5126C20.2515 18.4504 19.675 17.4095 18.869 16.5875C18.095 15.8028 17.1289 15.3491 16.3549 14.5804C14.7322 12.9577 13.7073 10.7372 13.5739 8.44189C13.3817 5.17512 15.0151 1.92971 17.6894 0.061457L17.684 0.0507812Z" fill="#8807F7"/>
<path d="M2.9108 11.4735C2.9108 11.4735 2.83607 10.0483 4.29864 10.1177C4.29864 10.1177 4.83243 11.6763 2.9108 11.4735V11.4735Z" fill="white" stroke="#8807F7" stroke-width="0.261407" stroke-miterlimit="10"/>
<path d="M2.42339 23.5577C3.76179 23.5577 4.84677 22.4727 4.84677 21.1343C4.84677 19.7959 3.76179 18.7109 2.42339 18.7109C1.08499 18.7109 0 19.7959 0 21.1343C0 22.4727 1.08499 23.5577 2.42339 23.5577Z" fill="#8807F7"/>
<path d="M31.2216 23.5961L35.8655 11.1855H38.353L42.9969 23.5961H40.5682L39.4312 20.5855H34.8033L33.6664 23.5961H31.2109H31.2216ZM35.5826 18.5731H38.6786L37.1146 13.8331L35.5826 18.5731V18.5731Z" fill="#3D0072"/>
<path d="M44.2422 23.5959V15.1888H46.4414V17.1584C46.6442 16.4378 46.9645 15.8987 47.4022 15.5411C47.8346 15.1834 48.3096 15.002 48.8274 15.002C49.3452 15.002 49.8096 15.1034 50.2099 15.3115L49.8309 17.2812C49.4946 17.1264 49.0729 17.0517 48.5552 17.0517C47.146 17.0517 46.4467 18.242 46.4467 20.6174V23.5959H44.2475H44.2422Z" fill="#3D0072"/>
<path d="M51.2816 21.1986C51.0574 20.6488 50.9453 20.0457 50.9453 19.3998C50.9453 18.7539 51.0574 18.1507 51.2816 17.5902C51.5058 17.0298 51.8047 16.5654 52.1837 16.1864C52.5627 15.8127 53.0057 15.5192 53.5075 15.311C54.0146 15.1028 54.543 14.996 55.0982 14.996C55.6533 14.996 56.1978 15.1135 56.6782 15.343C57.1586 15.5725 57.5109 15.8981 57.7404 16.3092V10.5977H59.9396V23.59H57.7404V22.4477C57.5109 22.8587 57.1586 23.1843 56.6728 23.4138C56.1924 23.6487 55.664 23.7608 55.0982 23.7608C54.5323 23.7608 54.0146 23.654 53.5128 23.4459C53.0111 23.2377 52.568 22.9494 52.189 22.5758C51.81 22.2021 51.5058 21.7431 51.2816 21.188V21.1986ZM53.2513 19.3677C53.2513 20.0457 53.4648 20.5955 53.8865 21.0225C54.3135 21.4495 54.8366 21.663 55.4611 21.663C56.0857 21.663 56.6088 21.4495 57.0518 21.0278C57.4949 20.6061 57.7084 20.051 57.7084 19.3731C57.7084 18.6952 57.4842 18.1454 57.0358 17.7344C56.5874 17.3234 56.0643 17.1205 55.4611 17.1205C54.858 17.1205 54.3082 17.3287 53.8865 17.745C53.4648 18.1614 53.2513 18.7059 53.2513 19.3784V19.3677Z" fill="#3D0072"/>
<path d="M62.0547 11.9214C62.0547 11.5531 62.1935 11.2382 62.4764 10.982C62.7593 10.7258 63.0902 10.5977 63.4746 10.5977C63.8589 10.5977 64.1845 10.7258 64.4621 10.982C64.7396 11.2382 64.8731 11.5478 64.8731 11.9214C64.8731 12.2951 64.7343 12.61 64.4621 12.8662C64.1898 13.1225 63.8589 13.2506 63.4746 13.2506C63.0902 13.2506 62.7486 13.1225 62.471 12.8662C62.1935 12.61 62.0547 12.2951 62.0547 11.9214V11.9214ZM62.3643 23.5953V15.1882H64.5635V23.5953H62.3643Z" fill="#3D0072"/>
<path d="M67.0391 23.5948V13.25H69.2383V23.5948H67.0391Z" fill="#3D0072"/>
<path d="M71.7148 23.5959V10.6035H73.914V23.5959H71.7148Z" fill="#3D0072"/>
<path d="M75.8789 19.379C75.8789 18.7224 75.9963 18.1193 76.2365 17.5588C76.4768 17.0036 76.797 16.5393 77.1974 16.1709C77.5977 15.8026 78.0568 15.5144 78.5745 15.3115C79.0923 15.1087 79.6314 15.002 80.1919 15.002C80.6563 15.002 81.1367 15.098 81.6331 15.2955C82.1295 15.493 82.5192 15.8026 82.8021 16.2243V15.1834H85.0013V23.5906H82.8021V22.5016C82.5566 22.902 82.1776 23.2116 81.6651 23.4251C81.1527 23.6386 80.6616 23.7454 80.1972 23.7454C79.4446 23.7454 78.7453 23.5692 78.0941 23.2222C77.4429 22.8753 76.9091 22.3575 76.4981 21.6796C76.0871 21.0017 75.8842 20.233 75.8842 19.3683L75.8789 19.379ZM78.1849 19.379C78.1849 20.0355 78.4144 20.5747 78.8788 21.0017C79.3432 21.4287 79.8823 21.6422 80.5015 21.6422C81.1207 21.6422 81.6651 21.4394 82.1189 21.0284C82.5726 20.6174 82.7968 20.0676 82.7968 19.379C82.7968 18.6904 82.5672 18.1406 82.1082 17.7296C81.6491 17.3186 81.11 17.1157 80.4962 17.1157C79.8823 17.1157 79.3272 17.3293 78.8681 17.7509C78.4091 18.178 78.1795 18.7171 78.1795 19.379H78.1849Z" fill="#3D0072"/>
</g>
<defs>
<clipPath id="clip0_10253_113315">
<rect width="85" height="27.9704" fill="white" transform="translate(0 0.0507812)"/>
</clipPath>
</defs>
</svg>
