<svg width="216" height="187" viewBox="0 0 216 187" fill="none" xmlns="http://www.w3.org/2000/svg">
<path d="M54.1019 66.0243L38.1953 74.6935L64.9756 49.7492L82.2573 41.165L54.1019 66.0243Z" fill="#EAB308"/>
<path opacity="0.3" d="M82.2573 41.165L54.1019 66.0243L38.1953 74.6935L64.9756 49.7492L82.2573 41.165Z" fill="black"/>
<path d="M0 0.832031L38.1927 74.694L49.1657 64.4795L0 0.832031Z" fill="#EAB308"/>
<path d="M129.656 107.379L101.578 123.59L139.785 89.2963L164.488 77.6499L129.656 107.379Z" fill="#EAB308"/>
<path opacity="0.3" d="M164.488 77.6499L129.656 107.379L101.578 123.59L139.785 89.2963L164.488 77.6499Z" fill="black"/>
<path d="M119.88 107.159L101.578 123.59L64.9727 49.7492L82.2544 41.165L119.88 107.159Z" fill="#EAB308"/>
<path d="M204.957 148.556L164.467 77.6499L139.785 89.2679L176.879 164.739L166.388 170.8L207.998 186.501L215.462 142.46L204.957 148.556Z" fill="#EAB308"/>
</svg>
