<svg width="152" height="103" viewBox="0 0 152 103" fill="none" xmlns="http://www.w3.org/2000/svg">
<g clip-path="url(#clip0_5761_86391)">
<rect x="0.578125" width="160.34" height="140.165" rx="10.6186" fill="#BE6AFF"/>
<path d="M99.1453 42.6301C99.1556 38.409 98.0322 34.2625 95.8925 30.6239C93.7529 26.9852 90.6754 23.9878 86.9816 21.9448C83.2877 19.9018 79.1131 18.8882 74.8937 19.0098C70.6743 19.1314 66.5649 20.3837 62.9949 22.636C59.4248 24.8883 56.5251 28.0579 54.5985 31.8138C52.6719 35.5696 51.7892 39.7739 52.0425 43.9875C52.2958 48.201 53.676 52.2692 56.0387 55.7672C58.4014 59.2651 61.6601 62.0645 65.4743 63.8728C65.4743 66.6663 65.4594 69.8255 65.4594 69.8255L86.1195 69.8807C86.1195 69.8807 86.2513 66.543 86.3066 63.5645C90.1644 61.5927 93.4039 58.5955 95.6689 54.9022C97.9339 51.2089 99.1368 46.9626 99.1453 42.6301Z" fill="#FF725E"/>
<g opacity="0.1">
<path d="M99.16 42.6137C99.1783 37.6543 97.625 32.8167 94.7231 28.7949C97.4869 36.712 96.4451 45.8962 91.8977 52.9544C87.0675 60.4505 79.6394 66.0205 69.8047 66.0205C73.4869 68.9395 78.3447 68.4165 83.0346 68.1678C84.0848 68.1125 85.1605 68.0508 86.2022 67.9212C86.2426 66.7008 86.2915 65.0724 86.3192 63.5374C90.1756 61.5666 93.4144 58.5711 95.6796 54.8798C97.9449 51.1886 99.1491 46.9445 99.16 42.6137Z" fill="black"/>
</g>
<g opacity="0.3">
<path d="M68.6443 26.1741C68.3658 25.496 67.6174 25.0006 66.7309 24.7327C65.449 24.366 64.0743 24.5188 62.9042 25.1579C59.4431 26.9778 57.4745 29.176 56.2563 33.0814C55.8417 34.4037 55.6334 36.5892 56.2797 37.8882C56.4334 38.2151 56.653 38.5066 56.9249 38.7444C57.1967 38.9822 57.5149 39.1612 57.8593 39.2701C59.6812 39.8037 61.1311 38.037 61.7009 36.3469C62.2302 34.7715 62.4237 32.9921 63.5462 31.7676C64.471 30.7577 65.8529 30.3283 67.0052 29.5884C68.1574 28.8486 69.163 27.4412 68.6443 26.1741Z" fill="white"/>
</g>
<g opacity="0.3">
<path d="M75.4825 23.2045C74.8 22.0118 73.0759 21.5143 72.0682 21.965C71.6541 22.1638 71.2907 22.4541 71.0053 22.8139C70.7198 23.1737 70.5199 23.5937 70.4205 24.0421C70.3166 24.5856 70.3774 25.1479 70.5952 25.6566C70.813 26.1653 71.1779 26.5974 71.643 26.8973C72.1195 27.1789 72.6728 27.303 73.224 27.2519C73.7753 27.2007 74.2963 26.9769 74.7129 26.6124C75.5207 25.8619 76.0288 24.1633 75.4825 23.2045Z" fill="white"/>
</g>
<path d="M71.1914 83.2754C71.6941 83.6099 72.1471 84.0135 72.5371 84.4744C72.6684 84.6392 72.8353 84.7721 73.0253 84.8631C73.2153 84.954 73.4235 85.0007 73.6341 84.9996H77.7904C78.0202 85.0011 78.2469 84.946 78.4505 84.8392C78.654 84.7325 78.8282 84.5772 78.9576 84.3873C79.2616 83.9366 79.8079 83.4008 80.3798 83.286L71.1914 83.2754Z" fill="#455A64"/>
<path d="M66.707 71.6914C66.707 71.7764 67.6595 78.2819 68.023 80.7544C68.0905 81.2587 68.2825 81.7383 68.5817 82.1499C68.8808 82.5615 69.2777 82.8922 69.7365 83.1121C70.1075 83.2821 70.5105 83.3713 70.9186 83.3736L80.0113 83.3906C80.0113 83.3906 82.3881 83.3906 82.9303 81.5091C83.5021 79.5277 84.5885 71.7297 84.5885 71.7297L66.707 71.6914Z" fill="#263238"/>
<path d="M83.5139 80.6399L67.6734 80.6654C67.5538 80.6654 67.4392 80.618 67.3547 80.5334C67.2701 80.4489 67.2227 80.3343 67.2227 80.2147V80.1658C67.2224 80.1068 67.2338 80.0482 67.2562 79.9935C67.2786 79.9389 67.3116 79.8892 67.3533 79.8473C67.395 79.8054 67.4445 79.7722 67.4991 79.7495C67.5536 79.7268 67.6122 79.7151 67.6712 79.7151L83.5139 79.6875C83.6334 79.6875 83.7481 79.735 83.8326 79.8195C83.9171 79.904 83.9646 80.0187 83.9646 80.1382V80.1871C83.9646 80.3068 83.9172 80.4217 83.8327 80.5065C83.7483 80.5914 83.6336 80.6394 83.5139 80.6399Z" fill="#E0E0E0"/>
<path d="M83.5151 80.6394C83.6302 80.6275 83.7381 80.5774 83.8213 80.497C83.8684 80.4469 83.9037 80.3869 83.9247 80.3215C83.9457 80.256 83.9517 80.1867 83.9424 80.1185C83.9368 80.0265 83.9014 79.9388 83.8416 79.8686C83.7818 79.7984 83.7008 79.7496 83.6108 79.7295C82.7604 79.7167 81.4721 79.7444 79.9095 79.7486L67.6746 79.7911C67.6125 79.7913 67.5514 79.807 67.4968 79.8366C67.4422 79.8663 67.3959 79.9091 67.3621 79.9612C67.3276 80.0125 67.3071 80.0718 67.3025 80.1334C67.2954 80.1969 67.3005 80.2611 67.3174 80.3226C67.335 80.3815 67.3669 80.435 67.4103 80.4785C67.4537 80.5219 67.5073 80.5538 67.5661 80.5714C67.7028 80.5894 67.8409 80.5951 67.9786 80.5884H72.947H78.4468L82.1566 80.6075L83.1643 80.6181H83.4258C83.4554 80.6131 83.4856 80.6131 83.5151 80.6181H83.4258H83.1643L82.1566 80.6351L78.4468 80.6649L72.947 80.6904L69.6985 80.701H67.9786H67.766C67.6859 80.7062 67.6055 80.6983 67.5279 80.6777C67.4453 80.6528 67.3701 80.608 67.3089 80.5472C67.2477 80.4864 67.2024 80.4115 67.1771 80.329C67.1545 80.2482 67.1473 80.1638 67.1558 80.0803C67.1661 79.9483 67.2259 79.8251 67.3234 79.7356C67.4208 79.646 67.5486 79.5967 67.681 79.5977H79.9159C81.4848 79.6083 82.7434 79.5977 83.6321 79.6274C83.7325 79.6527 83.8221 79.7099 83.8872 79.7904C83.9524 79.8709 83.9897 79.9704 83.9935 80.0739C84.0016 80.1473 83.993 80.2215 83.9683 80.2911C83.9437 80.3607 83.9036 80.4238 83.851 80.4757C83.8124 80.528 83.7616 80.5702 83.7031 80.5987C83.6447 80.6272 83.5802 80.6412 83.5151 80.6394Z" fill="#263238"/>
<path d="M83.8537 78.5932L67.3413 78.6209C67.2822 78.6211 67.2237 78.6098 67.169 78.5873C67.1143 78.5649 67.0646 78.5319 67.0228 78.4902C66.9809 78.4486 66.9477 78.399 66.925 78.3444C66.9023 78.2899 66.8906 78.2314 66.8906 78.1723V78.117C66.8904 78.0579 66.9017 77.9994 66.9242 77.9447C66.9466 77.89 66.9796 77.8403 67.0213 77.7984C67.0629 77.7566 67.1125 77.7233 67.1671 77.7007C67.2216 77.678 67.2801 77.6663 67.3392 77.6663L83.8516 77.6387C83.9711 77.6392 84.0857 77.6868 84.1704 77.7712C84.2551 77.8555 84.3033 77.9698 84.3044 78.0894V78.1383C84.305 78.1978 84.2937 78.2569 84.2713 78.3121C84.2489 78.3672 84.2158 78.4174 84.1739 78.4597C84.132 78.502 84.0821 78.5356 84.0272 78.5585C83.9722 78.5814 83.9132 78.5932 83.8537 78.5932Z" fill="#E0E0E0"/>
<path d="M83.8538 78.593C83.9737 78.5833 84.0858 78.5296 84.1684 78.4421C84.2154 78.3883 84.2495 78.3246 84.2683 78.2558C84.2871 78.1869 84.29 78.1147 84.2768 78.0445C84.2645 77.9499 84.2207 77.8621 84.1524 77.7954C84.0841 77.7287 83.9954 77.6869 83.9005 77.6767L80.0525 77.7044L67.3414 77.7469C67.2767 77.7472 67.2131 77.7642 67.1569 77.7962C67.1007 77.8282 67.0536 77.8742 67.0204 77.9297C66.9869 77.9842 66.9686 78.0465 66.9672 78.1104C66.9609 78.1767 66.9696 78.2436 66.9927 78.306C67.0154 78.3657 67.0532 78.4184 67.1024 78.459C67.1516 78.4997 67.2105 78.5268 67.2734 78.5378C67.3967 78.5505 67.5689 78.5378 67.7134 78.5378H72.8753H78.5877L82.4421 78.5548L83.4881 78.5675H83.7602H83.8538C83.8228 78.5725 83.7912 78.5725 83.7602 78.5675H83.4881L82.4421 78.5845L78.5899 78.6143L72.8753 78.6398H69.4992H67.7134C67.5582 78.6398 67.4243 78.6398 67.2457 78.6398C67.1575 78.624 67.0747 78.5858 67.0055 78.5289C66.9362 78.4719 66.8828 78.3981 66.8503 78.3145C66.8201 78.2323 66.8077 78.1446 66.8142 78.0573C66.8175 77.9199 66.8746 77.7892 66.9732 77.6934C67.0717 77.5977 67.2039 77.5443 67.3414 77.5449H80.0504C81.6789 77.5449 82.9906 77.5449 83.9069 77.5662C84.0159 77.5774 84.1176 77.6257 84.1951 77.7032C84.2725 77.7806 84.3209 77.8824 84.3321 77.9914C84.3435 78.0676 84.3376 78.1454 84.3148 78.219C84.292 78.2927 84.2528 78.3602 84.2003 78.4166C84.1632 78.474 84.1117 78.5205 84.0508 78.5515C83.9899 78.5825 83.9219 78.5968 83.8538 78.593Z" fill="#263238"/>
<path d="M84.0701 76.548L67.1304 76.5777C67.0712 76.5777 67.0126 76.5661 66.9579 76.5434C66.9032 76.5208 66.8535 76.4876 66.8117 76.4457C66.7698 76.4039 66.7366 76.3542 66.714 76.2995C66.6913 76.2448 66.6797 76.1862 66.6797 76.127V76.0781C66.6797 75.9588 66.7268 75.8442 66.8108 75.7594C66.8948 75.6746 67.0089 75.6264 67.1283 75.6253L84.0701 75.5977C84.1896 75.5977 84.3042 75.6451 84.3888 75.7297C84.4733 75.8142 84.5208 75.9288 84.5208 76.0484V76.0973C84.5211 76.1565 84.5096 76.2153 84.487 76.2701C84.4645 76.3249 84.4313 76.3747 84.3894 76.4166C84.3475 76.4585 84.2977 76.4917 84.2429 76.5142C84.1881 76.5368 84.1293 76.5482 84.0701 76.548Z" fill="#E0E0E0"/>
<path d="M84.0732 76.5486C84.1407 76.5448 84.2065 76.5263 84.266 76.4943C84.3256 76.4624 84.3774 76.4178 84.4179 76.3638C84.4584 76.3097 84.4866 76.2474 84.5005 76.1813C84.5144 76.1152 84.5137 76.0468 84.4984 75.981C84.4814 75.8848 84.4317 75.7973 84.3577 75.7334C84.2838 75.6696 84.1901 75.6331 84.0924 75.6302L80.1487 75.66L67.1357 75.7046C67.0864 75.7046 67.0375 75.7144 66.992 75.7333C66.9465 75.7522 66.9051 75.78 66.8703 75.815C66.8356 75.8499 66.8081 75.8914 66.7894 75.9371C66.7707 75.9827 66.7612 76.0316 66.7615 76.0809C66.7559 76.1491 66.7668 76.2177 66.7934 76.2807C66.8212 76.3391 66.8636 76.3894 66.9165 76.4266C66.9694 76.4639 67.0309 76.4868 67.0953 76.4933C67.2335 76.4933 67.4014 76.4933 67.5524 76.4933H72.8354H78.686L82.6297 76.5104L83.7033 76.5231H83.9818C84.0129 76.5202 84.0442 76.5202 84.0754 76.5231C84.0444 76.5281 84.0128 76.5281 83.9818 76.5231H83.7033L82.6297 76.538L78.686 76.5699L72.8354 76.5954H69.3807H67.5524C67.395 76.5954 67.2505 76.5954 67.0783 76.5954C66.9866 76.5856 66.8992 76.5521 66.8246 76.498C66.75 76.4439 66.6908 76.3712 66.6531 76.2871C66.6175 76.2048 66.6015 76.1152 66.6063 76.0256C66.6058 75.956 66.619 75.887 66.6452 75.8226C66.6715 75.7581 66.7102 75.6995 66.7592 75.6501C66.8082 75.6007 66.8666 75.5614 66.9308 75.5347C66.995 75.5079 67.064 75.4941 67.1336 75.4941H80.1572L84.103 75.5133C84.213 75.518 84.318 75.5609 84.3999 75.6346C84.4817 75.7083 84.5354 75.8082 84.5516 75.9172C84.5734 76.0057 84.5718 76.0983 84.5468 76.1859C84.5218 76.2736 84.4743 76.3532 84.4091 76.4168C84.3673 76.4634 84.3151 76.4997 84.2568 76.5225C84.1985 76.5454 84.1356 76.5544 84.0732 76.5486Z" fill="#263238"/>
<path d="M84.4194 74.5034L66.7909 74.5332C66.731 74.5337 66.6716 74.5223 66.6161 74.4997C66.5607 74.477 66.5103 74.4435 66.4679 74.4012C66.4256 74.3588 66.3921 74.3084 66.3694 74.253C66.3468 74.1975 66.3354 74.1381 66.336 74.0782V74.0293C66.336 73.9098 66.3834 73.7951 66.468 73.7106C66.5525 73.6261 66.6671 73.5786 66.7867 73.5786L84.413 73.5488C84.5326 73.5488 84.6472 73.5963 84.7317 73.6808C84.8162 73.7654 84.8637 73.88 84.8637 73.9995V74.0484C84.8646 74.1075 84.8537 74.1662 84.8318 74.2211C84.8099 74.276 84.7774 74.326 84.7361 74.3682C84.6948 74.4105 84.6456 74.4442 84.5912 74.4674C84.5369 74.4906 84.4785 74.5028 84.4194 74.5034Z" fill="#E0E0E0"/>
<path d="M84.4222 74.5021C84.4919 74.4981 84.5599 74.4783 84.6208 74.4442C84.6818 74.4101 84.7342 74.3625 84.7741 74.3052C84.814 74.2479 84.8404 74.1823 84.8513 74.1133C84.8621 74.0442 84.8572 73.9737 84.8368 73.9069C84.8131 73.8072 84.7543 73.7194 84.6711 73.6597C84.5879 73.5999 84.4859 73.5722 84.3839 73.5816L80.2936 73.6135L66.7937 73.6581C66.7243 73.6597 66.6566 73.6804 66.5981 73.7179C66.5396 73.7554 66.4925 73.8083 66.4621 73.8707C66.4321 73.9331 66.4165 74.0014 66.4165 74.0706C66.4165 74.1398 66.4321 74.2081 66.4621 74.2704C66.4943 74.3302 66.5422 74.38 66.6006 74.4144C66.6591 74.4489 66.7259 74.4667 66.7937 74.466H72.7571H78.8267L82.917 74.483L84.0289 74.4958H84.3202H84.418C84.3855 74.4993 84.3527 74.4993 84.3202 74.4958H84.0289L82.917 74.5106L78.8267 74.5425L72.7571 74.5702H69.1727H67.2763H66.7937C66.6984 74.5702 66.6048 74.5448 66.5226 74.4966C66.4404 74.4484 66.3725 74.3791 66.326 74.2959C66.2822 74.212 66.2603 74.1184 66.2622 74.0238C66.2581 73.9295 66.2786 73.8357 66.3218 73.7517C66.3662 73.6659 66.4332 73.594 66.5157 73.5437C66.5982 73.4935 66.6929 73.4669 66.7895 73.4668H80.2893L84.3797 73.4838C84.4935 73.477 84.6061 73.5109 84.6972 73.5794C84.7884 73.648 84.8521 73.7467 84.8772 73.858C84.8965 73.9375 84.8969 74.0204 84.8784 74.1002C84.86 74.1799 84.8231 74.2542 84.7709 74.3172C84.705 74.3918 84.6158 74.442 84.5179 74.4596C84.4893 74.4803 84.4567 74.4947 84.4222 74.5021Z" fill="#263238"/>
<path d="M64.4219 66.0801C64.4219 66.248 64.7897 70.2257 64.9789 72.2688C65.0132 72.6385 65.1309 72.9957 65.3231 73.3135C65.5153 73.6313 65.777 73.9014 66.0886 74.1035L67.0155 74.7051L84.5973 74.7391L85.5136 74.1481C85.8293 73.9447 86.0942 73.6716 86.2881 73.3499C86.4819 73.0282 86.5995 72.6663 86.6318 72.2921L87.1654 66.1268L64.4219 66.0801Z" fill="#FF725E"/>
<g opacity="0.3">
<path d="M68.2617 80.625C69.9625 81.0119 71.642 81.0502 73.5022 81.0502C75.0031 81.0502 76.4786 81.0906 78.1028 81.0608C79.2976 81.0374 80.3967 80.98 81.5873 80.9311C82.1889 80.9056 82.8501 80.7547 82.9713 80.6335L68.2617 80.625Z" fill="black"/>
</g>
<g opacity="0.3">
<path d="M67.6367 78.5742C69.4608 78.9611 71.2806 78.9994 73.2854 78.9994C74.9033 78.9994 76.4892 79.0398 78.2474 78.9994C79.523 78.9782 80.7178 78.9207 82.0019 78.8719C82.6503 78.8463 83.3625 78.6954 83.49 78.5742H67.6367Z" fill="black"/>
</g>
<g opacity="0.3">
<path d="M67.6445 76.541C69.4686 76.9279 71.2884 76.9662 73.2932 76.9662C74.9111 76.9662 76.497 77.0066 78.2531 76.9662C79.5414 76.9449 80.7256 76.8875 82.0075 76.8386C82.6581 76.8131 83.3703 76.6622 83.4957 76.541H67.6445Z" fill="black"/>
</g>
<g opacity="0.3">
<path d="M67.6445 74.502C69.4707 74.8889 71.2906 74.9271 73.2932 74.9271C74.9132 74.9271 76.4992 74.9675 78.2552 74.9271C79.5414 74.9059 80.7277 74.8485 82.0097 74.7996C82.6602 74.7741 83.3724 74.6231 83.4978 74.502H67.6445Z" fill="black"/>
</g>
<g opacity="0.3">
<path d="M64.4258 66.0781C64.4258 66.2461 64.7936 70.2238 64.9828 72.2668C65.0171 72.6366 65.1348 72.9938 65.327 73.3116C65.5192 73.6293 65.781 73.8994 66.0925 74.1015L67.0195 74.7032L84.6012 74.7372L85.5175 74.1462C85.8332 73.9427 86.0981 73.6697 86.292 73.3479C86.4858 73.0262 86.6034 72.6644 86.6357 72.2902L87.1693 66.1249L64.4258 66.0781Z" fill="black"/>
</g>
<path d="M86.2059 73.1371C86.2059 73.1797 81.5032 73.2073 75.7036 73.1945C69.904 73.1818 65.1992 73.1414 65.1992 73.0989C65.1992 73.0564 69.9019 73.0308 75.7036 73.0415C81.5054 73.0521 86.2059 73.0967 86.2059 73.1371Z" fill="#263238"/>
<path d="M87.0463 65.998C87.0463 66.0447 81.944 66.0936 75.6426 66.1064C69.3413 66.1192 64.2326 66.0915 64.2305 66.0447C64.2283 65.998 69.3328 65.9491 75.6363 65.9363C81.9397 65.9236 87.0463 65.9576 87.0463 65.998Z" fill="#263238"/>
<path d="M63.2196 60.5301C63.2196 60.5301 63.1984 60.5301 63.1601 60.4919L62.9921 60.3707C62.8476 60.2601 62.6265 60.1071 62.3543 59.886C61.5936 59.2737 60.8762 58.6095 60.2071 57.8982C59.7819 57.4496 59.3397 56.9351 58.8848 56.3654C58.4079 55.7548 57.9623 55.1204 57.5497 54.4648C55.6414 51.4503 54.5026 48.0133 54.2332 44.4557C54.163 43.6394 54.1588 42.8613 54.1673 42.1342C54.1758 41.4071 54.2374 40.7289 54.314 40.1145C54.4276 39.1443 54.6087 38.1831 54.8561 37.2381C54.9369 36.9022 55.024 36.6471 55.0687 36.4727L55.1303 36.275C55.1452 36.2304 55.1537 36.207 55.1537 36.2091C55.1523 36.2322 55.148 36.2551 55.141 36.2771L55.0899 36.4897C55.0474 36.6662 54.9666 36.9149 54.8943 37.2593C54.6664 38.2065 54.4995 39.1673 54.3947 40.1358C54.3246 40.748 54.2842 41.4113 54.2651 42.1469C54.2459 42.8825 54.2651 43.6457 54.3373 44.4579C54.6198 47.997 55.7532 51.4154 57.6411 54.4222C58.0663 55.1153 58.5255 55.7425 58.9613 56.3207C59.3971 56.899 59.8457 57.405 60.2688 57.8535C60.9336 58.5681 61.6437 59.2392 62.3947 59.8626C62.6541 60.0901 62.8731 60.2474 63.0113 60.3643L63.1728 60.494L63.2196 60.5301Z" fill="#263238"/>
<path d="M76.3429 55.0608C73.9882 55.0608 71.6864 54.3626 69.7286 53.0544C67.7708 51.7462 66.2448 49.8868 65.3437 47.7114C64.4427 45.536 64.2069 43.1422 64.6663 40.8328C65.1256 38.5234 66.2595 36.402 67.9245 34.737C69.5895 33.072 71.7109 31.9381 74.0203 31.4788C76.3297 31.0194 78.7235 31.2552 80.8989 32.1562C83.0743 33.0573 84.9337 34.5833 86.2419 36.5411C87.5501 38.4989 88.2483 40.8007 88.2483 43.1554C88.2483 46.3129 86.994 49.3411 84.7613 51.5738C82.5286 53.8065 79.5004 55.0608 76.3429 55.0608ZM76.3429 33.6694C74.4655 33.6694 72.6302 34.2261 71.0692 35.2691C69.5082 36.3122 68.2915 37.7947 67.573 39.5292C66.8546 41.2637 66.6666 43.1723 67.0329 45.0137C67.3991 46.855 68.3032 48.5464 69.6307 49.8739C70.9583 51.2015 72.6497 52.1055 74.491 52.4718C76.3324 52.8381 78.241 52.6501 79.9755 51.9316C81.71 51.2132 83.1925 49.9965 84.2356 48.4355C85.2786 46.8745 85.8353 45.0392 85.8353 43.1618C85.8325 40.6451 84.8315 38.2323 83.052 36.4527C81.2724 34.6732 78.8596 33.6722 76.3429 33.6694Z" fill="#FF725E"/>
<path d="M73.1865 48.3769C72.1676 47.8648 71.3126 47.0775 70.7183 46.1042C70.1378 45.103 69.832 43.9663 69.832 42.809C69.832 41.6517 70.1378 40.5149 70.7183 39.5137C71.3131 38.5403 72.1679 37.7525 73.1865 37.2389C74.2912 36.6787 75.5154 36.3949 76.7539 36.4119C77.9477 36.3848 79.1283 36.6668 80.181 37.2304C81.1308 37.7508 81.8792 38.574 82.3069 39.569L79.5177 41.0742C78.8714 39.9403 77.9409 39.3734 76.7263 39.3734C76.2939 39.3592 75.8633 39.434 75.461 39.5931C75.0587 39.7522 74.6934 39.9922 74.3877 40.2982C73.774 40.9133 73.4665 41.7517 73.465 42.8132C73.4636 43.8748 73.7712 44.7131 74.3877 45.3282C74.6935 45.634 75.0589 45.8737 75.4612 46.0324C75.8635 46.1911 76.2941 46.2655 76.7263 46.2509C77.9551 46.2509 78.8855 45.684 79.5177 44.5501L82.309 46.0744C81.87 47.054 81.1237 47.8638 80.1831 48.3811C79.132 48.9514 77.9493 49.2351 76.7539 49.2039C75.5153 49.2217 74.291 48.9379 73.1865 48.3769Z" fill="#FF725E"/>
<g opacity="0.5">
<path d="M76.3429 55.0608C73.9882 55.0608 71.6864 54.3626 69.7286 53.0544C67.7708 51.7462 66.2448 49.8868 65.3437 47.7114C64.4427 45.536 64.2069 43.1422 64.6663 40.8328C65.1256 38.5234 66.2595 36.402 67.9245 34.737C69.5895 33.072 71.7109 31.9381 74.0203 31.4788C76.3297 31.0194 78.7235 31.2552 80.8989 32.1562C83.0743 33.0573 84.9337 34.5833 86.2419 36.5411C87.5501 38.4989 88.2483 40.8007 88.2483 43.1554C88.2483 46.3129 86.994 49.3411 84.7613 51.5738C82.5286 53.8065 79.5004 55.0608 76.3429 55.0608ZM76.3429 33.6694C74.4655 33.6694 72.6302 34.2261 71.0692 35.2691C69.5082 36.3122 68.2915 37.7947 67.573 39.5292C66.8546 41.2637 66.6666 43.1723 67.0329 45.0137C67.3991 46.855 68.3032 48.5464 69.6307 49.8739C70.9583 51.2015 72.6497 52.1055 74.491 52.4718C76.3324 52.8381 78.241 52.6501 79.9755 51.9316C81.71 51.2132 83.1925 49.9965 84.2356 48.4355C85.2786 46.8745 85.8353 45.0392 85.8353 43.1618C85.8325 40.6451 84.8315 38.2323 83.052 36.4527C81.2724 34.6732 78.8596 33.6722 76.3429 33.6694Z" fill="black"/>
<path d="M73.1826 48.3769C72.1637 47.8648 71.3087 47.0775 70.7144 46.1042C70.1339 45.103 69.8281 43.9663 69.8281 42.809C69.8281 41.6517 70.1339 40.5149 70.7144 39.5137C71.3092 38.5403 72.164 37.7525 73.1826 37.2389C74.2873 36.6787 75.5115 36.3949 76.75 36.4119C77.9438 36.3848 79.1243 36.6668 80.177 37.2304C81.1269 37.7508 81.8752 38.574 82.303 39.569L79.5137 41.0742C78.8675 39.9403 77.937 39.3734 76.7224 39.3734C76.29 39.3592 75.8594 39.434 75.4571 39.5931C75.0548 39.7522 74.6895 39.9922 74.3838 40.2982C73.7701 40.9133 73.4625 41.7517 73.4611 42.8132C73.4597 43.8748 73.7673 44.7131 74.3838 45.3282C74.6896 45.634 75.055 45.8737 75.4573 46.0324C75.8596 46.1911 76.2901 46.2655 76.7224 46.2509C77.9512 46.2509 78.8816 45.684 79.5137 44.5501L82.3051 46.0744C81.8661 47.054 81.1198 47.8638 80.1792 48.3811C79.128 48.9514 77.9454 49.2351 76.75 49.2039C75.5114 49.2217 74.287 48.9379 73.1826 48.3769Z" fill="black"/>
</g>
</g>
<defs>
<clipPath id="clip0_5761_86391">
<rect x="0.578125" width="150.784" height="103" rx="8.49485" fill="white"/>
</clipPath>
</defs>
</svg>
