<svg width="74" height="68" viewBox="0 0 74 68" fill="none" xmlns="http://www.w3.org/2000/svg">
<g filter="url(#filter0_d_4906_81627)">
<rect x="13" y="7.82617" width="48.3454" height="42.3454" rx="9.73913" fill="white" shape-rendering="crispEdges"/>
<path d="M37.1738 19.6885C32.0344 19.6885 27.8633 23.8596 27.8633 28.999C27.8633 34.1385 32.0344 38.3096 37.1738 38.3096C42.3133 38.3096 46.4844 34.1385 46.4844 28.999C46.4844 23.8596 42.3133 19.6885 37.1738 19.6885ZM37.1738 36.4475C33.0679 36.4475 29.7254 33.105 29.7254 28.999C29.7254 24.8931 33.0679 21.5506 37.1738 21.5506C41.2798 21.5506 44.6223 24.8931 44.6223 28.999C44.6223 33.105 41.2798 36.4475 37.1738 36.4475ZM32.053 34.1199L39.0453 30.8705L42.2947 23.8782L35.3024 27.1276L32.053 34.1199ZM37.1738 27.9749C37.7418 27.9749 38.198 28.4311 38.198 28.999C38.198 29.567 37.7418 30.0232 37.1738 30.0232C36.6059 30.0232 36.1497 29.567 36.1497 28.999C36.1497 28.4311 36.6059 27.9749 37.1738 27.9749Z" fill="#3D0072"/>
</g>
<defs>
<filter id="filter0_d_4906_81627" x="0.826086" y="0.521823" width="72.6935" height="66.6935" filterUnits="userSpaceOnUse" color-interpolation-filters="sRGB">
<feFlood flood-opacity="0" result="BackgroundImageFix"/>
<feColorMatrix in="SourceAlpha" type="matrix" values="0 0 0 0 0 0 0 0 0 0 0 0 0 0 0 0 0 0 127 0" result="hardAlpha"/>
<feOffset dy="4.86957"/>
<feGaussianBlur stdDeviation="6.08696"/>
<feComposite in2="hardAlpha" operator="out"/>
<feColorMatrix type="matrix" values="0 0 0 0 0.533333 0 0 0 0 0.027451 0 0 0 0 0.968627 0 0 0 0.07 0"/>
<feBlend mode="normal" in2="BackgroundImageFix" result="effect1_dropShadow_4906_81627"/>
<feBlend mode="normal" in="SourceGraphic" in2="effect1_dropShadow_4906_81627" result="shape"/>
</filter>
</defs>
</svg>
