<svg width="222" height="214" viewBox="0 0 222 214" fill="none" xmlns="http://www.w3.org/2000/svg">
<path d="M192.632 35.377L163.742 52.0624L192.64 68.7398L221.538 52.0624L192.632 35.377Z" fill="#BA68C8"/>
<path opacity="0.3" d="M192.632 35.377L163.742 52.0624L192.64 68.7398L221.538 52.0624L192.632 35.377Z" fill="black"/>
<path d="M221.539 52.0059V148.466L192.641 165.144V68.7476L221.539 52.0059Z" fill="#BA68C8"/>
<path opacity="0.4" d="M221.539 52.0059V148.466L192.641 165.144V68.7476L221.539 52.0059Z" fill="black"/>
<path d="M192.64 68.7494V165.145L163.742 148.46V52.064L192.64 68.7494Z" fill="#BA68C8"/>
<path opacity="0.55" d="M192.64 68.7494V165.145L163.742 148.46V52.064L192.64 68.7494Z" fill="black"/>
<path d="M138.054 118.796L109.164 135.474L138.062 152.159L166.952 135.482L138.054 118.796Z" fill="#BA68C8"/>
<path opacity="0.3" d="M138.054 118.796L109.164 135.474L138.062 152.159L166.952 135.482L138.054 118.796Z" fill="white"/>
<path d="M166.96 135.483V179.972L138.062 196.658V152.16L166.96 135.483Z" fill="#BA68C8"/>
<path d="M138.062 152.16V196.657L109.164 179.972V135.475L138.062 152.16Z" fill="#BA68C8"/>
<path opacity="0.1" d="M138.062 152.16V196.657L109.164 179.972V135.475L138.062 152.16Z" fill="black"/>
<path d="M83.4721 94.7017L54.5742 111.387L83.4721 128.065L112.362 111.379L83.4721 94.7017Z" fill="#BA68C8"/>
<path opacity="0.7" d="M83.4721 94.7017L54.5742 111.387L83.4721 128.065L112.362 111.379L83.4721 94.7017Z" fill="white"/>
<path d="M112.371 111.385V211.522L83.4727 228.175V128.063L112.371 111.385Z" fill="#BA68C8"/>
<path opacity="0.6" d="M112.371 111.385V211.522L83.4727 228.175V128.063L112.371 111.385Z" fill="white"/>
<path d="M83.4721 128.063V228.175L54.5742 211.49V111.385L83.4721 128.063Z" fill="#BA68C8"/>
<path opacity="0.4" d="M83.4721 128.063V228.175L54.5742 211.49V111.385L83.4721 128.063Z" fill="white"/>
<path d="M28.8898 148.451L0 165.145L28.8979 181.83L57.7877 165.153L28.8898 148.451Z" fill="#455A64"/>
<path d="M57.8005 165.089V242.997L28.9026 259.683L28.8945 181.839L57.8005 165.089Z" fill="#37474F"/>
<path d="M28.8898 181.839L28.8979 259.683L0 242.998V165.089L28.8898 181.839Z" fill="#263238"/>
<path d="M195.853 18.6983V26.1078L185.764 20.2751C185.265 19.9502 184.85 19.512 184.552 18.9961C184.254 18.4802 184.082 17.9013 184.051 17.3065V11.4094L195.853 18.6983Z" fill="#B16668"/>
<path d="M218.075 30.0437V36.9624C218.075 38.0566 217.311 38.499 216.361 37.952L205.484 31.6768V24.2593L218.075 30.0437Z" fill="#B16668"/>
<path d="M88.5625 85.6186L89.898 83.5752L142.995 132.288L145.465 131.934L145.425 131.998C145.168 132.432 144.751 132.749 144.264 132.879C143.777 133.01 143.258 132.945 142.818 132.698L135.787 128.676C135.156 128.307 134.565 127.873 134.025 127.381L88.5625 85.6186Z" fill="#B16668"/>
<path d="M195.852 18.6987L205.49 24.2579L144.484 126.213L136.117 118.538L195.852 18.6987Z" fill="#FFA8A7"/>
<path d="M205.486 24.2593V31.6688L145.494 131.934C145.381 132.151 145.219 132.337 145.02 132.478C144.821 132.618 144.591 132.71 144.35 132.744C144.109 132.779 143.863 132.756 143.632 132.676C143.402 132.597 143.193 132.464 143.024 132.288L91.3266 84.911C91.1529 84.7354 90.9411 84.6022 90.7076 84.5216C90.4741 84.4411 90.2252 84.4153 89.9801 84.4465C89.7351 84.4776 89.5005 84.5647 89.2945 84.7011C89.0885 84.8374 88.9168 85.0194 88.7924 85.2328L41.7127 157.172L36.3708 165.33C36.1169 165.712 35.7391 165.997 35.3008 166.134V158.725L36.3869 157.92L41.7207 149.762L88.8085 77.8072C88.9335 77.5944 89.1059 77.4131 89.3122 77.2775C89.5185 77.1419 89.7532 77.0556 89.9982 77.0253C90.2432 76.995 90.4919 77.0214 90.7251 77.1026C90.9582 77.1838 91.1696 77.3175 91.3427 77.4935L143.016 124.871C143.186 125.045 143.394 125.176 143.625 125.255C143.855 125.333 144.1 125.356 144.341 125.321C144.582 125.287 144.811 125.196 145.01 125.056C145.209 124.916 145.372 124.732 145.486 124.517L205.486 24.2593Z" fill="#F28F8F"/>
<path d="M35.3147 158.757V166.167C35.0355 166.264 34.7386 166.3 34.4443 166.272C34.1501 166.244 33.8652 166.153 33.6091 166.006L28.1626 162.868H28.1143C27.6306 162.539 27.2293 162.103 26.9419 161.594C26.6544 161.084 26.4885 160.516 26.457 159.932V153.616L35.3147 158.757Z" fill="#B16668"/>
<path d="M36.3989 157.929L88.8206 77.8161C89.052 77.4623 89.4088 77.2092 89.8193 77.1078C90.2297 77.0063 90.6633 77.0639 91.033 77.2691L81.9501 71.6375C81.4998 71.3598 80.9591 71.2683 80.4424 71.3824C79.9258 71.4965 79.474 71.8073 79.1826 72.249L26.769 152.37C26.6275 152.581 26.5313 152.82 26.4862 153.071C26.4412 153.321 26.4483 153.578 26.5072 153.826C26.5661 154.074 26.6755 154.307 26.8285 154.51C26.9815 154.714 27.1749 154.883 27.3965 155.009L33.6073 158.597C34.0713 158.857 34.6163 158.932 35.1337 158.809C35.651 158.685 36.1027 158.371 36.3989 157.929Z" fill="#FFA8A7"/>
<path d="M184.722 12.2718L216.613 30.6869C217.562 31.234 218.222 30.7995 218.053 29.7135L214.127 1.38678C214.109 1.14519 214.033 0.911514 213.905 0.705835C213.777 0.500156 213.601 0.328624 213.392 0.205974C213.183 0.0833235 212.948 0.0132217 212.706 0.00169509C212.464 -0.00983151 212.223 0.0375606 212.003 0.139798L184.843 10.5984C183.845 10.9685 183.773 11.7247 184.722 12.2718Z" fill="#FFA8A7"/>
</svg>
