<svg width="1440" height="1422" viewBox="0 0 1440 1422" fill="none" xmlns="http://www.w3.org/2000/svg">
<rect y="1" width="1440" height="1502" fill="#1B0132"/>
<rect x="100" width="0.5" height="764" fill="url(#paint0_linear_9283_110087)"/>
<rect x="70.5" y="1504" width="0.5" height="764" transform="rotate(-180 70.5 1504)" fill="url(#paint1_linear_9283_110087)"/>
<rect x="684" y="-30" width="0.5" height="764" fill="url(#paint2_linear_9283_110087)"/>
<rect x="313.5" y="734" width="0.5" height="764" transform="rotate(-180 313.5 734)" fill="url(#paint3_linear_9283_110087)"/>
<rect x="11.25" y="383.25" width="0.5" height="1400" transform="rotate(-90 11.25 383.25)" fill="url(#paint4_linear_9283_110087)"/>
<rect x="1361.25" y="732.75" width="0.5" height="1400" transform="rotate(90 1361.25 732.75)" fill="url(#paint5_linear_9283_110087)"/>
<rect x="1361.25" y="1012.75" width="0.5" height="1400" transform="rotate(90 1361.25 1012.75)" fill="url(#paint6_linear_9283_110087)"/>
<rect x="131.25" y="1163.25" width="0.5" height="1400" transform="rotate(-90 131.25 1163.25)" fill="url(#paint7_linear_9283_110087)"/>
<rect x="1661.25" y="654" width="0.5" height="1400" transform="rotate(90 1661.25 654)" fill="url(#paint8_linear_9283_110087)"/>
<rect x="1411.25" y="110" width="0.5" height="1400" transform="rotate(90 1411.25 110)" fill="url(#paint9_linear_9283_110087)"/>
<rect x="1074.5" y="734" width="0.5" height="764" transform="rotate(-180 1074.5 734)" fill="url(#paint10_linear_9283_110087)"/>
<rect x="1374.5" y="1114" width="0.5" height="764" transform="rotate(-180 1374.5 1114)" fill="url(#paint11_linear_9283_110087)"/>
<defs>
<linearGradient id="paint0_linear_9283_110087" x1="100.25" y1="0" x2="100.25" y2="764" gradientUnits="userSpaceOnUse">
<stop stop-color="#1B0132"/>
<stop offset="1" stop-color="#7D00EC" stop-opacity="0.77"/>
</linearGradient>
<linearGradient id="paint1_linear_9283_110087" x1="70.75" y1="1504" x2="70.75" y2="2268" gradientUnits="userSpaceOnUse">
<stop stop-color="#1B0132"/>
<stop offset="1" stop-color="#7D00EC" stop-opacity="0.77"/>
</linearGradient>
<linearGradient id="paint2_linear_9283_110087" x1="684.25" y1="-30" x2="684.25" y2="734" gradientUnits="userSpaceOnUse">
<stop stop-color="#1B0132"/>
<stop offset="1" stop-color="#7D00EC" stop-opacity="0.77"/>
</linearGradient>
<linearGradient id="paint3_linear_9283_110087" x1="313.75" y1="734" x2="313.75" y2="1498" gradientUnits="userSpaceOnUse">
<stop stop-color="#1B0132"/>
<stop offset="1" stop-color="#7D00EC" stop-opacity="0.77"/>
</linearGradient>
<linearGradient id="paint4_linear_9283_110087" x1="11.5" y1="383.25" x2="11.5" y2="1783.25" gradientUnits="userSpaceOnUse">
<stop stop-color="#1B0132"/>
<stop offset="1" stop-color="#C482FF" stop-opacity="0.77"/>
</linearGradient>
<linearGradient id="paint5_linear_9283_110087" x1="1361.5" y1="732.75" x2="1361.5" y2="2132.75" gradientUnits="userSpaceOnUse">
<stop stop-color="#1B0132"/>
<stop offset="1" stop-color="#C482FF" stop-opacity="0.77"/>
</linearGradient>
<linearGradient id="paint6_linear_9283_110087" x1="1361.5" y1="1012.75" x2="1361.5" y2="2412.75" gradientUnits="userSpaceOnUse">
<stop stop-color="#1B0132"/>
<stop offset="1" stop-color="#C482FF" stop-opacity="0.77"/>
</linearGradient>
<linearGradient id="paint7_linear_9283_110087" x1="131.5" y1="1163.25" x2="131.5" y2="2563.25" gradientUnits="userSpaceOnUse">
<stop stop-color="#1B0132"/>
<stop offset="1" stop-color="#C482FF" stop-opacity="0.77"/>
</linearGradient>
<linearGradient id="paint8_linear_9283_110087" x1="1661.5" y1="654" x2="1661.5" y2="2054" gradientUnits="userSpaceOnUse">
<stop stop-color="#1B0132"/>
<stop offset="1" stop-color="#C482FF" stop-opacity="0.77"/>
</linearGradient>
<linearGradient id="paint9_linear_9283_110087" x1="1411.5" y1="110" x2="1411.5" y2="1510" gradientUnits="userSpaceOnUse">
<stop stop-color="#1B0132"/>
<stop offset="1" stop-color="#7D00EC" stop-opacity="0.77"/>
</linearGradient>
<linearGradient id="paint10_linear_9283_110087" x1="1074.75" y1="734" x2="1074.75" y2="1498" gradientUnits="userSpaceOnUse">
<stop stop-color="#1B0132"/>
<stop offset="1" stop-color="#7D00EC" stop-opacity="0.77"/>
</linearGradient>
<linearGradient id="paint11_linear_9283_110087" x1="1374.75" y1="1114" x2="1374.75" y2="1878" gradientUnits="userSpaceOnUse">
<stop stop-color="#1B0132"/>
<stop offset="1" stop-color="#7D00EC" stop-opacity="0.77"/>
</linearGradient>
</defs>
</svg>
