<svg width="724" height="723" viewBox="0 0 724 723" fill="none" xmlns="http://www.w3.org/2000/svg">
<rect width="724" height="723" fill="#FDB600"/>
<path d="M-36.9456 5.60766C-83.1314 69.9328 -104.284 148.889 -96.441 227.688C-88.5983 306.487 -52.2986 379.725 5.6598 433.685C63.6182 487.645 139.26 518.626 218.418 520.826C297.576 523.025 374.821 496.292 435.686 445.634C496.552 394.976 536.862 323.867 549.069 245.624C561.275 167.382 544.54 87.3735 501.997 20.5829C459.455 -46.2077 394.023 -95.1989 317.956 -117.215C241.89 -139.232 160.406 -132.764 88.7655 -99.0219L155.895 43.5065C192.86 26.0961 234.905 22.7585 274.154 34.1188C313.404 45.4791 347.166 70.758 369.117 105.221C391.069 139.684 399.704 180.968 393.406 221.34C387.107 261.712 366.308 298.404 334.902 324.543C303.496 350.682 263.638 364.476 222.794 363.341C181.949 362.206 142.919 346.22 113.013 318.377C83.1072 290.535 64.3769 252.745 60.3302 212.085C56.2835 171.426 67.1978 130.685 91.0291 97.4941L-36.9456 5.60766Z" fill="white" fill-opacity="0.11"/>
</svg>
