<svg width="724" height="723" viewBox="0 0 724 723" fill="none" xmlns="http://www.w3.org/2000/svg">
<rect width="724" height="723" fill="#FBBF24"/>
<path d="M-36.9456 5.60863C-83.1314 69.9338 -104.284 148.89 -96.441 227.689C-88.5983 306.488 -52.2986 379.726 5.6598 433.686C63.6182 487.646 139.26 518.627 218.418 520.827C297.576 523.026 374.821 496.293 435.686 445.635C496.552 394.977 536.862 323.868 549.069 245.625C561.275 167.383 544.54 87.3744 501.997 20.5839C459.455 -46.2067 394.023 -95.1979 317.956 -117.214C241.89 -139.231 160.406 -132.763 88.7655 -99.0209L155.895 43.5075C192.86 26.0971 234.905 22.7595 274.154 34.1198C313.404 45.4801 347.166 70.759 369.117 105.222C391.069 139.685 399.704 180.969 393.406 221.341C387.107 261.713 366.308 298.405 334.902 324.544C303.496 350.683 263.638 364.477 222.794 363.342C181.949 362.207 142.919 346.221 113.013 318.378C83.1072 290.536 64.3769 252.746 60.3302 212.086C56.2835 171.426 67.1978 130.686 91.0291 97.4951L-36.9456 5.60863Z" fill="#F9B810"/>
</svg>
