<svg width="1440" height="5775" viewBox="0 0 1440 5775" fill="none" xmlns="http://www.w3.org/2000/svg">
<rect width="1450" height="2337" fill="#F5F5F5"/>
<g opacity="0.2">
<path fill-rule="evenodd" clip-rule="evenodd" d="M143.181 411.799C145.491 425.255 158.271 434.291 171.727 431.981C185.184 429.671 194.219 416.89 191.909 403.434C189.599 389.978 176.818 380.942 163.362 383.252C149.906 385.562 140.871 398.343 143.181 411.799ZM154.296 409.481C155.507 416.54 162.212 421.28 169.271 420.068C176.33 418.856 181.07 412.152 179.858 405.093C178.646 398.034 171.942 393.294 164.883 394.506C157.824 395.717 153.084 402.422 154.296 409.481Z" fill="#9CA3AF"/>
<path fill-rule="evenodd" clip-rule="evenodd" d="M198.276 424.708C199.275 430.526 204.802 434.434 210.621 433.435C216.439 432.436 220.347 426.909 219.348 421.09C218.349 415.271 212.822 411.364 207.003 412.363C201.184 413.362 197.277 418.889 198.276 424.708ZM203.082 423.704C203.606 426.756 206.506 428.806 209.558 428.282C212.611 427.758 214.66 424.858 214.136 421.806C213.612 418.753 210.713 416.704 207.66 417.228C204.608 417.752 202.558 420.651 203.082 423.704Z" fill="#9CA3AF"/>
</g>
<g opacity="0.2">
<path fill-rule="evenodd" clip-rule="evenodd" d="M297.486 767.959C307.696 767.959 315.972 759.682 315.972 749.473C315.972 739.263 307.696 730.987 297.486 730.987C287.276 730.987 279 739.263 279 749.473C279 759.682 287.276 767.959 297.486 767.959ZM297.182 759.473C302.538 759.473 306.88 755.131 306.88 749.775C306.88 744.42 302.538 740.078 297.182 740.078C291.826 740.078 287.484 744.42 287.484 749.775C287.484 755.131 291.826 759.473 297.182 759.473Z" fill="#9CA3AF"/>
<path fill-rule="evenodd" clip-rule="evenodd" d="M313.971 728.988C318.385 728.988 321.964 725.409 321.964 720.994C321.964 716.579 318.385 713 313.971 713C309.556 713 305.977 716.579 305.977 720.994C305.977 725.409 309.556 728.988 313.971 728.988ZM313.838 725.319C316.154 725.319 318.032 723.441 318.032 721.125C318.032 718.809 316.154 716.931 313.838 716.931C311.522 716.931 309.645 718.809 309.645 721.125C309.645 723.441 311.522 725.319 313.838 725.319Z" fill="#9CA3AF"/>
</g>
<g opacity="0.2">
<path fill-rule="evenodd" clip-rule="evenodd" d="M1185.49 225.959C1195.7 225.959 1203.97 217.682 1203.97 207.473C1203.97 197.263 1195.7 188.987 1185.49 188.987C1175.28 188.987 1167 197.263 1167 207.473C1167 217.682 1175.28 225.959 1185.49 225.959ZM1185.18 217.473C1190.54 217.473 1194.88 213.131 1194.88 207.775C1194.88 202.42 1190.54 198.078 1185.18 198.078C1179.83 198.078 1175.48 202.42 1175.48 207.775C1175.48 213.131 1179.83 217.473 1185.18 217.473Z" fill="#9CA3AF"/>
<path fill-rule="evenodd" clip-rule="evenodd" d="M1201.97 186.988C1206.39 186.988 1209.96 183.409 1209.96 178.994C1209.96 174.579 1206.39 171 1201.97 171C1197.56 171 1193.98 174.579 1193.98 178.994C1193.98 183.409 1197.56 186.988 1201.97 186.988ZM1201.84 183.319C1204.15 183.319 1206.03 181.441 1206.03 179.125C1206.03 176.809 1204.15 174.931 1201.84 174.931C1199.52 174.931 1197.64 176.809 1197.64 179.125C1197.64 181.441 1199.52 183.319 1201.84 183.319Z" fill="#9CA3AF"/>
</g>
<g opacity="0.2">
<path fill-rule="evenodd" clip-rule="evenodd" d="M248.486 1846.96C258.696 1846.96 266.972 1838.68 266.972 1828.47C266.972 1818.26 258.696 1809.99 248.486 1809.99C238.276 1809.99 230 1818.26 230 1828.47C230 1838.68 238.276 1846.96 248.486 1846.96ZM248.182 1838.47C253.538 1838.47 257.88 1834.13 257.88 1828.78C257.88 1823.42 253.538 1819.08 248.182 1819.08C242.826 1819.08 238.484 1823.42 238.484 1828.78C238.484 1834.13 242.826 1838.47 248.182 1838.47Z" fill="#9CA3AF"/>
<path fill-rule="evenodd" clip-rule="evenodd" d="M264.971 1807.99C269.385 1807.99 272.964 1804.41 272.964 1799.99C272.964 1795.58 269.385 1792 264.971 1792C260.556 1792 256.977 1795.58 256.977 1799.99C256.977 1804.41 260.556 1807.99 264.971 1807.99ZM264.838 1804.32C267.154 1804.32 269.032 1802.44 269.032 1800.12C269.032 1797.81 267.154 1795.93 264.838 1795.93C262.522 1795.93 260.645 1797.81 260.645 1800.12C260.645 1802.44 262.522 1804.32 264.838 1804.32Z" fill="#9CA3AF"/>
</g>
<g opacity="0.2">
<path d="M556.811 537L566.174 553.217H547.448L556.811 537Z" fill="#9CA3AF"/>
<path d="M571.871 554.399L590.462 552.157L583.108 569.378L571.871 554.399Z" fill="#9CA3AF"/>
</g>
<g opacity="0.2">
<path d="M1090.81 479L1100.17 495.217H1081.45L1090.81 479Z" fill="#9CA3AF"/>
<path d="M1105.87 496.399L1124.46 494.157L1117.11 511.378L1105.87 496.399Z" fill="#9CA3AF"/>
</g>
<g opacity="0.2">
<path d="M556.811 1908L566.174 1924.22H547.448L556.811 1908Z" fill="#9CA3AF"/>
<path d="M571.871 1925.4L590.462 1923.16L583.108 1940.38L571.871 1925.4Z" fill="#9CA3AF"/>
</g>
<g opacity="0.2">
<path d="M124.811 2033L134.174 2049.22H115.448L124.811 2033Z" fill="#9CA3AF"/>
<path d="M139.871 2050.4L158.462 2048.16L151.108 2065.38L139.871 2050.4Z" fill="#9CA3AF"/>
</g>
</svg>
