<svg width="28" height="28" viewBox="0 0 28 28" fill="none" xmlns="http://www.w3.org/2000/svg">
<path d="M17.754 11C18.72 11 19.504 11.784 19.504 12.75V19.499C19.504 20.958 18.9244 22.3572 17.8928 23.3888C16.8612 24.4204 15.462 25 14.003 25C12.544 25 11.1448 24.4204 10.1132 23.3888C9.08157 22.3572 8.502 20.958 8.502 19.499V12.75C8.502 11.784 9.285 11 10.252 11H17.754ZM3.75 11L8.132 10.998C7.77165 11.4322 7.5547 11.9674 7.511 12.53L7.501 12.75V19.499C7.501 20.632 7.792 21.698 8.301 22.626C7.61591 22.9249 6.86717 23.0485 6.12236 22.9856C5.37755 22.9228 4.66013 22.6754 4.03485 22.2658C3.40958 21.8563 2.89614 21.2975 2.54088 20.6399C2.18562 19.9822 1.99974 19.2465 2 18.499V12.75C2.00027 12.2858 2.18486 11.8407 2.51321 11.5125C2.84156 11.1843 3.28578 11 3.75 11ZM19.874 10.998L24.25 11C25.216 11 26 11.784 26 12.75V18.5C26.0003 19.2472 25.8146 19.9826 25.4595 20.6401C25.1045 21.2975 24.5914 21.8562 23.9664 22.2657C23.3415 22.6752 22.6244 22.9227 21.8799 22.9857C21.1354 23.0488 20.3869 22.9255 19.702 22.627L19.758 22.525C20.187 21.712 20.448 20.796 20.496 19.825L20.504 19.499V12.75C20.504 12.084 20.267 11.474 19.874 10.998ZM14 3C14.4596 3 14.9148 3.09053 15.3394 3.26642C15.764 3.44231 16.1499 3.70012 16.4749 4.02513C16.7999 4.35013 17.0577 4.73597 17.2336 5.16061C17.4095 5.58525 17.5 6.04037 17.5 6.5C17.5 6.95963 17.4095 7.41475 17.2336 7.83939C17.0577 8.26403 16.7999 8.64987 16.4749 8.97487C16.1499 9.29988 15.764 9.55769 15.3394 9.73358C14.9148 9.90947 14.4596 10 14 10C13.0717 10 12.1815 9.63125 11.5251 8.97487C10.8687 8.3185 10.5 7.42826 10.5 6.5C10.5 5.57174 10.8687 4.6815 11.5251 4.02513C12.1815 3.36875 13.0717 3 14 3ZM22.003 4C22.397 4 22.7871 4.0776 23.1511 4.22836C23.515 4.37913 23.8457 4.6001 24.1243 4.87868C24.4029 5.15726 24.6239 5.48797 24.7746 5.85195C24.9254 6.21593 25.003 6.60603 25.003 7C25.003 7.39397 24.9254 7.78407 24.7746 8.14805C24.6239 8.51203 24.4029 8.84274 24.1243 9.12132C23.8457 9.3999 23.515 9.62087 23.1511 9.77164C22.7871 9.9224 22.397 10 22.003 10C21.2074 10 20.4443 9.68393 19.8817 9.12132C19.3191 8.55871 19.003 7.79565 19.003 7C19.003 6.20435 19.3191 5.44129 19.8817 4.87868C20.4443 4.31607 21.2074 4 22.003 4ZM5.997 4C6.39097 4 6.78107 4.0776 7.14505 4.22836C7.50903 4.37913 7.83975 4.6001 8.11832 4.87868C8.3969 5.15726 8.61788 5.48797 8.76864 5.85195C8.9194 6.21593 8.997 6.60603 8.997 7C8.997 7.39397 8.9194 7.78407 8.76864 8.14805C8.61788 8.51203 8.3969 8.84274 8.11832 9.12132C7.83975 9.3999 7.50903 9.62087 7.14505 9.77164C6.78107 9.9224 6.39097 10 5.997 10C5.20135 10 4.43829 9.68393 3.87568 9.12132C3.31307 8.55871 2.997 7.79565 2.997 7C2.997 6.20435 3.31307 5.44129 3.87568 4.87868C4.43829 4.31607 5.20135 4 5.997 4Z" fill="#3D0072"/>
</svg>
