<svg width="581" height="275" viewBox="0 0 581 275" fill="none" xmlns="http://www.w3.org/2000/svg">
<path d="M2.282 269V262.896L2.212 261.65L3.052 262.896L7.35 269H8.442V259.62H7.224V265.612L7.294 267.04L6.328 265.584L2.142 259.62H1.064V269H2.282ZM13.0873 269.14C14.9633 269.14 16.2933 267.754 16.2933 265.612C16.2933 263.47 14.9633 262.084 13.0873 262.084C11.2113 262.084 9.89527 263.47 9.89527 265.612C9.89527 267.754 11.2113 269.14 13.0873 269.14ZM13.0873 268.118C11.9393 268.118 11.1413 267.32 11.1413 265.612C11.1413 263.89 11.9393 263.106 13.0873 263.106C14.2493 263.106 15.0613 263.89 15.0613 265.612C15.0613 267.32 14.2493 268.118 13.0873 268.118ZM23.558 269.14C24.874 269.14 26.022 268.538 26.022 267.194C26.022 266.256 25.518 265.626 23.992 265.262L23.124 265.038C22.2 264.814 21.752 264.604 21.752 264.002C21.752 263.428 22.256 263.12 22.956 263.12C23.922 263.12 24.566 263.624 24.902 264.422L25.826 263.736C25.448 262.84 24.454 262.084 23.026 262.084C21.556 262.084 20.604 262.84 20.604 264.072C20.604 265.318 21.654 265.78 22.62 266.004L23.516 266.214C24.314 266.396 24.93 266.592 24.93 267.208C24.93 267.81 24.398 268.118 23.6 268.118C22.256 268.118 21.514 267.348 21.276 266.578L20.394 267.264C20.856 268.524 22.144 269.14 23.558 269.14ZM29.691 269.14C30.993 269.14 31.637 268.272 31.875 267.25V271.604H33.093V262.224H31.875V263.96C31.637 262.938 30.993 262.07 29.691 262.07C27.983 262.07 26.919 263.456 26.919 265.598C26.919 267.74 27.983 269.14 29.691 269.14ZM28.151 265.598C28.151 263.876 29.033 263.092 30.097 263.092C31.399 263.092 31.875 264.002 31.875 265.122V266.088C31.875 267.208 31.399 268.118 30.097 268.118C29.033 268.118 28.151 267.334 28.151 265.598ZM37.0536 269.14C38.4116 269.14 39.1396 268.216 39.3916 267.152V269H40.5956V262.224H39.3916V266.074C39.3916 267.194 38.9156 268.118 37.5996 268.118C36.4516 268.118 36.1016 267.488 36.1016 266.62V262.224H34.8976V266.914C34.8976 268.342 35.7236 269.14 37.0536 269.14ZM43.8728 269.14C45.2728 269.14 46.0008 268.132 46.2248 267.236V267.712C46.2248 268.664 46.7288 269 47.4288 269H48.2128V267.894H47.7788C47.5268 267.894 47.4008 267.796 47.4008 267.474V264.688C47.4008 263.078 46.5048 262.084 44.8388 262.084C43.3268 262.084 42.3188 262.938 41.9128 263.638L42.7388 264.492C43.0888 263.75 43.7328 263.19 44.6988 263.19C45.7628 263.19 46.1408 263.778 46.1828 264.576L43.7328 265.668C42.7668 266.102 42.0808 266.676 42.0808 267.586C42.0808 268.482 42.7248 269.14 43.8728 269.14ZM43.3128 267.39C43.3128 266.97 43.6068 266.69 44.2508 266.382L46.2248 265.458V266.396C46.2248 267.376 45.4128 268.132 44.2648 268.132C43.6348 268.132 43.3128 267.852 43.3128 267.39ZM52.0501 269.14C53.3661 269.14 54.5141 268.538 54.5141 267.194C54.5141 266.256 54.0101 265.626 52.4841 265.262L51.6161 265.038C50.6921 264.814 50.2441 264.604 50.2441 264.002C50.2441 263.428 50.7481 263.12 51.4481 263.12C52.4141 263.12 53.0581 263.624 53.3941 264.422L54.3181 263.736C53.9401 262.84 52.9461 262.084 51.5181 262.084C50.0481 262.084 49.0961 262.84 49.0961 264.072C49.0961 265.318 50.1461 265.78 51.1121 266.004L52.0081 266.214C52.8061 266.396 53.4221 266.592 53.4221 267.208C53.4221 267.81 52.8901 268.118 52.0921 268.118C50.7481 268.118 50.0061 267.348 49.7681 266.578L48.8861 267.264C49.3481 268.524 50.6361 269.14 52.0501 269.14ZM57.144 269V265.164C57.144 264.03 57.62 263.12 58.922 263.12C60.07 263.12 60.42 263.736 60.42 264.618V269H61.624V264.324C61.624 262.882 60.798 262.084 59.468 262.084C58.138 262.084 57.41 262.98 57.144 264.03V259.62H55.926V269H57.144ZM64.6498 261.132V259.62H63.4318V261.132H64.6498ZM64.6498 269V262.224H63.4318V269H64.6498ZM67.6986 269V265.164C67.6986 264.03 68.1746 263.12 69.4766 263.12C70.6246 263.12 70.9746 263.736 70.9746 264.618V269H72.1786V264.324C72.1786 262.882 71.3526 262.084 70.0226 262.084C68.6926 262.084 67.9646 262.98 67.6986 264.03V262.224H66.4806V269H67.6986ZM76.5505 266.928C78.1465 266.928 79.2245 265.92 79.2245 264.506C79.2245 263.666 78.8325 262.952 78.1885 262.532L79.4345 261.132L78.1745 260.684L77.7545 262.308C77.4045 262.168 76.9985 262.084 76.5505 262.084C74.9545 262.084 73.8765 263.092 73.8765 264.506C73.8765 265.36 74.2685 266.074 74.9405 266.494C74.2825 267.026 73.8765 267.614 73.8765 268.146C73.8765 268.594 74.1005 268.916 74.5345 269.056C74.0165 269.266 73.4425 269.644 73.4425 270.274C73.4425 271.17 74.5345 271.744 76.2705 271.744C78.5525 271.744 79.8125 270.834 79.8125 269.546C79.8125 268.524 79.0425 268.034 77.8105 268.034H75.7665C75.0665 268.034 74.8705 267.852 74.8705 267.488C74.8705 267.194 75.0665 266.872 75.2345 266.648C75.6125 266.83 76.0605 266.928 76.5505 266.928ZM76.5505 265.99C75.7105 265.99 75.0525 265.43 75.0525 264.506C75.0525 263.582 75.7105 263.022 76.5505 263.022C77.4045 263.022 78.0485 263.582 78.0485 264.506C78.0485 265.43 77.4045 265.99 76.5505 265.99ZM76.2705 270.778C75.0525 270.778 74.4225 270.442 74.4225 269.896C74.4225 269.574 74.6605 269.28 74.8845 269.084H77.6565C78.3425 269.084 78.6785 269.28 78.6785 269.714C78.6785 270.386 77.8105 270.778 76.2705 270.778ZM86.7787 269.14C88.6547 269.14 89.9847 267.754 89.9847 265.612C89.9847 263.47 88.6547 262.084 86.7787 262.084C84.9027 262.084 83.5867 263.47 83.5867 265.612C83.5867 267.754 84.9027 269.14 86.7787 269.14ZM86.7787 268.118C85.6307 268.118 84.8327 267.32 84.8327 265.612C84.8327 263.89 85.6307 263.106 86.7787 263.106C87.9407 263.106 88.7527 263.89 88.7527 265.612C88.7527 267.32 87.9407 268.118 86.7787 268.118ZM92.7318 269V265.164C92.7318 264.002 93.5158 262.98 94.3838 262.98C94.8738 262.98 95.0838 263.316 95.0838 263.708C95.0838 264.086 94.9018 264.506 94.6778 264.702H96.0078C96.1198 264.534 96.2738 264.114 96.2738 263.54C96.2738 262.588 95.5738 262.07 94.8458 262.07C93.6978 262.07 92.9978 262.98 92.7318 264.03V262.224H91.5138V269H92.7318ZM101.714 271.604V267.25C101.952 268.272 102.596 269.14 103.898 269.14C105.606 269.14 106.67 267.74 106.67 265.598C106.67 263.456 105.606 262.07 103.898 262.07C102.596 262.07 101.952 262.938 101.714 263.96V262.224H100.496V271.604H101.714ZM101.714 266.088V265.122C101.714 264.002 102.19 263.092 103.478 263.092C104.556 263.092 105.438 263.876 105.438 265.598C105.438 267.334 104.556 268.118 103.478 268.118C102.19 268.118 101.714 267.208 101.714 266.088ZM110.226 269.14C111.584 269.14 112.312 268.216 112.564 267.152V269H113.768V262.224H112.564V266.074C112.564 267.194 112.088 268.118 110.772 268.118C109.624 268.118 109.274 267.488 109.274 266.62V262.224H108.07V266.914C108.07 268.342 108.896 269.14 110.226 269.14ZM116.835 269V259.62H115.617V269H116.835ZM119.884 269V259.62H118.666V269H119.884ZM122.933 261.132V259.62H121.715V261.132H122.933ZM122.933 269V262.224H121.715V269H122.933ZM125.982 269V265.164C125.982 264.03 126.458 263.12 127.76 263.12C128.908 263.12 129.258 263.736 129.258 264.618V269H130.462V264.324C130.462 262.882 129.636 262.084 128.306 262.084C126.976 262.084 126.248 262.98 125.982 264.03V262.224H124.764V269H125.982ZM134.834 266.928C136.43 266.928 137.508 265.92 137.508 264.506C137.508 263.666 137.116 262.952 136.472 262.532L137.718 261.132L136.458 260.684L136.038 262.308C135.688 262.168 135.282 262.084 134.834 262.084C133.238 262.084 132.16 263.092 132.16 264.506C132.16 265.36 132.552 266.074 133.224 266.494C132.566 267.026 132.16 267.614 132.16 268.146C132.16 268.594 132.384 268.916 132.818 269.056C132.3 269.266 131.726 269.644 131.726 270.274C131.726 271.17 132.818 271.744 134.554 271.744C136.836 271.744 138.096 270.834 138.096 269.546C138.096 268.524 137.326 268.034 136.094 268.034H134.05C133.35 268.034 133.154 267.852 133.154 267.488C133.154 267.194 133.35 266.872 133.518 266.648C133.896 266.83 134.344 266.928 134.834 266.928ZM134.834 265.99C133.994 265.99 133.336 265.43 133.336 264.506C133.336 263.582 133.994 263.022 134.834 263.022C135.688 263.022 136.332 263.582 136.332 264.506C136.332 265.43 135.688 265.99 134.834 265.99ZM134.554 270.778C133.336 270.778 132.706 270.442 132.706 269.896C132.706 269.574 132.944 269.28 133.168 269.084H135.94C136.626 269.084 136.962 269.28 136.962 269.714C136.962 270.386 136.094 270.778 134.554 270.778ZM140.777 269V267.18H139.307V269H140.777ZM146.903 269V262.896L146.833 261.65L147.673 262.896L151.971 269H153.063V259.62H151.845V265.612L151.915 267.04L150.949 265.584L146.763 259.62H145.685V269H146.903ZM157.708 269.14C159.584 269.14 160.914 267.754 160.914 265.612C160.914 263.47 159.584 262.084 157.708 262.084C155.832 262.084 154.516 263.47 154.516 265.612C154.516 267.754 155.832 269.14 157.708 269.14ZM157.708 268.118C156.56 268.118 155.762 267.32 155.762 265.612C155.762 263.89 156.56 263.106 157.708 263.106C158.87 263.106 159.682 263.89 159.682 265.612C159.682 267.32 158.87 268.118 157.708 268.118ZM167.941 269.168C169.243 269.168 169.887 268.3 170.125 267.264V269H171.343V259.62H170.125V263.988C169.887 262.952 169.243 262.084 167.941 262.084C166.233 262.084 165.169 263.484 165.169 265.626C165.169 267.768 166.233 269.168 167.941 269.168ZM166.401 265.626C166.401 263.904 167.283 263.12 168.347 263.12C169.649 263.12 170.125 264.03 170.125 265.15V266.116C170.125 267.236 169.649 268.146 168.347 268.146C167.283 268.146 166.401 267.362 166.401 265.626ZM174.408 269V265.164C174.408 264.002 175.192 262.98 176.06 262.98C176.55 262.98 176.76 263.316 176.76 263.708C176.76 264.086 176.578 264.506 176.354 264.702H177.684C177.796 264.534 177.95 264.114 177.95 263.54C177.95 262.588 177.25 262.07 176.522 262.07C175.374 262.07 174.674 262.98 174.408 264.03V262.224H173.19V269H174.408ZM181.634 269.14C183.51 269.14 184.84 267.754 184.84 265.612C184.84 263.47 183.51 262.084 181.634 262.084C179.758 262.084 178.442 263.47 178.442 265.612C178.442 267.754 179.758 269.14 181.634 269.14ZM181.634 268.118C180.486 268.118 179.688 267.32 179.688 265.612C179.688 263.89 180.486 263.106 181.634 263.106C182.796 263.106 183.608 263.89 183.608 265.612C183.608 267.32 182.796 268.118 181.634 268.118ZM187.615 271.604V267.25C187.853 268.272 188.497 269.14 189.799 269.14C191.507 269.14 192.571 267.74 192.571 265.598C192.571 263.456 191.507 262.07 189.799 262.07C188.497 262.07 187.853 262.938 187.615 263.96V262.224H186.397V271.604H187.615ZM187.615 266.088V265.122C187.615 264.002 188.091 263.092 189.379 263.092C190.457 263.092 191.339 263.876 191.339 265.598C191.339 267.334 190.457 268.118 189.379 268.118C188.091 268.118 187.615 267.208 187.615 266.088ZM199.747 269.14C201.063 269.14 202.211 268.538 202.211 267.194C202.211 266.256 201.707 265.626 200.181 265.262L199.313 265.038C198.389 264.814 197.941 264.604 197.941 264.002C197.941 263.428 198.445 263.12 199.145 263.12C200.111 263.12 200.755 263.624 201.091 264.422L202.015 263.736C201.637 262.84 200.643 262.084 199.215 262.084C197.745 262.084 196.793 262.84 196.793 264.072C196.793 265.318 197.843 265.78 198.809 266.004L199.705 266.214C200.503 266.396 201.119 266.592 201.119 267.208C201.119 267.81 200.587 268.118 199.789 268.118C198.445 268.118 197.703 267.348 197.465 266.578L196.583 267.264C197.045 268.524 198.333 269.14 199.747 269.14ZM204.841 269V265.164C204.841 264.03 205.317 263.12 206.619 263.12C207.767 263.12 208.117 263.736 208.117 264.618V269H209.321V264.324C209.321 262.882 208.495 262.084 207.165 262.084C205.835 262.084 205.107 262.98 204.841 264.03V259.62H203.623V269H204.841ZM212.556 269.14C213.956 269.14 214.684 268.132 214.908 267.236V267.712C214.908 268.664 215.412 269 216.112 269H216.896V267.894H216.462C216.21 267.894 216.084 267.796 216.084 267.474V264.688C216.084 263.078 215.188 262.084 213.522 262.084C212.01 262.084 211.002 262.938 210.596 263.638L211.422 264.492C211.772 263.75 212.416 263.19 213.382 263.19C214.446 263.19 214.824 263.778 214.866 264.576L212.416 265.668C211.45 266.102 210.764 266.676 210.764 267.586C210.764 268.482 211.408 269.14 212.556 269.14ZM211.996 267.39C211.996 266.97 212.29 266.69 212.934 266.382L214.908 265.458V266.396C214.908 267.376 214.096 268.132 212.948 268.132C212.318 268.132 211.996 267.852 211.996 267.39ZM220.673 269.168C221.975 269.168 222.619 268.3 222.857 267.264V269H224.075V259.62H222.857V263.988C222.619 262.952 221.975 262.084 220.673 262.084C218.965 262.084 217.901 263.484 217.901 265.626C217.901 267.768 218.965 269.168 220.673 269.168ZM219.133 265.626C219.133 263.904 220.015 263.12 221.079 263.12C222.381 263.12 222.857 264.03 222.857 265.15V266.116C222.857 267.236 222.381 268.146 221.079 268.146C220.015 268.146 219.133 267.362 219.133 265.626ZM228.638 269.14C230.514 269.14 231.844 267.754 231.844 265.612C231.844 263.47 230.514 262.084 228.638 262.084C226.762 262.084 225.446 263.47 225.446 265.612C225.446 267.754 226.762 269.14 228.638 269.14ZM228.638 268.118C227.49 268.118 226.692 267.32 226.692 265.612C226.692 263.89 227.49 263.106 228.638 263.106C229.8 263.106 230.612 263.89 230.612 265.612C230.612 267.32 229.8 268.118 228.638 268.118ZM235.635 269L236.797 265.038L237.259 263.232L237.693 265.038L238.855 269H240.451L242.201 262.224H240.843L239.975 266.396L239.653 268.118L239.219 266.396L238.001 262.224H236.503L235.271 266.396L234.851 268.118L234.529 266.396L233.647 262.224H232.289L234.053 269H235.635ZM245.658 269.14C246.974 269.14 248.122 268.538 248.122 267.194C248.122 266.256 247.618 265.626 246.092 265.262L245.224 265.038C244.3 264.814 243.852 264.604 243.852 264.002C243.852 263.428 244.356 263.12 245.056 263.12C246.022 263.12 246.666 263.624 247.002 264.422L247.926 263.736C247.548 262.84 246.554 262.084 245.126 262.084C243.656 262.084 242.704 262.84 242.704 264.072C242.704 265.318 243.754 265.78 244.72 266.004L245.616 266.214C246.414 266.396 247.03 266.592 247.03 267.208C247.03 267.81 246.498 268.118 245.7 268.118C244.356 268.118 243.614 267.348 243.376 266.578L242.494 267.264C242.956 268.524 244.244 269.14 245.658 269.14Z" fill="#3D0072"/>
<rect x="0.5" y="0.5" width="580" height="234" rx="19.5" fill="white" stroke="#E5E7EB"/>
<path d="M85.2095 98.2102C85.2095 102.923 85.2095 107.65 85.233 112.363C85.233 116.43 84.1077 120.387 80.8841 122.475C77.1213 124.894 71.7761 124.275 67.5796 123.767C67.4155 123.767 67.2748 123.726 67.1224 123.712C67.2631 120.318 67.2045 116.883 67.0638 113.503C66.888 108.914 69.2559 103.445 73.4641 102.676C78.0239 101.838 81.9977 101.26 84.1546 98.3063C84.2249 98.2239 84.2952 98.1277 84.3538 98.0315C84.6703 97.5232 85.0103 97.0423 85.3502 96.5476C85.2447 97.0835 85.2095 97.6468 85.2095 98.1964V98.2102Z" fill="#8807F7"/>
<path d="M71.4102 154.505C74.5517 154.738 77.7166 154.683 80.8581 154.752C84.5271 154.821 88.2899 155.356 91.83 154.601C96.9173 153.515 102.638 149.627 104.525 143.87C106.272 138.538 105.451 132.177 102.438 127.698C102.227 127.395 102.005 127.093 101.759 126.791C98.7108 122.888 93.9868 120.841 89.4855 121.542C83.8941 122.408 78.9709 127.56 77.5173 133.949C76.6147 137.934 77.4001 142.166 76.8726 146.219C76.4389 149.572 73.989 153.007 71.3984 154.505H71.4102Z" fill="#8807F7"/>
<path d="M102.841 83C102.559 84.003 102.899 85.0885 103.263 86.0503C107.928 98.2378 120.424 106.482 119.99 121.129C119.791 127.752 116.978 135.529 112.254 139.458C111.914 139.747 111.597 139.994 111.199 140.132C110.296 138.153 110.202 135.267 109.44 133.097C108.479 130.362 107.213 127.683 105.443 125.567C103.743 123.547 101.622 122.379 99.922 120.401C96.3585 116.224 94.1079 110.508 93.8148 104.6C93.3928 96.1905 96.9798 87.8365 102.853 83.0275L102.841 83Z" fill="#8807F7"/>
<path d="M70.392 112.404C70.392 112.404 70.2279 108.736 73.4398 108.914C73.4398 108.914 74.612 112.926 70.392 112.404V112.404Z" fill="white"/>
<path d="M69.3218 143.512C72.261 143.512 74.6436 140.719 74.6436 137.274C74.6436 133.829 72.261 131.036 69.3218 131.036C66.3827 131.036 64 133.829 64 137.274C64 140.719 66.3827 143.512 69.3218 143.512Z" fill="#8807F7"/>
<path d="M448.466 127.611C448.574 124.822 448.517 122.008 448.391 119.244C448.312 117.363 448.808 115.294 449.794 113.626C450.78 111.959 452.225 110.737 454.03 110.436L454.031 110.436C454.263 110.397 454.495 110.359 454.725 110.321C456.615 110.008 458.424 109.709 460.006 109.223C461.783 108.678 463.336 107.881 464.443 106.508C464.484 106.464 464.525 106.416 464.563 106.367C464.563 110.335 464.564 114.316 464.586 118.286C464.585 121.707 463.546 124.893 460.717 126.561C459.038 127.543 456.979 127.923 454.812 127.994C452.659 128.065 450.448 127.83 448.466 127.611Z" fill="white" stroke="#8807F7"/>
<path d="M453.559 154.157C455.597 152.583 457.316 150.038 457.675 147.509L453.559 154.157ZM453.559 154.157C455.121 154.223 456.686 154.238 458.258 154.252C459.156 154.26 460.057 154.268 460.961 154.286C460.961 154.286 460.962 154.286 460.962 154.286L453.559 154.157ZM480.351 131.034L480.351 131.034C477.572 127.796 473.268 126.106 469.187 126.684L469.186 126.684C464.116 127.398 459.607 131.67 458.276 136.994C457.865 138.642 457.836 140.354 457.852 142.129C457.854 142.348 457.857 142.569 457.86 142.791C457.88 144.342 457.9 145.941 457.675 147.509L480.351 131.034ZM480.351 131.034L480.358 131.042M480.351 131.034L480.358 131.042M480.358 131.042C480.58 131.289 480.781 131.538 480.975 131.79M480.358 131.042L480.975 131.79M480.975 131.79C483.722 135.51 484.475 140.811 482.878 145.246L480.975 131.79Z" fill="white" stroke="#8807F7"/>
<path d="M473.719 111.572C473.35 104.887 476.294 98.2412 481.192 94.1212C481.27 94.7415 481.496 95.3299 481.698 95.8184L481.699 95.8205C482.825 98.4971 484.419 100.945 486.151 103.297C487.018 104.473 487.923 105.63 488.824 106.779L488.892 106.866C489.771 107.988 490.645 109.103 491.483 110.233C494.923 114.873 497.69 119.685 497.49 125.817C497.305 131.416 494.684 137.95 490.367 141.218L490.363 141.221C490.201 141.346 490.059 141.45 489.922 141.534C489.644 140.834 489.459 140.012 489.278 139.129C489.256 139.023 489.235 138.916 489.213 138.809C489.019 137.852 488.814 136.843 488.473 135.959L488.473 135.958C487.551 133.574 486.326 131.203 484.592 129.316L484.591 129.315C483.752 128.408 482.813 127.697 481.912 127.018L481.879 126.993C480.981 126.316 480.124 125.669 479.363 124.864C476.072 121.353 473.989 116.542 473.719 111.572L473.719 111.572Z" fill="white" stroke="#8807F7"/>
<path d="M451.048 118.32C451.048 118.32 450.893 115.161 453.932 115.315C453.932 115.315 455.042 118.77 451.048 118.32V118.32Z" fill="white" stroke="#8807F7" stroke-miterlimit="10"/>
<path d="M454.572 139.736C454.572 142.457 452.512 144.607 450.036 144.607C447.561 144.607 445.5 142.457 445.5 139.736C445.5 137.014 447.561 134.864 450.036 134.864C452.512 134.864 454.572 137.014 454.572 139.736Z" fill="white" stroke="#8807F7"/>
<g filter="url(#filter0_d_5962_87773)">
<path d="M275.831 97.3651C275.831 101.816 275.831 106.28 275.854 110.731C275.854 114.572 274.749 118.31 271.583 120.282C267.887 122.566 262.637 121.982 258.516 121.502C258.354 121.502 258.216 121.463 258.067 121.45C258.205 118.245 258.147 115.001 258.009 111.808C257.836 107.474 260.162 102.309 264.295 101.583C268.774 100.791 272.676 100.246 274.795 97.456C274.864 97.3781 274.933 97.2873 274.99 97.1964C275.301 96.7163 275.635 96.2621 275.969 95.7949C275.865 96.301 275.831 96.8331 275.831 97.3521V97.3651Z" fill="#A75FE4"/>
<path d="M262.277 150.532C265.363 150.753 268.471 150.701 271.557 150.766C275.16 150.83 278.856 151.336 282.333 150.623C287.329 149.598 292.947 145.925 294.801 140.488C296.516 135.453 295.711 129.445 292.752 125.214C292.544 124.929 292.326 124.643 292.084 124.358C289.091 120.672 284.451 118.739 280.03 119.401C274.538 120.218 269.703 125.084 268.275 131.119C267.389 134.882 268.16 138.879 267.642 142.707C267.216 145.873 264.81 149.117 262.266 150.532H262.277Z" fill="#A75FE4"/>
<path d="M293.148 83C292.872 83.9473 293.205 84.9725 293.562 85.8808C298.144 97.3913 310.417 105.177 309.991 119.011C309.796 125.265 307.032 132.61 302.393 136.322C302.059 136.594 301.748 136.828 301.357 136.958C300.47 135.089 300.378 132.364 299.63 130.313C298.686 127.731 297.442 125.201 295.704 123.202C294.034 121.295 291.951 120.191 290.281 118.323C286.781 114.378 284.571 108.98 284.283 103.4C283.869 95.4577 287.391 87.5678 293.159 83.026L293.148 83Z" fill="#A75FE4"/>
<path d="M261.275 110.771C261.275 110.771 261.114 107.306 264.268 107.474C264.268 107.474 265.419 111.264 261.275 110.771V110.771Z" fill="white"/>
<path d="M260.227 140.15C263.114 140.15 265.454 137.512 265.454 134.259C265.454 131.005 263.114 128.367 260.227 128.367C257.34 128.367 255 131.005 255 134.259C255 137.512 257.34 140.15 260.227 140.15Z" fill="#A75FE4"/>
</g>
<path d="M47 21C51.95 21 56 25.05 56 30C56 34.95 51.95 39 47 39C42.05 39 38 34.95 38 30C38 25.05 42.05 21 47 21ZM47 22.8C45.29 22.8 43.76 23.34 42.59 24.33L52.67 34.41C53.57 33.15 54.2 31.62 54.2 30C54.2 26.04 50.96 22.8 47 22.8ZM51.41 35.67L41.33 25.59C40.34 26.76 39.8 28.29 39.8 30C39.8 33.96 43.04 37.2 47 37.2C48.71 37.2 50.24 36.66 51.41 35.67Z" fill="#EF4444"/>
<defs>
<filter id="filter0_d_5962_87773" x="235" y="73" width="95" height="108" filterUnits="userSpaceOnUse" color-interpolation-filters="sRGB">
<feFlood flood-opacity="0" result="BackgroundImageFix"/>
<feColorMatrix in="SourceAlpha" type="matrix" values="0 0 0 0 0 0 0 0 0 0 0 0 0 0 0 0 0 0 127 0" result="hardAlpha"/>
<feOffset dy="10"/>
<feGaussianBlur stdDeviation="10"/>
<feComposite in2="hardAlpha" operator="out"/>
<feColorMatrix type="matrix" values="0 0 0 0 0.239216 0 0 0 0 0 0 0 0 0 0.447059 0 0 0 0.12 0"/>
<feBlend mode="normal" in2="BackgroundImageFix" result="effect1_dropShadow_5962_87773"/>
<feBlend mode="normal" in="SourceGraphic" in2="effect1_dropShadow_5962_87773" result="shape"/>
</filter>
</defs>
</svg>
