<svg width="581" height="285" viewBox="0 0 581 285" fill="none" xmlns="http://www.w3.org/2000/svg">
<path d="M2.608 275V268.024L2.528 266.6L3.488 268.024L8.4 275H9.648V264.28H8.256V271.128L8.336 272.76L7.232 271.096L2.448 264.28H1.216V275H2.608ZM14.9569 275.16C17.1009 275.16 18.6209 273.576 18.6209 271.128C18.6209 268.68 17.1009 267.096 14.9569 267.096C12.8129 267.096 11.3089 268.68 11.3089 271.128C11.3089 273.576 12.8129 275.16 14.9569 275.16ZM14.9569 273.992C13.6449 273.992 12.7329 273.08 12.7329 271.128C12.7329 269.16 13.6449 268.264 14.9569 268.264C16.2849 268.264 17.2129 269.16 17.2129 271.128C17.2129 273.08 16.2849 273.992 14.9569 273.992ZM26.9394 272.632C28.7634 272.632 29.9954 271.48 29.9954 269.864C29.9954 268.904 29.5474 268.088 28.8114 267.608L30.2354 266.008L28.7954 265.496L28.3154 267.352C27.9154 267.192 27.4514 267.096 26.9394 267.096C25.1154 267.096 23.8834 268.248 23.8834 269.864C23.8834 270.84 24.3314 271.656 25.0994 272.136C24.3474 272.744 23.8834 273.416 23.8834 274.024C23.8834 274.536 24.1394 274.904 24.6354 275.064C24.0434 275.304 23.3874 275.736 23.3874 276.456C23.3874 277.48 24.6354 278.136 26.6194 278.136C29.2274 278.136 30.6674 277.096 30.6674 275.624C30.6674 274.456 29.7874 273.896 28.3794 273.896H26.0434C25.2434 273.896 25.0194 273.688 25.0194 273.272C25.0194 272.936 25.2434 272.568 25.4354 272.312C25.8674 272.52 26.3794 272.632 26.9394 272.632ZM26.9394 271.56C25.9794 271.56 25.2274 270.92 25.2274 269.864C25.2274 268.808 25.9794 268.168 26.9394 268.168C27.9154 268.168 28.6514 268.808 28.6514 269.864C28.6514 270.92 27.9154 271.56 26.9394 271.56ZM26.6194 277.032C25.2274 277.032 24.5074 276.648 24.5074 276.024C24.5074 275.656 24.7794 275.32 25.0354 275.096H28.2034C28.9874 275.096 29.3714 275.32 29.3714 275.816C29.3714 276.584 28.3794 277.032 26.6194 277.032ZM33.3386 275V270.616C33.3386 269.288 34.2346 268.12 35.2266 268.12C35.7866 268.12 36.0266 268.504 36.0266 268.952C36.0266 269.384 35.8186 269.864 35.5626 270.088H37.0826C37.2106 269.896 37.3866 269.416 37.3866 268.76C37.3866 267.672 36.5866 267.08 35.7546 267.08C34.4426 267.08 33.6426 268.12 33.3386 269.32V267.256H31.9466V275H33.3386ZM40.2185 275.16C41.8185 275.16 42.6505 274.008 42.9065 272.984V273.528C42.9065 274.616 43.4825 275 44.2825 275H45.1785V273.736H44.6825C44.3945 273.736 44.2505 273.624 44.2505 273.256V270.072C44.2505 268.232 43.2265 267.096 41.3225 267.096C39.5945 267.096 38.4425 268.072 37.9785 268.872L38.9225 269.848C39.3225 269 40.0585 268.36 41.1625 268.36C42.3785 268.36 42.8105 269.032 42.8585 269.944L40.0585 271.192C38.9545 271.688 38.1705 272.344 38.1705 273.384C38.1705 274.408 38.9065 275.16 40.2185 275.16ZM39.5785 273.16C39.5785 272.68 39.9145 272.36 40.6505 272.008L42.9065 270.952V272.024C42.9065 273.144 41.9785 274.008 40.6665 274.008C39.9465 274.008 39.5785 273.688 39.5785 273.16ZM49.4951 275.192C50.9831 275.192 51.7191 274.2 51.9911 273.016V275H53.3831V264.28H51.9911V269.272C51.7191 268.088 50.9831 267.096 49.4951 267.096C47.5431 267.096 46.3271 268.696 46.3271 271.144C46.3271 273.592 47.5431 275.192 49.4951 275.192ZM47.7351 271.144C47.7351 269.176 48.7431 268.28 49.9591 268.28C51.4471 268.28 51.9911 269.32 51.9911 270.6V271.704C51.9911 272.984 51.4471 274.024 49.9591 274.024C48.7431 274.024 47.7351 273.128 47.7351 271.144ZM56.8855 266.008V264.28H55.4935V266.008H56.8855ZM56.8855 275V267.256H55.4935V275H56.8855ZM62.2739 275.16C63.9539 275.16 65.0259 274.376 65.6019 273.448L64.7539 272.488C64.4499 273.16 63.8259 274.008 62.2739 274.008C60.8979 274.008 59.9859 273.08 59.9059 271.448H65.6499C65.6819 271.304 65.7139 271.064 65.7139 270.824C65.7139 268.552 64.3859 267.096 62.1939 267.096C60.0659 267.096 58.5619 268.68 58.5619 271.128C58.5619 273.592 60.0819 275.16 62.2739 275.16ZM62.1939 268.264C63.4899 268.264 64.3219 269.016 64.4659 270.44H59.9379C60.1139 269 60.9459 268.264 62.1939 268.264ZM68.8699 275V270.616C68.8699 269.32 69.4139 268.28 70.9019 268.28C72.2139 268.28 72.6139 268.984 72.6139 269.992V275H73.9899V269.656C73.9899 268.008 73.0459 267.096 71.5259 267.096C70.0059 267.096 69.1739 268.12 68.8699 269.32V267.256H67.4779V275H68.8699ZM78.4293 275.176C79.5013 275.176 80.2373 274.68 80.5733 274.152L80.1093 272.776C79.9013 273.256 79.4213 273.832 78.7333 273.832C78.1253 273.832 77.6613 273.592 77.6613 272.6V268.344H80.2053V267.256H77.6613V265.24L76.2693 266.264V267.256H75.0213V268.344H76.2693V273.016C76.2693 274.344 77.1653 275.176 78.4293 275.176ZM84.6109 275.16C86.1149 275.16 87.4269 274.472 87.4269 272.936C87.4269 271.864 86.8509 271.144 85.1069 270.728L84.1149 270.472C83.0589 270.216 82.5469 269.976 82.5469 269.288C82.5469 268.632 83.1229 268.28 83.9229 268.28C85.0269 268.28 85.7629 268.856 86.1469 269.768L87.2029 268.984C86.7709 267.96 85.6349 267.096 84.0029 267.096C82.3229 267.096 81.2349 267.96 81.2349 269.368C81.2349 270.792 82.4349 271.32 83.5389 271.576L84.5629 271.816C85.4749 272.024 86.1789 272.248 86.1789 272.952C86.1789 273.64 85.5709 273.992 84.6589 273.992C83.1229 273.992 82.2749 273.112 82.0029 272.232L80.9949 273.016C81.5229 274.456 82.9949 275.16 84.6109 275.16ZM90.6225 275V272.92H88.9425V275H90.6225ZM97.6236 275V268.024L97.5436 266.6L98.5036 268.024L103.416 275H104.664V264.28H103.272V271.128L103.352 272.76L102.248 271.096L97.4636 264.28H96.2316V275H97.6236ZM109.973 275.16C112.117 275.16 113.637 273.576 113.637 271.128C113.637 268.68 112.117 267.096 109.973 267.096C107.829 267.096 106.325 268.68 106.325 271.128C106.325 273.576 107.829 275.16 109.973 275.16ZM109.973 273.992C108.661 273.992 107.749 273.08 107.749 271.128C107.749 269.16 108.661 268.264 109.973 268.264C111.301 268.264 112.229 269.16 112.229 271.128C112.229 273.08 111.301 273.992 109.973 273.992ZM121.523 275.176C122.595 275.176 123.331 274.68 123.667 274.152L123.203 272.776C122.995 273.256 122.515 273.832 121.827 273.832C121.219 273.832 120.755 273.592 120.755 272.6V268.344H123.299V267.256H120.755V265.24L119.363 266.264V267.256H118.115V268.344H119.363V273.016C119.363 274.344 120.259 275.176 121.523 275.176ZM126.073 275V270.616C126.073 269.288 126.969 268.12 127.961 268.12C128.521 268.12 128.761 268.504 128.761 268.952C128.761 269.384 128.553 269.864 128.297 270.088H129.817C129.945 269.896 130.121 269.416 130.121 268.76C130.121 267.672 129.321 267.08 128.489 267.08C127.177 267.08 126.377 268.12 126.073 269.32V267.256H124.681V275H126.073ZM132.953 275.16C134.553 275.16 135.385 274.008 135.641 272.984V273.528C135.641 274.616 136.217 275 137.017 275H137.913V273.736H137.417C137.129 273.736 136.985 273.624 136.985 273.256V270.072C136.985 268.232 135.961 267.096 134.057 267.096C132.329 267.096 131.177 268.072 130.713 268.872L131.657 269.848C132.057 269 132.793 268.36 133.897 268.36C135.113 268.36 135.545 269.032 135.593 269.944L132.793 271.192C131.689 271.688 130.905 272.344 130.905 273.384C130.905 274.408 131.641 275.16 132.953 275.16ZM132.313 273.16C132.313 272.68 132.649 272.36 133.385 272.008L135.641 270.952V272.024C135.641 273.144 134.713 274.008 133.401 274.008C132.681 274.008 132.313 273.688 132.313 273.16ZM142.71 275.16C144.726 275.16 145.91 273.992 146.278 272.44L144.918 271.88C144.758 273.112 144.118 274.008 142.726 274.008C141.318 274.008 140.47 272.952 140.47 271.128C140.47 269.304 141.318 268.264 142.726 268.264C144.118 268.264 144.758 269.144 144.918 270.376L146.278 269.816C145.91 268.264 144.726 267.096 142.71 267.096C140.486 267.096 139.062 268.68 139.062 271.128C139.062 273.592 140.486 275.16 142.71 275.16ZM149.276 266.008V264.28H147.884V266.008H149.276ZM149.276 275V267.256H147.884V275H149.276ZM152.761 275V270.616C152.761 269.32 153.305 268.28 154.793 268.28C156.105 268.28 156.505 268.984 156.505 269.992V275H157.881V269.656C157.881 268.008 156.937 267.096 155.417 267.096C153.897 267.096 153.065 268.12 152.761 269.32V267.256H151.368V275H152.761ZM162.877 272.632C164.701 272.632 165.933 271.48 165.933 269.864C165.933 268.904 165.485 268.088 164.749 267.608L166.173 266.008L164.733 265.496L164.253 267.352C163.853 267.192 163.389 267.096 162.877 267.096C161.053 267.096 159.821 268.248 159.821 269.864C159.821 270.84 160.269 271.656 161.037 272.136C160.285 272.744 159.821 273.416 159.821 274.024C159.821 274.536 160.077 274.904 160.573 275.064C159.981 275.304 159.325 275.736 159.325 276.456C159.325 277.48 160.573 278.136 162.557 278.136C165.165 278.136 166.605 277.096 166.605 275.624C166.605 274.456 165.725 273.896 164.317 273.896H161.981C161.181 273.896 160.957 273.688 160.957 273.272C160.957 272.936 161.181 272.568 161.373 272.312C161.805 272.52 162.317 272.632 162.877 272.632ZM162.877 271.56C161.917 271.56 161.165 270.92 161.165 269.864C161.165 268.808 161.917 268.168 162.877 268.168C163.853 268.168 164.589 268.808 164.589 269.864C164.589 270.92 163.853 271.56 162.877 271.56ZM162.557 277.032C161.165 277.032 160.445 276.648 160.445 276.024C160.445 275.656 160.717 275.32 160.973 275.096H164.141C164.925 275.096 165.309 275.32 165.309 275.816C165.309 276.584 164.317 277.032 162.557 277.032ZM174.566 275.16C176.71 275.16 178.23 273.576 178.23 271.128C178.23 268.68 176.71 267.096 174.566 267.096C172.422 267.096 170.918 268.68 170.918 271.128C170.918 273.576 172.422 275.16 174.566 275.16ZM174.566 273.992C173.254 273.992 172.342 273.08 172.342 271.128C172.342 269.16 173.254 268.264 174.566 268.264C175.894 268.264 176.822 269.16 176.822 271.128C176.822 273.08 175.894 273.992 174.566 273.992ZM181.37 275V270.616C181.37 269.288 182.266 268.12 183.258 268.12C183.818 268.12 184.058 268.504 184.058 268.952C184.058 269.384 183.85 269.864 183.594 270.088H185.114C185.242 269.896 185.418 269.416 185.418 268.76C185.418 267.672 184.618 267.08 183.786 267.08C182.474 267.08 181.674 268.12 181.37 269.32V267.256H179.978V275H181.37ZM191.636 275V270.616C191.636 269.288 192.532 268.12 193.524 268.12C194.084 268.12 194.324 268.504 194.324 268.952C194.324 269.384 194.116 269.864 193.86 270.088H195.38C195.508 269.896 195.684 269.416 195.684 268.76C195.684 267.672 194.884 267.08 194.052 267.08C192.74 267.08 191.94 268.12 191.636 269.32V267.256H190.243V275H191.636ZM200.086 275.16C201.766 275.16 202.838 274.376 203.414 273.448L202.566 272.488C202.262 273.16 201.638 274.008 200.086 274.008C198.71 274.008 197.798 273.08 197.718 271.448H203.462C203.494 271.304 203.526 271.064 203.526 270.824C203.526 268.552 202.198 267.096 200.006 267.096C197.878 267.096 196.374 268.68 196.374 271.128C196.374 273.592 197.894 275.16 200.086 275.16ZM200.006 268.264C201.302 268.264 202.134 269.016 202.278 270.44H197.75C197.926 269 198.758 268.264 200.006 268.264ZM208.663 275.16C210.679 275.16 211.863 273.992 212.231 272.44L210.871 271.88C210.711 273.112 210.071 274.008 208.679 274.008C207.271 274.008 206.423 272.952 206.423 271.128C206.423 269.304 207.271 268.264 208.679 268.264C210.071 268.264 210.711 269.144 210.871 270.376L212.231 269.816C211.863 268.264 210.679 267.096 208.663 267.096C206.439 267.096 205.015 268.68 205.015 271.128C205.015 273.592 206.439 275.16 208.663 275.16ZM215.057 275V270.616C215.057 269.288 215.953 268.12 216.945 268.12C217.505 268.12 217.745 268.504 217.745 268.952C217.745 269.384 217.537 269.864 217.281 270.088H218.801C218.929 269.896 219.105 269.416 219.105 268.76C219.105 267.672 218.305 267.08 217.473 267.08C216.161 267.08 215.361 268.12 215.057 269.32V267.256H213.665V275H215.057ZM223.508 275.16C225.188 275.16 226.26 274.376 226.836 273.448L225.988 272.488C225.684 273.16 225.06 274.008 223.508 274.008C222.132 274.008 221.22 273.08 221.14 271.448H226.884C226.916 271.304 226.948 271.064 226.948 270.824C226.948 268.552 225.62 267.096 223.428 267.096C221.3 267.096 219.796 268.68 219.796 271.128C219.796 273.592 221.316 275.16 223.508 275.16ZM223.428 268.264C224.724 268.264 225.556 269.016 225.7 270.44H221.172C221.348 269 222.18 268.264 223.428 268.264ZM230.359 275.16C231.959 275.16 232.791 274.008 233.047 272.984V273.528C233.047 274.616 233.623 275 234.423 275H235.319V273.736H234.823C234.535 273.736 234.391 273.624 234.391 273.256V270.072C234.391 268.232 233.367 267.096 231.463 267.096C229.735 267.096 228.583 268.072 228.119 268.872L229.063 269.848C229.463 269 230.199 268.36 231.303 268.36C232.519 268.36 232.951 269.032 232.999 269.944L230.199 271.192C229.095 271.688 228.311 272.344 228.311 273.384C228.311 274.408 229.047 275.16 230.359 275.16ZM229.719 273.16C229.719 272.68 230.055 272.36 230.791 272.008L233.047 270.952V272.024C233.047 273.144 232.119 274.008 230.807 274.008C230.087 274.008 229.719 273.688 229.719 273.16ZM239.304 275.176C240.376 275.176 241.112 274.68 241.448 274.152L240.984 272.776C240.776 273.256 240.296 273.832 239.608 273.832C239 273.832 238.536 273.592 238.536 272.6V268.344H241.08V267.256H238.536V265.24L237.144 266.264V267.256H235.896V268.344H237.144V273.016C237.144 274.344 238.04 275.176 239.304 275.176ZM244.214 266.008V264.28H242.822V266.008H244.214ZM244.214 275V267.256H242.822V275H244.214ZM249.41 275.16C251.554 275.16 253.074 273.576 253.074 271.128C253.074 268.68 251.554 267.096 249.41 267.096C247.266 267.096 245.762 268.68 245.762 271.128C245.762 273.576 247.266 275.16 249.41 275.16ZM249.41 273.992C248.098 273.992 247.186 273.08 247.186 271.128C247.186 269.16 248.098 268.264 249.41 268.264C250.738 268.264 251.666 269.16 251.666 271.128C251.666 273.08 250.738 273.992 249.41 273.992ZM256.214 275V270.616C256.214 269.32 256.758 268.28 258.246 268.28C259.558 268.28 259.958 268.984 259.958 269.992V275H261.334V269.656C261.334 268.008 260.39 267.096 258.87 267.096C257.35 267.096 256.518 268.12 256.214 269.32V267.256H254.822V275H256.214Z" fill="#3D0072"/>
<rect x="0.5" y="0.5" width="580" height="234" rx="19.5" fill="white" stroke="#E5E7EB"/>
<path d="M462.148 97.3651C462.148 101.816 462.148 106.28 462.173 110.731C462.173 114.572 460.998 118.31 457.631 120.282C453.701 122.566 448.119 121.982 443.736 121.502C443.564 121.502 443.417 121.463 443.258 121.45C443.405 118.245 443.344 115.001 443.197 111.808C443.013 107.474 445.486 102.309 449.881 101.583C454.644 100.791 458.794 100.246 461.047 97.456C461.12 97.3781 461.194 97.2873 461.255 97.1964C461.585 96.7163 461.94 96.2621 462.295 95.7949C462.185 96.301 462.148 96.8331 462.148 97.3521V97.3651Z" fill="url(#paint0_linear_11971_124767)"/>
<path d="M447.739 150.532C451.02 150.753 454.325 150.701 457.606 150.766C461.438 150.83 465.368 151.336 469.065 150.623C474.379 149.598 480.353 145.925 482.324 140.488C484.148 135.453 483.291 129.445 480.145 125.214C479.924 124.929 479.692 124.643 479.435 124.358C476.252 120.672 471.318 118.739 466.617 119.401C460.777 120.218 455.635 125.084 454.117 131.119C453.174 134.882 453.995 138.879 453.444 142.707C452.991 145.873 450.432 149.117 447.727 150.532H447.739Z" fill="url(#paint1_linear_11971_124767)"/>
<path d="M480.563 83C480.27 83.9473 480.625 84.9725 481.004 85.8808C485.877 97.3913 498.927 105.177 498.474 119.011C498.266 125.265 495.328 132.61 490.394 136.322C490.039 136.594 489.709 136.828 489.292 136.958C488.35 135.089 488.252 132.364 487.456 130.313C486.452 127.731 485.13 125.201 483.281 123.202C481.506 121.295 479.29 120.191 477.515 118.323C473.793 114.378 471.443 108.98 471.137 103.4C470.696 95.4577 474.442 87.5678 480.576 83.026L480.563 83Z" fill="url(#paint2_linear_11971_124767)"/>
<path d="M446.673 110.771C446.673 110.771 446.502 107.306 449.856 107.474C449.856 107.474 451.081 111.264 446.673 110.771Z" fill="white"/>
<path d="M445.558 140.15C448.628 140.15 451.116 137.512 451.116 134.259C451.116 131.005 448.628 128.367 445.558 128.367C442.488 128.367 440 131.005 440 134.259C440 137.512 442.488 140.15 445.558 140.15Z" fill="url(#paint3_linear_11971_124767)"/>
<path d="M279.148 97.3651C279.148 101.816 279.148 106.28 279.173 110.731C279.173 114.572 277.998 118.31 274.631 120.282C270.701 122.566 265.119 121.982 260.736 121.502C260.564 121.502 260.417 121.463 260.258 121.45C260.405 118.245 260.344 115.001 260.197 111.808C260.013 107.474 262.486 102.309 266.881 101.583C271.644 100.791 275.794 100.246 278.047 97.456C278.12 97.3781 278.194 97.2873 278.255 97.1964C278.585 96.7163 278.94 96.2621 279.295 95.7949C279.185 96.301 279.148 96.8331 279.148 97.3521V97.3651Z" fill="url(#paint4_linear_11971_124767)"/>
<path d="M264.739 150.532C268.02 150.753 271.325 150.701 274.606 150.766C278.438 150.83 282.368 151.336 286.065 150.623C291.379 149.598 297.353 145.925 299.324 140.488C301.148 135.453 300.291 129.445 297.145 125.214C296.924 124.929 296.692 124.643 296.435 124.358C293.252 120.672 288.318 118.739 283.617 119.401C277.777 120.218 272.635 125.084 271.117 131.119C270.174 134.882 270.995 138.879 270.444 142.707C269.991 145.873 267.432 149.117 264.727 150.532H264.739Z" fill="url(#paint5_linear_11971_124767)"/>
<path d="M297.563 83C297.27 83.9473 297.625 84.9725 298.004 85.8808C302.877 97.3913 315.927 105.177 315.474 119.011C315.266 125.265 312.328 132.61 307.394 136.322C307.039 136.594 306.709 136.828 306.292 136.958C305.35 135.089 305.252 132.364 304.456 130.313C303.452 127.731 302.13 125.201 300.281 123.202C298.506 121.295 296.29 120.191 294.515 118.323C290.793 114.378 288.443 108.98 288.137 103.4C287.696 95.4577 291.442 87.5678 297.576 83.026L297.563 83Z" fill="url(#paint6_linear_11971_124767)"/>
<path d="M263.673 110.771C263.673 110.771 263.502 107.306 266.856 107.474C266.856 107.474 268.081 111.264 263.673 110.771Z" fill="white"/>
<path d="M262.558 140.15C265.628 140.15 268.116 137.512 268.116 134.259C268.116 131.005 265.628 128.367 262.558 128.367C259.488 128.367 257 131.005 257 134.259C257 137.512 259.488 140.15 262.558 140.15Z" fill="url(#paint7_linear_11971_124767)"/>
<path d="M95.1485 104.248C95.1485 108.447 95.1485 112.658 95.1729 116.857C95.1729 120.481 93.9977 124.007 90.631 125.868C86.7011 128.023 81.1185 127.472 76.7357 127.019C76.5643 127.019 76.4174 126.982 76.2583 126.97C76.4052 123.946 76.344 120.885 76.1971 117.874C76.0134 113.785 78.4864 108.912 82.8815 108.227C87.6438 107.48 91.794 106.966 94.0466 104.333C94.1201 104.26 94.1935 104.174 94.2548 104.089C94.5853 103.636 94.9403 103.207 95.2954 102.766C95.1852 103.244 95.1485 103.746 95.1485 104.235V104.248Z" fill="url(#paint8_linear_11971_124767)"/>
<path d="M80.7388 150.558C84.0198 150.766 87.3253 150.717 90.6063 150.779C94.4382 150.84 98.368 151.317 102.065 150.644C107.379 149.677 113.353 146.212 115.324 141.083C117.148 136.332 116.291 130.664 113.145 126.673C112.924 126.404 112.692 126.134 112.435 125.865C109.252 122.388 104.318 120.564 99.6168 121.188C93.7771 121.96 88.6352 126.551 87.1172 132.243C86.1745 135.794 86.9947 139.564 86.4438 143.176C85.9908 146.163 83.4322 149.224 80.7266 150.558H80.7388Z" fill="url(#paint9_linear_11971_124767)"/>
<path d="M113.563 90.6953C113.27 91.589 113.625 92.5562 114.004 93.4131C118.877 104.272 131.927 111.618 131.474 124.668C131.266 130.569 128.328 137.498 123.394 141C123.039 141.257 122.709 141.477 122.292 141.6C121.35 139.837 121.252 137.266 120.456 135.332C119.452 132.895 118.13 130.508 116.281 128.623C114.506 126.823 112.29 125.782 110.515 124.019C106.793 120.298 104.443 115.205 104.137 109.941C103.696 102.448 107.442 95.0047 113.576 90.7198L113.563 90.6953Z" fill="url(#paint10_linear_11971_124767)"/>
<path d="M79.6733 116.895C79.6733 116.895 79.502 113.626 82.8564 113.785C82.8564 113.785 84.0807 117.36 79.6733 116.895Z" fill="white"/>
<path d="M78.5581 140.764C81.6278 140.764 84.1162 138.276 84.1162 135.206C84.1162 132.136 81.6278 129.648 78.5581 129.648C75.4884 129.648 73 132.136 73 135.206C73 138.276 75.4884 140.764 78.5581 140.764Z" fill="url(#paint11_linear_11971_124767)"/>
<path d="M47 22C51.95 22 56 26.05 56 31C56 35.95 51.95 40 47 40C42.05 40 38 35.95 38 31C38 26.05 42.05 22 47 22ZM47 23.8C45.29 23.8 43.76 24.34 42.59 25.33L52.67 35.41C53.57 34.15 54.2 32.62 54.2 31C54.2 27.04 50.96 23.8 47 23.8ZM51.41 36.67L41.33 26.59C40.34 27.76 39.8 29.29 39.8 31C39.8 34.96 43.04 38.2 47 38.2C48.71 38.2 50.24 37.66 51.41 36.67Z" fill="#EF4444"/>
<defs>
<linearGradient id="paint0_linear_11971_124767" x1="452.741" y1="95.7949" x2="452.741" y2="121.943" gradientUnits="userSpaceOnUse">
<stop stop-color="#8807F7"/>
<stop offset="1" stop-color="#E8356D"/>
</linearGradient>
<linearGradient id="paint1_linear_11971_124767" x1="465.499" y1="119.272" x2="465.499" y2="151" gradientUnits="userSpaceOnUse">
<stop stop-color="#8807F7"/>
<stop offset="1" stop-color="#E8356D"/>
</linearGradient>
<linearGradient id="paint2_linear_11971_124767" x1="484.794" y1="83" x2="484.794" y2="136.958" gradientUnits="userSpaceOnUse">
<stop stop-color="#8807F7"/>
<stop offset="1" stop-color="#E8356D"/>
</linearGradient>
<linearGradient id="paint3_linear_11971_124767" x1="445.558" y1="128.367" x2="445.558" y2="140.15" gradientUnits="userSpaceOnUse">
<stop stop-color="#8807F7"/>
<stop offset="1" stop-color="#E8356D"/>
</linearGradient>
<linearGradient id="paint4_linear_11971_124767" x1="261.479" y1="113.086" x2="281.532" y2="113.039" gradientUnits="userSpaceOnUse">
<stop stop-color="#8807F7"/>
<stop offset="0.40625" stop-color="#520BB3"/>
<stop offset="1" stop-color="#EA00BE"/>
</linearGradient>
<linearGradient id="paint5_linear_11971_124767" x1="267.129" y1="140.254" x2="304.431" y2="140.119" gradientUnits="userSpaceOnUse">
<stop stop-color="#8807F7"/>
<stop offset="0.40625" stop-color="#520BB3"/>
<stop offset="1" stop-color="#EA00BE"/>
</linearGradient>
<linearGradient id="paint6_linear_11971_124767" x1="289.953" y1="118.682" x2="318.691" y2="118.635" gradientUnits="userSpaceOnUse">
<stop stop-color="#8807F7"/>
<stop offset="0.40625" stop-color="#520BB3"/>
<stop offset="1" stop-color="#EA00BE"/>
</linearGradient>
<linearGradient id="paint7_linear_11971_124767" x1="257.751" y1="136.159" x2="269.417" y2="136.124" gradientUnits="userSpaceOnUse">
<stop stop-color="#8807F7"/>
<stop offset="0.40625" stop-color="#520BB3"/>
<stop offset="1" stop-color="#EA00BE"/>
</linearGradient>
<linearGradient id="paint8_linear_11971_124767" x1="76.2472" y1="101.562" x2="98.1909" y2="111.225" gradientUnits="userSpaceOnUse">
<stop stop-color="#4E2672"/>
<stop offset="0.53125" stop-color="#D76E77"/>
<stop offset="1" stop-color="#FAA77A"/>
</linearGradient>
<linearGradient id="paint9_linear_11971_124767" x1="80.8376" y1="119.606" x2="114.315" y2="142.207" gradientUnits="userSpaceOnUse">
<stop stop-color="#4E2672"/>
<stop offset="0.53125" stop-color="#D76E77"/>
<stop offset="1" stop-color="#FAA77A"/>
</linearGradient>
<linearGradient id="paint10_linear_11971_124767" x1="104.187" y1="88.2097" x2="138.522" y2="98.711" gradientUnits="userSpaceOnUse">
<stop stop-color="#4E2672"/>
<stop offset="0.53125" stop-color="#D76E77"/>
<stop offset="1" stop-color="#FAA77A"/>
</linearGradient>
<linearGradient id="paint11_linear_11971_124767" x1="73.0347" y1="129.105" x2="84.5533" y2="135.654" gradientUnits="userSpaceOnUse">
<stop stop-color="#4E2672"/>
<stop offset="0.53125" stop-color="#D76E77"/>
<stop offset="1" stop-color="#FAA77A"/>
</linearGradient>
</defs>
</svg>
