<svg width="1440" height="497" viewBox="0 0 1440 497" fill="none" xmlns="http://www.w3.org/2000/svg">
<g clip-path="url(#clip0_4993_85979)">
<rect width="1440" height="768" fill="#EA487B"/>
<rect opacity="0.18" width="26.1939" height="461" rx="13.097" transform="matrix(-0.641595 -0.767044 -0.767044 0.641595 264.414 221.092)" fill="#E82562"/>
<rect opacity="0.18" width="40.3007" height="577.157" rx="20.1503" transform="matrix(-0.641595 -0.767044 -0.767044 0.641595 595.562 109.387)" fill="#E82562"/>
<rect opacity="0.18" width="40.3007" height="577.157" rx="20.1503" transform="matrix(-0.641595 -0.767044 -0.767044 0.641595 1211.56 162.912)" fill="#E51A5A"/>
<rect opacity="0.18" width="40.3007" height="206.366" rx="20.1503" transform="matrix(-0.641595 -0.767044 -0.767044 0.641595 1049.15 483.81)" fill="#E51A5A"/>
<rect opacity="0.18" width="40.3007" height="206.366" rx="20.1503" transform="matrix(-0.641595 -0.767044 -0.767044 0.641595 1243.15 465.912)" fill="#E51A5A"/>
<rect opacity="0.35" width="247.607" height="602.735" rx="100" transform="matrix(-0.641595 -0.767044 -0.767044 0.641595 879.176 274.686)" fill="#E51A5A"/>
</g>
<defs>
<clipPath id="clip0_4993_85979">
<rect width="1440" height="497" fill="white"/>
</clipPath>
</defs>
</svg>
