<svg width="492" height="392" viewBox="0 0 492 392" fill="none" xmlns="http://www.w3.org/2000/svg">
<path opacity="0.3" d="M382.493 104.011C382.721 104.044 382.953 104.023 383.17 103.951C383.388 103.878 383.586 103.755 383.748 103.592C383.91 103.429 384.031 103.231 384.102 103.012C384.173 102.794 384.192 102.562 384.158 102.335C384.123 102.108 384.035 101.892 383.902 101.705C383.768 101.518 383.593 101.365 383.39 101.258C383.187 101.151 382.961 101.093 382.731 101.089C382.502 101.085 382.274 101.135 382.068 101.235L376.502 102.102L376.34 101.044L381.906 100.178C382.189 100.041 382.421 99.8173 382.567 99.5392C382.713 99.261 382.767 98.9433 382.719 98.6326C382.671 98.322 382.525 98.0348 382.302 97.8133C382.079 97.5919 381.791 97.4478 381.48 97.4023L375.9 98.2834L374.71 90.6031L357.999 75.5068L139.088 477.878L155.858 489.215L430.088 446.482L427.033 426.804L432.599 425.937C432.828 425.974 433.062 425.957 433.283 425.886C433.503 425.815 433.704 425.693 433.869 425.53C434.033 425.367 434.157 425.167 434.229 424.947C434.302 424.727 434.321 424.493 434.286 424.264C434.25 424.035 434.161 423.817 434.026 423.629C433.89 423.441 433.712 423.288 433.506 423.182C433.3 423.076 433.072 423.02 432.84 423.019C432.609 423.018 432.38 423.072 432.173 423.176L426.593 424.043L426.431 422.971L432.012 422.104C432.192 422.078 432.366 422.015 432.523 421.921C432.679 421.826 432.815 421.702 432.923 421.554C433.031 421.406 433.109 421.239 433.151 421.061C433.194 420.883 433.201 420.699 433.172 420.518C433.1 420.158 432.896 419.837 432.6 419.62C432.304 419.402 431.936 419.304 431.571 419.344L426.005 420.21L424.39 409.857L429.97 408.991C430.241 408.853 430.463 408.634 430.604 408.365C430.745 408.095 430.8 407.789 430.759 407.488C430.719 407.186 430.586 406.905 430.379 406.682C430.172 406.459 429.901 406.307 429.603 406.245L424.038 407.111L423.876 406.054L429.442 405.187C429.725 405.051 429.956 404.827 430.103 404.549C430.249 404.27 430.302 403.953 430.255 403.642C430.207 403.331 430.061 403.044 429.838 402.823C429.615 402.601 429.327 402.457 429.016 402.412L423.435 403.278L421.835 392.999L427.4 392.117C427.582 392.093 427.757 392.031 427.914 391.937C428.072 391.843 428.209 391.719 428.317 391.571C428.425 391.423 428.503 391.254 428.545 391.076C428.586 390.897 428.592 390.712 428.561 390.531C428.489 390.174 428.288 389.855 427.994 389.638C427.701 389.421 427.338 389.32 426.975 389.357L421.394 390.223L421.233 389.166L426.798 388.299C427.081 388.163 427.313 387.939 427.459 387.661C427.606 387.383 427.659 387.065 427.611 386.754C427.564 386.444 427.418 386.156 427.195 385.935C426.972 385.713 426.683 385.569 426.372 385.524L420.807 386.39L419.191 376.111L424.757 375.244C425.04 375.108 425.272 374.884 425.418 374.606C425.565 374.328 425.618 374.01 425.57 373.699C425.523 373.388 425.376 373.101 425.153 372.88C424.93 372.658 424.642 372.514 424.331 372.469L418.766 373.335L418.589 372.278L424.17 371.411C424.528 371.337 424.845 371.132 425.059 370.836C425.274 370.54 425.37 370.174 425.33 369.811C425.305 369.629 425.244 369.454 425.15 369.297C425.056 369.139 424.931 369.002 424.783 368.894C424.635 368.786 424.467 368.709 424.288 368.667C424.11 368.625 423.925 368.619 423.744 368.651L418.164 369.517L416.563 359.238L422.129 358.371C422.486 358.297 422.804 358.091 423.018 357.795C423.233 357.499 423.329 357.134 423.289 356.77C423.264 356.589 423.202 356.414 423.109 356.256C423.015 356.099 422.89 355.962 422.742 355.854C422.594 355.746 422.426 355.668 422.247 355.626C422.068 355.585 421.883 355.579 421.703 355.61L416.122 356.477L415.961 355.405L421.526 354.538C421.755 354.575 421.989 354.558 422.21 354.487C422.431 354.416 422.631 354.294 422.796 354.131C422.96 353.968 423.084 353.768 423.157 353.548C423.229 353.328 423.248 353.094 423.213 352.865C423.178 352.636 423.089 352.419 422.953 352.23C422.818 352.042 422.64 351.889 422.434 351.783C422.228 351.677 422 351.621 421.768 351.62C421.536 351.619 421.307 351.673 421.101 351.778L415.535 352.644L413.92 342.291L419.485 341.425C419.714 341.462 419.948 341.444 420.169 341.373C420.389 341.303 420.59 341.181 420.755 341.017C420.919 340.854 421.043 340.654 421.115 340.434C421.188 340.214 421.207 339.98 421.172 339.751C421.136 339.522 421.047 339.305 420.912 339.117C420.777 338.929 420.599 338.775 420.393 338.669C420.186 338.563 419.958 338.507 419.727 338.507C419.495 338.506 419.266 338.559 419.059 338.664L413.494 339.53L413.317 338.458L418.898 337.592C419.126 337.627 419.36 337.608 419.58 337.536C419.8 337.463 420 337.34 420.163 337.176C420.326 337.012 420.448 336.812 420.519 336.592C420.59 336.371 420.608 336.138 420.572 335.909C420.536 335.68 420.446 335.464 420.309 335.277C420.173 335.09 419.995 334.937 419.789 334.832C419.583 334.727 419.355 334.672 419.123 334.672C418.892 334.672 418.664 334.726 418.457 334.831L412.892 335.697L411.276 325.344L416.857 324.478C417.085 324.513 417.319 324.494 417.539 324.422C417.759 324.35 417.958 324.226 418.122 324.062C418.285 323.898 418.407 323.698 418.478 323.478C418.549 323.258 418.567 323.024 418.531 322.795C418.494 322.567 418.404 322.35 418.268 322.163C418.132 321.976 417.954 321.823 417.748 321.718C417.541 321.613 417.313 321.558 417.082 321.558C416.851 321.558 416.622 321.612 416.416 321.717L410.85 322.584L410.689 321.512L416.254 320.645C416.612 320.574 416.931 320.372 417.148 320.079C417.365 319.786 417.465 319.422 417.429 319.059C417.358 318.699 417.154 318.378 416.858 318.16C416.561 317.943 416.194 317.844 415.829 317.884L410.248 318.751L408.648 308.471L414.213 307.605C414.571 307.534 414.89 307.332 415.107 307.039C415.324 306.745 415.424 306.382 415.388 306.019C415.317 305.658 415.113 305.337 414.816 305.12C414.52 304.902 414.153 304.804 413.787 304.844L408.222 305.71L408.046 304.653L413.626 303.787C413.909 303.649 414.141 303.424 414.286 303.145C414.432 302.865 414.484 302.547 414.434 302.236C414.385 301.925 414.237 301.638 414.012 301.417C413.787 301.197 413.497 301.054 413.185 301.011L407.62 301.878L406.004 291.598L411.585 290.732C411.868 290.594 412.099 290.369 412.245 290.09C412.391 289.81 412.443 289.492 412.393 289.181C412.344 288.869 412.196 288.583 411.971 288.362C411.746 288.142 411.456 287.999 411.144 287.956L405.578 288.823L405.417 287.765L410.983 286.899C411.266 286.762 411.497 286.538 411.644 286.26C411.79 285.982 411.843 285.664 411.796 285.354C411.748 285.043 411.602 284.756 411.379 284.534C411.156 284.313 410.868 284.169 410.557 284.123L404.976 285.004L403.376 274.725L408.941 273.858C409.224 273.722 409.456 273.498 409.602 273.22C409.749 272.942 409.802 272.624 409.754 272.313C409.707 272.003 409.561 271.715 409.338 271.494C409.115 271.273 408.826 271.128 408.515 271.083L402.935 271.949L402.774 270.892L408.339 270.026C408.568 270.063 408.802 270.045 409.023 269.974C409.243 269.904 409.444 269.782 409.609 269.619C409.773 269.455 409.897 269.255 409.969 269.035C410.042 268.815 410.061 268.581 410.026 268.352C409.99 268.123 409.901 267.906 409.766 267.718C409.631 267.53 409.453 267.376 409.247 267.27C409.041 267.164 408.812 267.109 408.581 267.108C408.349 267.107 408.12 267.16 407.913 267.265L402.348 268.131L400.732 257.778L406.298 256.912C406.527 256.949 406.761 256.931 406.982 256.861C407.202 256.79 407.403 256.668 407.568 256.505C407.732 256.342 407.856 256.142 407.928 255.922C408.001 255.702 408.02 255.467 407.985 255.238C407.949 255.009 407.86 254.792 407.725 254.604C407.589 254.416 407.411 254.263 407.205 254.157C406.999 254.051 406.771 253.995 406.539 253.994C406.308 253.993 406.079 254.047 405.872 254.151L400.306 255.017L400.145 253.945L405.711 253.079C405.988 252.939 406.213 252.716 406.355 252.44C406.497 252.164 406.548 251.85 406.501 251.544C406.453 251.237 406.31 250.954 406.092 250.733C405.873 250.513 405.591 250.368 405.285 250.318L399.704 251.185L398.104 240.905L403.669 240.039C403.946 239.899 404.172 239.675 404.314 239.399C404.456 239.124 404.507 238.81 404.46 238.504C404.412 238.197 404.269 237.913 404.051 237.693C403.832 237.473 403.55 237.328 403.243 237.278L397.663 238.144L397.502 237.072L403.067 236.206C403.425 236.135 403.744 235.933 403.961 235.64C404.178 235.346 404.278 234.983 404.242 234.62C404.171 234.259 403.967 233.938 403.67 233.721C403.374 233.503 403.007 233.405 402.641 233.445L397.076 234.311L395.46 223.958L401.026 223.092C401.255 223.129 401.489 223.112 401.71 223.041C401.93 222.97 402.131 222.848 402.296 222.685C402.46 222.522 402.584 222.322 402.656 222.102C402.729 221.882 402.748 221.648 402.713 221.419C402.677 221.19 402.588 220.972 402.453 220.784C402.317 220.596 402.139 220.443 401.933 220.337C401.727 220.231 401.499 220.175 401.267 220.174C401.036 220.173 400.807 220.227 400.6 220.331L395.034 221.198L394.858 220.14L400.439 219.274C400.722 219.136 400.953 218.911 401.099 218.632C401.245 218.353 401.297 218.034 401.247 217.723C401.198 217.412 401.05 217.125 400.825 216.904C400.6 216.684 400.31 216.542 399.998 216.498L394.432 217.365L392.817 207.085L398.397 206.204C398.674 206.065 398.9 205.841 399.042 205.565C399.184 205.289 399.235 204.976 399.188 204.669C399.14 204.363 398.997 204.079 398.779 203.859C398.56 203.638 398.278 203.493 397.971 203.443L392.391 204.31L392.23 203.252L397.795 202.386C398.078 202.249 398.31 202.026 398.456 201.747C398.603 201.469 398.656 201.152 398.608 200.841C398.561 200.53 398.415 200.243 398.192 200.022C397.969 199.8 397.68 199.656 397.369 199.611L391.804 200.477L390.188 190.197L395.754 189.331C395.981 189.364 396.213 189.344 396.431 189.271C396.649 189.198 396.847 189.076 397.009 188.913C397.171 188.75 397.292 188.551 397.363 188.333C397.434 188.114 397.453 187.882 397.418 187.655C397.383 187.428 397.296 187.213 397.162 187.026C397.029 186.839 396.854 186.685 396.65 186.578C396.447 186.471 396.222 186.414 395.992 186.41C395.762 186.406 395.535 186.456 395.328 186.556L389.763 187.422L389.586 186.365L395.167 185.498C395.395 185.534 395.629 185.514 395.849 185.442C396.069 185.37 396.269 185.247 396.432 185.083C396.595 184.919 396.717 184.718 396.788 184.498C396.859 184.278 396.877 184.044 396.841 183.815C396.804 183.587 396.714 183.37 396.578 183.183C396.442 182.996 396.264 182.844 396.058 182.739C395.852 182.633 395.623 182.579 395.392 182.578C395.161 182.578 394.932 182.633 394.726 182.737L389.16 183.604L387.545 173.324L393.125 172.458C393.403 172.317 393.628 172.092 393.769 171.815C393.91 171.538 393.96 171.224 393.911 170.917C393.862 170.61 393.717 170.327 393.497 170.107C393.276 169.888 392.992 169.744 392.685 169.697L387.119 170.563L386.958 169.491L392.523 168.625C392.752 168.662 392.986 168.645 393.207 168.574C393.428 168.503 393.628 168.381 393.793 168.218C393.957 168.055 394.081 167.855 394.153 167.635C394.226 167.415 394.245 167.181 394.21 166.952C394.175 166.723 394.086 166.505 393.95 166.317C393.815 166.129 393.637 165.976 393.431 165.87C393.225 165.764 392.996 165.708 392.765 165.707C392.533 165.706 392.304 165.76 392.097 165.864L386.517 166.731L384.916 156.378L390.482 155.511C390.711 155.548 390.945 155.531 391.166 155.46C391.386 155.389 391.587 155.267 391.752 155.104C391.916 154.941 392.04 154.741 392.112 154.521C392.185 154.301 392.204 154.067 392.169 153.838C392.133 153.609 392.044 153.391 391.909 153.203C391.774 153.015 391.595 152.862 391.389 152.756C391.183 152.65 390.955 152.594 390.724 152.593C390.492 152.592 390.263 152.646 390.056 152.75L384.476 153.617L384.314 152.545L389.895 151.678C390.172 151.538 390.397 151.313 390.538 151.036C390.68 150.759 390.729 150.444 390.68 150.138C390.631 149.831 390.486 149.547 390.266 149.328C390.045 149.109 389.761 148.965 389.454 148.918L383.888 149.784L382.273 139.431L387.853 138.565C388.131 138.424 388.356 138.199 388.497 137.922C388.638 137.645 388.688 137.331 388.639 137.024C388.59 136.717 388.445 136.433 388.225 136.214C388.004 135.995 387.72 135.851 387.413 135.804L381.847 136.67L381.686 135.598L387.251 134.732C387.609 134.661 387.928 134.459 388.145 134.166C388.362 133.872 388.462 133.509 388.426 133.146C388.355 132.785 388.151 132.464 387.854 132.247C387.558 132.029 387.191 131.931 386.826 131.971L381.245 132.837L379.645 122.484L385.21 121.618C385.568 121.547 385.887 121.345 386.104 121.052C386.321 120.759 386.421 120.395 386.385 120.032C386.314 119.671 386.11 119.351 385.813 119.133C385.517 118.916 385.15 118.817 384.784 118.857L379.204 119.724L379.042 118.666L384.608 117.8C384.891 117.663 385.123 117.439 385.269 117.161C385.416 116.883 385.469 116.565 385.421 116.255C385.373 115.944 385.227 115.657 385.004 115.435C384.781 115.214 384.493 115.07 384.182 115.024L378.617 115.891L377.001 105.611L382.493 104.011Z" fill="black"/>
<path d="M147.943 481.711L402.215 442.15L345.472 77.4453L91.1851 117.095C89.6432 117.335 88.1636 117.876 86.8309 118.688C85.4982 119.5 84.3385 120.566 83.418 121.826C82.4975 123.086 81.8342 124.515 81.4661 126.032C81.098 127.548 81.0323 129.122 81.2726 130.664L134.433 471.799C134.914 474.903 136.606 477.689 139.139 479.548C141.672 481.406 144.838 482.184 147.943 481.711Z" fill="#263238" stroke="#263238" stroke-miterlimit="10" stroke-linecap="round"/>
<path d="M146.051 426.407L131.541 428.667C130.521 428.826 129.48 428.573 128.646 427.964C127.813 427.355 127.255 426.44 127.097 425.42L121.991 392.627C121.832 391.607 122.085 390.566 122.694 389.733C123.302 388.899 124.217 388.342 125.237 388.183L139.747 385.924L146.051 426.407Z" fill="#E8356D" stroke="#263238" stroke-miterlimit="10" stroke-linecap="round"/>
<path d="M139.41 383.779L124.9 386.038C123.88 386.197 122.839 385.944 122.006 385.335C121.172 384.726 120.615 383.811 120.456 382.792L115.35 349.998C115.191 348.979 115.444 347.937 116.053 347.104C116.662 346.271 117.577 345.713 118.597 345.554L133.107 343.295L139.41 383.779Z" fill="white" stroke="#263238" stroke-miterlimit="10" stroke-linecap="round"/>
<path d="M132.799 341.237L118.289 343.497C117.269 343.655 116.228 343.403 115.394 342.794C114.561 342.185 114.003 341.27 113.845 340.25L108.739 307.457C108.58 306.437 108.833 305.396 109.442 304.563C110.05 303.729 110.965 303.172 111.985 303.013L126.495 300.754L132.799 341.237Z" fill="#E8356D" stroke="#263238" stroke-miterlimit="10" stroke-linecap="round"/>
<path d="M105.416 260.451L114.095 259.1L91.9648 116.948L358 75.5508L414.743 440.24L148.723 481.594L120.395 299.587L111.716 300.938C110.702 301.089 109.669 300.833 108.843 300.225C108.018 299.617 107.467 298.706 107.311 297.692L102.127 264.9C102.048 264.392 102.07 263.873 102.193 263.373C102.316 262.873 102.537 262.403 102.843 261.989C103.149 261.575 103.534 261.226 103.976 260.962C104.417 260.698 104.907 260.524 105.416 260.451Z" fill="white" stroke="#263238" stroke-miterlimit="10" stroke-linecap="round"/>
<path d="M133.859 194.603L134.74 214.531L234.012 198.333L231.412 181.651L133.859 194.603Z" fill="#E8356D"/>
<path d="M343.211 97.8575C343.358 98.8784 343.805 99.8326 344.495 100.599C345.186 101.365 346.089 101.908 347.089 102.16C348.089 102.411 349.142 102.359 350.112 102.011C351.083 101.663 351.928 101.034 352.541 100.204C353.153 99.3735 353.504 98.3801 353.55 97.3498C353.596 96.3194 353.335 95.2987 352.799 94.4174C352.263 93.5362 351.477 92.8342 350.541 92.4007C349.605 91.9673 348.562 91.8221 347.543 91.9835C346.194 92.1972 344.984 92.9332 344.173 94.0324C343.362 95.1316 343.017 96.5056 343.211 97.8575Z" fill="#263238" stroke="#263238" stroke-miterlimit="10" stroke-linecap="round"/>
<path d="M348.835 96.2422L364.372 93.8192C364.73 93.7447 365.047 93.5393 365.261 93.2433C365.476 92.9473 365.572 92.5819 365.532 92.2185C365.457 91.8606 365.252 91.5433 364.956 91.3288C364.66 91.1142 364.295 91.0178 363.931 91.0584L348.453 93.4521C348.092 93.5234 347.772 93.7274 347.554 94.0238C347.337 94.3201 347.238 94.6873 347.278 95.0527C347.346 95.4078 347.542 95.7255 347.829 95.945C348.116 96.1645 348.475 96.2703 348.835 96.2422Z" fill="white" stroke="#263238" stroke-miterlimit="10" stroke-linecap="round"/>
<path d="M349.48 100.06L364.987 97.6519C365.348 97.5806 365.669 97.3766 365.886 97.0802C366.104 96.7838 366.202 96.4167 366.162 96.0512C366.091 95.6906 365.887 95.3698 365.591 95.1523C365.294 94.9348 364.927 94.8364 364.561 94.8764L349.025 97.2995C348.667 97.374 348.349 97.5793 348.135 97.8754C347.92 98.1714 347.824 98.5368 347.865 98.9002C347.939 99.2609 348.147 99.5804 348.446 99.7953C348.745 100.01 349.114 100.105 349.48 100.06Z" fill="white" stroke="#263238" stroke-miterlimit="10" stroke-linecap="round"/>
<path d="M345.899 114.79C346.043 115.808 346.486 116.761 347.172 117.528C347.858 118.294 348.756 118.84 349.753 119.096C350.749 119.352 351.799 119.306 352.77 118.965C353.74 118.624 354.588 118.003 355.205 117.18C355.822 116.357 356.181 115.369 356.237 114.342C356.293 113.315 356.042 112.294 355.518 111.409C354.993 110.525 354.218 109.815 353.29 109.371C352.362 108.927 351.323 108.769 350.305 108.915C348.942 109.112 347.713 109.841 346.887 110.942C346.061 112.043 345.706 113.427 345.899 114.79Z" fill="#263238" stroke="#263238" stroke-miterlimit="10" stroke-linecap="round"/>
<path d="M351.524 113.174L367.046 110.766C367.407 110.694 367.727 110.49 367.945 110.194C368.162 109.898 368.261 109.53 368.221 109.165C368.149 108.804 367.945 108.484 367.649 108.266C367.353 108.049 366.986 107.95 366.62 107.99L351.083 110.413C350.725 110.488 350.408 110.693 350.194 110.989C349.979 111.285 349.883 111.651 349.923 112.014C349.998 112.372 350.203 112.689 350.499 112.904C350.795 113.118 351.16 113.215 351.524 113.174Z" fill="white" stroke="#263238" stroke-miterlimit="10" stroke-linecap="round"/>
<path d="M352.109 116.948L367.646 114.54C368.004 114.465 368.321 114.26 368.536 113.964C368.751 113.668 368.847 113.303 368.806 112.939C368.735 112.579 368.531 112.258 368.235 112.04C367.938 111.823 367.571 111.724 367.206 111.764L351.684 114.187C351.323 114.259 351.002 114.463 350.785 114.759C350.567 115.055 350.469 115.423 350.509 115.788C350.583 116.146 350.789 116.463 351.085 116.678C351.381 116.892 351.746 116.989 352.109 116.948Z" fill="white" stroke="#263238" stroke-miterlimit="10" stroke-linecap="round"/>
<path d="M348.481 131.736C348.627 132.757 349.074 133.711 349.765 134.477C350.455 135.243 351.358 135.786 352.359 136.038C353.359 136.289 354.411 136.238 355.382 135.889C356.353 135.541 357.198 134.912 357.81 134.082C358.422 133.252 358.774 132.258 358.82 131.228C358.866 130.198 358.604 129.177 358.068 128.296C357.533 127.415 356.747 126.713 355.811 126.279C354.875 125.846 353.831 125.701 352.813 125.862C351.464 126.076 350.253 126.812 349.442 127.911C348.632 129.01 348.286 130.384 348.481 131.736Z" fill="#263238" stroke="#263238" stroke-miterlimit="10" stroke-linecap="round"/>
<path d="M354.152 130.165L369.689 127.756C370.047 127.682 370.364 127.477 370.579 127.181C370.794 126.884 370.89 126.519 370.849 126.156C370.778 125.795 370.574 125.474 370.278 125.257C369.981 125.039 369.614 124.941 369.249 124.981L353.727 127.404C353.366 127.475 353.045 127.679 352.828 127.976C352.61 128.272 352.512 128.639 352.552 129.005C352.626 129.363 352.832 129.68 353.128 129.894C353.424 130.109 353.789 130.205 354.152 130.165Z" fill="white" stroke="#263238" stroke-miterlimit="10" stroke-linecap="round"/>
<path d="M354.711 133.953L370.234 131.53C370.591 131.459 370.91 131.257 371.127 130.964C371.344 130.671 371.445 130.307 371.408 129.944C371.337 129.584 371.133 129.263 370.837 129.045C370.54 128.828 370.173 128.729 369.808 128.769L354.286 131.193C353.928 131.264 353.609 131.466 353.392 131.759C353.175 132.052 353.075 132.415 353.111 132.779C353.182 133.139 353.386 133.46 353.682 133.677C353.979 133.895 354.346 133.993 354.711 133.953Z" fill="white" stroke="#263238" stroke-miterlimit="10" stroke-linecap="round"/>
<path d="M351.114 148.683C351.258 149.701 351.701 150.654 352.387 151.421C353.073 152.187 353.971 152.733 354.968 152.989C355.964 153.245 357.014 153.199 357.985 152.858C358.955 152.517 359.803 151.896 360.42 151.073C361.037 150.25 361.396 149.262 361.452 148.235C361.508 147.208 361.257 146.187 360.733 145.302C360.208 144.418 359.432 143.708 358.504 143.264C357.576 142.82 356.538 142.662 355.519 142.809C354.157 143.005 352.928 143.734 352.102 144.835C351.276 145.936 350.921 147.32 351.114 148.683Z" fill="#263238" stroke="#263238" stroke-miterlimit="10" stroke-linecap="round"/>
<path d="M356.795 147.068L372.332 144.645C372.69 144.573 373.008 144.372 373.226 144.078C373.443 143.785 373.543 143.422 373.507 143.059C373.435 142.698 373.231 142.377 372.935 142.16C372.639 141.942 372.272 141.844 371.906 141.884L356.369 144.307C356.188 144.334 356.015 144.396 355.858 144.491C355.702 144.585 355.566 144.71 355.458 144.857C355.35 145.005 355.272 145.172 355.23 145.35C355.187 145.528 355.18 145.712 355.209 145.893C355.28 146.251 355.482 146.569 355.775 146.786C356.069 147.004 356.432 147.104 356.795 147.068Z" fill="white" stroke="#263238" stroke-miterlimit="10" stroke-linecap="round"/>
<path d="M357.382 150.9L372.919 148.477C373.101 148.45 373.276 148.387 373.434 148.292C373.592 148.196 373.728 148.07 373.837 147.921C373.945 147.772 374.022 147.603 374.064 147.423C374.105 147.244 374.11 147.058 374.079 146.876C374.052 146.696 373.99 146.522 373.895 146.365C373.801 146.209 373.676 146.073 373.529 145.965C373.381 145.857 373.214 145.779 373.036 145.737C372.858 145.694 372.674 145.687 372.493 145.716L356.956 148.125C356.598 148.199 356.281 148.404 356.067 148.7C355.852 148.996 355.756 149.362 355.796 149.725C355.867 150.083 356.069 150.402 356.362 150.619C356.656 150.836 357.019 150.936 357.382 150.9Z" fill="white" stroke="#263238" stroke-miterlimit="10" stroke-linecap="round"/>
<path d="M353.75 165.629C353.897 166.65 354.344 167.604 355.034 168.37C355.725 169.136 356.628 169.679 357.628 169.931C358.628 170.183 359.681 170.131 360.651 169.783C361.622 169.434 362.467 168.805 363.08 167.975C363.692 167.145 364.043 166.152 364.089 165.121C364.135 164.091 363.874 163.07 363.338 162.189C362.802 161.308 362.016 160.606 361.08 160.172C360.145 159.739 359.101 159.594 358.082 159.755C356.733 159.969 355.523 160.705 354.712 161.804C353.901 162.903 353.556 164.277 353.75 165.629Z" fill="#263238" stroke="#263238" stroke-miterlimit="10" stroke-linecap="round"/>
<path d="M359.421 164.014L374.958 161.591C375.316 161.516 375.633 161.311 375.848 161.015C376.062 160.719 376.159 160.353 376.118 159.99C376.091 159.809 376.029 159.636 375.934 159.479C375.84 159.323 375.715 159.186 375.568 159.079C375.42 158.971 375.253 158.893 375.075 158.85C374.897 158.808 374.713 158.801 374.532 158.83L358.995 161.238C358.637 161.313 358.32 161.518 358.106 161.814C357.891 162.11 357.795 162.476 357.835 162.839C357.906 163.197 358.108 163.515 358.401 163.733C358.695 163.95 359.058 164.05 359.421 164.014Z" fill="white" stroke="#263238" stroke-miterlimit="10" stroke-linecap="round"/>
<path d="M360.027 167.847L375.55 165.409C375.91 165.338 376.231 165.134 376.448 164.837C376.666 164.541 376.764 164.174 376.724 163.808C376.65 163.45 376.444 163.133 376.148 162.919C375.852 162.704 375.487 162.608 375.124 162.648L359.602 165.057C359.241 165.128 358.92 165.332 358.703 165.628C358.485 165.925 358.387 166.292 358.427 166.657C358.495 167.021 358.697 167.345 358.994 167.565C359.291 167.786 359.66 167.886 360.027 167.847Z" fill="white" stroke="#263238" stroke-miterlimit="10" stroke-linecap="round"/>
<path d="M356.38 182.576C356.538 183.589 356.992 184.532 357.685 185.288C358.378 186.044 359.278 186.578 360.274 186.823C361.269 187.068 362.315 187.013 363.279 186.666C364.244 186.318 365.084 185.693 365.694 184.869C366.304 184.046 366.657 183.06 366.709 182.036C366.76 181.012 366.508 179.996 365.983 179.115C365.459 178.234 364.685 177.528 363.761 177.086C362.836 176.643 361.801 176.484 360.786 176.628C360.104 176.725 359.448 176.956 358.857 177.309C358.265 177.661 357.749 178.128 357.34 178.681C356.93 179.234 356.634 179.863 356.469 180.532C356.304 181.201 356.274 181.895 356.38 182.576Z" fill="#263238" stroke="#263238" stroke-miterlimit="10" stroke-linecap="round"/>
<path d="M362.053 180.96L377.575 178.537C377.936 178.466 378.256 178.262 378.474 177.966C378.691 177.669 378.79 177.302 378.75 176.937C378.675 176.579 378.47 176.261 378.174 176.047C377.878 175.832 377.512 175.736 377.149 175.776L361.627 178.185C361.266 178.256 360.946 178.46 360.728 178.756C360.51 179.053 360.412 179.42 360.452 179.785C360.523 180.146 360.727 180.467 361.024 180.684C361.32 180.902 361.687 181 362.053 180.96Z" fill="white" stroke="#263238" stroke-miterlimit="10" stroke-linecap="round"/>
<path d="M362.669 184.779L378.206 182.37C378.567 182.299 378.888 182.095 379.105 181.799C379.323 181.502 379.421 181.135 379.381 180.77C379.31 180.409 379.106 180.088 378.809 179.871C378.513 179.653 378.146 179.555 377.78 179.595L362.243 182.018C361.886 182.092 361.568 182.298 361.354 182.594C361.139 182.89 361.043 183.255 361.083 183.619C361.158 183.974 361.361 184.289 361.654 184.503C361.947 184.717 362.308 184.815 362.669 184.779Z" fill="white" stroke="#263238" stroke-miterlimit="10" stroke-linecap="round"/>
<path d="M359.029 199.508C359.176 200.529 359.623 201.483 360.314 202.249C361.004 203.015 361.907 203.558 362.907 203.81C363.908 204.061 364.96 204.009 365.931 203.661C366.902 203.313 367.747 202.684 368.359 201.854C368.971 201.024 369.322 200.03 369.368 199C369.414 197.97 369.153 196.949 368.617 196.068C368.081 195.186 367.296 194.484 366.36 194.051C365.424 193.617 364.38 193.472 363.362 193.634C362.013 193.847 360.802 194.583 359.991 195.683C359.181 196.782 358.835 198.156 359.029 199.508Z" fill="#263238" stroke="#263238" stroke-miterlimit="10" stroke-linecap="round"/>
<path d="M364.697 197.892L380.233 195.484C380.594 195.413 380.915 195.209 381.132 194.912C381.35 194.616 381.448 194.249 381.408 193.883C381.334 193.525 381.128 193.208 380.832 192.994C380.536 192.779 380.171 192.683 379.808 192.723L364.271 195.132C363.913 195.206 363.596 195.411 363.381 195.707C363.166 196.003 363.07 196.369 363.111 196.732C363.136 196.914 363.197 197.089 363.291 197.246C363.385 197.404 363.509 197.541 363.657 197.649C363.805 197.757 363.974 197.835 364.152 197.876C364.331 197.918 364.516 197.924 364.697 197.892Z" fill="white" stroke="#263238" stroke-miterlimit="10" stroke-linecap="round"/>
<path d="M365.297 201.725L380.834 199.317C381.192 199.242 381.509 199.037 381.724 198.741C381.938 198.445 382.034 198.079 381.994 197.716C381.923 197.355 381.719 197.035 381.422 196.817C381.126 196.6 380.759 196.501 380.393 196.541L364.871 198.964C364.51 199.036 364.19 199.24 363.972 199.536C363.755 199.832 363.656 200.2 363.696 200.565C363.771 200.923 363.976 201.24 364.272 201.455C364.568 201.669 364.934 201.766 365.297 201.725Z" fill="white" stroke="#263238" stroke-miterlimit="10" stroke-linecap="round"/>
<path d="M361.668 216.454C361.815 217.475 362.262 218.429 362.952 219.196C363.643 219.962 364.546 220.505 365.546 220.756C366.546 221.008 367.599 220.956 368.569 220.608C369.54 220.26 370.385 219.63 370.998 218.8C371.61 217.97 371.961 216.977 372.007 215.947C372.053 214.916 371.792 213.896 371.256 213.014C370.72 212.133 369.934 211.431 368.998 210.998C368.063 210.564 367.019 210.419 366 210.58C364.651 210.794 363.441 211.53 362.63 212.629C361.819 213.729 361.474 215.103 361.668 216.454Z" fill="#263238" stroke="#263238" stroke-miterlimit="10" stroke-linecap="round"/>
<path d="M367.336 214.839L382.873 212.401C383.231 212.327 383.548 212.122 383.763 211.826C383.977 211.529 384.074 211.164 384.033 210.801C383.962 210.44 383.758 210.119 383.461 209.902C383.165 209.684 382.798 209.586 382.432 209.626L366.91 212.049C366.549 212.12 366.229 212.324 366.011 212.621C365.794 212.917 365.695 213.284 365.735 213.65C365.803 214.013 366.006 214.337 366.303 214.558C366.599 214.778 366.968 214.879 367.336 214.839Z" fill="white" stroke="#263238" stroke-miterlimit="10" stroke-linecap="round"/>
<path d="M367.926 218.672L383.448 216.249C383.806 216.178 384.125 215.976 384.342 215.683C384.559 215.389 384.659 215.026 384.623 214.663C384.552 214.302 384.348 213.981 384.051 213.764C383.755 213.546 383.388 213.448 383.022 213.488L367.486 215.911C367.128 215.986 366.81 216.191 366.596 216.487C366.381 216.783 366.285 217.148 366.325 217.512C366.4 217.87 366.605 218.187 366.901 218.401C367.197 218.616 367.563 218.712 367.926 218.672Z" fill="white" stroke="#263238" stroke-miterlimit="10" stroke-linecap="round"/>
<path d="M364.297 233.401C364.442 234.42 364.885 235.373 365.571 236.139C366.257 236.906 367.155 237.452 368.151 237.708C369.148 237.964 370.198 237.918 371.168 237.577C372.139 237.236 372.986 236.615 373.603 235.792C374.221 234.969 374.58 233.981 374.636 232.954C374.691 231.927 374.441 230.906 373.916 230.021C373.391 229.136 372.616 228.427 371.688 227.983C370.76 227.539 369.721 227.381 368.703 227.527C367.341 227.724 366.112 228.452 365.286 229.554C364.46 230.655 364.104 232.038 364.297 233.401Z" fill="#263238" stroke="#263238" stroke-miterlimit="10" stroke-linecap="round"/>
<path d="M369.986 231.786L385.552 229.377C385.912 229.306 386.233 229.102 386.451 228.806C386.668 228.509 386.767 228.142 386.727 227.777C386.655 227.416 386.451 227.095 386.155 226.878C385.859 226.66 385.491 226.562 385.126 226.602L369.589 229.025C369.231 229.099 368.914 229.305 368.699 229.601C368.485 229.897 368.388 230.262 368.429 230.625C368.503 230.975 368.702 231.286 368.988 231.499C369.275 231.713 369.629 231.815 369.986 231.786Z" fill="white" stroke="#263238" stroke-miterlimit="10" stroke-linecap="round"/>
<path d="M370.573 235.618L386.11 233.195C386.468 233.121 386.785 232.915 386.999 232.619C387.214 232.323 387.31 231.958 387.27 231.595C387.195 231.237 386.99 230.919 386.694 230.705C386.398 230.49 386.032 230.394 385.669 230.434L370.147 232.857C369.789 232.929 369.471 233.13 369.253 233.424C369.036 233.717 368.936 234.08 368.972 234.443C369.043 234.804 369.247 235.125 369.544 235.342C369.84 235.56 370.207 235.658 370.573 235.618Z" fill="white" stroke="#263238" stroke-miterlimit="10" stroke-linecap="round"/>
<path d="M366.942 250.348C367.088 251.369 367.535 252.323 368.226 253.089C368.916 253.855 369.819 254.398 370.819 254.65C371.82 254.901 372.872 254.85 373.843 254.501C374.814 254.153 375.659 253.524 376.271 252.694C376.883 251.864 377.235 250.87 377.281 249.84C377.327 248.81 377.065 247.789 376.529 246.908C375.994 246.026 375.208 245.324 374.272 244.891C373.336 244.458 372.292 244.312 371.274 244.474C369.925 244.687 368.714 245.423 367.903 246.523C367.093 247.622 366.747 248.996 366.942 250.348Z" fill="#263238" stroke="#263238" stroke-miterlimit="10" stroke-linecap="round"/>
<path d="M372.608 248.732L388.145 246.309C388.503 246.235 388.82 246.03 389.034 245.734C389.249 245.437 389.345 245.072 389.305 244.709C389.23 244.351 389.025 244.034 388.729 243.819C388.433 243.604 388.068 243.508 387.704 243.549L372.182 245.972C371.824 246.043 371.506 246.245 371.288 246.538C371.071 246.831 370.971 247.195 371.007 247.558C371.079 247.918 371.283 248.239 371.579 248.457C371.875 248.674 372.242 248.773 372.608 248.732Z" fill="white" stroke="#263238" stroke-miterlimit="10" stroke-linecap="round"/>
<path d="M373.215 252.565L388.737 250.142C389.098 250.071 389.419 249.867 389.636 249.57C389.854 249.274 389.952 248.907 389.912 248.541C389.838 248.183 389.632 247.866 389.336 247.652C389.04 247.437 388.675 247.341 388.311 247.381L372.775 249.79C372.417 249.864 372.099 250.069 371.885 250.365C371.67 250.661 371.574 251.027 371.615 251.39C371.686 251.751 371.89 252.072 372.186 252.289C372.483 252.507 372.85 252.605 373.215 252.565Z" fill="white" stroke="#263238" stroke-miterlimit="10" stroke-linecap="round"/>
<path d="M369.568 267.294C369.726 268.307 370.18 269.251 370.872 270.007C371.565 270.762 372.466 271.296 373.461 271.541C374.457 271.787 375.502 271.732 376.467 271.384C377.431 271.037 378.271 270.412 378.882 269.588C379.492 268.764 379.845 267.778 379.896 266.755C379.948 265.731 379.695 264.714 379.171 263.834C378.646 262.953 377.873 262.247 376.948 261.804C376.023 261.362 374.988 261.203 373.973 261.347C373.292 261.444 372.636 261.675 372.044 262.027C371.453 262.38 370.937 262.846 370.527 263.399C370.117 263.953 369.821 264.582 369.657 265.251C369.492 265.919 369.462 266.614 369.568 267.294Z" fill="#263238" stroke="#263238" stroke-miterlimit="10" stroke-linecap="round"/>
<path d="M375.268 265.679L390.79 263.256C391.151 263.184 391.472 262.98 391.689 262.684C391.907 262.388 392.005 262.02 391.965 261.655C391.89 261.297 391.685 260.98 391.389 260.765C391.093 260.551 390.728 260.454 390.364 260.495L374.827 262.903C374.469 262.978 374.152 263.183 373.938 263.479C373.723 263.775 373.627 264.141 373.667 264.504C373.739 264.865 373.943 265.185 374.239 265.403C374.535 265.62 374.903 265.719 375.268 265.679Z" fill="white" stroke="#263238" stroke-miterlimit="10" stroke-linecap="round"/>
<path d="M375.84 269.497L391.421 267.089C391.779 267.014 392.096 266.809 392.311 266.513C392.525 266.217 392.622 265.852 392.581 265.488C392.556 265.307 392.495 265.132 392.401 264.974C392.307 264.817 392.182 264.68 392.034 264.572C391.886 264.463 391.718 264.386 391.539 264.344C391.361 264.302 391.176 264.297 390.995 264.328L375.414 266.736C375.053 266.808 374.733 267.012 374.515 267.308C374.298 267.605 374.199 267.972 374.239 268.337C374.314 268.695 374.519 269.012 374.815 269.227C375.111 269.441 375.477 269.538 375.84 269.497Z" fill="white" stroke="#263238" stroke-miterlimit="10" stroke-linecap="round"/>
<path d="M372.211 284.226C372.358 285.247 372.805 286.201 373.495 286.967C374.186 287.733 375.089 288.277 376.089 288.528C377.089 288.78 378.142 288.728 379.112 288.38C380.083 288.031 380.928 287.402 381.541 286.572C382.153 285.742 382.504 284.749 382.55 283.718C382.596 282.688 382.335 281.667 381.799 280.786C381.263 279.905 380.477 279.203 379.541 278.769C378.605 278.336 377.562 278.191 376.543 278.352C375.194 278.566 373.984 279.302 373.173 280.401C372.362 281.5 372.017 282.874 372.211 284.226Z" fill="#263238" stroke="#263238" stroke-miterlimit="10" stroke-linecap="round"/>
<path d="M377.879 282.625L393.416 280.202C393.774 280.128 394.091 279.923 394.306 279.627C394.52 279.33 394.616 278.965 394.576 278.602C394.502 278.247 394.298 277.932 394.006 277.717C393.713 277.503 393.351 277.405 392.99 277.442L377.453 279.85C377.092 279.921 376.772 280.125 376.554 280.422C376.337 280.718 376.238 281.085 376.278 281.451C376.35 281.811 376.554 282.132 376.85 282.35C377.146 282.567 377.514 282.666 377.879 282.625Z" fill="white" stroke="#263238" stroke-miterlimit="10" stroke-linecap="round"/>
<path d="M378.488 286.443L394.01 284.035C394.371 283.964 394.692 283.76 394.909 283.463C395.127 283.167 395.225 282.8 395.185 282.434C395.114 282.074 394.91 281.753 394.614 281.535C394.317 281.318 393.95 281.219 393.585 281.259L378.062 283.683C377.702 283.754 377.381 283.958 377.164 284.254C376.946 284.551 376.848 284.918 376.888 285.283C376.962 285.641 377.168 285.958 377.464 286.173C377.76 286.387 378.125 286.484 378.488 286.443Z" fill="white" stroke="#263238" stroke-miterlimit="10" stroke-linecap="round"/>
<path d="M374.842 301.173C374.987 302.191 375.43 303.144 376.116 303.911C376.802 304.677 377.7 305.223 378.696 305.479C379.693 305.735 380.743 305.69 381.713 305.349C382.684 305.008 383.531 304.386 384.148 303.563C384.766 302.74 385.125 301.753 385.181 300.725C385.236 299.698 384.986 298.678 384.461 297.793C383.936 296.908 383.161 296.199 382.233 295.755C381.305 295.311 380.266 295.152 379.248 295.299C377.887 295.499 376.661 296.228 375.836 297.329C375.01 298.429 374.653 299.811 374.842 301.173Z" fill="#263238" stroke="#263238" stroke-miterlimit="10" stroke-linecap="round"/>
<path d="M380.523 299.557L396.046 297.149C396.406 297.078 396.727 296.874 396.945 296.577C397.162 296.281 397.261 295.914 397.22 295.548C397.149 295.188 396.945 294.867 396.649 294.649C396.352 294.432 395.985 294.333 395.62 294.374L380.098 296.797C379.737 296.868 379.416 297.072 379.199 297.368C378.981 297.665 378.883 298.032 378.923 298.397C378.997 298.755 379.203 299.072 379.499 299.287C379.795 299.501 380.16 299.598 380.523 299.557Z" fill="white" stroke="#263238" stroke-miterlimit="10" stroke-linecap="round"/>
<path d="M381.14 303.449L396.677 301.041C397.035 300.966 397.352 300.761 397.567 300.465C397.781 300.169 397.877 299.803 397.837 299.44C397.766 299.082 397.564 298.763 397.271 298.546C396.978 298.329 396.614 298.229 396.251 298.265L380.714 300.688C380.356 300.763 380.039 300.968 379.824 301.264C379.61 301.56 379.513 301.925 379.554 302.289C379.581 302.47 379.643 302.643 379.738 302.8C379.832 302.956 379.957 303.092 380.104 303.2C380.252 303.308 380.42 303.386 380.597 303.429C380.775 303.471 380.96 303.478 381.14 303.449Z" fill="white" stroke="#263238" stroke-miterlimit="10" stroke-linecap="round"/>
<path d="M377.486 318.134C377.633 319.155 378.08 320.109 378.771 320.875C379.461 321.641 380.364 322.185 381.364 322.436C382.365 322.688 383.417 322.636 384.388 322.288C385.359 321.939 386.204 321.31 386.816 320.48C387.428 319.65 387.779 318.657 387.825 317.626C387.871 316.596 387.61 315.575 387.074 314.694C386.538 313.813 385.753 313.111 384.817 312.677C383.881 312.244 382.837 312.099 381.819 312.26C380.47 312.474 379.259 313.21 378.448 314.309C377.638 315.408 377.292 316.782 377.486 318.134Z" fill="#263238" stroke="#263238" stroke-miterlimit="10" stroke-linecap="round"/>
<path d="M383.155 316.504L398.765 314.096C398.947 314.069 399.123 314.006 399.28 313.911C399.438 313.815 399.575 313.689 399.683 313.54C399.791 313.391 399.868 313.222 399.91 313.042C399.951 312.863 399.957 312.677 399.925 312.495C399.854 312.137 399.652 311.819 399.359 311.601C399.066 311.384 398.702 311.284 398.339 311.32L382.729 313.729C382.547 313.755 382.372 313.818 382.214 313.914C382.057 314.009 381.92 314.135 381.812 314.284C381.703 314.433 381.626 314.603 381.585 314.782C381.543 314.962 381.538 315.148 381.569 315.329C381.594 315.511 381.655 315.687 381.749 315.845C381.843 316.003 381.967 316.141 382.115 316.25C382.263 316.36 382.431 316.439 382.609 316.482C382.788 316.526 382.973 316.533 383.155 316.504Z" fill="white" stroke="#263238" stroke-miterlimit="10" stroke-linecap="round"/>
<path d="M383.756 320.337L399.279 317.914C399.461 317.889 399.636 317.827 399.794 317.734C399.952 317.64 400.09 317.515 400.2 317.368C400.309 317.22 400.388 317.052 400.431 316.873C400.475 316.695 400.482 316.509 400.453 316.328C400.382 315.967 400.178 315.646 399.882 315.429C399.585 315.211 399.218 315.113 398.853 315.153L383.33 317.576C382.973 317.647 382.654 317.849 382.437 318.142C382.22 318.435 382.119 318.799 382.156 319.162C382.227 319.522 382.431 319.843 382.727 320.061C383.024 320.278 383.391 320.377 383.756 320.337Z" fill="white" stroke="#263238" stroke-miterlimit="10" stroke-linecap="round"/>
<path d="M380.118 335.066C380.262 336.084 380.705 337.037 381.391 337.804C382.077 338.571 382.975 339.116 383.972 339.372C384.968 339.628 386.018 339.583 386.989 339.242C387.959 338.901 388.807 338.279 389.424 337.456C390.041 336.633 390.4 335.646 390.456 334.619C390.512 333.591 390.261 332.571 389.737 331.686C389.212 330.801 388.436 330.092 387.508 329.648C386.58 329.204 385.542 329.045 384.523 329.192C383.163 329.392 381.936 330.121 381.111 331.222C380.286 332.322 379.929 333.704 380.118 335.066Z" fill="#263238" stroke="#263238" stroke-miterlimit="10" stroke-linecap="round"/>
<path d="M385.795 333.451L401.318 331.028C401.675 330.956 401.994 330.755 402.211 330.461C402.428 330.168 402.529 329.805 402.492 329.442C402.421 329.081 402.217 328.76 401.921 328.543C401.624 328.325 401.257 328.227 400.892 328.267L385.37 330.69C385.012 330.761 384.693 330.963 384.476 331.256C384.259 331.549 384.159 331.913 384.195 332.276C384.266 332.636 384.47 332.957 384.766 333.175C385.063 333.392 385.43 333.491 385.795 333.451Z" fill="white" stroke="#263238" stroke-miterlimit="10" stroke-linecap="round"/>
<path d="M386.397 337.225L401.919 334.802C402.28 334.73 402.6 334.526 402.818 334.23C403.035 333.934 403.134 333.566 403.094 333.201C403.019 332.843 402.814 332.526 402.518 332.311C402.222 332.097 401.856 332 401.493 332.041L385.956 334.449C385.598 334.524 385.281 334.729 385.067 335.025C384.852 335.321 384.756 335.687 384.796 336.05C384.868 336.41 385.072 336.731 385.368 336.949C385.664 337.166 386.031 337.265 386.397 337.225Z" fill="white" stroke="#263238" stroke-miterlimit="10" stroke-linecap="round"/>
<path d="M382.76 352.012C382.907 353.033 383.354 353.987 384.044 354.753C384.735 355.519 385.638 356.063 386.638 356.314C387.638 356.566 388.69 356.514 389.661 356.166C390.632 355.818 391.477 355.188 392.089 354.358C392.702 353.528 393.053 352.535 393.099 351.505C393.145 350.474 392.883 349.453 392.348 348.572C391.812 347.691 391.026 346.989 390.09 346.556C389.154 346.122 388.111 345.977 387.092 346.138C385.743 346.352 384.532 347.088 383.722 348.187C382.911 349.286 382.566 350.66 382.76 352.012Z" fill="#263238" stroke="#263238" stroke-miterlimit="10" stroke-linecap="round"/>
<path d="M388.487 350.441L404.009 348.018C404.369 347.947 404.69 347.743 404.908 347.446C405.125 347.15 405.224 346.783 405.184 346.418C405.109 346.06 404.904 345.742 404.608 345.528C404.312 345.313 403.946 345.217 403.583 345.257L388.046 347.666C387.688 347.74 387.371 347.946 387.156 348.242C386.942 348.538 386.845 348.903 386.886 349.266C386.957 349.627 387.161 349.948 387.458 350.165C387.754 350.383 388.121 350.481 388.487 350.441Z" fill="white" stroke="#263238" stroke-miterlimit="10" stroke-linecap="round"/>
<path d="M389.026 354.23L404.637 351.807C404.994 351.732 405.312 351.527 405.526 351.231C405.741 350.935 405.837 350.569 405.797 350.206C405.722 349.848 405.517 349.531 405.221 349.316C404.925 349.102 404.559 349.005 404.196 349.046L388.674 351.454C388.313 351.526 387.992 351.73 387.775 352.026C387.557 352.322 387.459 352.69 387.499 353.055C387.569 353.402 387.762 353.712 388.043 353.928C388.324 354.144 388.673 354.251 389.026 354.23Z" fill="white" stroke="#263238" stroke-miterlimit="10" stroke-linecap="round"/>
<path d="M385.4 368.959C385.558 369.972 386.012 370.916 386.704 371.671C387.397 372.427 388.298 372.961 389.293 373.206C390.289 373.451 391.334 373.397 392.299 373.049C393.263 372.702 394.104 372.077 394.714 371.253C395.324 370.429 395.677 369.443 395.728 368.419C395.78 367.395 395.527 366.379 395.003 365.498C394.478 364.618 393.705 363.912 392.78 363.469C391.855 363.027 390.82 362.867 389.805 363.012C389.124 363.108 388.468 363.34 387.876 363.692C387.285 364.044 386.769 364.511 386.359 365.064C385.949 365.618 385.653 366.247 385.489 366.915C385.324 367.584 385.294 368.279 385.4 368.959Z" fill="#263238" stroke="#263238" stroke-miterlimit="10" stroke-linecap="round"/>
<path d="M391.067 367.344L406.603 364.921C406.961 364.846 407.279 364.641 407.493 364.345C407.708 364.049 407.804 363.683 407.764 363.32C407.682 362.956 407.465 362.637 407.157 362.427C406.849 362.217 406.473 362.132 406.104 362.189L390.582 364.598C390.221 364.669 389.901 364.873 389.683 365.169C389.466 365.466 389.367 365.833 389.407 366.198C389.485 366.565 389.701 366.888 390.009 367.101C390.318 367.314 390.696 367.401 391.067 367.344Z" fill="white" stroke="#263238" stroke-miterlimit="10" stroke-linecap="round"/>
<path d="M391.672 371.162L407.194 368.754C407.555 368.682 407.876 368.478 408.093 368.182C408.311 367.886 408.409 367.519 408.369 367.153C408.298 366.792 408.094 366.472 407.798 366.254C407.501 366.037 407.134 365.938 406.769 365.978L391.232 368.401C390.874 368.476 390.557 368.681 390.342 368.977C390.127 369.273 390.031 369.639 390.072 370.002C390.146 370.36 390.351 370.677 390.647 370.892C390.944 371.106 391.309 371.203 391.672 371.162Z" fill="white" stroke="#263238" stroke-miterlimit="10" stroke-linecap="round"/>
<path d="M388.029 385.891C388.176 386.912 388.623 387.866 389.314 388.632C390.004 389.398 390.907 389.941 391.907 390.193C392.908 390.445 393.96 390.393 394.931 390.044C395.902 389.696 396.747 389.067 397.359 388.237C397.971 387.407 398.322 386.414 398.368 385.383C398.414 384.353 398.153 383.332 397.617 382.451C397.081 381.57 396.296 380.868 395.36 380.434C394.424 380.001 393.38 379.856 392.362 380.017C391.013 380.231 389.802 380.967 388.991 382.066C388.181 383.165 387.835 384.539 388.029 385.891Z" fill="#263238" stroke="#263238" stroke-miterlimit="10" stroke-linecap="round"/>
<path d="M393.715 384.217L409.237 381.808C409.598 381.737 409.919 381.533 410.136 381.237C410.354 380.94 410.452 380.573 410.412 380.208C410.385 380.026 410.323 379.85 410.227 379.693C410.132 379.535 410.006 379.398 409.856 379.29C409.707 379.182 409.538 379.105 409.359 379.063C409.179 379.022 408.993 379.016 408.811 379.048L393.275 381.456C392.917 381.531 392.599 381.736 392.385 382.032C392.17 382.328 392.074 382.693 392.115 383.057C392.141 383.239 392.204 383.414 392.3 383.572C392.395 383.729 392.521 383.866 392.67 383.974C392.819 384.082 392.989 384.16 393.168 384.201C393.348 384.243 393.534 384.248 393.715 384.217Z" fill="white" stroke="#263238" stroke-miterlimit="10" stroke-linecap="round"/>
<path d="M394.356 388.109L409.834 385.686C410.192 385.611 410.509 385.406 410.724 385.11C410.938 384.814 411.034 384.448 410.994 384.085C410.923 383.724 410.719 383.404 410.422 383.186C410.126 382.969 409.759 382.87 409.393 382.91L393.871 385.333C393.51 385.405 393.19 385.609 392.972 385.905C392.755 386.201 392.656 386.568 392.696 386.934C392.768 387.306 392.981 387.636 393.29 387.855C393.599 388.074 393.981 388.165 394.356 388.109Z" fill="white" stroke="#263238" stroke-miterlimit="10" stroke-linecap="round"/>
<g opacity="0.3">
<path d="M171.26 132.382L175.122 131.795" stroke="black" stroke-miterlimit="10" stroke-linecap="round"/>
<path d="M178.984 131.192L182.847 130.59" stroke="black" stroke-miterlimit="10" stroke-linecap="round"/>
<path d="M133.52 143.704L137.367 143.102" stroke="black" stroke-miterlimit="10" stroke-linecap="round"/>
<path d="M141.229 142.5L145.091 141.898" stroke="black" stroke-miterlimit="10" stroke-linecap="round"/>
<path d="M148.953 141.31L152.801 140.708" stroke="black" stroke-miterlimit="10" stroke-linecap="round"/>
<path d="M156.664 140.106L160.526 139.504" stroke="black" stroke-miterlimit="10" stroke-linecap="round"/>
<path d="M164.373 138.902L168.235 138.3" stroke="black" stroke-miterlimit="10" stroke-linecap="round"/>
<path d="M172.098 137.698L175.945 137.096" stroke="black" stroke-miterlimit="10" stroke-linecap="round"/>
<path d="M179.807 136.494L183.669 135.906" stroke="black" stroke-miterlimit="10" stroke-linecap="round"/>
<path d="M134.342 149.02L138.204 148.418" stroke="black" stroke-miterlimit="10" stroke-linecap="round"/>
<path d="M142.053 147.816L145.915 147.214" stroke="black" stroke-miterlimit="10" stroke-linecap="round"/>
<path d="M149.775 146.612L153.638 146.024" stroke="black" stroke-miterlimit="10" stroke-linecap="round"/>
<path d="M157.486 145.422L161.349 144.82" stroke="black" stroke-miterlimit="10" stroke-linecap="round"/>
<path d="M165.211 144.218L169.058 143.616" stroke="black" stroke-miterlimit="10" stroke-linecap="round"/>
<path d="M172.918 143.014L176.78 142.412" stroke="black" stroke-miterlimit="10" stroke-linecap="round"/>
<path d="M180.631 141.81L184.493 141.208" stroke="black" stroke-miterlimit="10" stroke-linecap="round"/>
<path d="M135.164 154.336L139.026 153.734" stroke="black" stroke-miterlimit="10" stroke-linecap="round"/>
<path d="M142.889 153.132L146.736 152.53" stroke="black" stroke-miterlimit="10" stroke-linecap="round"/>
<path d="M150.6 151.928L154.462 151.326" stroke="black" stroke-miterlimit="10" stroke-linecap="round"/>
<path d="M158.324 150.738L162.172 150.136" stroke="black" stroke-miterlimit="10" stroke-linecap="round"/>
<path d="M166.033 149.534L169.895 148.932" stroke="black" stroke-miterlimit="10" stroke-linecap="round"/>
<path d="M173.742 148.33L177.604 147.728" stroke="black" stroke-miterlimit="10" stroke-linecap="round"/>
<path d="M181.467 147.126L185.314 146.523" stroke="black" stroke-miterlimit="10" stroke-linecap="round"/>
<path d="M136.002 159.652L139.849 159.05" stroke="black" stroke-miterlimit="10" stroke-linecap="round"/>
<path d="M143.711 158.448L147.573 157.846" stroke="black" stroke-miterlimit="10" stroke-linecap="round"/>
<path d="M151.422 157.244L155.284 156.642" stroke="black" stroke-miterlimit="10" stroke-linecap="round"/>
<path d="M159.146 156.04L163.009 155.452" stroke="black" stroke-miterlimit="10" stroke-linecap="round"/>
<path d="M166.855 154.85L170.718 154.248" stroke="black" stroke-miterlimit="10" stroke-linecap="round"/>
<path d="M174.58 153.646L178.428 153.044" stroke="black" stroke-miterlimit="10" stroke-linecap="round"/>
<path d="M182.289 152.441L186.151 151.839" stroke="black" stroke-miterlimit="10" stroke-linecap="round"/>
<path d="M131.596 131.413L135.458 130.811" stroke="black" stroke-miterlimit="10" stroke-linecap="round"/>
<path d="M139.32 130.208L143.183 129.621" stroke="black" stroke-miterlimit="10" stroke-linecap="round"/>
<path d="M147.031 129.019L150.893 128.417" stroke="black" stroke-miterlimit="10" stroke-linecap="round"/>
<path d="M154.754 127.815L158.601 127.213" stroke="black" stroke-miterlimit="10" stroke-linecap="round"/>
<path d="M162.465 126.611L166.327 126.009" stroke="black" stroke-miterlimit="10" stroke-linecap="round"/>
<path d="M170.188 125.406L174.035 124.819" stroke="black" stroke-miterlimit="10" stroke-linecap="round"/>
<path d="M177.896 124.217L181.759 123.615" stroke="black" stroke-miterlimit="10" stroke-linecap="round"/>
<path d="M182.553 126.552L131.742 134.452" stroke="black" stroke-miterlimit="10" stroke-linecap="round"/>
<path d="M145.84 122.396L165.444 119.342" stroke="black" stroke-miterlimit="10" stroke-linecap="round"/>
<path d="M121.492 177.201L337.701 143.557" stroke="black" stroke-miterlimit="10" stroke-linecap="round"/>
<path d="M124.209 194.617L340.403 160.974" stroke="black" stroke-miterlimit="10" stroke-linecap="round"/>
<path d="M126.912 212.019L343.121 178.375" stroke="black" stroke-miterlimit="10" stroke-linecap="round"/>
<path d="M129.625 229.436L345.819 195.792" stroke="black" stroke-miterlimit="10" stroke-linecap="round"/>
<path d="M132.328 246.852L348.537 213.208" stroke="black" stroke-miterlimit="10" stroke-linecap="round"/>
<path d="M135.047 264.268L351.241 230.61" stroke="black" stroke-miterlimit="10" stroke-linecap="round"/>
<path d="M137.748 281.671L353.957 248.027" stroke="black" stroke-miterlimit="10" stroke-linecap="round"/>
<path d="M140.467 299.087L356.661 265.444" stroke="black" stroke-miterlimit="10" stroke-linecap="round"/>
<path d="M143.168 316.503L359.377 282.86" stroke="black" stroke-miterlimit="10" stroke-linecap="round"/>
<path d="M145.885 333.92L362.079 300.262" stroke="black" stroke-miterlimit="10" stroke-linecap="round"/>
<path d="M148.584 351.322L364.793 317.678" stroke="black" stroke-miterlimit="10" stroke-linecap="round"/>
<path d="M151.303 368.739L367.511 335.095" stroke="black" stroke-miterlimit="10" stroke-linecap="round"/>
<path d="M154.006 386.155L370.215 352.511" stroke="black" stroke-miterlimit="10" stroke-linecap="round"/>
</g>
<path d="M152.333 193.957C152.333 193.957 133.889 213.914 144.55 210.771C155.211 207.629 169.794 186.776 166.695 195.44C163.597 204.104 163.758 210.008 168.766 204.031C173.773 198.054 176.578 196.864 175.565 199.992C174.552 203.12 178.693 200.991 178.693 200.991C178.693 200.991 188.972 194.941 187.9 198.054C186.828 201.167 186.182 201.299 189.09 200.844L198.518 199.376C198.518 199.376 197.901 200.227 206.609 198.862C215.318 197.496 218.71 195.499 223.071 194.823" stroke="#263238" stroke-miterlimit="10" stroke-linecap="round"/>
<path d="M143.965 221.212C143.965 221.212 158.18 212.313 159.972 214.266C161.763 216.219 159.311 219.568 165.728 217.835C172.146 216.102 177.99 210.727 178.445 213.62C178.901 216.513 183.027 214.398 183.027 214.398L186.654 213.826C186.654 213.826 193.292 213.547 195.363 212.475C197.433 211.403 199.577 201.417 197.991 215.045C196.405 228.672 190.84 216.895 204.071 211.124C217.302 205.352 219.755 211.652 219.755 211.652C221.219 211.322 222.643 210.829 223.999 210.184C226.774 208.994 229.227 205.646 231.855 208.216C234.484 210.786 239.198 202.621 239.198 202.621C241.032 202.963 242.842 203.424 244.616 204.001C246.317 204.595 248.124 204.821 249.918 204.662C252.135 204.747 254.355 204.649 256.555 204.369C259.493 203.913 261.916 200.565 264.309 201.681C266.703 202.797 270.33 192.562 268.509 204.736C266.688 216.91 254.911 222.461 259.698 215.015C263.924 208.512 269.351 202.875 275.69 198.406C281.05 194.603 282.607 195.102 283.782 197.892C284.956 200.683 286.41 200.448 289.2 199.273C291.991 198.098 289.597 196.982 291.991 198.098C292.788 198.551 293.666 198.843 294.575 198.956C295.485 199.069 296.408 199.002 297.292 198.759C299.48 198.421 289.274 204.471 299.48 198.421C309.686 192.371 313.328 168.023 307.983 181.489C302.637 194.955 304.664 198.362 311.816 196.497" stroke="#263238" stroke-miterlimit="10" stroke-linecap="round"/>
<path d="M145.506 245.545C145.506 245.545 162.952 228.716 161.88 226.646C160.808 224.575 155.242 226.939 151.174 234.253C147.107 241.566 149.97 245.589 160.911 239.436C171.851 233.283 155.932 240.905 167.166 241.434C178.4 241.962 181.719 234.708 182.057 236.881C182.395 239.055 178.65 238.893 187.476 238.35C196.302 237.806 191.984 233.944 201.03 234.752C210.076 235.56 214.1 232.711 214.1 232.711L219.901 231.815C219.901 231.815 208.152 232.887 223.41 230.523C238.668 228.158 245.365 209.273 238.022 219.332C230.679 229.392 234.13 232.549 241.664 228.423L249.197 224.281C249.197 224.281 258.713 213.884 254.22 227.953C249.726 242.021 244.41 231.712 261.136 224.648C277.863 217.585 277.437 224.34 283.017 221.99C288.597 219.641 287.687 213.826 291.388 218.451C295.088 223.077 294.853 221.638 300.654 220.728C306.455 219.817 304.898 219.259 309.979 218.539L320.934 216.807" stroke="#263238" stroke-miterlimit="10" stroke-linecap="round"/>
<path d="M148.441 297.854C148.441 297.854 160.601 290.012 162.539 278.558C164.478 267.103 154.888 281.979 155.931 298.162C156.973 314.345 151.276 292.2 168.237 286.59C185.198 280.981 166.768 291.29 168.648 293.933C170.528 296.576 184.435 285.533 184.273 289.263C184.112 292.993 187.21 294.006 195.757 286.737C204.304 279.468 190.397 280.863 189.736 286.194C189.075 291.525 193.202 289.366 203.745 285.489C214.289 281.612 203.966 286.957 210.501 285.929C217.036 284.902 231.412 272.272 228.578 277.911C225.744 283.55 228.475 286.855 231.647 283.389C234.819 279.923 241.574 270.686 242.132 274.314C242.469 276.456 242.003 278.646 240.825 280.467" stroke="#263238" stroke-miterlimit="10" stroke-linecap="round"/>
<path opacity="0.3" d="M459.281 408.198C456.462 400.253 455.962 358.577 456.594 328.898L473.085 332.467C475.948 333.087 478.94 332.643 481.5 331.219C482.122 330.872 482.712 330.468 483.262 330.014C483.8 329.576 484.292 329.084 484.73 328.546C486.293 326.817 487.314 324.667 487.667 322.363C487.728 321.955 487.767 321.543 487.785 321.13C487.897 318.748 487.299 316.387 486.067 314.345C485.667 313.681 485.204 313.057 484.686 312.48C482.806 310.393 480.256 309.027 477.476 308.618L457.563 305.681C457.739 303.097 457.945 301.085 458.15 299.807C458.507 297.871 458.654 295.901 458.591 293.933L459.957 289.528C461.968 283.081 460.441 273.594 454.964 268.205C449.486 262.815 429.999 253.329 424.301 248.351C418.603 243.372 375.943 212.989 368.292 214.78C360.641 216.572 351.595 227.483 343.886 233.519C336.176 239.554 308.406 262.331 308.406 262.331C308.494 261.376 294.132 267.177 290.637 272.801C290.374 273.053 290.171 273.36 290.041 273.701C289.911 274.041 289.859 274.406 289.888 274.769C290.299 276.37 291.094 277.846 292.205 279.069C293.316 280.292 294.708 281.226 296.262 281.789L283.809 279.953C283.104 279.849 282.384 279.949 281.734 280.24C281.083 280.532 280.53 281.003 280.138 281.598C275.732 280.937 266.745 279.953 260.254 281.73C260.254 281.73 270.842 286.914 278.757 288.647C278.966 289.259 279.33 289.807 279.814 290.237C280.298 290.666 280.885 290.964 281.518 291.099L298.039 294.638C297.736 295.597 297.51 296.58 297.363 297.575C297.246 298.483 297.373 299.405 297.73 300.248C297.804 300.806 297.907 301.378 298.039 301.981C300.388 311.966 313.076 324.096 322.328 332.114C331.579 340.132 340.435 353.863 345.927 369.782C351.419 385.7 354.855 400.371 367.073 416.524C369.152 419.254 371.414 421.84 373.843 424.263L487.755 496.22C487.755 496.22 463.378 419.873 459.281 408.198ZM310.653 282.963C310.462 283.257 310.271 283.551 310.11 283.859L306.967 283.389C308.204 283.334 309.436 283.192 310.653 282.963Z" fill="black"/>
<path d="M421.03 535.341L348.31 409.637C348.31 409.637 340.174 352.527 322.831 329.544C305.488 306.562 281.169 289.792 295.282 278.044C309.394 266.296 345.211 243.827 352.553 245.267C359.896 246.706 409.326 271.7 423.292 275.738C437.257 279.777 442.147 285.709 440.062 297.766C437.977 309.822 437.125 394.364 441.251 406.039C445.378 417.714 491.284 500.919 491.284 500.919" fill="white"/>
<path d="M441.352 406.068C437.196 394.394 438.077 309.881 440.162 297.795C441.44 290.453 440.089 285.328 435.639 281.642C435.798 288.339 434.708 295.007 432.423 301.305C428.502 312.422 426.549 320.263 426.549 320.263C426.549 320.263 425.903 360.133 428.517 380.472C431.131 400.811 444.201 436.687 456.624 456.306C465.817 470.815 478.931 483.885 485.143 489.715C472.367 466.454 444.465 415.056 441.352 406.068Z" fill="#E8356D"/>
<path opacity="0.5" d="M441.352 406.068C437.196 394.394 438.077 309.881 440.162 297.795C441.44 290.453 440.089 285.328 435.639 281.642C435.798 288.339 434.708 295.007 432.423 301.305C428.502 312.422 426.549 320.263 426.549 320.263C426.549 320.263 425.903 360.133 428.517 380.472C431.131 400.811 444.201 436.687 456.624 456.306C465.817 470.815 478.931 483.885 485.143 489.715C472.367 466.454 444.465 415.056 441.352 406.068Z" fill="white"/>
<path d="M421.03 535.341L348.31 409.637C348.31 409.637 340.174 352.527 322.831 329.544C305.488 306.562 281.169 289.792 295.282 278.044C309.394 266.296 345.211 243.827 352.553 245.267C359.896 246.706 409.326 271.7 423.292 275.738C437.257 279.777 442.147 285.709 440.062 297.766C437.977 309.822 437.125 394.364 441.251 406.039C445.378 417.714 491.284 500.919 491.284 500.919" stroke="#263238" stroke-miterlimit="10" stroke-linecap="round"/>
<path d="M276.118 280.305C287.523 279.675 298.565 276.07 308.146 269.849C324.49 259.394 319.262 257.426 319.262 257.426C319.262 257.426 327.75 254.812 332.978 252.859C337.361 250.903 341.525 248.491 345.402 245.663C345.402 245.663 366.328 259.394 376.123 263.285C380.814 265.277 385.644 266.926 390.573 268.219L404.245 286.165C396.558 289.79 390.004 295.44 385.287 302.509C377.445 314.257 367.665 329.956 363.053 331.879C358.442 333.803 360.439 335.8 340.174 327.958C319.909 320.117 274.811 292.083 276.118 280.305Z" fill="#E8356D"/>
<path opacity="0.5" d="M276.118 280.305C287.523 279.675 298.565 276.07 308.146 269.849C324.49 259.394 319.262 257.426 319.262 257.426C319.262 257.426 327.75 254.812 332.978 252.859C337.361 250.903 341.525 248.491 345.402 245.663C345.402 245.663 366.328 259.394 376.123 263.285C380.814 265.277 385.644 266.926 390.573 268.219L404.245 286.165C396.558 289.79 390.004 295.44 385.287 302.509C377.445 314.257 367.665 329.956 363.053 331.879C358.442 333.803 360.439 335.8 340.174 327.958C319.909 320.117 274.811 292.083 276.118 280.305Z" fill="white"/>
<path d="M312.328 286.341C312.328 286.341 328.041 284.402 339.114 264.24C339.114 264.24 352.154 269.761 365.723 266.222" stroke="#263238" stroke-miterlimit="10" stroke-linecap="round"/>
<path d="M354.93 271.759C354.93 271.759 347.353 291.818 363.33 318.354" stroke="#263238" stroke-miterlimit="10" stroke-linecap="round"/>
<path d="M338.148 273.594C338.148 273.594 346.064 283.33 347.356 291.818" stroke="#263238" stroke-miterlimit="10" stroke-linecap="round"/>
<path d="M352.967 327.738C352.967 327.738 366.183 319.382 373.218 310.689C380.252 301.995 383.424 292.832 394.511 289.175" stroke="#263238" stroke-miterlimit="10" stroke-linecap="round"/>
<path d="M339.114 264.24L335.898 260.436" stroke="#263238" stroke-miterlimit="10" stroke-linecap="round"/>
<path d="M264.808 279.953C264.808 279.953 251.151 277.192 242.252 279.63C242.252 279.63 255.351 286.047 263.296 286.972L264.808 279.953Z" fill="#263238" stroke="#263238" stroke-miterlimit="10" stroke-linecap="round"/>
<path d="M459.417 306.592L265.809 277.824C264.885 277.686 263.944 277.897 263.167 278.416C262.391 278.934 261.836 279.723 261.609 280.629L260.728 284.359C260.602 284.848 260.576 285.358 260.652 285.857C260.728 286.356 260.905 286.835 261.171 287.265C261.437 287.694 261.788 288.065 262.201 288.356C262.614 288.646 263.082 288.85 263.576 288.955L455.144 330.367C456.761 330.716 458.434 330.73 460.057 330.408C461.681 330.085 463.22 329.433 464.582 328.492C465.943 327.55 467.097 326.339 467.971 324.934C468.846 323.529 469.423 321.959 469.667 320.322C469.898 318.747 469.815 317.143 469.425 315.6C469.034 314.057 468.343 312.606 467.391 311.33C466.439 310.055 465.244 308.98 463.876 308.167C462.508 307.354 460.992 306.818 459.417 306.592Z" fill="#E8356D" stroke="#263238" stroke-miterlimit="10" stroke-linecap="round"/>
<path d="M459.419 306.592L430.152 302.186C427.479 303.806 425.394 306.235 424.197 309.122C423.001 312.009 422.756 315.202 423.499 318.237C423.993 320.379 424.956 322.386 426.319 324.111L455.087 330.323C456.705 330.672 458.377 330.686 460.001 330.363C461.624 330.041 463.164 329.389 464.525 328.447C465.887 327.506 467.04 326.295 467.915 324.89C468.79 323.485 469.367 321.915 469.611 320.278C470.065 317.113 469.248 313.897 467.338 311.333C465.428 308.768 462.581 307.064 459.419 306.592Z" fill="#263238" stroke="#263238" stroke-miterlimit="10" stroke-linecap="round"/>
<path d="M381.054 324.654C381.054 324.654 364.401 328.561 356.955 326.798C349.51 325.036 334.311 303.655 323.87 296.621C313.429 289.586 307.07 287.912 296.144 286.268C285.219 284.623 277.67 289.895 279.991 299.895C282.311 309.896 295.014 322.011 304.28 330.029C313.546 338.047 322.387 351.763 327.879 367.696C333.371 383.63 336.807 398.271 349.025 414.366C361.243 430.461 376.486 437.084 381.612 437.979" fill="white"/>
<path d="M372.786 327.019L371.611 326.417C366.559 327.151 360.641 327.665 356.926 326.798C349.495 325.036 334.281 303.655 323.855 296.62C313.428 289.586 307.055 287.912 296.129 286.267C294.386 285.997 292.618 285.918 290.857 286.033C299.279 288.147 307.242 291.785 314.354 296.767C325.984 305.167 334.384 326.475 347.292 330.352C360.2 334.229 372.786 327.019 372.786 327.019Z" fill="#E8356D"/>
<path opacity="0.5" d="M372.786 327.019L371.611 326.417C366.559 327.151 360.641 327.665 356.926 326.798C349.495 325.036 334.281 303.655 323.855 296.62C313.428 289.586 307.055 287.912 296.129 286.267C294.386 285.997 292.618 285.918 290.857 286.033C299.279 288.147 307.242 291.785 314.354 296.767C325.984 305.167 334.384 326.475 347.292 330.352C360.2 334.229 372.786 327.019 372.786 327.019Z" fill="white"/>
<path d="M381.054 324.654C381.054 324.654 364.401 328.561 356.955 326.798C349.51 325.036 334.311 303.655 323.87 296.621C313.429 289.586 307.07 287.912 296.144 286.268C285.219 284.623 277.67 289.895 279.991 299.895C282.311 309.896 295.014 322.011 304.28 330.029C313.546 338.047 322.387 351.763 327.879 367.696C333.371 383.63 336.807 398.271 349.025 414.366C361.243 430.461 376.486 437.084 381.612 437.979" stroke="#263238" stroke-miterlimit="10" stroke-linecap="round"/>
<path d="M288.392 307.062C288.392 307.062 289.185 298.442 300.991 290.409C300.991 290.409 293.106 285.225 287.701 286.15C282.297 287.075 280.168 290.027 279.346 295.49C278.523 300.953 288.392 307.062 288.392 307.062Z" fill="white" stroke="#263238" stroke-miterlimit="10" stroke-linecap="round"/>
<path d="M296.146 316.21C297.054 317.124 298.07 317.923 299.172 318.589" stroke="#263238" stroke-miterlimit="10" stroke-linecap="round"/>
<path d="M304.781 295.842C304.781 295.842 292.24 302.304 294.252 312.378" stroke="#263238" stroke-miterlimit="10" stroke-linecap="round"/>
<path d="M439.884 293.977L441.881 287.53C443.878 281.098 442.366 271.612 436.888 266.222C431.411 260.833 411.924 251.346 406.226 246.368C400.528 241.39 357.882 210.933 350.305 212.798C342.727 214.663 333.608 225.501 325.884 231.521C318.159 237.542 290.463 260.216 290.463 260.216C290.463 260.216 271.005 268.645 271.886 272.61C272.768 276.575 276.806 281.642 289.009 281.245C301.213 280.849 321.551 268.689 324.635 266.898C327.719 265.106 346.913 252.536 346.913 252.536C351.884 257.454 357.591 261.566 363.83 264.724C372.891 268.924 374.109 269.35 374.109 269.35C374.109 269.35 376.474 277.941 383.126 282.347" fill="white"/>
<path d="M429.08 266.575C436.129 272.111 436.584 283.081 434.631 292.905L439.903 293.977L441.9 287.531C443.897 281.099 442.384 271.612 436.907 266.223C431.429 260.833 411.942 251.347 406.244 246.368C404.776 245.076 400.723 242.036 395.48 238.306L394.438 238.468C394.438 238.468 419.931 259.394 429.08 266.575Z" fill="#E8356D"/>
<path opacity="0.5" d="M429.08 266.575C436.129 272.111 436.584 283.081 434.631 292.905L439.903 293.977L441.9 287.531C443.897 281.099 442.384 271.612 436.907 266.223C431.429 260.833 411.942 251.347 406.244 246.368C404.776 245.076 400.723 242.036 395.48 238.306L394.438 238.468C394.438 238.468 419.931 259.394 429.08 266.575Z" fill="white"/>
<path d="M276.12 280.306C287.525 279.676 298.567 276.071 308.148 269.85C324.492 259.394 319.264 257.426 319.264 257.426C319.264 257.426 327.752 254.812 332.98 252.859C337.363 250.904 341.527 248.492 345.404 245.664C345.404 245.664 366.33 259.394 376.125 263.286C380.816 265.278 385.646 266.927 390.575 268.22L404.247 286.165C396.56 289.79 390.006 295.441 385.289 302.51C377.447 314.258 367.666 329.956 363.055 331.88C358.444 333.804 360.441 335.801 340.176 327.959C319.911 320.117 274.813 292.083 276.12 280.306Z" fill="#E8356D"/>
<path opacity="0.5" d="M276.12 280.306C287.525 279.676 298.567 276.071 308.148 269.85C324.492 259.394 319.264 257.426 319.264 257.426C319.264 257.426 327.752 254.812 332.98 252.859C337.363 250.904 341.527 248.492 345.404 245.664C345.404 245.664 366.33 259.394 376.125 263.286C380.816 265.278 385.646 266.927 390.575 268.22L404.247 286.165C396.56 289.79 390.006 295.441 385.289 302.51C377.447 314.258 367.666 329.956 363.055 331.88C358.444 333.804 360.441 335.801 340.176 327.959C319.911 320.117 274.813 292.083 276.12 280.306Z" fill="white"/>
<path d="M439.884 293.977L441.881 287.53C443.878 281.098 442.366 271.612 436.888 266.222C431.411 260.833 411.924 251.346 406.226 246.368C400.528 241.39 357.882 210.933 350.305 212.798C342.727 214.663 333.608 225.501 325.884 231.521C318.159 237.542 290.463 260.216 290.463 260.216C290.463 260.216 271.005 268.645 271.886 272.61C272.768 276.575 276.806 281.642 289.009 281.245C301.213 280.849 321.551 268.689 324.635 266.898C327.719 265.106 346.913 252.536 346.913 252.536C351.884 257.454 357.591 261.566 363.83 264.724C372.891 268.924 374.109 269.35 374.109 269.35C374.109 269.35 376.474 277.941 383.126 282.347" stroke="#263238" stroke-miterlimit="10" stroke-linecap="round"/>
<path d="M271.885 272.611C271.885 272.611 273.853 273.55 278.023 271.876C282.194 270.202 290.3 261.274 290.388 260.128C290.476 258.983 272.546 266.516 271.885 272.611Z" fill="white" stroke="#263238" stroke-miterlimit="10" stroke-linecap="round"/>
<path d="M346.133 238.32C346.318 237.443 346.549 236.575 346.823 235.721" stroke="#263238" stroke-miterlimit="10" stroke-linecap="round"/>
<path d="M346.914 252.565C345.794 249.038 345.37 245.328 345.665 241.639" stroke="#263238" stroke-miterlimit="10" stroke-linecap="round"/>
</svg>
