<svg width="356" height="202" viewBox="0 0 356 202" fill="none" xmlns="http://www.w3.org/2000/svg">
<path d="M372.898 164.306C371.525 164.11 370.111 164.13 368.745 164.366C367.379 164.602 366.092 165.048 364.965 165.676C361.377 167.705 355.221 170.419 348.994 169.574C339.326 168.255 334.006 161.524 336.066 153.342C338.126 145.159 346.324 140.193 356.007 141.512C362.263 142.357 366.708 146.499 369.085 149.344C369.838 150.222 370.824 150.974 371.983 151.552C373.142 152.131 374.449 152.523 375.822 152.706C377.147 152.886 378.508 152.868 379.828 152.654C381.147 152.439 382.399 152.032 383.512 151.455C384.625 150.878 385.577 150.143 386.314 149.292C387.05 148.441 387.557 147.491 387.805 146.495L397.96 98.0386L296.892 85.9836L227.813 77.8174L217.572 123.807C216.528 127.991 221.244 131.638 226.815 132.437C228.187 132.631 229.6 132.609 230.963 132.371C232.327 132.134 233.611 131.686 234.734 131.056C238.322 129.027 244.493 126.312 250.705 127.158C260.388 128.476 265.707 135.208 263.648 143.445C261.589 151.682 253.376 156.593 243.693 155.275C237.451 154.43 232.992 150.287 230.615 147.443C229.863 146.562 228.878 145.809 227.719 145.228C226.56 144.648 225.252 144.254 223.878 144.069C222.553 143.883 221.19 143.897 219.869 144.109C218.547 144.322 217.293 144.729 216.18 145.307C215.066 145.884 214.115 146.622 213.382 147.476C212.649 148.329 212.148 149.283 211.909 150.281L199.608 204.441L301.26 216.664L360.892 223.837L368.182 224.724L381.054 173.32C381.327 172.322 381.331 171.294 381.067 170.296C380.802 169.299 380.275 168.353 379.515 167.514C378.755 166.674 377.779 165.958 376.643 165.407C375.506 164.856 374.233 164.482 372.898 164.306Z" fill="#455A64"/>
<path d="M10.787 57.9695C10.4965 58.9354 9.95245 59.8243 9.18609 60.585C8.41973 61.3457 7.44619 61.9632 6.3214 62.4021C5.19662 62.8409 3.94277 63.0925 2.63193 63.1422C1.3211 63.192 -0.0208748 63.039 -1.31686 62.6921C-2.67532 62.3426 -3.95782 61.7861 -5.08262 61.058C-6.20741 60.3299 -7.14983 59.4462 -7.84981 58.4632C-10.0466 55.3287 -14.2277 50.6253 -20.3525 49.0545C-29.8179 46.5377 -38.1506 50.4224 -40.5931 58.4082C-43.0356 66.394 -38.1265 73.7913 -28.6469 76.3112C-22.5336 77.9353 -16.3336 75.9915 -12.6994 74.4089C-11.5597 73.919 -10.2712 73.6298 -8.91529 73.5597C-7.55933 73.4896 -6.16524 73.6399 -4.82089 74.0014C-3.52334 74.3432 -2.29599 74.8726 -1.20939 75.5591C-0.12279 76.2456 0.80164 77.0756 1.51077 78.0015C2.2199 78.9274 2.69975 79.9309 2.92273 80.9544C3.14571 81.9778 3.10743 83.001 2.81008 83.9651L-12.4358 133.786L137.06 171.153L151.864 118.488C152.154 117.522 152.698 116.633 153.465 115.873C154.231 115.112 155.205 114.494 156.33 114.055C157.454 113.617 158.708 113.365 160.019 113.315C161.33 113.265 162.672 113.418 163.968 113.765C165.326 114.115 166.609 114.671 167.734 115.399C168.858 116.128 169.801 117.011 170.501 117.994C172.698 121.129 176.879 125.832 182.992 127.456C192.457 129.973 200.804 126.092 203.233 118.103C205.661 110.114 200.766 102.72 191.301 100.203C185.187 98.5787 178.973 100.519 175.339 102.102C174.2 102.593 172.911 102.883 171.555 102.953C170.199 103.023 168.805 102.872 167.46 102.509C162.009 101.062 157.563 96.8264 158.789 92.8122L171.149 48.0661L23.1095 11.0586L10.787 57.9695Z" fill="#FF725E"/>
</svg>
