<svg width="27" height="28" viewBox="0 0 27 28" fill="none" xmlns="http://www.w3.org/2000/svg">
<path d="M25.7422 14.1289C25.7422 21.0325 20.1457 26.6289 13.2422 26.6289C6.33863 26.6289 0.742188 21.0325 0.742188 14.1289C0.742188 7.22535 6.33863 1.62891 13.2422 1.62891C20.1457 1.62891 25.7422 7.22535 25.7422 14.1289ZM4.77054 14.1289C4.77054 18.8077 8.56342 22.6006 13.2422 22.6006C17.921 22.6006 21.7138 18.8077 21.7138 14.1289C21.7138 9.45014 17.921 5.65726 13.2422 5.65726C8.56342 5.65726 4.77054 9.45014 4.77054 14.1289Z" fill="#E5E7EB"/>
<path d="M14.1815 24.3934C14.2679 25.5067 13.4309 26.4964 12.3183 26.4016C10.5559 26.2515 8.83765 25.7266 7.28183 24.8531C5.13541 23.648 3.39455 21.8335 2.27938 19.639C1.16421 17.4445 0.724828 14.9687 1.01679 12.5245C1.22841 10.7528 1.8174 9.05547 2.73509 7.54336C3.31443 6.58875 4.60732 6.49612 5.45565 7.22224C6.30398 7.94836 6.3765 9.21877 5.87348 10.2157C5.4351 11.0846 5.14865 12.0276 5.03201 13.0041C4.83491 14.6541 5.13153 16.3256 5.88438 17.8071C6.63722 19.2886 7.81246 20.5135 9.26149 21.3271C10.119 21.8085 11.0496 22.1331 12.0099 22.2912C13.1117 22.4726 14.0951 23.2801 14.1815 24.3934Z" fill="#16A34A"/>
</svg>
