<svg width="167" height="164" viewBox="0 0 167 164" fill="none" xmlns="http://www.w3.org/2000/svg">
<g opacity="0.126153">
<path d="M104.525 5.14136C104.525 7.81916 102.354 9.99006 99.6767 9.99006C96.9989 9.99006 94.8281 7.81916 94.8281 5.14136C94.8281 2.46371 96.9989 0.292969 99.6767 0.292969C102.354 0.292969 104.525 2.46371 104.525 5.14136Z" fill="#9AA3C4"/>
</g>
<g opacity="0.326312">
<path d="M66.3623 16.5785L63.4829 18.2409C62.9615 18.5419 62.295 18.3632 61.994 17.842L56.7947 8.8364C56.4936 8.3152 56.6723 7.64865 57.1935 7.34778L60.0731 5.68521C60.5943 5.38434 61.2608 5.56289 61.5619 6.0841L66.7612 15.0897C67.0622 15.6111 66.8835 16.2774 66.3623 16.5785Z" fill="#9AA3C4"/>
</g>
<g opacity="0.326312">
<path d="M17.8213 36.1493L18.469 36.369C19.2033 36.6181 20.0133 36.4898 20.6349 36.0259L21.1831 35.6169C22.7483 34.4488 24.9737 35.5826 24.9488 37.5355L24.94 38.2194C24.93 38.9949 25.3022 39.7256 25.9354 40.1734L26.494 40.5684C28.0885 41.6961 27.6977 44.1626 25.8328 44.7424L25.1796 44.9454C24.439 45.1756 23.8594 45.7556 23.6292 46.4962L23.426 47.1494C22.8463 49.0143 20.3797 49.4049 19.252 47.8104L18.8569 47.252C18.4091 46.6188 17.6783 46.2464 16.903 46.2564L16.2189 46.265C14.2662 46.29 13.1324 44.0649 14.3005 42.4995L14.7097 41.9513C15.1735 41.3299 15.3017 40.5199 15.0526 39.7854L14.8329 39.1377C14.2058 37.288 15.9716 35.5222 17.8213 36.1493Z" fill="#16A34A"/>
</g>
<g opacity="0.326312">
<path d="M13.2223 70.4845L13.9496 73.7289C14.0813 74.3162 13.7119 74.8992 13.1245 75.0307L2.97766 77.3054C2.39038 77.4369 1.80754 77.0676 1.67569 76.4803L0.94846 73.2357C0.816929 72.6484 1.18626 72.0656 1.77355 71.934L11.9205 69.6594C12.5078 69.5279 13.0906 69.8972 13.2223 70.4845Z" fill="#22C55E"/>
</g>
<g opacity="0.326312">
<path d="M23.5249 111.993C23.5249 114.671 21.3542 116.841 18.6765 116.841C15.9987 116.841 13.8281 114.671 13.8281 111.993C13.8281 109.315 15.9987 107.145 18.6765 107.145C21.3542 107.145 23.5249 109.315 23.5249 111.993Z" fill="#F9C033"/>
</g>
<g opacity="0.326312">
<path d="M17.8213 135.868L18.469 136.088C19.2033 136.337 20.0133 136.209 20.6349 135.745L21.1831 135.336C22.7483 134.168 24.9737 135.301 24.9488 137.254L24.94 137.938C24.93 138.714 25.3022 139.444 25.9354 139.892L26.494 140.287C28.0885 141.415 27.6977 143.881 25.8328 144.461L25.1796 144.664C24.439 144.894 23.8594 145.474 23.6292 146.215L23.426 146.868C22.8463 148.733 20.3797 149.124 19.252 147.529L18.8569 146.971C18.4091 146.337 17.6783 145.965 16.903 145.975L16.2189 145.984C14.2662 146.009 13.1324 143.784 14.3005 142.219L14.7097 141.67C15.1735 141.049 15.3017 140.239 15.0526 139.504L14.8329 138.857C14.2058 137.007 15.9716 135.241 17.8213 135.868Z" fill="#22C55E"/>
</g>
<g opacity="0.326312">
<path d="M142.62 31.5318C141.151 29.6168 141.606 26.7643 143.628 25.2126C145.65 23.6609 148.524 23.9597 149.993 25.8747C149.996 25.8784 149.998 25.882 150.001 25.8855" stroke="#22C55E" stroke-width="3.17708" stroke-linecap="round" stroke-linejoin="round"/>
</g>
<g opacity="0.326312">
<path d="M155.696 57.9501L156.344 58.1698C157.078 58.4189 157.888 58.2906 158.51 57.8267L159.058 57.4177C160.624 56.2496 162.849 57.3833 162.824 59.3363L162.815 60.0202C162.805 60.7957 163.177 61.5264 163.81 61.9742L164.369 62.3691C165.964 63.4968 165.573 65.9634 163.708 66.5432L163.055 66.7462C162.314 66.9764 161.734 67.5564 161.504 68.2969L161.301 68.9501C160.721 70.8151 158.255 71.2057 157.127 69.6111L156.732 69.0528C156.284 68.4196 155.554 68.0472 154.778 68.0572L154.094 68.066C152.141 68.0907 151.007 65.8657 152.176 64.3005L152.585 63.7523C153.048 63.1307 153.177 62.3207 152.928 61.5861L152.708 60.9385C152.081 59.0888 153.847 57.323 155.696 57.9501Z" fill="#9AA3C4"/>
</g>
<g opacity="0.326312">
<path d="M160.237 115.406C163.534 115.84 165.869 119.063 165.411 122.544C164.953 126.026 161.862 128.534 158.566 128.1C158.559 128.099 158.553 128.098 158.547 128.097" stroke="#DE3E3E" stroke-width="2.38281" stroke-linecap="round" stroke-linejoin="round"/>
</g>
<g opacity="0.326312">
<path d="M149.831 156.313L146.951 157.975C146.43 158.276 145.764 158.098 145.463 157.576L140.263 148.571C139.962 148.05 140.141 147.383 140.662 147.082L143.542 145.42C144.063 145.119 144.73 145.297 145.03 145.819L150.23 154.824C150.531 155.345 150.352 156.012 149.831 156.313Z" fill="#22C55E"/>
</g>
<g opacity="0.326312">
<path d="M55.4539 161.563C53.4296 158.925 54.0563 154.995 56.8424 152.857C59.6285 150.72 63.5869 151.132 65.6111 153.77L65.6227 153.785" stroke="#9AA3C4" stroke-width="3.17708" stroke-linecap="round" stroke-linejoin="round"/>
</g>
<g opacity="0.2">
<path d="M156.646 80.9749C156.646 119.479 125.432 150.692 86.9283 150.692C48.4246 150.692 17.2109 119.479 17.2109 80.9749C17.2109 42.4711 48.4246 11.2578 86.9283 11.2578C125.432 11.2578 156.646 42.4711 156.646 80.9749Z" fill="#22C55E"/>
</g>
<path d="M139.236 80.9654C139.236 109.859 115.813 133.283 86.9187 133.283C58.0249 133.283 34.6016 109.859 34.6016 80.9654C34.6016 52.0715 58.0249 28.6484 86.9187 28.6484C115.813 28.6484 139.236 52.0715 139.236 80.9654Z" fill="#22C55E"/>
<path d="M63.8438 81.0579L79.1811 96.3954L110.033 65.543" stroke="white" stroke-width="7.54574" stroke-linecap="round" stroke-linejoin="round"/>
</svg>
