<svg width="27" height="27" viewBox="0 0 27 27" fill="none" xmlns="http://www.w3.org/2000/svg">
<path d="M11.5279 15.0067L9.16266 12.6415C8.9633 12.4422 8.71862 12.3425 8.42863 12.3425C8.13865 12.3425 7.88491 12.4512 7.66742 12.6687C7.46805 12.8681 7.36837 13.1218 7.36837 13.4299C7.36837 13.7381 7.46805 13.9918 7.66742 14.1912L10.7667 17.2904C10.966 17.4898 11.2198 17.5894 11.5279 17.5894C11.836 17.5894 12.0897 17.4898 12.2891 17.2904L18.4604 11.1191C18.6597 10.9197 18.7594 10.6751 18.7594 10.3851C18.7594 10.0951 18.6507 9.84135 18.4332 9.62386C18.2338 9.42449 17.9801 9.3248 17.672 9.3248C17.3639 9.3248 17.1101 9.42449 16.9108 9.62386L11.5279 15.0067ZM13.0503 23.9239C11.546 23.9239 10.1323 23.6382 8.80924 23.0669C7.48618 22.4964 6.33529 21.7218 5.35658 20.7431C4.37787 19.7644 3.60324 18.6135 3.03269 17.2904C2.46142 15.9673 2.17578 14.5536 2.17578 13.0493C2.17578 11.545 2.46142 10.1313 3.03269 8.80827C3.60324 7.4852 4.37787 6.33431 5.35658 5.3556C6.33529 4.3769 7.48618 3.6019 8.80924 3.03063C10.1323 2.46008 11.546 2.1748 13.0503 2.1748C14.5546 2.1748 15.9683 2.46008 17.2914 3.03063C18.6144 3.6019 19.7653 4.3769 20.744 5.3556C21.7227 6.33431 22.4974 7.4852 23.0679 8.80827C23.6392 10.1313 23.9248 11.545 23.9248 13.0493C23.9248 14.5536 23.6392 15.9673 23.0679 17.2904C22.4974 18.6135 21.7227 19.7644 20.744 20.7431C19.7653 21.7218 18.6144 22.4964 17.2914 23.0669C15.9683 23.6382 14.5546 23.9239 13.0503 23.9239Z" fill="#E6366E"/>
</svg>
