<svg width="182" height="186" viewBox="0 0 182 186" fill="none" xmlns="http://www.w3.org/2000/svg">
<g filter="url(#filter0_i_10416_127697)">
<circle cx="91.3191" cy="97.4988" r="87.5027" fill="#FBF3FA"/>
</g>
<circle cx="91.3191" cy="97.4988" r="87.5027" stroke="#F3F4F6" stroke-width="0.870674"/>
<mask id="mask0_10416_127697" style="mask-type:alpha" maskUnits="userSpaceOnUse" x="1" y="4" width="182" height="182">
<path d="M182.323 94.9934C182.323 145.003 141.782 185.544 91.7727 185.544C41.7633 185.544 1.22266 145.003 1.22266 94.9934C1.22266 44.984 41.7633 4.44336 91.7727 4.44336C141.782 4.44336 182.323 44.984 182.323 94.9934Z" fill="white"/>
</mask>
<g mask="url(#mask0_10416_127697)">
<g clip-path="url(#clip0_10416_127697)">
<path d="M164.055 185.398H20.0645C20.0645 185.398 21.997 176.277 24.7508 167.117C27.5046 157.958 33.1958 154.119 40.5682 152.242C47.931 150.357 76.9957 141.351 76.9957 141.351L91.9726 140.158L92.0595 140.148L92.1465 140.158L105.655 141.236C105.655 141.236 136.178 150.357 143.541 152.242C150.914 154.128 156.605 157.958 159.359 167.117C162.112 176.277 164.055 185.398 164.055 185.398Z" fill="#E8356D"/>
<path d="M133.967 178.652H116.4C115.985 178.652 115.656 178.979 115.656 179.393V185.397H117.144V180.134H133.223V185.397H134.711V179.393C134.711 178.989 134.382 178.652 133.967 178.652Z" fill="#C4205C"/>
<path d="M91.1908 163.162C92.13 163.162 92.8914 162.404 92.8914 161.469C92.8914 160.534 92.13 159.775 91.1908 159.775C90.2516 159.775 89.4902 160.534 89.4902 161.469C89.4902 162.404 90.2516 163.162 91.1908 163.162Z" fill="#F5EFFF"/>
<path d="M91.1908 172.117C92.13 172.117 92.8914 171.359 92.8914 170.424C92.8914 169.489 92.13 168.73 91.1908 168.73C90.2516 168.73 89.4902 169.489 89.4902 170.424C89.4902 171.359 90.2516 172.117 91.1908 172.117Z" fill="#F5EFFF"/>
<path d="M91.1908 181.086C92.13 181.086 92.8914 180.328 92.8914 179.393C92.8914 178.457 92.13 177.699 91.1908 177.699C90.2516 177.699 89.4902 178.457 89.4902 179.393C89.4902 180.328 90.2516 181.086 91.1908 181.086Z" fill="#F5EFFF"/>
<path d="M92.146 140.137V140.146H92.0586L92.146 140.137Z" fill="#5D46C2"/>
<path d="M92.0601 140.146H91.9727V140.137L92.0601 140.146Z" fill="#5D46C2"/>
<path d="M105.411 144.877C105.411 144.877 101.681 151.824 91.2653 151.824C81.197 151.824 76.9648 144.531 76.9648 144.531L77.5832 139.537L77.6895 138.7L78.6558 130.83L103.566 131.523L103.981 134.515L104.116 135.496L105.411 144.877Z" fill="#FF8881"/>
<path d="M77.6829 138.701C77.6829 138.701 68.8031 140.192 62.252 145.869C62.252 145.869 64.1748 157.039 76.9679 168.085L91.2684 151.825C91.2684 151.825 81.7025 148.207 77.6829 138.701Z" fill="#C4205C"/>
<path d="M104.486 138.701C104.486 138.701 113.366 140.192 119.917 145.869C119.917 145.869 117.994 157.039 105.201 168.085L90.9004 151.825C90.9004 151.825 100.466 148.207 104.486 138.701Z" fill="#C4205C"/>
<path d="M103.974 134.515C98.3313 139.278 89.2002 141.086 77.5859 139.537L77.6922 138.7L78.6585 130.83L103.568 131.523L103.974 134.515Z" fill="#19274B"/>
<path d="M69.2959 110.36C63.7207 118.105 51.7295 112.871 52.5412 102.596C53.2852 93.2725 63.74 94.7542 63.74 94.7542L69.2959 110.36Z" fill="#F55B5D"/>
<path d="M64.1628 110.562C63.8246 110.562 63.5251 110.331 63.4381 109.995C62.3559 105.588 57.7469 101.46 57.7083 101.422C57.3991 101.153 57.3701 100.681 57.6503 100.373C57.9208 100.065 58.3943 100.036 58.7035 100.315C58.9064 100.498 63.699 104.78 64.8971 109.639C64.9937 110.033 64.7522 110.437 64.356 110.533C64.2884 110.553 64.2208 110.562 64.1628 110.562Z" fill="#D1373F"/>
<path d="M62.2516 106.366C62.1743 106.366 62.097 106.356 62.0197 106.327C59.9809 105.644 58.0388 106.058 58.0194 106.068C57.6233 106.154 57.2174 105.904 57.1305 105.51C57.0435 105.115 57.2948 104.721 57.6909 104.624C57.7875 104.605 60.0486 104.114 62.4932 104.932C62.8797 105.057 63.0922 105.481 62.9666 105.866C62.8507 106.173 62.5608 106.366 62.2516 106.366Z" fill="#D1373F"/>
<path d="M110.543 110.36C116.118 118.105 128.109 112.871 127.298 102.596C126.554 93.2725 116.099 94.7542 116.099 94.7542L110.543 110.36Z" fill="#F55B5D"/>
<path d="M115.673 110.563C115.615 110.563 115.557 110.553 115.499 110.544C115.103 110.447 114.852 110.043 114.958 109.649C116.156 104.79 120.949 100.509 121.152 100.326C121.461 100.056 121.925 100.085 122.205 100.384C122.475 100.691 122.446 101.153 122.147 101.432C122.099 101.471 117.499 105.589 116.417 110.005C116.311 110.332 116.011 110.563 115.673 110.563Z" fill="#D1373F"/>
<path d="M117.586 106.368C117.277 106.368 116.987 106.175 116.881 105.858C116.745 105.473 116.958 105.05 117.354 104.924C119.799 104.107 122.06 104.597 122.156 104.617C122.552 104.703 122.813 105.098 122.717 105.502C122.63 105.896 122.224 106.146 121.828 106.06C121.799 106.05 119.857 105.646 117.828 106.32C117.75 106.358 117.673 106.368 117.586 106.368Z" fill="#D1373F"/>
<path d="M61.5255 83.428C61.5255 83.428 58.8006 100.227 65.8542 116.66C72.2411 131.554 80.7441 136.191 89.7978 136.336C100.088 136.499 121.636 130.572 118.225 81.956C115.916 49.1088 64.2503 50.2633 61.5255 83.428Z" fill="#FF8881"/>
<g opacity="0.5">
<path d="M73.5936 113.542C77.5425 113.542 80.7438 112.073 80.7438 110.261C80.7438 108.449 77.5425 106.98 73.5936 106.98C69.6446 106.98 66.4434 108.449 66.4434 110.261C66.4434 112.073 69.6446 113.542 73.5936 113.542Z" fill="#F55B5D"/>
</g>
<g opacity="0.5">
<path d="M109.238 113.542C113.187 113.542 116.388 112.073 116.388 110.261C116.388 108.449 113.187 106.98 109.238 106.98C105.289 106.98 102.088 108.449 102.088 110.261C102.088 112.073 105.289 113.542 109.238 113.542Z" fill="#F55B5D"/>
</g>
<path d="M119.444 95.4938C119.444 95.4938 119.937 107.655 116.313 122.886C110.506 147.295 90.5822 144.043 90.5822 144.043C90.5822 144.043 71.0447 147.295 65.2376 122.886C61.6141 107.655 60.0488 96.2923 60.0488 96.2923L64.6288 90.2598C64.6288 90.2598 66.8609 111.292 74.9484 114.938C74.9484 114.938 78.5428 109.493 90.5822 114.582C102.622 109.493 106.612 114.938 106.612 114.938C114.7 111.292 115.386 91.0487 115.386 91.0487L119.444 95.4938Z" fill="#19274B"/>
<path d="M67.6231 73.2389C67.6231 73.2389 69.5459 85.8524 64.1736 90.461V100.871L61.014 101.814C61.014 101.814 58.2602 87.9018 57.2069 80.1566C55.1682 65.157 69.3044 63.252 69.3044 63.252L67.6231 73.2389Z" fill="#19274B"/>
<path d="M111.925 73.2389C111.925 73.2389 110.003 85.8524 115.375 90.461V100.871L118.535 101.814C118.535 101.814 121.288 87.9018 122.342 80.1566C124.38 65.157 110.244 63.252 110.244 63.252L111.925 73.2389Z" fill="#19274B"/>
<path d="M59.1876 72.4402C59.1876 72.4402 49.728 55.8049 72.1353 49.7146C87.7595 45.4716 108.911 49.9359 115.674 38.8906C115.674 38.8906 117.568 46.4434 113.829 51.2925C113.829 51.2925 124.023 48.2522 126.854 42.2677C126.854 42.2677 130.361 51.6293 124.931 58.8453C124.931 58.8453 129.125 60.2018 132.854 57.2673C132.854 57.2673 132.506 77.6742 117.336 76.5485C117.336 76.5485 114.128 74.1239 108.582 72.4402C103.036 70.7468 98.5332 79.2617 84.0878 75.6537C71.2077 72.4305 65.903 70.4004 59.1876 72.4402Z" fill="#19274B"/>
<path d="M91.074 128.157C88.9579 128.157 87.2767 127.417 87.1704 127.369C86.8612 127.224 86.7162 126.859 86.8612 126.551C87.0061 126.243 87.3636 126.099 87.6825 126.243C87.7405 126.262 91.5475 127.927 94.6105 125.925C94.9003 125.743 95.2772 125.819 95.4704 126.099C95.654 126.387 95.5767 126.762 95.2965 126.955C93.8955 127.878 92.3978 128.157 91.074 128.157Z" fill="#33476D"/>
<path d="M93.2675 111.888C93.2482 111.888 93.2385 111.888 93.2192 111.888L88.6875 111.523C88.3493 111.494 88.0884 111.196 88.1174 110.859C88.1464 110.522 88.4459 110.262 88.7841 110.291L92.5718 110.599L91.393 99.1305C91.3544 98.7938 91.6056 98.4859 91.9438 98.457C92.282 98.4186 92.5912 98.6687 92.6201 99.0055L93.8763 111.205C93.8956 111.388 93.828 111.571 93.7023 111.696C93.5961 111.831 93.4318 111.888 93.2675 111.888Z" fill="#F55B5D"/>
<path d="M81.3535 117.488C86.9288 118.354 92.6006 118.729 100.195 117.229C100.195 117.229 99.5383 125.31 90.5232 125.339C82.8609 125.368 81.3535 117.488 81.3535 117.488Z" fill="#F5EFFF"/>
<path d="M80.9085 99.0727C80.9085 101.209 79.9326 102.95 78.7247 102.95C77.5169 102.95 76.541 101.218 76.541 99.0727C76.541 96.9368 77.5169 95.1953 78.7247 95.1953C79.9326 95.1953 80.9085 96.9271 80.9085 99.0727Z" fill="#19274B"/>
<path d="M104.108 99.0727C104.108 101.209 103.132 102.95 101.924 102.95C100.716 102.95 99.7402 101.218 99.7402 99.0727C99.7402 96.9368 100.716 95.1953 101.924 95.1953C103.132 95.1953 104.108 96.9271 104.108 99.0727Z" fill="#19274B"/>
<path d="M74.8621 90.5873C76.3888 89.7695 78.6305 88.7593 80.8045 88.4418C81.9737 88.2686 82.708 87.1044 82.3119 85.998L82.2345 85.7767C81.9447 84.9781 81.1524 84.4778 80.3021 84.5644C78.3599 84.7664 74.9297 85.4495 72.6784 87.6721C72.1952 88.1531 72.0213 88.8747 72.2339 89.5194C72.5721 90.6162 73.8379 91.1357 74.8621 90.5873Z" fill="#19274B"/>
<path d="M105.859 90.5873C104.332 89.7695 102.09 88.7593 99.9163 88.4418C98.7472 88.2686 98.0128 87.1044 98.409 85.998L98.4863 85.7767C98.7762 84.9781 99.5685 84.4778 100.419 84.5644C102.361 84.7664 105.791 85.4495 108.033 87.6721C108.516 88.1531 108.69 88.8747 108.477 89.5194C108.149 90.6162 106.873 91.1357 105.859 90.5873Z" fill="#19274B"/>
</g>
</g>
<defs>
<filter id="filter0_i_10416_127697" x="3.38086" y="9.56055" width="175.877" height="175.877" filterUnits="userSpaceOnUse" color-interpolation-filters="sRGB">
<feFlood flood-opacity="0" result="BackgroundImageFix"/>
<feBlend mode="normal" in="SourceGraphic" in2="BackgroundImageFix" result="shape"/>
<feColorMatrix in="SourceAlpha" type="matrix" values="0 0 0 0 0 0 0 0 0 0 0 0 0 0 0 0 0 0 127 0" result="hardAlpha"/>
<feOffset dy="-6.09472"/>
<feComposite in2="hardAlpha" operator="arithmetic" k2="-1" k3="1"/>
<feColorMatrix type="matrix" values="0 0 0 0 0.754167 0 0 0 0 0.741597 0 0 0 0 0.741597 0 0 0 0.19 0"/>
<feBlend mode="normal" in2="shape" result="effect1_innerShadow_10416_127697"/>
</filter>
<clipPath id="clip0_10416_127697">
<rect width="143.971" height="146.244" fill="white" transform="translate(20.166 39.0566)"/>
</clipPath>
</defs>
</svg>
