<svg width="1035" height="433" viewBox="0 0 1035 433" fill="none" xmlns="http://www.w3.org/2000/svg">
<rect width="841" height="149" rx="6" fill="#F59E0B"/>
<path d="M20.96 123.8C34.16 123.8 39.76 117.72 39.76 102.04V69.4H32.8V100.84C32.8 113.08 30.08 117.16 21.04 117.16C12 117.16 7.84 110.68 7.12 101.32L0.88 105.4C2.56 116.44 9.68 123.8 20.96 123.8ZM65.9563 123.8C76.6763 123.8 84.2763 115.88 84.2763 103.64C84.2763 91.4 76.6763 83.48 65.9563 83.48C55.2363 83.48 47.7163 91.4 47.7163 103.64C47.7163 115.88 55.2363 123.8 65.9563 123.8ZM65.9563 117.96C59.3963 117.96 54.8363 113.4 54.8363 103.64C54.8363 93.8 59.3963 89.32 65.9563 89.32C72.5963 89.32 77.2363 93.8 77.2363 103.64C77.2363 113.4 72.5963 117.96 65.9563 117.96ZM100.131 78.04V69.4H93.1706V78.04H100.131ZM100.131 123V84.28H93.1706V123H100.131ZM117.553 123V101.08C117.553 94.6 120.273 89.4 127.713 89.4C134.273 89.4 136.273 92.92 136.273 97.96V123H143.153V96.28C143.153 88.04 138.433 83.48 130.833 83.48C123.233 83.48 119.073 88.6 117.553 94.6V84.28H110.592V123H117.553ZM183.141 123.8C190.901 123.8 195.061 118.52 196.501 112.44V123H203.381V84.28H196.501V106.28C196.501 112.68 193.781 117.96 186.261 117.96C179.701 117.96 177.701 114.36 177.701 109.4V84.28H170.821V111.08C170.821 119.24 175.541 123.8 183.141 123.8ZM227.82 123.8C235.34 123.8 241.9 120.36 241.9 112.68C241.9 107.32 239.02 103.72 230.3 101.64L225.34 100.36C220.06 99.08 217.5 97.88 217.5 94.44C217.5 91.16 220.38 89.4 224.38 89.4C229.9 89.4 233.58 92.28 235.5 96.84L240.78 92.92C238.62 87.8 232.94 83.48 224.78 83.48C216.38 83.48 210.94 87.8 210.94 94.84C210.94 101.96 216.94 104.6 222.46 105.88L227.58 107.08C232.14 108.12 235.66 109.24 235.66 112.76C235.66 116.2 232.62 117.96 228.06 117.96C220.38 117.96 216.14 113.56 214.78 109.16L209.74 113.08C212.38 120.28 219.74 123.8 227.82 123.8ZM274.506 78.04V69.4H267.546V78.04H274.506ZM274.506 123V84.28H267.546V123H274.506ZM291.928 123V101.08C291.928 94.6 294.648 89.4 302.088 89.4C308.648 89.4 310.648 92.92 310.648 97.96V123H317.528V96.28C317.528 88.04 312.808 83.48 305.208 83.48C297.608 83.48 293.448 88.6 291.928 94.6V84.28H284.967V123H291.928ZM360.476 123.8C367.996 123.8 374.556 120.36 374.556 112.68C374.556 107.32 371.676 103.72 362.956 101.64L357.996 100.36C352.716 99.08 350.156 97.88 350.156 94.44C350.156 91.16 353.036 89.4 357.036 89.4C362.556 89.4 366.236 92.28 368.156 96.84L373.436 92.92C371.276 87.8 365.596 83.48 357.436 83.48C349.036 83.48 343.596 87.8 343.596 94.84C343.596 101.96 349.596 104.6 355.116 105.88L360.236 107.08C364.796 108.12 368.316 109.24 368.316 112.76C368.316 116.2 365.276 117.96 360.716 117.96C353.036 117.96 348.796 113.56 347.436 109.16L342.396 113.08C345.036 120.28 352.396 123.8 360.476 123.8ZM389.584 123V101.08C389.584 94.6 392.304 89.4 399.744 89.4C406.304 89.4 408.304 92.92 408.304 97.96V123H415.184V96.28C415.184 88.04 410.464 83.48 402.864 83.48C395.264 83.48 391.104 88.6 389.584 94.6V69.4H382.624V123H389.584ZM433.671 123.8C441.671 123.8 445.831 118.04 447.111 112.92V115.64C447.111 121.08 449.991 123 453.991 123H458.471V116.68H455.991C454.551 116.68 453.831 116.12 453.831 114.28V98.36C453.831 89.16 448.711 83.48 439.191 83.48C430.551 83.48 424.791 88.36 422.471 92.36L427.191 97.24C429.191 93 432.871 89.8 438.391 89.8C444.471 89.8 446.631 93.16 446.871 97.72L432.871 103.96C427.351 106.44 423.431 109.72 423.431 114.92C423.431 120.04 427.111 123.8 433.671 123.8ZM430.471 113.8C430.471 111.4 432.151 109.8 435.831 108.04L447.111 102.76V108.12C447.111 113.72 442.471 118.04 435.911 118.04C432.311 118.04 430.471 116.44 430.471 113.8ZM473.49 137.88V113C474.85 118.84 478.53 123.8 485.97 123.8C495.73 123.8 501.81 115.8 501.81 103.56C501.81 91.32 495.73 83.4 485.97 83.4C478.53 83.4 474.85 88.36 473.49 94.2V84.28H466.53V137.88H473.49ZM473.49 106.36V100.84C473.49 94.44 476.21 89.24 483.57 89.24C489.73 89.24 494.77 93.72 494.77 103.56C494.77 113.48 489.73 117.96 483.57 117.96C476.21 117.96 473.49 112.76 473.49 106.36ZM517.162 78.04V69.4H510.202V78.04H517.162ZM517.162 123V84.28H510.202V123H517.162ZM534.584 123V101.08C534.584 94.6 537.304 89.4 544.744 89.4C551.304 89.4 553.304 92.92 553.304 97.96V123H560.184V96.28C560.184 88.04 555.464 83.48 547.864 83.48C540.264 83.48 536.104 88.6 534.584 94.6V84.28H527.624V123H534.584ZM585.166 111.16C594.286 111.16 600.446 105.4 600.446 97.32C600.446 92.52 598.206 88.44 594.526 86.04L601.646 78.04L594.446 75.48L592.046 84.76C590.046 83.96 587.726 83.48 585.166 83.48C576.046 83.48 569.886 89.24 569.886 97.32C569.886 102.2 572.126 106.28 575.966 108.68C572.206 111.72 569.886 115.08 569.886 118.12C569.886 120.68 571.166 122.52 573.646 123.32C570.686 124.52 567.406 126.68 567.406 130.28C567.406 135.4 573.646 138.68 583.566 138.68C596.606 138.68 603.806 133.48 603.806 126.12C603.806 120.28 599.406 117.48 592.366 117.48H580.686C576.686 117.48 575.566 116.44 575.566 114.36C575.566 112.68 576.686 110.84 577.646 109.56C579.806 110.6 582.366 111.16 585.166 111.16ZM585.166 105.8C580.366 105.8 576.606 102.6 576.606 97.32C576.606 92.04 580.366 88.84 585.166 88.84C590.046 88.84 593.726 92.04 593.726 97.32C593.726 102.6 590.046 105.8 585.166 105.8ZM583.566 133.16C576.606 133.16 573.006 131.24 573.006 128.12C573.006 126.28 574.366 124.6 575.646 123.48H591.486C595.406 123.48 597.326 124.6 597.326 127.08C597.326 130.92 592.366 133.16 583.566 133.16ZM619.128 123V112.6H610.728V123H619.128ZM636.316 123V112.6H627.916V123H636.316Z" fill="white"/>
<rect x="388" y="142" width="612" height="149" rx="6" fill="#E8356D"/>
<path d="M413.44 265V217.56H430.4V211.4H389.6V217.56H406.56V265H413.44ZM444.224 265V243.08C444.224 236.6 446.944 231.4 454.384 231.4C460.944 231.4 462.944 234.92 462.944 239.96V265H469.824V238.28C469.824 230.04 465.104 225.48 457.504 225.48C449.904 225.48 445.744 230.6 444.224 236.6V211.4H437.264V265H444.224ZM496.479 265.8C504.879 265.8 510.239 261.88 513.119 257.24L508.879 252.44C507.359 255.8 504.239 260.04 496.479 260.04C489.599 260.04 485.039 255.4 484.639 247.24H513.359C513.519 246.52 513.679 245.32 513.679 244.12C513.679 232.76 507.039 225.48 496.079 225.48C485.439 225.48 477.919 233.4 477.919 245.64C477.919 257.96 485.519 265.8 496.479 265.8ZM496.079 231.32C502.559 231.32 506.719 235.08 507.439 242.2H484.799C485.679 235 489.839 231.32 496.079 231.32ZM547.993 265V242.92H571.753V236.76H547.993V217.56H576.953V211.4H541.033V265H547.993ZM594.032 265.8C601.792 265.8 605.952 260.52 607.392 254.44V265H614.272V226.28H607.392V248.28C607.392 254.68 604.672 259.96 597.152 259.96C590.592 259.96 588.592 256.36 588.592 251.4V226.28H581.712V253.08C581.712 261.24 586.432 265.8 594.032 265.8ZM636.709 265.88C642.069 265.88 645.749 263.4 647.429 260.76L645.109 253.88C644.069 256.28 641.669 259.16 638.229 259.16C635.189 259.16 632.869 257.96 632.869 253V231.72H645.589V226.28H632.869V216.2L625.909 221.32V226.28H619.669V231.72H625.909V255.08C625.909 261.72 630.389 265.88 636.709 265.88ZM664.579 265.8C672.339 265.8 676.499 260.52 677.939 254.44V265H684.819V226.28H677.939V248.28C677.939 254.68 675.219 259.96 667.699 259.96C661.139 259.96 659.139 256.36 659.139 251.4V226.28H652.259V253.08C652.259 261.24 656.979 265.8 664.579 265.8ZM702.349 265V243.08C702.349 236.44 706.829 230.6 711.789 230.6C714.589 230.6 715.789 232.52 715.789 234.76C715.789 236.92 714.749 239.32 713.469 240.44H721.069C721.709 239.48 722.589 237.08 722.589 233.8C722.589 228.36 718.589 225.4 714.429 225.4C707.869 225.4 703.869 230.6 702.349 236.6V226.28H695.389V265H702.349ZM744.604 265.8C753.004 265.8 758.364 261.88 761.244 257.24L757.004 252.44C755.484 255.8 752.364 260.04 744.604 260.04C737.724 260.04 733.164 255.4 732.764 247.24H761.484C761.644 246.52 761.804 245.32 761.804 244.12C761.804 232.76 755.164 225.48 744.204 225.48C733.564 225.48 726.044 233.4 726.044 245.64C726.044 257.96 733.644 265.8 744.604 265.8ZM744.204 231.32C750.684 231.32 754.844 235.08 755.564 242.2H732.924C733.804 235 737.964 231.32 744.204 231.32ZM777.597 265V254.6H769.197V265H777.597ZM794.784 265V254.6H786.384V265H794.784Z" fill="white"/>
<rect y="284" width="613" height="149" rx="6" fill="#0D9488"/>
<path d="M29.92 407.8C45.44 407.8 55.84 395.72 55.84 380.12C55.84 364.68 45.44 352.6 29.92 352.6C14.48 352.6 4 364.68 4 380.12C4 395.72 14.48 407.8 29.92 407.8ZM30 401.16C17.76 401.16 11.36 392.44 11.36 380.12C11.36 367.96 17.76 359.16 30 359.16C42.24 359.16 48.64 367.96 48.64 380.12C48.64 392.44 42.24 401.16 30 401.16ZM75.1238 407V373.72H87.6038V368.28H75.1238V364.12C75.1238 360.44 76.7238 358.36 80.3238 358.36C83.7638 358.36 86.2438 360.44 87.7638 363.24L91.6038 358.28C90.0038 355.8 86.3238 352.6 80.4037 352.6C73.1238 352.6 68.1638 356.92 68.1638 364.68V368.28H61.8438V373.72H68.1638V407H75.1238ZM118.978 407V384.92H142.738V378.76H118.978V359.56H147.938V353.4H112.018V407H118.978ZM162.553 362.04V353.4H155.592V362.04H162.553ZM162.553 407V368.28H155.592V407H162.553ZM179.974 407V385.08C179.974 378.6 182.694 373.4 190.134 373.4C196.694 373.4 198.694 376.92 198.694 381.96V407H205.574V380.28C205.574 372.04 200.854 367.48 193.254 367.48C185.654 367.48 181.494 372.6 179.974 378.6V368.28H173.014V407H179.974ZM224.061 407.8C232.061 407.8 236.221 402.04 237.501 396.92V399.64C237.501 405.08 240.381 407 244.381 407H248.861V400.68H246.381C244.941 400.68 244.221 400.12 244.221 398.28V382.36C244.221 373.16 239.101 367.48 229.581 367.48C220.941 367.48 215.181 372.36 212.861 376.36L217.581 381.24C219.581 377 223.261 373.8 228.781 373.8C234.861 373.8 237.021 377.16 237.261 381.72L223.261 387.96C217.741 390.44 213.821 393.72 213.821 398.92C213.821 404.04 217.501 407.8 224.061 407.8ZM220.861 397.8C220.861 395.4 222.541 393.8 226.221 392.04L237.501 386.76V392.12C237.501 397.72 232.861 402.04 226.301 402.04C222.701 402.04 220.861 400.44 220.861 397.8ZM263.881 407V385.08C263.881 378.6 266.601 373.4 274.041 373.4C280.601 373.4 282.601 376.92 282.601 381.96V407H289.481V380.28C289.481 372.04 284.761 367.48 277.161 367.48C269.561 367.48 265.401 372.6 263.881 378.6V368.28H256.921V407H263.881ZM315.735 407.8C325.815 407.8 331.735 401.96 333.575 394.2L326.775 391.4C325.975 397.56 322.775 402.04 315.815 402.04C308.775 402.04 304.535 396.76 304.535 387.64C304.535 378.52 308.775 373.32 315.815 373.32C322.775 373.32 325.975 377.72 326.775 383.88L333.575 381.08C331.735 373.32 325.815 367.48 315.735 367.48C304.615 367.48 297.495 375.4 297.495 387.64C297.495 399.96 304.615 407.8 315.735 407.8ZM357.619 407.8C366.019 407.8 371.379 403.88 374.259 399.24L370.019 394.44C368.499 397.8 365.379 402.04 357.619 402.04C350.739 402.04 346.179 397.4 345.779 389.24H374.499C374.659 388.52 374.819 387.32 374.819 386.12C374.819 374.76 368.179 367.48 357.219 367.48C346.579 367.48 339.059 375.4 339.059 387.64C339.059 399.96 346.659 407.8 357.619 407.8ZM357.219 373.32C363.699 373.32 367.859 377.08 368.579 384.2H345.939C346.819 377 350.979 373.32 357.219 373.32ZM390.613 407V396.6H382.213V407H390.613ZM407.8 407V396.6H399.4V407H407.8Z" fill="white"/>
</svg>
