<svg width="1035" height="426" viewBox="0 0 1035 426" fill="none" xmlns="http://www.w3.org/2000/svg">
<rect width="898" height="142" rx="6" fill="#F59E0B"/>
<path d="M34.8 107.76C34.8 110.48 34.5067 113.013 33.92 115.36C33.3333 117.707 32.2933 119.76 30.8 121.52C29.36 123.28 27.3867 124.667 24.88 125.68C22.4267 126.693 19.3067 127.2 15.52 127.2C12 127.2 8.93333 126.72 6.32 125.76C3.76 124.747 1.78667 123.68 0.4 122.56L4 114.64C5.33333 115.547 6.96 116.427 8.88 117.28C10.8533 118.08 12.8533 118.48 14.88 118.48C18.2933 118.48 20.7733 117.627 22.32 115.92C23.8667 114.213 24.64 111.28 24.64 107.12V70.56H34.8V107.76ZM85.0156 105.04C85.0156 108.347 84.5356 111.36 83.5756 114.08C82.6156 116.8 81.2556 119.12 79.4956 121.04C77.7356 122.96 75.6023 124.453 73.0956 125.52C70.6423 126.587 67.9223 127.12 64.9356 127.12C61.949 127.12 59.229 126.587 56.7756 125.52C54.3223 124.453 52.2156 122.96 50.4556 121.04C48.6956 119.12 47.309 116.8 46.2956 114.08C45.3356 111.36 44.8556 108.347 44.8556 105.04C44.8556 101.733 45.3356 98.7467 46.2956 96.08C47.309 93.36 48.6956 91.04 50.4556 89.12C52.269 87.2 54.4023 85.7333 56.8556 84.72C59.309 83.6533 62.0023 83.12 64.9356 83.12C67.869 83.12 70.5623 83.6533 73.0156 84.72C75.5223 85.7333 77.6556 87.2 79.4156 89.12C81.1756 91.04 82.5356 93.36 83.4956 96.08C84.509 98.7467 85.0156 101.733 85.0156 105.04ZM75.0956 105.04C75.0956 100.88 74.189 97.6 72.3756 95.2C70.6156 92.7467 68.1356 91.52 64.9356 91.52C61.7356 91.52 59.229 92.7467 57.4156 95.2C55.6556 97.6 54.7756 100.88 54.7756 105.04C54.7756 109.253 55.6556 112.587 57.4156 115.04C59.229 117.493 61.7356 118.72 64.9356 118.72C68.1356 118.72 70.6156 117.493 72.3756 115.04C74.189 112.587 75.0956 109.253 75.0956 105.04ZM104.748 126H95.0681V84.16H104.748V126ZM105.788 71.92C105.788 73.7333 105.201 75.1733 104.028 76.24C102.855 77.3067 101.468 77.84 99.8681 77.84C98.2148 77.84 96.8015 77.3067 95.6281 76.24C94.4548 75.1733 93.8681 73.7333 93.8681 71.92C93.8681 70.0533 94.4548 68.5867 95.6281 67.52C96.8015 66.4533 98.2148 65.92 99.8681 65.92C101.468 65.92 102.855 66.4533 104.028 67.52C105.201 68.5867 105.788 70.0533 105.788 71.92ZM117.098 85.52C118.964 84.9867 121.391 84.48 124.378 84C127.364 83.52 130.671 83.28 134.298 83.28C137.711 83.28 140.564 83.76 142.858 84.72C145.151 85.6267 146.964 86.9333 148.298 88.64C149.684 90.2933 150.644 92.32 151.178 94.72C151.764 97.0667 152.057 99.6533 152.057 102.48V126H142.378V104C142.378 101.76 142.218 99.8667 141.898 98.32C141.631 96.72 141.151 95.44 140.458 94.48C139.818 93.4667 138.911 92.7467 137.738 92.32C136.618 91.84 135.231 91.6 133.578 91.6C132.351 91.6 131.071 91.68 129.738 91.84C128.404 92 127.418 92.1333 126.778 92.24V126H117.098V85.52ZM216.886 124.72C215.02 125.2 212.593 125.68 209.606 126.16C206.62 126.693 203.34 126.96 199.766 126.96C196.406 126.96 193.58 126.48 191.286 125.52C189.046 124.56 187.233 123.227 185.846 121.52C184.513 119.813 183.553 117.787 182.966 115.44C182.38 113.04 182.086 110.427 182.086 107.6V84.16H191.766V106.08C191.766 110.56 192.406 113.76 193.686 115.68C195.02 117.6 197.313 118.56 200.566 118.56C201.74 118.56 202.966 118.507 204.246 118.4C205.58 118.293 206.566 118.16 207.206 118V84.16H216.886V124.72ZM239.687 119.04C242.247 119.04 244.114 118.747 245.287 118.16C246.46 117.52 247.047 116.453 247.047 114.96C247.047 113.573 246.407 112.427 245.127 111.52C243.9 110.613 241.847 109.627 238.967 108.56C237.207 107.92 235.58 107.253 234.087 106.56C232.647 105.813 231.394 104.96 230.327 104C229.26 103.04 228.407 101.893 227.767 100.56C227.18 99.1733 226.887 97.4933 226.887 95.52C226.887 91.68 228.3 88.6667 231.127 86.48C233.954 84.24 237.794 83.12 242.647 83.12C245.1 83.12 247.447 83.36 249.687 83.84C251.927 84.2667 253.607 84.6933 254.727 85.12L252.967 92.96C251.9 92.48 250.54 92.0533 248.887 91.68C247.234 91.2533 245.314 91.04 243.127 91.04C241.154 91.04 239.554 91.3867 238.327 92.08C237.1 92.72 236.487 93.7333 236.487 95.12C236.487 95.8133 236.594 96.4267 236.807 96.96C237.074 97.4933 237.5 98 238.087 98.48C238.674 98.9067 239.447 99.36 240.407 99.84C241.367 100.267 242.54 100.72 243.927 101.2C246.22 102.053 248.167 102.907 249.767 103.76C251.367 104.56 252.674 105.493 253.687 106.56C254.754 107.573 255.527 108.747 256.007 110.08C256.487 111.413 256.727 113.013 256.727 114.88C256.727 118.88 255.234 121.92 252.247 124C249.314 126.027 245.1 127.04 239.607 127.04C235.927 127.04 232.967 126.72 230.727 126.08C228.487 125.493 226.914 125.013 226.007 124.64L227.687 116.56C229.127 117.147 230.834 117.707 232.807 118.24C234.834 118.773 237.127 119.04 239.687 119.04ZM294.201 126H284.521V84.16H294.201V126ZM295.241 71.92C295.241 73.7333 294.655 75.1733 293.481 76.24C292.308 77.3067 290.921 77.84 289.321 77.84C287.668 77.84 286.255 77.3067 285.081 76.24C283.908 75.1733 283.321 73.7333 283.321 71.92C283.321 70.0533 283.908 68.5867 285.081 67.52C286.255 66.4533 287.668 65.92 289.321 65.92C290.921 65.92 292.308 66.4533 293.481 67.52C294.655 68.5867 295.241 70.0533 295.241 71.92ZM306.551 85.52C308.417 84.9867 310.844 84.48 313.831 84C316.817 83.52 320.124 83.28 323.751 83.28C327.164 83.28 330.017 83.76 332.311 84.72C334.604 85.6267 336.417 86.9333 337.751 88.64C339.137 90.2933 340.097 92.32 340.631 94.72C341.217 97.0667 341.511 99.6533 341.511 102.48V126H331.831V104C331.831 101.76 331.671 99.8667 331.351 98.32C331.084 96.72 330.604 95.44 329.911 94.48C329.271 93.4667 328.364 92.7467 327.191 92.32C326.071 91.84 324.684 91.6 323.031 91.6C321.804 91.6 320.524 91.68 319.191 91.84C317.857 92 316.871 92.1333 316.231 92.24V126H306.551V85.52ZM382.499 119.04C385.059 119.04 386.926 118.747 388.099 118.16C389.273 117.52 389.859 116.453 389.859 114.96C389.859 113.573 389.219 112.427 387.939 111.52C386.713 110.613 384.659 109.627 381.779 108.56C380.019 107.92 378.393 107.253 376.899 106.56C375.459 105.813 374.206 104.96 373.139 104C372.073 103.04 371.219 101.893 370.579 100.56C369.993 99.1733 369.699 97.4933 369.699 95.52C369.699 91.68 371.113 88.6667 373.939 86.48C376.766 84.24 380.606 83.12 385.459 83.12C387.913 83.12 390.259 83.36 392.499 83.84C394.739 84.2667 396.419 84.6933 397.539 85.12L395.779 92.96C394.713 92.48 393.353 92.0533 391.699 91.68C390.046 91.2533 388.126 91.04 385.939 91.04C383.966 91.04 382.366 91.3867 381.139 92.08C379.913 92.72 379.299 93.7333 379.299 95.12C379.299 95.8133 379.406 96.4267 379.619 96.96C379.886 97.4933 380.313 98 380.899 98.48C381.486 98.9067 382.259 99.36 383.219 99.84C384.179 100.267 385.353 100.72 386.739 101.2C389.033 102.053 390.979 102.907 392.579 103.76C394.179 104.56 395.486 105.493 396.499 106.56C397.566 107.573 398.339 108.747 398.819 110.08C399.299 111.413 399.539 113.013 399.539 114.88C399.539 118.88 398.046 121.92 395.059 124C392.126 126.027 387.913 127.04 382.419 127.04C378.739 127.04 375.779 126.72 373.539 126.08C371.299 125.493 369.726 125.013 368.819 124.64L370.499 116.56C371.939 117.147 373.646 117.707 375.619 118.24C377.646 118.773 379.939 119.04 382.499 119.04ZM408.582 126V65.52L418.262 63.92V84.64C419.329 84.2667 420.555 83.9467 421.942 83.68C423.382 83.4133 424.795 83.28 426.182 83.28C429.542 83.28 432.315 83.76 434.502 84.72C436.742 85.6267 438.529 86.9333 439.862 88.64C441.195 90.2933 442.129 92.2933 442.662 94.64C443.249 96.9867 443.542 99.6 443.542 102.48V126H433.862V104C433.862 101.76 433.702 99.8667 433.382 98.32C433.115 96.72 432.635 95.44 431.942 94.48C431.302 93.4667 430.422 92.7467 429.302 92.32C428.182 91.84 426.795 91.6 425.142 91.6C423.862 91.6 422.555 91.7333 421.222 92C419.889 92.2667 418.902 92.5067 418.262 92.72V126H408.582ZM469.864 119.2C472.851 119.2 475.118 119.04 476.664 118.72V108C476.131 107.84 475.358 107.68 474.344 107.52C473.331 107.36 472.211 107.28 470.984 107.28C469.918 107.28 468.824 107.36 467.704 107.52C466.638 107.68 465.651 107.973 464.744 108.4C463.891 108.827 463.198 109.44 462.664 110.24C462.131 110.987 461.864 111.947 461.864 113.12C461.864 115.413 462.584 117.013 464.024 117.92C465.464 118.773 467.411 119.2 469.864 119.2ZM469.064 83.12C472.264 83.12 474.958 83.52 477.144 84.32C479.331 85.12 481.064 86.24 482.344 87.68C483.678 89.12 484.611 90.88 485.144 92.96C485.731 94.9867 486.024 97.2267 486.024 99.68V125.04C484.531 125.36 482.264 125.733 479.224 126.16C476.238 126.64 472.851 126.88 469.064 126.88C466.558 126.88 464.264 126.64 462.184 126.16C460.104 125.68 458.318 124.907 456.824 123.84C455.384 122.773 454.238 121.387 453.384 119.68C452.584 117.973 452.184 115.867 452.184 113.36C452.184 110.96 452.638 108.933 453.544 107.28C454.504 105.627 455.784 104.293 457.384 103.28C458.984 102.213 460.824 101.467 462.904 101.04C465.038 100.56 467.251 100.32 469.544 100.32C470.611 100.32 471.731 100.4 472.904 100.56C474.078 100.667 475.331 100.88 476.664 101.2V99.6C476.664 98.48 476.531 97.4133 476.264 96.4C475.998 95.3867 475.518 94.5067 474.824 93.76C474.184 92.96 473.304 92.3467 472.184 91.92C471.118 91.4933 469.758 91.28 468.104 91.28C465.864 91.28 463.811 91.44 461.944 91.76C460.078 92.08 458.558 92.4533 457.384 92.88L456.184 85.04C457.411 84.6133 459.198 84.1867 461.544 83.76C463.891 83.3333 466.398 83.12 469.064 83.12ZM525.639 105.28C525.639 100.96 524.652 97.6 522.679 95.2C520.759 92.8 517.639 91.6 513.319 91.6C512.412 91.6 511.452 91.6533 510.439 91.76C509.479 91.8133 508.519 91.9733 507.559 92.24V116.16C508.412 116.747 509.532 117.307 510.919 117.84C512.359 118.32 513.879 118.56 515.479 118.56C518.999 118.56 521.559 117.36 523.159 114.96C524.812 112.56 525.639 109.333 525.639 105.28ZM535.559 105.12C535.559 108.32 535.132 111.253 534.279 113.92C533.479 116.587 532.305 118.88 530.759 120.8C529.212 122.72 527.265 124.213 524.919 125.28C522.625 126.347 520.012 126.88 517.079 126.88C515.105 126.88 513.292 126.64 511.639 126.16C509.985 125.68 508.625 125.147 507.559 124.56V140.8H497.879V85.52C499.852 84.9867 502.279 84.48 505.159 84C508.039 83.52 511.079 83.28 514.279 83.28C517.585 83.28 520.545 83.7867 523.159 84.8C525.772 85.8133 527.985 87.28 529.799 89.2C531.665 91.0667 533.079 93.36 534.039 96.08C535.052 98.7467 535.559 101.76 535.559 105.12ZM555.295 126H545.615V84.16H555.295V126ZM556.335 71.92C556.335 73.7333 555.748 75.1733 554.575 76.24C553.402 77.3067 552.015 77.84 550.415 77.84C548.762 77.84 547.348 77.3067 546.175 76.24C545.002 75.1733 544.415 73.7333 544.415 71.92C544.415 70.0533 545.002 68.5867 546.175 67.52C547.348 66.4533 548.762 65.92 550.415 65.92C552.015 65.92 553.402 66.4533 554.575 67.52C555.748 68.5867 556.335 70.0533 556.335 71.92ZM567.644 85.52C569.511 84.9867 571.938 84.48 574.924 84C577.911 83.52 581.218 83.28 584.844 83.28C588.258 83.28 591.111 83.76 593.404 84.72C595.698 85.6267 597.511 86.9333 598.844 88.64C600.231 90.2933 601.191 92.32 601.724 94.72C602.311 97.0667 602.604 99.6533 602.604 102.48V126H592.924V104C592.924 101.76 592.764 99.8667 592.444 98.32C592.178 96.72 591.698 95.44 591.004 94.48C590.364 93.4667 589.458 92.7467 588.284 92.32C587.164 91.84 585.778 91.6 584.124 91.6C582.898 91.6 581.618 91.68 580.284 91.84C578.951 92 577.964 92.1333 577.324 92.24V126H567.644V85.52ZM622.041 104C622.041 108.107 622.921 111.12 624.681 113.04C626.495 114.907 628.815 115.84 631.641 115.84C633.188 115.84 634.628 115.627 635.961 115.2C637.348 114.773 638.468 114.267 639.321 113.68V92C638.628 91.84 637.775 91.7067 636.761 91.6C635.748 91.44 634.468 91.36 632.921 91.36C629.401 91.36 626.708 92.5333 624.841 94.88C622.975 97.1733 622.041 100.213 622.041 104ZM649.001 121.76C649.001 128.427 647.295 133.307 643.881 136.4C640.521 139.493 635.348 141.04 628.361 141.04C625.801 141.04 623.295 140.827 620.841 140.4C618.441 139.973 616.255 139.413 614.281 138.72L616.041 130.48C617.695 131.173 619.561 131.733 621.641 132.16C623.775 132.587 626.068 132.8 628.521 132.8C632.415 132.8 635.188 132 636.841 130.4C638.495 128.8 639.321 126.427 639.321 123.28V121.68C638.361 122.16 637.081 122.64 635.481 123.12C633.935 123.6 632.148 123.84 630.121 123.84C627.455 123.84 625.001 123.413 622.761 122.56C620.575 121.707 618.681 120.453 617.081 118.8C615.535 117.147 614.308 115.093 613.401 112.64C612.548 110.133 612.121 107.253 612.121 104C612.121 100.96 612.575 98.16 613.481 95.6C614.441 93.04 615.801 90.8533 617.561 89.04C619.375 87.2267 621.561 85.8133 624.121 84.8C626.681 83.7867 629.588 83.28 632.841 83.28C635.988 83.28 638.975 83.52 641.801 84C644.628 84.48 647.028 84.9867 649.001 85.52V121.76ZM672.196 120.72C672.196 122.587 671.556 124.107 670.276 125.28C669.05 126.453 667.556 127.04 665.796 127.04C663.983 127.04 662.463 126.453 661.236 125.28C660.01 124.107 659.396 122.587 659.396 120.72C659.396 118.853 660.01 117.333 661.236 116.16C662.463 114.933 663.983 114.32 665.796 114.32C667.556 114.32 669.05 114.933 670.276 116.16C671.556 117.333 672.196 118.853 672.196 120.72ZM693.446 120.72C693.446 122.587 692.806 124.107 691.526 125.28C690.3 126.453 688.806 127.04 687.046 127.04C685.233 127.04 683.713 126.453 682.486 125.28C681.26 124.107 680.646 122.587 680.646 120.72C680.646 118.853 681.26 117.333 682.486 116.16C683.713 114.933 685.233 114.32 687.046 114.32C688.806 114.32 690.3 114.933 691.526 116.16C692.806 117.333 693.446 118.853 693.446 120.72Z" fill="white"/>
<rect x="388" y="142" width="647" height="142" rx="6" fill="#E8356D"/>
<path d="M433.28 212.56V221.28H416.24V268H406.08V221.28H389.04V212.56H433.28ZM440.488 268V207.52L450.168 205.92V226.64C451.235 226.267 452.461 225.947 453.848 225.68C455.288 225.413 456.701 225.28 458.088 225.28C461.448 225.28 464.221 225.76 466.408 226.72C468.648 227.627 470.435 228.933 471.768 230.64C473.101 232.293 474.035 234.293 474.568 236.64C475.155 238.987 475.448 241.6 475.448 244.48V268H465.768V246C465.768 243.76 465.608 241.867 465.288 240.32C465.021 238.72 464.541 237.44 463.848 236.48C463.208 235.467 462.328 234.747 461.208 234.32C460.088 233.84 458.701 233.6 457.048 233.6C455.768 233.6 454.461 233.733 453.128 234C451.795 234.267 450.808 234.507 450.168 234.72V268H440.488ZM484.731 247.28C484.731 243.6 485.264 240.373 486.331 237.6C487.451 234.827 488.917 232.533 490.731 230.72C492.544 228.853 494.624 227.467 496.971 226.56C499.317 225.6 501.717 225.12 504.171 225.12C509.931 225.12 514.411 226.907 517.611 230.48C520.864 234.053 522.491 239.387 522.491 246.48C522.491 247.013 522.464 247.627 522.411 248.32C522.411 248.96 522.384 249.547 522.331 250.08H494.731C494.997 253.44 496.171 256.053 498.251 257.92C500.384 259.733 503.451 260.64 507.451 260.64C509.797 260.64 511.931 260.427 513.851 260C515.824 259.573 517.371 259.12 518.491 258.64L519.771 266.56C519.237 266.827 518.491 267.12 517.531 267.44C516.624 267.707 515.557 267.947 514.331 268.16C513.157 268.427 511.877 268.64 510.491 268.8C509.104 268.96 507.691 269.04 506.251 269.04C502.571 269.04 499.371 268.507 496.651 267.44C493.931 266.32 491.691 264.8 489.931 262.88C488.171 260.907 486.864 258.613 486.011 256C485.157 253.333 484.731 250.427 484.731 247.28ZM512.811 242.96C512.811 241.627 512.624 240.373 512.251 239.2C511.877 237.973 511.317 236.933 510.571 236.08C509.877 235.173 508.997 234.48 507.931 234C506.917 233.467 505.691 233.2 504.251 233.2C502.757 233.2 501.451 233.493 500.331 234.08C499.211 234.613 498.251 235.333 497.451 236.24C496.704 237.147 496.117 238.187 495.691 239.36C495.264 240.533 494.971 241.733 494.811 242.96H512.811ZM551.906 268V212.56H586.946V221.12H561.986V235.28H584.146V243.84H561.986V268H551.906ZM628.011 266.72C626.145 267.2 623.718 267.68 620.731 268.16C617.745 268.693 614.465 268.96 610.891 268.96C607.531 268.96 604.705 268.48 602.411 267.52C600.171 266.56 598.358 265.227 596.971 263.52C595.638 261.813 594.678 259.787 594.091 257.44C593.505 255.04 593.211 252.427 593.211 249.6V226.16H602.891V248.08C602.891 252.56 603.531 255.76 604.811 257.68C606.145 259.6 608.438 260.56 611.691 260.56C612.865 260.56 614.091 260.507 615.371 260.4C616.705 260.293 617.691 260.16 618.331 260V226.16H628.011V266.72ZM639.852 215.12L649.532 213.52V226.16H664.412V234.24H649.532V251.28C649.532 254.64 650.065 257.04 651.132 258.48C652.199 259.92 654.012 260.64 656.572 260.64C658.332 260.64 659.879 260.453 661.212 260.08C662.599 259.707 663.692 259.36 664.492 259.04L666.092 266.72C664.972 267.2 663.505 267.68 661.692 268.16C659.879 268.693 657.745 268.96 655.292 268.96C652.305 268.96 649.799 268.56 647.772 267.76C645.799 266.96 644.225 265.813 643.052 264.32C641.879 262.773 641.052 260.933 640.572 258.8C640.092 256.613 639.852 254.133 639.852 251.36V215.12ZM708.089 266.72C706.223 267.2 703.796 267.68 700.809 268.16C697.823 268.693 694.543 268.96 690.969 268.96C687.609 268.96 684.783 268.48 682.489 267.52C680.249 266.56 678.436 265.227 677.049 263.52C675.716 261.813 674.756 259.787 674.169 257.44C673.583 255.04 673.289 252.427 673.289 249.6V226.16H682.969V248.08C682.969 252.56 683.609 255.76 684.889 257.68C686.223 259.6 688.516 260.56 691.769 260.56C692.943 260.56 694.169 260.507 695.449 260.4C696.783 260.293 697.769 260.16 698.409 260V226.16H708.089V266.72ZM744.25 234.88C743.45 234.613 742.33 234.347 740.89 234.08C739.503 233.76 737.877 233.6 736.01 233.6C734.943 233.6 733.797 233.707 732.57 233.92C731.397 234.133 730.57 234.32 730.09 234.48V268H720.41V228.16C722.277 227.467 724.597 226.827 727.37 226.24C730.197 225.6 733.317 225.28 736.73 225.28C737.37 225.28 738.117 225.333 738.97 225.44C739.823 225.493 740.677 225.6 741.53 225.76C742.383 225.867 743.21 226.027 744.01 226.24C744.81 226.4 745.45 226.56 745.93 226.72L744.25 234.88ZM750.356 247.28C750.356 243.6 750.889 240.373 751.956 237.6C753.076 234.827 754.542 232.533 756.356 230.72C758.169 228.853 760.249 227.467 762.596 226.56C764.942 225.6 767.342 225.12 769.796 225.12C775.556 225.12 780.036 226.907 783.236 230.48C786.489 234.053 788.116 239.387 788.116 246.48C788.116 247.013 788.089 247.627 788.036 248.32C788.036 248.96 788.009 249.547 787.956 250.08H760.356C760.622 253.44 761.796 256.053 763.876 257.92C766.009 259.733 769.076 260.64 773.076 260.64C775.422 260.64 777.556 260.427 779.476 260C781.449 259.573 782.996 259.12 784.116 258.64L785.396 266.56C784.862 266.827 784.116 267.12 783.156 267.44C782.249 267.707 781.182 267.947 779.956 268.16C778.782 268.427 777.502 268.64 776.116 268.8C774.729 268.96 773.316 269.04 771.876 269.04C768.196 269.04 764.996 268.507 762.276 267.44C759.556 266.32 757.316 264.8 755.556 262.88C753.796 260.907 752.489 258.613 751.636 256C750.782 253.333 750.356 250.427 750.356 247.28ZM778.436 242.96C778.436 241.627 778.249 240.373 777.876 239.2C777.502 237.973 776.942 236.933 776.196 236.08C775.502 235.173 774.622 234.48 773.556 234C772.542 233.467 771.316 233.2 769.876 233.2C768.382 233.2 767.076 233.493 765.956 234.08C764.836 234.613 763.876 235.333 763.076 236.24C762.329 237.147 761.742 238.187 761.316 239.36C760.889 240.533 760.596 241.733 760.436 242.96H778.436ZM809.259 262.72C809.259 264.587 808.619 266.107 807.339 267.28C806.112 268.453 804.619 269.04 802.859 269.04C801.045 269.04 799.525 268.453 798.299 267.28C797.072 266.107 796.459 264.587 796.459 262.72C796.459 260.853 797.072 259.333 798.299 258.16C799.525 256.933 801.045 256.32 802.859 256.32C804.619 256.32 806.112 256.933 807.339 258.16C808.619 259.333 809.259 260.853 809.259 262.72ZM830.509 262.72C830.509 264.587 829.869 266.107 828.589 267.28C827.362 268.453 825.869 269.04 824.109 269.04C822.295 269.04 820.775 268.453 819.549 267.28C818.322 266.107 817.709 264.587 817.709 262.72C817.709 260.853 818.322 259.333 819.549 258.16C820.775 256.933 822.295 256.32 824.109 256.32C825.869 256.32 827.362 256.933 828.589 258.16C829.869 259.333 830.509 260.853 830.509 262.72Z" fill="white"/>
<rect y="284" width="642" height="142" rx="6" fill="#0D9488"/>
<path d="M14.88 382.24C14.88 385.28 15.2533 388.053 16 390.56C16.7467 393.013 17.8133 395.12 19.2 396.88C20.64 398.587 22.3733 399.92 24.4 400.88C26.4267 401.84 28.72 402.32 31.28 402.32C33.7867 402.32 36.0533 401.84 38.08 400.88C40.1067 399.92 41.8133 398.587 43.2 396.88C44.64 395.12 45.7333 393.013 46.48 390.56C47.2267 388.053 47.6 385.28 47.6 382.24C47.6 379.2 47.2267 376.453 46.48 374C45.7333 371.493 44.64 369.387 43.2 367.68C41.8133 365.92 40.1067 364.56 38.08 363.6C36.0533 362.64 33.7867 362.16 31.28 362.16C28.72 362.16 26.4267 362.64 24.4 363.6C22.3733 364.56 20.64 365.92 19.2 367.68C17.8133 369.44 16.7467 371.547 16 374C15.2533 376.453 14.88 379.2 14.88 382.24ZM58.16 382.24C58.16 386.987 57.44 391.173 56 394.8C54.6133 398.427 52.6933 401.467 50.24 403.92C47.84 406.32 45.0133 408.133 41.76 409.36C38.5067 410.587 35.04 411.2 31.36 411.2C27.68 411.2 24.1867 410.587 20.88 409.36C17.6267 408.133 14.7733 406.32 12.32 403.92C9.92 401.467 8 398.427 6.56 394.8C5.12 391.173 4.4 386.987 4.4 382.24C4.4 377.493 5.12 373.333 6.56 369.76C8 366.133 9.94667 363.093 12.4 360.64C14.9067 358.187 17.7867 356.347 21.04 355.12C24.2933 353.893 27.7333 353.28 31.36 353.28C34.9867 353.28 38.4267 353.893 41.68 355.12C44.9333 356.347 47.76 358.187 50.16 360.64C52.6133 363.093 54.56 366.133 56 369.76C57.44 373.333 58.16 377.493 58.16 382.24ZM85.7781 347.92C88.0181 347.92 89.9915 348.133 91.6981 348.56C93.4048 348.933 94.6848 349.28 95.5381 349.6L93.6981 357.6C92.7915 357.173 91.7248 356.827 90.4981 356.56C89.3248 356.293 88.0448 356.16 86.6581 356.16C85.1115 356.16 83.8048 356.4 82.7381 356.88C81.6715 357.307 80.8181 357.92 80.1781 358.72C79.5381 359.52 79.0848 360.507 78.8181 361.68C78.5515 362.8 78.4181 364.027 78.4181 365.36V368.16H93.6181V376.24H78.4181V410H68.7381V365.2C68.7381 359.813 70.1515 355.6 72.9781 352.56C75.8048 349.467 80.0715 347.92 85.7781 347.92ZM119.921 410V354.56H154.961V363.12H130.001V377.28H152.161V385.84H130.001V410H119.921ZM173.264 410H163.584V368.16H173.264V410ZM174.304 355.92C174.304 357.733 173.717 359.173 172.544 360.24C171.37 361.307 169.984 361.84 168.384 361.84C166.73 361.84 165.317 361.307 164.144 360.24C162.97 359.173 162.384 357.733 162.384 355.92C162.384 354.053 162.97 352.587 164.144 351.52C165.317 350.453 166.73 349.92 168.384 349.92C169.984 349.92 171.37 350.453 172.544 351.52C173.717 352.587 174.304 354.053 174.304 355.92ZM185.613 369.52C187.48 368.987 189.906 368.48 192.893 368C195.88 367.52 199.186 367.28 202.813 367.28C206.226 367.28 209.08 367.76 211.373 368.72C213.666 369.627 215.48 370.933 216.813 372.64C218.2 374.293 219.16 376.32 219.693 378.72C220.28 381.067 220.573 383.653 220.573 386.48V410H210.893V388C210.893 385.76 210.733 383.867 210.413 382.32C210.146 380.72 209.666 379.44 208.973 378.48C208.333 377.467 207.426 376.747 206.253 376.32C205.133 375.84 203.746 375.6 202.093 375.6C200.866 375.6 199.586 375.68 198.253 375.84C196.92 376 195.933 376.133 195.293 376.24V410H185.613V369.52ZM247.13 403.2C250.117 403.2 252.383 403.04 253.93 402.72V392C253.397 391.84 252.623 391.68 251.61 391.52C250.597 391.36 249.477 391.28 248.25 391.28C247.183 391.28 246.09 391.36 244.97 391.52C243.903 391.68 242.917 391.973 242.01 392.4C241.157 392.827 240.463 393.44 239.93 394.24C239.397 394.987 239.13 395.947 239.13 397.12C239.13 399.413 239.85 401.013 241.29 401.92C242.73 402.773 244.677 403.2 247.13 403.2ZM246.33 367.12C249.53 367.12 252.223 367.52 254.41 368.32C256.597 369.12 258.33 370.24 259.61 371.68C260.943 373.12 261.877 374.88 262.41 376.96C262.997 378.987 263.29 381.227 263.29 383.68V409.04C261.797 409.36 259.53 409.733 256.49 410.16C253.503 410.64 250.117 410.88 246.33 410.88C243.823 410.88 241.53 410.64 239.45 410.16C237.37 409.68 235.583 408.907 234.09 407.84C232.65 406.773 231.503 405.387 230.65 403.68C229.85 401.973 229.45 399.867 229.45 397.36C229.45 394.96 229.903 392.933 230.81 391.28C231.77 389.627 233.05 388.293 234.65 387.28C236.25 386.213 238.09 385.467 240.17 385.04C242.303 384.56 244.517 384.32 246.81 384.32C247.877 384.32 248.997 384.4 250.17 384.56C251.343 384.667 252.597 384.88 253.93 385.2V383.6C253.93 382.48 253.797 381.413 253.53 380.4C253.263 379.387 252.783 378.507 252.09 377.76C251.45 376.96 250.57 376.347 249.45 375.92C248.383 375.493 247.023 375.28 245.37 375.28C243.13 375.28 241.077 375.44 239.21 375.76C237.343 376.08 235.823 376.453 234.65 376.88L233.45 369.04C234.677 368.613 236.463 368.187 238.81 367.76C241.157 367.333 243.663 367.12 246.33 367.12ZM275.144 369.52C277.011 368.987 279.438 368.48 282.424 368C285.411 367.52 288.718 367.28 292.344 367.28C295.758 367.28 298.611 367.76 300.904 368.72C303.198 369.627 305.011 370.933 306.344 372.64C307.731 374.293 308.691 376.32 309.224 378.72C309.811 381.067 310.104 383.653 310.104 386.48V410H300.424V388C300.424 385.76 300.264 383.867 299.944 382.32C299.678 380.72 299.198 379.44 298.504 378.48C297.864 377.467 296.958 376.747 295.784 376.32C294.664 375.84 293.278 375.6 291.624 375.6C290.398 375.6 289.118 375.68 287.784 375.84C286.451 376 285.464 376.133 284.824 376.24V410H275.144V369.52ZM319.621 389.12C319.621 386.027 320.101 383.147 321.061 380.48C322.021 377.76 323.381 375.413 325.141 373.44C326.955 371.467 329.141 369.92 331.701 368.8C334.261 367.68 337.141 367.12 340.341 367.12C344.288 367.12 348.021 367.84 351.541 369.28L349.461 377.2C348.341 376.72 347.061 376.32 345.621 376C344.235 375.68 342.741 375.52 341.141 375.52C337.355 375.52 334.475 376.72 332.501 379.12C330.528 381.467 329.541 384.8 329.541 389.12C329.541 393.28 330.475 396.587 332.341 399.04C334.208 401.44 337.355 402.64 341.781 402.64C343.435 402.64 345.061 402.48 346.661 402.16C348.261 401.84 349.648 401.44 350.821 400.96L352.181 408.96C351.115 409.493 349.488 409.973 347.301 410.4C345.168 410.827 342.955 411.04 340.661 411.04C337.088 411.04 333.968 410.507 331.301 409.44C328.688 408.32 326.501 406.8 324.741 404.88C323.035 402.907 321.755 400.587 320.901 397.92C320.048 395.2 319.621 392.267 319.621 389.12ZM357.356 389.28C357.356 385.6 357.889 382.373 358.956 379.6C360.076 376.827 361.542 374.533 363.356 372.72C365.169 370.853 367.249 369.467 369.596 368.56C371.942 367.6 374.342 367.12 376.796 367.12C382.556 367.12 387.036 368.907 390.236 372.48C393.489 376.053 395.116 381.387 395.116 388.48C395.116 389.013 395.089 389.627 395.036 390.32C395.036 390.96 395.009 391.547 394.956 392.08H367.356C367.622 395.44 368.796 398.053 370.876 399.92C373.009 401.733 376.076 402.64 380.076 402.64C382.422 402.64 384.556 402.427 386.476 402C388.449 401.573 389.996 401.12 391.116 400.64L392.396 408.56C391.862 408.827 391.116 409.12 390.156 409.44C389.249 409.707 388.182 409.947 386.956 410.16C385.782 410.427 384.502 410.64 383.116 410.8C381.729 410.96 380.316 411.04 378.876 411.04C375.196 411.04 371.996 410.507 369.276 409.44C366.556 408.32 364.316 406.8 362.556 404.88C360.796 402.907 359.489 400.613 358.636 398C357.782 395.333 357.356 392.427 357.356 389.28ZM385.436 384.96C385.436 383.627 385.249 382.373 384.876 381.2C384.502 379.973 383.942 378.933 383.196 378.08C382.502 377.173 381.622 376.48 380.556 376C379.542 375.467 378.316 375.2 376.876 375.2C375.382 375.2 374.076 375.493 372.956 376.08C371.836 376.613 370.876 377.333 370.076 378.24C369.329 379.147 368.742 380.187 368.316 381.36C367.889 382.533 367.596 383.733 367.436 384.96H385.436ZM416.259 404.72C416.259 406.587 415.619 408.107 414.339 409.28C413.112 410.453 411.619 411.04 409.859 411.04C408.045 411.04 406.525 410.453 405.299 409.28C404.072 408.107 403.459 406.587 403.459 404.72C403.459 402.853 404.072 401.333 405.299 400.16C406.525 398.933 408.045 398.32 409.859 398.32C411.619 398.32 413.112 398.933 414.339 400.16C415.619 401.333 416.259 402.853 416.259 404.72ZM437.509 404.72C437.509 406.587 436.869 408.107 435.589 409.28C434.362 410.453 432.869 411.04 431.109 411.04C429.295 411.04 427.775 410.453 426.549 409.28C425.322 408.107 424.709 406.587 424.709 404.72C424.709 402.853 425.322 401.333 426.549 400.16C427.775 398.933 429.295 398.32 431.109 398.32C432.869 398.32 434.362 398.933 435.589 400.16C436.869 401.333 437.509 402.853 437.509 404.72Z" fill="white"/>
</svg>
