<svg width="32" height="32" viewBox="0 0 32 32" fill="none" xmlns="http://www.w3.org/2000/svg">
<path d="M11.0027 10.6707C12.2921 10.6707 13.3361 11.7147 13.3361 13.004V25.6707C13.3361 26.2895 13.0902 26.883 12.6526 27.3206C12.2151 27.7582 11.6216 28.004 11.0027 28.004H4.9974C4.37856 28.004 3.78506 27.7582 3.34748 27.3206C2.9099 26.883 2.66406 26.2895 2.66406 25.6707V13.004C2.66406 11.7147 3.7094 10.6707 4.9974 10.6707H11.0027ZM8.3334 23.3307H7.66673C7.40151 23.3307 7.14716 23.436 6.95962 23.6236C6.77209 23.8111 6.66673 24.0655 6.66673 24.3307C6.66673 24.5959 6.77209 24.8503 6.95962 25.0378C7.14716 25.2253 7.40151 25.3307 7.66673 25.3307H8.3334C8.59861 25.3307 8.85297 25.2253 9.0405 25.0378C9.22804 24.8503 9.3334 24.5959 9.3334 24.3307C9.3334 24.0655 9.22804 23.8111 9.0405 23.6236C8.85297 23.436 8.59861 23.3307 8.3334 23.3307ZM28.3307 22C28.5841 22.0001 28.828 22.0963 29.0131 22.2693C29.1982 22.4423 29.3108 22.6791 29.3281 22.9319C29.3454 23.1846 29.266 23.4345 29.1062 23.6311C28.9463 23.8276 28.7177 23.9562 28.4667 23.9907L28.3307 24L14.6641 23.9974V21.9974H28.3307V22ZM24.3307 6.66669C25.6187 6.66669 26.6641 7.71202 26.6641 9.00002V19C26.6641 19.6189 26.4182 20.2124 25.9806 20.6499C25.5431 21.0875 24.9496 21.3334 24.3307 21.3334H14.6641V12C14.6643 11.3273 14.4102 10.6793 13.9527 10.186C13.4953 9.69265 12.8683 9.39048 12.1974 9.34002L11.9974 9.33335L5.33073 9.33202V9.00002C5.33073 7.71202 6.37606 6.66669 7.66406 6.66669H24.3307Z" fill="#3D0072"/>
</svg>
