<svg width="185" height="175" viewBox="0 0 185 175" fill="none" xmlns="http://www.w3.org/2000/svg">
<g clip-path="url(#clip0_9586_569035)">
<g filter="url(#filter0_i_9586_569035)">
<circle cx="87.9324" cy="87.6023" r="87.5027" fill="white"/>
</g>
<circle cx="87.9324" cy="87.6023" r="87.5027" stroke="#F3F4F6" stroke-width="0.870674"/>
<mask id="mask0_9586_569035" style="mask-type:alpha" maskUnits="userSpaceOnUse" x="-4" y="-6" width="183" height="182">
<path d="M178.045 85.097C178.045 135.106 137.505 175.647 87.4954 175.647C37.486 175.647 -3.05469 135.106 -3.05469 85.097C-3.05469 35.0875 37.486 -5.45312 87.4954 -5.45312C137.505 -5.45312 178.045 35.0875 178.045 85.097Z" fill="white"/>
</mask>
<g mask="url(#mask0_9586_569035)">
<g clip-path="url(#clip1_9586_569035)">
<path d="M159.775 175.503H15.7852C15.7852 175.503 17.7177 166.382 20.4715 157.222C23.2253 148.063 28.9165 144.224 36.2889 142.348C43.6517 140.462 72.7164 131.457 72.7164 131.457L87.6933 130.264L87.7802 130.254L87.8672 130.264L101.375 131.341C101.375 131.341 131.899 140.462 139.262 142.348C146.634 144.234 152.326 148.063 155.079 157.222C157.833 166.382 159.775 175.503 159.775 175.503Z" fill="#E8356D"/>
<path d="M129.685 168.756H112.119C111.704 168.756 111.375 169.083 111.375 169.497V175.5H112.863V170.238H128.941V175.5H130.429V169.497C130.429 169.093 130.101 168.756 129.685 168.756Z" fill="#C4205C"/>
<path d="M86.9115 153.266C87.8507 153.266 88.6121 152.507 88.6121 151.572C88.6121 150.637 87.8507 149.879 86.9115 149.879C85.9723 149.879 85.2109 150.637 85.2109 151.572C85.2109 152.507 85.9723 153.266 86.9115 153.266Z" fill="#F5EFFF"/>
<path d="M86.9115 162.223C87.8507 162.223 88.6121 161.465 88.6121 160.529C88.6121 159.594 87.8507 158.836 86.9115 158.836C85.9723 158.836 85.2109 159.594 85.2109 160.529C85.2109 161.465 85.9723 162.223 86.9115 162.223Z" fill="#F5EFFF"/>
<path d="M86.9115 171.191C87.8507 171.191 88.6121 170.433 88.6121 169.498C88.6121 168.563 87.8507 167.805 86.9115 167.805C85.9723 167.805 85.2109 168.563 85.2109 169.498C85.2109 170.433 85.9723 171.191 86.9115 171.191Z" fill="#F5EFFF"/>
<path d="M87.8697 130.242V130.252H87.7812L87.8697 130.242Z" fill="#5D46C2"/>
<path d="M87.7837 130.252H87.6953V130.242L87.7837 130.252Z" fill="#5D46C2"/>
<path d="M101.13 134.989C101.13 134.989 97.4002 141.935 86.9841 141.935C76.9158 141.935 72.6836 134.642 72.6836 134.642L73.302 129.649L73.4083 128.812L74.3745 120.941L99.2844 121.634L99.6999 124.626L99.8352 125.608L101.13 134.989Z" fill="#FF8881"/>
<path d="M73.3997 128.812C73.3997 128.812 64.5199 130.304 57.9688 135.98C57.9688 135.98 59.8916 147.151 72.6847 158.196L86.9852 141.936C86.9852 141.936 77.4193 138.318 73.3997 128.812Z" fill="#C4205C"/>
<path d="M100.203 128.812C100.203 128.812 109.082 130.304 115.634 135.98C115.634 135.98 113.711 147.151 100.918 158.196L86.6172 141.936C86.6172 141.936 96.183 138.318 100.203 128.812Z" fill="#C4205C"/>
<path d="M99.6929 124.626C94.05 129.389 84.919 131.198 73.3047 129.649L73.411 128.812L74.3772 120.941L99.2871 121.634L99.6929 124.626Z" fill="#19274B"/>
<path d="M65.0127 100.465C59.4375 108.211 47.4463 102.977 48.258 92.701C49.002 83.3779 59.4568 84.8596 59.4568 84.8596L65.0127 100.465Z" fill="#F55B5D"/>
<path d="M59.8815 100.67C59.5433 100.67 59.2438 100.439 59.1568 100.102C58.0746 95.6954 53.4657 91.5678 53.427 91.5293C53.1178 91.2599 53.0888 90.7885 53.369 90.4806C53.6396 90.1727 54.113 90.1439 54.4222 90.4229C54.6252 90.6057 59.4177 94.8872 60.6159 99.7459C60.7125 100.14 60.4709 100.545 60.0748 100.641C60.0071 100.66 59.9395 100.67 59.8815 100.67Z" fill="#D1373F"/>
<path d="M57.9664 96.4713C57.8891 96.4713 57.8118 96.4617 57.7345 96.4328C55.6958 95.7497 53.7536 96.1634 53.7343 96.173C53.3381 96.2596 52.9323 96.0095 52.8453 95.615C52.7584 95.2206 53.0096 94.8261 53.4058 94.7299C53.5024 94.7106 55.7634 94.2199 58.208 95.0377C58.5945 95.1628 58.8071 95.5862 58.6815 95.971C58.5655 96.2789 58.2756 96.4713 57.9664 96.4713Z" fill="#D1373F"/>
<path d="M106.266 100.465C111.841 108.211 123.832 102.977 123.02 92.701C122.276 83.3779 111.822 84.8596 111.822 84.8596L106.266 100.465Z" fill="#F55B5D"/>
<path d="M111.396 100.67C111.338 100.67 111.28 100.661 111.222 100.651C110.826 100.555 110.574 100.151 110.681 99.7564C111.879 94.8976 116.671 90.6161 116.874 90.4333C117.184 90.1639 117.647 90.1928 117.928 90.491C118.198 90.7989 118.169 91.2607 117.87 91.5397C117.821 91.5782 113.222 95.6962 112.14 100.112C112.033 100.439 111.734 100.67 111.396 100.67Z" fill="#D1373F"/>
<path d="M113.309 96.4751C112.999 96.4751 112.71 96.2826 112.603 95.9651C112.468 95.5803 112.681 95.1569 113.077 95.0319C115.521 94.2141 117.782 94.7048 117.879 94.724C118.275 94.8106 118.536 95.2051 118.439 95.6092C118.352 96.0036 117.947 96.2538 117.55 96.1672C117.521 96.1576 115.579 95.7535 113.55 96.427C113.473 96.4655 113.396 96.4751 113.309 96.4751Z" fill="#D1373F"/>
<path d="M57.2442 73.5354C57.2442 73.5354 54.5194 90.3343 61.573 106.767C67.9599 121.661 76.4629 126.299 85.5166 126.443C95.8071 126.607 117.354 120.68 113.944 72.0634C111.634 39.2162 59.969 40.3707 57.2442 73.5354Z" fill="#FF8881"/>
<g opacity="0.5">
<path d="M69.3104 103.652C73.2593 103.652 76.4606 102.183 76.4606 100.371C76.4606 98.5587 73.2593 97.0898 69.3104 97.0898C65.3614 97.0898 62.1602 98.5587 62.1602 100.371C62.1602 102.183 65.3614 103.652 69.3104 103.652Z" fill="#F55B5D"/>
</g>
<g opacity="0.5">
<path d="M104.959 103.652C108.908 103.652 112.109 102.183 112.109 100.371C112.109 98.5587 108.908 97.0898 104.959 97.0898C101.01 97.0898 97.8086 98.5587 97.8086 100.371C97.8086 102.183 101.01 103.652 104.959 103.652Z" fill="#F55B5D"/>
</g>
<path d="M115.161 85.6009C115.161 85.6009 115.654 97.7623 112.03 112.993C106.223 137.402 86.299 134.15 86.299 134.15C86.299 134.15 66.7615 137.402 60.9544 112.993C57.3309 97.7623 55.7656 86.3995 55.7656 86.3995L60.3456 80.3669C60.3456 80.3669 62.5777 101.399 70.6652 105.046C70.6652 105.046 74.2596 99.6 86.299 104.69C98.3385 99.6 102.329 105.046 102.329 105.046C110.417 101.399 111.103 81.1559 111.103 81.1559L115.161 85.6009Z" fill="#19274B"/>
<path d="M63.3399 63.3483C63.3399 63.3483 65.2627 75.9618 59.8904 80.5704V90.9807L56.7308 91.9236C56.7308 91.9236 53.977 78.0112 52.9237 70.266C50.885 55.2664 65.0212 53.3613 65.0212 53.3613L63.3399 63.3483Z" fill="#19274B"/>
<path d="M107.642 63.3483C107.642 63.3483 105.719 75.9618 111.092 80.5704V90.9807L114.251 91.9236C114.251 91.9236 117.005 78.0112 118.058 70.266C120.097 55.2664 105.961 53.3613 105.961 53.3613L107.642 63.3483Z" fill="#19274B"/>
<path d="M54.9044 62.5495C54.9044 62.5495 45.4448 45.9143 67.8521 39.824C83.4763 35.581 104.627 40.0453 111.391 29C111.391 29 113.285 36.5527 109.546 41.4019C109.546 41.4019 119.74 38.3615 122.571 32.3771C122.571 32.3771 126.078 41.7386 120.648 48.9546C120.648 48.9546 124.841 50.3112 128.571 47.3767C128.571 47.3767 128.223 67.7835 113.053 66.6579C113.053 66.6579 109.845 64.2333 104.299 62.5495C98.7527 60.8562 94.25 69.3711 79.8046 65.7631C66.9245 62.5399 61.6198 60.5098 54.9044 62.5495Z" fill="#19274B"/>
<path d="M86.7928 118.269C84.6767 118.269 82.9954 117.528 82.8891 117.48C82.5799 117.336 82.435 116.97 82.5799 116.662C82.7249 116.354 83.0824 116.21 83.4012 116.354C83.4592 116.373 87.2662 118.038 90.3292 116.037C90.6191 115.854 90.9959 115.931 91.1892 116.21C91.3728 116.498 91.2955 116.874 91.0153 117.066C89.6142 117.99 88.1165 118.269 86.7928 118.269Z" fill="#33476D"/>
<path d="M88.9843 101.998C88.965 101.998 88.9553 101.998 88.936 101.998L84.4043 101.632C84.0661 101.603 83.8052 101.305 83.8342 100.968C83.8632 100.632 84.1627 100.372 84.5009 100.401L88.2886 100.709L87.1098 89.2399C87.0712 88.9032 87.3224 88.5953 87.6606 88.5664C87.9988 88.5279 88.3079 88.7781 88.3369 89.1148L89.5931 101.315C89.6124 101.497 89.5448 101.68 89.4191 101.805C89.3129 101.94 89.1486 101.998 88.9843 101.998Z" fill="#F55B5D"/>
<path d="M77.0703 107.596C82.6456 108.462 88.3174 108.837 95.9121 107.336C95.9121 107.336 95.2551 115.418 86.24 115.447C78.5776 115.476 77.0703 107.596 77.0703 107.596Z" fill="#F5EFFF"/>
<path d="M76.6253 89.1801C76.6253 91.3161 75.6493 93.0575 74.4415 93.0575C73.2337 93.0575 72.2578 91.3257 72.2578 89.1801C72.2578 87.0442 73.2337 85.3027 74.4415 85.3027C75.6493 85.3027 76.6253 87.0346 76.6253 89.1801Z" fill="#19274B"/>
<path d="M99.8245 89.1801C99.8245 91.3161 98.8486 93.0575 97.6407 93.0575C96.4329 93.0575 95.457 91.3257 95.457 89.1801C95.457 87.0442 96.4329 85.3027 97.6407 85.3027C98.8486 85.3027 99.8245 87.0346 99.8245 89.1801Z" fill="#19274B"/>
<path d="M70.5769 80.6948C72.1036 79.8769 74.3453 78.8667 76.5194 78.5492C77.6885 78.376 78.4229 77.2118 78.0267 76.1054L77.9494 75.8841C77.6595 75.0855 76.8672 74.5852 76.0169 74.6718C74.0747 74.8739 70.6446 75.557 68.3932 77.7795C67.9101 78.2606 67.7362 78.9822 67.9487 79.6268C68.2869 80.7236 69.5527 81.2432 70.5769 80.6948Z" fill="#19274B"/>
<path d="M101.574 80.6948C100.047 79.8769 97.8052 78.8667 95.6312 78.5492C94.462 78.376 93.7277 77.2118 94.1238 76.1054L94.2011 75.8841C94.491 75.0855 95.2833 74.5852 96.1336 74.6718C98.0758 74.8739 101.506 75.557 103.748 77.7795C104.231 78.2606 104.405 78.9822 104.192 79.6268C103.864 80.7236 102.588 81.2432 101.574 80.6948Z" fill="#19274B"/>
</g>
</g>
<mask id="mask1_9586_569035" style="mask-type:luminance" maskUnits="userSpaceOnUse" x="100" y="-26" width="123" height="122">
<path d="M222.579 -25.6328H100.879V95.453H222.579V-25.6328Z" fill="white"/>
</mask>
<g mask="url(#mask1_9586_569035)">
<g filter="url(#filter1_d_9586_569035)">
<path d="M183.344 13.6045L161.681 7.13809C161.377 7.04739 161.054 7.04739 160.751 7.13809L139.086 13.6045C138.402 13.8087 137.934 14.4355 137.934 15.1463V38.8564C137.934 41.9405 139.188 45.0971 141.663 48.2395C143.553 50.6393 146.168 53.0491 149.435 55.402C154.923 59.3546 160.327 61.7793 160.555 61.8803C160.765 61.9741 160.99 62.021 161.216 62.021C161.441 62.021 161.667 61.9744 161.877 61.8803C162.104 61.7793 167.508 59.3546 172.997 55.402C176.263 53.0491 178.878 50.6393 180.768 48.2395C183.243 45.0974 184.497 41.9405 184.497 38.8564V15.1463C184.497 14.4355 184.029 13.8087 183.344 13.6045Z" fill="white"/>
<path d="M167.674 29.6736H153.762C151.882 29.6736 150.344 31.2042 150.344 33.0745V42.0969C150.344 43.9674 151.882 45.4981 153.762 45.4981H167.674C169.554 45.4981 171.092 43.9674 171.092 42.0969V33.0745C171.092 31.2042 169.554 29.6736 167.674 29.6736ZM160.718 40.4014C159.356 40.4014 158.251 39.3024 158.251 37.947C158.251 36.5914 159.356 35.4928 160.718 35.4928C162.081 35.4928 163.185 36.5914 163.185 37.947C163.185 39.3024 162.081 40.4014 160.718 40.4014Z" fill="#8807F7"/>
<path d="M155.077 30.6749C154.533 30.5504 154.121 30.0739 154.104 29.4923L154.01 26.3365C153.901 22.6957 156.787 19.6401 160.442 19.5248C164.097 19.4097 167.159 22.2779 167.267 25.9187L167.354 28.87C167.375 29.5623 166.828 30.1411 166.133 30.163C165.439 30.185 164.859 29.6416 164.838 28.9494L164.75 25.998C164.683 23.7393 162.784 21.9596 160.517 22.031C158.249 22.1026 156.459 23.9984 156.526 26.2571L156.62 29.4132C156.641 30.1052 156.094 30.6841 155.399 30.7059C155.288 30.7095 155.18 30.6985 155.077 30.6749Z" fill="#8807F7"/>
</g>
</g>
</g>
<defs>
<filter id="filter0_i_9586_569035" x="-0.00390625" y="-0.335693" width="175.875" height="175.876" filterUnits="userSpaceOnUse" color-interpolation-filters="sRGB">
<feFlood flood-opacity="0" result="BackgroundImageFix"/>
<feBlend mode="normal" in="SourceGraphic" in2="BackgroundImageFix" result="shape"/>
<feColorMatrix in="SourceAlpha" type="matrix" values="0 0 0 0 0 0 0 0 0 0 0 0 0 0 0 0 0 0 127 0" result="hardAlpha"/>
<feOffset dy="-6.09472"/>
<feComposite in2="hardAlpha" operator="arithmetic" k2="-1" k3="1"/>
<feColorMatrix type="matrix" values="0 0 0 0 0.754167 0 0 0 0 0.741597 0 0 0 0 0.741597 0 0 0 0.19 0"/>
<feBlend mode="normal" in2="shape" result="effect1_innerShadow_9586_569035"/>
</filter>
<filter id="filter1_d_9586_569035" x="134.378" y="7.07007" width="53.6736" height="62.062" filterUnits="userSpaceOnUse" color-interpolation-filters="sRGB">
<feFlood flood-opacity="0" result="BackgroundImageFix"/>
<feColorMatrix in="SourceAlpha" type="matrix" values="0 0 0 0 0 0 0 0 0 0 0 0 0 0 0 0 0 0 127 0" result="hardAlpha"/>
<feOffset dy="3.55556"/>
<feGaussianBlur stdDeviation="1.77778"/>
<feComposite in2="hardAlpha" operator="out"/>
<feColorMatrix type="matrix" values="0 0 0 0 0.533334 0 0 0 0 0.027451 0 0 0 0 0.968627 0 0 0 0.18 0"/>
<feBlend mode="normal" in2="BackgroundImageFix" result="effect1_dropShadow_9586_569035"/>
<feBlend mode="normal" in="SourceGraphic" in2="effect1_dropShadow_9586_569035" result="shape"/>
</filter>
<clipPath id="clip0_9586_569035">
<rect width="184" height="175" fill="white" transform="translate(0.5)"/>
</clipPath>
<clipPath id="clip1_9586_569035">
<rect width="143.971" height="146.244" fill="white" transform="translate(15.8906 29.1602)"/>
</clipPath>
</defs>
</svg>
