<svg width="236" height="160" viewBox="0 0 236 160" fill="none" xmlns="http://www.w3.org/2000/svg">
<path d="M222.332 208.597H217.615V207.528H221.807V207.674H222.332V208.597ZM213.423 208.597H209.23V207.528H213.423V208.597ZM205.038 208.597H200.845V207.528H205.038V208.597ZM196.653 208.597H192.46V207.528H196.653V208.597ZM188.268 208.597H184.075V207.528H188.268V208.597ZM179.883 208.597H175.69V207.528H179.883V208.597ZM171.498 208.597H167.305V207.528H171.498V208.597ZM163.113 208.597H158.92V207.528H163.113V208.597ZM154.728 208.597H150.535V207.528H154.728V208.597ZM146.343 208.597H142.15V207.528H146.343V208.597ZM137.958 208.597H133.765V207.528H137.958V208.597ZM129.573 208.597H125.38V207.528H129.573V208.597ZM121.188 208.597H116.996V207.528H121.188V208.597ZM112.803 208.597H108.611V207.528H112.803V208.597ZM104.418 208.597H100.226V207.528H104.418V208.597ZM96.0331 208.597H91.8406V207.528H96.0331V208.597ZM87.6482 208.597H83.4557V207.528H87.6482V208.597ZM79.2632 208.597H75.0707V207.528H79.2632V208.597ZM70.8783 208.597H66.6858V207.528H70.8783V208.597ZM62.4933 208.597H58.3008V207.528H62.4933V208.597ZM54.1083 208.597H49.9159V207.528H54.1083V208.597ZM45.7234 208.597H41.5309V207.528H45.7234V208.597ZM37.3384 208.597H33.146V207.528H37.3384V208.597ZM28.9535 208.597H24.761V207.528H28.9535V208.597ZM20.5685 208.597H16.376V207.528H20.5685V208.597ZM14.72 206.06H13.6719V201.868H14.72V206.06ZM222.248 203.503H221.2V199.31H222.248V203.503ZM14.72 197.675H13.6719V193.483H14.72V197.675ZM222.248 195.118H221.2V190.925H222.248V195.118ZM14.72 189.29H13.6719V185.098H14.72V189.29ZM222.248 186.733H221.2V182.54H222.248V186.733ZM14.72 180.905H13.6719V176.713H14.72V180.905ZM222.248 178.348H221.2V174.156H222.248V178.348ZM14.72 172.52H13.6719V168.328H14.72V172.52ZM222.248 169.963H221.2V165.771H222.248V169.963ZM14.72 164.136H13.6719V159.943H14.72V164.136ZM222.248 161.578H221.2V157.386H222.248V161.578ZM14.72 155.751H13.6719V151.558H14.72V155.751ZM222.248 153.193H221.2V149.001H222.248V153.193ZM14.72 147.366H13.6719V143.173H14.72V147.366ZM222.248 144.808H221.2V140.616H222.248V144.808ZM14.72 138.981H13.6719V134.788H14.72V138.981ZM222.248 136.423H221.2V132.231H222.248V136.423ZM14.72 130.596H13.6719V126.403H14.72V130.596ZM222.248 128.038H221.2V123.846H222.248V128.038ZM14.72 122.211H13.6719V118.018H14.72V122.211ZM222.248 119.653H221.2V115.461H222.248V119.653ZM14.72 113.826H13.6719V109.633H14.72V113.826ZM222.248 111.268H221.2V107.076H222.248V111.268ZM14.72 105.441H13.6719V101.248H14.72V105.441ZM222.248 102.883H221.2V98.6909H222.248V102.883ZM14.72 97.0559H13.6719V92.8634H14.72V97.0559ZM222.248 94.4985H221.2V90.306H222.248V94.4985ZM14.72 88.6709H13.6719V84.4784H14.72V88.6709ZM222.248 86.1135H221.2V81.921H222.248V86.1135ZM14.72 80.286H13.6719V76.0935H14.72V80.286ZM222.248 77.7285H221.2V73.5361H222.248V77.7285ZM14.72 71.901H13.6719V67.7085H14.72V71.901ZM222.248 69.3436H221.2V65.1511H222.248V69.3436ZM14.72 63.5161H13.6719V59.3236H14.72V63.5161ZM222.248 60.9586H221.2V56.7662H222.248V60.9586ZM14.72 55.1311H13.6719V50.9386H14.72V55.1311ZM222.248 52.5737H221.2V48.3812H222.248V52.5737ZM14.72 46.7461H13.6719V42.5537H14.72V46.7461ZM222.248 44.1887H221.2V39.9962H222.248V44.1887ZM14.72 38.3612H13.6719V34.1687H14.72V38.3612ZM222.248 35.8038H221.2V31.6113H222.248V35.8038ZM14.72 29.9762H13.6719V25.7837H14.72V29.9762ZM222.248 27.4188H221.2V23.2263H222.248V27.4188ZM14.72 21.5913H13.6719V17.3988H14.72V21.5913ZM222.248 19.0339H221.2V14.8414H222.248V19.0339ZM14.72 13.2063H13.6719V9.01383H14.72V13.2063ZM222.248 10.6489H221.2V6.45642H222.248V10.6489ZM14.72 4.82135H13.6719V0.62887H14.72V4.82135ZM222.248 2.26394H221.2V0.964268H219.355V0H222.248V2.26394ZM215.162 0.964268H210.97V0H215.162V0.964268ZM206.777 0.964268H202.585V0H206.777V0.964268ZM198.392 0.964268H194.2V0H198.392V0.964268ZM190.007 0.964268H185.815V0H190.007V0.964268ZM181.623 0.964268H177.43V0H181.623V0.964268ZM173.238 0.964268H169.045V0H173.238V0.964268ZM164.853 0.964268H160.66V0H164.853V0.964268ZM156.468 0.964268H152.275V0H156.468V0.964268ZM148.083 0.964268H143.89V0H148.083V0.964268ZM139.698 0.964268H135.505V0H139.698V0.964268ZM131.313 0.964268H127.12V0H131.313V0.964268ZM122.928 0.964268H118.735V0H122.928V0.964268ZM114.543 0.964268H110.35V0H114.543V0.964268ZM106.158 0.964268H101.965V0H106.158V0.964268ZM97.773 0.964268H93.5805V0H97.773V0.964268ZM89.388 0.964268H85.1955V0H89.388V0.964268ZM81.0031 0.964268H76.8106V0H81.0031V0.964268ZM72.6181 0.964268H68.4256V0H72.6181V0.964268ZM64.2331 0.964268H60.0407V0H64.2331V0.964268ZM55.8482 0.964268H51.6557V0H55.8482V0.964268ZM47.4632 0.964268H43.2708V0H47.4632V0.964268ZM39.0783 0.964268H34.8858V0H39.0783V0.964268ZM30.6933 0.964268H26.5008V0H30.6933V0.964268ZM22.3084 0.964268H18.1159V0H22.3084V0.964268Z" fill="#263238"/>
<path d="M235.959 85.6732L226.799 177.258C226.686 178.479 226.332 179.667 225.758 180.751C225.184 181.835 224.4 182.795 223.453 183.574C222.506 184.354 221.413 184.938 220.239 185.293C219.064 185.648 217.831 185.767 216.611 185.643L71.3625 171.116C68.8976 170.872 66.6303 169.66 65.0582 167.746C63.4861 165.832 62.7378 163.372 62.9775 160.907L72.1381 69.3225C72.3711 67.0356 73.5017 64.9346 75.282 63.4805C77.0623 62.0264 79.3468 61.338 81.6341 61.5664L228.161 76.2401C229.293 76.3452 230.394 76.6728 231.399 77.2043C232.405 77.7357 233.295 78.4604 234.019 79.3369C234.744 80.2133 235.288 81.2242 235.621 82.3116C235.954 83.3989 236.069 84.5413 235.959 85.6732Z" fill="#37474F"/>
<path d="M234.168 104.45L70.4102 87.6431L68.3192 108.016L232.077 124.823L234.168 104.45Z" fill="#263238"/>
<path d="M220.552 130.798L78.3984 116.208L77.2256 127.635L219.379 142.225L220.552 130.798Z" fill="white"/>
<path d="M204.77 132.545L203.848 132.964H203.743C203.706 132.962 203.67 132.949 203.64 132.926C203.61 132.904 203.588 132.873 203.575 132.838C203.562 132.814 203.553 132.787 203.551 132.759C203.549 132.731 203.553 132.703 203.563 132.677C203.573 132.651 203.589 132.627 203.609 132.608C203.63 132.589 203.654 132.574 203.68 132.566L204.938 131.958C204.977 131.935 205.022 131.926 205.066 131.931C205.111 131.936 205.152 131.955 205.185 131.986C205.218 132.016 205.24 132.056 205.249 132.1C205.257 132.144 205.251 132.19 205.232 132.23L204.666 137.911C204.663 137.939 204.655 137.965 204.642 137.99C204.629 138.014 204.611 138.036 204.59 138.053C204.568 138.071 204.543 138.084 204.517 138.092C204.49 138.1 204.463 138.102 204.435 138.1C204.378 138.089 204.326 138.058 204.291 138.011C204.256 137.964 204.24 137.906 204.246 137.848L204.77 132.545Z" fill="#263238"/>
<path d="M206.196 137.911L209.361 135.584C209.54 135.449 209.69 135.279 209.802 135.085C209.914 134.89 209.985 134.675 210.011 134.452C210.034 134.064 209.923 133.679 209.696 133.362C209.564 133.18 209.395 133.028 209.2 132.916C209.005 132.804 208.788 132.735 208.564 132.712C208.168 132.682 207.775 132.794 207.453 133.027L207.118 133.257C207.096 133.274 207.071 133.286 207.044 133.293C207.017 133.3 206.99 133.301 206.962 133.297C206.935 133.293 206.909 133.284 206.885 133.27C206.862 133.256 206.841 133.237 206.824 133.215C206.808 133.193 206.796 133.168 206.789 133.142C206.782 133.115 206.781 133.087 206.785 133.06C206.788 133.033 206.798 133.007 206.812 132.983C206.826 132.959 206.844 132.938 206.866 132.922L207.181 132.67C207.595 132.376 208.101 132.242 208.606 132.293C208.887 132.315 209.16 132.397 209.406 132.535C209.652 132.672 209.866 132.862 210.032 133.09C210.339 133.528 210.468 134.068 210.39 134.599C210.312 135.129 210.033 135.609 209.612 135.941L206.908 138.037L209.843 138.33C209.871 138.333 209.897 138.341 209.922 138.354C209.946 138.367 209.968 138.385 209.985 138.406C210.003 138.428 210.016 138.452 210.024 138.479C210.032 138.505 210.035 138.533 210.032 138.561C210.029 138.588 210.021 138.615 210.008 138.64C209.995 138.664 209.977 138.686 209.956 138.703C209.934 138.721 209.91 138.734 209.883 138.742C209.856 138.75 209.829 138.752 209.801 138.749L206.342 138.351C206.287 138.363 206.23 138.363 206.175 138.351C206.136 138.328 206.105 138.294 206.084 138.254C206.063 138.215 206.053 138.17 206.055 138.125C206.057 138.08 206.071 138.036 206.096 137.999C206.121 137.961 206.155 137.931 206.196 137.911Z" fill="#263238"/>
<path d="M215.778 133.384L214.018 134.873C214.412 134.992 214.762 135.226 215.024 135.543C215.2 135.758 215.331 136.006 215.41 136.273C215.489 136.539 215.515 136.818 215.485 137.095C215.459 137.37 215.378 137.638 215.248 137.883C215.118 138.127 214.94 138.343 214.726 138.519C214.511 138.694 214.264 138.825 213.999 138.905C213.733 138.984 213.455 139.01 213.179 138.981C212.902 138.953 212.633 138.87 212.388 138.737C212.144 138.604 211.928 138.423 211.754 138.206C211.732 138.188 211.714 138.165 211.702 138.14C211.69 138.115 211.684 138.087 211.684 138.059C211.684 138.031 211.69 138.003 211.702 137.977C211.714 137.952 211.732 137.93 211.754 137.912C211.771 137.89 211.794 137.873 211.819 137.86C211.844 137.848 211.872 137.842 211.9 137.842C211.929 137.842 211.956 137.848 211.982 137.86C212.007 137.873 212.029 137.89 212.047 137.912C212.335 138.246 212.741 138.456 213.179 138.499C213.616 138.546 214.053 138.418 214.395 138.143C214.737 137.868 214.955 137.468 215.003 137.032C215.039 136.594 214.903 136.16 214.626 135.82C214.349 135.48 213.95 135.261 213.515 135.208C213.48 135.206 213.447 135.195 213.417 135.177C213.388 135.158 213.364 135.133 213.347 135.103C213.324 135.083 213.307 135.059 213.294 135.032C213.282 135.005 213.276 134.976 213.276 134.946C213.276 134.916 213.282 134.887 213.294 134.86C213.307 134.833 213.324 134.808 213.347 134.789L215.045 133.363L212.676 133.112C212.647 133.112 212.619 133.107 212.593 133.095C212.567 133.083 212.543 133.065 212.525 133.043C212.507 133.02 212.494 132.994 212.488 132.966C212.481 132.938 212.481 132.909 212.487 132.881C212.487 132.852 212.493 132.823 212.505 132.796C212.517 132.769 212.534 132.745 212.556 132.725C212.578 132.705 212.603 132.69 212.631 132.681C212.659 132.672 212.689 132.669 212.718 132.671L215.611 132.965C215.64 132.967 215.669 132.976 215.695 132.99C215.721 133.005 215.744 133.024 215.762 133.048C215.78 133.072 215.792 133.099 215.799 133.128C215.805 133.157 215.805 133.187 215.799 133.216L215.778 133.384Z" fill="#263238"/>
<path d="M186.902 150.87L76.0273 139.49L75.7983 141.721L186.673 153.101L186.902 150.87Z" fill="#263238"/>
<path d="M191.253 155.673L75.582 143.801L75.353 146.032L191.024 157.904L191.253 155.673Z" fill="#263238"/>
<path d="M178.629 158.742L75.1367 148.12L74.9077 150.351L178.4 160.973L178.629 158.742Z" fill="#263238"/>
<path d="M162.245 161.449L74.6836 152.462L74.4546 154.693L162.016 163.68L162.245 161.449Z" fill="#263238"/>
<path d="M162.53 30.1231L177.434 120.953C177.634 122.159 177.595 123.393 177.318 124.584C177.041 125.774 176.531 126.899 175.818 127.892C175.105 128.885 174.203 129.728 173.164 130.372C172.125 131.016 170.968 131.448 169.762 131.644L25.708 155.29C23.2707 155.683 20.7768 155.094 18.7729 153.652C16.7689 152.21 15.4184 150.032 15.0172 147.596L0.112923 56.7663C-0.25649 54.4984 0.288603 52.1766 1.62862 50.31C2.96863 48.4434 4.99418 47.1844 7.26111 46.8091L152.572 23.0587C154.829 22.6819 157.142 23.2134 159.008 24.537C160.874 25.8607 162.14 27.869 162.53 30.1231Z" fill="#455A64"/>
<path d="M38.3256 79.3635L28.9134 80.9147C26.1171 81.375 23.2525 80.7062 20.9491 79.0553C18.6456 77.4044 17.0919 74.9064 16.6295 72.1105C16.4019 70.7256 16.4498 69.3094 16.7704 67.9431C17.091 66.5768 17.678 65.2871 18.4978 64.148C19.3176 63.0088 20.354 62.0426 21.5478 61.3047C22.7415 60.5667 24.0692 60.0716 25.4546 59.8475L34.8668 58.2963C37.6591 57.8477 40.5154 58.5217 42.8127 60.171C45.1101 61.8204 46.6619 64.3113 47.1297 67.1005C47.3575 68.4838 47.3104 69.8985 46.9911 71.2637C46.6718 72.6288 46.0867 73.9177 45.269 75.0565C44.4514 76.1954 43.4173 77.162 42.2259 77.901C41.0345 78.64 39.7091 79.1369 38.3256 79.3635Z" fill="#F9FAFA"/>
<path d="M146.808 51.7984L133.015 54.0624C132.256 54.1883 131.481 54.1634 130.732 53.9892C129.983 53.8149 129.276 53.4948 128.651 53.0469C128.026 52.5991 127.495 52.0325 127.089 51.3794C126.684 50.7264 126.411 49.9997 126.286 49.241C126.16 48.4825 126.185 47.7067 126.359 46.9578C126.533 46.209 126.854 45.5018 127.301 44.8769C127.749 44.2519 128.316 43.7213 128.969 43.3155C129.622 42.9098 130.349 42.6367 131.107 42.5121L144.901 40.2481C145.659 40.1222 146.435 40.1471 147.184 40.3214C147.933 40.4956 148.64 40.8158 149.265 41.2636C149.89 41.7114 150.42 42.278 150.826 42.9311C151.232 43.5842 151.505 44.3108 151.63 45.0695C151.755 45.828 151.731 46.6038 151.556 47.3527C151.382 48.1015 151.062 48.8087 150.614 49.4337C150.166 50.0587 149.6 50.5892 148.947 50.995C148.294 51.4008 147.567 51.6738 146.808 51.7984Z" fill="white"/>
<path d="M20.4042 102.045L19.2723 102.968C19.225 102.985 19.1729 102.985 19.1256 102.968C19.0803 102.991 19.03 103.004 18.9788 103.004C18.9277 103.004 18.8773 102.991 18.8321 102.968C18.7745 102.909 18.7422 102.83 18.7422 102.747C18.7422 102.665 18.7745 102.586 18.8321 102.527L20.3833 101.207C20.4107 101.179 20.4432 101.157 20.4792 101.142C20.5152 101.126 20.5539 101.119 20.593 101.119C20.632 101.119 20.6706 101.126 20.7066 101.142C20.7426 101.157 20.7752 101.179 20.8025 101.207C20.8164 101.24 20.8235 101.276 20.8235 101.312C20.8235 101.348 20.8164 101.383 20.8025 101.416L22.1442 109.55C22.1501 109.588 22.1482 109.628 22.1387 109.666C22.1292 109.703 22.1123 109.739 22.0888 109.77C22.0654 109.802 22.036 109.828 22.0023 109.848C21.9686 109.867 21.9313 109.88 21.8926 109.885C21.8525 109.894 21.8109 109.895 21.7706 109.887C21.7302 109.879 21.692 109.862 21.6584 109.839C21.6248 109.815 21.5966 109.785 21.5755 109.749C21.5545 109.714 21.5411 109.674 21.5362 109.634L20.4042 102.045Z" fill="white"/>
<path d="M24.389 109.004L27.9107 104.602C28.1139 104.349 28.2619 104.056 28.3449 103.741C28.4279 103.427 28.4442 103.099 28.3928 102.779C28.3543 102.5 28.2603 102.232 28.1163 101.991C27.9722 101.75 27.7811 101.54 27.5543 101.374C27.3047 101.171 27.0151 101.024 26.7045 100.941C26.3938 100.857 26.0691 100.841 25.7516 100.892C25.1842 100.988 24.6706 101.286 24.3052 101.73L23.9488 102.192C23.924 102.225 23.893 102.252 23.8574 102.273C23.8219 102.295 23.7826 102.308 23.7417 102.314C23.7008 102.32 23.6592 102.318 23.6192 102.308C23.5792 102.297 23.5416 102.279 23.5086 102.254C23.4756 102.23 23.4477 102.199 23.4267 102.163C23.4057 102.128 23.3918 102.088 23.386 102.047C23.3801 102.007 23.3824 101.965 23.3927 101.925C23.4029 101.885 23.4209 101.847 23.4457 101.814L23.8021 101.353C24.2652 100.783 24.9216 100.402 25.6467 100.284C26.0254 100.221 26.4127 100.234 26.7865 100.321C27.1602 100.408 27.513 100.568 27.8247 100.792C28.1363 101.016 28.4007 101.3 28.6025 101.626C28.8043 101.953 28.9396 102.316 29.0007 102.695C29.065 103.095 29.0461 103.505 28.9451 103.898C28.8442 104.291 28.6633 104.659 28.4138 104.98L25.3952 108.774L29.5877 108.082C29.629 108.076 29.6711 108.079 29.7115 108.089C29.7519 108.1 29.7899 108.118 29.823 108.144C29.8562 108.169 29.884 108.201 29.9048 108.237C29.9256 108.273 29.9389 108.313 29.9441 108.355C29.9564 108.435 29.937 108.517 29.8901 108.583C29.8432 108.65 29.7724 108.696 29.6925 108.711L24.7664 109.507C24.7275 109.528 24.6844 109.538 24.6406 109.538C24.5968 109.538 24.5537 109.528 24.5148 109.507C24.4725 109.484 24.4354 109.452 24.4059 109.413C24.3764 109.374 24.3551 109.33 24.3434 109.283C24.3316 109.236 24.3296 109.187 24.3374 109.139C24.3453 109.091 24.3628 109.045 24.389 109.004Z" fill="white"/>
<path d="M35.9359 99.1524L34.0283 101.856C34.6215 101.891 35.1941 102.087 35.6844 102.422C36.0191 102.671 36.2995 102.985 36.5086 103.345C36.7177 103.706 36.851 104.105 36.9002 104.519C36.965 104.913 36.9502 105.317 36.8565 105.706C36.7629 106.095 36.5925 106.461 36.3552 106.783C36.1241 107.108 35.8311 107.385 35.493 107.597C35.1549 107.809 34.7783 107.953 34.3847 108.019C33.9901 108.084 33.5865 108.069 33.1977 107.976C32.8089 107.882 32.4427 107.712 32.1208 107.474C32.0896 107.447 32.0646 107.413 32.0474 107.375C32.0303 107.337 32.0214 107.296 32.0214 107.254C32.0214 107.213 32.0303 107.172 32.0474 107.134C32.0646 107.096 32.0896 107.062 32.1208 107.034C32.1796 106.977 32.2586 106.944 32.3409 106.944C32.4232 106.944 32.5022 106.977 32.561 107.034C32.8159 107.218 33.1044 107.349 33.4102 107.421C33.7159 107.493 34.0329 107.504 34.3428 107.453C34.9732 107.351 35.5379 107.005 35.915 106.489C36.2755 105.97 36.4253 105.333 36.3342 104.707C36.2931 104.387 36.1885 104.078 36.0265 103.798C35.8645 103.518 35.6483 103.274 35.3907 103.078C35.1331 102.883 34.8391 102.741 34.526 102.661C34.2129 102.581 33.8869 102.564 33.5672 102.611C33.4799 102.647 33.382 102.647 33.2947 102.611C33.2371 102.552 33.2048 102.473 33.2048 102.391C33.2048 102.309 33.2371 102.23 33.2947 102.171L35.1184 99.5506L31.7434 100.096C31.7021 100.105 31.6594 100.105 31.6177 100.098C31.5761 100.09 31.5365 100.074 31.5012 100.05C31.466 100.027 31.4359 99.9964 31.4126 99.961C31.3894 99.9255 31.3736 99.8858 31.3661 99.8441C31.3571 99.8012 31.3571 99.7569 31.3662 99.714C31.3753 99.6712 31.3933 99.6307 31.4189 99.5952C31.4446 99.5596 31.4774 99.5298 31.5152 99.5077C31.553 99.4856 31.5951 99.4717 31.6387 99.4668L35.8311 98.796C35.9141 98.7831 35.9989 98.8018 36.0687 98.8483C36.1386 98.8949 36.1885 98.966 36.2084 99.0475C36.22 99.0958 36.22 99.146 36.2084 99.1943C36.1631 99.2101 36.1145 99.2146 36.0669 99.2073C36.0194 99.2 35.9744 99.1811 35.9359 99.1524Z" fill="white"/>
<path d="M44.4067 104.392L39.6273 105.189C39.5664 105.212 39.4995 105.212 39.4386 105.189C39.4012 105.172 39.3679 105.146 39.3409 105.115C39.3139 105.084 39.2938 105.047 39.2819 105.008C39.27 104.968 39.2667 104.926 39.272 104.885C39.2773 104.844 39.2913 104.805 39.3129 104.77L43.4005 97.5587C43.418 97.5213 43.4432 97.488 43.4745 97.461C43.5058 97.434 43.5424 97.4139 43.582 97.402C43.6216 97.3902 43.6632 97.3868 43.7042 97.3921C43.7451 97.3974 43.7845 97.4114 43.8198 97.433C43.8731 97.4708 43.9163 97.5212 43.9455 97.5797L44.9308 103.638H45.5387C45.5788 103.629 45.6203 103.628 45.6607 103.636C45.701 103.644 45.7392 103.661 45.7728 103.684C45.8064 103.708 45.8347 103.738 45.8557 103.774C45.8768 103.809 45.8902 103.849 45.895 103.889C45.9009 103.93 45.8984 103.971 45.8876 104.01C45.8768 104.049 45.858 104.085 45.8324 104.117C45.8068 104.148 45.7749 104.174 45.7388 104.193C45.7027 104.211 45.663 104.222 45.6225 104.225H45.0356L45.2872 105.755C45.293 105.795 45.2905 105.836 45.2797 105.875C45.2689 105.915 45.2501 105.951 45.2245 105.983C45.1989 106.014 45.167 106.04 45.1309 106.059C45.0947 106.077 45.0552 106.088 45.0146 106.09C44.9342 106.103 44.8522 106.083 44.7857 106.036C44.7193 105.99 44.6736 105.919 44.6582 105.839L44.4067 104.392ZM44.4067 103.785L43.4634 98.523L40.1304 104.392L44.4067 103.785Z" fill="white"/>
<path d="M55.6699 103.512C55.6123 103.453 55.58 103.374 55.58 103.292C55.58 103.209 55.6123 103.13 55.6699 103.072C55.7322 103.013 55.8148 102.98 55.9005 102.98C55.9863 102.98 56.0688 103.013 56.1311 103.072C56.6489 103.435 57.2897 103.578 57.9129 103.47C58.2235 103.423 58.5213 103.314 58.7881 103.148C59.0548 102.982 59.2849 102.764 59.4641 102.506C59.8345 101.988 59.9851 101.345 59.883 100.716C59.7809 100.088 59.4344 99.5255 58.9191 99.1517C58.6633 98.9708 58.374 98.8424 58.0681 98.774C57.7623 98.7056 57.4459 98.6986 57.1373 98.7534C56.8271 98.8012 56.5297 98.9113 56.2631 99.077C55.9966 99.2427 55.7662 99.4606 55.5861 99.7177C55.5273 99.7753 55.4483 99.8076 55.366 99.8076C55.2837 99.8076 55.2046 99.7753 55.1459 99.7177H55.0411C55.0282 99.6839 55.0282 99.6466 55.0411 99.6129L54.8733 95.9864C54.8672 95.939 54.8737 95.8907 54.8921 95.8466C54.9105 95.8024 54.9402 95.7639 54.9782 95.7348C55.0079 95.7215 55.04 95.7147 55.0725 95.7147C55.105 95.7147 55.1372 95.7215 55.1668 95.7348L59.3593 95.064C59.4007 95.0549 59.4435 95.0542 59.4851 95.062C59.5267 95.0698 59.5663 95.086 59.6015 95.1094C59.6368 95.1329 59.6669 95.1633 59.6901 95.1987C59.7133 95.2342 59.7292 95.2739 59.7366 95.3156C59.7489 95.4015 59.7273 95.4889 59.6765 95.5592C59.6257 95.6296 59.5495 95.6775 59.4641 95.6929L55.607 96.3218L55.7328 99.005C56.1361 98.6566 56.6307 98.4311 57.1582 98.3551C57.5515 98.2862 57.9546 98.2971 58.3435 98.3871C58.7324 98.4772 59.0993 98.6445 59.4222 98.8792C59.7479 99.108 60.0237 99.4007 60.2327 99.7395C60.4417 100.078 60.5796 100.456 60.638 100.85C60.7314 101.44 60.6486 102.045 60.3998 102.589C60.1511 103.133 59.7475 103.591 59.2396 103.907C58.7316 104.222 58.142 104.381 57.5443 104.363C56.9466 104.345 56.3676 104.151 55.8796 103.805L55.6699 103.512Z" fill="white"/>
<path d="M63.0852 96.091C63.2881 95.4744 63.6546 94.9245 64.1456 94.4999C64.6367 94.0754 65.2338 93.7921 65.8732 93.6804C65.9118 93.6712 65.9519 93.6699 65.991 93.6766C66.0301 93.6833 66.0674 93.6979 66.1007 93.7194C66.134 93.741 66.1626 93.7691 66.1848 93.802C66.2069 93.8349 66.2222 93.872 66.2296 93.911C66.2425 93.9939 66.2238 94.0787 66.1773 94.1486C66.1307 94.2184 66.0596 94.2683 65.9781 94.2883C65.4394 94.3949 64.94 94.6464 64.5337 95.0158C64.1274 95.3852 63.8295 95.8584 63.6722 96.3845C63.4554 96.9836 63.3351 97.6133 63.3158 98.2502C63.6805 97.6647 64.2384 97.2252 64.893 97.0078C65.5476 96.7904 66.2576 96.8087 66.9001 97.0597C67.5426 97.3107 68.0771 97.7785 68.411 98.382C68.7449 98.9856 68.8572 99.6869 68.7284 100.365C68.5997 101.042 68.238 101.653 67.706 102.092C67.174 102.531 66.5052 102.771 65.8154 102.768C65.1257 102.766 64.4584 102.523 63.9292 102.081C63.3999 101.638 63.042 101.025 62.9175 100.346C62.8725 100.16 62.8375 99.9708 62.8127 99.7804C62.585 98.5476 62.6789 97.277 63.0852 96.091ZM63.5254 100.284V100.451C63.5636 101.066 63.8393 101.641 64.2943 102.055C64.7493 102.47 65.3478 102.691 65.963 102.672C66.5783 102.653 67.1619 102.395 67.5904 101.953C68.0188 101.511 68.2584 100.92 68.2584 100.304C68.2584 99.689 68.0188 99.0976 67.5904 98.6557C67.1619 98.2137 66.5783 97.9559 65.963 97.9369C65.3478 97.9178 64.7493 98.139 64.2943 98.5535C63.8393 98.968 63.5636 99.5434 63.5254 100.158V100.284Z" fill="white"/>
<path d="M72.3987 101.227L74.3901 92.8423L70.1976 93.5341C70.1172 93.5464 70.0352 93.527 69.9687 93.4801C69.9023 93.4332 69.8566 93.3624 69.8413 93.2825C69.8339 93.2029 69.8551 93.1232 69.9012 93.0578C69.9474 92.9925 70.0153 92.9458 70.0928 92.9261L74.7675 92.1505C74.8358 92.1295 74.9088 92.1295 74.977 92.1505C75.0558 92.1746 75.123 92.2268 75.1658 92.2973C75.176 92.3527 75.176 92.4095 75.1658 92.465L73.0695 101.164C73.0569 101.224 73.0258 101.279 72.9807 101.32C72.9356 101.361 72.8787 101.388 72.8179 101.395C72.7988 101.406 72.7771 101.412 72.755 101.412C72.733 101.412 72.7113 101.406 72.6922 101.395C72.6323 101.398 72.573 101.384 72.521 101.354C72.469 101.324 72.4266 101.28 72.3987 101.227Z" fill="white"/>
<path d="M79.7465 91.3758C80.2254 91.3142 80.7096 91.4385 81.0996 91.7232C81.4895 92.0079 81.7555 92.4312 81.8428 92.906C81.891 93.1974 81.8686 93.4961 81.7774 93.7769C81.6862 94.0578 81.5289 94.3127 81.3187 94.5201C81.8823 94.6498 82.3947 94.9444 82.7904 95.3662C83.1861 95.788 83.4473 96.3181 83.5408 96.8889C83.605 97.4037 83.5295 97.9263 83.3223 98.4019C83.1151 98.8776 82.7839 99.2888 82.3632 99.5924C81.9426 99.896 81.448 100.081 80.9313 100.128C80.4146 100.175 79.8949 100.082 79.4265 99.8586C78.9581 99.6355 78.5583 99.2906 78.269 98.86C77.9796 98.4294 77.8114 97.9288 77.782 97.4109C77.7526 96.8929 77.863 96.3766 78.1017 95.9159C78.3403 95.4553 78.6985 95.0673 79.1387 94.7927C78.8784 94.6567 78.6549 94.4599 78.487 94.219C78.3191 93.9782 78.2118 93.7003 78.1743 93.4091C78.1204 92.9323 78.2545 92.4532 78.5481 92.0736C78.8416 91.6939 79.2715 91.4436 79.7465 91.3758ZM81.0881 99.614C81.3935 99.5766 81.6882 99.4779 81.9545 99.3238C82.2208 99.1698 82.4532 98.9635 82.6379 98.7175C82.8225 98.4714 82.9556 98.1906 83.0291 97.8918C83.1025 97.5931 83.115 97.2826 83.0655 96.9789C83.0161 96.6753 82.9058 96.3847 82.7414 96.1247C82.5769 95.8647 82.3617 95.6406 82.1085 95.4658C81.8553 95.291 81.5695 95.1691 81.2681 95.1075C80.9667 95.0459 80.6559 95.0457 80.3544 95.1071C80.0491 95.1445 79.7544 95.2432 79.4881 95.3973C79.2218 95.5513 78.9894 95.7575 78.8047 96.0036C78.6201 96.2497 78.487 96.5305 78.4135 96.8293C78.34 97.128 78.3276 97.4385 78.3771 97.7422C78.4265 98.0458 78.5368 98.3363 78.7012 98.5964C78.8657 98.8564 79.0809 99.0805 79.3341 99.2553C79.5873 99.4301 79.8731 99.552 80.1745 99.6136C80.4759 99.6752 80.7867 99.6754 81.0881 99.614ZM80.2497 94.4572C80.4947 94.4171 80.7223 94.3053 80.9039 94.1359C81.0855 93.9665 81.2129 93.7472 81.2701 93.5056C81.3272 93.2639 81.3116 93.0108 81.2251 92.778C81.1386 92.5453 80.9851 92.3433 80.7841 92.1976C80.583 92.0519 80.3433 91.969 80.0952 91.9593C79.8471 91.9496 79.6017 92.0136 79.3899 92.1431C79.178 92.2727 79.0093 92.462 78.9049 92.6873C78.8005 92.9126 78.7651 93.1638 78.8033 93.4091C78.8287 93.5732 78.8865 93.7307 78.9731 93.8723C79.0597 94.014 79.1736 94.1371 79.3081 94.2345C79.4425 94.332 79.595 94.4018 79.7566 94.4401C79.9182 94.4783 80.0858 94.4841 80.2497 94.4572Z" fill="white"/>
<path d="M95.4501 88.7962C96.1661 88.6751 96.9017 88.8219 97.5164 89.2085C98.1312 89.5951 98.5821 90.1946 98.7831 90.8924C98.7831 91.144 98.8879 91.3955 98.9298 91.6471C99.1439 92.8736 99.0502 94.134 98.6573 95.3155C98.4515 95.9288 98.0871 96.4768 97.6011 96.9038C97.1152 97.3308 96.5249 97.6218 95.8903 97.7471C95.8516 97.7599 95.8106 97.7638 95.7702 97.7586C95.7298 97.7534 95.6911 97.7392 95.6569 97.7171C95.6227 97.695 95.5939 97.6655 95.5727 97.6308C95.5514 97.5961 95.5382 97.557 95.5339 97.5165C95.5213 97.475 95.5181 97.4313 95.5244 97.3884C95.5307 97.3455 95.5465 97.3045 95.5705 97.2684C95.5946 97.2323 95.6263 97.2021 95.6635 97.1797C95.7007 97.1574 95.7423 97.1435 95.7855 97.1392C96.3223 97.0283 96.8196 96.7753 97.2252 96.4065C97.6308 96.0378 97.9299 95.5669 98.0913 95.043C98.3092 94.4449 98.4226 93.8138 98.4267 93.1773C98.1969 93.5389 97.8897 93.845 97.5271 94.0734C97.1646 94.3018 96.7559 94.4468 96.3305 94.498C95.5727 94.5928 94.8076 94.3906 94.1956 93.9338C93.5836 93.477 93.1722 92.8011 93.0475 92.0476C92.9228 91.2942 93.0946 90.5217 93.5268 89.8922C93.9591 89.2626 94.6183 88.8247 95.3662 88.6704L95.4501 88.7962ZM98.259 91.3326C98.1837 90.8802 97.9764 90.4602 97.6631 90.1252C97.3498 89.7903 96.9445 89.5555 96.4981 89.4502C96.0517 89.3448 95.5841 89.3738 95.1541 89.5334C94.7242 89.693 94.351 89.9761 94.0814 90.3471C93.8118 90.7182 93.6579 91.1606 93.639 91.6188C93.62 92.0771 93.7369 92.5307 93.975 92.9227C94.2131 93.3147 94.5617 93.6276 94.9771 93.8221C95.3924 94.0165 95.856 94.084 96.3095 94.0158C96.9236 93.9179 97.4736 93.5804 97.8391 93.0774C98.2046 92.5743 98.3556 91.9469 98.259 91.3326Z" fill="white"/>
<path d="M101.359 92.3817C101.162 91.2957 101.278 90.1758 101.695 89.1535C101.841 88.7162 102.103 88.327 102.454 88.0278C102.805 87.7285 103.23 87.5305 103.685 87.4551C104.14 87.3796 104.607 87.4296 105.035 87.5996C105.464 87.7696 105.838 88.0532 106.118 88.4199C106.849 89.2518 107.323 90.2789 107.48 91.3755C107.681 92.4633 107.557 93.5859 107.124 94.6038C106.959 95.0301 106.691 95.4087 106.343 95.7052C105.996 96.0017 105.579 96.2067 105.132 96.3017C104.677 96.3478 104.218 96.2821 103.794 96.1104C103.371 95.9387 102.995 95.6662 102.701 95.3165C101.972 94.4932 101.505 93.4715 101.359 92.3817ZM101.988 92.3817C102.111 93.3561 102.528 94.27 103.183 95.002C103.403 95.278 103.69 95.4939 104.016 95.6294C104.342 95.765 104.697 95.816 105.049 95.7777C105.393 95.6992 105.711 95.5351 105.975 95.3006C106.239 95.066 106.44 94.7687 106.558 94.4361C106.922 93.5289 107.031 92.5391 106.872 91.5744C106.713 90.6098 106.293 89.7072 105.656 88.9649C105.438 88.6851 105.153 88.4652 104.826 88.3259C104.5 88.1866 104.144 88.1323 103.791 88.1683C103.447 88.2467 103.128 88.4109 102.864 88.6454C102.6 88.8799 102.4 89.1773 102.281 89.5099C101.927 90.3719 101.825 91.3172 101.988 92.235V92.3817Z" fill="white"/>
<path d="M110.967 87.1834L109.835 88.1058C109.787 88.1192 109.736 88.1192 109.688 88.1058C109.643 88.1296 109.592 88.1421 109.541 88.1421C109.49 88.1421 109.44 88.1296 109.395 88.1058C109.337 88.047 109.305 87.968 109.305 87.8857C109.305 87.8034 109.337 87.7243 109.395 87.6656L110.946 86.3449C110.973 86.317 111.006 86.2949 111.042 86.2798C111.078 86.2646 111.116 86.2568 111.155 86.2568C111.194 86.2568 111.233 86.2646 111.269 86.2798C111.305 86.2949 111.338 86.317 111.365 86.3449C111.379 86.3781 111.386 86.4137 111.386 86.4497C111.386 86.4857 111.379 86.5213 111.365 86.5545L112.707 94.6879C112.712 94.7281 112.71 94.7691 112.699 94.8083C112.688 94.8475 112.67 94.884 112.644 94.9155C112.618 94.947 112.587 94.9729 112.55 94.9914C112.514 95.01 112.475 95.0209 112.434 95.0234C112.396 95.0293 112.356 95.0274 112.318 95.0179C112.28 95.0084 112.245 94.9915 112.214 94.9681C112.182 94.9446 112.156 94.9152 112.136 94.8815C112.117 94.8478 112.104 94.8105 112.099 94.7718L110.967 87.1834Z" fill="white"/>
<path d="M114.994 94.1211L118.515 89.719C118.718 89.4649 118.865 89.1716 118.948 88.8577C119.031 88.5438 119.048 88.2161 118.998 87.8953C118.959 87.6169 118.865 87.3492 118.721 87.1079C118.577 86.8666 118.386 86.6568 118.159 86.4908C117.909 86.2893 117.619 86.1422 117.309 86.0592C116.998 85.9762 116.674 85.959 116.356 86.0087C115.789 86.1049 115.275 86.4026 114.91 86.8472L114.533 87.3083C114.505 87.3362 114.473 87.3584 114.437 87.3735C114.401 87.3886 114.362 87.3964 114.323 87.3964C114.284 87.3964 114.245 87.3886 114.209 87.3735C114.173 87.3584 114.141 87.3362 114.113 87.3083C114.056 87.2496 114.023 87.1705 114.023 87.0882C114.023 87.0059 114.056 86.9269 114.113 86.8681L114.47 86.407C114.933 85.8366 115.589 85.4561 116.314 85.3379C116.715 85.2697 117.126 85.2867 117.519 85.3878C117.913 85.489 118.281 85.6719 118.599 85.9248C119.176 86.3732 119.559 87.0261 119.668 87.7485C119.733 88.1493 119.714 88.559 119.613 88.9521C119.512 89.3452 119.331 89.7133 119.081 90.0334L116.063 93.8276L120.255 93.1359C120.297 93.13 120.339 93.1324 120.379 93.143C120.42 93.1535 120.457 93.172 120.491 93.1974C120.524 93.2228 120.552 93.2545 120.572 93.2907C120.593 93.3269 120.607 93.3669 120.612 93.4084C120.618 93.447 120.616 93.4864 120.606 93.5242C120.597 93.5621 120.58 93.5977 120.556 93.6289C120.533 93.6602 120.503 93.6864 120.47 93.7061C120.436 93.7259 120.399 93.7387 120.36 93.7438L115.434 94.5613C115.396 94.5834 115.352 94.595 115.308 94.595C115.264 94.595 115.221 94.5834 115.182 94.5613C115.102 94.5245 115.038 94.459 115.003 94.3776C114.968 94.2962 114.965 94.2048 114.994 94.1211Z" fill="white"/>
<path d="M134.021 83.0323L132.113 85.7574C132.812 85.7825 133.48 86.049 134.003 86.5116C134.527 86.9741 134.874 87.604 134.985 88.2939C135.054 88.6894 135.043 89.0946 134.954 89.4858C134.864 89.8771 134.697 90.2465 134.463 90.5725C134.228 90.8985 133.931 91.1745 133.589 91.3843C133.247 91.5941 132.867 91.7336 132.47 91.7946C132.08 91.8595 131.681 91.8465 131.296 91.7566C130.911 91.6667 130.548 91.5015 130.227 91.2705C130.157 91.2233 130.109 91.1504 130.094 91.0678C130.078 90.9852 130.096 90.8998 130.143 90.8303C130.19 90.7608 130.263 90.713 130.346 90.6972C130.428 90.6815 130.514 90.6992 130.583 90.7465C130.846 90.94 131.145 91.0782 131.463 91.1526C131.781 91.227 132.111 91.236 132.432 91.1792C132.754 91.1223 133.06 91.0008 133.333 90.8219C133.606 90.643 133.84 90.4105 134.021 90.1386C134.391 89.6208 134.542 88.9776 134.44 88.3492C134.338 87.7209 133.991 87.1584 133.476 86.7846C133.223 86.5968 132.935 86.4627 132.628 86.3906C132.322 86.3185 132.004 86.3099 131.694 86.3653C131.652 86.3858 131.605 86.3964 131.558 86.3964C131.511 86.3964 131.464 86.3858 131.422 86.3653C131.39 86.3359 131.365 86.3002 131.347 86.2605C131.33 86.2209 131.321 86.178 131.321 86.1347C131.321 86.0915 131.33 86.0486 131.347 86.009C131.365 85.9693 131.39 85.9336 131.422 85.9042L133.245 83.2839L129.829 83.8499C129.787 83.8557 129.745 83.8533 129.705 83.8428C129.664 83.8322 129.626 83.8137 129.593 83.7883C129.56 83.763 129.532 83.7312 129.511 83.695C129.491 83.6588 129.477 83.6188 129.472 83.5773C129.463 83.5372 129.462 83.4957 129.47 83.4553C129.478 83.415 129.495 83.3768 129.519 83.3432C129.542 83.3096 129.573 83.2813 129.608 83.2603C129.644 83.2392 129.683 83.2258 129.724 83.221L133.916 82.5292C133.959 82.5202 134.003 82.5202 134.046 82.5293C134.089 82.5384 134.13 82.5563 134.165 82.582C134.201 82.6076 134.23 82.6405 134.253 82.6783C134.275 82.7161 134.289 82.7582 134.294 82.8017C134.304 82.8501 134.304 82.9001 134.294 82.9485C134.286 82.9761 134.272 83.0014 134.252 83.022C134.233 83.0426 134.208 83.0579 134.181 83.0663C134.153 83.0747 134.124 83.076 134.096 83.07C134.068 83.0641 134.042 83.0511 134.021 83.0323Z" fill="white"/>
<path d="M142.595 88.2943L137.795 89.0699C137.766 89.0847 137.733 89.0924 137.701 89.0924C137.668 89.0924 137.636 89.0847 137.606 89.0699C137.571 89.0505 137.539 89.0239 137.515 88.9918C137.49 88.9597 137.472 88.9227 137.462 88.8833C137.452 88.8439 137.45 88.8029 137.457 88.7629C137.464 88.7228 137.479 88.6846 137.502 88.6507L141.568 81.4396C141.596 81.4117 141.628 81.3896 141.664 81.3745C141.7 81.3593 141.739 81.3516 141.778 81.3516C141.817 81.3516 141.856 81.3593 141.892 81.3745C141.928 81.3896 141.96 81.4117 141.987 81.4396L142.113 81.5654L143.098 87.6236H143.706C143.787 87.6112 143.869 87.6306 143.935 87.6775C144.002 87.7244 144.047 87.7952 144.063 87.8751C144.072 87.9152 144.072 87.9568 144.064 87.9971C144.056 88.0375 144.04 88.0757 144.016 88.1093C143.993 88.1429 143.962 88.1711 143.927 88.1922C143.891 88.2132 143.852 88.2266 143.811 88.2314H143.203L143.455 89.7407C143.461 89.7821 143.458 89.8242 143.448 89.8646C143.437 89.905 143.419 89.9429 143.393 89.9761C143.368 90.0093 143.336 90.037 143.3 90.0578C143.264 90.0786 143.224 90.092 143.182 90.0971C143.144 90.103 143.104 90.1012 143.066 90.0917C143.029 90.0822 142.993 90.0652 142.962 90.0418C142.931 90.0184 142.904 89.989 142.885 89.9553C142.865 89.9216 142.852 89.8843 142.847 89.8456L142.595 88.2943ZM142.595 87.6864L141.736 82.5087L138.214 88.3572L142.595 87.6864Z" fill="white"/>
<path d="M146.242 88.6502C146.185 88.5915 146.152 88.5124 146.152 88.4301C146.152 88.3478 146.185 88.2688 146.242 88.21C146.305 88.1511 146.387 88.1182 146.473 88.1182C146.559 88.1182 146.641 88.1511 146.703 88.21C147.221 88.5734 147.862 88.7166 148.485 88.6083C148.796 88.5617 149.094 88.4521 149.36 88.2863C149.627 88.1205 149.857 87.9019 150.037 87.644C150.22 87.3892 150.352 87.1006 150.424 86.7949C150.495 86.4891 150.506 86.1722 150.456 85.8622C150.351 85.2327 150.005 84.6687 149.492 84.2901C149.236 84.1091 148.946 83.9807 148.64 83.9124C148.335 83.844 148.018 83.837 147.71 83.8918C147.079 83.9943 146.515 84.3406 146.138 84.8561C146.079 84.9137 146 84.9459 145.917 84.9459C145.835 84.9459 145.756 84.9137 145.697 84.8561L145.53 81.2296C145.523 81.1821 145.53 81.1339 145.548 81.0897C145.567 81.0456 145.596 81.007 145.634 80.978C145.664 80.9647 145.696 80.9578 145.729 80.9578C145.761 80.9578 145.793 80.9647 145.823 80.978L150.016 80.3072C150.057 80.2981 150.1 80.2974 150.141 80.3052C150.183 80.313 150.223 80.3291 150.258 80.3526C150.293 80.3761 150.323 80.4065 150.346 80.4419C150.37 80.4773 150.385 80.5171 150.393 80.5588C150.4 80.6439 150.377 80.7288 150.327 80.798C150.277 80.8673 150.203 80.9163 150.12 80.9361L146.263 81.565L146.389 84.2481C146.792 83.8997 147.287 83.6742 147.814 83.5983C148.208 83.5294 148.611 83.5403 149 83.6303C149.389 83.7203 149.756 83.8877 150.078 84.1224C150.404 84.3512 150.68 84.6439 150.889 84.9826C151.098 85.3214 151.236 85.6991 151.294 86.0928C151.36 86.4852 151.348 86.8868 151.258 87.2744C151.168 87.6621 151.003 88.0281 150.771 88.3515C150.539 88.6749 150.245 88.9493 149.907 89.1588C149.569 89.3684 149.193 89.509 148.8 89.5726C148.331 89.6296 147.855 89.5758 147.411 89.4156C146.967 89.2554 146.567 88.9933 146.242 88.6502Z" fill="white"/>
<path d="M153.685 81.2292C153.888 80.6126 154.255 80.0627 154.746 79.6381C155.237 79.2135 155.834 78.9303 156.473 78.8185C156.512 78.8093 156.552 78.8081 156.591 78.8148C156.63 78.8215 156.668 78.8361 156.701 78.8576C156.734 78.8792 156.763 78.9073 156.785 78.9402C156.807 78.9731 156.822 79.0102 156.83 79.0491C156.843 79.1321 156.824 79.2169 156.777 79.2868C156.731 79.3566 156.66 79.4065 156.578 79.4265C156.038 79.5287 155.536 79.7787 155.129 80.1487C154.722 80.5188 154.425 80.9943 154.272 81.5227C154.046 82.119 153.925 82.7504 153.916 83.3883C154.281 82.8029 154.839 82.3634 155.493 82.146C156.148 81.9285 156.858 81.9469 157.5 82.1979C158.143 82.4489 158.677 82.9166 159.011 83.5202C159.345 84.1237 159.457 84.8251 159.329 85.5027C159.2 86.1803 158.838 86.7916 158.306 87.2306C157.774 87.6697 157.105 87.9088 156.416 87.9067C155.726 87.9045 155.059 87.6612 154.529 87.2189C154 86.7765 153.642 86.163 153.518 85.4846L153.392 84.9186C153.182 83.6835 153.283 82.4156 153.685 81.2292ZM154.126 85.4217V85.5894C154.164 86.2037 154.439 86.7791 154.894 87.1936C155.349 87.6082 155.948 87.8294 156.563 87.8103C157.178 87.7912 157.762 87.5334 158.19 87.0915C158.619 86.6495 158.859 86.0582 158.859 85.4427C158.859 84.8271 158.619 84.2358 158.19 83.7939C157.762 83.3519 157.178 83.0941 156.563 83.075C155.948 83.056 155.349 83.2771 154.894 83.6917C154.439 84.1062 154.164 84.6816 154.126 85.2959V85.4217Z" fill="white"/>
<path d="M102.453 112.275L25.3164 124.934L25.9377 128.72L103.074 116.06L102.453 112.275Z" fill="white"/>
<path d="M81.3211 124.39L26.7109 133.352L27.3322 137.138L81.9423 128.175L81.3211 124.39Z" fill="white"/>
<path d="M120.046 44.2711L81.5703 50.5854L82.1916 54.3709L120.667 48.0566L120.046 44.2711Z" fill="white"/>
</svg>
