<svg width="278" height="657" viewBox="0 0 278 657" fill="none" xmlns="http://www.w3.org/2000/svg">
<g clip-path="url(#clip0_5851_86372)">
<rect width="278" height="657" fill="#2563EB"/>
<circle cx="177" cy="365" r="8" fill="#124CC9"/>
<g opacity="0.4">
<path d="M134.219 102.065V39.3105" stroke="#1146BB" stroke-linecap="round" stroke-linejoin="round"/>
<path d="M175.18 105.759L175.094 86.9807L179.176 99.0622C179.176 99.0622 175.422 104.016 175.18 105.759Z" fill="#1146BB" stroke="#1146BB" stroke-linecap="round" stroke-linejoin="round"/>
<path d="M179.186 99.0701C179.186 99.0701 173.507 104.317 175.734 107.596C177.96 110.875 182.508 107.812 191.69 107.812C200.872 107.812 208.086 114.155 208.086 114.155V83.5454C208.086 83.5454 207.646 79.8347 201.752 77.6428C195.858 75.4508 181.196 77.2113 178.573 73.0518C175.95 68.8923 177.71 61.9023 177.71 61.9023C177.71 61.9023 172.903 71.5244 174.646 78.9545C176.39 86.3846 179.186 99.0701 179.186 99.0701Z" fill="white" stroke="#1146BB" stroke-linecap="round" stroke-linejoin="round"/>
<path d="M134.375 41.4414C137.029 43.9722 140.458 45.5348 144.109 45.877C158.78 47.5512 161.532 46.3862 168.522 47.9136C175.512 49.4411 179.232 55.5681 179.232 55.5681V99.07C179.232 99.07 177.048 92.5115 167.867 91.6313C158.685 90.751 150.383 91.4155 142.944 90.9754C135.505 90.5353 134.418 89.2495 134.418 89.2495L134.375 41.4414Z" fill="white" stroke="#1146BB" stroke-linecap="round" stroke-linejoin="round"/>
<path d="M178.235 87.8523V74.6144C177.795 73.9845 177.329 73.3545 176.837 72.7504L173.851 69.2123C173.202 68.4107 172.6 67.5722 172.048 66.7011C171.512 65.824 171.24 64.8117 171.262 63.7843C171.24 63.2285 171.424 62.6842 171.78 62.2568C171.975 62.0597 172.225 61.9256 172.498 61.8717C172.77 61.8179 173.052 61.8468 173.308 61.9548C173.896 62.0924 174.41 62.4468 174.749 62.9472C175.085 63.5011 175.306 64.1177 175.396 64.7594C175.523 65.5619 175.595 66.3721 175.612 67.1843L178.201 67.6244V60.5568C178.002 60.3238 177.778 60.0908 177.545 59.8664C176.619 59.0313 175.537 58.3889 174.36 57.9765V54.775L172.634 54.2227V57.4329C170.477 56.9151 168.751 57.0819 167.457 57.9334C166.162 58.7848 165.521 60.3411 165.532 62.602C165.517 63.6913 165.68 64.7758 166.016 65.8122C166.336 66.77 166.777 67.6834 167.327 68.5306C167.907 69.425 168.532 70.2891 169.2 71.1194L172.263 74.718C173.14 75.7192 173.917 76.8029 174.585 77.9541C175.157 78.9736 175.455 80.1245 175.448 81.2938C175.472 81.8337 175.328 82.3678 175.034 82.8212C174.757 83.2182 174.248 83.2958 173.497 83.0542C172.868 82.8656 172.315 82.4818 171.918 81.9582C171.464 81.3374 171.152 80.6245 171.003 79.8699C170.775 78.8436 170.647 77.7972 170.624 76.746L165.55 76.0038C165.525 78.5673 166.208 81.0879 167.526 83.2872C168.858 85.2465 170.808 86.7021 173.066 87.4208V90.7691L174.792 91.3128V87.9299C175.924 88.229 177.118 88.2021 178.235 87.8523Z" fill="#92E3A9"/>
<path d="M158.529 132.571C160.61 123.827 155.209 115.051 146.465 112.969C137.721 110.888 128.944 116.289 126.863 125.033C124.781 133.778 130.182 142.554 138.927 144.635C147.671 146.717 156.447 141.316 158.529 132.571Z" stroke="#1146BB" stroke-linecap="round" stroke-linejoin="round"/>
<path d="M51.1719 128.817H126.422" stroke="#1146BB" stroke-linecap="round" stroke-linejoin="round"/>
<path d="M-22.7812 128.817H51.1746" stroke="#1146BB" stroke-width="5" stroke-linecap="round" stroke-linejoin="round"/>
<path d="M65.7969 123.76V134.245" stroke="#1146BB" stroke-linecap="round" stroke-linejoin="round"/>
<path d="M73.9062 123.76V134.245" stroke="#1146BB" stroke-linecap="round" stroke-linejoin="round"/>
<path d="M82.0234 123.76V134.245" stroke="#1146BB" stroke-linecap="round" stroke-linejoin="round"/>
<path d="M90.125 123.76V134.245" stroke="#1146BB" stroke-linecap="round" stroke-linejoin="round"/>
<path d="M98.2422 123.76V134.245" stroke="#1146BB" stroke-linecap="round" stroke-linejoin="round"/>
<path d="M106.344 123.76V134.245" stroke="#1146BB" stroke-linecap="round" stroke-linejoin="round"/>
<path d="M142.703 37.292V112.542" stroke="#1146BB" stroke-linecap="round" stroke-linejoin="round"/>
<path d="M142.703 -36.6641V37.2917" stroke="#1146BB" stroke-width="5" stroke-linecap="round" stroke-linejoin="round"/>
<path d="M147.758 51.9092H137.273" stroke="#1146BB" stroke-linecap="round" stroke-linejoin="round"/>
<path d="M147.758 60.0215H137.273" stroke="#1146BB" stroke-linecap="round" stroke-linejoin="round"/>
<path d="M147.758 68.1338H137.273" stroke="#1146BB" stroke-linecap="round" stroke-linejoin="round"/>
<path d="M147.758 76.2461H137.273" stroke="#1146BB" stroke-linecap="round" stroke-linejoin="round"/>
<path d="M147.758 84.3574H137.273" stroke="#1146BB" stroke-linecap="round" stroke-linejoin="round"/>
<path d="M147.758 92.4688H137.273" stroke="#1146BB" stroke-linecap="round" stroke-linejoin="round"/>
<path d="M234.227 128.817H158.977" stroke="#1146BB" stroke-linecap="round" stroke-linejoin="round"/>
<path d="M308.182 128.817H234.227" stroke="#1146BB" stroke-width="5" stroke-linecap="round" stroke-linejoin="round"/>
<path d="M219.609 133.882V123.389" stroke="#1146BB" stroke-linecap="round" stroke-linejoin="round"/>
<path d="M211.5 133.882V123.389" stroke="#1146BB" stroke-linecap="round" stroke-linejoin="round"/>
<path d="M203.391 133.882V123.389" stroke="#1146BB" stroke-linecap="round" stroke-linejoin="round"/>
<path d="M195.273 133.882V123.389" stroke="#1146BB" stroke-linecap="round" stroke-linejoin="round"/>
<path d="M187.164 133.882V123.389" stroke="#1146BB" stroke-linecap="round" stroke-linejoin="round"/>
<path d="M179.047 133.882V123.389" stroke="#1146BB" stroke-linecap="round" stroke-linejoin="round"/>
<path d="M142.703 220.342V145.092" stroke="#1146BB" stroke-linecap="round" stroke-linejoin="round"/>
<path d="M142.703 294.299V220.343" stroke="#1146BB" stroke-width="5" stroke-linecap="round" stroke-linejoin="round"/>
<path d="M137.641 205.725H148.134" stroke="#1146BB" stroke-linecap="round" stroke-linejoin="round"/>
<path d="M137.641 197.612H148.134" stroke="#1146BB" stroke-linecap="round" stroke-linejoin="round"/>
<path d="M137.641 189.5H148.134" stroke="#1146BB" stroke-linecap="round" stroke-linejoin="round"/>
<path d="M137.641 181.389H148.134" stroke="#1146BB" stroke-linecap="round" stroke-linejoin="round"/>
<path d="M137.641 173.277H148.134" stroke="#1146BB" stroke-linecap="round" stroke-linejoin="round"/>
<path d="M137.641 165.174H148.134" stroke="#1146BB" stroke-linecap="round" stroke-linejoin="round"/>
<path d="M142.703 -51.8525C42.9183 -51.8525 -37.9844 29.0674 -37.9844 128.817C-37.9844 228.567 42.9183 309.53 142.703 309.53C242.487 309.53 323.372 228.645 323.372 128.86C323.372 29.076 242.478 -51.8525 142.703 -51.8525ZM142.703 283.632C112.083 283.632 82.151 274.553 56.6917 257.541C31.2325 240.53 11.3894 216.351 -0.328178 188.062C-12.0458 159.774 -15.1116 128.645 -9.13805 98.6141C-3.16447 68.5829 11.5802 40.9975 33.2316 19.3462C54.8829 -2.30516 82.4683 -17.0499 112.5 -23.0235C142.531 -28.9971 173.659 -25.9312 201.948 -14.2136C230.237 -2.49599 254.415 17.3471 271.427 42.8063C288.438 68.2656 297.518 98.1975 297.518 128.817C297.519 149.148 293.515 169.281 285.736 188.065C277.956 206.849 266.553 223.917 252.177 238.294C237.8 252.67 220.733 264.075 201.95 271.856C183.166 279.636 163.034 283.641 142.703 283.641V283.632Z" fill="#1146BB"/>
</g>
<path d="M46.57 279C52.81 279 56.14 275.16 56.14 268.95C56.14 262.74 52.78 258.9 46.57 258.9H38.98V279H46.57ZM46.15 261.9C50.32 261.9 52.6 263.91 52.6 268.95C52.6 273.99 50.32 276 46.18 276H42.37V261.9H46.15ZM65.8164 279.3C69.0564 279.3 71.0364 277.83 72.1464 276.15L70.0764 273.99C69.5364 275.22 68.3964 276.54 65.8464 276.54C63.5364 276.54 62.0064 275.13 61.8264 272.52H72.2664C72.3264 272.22 72.3864 271.59 72.3864 271.05C72.3864 267 69.9564 264.09 65.5764 264.09C61.4664 264.09 58.6164 267.12 58.6164 271.71C58.6164 276.27 61.4664 279.3 65.8164 279.3ZM65.5764 266.79C67.7964 266.79 69.1164 268.05 69.3564 270.36H61.8564C62.1264 267.99 63.5064 266.79 65.5764 266.79ZM80.6955 279.33C83.6055 279.33 84.8355 277.38 85.3155 275.13V279H88.6755V258.9H85.3155V268.32C84.8355 266.04 83.5455 264.09 80.6355 264.09C77.0955 264.09 74.8155 267 74.8155 271.71C74.8155 276.42 77.0955 279.33 80.6955 279.33ZM78.2655 271.71C78.2655 268.44 79.8555 266.82 81.9555 266.82C84.3255 266.82 85.3155 268.41 85.3155 270.81V272.64C85.3155 275.04 84.3255 276.6 81.9855 276.6C79.8555 276.6 78.2655 275.01 78.2655 271.71ZM95.5675 262.32V258.9H92.2075V262.32H95.5675ZM95.5675 279V264.39H92.2075V279H95.5675ZM105.452 279.3C109.112 279.3 111.422 277.23 112.202 274.47L109.172 272.97C108.842 275.07 107.792 276.48 105.512 276.48C103.202 276.48 101.792 274.77 101.792 271.71C101.792 268.62 103.202 266.91 105.512 266.91C107.762 266.91 108.842 268.32 109.172 270.42L112.202 268.92C111.422 266.16 109.112 264.09 105.452 264.09C101.102 264.09 98.3716 267.15 98.3716 271.71C98.3716 276.24 101.102 279.3 105.452 279.3ZM118.061 279.3C121.121 279.3 122.531 277.02 122.981 275.1V276.18C122.981 278.28 124.211 279 125.771 279H127.841V276.12H126.911C126.371 276.12 126.131 275.91 126.131 275.25V269.76C126.131 266.16 124.091 264.09 120.461 264.09C117.221 264.09 114.941 265.77 113.801 267.33L115.811 269.73C116.651 268.2 118.181 267.06 120.131 267.06C122.141 267.06 122.801 268.05 122.921 269.52L118.031 271.59C115.661 272.52 114.221 273.78 114.221 275.85C114.221 277.95 115.661 279.3 118.061 279.3ZM117.461 275.34C117.461 274.59 117.971 274.08 119.231 273.51L122.981 271.83V273.39C122.981 275.37 121.481 276.69 119.261 276.69C118.031 276.69 117.461 276.18 117.461 275.34ZM135.31 279.33C137.44 279.33 138.88 278.34 139.51 277.41L138.46 274.41C138.04 275.25 137.2 276.18 136.06 276.18C135.07 276.18 134.32 275.79 134.32 274.2V267H138.79V264.39H134.32V260.49L130.96 262.62V264.39H128.68V267H130.96V275.01C130.96 277.59 132.55 279.33 135.31 279.33ZM145.138 262.32V258.9H141.778V262.32H145.138ZM145.138 279V264.39H141.778V279H145.138ZM154.842 279.3C159.102 279.3 161.982 276.24 161.982 271.71C161.982 267.15 159.102 264.09 154.842 264.09C150.642 264.09 147.762 267.15 147.762 271.71C147.762 276.24 150.642 279.3 154.842 279.3ZM154.872 276.51C152.712 276.51 151.212 275.07 151.212 271.71C151.212 268.32 152.712 266.88 154.872 266.88C157.062 266.88 158.562 268.32 158.562 271.71C158.562 275.07 157.062 276.51 154.872 276.51ZM168.224 279V270.81C168.224 268.41 169.064 266.82 171.524 266.82C173.774 266.82 174.374 268.05 174.374 269.85V279H177.764V268.83C177.764 265.8 176.024 264.09 173.174 264.09C170.264 264.09 168.764 266.07 168.224 268.38V264.39H164.864V279H168.224Z" fill="white"/>
<path d="M42.096 375.112C44.196 375.112 45.61 373.992 46.212 372.06L45.12 371.346C44.812 372.914 43.888 373.964 42.11 373.964C39.968 373.964 38.988 372.438 38.988 370.296C38.988 368.154 39.968 366.628 42.11 366.628C43.888 366.628 44.812 367.678 45.12 369.246L46.212 368.532C45.61 366.6 44.196 365.48 42.096 365.48C39.254 365.48 37.7 367.594 37.7 370.296C37.7 372.998 39.254 375.112 42.096 375.112ZM50.388 375.14C52.264 375.14 53.594 373.754 53.594 371.612C53.594 369.47 52.264 368.084 50.388 368.084C48.512 368.084 47.196 369.47 47.196 371.612C47.196 373.754 48.512 375.14 50.388 375.14ZM50.388 374.118C49.24 374.118 48.442 373.32 48.442 371.612C48.442 369.89 49.24 369.106 50.388 369.106C51.55 369.106 52.362 369.89 52.362 371.612C52.362 373.32 51.55 374.118 50.388 374.118ZM56.3412 375V371.164C56.3412 370.03 56.8172 369.12 58.1192 369.12C59.2672 369.12 59.6172 369.736 59.6172 370.618V375H60.8212V370.324C60.8212 368.882 59.9952 368.084 58.6652 368.084C57.3352 368.084 56.6072 368.98 56.3412 370.03V368.224H55.1232V375H56.3412ZM65.056 375.14C66.372 375.14 67.52 374.538 67.52 373.194C67.52 372.256 67.016 371.626 65.49 371.262L64.622 371.038C63.698 370.814 63.25 370.604 63.25 370.002C63.25 369.428 63.754 369.12 64.454 369.12C65.42 369.12 66.064 369.624 66.4 370.422L67.324 369.736C66.946 368.84 65.952 368.084 64.524 368.084C63.054 368.084 62.102 368.84 62.102 370.072C62.102 371.318 63.152 371.78 64.118 372.004L65.014 372.214C65.812 372.396 66.428 372.592 66.428 373.208C66.428 373.81 65.896 374.118 65.098 374.118C63.754 374.118 63.012 373.348 62.774 372.578L61.892 373.264C62.354 374.524 63.642 375.14 65.056 375.14ZM70.1498 367.132V365.62H68.9318V367.132H70.1498ZM70.1498 375V368.224H68.9318V375H70.1498ZM74.6126 375.14C75.9286 375.14 77.0766 374.538 77.0766 373.194C77.0766 372.256 76.5726 371.626 75.0466 371.262L74.1786 371.038C73.2546 370.814 72.8066 370.604 72.8066 370.002C72.8066 369.428 73.3106 369.12 74.0106 369.12C74.9766 369.12 75.6206 369.624 75.9566 370.422L76.8806 369.736C76.5026 368.84 75.5086 368.084 74.0806 368.084C72.6106 368.084 71.6586 368.84 71.6586 370.072C71.6586 371.318 72.7086 371.78 73.6746 372.004L74.5706 372.214C75.3686 372.396 75.9846 372.592 75.9846 373.208C75.9846 373.81 75.4526 374.118 74.6546 374.118C73.3106 374.118 72.5686 373.348 72.3306 372.578L71.4486 373.264C71.9106 374.524 73.1986 375.14 74.6126 375.14ZM80.6061 375.154C81.5441 375.154 82.1881 374.72 82.4821 374.258L82.0761 373.054C81.8941 373.474 81.4741 373.978 80.8721 373.978C80.3401 373.978 79.9341 373.768 79.9341 372.9V369.176H82.1601V368.224H79.9341V366.46L78.7161 367.356V368.224H77.6241V369.176H78.7161V373.264C78.7161 374.426 79.5001 375.154 80.6061 375.154ZM86.0893 375.14C87.5593 375.14 88.4973 374.454 89.0013 373.642L88.2593 372.802C87.9933 373.39 87.4473 374.132 86.0893 374.132C84.8853 374.132 84.0873 373.32 84.0173 371.892H89.0433C89.0713 371.766 89.0993 371.556 89.0993 371.346C89.0993 369.358 87.9373 368.084 86.0193 368.084C84.1573 368.084 82.8413 369.47 82.8413 371.612C82.8413 373.768 84.1713 375.14 86.0893 375.14ZM86.0193 369.106C87.1533 369.106 87.8813 369.764 88.0073 371.01H84.0453C84.1993 369.75 84.9273 369.106 86.0193 369.106ZM91.8608 375V371.164C91.8608 370.03 92.3368 369.12 93.6388 369.12C94.7868 369.12 95.1368 369.736 95.1368 370.618V375H96.3408V370.324C96.3408 368.882 95.5148 368.084 94.1848 368.084C92.8548 368.084 92.1268 368.98 91.8608 370.03V368.224H90.6427V375H91.8608ZM100.935 375.14C102.699 375.14 103.735 374.118 104.057 372.76L102.867 372.27C102.727 373.348 102.167 374.132 100.949 374.132C99.7173 374.132 98.9753 373.208 98.9753 371.612C98.9753 370.016 99.7173 369.106 100.949 369.106C102.167 369.106 102.727 369.876 102.867 370.954L104.057 370.464C103.735 369.106 102.699 368.084 100.935 368.084C98.9893 368.084 97.7433 369.47 97.7433 371.612C97.7433 373.768 98.9893 375.14 100.935 375.14ZM106.17 377.212C107.122 377.212 107.878 376.806 108.312 375.56L110.916 368.224H109.614L108.172 372.578L107.696 374.034L107.22 372.578L105.764 368.224H104.462L106.744 374.636L107.5 374.622L107.36 375.056C107.094 375.882 106.73 376.148 106.184 376.148C105.54 376.148 105.19 375.742 104.868 375.196L104.21 376.12C104.504 376.68 105.204 377.212 106.17 377.212ZM116.21 367.132V365.62H114.992V367.132H116.21ZM116.21 375V368.224H114.992V375H116.21ZM120.673 375.14C121.989 375.14 123.137 374.538 123.137 373.194C123.137 372.256 122.633 371.626 121.107 371.262L120.239 371.038C119.315 370.814 118.867 370.604 118.867 370.002C118.867 369.428 119.371 369.12 120.071 369.12C121.037 369.12 121.681 369.624 122.017 370.422L122.941 369.736C122.563 368.84 121.569 368.084 120.141 368.084C118.671 368.084 117.719 368.84 117.719 370.072C117.719 371.318 118.769 371.78 119.735 372.004L120.631 372.214C121.429 372.396 122.045 372.592 122.045 373.208C122.045 373.81 121.513 374.118 120.715 374.118C119.371 374.118 118.629 373.348 118.391 372.578L117.509 373.264C117.971 374.524 119.259 375.14 120.673 375.14ZM129.893 375.154C130.831 375.154 131.475 374.72 131.769 374.258L131.363 373.054C131.181 373.474 130.761 373.978 130.159 373.978C129.627 373.978 129.221 373.768 129.221 372.9V369.176H131.447V368.224H129.221V366.46L128.003 367.356V368.224H126.911V369.176H128.003V373.264C128.003 374.426 128.787 375.154 129.893 375.154ZM134.189 375V371.164C134.189 370.03 134.665 369.12 135.967 369.12C137.115 369.12 137.465 369.736 137.465 370.618V375H138.669V370.324C138.669 368.882 137.843 368.084 136.513 368.084C135.183 368.084 134.455 368.98 134.189 370.03V365.62H132.971V375H134.189ZM143.333 375.14C144.803 375.14 145.741 374.454 146.245 373.642L145.503 372.802C145.237 373.39 144.691 374.132 143.333 374.132C142.129 374.132 141.331 373.32 141.261 371.892H146.287C146.315 371.766 146.343 371.556 146.343 371.346C146.343 369.358 145.181 368.084 143.263 368.084C141.401 368.084 140.085 369.47 140.085 371.612C140.085 373.768 141.415 375.14 143.333 375.14ZM143.263 369.106C144.397 369.106 145.125 369.764 145.251 371.01H141.289C141.443 369.75 142.171 369.106 143.263 369.106ZM153.804 375.14C155.568 375.14 156.604 374.118 156.926 372.76L155.736 372.27C155.596 373.348 155.036 374.132 153.818 374.132C152.586 374.132 151.844 373.208 151.844 371.612C151.844 370.016 152.586 369.106 153.818 369.106C155.036 369.106 155.596 369.876 155.736 370.954L156.926 370.464C156.604 369.106 155.568 368.084 153.804 368.084C151.858 368.084 150.612 369.47 150.612 371.612C150.612 373.768 151.858 375.14 153.804 375.14ZM160.966 375.14C162.842 375.14 164.172 373.754 164.172 371.612C164.172 369.47 162.842 368.084 160.966 368.084C159.09 368.084 157.774 369.47 157.774 371.612C157.774 373.754 159.09 375.14 160.966 375.14ZM160.966 374.118C159.818 374.118 159.02 373.32 159.02 371.612C159.02 369.89 159.818 369.106 160.966 369.106C162.128 369.106 162.94 369.89 162.94 371.612C162.94 373.32 162.128 374.118 160.966 374.118ZM168.232 375.168C169.534 375.168 170.178 374.3 170.416 373.264V375H171.634V365.62H170.416V369.988C170.178 368.952 169.534 368.084 168.232 368.084C166.524 368.084 165.46 369.484 165.46 371.626C165.46 373.768 166.524 375.168 168.232 375.168ZM166.692 371.626C166.692 369.904 167.574 369.12 168.638 369.12C169.94 369.12 170.416 370.03 170.416 371.15V372.116C170.416 373.236 169.94 374.146 168.638 374.146C167.574 374.146 166.692 373.362 166.692 371.626ZM176.365 375.14C177.835 375.14 178.773 374.454 179.277 373.642L178.535 372.802C178.269 373.39 177.723 374.132 176.365 374.132C175.161 374.132 174.363 373.32 174.293 371.892H179.319C179.347 371.766 179.375 371.556 179.375 371.346C179.375 369.358 178.213 368.084 176.295 368.084C174.433 368.084 173.117 369.47 173.117 371.612C173.117 373.768 174.447 375.14 176.365 375.14ZM176.295 369.106C177.429 369.106 178.157 369.764 178.283 371.01H174.321C174.475 369.75 175.203 369.106 176.295 369.106ZM186.29 375.154C187.228 375.154 187.872 374.72 188.166 374.258L187.76 373.054C187.578 373.474 187.158 373.978 186.556 373.978C186.024 373.978 185.618 373.768 185.618 372.9V369.176H187.844V368.224H185.618V366.46L184.4 367.356V368.224H183.308V369.176H184.4V373.264C184.4 374.426 185.184 375.154 186.29 375.154ZM191.605 375.14C193.481 375.14 194.811 373.754 194.811 371.612C194.811 369.47 193.481 368.084 191.605 368.084C189.729 368.084 188.413 369.47 188.413 371.612C188.413 373.754 189.729 375.14 191.605 375.14ZM191.605 374.118C190.457 374.118 189.659 373.32 189.659 371.612C189.659 369.89 190.457 369.106 191.605 369.106C192.767 369.106 193.579 369.89 193.579 371.612C193.579 373.32 192.767 374.118 191.605 374.118ZM40.192 407.154C41.13 407.154 41.774 406.72 42.068 406.258L41.662 405.054C41.48 405.474 41.06 405.978 40.458 405.978C39.926 405.978 39.52 405.768 39.52 404.9V401.176H41.746V400.224H39.52V398.46L38.302 399.356V400.224H37.21V401.176H38.302V405.264C38.302 406.426 39.086 407.154 40.192 407.154ZM45.0693 407.14C46.4273 407.14 47.1553 406.216 47.4073 405.152V407H48.6113V400.224H47.4073V404.074C47.4073 405.194 46.9313 406.118 45.6153 406.118C44.4673 406.118 44.1173 405.488 44.1173 404.62V400.224H42.9133V404.914C42.9133 406.342 43.7393 407.14 45.0693 407.14ZM51.6791 407V403.164C51.6791 402.002 52.4631 400.98 53.3311 400.98C53.8211 400.98 54.0311 401.316 54.0311 401.708C54.0311 402.086 53.8491 402.506 53.6251 402.702H54.9551C55.0671 402.534 55.2211 402.114 55.2211 401.54C55.2211 400.588 54.5211 400.07 53.7931 400.07C52.6451 400.07 51.9451 400.98 51.6791 402.03V400.224H50.4611V407H51.6791ZM57.5033 407V403.164C57.5033 402.03 57.9793 401.12 59.2813 401.12C60.4293 401.12 60.7793 401.736 60.7793 402.618V407H61.9833V402.324C61.9833 400.882 61.1573 400.084 59.8273 400.084C58.4973 400.084 57.7693 400.98 57.5033 402.03V400.224H56.2853V407H57.5033ZM65.0092 399.132V397.62H63.7912V399.132H65.0092ZM65.0092 407V400.224H63.7912V407H65.0092ZM68.058 407V403.164C68.058 402.03 68.534 401.12 69.836 401.12C70.984 401.12 71.334 401.736 71.334 402.618V407H72.538V402.324C72.538 400.882 71.712 400.084 70.382 400.084C69.052 400.084 68.324 400.98 68.058 402.03V400.224H66.84V407H68.058ZM76.9098 404.928C78.5058 404.928 79.5838 403.92 79.5838 402.506C79.5838 401.666 79.1918 400.952 78.5478 400.532L79.7938 399.132L78.5338 398.684L78.1138 400.308C77.7638 400.168 77.3578 400.084 76.9098 400.084C75.3138 400.084 74.2358 401.092 74.2358 402.506C74.2358 403.36 74.6278 404.074 75.2998 404.494C74.6418 405.026 74.2358 405.614 74.2358 406.146C74.2358 406.594 74.4598 406.916 74.8938 407.056C74.3758 407.266 73.8018 407.644 73.8018 408.274C73.8018 409.17 74.8938 409.744 76.6298 409.744C78.9118 409.744 80.1718 408.834 80.1718 407.546C80.1718 406.524 79.4018 406.034 78.1698 406.034H76.1258C75.4258 406.034 75.2298 405.852 75.2298 405.488C75.2298 405.194 75.4258 404.872 75.5938 404.648C75.9718 404.83 76.4198 404.928 76.9098 404.928ZM76.9098 403.99C76.0698 403.99 75.4118 403.43 75.4118 402.506C75.4118 401.582 76.0698 401.022 76.9098 401.022C77.7638 401.022 78.4078 401.582 78.4078 402.506C78.4078 403.43 77.7638 403.99 76.9098 403.99ZM76.6298 408.778C75.4118 408.778 74.7818 408.442 74.7818 407.896C74.7818 407.574 75.0198 407.28 75.2438 407.084H78.0158C78.7018 407.084 79.0378 407.28 79.0378 407.714C79.0378 408.386 78.1698 408.778 76.6298 408.778ZM86.816 407.168C88.118 407.168 88.762 406.3 89 405.264V407H90.218V397.62H89V401.988C88.762 400.952 88.118 400.084 86.816 400.084C85.108 400.084 84.044 401.484 84.044 403.626C84.044 405.768 85.108 407.168 86.816 407.168ZM85.276 403.626C85.276 401.904 86.158 401.12 87.222 401.12C88.524 401.12 89 402.03 89 403.15V404.116C89 405.236 88.524 406.146 87.222 406.146C86.158 406.146 85.276 405.362 85.276 403.626ZM93.2826 407V403.164C93.2826 402.002 94.0666 400.98 94.9346 400.98C95.4246 400.98 95.6346 401.316 95.6346 401.708C95.6346 402.086 95.4526 402.506 95.2286 402.702H96.5586C96.6706 402.534 96.8246 402.114 96.8246 401.54C96.8246 400.588 96.1246 400.07 95.3966 400.07C94.2486 400.07 93.5486 400.98 93.2826 402.03V400.224H92.0646V407H93.2826ZM100.677 407.14C102.147 407.14 103.085 406.454 103.589 405.642L102.847 404.802C102.581 405.39 102.035 406.132 100.677 406.132C99.4731 406.132 98.6751 405.32 98.6051 403.892H103.631C103.659 403.766 103.687 403.556 103.687 403.346C103.687 401.358 102.525 400.084 100.607 400.084C98.7451 400.084 97.4291 401.47 97.4291 403.612C97.4291 405.768 98.7591 407.14 100.677 407.14ZM100.607 401.106C101.741 401.106 102.469 401.764 102.595 403.01H98.6331C98.7871 401.75 99.5151 401.106 100.607 401.106ZM106.672 407.14C108.072 407.14 108.8 406.132 109.024 405.236V405.712C109.024 406.664 109.528 407 110.228 407H111.012V405.894H110.578C110.326 405.894 110.2 405.796 110.2 405.474V402.688C110.2 401.078 109.304 400.084 107.638 400.084C106.126 400.084 105.118 400.938 104.712 401.638L105.538 402.492C105.888 401.75 106.532 401.19 107.498 401.19C108.562 401.19 108.94 401.778 108.982 402.576L106.532 403.668C105.566 404.102 104.88 404.676 104.88 405.586C104.88 406.482 105.524 407.14 106.672 407.14ZM106.112 405.39C106.112 404.97 106.406 404.69 107.05 404.382L109.024 403.458V404.396C109.024 405.376 108.212 406.132 107.064 406.132C106.434 406.132 106.112 405.852 106.112 405.39ZM113.64 407V403.164C113.64 402.03 114.116 401.12 115.138 401.12C116.16 401.12 116.622 401.61 116.622 402.604V407H117.84V403.164C117.84 402.03 118.316 401.12 119.352 401.12C120.36 401.12 120.836 401.61 120.836 402.604V407H122.04V402.31C122.04 400.882 121.354 400.084 120.024 400.084C118.792 400.084 118.092 400.994 117.826 402.072C117.756 400.798 117.07 400.084 115.824 400.084C114.606 400.084 113.906 400.98 113.64 402.016V400.224H112.422V407H113.64ZM126.279 407.14C127.595 407.14 128.743 406.538 128.743 405.194C128.743 404.256 128.239 403.626 126.713 403.262L125.845 403.038C124.921 402.814 124.473 402.604 124.473 402.002C124.473 401.428 124.977 401.12 125.677 401.12C126.643 401.12 127.287 401.624 127.623 402.422L128.547 401.736C128.169 400.84 127.175 400.084 125.747 400.084C124.277 400.084 123.325 400.84 123.325 402.072C123.325 403.318 124.375 403.78 125.341 404.004L126.237 404.214C127.035 404.396 127.651 404.592 127.651 405.208C127.651 405.81 127.119 406.118 126.321 406.118C124.977 406.118 124.235 405.348 123.997 404.578L123.115 405.264C123.577 406.524 124.865 407.14 126.279 407.14ZM135.499 407.154C136.437 407.154 137.081 406.72 137.375 406.258L136.969 405.054C136.787 405.474 136.367 405.978 135.765 405.978C135.233 405.978 134.827 405.768 134.827 404.9V401.176H137.053V400.224H134.827V398.46L133.609 399.356V400.224H132.517V401.176H133.609V405.264C133.609 406.426 134.393 407.154 135.499 407.154ZM140.814 407.14C142.69 407.14 144.02 405.754 144.02 403.612C144.02 401.47 142.69 400.084 140.814 400.084C138.938 400.084 137.622 401.47 137.622 403.612C137.622 405.754 138.938 407.14 140.814 407.14ZM140.814 406.118C139.666 406.118 138.868 405.32 138.868 403.612C138.868 401.89 139.666 401.106 140.814 401.106C141.976 401.106 142.788 401.89 142.788 403.612C142.788 405.32 141.976 406.118 140.814 406.118ZM149.871 407V403.164C149.871 402.002 150.655 400.98 151.523 400.98C152.013 400.98 152.223 401.316 152.223 401.708C152.223 402.086 152.041 402.506 151.817 402.702H153.147C153.259 402.534 153.413 402.114 153.413 401.54C153.413 400.588 152.713 400.07 151.985 400.07C150.837 400.07 150.137 400.98 149.871 402.03V400.224H148.653V407H149.871ZM157.265 407.14C158.735 407.14 159.673 406.454 160.177 405.642L159.435 404.802C159.169 405.39 158.623 406.132 157.265 406.132C156.061 406.132 155.263 405.32 155.193 403.892H160.219C160.247 403.766 160.275 403.556 160.275 403.346C160.275 401.358 159.113 400.084 157.195 400.084C155.333 400.084 154.017 401.47 154.017 403.612C154.017 405.768 155.347 407.14 157.265 407.14ZM157.195 401.106C158.329 401.106 159.057 401.764 159.183 403.01H155.221C155.375 401.75 156.103 401.106 157.195 401.106ZM163.26 407.14C164.66 407.14 165.388 406.132 165.612 405.236V405.712C165.612 406.664 166.116 407 166.816 407H167.6V405.894H167.166C166.914 405.894 166.788 405.796 166.788 405.474V402.688C166.788 401.078 165.892 400.084 164.226 400.084C162.714 400.084 161.706 400.938 161.3 401.638L162.126 402.492C162.476 401.75 163.12 401.19 164.086 401.19C165.15 401.19 165.528 401.778 165.57 402.576L163.12 403.668C162.154 404.102 161.468 404.676 161.468 405.586C161.468 406.482 162.112 407.14 163.26 407.14ZM162.7 405.39C162.7 404.97 162.994 404.69 163.638 404.382L165.612 403.458V404.396C165.612 405.376 164.8 406.132 163.652 406.132C163.022 406.132 162.7 405.852 162.7 405.39ZM170.228 407V397.62H169.01V407H170.228ZM173.277 399.132V397.62H172.059V399.132H173.277ZM173.277 407V400.224H172.059V407H173.277ZM177.376 407.154C178.314 407.154 178.958 406.72 179.252 406.258L178.846 405.054C178.664 405.474 178.244 405.978 177.642 405.978C177.11 405.978 176.704 405.768 176.704 404.9V401.176H178.93V400.224H176.704V398.46L175.486 399.356V400.224H174.394V401.176H175.486V405.264C175.486 406.426 176.27 407.154 177.376 407.154ZM181.051 409.212C182.003 409.212 182.759 408.806 183.193 407.56L185.797 400.224H184.495L183.053 404.578L182.577 406.034L182.101 404.578L180.645 400.224H179.343L181.625 406.636L182.381 406.622L182.241 407.056C181.975 407.882 181.611 408.148 181.065 408.148C180.421 408.148 180.071 407.742 179.749 407.196L179.091 408.12C179.385 408.68 180.085 409.212 181.051 409.212ZM191.273 407.14C192.673 407.14 193.401 406.132 193.625 405.236V405.712C193.625 406.664 194.129 407 194.829 407H195.613V405.894H195.179C194.927 405.894 194.801 405.796 194.801 405.474V402.688C194.801 401.078 193.905 400.084 192.239 400.084C190.727 400.084 189.719 400.938 189.313 401.638L190.139 402.492C190.489 401.75 191.133 401.19 192.099 401.19C193.163 401.19 193.541 401.778 193.583 402.576L191.133 403.668C190.167 404.102 189.481 404.676 189.481 405.586C189.481 406.482 190.125 407.14 191.273 407.14ZM190.713 405.39C190.713 404.97 191.007 404.69 191.651 404.382L193.625 403.458V404.396C193.625 405.376 192.813 406.132 191.665 406.132C191.035 406.132 190.713 405.852 190.713 405.39ZM198.242 407V403.164C198.242 402.03 198.718 401.12 200.02 401.12C201.168 401.12 201.518 401.736 201.518 402.618V407H202.722V402.324C202.722 400.882 201.896 400.084 200.566 400.084C199.236 400.084 198.508 400.98 198.242 402.03V400.224H197.024V407H198.242ZM206.896 407.168C208.198 407.168 208.842 406.3 209.08 405.264V407H210.298V397.62H209.08V401.988C208.842 400.952 208.198 400.084 206.896 400.084C205.188 400.084 204.124 401.484 204.124 403.626C204.124 405.768 205.188 407.168 206.896 407.168ZM205.356 403.626C205.356 401.904 206.238 401.12 207.302 401.12C208.604 401.12 209.08 402.03 209.08 403.15V404.116C209.08 405.236 208.604 406.146 207.302 406.146C206.238 406.146 205.356 405.362 205.356 403.626ZM216.621 407.14C218.021 407.14 218.749 406.132 218.973 405.236V405.712C218.973 406.664 219.477 407 220.177 407H220.961V405.894H220.527C220.275 405.894 220.149 405.796 220.149 405.474V402.688C220.149 401.078 219.253 400.084 217.587 400.084C216.075 400.084 215.067 400.938 214.661 401.638L215.487 402.492C215.837 401.75 216.481 401.19 217.447 401.19C218.511 401.19 218.889 401.778 218.931 402.576L216.481 403.668C215.515 404.102 214.829 404.676 214.829 405.586C214.829 406.482 215.473 407.14 216.621 407.14ZM216.061 405.39C216.061 404.97 216.355 404.69 216.999 404.382L218.973 403.458V404.396C218.973 405.376 218.161 406.132 217.013 406.132C216.383 406.132 216.061 405.852 216.061 405.39ZM224.448 407.154C225.386 407.154 226.03 406.72 226.324 406.258L225.918 405.054C225.736 405.474 225.316 405.978 224.714 405.978C224.182 405.978 223.776 405.768 223.776 404.9V401.176H226.002V400.224H223.776V398.46L222.558 399.356V400.224H221.466V401.176H222.558V405.264C222.558 406.426 223.342 407.154 224.448 407.154ZM38.358 439L39.38 436.382H43.482L44.504 439H45.848L42.068 429.62H40.85L37.07 439H38.358ZM40.962 432.336L41.438 430.866L41.9 432.336L43.062 435.304H39.8L40.962 432.336ZM47.8647 439V435.164C47.8647 434.002 48.6487 432.98 49.5167 432.98C50.0067 432.98 50.2167 433.316 50.2167 433.708C50.2167 434.086 50.0347 434.506 49.8107 434.702H51.1407C51.2527 434.534 51.4067 434.114 51.4067 433.54C51.4067 432.588 50.7067 432.07 49.9787 432.07C48.8307 432.07 48.1307 432.98 47.8647 434.03V432.224H46.6467V439H47.8647ZM54.7692 439.168C56.0712 439.168 56.7152 438.3 56.9532 437.264V439H58.1712V429.62H56.9532V433.988C56.7152 432.952 56.0712 432.084 54.7692 432.084C53.0612 432.084 51.9972 433.484 51.9972 435.626C51.9972 437.768 53.0612 439.168 54.7692 439.168ZM53.2292 435.626C53.2292 433.904 54.1112 433.12 55.1752 433.12C56.4772 433.12 56.9532 434.03 56.9532 435.15V436.116C56.9532 437.236 56.4772 438.146 55.1752 438.146C54.1112 438.146 53.2292 437.362 53.2292 435.626ZM61.2358 431.132V429.62H60.0177V431.132H61.2358ZM61.2358 439V432.224H60.0177V439H61.2358ZM64.2846 439V429.62H63.0666V439H64.2846ZM67.3334 439V429.62H66.1154V439H67.3334ZM70.5642 439.14C71.9642 439.14 72.6922 438.132 72.9162 437.236V437.712C72.9162 438.664 73.4202 439 74.1202 439H74.9042V437.894H74.4702C74.2182 437.894 74.0922 437.796 74.0922 437.474V434.688C74.0922 433.078 73.1962 432.084 71.5302 432.084C70.0182 432.084 69.0102 432.938 68.6042 433.638L69.4302 434.492C69.7802 433.75 70.4242 433.19 71.3902 433.19C72.4542 433.19 72.8322 433.778 72.8742 434.576L70.4242 435.668C69.4582 436.102 68.7722 436.676 68.7722 437.586C68.7722 438.482 69.4162 439.14 70.5642 439.14ZM70.0042 437.39C70.0042 436.97 70.2982 436.69 70.9422 436.382L72.9162 435.458V436.396C72.9162 437.376 72.1042 438.132 70.9562 438.132C70.3262 438.132 70.0042 437.852 70.0042 437.39ZM76.4126 440.428C77.3646 440.316 77.6306 439.826 77.6306 439V437.18H76.1606V439H76.8466V439.196C76.8466 439.588 76.6226 439.686 76.1466 439.756L76.4126 440.428ZM84.9746 439L86.1366 435.038L86.5986 433.232L87.0326 435.038L88.1946 439H89.7906L91.5406 432.224H90.1826L89.3146 436.396L88.9926 438.118L88.5586 436.396L87.3406 432.224H85.8426L84.6106 436.396L84.1906 438.118L83.8686 436.396L82.9866 432.224H81.6286L83.3926 439H84.9746ZM95.1674 439.14C96.6374 439.14 97.5754 438.454 98.0794 437.642L97.3374 436.802C97.0714 437.39 96.5254 438.132 95.1674 438.132C93.9634 438.132 93.1654 437.32 93.0954 435.892H98.1214C98.1494 435.766 98.1774 435.556 98.1774 435.346C98.1774 433.358 97.0154 432.084 95.0974 432.084C93.2354 432.084 91.9194 433.47 91.9194 435.612C91.9194 437.768 93.2494 439.14 95.1674 439.14ZM95.0974 433.106C96.2314 433.106 96.9594 433.764 97.0854 435.01H93.1234C93.2774 433.75 94.0054 433.106 95.0974 433.106ZM104.042 439V435.164C104.042 434.03 104.518 433.12 105.82 433.12C106.968 433.12 107.318 433.736 107.318 434.618V439H108.522V434.324C108.522 432.882 107.696 432.084 106.366 432.084C105.036 432.084 104.308 432.98 104.042 434.03V429.62H102.824V439H104.042ZM111.758 439.14C113.158 439.14 113.886 438.132 114.11 437.236V437.712C114.11 438.664 114.614 439 115.314 439H116.098V437.894H115.664C115.412 437.894 115.286 437.796 115.286 437.474V434.688C115.286 433.078 114.39 432.084 112.724 432.084C111.212 432.084 110.204 432.938 109.798 433.638L110.624 434.492C110.974 433.75 111.618 433.19 112.584 433.19C113.648 433.19 114.026 433.778 114.068 434.576L111.618 435.668C110.652 436.102 109.966 436.676 109.966 437.586C109.966 438.482 110.61 439.14 111.758 439.14ZM111.198 437.39C111.198 436.97 111.492 436.69 112.136 436.382L114.11 435.458V436.396C114.11 437.376 113.298 438.132 112.15 438.132C111.52 438.132 111.198 437.852 111.198 437.39ZM120.357 439L122.821 432.224H121.519L120.189 436.242L119.615 438.104L119.027 436.242L117.683 432.224H116.367L118.817 439H120.357ZM126.367 439.14C127.837 439.14 128.775 438.454 129.279 437.642L128.537 436.802C128.271 437.39 127.725 438.132 126.367 438.132C125.163 438.132 124.365 437.32 124.295 435.892H129.321C129.349 435.766 129.377 435.556 129.377 435.346C129.377 433.358 128.215 432.084 126.297 432.084C124.435 432.084 123.119 433.47 123.119 435.612C123.119 437.768 124.449 439.14 126.367 439.14ZM126.297 433.106C127.431 433.106 128.159 433.764 128.285 435.01H124.323C124.477 433.75 125.205 433.106 126.297 433.106ZM135.424 439.14C136.824 439.14 137.552 438.132 137.776 437.236V437.712C137.776 438.664 138.28 439 138.98 439H139.764V437.894H139.33C139.078 437.894 138.952 437.796 138.952 437.474V434.688C138.952 433.078 138.056 432.084 136.39 432.084C134.878 432.084 133.87 432.938 133.464 433.638L134.29 434.492C134.64 433.75 135.284 433.19 136.25 433.19C137.314 433.19 137.692 433.778 137.734 434.576L135.284 435.668C134.318 436.102 133.632 436.676 133.632 437.586C133.632 438.482 134.276 439.14 135.424 439.14ZM134.864 437.39C134.864 436.97 135.158 436.69 135.802 436.382L137.776 435.458V436.396C137.776 437.376 136.964 438.132 135.816 438.132C135.186 438.132 134.864 437.852 134.864 437.39ZM145.468 439V429.62H144.25V439H145.468ZM150.015 439.14C151.891 439.14 153.221 437.754 153.221 435.612C153.221 433.47 151.891 432.084 150.015 432.084C148.139 432.084 146.823 433.47 146.823 435.612C146.823 437.754 148.139 439.14 150.015 439.14ZM150.015 438.118C148.867 438.118 148.069 437.32 148.069 435.612C148.069 433.89 148.867 433.106 150.015 433.106C151.177 433.106 151.989 433.89 151.989 435.612C151.989 437.32 151.177 438.118 150.015 438.118ZM156.909 439.154C157.847 439.154 158.491 438.72 158.785 438.258L158.379 437.054C158.197 437.474 157.777 437.978 157.175 437.978C156.643 437.978 156.237 437.768 156.237 436.9V433.176H158.463V432.224H156.237V430.46L155.019 431.356V432.224H153.927V433.176H155.019V437.264C155.019 438.426 155.803 439.154 156.909 439.154ZM165.683 439.14C167.559 439.14 168.889 437.754 168.889 435.612C168.889 433.47 167.559 432.084 165.683 432.084C163.807 432.084 162.491 433.47 162.491 435.612C162.491 437.754 163.807 439.14 165.683 439.14ZM165.683 438.118C164.535 438.118 163.737 437.32 163.737 435.612C163.737 433.89 164.535 433.106 165.683 433.106C166.845 433.106 167.657 433.89 167.657 435.612C167.657 437.32 166.845 438.118 165.683 438.118ZM172.059 439V433.176H174.243V432.224H172.059V431.496C172.059 430.852 172.339 430.488 172.969 430.488C173.571 430.488 174.005 430.852 174.271 431.342L174.943 430.474C174.663 430.04 174.019 429.48 172.983 429.48C171.709 429.48 170.841 430.236 170.841 431.594V432.224H169.735V433.176H170.841V439H172.059ZM180.769 439.168C182.071 439.168 182.715 438.3 182.953 437.264V439H184.171V429.62H182.953V433.988C182.715 432.952 182.071 432.084 180.769 432.084C179.061 432.084 177.997 433.484 177.997 435.626C177.997 437.768 179.061 439.168 180.769 439.168ZM179.229 435.626C179.229 433.904 180.111 433.12 181.175 433.12C182.477 433.12 182.953 434.03 182.953 435.15V436.116C182.953 437.236 182.477 438.146 181.175 438.146C180.111 438.146 179.229 437.362 179.229 435.626ZM187.236 439V435.164C187.236 434.002 188.02 432.98 188.888 432.98C189.378 432.98 189.588 433.316 189.588 433.708C189.588 434.086 189.406 434.506 189.182 434.702H190.512C190.624 434.534 190.778 434.114 190.778 433.54C190.778 432.588 190.078 432.07 189.35 432.07C188.202 432.07 187.502 432.98 187.236 434.03V432.224H186.018V439H187.236ZM194.63 439.14C196.1 439.14 197.038 438.454 197.542 437.642L196.8 436.802C196.534 437.39 195.988 438.132 194.63 438.132C193.426 438.132 192.628 437.32 192.558 435.892H197.584C197.612 435.766 197.64 435.556 197.64 435.346C197.64 433.358 196.478 432.084 194.56 432.084C192.698 432.084 191.382 433.47 191.382 435.612C191.382 437.768 192.712 439.14 194.63 439.14ZM194.56 433.106C195.694 433.106 196.422 433.764 196.548 435.01H192.586C192.74 433.75 193.468 433.106 194.56 433.106ZM200.625 439.14C202.025 439.14 202.753 438.132 202.977 437.236V437.712C202.977 438.664 203.481 439 204.181 439H204.965V437.894H204.531C204.279 437.894 204.153 437.796 204.153 437.474V434.688C204.153 433.078 203.257 432.084 201.591 432.084C200.079 432.084 199.071 432.938 198.665 433.638L199.491 434.492C199.841 433.75 200.485 433.19 201.451 433.19C202.515 433.19 202.893 433.778 202.935 434.576L200.485 435.668C199.519 436.102 198.833 436.676 198.833 437.586C198.833 438.482 199.477 439.14 200.625 439.14ZM200.065 437.39C200.065 436.97 200.359 436.69 201.003 436.382L202.977 435.458V436.396C202.977 437.376 202.165 438.132 201.017 438.132C200.387 438.132 200.065 437.852 200.065 437.39ZM207.593 439V435.164C207.593 434.03 208.069 433.12 209.091 433.12C210.113 433.12 210.575 433.61 210.575 434.604V439H211.793V435.164C211.793 434.03 212.269 433.12 213.305 433.12C214.313 433.12 214.789 433.61 214.789 434.604V439H215.993V434.31C215.993 432.882 215.307 432.084 213.977 432.084C212.745 432.084 212.045 432.994 211.779 434.072C211.709 432.798 211.023 432.084 209.777 432.084C208.559 432.084 207.859 432.98 207.593 434.016V432.224H206.375V439H207.593ZM220.232 439.14C221.548 439.14 222.696 438.538 222.696 437.194C222.696 436.256 222.192 435.626 220.666 435.262L219.798 435.038C218.874 434.814 218.426 434.604 218.426 434.002C218.426 433.428 218.93 433.12 219.63 433.12C220.596 433.12 221.24 433.624 221.576 434.422L222.5 433.736C222.122 432.84 221.128 432.084 219.7 432.084C218.23 432.084 217.278 432.84 217.278 434.072C217.278 435.318 218.328 435.78 219.294 436.004L220.19 436.214C220.988 436.396 221.604 436.592 221.604 437.208C221.604 437.81 221.072 438.118 220.274 438.118C218.93 438.118 218.188 437.348 217.95 436.578L217.068 437.264C217.53 438.524 218.818 439.14 220.232 439.14ZM229.452 439.154C230.39 439.154 231.034 438.72 231.328 438.258L230.922 437.054C230.74 437.474 230.32 437.978 229.718 437.978C229.186 437.978 228.78 437.768 228.78 436.9V433.176H231.006V432.224H228.78V430.46L227.562 431.356V432.224H226.47V433.176H227.562V437.264C227.562 438.426 228.346 439.154 229.452 439.154ZM234.767 439.14C236.643 439.14 237.973 437.754 237.973 435.612C237.973 433.47 236.643 432.084 234.767 432.084C232.891 432.084 231.575 433.47 231.575 435.612C231.575 437.754 232.891 439.14 234.767 439.14ZM234.767 438.118C233.619 438.118 232.821 437.32 232.821 435.612C232.821 433.89 233.619 433.106 234.767 433.106C235.929 433.106 236.741 433.89 236.741 435.612C236.741 437.32 235.929 438.118 234.767 438.118ZM40.192 471.154C41.13 471.154 41.774 470.72 42.068 470.258L41.662 469.054C41.48 469.474 41.06 469.978 40.458 469.978C39.926 469.978 39.52 469.768 39.52 468.9V465.176H41.746V464.224H39.52V462.46L38.302 463.356V464.224H37.21V465.176H38.302V469.264C38.302 470.426 39.086 471.154 40.192 471.154ZM44.1733 471V467.164C44.1733 466.002 44.9573 464.98 45.8253 464.98C46.3153 464.98 46.5253 465.316 46.5253 465.708C46.5253 466.086 46.3433 466.506 46.1193 466.702H47.4493C47.5613 466.534 47.7153 466.114 47.7153 465.54C47.7153 464.588 47.0153 464.07 46.2873 464.07C45.1393 464.07 44.4393 464.98 44.1733 466.03V464.224H42.9552V471H44.1733ZM50.1931 471.14C51.5931 471.14 52.3211 470.132 52.5451 469.236V469.712C52.5451 470.664 53.0491 471 53.7491 471H54.5331V469.894H54.0991C53.8471 469.894 53.7211 469.796 53.7211 469.474V466.688C53.7211 465.078 52.8251 464.084 51.1591 464.084C49.6471 464.084 48.6391 464.938 48.2331 465.638L49.0591 466.492C49.4091 465.75 50.0531 465.19 51.0191 465.19C52.0831 465.19 52.4611 465.778 52.5031 466.576L50.0531 467.668C49.0871 468.102 48.4011 468.676 48.4011 469.586C48.4011 470.482 49.0451 471.14 50.1931 471.14ZM49.6331 469.39C49.6331 468.97 49.9271 468.69 50.5711 468.382L52.5451 467.458V468.396C52.5451 469.376 51.7331 470.132 50.5851 470.132C49.9551 470.132 49.6331 469.852 49.6331 469.39ZM57.1615 471V467.164C57.1615 466.03 57.6375 465.12 58.9395 465.12C60.0875 465.12 60.4375 465.736 60.4375 466.618V471H61.6415V466.324C61.6415 464.882 60.8155 464.084 59.4855 464.084C58.1555 464.084 57.4275 464.98 57.1615 466.03V464.224H55.9435V471H57.1615ZM65.8763 471.14C67.1923 471.14 68.3403 470.538 68.3403 469.194C68.3403 468.256 67.8363 467.626 66.3103 467.262L65.4423 467.038C64.5183 466.814 64.0703 466.604 64.0703 466.002C64.0703 465.428 64.5743 465.12 65.2743 465.12C66.2403 465.12 66.8843 465.624 67.2203 466.422L68.1443 465.736C67.7663 464.84 66.7723 464.084 65.3443 464.084C63.8743 464.084 62.9223 464.84 62.9223 466.072C62.9223 467.318 63.9723 467.78 64.9383 468.004L65.8343 468.214C66.6323 468.396 67.2483 468.592 67.2483 469.208C67.2483 469.81 66.7163 470.118 65.9183 470.118C64.5743 470.118 63.8323 469.348 63.5943 468.578L62.7123 469.264C63.1743 470.524 64.4623 471.14 65.8763 471.14ZM71.3517 471V465.176H73.5357V464.224H71.3517V463.496C71.3517 462.852 71.6317 462.488 72.2617 462.488C72.8637 462.488 73.2977 462.852 73.5637 463.342L74.2357 462.474C73.9557 462.04 73.3117 461.48 72.2757 461.48C71.0017 461.48 70.1337 462.236 70.1337 463.594V464.224H69.0277V465.176H70.1337V471H71.3517ZM77.1166 471.14C78.9926 471.14 80.3226 469.754 80.3226 467.612C80.3226 465.47 78.9926 464.084 77.1166 464.084C75.2406 464.084 73.9246 465.47 73.9246 467.612C73.9246 469.754 75.2406 471.14 77.1166 471.14ZM77.1166 470.118C75.9686 470.118 75.1706 469.32 75.1706 467.612C75.1706 465.89 75.9686 465.106 77.1166 465.106C78.2786 465.106 79.0906 465.89 79.0906 467.612C79.0906 469.32 78.2786 470.118 77.1166 470.118ZM83.0697 471V467.164C83.0697 466.002 83.8537 464.98 84.7217 464.98C85.2117 464.98 85.4217 465.316 85.4217 465.708C85.4217 466.086 85.2397 466.506 85.0157 466.702H86.3457C86.4577 466.534 86.6117 466.114 86.6117 465.54C86.6117 464.588 85.9117 464.07 85.1837 464.07C84.0357 464.07 83.3357 464.98 83.0697 466.03V464.224H81.8517V471H83.0697ZM88.894 471V467.164C88.894 466.03 89.37 465.12 90.392 465.12C91.414 465.12 91.876 465.61 91.876 466.604V471H93.094V467.164C93.094 466.03 93.57 465.12 94.606 465.12C95.614 465.12 96.09 465.61 96.09 466.604V471H97.294V466.31C97.294 464.882 96.608 464.084 95.278 464.084C94.046 464.084 93.346 464.994 93.08 466.072C93.01 464.798 92.324 464.084 91.078 464.084C89.86 464.084 89.16 464.98 88.894 466.016V464.224H87.676V471H88.894ZM100.422 471V469.18H98.9516V471H100.422Z" fill="white"/>
</g>
<defs>
<clipPath id="clip0_5851_86372">
<path d="M0 0H268C273.523 0 278 4.47715 278 10V657H60C26.8629 657 0 630.137 0 597V0Z" fill="white"/>
</clipPath>
</defs>
</svg>
