<svg width="66" height="65" viewBox="0 0 66 65" fill="none" xmlns="http://www.w3.org/2000/svg">
<rect x="0.515625" width="65" height="65" rx="5.99706" fill="white"/>
<path d="M27.2492 45.0971C26.6758 45.0971 26.1851 44.8561 25.7771 44.374C25.3684 43.8912 25.1641 43.3111 25.1641 42.6336V30.3162C25.1641 29.6387 25.3684 29.0585 25.7771 28.5757C26.1851 28.0937 26.6758 27.8527 27.2492 27.8527H28.2918V25.3892C28.2918 23.6853 28.8003 22.2326 29.8172 21.0313C30.8333 19.8307 32.0626 19.2305 33.5048 19.2305C34.9471 19.2305 36.1766 19.8307 37.1935 21.0313C38.2097 22.2326 38.7178 23.6853 38.7178 25.3892V27.8527H39.7604C40.3338 27.8527 40.8248 28.0937 41.2335 28.5757C41.6415 29.0585 41.8455 29.6387 41.8455 30.3162V42.6336C41.8455 43.3111 41.6415 43.8912 41.2335 44.374C40.8248 44.8561 40.3338 45.0971 39.7604 45.0971H27.2492ZM33.5048 38.9384C34.0782 38.9384 34.5693 38.6974 34.978 38.2153C35.386 37.7325 35.59 37.1523 35.59 36.4749C35.59 35.7974 35.386 35.2173 34.978 34.7344C34.5693 34.2524 34.0782 34.0114 33.5048 34.0114C32.9314 34.0114 32.4407 34.2524 32.0327 34.7344C31.624 35.2173 31.4196 35.7974 31.4196 36.4749C31.4196 37.1523 31.624 37.7325 32.0327 38.2153C32.4407 38.6974 32.9314 38.9384 33.5048 38.9384ZM30.377 27.8527H36.6326V25.3892C36.6326 24.3627 36.3285 23.4902 35.7203 22.7717C35.1121 22.0532 34.3736 21.694 33.5048 21.694C32.636 21.694 31.8975 22.0532 31.2893 22.7717C30.6811 23.4902 30.377 24.3627 30.377 25.3892V27.8527Z" fill="#FBBF24"/>
</svg>
