<svg width="63" height="57" viewBox="0 0 63 57" fill="none" xmlns="http://www.w3.org/2000/svg">
<rect width="62.3805" height="56.8681" rx="5.51239" fill="white"/>
<path d="M25.7448 40.2237C25.2177 40.2237 24.7667 40.0021 24.3916 39.5591C24.016 39.1152 23.8281 38.582 23.8281 37.9593V26.6373C23.8281 26.0146 24.016 25.4813 24.3916 25.0375C24.7667 24.5944 25.2177 24.3729 25.7448 24.3729H26.7031V22.1085C26.7031 20.5423 27.1705 19.2071 28.1052 18.1028C29.0392 16.9993 30.1691 16.4475 31.4948 16.4475C32.8205 16.4475 33.9507 16.9993 34.8854 18.1028C35.8194 19.2071 36.2865 20.5423 36.2865 22.1085V24.3729H37.2448C37.7719 24.3729 38.2232 24.5944 38.5989 25.0375C38.9739 25.4813 39.1615 26.0146 39.1615 26.6373V37.9593C39.1615 38.582 38.9739 39.1152 38.5989 39.5591C38.2232 40.0021 37.7719 40.2237 37.2448 40.2237H25.7448ZM31.4948 34.5627C32.0219 34.5627 32.4732 34.3411 32.8489 33.8981C33.2239 33.4542 33.4115 32.921 33.4115 32.2983C33.4115 31.6756 33.2239 31.1423 32.8489 30.6985C32.4732 30.2554 32.0219 30.0339 31.4948 30.0339C30.9677 30.0339 30.5167 30.2554 30.1416 30.6985C29.766 31.1423 29.5781 31.6756 29.5781 32.2983C29.5781 32.921 29.766 33.4542 30.1416 33.8981C30.5167 34.3411 30.9677 34.5627 31.4948 34.5627ZM28.6198 24.3729H34.3698V22.1085C34.3698 21.165 34.0903 20.363 33.5312 19.7026C32.9722 19.0421 32.2934 18.7119 31.4948 18.7119C30.6962 18.7119 30.0174 19.0421 29.4583 19.7026C28.8993 20.363 28.6198 21.165 28.6198 22.1085V24.3729Z" fill="#FBBF24"/>
</svg>
