<svg width="66" height="65" viewBox="0 0 66 65" fill="none" xmlns="http://www.w3.org/2000/svg">
<rect x="0.515625" width="65" height="65" rx="5.99706" fill="white"/>
<path d="M36.3404 20.6193C39.0093 21.2124 41.2236 22.5765 42.9831 24.7117C44.7426 26.8469 45.6224 29.3478 45.6224 32.2144C45.6224 34.0135 45.2614 35.6741 44.5394 37.1964C43.8182 38.7187 42.8348 40.0235 41.5893 41.1109H43.25C43.5861 41.1109 43.8676 41.2248 44.0946 41.4525C44.3223 41.6795 44.4362 41.961 44.4362 42.2971C44.4362 42.6332 44.3223 42.9147 44.0946 43.1417C43.8676 43.3694 43.5861 43.4833 43.25 43.4833H38.5052C38.1691 43.4833 37.8876 43.3694 37.6606 43.1417C37.4329 42.9147 37.319 42.6332 37.319 42.2971V37.5523C37.319 37.2162 37.4329 36.9343 37.6606 36.7065C37.8876 36.4796 38.1691 36.3661 38.5052 36.3661C38.8413 36.3661 39.1228 36.4796 39.3498 36.7065C39.5775 36.9343 39.6914 37.2162 39.6914 37.5523V39.5985C40.7788 38.7088 41.6439 37.6314 42.2868 36.3661C42.9289 35.1008 43.25 33.7169 43.25 32.2144C43.25 29.9409 42.5533 27.9587 41.1599 26.268C39.7658 24.5781 38.011 23.486 35.8956 22.9917C35.6188 22.9324 35.3914 22.794 35.2135 22.5765C35.0356 22.3591 34.9466 22.1119 34.9466 21.8352C34.9466 21.4398 35.085 21.1136 35.3618 20.8566C35.6386 20.5995 35.9648 20.5205 36.3404 20.6193ZM31.1804 43.8095C28.5115 43.2164 26.2973 41.8523 24.5377 39.7171C22.7782 37.582 21.8984 35.081 21.8984 32.2144C21.8984 30.4153 22.2594 28.7547 22.9814 27.2324C23.7026 25.7101 24.686 24.4053 25.9315 23.3179H24.2708C23.9347 23.3179 23.6532 23.204 23.4263 22.9763C23.1985 22.7493 23.0846 22.4678 23.0846 22.1317C23.0846 21.7956 23.1985 21.5137 23.4263 21.286C23.6532 21.059 23.9347 20.9455 24.2708 20.9455H29.0156C29.3517 20.9455 29.6336 21.059 29.8614 21.286C30.0883 21.5137 30.2018 21.7956 30.2018 22.1317V26.8765C30.2018 27.2126 30.0883 27.4945 29.8614 27.7223C29.6336 27.9492 29.3517 28.0627 29.0156 28.0627C28.6795 28.0627 28.3976 27.9492 28.1699 27.7223C27.9429 27.4945 27.8294 27.2126 27.8294 26.8765V24.8303C26.7421 25.7002 25.8769 26.7729 25.234 28.0485C24.5919 29.3232 24.2708 30.7119 24.2708 32.2144C24.2708 34.4879 24.9679 36.4697 26.3621 38.1596C27.7555 39.8504 29.5099 40.9428 31.6253 41.4371C31.902 41.4964 32.1294 41.6348 32.3073 41.8523C32.4853 42.0697 32.5742 42.3169 32.5742 42.5936C32.5742 42.989 32.4358 43.3152 32.1591 43.5723C31.8823 43.8293 31.5561 43.9083 31.1804 43.8095ZM32.0701 37.1668C31.9119 37.1668 31.7637 37.1423 31.6253 37.0932C31.4869 37.0434 31.3584 36.9592 31.2398 36.8406L27.8887 33.4599C27.6713 33.2424 27.5578 32.9704 27.5483 32.6438C27.538 32.318 27.6515 32.0365 27.8887 31.7992C28.1062 31.5818 28.383 31.473 28.7191 31.473C29.0552 31.473 29.3319 31.5818 29.5494 31.7992L32.0701 34.3199L37.9714 28.4186C38.2087 28.1813 38.4854 28.0675 38.8018 28.0769C39.1181 28.0872 39.3949 28.211 39.6321 28.4482C39.8496 28.6855 39.9635 28.9622 39.9737 29.2786C39.9832 29.5949 39.8693 29.8717 39.6321 30.1089L32.9004 36.8406C32.7818 36.9592 32.6533 37.0434 32.5149 37.0932C32.3765 37.1423 32.2282 37.1668 32.0701 37.1668Z" fill="#FDB600"/>
</svg>
