<svg width="171" height="137" viewBox="0 0 171 137" fill="none" xmlns="http://www.w3.org/2000/svg">
<g filter="url(#filter0_f_4772_8249)">
<ellipse cx="85.3222" cy="68.4603" rx="29.3222" ry="11.8685" fill="#EAB308"/>
<path d="M85.8409 63.3008L74.1406 65.2226V68.1052C74.1406 70.7717 79.1327 73.2652 85.8409 73.8706C92.5491 73.2652 97.5412 70.7717 97.5412 68.1052V65.2226L85.8409 63.3008ZM85.8409 68.5809H94.9411C94.2521 70.5603 90.677 72.3236 85.8409 72.8761V68.5857H76.7407V65.8471L85.8409 64.353V68.5809Z" fill="white"/>
</g>
<circle cx="81" cy="38" r="25" fill="#EAB308"/>
<path d="M82.7271 29.1547C84.9059 29.6389 86.7135 30.7525 88.1498 32.4955C89.5862 34.2385 90.3044 36.2801 90.3044 38.6203C90.3044 40.0889 90.0097 41.4446 89.4203 42.6873C88.8316 43.9301 88.0288 44.9952 87.012 45.8829H88.3677C88.6421 45.8829 88.8719 45.9758 89.0572 46.1618C89.2431 46.347 89.3361 46.5769 89.3361 46.8512C89.3361 47.1256 89.2431 47.3554 89.0572 47.5407C88.8719 47.7266 88.6421 47.8196 88.3677 47.8196H84.4943C84.22 47.8196 83.9901 47.7266 83.8049 47.5407C83.619 47.3554 83.526 47.1256 83.526 46.8512V42.9778C83.526 42.7035 83.619 42.4733 83.8049 42.2874C83.9901 42.1021 84.22 42.0095 84.4943 42.0095C84.7687 42.0095 84.9985 42.1021 85.1838 42.2874C85.3697 42.4733 85.4627 42.7035 85.4627 42.9778V44.6482C86.3503 43.922 87.0566 43.0424 87.5814 42.0095C88.1056 40.9766 88.3677 39.8469 88.3677 38.6203C88.3677 36.7643 87.799 35.1462 86.6615 33.766C85.5234 32.3864 84.0909 31.4949 82.364 31.0914C82.138 31.043 81.9524 30.93 81.8072 30.7525C81.6619 30.575 81.5893 30.3732 81.5893 30.1473C81.5893 29.8245 81.7023 29.5582 81.9282 29.3484C82.1542 29.1386 82.4205 29.074 82.7271 29.1547ZM78.5148 48.0859C76.336 47.6017 74.5284 46.4881 73.0921 44.7451C71.6557 43.0021 70.9375 40.9605 70.9375 38.6203C70.9375 37.1516 71.2322 35.796 71.8216 34.5532C72.4104 33.3105 73.2131 32.2454 74.2299 31.3577H72.8742C72.5998 31.3577 72.37 31.2647 72.1847 31.0788C71.9988 30.8935 71.9058 30.6637 71.9058 30.3894C71.9058 30.115 71.9988 29.8848 72.1847 29.6989C72.37 29.5137 72.5998 29.421 72.8742 29.421H76.7476C77.0219 29.421 77.2521 29.5137 77.438 29.6989C77.6233 29.8848 77.7159 30.115 77.7159 30.3894V34.2627C77.7159 34.5371 77.6233 34.7672 77.438 34.9532C77.2521 35.1384 77.0219 35.2311 76.7476 35.2311C76.4732 35.2311 76.2431 35.1384 76.0571 34.9532C75.8719 34.7672 75.7792 34.5371 75.7792 34.2627V32.5923C74.8916 33.3025 74.1853 34.1782 73.6605 35.2195C73.1363 36.2601 72.8742 37.3937 72.8742 38.6203C72.8742 40.4763 73.4433 42.0941 74.5814 43.4736C75.7189 44.8539 77.151 45.7457 78.8779 46.1492C79.1039 46.1976 79.2895 46.3106 79.4347 46.4881C79.58 46.6656 79.6526 46.8674 79.6526 47.0933C79.6526 47.4161 79.5396 47.6824 79.3137 47.8922C79.0877 48.102 78.8214 48.1666 78.5148 48.0859ZM79.2411 42.6631C79.1119 42.6631 78.9909 42.6431 78.8779 42.6031C78.765 42.5624 78.6601 42.4937 78.5632 42.3968L75.8276 39.6371C75.6501 39.4595 75.5575 39.2375 75.5497 38.9708C75.5413 38.7049 75.634 38.475 75.8276 38.2814C76.0052 38.1038 76.2311 38.0151 76.5055 38.0151C76.7799 38.0151 77.0058 38.1038 77.1833 38.2814L79.2411 40.3391L84.0586 35.5216C84.2522 35.3279 84.4782 35.235 84.7364 35.2427C84.9946 35.2511 85.2206 35.3521 85.4143 35.5458C85.5918 35.7395 85.6848 35.9654 85.6931 36.2236C85.7009 36.4819 85.6079 36.7078 85.4143 36.9015L79.9189 42.3968C79.8221 42.4937 79.7172 42.5624 79.6042 42.6031C79.4912 42.6431 79.3702 42.6631 79.2411 42.6631Z" fill="white"/>
<defs>
<filter id="filter0_f_4772_8249" x="0.148151" y="0.739948" width="170.348" height="135.441" filterUnits="userSpaceOnUse" color-interpolation-filters="sRGB">
<feFlood flood-opacity="0" result="BackgroundImageFix"/>
<feBlend mode="normal" in="SourceGraphic" in2="BackgroundImageFix" result="shape"/>
<feGaussianBlur stdDeviation="27.9259" result="effect1_foregroundBlur_4772_8249"/>
</filter>
</defs>
</svg>
