<svg width="752" height="313" viewBox="0 0 752 313" fill="none" xmlns="http://www.w3.org/2000/svg">
<g clip-path="url(#clip0_5085_90410)">
<path d="M712.421 1.98096H39.5785C18.8126 1.98096 1.97852 18.8326 1.97852 39.6202V273.38C1.97852 294.167 18.8126 311.019 39.5785 311.019H712.421C733.187 311.019 750.021 294.167 750.021 273.38V39.6202C750.021 18.8326 733.187 1.98096 712.421 1.98096Z" stroke="#8807F7" stroke-width="2"/>
<path d="M209.768 47.5444H94.9893C77.5022 47.5444 63.3262 61.4749 63.3262 78.6591V228.398C63.3262 245.582 77.5022 259.513 94.9893 259.513H209.768C227.255 259.513 241.431 245.582 241.431 228.398V78.6591C241.431 61.4749 227.255 47.5444 209.768 47.5444Z" fill="url(#paint0_linear_5085_90410)"/>
<path d="M158.286 236.442V218.69C157.541 218.858 156.762 218.947 155.961 218.947H147.981C147.18 218.947 146.401 218.858 145.656 218.69V236.442H158.286Z" fill="#FFAE10"/>
<path d="M152.209 236.577V219.203H148.315C147.36 219.203 146.433 219.114 145.545 218.948V236.577H152.209Z" fill="#EE9513"/>
<path d="M152.059 210.116C147.254 210.116 142.652 209.225 138.404 207.601V209.382C138.404 214.774 142.743 219.146 148.095 219.146H156.023C161.375 219.146 165.713 214.774 165.713 209.382V207.601C161.466 209.225 156.864 210.116 152.059 210.116Z" fill="#FFD00D"/>
<path d="M166.044 243.841V237.7C166.044 236.707 165.232 235.895 164.24 235.895H139.703C138.71 235.895 137.898 236.707 137.898 237.7V243.841H166.044Z" fill="#EE8317"/>
<path d="M148.724 243.841V237.7C148.724 236.707 149.536 235.895 150.528 235.895H139.703C138.71 235.895 137.898 236.707 137.898 237.7V243.841H148.724Z" fill="#DB712C"/>
<path d="M186.07 260.25V244.225C186.07 243.688 185.259 243.249 184.266 243.249H119.675C118.683 243.249 117.871 243.688 117.871 244.225V260.25H186.07Z" fill="#9F5F33"/>
<path d="M123.464 260.25V244.225C123.464 243.688 124.276 243.249 125.268 243.249H119.675C118.683 243.249 117.871 243.688 117.871 244.225V260.25H123.464Z" fill="#86502A"/>
<path d="M212.683 116.242H198.7V119.28C198.7 120.077 198.053 120.725 197.256 120.725H191.201C191.001 120.725 190.84 120.887 190.84 121.086V125.273H209.756C208.982 141.095 201.836 155.269 190.84 165.271V171.037C190.84 173.135 190.67 175.194 190.35 177.203C207.569 165.079 218.845 145.04 218.845 122.411C218.845 119.009 216.081 116.242 212.683 116.242Z" fill="#FFAE10"/>
<path d="M113.101 171.125V165.359C102.104 155.357 94.957 141.184 94.1848 125.361H113.101V121.174C113.101 120.975 112.939 120.813 112.74 120.813H106.684C105.888 120.813 105.24 120.165 105.24 119.368V116.331H91.2558C87.8581 116.331 85.0938 119.098 85.0938 122.499C85.0938 145.128 96.3702 165.168 113.59 177.291C113.269 175.282 113.101 173.223 113.101 171.125Z" fill="#FFD00D"/>
<path d="M112.74 120.997V171.309C112.74 192.998 130.304 210.58 151.97 210.58C173.636 210.58 191.201 192.998 191.201 171.309V120.997H112.74Z" fill="#EE8317"/>
<path d="M120.577 171.309V120.637H112.74V171.309C112.74 192.998 130.304 210.58 151.97 210.58C153.284 210.58 154.581 210.51 155.861 210.384C136.048 208.403 120.577 191.664 120.577 171.309Z" fill="#DB712C"/>
<path d="M151.97 136.66C166.717 136.66 178.672 148.628 178.672 163.39C178.672 178.153 166.717 190.121 151.97 190.121C137.223 190.121 125.268 178.153 125.268 163.39C125.268 148.628 137.223 136.66 151.97 136.66Z" fill="#DB712C"/>
<path d="M132.124 163.39C132.124 149.791 142.271 138.572 155.398 136.887C154.275 136.743 153.133 136.66 151.97 136.66C137.223 136.66 125.268 148.628 125.268 163.39C125.268 178.153 137.223 190.121 151.97 190.121C153.133 190.121 154.275 190.038 155.398 189.894C142.271 188.209 132.124 176.99 132.124 163.39Z" fill="#C85E22"/>
<path d="M199.06 119.392C199.06 120.385 198.249 121.198 197.257 121.198H106.685C105.693 121.198 104.881 120.385 104.881 119.392V108.916C104.881 107.923 105.693 107.11 106.685 107.11H197.257C198.249 107.11 199.06 107.923 199.06 108.916V119.392Z" fill="#FFD00D"/>
<path d="M115.887 119.256V108.781C115.887 107.787 116.699 106.975 117.691 106.975H106.685C105.693 106.975 104.881 107.787 104.881 108.781V119.256C104.881 120.249 105.693 121.062 106.685 121.062H117.691C116.699 121.062 115.887 120.249 115.887 119.256Z" fill="#FFAE10"/>
<g filter="url(#filter0_d_5085_90410)">
<path d="M149.398 153.511C149.404 155.531 149.404 157.551 149.409 159.571C149.415 161.313 148.825 163.009 147.157 163.898C145.204 164.931 142.436 164.671 140.259 164.453C140.176 164.448 140.099 164.437 140.022 164.432C140.094 162.977 140.066 161.509 139.995 160.06C139.902 158.096 141.133 155.754 143.311 155.422C145.679 155.061 147.736 154.817 148.853 153.553C148.891 153.516 148.924 153.479 148.957 153.437C149.121 153.222 149.297 153.012 149.472 152.802C149.418 153.03 149.398 153.272 149.398 153.511Z" fill="#FFD00D"/>
<path d="M142.244 177.609C143.874 177.71 145.514 177.686 147.146 177.713C149.05 177.744 150.997 177.973 152.835 177.649C155.471 177.184 158.436 175.52 159.416 173.054C160.324 170.771 159.896 168.045 158.332 166.128C158.222 165.995 158.107 165.868 157.981 165.741C156.401 164.068 153.949 163.195 151.62 163.495C148.72 163.866 146.167 166.072 145.415 168.804C144.946 170.508 145.355 172.324 145.08 174.06C144.856 175.499 143.588 176.972 142.244 177.609Z" fill="#FFD00D"/>
<path d="M158.538 146.999C158.393 147.426 158.568 147.891 158.757 148.302C161.174 153.521 167.656 157.051 167.434 163.319C167.332 166.154 165.87 169.485 163.426 171.166C163.248 171.288 163.086 171.397 162.877 171.452C162.411 170.608 162.362 169.371 161.964 168.439C161.467 167.271 160.809 166.122 159.89 165.217C159.01 164.351 157.907 163.852 157.026 163.003C155.178 161.216 154.012 158.766 153.858 156.239C153.633 152.634 155.496 149.059 158.538 146.999Z" fill="#FFD00D"/>
<path d="M141.712 159.585C141.712 159.585 141.627 158.011 143.292 158.09C143.294 158.09 143.901 159.811 141.712 159.585Z" fill="white"/>
<path d="M141.164 172.901C142.688 172.901 143.923 171.706 143.923 170.23C143.923 168.756 142.688 167.56 141.164 167.56C139.64 167.56 138.404 168.756 138.404 170.23C138.404 171.706 139.64 172.901 141.164 172.901Z" fill="#FFD00D"/>
</g>
<path d="M108.08 73.2639C108.031 72.8853 108.228 72.5173 108.571 72.3499C113.364 70.0069 114.467 68.5756 115.509 63.3392C115.584 62.9646 115.889 62.6796 116.267 62.6304C116.645 62.5815 117.012 62.7792 117.179 63.1221C119.52 67.9201 120.95 69.0238 126.181 70.0675C126.555 70.1424 126.84 70.4471 126.889 70.8259C126.938 71.2045 126.74 71.5723 126.398 71.7395C121.605 74.0827 120.502 75.5141 119.459 80.7506C119.385 81.125 119.08 81.4102 118.702 81.4594C118.324 81.5083 117.956 81.3104 117.789 80.9671C115.449 76.1691 114.018 75.0658 108.787 74.0218C108.413 73.9478 108.129 73.6427 108.08 73.2639Z" fill="#F0EEF2"/>
<path d="M184.56 84.2778C184.539 84.1169 184.623 83.9604 184.769 83.8893C186.806 82.8935 187.274 82.2853 187.717 80.0596C187.749 79.9006 187.879 79.7793 188.04 79.7585C188.2 79.7377 188.356 79.8217 188.427 79.9675C189.422 82.0066 190.03 82.4757 192.253 82.9194C192.412 82.9511 192.533 83.0807 192.554 83.2415C192.575 83.4026 192.491 83.5589 192.345 83.63C190.308 84.6259 189.839 85.2342 189.396 87.4597C189.365 87.6188 189.235 87.7402 189.075 87.761C188.914 87.7818 188.758 87.6976 188.686 87.5518C187.692 85.5126 187.084 85.0436 184.861 84.5999C184.702 84.5684 184.581 84.4389 184.56 84.2778Z" fill="#F0EEF2"/>
<path d="M75.4742 204.227C75.4251 203.846 75.6232 203.476 75.9672 203.309C80.7788 200.956 81.8856 199.52 82.9323 194.263C83.0071 193.887 83.3132 193.601 83.693 193.552C84.0727 193.503 84.4412 193.701 84.609 194.046C86.9582 198.862 88.3946 199.969 93.6455 201.017C94.0209 201.093 94.3065 201.398 94.3555 201.778C94.4048 202.158 94.2065 202.529 93.8626 202.695C89.0512 205.049 87.9441 206.485 86.8977 211.743C86.8227 212.117 86.5171 212.404 86.1374 212.454C85.7576 212.501 85.3887 212.303 85.2207 211.958C82.8715 207.143 81.4356 206.035 76.1843 204.987C75.809 204.912 75.5235 204.607 75.4742 204.227Z" fill="#FFD00D"/>
<path d="M197.432 209.825C197.366 209.32 197.63 208.827 198.088 208.603C204.498 205.471 205.973 203.557 207.366 196.555C207.465 196.054 207.872 195.673 208.379 195.608C208.886 195.542 209.376 195.806 209.6 196.265C212.729 202.68 214.64 204.155 221.636 205.552C222.135 205.651 222.517 206.059 222.582 206.566C222.647 207.072 222.382 207.563 221.925 207.787C215.517 210.921 214.041 212.834 212.648 219.835C212.547 220.336 212.141 220.719 211.634 220.784C211.13 220.849 210.637 220.584 210.413 220.124C207.285 213.71 205.373 212.234 198.377 210.839C197.878 210.74 197.497 210.332 197.432 209.825Z" fill="white"/>
<path d="M286.801 98.1471C287.005 98.1656 287.272 98.1842 287.605 98.2026C287.937 98.2026 288.391 98.2026 288.962 98.2026C291.307 98.2026 293.053 97.6109 294.199 96.4276C295.362 95.2257 295.944 93.5526 295.944 91.4077C295.944 89.226 295.38 87.5527 294.254 86.3878C293.128 85.223 291.383 84.6406 289.018 84.6406C287.983 84.6406 287.245 84.6683 286.801 84.7238V98.1471ZM299.601 91.4077C299.601 93.0718 299.342 94.5233 298.825 95.762C298.309 96.9823 297.569 98.0085 296.609 98.8405C295.667 99.6541 294.521 100.264 293.174 100.671C291.844 101.059 290.366 101.253 288.741 101.253C287.965 101.253 287.088 101.216 286.109 101.142C285.129 101.087 284.197 100.958 283.311 100.754V82.089C284.197 81.8856 285.139 81.7562 286.136 81.7008C287.134 81.6453 288.02 81.6176 288.796 81.6176C290.403 81.6176 291.871 81.8117 293.201 82.2C294.531 82.5698 295.667 83.1614 296.609 83.975C297.569 84.7699 298.309 85.787 298.825 87.0257C299.342 88.246 299.601 89.7066 299.601 91.4077ZM302.443 93.8483C302.443 92.5726 302.629 91.4539 302.997 90.4925C303.385 89.5311 303.894 88.7359 304.521 88.1074C305.15 87.4602 305.871 86.9796 306.682 86.6652C307.495 86.3324 308.326 86.166 309.175 86.166C311.17 86.166 312.722 86.7854 313.83 88.0242C314.958 89.2629 315.52 91.112 315.52 93.571C315.52 93.7558 315.512 93.9686 315.492 94.2089C315.492 94.4307 315.484 94.6342 315.464 94.819H305.906C305.999 95.9839 306.405 96.8898 307.125 97.537C307.865 98.1656 308.926 98.4799 310.311 98.4799C311.125 98.4799 311.863 98.406 312.528 98.2581C313.212 98.1101 313.747 97.953 314.135 97.7866L314.578 100.532C314.394 100.625 314.135 100.726 313.802 100.837C313.49 100.93 313.119 101.013 312.694 101.087C312.288 101.179 311.845 101.253 311.364 101.309C310.885 101.364 310.394 101.392 309.896 101.392C308.621 101.392 307.513 101.207 306.571 100.837C305.629 100.449 304.853 99.9221 304.244 99.2565C303.634 98.5725 303.183 97.7773 302.886 96.8714C302.591 95.9468 302.443 94.9393 302.443 93.8483ZM312.168 92.3507C312.168 91.8885 312.104 91.4539 311.974 91.0472C311.845 90.6219 311.651 90.2613 311.392 89.9655C311.152 89.6512 310.848 89.4109 310.478 89.2445C310.127 89.0596 309.702 88.9671 309.203 88.9671C308.687 88.9671 308.233 89.0687 307.846 89.2722C307.458 89.457 307.125 89.7066 306.848 90.021C306.591 90.3354 306.387 90.6959 306.239 91.1026C306.092 91.5093 305.989 91.9254 305.934 92.3507H312.168ZM324.116 101.309C323.119 101.29 322.288 101.179 321.623 100.976C320.978 100.773 320.459 100.486 320.071 100.116C319.684 99.728 319.407 99.2565 319.24 98.7018C319.094 98.1287 319.019 97.4815 319.019 96.7604V80.0644L322.371 79.5098V96.1225C322.371 96.5292 322.399 96.8714 322.454 97.1487C322.529 97.426 322.648 97.6663 322.814 97.8698C322.981 98.0546 323.202 98.2026 323.479 98.3135C323.776 98.406 324.144 98.4799 324.587 98.5354L324.116 101.309ZM330.681 101.031H327.328V86.5265H330.681V101.031ZM331.041 82.2832C331.041 82.9118 330.837 83.411 330.431 83.7808C330.024 84.1507 329.545 84.3355 328.991 84.3355C328.417 84.3355 327.928 84.1507 327.522 83.7808C327.115 83.411 326.913 82.9118 326.913 82.2832C326.913 81.636 327.115 81.1277 327.522 80.7578C327.928 80.3879 328.417 80.2031 328.991 80.2031C329.545 80.2031 330.024 80.3879 330.431 80.7578C330.837 81.1277 331.041 81.636 331.041 82.2832ZM337.589 93.4046C337.589 94.8283 337.894 95.8729 338.503 96.5385C339.131 97.1857 339.934 97.5092 340.914 97.5092C341.448 97.5092 341.947 97.4354 342.41 97.2874C342.889 97.1394 343.277 96.9639 343.573 96.7604V89.2445C343.332 89.189 343.037 89.1428 342.687 89.1058C342.335 89.0503 341.891 89.0226 341.357 89.0226C340.138 89.0226 339.204 89.4293 338.559 90.2429C337.912 91.0379 337.589 92.0918 337.589 93.4046ZM346.926 99.5616C346.926 101.873 346.334 103.565 345.153 104.637C343.989 105.709 342.196 106.246 339.778 106.246C338.891 106.246 338.023 106.172 337.174 106.024C336.342 105.876 335.584 105.682 334.902 105.441L335.511 102.585C336.083 102.825 336.73 103.019 337.451 103.167C338.189 103.315 338.982 103.389 339.833 103.389C341.181 103.389 342.141 103.112 342.715 102.557C343.286 102.002 343.573 101.179 343.573 100.089V99.5338C343.241 99.7002 342.798 99.8666 342.244 100.033C341.707 100.199 341.088 100.283 340.387 100.283C339.463 100.283 338.614 100.135 337.838 99.8389C337.081 99.5431 336.425 99.1085 335.871 98.5354C335.335 97.9623 334.91 97.2503 334.597 96.3999C334.3 95.5308 334.154 94.5324 334.154 93.4046C334.154 92.3507 334.31 91.38 334.625 90.4925C334.957 89.605 335.428 88.8469 336.038 88.2183C336.665 87.5897 337.423 87.0996 338.309 86.7484C339.196 86.3972 340.201 86.2214 341.329 86.2214C342.418 86.2214 343.453 86.3046 344.432 86.471C345.41 86.6374 346.241 86.8132 346.926 86.998V99.5616ZM350.387 93.8483C350.387 92.5726 350.571 91.4539 350.941 90.4925C351.329 89.5311 351.836 88.7359 352.465 88.1074C353.092 87.4602 353.813 86.9796 354.626 86.6652C355.437 86.3324 356.268 86.166 357.119 86.166C359.114 86.166 360.666 86.7854 361.774 88.0242C362.9 89.2629 363.464 91.112 363.464 93.571C363.464 93.7558 363.454 93.9686 363.436 94.2089C363.436 94.4307 363.426 94.6342 363.408 94.819H353.85C353.941 95.9839 354.349 96.8898 355.069 97.537C355.807 98.1656 356.87 98.4799 358.255 98.4799C359.067 98.4799 359.807 98.406 360.472 98.2581C361.154 98.1101 361.691 97.953 362.079 97.7866L362.522 100.532C362.336 100.625 362.079 100.726 361.746 100.837C361.431 100.93 361.061 101.013 360.638 101.087C360.23 101.179 359.787 101.253 359.308 101.309C358.827 101.364 358.338 101.392 357.84 101.392C356.565 101.392 355.457 101.207 354.515 100.837C353.573 100.449 352.797 99.9221 352.188 99.2565C351.578 98.5725 351.125 97.7773 350.83 96.8714C350.533 95.9468 350.387 94.9393 350.387 93.8483ZM360.112 92.3507C360.112 91.8885 360.046 91.4539 359.918 91.0472C359.787 90.6219 359.593 90.2613 359.336 89.9655C359.094 89.6512 358.79 89.4109 358.422 89.2445C358.069 89.0596 357.646 88.9671 357.147 88.9671C356.629 88.9671 356.177 89.0687 355.789 89.2722C355.402 89.457 355.069 89.7066 354.792 90.021C354.533 90.3354 354.329 90.6959 354.183 91.1026C354.034 91.5093 353.933 91.9254 353.878 92.3507H360.112ZM367.018 86.998C367.663 86.8132 368.504 86.6374 369.539 86.471C370.572 86.3046 371.718 86.2214 372.975 86.2214C374.156 86.2214 375.144 86.3878 375.939 86.7207C376.733 87.035 377.36 87.4879 377.823 88.0796C378.302 88.6527 378.634 89.3554 378.82 90.1874C379.022 91.001 379.125 91.8976 379.125 92.8776V101.031H375.773V93.4046C375.773 92.628 375.717 91.9717 375.607 91.4355C375.514 90.8808 375.347 90.437 375.108 90.1042C374.886 89.753 374.572 89.5034 374.166 89.3554C373.778 89.189 373.297 89.1058 372.725 89.1058C372.3 89.1058 371.857 89.1335 371.395 89.189C370.932 89.2445 370.592 89.2906 370.37 89.3277V101.031H367.018V86.998ZM383.057 82.6992L386.41 82.1445V86.5265H391.563V89.3277H386.41V95.235C386.41 96.3999 386.596 97.2319 386.964 97.7311C387.334 98.2303 387.961 98.4799 388.848 98.4799C389.457 98.4799 389.994 98.4152 390.455 98.2858C390.936 98.1564 391.314 98.0362 391.591 97.9253L392.145 100.588C391.757 100.754 391.25 100.921 390.621 101.087C389.994 101.272 389.255 101.364 388.405 101.364C387.372 101.364 386.503 101.226 385.8 100.948C385.117 100.671 384.573 100.273 384.166 99.7557C383.76 99.2194 383.473 98.5816 383.307 97.8421C383.141 97.0839 383.057 96.2242 383.057 95.2628V82.6992ZM406.09 98.4245C407.347 98.4245 408.261 98.2119 408.833 97.7866C409.407 97.3613 409.692 96.7604 409.692 95.9839C409.692 95.5217 409.591 95.1241 409.387 94.7913C409.203 94.4585 408.926 94.1627 408.556 93.9038C408.206 93.6265 407.772 93.3768 407.254 93.155C406.737 92.9147 406.146 92.6835 405.481 92.4616C404.816 92.2213 404.171 91.9624 403.542 91.6851C402.932 91.3893 402.388 91.0288 401.907 90.6034C401.446 90.1781 401.068 89.6698 400.771 89.0781C400.494 88.4863 400.355 87.7745 400.355 86.9425C400.355 85.2046 400.957 83.8456 402.156 82.8656C403.357 81.8672 404.992 81.368 407.06 81.368C408.261 81.368 409.324 81.5066 410.246 81.784C411.188 82.0429 411.928 82.3293 412.463 82.6437L411.382 85.4726C410.755 85.1214 410.062 84.8532 409.304 84.6683C408.566 84.4835 407.8 84.391 407.005 84.391C406.063 84.391 405.325 84.5851 404.788 84.9734C404.272 85.3617 404.012 85.907 404.012 86.6097C404.012 87.035 404.096 87.4047 404.262 87.7191C404.448 88.0148 404.697 88.2831 405.01 88.5234C405.342 88.7637 405.722 88.9855 406.146 89.189C406.589 89.3924 407.07 89.5866 407.586 89.7714C408.493 90.1042 409.296 90.4463 409.997 90.7976C410.717 91.1304 411.319 91.5371 411.798 92.0179C412.296 92.48 412.676 93.0347 412.934 93.6819C413.193 94.3105 413.321 95.0779 413.321 95.9839C413.321 97.7218 412.704 99.0717 411.465 100.033C410.246 100.976 408.455 101.447 406.09 101.447C405.297 101.447 404.567 101.392 403.902 101.281C403.257 101.189 402.675 101.069 402.156 100.921C401.658 100.773 401.224 100.625 400.854 100.477C400.486 100.31 400.189 100.162 399.968 100.033L400.993 97.1764C401.491 97.4538 402.166 97.7311 403.015 98.0085C403.866 98.2858 404.891 98.4245 406.09 98.4245ZM421.33 98.6741C422.365 98.6741 423.149 98.6186 423.685 98.5077V94.7913C423.501 94.7358 423.232 94.6804 422.882 94.6249C422.531 94.5694 422.144 94.5417 421.718 94.5417C421.348 94.5417 420.97 94.5694 420.582 94.6249C420.212 94.6804 419.872 94.782 419.557 94.93C419.262 95.0779 419.021 95.2905 418.837 95.5679C418.653 95.8268 418.56 96.1596 418.56 96.5663C418.56 97.3613 418.809 97.9159 419.308 98.2303C419.806 98.5261 420.481 98.6741 421.33 98.6741ZM421.053 86.166C422.161 86.166 423.093 86.3046 423.851 86.582C424.609 86.8593 425.209 87.2476 425.652 87.7468C426.113 88.246 426.438 88.8562 426.622 89.5773C426.826 90.2799 426.927 91.0565 426.927 91.9069V100.699C426.41 100.81 425.625 100.939 424.572 101.087C423.537 101.253 422.365 101.337 421.053 101.337C420.184 101.337 419.391 101.253 418.671 101.087C417.95 100.921 417.331 100.653 416.814 100.283C416.316 99.9128 415.918 99.4322 415.623 98.8405C415.346 98.2488 415.207 97.5186 415.207 96.6495C415.207 95.8175 415.364 95.1148 415.678 94.5417C416.011 93.9686 416.454 93.5062 417.008 93.155C417.562 92.7851 418.2 92.5264 418.92 92.3784C419.658 92.212 420.426 92.1288 421.219 92.1288C421.59 92.1288 421.977 92.1565 422.383 92.212C422.789 92.2491 423.224 92.323 423.685 92.4339V91.8792C423.685 91.4909 423.64 91.1211 423.547 90.7698C423.454 90.4186 423.287 90.1135 423.048 89.8546C422.826 89.5773 422.522 89.3647 422.134 89.2167C421.764 89.0687 421.293 88.9949 420.721 88.9949C419.945 88.9949 419.235 89.0503 418.587 89.1613C417.94 89.2722 417.414 89.4015 417.008 89.5495L416.593 86.8316C417.018 86.6836 417.636 86.5358 418.449 86.3878C419.262 86.2399 420.129 86.166 421.053 86.166ZM434.393 101.031C433.469 99.1271 432.517 96.9452 431.54 94.4862C430.578 92.0086 429.701 89.3554 428.908 86.5265H432.482C432.683 87.3401 432.915 88.2183 433.174 89.1613C433.451 90.0858 433.736 91.0194 434.033 91.9624C434.346 92.8869 434.66 93.7929 434.975 94.6804C435.308 95.5494 435.612 96.3351 435.889 97.0378C436.166 96.3351 436.461 95.5494 436.776 94.6804C437.089 93.7929 437.393 92.8869 437.69 91.9624C438.003 91.0194 438.3 90.0858 438.577 89.1613C438.854 88.2183 439.093 87.3401 439.297 86.5265H442.76C441.965 89.3554 441.078 92.0086 440.101 94.4862C439.139 96.9452 438.197 99.1271 437.275 101.031H434.393ZM444.136 93.8483C444.136 92.5726 444.32 91.4539 444.69 90.4925C445.078 89.5311 445.584 88.7359 446.214 88.1074C446.841 87.4602 447.561 86.9796 448.375 86.6652C449.186 86.3324 450.017 86.166 450.868 86.166C452.863 86.166 454.414 86.7854 455.523 88.0242C456.649 89.2629 457.213 91.112 457.213 93.571C457.213 93.7558 457.203 93.9686 457.185 94.2089C457.185 94.4307 457.175 94.6342 457.157 94.819H447.599C447.69 95.9839 448.098 96.8898 448.818 97.537C449.556 98.1656 450.619 98.4799 452.004 98.4799C452.815 98.4799 453.555 98.406 454.22 98.2581C454.903 98.1101 455.439 97.953 455.827 97.7866L456.271 100.532C456.085 100.625 455.827 100.726 455.495 100.837C455.18 100.93 454.81 101.013 454.387 101.087C453.979 101.179 453.536 101.253 453.057 101.309C452.576 101.364 452.087 101.392 451.588 101.392C450.314 101.392 449.206 101.207 448.264 100.837C447.322 100.449 446.546 99.9221 445.936 99.2565C445.327 98.5725 444.874 97.7773 444.579 96.8714C444.282 95.9468 444.136 94.9393 444.136 93.8483ZM453.86 92.3507C453.86 91.8885 453.795 91.4539 453.666 91.0472C453.536 90.6219 453.342 90.2613 453.084 89.9655C452.843 89.6512 452.538 89.4109 452.17 89.2445C451.818 89.0596 451.394 88.9671 450.896 88.9671C450.377 88.9671 449.926 89.0687 449.538 89.2722C449.15 89.457 448.818 89.7066 448.541 90.021C448.282 90.3354 448.078 90.6959 447.931 91.1026C447.783 91.5093 447.682 91.9254 447.627 92.3507H453.86ZM469.023 89.5495C468.746 89.457 468.358 89.3647 467.859 89.2722C467.378 89.1613 466.816 89.1058 466.169 89.1058C465.799 89.1058 465.403 89.1428 464.978 89.2167C464.572 89.2906 464.285 89.3554 464.119 89.4109V101.031H460.767V87.2199C461.414 86.9796 462.217 86.7577 463.177 86.5542C464.157 86.3324 465.237 86.2214 466.419 86.2214C466.64 86.2214 466.899 86.2399 467.194 86.2769C467.489 86.2953 467.786 86.3324 468.081 86.3878C468.376 86.4249 468.663 86.4804 468.94 86.5542C469.217 86.6097 469.438 86.6652 469.605 86.7207L469.023 89.5495Z" fill="white"/>
<path d="M286.61 138.342V132.169C285.59 130.585 284.628 129.024 283.727 127.484C282.825 125.944 281.974 124.435 281.176 122.954H283.704C284.267 124.168 284.894 125.404 285.59 126.662C286.285 127.906 287.002 129.105 287.741 130.26C288.466 129.105 289.175 127.906 289.871 126.662C290.566 125.404 291.202 124.168 291.778 122.954H294.174C293.375 124.435 292.525 125.944 291.623 127.484C290.722 129.009 289.768 130.556 288.762 132.125V138.342H286.61ZM305.173 132.569C305.173 133.487 305.04 134.316 304.774 135.056C304.507 135.796 304.13 136.432 303.642 136.965C303.169 137.498 302.6 137.913 301.934 138.209C301.269 138.49 300.543 138.631 299.761 138.631C298.976 138.631 298.252 138.49 297.587 138.209C296.921 137.913 296.345 137.498 295.857 136.965C295.383 136.432 295.014 135.796 294.748 135.056C294.481 134.316 294.348 133.487 294.348 132.569C294.348 131.666 294.481 130.844 294.748 130.104C295.014 129.349 295.383 128.705 295.857 128.172C296.345 127.639 296.921 127.232 297.587 126.951C298.252 126.655 298.976 126.507 299.761 126.507C300.543 126.507 301.269 126.655 301.934 126.951C302.6 127.232 303.169 127.639 303.642 128.172C304.13 128.705 304.507 129.349 304.774 130.104C305.04 130.844 305.173 131.666 305.173 132.569ZM303.021 132.569C303.021 131.266 302.725 130.237 302.134 129.482C301.557 128.713 300.765 128.328 299.761 128.328C298.754 128.328 297.956 128.713 297.365 129.482C296.788 130.237 296.5 131.266 296.5 132.569C296.5 133.871 296.788 134.908 297.365 135.677C297.956 136.432 298.754 136.81 299.761 136.81C300.765 136.81 301.557 136.432 302.134 135.677C302.725 134.908 303.021 133.871 303.021 132.569ZM317.257 138.009C316.785 138.127 316.156 138.253 315.371 138.386C314.603 138.52 313.708 138.586 312.688 138.586C311.8 138.586 311.054 138.46 310.447 138.209C309.842 137.942 309.354 137.572 308.983 137.099C308.614 136.625 308.348 136.07 308.185 135.433C308.023 134.782 307.941 134.064 307.941 133.279V126.796H310.004V132.835C310.004 134.242 310.225 135.248 310.669 135.855C311.113 136.462 311.86 136.765 312.909 136.765C313.131 136.765 313.361 136.758 313.597 136.743C313.835 136.729 314.056 136.714 314.262 136.699C314.47 136.669 314.655 136.647 314.817 136.632C314.994 136.603 315.121 136.573 315.194 136.543V126.796H317.257V138.009ZM329.849 136.854C330.337 136.854 330.765 136.847 331.136 136.832C331.519 136.802 331.838 136.758 332.09 136.699V133.257C331.941 133.183 331.697 133.124 331.358 133.08C331.031 133.02 330.632 132.991 330.16 132.991C329.85 132.991 329.517 133.013 329.162 133.057C328.821 133.102 328.503 133.198 328.208 133.346C327.926 133.479 327.69 133.672 327.498 133.923C327.305 134.16 327.21 134.478 327.21 134.878C327.21 135.618 327.446 136.136 327.92 136.432C328.392 136.714 329.035 136.854 329.849 136.854ZM329.672 126.507C330.499 126.507 331.195 126.618 331.757 126.84C332.334 127.047 332.792 127.351 333.132 127.75C333.487 128.135 333.738 128.602 333.886 129.149C334.034 129.682 334.108 130.274 334.108 130.926V138.142C333.931 138.172 333.679 138.216 333.354 138.275C333.044 138.32 332.689 138.364 332.289 138.409C331.89 138.453 331.453 138.49 330.981 138.52C330.521 138.564 330.063 138.586 329.605 138.586C328.954 138.586 328.355 138.52 327.809 138.386C327.261 138.253 326.788 138.046 326.389 137.765C325.99 137.469 325.679 137.084 325.458 136.61C325.236 136.136 325.125 135.566 325.125 134.9C325.125 134.264 325.25 133.716 325.502 133.257C325.768 132.798 326.123 132.428 326.567 132.147C327.01 131.866 327.527 131.658 328.119 131.525C328.71 131.392 329.331 131.325 329.983 131.325C330.189 131.325 330.404 131.34 330.626 131.37C330.848 131.385 331.054 131.414 331.247 131.459C331.453 131.488 331.63 131.518 331.779 131.547C331.927 131.577 332.03 131.599 332.09 131.614V131.037C332.09 130.696 332.052 130.363 331.979 130.038C331.904 129.697 331.771 129.401 331.58 129.149C331.386 128.883 331.12 128.676 330.781 128.528C330.455 128.365 330.027 128.283 329.495 128.283C328.813 128.283 328.214 128.335 327.698 128.439C327.194 128.528 326.817 128.624 326.567 128.727L326.323 127.018C326.589 126.899 327.032 126.788 327.654 126.685C328.275 126.566 328.946 126.507 329.672 126.507ZM341.793 126.551C341.97 126.551 342.17 126.566 342.391 126.596C342.627 126.611 342.857 126.64 343.079 126.685C343.301 126.714 343.501 126.751 343.678 126.796C343.87 126.825 344.011 126.855 344.099 126.884L343.744 128.683C343.581 128.624 343.309 128.557 342.924 128.483C342.555 128.394 342.073 128.35 341.482 128.35C341.097 128.35 340.714 128.394 340.329 128.483C339.959 128.557 339.715 128.609 339.597 128.639V138.342H337.534V127.284C338.022 127.107 338.629 126.944 339.353 126.796C340.077 126.633 340.891 126.551 341.793 126.551ZM345.448 132.591C345.448 131.57 345.595 130.681 345.891 129.926C346.186 129.157 346.579 128.52 347.067 128.017C347.555 127.514 348.116 127.136 348.753 126.884C349.388 126.633 350.039 126.507 350.705 126.507C352.257 126.507 353.447 126.996 354.276 127.972C355.103 128.935 355.518 130.408 355.518 132.391C355.518 132.48 355.518 132.598 355.518 132.746C355.518 132.88 355.51 133.005 355.496 133.124H347.599C347.688 134.323 348.035 135.233 348.642 135.855C349.247 136.477 350.194 136.788 351.481 136.788C352.205 136.788 352.812 136.729 353.3 136.61C353.802 136.477 354.179 136.351 354.431 136.233L354.719 137.965C354.468 138.098 354.024 138.238 353.389 138.386C352.768 138.534 352.058 138.608 351.259 138.608C350.253 138.608 349.38 138.46 348.642 138.164C347.916 137.853 347.317 137.432 346.845 136.899C346.371 136.366 346.016 135.737 345.78 135.011C345.559 134.271 345.448 133.464 345.448 132.591ZM353.366 131.459C353.381 130.526 353.145 129.764 352.657 129.172C352.183 128.565 351.525 128.261 350.682 128.261C350.209 128.261 349.787 128.357 349.418 128.55C349.063 128.727 348.759 128.964 348.509 129.26C348.257 129.556 348.057 129.897 347.91 130.282C347.777 130.667 347.688 131.059 347.644 131.459H353.366ZM366.298 136.854C367.141 136.854 367.762 136.743 368.161 136.521C368.575 136.299 368.782 135.944 368.782 135.455C368.782 134.952 368.583 134.552 368.184 134.256C367.784 133.96 367.127 133.627 366.209 133.257C365.766 133.08 365.336 132.902 364.923 132.724C364.524 132.532 364.177 132.31 363.88 132.058C363.584 131.806 363.348 131.503 363.171 131.148C362.993 130.792 362.904 130.356 362.904 129.838C362.904 128.816 363.281 128.009 364.036 127.417C364.79 126.81 365.818 126.507 367.119 126.507C367.444 126.507 367.77 126.529 368.095 126.574C368.42 126.603 368.724 126.648 369.004 126.707C369.285 126.751 369.529 126.803 369.736 126.862C369.958 126.921 370.128 126.973 370.246 127.018L369.869 128.794C369.647 128.676 369.301 128.557 368.827 128.439C368.353 128.306 367.784 128.239 367.119 128.239C366.542 128.239 366.04 128.357 365.611 128.594C365.181 128.816 364.967 129.172 364.967 129.66C364.967 129.912 365.012 130.134 365.1 130.326C365.203 130.519 365.352 130.696 365.544 130.859C365.752 131.007 366.002 131.148 366.298 131.281C366.594 131.414 366.949 131.555 367.363 131.703C367.909 131.91 368.397 132.117 368.827 132.325C369.256 132.517 369.617 132.746 369.914 133.013C370.224 133.279 370.46 133.605 370.623 133.99C370.787 134.36 370.867 134.819 370.867 135.367C370.867 136.432 370.468 137.239 369.67 137.787C368.885 138.335 367.762 138.608 366.298 138.608C365.278 138.608 364.479 138.52 363.903 138.342C363.326 138.179 362.934 138.053 362.727 137.965L363.104 136.188C363.34 136.277 363.717 136.41 364.235 136.588C364.753 136.765 365.441 136.854 366.298 136.854ZM382.696 138.009C382.223 138.127 381.595 138.253 380.811 138.386C380.043 138.52 379.147 138.586 378.127 138.586C377.24 138.586 376.494 138.46 375.887 138.209C375.28 137.942 374.792 137.572 374.423 137.099C374.054 136.625 373.787 136.07 373.624 135.433C373.461 134.782 373.38 134.064 373.38 133.279V126.796H375.443V132.835C375.443 134.242 375.665 135.248 376.109 135.855C376.552 136.462 377.298 136.765 378.349 136.765C378.571 136.765 378.8 136.758 379.037 136.743C379.273 136.729 379.494 136.714 379.702 136.699C379.91 136.669 380.093 136.647 380.257 136.632C380.434 136.603 380.559 136.573 380.634 136.543V126.796H382.696V138.009ZM391.263 138.608C390.332 138.608 389.511 138.46 388.801 138.164C388.107 137.868 387.515 137.454 387.027 136.921C386.554 136.388 386.2 135.759 385.962 135.034C385.726 134.293 385.607 133.479 385.607 132.591C385.607 131.703 385.734 130.889 385.984 130.149C386.25 129.408 386.621 128.772 387.093 128.239C387.567 127.691 388.144 127.269 388.823 126.973C389.519 126.662 390.287 126.507 391.13 126.507C391.648 126.507 392.166 126.551 392.683 126.64C393.201 126.729 393.697 126.87 394.169 127.062L393.703 128.816C393.393 128.668 393.031 128.55 392.616 128.461C392.217 128.372 391.789 128.328 391.33 128.328C390.176 128.328 389.289 128.691 388.668 129.416C388.063 130.141 387.759 131.2 387.759 132.591C387.759 133.213 387.825 133.783 387.958 134.301C388.107 134.819 388.329 135.263 388.624 135.633C388.934 136.003 389.327 136.292 389.799 136.499C390.273 136.691 390.85 136.788 391.529 136.788C392.078 136.788 392.572 136.736 393.016 136.632C393.459 136.529 393.808 136.418 394.058 136.299L394.346 138.031C394.229 138.105 394.058 138.179 393.836 138.253C393.614 138.312 393.364 138.364 393.082 138.409C392.802 138.468 392.499 138.512 392.173 138.542C391.862 138.586 391.559 138.608 391.263 138.608ZM396.561 138.342V121.467L398.624 121.111V127.018C399.009 126.87 399.415 126.759 399.844 126.685C400.288 126.596 400.724 126.551 401.153 126.551C402.07 126.551 402.831 126.685 403.438 126.951C404.044 127.203 404.524 127.565 404.879 128.039C405.248 128.498 405.508 129.053 405.656 129.704C405.803 130.356 405.878 131.074 405.878 131.858V138.342H403.815V132.302C403.815 131.592 403.762 130.985 403.659 130.482C403.571 129.978 403.415 129.571 403.194 129.26C402.972 128.95 402.675 128.727 402.306 128.594C401.937 128.446 401.478 128.372 400.931 128.372C400.709 128.372 400.48 128.387 400.243 128.417C400.007 128.446 399.778 128.483 399.556 128.528C399.348 128.557 399.157 128.594 398.979 128.639C398.816 128.683 398.699 128.72 398.624 128.75V138.342H396.561ZM418.271 136.854C418.759 136.854 419.188 136.847 419.557 136.832C419.942 136.802 420.26 136.758 420.511 136.699V133.257C420.363 133.183 420.119 133.124 419.779 133.08C419.454 133.02 419.055 132.991 418.581 132.991C418.271 132.991 417.938 133.013 417.583 133.057C417.244 133.102 416.925 133.198 416.629 133.346C416.349 133.479 416.113 133.672 415.919 133.923C415.728 134.16 415.631 134.478 415.631 134.878C415.631 135.618 415.869 136.136 416.341 136.432C416.814 136.714 417.458 136.854 418.271 136.854ZM418.093 126.507C418.922 126.507 419.617 126.618 420.178 126.84C420.755 127.047 421.214 127.351 421.553 127.75C421.908 128.135 422.16 128.602 422.308 129.149C422.456 129.682 422.529 130.274 422.529 130.926V138.142C422.352 138.172 422.102 138.216 421.775 138.275C421.465 138.32 421.11 138.364 420.71 138.409C420.311 138.453 419.875 138.49 419.402 138.52C418.944 138.564 418.486 138.586 418.027 138.586C417.377 138.586 416.778 138.52 416.23 138.386C415.683 138.253 415.21 138.046 414.81 137.765C414.411 137.469 414.1 137.084 413.879 136.61C413.657 136.136 413.546 135.566 413.546 134.9C413.546 134.264 413.673 133.716 413.923 133.257C414.189 132.798 414.544 132.428 414.988 132.147C415.431 131.866 415.949 131.658 416.54 131.525C417.133 131.392 417.754 131.325 418.404 131.325C418.611 131.325 418.825 131.34 419.047 131.37C419.269 131.385 419.476 131.414 419.668 131.459C419.875 131.488 420.053 131.518 420.2 131.547C420.349 131.577 420.452 131.599 420.511 131.614V131.037C420.511 130.696 420.474 130.363 420.4 130.038C420.327 129.697 420.194 129.401 420.001 129.149C419.809 128.883 419.543 128.676 419.202 128.528C418.877 128.365 418.448 128.283 417.916 128.283C417.236 128.283 416.637 128.335 416.119 128.439C415.617 128.528 415.24 128.624 414.988 128.727L414.744 127.018C415.01 126.899 415.454 126.788 416.075 126.685C416.696 126.566 417.369 126.507 418.093 126.507ZM438.543 129.238C438.291 129.031 437.929 128.831 437.456 128.639C436.982 128.446 436.466 128.35 435.903 128.35C435.312 128.35 434.802 128.461 434.373 128.683C433.959 128.89 433.618 129.186 433.352 129.571C433.086 129.941 432.894 130.385 432.776 130.903C432.657 131.422 432.598 131.977 432.598 132.569C432.598 133.916 432.931 134.959 433.596 135.7C434.262 136.425 435.149 136.788 436.258 136.788C436.82 136.788 437.286 136.765 437.655 136.721C438.04 136.662 438.335 136.603 438.543 136.543V129.238ZM438.543 121.467L440.606 121.111V138.009C440.132 138.142 439.527 138.275 438.787 138.409C438.047 138.542 437.198 138.608 436.236 138.608C435.349 138.608 434.55 138.468 433.84 138.187C433.13 137.905 432.524 137.506 432.021 136.988C431.519 136.469 431.126 135.84 430.846 135.1C430.58 134.345 430.446 133.501 430.446 132.569C430.446 131.681 430.557 130.867 430.779 130.126C431.015 129.386 431.356 128.75 431.8 128.217C432.243 127.684 432.783 127.269 433.419 126.973C434.07 126.677 434.808 126.529 435.637 126.529C436.302 126.529 436.887 126.618 437.389 126.796C437.907 126.973 438.291 127.143 438.543 127.306V121.467ZM443.508 132.591C443.508 131.57 443.655 130.681 443.952 129.926C444.248 129.157 444.639 128.52 445.127 128.017C445.615 127.514 446.178 127.136 446.813 126.884C447.448 126.633 448.1 126.507 448.765 126.507C450.318 126.507 451.508 126.996 452.336 127.972C453.165 128.935 453.578 130.408 453.578 132.391C453.578 132.48 453.578 132.598 453.578 132.746C453.578 132.88 453.57 133.005 453.556 133.124H445.66C445.748 134.323 446.095 135.233 446.702 135.855C447.309 136.477 448.255 136.788 449.541 136.788C450.265 136.788 450.872 136.729 451.36 136.61C451.863 136.477 452.24 136.351 452.492 136.233L452.78 137.965C452.528 138.098 452.084 138.238 451.449 138.386C450.828 138.534 450.118 138.608 449.32 138.608C448.314 138.608 447.442 138.46 446.702 138.164C445.978 137.853 445.379 137.432 444.906 136.899C444.432 136.366 444.077 135.737 443.841 135.011C443.619 134.271 443.508 133.464 443.508 132.591ZM451.427 131.459C451.441 130.526 451.205 129.764 450.717 129.172C450.243 128.565 449.586 128.261 448.743 128.261C448.269 128.261 447.848 128.357 447.479 128.55C447.124 128.727 446.821 128.964 446.569 129.26C446.317 129.556 446.118 129.897 445.97 130.282C445.837 130.667 445.748 131.059 445.704 131.459H451.427ZM460.001 138.564C458.731 138.534 457.828 138.261 457.295 137.742C456.763 137.224 456.497 136.418 456.497 135.322V121.467L458.56 121.111V134.989C458.56 135.33 458.59 135.611 458.648 135.833C458.709 136.055 458.804 136.233 458.937 136.366C459.07 136.499 459.247 136.603 459.469 136.677C459.691 136.736 459.965 136.788 460.29 136.832L460.001 138.564ZM464.671 138.342H462.608V126.796H464.671V138.342ZM463.628 124.708C463.257 124.708 462.941 124.59 462.674 124.353C462.422 124.101 462.297 123.768 462.297 123.354C462.297 122.94 462.422 122.614 462.674 122.377C462.941 122.125 463.257 122 463.628 122C463.997 122 464.308 122.125 464.56 122.377C464.826 122.614 464.959 122.94 464.959 123.354C464.959 123.768 464.826 124.101 464.56 124.353C464.308 124.59 463.997 124.708 463.628 124.708ZM475.449 137.187C475.272 137.306 474.923 137.461 474.407 137.654C473.903 137.831 473.312 137.92 472.632 137.92C471.937 137.92 471.279 137.809 470.658 137.587C470.051 137.365 469.519 137.024 469.061 136.566C468.602 136.092 468.24 135.507 467.974 134.811C467.708 134.116 467.575 133.287 467.575 132.325C467.575 131.481 467.7 130.711 467.952 130.015C468.202 129.305 468.565 128.698 469.039 128.195C469.527 127.676 470.118 127.277 470.813 126.996C471.507 126.699 472.292 126.551 473.165 126.551C474.125 126.551 474.961 126.625 475.671 126.773C476.395 126.907 477.002 127.032 477.49 127.151V137.454C477.49 139.23 477.03 140.518 476.115 141.317C475.197 142.117 473.808 142.516 471.945 142.516C471.219 142.516 470.531 142.457 469.882 142.339C469.245 142.22 468.69 142.08 468.218 141.917L468.595 140.118C469.009 140.281 469.511 140.422 470.103 140.54C470.709 140.673 471.338 140.74 471.989 140.74C473.215 140.74 474.096 140.496 474.628 140.007C475.175 139.519 475.449 138.742 475.449 137.676V137.187ZM475.427 128.616C475.219 128.557 474.939 128.505 474.584 128.461C474.243 128.402 473.778 128.372 473.187 128.372C472.078 128.372 471.219 128.735 470.614 129.46C470.021 130.185 469.726 131.148 469.726 132.347C469.726 133.013 469.807 133.583 469.97 134.057C470.148 134.53 470.376 134.922 470.658 135.233C470.953 135.544 471.285 135.774 471.656 135.922C472.04 136.07 472.432 136.144 472.832 136.144C473.378 136.144 473.881 136.07 474.34 135.922C474.798 135.759 475.161 135.574 475.427 135.367V128.616ZM480.397 132.591C480.397 131.57 480.546 130.681 480.841 129.926C481.137 129.157 481.528 128.52 482.016 128.017C482.504 127.514 483.067 127.136 483.702 126.884C484.339 126.633 484.989 126.507 485.654 126.507C487.207 126.507 488.398 126.996 489.225 127.972C490.054 128.935 490.467 130.408 490.467 132.391C490.467 132.48 490.467 132.598 490.467 132.746C490.467 132.88 490.461 133.005 490.445 133.124H482.549C482.638 134.323 482.986 135.233 483.591 135.855C484.198 136.477 485.144 136.788 486.43 136.788C487.156 136.788 487.761 136.729 488.249 136.61C488.753 136.477 489.13 136.351 489.381 136.233L489.669 137.965C489.419 138.098 488.975 138.238 488.338 138.386C487.717 138.534 487.007 138.608 486.209 138.608C485.204 138.608 484.331 138.46 483.591 138.164C482.867 137.853 482.268 137.432 481.795 136.899C481.322 136.366 480.968 135.737 480.73 135.011C480.508 134.271 480.397 133.464 480.397 132.591ZM488.316 131.459C488.332 130.526 488.094 129.764 487.606 129.172C487.134 128.565 486.475 128.261 485.632 128.261C485.16 128.261 484.738 128.357 484.368 128.55C484.013 128.727 483.71 128.964 483.458 129.26C483.208 129.556 483.008 129.897 482.859 130.282C482.726 130.667 482.637 131.059 482.593 131.459H488.316ZM493.432 127.129C493.904 127.01 494.533 126.884 495.317 126.751C496.1 126.618 497.003 126.551 498.023 126.551C498.939 126.551 499.701 126.685 500.308 126.951C500.913 127.203 501.395 127.565 501.75 128.039C502.119 128.498 502.377 129.053 502.526 129.704C502.674 130.356 502.748 131.074 502.748 131.858V138.342H500.685V132.302C500.685 131.592 500.633 130.985 500.53 130.482C500.441 129.978 500.286 129.571 500.064 129.26C499.842 128.95 499.546 128.727 499.177 128.594C498.806 128.446 498.348 128.372 497.802 128.372C497.58 128.372 497.35 128.38 497.114 128.394C496.876 128.409 496.648 128.431 496.426 128.461C496.219 128.476 496.027 128.498 495.85 128.528C495.686 128.557 495.568 128.579 495.495 128.594V138.342H493.432V127.129ZM508.098 126.796H512.468V128.528H508.098V133.857C508.098 134.434 508.143 134.915 508.232 135.3C508.32 135.67 508.453 135.966 508.631 136.188C508.808 136.395 509.03 136.543 509.296 136.632C509.562 136.721 509.873 136.765 510.228 136.765C510.849 136.765 511.343 136.699 511.714 136.566C512.097 136.418 512.364 136.314 512.513 136.255L512.912 137.965C512.704 138.068 512.341 138.194 511.825 138.342C511.307 138.505 510.716 138.586 510.05 138.586C509.266 138.586 508.615 138.49 508.098 138.298C507.595 138.09 507.189 137.787 506.879 137.387C506.568 136.988 506.346 136.499 506.213 135.922C506.094 135.33 506.036 134.649 506.036 133.879V123.576L508.098 123.221V126.796ZM522.911 136.854C523.754 136.854 524.375 136.743 524.774 136.521C525.188 136.299 525.395 135.944 525.395 135.455C525.395 134.952 525.195 134.552 524.796 134.256C524.397 133.96 523.738 133.627 522.822 133.257C522.378 133.08 521.949 132.902 521.536 132.724C521.136 132.532 520.788 132.31 520.493 132.058C520.197 131.806 519.961 131.503 519.783 131.148C519.606 130.792 519.517 130.356 519.517 129.838C519.517 128.816 519.894 128.009 520.648 127.417C521.403 126.81 522.429 126.507 523.732 126.507C524.056 126.507 524.381 126.529 524.708 126.574C525.032 126.603 525.335 126.648 525.617 126.707C525.897 126.751 526.141 126.803 526.349 126.862C526.571 126.921 526.74 126.973 526.859 127.018L526.482 128.794C526.26 128.676 525.912 128.557 525.439 128.439C524.966 128.306 524.397 128.239 523.732 128.239C523.155 128.239 522.651 128.357 522.223 128.594C521.794 128.816 521.58 129.172 521.58 129.66C521.58 129.912 521.624 130.134 521.713 130.326C521.816 130.519 521.963 130.696 522.157 130.859C522.363 131.007 522.615 131.148 522.911 131.281C523.206 131.414 523.56 131.555 523.976 131.703C524.522 131.91 525.01 132.117 525.439 132.325C525.867 132.517 526.23 132.746 526.526 133.013C526.837 133.279 527.073 133.605 527.236 133.99C527.398 134.36 527.48 134.819 527.48 135.367C527.48 136.432 527.081 137.239 526.282 137.787C525.498 138.335 524.375 138.608 522.911 138.608C521.89 138.608 521.092 138.52 520.515 138.342C519.939 138.179 519.546 138.053 519.34 137.965L519.717 136.188C519.953 136.277 520.33 136.41 520.848 136.588C521.364 136.765 522.052 136.854 522.911 136.854ZM534.03 136.854C534.518 136.854 534.946 136.847 535.317 136.832C535.7 136.802 536.018 136.758 536.27 136.699V133.257C536.121 133.183 535.877 133.124 535.538 133.08C535.212 133.02 534.813 132.991 534.341 132.991C534.03 132.991 533.697 133.013 533.342 133.057C533.002 133.102 532.683 133.198 532.389 133.346C532.107 133.479 531.87 133.672 531.679 133.923C531.485 134.16 531.39 134.478 531.39 134.878C531.39 135.618 531.627 136.136 532.1 136.432C532.572 136.714 533.216 136.854 534.03 136.854ZM533.853 126.507C534.68 126.507 535.375 126.618 535.938 126.84C536.514 127.047 536.972 127.351 537.313 127.75C537.668 128.135 537.918 128.602 538.067 129.149C538.214 129.682 538.289 130.274 538.289 130.926V138.142C538.111 138.172 537.859 138.216 537.535 138.275C537.224 138.32 536.869 138.364 536.47 138.409C536.071 138.453 535.633 138.49 535.161 138.52C534.702 138.564 534.244 138.586 533.786 138.586C533.135 138.586 532.536 138.52 531.989 138.386C531.441 138.253 530.969 138.046 530.57 137.765C530.17 137.469 529.86 137.084 529.638 136.61C529.416 136.136 529.305 135.566 529.305 134.9C529.305 134.264 529.431 133.716 529.682 133.257C529.949 132.798 530.304 132.428 530.747 132.147C531.191 131.866 531.707 131.658 532.3 131.525C532.891 131.392 533.512 131.325 534.163 131.325C534.369 131.325 534.585 131.34 534.806 131.37C535.028 131.385 535.234 131.414 535.427 131.459C535.633 131.488 535.811 131.518 535.96 131.547C536.107 131.577 536.21 131.599 536.27 131.614V131.037C536.27 130.696 536.232 130.363 536.159 130.038C536.085 129.697 535.952 129.401 535.76 129.149C535.567 128.883 535.301 128.676 534.962 128.528C534.635 128.365 534.207 128.283 533.675 128.283C532.994 128.283 532.395 128.335 531.878 128.439C531.375 128.528 530.998 128.624 530.747 128.727L530.503 127.018C530.769 126.899 531.213 126.788 531.834 126.685C532.455 126.566 533.127 126.507 533.853 126.507ZM550.395 126.796C549.818 128.957 549.139 131.029 548.354 133.013C547.586 134.997 546.84 136.773 546.114 138.342H544.251C543.527 136.773 542.773 134.997 541.988 133.013C541.22 131.029 540.547 128.957 539.97 126.796H542.188C542.365 127.521 542.573 128.298 542.809 129.127C543.061 129.941 543.319 130.756 543.585 131.57C543.867 132.369 544.148 133.146 544.428 133.901C544.71 134.656 544.977 135.33 545.227 135.922C545.479 135.33 545.745 134.656 546.025 133.901C546.307 133.146 546.58 132.369 546.846 131.57C547.128 130.756 547.386 129.941 547.622 129.127C547.874 128.298 548.088 127.521 548.266 126.796H550.395ZM551.577 132.591C551.577 131.57 551.724 130.681 552.021 129.926C552.317 129.157 552.708 128.52 553.196 128.017C553.684 127.514 554.247 127.136 554.882 126.884C555.517 126.633 556.169 126.507 556.834 126.507C558.387 126.507 559.577 126.996 560.405 127.972C561.234 128.935 561.647 130.408 561.647 132.391C561.647 132.48 561.647 132.598 561.647 132.746C561.647 132.88 561.639 133.005 561.625 133.124H553.729C553.817 134.323 554.164 135.233 554.771 135.855C555.378 136.477 556.324 136.788 557.61 136.788C558.334 136.788 558.941 136.729 559.429 136.61C559.931 136.477 560.309 136.351 560.56 136.233L560.849 137.965C560.597 138.098 560.153 138.238 559.518 138.386C558.897 138.534 558.187 138.608 557.389 138.608C556.382 138.608 555.511 138.46 554.771 138.164C554.047 137.853 553.448 137.432 552.974 136.899C552.501 136.366 552.146 135.737 551.91 135.011C551.688 134.271 551.577 133.464 551.577 132.591ZM559.496 131.459C559.51 130.526 559.274 129.764 558.786 129.172C558.312 128.565 557.655 128.261 556.812 128.261C556.338 128.261 555.917 128.357 555.547 128.55C555.193 128.727 554.89 128.964 554.638 129.26C554.386 129.556 554.186 129.897 554.039 130.282C553.906 130.667 553.817 131.059 553.773 131.459H559.496ZM568.869 126.551C569.046 126.551 569.246 126.566 569.468 126.596C569.705 126.611 569.934 126.64 570.155 126.685C570.377 126.714 570.577 126.751 570.754 126.796C570.948 126.825 571.087 126.855 571.176 126.884L570.821 128.683C570.659 128.624 570.385 128.557 570 128.483C569.631 128.394 569.151 128.35 568.558 128.35C568.175 128.35 567.79 128.394 567.405 128.483C567.036 128.557 566.792 128.609 566.673 128.639V138.342H564.61V127.284C565.098 127.107 565.705 126.944 566.429 126.796C567.155 126.633 567.967 126.551 568.869 126.551Z" fill="#E5E7EB"/>
<path d="M320.41 218.208C319.381 218.208 318.457 218.05 317.64 217.733C316.823 217.416 316.13 216.954 315.562 216.346C314.994 215.726 314.559 214.973 314.256 214.088C313.953 213.202 313.801 212.186 313.801 211.037C313.801 209.888 313.973 208.872 314.315 207.986C314.672 207.101 315.152 206.356 315.76 205.748C316.367 205.128 317.08 204.658 317.897 204.341C318.714 204.024 319.593 203.866 320.529 203.866C321.097 203.866 321.612 203.911 322.073 204.005C322.534 204.084 322.938 204.177 323.28 204.282C323.622 204.387 323.907 204.5 324.131 204.619C324.354 204.738 324.513 204.823 324.606 204.876L323.874 206.917C323.557 206.719 323.102 206.534 322.508 206.362C321.928 206.178 321.295 206.085 320.608 206.085C320.015 206.085 319.461 206.19 318.946 206.402C318.431 206.6 317.982 206.903 317.6 207.313C317.23 207.723 316.941 208.238 316.73 208.858C316.518 209.478 316.413 210.199 316.413 211.017C316.413 211.744 316.492 212.41 316.65 213.018C316.823 213.626 317.08 214.153 317.422 214.603C317.765 215.039 318.2 215.381 318.728 215.633C319.257 215.871 319.89 215.99 320.628 215.99C321.513 215.99 322.231 215.904 322.785 215.732C323.339 215.548 323.769 215.376 324.071 215.217L324.744 217.257C324.586 217.362 324.368 217.469 324.091 217.574C323.828 217.679 323.511 217.786 323.141 217.891C322.771 217.985 322.356 218.056 321.895 218.109C321.434 218.175 320.939 218.208 320.41 218.208ZM330.418 218.109C329.706 218.095 329.112 218.016 328.637 217.872C328.176 217.727 327.806 217.521 327.529 217.257C327.252 216.98 327.054 216.643 326.935 216.247C326.83 215.837 326.777 215.376 326.777 214.86V202.935L329.171 202.539V214.405C329.171 214.696 329.191 214.94 329.231 215.138C329.284 215.336 329.369 215.508 329.488 215.653C329.607 215.786 329.765 215.891 329.963 215.97C330.175 216.035 330.438 216.089 330.754 216.128L330.418 218.109ZM336.333 216.227C337.071 216.227 337.631 216.188 338.015 216.109V213.454C337.883 213.414 337.691 213.375 337.441 213.335C337.19 213.295 336.913 213.276 336.61 213.276C336.345 213.276 336.076 213.295 335.799 213.335C335.534 213.375 335.29 213.448 335.067 213.553C334.855 213.658 334.683 213.811 334.552 214.009C334.419 214.193 334.354 214.431 334.354 214.722C334.354 215.29 334.532 215.687 334.888 215.91C335.245 216.122 335.726 216.227 336.333 216.227ZM336.135 207.293C336.927 207.293 337.592 207.392 338.134 207.59C338.674 207.788 339.104 208.066 339.42 208.422C339.749 208.779 339.98 209.215 340.113 209.73C340.257 210.231 340.331 210.786 340.331 211.394V217.674C339.96 217.753 339.4 217.846 338.648 217.951C337.908 218.07 337.071 218.129 336.135 218.129C335.514 218.129 334.948 218.07 334.433 217.951C333.919 217.832 333.475 217.64 333.107 217.376C332.751 217.113 332.466 216.768 332.256 216.346C332.059 215.924 331.96 215.401 331.96 214.781C331.96 214.187 332.07 213.686 332.296 213.276C332.533 212.866 332.85 212.537 333.246 212.285C333.642 212.022 334.097 211.835 334.611 211.73C335.138 211.612 335.686 211.552 336.254 211.552C336.517 211.552 336.794 211.572 337.085 211.612C337.374 211.637 337.685 211.691 338.015 211.77V211.374C338.015 211.097 337.982 210.833 337.916 210.581C337.849 210.33 337.73 210.112 337.56 209.928C337.402 209.73 337.184 209.577 336.907 209.472C336.642 209.367 336.305 209.314 335.898 209.314C335.344 209.314 334.835 209.353 334.374 209.433C333.911 209.512 333.535 209.605 333.246 209.71L332.949 207.768C333.252 207.663 333.693 207.556 334.275 207.451C334.855 207.346 335.474 207.293 336.135 207.293ZM345.678 217.911H343.283V207.551H345.678V217.911ZM345.935 204.52C345.935 204.969 345.788 205.326 345.5 205.589C345.209 205.853 344.866 205.986 344.47 205.986C344.061 205.986 343.711 205.853 343.422 205.589C343.131 205.326 342.986 204.969 342.986 204.52C342.986 204.058 343.131 203.694 343.422 203.43C343.711 203.167 344.061 203.034 344.47 203.034C344.866 203.034 345.209 203.167 345.5 203.43C345.788 203.694 345.935 204.058 345.935 204.52ZM354.628 212.463C354.628 211.38 354.49 210.601 354.213 210.126C353.95 209.637 353.449 209.393 352.709 209.393C352.446 209.393 352.155 209.413 351.838 209.452C351.521 209.492 351.284 209.526 351.126 209.551V217.911H348.731V207.887C349.194 207.755 349.794 207.63 350.532 207.511C351.284 207.392 352.076 207.333 352.907 207.333C353.619 207.333 354.201 207.426 354.648 207.61C355.111 207.794 355.493 208.04 355.796 208.343C355.942 208.238 356.126 208.125 356.35 208.006C356.576 207.887 356.825 207.782 357.102 207.689C357.379 207.584 357.67 207.497 357.973 207.432C358.289 207.366 358.606 207.333 358.923 207.333C359.728 207.333 360.387 207.451 360.902 207.689C361.43 207.913 361.84 208.238 362.129 208.66C362.433 209.07 362.637 209.571 362.742 210.165C362.861 210.746 362.92 211.388 362.92 212.087V217.911H360.526V212.463C360.526 211.38 360.395 210.601 360.13 210.126C359.867 209.637 359.358 209.393 358.606 209.393C358.224 209.393 357.862 209.458 357.518 209.591C357.175 209.71 356.918 209.829 356.746 209.948C356.853 210.278 356.924 210.627 356.964 210.998C357.003 211.368 357.023 211.764 357.023 212.186V217.911H354.628V212.463ZM374.372 204.044C376.351 204.044 377.861 204.407 378.904 205.134C379.959 205.861 380.487 206.97 380.487 208.462C380.487 210.324 379.569 211.586 377.737 212.246C377.986 212.549 378.271 212.919 378.588 213.355C378.904 213.791 379.227 214.266 379.557 214.781C379.886 215.282 380.202 215.805 380.507 216.346C380.81 216.875 381.081 217.396 381.319 217.911H378.528C378.277 217.436 378.006 216.96 377.717 216.485C377.426 215.996 377.129 215.528 376.826 215.078C376.535 214.617 376.244 214.187 375.956 213.791C375.665 213.381 375.394 213.018 375.144 212.701C374.958 212.715 374.8 212.721 374.669 212.721C374.537 212.721 374.412 212.721 374.293 212.721H373.086V217.911H370.593V204.381C371.198 204.248 371.845 204.163 372.532 204.123C373.217 204.07 373.83 204.044 374.372 204.044ZM374.551 206.203C374.022 206.203 373.533 206.223 373.086 206.263V210.7H374.173C374.78 210.7 375.314 210.667 375.777 210.601C376.239 210.536 376.62 210.417 376.925 210.245C377.242 210.072 377.479 209.843 377.638 209.551C377.796 209.26 377.875 208.892 377.875 208.442C377.875 208.02 377.796 207.663 377.638 207.372C377.479 207.081 377.248 206.851 376.945 206.679C376.654 206.507 376.304 206.388 375.896 206.322C375.487 206.243 375.037 206.203 374.551 206.203ZM382.557 212.78C382.557 211.869 382.69 211.071 382.953 210.383C383.23 209.696 383.592 209.129 384.042 208.68C384.491 208.218 385.005 207.873 385.585 207.65C386.165 207.412 386.759 207.293 387.366 207.293C388.791 207.293 389.899 207.735 390.691 208.62C391.496 209.506 391.898 210.825 391.898 212.582C391.898 212.715 391.892 212.866 391.878 213.038C391.878 213.196 391.872 213.341 391.858 213.474H385.031C385.096 214.306 385.387 214.954 385.902 215.415C386.43 215.865 387.188 216.089 388.178 216.089C388.757 216.089 389.286 216.035 389.761 215.93C390.249 215.825 390.631 215.712 390.908 215.593L391.225 217.555C391.093 217.62 390.908 217.693 390.671 217.773C390.447 217.838 390.182 217.897 389.879 217.951C389.589 218.016 389.272 218.07 388.93 218.109C388.587 218.149 388.237 218.169 387.881 218.169C386.97 218.169 386.179 218.036 385.506 217.773C384.833 217.495 384.279 217.119 383.844 216.643C383.408 216.154 383.086 215.588 382.874 214.94C382.662 214.28 382.557 213.559 382.557 212.78ZM389.503 211.711C389.503 211.38 389.458 211.071 389.365 210.78C389.272 210.476 389.133 210.219 388.949 210.007C388.777 209.783 388.559 209.611 388.296 209.492C388.045 209.359 387.742 209.294 387.386 209.294C387.016 209.294 386.693 209.367 386.416 209.512C386.139 209.644 385.902 209.823 385.704 210.047C385.52 210.27 385.373 210.528 385.268 210.819C385.164 211.11 385.09 211.408 385.051 211.711H389.503ZM400.611 211.394C400.308 212.557 399.978 213.692 399.622 214.801C399.279 215.897 398.935 216.935 398.593 217.911H396.634C396.37 217.303 396.093 216.61 395.802 215.831C395.512 215.053 395.223 214.221 394.932 213.335C394.641 212.45 394.352 211.519 394.061 210.542C393.77 209.565 393.487 208.567 393.21 207.551H395.743C395.862 208.105 396 208.705 396.159 209.353C396.317 209.987 396.481 210.641 396.653 211.314C396.826 211.974 397.004 212.622 397.188 213.256C397.372 213.89 397.558 214.47 397.742 214.999C397.94 214.391 398.132 213.765 398.316 213.117C398.514 212.469 398.698 211.824 398.87 211.176C399.042 210.528 399.2 209.902 399.345 209.294C399.503 208.674 399.642 208.091 399.76 207.551H401.601C401.719 208.091 401.852 208.674 401.997 209.294C402.141 209.902 402.293 210.528 402.452 211.176C402.624 211.824 402.802 212.469 402.986 213.117C403.184 213.765 403.382 214.391 403.58 214.999C403.752 214.47 403.93 213.89 404.114 213.256C404.298 212.622 404.476 211.974 404.648 211.314C404.832 210.641 405.005 209.987 405.163 209.353C405.321 208.705 405.46 208.105 405.578 207.551H408.052C407.775 208.567 407.492 209.565 407.201 210.542C406.91 211.519 406.621 212.45 406.33 213.335C406.039 214.221 405.751 215.053 405.46 215.831C405.169 216.61 404.886 217.303 404.609 217.911H402.669C402.327 216.935 401.971 215.897 401.601 214.801C401.245 213.692 400.914 212.557 400.611 211.394ZM413.52 216.227C414.258 216.227 414.818 216.188 415.202 216.109V213.454C415.069 213.414 414.877 213.375 414.628 213.335C414.377 213.295 414.1 213.276 413.797 213.276C413.532 213.276 413.263 213.295 412.986 213.335C412.72 213.375 412.477 213.448 412.253 213.553C412.042 213.658 411.869 213.811 411.739 214.009C411.606 214.193 411.541 214.431 411.541 214.722C411.541 215.29 411.719 215.687 412.075 215.91C412.431 216.122 412.912 216.227 413.52 216.227ZM413.322 207.293C414.114 207.293 414.779 207.392 415.321 207.59C415.861 207.788 416.29 208.066 416.607 208.422C416.936 208.779 417.167 209.215 417.3 209.73C417.444 210.231 417.517 210.786 417.517 211.394V217.674C417.147 217.753 416.587 217.846 415.835 217.951C415.095 218.07 414.258 218.129 413.322 218.129C412.701 218.129 412.135 218.07 411.62 217.951C411.106 217.832 410.662 217.64 410.294 217.376C409.938 217.113 409.653 216.768 409.443 216.346C409.245 215.924 409.146 215.401 409.146 214.781C409.146 214.187 409.257 213.686 409.483 213.276C409.72 212.866 410.037 212.537 410.433 212.285C410.829 212.022 411.284 211.835 411.798 211.73C412.325 211.612 412.873 211.552 413.441 211.552C413.704 211.552 413.981 211.572 414.272 211.612C414.561 211.637 414.872 211.691 415.202 211.77V211.374C415.202 211.097 415.168 210.833 415.103 210.581C415.036 210.33 414.917 210.112 414.747 209.928C414.589 209.73 414.371 209.577 414.094 209.472C413.829 209.367 413.492 209.314 413.085 209.314C412.53 209.314 412.022 209.353 411.561 209.433C411.098 209.512 410.722 209.605 410.433 209.71L410.136 207.768C410.439 207.663 410.88 207.556 411.462 207.451C412.042 207.346 412.661 207.293 413.322 207.293ZM426.345 209.71C426.148 209.644 425.871 209.577 425.514 209.512C425.172 209.433 424.77 209.393 424.307 209.393C424.044 209.393 423.761 209.419 423.456 209.472C423.167 209.526 422.961 209.571 422.843 209.611V217.911H420.448V208.046C420.911 207.873 421.485 207.715 422.17 207.57C422.87 207.412 423.642 207.333 424.485 207.333C424.644 207.333 424.83 207.346 425.039 207.372C425.251 207.386 425.463 207.412 425.673 207.451C425.884 207.477 426.088 207.517 426.286 207.57C426.484 207.61 426.642 207.65 426.761 207.689L426.345 209.71ZM430.311 212.701C430.311 213.757 430.561 214.589 431.063 215.197C431.564 215.792 432.257 216.089 433.141 216.089C433.523 216.089 433.846 216.075 434.111 216.049C434.388 216.009 434.612 215.97 434.784 215.93V209.987C434.572 209.843 434.289 209.71 433.933 209.591C433.588 209.458 433.22 209.393 432.825 209.393C431.954 209.393 431.313 209.69 430.905 210.284C430.509 210.879 430.311 211.685 430.311 212.701ZM437.178 217.594C436.703 217.739 436.102 217.872 435.377 217.99C434.665 218.109 433.913 218.169 433.121 218.169C432.302 218.169 431.57 218.044 430.925 217.792C430.278 217.541 429.724 217.184 429.262 216.723C428.813 216.247 428.463 215.679 428.214 215.019C427.976 214.345 427.857 213.593 427.857 212.761C427.857 211.942 427.956 211.202 428.154 210.542C428.364 209.868 428.669 209.294 429.065 208.818C429.46 208.343 429.941 207.98 430.509 207.729C431.075 207.465 431.728 207.333 432.468 207.333C432.969 207.333 433.41 207.392 433.794 207.511C434.176 207.63 434.507 207.763 434.784 207.907V202.935L437.178 202.539V217.594Z" fill="white"/>
<path d="M444.274 185.225H307.726C293.518 185.225 282 196.755 282 210.978C282 225.201 293.518 236.731 307.726 236.731H444.274C458.482 236.731 470 225.201 470 210.978C470 196.755 458.482 185.225 444.274 185.225Z" stroke="white" stroke-width="2"/>
</g>
<rect x="2" y="2" width="748" height="309" rx="38" stroke="white" stroke-width="4"/>
<defs>
<filter id="filter0_d_5085_90410" x="135.999" y="146.036" width="33.8456" height="35.6323" filterUnits="userSpaceOnUse" color-interpolation-filters="sRGB">
<feFlood flood-opacity="0" result="BackgroundImageFix"/>
<feColorMatrix in="SourceAlpha" type="matrix" values="0 0 0 0 0 0 0 0 0 0 0 0 0 0 0 0 0 0 127 0" result="hardAlpha"/>
<feOffset dy="1.44315"/>
<feGaussianBlur stdDeviation="1.20262"/>
<feComposite in2="hardAlpha" operator="out"/>
<feColorMatrix type="matrix" values="0 0 0 0 0.316667 0 0 0 0 0.255165 0 0 0 0 0 0 0 0 0.1 0"/>
<feBlend mode="normal" in2="BackgroundImageFix" result="effect1_dropShadow_5085_90410"/>
<feBlend mode="normal" in="SourceGraphic" in2="effect1_dropShadow_5085_90410" result="shape"/>
</filter>
<linearGradient id="paint0_linear_5085_90410" x1="75.3659" y1="187.717" x2="262.28" y2="187.213" gradientUnits="userSpaceOnUse">
<stop stop-color="#8807F7"/>
<stop offset="0.40625" stop-color="#520BB3"/>
<stop offset="1" stop-color="#EA00BE"/>
</linearGradient>
<clipPath id="clip0_5085_90410">
<rect width="752" height="313" rx="40" fill="white"/>
</clipPath>
</defs>
</svg>
