<svg width="70" height="30" viewBox="0 0 70 30" fill="none" xmlns="http://www.w3.org/2000/svg">
<path d="M43.7759 21C47.1039 21 48.8799 18.952 48.8799 15.64C48.8799 12.328 47.0879 10.28 43.7759 10.28H39.7279V21H43.7759ZM43.5519 11.88C45.7759 11.88 46.9919 12.952 46.9919 15.64C46.9919 18.328 45.7759 19.4 43.5679 19.4H41.5359V11.88H43.5519ZM52.3141 12.104V10.28H50.5221V12.104H52.3141ZM52.3141 21V13.208H50.5221V21H52.3141ZM56.0016 21V10.28H54.2096V21H56.0016ZM59.6891 21V10.28H57.8971V21H59.6891ZM63.2326 21.16C64.8646 21.16 65.6166 19.944 65.8566 18.92V19.496C65.8566 20.616 66.5126 21 67.3446 21H68.4486V19.464H67.9526C67.6646 19.464 67.5366 19.352 67.5366 19V16.072C67.5366 14.152 66.4486 13.048 64.5126 13.048C62.7846 13.048 61.5686 13.944 60.9606 14.776L62.0326 16.056C62.4806 15.24 63.2966 14.632 64.3366 14.632C65.4086 14.632 65.7606 15.16 65.8246 15.944L63.2166 17.048C61.9526 17.544 61.1846 18.216 61.1846 19.32C61.1846 20.44 61.9526 21.16 63.2326 21.16ZM62.9126 19.048C62.9126 18.648 63.1846 18.376 63.8566 18.072L65.8566 17.176V18.008C65.8566 19.064 65.0566 19.768 63.8726 19.768C63.2166 19.768 62.9126 19.496 62.9126 19.048Z" fill="white"/>
<ellipse cx="15.7951" cy="15" rx="14.881" ry="15" fill="white"/>
<g filter="url(#filter0_i_13096_84952)">
<path d="M10.0389 10.1545H21.0145C21.1427 10.1544 21.2708 10.1626 21.398 10.1788C21.3548 9.87624 21.2509 9.58551 21.0924 9.32417C20.9339 9.06283 20.7241 8.8363 20.4757 8.65823C20.2273 8.48016 19.9454 8.35424 19.647 8.28807C19.3486 8.22189 19.0399 8.21683 18.7395 8.27319L9.71304 9.81424H9.70275C9.13615 9.92258 8.6323 10.2432 8.29409 10.7105C8.80364 10.348 9.41359 10.1537 10.0389 10.1545ZM21.0145 10.9777H10.0389C9.45689 10.9783 8.89892 11.2098 8.48739 11.6213C8.07586 12.0328 7.84439 12.5908 7.84375 13.1728V19.7581C7.84439 20.3401 8.07586 20.8981 8.48739 21.3096C8.89892 21.7212 9.45689 21.9526 10.0389 21.9533H21.0145C21.5965 21.9526 22.1545 21.7212 22.566 21.3096C22.9775 20.8981 23.209 20.3401 23.2096 19.7581V13.1728C23.209 12.5908 22.9775 12.0328 22.566 11.6213C22.1545 11.2098 21.5965 10.9783 21.0145 10.9777ZM19.3853 17.563C19.1682 17.563 18.956 17.4987 18.7755 17.378C18.595 17.2574 18.4544 17.086 18.3713 16.8855C18.2882 16.6849 18.2665 16.4642 18.3088 16.2513C18.3512 16.0384 18.4557 15.8429 18.6092 15.6894C18.7627 15.5359 18.9583 15.4313 19.1712 15.389C19.3841 15.3466 19.6048 15.3684 19.8053 15.4514C20.0059 15.5345 20.1773 15.6752 20.2979 15.8557C20.4185 16.0362 20.4829 16.2484 20.4829 16.4655C20.4829 16.7566 20.3672 17.0357 20.1614 17.2416C19.9556 17.4474 19.6764 17.563 19.3853 17.563Z" fill="#8807F7"/>
</g>
<path d="M7.85938 15.4853V12.0726C7.85938 11.3293 8.27096 10.0833 9.69951 9.81334C10.912 9.58594 12.1124 9.58594 12.1124 9.58594C12.1124 9.58594 12.9013 10.1347 12.2496 10.1347C11.5979 10.1347 11.6151 10.975 12.2496 10.975C12.8842 10.975 12.2496 11.7811 12.2496 11.7811L9.69436 14.6793L7.85938 15.4853Z" fill="#8807F7"/>
<rect x="18.125" y="14.8867" width="3.72217" height="3.34041" fill="url(#paint0_linear_13096_84952)"/>
<path d="M14.8412 14.2388C14.8422 14.63 14.8422 15.0212 14.8432 15.4124C14.8443 15.7496 14.7337 16.0781 14.4212 16.2503C14.0552 16.4502 13.5365 16.3998 13.1284 16.3577C13.113 16.3567 13.0986 16.3546 13.0842 16.3536C13.0976 16.0719 13.0924 15.7876 13.0791 15.507C13.0616 15.1266 13.2924 14.6732 13.7005 14.6089C14.1441 14.539 14.5297 14.4917 14.7389 14.247C14.7461 14.2398 14.7523 14.2326 14.7584 14.2244C14.7893 14.1828 14.8222 14.1422 14.8551 14.1016C14.8448 14.1458 14.8412 14.1925 14.8412 14.2388Z" fill="#FEF5FC"/>
<path d="M13.5 18.9046C13.8053 18.9242 14.1127 18.9195 14.4186 18.9247C14.7753 18.9308 15.1403 18.975 15.4847 18.9123C15.9787 18.8224 16.5344 18.5001 16.7179 18.0225C16.888 17.5804 16.8079 17.0525 16.5149 16.6814C16.4943 16.6557 16.4727 16.631 16.4491 16.6063C16.153 16.2825 15.6934 16.1134 15.257 16.1715C14.7137 16.2434 14.2351 16.6706 14.0942 17.1995C14.0063 17.5296 14.0829 17.8812 14.0315 18.2173C13.9894 18.496 13.7519 18.7812 13.5 18.9046Z" fill="#FEF5FC"/>
<path d="M16.5523 12.9766C16.525 13.0593 16.5579 13.1493 16.5934 13.229C17.0463 14.2396 18.2609 14.9232 18.2193 16.1369C18.2003 16.6859 17.9263 17.331 17.4683 17.6564C17.4349 17.6801 17.4045 17.7011 17.3655 17.7119C17.2781 17.5485 17.2688 17.3089 17.1943 17.1285C17.1013 16.9023 16.9779 16.6797 16.8057 16.5044C16.6407 16.3369 16.434 16.2402 16.269 16.0757C15.9226 15.7298 15.7041 15.2553 15.6753 14.7659C15.6332 14.0679 15.9822 13.3755 16.5523 12.9766Z" fill="#FEF5FC"/>
<path d="M13.3986 15.415C13.3986 15.415 13.3826 15.1101 13.6947 15.1256C13.6952 15.1256 13.8088 15.4587 13.3986 15.415Z" fill="#8807F7" stroke="#8807F7" stroke-width="0.0613285" stroke-miterlimit="10"/>
<path d="M13.2984 17.9913C13.584 17.9913 13.8155 17.7598 13.8155 17.4742C13.8155 17.1886 13.584 16.957 13.2984 16.957C13.0128 16.957 12.7812 17.1886 12.7812 17.4742C12.7812 17.7598 13.0128 17.9913 13.2984 17.9913Z" fill="#FEF5FC"/>
<rect x="20.125" y="16.0312" width="2.29056" height="0.763521" rx="0.381761" fill="white"/>
<defs>
<filter id="filter0_i_13096_84952" x="7.84375" y="2.24832" width="15.3672" height="19.7048" filterUnits="userSpaceOnUse" color-interpolation-filters="sRGB">
<feFlood flood-opacity="0" result="BackgroundImageFix"/>
<feBlend mode="normal" in="SourceGraphic" in2="BackgroundImageFix" result="shape"/>
<feColorMatrix in="SourceAlpha" type="matrix" values="0 0 0 0 0 0 0 0 0 0 0 0 0 0 0 0 0 0 127 0" result="hardAlpha"/>
<feOffset dy="-5.98605"/>
<feGaussianBlur stdDeviation="2.99303"/>
<feComposite in2="hardAlpha" operator="arithmetic" k2="-1" k3="1"/>
<feColorMatrix type="matrix" values="0 0 0 0 0.791667 0 0 0 0 0.791667 0 0 0 0 0.791667 0 0 0 0.25 0"/>
<feBlend mode="normal" in2="shape" result="effect1_innerShadow_13096_84952"/>
</filter>
<linearGradient id="paint0_linear_13096_84952" x1="19.9861" y1="14.8867" x2="19.399" y2="19.649" gradientUnits="userSpaceOnUse">
<stop stop-color="#8B0EF5"/>
<stop offset="1" stop-color="#9733ED"/>
</linearGradient>
</defs>
</svg>
