<svg width="32" height="32" viewBox="0 0 32 32" fill="none" xmlns="http://www.w3.org/2000/svg">
<path d="M8.42927 17.3467C9.70927 17.3733 10.8959 18.0133 11.6959 19.1333C12.1867 19.8165 12.8336 20.3726 13.5827 20.7552C14.3318 21.1379 15.1614 21.3361 16.0026 21.3333C17.7226 21.3333 19.3359 20.5067 20.3093 19.12C21.1093 18 22.2959 17.36 23.5759 17.3333C22.6159 15.7067 18.7759 14.6667 16.0026 14.6667C13.2426 14.6667 9.38927 15.7067 8.42927 17.3467ZM5.33594 17.3333C7.54927 17.3333 9.33594 15.5467 9.33594 13.3333C9.33594 11.12 7.54927 9.33334 5.33594 9.33334C3.1226 9.33334 1.33594 11.12 1.33594 13.3333C1.33594 15.5467 3.1226 17.3333 5.33594 17.3333ZM26.6693 17.3333C28.8826 17.3333 30.6693 15.5467 30.6693 13.3333C30.6693 11.12 28.8826 9.33334 26.6693 9.33334C24.4559 9.33334 22.6693 11.12 22.6693 13.3333C22.6693 15.5467 24.4559 17.3333 26.6693 17.3333ZM16.0026 13.3333C18.2159 13.3333 20.0026 11.5467 20.0026 9.33334C20.0026 7.12001 18.2159 5.33334 16.0026 5.33334C13.7893 5.33334 12.0026 7.12001 12.0026 9.33334C12.0026 11.5467 13.7893 13.3333 16.0026 13.3333Z" fill="#3D0072"/>
<path d="M28.0026 18.6667H23.6426C22.6159 18.6667 21.8426 19.2667 21.4026 19.8933C21.3493 19.9733 19.5893 22.6667 16.0026 22.6667C14.0959 22.6667 11.9626 21.8133 10.6026 19.8933C10.0826 19.16 9.26927 18.6667 8.3626 18.6667H4.0026C2.53594 18.6667 1.33594 19.8667 1.33594 21.3333V26.6667H10.6693V23.6533C12.2026 24.72 14.0559 25.3333 16.0026 25.3333C17.9493 25.3333 19.8026 24.72 21.3359 23.6533V26.6667H30.6693V21.3333C30.6693 19.8667 29.4693 18.6667 28.0026 18.6667Z" fill="#3D0072"/>
</svg>
