<svg width="171" height="137" viewBox="0 0 171 137" fill="none" xmlns="http://www.w3.org/2000/svg">
<g filter="url(#filter0_f_4772_8043)">
<ellipse cx="85.3222" cy="68.4603" rx="29.3222" ry="11.8685" fill="#0D9488"/>
<path d="M85.8409 63.3008L74.1406 65.2226V68.1052C74.1406 70.7717 79.1327 73.2652 85.8409 73.8706C92.5491 73.2652 97.5412 70.7717 97.5412 68.1052V65.2226L85.8409 63.3008ZM85.8409 68.5809H94.9411C94.2521 70.5603 90.677 72.3236 85.8409 72.8761V68.5857H76.7407V65.8471L85.8409 64.353V68.5809Z" fill="white"/>
</g>
<circle cx="81" cy="38" r="25" fill="#0D9488"/>
<path d="M76.9536 32.445L78.9378 33.5561L77.8267 31.572L78.9378 29.5879L76.9536 30.699L74.9695 29.5879L76.0806 31.572L74.9695 33.5561L76.9536 32.445ZM86.4774 40.2228L84.4933 39.1117L85.6044 41.0958L84.4933 43.08L86.4774 41.9688L88.4616 43.08L87.3505 41.0958L88.4616 39.1117L86.4774 40.2228ZM88.4616 29.5879L86.4774 30.699L84.4933 29.5879L85.6044 31.572L84.4933 33.5561L86.4774 32.445L88.4616 33.5561L87.3505 31.572L88.4616 29.5879ZM82.406 33.7863C82.3326 33.7127 82.2454 33.6544 82.1494 33.6145C82.0534 33.5747 81.9504 33.5542 81.8465 33.5542C81.7426 33.5542 81.6396 33.5747 81.5436 33.6145C81.4476 33.6544 81.3604 33.7127 81.287 33.7863L72.0251 43.0482C71.9515 43.1216 71.8931 43.2088 71.8533 43.3049C71.8135 43.4009 71.793 43.5038 71.793 43.6077C71.793 43.7117 71.8135 43.8146 71.8533 43.9106C71.8931 44.0066 71.9515 44.0938 72.0251 44.1673L73.8822 46.0244C74.1917 46.3339 74.6917 46.3339 75.0013 46.0244L84.2552 36.7704C84.3288 36.697 84.3872 36.6098 84.427 36.5138C84.4668 36.4178 84.4873 36.3148 84.4873 36.2109C84.4873 36.107 84.4668 36.004 84.427 35.908C84.3872 35.812 84.3288 35.7248 84.2552 35.6514L82.406 33.7863ZM81.5886 38.1434L79.906 36.4609L81.8425 34.5244L83.5251 36.2069L81.5886 38.1434Z" fill="white"/>
<defs>
<filter id="filter0_f_4772_8043" x="0.148151" y="0.739948" width="170.348" height="135.441" filterUnits="userSpaceOnUse" color-interpolation-filters="sRGB">
<feFlood flood-opacity="0" result="BackgroundImageFix"/>
<feBlend mode="normal" in="SourceGraphic" in2="BackgroundImageFix" result="shape"/>
<feGaussianBlur stdDeviation="27.9259" result="effect1_foregroundBlur_4772_8043"/>
</filter>
</defs>
</svg>
