<svg width="720" height="723" viewBox="0 0 720 723" fill="none" xmlns="http://www.w3.org/2000/svg">
<rect width="724" height="723" fill="#E8356D"/>
<path d="M190.054 264.61C143.869 328.935 122.716 407.891 130.559 486.69C138.402 565.489 174.701 638.727 232.66 692.687C290.618 746.647 366.26 777.628 445.418 779.828C524.576 782.027 601.821 755.294 662.686 704.636C723.552 653.978 763.862 582.869 776.069 504.626C788.275 426.384 771.54 346.375 728.997 279.585C686.455 212.794 621.023 163.803 544.956 141.787C468.89 119.77 387.406 126.238 315.765 159.98L382.895 302.508C419.86 285.098 461.905 281.76 501.154 293.121C540.404 304.481 574.166 329.76 596.117 364.223C618.069 398.686 626.704 439.97 620.406 480.342C614.107 520.714 593.308 557.406 561.902 583.545C530.496 609.684 490.638 623.478 449.794 622.343C408.949 621.208 369.919 605.222 340.013 577.379C310.107 549.537 291.377 511.747 287.33 471.087C283.283 430.427 294.198 389.687 318.029 356.496L190.054 264.61Z" fill="#E83D73"/>
</svg>
