<svg width="66" height="65" viewBox="0 0 66 65" fill="none" xmlns="http://www.w3.org/2000/svg">
<rect x="0.515625" width="65" height="65" rx="5.99706" fill="white"/>
<path d="M24.625 45C23.9031 45 23.2854 44.7577 22.7717 44.2732C22.2572 43.7879 22 43.2048 22 42.5238V30.1429C22 29.4619 22.2572 28.8788 22.7717 28.3934C23.2854 27.9089 23.9031 27.6667 24.625 27.6667H25.9375V25.1905C25.9375 23.4778 26.5776 22.0177 27.8577 20.8101C29.1369 19.6034 30.6844 19 32.5 19C34.3156 19 35.8635 19.6034 37.1436 20.8101C38.4229 22.0177 39.0625 23.4778 39.0625 25.1905V27.6667H40.375C41.0969 27.6667 41.7151 27.9089 42.2296 28.3934C42.7432 28.8788 43 29.4619 43 30.1429V42.5238C43 43.2048 42.7432 43.7879 42.2296 44.2732C41.7151 44.7577 41.0969 45 40.375 45H24.625ZM32.5 38.8095C33.2219 38.8095 33.8401 38.5673 34.3546 38.0828C34.8682 37.5974 35.125 37.0143 35.125 36.3333C35.125 35.6524 34.8682 35.0692 34.3546 34.5839C33.8401 34.0994 33.2219 33.8571 32.5 33.8571C31.7781 33.8571 31.1604 34.0994 30.6468 34.5839C30.1323 35.0692 29.875 35.6524 29.875 36.3333C29.875 37.0143 30.1323 37.5974 30.6468 38.0828C31.1604 38.5673 31.7781 38.8095 32.5 38.8095ZM28.5625 27.6667H36.4375V25.1905C36.4375 24.1587 36.0547 23.2817 35.2891 22.5595C34.5234 21.8373 33.5937 21.4762 32.5 21.4762C31.4063 21.4762 30.4766 21.8373 29.7109 22.5595C28.9453 23.2817 28.5625 24.1587 28.5625 25.1905V27.6667Z" fill="#E8356D"/>
</svg>
