<svg width="66" height="65" viewBox="0 0 66 65" fill="none" xmlns="http://www.w3.org/2000/svg">
<rect x="0.515625" width="65" height="65" rx="5.99706" fill="white"/>
<path d="M37.3404 20.6213C40.0093 21.2144 42.2236 22.5785 43.9831 24.7137C45.7426 26.8488 46.6224 29.3497 46.6224 32.2164C46.6224 34.0154 46.2614 35.6761 45.5394 37.1984C44.8182 38.7207 43.8348 40.0255 42.5893 41.1128H44.25C44.5861 41.1128 44.8676 41.2267 45.0946 41.4545C45.3223 41.6814 45.4362 41.963 45.4362 42.299C45.4362 42.6351 45.3223 42.9167 45.0946 43.1436C44.8676 43.3714 44.5861 43.4852 44.25 43.4852H39.5052C39.1691 43.4852 38.8876 43.3714 38.6606 43.1436C38.4329 42.9167 38.319 42.6351 38.319 42.299V37.5542C38.319 37.2182 38.4329 36.9362 38.6606 36.7085C38.8876 36.4815 39.1691 36.368 39.5052 36.368C39.8413 36.368 40.1228 36.4815 40.3498 36.7085C40.5775 36.9362 40.6914 37.2182 40.6914 37.5542V39.6004C41.7788 38.7108 42.6439 37.6333 43.2868 36.368C43.9289 35.1028 44.25 33.7189 44.25 32.2164C44.25 29.9428 43.5533 27.9607 42.1599 26.2699C40.7658 24.58 39.011 23.4879 36.8956 22.9937C36.6188 22.9344 36.3914 22.796 36.2135 22.5785C36.0356 22.361 35.9466 22.1139 35.9466 21.8371C35.9466 21.4417 36.085 21.1155 36.3618 20.8585C36.6386 20.6015 36.9648 20.5224 37.3404 20.6213ZM32.1804 43.8114C29.5115 43.2183 27.2973 41.8542 25.5377 39.7191C23.7782 37.5839 22.8984 35.083 22.8984 32.2164C22.8984 30.4173 23.2594 28.7566 23.9814 27.2343C24.7026 25.712 25.686 24.4072 26.9315 23.3199H25.2708C24.9347 23.3199 24.6532 23.206 24.4263 22.9782C24.1985 22.7513 24.0846 22.4698 24.0846 22.1337C24.0846 21.7976 24.1985 21.5157 24.4263 21.2879C24.6532 21.0609 24.9347 20.9475 25.2708 20.9475H30.0156C30.3517 20.9475 30.6336 21.0609 30.8614 21.2879C31.0883 21.5157 31.2018 21.7976 31.2018 22.1337V26.8785C31.2018 27.2146 31.0883 27.4965 30.8614 27.7242C30.6336 27.9512 30.3517 28.0647 30.0156 28.0647C29.6795 28.0647 29.3976 27.9512 29.1699 27.7242C28.9429 27.4965 28.8294 27.2146 28.8294 26.8785V24.8323C27.7421 25.7021 26.8769 26.7749 26.234 28.0504C25.5919 29.3252 25.2708 30.7138 25.2708 32.2164C25.2708 34.4899 25.9679 36.4716 27.3621 38.1616C28.7555 39.8523 30.5099 40.9448 32.6253 41.439C32.902 41.4984 33.1294 41.6367 33.3073 41.8542C33.4853 42.0717 33.5742 42.3188 33.5742 42.5956C33.5742 42.991 33.4358 43.3172 33.1591 43.5742C32.8823 43.8312 32.5561 43.9103 32.1804 43.8114ZM33.0701 37.1687C32.9119 37.1687 32.7637 37.1442 32.6253 37.0952C32.4869 37.0454 32.3584 36.9611 32.2398 36.8425L28.8887 33.4619C28.6713 33.2444 28.5578 32.9724 28.5483 32.6458C28.538 32.3199 28.6515 32.0384 28.8887 31.8012C29.1062 31.5837 29.383 31.475 29.7191 31.475C30.0552 31.475 30.3319 31.5837 30.5494 31.8012L33.0701 34.3219L38.9714 28.4205C39.2087 28.1833 39.4854 28.0694 39.8018 28.0789C40.1181 28.0892 40.3949 28.2129 40.6321 28.4502C40.8496 28.6874 40.9635 28.9642 40.9737 29.2805C40.9832 29.5968 40.8693 29.8736 40.6321 30.1109L33.9004 36.8425C33.7818 36.9611 33.6533 37.0454 33.5149 37.0952C33.3765 37.1442 33.2282 37.1687 33.0701 37.1687Z" fill="#E8356D"/>
</svg>
