<svg width="40" height="40" viewBox="0 0 40 40" fill="none" xmlns="http://www.w3.org/2000/svg">
<path d="M20 35C28.2843 35 35 28.2843 35 20C35 11.7157 28.2843 5 20 5C11.7157 5 5 11.7157 5 20C5 28.2843 11.7157 35 20 35Z" stroke="#3D0072" stroke-width="2" stroke-linecap="round" stroke-linejoin="round"/>
<path d="M6.00391 15H34.0039M6.00391 25H34.0039M19.1706 5C16.3628 9.49935 14.8742 14.6964 14.8742 20C14.8742 25.3036 16.3628 30.5006 19.1706 35M20.8372 5C23.645 9.49935 25.1336 14.6964 25.1336 20C25.1336 25.3036 23.645 30.5006 20.8372 35" stroke="#3D0072" stroke-width="2" stroke-linecap="round" stroke-linejoin="round"/>
</svg>
