<svg width="397" height="326" viewBox="0 0 397 326" fill="none" xmlns="http://www.w3.org/2000/svg">
<rect y="221.051" width="374.177" height="104.958" rx="17.6401" transform="rotate(-2.59766 0 221.051)" fill="#8807F7"/>
<path d="M127.809 275.38C128.487 274.801 129.155 274.233 129.814 273.676C134.649 279.83 138.495 284.67 141.353 288.197C141.621 288.498 141.993 288.52 142.471 288.263C144.954 286.978 147.933 284.975 151.407 282.257C152.162 281.655 152.433 281.184 152.222 280.841C149.761 277.434 145.787 271.934 140.3 264.343C143.998 260.949 147.361 257.717 150.389 254.647C150.745 254.318 150.776 253.926 150.482 253.47C149.047 251.15 146.774 248.447 143.662 245.363C142.987 244.689 142.441 244.509 142.025 244.821C138.111 248.616 133.094 253.311 126.974 258.906C126.688 254.755 126.352 250.596 125.968 246.429C125.954 246.117 125.74 245.931 125.327 245.872C121.095 245.673 116.996 245.839 113.032 246.371C112.197 246.507 111.779 246.77 111.777 247.161C111.631 258.586 112.27 272.028 113.695 287.487C113.773 287.913 114.097 288.153 114.666 288.205C117.688 288.459 121.611 288.31 126.435 287.759C127.486 287.653 128.03 287.364 128.068 286.893C128.031 283.063 127.944 279.225 127.809 275.38ZM168.526 254.939C169.636 254.849 170.226 254.481 170.294 253.832C170.454 251.322 170.252 248.37 169.687 244.974C169.638 244.331 169.376 243.932 168.9 243.778C164.234 243.071 159.931 243.256 155.992 244.334C155.129 244.706 154.654 245.226 154.567 245.894C154.101 248.125 154.227 250.895 154.944 254.206C155.177 255.036 155.587 255.448 156.173 255.441C159.342 255.473 163.459 255.306 168.526 254.939ZM168.577 285.789C169.607 285.664 170.141 285.366 170.178 284.895C170.255 278.83 170.06 269.797 169.594 257.794C169.58 257.482 169.376 257.286 168.981 257.206C164.905 257 160.836 257.165 156.774 257.701C155.96 257.855 155.552 258.128 155.55 258.519C156.018 268.41 156.75 277.42 157.744 285.547C157.764 285.996 158.059 286.246 158.629 286.299C160.574 286.504 163.89 286.334 168.577 285.789ZM178.399 256.661C178.622 264.589 179.192 273.479 180.108 283.33C180.184 283.718 180.507 283.937 181.076 283.99C194.794 285.557 206.7 285.095 216.792 282.604C220.048 281.537 221.888 278.57 222.313 273.702C222.975 259.439 222.194 250.402 219.968 246.593C218.607 244.602 216.523 243.269 213.716 242.595C203.626 240.843 190.727 241.595 175.019 244.849C174.56 245.085 174.382 245.455 174.483 245.959C174.517 250.161 174.866 253.752 175.529 256.733C175.701 257.077 176.036 257.14 176.534 256.922C177.078 256.838 177.7 256.752 178.399 256.661ZM193.988 271.879C193.823 266.529 193.547 261.087 193.159 255.552C198.348 254.867 202.165 254.742 204.609 255.179C205.298 255.284 205.9 255.629 206.416 256.211C207.386 257.771 208.014 259.775 208.302 262.226C208.568 265.088 208.595 267.394 208.381 269.143C208.126 269.996 207.498 270.581 206.496 270.901C202.556 271.979 198.387 272.305 193.988 271.879ZM244.485 255.628C242.466 255.954 241.577 255.535 241.818 254.371C241.887 253.742 242.387 253.338 243.317 253.159C246.446 252.743 252.72 252.703 262.14 253.038C262.908 253.16 263.4 253.03 263.618 252.648C264.275 247.32 264.599 243.688 264.59 241.753C264.654 241.457 264.4 241.224 263.825 241.055C252.463 239.283 242.283 239.197 233.284 240.798C230.483 241.551 228.655 243.051 227.799 245.299C226.149 252.471 227.021 258.551 230.415 263.539C231.491 264.84 233.152 265.683 235.398 266.07C239.461 266.844 244.668 266.979 251.019 266.476C252.434 266.646 252.801 267.196 252.12 268.127C251.677 268.714 251.05 269.114 250.239 269.327C247.111 269.762 240.837 269.802 231.416 269.447C230.668 269.325 230.176 269.464 229.94 269.866C229.301 275.174 228.986 278.805 228.997 280.76C228.931 281.037 229.176 281.27 229.732 281.46C241.094 283.232 251.274 283.308 260.272 281.687C263.074 280.954 264.902 279.454 265.757 277.186C267.426 270.013 266.564 263.933 263.17 258.945C262.094 257.644 260.323 256.728 257.854 256.194C253.281 255.366 248.824 255.177 244.485 255.628Z" fill="white"/>
<rect x="23.0781" width="345.745" height="104.958" rx="17.6401" transform="rotate(6.54336 23.0781 0)" fill="#FB851C"/>
<path d="M111.853 70.2748C111.986 69.2874 112.11 68.2989 112.223 67.3093C116.827 67.6211 120.95 67.9269 124.592 68.2267C125.021 68.2563 125.298 68.0718 125.422 67.6732C126.053 65.6027 126.407 62.8517 126.486 59.4204C126.493 58.6742 126.265 58.2646 125.802 58.1918C122.544 57.7985 118.385 57.3804 113.324 56.9376C113.412 56.0039 113.499 55.0703 113.587 54.1367C119.411 54.6081 125.205 55.1647 130.971 55.8063C131.598 55.8193 132.005 55.3549 132.192 54.413C132.979 50.2961 133.233 46.8751 132.956 44.15C132.883 43.5911 132.554 43.288 131.969 43.2406C118.252 41.3133 106.365 40.2251 96.3084 39.9759C95.7801 39.9546 95.4143 40.3157 95.2111 41.0591C94.8486 44.7331 94.818 48.514 95.1191 52.4018C95.1954 52.7644 95.4482 52.9605 95.8773 52.9901C96.7766 53.0342 97.6661 53.0773 98.546 53.1192C97.4836 61.3526 96.6133 70.4828 95.935 80.5099C95.9442 80.9435 96.2258 81.2313 96.7796 81.3735C98.9023 81.8922 101.512 82.28 104.608 82.5368C114.873 83.7142 123.456 84.3842 130.357 84.5467C130.845 84.5829 131.158 84.3338 131.298 83.7994C132.032 81.1706 132.473 77.6727 132.62 73.3055C132.651 72.3458 132.407 71.8165 131.888 71.7176C127.06 71.4783 120.381 70.9974 111.853 70.2748ZM152.247 80.0981C157.067 80.9262 161.601 81.4168 165.85 81.5699C166.361 84.656 166.919 87.9343 167.523 91.4047C167.627 91.8688 168.214 92.0639 169.284 91.9901C174.049 91.2391 177.902 90.472 180.843 89.6887C181.369 89.5525 181.639 89.2591 181.651 88.8083C180.375 73.5439 178.671 60.3733 176.54 49.2967C176.418 48.6535 175.879 48.2083 174.924 47.9612C167.547 46.2893 159.548 45.4996 150.927 45.592C150.249 45.6715 149.822 45.8782 149.646 46.2119C145.063 56.5184 140.305 69.0363 135.372 83.7653C135.282 84.2072 135.488 84.5552 135.989 84.8093C138.558 86.5784 141.991 88.191 146.286 89.647C147.312 89.9613 147.928 89.9041 148.134 89.4756C149.519 86.489 150.89 83.3631 152.247 80.0981ZM159.022 62.6805C160.613 62.863 162.157 63.0303 163.653 63.1822C163.957 65.8514 164.291 68.5044 164.657 71.1414C162.113 70.8693 159.296 70.5757 156.207 70.2606C157.184 67.7384 158.122 65.2117 159.022 62.6805ZM216.965 67.8522C217.062 69.0625 217.037 69.964 216.89 70.5567C216.77 71.7813 216.291 72.9551 215.454 74.0781C215.013 74.4992 214.515 74.7272 213.96 74.7619C209.458 74.9336 205.83 74.5174 203.075 73.5133C203.378 70.6975 203.662 67.8794 203.926 65.0592C208.075 65.3974 211.386 65.7575 213.858 66.1394C215.751 66.4351 216.786 67.0061 216.965 67.8522ZM202.007 82.5619C208.104 90.083 212.729 95.607 215.883 99.1339C216.143 99.4389 216.514 99.4618 216.996 99.2025C219.381 97.9428 222.242 95.9707 225.577 93.2865C226.293 92.7002 226.535 92.2265 226.301 91.8655C224.89 90.1113 222.861 87.4899 220.214 84.0015C220.846 83.9757 221.479 83.9402 222.113 83.895C224.39 83.586 226.122 82.7132 227.309 81.2766C229.279 78.4948 230.286 72.3782 230.328 62.9269C230.01 59.3518 228.657 56.9259 226.267 55.6492C219.932 52.7797 213.798 51.1521 207.866 50.7666C198.956 50.1181 191.898 50.4684 186.69 51.8174C186.04 52.1753 185.663 52.5449 185.561 52.9263C185.245 55.6817 185.198 59.0872 185.421 63.143C185.493 63.5444 185.743 63.7599 186.172 63.7894C187.089 63.8552 187.997 63.9102 188.896 63.9544C187.847 72.0713 186.992 80.8986 186.33 90.4361C186.339 90.8697 186.611 91.1564 187.146 91.2963C190.097 92.3033 193.932 93.1462 198.651 93.8251C199.706 93.8871 200.279 93.6874 200.371 93.2262C201.017 89.4863 201.562 85.9315 202.007 82.5619ZM247.77 83.6236C251.135 90.2809 254.177 95.7313 256.894 99.9749C257.345 100.675 257.723 101.063 258.029 101.137C263.065 101.793 267.28 101.382 270.674 99.9041C271.646 99.4848 272.216 98.9702 272.384 98.3604C273.763 85.3076 274.772 73.087 275.41 61.6988C275.481 61.0779 275.216 60.6445 274.615 60.3986C272.656 59.4858 269.214 58.6389 264.291 57.8579C263.209 57.6944 262.601 57.9392 262.467 58.5923C261.836 62.5501 261.081 67.7617 260.201 74.227C256.714 67.4377 253.604 61.6452 250.871 56.8494C250.693 56.5145 250.508 56.3261 250.316 56.2845C244.625 55.5137 240.306 55.8931 237.358 57.4227C236.278 57.9279 235.709 58.4327 235.651 58.9372C234.272 71.9901 233.263 84.2106 232.625 95.5988C232.574 96.222 232.837 96.6651 233.417 96.9281C235.378 97.8215 238.821 98.6588 243.745 99.4397C244.827 99.6032 245.435 99.3584 245.569 98.7053C246.186 94.864 246.92 89.8367 247.77 83.6236Z" fill="white"/>
<rect x="58.3555" y="135.828" width="248.725" height="104.958" rx="17.6401" transform="rotate(-8.72964 58.3555 135.828)" fill="#FFD00D"/>
<path d="M130.554 174.419C128.758 167.996 126.927 161.924 125.06 156.204C124.873 155.758 124.231 155.63 123.134 155.818C118.087 156.672 114.087 157.642 111.131 158.728C110.57 158.933 110.324 159.257 110.392 159.701C114.08 174.844 117.659 187.149 121.128 196.615C121.265 196.989 121.884 197.289 122.986 197.515C127.402 197.963 131.669 197.831 135.789 197.12C136.205 196.997 136.487 196.776 136.635 196.456C137.983 193.523 139.462 190.282 141.071 186.735C143.651 189.639 146.024 192.288 148.19 194.682C148.408 194.945 148.705 195.077 149.08 195.079C153.204 194.525 157.305 193.371 161.383 191.619C162.366 191.073 162.867 190.601 162.885 190.203C163.354 180.132 163.076 167.321 162.052 151.769C161.984 151.325 161.661 151.088 161.083 151.058C157.919 150.911 153.802 151.188 148.732 151.887C147.629 152.037 147.064 152.351 147.039 152.829C146.966 158.788 147.032 165.072 147.236 171.68C144.695 169.541 141.759 167.087 138.429 164.318C138.169 164.041 137.886 163.937 137.58 164.003C137.268 164.032 137.03 164.216 136.865 164.558C134.47 168.265 132.367 171.552 130.554 174.419ZM180.909 158.565C182.004 158.358 182.55 157.928 182.549 157.276C182.44 154.764 181.923 151.849 180.999 148.533C180.882 147.899 180.578 147.531 180.088 147.428C175.374 147.223 171.116 147.867 167.314 149.36C166.495 149.822 166.079 150.39 166.064 151.064C165.839 153.331 166.26 156.073 167.326 159.288C167.647 160.088 168.098 160.454 168.68 160.384C171.834 160.078 175.911 159.471 180.909 158.565ZM184.255 189.233C185.266 188.999 185.765 188.646 185.752 188.173C185.181 182.136 184.022 173.174 182.276 161.29C182.229 160.981 182.005 160.808 181.604 160.771C177.529 161.001 173.501 161.6 169.519 162.567C168.726 162.807 168.35 163.122 168.39 163.511C169.912 173.296 171.602 182.175 173.458 190.15C173.527 190.594 173.847 190.812 174.418 190.803C176.374 190.799 179.653 190.276 184.255 189.233ZM199.151 160.003C200.35 167.683 201.99 176.047 204.071 185.094C204.194 185.51 204.532 185.715 205.084 185.709C208.506 185.855 211.985 185.479 215.522 184.58C216.556 184.362 217.056 184.019 217.024 183.55C216.317 174.825 215.274 166.103 213.895 157.383C217.747 156.733 221.522 156.094 225.22 155.467C225.78 155.381 226.069 154.753 226.087 153.585C225.968 148.821 225.509 145.058 224.709 142.296C224.501 141.715 224.033 141.431 223.304 141.445C209.316 141.972 196.825 143.949 185.831 147.376C185.296 147.498 185.028 148.004 185.026 148.893C185.657 153.005 186.661 157.159 188.036 161.354C188.217 161.761 188.528 161.921 188.969 161.833C192.41 161.206 195.804 160.596 199.151 160.003ZM256.181 155.574C253.742 155.908 251.049 156.322 248.102 156.814C247.095 150.645 246.006 144.391 244.835 138.05C244.785 137.721 244.541 137.551 244.104 137.539C239.663 137.826 235.403 138.46 231.325 139.442C230.471 139.672 230.066 139.991 230.109 140.4C231.151 151.819 233.233 165.183 236.354 180.492C236.48 180.928 236.839 181.139 237.43 181.128C240.613 181.014 244.691 180.418 249.663 179.338C250.752 179.092 251.289 178.733 251.276 178.26C250.886 175.336 250.474 172.396 250.04 169.44C252.871 168.827 255.621 168.207 258.291 167.58C258.823 170.66 259.352 173.72 259.879 176.762C260.063 177.445 260.693 177.753 261.77 177.687C266.523 177.372 270.369 176.682 273.308 175.618C273.886 175.391 274.126 174.959 274.028 174.322C273.343 164.073 271.207 150.934 267.62 134.907C267.492 134.333 266.994 134.044 266.123 134.04C261.973 134.677 257.803 135.703 253.613 137.117C253.226 137.295 253.069 137.625 253.143 138.108C254.163 143.978 255.176 149.8 256.181 155.574Z" fill="black"/>
<circle cx="364.412" cy="198.451" r="31.7521" fill="white"/>
<g clip-path="url(#clip0_84_6741)">
<mask id="mask0_84_6741" style="mask-type:luminance" maskUnits="userSpaceOnUse" x="334" y="167" width="61" height="61">
<path d="M394.164 167.201H334.164V227.201H394.164V167.201Z" fill="white"/>
</mask>
<g mask="url(#mask0_84_6741)">
<mask id="mask1_84_6741" style="mask-type:luminance" maskUnits="userSpaceOnUse" x="334" y="167" width="61" height="61">
<path d="M334.164 167.201H394.164V227.201H334.164V167.201Z" fill="white"/>
</mask>
<g mask="url(#mask1_84_6741)">
<path d="M364.166 177.871C353.49 177.871 344.836 186.525 344.836 197.201C344.836 207.877 353.49 216.531 364.166 216.531C374.842 216.531 383.496 207.877 383.496 197.201C383.496 186.525 374.842 177.871 364.166 177.871Z" fill="#DE5A00"/>
<path d="M364.166 177.871C353.49 177.871 344.836 186.525 344.836 197.201C344.836 207.877 353.49 216.531 364.166 216.531C374.842 216.531 383.496 207.877 383.496 197.201C383.496 186.525 374.842 177.871 364.166 177.871Z" fill="#EF7B00"/>
<path d="M364.166 177.871C353.49 177.871 344.836 186.525 344.836 197.201C344.836 207.877 353.49 216.531 364.166 216.531C374.842 216.531 383.496 207.877 383.496 197.201C383.496 186.525 374.842 177.871 364.166 177.871ZM364.166 211.501C356.268 211.501 349.866 205.099 349.866 197.201C349.866 189.303 356.268 182.901 364.166 182.901C372.064 182.901 378.466 189.303 378.466 197.201C378.466 205.099 372.064 211.501 364.166 211.501Z" fill="#DE5A00"/>
<path d="M367.776 196.2C367.068 195.922 366.22 195.668 365.233 195.439V191.088C365.561 191.21 365.832 191.387 366.046 191.619C366.206 191.793 366.337 191.984 366.44 192.191C366.821 192.958 367.62 193.471 368.53 193.471H368.658C370.454 193.471 371.593 191.648 370.663 190.222C370.354 189.747 369.966 189.312 369.498 188.917C368.379 187.972 366.957 187.409 365.233 187.229V186.219C365.233 185.633 364.759 185.158 364.173 185.158C363.587 185.158 363.112 185.633 363.112 186.219V187.197C361.338 187.333 359.871 187.902 358.713 188.908C357.374 190.071 356.705 191.519 356.705 193.254C356.705 196.212 358.841 198.181 363.112 199.163V203.644C362.554 203.532 362.081 203.316 361.695 202.994C361.398 202.747 361.17 202.446 361.01 202.091C360.67 201.335 359.849 200.862 358.967 200.862C357.266 200.862 356.168 202.563 357.003 203.94C357.047 204.014 357.094 204.087 357.142 204.16C357.814 205.178 358.74 205.979 359.922 206.563C360.875 207.034 361.938 207.315 363.112 207.406V208.185C363.112 208.771 363.587 209.246 364.173 209.246C364.759 209.246 365.233 208.771 365.233 208.185V207.378C366.922 207.206 368.341 206.676 369.49 205.786C370.912 204.684 371.623 203.241 371.623 201.458C371.623 198.964 370.341 197.212 367.776 196.2ZM362.14 194.402C361.63 194.046 361.375 193.579 361.375 193.001C361.375 192.387 361.599 191.881 362.047 191.483C362.329 191.233 362.684 191.062 363.112 190.969V194.879C362.708 194.731 362.384 194.572 362.14 194.402ZM366.189 203.166C365.935 203.368 365.615 203.514 365.233 203.609V199.779C365.543 199.903 365.806 200.032 366.021 200.166C366.609 200.534 366.903 201.036 366.903 201.675C366.903 202.289 366.665 202.786 366.189 203.166Z" fill="#DE5A00"/>
<path d="M364.166 177.871C353.49 177.871 344.836 186.525 344.836 197.201C344.836 207.877 353.49 216.531 364.166 216.531C374.842 216.531 383.496 207.877 383.496 197.201C383.496 186.525 374.842 177.871 364.166 177.871ZM364.166 211.501C356.268 211.501 349.866 205.099 349.866 197.201C349.866 189.303 356.268 182.901 364.166 182.901C372.064 182.901 378.466 189.303 378.466 197.201C378.466 205.099 372.064 211.501 364.166 211.501Z" fill="#FFC711"/>
<mask id="mask2_84_6741" style="mask-type:alpha" maskUnits="userSpaceOnUse" x="344" y="177" width="40" height="40">
<mask id="mask3_84_6741" style="mask-type:luminance" maskUnits="userSpaceOnUse" x="334" y="167" width="61" height="61">
<path d="M334.164 167.201H394.164V227.201H334.164V167.201Z" fill="white"/>
</mask>
<g mask="url(#mask3_84_6741)">
<path d="M364.166 177.871C353.49 177.871 344.836 186.525 344.836 197.201C344.836 207.877 353.49 216.531 364.166 216.531C374.842 216.531 383.496 207.877 383.496 197.201C383.496 186.525 374.842 177.871 364.166 177.871ZM364.166 211.501C356.268 211.501 349.866 205.099 349.866 197.201C349.866 189.303 356.268 182.901 364.166 182.901C372.064 182.901 378.466 189.303 378.466 197.201C378.466 205.099 372.064 211.501 364.166 211.501Z" fill="#FFC711"/>
<path d="M367.776 196.2C367.068 195.922 366.22 195.668 365.233 195.439V191.088C365.561 191.21 365.832 191.387 366.046 191.619C366.206 191.793 366.337 191.984 366.44 192.191C366.821 192.958 367.62 193.471 368.53 193.471H368.658C370.454 193.471 371.593 191.648 370.663 190.222C370.354 189.747 369.966 189.312 369.498 188.917C368.379 187.972 366.957 187.409 365.233 187.229V186.219C365.233 185.633 364.759 185.158 364.173 185.158C363.587 185.158 363.112 185.633 363.112 186.219V187.197C361.338 187.333 359.871 187.902 358.713 188.908C357.374 190.071 356.705 191.519 356.705 193.254C356.705 196.212 358.841 198.181 363.112 199.163V203.644C362.554 203.532 362.081 203.316 361.695 202.994C361.398 202.747 361.17 202.446 361.01 202.091C360.67 201.335 359.849 200.862 358.967 200.862C357.266 200.862 356.168 202.563 357.003 203.94C357.047 204.014 357.094 204.087 357.142 204.16C357.814 205.178 358.74 205.979 359.922 206.563C360.875 207.034 361.938 207.315 363.112 207.406V208.185C363.112 208.771 363.587 209.246 364.173 209.246C364.759 209.246 365.233 208.771 365.233 208.185V207.378C366.922 207.206 368.341 206.676 369.49 205.786C370.912 204.684 371.623 203.241 371.623 201.458C371.623 198.964 370.341 197.212 367.776 196.2ZM362.14 194.402C361.63 194.046 361.375 193.579 361.375 193.001C361.375 192.387 361.599 191.881 362.047 191.483C362.329 191.233 362.684 191.062 363.112 190.969V194.879C362.708 194.731 362.384 194.572 362.14 194.402ZM366.189 203.166C365.935 203.368 365.615 203.514 365.233 203.609V199.779C365.543 199.903 365.806 200.032 366.021 200.166C366.609 200.534 366.903 201.036 366.903 201.675C366.903 202.289 366.665 202.786 366.189 203.166Z" fill="#FFC711"/>
</g>
</mask>
<g mask="url(#mask2_84_6741)">
<path d="M377.497 176.417L350.576 221.22L340.476 215.151L367.396 170.348L377.497 176.417Z" fill="#FFE286"/>
</g>
</g>
</g>
<circle cx="366.164" cy="197.201" r="13" fill="#EF7B00"/>
<path d="M359.164 203.201V192.253C359.164 192.02 359.241 191.794 359.384 191.61C359.526 191.426 359.725 191.295 359.951 191.236C360.176 191.178 360.414 191.196 360.628 191.288C360.842 191.38 361.019 191.54 361.132 191.743L367.196 202.659C367.309 202.863 367.486 203.023 367.7 203.114C367.914 203.206 368.152 203.224 368.377 203.166C368.603 203.108 368.802 202.976 368.945 202.792C369.087 202.608 369.164 202.382 369.164 202.149V191.201M357.164 195.201H371.164M357.164 199.201H371.164" stroke="#FFE286" stroke-width="2" stroke-linecap="round" stroke-linejoin="round"/>
</g>
<defs>
<clipPath id="clip0_84_6741">
<rect width="60" height="60" fill="white" transform="translate(336.164 167.201)"/>
</clipPath>
</defs>
</svg>
