<svg width="421" height="329" viewBox="0 0 421 329" fill="none" xmlns="http://www.w3.org/2000/svg">
<rect x="16" y="224" width="374.177" height="104.958" rx="17.6401" transform="rotate(-2.59766 16 224)" fill="#8807F7"/>
<path d="M142.883 277.911C143.561 277.333 144.229 276.765 144.888 276.207C149.723 282.361 153.569 287.202 156.427 290.728C156.695 291.029 157.068 291.051 157.545 290.795C160.028 289.509 163.007 287.507 166.481 284.788C167.236 284.187 167.508 283.715 167.297 283.372C164.835 279.965 160.861 274.466 155.374 266.874C159.072 263.481 162.435 260.249 165.463 257.179C165.82 256.85 165.851 256.457 165.556 256.001C164.121 253.681 161.848 250.979 158.736 247.894C158.061 247.221 157.515 247.04 157.099 247.352C153.185 251.147 148.168 255.842 142.048 261.438C141.762 257.286 141.427 253.127 141.042 248.961C141.028 248.648 140.814 248.463 140.401 248.403C136.169 248.204 132.071 248.371 128.106 248.902C127.272 249.038 126.853 249.301 126.852 249.692C126.705 261.117 127.344 274.559 128.769 290.018C128.847 290.445 129.171 290.684 129.74 290.736C132.763 290.99 136.686 290.842 141.509 290.29C142.56 290.184 143.104 289.896 143.142 289.425C143.105 285.594 143.019 281.756 142.883 277.911ZM183.6 257.47C184.711 257.381 185.3 257.012 185.368 256.364C185.528 253.854 185.326 250.901 184.761 247.505C184.712 246.862 184.45 246.463 183.974 246.309C179.308 245.602 175.005 245.787 171.066 246.865C170.203 247.237 169.728 247.757 169.641 248.426C169.175 250.656 169.301 253.427 170.018 256.737C170.251 257.568 170.661 257.979 171.247 257.972C174.416 258.004 178.534 257.837 183.6 257.47ZM183.651 288.32C184.681 288.195 185.215 287.897 185.253 287.426C185.329 281.362 185.135 272.328 184.668 260.325C184.654 260.013 184.45 259.817 184.055 259.737C179.979 259.531 175.91 259.696 171.848 260.232C171.034 260.386 170.626 260.659 170.624 261.05C171.093 270.942 171.824 279.951 172.818 288.078C172.839 288.527 173.133 288.778 173.703 288.83C175.648 289.035 178.964 288.865 183.651 288.32ZM193.474 259.192C193.696 267.12 194.266 276.01 195.182 285.861C195.258 286.249 195.581 286.469 196.151 286.521C209.869 288.088 221.774 287.627 231.867 285.135C235.122 284.069 236.963 281.101 237.387 276.233C238.05 261.97 237.268 252.934 235.043 249.124C233.681 247.133 231.597 245.8 228.79 245.126C218.701 243.375 205.802 244.126 190.093 247.38C189.635 247.616 189.456 247.986 189.557 248.49C189.591 252.692 189.94 256.283 190.603 259.264C190.775 259.608 191.11 259.671 191.609 259.453C192.152 259.37 192.774 259.283 193.474 259.192ZM209.062 274.41C208.898 269.06 208.621 263.618 208.233 258.083C213.423 257.398 217.239 257.274 219.683 257.71C220.373 257.816 220.975 258.16 221.49 258.743C222.46 260.302 223.089 262.307 223.376 264.757C223.642 267.619 223.669 269.925 223.455 271.675C223.2 272.527 222.572 273.113 221.57 273.432C217.63 274.51 213.461 274.836 209.062 274.41ZM259.559 258.159C257.541 258.485 256.652 258.066 256.892 256.902C256.961 256.273 257.461 255.869 258.391 255.69C261.52 255.274 267.794 255.234 277.214 255.569C277.982 255.691 278.475 255.561 278.692 255.18C279.35 249.851 279.674 246.22 279.664 244.284C279.729 243.988 279.474 243.755 278.899 243.586C267.538 241.814 257.357 241.728 248.358 243.329C245.557 244.082 243.729 245.582 242.873 247.831C241.223 255.003 242.096 261.083 245.489 266.071C246.565 267.371 248.226 268.214 250.472 268.601C254.535 269.375 259.742 269.51 266.093 269.007C267.508 269.177 267.875 269.728 267.194 270.658C266.751 271.245 266.124 271.645 265.313 271.858C262.185 272.293 255.911 272.333 246.49 271.979C245.742 271.856 245.25 271.996 245.014 272.397C244.375 277.705 244.061 281.337 244.071 283.291C244.005 283.568 244.251 283.801 244.807 283.991C256.168 285.763 266.348 285.839 275.346 284.218C278.148 283.485 279.976 281.985 280.832 279.717C282.5 272.544 281.638 266.464 278.244 261.476C277.169 260.176 275.397 259.259 272.929 258.726C268.355 257.897 263.899 257.708 259.559 258.159Z" fill="white"/>
<rect x="12" width="411.663" height="104.958" rx="17.6401" transform="rotate(6.54336 12 0)" fill="#FB851C"/>
<path d="M77.8128 52.2277C77.9098 53.4381 77.8851 54.3395 77.7385 54.9322C77.6176 56.1568 77.139 57.3307 76.3024 58.4536C75.8609 58.8748 75.363 59.1027 74.8085 59.1374C70.3065 59.3091 66.678 58.8929 63.9229 57.8888C64.2262 55.073 64.5101 52.2549 64.7746 49.4347C68.9233 49.7729 72.2339 50.133 74.7065 50.5149C76.5991 50.8106 77.6346 51.3816 77.8128 52.2277ZM62.8555 66.9374C68.9522 74.4585 73.5774 79.9825 76.7312 83.5094C76.9911 83.8144 77.362 83.8373 77.8439 83.5781C80.2296 82.3183 83.0901 80.3462 86.4256 77.662C87.1416 77.0757 87.3827 76.602 87.1489 76.241C85.738 74.4868 83.709 71.8654 81.062 68.377C81.694 68.3512 82.3272 68.3157 82.9615 68.2705C85.2381 67.9615 86.9699 67.0887 88.157 65.6521C90.1275 62.8703 91.1338 56.7537 91.1759 47.3024C90.8586 43.7273 89.5051 41.3014 87.1155 40.0247C80.7801 37.1552 74.6464 35.5276 68.7142 35.1421C59.8042 34.4936 52.7457 34.8439 47.5385 36.1929C46.888 36.5508 46.5114 36.9204 46.4087 37.3018C46.0926 40.0572 46.046 43.4627 46.2689 47.5185C46.3408 47.9199 46.5913 48.1354 47.0205 48.165C47.9369 48.2308 48.8447 48.2857 49.744 48.3299C48.695 56.4468 47.8398 65.2741 47.1783 74.8116C47.1876 75.2452 47.4594 75.5319 47.9938 75.6719C50.9452 76.6788 54.7803 77.5217 59.4993 78.2006C60.5538 78.2626 61.1272 78.063 61.2194 77.6017C61.8646 73.8618 62.41 70.3071 62.8555 66.9374ZM111.887 70.6151C112.02 69.6278 112.143 68.6393 112.256 67.6497C116.86 67.9615 120.983 68.2673 124.625 68.5671C125.054 68.5966 125.331 68.4121 125.455 68.0135C126.086 65.943 126.441 63.1921 126.52 59.7608C126.527 59.0145 126.298 58.605 125.835 58.5322C122.577 58.1388 118.418 57.7208 113.357 57.2779C113.445 56.3443 113.532 55.4107 113.62 54.477C119.444 54.9485 125.238 55.505 131.004 56.1466C131.631 56.1597 132.038 55.6952 132.225 54.7533C133.012 50.6365 133.267 47.2155 132.989 44.4904C132.916 43.9315 132.587 43.6283 132.003 43.581C118.285 41.6537 106.398 40.5655 96.3416 40.3163C95.8132 40.295 95.4475 40.656 95.2442 41.3994C94.8818 45.0735 94.8511 48.8544 95.1522 52.7421C95.2286 53.1048 95.4813 53.3009 95.9105 53.3304C96.8097 53.3746 97.6993 53.4176 98.5791 53.4596C97.5168 61.6929 96.6465 70.8232 95.9682 80.8502C95.9774 81.2838 96.2589 81.5717 96.8128 81.7138C98.9354 82.2325 101.545 82.6203 104.641 82.8772C114.906 84.0546 123.489 84.7245 130.391 84.887C130.878 84.9233 131.192 84.6742 131.331 84.1398C132.066 81.511 132.506 78.013 132.653 73.6459C132.685 72.6862 132.441 72.1569 131.921 72.058C127.093 71.8187 120.415 71.3377 111.887 70.6151ZM154.791 65.7461C154.75 59.0768 154.583 52.7372 154.289 46.7271C154.226 46.248 153.641 45.9548 152.532 45.8473C147.44 45.3418 143.325 45.2237 140.188 45.4929C139.592 45.5426 139.269 45.7906 139.218 46.2369C138.787 61.8166 138.998 74.6292 139.851 84.6747C139.885 85.0717 140.403 85.5243 141.406 86.0326C145.548 87.6283 149.7 88.6254 153.861 89.0241C154.295 89.0149 154.625 88.8758 154.853 88.607C156.925 86.1318 159.205 83.3953 161.692 80.3974C163.416 83.8783 165.007 87.0588 166.466 89.9391C166.607 90.2502 166.859 90.456 167.221 90.5565C171.345 91.1082 175.605 91.0758 180.001 90.4595C181.093 90.1916 181.7 89.868 181.822 89.4889C184.928 79.8974 188.035 67.4654 191.143 52.1928C191.194 51.7465 190.945 51.4329 190.396 51.2519C187.382 50.2771 183.337 49.4593 178.262 48.7986C177.158 48.6523 176.531 48.8065 176.381 49.261C174.741 54.9903 173.149 61.0693 171.606 67.4978C169.717 64.7648 167.531 61.6241 165.049 58.0759C164.871 57.741 164.625 57.5654 164.313 57.5492C164.005 57.4942 163.726 57.6096 163.477 57.8956C160.19 60.8411 157.295 63.4579 154.791 65.7461ZM203.623 86.3276C208.443 87.1557 212.977 87.6463 217.226 87.7994C217.737 90.8855 218.295 94.1638 218.899 97.6342C219.003 98.0983 219.59 98.2934 220.66 98.2196C225.426 97.4686 229.278 96.7015 232.219 95.9182C232.745 95.782 233.015 95.4886 233.027 95.0378C231.751 79.7734 230.047 66.6028 227.917 55.5262C227.794 54.883 227.255 54.4378 226.3 54.1907C218.923 52.5189 210.924 51.7291 202.303 51.8215C201.625 51.901 201.199 52.1077 201.023 52.4414C196.439 62.7479 191.681 75.2658 186.748 89.9949C186.658 90.4367 186.864 90.7847 187.365 91.0388C189.934 92.8079 193.367 94.4205 197.662 95.8765C198.688 96.1908 199.304 96.1336 199.51 95.7052C200.895 92.7185 202.266 89.5926 203.623 86.3276ZM210.398 68.91C211.99 69.0925 213.533 69.2598 215.03 69.4118C215.333 72.0809 215.668 74.734 216.033 77.371C213.489 77.0988 210.672 76.8052 207.583 76.4901C208.56 73.9679 209.499 71.4412 210.398 68.91ZM268.341 74.0817C268.438 75.2921 268.413 76.1935 268.267 76.7862C268.146 78.0108 267.667 79.1847 266.831 80.3076C266.389 80.7288 265.891 80.9567 265.337 80.9914C260.835 81.1631 257.206 80.7469 254.451 79.7428C254.754 76.927 255.038 74.1089 255.303 71.2887C259.451 71.6269 262.762 71.987 265.235 72.3689C267.127 72.6646 268.163 73.2356 268.341 74.0817ZM253.384 88.7914C259.48 96.3125 264.106 101.837 267.259 105.363C267.519 105.668 267.89 105.691 268.372 105.432C270.758 104.172 273.618 102.2 276.954 99.516C277.67 98.9297 277.911 98.456 277.677 98.095C276.266 96.3408 274.237 93.7194 271.59 90.231C272.222 90.2052 272.855 90.1697 273.49 90.1245C275.766 89.8155 277.498 88.9427 278.685 87.5061C280.656 84.7243 281.662 78.6077 281.704 69.1564C281.387 65.5813 280.033 63.1554 277.644 61.8787C271.308 59.0092 265.174 57.3816 259.242 56.9961C250.332 56.3476 243.274 56.6979 238.067 58.0469C237.416 58.4048 237.039 58.7744 236.937 59.1558C236.621 61.9112 236.574 65.3167 236.797 69.3725C236.869 69.7739 237.119 69.9894 237.549 70.019C238.465 70.0848 239.373 70.1397 240.272 70.1839C239.223 78.3008 238.368 87.1281 237.706 96.6656C237.716 97.0992 237.987 97.3859 238.522 97.5259C241.473 98.5328 245.308 99.3757 250.027 100.055C251.082 100.117 251.655 99.917 251.748 99.4557C252.393 95.7158 252.938 92.1611 253.384 88.7914ZM289.259 75.2721C288.22 83.1345 287.37 92.0017 286.709 101.874C286.723 102.268 287.007 102.537 287.561 102.679C300.855 106.406 312.683 107.841 323.043 106.985C326.427 106.449 328.715 103.812 329.908 99.0729C332.828 85.0959 333.492 76.0501 331.9 71.9356C330.872 69.7535 329.026 68.1067 326.362 66.995C316.679 63.6628 303.824 62.3555 287.798 63.073C287.308 63.233 287.073 63.5697 287.093 64.0831C286.459 68.2372 286.233 71.8384 286.414 74.8867C286.529 75.2538 286.85 75.3692 287.377 75.233C287.927 75.2371 288.554 75.2502 289.259 75.2721ZM302.232 92.7726C302.92 87.4648 303.512 82.0478 304.008 76.5214C309.24 76.6694 313.028 77.153 315.372 77.9723C316.035 78.1861 316.575 78.6215 316.991 79.2787C317.701 80.9722 318.004 83.0514 317.898 85.5163C317.706 88.3843 317.366 90.6651 316.877 92.3587C316.49 93.1596 315.777 93.6381 314.737 93.794C310.676 94.2326 306.508 93.8921 302.232 92.7726ZM354.67 84.7506C352.625 84.7519 351.814 84.1969 352.236 83.0854C352.405 82.4756 352.962 82.1562 353.909 82.1272C357.064 82.2139 363.265 83.1709 372.512 84.9982C373.251 85.2403 373.758 85.1903 374.033 84.8483C375.529 79.6922 376.425 76.1581 376.723 74.246C376.834 73.9639 376.62 73.6935 376.079 73.4349C365.144 69.8804 355.106 68.1786 345.967 68.3296C343.082 68.6278 341.038 69.8187 339.836 71.9023C337.068 78.7211 336.964 84.8625 339.522 90.3263C340.377 91.7809 341.883 92.8776 344.039 93.6165C347.928 95.0257 353.047 95.9865 359.397 96.4986C360.767 96.8917 361.042 97.4933 360.222 98.3036C359.692 98.8129 359.009 99.1081 358.174 99.1893C355.017 99.122 348.816 98.165 339.572 96.3183C338.852 96.0785 338.344 96.1381 338.047 96.4973C336.573 101.636 335.686 105.171 335.386 107.103C335.277 107.366 335.482 107.635 336.001 107.911C346.937 111.465 356.975 113.157 366.117 112.987C368.999 112.708 371.043 111.517 372.247 109.414C375.034 102.598 375.149 96.4574 372.591 90.9936C371.735 89.5389 370.132 88.3524 367.78 87.4338C363.396 85.8891 359.026 84.9946 354.67 84.7506Z" fill="white"/>
<rect x="74" y="139" width="248.725" height="104.958" rx="17.6401" transform="rotate(-8.72964 74 139)" fill="#FFD00D"/>
<path d="M137.241 178.123C138.367 186.23 139.909 195.112 141.866 204.771C141.989 205.187 142.327 205.392 142.879 205.386C145.909 205.296 149.803 204.728 154.563 203.681C155.596 203.463 156.097 203.119 156.064 202.65C155.525 198.109 154.923 193.548 154.26 188.967C158.789 187.836 162.862 186.885 166.478 186.112C166.899 186.028 167.118 185.777 167.133 185.36C167.206 183.392 166.829 180.743 166.001 177.412C165.831 176.687 165.512 176.351 165.046 176.403C161.781 176.884 157.629 177.581 152.592 178.493C152.432 177.45 152.251 176.401 152.049 175.345C157.785 174.346 163.514 173.437 169.237 172.617C169.865 172.462 170.142 171.886 170.068 170.889C169.774 166.528 169.145 163.008 168.18 160.331C167.978 159.789 167.588 159.562 167.009 159.651C153.255 161.19 141.476 163.107 131.672 165.403C131.137 165.525 130.871 165.98 130.874 166.77C131.458 170.574 132.391 174.402 133.675 178.256C133.85 178.624 134.148 178.766 134.57 178.681C135.471 178.504 136.362 178.317 137.241 178.123ZM214.779 153.412C217.685 153.678 220.031 155.185 221.817 157.934C224.044 161.504 225.688 169.699 226.748 182.519C226.789 188.065 225.269 191.421 222.188 192.586C207.979 196.566 195.6 198.308 185.051 197.814C183.444 197.646 182.042 196.942 180.844 195.703C177.841 192.232 175.73 186.401 174.512 178.21C173.727 171.809 173.879 166.945 174.968 163.616C175.402 161.81 176.801 160.43 179.164 159.474C190.752 155.027 202.624 153.007 214.779 153.412ZM209.316 183.269C210.329 182.916 210.95 182.327 211.178 181.501C211.572 180.077 211.6 178.008 211.263 175.293C210.751 171.835 209.887 169.359 208.67 167.867C208.153 167.333 207.534 167.033 206.812 166.966C202.2 166.785 197.225 167.519 191.886 169.169C189.895 169.712 188.892 171.16 188.878 173.514C189.338 178.956 190.05 182.434 191.013 183.945C191.782 185.092 192.798 185.726 194.062 185.849C198.995 186.059 204.079 185.2 209.316 183.269ZM261.571 159.714C261.983 160.856 262.197 161.732 262.211 162.342C262.418 163.556 262.265 164.814 261.754 166.118C261.439 166.64 261.018 166.991 260.493 167.171C256.195 168.522 252.585 169.077 249.663 168.834C249.214 166.038 248.745 163.244 248.257 160.454C252.349 159.687 255.637 159.163 258.123 158.88C260.027 158.667 261.176 158.945 261.571 159.714ZM251.017 177.844C258.879 183.494 264.796 187.604 268.768 190.176C269.099 190.401 269.463 190.326 269.859 189.949C271.829 188.105 274.069 185.449 276.579 181.981C277.116 181.227 277.223 180.706 276.903 180.42C275.08 179.099 272.432 177.105 268.959 174.437C269.562 174.246 270.164 174.044 270.764 173.834C272.878 172.936 274.319 171.638 275.086 169.939C276.254 166.737 275.614 160.571 273.165 151.442C271.917 148.077 269.972 146.094 267.33 145.491C260.463 144.392 254.117 144.438 248.293 145.628C239.527 147.35 232.81 149.547 228.142 152.22C227.609 152.737 227.343 153.193 227.344 153.588C227.765 156.329 228.617 159.626 229.9 163.48C230.076 163.849 230.374 163.99 230.796 163.906C231.697 163.728 232.587 163.542 233.467 163.348C234.593 171.454 236.093 180.195 237.967 189.57C238.09 189.986 238.428 190.191 238.981 190.185C242.093 190.379 246.015 190.182 250.746 189.594C251.779 189.376 252.28 189.032 252.247 188.563C251.885 184.785 251.474 181.212 251.017 177.844Z" fill="black"/>
<circle cx="380.412" cy="201.451" r="31.7521" fill="white"/>
<g clip-path="url(#clip0_111_6729)">
<mask id="mask0_111_6729" style="mask-type:luminance" maskUnits="userSpaceOnUse" x="350" y="170" width="61" height="61">
<path d="M410.164 170.201H350.164V230.201H410.164V170.201Z" fill="white"/>
</mask>
<g mask="url(#mask0_111_6729)">
<mask id="mask1_111_6729" style="mask-type:luminance" maskUnits="userSpaceOnUse" x="350" y="170" width="61" height="61">
<path d="M350.164 170.201H410.164V230.201H350.164V170.201Z" fill="white"/>
</mask>
<g mask="url(#mask1_111_6729)">
<path d="M380.166 180.871C369.49 180.871 360.836 189.525 360.836 200.201C360.836 210.877 369.49 219.531 380.166 219.531C390.842 219.531 399.496 210.877 399.496 200.201C399.496 189.525 390.842 180.871 380.166 180.871Z" fill="#DE5A00"/>
<path d="M380.166 180.871C369.49 180.871 360.836 189.525 360.836 200.201C360.836 210.877 369.49 219.531 380.166 219.531C390.842 219.531 399.496 210.877 399.496 200.201C399.496 189.525 390.842 180.871 380.166 180.871Z" fill="#EF7B00"/>
<path d="M380.166 180.871C369.49 180.871 360.836 189.525 360.836 200.201C360.836 210.877 369.49 219.531 380.166 219.531C390.842 219.531 399.496 210.877 399.496 200.201C399.496 189.525 390.842 180.871 380.166 180.871ZM380.166 214.501C372.268 214.501 365.866 208.099 365.866 200.201C365.866 192.303 372.268 185.901 380.166 185.901C388.064 185.901 394.466 192.303 394.466 200.201C394.466 208.099 388.064 214.501 380.166 214.501Z" fill="#DE5A00"/>
<path d="M383.776 199.2C383.068 198.922 382.22 198.668 381.233 198.439V194.088C381.561 194.21 381.832 194.387 382.046 194.619C382.206 194.793 382.337 194.984 382.44 195.191C382.821 195.958 383.62 196.471 384.53 196.471H384.658C386.454 196.471 387.593 194.648 386.663 193.222C386.354 192.747 385.966 192.312 385.498 191.917C384.379 190.972 382.957 190.409 381.233 190.229V189.219C381.233 188.633 380.759 188.158 380.173 188.158C379.587 188.158 379.112 188.633 379.112 189.219V190.197C377.338 190.333 375.871 190.902 374.713 191.908C373.374 193.071 372.705 194.519 372.705 196.254C372.705 199.212 374.841 201.181 379.112 202.163V206.644C378.554 206.532 378.081 206.316 377.695 205.994C377.398 205.747 377.17 205.446 377.01 205.091C376.67 204.335 375.849 203.862 374.967 203.862C373.266 203.862 372.168 205.563 373.003 206.94C373.047 207.014 373.094 207.087 373.142 207.16C373.814 208.178 374.74 208.979 375.922 209.563C376.875 210.034 377.938 210.315 379.112 210.406V211.185C379.112 211.771 379.587 212.246 380.173 212.246C380.759 212.246 381.233 211.771 381.233 211.185V210.378C382.922 210.206 384.341 209.676 385.49 208.786C386.912 207.684 387.623 206.241 387.623 204.458C387.623 201.964 386.341 200.212 383.776 199.2ZM378.14 197.402C377.63 197.046 377.375 196.579 377.375 196.001C377.375 195.387 377.599 194.881 378.047 194.483C378.329 194.233 378.684 194.062 379.112 193.969V197.879C378.708 197.731 378.384 197.572 378.14 197.402ZM382.189 206.166C381.935 206.368 381.615 206.514 381.233 206.609V202.779C381.543 202.903 381.806 203.032 382.021 203.166C382.609 203.534 382.903 204.036 382.903 204.675C382.903 205.289 382.665 205.786 382.189 206.166Z" fill="#DE5A00"/>
<path d="M380.166 180.871C369.49 180.871 360.836 189.525 360.836 200.201C360.836 210.877 369.49 219.531 380.166 219.531C390.842 219.531 399.496 210.877 399.496 200.201C399.496 189.525 390.842 180.871 380.166 180.871ZM380.166 214.501C372.268 214.501 365.866 208.099 365.866 200.201C365.866 192.303 372.268 185.901 380.166 185.901C388.064 185.901 394.466 192.303 394.466 200.201C394.466 208.099 388.064 214.501 380.166 214.501Z" fill="#FFC711"/>
<mask id="mask2_111_6729" style="mask-type:alpha" maskUnits="userSpaceOnUse" x="360" y="180" width="40" height="40">
<mask id="mask3_111_6729" style="mask-type:luminance" maskUnits="userSpaceOnUse" x="350" y="170" width="61" height="61">
<path d="M350.164 170.201H410.164V230.201H350.164V170.201Z" fill="white"/>
</mask>
<g mask="url(#mask3_111_6729)">
<path d="M380.166 180.871C369.49 180.871 360.836 189.525 360.836 200.201C360.836 210.877 369.49 219.531 380.166 219.531C390.842 219.531 399.496 210.877 399.496 200.201C399.496 189.525 390.842 180.871 380.166 180.871ZM380.166 214.501C372.268 214.501 365.866 208.099 365.866 200.201C365.866 192.303 372.268 185.901 380.166 185.901C388.064 185.901 394.466 192.303 394.466 200.201C394.466 208.099 388.064 214.501 380.166 214.501Z" fill="#FFC711"/>
<path d="M383.776 199.2C383.068 198.922 382.22 198.668 381.233 198.439V194.088C381.561 194.21 381.832 194.387 382.046 194.619C382.206 194.793 382.337 194.984 382.44 195.191C382.821 195.958 383.62 196.471 384.53 196.471H384.658C386.454 196.471 387.593 194.648 386.663 193.222C386.354 192.747 385.966 192.312 385.498 191.917C384.379 190.972 382.957 190.409 381.233 190.229V189.219C381.233 188.633 380.759 188.158 380.173 188.158C379.587 188.158 379.112 188.633 379.112 189.219V190.197C377.338 190.333 375.871 190.902 374.713 191.908C373.374 193.071 372.705 194.519 372.705 196.254C372.705 199.212 374.841 201.181 379.112 202.163V206.644C378.554 206.532 378.081 206.316 377.695 205.994C377.398 205.747 377.17 205.446 377.01 205.091C376.67 204.335 375.849 203.862 374.967 203.862C373.266 203.862 372.168 205.563 373.003 206.94C373.047 207.014 373.094 207.087 373.142 207.16C373.814 208.178 374.74 208.979 375.922 209.563C376.875 210.034 377.938 210.315 379.112 210.406V211.185C379.112 211.771 379.587 212.246 380.173 212.246C380.759 212.246 381.233 211.771 381.233 211.185V210.378C382.922 210.206 384.341 209.676 385.49 208.786C386.912 207.684 387.623 206.241 387.623 204.458C387.623 201.964 386.341 200.212 383.776 199.2ZM378.14 197.402C377.63 197.046 377.375 196.579 377.375 196.001C377.375 195.387 377.599 194.881 378.047 194.483C378.329 194.233 378.684 194.062 379.112 193.969V197.879C378.708 197.731 378.384 197.572 378.14 197.402ZM382.189 206.166C381.935 206.368 381.615 206.514 381.233 206.609V202.779C381.543 202.903 381.806 203.032 382.021 203.166C382.609 203.534 382.903 204.036 382.903 204.675C382.903 205.289 382.665 205.786 382.189 206.166Z" fill="#FFC711"/>
</g>
</mask>
<g mask="url(#mask2_111_6729)">
<path d="M393.497 179.417L366.576 224.22L356.476 218.151L383.396 173.348L393.497 179.417Z" fill="#FFE286"/>
</g>
</g>
</g>
<circle cx="382.164" cy="200.201" r="13" fill="#EF7B00"/>
<path d="M375.164 206.201V195.253C375.164 195.02 375.241 194.794 375.384 194.61C375.526 194.426 375.725 194.295 375.951 194.236C376.176 194.178 376.414 194.196 376.628 194.288C376.842 194.38 377.019 194.54 377.132 194.743L383.196 205.659C383.309 205.863 383.486 206.023 383.7 206.114C383.914 206.206 384.152 206.224 384.377 206.166C384.603 206.108 384.802 205.976 384.945 205.792C385.087 205.608 385.164 205.382 385.164 205.149V194.201M373.164 198.201H387.164M373.164 202.201H387.164" stroke="#FFE286" stroke-width="2" stroke-linecap="round" stroke-linejoin="round"/>
</g>
<defs>
<clipPath id="clip0_111_6729">
<rect width="60" height="60" fill="white" transform="translate(352.164 170.201)"/>
</clipPath>
</defs>
</svg>
