<svg width="329" height="34" viewBox="0 0 329 34" fill="none" xmlns="http://www.w3.org/2000/svg">
<rect opacity="0.25" width="322" height="5" rx="2.5" transform="matrix(1 0 0 -1 0 17.001)" fill="#D4A8FB"/>
<rect width="99.9018" height="4.90316" rx="2.45158" transform="matrix(1 0 0 -1 0 17.2549)" fill="white"/>
<g filter="url(#filter0_d_13226_98315)">
<circle cx="9.19342" cy="9.19342" r="9.19342" transform="matrix(-1 0 0 1 104.188 5.61328)" fill="white"/>
<circle cx="9.19342" cy="9.19342" r="9.69342" transform="matrix(-1 0 0 1 104.188 5.61328)" stroke="#D4A8FB"/>
</g>
<g clip-path="url(#clip0_13226_98315)">
<path d="M94.9935 19.7122C93.6118 19.7122 92.2868 19.1633 91.3098 18.1863C90.3328 17.2093 89.7839 15.8842 89.7839 14.5026C89.7839 13.1209 90.3328 11.7958 91.3098 10.8188C92.2868 9.84184 93.6118 9.29297 94.9935 9.29297C96.3752 9.29297 97.7003 9.84184 98.6773 10.8188C99.6543 11.7958 100.203 13.1209 100.203 14.5026C100.203 15.8842 99.6543 17.2093 98.6773 18.1863C97.7003 19.1633 96.3752 19.7122 94.9935 19.7122ZM95.6447 13.5258C95.6447 14.065 95.9365 14.5026 96.2959 14.5026C96.6554 14.5026 96.9471 14.065 96.9471 13.5258C96.9471 12.9866 96.6554 12.549 96.2959 12.549C95.9365 12.549 95.6447 12.9866 95.6447 13.5258ZM97.4127 17.3893C97.4875 17.3462 97.5421 17.275 97.5644 17.1916C97.5868 17.1082 97.5751 17.0194 97.5319 16.9446C97.2748 16.4989 96.9048 16.1289 96.4592 15.8717C96.0135 15.6144 95.508 15.4791 94.9935 15.4794C94.479 15.4793 93.9736 15.6146 93.528 15.8718C93.0824 16.129 92.7124 16.499 92.4551 16.9446C92.4126 17.0193 92.4014 17.1078 92.424 17.1908C92.4465 17.2738 92.5009 17.3445 92.5754 17.3875C92.6498 17.4305 92.7383 17.4423 92.8214 17.4203C92.9045 17.3983 92.9756 17.3443 93.0191 17.2702C93.2191 16.9235 93.5069 16.6357 93.8535 16.4356C94.2001 16.2355 94.5933 16.1303 94.9935 16.1306C95.3937 16.1303 95.7869 16.2355 96.1336 16.4356C96.4802 16.6357 96.768 16.9235 96.968 17.2702C97.0111 17.345 97.0823 17.3995 97.1657 17.4219C97.2491 17.4442 97.3379 17.4325 97.4127 17.3893ZM93.6911 14.5026C94.0506 14.5026 94.3423 14.065 94.3423 13.5258C94.3423 12.9866 94.0506 12.549 93.6911 12.549C93.3317 12.549 93.0399 12.9866 93.0399 13.5258C93.0399 14.065 93.3317 14.5026 93.6911 14.5026Z" fill="#8707F5"/>
</g>
<g opacity="0.75">
<g filter="url(#filter1_d_13226_98315)">
<circle cx="9.19342" cy="9.19342" r="9.19342" transform="matrix(-1 0 0 1 213.289 5.61328)" fill="white"/>
</g>
<path d="M203.79 9.29102C200.912 9.29102 198.58 11.6236 198.58 14.5011C198.58 17.3781 200.912 19.7102 203.79 19.7102C206.667 19.7107 209 17.3781 209 14.5011C209 11.6236 206.667 9.29102 203.79 9.29102ZM205.633 15.9508C205.698 15.8721 205.791 15.8219 205.893 15.811C205.994 15.8001 206.096 15.8293 206.176 15.8925C206.256 15.9557 206.308 16.0478 206.322 16.149C206.335 16.2503 206.308 16.3526 206.246 16.4342C205.954 16.8063 205.581 17.107 205.156 17.3136C204.73 17.5203 204.263 17.6275 203.79 17.6271C202.821 17.6271 201.925 17.1828 201.335 16.4374C201.304 16.3971 201.28 16.351 201.266 16.3016C201.252 16.2522 201.248 16.2006 201.254 16.1496C201.26 16.0987 201.276 16.0494 201.301 16.0046C201.326 15.9598 201.359 15.9204 201.4 15.8886C201.44 15.8568 201.486 15.8332 201.535 15.8192C201.585 15.8052 201.636 15.8011 201.687 15.8071C201.738 15.8131 201.788 15.829 201.832 15.854C201.877 15.8791 201.917 15.9127 201.948 15.9529C202.168 16.2315 202.447 16.4567 202.766 16.6114C203.085 16.766 203.435 16.8462 203.79 16.8457C204.518 16.8457 205.191 16.5124 205.633 15.9508ZM205.353 12.8082C205.44 12.8057 205.526 12.8207 205.607 12.8523C205.688 12.8839 205.762 12.9315 205.825 12.9922C205.887 13.0529 205.937 13.1254 205.971 13.2056C206.005 13.2858 206.022 13.372 206.022 13.4591C206.022 13.5461 206.005 13.6323 205.971 13.7125C205.937 13.7927 205.887 13.8653 205.825 13.926C205.762 13.9866 205.688 14.0342 205.607 14.0658C205.526 14.0974 205.44 14.1124 205.353 14.1099C205.183 14.1051 205.022 14.0345 204.904 13.9129C204.786 13.7914 204.72 13.6286 204.72 13.4591C204.72 13.2896 204.786 13.1267 204.904 13.0052C205.022 12.8837 205.183 12.813 205.353 12.8082ZM202.227 12.8082C202.314 12.8057 202.401 12.8207 202.482 12.8523C202.563 12.8839 202.637 12.9315 202.699 12.9922C202.762 13.0529 202.811 13.1254 202.845 13.2056C202.879 13.2858 202.897 13.372 202.897 13.4591C202.897 13.5461 202.879 13.6323 202.845 13.7125C202.811 13.7927 202.762 13.8653 202.699 13.926C202.637 13.9866 202.563 14.0342 202.482 14.0658C202.401 14.0974 202.314 14.1124 202.227 14.1099C202.058 14.1051 201.897 14.0345 201.779 13.9129C201.661 13.7914 201.594 13.6286 201.594 13.4591C201.594 13.2896 201.661 13.1267 201.779 13.0052C201.897 12.8837 202.058 12.813 202.227 12.8082Z" fill="#8907F5"/>
</g>
<g opacity="0.75">
<g filter="url(#filter2_d_13226_98315)">
<circle cx="9.19342" cy="9.19342" r="9.19342" transform="matrix(-1 0 0 1 322.383 5)" fill="white"/>
</g>
<g clip-path="url(#clip1_13226_98315)">
<path d="M312.252 11.6083C312.09 11.6865 311.948 11.8022 311.84 11.9459C311.758 12.0512 311.695 12.1699 311.654 12.2964L311.468 12.8657C311.455 12.9043 311.432 12.9386 311.401 12.9651C311.37 12.9916 311.333 13.0092 311.293 13.0161C311.247 13.0242 311.2 13.0178 311.158 12.9976C311.115 12.9775 311.081 12.9446 311.058 12.9037L311.06 12.9014C311.053 12.8896 311.047 12.8771 311.043 12.8642L310.858 12.2953C310.8 12.1221 310.703 11.9648 310.574 11.8359C310.445 11.707 310.287 11.6099 310.114 11.5525L309.545 11.3676C309.501 11.352 309.463 11.3233 309.436 11.2853C309.41 11.2473 309.395 11.202 309.395 11.1555C309.395 11.109 309.41 11.0637 309.436 11.0257C309.463 10.9877 309.501 10.959 309.545 10.9434L309.556 10.9404L310.126 10.7555C310.299 10.698 310.456 10.6009 310.585 10.472C310.714 10.343 310.812 10.1858 310.869 10.0127L311.054 9.44338C311.07 9.39942 311.098 9.36133 311.136 9.33439C311.174 9.30744 311.22 9.29297 311.266 9.29297C311.313 9.29297 311.358 9.30744 311.396 9.33439C311.434 9.36133 311.463 9.39942 311.478 9.44338L311.664 10.0127L311.668 10.0269C311.708 10.1434 311.766 10.2529 311.84 10.3513L311.842 10.3506C311.983 10.5368 312.176 10.6769 312.397 10.7529L312.966 10.9389C313.007 10.9524 313.044 10.9776 313.071 11.0115C313.098 11.0453 313.115 11.0864 313.119 11.1296C313.123 11.1728 313.115 11.2162 313.094 11.2547C313.074 11.2931 313.043 11.3248 313.005 11.346C312.993 11.3534 312.979 11.3598 312.966 11.3646L312.396 11.5495C312.346 11.5659 312.298 11.5856 312.252 11.6083ZM310.498 13.3275C310.49 13.3115 310.48 13.2971 310.466 13.2853C310.453 13.2734 310.438 13.2644 310.421 13.2587L310.079 13.1474C309.976 13.112 309.883 13.0534 309.807 12.9761C309.731 12.8989 309.674 12.805 309.64 12.702L309.528 12.3604C309.519 12.3341 309.502 12.3114 309.479 12.2953C309.456 12.2792 309.429 12.2706 309.401 12.2706C309.373 12.2706 309.346 12.2792 309.323 12.2953C309.301 12.3114 309.283 12.3341 309.274 12.3604L309.163 12.702C309.128 12.8058 309.07 12.9002 308.993 12.9775C308.915 13.0548 308.821 13.113 308.717 13.1474L308.375 13.2587L308.368 13.2602C308.342 13.2693 308.319 13.2865 308.303 13.3093C308.286 13.3321 308.278 13.3594 308.278 13.3874C308.278 13.4154 308.286 13.4427 308.303 13.4655C308.319 13.4883 308.342 13.5055 308.368 13.5147L308.71 13.6259C308.853 13.6735 308.977 13.7657 309.064 13.889V13.8909C309.103 13.9467 309.134 14.0077 309.156 14.0729L309.267 14.4145C309.277 14.4407 309.294 14.4635 309.317 14.4795C309.339 14.4956 309.367 14.5043 309.394 14.5043C309.422 14.5043 309.45 14.4956 309.472 14.4795C309.495 14.4635 309.512 14.4407 309.522 14.4145L309.633 14.0729C309.668 13.9687 309.726 13.8741 309.804 13.7966C309.881 13.719 309.976 13.6607 310.08 13.6263L310.422 13.5147C310.44 13.5083 310.456 13.4983 310.47 13.4851C310.484 13.472 310.495 13.456 310.502 13.4384C310.509 13.4207 310.512 13.4017 310.512 13.3827C310.511 13.3636 310.506 13.345 310.498 13.3279V13.3275ZM313.488 18.9684C311.094 18.9684 309.141 17.0855 309.028 14.7196C309.088 14.7828 309.164 14.8292 309.247 14.8545C309.331 14.8797 309.42 14.8829 309.505 14.8637C309.59 14.8445 309.669 14.8035 309.734 14.7448C309.799 14.6861 309.847 14.6117 309.875 14.5287L309.987 14.1886C310.003 14.1401 310.03 14.0959 310.066 14.0595C310.102 14.0232 310.146 13.9955 310.194 13.9787L310.545 13.8648C310.644 13.8298 310.729 13.7651 310.79 13.6794C310.85 13.5938 310.883 13.4915 310.883 13.3867C310.882 13.336 310.874 13.2857 310.858 13.2375C310.932 13.3027 311.021 13.3486 311.117 13.371C311.213 13.3933 311.313 13.3916 311.408 13.3657C311.504 13.3399 311.591 13.2909 311.662 13.223C311.734 13.1552 311.787 13.0706 311.818 12.977L312.004 12.4091C312.043 12.2907 312.109 12.1832 312.197 12.0954C312.285 12.0076 312.391 11.9413 312.509 11.9016L313.087 11.7155C313.175 11.6851 313.254 11.6347 313.318 11.5685C313.383 11.5022 313.431 11.4218 313.459 11.3337C313.487 11.2456 313.494 11.1522 313.48 11.0609C313.465 10.9696 313.43 10.8828 313.376 10.8076C313.302 10.7045 313.198 10.6271 313.078 10.5865L312.515 10.4038C312.404 10.3651 312.302 10.3026 312.218 10.2207C312.63 10.0989 313.058 10.0372 313.488 10.0376C315.954 10.0376 317.953 12.037 317.953 14.503C317.953 16.969 315.954 18.9684 313.488 18.9684ZM312.185 14.1309C312.333 14.1309 312.475 14.0721 312.58 13.9674C312.685 13.8627 312.744 13.7208 312.744 13.5727C312.744 13.4247 312.685 13.2827 312.58 13.178C312.475 13.0734 312.333 13.0146 312.185 13.0146C312.037 13.0146 311.895 13.0734 311.791 13.178C311.686 13.2827 311.627 13.4247 311.627 13.5727C311.627 13.7208 311.686 13.8627 311.791 13.9674C311.895 14.0721 312.037 14.1309 312.185 14.1309ZM314.232 13.5727C314.232 13.7208 314.291 13.8627 314.395 13.9674C314.5 14.0721 314.642 14.1309 314.79 14.1309C314.938 14.1309 315.08 14.0721 315.185 13.9674C315.29 13.8627 315.348 13.7208 315.348 13.5727C315.348 13.4247 315.29 13.2827 315.185 13.178C315.08 13.0734 314.938 13.0146 314.79 13.0146C314.642 13.0146 314.5 13.0734 314.395 13.178C314.291 13.2827 314.232 13.4247 314.232 13.5727ZM315.598 15.6677C315.537 15.6262 315.462 15.6105 315.39 15.6241C315.317 15.6377 315.253 15.6795 315.211 15.7403L315.208 15.7448L315.192 15.7667C315.176 15.7868 315.151 15.8173 315.116 15.8553C315.047 15.9308 314.94 16.0339 314.797 16.137C314.511 16.3428 314.079 16.5497 313.488 16.5497C312.897 16.5497 312.464 16.3428 312.179 16.137C312.035 16.0339 311.929 15.9308 311.859 15.8553C311.827 15.8199 311.796 15.7831 311.767 15.7448L311.764 15.741C311.723 15.6799 311.658 15.6377 311.586 15.624C311.513 15.6102 311.438 15.6259 311.377 15.6676C311.315 15.7093 311.273 15.7735 311.259 15.8463C311.246 15.919 311.261 15.9943 311.303 16.0555L311.304 16.0559V16.0566L311.305 16.0577L311.308 16.0614L311.311 16.0659L311.316 16.0733C311.357 16.1286 311.401 16.1818 311.448 16.2326C311.57 16.3651 311.706 16.4848 311.853 16.5898C312.214 16.8499 312.758 17.1078 313.488 17.1078C314.218 17.1078 314.762 16.8496 315.123 16.5902C315.27 16.485 315.405 16.365 315.528 16.2322C315.577 16.178 315.624 16.1211 315.668 16.0618L315.671 16.0581L315.671 16.0566L315.672 16.0559L315.672 16.0555C315.714 15.9943 315.729 15.9191 315.716 15.8464C315.702 15.7736 315.66 15.7094 315.598 15.6677Z" fill="#8807F7"/>
</g>
</g>
<defs>
<filter id="filter0_d_13226_98315" x="78.6679" y="0.935914" width="32.6485" height="32.6446" filterUnits="userSpaceOnUse" color-interpolation-filters="sRGB">
<feFlood flood-opacity="0" result="BackgroundImageFix"/>
<feColorMatrix in="SourceAlpha" type="matrix" values="0 0 0 0 0 0 0 0 0 0 0 0 0 0 0 0 0 0 127 0" result="hardAlpha"/>
<feOffset dy="2.45158"/>
<feGaussianBlur stdDeviation="3.06447"/>
<feComposite in2="hardAlpha" operator="out"/>
<feColorMatrix type="matrix" values="0 0 0 0 0.533333 0 0 0 0 0.027451 0 0 0 0 0.968627 0 0 0 0.07 0"/>
<feBlend mode="normal" in2="BackgroundImageFix" result="effect1_dropShadow_13226_98315"/>
<feBlend mode="normal" in="SourceGraphic" in2="effect1_dropShadow_13226_98315" result="shape"/>
</filter>
<filter id="filter1_d_13226_98315" x="188.769" y="1.93591" width="30.6485" height="30.6446" filterUnits="userSpaceOnUse" color-interpolation-filters="sRGB">
<feFlood flood-opacity="0" result="BackgroundImageFix"/>
<feColorMatrix in="SourceAlpha" type="matrix" values="0 0 0 0 0 0 0 0 0 0 0 0 0 0 0 0 0 0 127 0" result="hardAlpha"/>
<feOffset dy="2.45158"/>
<feGaussianBlur stdDeviation="3.06447"/>
<feComposite in2="hardAlpha" operator="out"/>
<feColorMatrix type="matrix" values="0 0 0 0 0.533333 0 0 0 0 0.027451 0 0 0 0 0.968627 0 0 0 0.07 0"/>
<feBlend mode="normal" in2="BackgroundImageFix" result="effect1_dropShadow_13226_98315"/>
<feBlend mode="normal" in="SourceGraphic" in2="effect1_dropShadow_13226_98315" result="shape"/>
</filter>
<filter id="filter2_d_13226_98315" x="297.863" y="1.32263" width="30.6485" height="30.6446" filterUnits="userSpaceOnUse" color-interpolation-filters="sRGB">
<feFlood flood-opacity="0" result="BackgroundImageFix"/>
<feColorMatrix in="SourceAlpha" type="matrix" values="0 0 0 0 0 0 0 0 0 0 0 0 0 0 0 0 0 0 127 0" result="hardAlpha"/>
<feOffset dy="2.45158"/>
<feGaussianBlur stdDeviation="3.06447"/>
<feComposite in2="hardAlpha" operator="out"/>
<feColorMatrix type="matrix" values="0 0 0 0 0.533333 0 0 0 0 0.027451 0 0 0 0 0.968627 0 0 0 0.07 0"/>
<feBlend mode="normal" in2="BackgroundImageFix" result="effect1_dropShadow_13226_98315"/>
<feBlend mode="normal" in="SourceGraphic" in2="effect1_dropShadow_13226_98315" result="shape"/>
</filter>
<clipPath id="clip0_13226_98315">
<rect width="10.4192" height="10.4192" fill="white" transform="matrix(-1 0 0 1 100.203 9.29102)"/>
</clipPath>
<clipPath id="clip1_13226_98315">
<rect width="10.4192" height="10.4192" fill="white" transform="matrix(-1 0 0 1 318.703 9.29102)"/>
</clipPath>
</defs>
</svg>
