<svg width="32" height="32" viewBox="0 0 32 32" fill="none" xmlns="http://www.w3.org/2000/svg">
<path d="M16 16L4.064 11.232L4.8 28.8H1.6L2.368 10.544L0 9.60001L16 3.20001L32 9.60001L16 16ZM16 8.00001C15.12 8.00001 14.4 8.35201 14.4 8.80001C14.4 9.24801 15.12 9.60001 16 9.60001C16.88 9.60001 17.6 9.24801 17.6 8.80001C17.6 8.35201 16.88 8.00001 16 8.00001ZM16 17.6L24.912 14.032C26.048 15.536 26.832 17.344 27.088 19.312C26.608 19.248 26.112 19.2 25.6 19.2C21.52 19.2 17.952 21.392 16 24.656C15.0092 22.9932 13.6036 21.6162 11.9208 20.6598C10.2379 19.7034 8.33561 19.2004 6.4 19.2C5.888 19.2 5.392 19.248 4.912 19.312C5.168 17.344 5.952 15.536 7.088 14.032L16 17.6Z" fill="#3D0072"/>
</svg>
