<svg width="363" height="363" viewBox="0 0 363 363" fill="none" xmlns="http://www.w3.org/2000/svg">
<path opacity="0.65" d="M34.2371 76.0951C8.54277 111.881 -3.22482 155.806 1.13827 199.644C5.50137 243.483 25.6959 284.227 57.9397 314.246C90.1834 344.265 132.265 361.501 176.303 362.725C220.34 363.948 263.314 349.076 297.175 320.894C331.036 292.711 353.462 253.151 360.253 209.623C367.043 166.095 357.733 121.584 334.065 84.4262C310.398 47.2688 273.996 20.0137 231.679 7.7653C189.361 -4.48311 144.029 -0.884593 104.174 17.8868L141.519 97.1792C162.084 87.4933 185.475 85.6365 207.31 91.9566C229.146 98.2766 247.929 112.34 260.141 131.513C272.353 150.685 277.157 173.653 273.653 196.113C270.149 218.573 258.578 238.985 241.106 253.527C223.634 268.069 201.46 275.743 178.737 275.112C156.014 274.48 134.301 265.587 117.663 250.097C101.026 234.608 90.6056 213.584 88.3543 190.964C86.1029 168.344 92.1749 145.679 105.433 127.214L34.2371 76.0951Z" fill="#EFDDFF"/>
</svg>
