<svg width="561" height="307" viewBox="0 0 561 307" fill="none" xmlns="http://www.w3.org/2000/svg">
<rect x="-2" width="563" height="308" rx="16" fill="#B2FFDA"/>
<path opacity="0.5" d="M396.8 21.5401C354.382 -6.44841 303.31 -18.2404 252.915 -11.6812C202.52 -5.12209 156.168 19.3503 122.327 57.2642C88.4864 95.1782 69.417 144.002 68.6032 194.816C67.7893 245.629 85.2854 295.039 117.895 334.017C150.504 372.995 196.049 398.94 246.208 407.109C296.367 415.279 347.79 405.128 391.083 378.513C434.376 351.897 466.647 310.593 482 262.148C497.353 213.702 494.762 161.35 474.702 114.657L355.847 165.72C363.647 183.875 364.655 204.231 358.685 223.068C352.715 241.904 340.168 257.964 323.334 268.313C306.501 278.662 286.506 282.609 267.003 279.432C247.5 276.256 229.791 266.168 217.112 251.012C204.432 235.857 197.629 216.645 197.946 196.887C198.262 177.13 205.677 158.146 218.835 143.404C231.993 128.662 250.016 119.146 269.611 116.596C289.206 114.046 309.064 118.631 325.557 129.513L396.8 21.5401Z" fill="#80FFC2"/>
</svg>
