<svg width="278" height="586" viewBox="0 0 278 586" fill="none" xmlns="http://www.w3.org/2000/svg">
<g clip-path="url(#clip0_5851_86365)">
<rect width="278" height="657" fill="#E8356D"/>
<g opacity="0.6">
<path d="M-60.9375 595.386C-37.2853 591.442 24.307 578.573 41.7943 569.996C138.773 523.259 185.098 361.425 185.673 359.843H263.752C263.17 361.389 253.969 387.879 215.022 461.83C190.944 505.771 156.097 535.064 114.993 559.127C44.3979 600.423 -60.9375 595.386 -60.9375 595.386Z" fill="#B71548"/>
<g opacity="0.1">
<path d="M-60.9375 595.387C-37.2853 591.443 24.307 578.574 41.7943 569.997C138.773 523.26 185.098 361.426 185.673 359.844H263.752C263.17 361.39 253.969 387.88 215.022 461.831C190.944 505.772 156.097 535.065 114.993 559.128C44.3979 600.424 -60.9375 595.387 -60.9375 595.387Z" fill="black"/>
</g>
<path d="M167.535 351.734L185.675 359.843C185.179 361.163 161.009 485.695 87.0653 545.471C35.178 587.412 1.96978 597.259 -110.758 595.585V573.678C-47.1437 573.678 -1.76179 571.621 39.6402 550.019C133.079 501.274 167.393 352.096 167.535 351.734Z" fill="#B71548"/>
<path d="M167.531 351.734H251.683L263.751 359.843H185.671L167.531 351.734Z" fill="#B71548"/>
<path d="M231.632 299.591L286.35 368.781L157.391 368.433L231.632 299.591Z" fill="#B71548"/>
<g opacity="0.1">
<path d="M231.632 299.591L286.35 368.781L157.391 368.433L231.632 299.591Z" fill="black"/>
</g>
<path d="M157.398 368.434L138.641 359.843L212.882 291L231.639 299.591L157.398 368.434Z" fill="#B71548"/>
</g>
<path d="M56.2 138V135H45.37V129.24H54.34V126.24H45.37V120.9H56.2V117.9H41.98V138H56.2ZM60.572 138L62.732 134.58L64.082 132.3L65.462 134.61L67.622 138H71.462L66.542 130.62L71.612 123.39H67.772L65.612 126.78L64.322 129.03L62.972 126.69L60.872 123.39H57.032L61.892 130.68L56.732 138H60.572ZM78.7445 138.3C82.4045 138.3 84.7145 136.23 85.4945 133.47L82.4645 131.97C82.1345 134.07 81.0845 135.48 78.8045 135.48C76.4945 135.48 75.0845 133.77 75.0845 130.71C75.0845 127.62 76.4945 125.91 78.8045 125.91C81.0545 125.91 82.1345 127.32 82.4645 129.42L85.4945 127.92C84.7145 125.16 82.4045 123.09 78.7445 123.09C74.3945 123.09 71.6645 126.15 71.6645 130.71C71.6645 135.24 74.3945 138.3 78.7445 138.3ZM94.3047 138.3C97.5447 138.3 99.5247 136.83 100.635 135.15L98.5647 132.99C98.0247 134.22 96.8847 135.54 94.3347 135.54C92.0247 135.54 90.4947 134.13 90.3147 131.52H100.755C100.815 131.22 100.875 130.59 100.875 130.05C100.875 126 98.4447 123.09 94.0647 123.09C89.9547 123.09 87.1047 126.12 87.1047 130.71C87.1047 135.27 89.9547 138.3 94.3047 138.3ZM94.0647 125.79C96.2847 125.79 97.6047 127.05 97.8447 129.36H90.3447C90.6147 126.99 91.9947 125.79 94.0647 125.79ZM107.239 138V117.9H103.879V138H107.239ZM114.153 138V117.9H110.793V138H114.153ZM124.188 138.3C127.428 138.3 129.408 136.83 130.518 135.15L128.448 132.99C127.908 134.22 126.768 135.54 124.218 135.54C121.908 135.54 120.378 134.13 120.198 131.52H130.638C130.698 131.22 130.758 130.59 130.758 130.05C130.758 126 128.328 123.09 123.948 123.09C119.838 123.09 116.988 126.12 116.988 130.71C116.988 135.27 119.838 138.3 124.188 138.3ZM123.948 125.79C126.168 125.79 127.488 127.05 127.728 129.36H120.228C120.498 126.99 121.878 125.79 123.948 125.79ZM137.064 138V129.81C137.064 127.41 137.904 125.82 140.364 125.82C142.614 125.82 143.214 127.05 143.214 128.85V138H146.604V127.83C146.604 124.8 144.864 123.09 142.014 123.09C139.104 123.09 137.604 125.07 137.064 127.38V123.39H133.704V138H137.064ZM156.323 138.3C159.983 138.3 162.293 136.23 163.073 133.47L160.043 131.97C159.713 134.07 158.663 135.48 156.383 135.48C154.073 135.48 152.663 133.77 152.663 130.71C152.663 127.62 154.073 125.91 156.383 125.91C158.633 125.91 159.713 127.32 160.043 129.42L163.073 127.92C162.293 125.16 159.983 123.09 156.323 123.09C151.973 123.09 149.243 126.15 149.243 130.71C149.243 135.24 151.973 138.3 156.323 138.3ZM171.883 138.3C175.123 138.3 177.103 136.83 178.213 135.15L176.143 132.99C175.603 134.22 174.463 135.54 171.913 135.54C169.603 135.54 168.073 134.13 167.893 131.52H178.333C178.393 131.22 178.453 130.59 178.453 130.05C178.453 126 176.023 123.09 171.643 123.09C167.533 123.09 164.683 126.12 164.683 130.71C164.683 135.27 167.533 138.3 171.883 138.3ZM171.643 125.79C173.863 125.79 175.183 127.05 175.423 129.36H167.923C168.193 126.99 169.573 125.79 171.643 125.79Z" fill="white"/>
<path d="M44.172 234L45.908 227.91L46.468 225.628L47.042 227.91L48.764 234H50.178L52.81 224.62H51.438L49.982 230.43L49.506 232.866L48.932 230.458L47.266 224.62H45.726L44.032 230.458L43.444 232.866L42.982 230.43L41.554 224.62H40.154L42.758 234H44.172ZM56.0853 234.14C57.5553 234.14 58.4933 233.454 58.9973 232.642L58.2553 231.802C57.9893 232.39 57.4433 233.132 56.0853 233.132C54.8813 233.132 54.0833 232.32 54.0133 230.892H59.0393C59.0673 230.766 59.0953 230.556 59.0953 230.346C59.0953 228.358 57.9333 227.084 56.0153 227.084C54.1533 227.084 52.8373 228.47 52.8373 230.612C52.8373 232.768 54.1673 234.14 56.0853 234.14ZM56.0153 228.106C57.1493 228.106 57.8773 228.764 58.0033 230.01H54.0413C54.1953 228.75 54.9233 228.106 56.0153 228.106ZM65.1424 234.14C66.5424 234.14 67.2704 233.132 67.4944 232.236V232.712C67.4944 233.664 67.9984 234 68.6984 234H69.4824V232.894H69.0484C68.7964 232.894 68.6704 232.796 68.6704 232.474V229.688C68.6704 228.078 67.7744 227.084 66.1084 227.084C64.5964 227.084 63.5884 227.938 63.1824 228.638L64.0084 229.492C64.3584 228.75 65.0024 228.19 65.9684 228.19C67.0324 228.19 67.4104 228.778 67.4524 229.576L65.0024 230.668C64.0364 231.102 63.3504 231.676 63.3504 232.586C63.3504 233.482 63.9944 234.14 65.1424 234.14ZM64.5824 232.39C64.5824 231.97 64.8764 231.69 65.5204 231.382L67.4944 230.458V231.396C67.4944 232.376 66.6824 233.132 65.5344 233.132C64.9044 233.132 64.5824 232.852 64.5824 232.39ZM72.1108 234V224.62H70.8927V234H72.1108ZM76.5176 234L77.6796 230.038L78.1416 228.232L78.5756 230.038L79.7376 234H81.3336L83.0836 227.224H81.7256L80.8576 231.396L80.5356 233.118L80.1016 231.396L78.8836 227.224H77.3856L76.1536 231.396L75.7336 233.118L75.4116 231.396L74.5296 227.224H73.1716L74.9356 234H76.5176ZM85.4588 234.14C86.8588 234.14 87.5868 233.132 87.8108 232.236V232.712C87.8108 233.664 88.3148 234 89.0148 234H89.7988V232.894H89.3648C89.1128 232.894 88.9868 232.796 88.9868 232.474V229.688C88.9868 228.078 88.0908 227.084 86.4248 227.084C84.9128 227.084 83.9048 227.938 83.4988 228.638L84.3248 229.492C84.6748 228.75 85.3188 228.19 86.2848 228.19C87.3488 228.19 87.7268 228.778 87.7688 229.576L85.3188 230.668C84.3528 231.102 83.6668 231.676 83.6668 232.586C83.6668 233.482 84.3108 234.14 85.4588 234.14ZM84.8988 232.39C84.8988 231.97 85.1928 231.69 85.8368 231.382L87.8108 230.458V231.396C87.8108 232.376 86.9988 233.132 85.8508 233.132C85.2208 233.132 84.8988 232.852 84.8988 232.39ZM92.0121 236.212C92.9641 236.212 93.7201 235.806 94.1541 234.56L96.7581 227.224H95.4561L94.0141 231.578L93.5381 233.034L93.0621 231.578L91.6061 227.224H90.3041L92.5861 233.636L93.3421 233.622L93.2021 234.056C92.9361 234.882 92.5721 235.148 92.0261 235.148C91.3821 235.148 91.0321 234.742 90.7101 234.196L90.0521 235.12C90.3461 235.68 91.0461 236.212 92.0121 236.212ZM100.226 234.14C101.542 234.14 102.69 233.538 102.69 232.194C102.69 231.256 102.186 230.626 100.66 230.262L99.7919 230.038C98.8679 229.814 98.4199 229.604 98.4199 229.002C98.4199 228.428 98.9239 228.12 99.6239 228.12C100.59 228.12 101.234 228.624 101.57 229.422L102.494 228.736C102.116 227.84 101.122 227.084 99.6939 227.084C98.2239 227.084 97.2719 227.84 97.2719 229.072C97.2719 230.318 98.3219 230.78 99.2879 231.004L100.184 231.214C100.982 231.396 101.598 231.592 101.598 232.208C101.598 232.81 101.066 233.118 100.268 233.118C98.9239 233.118 98.1819 232.348 97.9439 231.578L97.0619 232.264C97.5239 233.524 98.8119 234.14 100.226 234.14ZM108.396 234V232.264C108.634 233.3 109.278 234.168 110.58 234.168C112.302 234.168 113.366 232.768 113.366 230.626C113.366 228.484 112.302 227.084 110.58 227.084C109.278 227.084 108.634 227.952 108.396 228.988V224.62H107.178V234H108.396ZM108.396 231.116V230.15C108.396 229.03 108.872 228.12 110.16 228.12C111.252 228.12 112.134 228.904 112.134 230.626C112.134 232.362 111.252 233.146 110.16 233.146C108.872 233.146 108.396 232.236 108.396 231.116ZM116.025 234V230.164C116.025 229.002 116.809 227.98 117.677 227.98C118.167 227.98 118.377 228.316 118.377 228.708C118.377 229.086 118.195 229.506 117.971 229.702H119.301C119.413 229.534 119.567 229.114 119.567 228.54C119.567 227.588 118.867 227.07 118.139 227.07C116.991 227.07 116.291 227.98 116.025 229.03V227.224H114.807V234H116.025ZM121.931 226.132V224.62H120.713V226.132H121.931ZM121.931 234V227.224H120.713V234H121.931ZM124.98 234V230.164C124.98 229.03 125.456 228.12 126.758 228.12C127.906 228.12 128.256 228.736 128.256 229.618V234H129.46V229.324C129.46 227.882 128.634 227.084 127.304 227.084C125.974 227.084 125.246 227.98 124.98 229.03V227.224H123.762V234H124.98ZM133.832 231.928C135.428 231.928 136.506 230.92 136.506 229.506C136.506 228.666 136.114 227.952 135.47 227.532L136.716 226.132L135.456 225.684L135.036 227.308C134.686 227.168 134.28 227.084 133.832 227.084C132.236 227.084 131.158 228.092 131.158 229.506C131.158 230.36 131.55 231.074 132.222 231.494C131.564 232.026 131.158 232.614 131.158 233.146C131.158 233.594 131.382 233.916 131.816 234.056C131.298 234.266 130.724 234.644 130.724 235.274C130.724 236.17 131.816 236.744 133.552 236.744C135.834 236.744 137.094 235.834 137.094 234.546C137.094 233.524 136.324 233.034 135.092 233.034H133.048C132.348 233.034 132.152 232.852 132.152 232.488C132.152 232.194 132.348 231.872 132.516 231.648C132.894 231.83 133.342 231.928 133.832 231.928ZM133.832 230.99C132.992 230.99 132.334 230.43 132.334 229.506C132.334 228.582 132.992 228.022 133.832 228.022C134.686 228.022 135.33 228.582 135.33 229.506C135.33 230.43 134.686 230.99 133.832 230.99ZM133.552 235.778C132.334 235.778 131.704 235.442 131.704 234.896C131.704 234.574 131.942 234.28 132.166 234.084H134.938C135.624 234.084 135.96 234.28 135.96 234.714C135.96 235.386 135.092 235.778 133.552 235.778ZM144.06 234.14C145.936 234.14 147.266 232.754 147.266 230.612C147.266 228.47 145.936 227.084 144.06 227.084C142.184 227.084 140.868 228.47 140.868 230.612C140.868 232.754 142.184 234.14 144.06 234.14ZM144.06 233.118C142.912 233.118 142.114 232.32 142.114 230.612C142.114 228.89 142.912 228.106 144.06 228.106C145.222 228.106 146.034 228.89 146.034 230.612C146.034 232.32 145.222 233.118 144.06 233.118ZM150.909 234.14C152.267 234.14 152.995 233.216 153.247 232.152V234H154.451V227.224H153.247V231.074C153.247 232.194 152.771 233.118 151.455 233.118C150.307 233.118 149.957 232.488 149.957 231.62V227.224H148.753V231.914C148.753 233.342 149.579 234.14 150.909 234.14ZM157.519 234V230.164C157.519 229.002 158.303 227.98 159.171 227.98C159.661 227.98 159.871 228.316 159.871 228.708C159.871 229.086 159.689 229.506 159.465 229.702H160.795C160.907 229.534 161.061 229.114 161.061 228.54C161.061 227.588 160.361 227.07 159.633 227.07C158.485 227.07 157.785 227.98 157.519 229.03V227.224H156.301V234H157.519ZM165.717 234L166.739 231.382H170.841L171.863 234H173.207L169.427 224.62H168.209L164.429 234H165.717ZM168.321 227.336L168.797 225.866L169.259 227.336L170.421 230.304H167.159L168.321 227.336ZM179.92 231.928C181.516 231.928 182.594 230.92 182.594 229.506C182.594 228.666 182.202 227.952 181.558 227.532L182.804 226.132L181.544 225.684L181.124 227.308C180.774 227.168 180.368 227.084 179.92 227.084C178.324 227.084 177.246 228.092 177.246 229.506C177.246 230.36 177.638 231.074 178.31 231.494C177.652 232.026 177.246 232.614 177.246 233.146C177.246 233.594 177.47 233.916 177.904 234.056C177.386 234.266 176.812 234.644 176.812 235.274C176.812 236.17 177.904 236.744 179.64 236.744C181.922 236.744 183.182 235.834 183.182 234.546C183.182 233.524 182.412 233.034 181.18 233.034H179.136C178.436 233.034 178.24 232.852 178.24 232.488C178.24 232.194 178.436 231.872 178.604 231.648C178.982 231.83 179.43 231.928 179.92 231.928ZM179.92 230.99C179.08 230.99 178.422 230.43 178.422 229.506C178.422 228.582 179.08 228.022 179.92 228.022C180.774 228.022 181.418 228.582 181.418 229.506C181.418 230.43 180.774 230.99 179.92 230.99ZM179.64 235.778C178.422 235.778 177.792 235.442 177.792 234.896C177.792 234.574 178.03 234.28 178.254 234.084H181.026C181.712 234.084 182.048 234.28 182.048 234.714C182.048 235.386 181.18 235.778 179.64 235.778ZM185.715 234.14C187.115 234.14 187.843 233.132 188.067 232.236V232.712C188.067 233.664 188.571 234 189.271 234H190.055V232.894H189.621C189.369 232.894 189.243 232.796 189.243 232.474V229.688C189.243 228.078 188.347 227.084 186.681 227.084C185.169 227.084 184.161 227.938 183.755 228.638L184.581 229.492C184.931 228.75 185.575 228.19 186.541 228.19C187.605 228.19 187.983 228.778 188.025 229.576L185.575 230.668C184.609 231.102 183.923 231.676 183.923 232.586C183.923 233.482 184.567 234.14 185.715 234.14ZM185.155 232.39C185.155 231.97 185.449 231.69 186.093 231.382L188.067 230.458V231.396C188.067 232.376 187.255 233.132 186.107 233.132C185.477 233.132 185.155 232.852 185.155 232.39ZM192.683 234V230.164C192.683 229.03 193.159 228.12 194.181 228.12C195.203 228.12 195.665 228.61 195.665 229.604V234H196.883V230.164C196.883 229.03 197.359 228.12 198.395 228.12C199.403 228.12 199.879 228.61 199.879 229.604V234H201.083V229.31C201.083 227.882 200.397 227.084 199.067 227.084C197.835 227.084 197.135 227.994 196.869 229.072C196.799 227.798 196.113 227.084 194.867 227.084C193.649 227.084 192.949 227.98 192.683 229.016V227.224H191.465V234H192.683ZM205.751 234.14C207.221 234.14 208.159 233.454 208.663 232.642L207.921 231.802C207.655 232.39 207.109 233.132 205.751 233.132C204.547 233.132 203.749 232.32 203.679 230.892H208.705C208.733 230.766 208.761 230.556 208.761 230.346C208.761 228.358 207.599 227.084 205.681 227.084C203.819 227.084 202.503 228.47 202.503 230.612C202.503 232.768 203.833 234.14 205.751 234.14ZM205.681 228.106C206.815 228.106 207.543 228.764 207.669 230.01H203.707C203.861 228.75 204.589 228.106 205.681 228.106ZM215.676 234.154C216.614 234.154 217.258 233.72 217.552 233.258L217.146 232.054C216.964 232.474 216.544 232.978 215.942 232.978C215.41 232.978 215.004 232.768 215.004 231.9V228.176H217.23V227.224H215.004V225.46L213.786 226.356V227.224H212.694V228.176H213.786V232.264C213.786 233.426 214.57 234.154 215.676 234.154ZM220.992 234.14C222.868 234.14 224.198 232.754 224.198 230.612C224.198 228.47 222.868 227.084 220.992 227.084C219.116 227.084 217.8 228.47 217.8 230.612C217.8 232.754 219.116 234.14 220.992 234.14ZM220.992 233.118C219.844 233.118 219.046 232.32 219.046 230.612C219.046 228.89 219.844 228.106 220.992 228.106C222.154 228.106 222.966 228.89 222.966 230.612C222.966 232.32 222.154 233.118 220.992 233.118ZM43.5 266L44.662 262.038L45.124 260.232L45.558 262.038L46.72 266H48.316L50.066 259.224H48.708L47.84 263.396L47.518 265.118L47.084 263.396L45.866 259.224H44.368L43.136 263.396L42.716 265.118L42.394 263.396L41.512 259.224H40.154L41.918 266H43.5ZM53.5248 266.14C55.4008 266.14 56.7308 264.754 56.7308 262.612C56.7308 260.47 55.4008 259.084 53.5248 259.084C51.6488 259.084 50.3328 260.47 50.3328 262.612C50.3328 264.754 51.6488 266.14 53.5248 266.14ZM53.5248 265.118C52.3768 265.118 51.5788 264.32 51.5788 262.612C51.5788 260.89 52.3768 260.106 53.5248 260.106C54.6868 260.106 55.4988 260.89 55.4988 262.612C55.4988 264.32 54.6868 265.118 53.5248 265.118ZM59.4779 266V262.164C59.4779 261.002 60.2619 259.98 61.1299 259.98C61.6199 259.98 61.8299 260.316 61.8299 260.708C61.8299 261.086 61.6479 261.506 61.4239 261.702H62.7539C62.8659 261.534 63.0199 261.114 63.0199 260.54C63.0199 259.588 62.3199 259.07 61.5919 259.07C60.4439 259.07 59.7439 259.98 59.4779 261.03V259.224H58.2599V266H59.4779ZM65.3842 266V263.634L66.4622 262.612L68.6602 266H70.1302L67.3022 261.856L70.0882 259.224H68.5622L66.3362 261.352L65.3422 262.332L65.3842 261.38V256.62H64.1662V266H65.3842ZM71.3052 267.428C72.2572 267.316 72.5232 266.826 72.5232 266V264.18H71.0532V266H71.7392V266.196C71.7392 266.588 71.5152 266.686 71.0392 266.756L71.3052 267.428ZM78.5092 268.604V264.25C78.7472 265.272 79.3912 266.14 80.6932 266.14C82.4012 266.14 83.4652 264.74 83.4652 262.598C83.4652 260.456 82.4012 259.07 80.6932 259.07C79.3912 259.07 78.7472 259.938 78.5092 260.96V259.224H77.2912V268.604H78.5092ZM78.5092 263.088V262.122C78.5092 261.002 78.9852 260.092 80.2732 260.092C81.3512 260.092 82.2332 260.876 82.2332 262.598C82.2332 264.334 81.3512 265.118 80.2732 265.118C78.9852 265.118 78.5092 264.208 78.5092 263.088ZM87.0204 266.14C88.3784 266.14 89.1064 265.216 89.3584 264.152V266H90.5624V259.224H89.3584V263.074C89.3584 264.194 88.8824 265.118 87.5664 265.118C86.4184 265.118 86.0684 264.488 86.0684 263.62V259.224H84.8644V263.914C84.8644 265.342 85.6904 266.14 87.0204 266.14ZM94.4889 266.154C95.4269 266.154 96.0709 265.72 96.3649 265.258L95.9589 264.054C95.7769 264.474 95.3569 264.978 94.7549 264.978C94.2229 264.978 93.8169 264.768 93.8169 263.9V260.176H96.0429V259.224H93.8169V257.46L92.5989 258.356V259.224H91.5069V260.176H92.5989V264.264C92.5989 265.426 93.3829 266.154 94.4889 266.154ZM99.2604 266.154C100.198 266.154 100.842 265.72 101.136 265.258L100.73 264.054C100.548 264.474 100.128 264.978 99.5264 264.978C98.9944 264.978 98.5884 264.768 98.5884 263.9V260.176H100.814V259.224H98.5884V257.46L97.3704 258.356V259.224H96.2784V260.176H97.3704V264.264C97.3704 265.426 98.1544 266.154 99.2604 266.154ZM103.556 258.132V256.62H102.338V258.132H103.556ZM103.556 266V259.224H102.338V266H103.556ZM106.605 266V262.164C106.605 261.03 107.081 260.12 108.383 260.12C109.531 260.12 109.881 260.736 109.881 261.618V266H111.085V261.324C111.085 259.882 110.259 259.084 108.929 259.084C107.599 259.084 106.871 259.98 106.605 261.03V259.224H105.387V266H106.605ZM115.457 263.928C117.053 263.928 118.131 262.92 118.131 261.506C118.131 260.666 117.739 259.952 117.095 259.532L118.341 258.132L117.081 257.684L116.661 259.308C116.311 259.168 115.905 259.084 115.457 259.084C113.861 259.084 112.783 260.092 112.783 261.506C112.783 262.36 113.175 263.074 113.847 263.494C113.189 264.026 112.783 264.614 112.783 265.146C112.783 265.594 113.007 265.916 113.441 266.056C112.923 266.266 112.349 266.644 112.349 267.274C112.349 268.17 113.441 268.744 115.177 268.744C117.459 268.744 118.719 267.834 118.719 266.546C118.719 265.524 117.949 265.034 116.717 265.034H114.673C113.973 265.034 113.777 264.852 113.777 264.488C113.777 264.194 113.973 263.872 114.141 263.648C114.519 263.83 114.967 263.928 115.457 263.928ZM115.457 262.99C114.617 262.99 113.959 262.43 113.959 261.506C113.959 260.582 114.617 260.022 115.457 260.022C116.311 260.022 116.955 260.582 116.955 261.506C116.955 262.43 116.311 262.99 115.457 262.99ZM115.177 267.778C113.959 267.778 113.329 267.442 113.329 266.896C113.329 266.574 113.567 266.28 113.791 266.084H116.563C117.249 266.084 117.585 266.28 117.585 266.714C117.585 267.386 116.717 267.778 115.177 267.778ZM125.685 266.14C127.561 266.14 128.891 264.754 128.891 262.612C128.891 260.47 127.561 259.084 125.685 259.084C123.809 259.084 122.493 260.47 122.493 262.612C122.493 264.754 123.809 266.14 125.685 266.14ZM125.685 265.118C124.537 265.118 123.739 264.32 123.739 262.612C123.739 260.89 124.537 260.106 125.685 260.106C126.847 260.106 127.659 260.89 127.659 262.612C127.659 264.32 126.847 265.118 125.685 265.118ZM132.534 266.14C133.892 266.14 134.62 265.216 134.872 264.152V266H136.076V259.224H134.872V263.074C134.872 264.194 134.396 265.118 133.08 265.118C131.932 265.118 131.582 264.488 131.582 263.62V259.224H130.378V263.914C130.378 265.342 131.204 266.14 132.534 266.14ZM139.144 266V262.164C139.144 261.002 139.928 259.98 140.796 259.98C141.286 259.98 141.496 260.316 141.496 260.708C141.496 261.086 141.314 261.506 141.09 261.702H142.42C142.532 261.534 142.686 261.114 142.686 260.54C142.686 259.588 141.986 259.07 141.258 259.07C140.11 259.07 139.41 259.98 139.144 261.03V259.224H137.926V266H139.144ZM148.126 266V264.264C148.364 265.3 149.008 266.168 150.31 266.168C152.032 266.168 153.096 264.768 153.096 262.626C153.096 260.484 152.032 259.084 150.31 259.084C149.008 259.084 148.364 259.952 148.126 260.988V256.62H146.908V266H148.126ZM148.126 263.116V262.15C148.126 261.03 148.602 260.12 149.89 260.12C150.982 260.12 151.864 260.904 151.864 262.626C151.864 264.362 150.982 265.146 149.89 265.146C148.602 265.146 148.126 264.236 148.126 263.116ZM157.558 266.14C159.028 266.14 159.966 265.454 160.47 264.642L159.728 263.802C159.462 264.39 158.916 265.132 157.558 265.132C156.354 265.132 155.556 264.32 155.486 262.892H160.512C160.54 262.766 160.568 262.556 160.568 262.346C160.568 260.358 159.406 259.084 157.488 259.084C155.626 259.084 154.31 260.47 154.31 262.612C154.31 264.768 155.64 266.14 157.558 266.14ZM157.488 260.106C158.622 260.106 159.35 260.764 159.476 262.01H155.514C155.668 260.75 156.396 260.106 157.488 260.106ZM164.634 266.14C165.95 266.14 167.098 265.538 167.098 264.194C167.098 263.256 166.594 262.626 165.068 262.262L164.2 262.038C163.276 261.814 162.828 261.604 162.828 261.002C162.828 260.428 163.332 260.12 164.032 260.12C164.998 260.12 165.642 260.624 165.978 261.422L166.902 260.736C166.524 259.84 165.53 259.084 164.102 259.084C162.632 259.084 161.68 259.84 161.68 261.072C161.68 262.318 162.73 262.78 163.696 263.004L164.592 263.214C165.39 263.396 166.006 263.592 166.006 264.208C166.006 264.81 165.474 265.118 164.676 265.118C163.332 265.118 162.59 264.348 162.352 263.578L161.47 264.264C161.932 265.524 163.22 266.14 164.634 266.14ZM170.628 266.154C171.566 266.154 172.21 265.72 172.504 265.258L172.098 264.054C171.916 264.474 171.496 264.978 170.894 264.978C170.362 264.978 169.956 264.768 169.956 263.9V260.176H172.182V259.224H169.956V257.46L168.738 258.356V259.224H167.646V260.176H168.738V264.264C168.738 265.426 169.522 266.154 170.628 266.154ZM178.436 266V260.176H180.62V259.224H178.436V258.496C178.436 257.852 178.716 257.488 179.346 257.488C179.948 257.488 180.382 257.852 180.648 258.342L181.32 257.474C181.04 257.04 180.396 256.48 179.36 256.48C178.086 256.48 177.218 257.236 177.218 258.594V259.224H176.112V260.176H177.218V266H178.436ZM184.201 266.14C186.077 266.14 187.407 264.754 187.407 262.612C187.407 260.47 186.077 259.084 184.201 259.084C182.325 259.084 181.009 260.47 181.009 262.612C181.009 264.754 182.325 266.14 184.201 266.14ZM184.201 265.118C183.053 265.118 182.255 264.32 182.255 262.612C182.255 260.89 183.053 260.106 184.201 260.106C185.363 260.106 186.175 260.89 186.175 262.612C186.175 264.32 185.363 265.118 184.201 265.118ZM191.788 266.14C193.664 266.14 194.994 264.754 194.994 262.612C194.994 260.47 193.664 259.084 191.788 259.084C189.912 259.084 188.596 260.47 188.596 262.612C188.596 264.754 189.912 266.14 191.788 266.14ZM191.788 265.118C190.64 265.118 189.842 264.32 189.842 262.612C189.842 260.89 190.64 260.106 191.788 260.106C192.95 260.106 193.762 260.89 193.762 262.612C193.762 264.32 192.95 265.118 191.788 265.118ZM198.682 266.154C199.62 266.154 200.264 265.72 200.558 265.258L200.152 264.054C199.97 264.474 199.55 264.978 198.948 264.978C198.416 264.978 198.01 264.768 198.01 263.9V260.176H200.236V259.224H198.01V257.46L196.792 258.356V259.224H195.7V260.176H196.792V264.264C196.792 265.426 197.576 266.154 198.682 266.154ZM42.674 298V292.176H44.858V291.224H42.674V290.496C42.674 289.852 42.954 289.488 43.584 289.488C44.186 289.488 44.62 289.852 44.886 290.342L45.558 289.474C45.278 289.04 44.634 288.48 43.598 288.48C42.324 288.48 41.456 289.236 41.456 290.594V291.224H40.35V292.176H41.456V298H42.674ZM48.4388 298.14C50.3148 298.14 51.6448 296.754 51.6448 294.612C51.6448 292.47 50.3148 291.084 48.4388 291.084C46.5628 291.084 45.2468 292.47 45.2468 294.612C45.2468 296.754 46.5628 298.14 48.4388 298.14ZM48.4388 297.118C47.2908 297.118 46.4928 296.32 46.4928 294.612C46.4928 292.89 47.2908 292.106 48.4388 292.106C49.6008 292.106 50.4128 292.89 50.4128 294.612C50.4128 296.32 49.6008 297.118 48.4388 297.118ZM54.392 298V294.164C54.392 293.002 55.176 291.98 56.044 291.98C56.534 291.98 56.744 292.316 56.744 292.708C56.744 293.086 56.562 293.506 56.338 293.702H57.668C57.78 293.534 57.934 293.114 57.934 292.54C57.934 291.588 57.234 291.07 56.506 291.07C55.358 291.07 54.658 291.98 54.392 293.03V291.224H53.174V298H54.392ZM61.5742 298L62.7362 294.038L63.1982 292.232L63.6322 294.038L64.7942 298H66.3902L68.1402 291.224H66.7822L65.9142 295.396L65.5922 297.118L65.1582 295.396L63.9402 291.224H62.4422L61.2102 295.396L60.7902 297.118L60.4682 295.396L59.5862 291.224H58.2282L59.9922 298H61.5742ZM70.5154 298.14C71.9154 298.14 72.6434 297.132 72.8674 296.236V296.712C72.8674 297.664 73.3714 298 74.0714 298H74.8554V296.894H74.4214C74.1694 296.894 74.0434 296.796 74.0434 296.474V293.688C74.0434 292.078 73.1474 291.084 71.4814 291.084C69.9694 291.084 68.9614 291.938 68.5554 292.638L69.3814 293.492C69.7314 292.75 70.3754 292.19 71.3414 292.19C72.4054 292.19 72.7834 292.778 72.8254 293.576L70.3754 294.668C69.4094 295.102 68.7234 295.676 68.7234 296.586C68.7234 297.482 69.3674 298.14 70.5154 298.14ZM69.9554 296.39C69.9554 295.97 70.2494 295.69 70.8934 295.382L72.8674 294.458V295.396C72.8674 296.376 72.0554 297.132 70.9074 297.132C70.2774 297.132 69.9554 296.852 69.9554 296.39ZM77.4838 298V294.164C77.4838 293.002 78.2678 291.98 79.1358 291.98C79.6258 291.98 79.8358 292.316 79.8358 292.708C79.8358 293.086 79.6538 293.506 79.4298 293.702H80.7598C80.8718 293.534 81.0258 293.114 81.0258 292.54C81.0258 291.588 80.3258 291.07 79.5978 291.07C78.4498 291.07 77.7498 291.98 77.4838 293.03V291.224H76.2658V298H77.4838ZM84.3883 298.168C85.6903 298.168 86.3343 297.3 86.5723 296.264V298H87.7903V288.62H86.5723V292.988C86.3343 291.952 85.6903 291.084 84.3883 291.084C82.6803 291.084 81.6163 292.484 81.6163 294.626C81.6163 296.768 82.6803 298.168 84.3883 298.168ZM82.8483 294.626C82.8483 292.904 83.7303 292.12 84.7943 292.12C86.0963 292.12 86.5723 293.03 86.5723 294.15V295.116C86.5723 296.236 86.0963 297.146 84.7943 297.146C83.7303 297.146 82.8483 296.362 82.8483 294.626ZM90.9529 298V296.18H89.4829V298H90.9529Z" fill="white"/>
</g>
<defs>
<clipPath id="clip0_5851_86365">
<path d="M0 0H268C273.523 0 278 4.47715 278 10V586H60C26.8629 586 0 559.137 0 526V0Z" fill="white"/>
</clipPath>
</defs>
</svg>
