<svg width="85" height="28" viewBox="0 0 85 28" fill="none" xmlns="http://www.w3.org/2000/svg">
<g clip-path="url(#clip0_8126_110492)">
<path d="M9.65388 5.90906C9.65388 7.73995 9.65388 9.57617 9.66456 11.4071C9.66456 12.9871 9.15212 14.5244 7.68421 15.3357C5.97076 16.2752 3.5367 16.035 1.62575 15.8375C1.55102 15.8375 1.48696 15.8215 1.41757 15.8161C1.48163 14.4977 1.45494 13.1632 1.39088 11.8501C1.31082 10.0673 2.38906 7.94279 4.30535 7.64387C6.38178 7.31826 8.19131 7.09407 9.17348 5.94643C9.2055 5.9144 9.23753 5.87704 9.26422 5.83967C9.40834 5.64217 9.56314 5.45535 9.71794 5.26318C9.6699 5.47136 9.65388 5.69021 9.65388 5.90373V5.90906Z" fill="white"/>
<path d="M3.37448 27.7782C4.80502 27.869 6.24624 27.8476 7.67679 27.8743C9.34754 27.901 11.061 28.1092 12.673 27.8156C14.9897 27.3939 17.5945 25.8833 18.4539 23.6467C19.2493 21.5757 18.8756 19.1042 17.5038 17.3641C17.4077 17.2467 17.3063 17.1292 17.1942 17.0118C15.8063 15.4958 13.6552 14.7005 11.6055 14.9727C9.05929 15.309 6.81739 17.3107 6.1555 19.7928C5.74449 21.3408 6.10212 22.9848 5.86192 24.5595C5.66442 25.8619 4.54881 27.1964 3.36914 27.7782H3.37448Z" fill="white"/>
<path d="M17.684 0C17.5559 0.389663 17.7107 0.811354 17.8762 1.185C20.0007 5.91968 25.6908 9.12239 25.4933 14.8125C25.4026 17.3854 24.1215 20.4066 21.9703 21.9332C21.8155 22.0453 21.6714 22.1414 21.4899 22.1948C21.0789 21.4261 21.0362 20.3052 20.6892 19.4618C20.2515 18.3996 19.675 17.3587 18.869 16.5367C18.095 15.752 17.1289 15.2983 16.3549 14.5296C14.7322 12.9069 13.7073 10.6864 13.5739 8.39111C13.3817 5.12434 15.0151 1.87892 17.6894 0.0106757L17.684 0Z" fill="white"/>
<path d="M2.90885 11.423C2.90885 11.423 2.83412 9.99776 4.29669 10.0672C4.29669 10.0672 4.83047 11.6258 2.90885 11.423Z" fill="white" stroke="white" stroke-width="0.261407" stroke-miterlimit="10"/>
<path d="M2.42339 23.5079C3.76179 23.5079 4.84677 22.4229 4.84677 21.0845C4.84677 19.7461 3.76179 18.6611 2.42339 18.6611C1.08499 18.6611 0 19.7461 0 21.0845C0 22.4229 1.08499 23.5079 2.42339 23.5079Z" fill="white"/>
<path d="M31.2216 23.5453L35.8655 11.1348H38.353L42.9969 23.5453H40.5682L39.4312 20.5347H34.8033L33.6664 23.5453H31.2109H31.2216ZM35.5826 18.5224H38.6786L37.1146 13.7823L35.5826 18.5224Z" fill="white"/>
<path d="M44.2402 23.5452V15.1381H46.4394V17.1078C46.6423 16.3872 46.9625 15.8481 47.4002 15.4904C47.8326 15.1328 48.3077 14.9513 48.8255 14.9513C49.3432 14.9513 49.8076 15.0527 50.208 15.2609L49.829 17.2306C49.4927 17.0758 49.071 17.001 48.5532 17.001C47.144 17.001 46.4448 18.1914 46.4448 20.5667V23.5452H44.2456H44.2402Z" fill="white"/>
<path d="M51.2816 21.1486C51.0574 20.5988 50.9453 19.9956 50.9453 19.3497C50.9453 18.7038 51.0574 18.1007 51.2816 17.5402C51.5058 16.9797 51.8047 16.5153 52.1837 16.1363C52.5627 15.7627 53.0057 15.4691 53.5075 15.2609C54.0146 15.0528 54.543 14.946 55.0982 14.946C55.6533 14.946 56.1978 15.0634 56.6782 15.293C57.1586 15.5225 57.5109 15.8481 57.7404 16.2591V10.5476H59.9396V23.5399H57.7404V22.3976C57.5109 22.8087 57.1586 23.1343 56.6728 23.3638C56.1924 23.5987 55.664 23.7108 55.0982 23.7108C54.5323 23.7108 54.0146 23.604 53.5128 23.3958C53.0111 23.1876 52.568 22.8994 52.189 22.5258C51.81 22.1521 51.5058 21.693 51.2816 21.1379V21.1486ZM53.2513 19.3177C53.2513 19.9956 53.4648 20.5454 53.8865 20.9724C54.3135 21.3995 54.8366 21.613 55.4611 21.613C56.0857 21.613 56.6088 21.3995 57.0518 20.9778C57.4949 20.5561 57.7084 20.0009 57.7084 19.323C57.7084 18.6451 57.4842 18.0953 57.0358 17.6843C56.5874 17.2733 56.0643 17.0705 55.4611 17.0705C54.858 17.0705 54.3082 17.2786 53.8865 17.695C53.4648 18.1113 53.2513 18.6558 53.2513 19.3284V19.3177Z" fill="white"/>
<path d="M62.0527 11.8714C62.0527 11.5031 62.1915 11.1881 62.4744 10.9319C62.7573 10.6757 63.0883 10.5476 63.4726 10.5476C63.8569 10.5476 64.1825 10.6757 64.4601 10.9319C64.7377 11.1881 64.8711 11.4977 64.8711 11.8714C64.8711 12.245 64.7323 12.56 64.4601 12.8162C64.1879 13.0724 63.8569 13.2005 63.4726 13.2005C63.0883 13.2005 62.7467 13.0724 62.4691 12.8162C62.1915 12.56 62.0527 12.245 62.0527 11.8714ZM62.3623 23.5453V15.1382H64.5615V23.5453H62.3623Z" fill="white"/>
<path d="M67.0371 23.5453V13.2006H69.2363V23.5453H67.0371Z" fill="white"/>
<path d="M71.7129 23.5453V10.553H73.9121V23.5453H71.7129Z" fill="white"/>
<path d="M75.8789 19.3283C75.8789 18.6718 75.9963 18.0686 76.2365 17.5081C76.4768 16.953 76.797 16.4886 77.1974 16.1203C77.5977 15.752 78.0568 15.4637 78.5745 15.2609C79.0923 15.0581 79.6314 14.9513 80.1919 14.9513C80.6563 14.9513 81.1367 15.0474 81.6331 15.2449C82.1295 15.4424 82.5192 15.752 82.8021 16.1737V15.1328H85.0013V23.5399H82.8021V22.451C82.5566 22.8513 82.1776 23.1609 81.6651 23.3744C81.1527 23.5879 80.6616 23.6947 80.1972 23.6947C79.4446 23.6947 78.7453 23.5185 78.0941 23.1716C77.4429 22.8246 76.9091 22.3069 76.4981 21.6289C76.0871 20.951 75.8842 20.1824 75.8842 19.3177L75.8789 19.3283ZM78.1849 19.3283C78.1849 19.9849 78.4144 20.524 78.8788 20.951C79.3432 21.3781 79.8823 21.5916 80.5015 21.5916C81.1207 21.5916 81.6651 21.3887 82.1189 20.9777C82.5726 20.5667 82.7968 20.0169 82.7968 19.3283C82.7968 18.6398 82.5672 18.09 82.1082 17.6789C81.6491 17.2679 81.11 17.0651 80.4962 17.0651C79.8823 17.0651 79.3272 17.2786 78.8681 17.7003C78.4091 18.1273 78.1795 18.6664 78.1795 19.3283H78.1849Z" fill="white"/>
</g>
<defs>
<clipPath id="clip0_8126_110492">
<rect width="85" height="27.9704" fill="white"/>
</clipPath>
</defs>
</svg>
