<svg width="366" height="208" viewBox="0 0 366 208" fill="none" xmlns="http://www.w3.org/2000/svg">
<circle cx="171.959" cy="97.5527" r="85.041" fill="white"/>
<mask id="mask0_10423_140858" style="mask-type:alpha" maskUnits="userSpaceOnUse" x="81" y="2" width="182" height="182">
<path d="M262.544 93.097C262.544 143.106 222.003 183.647 171.993 183.647C121.984 183.647 81.4434 143.106 81.4434 93.097C81.4434 43.0875 121.984 2.54688 171.993 2.54688C222.003 2.54688 262.544 43.0875 262.544 93.097Z" fill="white"/>
</mask>
<g mask="url(#mask0_10423_140858)">
<g clip-path="url(#clip0_10423_140858)">
<path d="M244.271 183.503H100.281C100.281 183.503 102.214 174.382 104.968 165.222C107.721 156.063 113.413 152.224 120.785 150.348C128.148 148.462 157.213 139.457 157.213 139.457L172.189 138.264L172.276 138.254L172.363 138.264L185.871 139.341C185.871 139.341 216.395 148.462 223.758 150.348C231.13 152.234 236.822 156.063 239.575 165.222C242.329 174.382 244.271 183.503 244.271 183.503Z" fill="#E8356D"/>
<path d="M214.183 176.756H196.617C196.202 176.756 195.873 177.083 195.873 177.497V183.5H197.361V178.238H213.439V183.5H214.927V177.497C214.927 177.093 214.599 176.756 214.183 176.756Z" fill="#C4205C"/>
<path d="M171.408 161.266C172.347 161.266 173.108 160.507 173.108 159.572C173.108 158.637 172.347 157.879 171.408 157.879C170.468 157.879 169.707 158.637 169.707 159.572C169.707 160.507 170.468 161.266 171.408 161.266Z" fill="#F5EFFF"/>
<path d="M171.408 170.223C172.347 170.223 173.108 169.465 173.108 168.529C173.108 167.594 172.347 166.836 171.408 166.836C170.468 166.836 169.707 167.594 169.707 168.529C169.707 169.465 170.468 170.223 171.408 170.223Z" fill="#F5EFFF"/>
<path d="M171.408 179.191C172.347 179.191 173.108 178.433 173.108 177.498C173.108 176.563 172.347 175.805 171.408 175.805C170.468 175.805 169.707 176.563 169.707 177.498C169.707 178.433 170.468 179.191 171.408 179.191Z" fill="#F5EFFF"/>
<path d="M172.366 138.242V138.252H172.277L172.366 138.242Z" fill="#5D46C2"/>
<path d="M172.278 138.252H172.189V138.242L172.278 138.252Z" fill="#5D46C2"/>
<path d="M185.628 142.989C185.628 142.989 181.898 149.935 171.482 149.935C161.414 149.935 157.182 142.642 157.182 142.642L157.8 137.649L157.906 136.812L158.873 128.941L183.782 129.634L184.198 132.626L184.333 133.608L185.628 142.989Z" fill="#FF8881"/>
<path d="M157.898 136.812C157.898 136.812 149.018 138.304 142.467 143.98C142.467 143.98 144.39 155.151 157.183 166.196L171.483 149.936C171.483 149.936 161.917 146.318 157.898 136.812Z" fill="#C4205C"/>
<path d="M184.701 136.812C184.701 136.812 193.58 138.304 200.132 143.98C200.132 143.98 198.209 155.151 185.416 166.196L171.115 149.936C171.115 149.936 180.681 146.318 184.701 136.812Z" fill="#C4205C"/>
<path d="M184.189 132.626C178.546 137.389 169.415 139.198 157.801 137.649L157.907 136.812L158.873 128.941L183.783 129.634L184.189 132.626Z" fill="#19274B"/>
<path d="M149.511 108.465C143.936 116.211 131.944 110.977 132.756 100.701C133.5 91.3779 143.955 92.8596 143.955 92.8596L149.511 108.465Z" fill="#F55B5D"/>
<path d="M144.38 108.67C144.041 108.67 143.742 108.439 143.655 108.102C142.573 103.695 137.964 99.5678 137.925 99.5293C137.616 99.2599 137.587 98.7885 137.867 98.4806C138.138 98.1727 138.611 98.1439 138.92 98.4229C139.123 98.6057 143.916 102.887 145.114 107.746C145.211 108.14 144.969 108.545 144.573 108.641C144.505 108.66 144.438 108.67 144.38 108.67Z" fill="#D1373F"/>
<path d="M142.466 104.471C142.389 104.471 142.312 104.462 142.235 104.433C140.196 103.75 138.254 104.163 138.234 104.173C137.838 104.26 137.432 104.009 137.345 103.615C137.258 103.221 137.51 102.826 137.906 102.73C138.002 102.711 140.263 102.22 142.708 103.038C143.095 103.163 143.307 103.586 143.181 103.971C143.066 104.279 142.776 104.471 142.466 104.471Z" fill="#D1373F"/>
<path d="M190.762 108.465C196.337 116.211 208.328 110.977 207.516 100.701C206.772 91.3779 196.318 92.8596 196.318 92.8596L190.762 108.465Z" fill="#F55B5D"/>
<path d="M195.892 108.67C195.834 108.67 195.776 108.661 195.718 108.651C195.322 108.555 195.071 108.151 195.177 107.756C196.375 102.898 201.168 98.6161 201.37 98.4333C201.68 98.1639 202.143 98.1928 202.424 98.491C202.694 98.7989 202.665 99.2607 202.366 99.5397C202.317 99.5782 197.718 103.696 196.636 108.112C196.53 108.439 196.23 108.67 195.892 108.67Z" fill="#D1373F"/>
<path d="M197.805 104.475C197.496 104.475 197.206 104.283 197.099 103.965C196.964 103.58 197.177 103.157 197.573 103.032C200.017 102.214 202.278 102.705 202.375 102.724C202.771 102.811 203.032 103.205 202.935 103.609C202.849 104.004 202.443 104.254 202.047 104.167C202.018 104.158 200.075 103.753 198.046 104.427C197.969 104.465 197.892 104.475 197.805 104.475Z" fill="#D1373F"/>
<path d="M141.74 81.5354C141.74 81.5354 139.015 98.3343 146.069 114.767C152.456 129.661 160.959 134.299 170.013 134.443C180.303 134.607 201.851 128.68 198.44 80.0634C196.13 47.2162 144.465 48.3707 141.74 81.5354Z" fill="#FF8881"/>
<g opacity="0.5">
<path d="M153.808 111.652C157.757 111.652 160.959 110.183 160.959 108.371C160.959 106.559 157.757 105.09 153.808 105.09C149.859 105.09 146.658 106.559 146.658 108.371C146.658 110.183 149.859 111.652 153.808 111.652Z" fill="#F55B5D"/>
</g>
<g opacity="0.5">
<path d="M189.457 111.652C193.406 111.652 196.607 110.183 196.607 108.371C196.607 106.559 193.406 105.09 189.457 105.09C185.508 105.09 182.307 106.559 182.307 108.371C182.307 110.183 185.508 111.652 189.457 111.652Z" fill="#F55B5D"/>
</g>
<path d="M199.659 93.6012C199.659 93.6012 200.152 105.763 196.528 120.993C190.721 145.402 170.797 142.15 170.797 142.15C170.797 142.15 151.26 145.402 145.452 120.993C141.829 105.763 140.264 94.3997 140.264 94.3997L144.844 88.3672C144.844 88.3672 147.076 109.399 155.163 113.046C155.163 113.046 158.758 107.6 170.797 112.69C182.837 107.6 186.827 113.046 186.827 113.046C194.915 109.399 195.601 89.1561 195.601 89.1561L199.659 93.6012Z" fill="#19274B"/>
<path d="M147.838 71.3483C147.838 71.3483 149.761 83.9618 144.388 88.5704V98.9807L141.229 99.9236C141.229 99.9236 138.475 86.0112 137.422 78.266C135.383 63.2664 149.519 61.3613 149.519 61.3613L147.838 71.3483Z" fill="#19274B"/>
<path d="M192.14 71.3483C192.14 71.3483 190.217 83.9618 195.59 88.5704V98.9807L198.749 99.9236C198.749 99.9236 201.503 86.0112 202.556 78.266C204.595 63.2664 190.459 61.3613 190.459 61.3613L192.14 71.3483Z" fill="#19274B"/>
<path d="M139.404 70.5495C139.404 70.5495 129.945 53.9143 152.352 47.824C167.976 43.581 189.127 48.0453 195.891 37C195.891 37 197.785 44.5527 194.046 49.4019C194.046 49.4019 204.24 46.3615 207.071 40.3771C207.071 40.3771 210.578 49.7386 205.148 56.9546C205.148 56.9546 209.341 58.3112 213.071 55.3767C213.071 55.3767 212.723 75.7836 197.553 74.6579C197.553 74.6579 194.345 72.2333 188.799 70.5495C183.253 68.8562 178.75 77.3711 164.305 73.7631C151.425 70.5399 146.12 68.5098 139.404 70.5495Z" fill="#19274B"/>
<path d="M171.289 126.269C169.173 126.269 167.492 125.528 167.385 125.48C167.076 125.336 166.931 124.97 167.076 124.662C167.221 124.354 167.578 124.21 167.897 124.354C167.955 124.373 171.762 126.038 174.825 124.037C175.115 123.854 175.492 123.931 175.685 124.21C175.869 124.498 175.792 124.874 175.511 125.066C174.11 125.99 172.613 126.269 171.289 126.269Z" fill="#33476D"/>
<path d="M173.482 109.998C173.463 109.998 173.453 109.998 173.434 109.998L168.902 109.632C168.564 109.603 168.303 109.305 168.332 108.968C168.361 108.632 168.661 108.372 168.999 108.401L172.787 108.709L171.608 97.2399C171.569 96.9032 171.82 96.5953 172.159 96.5664C172.497 96.5279 172.806 96.7781 172.835 97.1148L174.091 109.315C174.11 109.497 174.043 109.68 173.917 109.805C173.811 109.94 173.647 109.998 173.482 109.998Z" fill="#F55B5D"/>
<path d="M161.568 115.596C167.144 116.462 172.815 116.837 180.41 115.336C180.41 115.336 179.753 123.418 170.738 123.447C163.076 123.476 161.568 115.596 161.568 115.596Z" fill="#F5EFFF"/>
<path d="M161.123 97.1801C161.123 99.3161 160.147 101.058 158.94 101.058C157.732 101.058 156.756 99.3257 156.756 97.1801C156.756 95.0442 157.732 93.3027 158.94 93.3027C160.147 93.3027 161.123 95.0346 161.123 97.1801Z" fill="#19274B"/>
<path d="M184.323 97.1801C184.323 99.3161 183.347 101.058 182.139 101.058C180.931 101.058 179.955 99.3257 179.955 97.1801C179.955 95.0442 180.931 93.3027 182.139 93.3027C183.347 93.3027 184.323 95.0346 184.323 97.1801Z" fill="#19274B"/>
<path d="M155.077 88.6948C156.604 87.8769 158.845 86.8667 161.019 86.5492C162.189 86.376 162.923 85.2118 162.527 84.1054L162.449 83.8841C162.16 83.0855 161.367 82.5852 160.517 82.6718C158.575 82.8739 155.145 83.557 152.893 85.7795C152.41 86.2606 152.236 86.9822 152.449 87.6268C152.787 88.7236 154.053 89.2432 155.077 88.6948Z" fill="#19274B"/>
<path d="M186.074 88.6948C184.547 87.8769 182.305 86.8667 180.131 86.5492C178.962 86.376 178.228 85.2118 178.624 84.1054L178.701 83.8841C178.991 83.0855 179.783 82.5852 180.634 82.6718C182.576 82.8739 186.006 83.557 188.248 85.7795C188.731 86.2606 188.905 86.9822 188.692 87.6268C188.364 88.7236 187.088 89.2432 186.074 88.6948Z" fill="#19274B"/>
</g>
</g>
<g clip-path="url(#clip1_10423_140858)">
<path d="M276.005 44.2973C276.005 57.0511 265.661 67.4031 252.899 67.4031C247.744 67.4031 242.982 65.7127 239.133 62.8506L227.818 65.7378L232.53 55.2016C230.781 51.9546 229.793 48.2389 229.793 44.3056C229.793 31.5434 240.145 21.1914 252.899 21.1914C265.653 21.1914 276.005 31.5351 276.005 44.2973Z" fill="white"/>
<path d="M254.469 47.6703V49.9953C254.469 50.9938 253.715 51.7485 252.716 51.7485C251.786 51.7485 250.963 50.9938 250.963 49.9953V46.2754C250.963 46.2754 251.001 46.2373 251.001 46.2068C251.001 46.2068 250.988 46.1839 250.963 46.1382C250.963 45.2082 251.786 44.3849 252.716 44.3849C254.972 44.3849 256.794 42.5936 256.794 40.3754C256.794 38.1572 254.972 36.3658 252.716 36.3658C251.252 36.3658 249.964 37.151 249.278 38.3325C248.775 39.1939 247.708 39.4759 246.847 38.9728C246.023 38.4697 245.734 37.433 246.237 36.5793C247.525 34.3611 249.957 32.8594 252.716 32.8594C256.87 32.8594 260.27 36.221 260.27 40.3754C260.27 43.9199 257.8 46.8852 254.469 47.6779V47.6703ZM254.469 55.5065V56.1468C254.469 57.1454 253.715 57.9 252.716 57.9C251.786 57.9 250.963 57.1454 250.963 56.1468V55.5065C250.963 54.5384 251.786 53.7533 252.716 53.7533C253.715 53.7533 254.469 54.5384 254.469 55.5065Z" fill="#8807F7"/>
</g>
<path d="M13.8493 141.466L10.2575 134.981C8.71095 132.187 9.64456 128.93 12.4382 127.384C15.0324 125.944 18.4889 126.771 20.0354 129.564L25.7867 139.948C25.8437 140.048 25.7368 140.105 25.7938 140.205C25.8983 140.233 25.9696 140.281 26.0076 140.347C27.4472 142.941 26.4209 146.512 23.8339 147.944C17.5481 151.429 15.2177 159.24 18.6456 165.426C22.1306 171.712 29.9273 173.779 36.2202 170.294C40.311 168.028 42.6842 163.837 42.7555 159.497C42.8196 156.325 45.371 153.874 48.5424 153.945C51.6069 154.066 54.0086 156.525 53.9373 159.689C53.7734 167.864 49.3121 175.817 41.6294 180.079C30.0485 186.493 15.3745 182.367 8.96039 170.793C3.48704 160.915 5.78186 148.814 13.8422 141.48L13.8493 141.466ZM1.74099 119.615L0.743242 117.82C-0.803263 115.026 0.130342 111.769 2.92403 110.215C5.51817 108.776 8.97464 109.602 10.5211 112.396L11.5189 114.192C13.0084 116.886 11.9322 120.35 9.33811 121.789C6.54442 123.336 3.23048 122.302 1.74099 119.615Z" fill="white"/>
<path d="M320.693 148.993L314.828 157.423C312.305 161.051 307.687 161.878 304.059 159.355C300.696 157.01 299.605 152.214 302.128 148.586L311.507 135.102C311.592 134.974 311.728 135.067 311.82 134.939C311.792 134.791 311.809 134.675 311.87 134.589C314.215 131.218 319.275 130.306 322.639 132.651C330.806 138.331 341.931 136.457 347.518 128.418C353.198 120.25 351.003 109.297 342.836 103.616C337.519 99.9177 330.87 99.5329 325.432 102.091C321.456 103.944 316.845 102.277 314.999 98.2928C313.274 94.4087 314.856 89.926 318.84 88.0802C329.096 83.291 341.703 83.9751 351.68 90.9166C366.725 101.379 370.559 122.132 360.097 137.169C351.167 150.005 334.74 154.544 320.7 149.007L320.693 148.993ZM300.945 177.378L299.32 179.709C296.797 183.336 292.179 184.17 288.544 181.64C285.181 179.295 284.09 174.499 286.613 170.872L288.238 168.541C290.675 165.042 295.636 164.265 299.006 166.61C302.634 169.133 303.375 173.879 300.945 177.378Z" fill="white"/>
<defs>
<clipPath id="clip0_10423_140858">
<rect width="143.971" height="146.244" fill="white" transform="translate(100.387 37.1602)"/>
</clipPath>
<clipPath id="clip1_10423_140858">
<rect width="62" height="59.1524" fill="white" transform="translate(227 8.51758)"/>
</clipPath>
</defs>
</svg>
