<svg width="501" height="57" viewBox="0 0 501 57" fill="none" xmlns="http://www.w3.org/2000/svg">
<rect x="372" width="129" height="57" fill="#EAB308"/>
<path d="M4 47V12.35H27.2V18.9H11.8V26.15H25.5V32.7H11.8V47H4ZM39.6609 47H32.2109V20.7H39.6609V47ZM40.3609 13.1C40.3609 14.4667 39.9109 15.55 39.0109 16.35C38.1443 17.1167 37.1109 17.5 35.9109 17.5C34.7109 17.5 33.6609 17.1167 32.7609 16.35C31.8943 15.55 31.4609 14.4667 31.4609 13.1C31.4609 11.7333 31.8943 10.6667 32.7609 9.9C33.6609 9.1 34.7109 8.7 35.9109 8.7C37.1109 8.7 38.1443 9.1 39.0109 9.9C39.9109 10.6667 40.3609 11.7333 40.3609 13.1ZM46.6641 21.6C47.9307 21.2333 49.5641 20.9 51.5641 20.6C53.5641 20.2667 55.6641 20.1 57.8641 20.1C60.0974 20.1 61.9474 20.4 63.4141 21C64.9141 21.5667 66.0974 22.3833 66.9641 23.45C67.8307 24.5167 68.4474 25.7833 68.8141 27.25C69.1807 28.7167 69.3641 30.35 69.3641 32.15V47H61.9141V33.05C61.9141 30.65 61.5974 28.95 60.9641 27.95C60.3307 26.95 59.1474 26.45 57.4141 26.45C56.8807 26.45 56.3141 26.4833 55.7141 26.55C55.1141 26.5833 54.5807 26.6333 54.1141 26.7V47H46.6641V21.6ZM86.1574 41.8C86.8908 41.8 87.5908 41.7833 88.2574 41.75C88.9241 41.7167 89.4574 41.6667 89.8574 41.6V35.95C89.5574 35.8833 89.1074 35.8167 88.5074 35.75C87.9074 35.6833 87.3574 35.65 86.8574 35.65C86.1574 35.65 85.4908 35.7 84.8574 35.8C84.2574 35.8667 83.7241 36.0167 83.2574 36.25C82.7908 36.4833 82.4241 36.8 82.1574 37.2C81.8908 37.6 81.7574 38.1 81.7574 38.7C81.7574 39.8667 82.1408 40.6833 82.9074 41.15C83.7074 41.5833 84.7908 41.8 86.1574 41.8ZM85.5574 20C87.7574 20 89.5908 20.25 91.0574 20.75C92.5241 21.25 93.6908 21.9667 94.5574 22.9C95.4574 23.8333 96.0908 24.9667 96.4574 26.3C96.8241 27.6333 97.0074 29.1167 97.0074 30.75V46.25C95.9408 46.4833 94.4574 46.75 92.5574 47.05C90.6574 47.3833 88.3574 47.55 85.6574 47.55C83.9574 47.55 82.4074 47.4 81.0074 47.1C79.6408 46.8 78.4574 46.3167 77.4574 45.65C76.4574 44.95 75.6908 44.05 75.1574 42.95C74.6241 41.85 74.3574 40.5 74.3574 38.9C74.3574 37.3667 74.6574 36.0667 75.2574 35C75.8908 33.9333 76.7241 33.0833 77.7574 32.45C78.7908 31.8167 79.9741 31.3667 81.3074 31.1C82.6408 30.8 84.0241 30.65 85.4574 30.65C86.4241 30.65 87.2741 30.7 88.0074 30.8C88.7741 30.8667 89.3908 30.9667 89.8574 31.1V30.4C89.8574 29.1333 89.4741 28.1167 88.7074 27.35C87.9408 26.5833 86.6074 26.2 84.7074 26.2C83.4408 26.2 82.1908 26.3 80.9574 26.5C79.7241 26.6667 78.6574 26.9167 77.7574 27.25L76.8074 21.25C77.2408 21.1167 77.7741 20.9833 78.4074 20.85C79.0741 20.6833 79.7908 20.55 80.5574 20.45C81.3241 20.3167 82.1241 20.2167 82.9574 20.15C83.8241 20.05 84.6908 20 85.5574 20ZM103.744 21.6C105.011 21.2333 106.644 20.9 108.644 20.6C110.644 20.2667 112.744 20.1 114.944 20.1C117.177 20.1 119.027 20.4 120.494 21C121.994 21.5667 123.177 22.3833 124.044 23.45C124.911 24.5167 125.527 25.7833 125.894 27.25C126.261 28.7167 126.444 30.35 126.444 32.15V47H118.994V33.05C118.994 30.65 118.677 28.95 118.044 27.95C117.411 26.95 116.227 26.45 114.494 26.45C113.961 26.45 113.394 26.4833 112.794 26.55C112.194 26.5833 111.661 26.6333 111.194 26.7V47H103.744V21.6ZM131.938 33.85C131.938 31.95 132.238 30.1667 132.838 28.5C133.471 26.8 134.371 25.3333 135.538 24.1C136.704 22.8333 138.121 21.8333 139.788 21.1C141.454 20.3667 143.354 20 145.488 20C146.888 20 148.171 20.1333 149.338 20.4C150.504 20.6333 151.638 20.9833 152.738 21.45L151.188 27.4C150.488 27.1333 149.721 26.9 148.888 26.7C148.054 26.5 147.121 26.4 146.088 26.4C143.888 26.4 142.238 27.0833 141.138 28.45C140.071 29.8167 139.538 31.6167 139.538 33.85C139.538 36.2167 140.038 38.05 141.038 39.35C142.071 40.65 143.854 41.3 146.388 41.3C147.288 41.3 148.254 41.2167 149.288 41.05C150.321 40.8833 151.271 40.6167 152.138 40.25L153.188 46.35C152.321 46.7167 151.238 47.0333 149.938 47.3C148.638 47.5667 147.204 47.7 145.638 47.7C143.238 47.7 141.171 47.35 139.438 46.65C137.704 45.9167 136.271 44.9333 135.138 43.7C134.038 42.4667 133.221 41.0167 132.688 39.35C132.188 37.65 131.938 35.8167 131.938 33.85ZM165.638 47H158.188V20.7H165.638V47ZM166.338 13.1C166.338 14.4667 165.888 15.55 164.988 16.35C164.121 17.1167 163.088 17.5 161.888 17.5C160.688 17.5 159.638 17.1167 158.738 16.35C157.871 15.55 157.438 14.4667 157.438 13.1C157.438 11.7333 157.871 10.6667 158.738 9.9C159.638 9.1 160.688 8.7 161.888 8.7C163.088 8.7 164.121 9.1 164.988 9.9C165.888 10.6667 166.338 11.7333 166.338 13.1ZM182.691 41.8C183.424 41.8 184.124 41.7833 184.791 41.75C185.457 41.7167 185.991 41.6667 186.391 41.6V35.95C186.091 35.8833 185.641 35.8167 185.041 35.75C184.441 35.6833 183.891 35.65 183.391 35.65C182.691 35.65 182.024 35.7 181.391 35.8C180.791 35.8667 180.257 36.0167 179.791 36.25C179.324 36.4833 178.957 36.8 178.691 37.2C178.424 37.6 178.291 38.1 178.291 38.7C178.291 39.8667 178.674 40.6833 179.441 41.15C180.241 41.5833 181.324 41.8 182.691 41.8ZM182.091 20C184.291 20 186.124 20.25 187.591 20.75C189.057 21.25 190.224 21.9667 191.091 22.9C191.991 23.8333 192.624 24.9667 192.991 26.3C193.357 27.6333 193.541 29.1167 193.541 30.75V46.25C192.474 46.4833 190.991 46.75 189.091 47.05C187.191 47.3833 184.891 47.55 182.191 47.55C180.491 47.55 178.941 47.4 177.541 47.1C176.174 46.8 174.991 46.3167 173.991 45.65C172.991 44.95 172.224 44.05 171.691 42.95C171.157 41.85 170.891 40.5 170.891 38.9C170.891 37.3667 171.191 36.0667 171.791 35C172.424 33.9333 173.257 33.0833 174.291 32.45C175.324 31.8167 176.507 31.3667 177.841 31.1C179.174 30.8 180.557 30.65 181.991 30.65C182.957 30.65 183.807 30.7 184.541 30.8C185.307 30.8667 185.924 30.9667 186.391 31.1V30.4C186.391 29.1333 186.007 28.1167 185.241 27.35C184.474 26.5833 183.141 26.2 181.241 26.2C179.974 26.2 178.724 26.3 177.491 26.5C176.257 26.6667 175.191 26.9167 174.291 27.25L173.341 21.25C173.774 21.1167 174.307 20.9833 174.941 20.85C175.607 20.6833 176.324 20.55 177.091 20.45C177.857 20.3167 178.657 20.2167 179.491 20.15C180.357 20.05 181.224 20 182.091 20ZM210.777 47.5C208.611 47.4667 206.844 47.2333 205.477 46.8C204.144 46.3667 203.077 45.7667 202.277 45C201.511 44.2 200.977 43.25 200.677 42.15C200.411 41.0167 200.277 39.75 200.277 38.35V9.4L207.727 8.2V36.85C207.727 37.5167 207.777 38.1167 207.877 38.65C207.977 39.1833 208.161 39.6333 208.427 40C208.727 40.3667 209.144 40.6667 209.677 40.9C210.211 41.1333 210.927 41.2833 211.827 41.35L210.777 47.5ZM228.609 47V12.35H252.009V18.9H236.409V25.7H250.259V32.1H236.409V40.45H253.159V47H228.609ZM264.196 33.65C264.196 35.95 264.712 37.8 265.746 39.2C266.779 40.6 268.312 41.3 270.346 41.3C271.012 41.3 271.629 41.2833 272.196 41.25C272.762 41.1833 273.229 41.1167 273.596 41.05V27.5C273.129 27.2 272.512 26.95 271.746 26.75C271.012 26.55 270.262 26.45 269.496 26.45C265.962 26.45 264.196 28.85 264.196 33.65ZM281.046 46.15C280.379 46.35 279.612 46.55 278.746 46.75C277.879 46.9167 276.962 47.0667 275.996 47.2C275.062 47.3333 274.096 47.4333 273.096 47.5C272.129 47.6 271.196 47.65 270.296 47.65C268.129 47.65 266.196 47.3333 264.496 46.7C262.796 46.0667 261.362 45.1667 260.196 44C259.029 42.8 258.129 41.3667 257.496 39.7C256.896 38 256.596 36.1 256.596 34C256.596 31.8667 256.862 29.95 257.396 28.25C257.929 26.5167 258.696 25.05 259.696 23.85C260.696 22.65 261.912 21.7333 263.346 21.1C264.812 20.4667 266.479 20.15 268.346 20.15C269.379 20.15 270.296 20.25 271.096 20.45C271.929 20.65 272.762 20.9333 273.596 21.3V9.4L281.046 8.2V46.15ZM310.471 46.1C309.205 46.4667 307.571 46.8 305.571 47.1C303.571 47.4333 301.471 47.6 299.271 47.6C297.038 47.6 295.171 47.3 293.671 46.7C292.205 46.1 291.038 45.2667 290.171 44.2C289.305 43.1 288.688 41.8 288.321 40.3C287.955 38.8 287.771 37.15 287.771 35.35V20.7H295.221V34.45C295.221 36.85 295.538 38.5833 296.171 39.65C296.805 40.7167 297.988 41.25 299.721 41.25C300.255 41.25 300.821 41.2333 301.421 41.2C302.021 41.1333 302.555 41.0667 303.021 41V20.7H310.471V46.1ZM316.215 33.85C316.215 31.95 316.515 30.1667 317.115 28.5C317.748 26.8 318.648 25.3333 319.815 24.1C320.982 22.8333 322.398 21.8333 324.065 21.1C325.732 20.3667 327.632 20 329.765 20C331.165 20 332.448 20.1333 333.615 20.4C334.782 20.6333 335.915 20.9833 337.015 21.45L335.465 27.4C334.765 27.1333 333.998 26.9 333.165 26.7C332.332 26.5 331.398 26.4 330.365 26.4C328.165 26.4 326.515 27.0833 325.415 28.45C324.348 29.8167 323.815 31.6167 323.815 33.85C323.815 36.2167 324.315 38.05 325.315 39.35C326.348 40.65 328.132 41.3 330.665 41.3C331.565 41.3 332.532 41.2167 333.565 41.05C334.598 40.8833 335.548 40.6167 336.415 40.25L337.465 46.35C336.598 46.7167 335.515 47.0333 334.215 47.3C332.915 47.5667 331.482 47.7 329.915 47.7C327.515 47.7 325.448 47.35 323.715 46.65C321.982 45.9167 320.548 44.9333 319.415 43.7C318.315 42.4667 317.498 41.0167 316.965 39.35C316.465 37.65 316.215 35.8167 316.215 33.85ZM351.245 41.8C351.979 41.8 352.679 41.7833 353.345 41.75C354.012 41.7167 354.545 41.6667 354.945 41.6V35.95C354.645 35.8833 354.195 35.8167 353.595 35.75C352.995 35.6833 352.445 35.65 351.945 35.65C351.245 35.65 350.579 35.7 349.945 35.8C349.345 35.8667 348.812 36.0167 348.345 36.25C347.879 36.4833 347.512 36.8 347.245 37.2C346.979 37.6 346.845 38.1 346.845 38.7C346.845 39.8667 347.229 40.6833 347.995 41.15C348.795 41.5833 349.879 41.8 351.245 41.8ZM350.645 20C352.845 20 354.679 20.25 356.145 20.75C357.612 21.25 358.779 21.9667 359.645 22.9C360.545 23.8333 361.179 24.9667 361.545 26.3C361.912 27.6333 362.095 29.1167 362.095 30.75V46.25C361.029 46.4833 359.545 46.75 357.645 47.05C355.745 47.3833 353.445 47.55 350.745 47.55C349.045 47.55 347.495 47.4 346.095 47.1C344.729 46.8 343.545 46.3167 342.545 45.65C341.545 44.95 340.779 44.05 340.245 42.95C339.712 41.85 339.445 40.5 339.445 38.9C339.445 37.3667 339.745 36.0667 340.345 35C340.979 33.9333 341.812 33.0833 342.845 32.45C343.879 31.8167 345.062 31.3667 346.395 31.1C347.729 30.8 349.112 30.65 350.545 30.65C351.512 30.65 352.362 30.7 353.095 30.8C353.862 30.8667 354.479 30.9667 354.945 31.1V30.4C354.945 29.1333 354.562 28.1167 353.795 27.35C353.029 26.5833 351.695 26.2 349.795 26.2C348.529 26.2 347.279 26.3 346.045 26.5C344.812 26.6667 343.745 26.9167 342.845 27.25L341.895 21.25C342.329 21.1167 342.862 20.9833 343.495 20.85C344.162 20.6833 344.879 20.55 345.645 20.45C346.412 20.3167 347.212 20.2167 348.045 20.15C348.912 20.05 349.779 20 350.645 20ZM368.582 14.15L376.032 12.95V20.7H384.982V26.9H376.032V36.15C376.032 37.7167 376.299 38.9667 376.832 39.9C377.399 40.8333 378.515 41.3 380.182 41.3C380.982 41.3 381.799 41.2333 382.632 41.1C383.499 40.9333 384.282 40.7167 384.982 40.45L386.032 46.25C385.132 46.6167 384.132 46.9333 383.032 47.2C381.932 47.4667 380.582 47.6 378.982 47.6C376.949 47.6 375.265 47.3333 373.932 46.8C372.599 46.2333 371.532 45.4667 370.732 44.5C369.932 43.5 369.365 42.3 369.032 40.9C368.732 39.5 368.582 37.95 368.582 36.25V14.15ZM398.499 47H391.049V20.7H398.499V47ZM399.199 13.1C399.199 14.4667 398.749 15.55 397.849 16.35C396.982 17.1167 395.949 17.5 394.749 17.5C393.549 17.5 392.499 17.1167 391.599 16.35C390.732 15.55 390.299 14.4667 390.299 13.1C390.299 11.7333 390.732 10.6667 391.599 9.9C392.499 9.1 393.549 8.7 394.749 8.7C395.949 8.7 396.982 9.1 397.849 9.9C398.749 10.6667 399.199 11.7333 399.199 13.1ZM430.102 33.8C430.102 35.8667 429.802 37.7667 429.202 39.5C428.602 41.2 427.735 42.6667 426.602 43.9C425.469 45.1 424.102 46.0333 422.502 46.7C420.935 47.3667 419.169 47.7 417.202 47.7C415.269 47.7 413.502 47.3667 411.902 46.7C410.335 46.0333 408.985 45.1 407.852 43.9C406.719 42.6667 405.835 41.2 405.202 39.5C404.569 37.7667 404.252 35.8667 404.252 33.8C404.252 31.7333 404.569 29.85 405.202 28.15C405.869 26.45 406.769 25 407.902 23.8C409.069 22.6 410.435 21.6667 412.002 21C413.602 20.3333 415.335 20 417.202 20C419.102 20 420.835 20.3333 422.402 21C424.002 21.6667 425.369 22.6 426.502 23.8C427.635 25 428.519 26.45 429.152 28.15C429.785 29.85 430.102 31.7333 430.102 33.8ZM422.502 33.8C422.502 31.5 422.035 29.7 421.102 28.4C420.202 27.0667 418.902 26.4 417.202 26.4C415.502 26.4 414.185 27.0667 413.252 28.4C412.319 29.7 411.852 31.5 411.852 33.8C411.852 36.1 412.319 37.9333 413.252 39.3C414.185 40.6333 415.502 41.3 417.202 41.3C418.902 41.3 420.202 40.6333 421.102 39.3C422.035 37.9333 422.502 36.1 422.502 33.8ZM435.873 21.6C437.14 21.2333 438.773 20.9 440.773 20.6C442.773 20.2667 444.873 20.1 447.073 20.1C449.306 20.1 451.156 20.4 452.623 21C454.123 21.5667 455.306 22.3833 456.173 23.45C457.04 24.5167 457.656 25.7833 458.023 27.25C458.39 28.7167 458.573 30.35 458.573 32.15V47H451.123V33.05C451.123 30.65 450.806 28.95 450.173 27.95C449.54 26.95 448.356 26.45 446.623 26.45C446.09 26.45 445.523 26.4833 444.923 26.55C444.323 26.5833 443.79 26.6333 443.323 26.7V47H435.873V21.6Z" fill="white"/>
</svg>
