<svg width="429" height="287" viewBox="0 0 429 287" fill="none" xmlns="http://www.w3.org/2000/svg">
<path d="M26.282 281V277.136H30.44V276.058H26.282V272.698H31.35V271.62H25.064V281H26.282ZM33.9076 281V271.62H32.6896V281H33.9076ZM37.1385 281.14C38.5385 281.14 39.2665 280.132 39.4905 279.236V279.712C39.4905 280.664 39.9945 281 40.6945 281H41.4785V279.894H41.0445C40.7925 279.894 40.6665 279.796 40.6665 279.474V276.688C40.6665 275.078 39.7705 274.084 38.1045 274.084C36.5925 274.084 35.5845 274.938 35.1785 275.638L36.0045 276.492C36.3545 275.75 36.9985 275.19 37.9645 275.19C39.0285 275.19 39.4065 275.778 39.4485 276.576L36.9985 277.668C36.0325 278.102 35.3465 278.676 35.3465 279.586C35.3465 280.482 35.9905 281.14 37.1385 281.14ZM36.5785 279.39C36.5785 278.97 36.8725 278.69 37.5165 278.382L39.4905 277.458V278.396C39.4905 279.376 38.6785 280.132 37.5305 280.132C36.9005 280.132 36.5785 279.852 36.5785 279.39ZM44.9654 281.154C45.9034 281.154 46.5474 280.72 46.8414 280.258L46.4354 279.054C46.2534 279.474 45.8334 279.978 45.2314 279.978C44.6994 279.978 44.2934 279.768 44.2934 278.9V275.176H46.5194V274.224H44.2934V272.46L43.0754 273.356V274.224H41.9834V275.176H43.0754V279.264C43.0754 280.426 43.8594 281.154 44.9654 281.154ZM57.2956 281V279.922H52.3816V271.62H51.1636V281H57.2956ZM60.6576 281.14C62.5336 281.14 63.8636 279.754 63.8636 277.612C63.8636 275.47 62.5336 274.084 60.6576 274.084C58.7816 274.084 57.4656 275.47 57.4656 277.612C57.4656 279.754 58.7816 281.14 60.6576 281.14ZM60.6576 280.118C59.5096 280.118 58.7116 279.32 58.7116 277.612C58.7116 275.89 59.5096 275.106 60.6576 275.106C61.8196 275.106 62.6316 275.89 62.6316 277.612C62.6316 279.32 61.8196 280.118 60.6576 280.118ZM67.9841 278.928C69.5801 278.928 70.6581 277.92 70.6581 276.506C70.6581 275.666 70.2661 274.952 69.6221 274.532L70.8681 273.132L69.6081 272.684L69.1881 274.308C68.8381 274.168 68.4321 274.084 67.9841 274.084C66.3881 274.084 65.3101 275.092 65.3101 276.506C65.3101 277.36 65.7021 278.074 66.3741 278.494C65.7161 279.026 65.3101 279.614 65.3101 280.146C65.3101 280.594 65.5341 280.916 65.9681 281.056C65.4501 281.266 64.8761 281.644 64.8761 282.274C64.8761 283.17 65.9681 283.744 67.7041 283.744C69.9861 283.744 71.2461 282.834 71.2461 281.546C71.2461 280.524 70.4761 280.034 69.2441 280.034H67.2001C66.5001 280.034 66.3041 279.852 66.3041 279.488C66.3041 279.194 66.5001 278.872 66.6681 278.648C67.0461 278.83 67.4941 278.928 67.9841 278.928ZM67.9841 277.99C67.1441 277.99 66.4861 277.43 66.4861 276.506C66.4861 275.582 67.1441 275.022 67.9841 275.022C68.8381 275.022 69.4821 275.582 69.4821 276.506C69.4821 277.43 68.8381 277.99 67.9841 277.99ZM67.7041 282.778C66.4861 282.778 65.8561 282.442 65.8561 281.896C65.8561 281.574 66.0941 281.28 66.3181 281.084H69.0901C69.7761 281.084 70.1121 281.28 70.1121 281.714C70.1121 282.386 69.2441 282.778 67.7041 282.778ZM75.013 281.14C76.889 281.14 78.219 279.754 78.219 277.612C78.219 275.47 76.889 274.084 75.013 274.084C73.137 274.084 71.821 275.47 71.821 277.612C71.821 279.754 73.137 281.14 75.013 281.14ZM75.013 280.118C73.865 280.118 73.067 279.32 73.067 277.612C73.067 275.89 73.865 275.106 75.013 275.106C76.175 275.106 76.987 275.89 76.987 277.612C76.987 279.32 76.175 280.118 75.013 280.118Z" fill="#3D0072"/>
<g filter="url(#filter0_d_5962_87732)">
<g clip-path="url(#clip0_5962_87732)">
<rect x="24" y="12" width="381" height="235" fill="white"/>
<g clip-path="url(#clip1_5962_87732)">
<path d="M156.268 114.567C156.268 117.841 156.268 121.124 156.287 124.398C156.287 127.224 155.371 129.973 152.746 131.424C149.682 133.104 145.329 132.674 141.912 132.321C141.778 132.321 141.664 132.292 141.54 132.283C141.654 129.925 141.606 127.539 141.492 125.191C141.349 122.002 143.277 118.203 146.704 117.669C150.417 117.087 153.653 116.686 155.409 114.633C155.466 114.576 155.523 114.509 155.571 114.443C155.829 114.089 156.106 113.755 156.383 113.412C156.297 113.784 156.268 114.175 156.268 114.557V114.567Z" fill="#3D0072"/>
<path d="M145.033 153.674C147.591 153.837 150.168 153.798 152.727 153.846C155.714 153.894 158.778 154.266 161.661 153.741C165.804 152.987 170.462 150.286 171.999 146.286C173.421 142.583 172.753 138.163 170.299 135.051C170.128 134.841 169.946 134.631 169.746 134.421C167.264 131.711 163.417 130.288 159.752 130.775C155.199 131.376 151.19 134.956 150.006 139.395C149.271 142.163 149.911 145.103 149.481 147.919C149.128 150.248 147.133 152.634 145.023 153.674H145.033Z" fill="#3D0072"/>
<path d="M170.627 104C170.398 104.697 170.675 105.451 170.971 106.119C174.77 114.586 184.945 120.313 184.592 130.488C184.43 135.089 182.139 140.492 178.292 143.222C178.015 143.422 177.758 143.594 177.433 143.69C176.698 142.315 176.622 140.31 176.001 138.802C175.219 136.903 174.188 135.041 172.746 133.571C171.362 132.168 169.635 131.357 168.25 129.982C165.349 127.081 163.516 123.11 163.277 119.005C162.934 113.164 165.855 107.36 170.637 104.019L170.627 104Z" fill="#3D0072"/>
<path d="M144.204 124.427C144.204 124.427 144.071 121.879 146.686 122.003C146.686 122.003 147.641 124.79 144.204 124.427V124.427Z" fill="white"/>
<path d="M143.334 146.038C145.727 146.038 147.667 144.098 147.667 141.704C147.667 139.311 145.727 137.371 143.334 137.371C140.94 137.371 139 139.311 139 141.704C139 144.098 140.94 146.038 143.334 146.038Z" fill="#3D0072"/>
<path d="M194.832 146.105L203.136 123.912H207.584L215.889 146.105H211.545L209.512 140.721H201.237L199.203 146.105H194.812H194.832ZM202.63 137.122H208.166L205.37 128.646L202.63 137.122V137.122Z" fill="#3D0072"/>
<path d="M218.109 146.104V131.07H222.042V134.592C222.405 133.304 222.978 132.339 223.76 131.7C224.533 131.06 225.383 130.736 226.309 130.736C227.235 130.736 228.065 130.917 228.781 131.289L228.103 134.812C227.502 134.535 226.748 134.401 225.822 134.401C223.302 134.401 222.052 136.53 222.052 140.778V146.104H218.119H218.109Z" fill="#3D0072"/>
<path d="M230.703 141.818C230.302 140.835 230.102 139.757 230.102 138.602C230.102 137.447 230.302 136.368 230.703 135.366C231.104 134.363 231.638 133.533 232.316 132.855C232.994 132.187 233.786 131.662 234.683 131.29C235.59 130.918 236.535 130.727 237.528 130.727C238.521 130.727 239.494 130.937 240.353 131.347C241.212 131.758 241.842 132.34 242.253 133.075V122.861H246.185V146.095H242.253V144.052C241.842 144.787 241.212 145.369 240.344 145.78C239.485 146.2 238.54 146.4 237.528 146.4C236.516 146.4 235.59 146.209 234.693 145.837C233.796 145.465 233.003 144.949 232.326 144.281C231.648 143.613 231.104 142.792 230.703 141.799V141.818ZM234.225 138.544C234.225 139.757 234.607 140.74 235.361 141.503C236.125 142.267 237.06 142.649 238.177 142.649C239.294 142.649 240.229 142.267 241.021 141.513C241.814 140.759 242.196 139.766 242.196 138.554C242.196 137.342 241.795 136.358 240.993 135.623C240.191 134.888 239.256 134.526 238.177 134.526C237.098 134.526 236.115 134.898 235.361 135.643C234.607 136.387 234.225 137.361 234.225 138.563V138.544Z" fill="#3D0072"/>
<path d="M249.969 125.229C249.969 124.57 250.217 124.007 250.723 123.549C251.229 123.09 251.821 122.861 252.508 122.861C253.195 122.861 253.777 123.09 254.274 123.549C254.77 124.007 255.009 124.56 255.009 125.229C255.009 125.897 254.761 126.46 254.274 126.918C253.787 127.376 253.195 127.605 252.508 127.605C251.821 127.605 251.21 127.376 250.713 126.918C250.217 126.46 249.969 125.897 249.969 125.229V125.229ZM250.522 146.104V131.07H254.455V146.104H250.522Z" fill="#3D0072"/>
<path d="M258.875 146.104V127.605H262.808V146.104H258.875Z" fill="#3D0072"/>
<path d="M267.234 146.104V122.871H271.167V146.104H267.234Z" fill="#3D0072"/>
<path d="M274.688 138.563C274.688 137.389 274.898 136.31 275.327 135.308C275.757 134.315 276.329 133.485 277.045 132.826C277.761 132.168 278.582 131.652 279.508 131.289C280.434 130.927 281.398 130.736 282.4 130.736C283.231 130.736 284.09 130.908 284.977 131.261C285.865 131.614 286.562 132.168 287.068 132.922V131.06H291V146.094H287.068V144.147C286.629 144.863 285.951 145.417 285.035 145.798C284.118 146.18 283.24 146.371 282.41 146.371C281.064 146.371 279.813 146.056 278.649 145.436C277.484 144.815 276.53 143.889 275.795 142.677C275.06 141.465 274.697 140.09 274.697 138.544L274.688 138.563ZM278.811 138.563C278.811 139.737 279.222 140.701 280.052 141.465C280.882 142.228 281.847 142.61 282.954 142.61C284.061 142.61 285.035 142.248 285.846 141.513C286.657 140.778 287.058 139.794 287.058 138.563C287.058 137.332 286.648 136.348 285.827 135.614C285.006 134.879 284.042 134.516 282.944 134.516C281.847 134.516 280.854 134.898 280.033 135.652C279.212 136.415 278.802 137.379 278.802 138.563H278.811Z" fill="#3D0072"/>
</g>
<g filter="url(#filter1_d_5962_87732)">
<rect x="48" y="28" width="22" height="22" rx="11" fill="white"/>
<path d="M62.75 40.875V42.75H55.25V40.875H54V42.75C54 43.4375 54.5625 44 55.25 44H62.75C63.4375 44 64 43.4375 64 42.75V40.875H62.75ZM62.125 38.375L61.2438 37.4938L59.625 39.1063V34H58.375V39.1063L56.7562 37.4938L55.875 38.375L59 41.5L62.125 38.375Z" fill="black"/>
</g>
</g>
</g>
<defs>
<filter id="filter0_d_5962_87732" x="0" y="0" width="429" height="283" filterUnits="userSpaceOnUse" color-interpolation-filters="sRGB">
<feFlood flood-opacity="0" result="BackgroundImageFix"/>
<feColorMatrix in="SourceAlpha" type="matrix" values="0 0 0 0 0 0 0 0 0 0 0 0 0 0 0 0 0 0 127 0" result="hardAlpha"/>
<feOffset dy="12"/>
<feGaussianBlur stdDeviation="12"/>
<feComposite in2="hardAlpha" operator="out"/>
<feColorMatrix type="matrix" values="0 0 0 0 0.45225 0 0 0 0 0.42 0 0 0 0 0.48 0 0 0 0.15 0"/>
<feBlend mode="normal" in2="BackgroundImageFix" result="effect1_dropShadow_5962_87732"/>
<feBlend mode="normal" in="SourceGraphic" in2="effect1_dropShadow_5962_87732" result="shape"/>
</filter>
<filter id="filter1_d_5962_87732" x="44" y="28" width="30" height="30" filterUnits="userSpaceOnUse" color-interpolation-filters="sRGB">
<feFlood flood-opacity="0" result="BackgroundImageFix"/>
<feColorMatrix in="SourceAlpha" type="matrix" values="0 0 0 0 0 0 0 0 0 0 0 0 0 0 0 0 0 0 127 0" result="hardAlpha"/>
<feOffset dy="4"/>
<feGaussianBlur stdDeviation="2"/>
<feComposite in2="hardAlpha" operator="out"/>
<feColorMatrix type="matrix" values="0 0 0 0 0 0 0 0 0 0 0 0 0 0 0 0 0 0 0.25 0"/>
<feBlend mode="normal" in2="BackgroundImageFix" result="effect1_dropShadow_5962_87732"/>
<feBlend mode="normal" in="SourceGraphic" in2="effect1_dropShadow_5962_87732" result="shape"/>
</filter>
<clipPath id="clip0_5962_87732">
<rect x="24" y="12" width="381" height="235" rx="8" fill="white"/>
</clipPath>
<clipPath id="clip1_5962_87732">
<rect width="152" height="50.0176" fill="white" transform="translate(139 104)"/>
</clipPath>
</defs>
</svg>
