<svg width="429" height="287" viewBox="0 0 429 287" fill="none" xmlns="http://www.w3.org/2000/svg">
<path d="M26.282 281V277.136H30.44V276.058H26.282V272.698H31.35V271.62H25.064V281H26.282ZM33.9076 281V271.62H32.6896V281H33.9076ZM37.1385 281.14C38.5385 281.14 39.2665 280.132 39.4905 279.236V279.712C39.4905 280.664 39.9945 281 40.6945 281H41.4785V279.894H41.0445C40.7925 279.894 40.6665 279.796 40.6665 279.474V276.688C40.6665 275.078 39.7705 274.084 38.1045 274.084C36.5925 274.084 35.5845 274.938 35.1785 275.638L36.0045 276.492C36.3545 275.75 36.9985 275.19 37.9645 275.19C39.0285 275.19 39.4065 275.778 39.4485 276.576L36.9985 277.668C36.0325 278.102 35.3465 278.676 35.3465 279.586C35.3465 280.482 35.9905 281.14 37.1385 281.14ZM36.5785 279.39C36.5785 278.97 36.8725 278.69 37.5165 278.382L39.4905 277.458V278.396C39.4905 279.376 38.6785 280.132 37.5305 280.132C36.9005 280.132 36.5785 279.852 36.5785 279.39ZM44.9654 281.154C45.9034 281.154 46.5474 280.72 46.8414 280.258L46.4354 279.054C46.2534 279.474 45.8334 279.978 45.2314 279.978C44.6994 279.978 44.2934 279.768 44.2934 278.9V275.176H46.5194V274.224H44.2934V272.46L43.0754 273.356V274.224H41.9834V275.176H43.0754V279.264C43.0754 280.426 43.8594 281.154 44.9654 281.154ZM57.2956 281V279.922H52.3816V271.62H51.1636V281H57.2956ZM60.6576 281.14C62.5336 281.14 63.8636 279.754 63.8636 277.612C63.8636 275.47 62.5336 274.084 60.6576 274.084C58.7816 274.084 57.4656 275.47 57.4656 277.612C57.4656 279.754 58.7816 281.14 60.6576 281.14ZM60.6576 280.118C59.5096 280.118 58.7116 279.32 58.7116 277.612C58.7116 275.89 59.5096 275.106 60.6576 275.106C61.8196 275.106 62.6316 275.89 62.6316 277.612C62.6316 279.32 61.8196 280.118 60.6576 280.118ZM67.9841 278.928C69.5801 278.928 70.6581 277.92 70.6581 276.506C70.6581 275.666 70.2661 274.952 69.6221 274.532L70.8681 273.132L69.6081 272.684L69.1881 274.308C68.8381 274.168 68.4321 274.084 67.9841 274.084C66.3881 274.084 65.3101 275.092 65.3101 276.506C65.3101 277.36 65.7021 278.074 66.3741 278.494C65.7161 279.026 65.3101 279.614 65.3101 280.146C65.3101 280.594 65.5341 280.916 65.9681 281.056C65.4501 281.266 64.8761 281.644 64.8761 282.274C64.8761 283.17 65.9681 283.744 67.7041 283.744C69.9861 283.744 71.2461 282.834 71.2461 281.546C71.2461 280.524 70.4761 280.034 69.2441 280.034H67.2001C66.5001 280.034 66.3041 279.852 66.3041 279.488C66.3041 279.194 66.5001 278.872 66.6681 278.648C67.0461 278.83 67.4941 278.928 67.9841 278.928ZM67.9841 277.99C67.1441 277.99 66.4861 277.43 66.4861 276.506C66.4861 275.582 67.1441 275.022 67.9841 275.022C68.8381 275.022 69.4821 275.582 69.4821 276.506C69.4821 277.43 68.8381 277.99 67.9841 277.99ZM67.7041 282.778C66.4861 282.778 65.8561 282.442 65.8561 281.896C65.8561 281.574 66.0941 281.28 66.3181 281.084H69.0901C69.7761 281.084 70.1121 281.28 70.1121 281.714C70.1121 282.386 69.2441 282.778 67.7041 282.778ZM75.013 281.14C76.889 281.14 78.219 279.754 78.219 277.612C78.219 275.47 76.889 274.084 75.013 274.084C73.137 274.084 71.821 275.47 71.821 277.612C71.821 279.754 73.137 281.14 75.013 281.14ZM75.013 280.118C73.865 280.118 73.067 279.32 73.067 277.612C73.067 275.89 73.865 275.106 75.013 275.106C76.175 275.106 76.987 275.89 76.987 277.612C76.987 279.32 76.175 280.118 75.013 280.118ZM84.2097 281V275.82L84.0557 273.286L85.1057 275.61L87.1217 279.432H88.3117L90.3277 275.61L91.3637 273.286L91.2377 275.82V281H92.4557V271.62H91.0977L88.6617 276.268L87.7237 278.326L86.7717 276.268L84.3497 271.62H82.9917V281H84.2097ZM95.9822 281.14C97.3822 281.14 98.1102 280.132 98.3342 279.236V279.712C98.3342 280.664 98.8382 281 99.5382 281H100.322V279.894H99.8882C99.6362 279.894 99.5102 279.796 99.5102 279.474V276.688C99.5102 275.078 98.6142 274.084 96.9482 274.084C95.4362 274.084 94.4282 274.938 94.0222 275.638L94.8482 276.492C95.1982 275.75 95.8422 275.19 96.8082 275.19C97.8722 275.19 98.2502 275.778 98.2922 276.576L95.8422 277.668C94.8762 278.102 94.1902 278.676 94.1902 279.586C94.1902 280.482 94.8342 281.14 95.9822 281.14ZM95.4222 279.39C95.4222 278.97 95.7162 278.69 96.3602 278.382L98.3342 277.458V278.396C98.3342 279.376 97.5222 280.132 96.3742 280.132C95.7442 280.132 95.4222 279.852 95.4222 279.39ZM102.951 281V277.164C102.951 276.002 103.735 274.98 104.603 274.98C105.093 274.98 105.303 275.316 105.303 275.708C105.303 276.086 105.121 276.506 104.897 276.702H106.227C106.339 276.534 106.493 276.114 106.493 275.54C106.493 274.588 105.793 274.07 105.065 274.07C103.917 274.07 103.217 274.98 102.951 276.03V274.224H101.733V281H102.951ZM108.857 281V278.634L109.935 277.612L112.133 281H113.603L110.775 276.856L113.561 274.224H112.035L109.809 276.352L108.815 277.332L108.857 276.38V271.62H107.639V281H108.857Z" fill="#3D0072"/>
<g filter="url(#filter0_d_5962_87745)">
<g clip-path="url(#clip0_5962_87745)">
<rect x="24" y="12" width="381" height="235" fill="white"/>
<path d="M204.191 102.697C204.191 108.8 204.191 114.921 204.226 121.024C204.226 126.291 202.518 131.415 197.625 134.12C191.913 137.252 183.8 136.451 177.43 135.792C177.18 135.792 176.967 135.739 176.736 135.721C176.949 131.326 176.86 126.878 176.647 122.501C176.38 116.558 179.974 109.476 186.362 108.48C193.283 107.394 199.315 106.647 202.589 102.821C202.696 102.715 202.803 102.59 202.892 102.466C203.372 101.807 203.888 101.185 204.404 100.544C204.244 101.238 204.191 101.967 204.191 102.679V102.697Z" fill="#3D0072"/>
<path d="M183.237 175.597C188.005 175.9 192.809 175.828 197.578 175.917C203.147 176.006 208.859 176.7 214.232 175.722C221.955 174.316 230.638 169.28 233.503 161.825C236.154 154.921 234.908 146.683 230.335 140.882C230.015 140.491 229.677 140.099 229.303 139.708C224.677 134.655 217.506 132.003 210.674 132.911C202.186 134.032 194.713 140.704 192.507 148.978C191.137 154.138 192.329 159.619 191.528 164.868C190.87 169.209 187.151 173.658 183.219 175.597H183.237Z" fill="#3D0072"/>
<path d="M230.947 83C230.52 84.2989 231.036 85.7046 231.588 86.9501C238.669 102.733 257.637 113.409 256.979 132.376C256.676 140.953 252.406 151.024 245.235 156.113C244.719 156.486 244.239 156.807 243.634 156.985C242.264 154.422 242.121 150.686 240.965 147.874C239.506 144.334 237.584 140.864 234.897 138.124C232.317 135.508 229.097 133.996 226.517 131.433C221.107 126.024 217.691 118.622 217.246 110.971C216.606 100.082 222.05 89.2632 230.965 83.0356L230.947 83Z" fill="#3D0072"/>
<path d="M181.697 121.078C181.697 121.078 181.448 116.328 186.324 116.559C186.324 116.559 188.103 121.755 181.697 121.078V121.078Z" fill="white" stroke="white" stroke-width="0.748154" stroke-miterlimit="10"/>
<path d="M180.078 161.362C184.54 161.362 188.156 157.745 188.156 153.284C188.156 148.822 184.54 145.206 180.078 145.206C175.617 145.206 172 148.822 172 153.284C172 157.745 175.617 161.362 180.078 161.362Z" fill="#3D0072"/>
<g filter="url(#filter1_d_5962_87745)">
<rect x="48" y="28" width="22" height="22" rx="11" fill="white"/>
<path d="M62.75 40.875V42.75H55.25V40.875H54V42.75C54 43.4375 54.5625 44 55.25 44H62.75C63.4375 44 64 43.4375 64 42.75V40.875H62.75ZM62.125 38.375L61.2438 37.4938L59.625 39.1062V34H58.375V39.1062L56.7562 37.4938L55.875 38.375L59 41.5L62.125 38.375Z" fill="black"/>
</g>
</g>
</g>
<defs>
<filter id="filter0_d_5962_87745" x="0" y="0" width="429" height="283" filterUnits="userSpaceOnUse" color-interpolation-filters="sRGB">
<feFlood flood-opacity="0" result="BackgroundImageFix"/>
<feColorMatrix in="SourceAlpha" type="matrix" values="0 0 0 0 0 0 0 0 0 0 0 0 0 0 0 0 0 0 127 0" result="hardAlpha"/>
<feOffset dy="12"/>
<feGaussianBlur stdDeviation="12"/>
<feComposite in2="hardAlpha" operator="out"/>
<feColorMatrix type="matrix" values="0 0 0 0 0.45225 0 0 0 0 0.42 0 0 0 0 0.48 0 0 0 0.15 0"/>
<feBlend mode="normal" in2="BackgroundImageFix" result="effect1_dropShadow_5962_87745"/>
<feBlend mode="normal" in="SourceGraphic" in2="effect1_dropShadow_5962_87745" result="shape"/>
</filter>
<filter id="filter1_d_5962_87745" x="44" y="28" width="30" height="30" filterUnits="userSpaceOnUse" color-interpolation-filters="sRGB">
<feFlood flood-opacity="0" result="BackgroundImageFix"/>
<feColorMatrix in="SourceAlpha" type="matrix" values="0 0 0 0 0 0 0 0 0 0 0 0 0 0 0 0 0 0 127 0" result="hardAlpha"/>
<feOffset dy="4"/>
<feGaussianBlur stdDeviation="2"/>
<feComposite in2="hardAlpha" operator="out"/>
<feColorMatrix type="matrix" values="0 0 0 0 0 0 0 0 0 0 0 0 0 0 0 0 0 0 0.25 0"/>
<feBlend mode="normal" in2="BackgroundImageFix" result="effect1_dropShadow_5962_87745"/>
<feBlend mode="normal" in="SourceGraphic" in2="effect1_dropShadow_5962_87745" result="shape"/>
</filter>
<clipPath id="clip0_5962_87745">
<rect x="24" y="12" width="381" height="235" rx="8" fill="white"/>
</clipPath>
</defs>
</svg>
