<svg width="22" height="22" viewBox="0 0 22 22" fill="none" xmlns="http://www.w3.org/2000/svg">
<rect width="22" height="22" rx="11" fill="white"/>
<path d="M12.2953 16.6176C11.607 16.6176 10.6328 16.1334 9.86284 13.8176L9.44284 12.5576L8.18284 12.1376C5.87284 11.3676 5.38867 10.3934 5.38867 9.7051C5.38867 9.0226 5.87284 8.0426 8.18284 7.26677L13.1353 5.61594C14.372 5.20177 15.4045 5.32427 16.0403 5.95427C16.6762 6.58427 16.7987 7.6226 16.3845 8.85927L14.7337 13.8118C13.9578 16.1334 12.9837 16.6176 12.2953 16.6176ZM8.45701 8.10094C6.83534 8.64344 6.25784 9.2851 6.25784 9.7051C6.25784 10.1251 6.83534 10.7668 8.45701 11.3034L9.927 11.7934C10.0553 11.8343 10.1603 11.9393 10.2012 12.0676L10.6912 13.5376C11.2278 15.1593 11.8753 15.7368 12.2953 15.7368C12.7153 15.7368 13.357 15.1593 13.8995 13.5376L15.5503 8.5851C15.8478 7.68677 15.7953 6.95177 15.4162 6.5726C15.037 6.19344 14.302 6.14677 13.4095 6.44427L8.45701 8.10094Z" fill="#8807F7"/>
<path d="M9.89698 12.3998C9.78615 12.3998 9.67531 12.359 9.58781 12.2715C9.41865 12.1023 9.41865 11.8223 9.58781 11.6532L11.6761 9.559C11.8453 9.38984 12.1253 9.38984 12.2945 9.559C12.4636 9.72817 12.4636 10.0082 12.2945 10.1773L10.2061 12.2715C10.1245 12.359 10.0078 12.3998 9.89698 12.3998Z" fill="#8807F7"/>
</svg>
