<svg width="553" height="328" viewBox="0 0 553 328" fill="none" xmlns="http://www.w3.org/2000/svg">
<path d="M346.858 213.254H205.943L-87.8103 1170.9C-90.0815 1178.35 -90.5735 1186.24 -89.2469 1193.93C-87.9203 1201.61 -84.812 1208.88 -80.1711 1215.14C-75.5302 1221.41 -69.4858 1226.5 -62.5225 1230.01C-55.5591 1233.52 -47.8704 1235.35 -40.0728 1235.35H592.914C600.721 1235.35 608.419 1233.52 615.39 1230.01C622.361 1226.5 628.411 1221.4 633.054 1215.12C637.697 1208.84 640.802 1201.57 642.122 1193.87C643.441 1186.18 642.938 1178.28 640.652 1170.82L346.858 213.254Z" fill="#E8356D"/>
<path opacity="0.2" d="M346.86 213.254H276.422L187.088 1235.35H592.916C600.722 1235.35 608.421 1233.52 615.392 1230.01C622.363 1226.5 628.413 1221.4 633.056 1215.12C637.698 1208.84 640.804 1201.57 642.124 1193.87C643.443 1186.18 642.939 1178.28 640.653 1170.82L346.86 213.254Z" fill="#263238"/>
<path opacity="0.2" d="M346.859 213.254H313.779L414.602 1235.35H592.875C600.682 1235.35 608.38 1233.52 615.351 1230.01C622.322 1226.5 628.372 1221.4 633.015 1215.12C637.658 1208.84 640.763 1201.57 642.083 1193.87C643.402 1186.18 642.899 1178.28 640.613 1170.82L346.859 213.254Z" fill="#263238"/>
<path opacity="0.2" d="M205.942 213.254H239.893L-3.07249 1235.35H-40.074C-47.8807 1235.35 -55.5789 1233.52 -62.5502 1230.01C-69.5214 1226.5 -75.5713 1221.4 -80.2139 1215.12C-84.8565 1208.84 -87.9623 1201.57 -89.2818 1193.87C-90.6013 1186.18 -90.0977 1178.28 -87.8115 1170.82L205.942 213.254Z" fill="white"/>
<path d="M275.308 175.182C295.881 175.174 315.882 181.951 332.212 194.463C348.542 206.976 360.289 224.525 365.633 244.392L411.112 413.553L399.029 467.035L352.757 423.219L308.902 523.923L268.969 453.922L219.37 523.923L197.819 418.941L152.735 478.682L142.039 409.591L184.825 244.946C190.072 224.951 201.798 207.258 218.17 194.635C234.541 182.012 254.635 175.171 275.308 175.182Z" fill="#E8356D"/>
<path opacity="0.7" d="M275.308 175.182C295.881 175.174 315.882 181.951 332.212 194.463C348.542 206.976 360.289 224.525 365.633 244.392L411.112 413.553L399.029 467.035L352.757 423.219L308.902 523.923L268.969 453.922L219.37 523.923L197.819 418.941L152.735 478.682L142.039 409.591L184.825 244.946C190.072 224.951 201.798 207.258 218.17 194.635C234.541 182.012 254.635 175.171 275.308 175.182Z" fill="white"/>
<path d="M187.081 1239.31C186.323 1239.31 185.58 1239.1 184.941 1238.69C184.302 1238.28 183.794 1237.7 183.476 1237.01L116.326 1091.54C115.979 1090.79 115.88 1089.94 116.044 1089.12C116.207 1088.3 116.625 1087.55 117.237 1086.99L378.704 842.081L216.278 525.627C215.893 524.855 215.754 523.984 215.882 523.131L272.691 185.087C272.864 184.036 273.448 183.097 274.314 182.477C275.179 181.856 276.256 181.605 277.306 181.779C278.357 181.952 279.296 182.536 279.916 183.401C280.537 184.267 280.788 185.343 280.614 186.394L224.003 523.131L387.142 841.09C387.532 841.851 387.665 842.717 387.523 843.559C387.38 844.402 386.968 845.176 386.35 845.765L124.883 1090.75L190.804 1233.73C191.251 1234.68 191.301 1235.77 190.945 1236.75C190.588 1237.74 189.854 1238.55 188.903 1239C188.327 1239.23 187.704 1239.34 187.081 1239.31Z" fill="white"/>
<path d="M317.929 188.253C321.489 166.224 306.517 145.48 284.488 141.92C262.46 138.36 241.716 153.332 238.155 175.361C234.595 197.389 249.567 218.134 271.596 221.694C293.625 225.254 314.369 210.282 317.929 188.253Z" fill="#E8356D"/>
<path d="M276.536 229.972C267.783 229.972 259.226 227.375 251.948 222.511C244.67 217.647 238.998 210.734 235.65 202.645C232.302 194.557 231.428 185.658 233.138 177.073C234.849 168.488 239.067 160.603 245.26 154.416C251.453 148.229 259.341 144.018 267.928 142.315C276.514 140.612 285.413 141.494 293.498 144.849C301.583 148.204 308.492 153.882 313.349 161.165C318.207 168.447 320.795 177.006 320.788 185.76C320.767 197.486 316.096 208.725 307.801 217.013C299.506 225.301 288.262 229.961 276.536 229.972ZM276.536 149.432C269.351 149.432 262.328 151.563 256.354 155.554C250.379 159.546 245.723 165.22 242.974 171.858C240.224 178.496 239.505 185.8 240.906 192.847C242.308 199.894 245.768 206.367 250.849 211.448C255.929 216.528 262.402 219.988 269.449 221.39C276.496 222.792 283.8 222.072 290.439 219.323C297.077 216.573 302.75 211.917 306.742 205.943C310.734 199.969 312.864 192.945 312.864 185.76C312.854 176.128 309.023 166.894 302.213 160.084C295.402 153.273 286.168 149.442 276.536 149.432Z" fill="white"/>
<path d="M276.419 185.958C275.368 185.958 274.36 185.541 273.617 184.798C272.874 184.055 272.457 183.047 272.457 181.997V3.96162C272.457 2.91093 272.874 1.90327 273.617 1.16033C274.36 0.41738 275.368 0 276.419 0C277.469 0 278.477 0.41738 279.22 1.16033C279.963 1.90327 280.38 2.91093 280.38 3.96162V181.997C280.38 183.047 279.963 184.055 279.22 184.798C278.477 185.541 277.469 185.958 276.419 185.958Z" fill="#E8356D"/>
<path d="M116.65 78.0043C152.305 90.1269 187.642 66.1195 223.178 78.0043V17.4709C187.524 5.58601 152.146 29.5934 116.65 17.4709V78.0043Z" fill="#E8356D"/>
<path opacity="0.2" d="M155.549 19.729V80.2228C178.09 77.2516 200.632 70.3188 223.174 78.0043V17.4709C200.632 9.78533 178.09 16.7182 155.549 19.729Z" fill="black"/>
<path d="M169.889 64.4555C205.543 76.5781 240.92 52.5707 276.417 64.4555V3.96165C240.762 -8.16089 205.424 15.8465 169.889 3.96165V64.4555Z" fill="#E8356D"/>
</svg>
