<svg width="24" height="24" viewBox="0 0 24 24" fill="none" xmlns="http://www.w3.org/2000/svg">
<path d="M16.1372 2.95907L7.10719 5.95907C1.03719 7.98907 1.03719 11.2991 7.10719 13.3191L9.78719 14.2091L10.6772 16.8891C12.6972 22.9591 16.0172 22.9591 18.0372 16.8891L21.0472 7.86907C22.3872 3.81907 20.1872 1.60907 16.1372 2.95907ZM16.4572 8.33907L12.6572 12.1591C12.5072 12.3091 12.3172 12.3791 12.1272 12.3791C11.9372 12.3791 11.7472 12.3091 11.5972 12.1591C11.3072 11.8691 11.3072 11.3891 11.5972 11.0991L15.3972 7.27907C15.6872 6.98907 16.1672 6.98907 16.4572 7.27907C16.7472 7.56907 16.7472 8.04907 16.4572 8.33907Z" fill="#8807F7"/>
</svg>
