<svg width="319" height="249" viewBox="0 0 319 249" fill="none" xmlns="http://www.w3.org/2000/svg">
<g clip-path="url(#clip0_5734_86814)">
<rect width="345" height="254" fill="#2563EB"/>
<path d="M219.179 71.7904L169.393 51L117.924 65.0537C111.312 67.5572 105.565 68.9342 105.201 74.6808L103.415 103.3C102.086 123.496 106.61 143.647 116.444 161.336C126.456 179.546 141.767 194.282 160.347 203.588C181.342 198.49 197.785 182.366 208.141 168.312C220.105 152.011 227.103 132.6 228.294 112.415L229.876 86.709C230.388 78.5044 226.109 74.2143 219.179 71.7904Z" fill="#E8356D"/>
<g opacity="0.3">
<path d="M160.916 192.641L160.734 192.55C144.793 184.334 131.758 171.426 123.386 155.566C115.03 140.003 111.213 122.406 112.371 104.779L113.93 79.8696C114.237 75.0674 118.402 73.4971 123.227 71.6763C123.83 71.4487 124.456 71.2211 125.082 70.9708L168.916 58.5898L169.109 58.6695L211.214 76.6833C217.962 79.0958 221.023 83.5111 220.613 90.2136L219.202 112.609C218.153 130.214 212.175 147.17 201.951 161.541C195.191 170.974 180.91 187.543 161.144 192.504L160.916 192.641ZM168.882 59.8416L125.446 72.0974L123.625 72.7915C118.982 74.5326 115.318 75.9095 115.068 79.9834L113.509 104.893C112.363 122.306 116.132 139.691 124.388 155.066C132.616 170.659 145.413 183.364 161.064 191.48C180.409 186.542 194.372 170.28 201.018 161.006C211.135 146.803 217.05 130.039 218.087 112.631L219.487 90.2364C219.873 84.0345 217.12 80.0972 210.827 77.844L168.882 59.8416Z" fill="white"/>
</g>
<path d="M177.984 109.229L178.36 105.713C178.929 99.3513 173.865 93.6729 167.049 93.0698C160.232 92.4667 154.235 97.1551 153.632 103.505L153.257 107.078C151.65 107.111 150.11 107.723 148.92 108.802C147.73 109.882 146.971 111.355 146.782 112.95L144.893 133.706C144.845 134.587 144.972 135.469 145.265 136.301C145.558 137.133 146.013 137.899 146.603 138.556C147.192 139.212 147.906 139.746 148.702 140.126C149.498 140.507 150.361 140.726 151.242 140.773L174.297 142.821C176.067 143.04 177.852 142.547 179.258 141.45C180.665 140.353 181.578 138.742 181.796 136.972L183.685 116.204C183.782 114.539 183.25 112.898 182.194 111.606C181.138 110.314 179.636 109.466 177.984 109.229ZM166.98 130.452L160.949 129.917L162.258 125.934C161.766 125.595 161.371 125.133 161.113 124.594C160.856 124.055 160.744 123.457 160.79 122.861C160.935 121.935 161.427 121.099 162.166 120.521C162.904 119.944 163.835 119.669 164.768 119.751C165.702 119.833 166.57 120.268 167.196 120.965C167.822 121.663 168.16 122.573 168.141 123.51C168.081 124.084 167.876 124.634 167.546 125.108C167.215 125.582 166.77 125.964 166.252 126.218C166.536 127.834 166.98 130.452 166.98 130.452ZM175.322 108.967L155.976 107.237L156.352 103.755C156.667 101.278 157.95 99.0259 159.92 97.4909C161.89 95.9559 164.387 95.2624 166.867 95.5619C172.204 96.0285 176.186 100.478 175.731 105.462L175.322 108.967Z" fill="white"/>
<g opacity="0.1">
<path d="M123.92 132.875C120.506 133.069 117.843 86.2191 122.395 80.4497C126.947 74.6802 168.664 65.6562 168.664 65.6562C168.664 65.6562 166.65 108.739 165.546 111.516C164.442 114.292 123.92 132.875 123.92 132.875Z" fill="white"/>
</g>
<g opacity="0.1">
<path d="M126.891 139.954L164.216 123.146C164.216 123.146 161.12 183.367 159.857 182.32C144.927 171.762 133.456 157.021 126.891 139.954Z" fill="white"/>
</g>
<path d="M122.644 131.669C122.451 131.016 122.302 130.351 122.2 129.678C121.938 128.38 121.631 126.503 121.301 124.17C119.625 111.997 119.525 99.658 121.005 87.4594C121.301 85.1152 121.585 83.2376 121.824 81.9403C121.906 81.2618 122.047 80.5916 122.245 79.9375C122.266 80.1152 122.266 80.2946 122.245 80.4723L122.075 81.9744C121.904 83.2717 121.688 85.1607 121.449 87.5049C120.838 93.5886 120.549 99.7004 120.584 105.815C120.643 111.93 121.023 118.038 121.722 124.113C121.995 126.446 122.245 128.335 122.439 129.632C122.507 130.235 122.575 130.77 122.632 131.134C122.664 131.311 122.668 131.491 122.644 131.669Z" fill="white"/>
</g>
<defs>
<clipPath id="clip0_5734_86814">
<rect width="319" height="249" rx="16" fill="white"/>
</clipPath>
</defs>
</svg>
