<svg width="1440" height="953" viewBox="0 0 1440 953" fill="none" xmlns="http://www.w3.org/2000/svg">
<rect width="1440" height="953" fill="#FDEDF2"/>
<g opacity="0.05">
<path fill-rule="evenodd" clip-rule="evenodd" d="M223.182 263.799C225.492 277.255 238.273 286.291 251.729 283.981C265.185 281.671 274.221 268.89 271.911 255.434C269.601 241.978 256.82 232.942 243.364 235.252C229.908 237.562 220.872 250.343 223.182 263.799ZM234.298 261.481C235.509 268.54 242.214 273.28 249.273 272.068C256.332 270.856 261.072 264.152 259.86 257.093C258.648 250.034 251.944 245.294 244.885 246.506C237.826 247.717 233.086 254.422 234.298 261.481Z" fill="#E8356D"/>
<path fill-rule="evenodd" clip-rule="evenodd" d="M278.274 276.708C279.273 282.527 284.8 286.434 290.619 285.435C296.437 284.436 300.345 278.909 299.346 273.09C298.347 267.271 292.82 263.364 287.001 264.363C281.182 265.362 277.275 270.889 278.274 276.708ZM283.08 275.704C283.604 278.756 286.504 280.806 289.556 280.282C292.609 279.758 294.658 276.859 294.134 273.806C293.61 270.754 290.711 268.704 287.659 269.228C284.606 269.752 282.556 272.651 283.08 275.704Z" fill="#E8356D"/>
</g>
<g opacity="0.05">
<path fill-rule="evenodd" clip-rule="evenodd" d="M637.748 194.968C648.61 191.424 654.542 179.745 650.997 168.883C647.452 158.021 635.773 152.089 624.911 155.634C614.05 159.178 608.118 170.857 611.662 181.719C615.207 192.581 626.886 198.513 637.748 194.968ZM634.481 186.046C640.179 184.186 643.29 178.06 641.431 172.362C639.571 166.663 633.445 163.552 627.747 165.411C622.049 167.271 618.937 173.397 620.796 179.095C622.656 184.793 628.782 187.905 634.481 186.046Z" fill="#E8356D"/>
<path fill-rule="evenodd" clip-rule="evenodd" d="M641.757 147.785C646.454 146.252 649.019 141.202 647.486 136.505C645.953 131.808 640.903 129.243 636.206 130.775C631.509 132.308 628.944 137.359 630.477 142.056C632.009 146.753 637.06 149.318 641.757 147.785ZM640.342 143.927C642.806 143.123 644.152 140.473 643.348 138.009C642.544 135.545 639.894 134.2 637.43 135.004C634.966 135.808 633.621 138.457 634.425 140.921C635.229 143.385 637.878 144.731 640.342 143.927Z" fill="#E8356D"/>
</g>
<path opacity="0.4" d="M262 710C266.631 713.034 284.086 728.858 291.84 722.514C297.81 717.629 300.878 716.497 308.565 716.497C321.209 716.497 322.734 733.158 338.284 729.011C344.633 727.318 365.048 721.121 370.771 726.845C372.469 728.543 372.541 730.362 374.141 732.139C376.224 734.454 379.537 735.095 381.119 737.073C383.223 739.702 392.208 737.371 395.197 738.035C401.558 739.449 398.95 745.483 404.943 742.487" stroke="#FBDCE6" stroke-width="10" stroke-linecap="round"/>
<path opacity="0.4" d="M633 303C637.631 306.034 655.086 321.858 662.84 315.514C668.81 310.629 671.878 309.497 679.565 309.497C692.209 309.497 693.734 326.158 709.284 322.011C715.633 320.318 736.048 314.121 741.771 319.845C743.469 321.543 743.541 323.362 745.141 325.139C747.224 327.454 750.537 328.095 752.119 330.073C754.223 332.702 763.208 330.371 766.197 331.035C772.558 332.449 769.95 338.483 775.943 335.487" stroke="#FBDCE6" stroke-width="10" stroke-linecap="round"/>
</svg>
