<svg width="40" height="40" viewBox="0 0 40 40" fill="none" xmlns="http://www.w3.org/2000/svg">
<path d="M19.9998 17.7555C22.9208 17.7555 25.2887 15.4174 25.2887 12.5333C25.2887 9.6491 22.9208 7.31104 19.9998 7.31104C17.0789 7.31104 14.7109 9.6491 14.7109 12.5333C14.7109 15.4174 17.0789 17.7555 19.9998 17.7555Z" fill="#3D0072"/>
<path d="M11.9743 13.0555H12.5077V12.5777C12.5109 11.1884 12.9029 9.82769 13.6392 8.64953C14.3756 7.47137 15.4269 6.52278 16.6743 5.91106C16.305 5.06058 15.7123 4.32599 14.959 3.78533C14.2058 3.24466 13.3202 2.91811 12.3962 2.84035C11.4723 2.76259 10.5445 2.93653 9.71151 3.3437C8.87849 3.75086 8.1713 4.37605 7.66506 5.15285C7.15881 5.92965 6.87242 6.82907 6.83629 7.75556C6.80015 8.68206 7.01564 9.60105 7.45985 10.4149C7.90406 11.2288 8.56042 11.9071 9.3592 12.3779C10.158 12.8487 11.0694 13.0944 11.9966 13.0888L11.9743 13.0555ZM27.5077 12.5333V13.0111H28.041C28.9558 13.0019 29.8513 12.7462 30.6331 12.2711C31.4149 11.7959 32.0541 11.1187 32.4835 10.3108C32.9129 9.50299 33.1166 8.59431 33.0731 7.68046C33.0296 6.76661 32.7405 5.88139 32.2363 5.11797C31.7321 4.35455 31.0314 3.74117 30.208 3.34239C29.3846 2.94362 28.469 2.7742 27.5574 2.85196C26.6458 2.92972 25.7721 3.25179 25.0281 3.78427C24.2841 4.31675 23.6975 5.03994 23.3299 5.87773C24.5777 6.48706 25.6302 7.43325 26.3685 8.60937C27.1067 9.78549 27.5013 11.1447 27.5077 12.5333ZM24.7632 18.2777C26.9724 18.715 29.1085 19.4632 31.1077 20.5C31.3893 20.6547 31.6444 20.8535 31.8632 21.0888H37.7743V17.2888C37.7754 17.1431 37.7366 16.9998 37.6622 16.8745C37.5878 16.7492 37.4806 16.6466 37.3521 16.5777C34.4723 15.0714 31.2687 14.2896 28.0188 14.3H27.2854C26.9004 15.8652 26.0148 17.2619 24.7632 18.2777ZM7.25211 23.2444C7.25008 22.6848 7.4012 22.1353 7.68911 21.6555C7.97701 21.1756 8.39073 20.7837 8.88544 20.5222C10.8846 19.4854 13.0207 18.7372 15.2299 18.3C13.9844 17.2928 13.0993 15.9086 12.7077 14.3555H11.9743C8.72436 14.3452 5.52083 15.127 2.64099 16.6333C2.51251 16.7021 2.40528 16.8047 2.33087 16.9301C2.25645 17.0554 2.21769 17.1986 2.21877 17.3444V24.4444H7.25211V23.2444ZM23.841 29.6555H30.4632V31.2111H23.841V29.6555Z" fill="#3D0072"/>
<path d="M36.4544 23.6222H28.821V22.5111C28.821 22.2164 28.704 21.9338 28.4956 21.7254C28.2872 21.517 28.0046 21.3999 27.7099 21.3999C27.4152 21.3999 27.1326 21.517 26.9242 21.7254C26.7159 21.9338 26.5988 22.2164 26.5988 22.5111V23.6222H24.4433V20.4777C22.9814 20.1707 21.4925 20.0107 19.9988 19.9999C16.4919 19.9853 13.035 20.8324 9.93214 22.4666C9.79393 22.5383 9.67824 22.6468 9.59784 22.7802C9.51745 22.9135 9.47548 23.0665 9.47658 23.2222V29.4555H17.3766V36.2222C17.3766 36.5168 17.4936 36.7995 17.702 37.0078C17.9104 37.2162 18.193 37.3333 18.4877 37.3333H36.4544C36.749 37.3333 37.0317 37.2162 37.24 37.0078C37.4484 36.7995 37.5655 36.5168 37.5655 36.2222V24.7333C37.5655 24.4386 37.4484 24.156 37.24 23.9476C37.0317 23.7392 36.749 23.6222 36.4544 23.6222ZM35.3433 35.1333H19.5988V25.8444H26.5988V26.8555C26.5988 27.1502 26.7159 27.4328 26.9242 27.6412C27.1326 27.8495 27.4152 27.9666 27.7099 27.9666C28.0046 27.9666 28.2872 27.8495 28.4956 27.6412C28.704 27.4328 28.821 27.1502 28.821 26.8555V25.8444H35.3433V35.1333Z" fill="#3D0072"/>
</svg>
