<svg width="329" height="32" viewBox="0 0 329 32" fill="none" xmlns="http://www.w3.org/2000/svg">
<rect opacity="0.25" width="322" height="5" rx="2.5" transform="matrix(1 0 0 -1 0 16.001)" fill="#D4A8FB"/>
<rect width="202" height="5" rx="2.5" transform="matrix(1 0 0 -1 0 16.001)" fill="white"/>
<g filter="url(#filter0_d_13301_94313)">
<circle cx="9.19342" cy="9.19342" r="9.19342" transform="matrix(-1 0 0 1 104.188 4.61328)" fill="white"/>
</g>
<g clip-path="url(#clip0_13301_94313)">
<path d="M94.9935 18.7122C93.6118 18.7122 92.2868 18.1633 91.3098 17.1863C90.3328 16.2093 89.7839 14.8842 89.7839 13.5026C89.7839 12.1209 90.3328 10.7958 91.3098 9.81883C92.2868 8.84184 93.6118 8.29297 94.9935 8.29297C96.3752 8.29297 97.7003 8.84184 98.6773 9.81883C99.6543 10.7958 100.203 12.1209 100.203 13.5026C100.203 14.8842 99.6543 16.2093 98.6773 17.1863C97.7003 18.1633 96.3752 18.7122 94.9935 18.7122ZM95.6447 12.5258C95.6447 13.065 95.9365 13.5026 96.2959 13.5026C96.6554 13.5026 96.9471 13.065 96.9471 12.5258C96.9471 11.9866 96.6554 11.549 96.2959 11.549C95.9365 11.549 95.6447 11.9866 95.6447 12.5258ZM97.4127 16.3893C97.4875 16.3462 97.5421 16.275 97.5644 16.1916C97.5868 16.1082 97.5751 16.0194 97.5319 15.9446C97.2748 15.4989 96.9048 15.1289 96.4592 14.8717C96.0135 14.6144 95.508 14.4791 94.9935 14.4794C94.479 14.4793 93.9736 14.6146 93.528 14.8718C93.0824 15.129 92.7124 15.499 92.4551 15.9446C92.4126 16.0193 92.4014 16.1078 92.424 16.1908C92.4465 16.2738 92.5009 16.3445 92.5754 16.3875C92.6498 16.4305 92.7383 16.4423 92.8214 16.4203C92.9045 16.3983 92.9756 16.3443 93.0191 16.2702C93.2191 15.9235 93.5069 15.6357 93.8535 15.4356C94.2001 15.2355 94.5933 15.1303 94.9935 15.1306C95.3937 15.1303 95.7869 15.2355 96.1336 15.4356C96.4802 15.6357 96.768 15.9235 96.968 16.2702C97.0111 16.345 97.0823 16.3995 97.1657 16.4219C97.2491 16.4442 97.3379 16.4325 97.4127 16.3893ZM93.6911 13.5026C94.0506 13.5026 94.3423 13.065 94.3423 12.5258C94.3423 11.9866 94.0506 11.549 93.6911 11.549C93.3317 11.549 93.0399 11.9866 93.0399 12.5258C93.0399 13.065 93.3317 13.5026 93.6911 13.5026Z" fill="#8707F5"/>
</g>
<g filter="url(#filter1_d_13301_94313)">
<circle cx="9.19342" cy="9.19342" r="9.19342" transform="matrix(-1 0 0 1 213.289 4.61328)" fill="white"/>
<circle cx="9.19342" cy="9.19342" r="8.69342" transform="matrix(-1 0 0 1 213.289 4.61328)" stroke="#D4A8FB"/>
</g>
<path d="M203.79 8.29102C200.912 8.29102 198.58 10.6236 198.58 13.5011C198.58 16.3781 200.912 18.7102 203.79 18.7102C206.667 18.7107 209 16.3781 209 13.5011C209 10.6236 206.667 8.29102 203.79 8.29102ZM205.633 14.9508C205.698 14.8721 205.791 14.8219 205.893 14.811C205.994 14.8001 206.096 14.8293 206.176 14.8925C206.256 14.9557 206.308 15.0478 206.322 15.149C206.335 15.2503 206.308 15.3526 206.246 15.4342C205.954 15.8063 205.581 16.107 205.156 16.3136C204.73 16.5203 204.263 16.6275 203.79 16.6271C202.821 16.6271 201.925 16.1828 201.335 15.4374C201.304 15.3971 201.28 15.351 201.266 15.3016C201.252 15.2522 201.248 15.2006 201.254 15.1496C201.26 15.0987 201.276 15.0494 201.301 15.0046C201.326 14.9598 201.359 14.9204 201.4 14.8886C201.44 14.8568 201.486 14.8332 201.535 14.8192C201.585 14.8052 201.636 14.8011 201.687 14.8071C201.738 14.8131 201.788 14.829 201.832 14.854C201.877 14.8791 201.917 14.9127 201.948 14.9529C202.168 15.2315 202.447 15.4567 202.766 15.6114C203.085 15.766 203.435 15.8462 203.79 15.8457C204.518 15.8457 205.191 15.5124 205.633 14.9508ZM205.353 11.8082C205.44 11.8057 205.526 11.8207 205.607 11.8523C205.688 11.8839 205.762 11.9315 205.825 11.9922C205.887 12.0529 205.937 12.1254 205.971 12.2056C206.005 12.2858 206.022 12.372 206.022 12.4591C206.022 12.5461 206.005 12.6323 205.971 12.7125C205.937 12.7927 205.887 12.8653 205.825 12.926C205.762 12.9866 205.688 13.0342 205.607 13.0658C205.526 13.0974 205.44 13.1124 205.353 13.1099C205.183 13.1051 205.022 13.0345 204.904 12.9129C204.786 12.7914 204.72 12.6286 204.72 12.4591C204.72 12.2896 204.786 12.1267 204.904 12.0052C205.022 11.8837 205.183 11.813 205.353 11.8082ZM202.227 11.8082C202.314 11.8057 202.401 11.8207 202.482 11.8523C202.563 11.8839 202.637 11.9315 202.699 11.9922C202.762 12.0529 202.811 12.1254 202.845 12.2056C202.879 12.2858 202.897 12.372 202.897 12.4591C202.897 12.5461 202.879 12.6323 202.845 12.7125C202.811 12.7927 202.762 12.8653 202.699 12.926C202.637 12.9866 202.563 13.0342 202.482 13.0658C202.401 13.0974 202.314 13.1124 202.227 13.1099C202.058 13.1051 201.897 13.0345 201.779 12.9129C201.661 12.7914 201.594 12.6286 201.594 12.4591C201.594 12.2896 201.661 12.1267 201.779 12.0052C201.897 11.8837 202.058 11.813 202.227 11.8082Z" fill="#8907F5"/>
<g opacity="0.75">
<g filter="url(#filter2_d_13301_94313)">
<circle cx="9.19342" cy="9.19342" r="9.19342" transform="matrix(-1 0 0 1 322.383 4)" fill="white"/>
</g>
<g clip-path="url(#clip1_13301_94313)">
<path d="M312.252 10.6083C312.09 10.6865 311.948 10.8022 311.84 10.9459C311.758 11.0512 311.695 11.1699 311.654 11.2964L311.468 11.8657C311.455 11.9043 311.432 11.9386 311.401 11.9651C311.37 11.9916 311.333 12.0092 311.293 12.0161C311.247 12.0242 311.2 12.0178 311.158 11.9976C311.115 11.9775 311.081 11.9446 311.058 11.9037L311.06 11.9014C311.053 11.8896 311.047 11.8771 311.043 11.8642L310.858 11.2953C310.8 11.1221 310.703 10.9648 310.574 10.8359C310.445 10.707 310.287 10.6099 310.114 10.5525L309.545 10.3676C309.501 10.352 309.463 10.3233 309.436 10.2853C309.41 10.2473 309.395 10.202 309.395 10.1555C309.395 10.109 309.41 10.0637 309.436 10.0257C309.463 9.98771 309.501 9.95895 309.545 9.94338L309.556 9.9404L310.126 9.75546C310.299 9.69795 310.456 9.60088 310.585 9.47195C310.714 9.34302 310.812 9.18578 310.869 9.01272L311.054 8.44338C311.07 8.39942 311.098 8.36133 311.136 8.33439C311.174 8.30744 311.22 8.29297 311.266 8.29297C311.313 8.29297 311.358 8.30744 311.396 8.33439C311.434 8.36133 311.463 8.39942 311.478 8.44338L311.664 9.01272L311.668 9.02686C311.708 9.14337 311.766 9.25288 311.84 9.35134L311.842 9.3506C311.983 9.53682 312.176 9.67686 312.397 9.75285L312.966 9.93891C313.007 9.95241 313.044 9.97763 313.071 10.0115C313.098 10.0453 313.115 10.0864 313.119 10.1296C313.123 10.1728 313.115 10.2162 313.094 10.2547C313.074 10.2931 313.043 10.3248 313.005 10.346C312.993 10.3534 312.979 10.3598 312.966 10.3646L312.396 10.5495C312.346 10.5659 312.298 10.5856 312.252 10.6083ZM310.498 12.3275C310.49 12.3115 310.48 12.2971 310.466 12.2853C310.453 12.2734 310.438 12.2644 310.421 12.2587L310.079 12.1474C309.976 12.112 309.883 12.0534 309.807 11.9761C309.731 11.8989 309.674 11.805 309.64 11.702L309.528 11.3604C309.519 11.3341 309.502 11.3114 309.479 11.2953C309.456 11.2792 309.429 11.2706 309.401 11.2706C309.373 11.2706 309.346 11.2792 309.323 11.2953C309.301 11.3114 309.283 11.3341 309.274 11.3604L309.163 11.702C309.128 11.8058 309.07 11.9002 308.993 11.9775C308.915 12.0548 308.821 12.113 308.717 12.1474L308.375 12.2587L308.368 12.2602C308.342 12.2693 308.319 12.2865 308.303 12.3093C308.286 12.3321 308.278 12.3594 308.278 12.3874C308.278 12.4154 308.286 12.4427 308.303 12.4655C308.319 12.4883 308.342 12.5055 308.368 12.5147L308.71 12.6259C308.853 12.6735 308.977 12.7657 309.064 12.889V12.8909C309.103 12.9467 309.134 13.0077 309.156 13.0729L309.267 13.4145C309.277 13.4407 309.294 13.4635 309.317 13.4795C309.339 13.4956 309.367 13.5043 309.394 13.5043C309.422 13.5043 309.45 13.4956 309.472 13.4795C309.495 13.4635 309.512 13.4407 309.522 13.4145L309.633 13.0729C309.668 12.9687 309.726 12.8741 309.804 12.7966C309.881 12.719 309.976 12.6607 310.08 12.6263L310.422 12.5147C310.44 12.5083 310.456 12.4983 310.47 12.4851C310.484 12.472 310.495 12.456 310.502 12.4384C310.509 12.4207 310.512 12.4017 310.512 12.3827C310.511 12.3636 310.506 12.345 310.498 12.3279V12.3275ZM313.488 17.9684C311.094 17.9684 309.141 16.0855 309.028 13.7196C309.088 13.7828 309.164 13.8292 309.247 13.8545C309.331 13.8797 309.42 13.8829 309.505 13.8637C309.59 13.8445 309.669 13.8035 309.734 13.7448C309.799 13.6861 309.847 13.6117 309.875 13.5287L309.987 13.1886C310.003 13.1401 310.03 13.0959 310.066 13.0595C310.102 13.0232 310.146 12.9955 310.194 12.9787L310.545 12.8648C310.644 12.8298 310.729 12.7651 310.79 12.6794C310.85 12.5938 310.883 12.4915 310.883 12.3867C310.882 12.336 310.874 12.2857 310.858 12.2375C310.932 12.3027 311.021 12.3486 311.117 12.371C311.213 12.3933 311.313 12.3916 311.408 12.3657C311.504 12.3399 311.591 12.2909 311.662 12.223C311.734 12.1552 311.787 12.0706 311.818 11.977L312.004 11.4091C312.043 11.2907 312.109 11.1832 312.197 11.0954C312.285 11.0076 312.391 10.9413 312.509 10.9016L313.087 10.7155C313.175 10.6851 313.254 10.6347 313.318 10.5685C313.383 10.5022 313.431 10.4218 313.459 10.3337C313.487 10.2456 313.494 10.1522 313.48 10.0609C313.465 9.96956 313.43 9.88282 313.376 9.80755C313.302 9.70448 313.198 9.62708 313.078 9.58652L312.515 9.40381C312.404 9.36511 312.302 9.30259 312.218 9.22073C312.63 9.09889 313.058 9.03723 313.488 9.03765C315.954 9.03765 317.953 11.037 317.953 13.503C317.953 15.969 315.954 17.9684 313.488 17.9684ZM312.185 13.1309C312.333 13.1309 312.475 13.0721 312.58 12.9674C312.685 12.8627 312.744 12.7208 312.744 12.5727C312.744 12.4247 312.685 12.2827 312.58 12.178C312.475 12.0734 312.333 12.0146 312.185 12.0146C312.037 12.0146 311.895 12.0734 311.791 12.178C311.686 12.2827 311.627 12.4247 311.627 12.5727C311.627 12.7208 311.686 12.8627 311.791 12.9674C311.895 13.0721 312.037 13.1309 312.185 13.1309ZM314.232 12.5727C314.232 12.7208 314.291 12.8627 314.395 12.9674C314.5 13.0721 314.642 13.1309 314.79 13.1309C314.938 13.1309 315.08 13.0721 315.185 12.9674C315.29 12.8627 315.348 12.7208 315.348 12.5727C315.348 12.4247 315.29 12.2827 315.185 12.178C315.08 12.0734 314.938 12.0146 314.79 12.0146C314.642 12.0146 314.5 12.0734 314.395 12.178C314.291 12.2827 314.232 12.4247 314.232 12.5727ZM315.598 14.6677C315.537 14.6262 315.462 14.6105 315.39 14.6241C315.317 14.6377 315.253 14.6795 315.211 14.7403L315.208 14.7448L315.192 14.7667C315.176 14.7868 315.151 14.8173 315.116 14.8553C315.047 14.9308 314.94 15.0339 314.797 15.137C314.511 15.3428 314.079 15.5497 313.488 15.5497C312.897 15.5497 312.464 15.3428 312.179 15.137C312.035 15.0339 311.929 14.9308 311.859 14.8553C311.827 14.8199 311.796 14.7831 311.767 14.7448L311.764 14.741C311.723 14.6799 311.658 14.6377 311.586 14.624C311.513 14.6102 311.438 14.6259 311.377 14.6676C311.315 14.7093 311.273 14.7735 311.259 14.8463C311.246 14.919 311.261 14.9943 311.303 15.0555L311.304 15.0559V15.0566L311.305 15.0577L311.308 15.0614L311.311 15.0659L311.316 15.0733C311.357 15.1286 311.401 15.1818 311.448 15.2326C311.57 15.3651 311.706 15.4848 311.853 15.5898C312.214 15.8499 312.758 16.1078 313.488 16.1078C314.218 16.1078 314.762 15.8496 315.123 15.5902C315.27 15.485 315.405 15.365 315.528 15.2322C315.577 15.178 315.624 15.1211 315.668 15.0618L315.671 15.0581L315.671 15.0566L315.672 15.0559L315.672 15.0555C315.714 14.9943 315.729 14.9191 315.716 14.8464C315.702 14.7736 315.66 14.7094 315.598 14.6677Z" fill="#8807F7"/>
</g>
</g>
<defs>
<filter id="filter0_d_13301_94313" x="79.6679" y="0.935914" width="30.6485" height="30.6446" filterUnits="userSpaceOnUse" color-interpolation-filters="sRGB">
<feFlood flood-opacity="0" result="BackgroundImageFix"/>
<feColorMatrix in="SourceAlpha" type="matrix" values="0 0 0 0 0 0 0 0 0 0 0 0 0 0 0 0 0 0 127 0" result="hardAlpha"/>
<feOffset dy="2.45158"/>
<feGaussianBlur stdDeviation="3.06447"/>
<feComposite in2="hardAlpha" operator="out"/>
<feColorMatrix type="matrix" values="0 0 0 0 0.533333 0 0 0 0 0.027451 0 0 0 0 0.968627 0 0 0 0.07 0"/>
<feBlend mode="normal" in2="BackgroundImageFix" result="effect1_dropShadow_13301_94313"/>
<feBlend mode="normal" in="SourceGraphic" in2="effect1_dropShadow_13301_94313" result="shape"/>
</filter>
<filter id="filter1_d_13301_94313" x="188.769" y="0.935914" width="30.6485" height="30.6446" filterUnits="userSpaceOnUse" color-interpolation-filters="sRGB">
<feFlood flood-opacity="0" result="BackgroundImageFix"/>
<feColorMatrix in="SourceAlpha" type="matrix" values="0 0 0 0 0 0 0 0 0 0 0 0 0 0 0 0 0 0 127 0" result="hardAlpha"/>
<feOffset dy="2.45158"/>
<feGaussianBlur stdDeviation="3.06447"/>
<feComposite in2="hardAlpha" operator="out"/>
<feColorMatrix type="matrix" values="0 0 0 0 0.533333 0 0 0 0 0.027451 0 0 0 0 0.968627 0 0 0 0.07 0"/>
<feBlend mode="normal" in2="BackgroundImageFix" result="effect1_dropShadow_13301_94313"/>
<feBlend mode="normal" in="SourceGraphic" in2="effect1_dropShadow_13301_94313" result="shape"/>
</filter>
<filter id="filter2_d_13301_94313" x="297.863" y="0.322633" width="30.6485" height="30.6446" filterUnits="userSpaceOnUse" color-interpolation-filters="sRGB">
<feFlood flood-opacity="0" result="BackgroundImageFix"/>
<feColorMatrix in="SourceAlpha" type="matrix" values="0 0 0 0 0 0 0 0 0 0 0 0 0 0 0 0 0 0 127 0" result="hardAlpha"/>
<feOffset dy="2.45158"/>
<feGaussianBlur stdDeviation="3.06447"/>
<feComposite in2="hardAlpha" operator="out"/>
<feColorMatrix type="matrix" values="0 0 0 0 0.533333 0 0 0 0 0.027451 0 0 0 0 0.968627 0 0 0 0.07 0"/>
<feBlend mode="normal" in2="BackgroundImageFix" result="effect1_dropShadow_13301_94313"/>
<feBlend mode="normal" in="SourceGraphic" in2="effect1_dropShadow_13301_94313" result="shape"/>
</filter>
<clipPath id="clip0_13301_94313">
<rect width="10.4192" height="10.4192" fill="white" transform="matrix(-1 0 0 1 100.203 8.29102)"/>
</clipPath>
<clipPath id="clip1_13301_94313">
<rect width="10.4192" height="10.4192" fill="white" transform="matrix(-1 0 0 1 318.703 8.29102)"/>
</clipPath>
</defs>
</svg>
