<svg width="109" height="109" viewBox="0 0 109 109" fill="none" xmlns="http://www.w3.org/2000/svg">
<g clip-path="url(#clip0_9707_116899)">
<mask id="mask0_9707_116899" style="mask-type:luminance" maskUnits="userSpaceOnUse" x="0" y="0" width="109" height="109">
<path d="M109 0H0V109H109V0Z" fill="white"/>
</mask>
<g mask="url(#mask0_9707_116899)">
<path d="M69.8069 80.0431C69.8069 80.0431 65.9046 81.5245 54.013 71.4981C41.9554 61.3317 42.9219 57.3749 42.9219 57.3749C42.9219 57.3749 46.7856 55.8609 58.7161 65.9201C70.7347 76.0537 69.8069 80.0431 69.8069 80.0431Z" fill="#FFDE55"/>
<path d="M63.8395 78.4066C62.7959 77.8657 61.5948 77.1586 60.2219 76.2378C61.5944 77.1585 62.795 77.8657 63.8385 78.407L63.8395 78.4066Z" fill="#E8356D"/>
<path d="M57.0525 73.9503C57.481 74.2794 57.8967 74.5911 58.3 74.8867C57.8969 74.5913 57.4809 74.2793 57.0525 73.9503Z" fill="#E8356D"/>
<path d="M52.8759 84.0553C47.6443 81.7273 41.8113 78.1429 37.9551 74.6097L36.0214 81.2896C38.9962 83.7808 42.7271 85.8617 46.6043 87.2834L52.8759 84.0553Z" fill="#FFDC0D"/>
<path d="M34.1895 87.6105L32.1267 94.7366L39.6218 90.8789C37.7177 90.0066 35.7624 88.8608 34.1895 87.6105Z" fill="#FFDC0D"/>
<path d="M59.6013 75.8128C59.6028 75.8138 59.6043 75.8148 59.6056 75.8159C59.6042 75.815 59.6028 75.8138 59.6013 75.8128Z" fill="#FFC727"/>
<path d="M52.8578 84.0571L63.8394 78.405C62.7959 77.8637 61.5954 77.1565 60.2229 76.2358C60.218 76.2324 60.2131 76.229 60.2082 76.2256C60.0139 76.0953 59.8163 75.961 59.6152 75.822C59.6138 75.8211 59.6126 75.82 59.6113 75.819C59.4122 75.6813 59.2095 75.5391 59.0034 75.3926C58.9978 75.3886 58.9924 75.385 58.9868 75.381C58.7888 75.2402 58.5872 75.0948 58.3829 74.9456C58.3566 74.9263 58.3301 74.9067 58.3036 74.8873C57.9004 74.5918 57.4844 74.2801 57.056 73.9511C57.0196 73.9231 56.9833 73.8952 56.9466 73.867C56.7379 73.7063 56.5268 73.5418 56.312 73.3727C56.2824 73.3492 56.2523 73.3251 56.2226 73.3015C56.024 73.1446 55.8231 72.9843 55.6194 72.8204C55.586 72.7935 55.5529 72.7673 55.5194 72.7403C55.3021 72.5647 55.0815 72.3843 54.8582 72.2004C54.81 72.1605 54.7613 72.1202 54.7126 72.0801C54.4829 71.8902 54.2509 71.6973 54.015 71.4983C42.3343 61.6498 42.8774 57.6292 42.9219 57.3867L37.9368 74.6116C41.7931 78.1448 47.6261 81.7291 52.8578 84.0571Z" fill="#8807F7"/>
<path d="M46.6003 87.2879C42.723 85.8663 38.9923 83.7854 36.0174 81.294L34.1897 87.6112C35.7626 88.8615 37.7181 90.0072 39.6221 90.8796L46.6003 87.2879Z" fill="#8807F7"/>
<path d="M69.6637 80.0789C69.1721 80.168 67.4393 80.2671 63.847 78.4026L63.8461 78.4031C67.4387 80.2666 69.1724 80.169 69.6637 80.0789Z" fill="#E8356D"/>
<path d="M69.6637 80.0789C69.1721 80.168 67.4394 80.2669 63.8471 78.4025L63.8462 78.4029C67.4388 80.2665 69.1724 80.169 69.6637 80.0789Z" fill="#FFF4C7"/>
<path d="M32.1128 94.7402L30.9171 98.8735L44.2018 92.4321C42.905 92.2015 41.2763 91.6469 39.608 90.8825L32.1128 94.7402Z" fill="#E8356D"/>
<path d="M32.1128 94.7402L30.9171 98.8735L44.2018 92.4321C42.905 92.2015 41.2763 91.6469 39.608 90.8825L32.1128 94.7402Z" fill="#F9CA06"/>
<path d="M46.5966 87.2803C48.3091 87.9082 50.0501 88.4087 51.7674 88.7572L57.6975 85.8817C56.211 85.4355 54.5712 84.81 52.8683 84.0522L46.5966 87.2803Z" fill="#E8356D"/>
<path d="M46.5966 87.2803C48.3091 87.9082 50.0501 88.4087 51.7674 88.7572L57.6975 85.8817C56.211 85.4355 54.5712 84.81 52.8683 84.0522L46.5966 87.2803Z" fill="#F9CA06"/>
<path d="M63.8388 78.4077L52.857 84.0599C54.56 84.8178 56.1996 85.4432 57.6862 85.8894L69.6562 80.0837C69.1648 80.1739 67.4314 80.2712 63.8388 78.4077Z" fill="#FFC727"/>
<path d="M63.8388 78.4077L52.857 84.0599C54.56 84.8178 56.1996 85.4432 57.6862 85.8894L69.6562 80.0837C69.1648 80.1739 67.4314 80.2712 63.8388 78.4077Z" fill="#8807F7"/>
<path d="M39.613 90.8754C41.2813 91.64 42.91 92.1947 44.2066 92.4252L44.2078 92.4238L51.7618 88.7607C50.0445 88.4123 48.3036 87.9118 46.591 87.2839L39.613 90.8754Z" fill="#FFC727"/>
<path d="M39.613 90.8754C41.2813 91.64 42.91 92.1947 44.2066 92.4252L44.2078 92.4238L51.7618 88.7607C50.0445 88.4123 48.3036 87.9118 46.591 87.2839L39.613 90.8754Z" fill="#8807F7"/>
<path d="M46.7422 37.1367C46.4254 36.4021 46.0338 35.768 45.5544 35.2699" stroke="#8807F7" stroke-width="0.420155"/>
<path d="M62.0156 28.3594C61.6637 27.641 61.2418 27.0266 60.7389 26.5522" stroke="#8807F7" stroke-width="0.420155"/>
<path d="M63.9062 51.1992C63.8175 49.0738 63.3993 47.1981 62.457 45.9568" stroke="#8807F7" stroke-width="0.420155"/>
<path d="M74.7891 34.0234C75.095 31.9183 75.0309 29.9976 74.3345 28.6034" stroke="#8807F7" stroke-width="0.420155"/>
<path d="M96.2237 54.7571C97.1117 54.6059 97.9875 54.5065 98.9394 54.4019" stroke="#8807F7" stroke-width="0.420155"/>
<path d="M81.3203 42.7031C81.5139 42.0028 81.6676 41.2478 81.7829 40.4072" stroke="#8807F7" stroke-width="0.420155"/>
<path d="M74.1103 73.0963C74.64 72.9858 75.2029 72.8739 75.8199 72.7491" stroke="#8807F7" stroke-width="0.420155"/>
<path d="M90.0295 70.9734C90.6511 70.8858 91.2799 70.8151 91.9455 70.7421" stroke="#8807F7" stroke-width="0.420155"/>
<path d="M83.5312 23.0977C84.1804 21.0719 84.4341 19.1669 83.9773 17.677" stroke="#8807F7" stroke-width="0.420155"/>
<path d="M85.7559 14.4255L84.5345 15.1302L84.4226 16.536L83.3749 15.5921L82.0034 15.9201L82.5774 14.632L81.8416 13.429L83.244 13.5768L84.1608 12.5053L84.4536 13.8847L85.7559 14.4255Z" fill="#FFC13E"/>
<g opacity="0.5762">
<path d="M61.4988 23.888L60.072 24.9987L60.1782 26.8038L58.6809 25.79L56.997 26.4489L57.4984 24.7116L56.3515 23.3137L58.1587 23.2537L59.1338 21.731L59.7492 23.4312L61.4988 23.888Z" fill="#E12675"/>
</g>
<g opacity="0.593921">
<path d="M80.7135 38.7177L81.2371 37.7678L80.7515 36.798L81.8166 37.0025L82.5889 36.2409L82.7236 37.3171L83.6866 37.8162L82.7046 38.2769L82.5275 39.347L81.786 38.5555L80.7135 38.7177Z" fill="#E12675"/>
</g>
<g opacity="0.77275">
<path d="M60.2814 36.5593L61.5712 39.152L64.3339 39.5105L62.3872 41.5945L62.922 44.4637L60.429 43.1591L57.9968 44.5738L58.4028 41.6835L56.3649 39.6887L59.1088 39.207L60.2814 36.5593Z" fill="#7F1BDD"/>
</g>
<g opacity="0.83059">
<path d="M77.773 71.1268L78.216 72.0211L79.2038 72.1631L78.4902 72.8608L78.6603 73.8441L77.7763 73.381L76.8937 73.8467L77.0609 72.8629L76.3453 72.1673L77.3327 72.0224L77.773 71.1268Z" fill="#F83CBF"/>
</g>
<g opacity="0.83059">
<path d="M97.023 34.0721L97.466 34.9664L98.4538 35.1084L97.7402 35.8061L97.9103 36.7894L97.0263 36.3263L96.1437 36.792L96.3109 35.8082L95.5953 35.1126L96.5827 34.9677L97.023 34.0721Z" fill="#8807F7"/>
</g>
<g opacity="0.83059">
<path d="M101.382 52.5995L101.825 53.4937L102.813 53.6358L102.1 54.3334L102.27 55.3168L101.386 54.8537L100.503 55.3194L100.67 54.3355L99.9547 53.64L100.942 53.495L101.382 52.5995Z" fill="#8807F7"/>
</g>
<g opacity="0.380738">
<path d="M85.5675 52.8457L86.151 53.76L87.235 53.7975L86.5457 54.635L86.845 55.6775L85.8355 55.2809L84.9365 55.8876L85.0018 54.805L84.1469 54.1374L85.1968 53.865L85.5675 52.8457Z" fill="#7F1BDD"/>
</g>
<g opacity="0.693921">
<path d="M69.0533 53.9157L69.5348 54.8876L70.6084 55.042L69.8328 55.8002L70.0177 56.8689L69.0569 56.3656L68.0977 56.8717L68.2795 55.8025L67.5017 55.0465L68.5748 54.889L69.0533 53.9157Z" fill="#DDB41B"/>
</g>
<path d="M96.4425 70.3815L95.3022 71.0394L95.1978 72.3517L94.2197 71.4705L92.9393 71.7768L93.4751 70.5742L92.7882 69.4512L94.0975 69.5891L94.9533 68.5888L95.2267 69.8766L96.4425 70.3815Z" fill="#DDB41B"/>
<g opacity="0.656773">
<path d="M96.7323 13.955L97.1815 14.9422L98.2495 15.1317L97.4494 15.864L97.5992 16.9383L96.6555 16.4037L95.6801 16.878L95.8969 15.8153L95.1443 15.0343L96.222 14.9121L96.7323 13.955Z" fill="#E12675"/>
</g>
<path d="M75.023 28.0526L73.8161 27.2122L72.4397 27.7301L72.8659 26.3226L71.948 25.1735L73.4184 25.144L74.2276 23.9159L74.71 25.3052L76.128 25.6953L74.9558 26.5834L75.023 28.0526Z" fill="#7C50F0"/>
<g opacity="0.550314">
<path d="M44.7997 35.3577L44.3628 34.3649L43.2973 34.1621L44.1065 33.4398L43.9702 32.3638L44.9071 32.9101L45.8884 32.448L45.6583 33.5079L46.401 34.2983L45.3219 34.407L44.7997 35.3577Z" fill="#F9D022"/>
</g>
<path d="M69.4922 80.1247L57.4429 86.0245L51.4736 88.9466L43.8695 92.6689L43.8683 92.6704L30.4956 99.2161L31.717 95.0525L33.824 87.8739L35.691 81.5102L37.666 74.7812L42.7578 57.4297C42.7119 57.6739 42.1467 61.7207 53.8273 71.5693C58.0477 75.1277 61.2654 77.2328 63.6595 78.4673C67.2576 80.3249 68.9981 80.2168 69.4922 80.1247Z" fill="#E8356D"/>
<path d="M69.4922 80.1247L57.4429 86.0245C51.3733 84.2269 42.7759 79.4667 37.666 74.7812L42.7578 57.4297C42.7119 57.6739 42.1467 61.7207 53.8273 71.5693C64.3899 80.4752 68.6697 80.2798 69.4922 80.1247Z" fill="#FFC727"/>
<path d="M51.4753 88.9498L43.8713 92.6721L43.87 92.6736C41.0844 92.1908 36.7777 90.2221 33.8258 87.8771L35.6927 81.5134C39.9817 85.1049 45.8521 87.8337 51.4753 88.9498Z" fill="#FFC727"/>
<path d="M69.5038 80.1243L57.4545 86.0241L51.4851 88.9461L43.8811 92.6685L43.8798 92.6699L30.5072 99.2157L31.7285 95.052L63.6711 78.4669C67.2692 80.3245 69.0097 80.2163 69.5038 80.1243Z" fill="#FFF4C7"/>
<path d="M69.4922 80.1247L57.4429 86.0245L51.4736 88.9466L43.8695 92.6689L43.8683 92.6704L30.4956 99.2161L31.717 95.0525L33.824 87.8739L35.691 81.5102L37.666 74.7812L42.7578 57.4297C42.7119 57.6739 42.1467 61.7207 53.8273 71.5693C58.0477 75.1277 61.2654 77.2328 63.6595 78.4673C67.2576 80.3249 68.9981 80.2168 69.4922 80.1247Z" fill="#E8356D"/>
<path d="M69.4922 80.1247L57.4429 86.0245C51.3733 84.2269 42.7759 79.4667 37.666 74.7812L42.7578 57.4297C42.7119 57.6739 42.1467 61.7207 53.8273 71.5693C64.3899 80.4752 68.6697 80.2798 69.4922 80.1247Z" fill="#FFC727"/>
<path d="M51.4753 88.9498L43.8713 92.6721L43.87 92.6736C41.0844 92.1908 36.7777 90.2221 33.8258 87.8771L35.6927 81.5134C39.9817 85.1049 45.8521 87.8337 51.4753 88.9498Z" fill="#FFC727"/>
<path d="M31.7145 95.0486L30.4932 99.2122L43.8658 92.6665C42.5648 92.4409 40.932 91.8912 39.2605 91.1306L31.7145 95.0486Z" fill="#F4CA19"/>
<path d="M46.293 87.4885C48.0096 88.1115 49.7553 88.6063 51.4781 88.9483L57.4475 86.0262C55.957 85.5848 54.3134 84.9638 52.6071 84.21L46.293 87.4885Z" fill="#F4CA19"/>
<path d="M63.6664 78.4658L52.6103 84.2063C54.3166 84.9601 55.96 85.581 57.4507 86.0225L69.5 80.1227C69.0061 80.216 67.2648 80.3225 63.6664 78.4658Z" fill="#FC961D"/>
<path d="M39.2623 91.1321C40.9338 91.8929 42.5666 92.4427 43.8675 92.6681L43.8687 92.6667L51.4728 88.9443C49.7499 88.6024 48.0042 88.1076 46.2876 87.4845L39.2623 91.1321Z" fill="#FC961D"/>
<path d="M63.6754 78.4652C62.6301 77.9263 61.4275 77.221 60.0534 76.3016C61.4271 77.2209 62.6292 77.9263 63.6744 78.4656L63.6754 78.4652Z" fill="#E8356D"/>
<path d="M56.8488 74.0174C57.2775 74.3463 57.6934 74.6578 58.0969 74.9531C57.6935 74.6579 57.2773 74.3462 56.8488 74.0174Z" fill="#E8356D"/>
<path d="M52.5869 84.2037C47.3448 81.888 41.5052 78.3115 37.6504 74.7767L35.6753 81.5057C38.6501 83.9968 42.3864 86.0714 46.2727 87.4822L52.5869 84.2037Z" fill="#FFDC0D"/>
<path d="M33.8314 87.8721L31.7244 95.0507L39.2702 91.1329C37.3625 90.2648 35.4047 89.122 33.8314 87.8721Z" fill="#FFDC0D"/>
<path d="M59.4529 75.8909C59.4544 75.8919 59.4559 75.893 59.4571 75.894C59.4558 75.8931 59.4544 75.8919 59.4529 75.8909Z" fill="#FFC727"/>
<path d="M52.6025 84.2083L63.6585 78.468C62.6133 77.9286 61.4112 77.2233 60.0376 76.304C60.0326 76.3006 60.0277 76.2972 60.0228 76.2938C59.8284 76.1636 59.6306 76.0296 59.4294 75.8907C59.428 75.8898 59.4268 75.8888 59.4255 75.8877C59.2262 75.7502 59.0234 75.6082 58.8172 75.4619C58.8116 75.4579 58.8061 75.4543 58.8005 75.4503C58.6025 75.3096 58.4007 75.1644 58.1963 75.0153C58.17 74.9961 58.1434 74.9765 58.1169 74.9571C57.7135 74.6618 57.2973 74.3504 56.8687 74.0215C56.8323 73.9936 56.7961 73.9657 56.7594 73.9375C56.5506 73.7769 56.3394 73.6124 56.1245 73.4434C56.0949 73.4199 56.0649 73.3958 56.0351 73.3722C55.8365 73.2155 55.6355 73.0551 55.4317 72.8913C55.3984 72.8644 55.3652 72.8382 55.3317 72.8112C55.1144 72.6356 54.8938 72.4553 54.6704 72.2715C54.6222 72.2316 54.5736 72.1913 54.5248 72.1512C54.2951 71.9612 54.0632 71.7684 53.8272 71.5694C42.1465 61.7209 42.7119 57.6739 42.7578 57.4297L37.6659 74.7813C41.5208 78.3162 47.3605 81.8926 52.6025 84.2083Z" fill="#8807F7"/>
<path d="M46.2721 87.491C42.3857 86.0803 38.6497 84.0057 35.6747 81.5145L33.8078 87.8781C35.3811 89.128 37.339 90.2707 39.2467 91.1387L46.2721 87.491Z" fill="#8807F7"/>
<path d="M69.4996 80.1297C69.0055 80.2218 67.2649 80.3301 63.6668 78.4725L63.6659 78.473C67.2644 80.3296 69.0058 80.2228 69.4996 80.1297Z" fill="#E8356D"/>
<path d="M69.4996 80.1297C69.0055 80.2218 67.265 80.3299 63.6669 78.4723L63.666 78.4728C67.2645 80.3295 69.0058 80.2228 69.4996 80.1297Z" fill="#FFF4C7"/>
<path d="M31.7145 95.0486L30.4932 99.2122L43.8658 92.6665C42.5648 92.4409 40.932 91.8912 39.2605 91.1306L31.7145 95.0486Z" fill="#E8356D"/>
<path d="M31.7145 95.0486L30.4932 99.2122L43.8658 92.6665C42.5648 92.4409 40.932 91.8912 39.2605 91.1306L31.7145 95.0486Z" fill="#F9CA06"/>
<path d="M46.293 87.4885C48.0096 88.1115 49.7553 88.6063 51.4781 88.9483L57.4475 86.0262C55.957 85.5848 54.3134 84.9638 52.6071 84.21L46.293 87.4885Z" fill="#E8356D"/>
<path d="M46.293 87.4885C48.0096 88.1115 49.7553 88.6063 51.4781 88.9483L57.4475 86.0262C55.957 85.5848 54.3134 84.9638 52.6071 84.21L46.293 87.4885Z" fill="#F9CA06"/>
<path d="M63.6664 78.4658L52.6103 84.2063C54.3166 84.9601 55.96 85.581 57.4507 86.0225L69.5 80.1227C69.0061 80.216 67.2648 80.3225 63.6664 78.4658Z" fill="#FFC727"/>
<path d="M63.6664 78.4658L52.6103 84.2063C54.3166 84.9601 55.96 85.581 57.4507 86.0225L69.5 80.1227C69.0061 80.216 67.2648 80.3225 63.6664 78.4658Z" fill="#8807F7"/>
<path d="M39.2623 91.1321C40.9338 91.8929 42.5666 92.4427 43.8675 92.6681L43.8687 92.6667L51.4728 88.9443C49.7499 88.6024 48.0042 88.1076 46.2876 87.4845L39.2623 91.1321Z" fill="#FFC727"/>
<path d="M39.2623 91.1321C40.9338 91.8929 42.5666 92.4427 43.8675 92.6681L43.8687 92.6667L51.4728 88.9443C49.7499 88.6024 48.0042 88.1076 46.2876 87.4845L39.2623 91.1321Z" fill="#8807F7"/>
<g opacity="0.83059">
<path d="M55.8824 52.9627L56.3254 53.857L57.3132 53.9991L56.5996 54.6967L56.7697 55.6801L55.8857 55.217L55.0031 55.6827L55.1703 54.6988L54.4547 54.0033L55.442 53.8583L55.8824 52.9627Z" fill="#8807F7"/>
</g>
<g opacity="0.896665">
<path d="M46.4051 46.8452L47.0311 47.0483L47.5517 46.6483L47.5537 47.3057L48.0965 47.6783L47.4718 47.8816L47.2867 48.5118L46.8986 47.98L46.2414 47.9969L46.6262 47.465L46.4051 46.8452Z" fill="#8807F7"/>
</g>
</g>
</g>
<defs>
<clipPath id="clip0_9707_116899">
<rect width="109" height="109" fill="white"/>
</clipPath>
</defs>
</svg>
