<svg width="22" height="32" viewBox="0 0 22 32" fill="none" xmlns="http://www.w3.org/2000/svg">
<rect width="22" height="32" rx="11" fill="#8807F7"/>
<path d="M13.936 13.824C13.936 14.2293 13.856 14.6187 13.696 14.992C13.536 15.3653 13.328 15.728 13.072 16.08C12.816 16.4213 12.528 16.752 12.208 17.072C11.888 17.392 11.5733 17.696 11.264 17.984C11.104 18.1333 10.928 18.304 10.736 18.496C10.5547 18.6773 10.3787 18.864 10.208 19.056C10.0373 19.248 9.88267 19.4293 9.744 19.6C9.616 19.76 9.536 19.8933 9.504 20H14.272V22H6.88C6.85867 21.8827 6.848 21.7333 6.848 21.552C6.848 21.3707 6.848 21.2427 6.848 21.168C6.848 20.656 6.928 20.1867 7.088 19.76C7.25867 19.3333 7.47733 18.9387 7.744 18.576C8.01067 18.2027 8.30933 17.856 8.64 17.536C8.98133 17.216 9.31733 16.896 9.648 16.576C9.904 16.3307 10.144 16.1013 10.368 15.888C10.592 15.664 10.7893 15.4507 10.96 15.248C11.1307 15.0347 11.264 14.8267 11.36 14.624C11.456 14.4107 11.504 14.1973 11.504 13.984C11.504 13.5147 11.3707 13.184 11.104 12.992C10.8373 12.8 10.5067 12.704 10.112 12.704C9.824 12.704 9.552 12.752 9.296 12.848C9.05067 12.9333 8.82133 13.04 8.608 13.168C8.40533 13.2853 8.22933 13.408 8.08 13.536C7.93067 13.6533 7.81867 13.7493 7.744 13.824L6.56 12.16C7.02933 11.7227 7.57333 11.3653 8.192 11.088C8.82133 10.8 9.49333 10.656 10.208 10.656C10.8587 10.656 11.4187 10.7307 11.888 10.88C12.3573 11.0293 12.7413 11.2427 13.04 11.52C13.3493 11.7867 13.5733 12.1173 13.712 12.512C13.8613 12.896 13.936 13.3333 13.936 13.824Z" fill="white"/>
</svg>
