<svg width="429" height="287" viewBox="0 0 429 287" fill="none" xmlns="http://www.w3.org/2000/svg">
<path d="M26.282 281V271.62H25.064V281H26.282ZM29.5463 281V277.164C29.5463 276.03 30.0223 275.12 31.3243 275.12C32.4723 275.12 32.8223 275.736 32.8223 276.618V281H34.0263V276.324C34.0263 274.882 33.2003 274.084 31.8703 274.084C30.5403 274.084 29.8123 274.98 29.5463 276.03V274.224H28.3283V281H29.5463ZM38.6834 281L41.1474 274.224H39.8454L38.5154 278.242L37.9414 280.104L37.3534 278.242L36.0094 274.224H34.6934L37.1434 281H38.6834ZM44.6928 281.14C46.1628 281.14 47.1008 280.454 47.6048 279.642L46.8628 278.802C46.5968 279.39 46.0508 280.132 44.6928 280.132C43.4888 280.132 42.6908 279.32 42.6208 277.892H47.6468C47.6748 277.766 47.7028 277.556 47.7028 277.346C47.7028 275.358 46.5408 274.084 44.6228 274.084C42.7608 274.084 41.4448 275.47 41.4448 277.612C41.4448 279.768 42.7748 281.14 44.6928 281.14ZM44.6228 275.106C45.7568 275.106 46.4848 275.764 46.6108 277.01H42.6488C42.8028 275.75 43.5308 275.106 44.6228 275.106ZM50.4643 281V277.164C50.4643 276.002 51.2483 274.98 52.1163 274.98C52.6063 274.98 52.8163 275.316 52.8163 275.708C52.8163 276.086 52.6343 276.506 52.4103 276.702H53.7403C53.8523 276.534 54.0063 276.114 54.0063 275.54C54.0063 274.588 53.3063 274.07 52.5783 274.07C51.4303 274.07 50.7303 274.98 50.4643 276.03V274.224H49.2463V281H50.4643ZM57.4068 281.154C58.3448 281.154 58.9888 280.72 59.2828 280.258L58.8768 279.054C58.6948 279.474 58.2748 279.978 57.6728 279.978C57.1408 279.978 56.7348 279.768 56.7348 278.9V275.176H58.9608V274.224H56.7348V272.46L55.5168 273.356V274.224H54.4248V275.176H55.5168V279.264C55.5168 280.426 56.3008 281.154 57.4068 281.154ZM62.89 281.14C64.36 281.14 65.298 280.454 65.802 279.642L65.06 278.802C64.794 279.39 64.248 280.132 62.89 280.132C61.686 280.132 60.888 279.32 60.818 277.892H65.844C65.872 277.766 65.9 277.556 65.9 277.346C65.9 275.358 64.738 274.084 62.82 274.084C60.958 274.084 59.642 275.47 59.642 277.612C59.642 279.768 60.972 281.14 62.89 281.14ZM62.82 275.106C63.954 275.106 64.682 275.764 64.808 277.01H60.846C61 275.75 61.728 275.106 62.82 275.106ZM69.9743 281.168C71.2763 281.168 71.9203 280.3 72.1583 279.264V281H73.3763V271.62H72.1583V275.988C71.9203 274.952 71.2763 274.084 69.9743 274.084C68.2663 274.084 67.2023 275.484 67.2023 277.626C67.2023 279.768 68.2663 281.168 69.9743 281.168ZM68.4343 277.626C68.4343 275.904 69.3163 275.12 70.3803 275.12C71.6823 275.12 72.1583 276.03 72.1583 277.15V278.116C72.1583 279.236 71.6823 280.146 70.3803 280.146C69.3163 280.146 68.4343 279.362 68.4343 277.626ZM84.571 281V279.922H79.657V271.62H78.439V281H84.571ZM87.933 281.14C89.809 281.14 91.139 279.754 91.139 277.612C91.139 275.47 89.809 274.084 87.933 274.084C86.057 274.084 84.741 275.47 84.741 277.612C84.741 279.754 86.057 281.14 87.933 281.14ZM87.933 280.118C86.785 280.118 85.987 279.32 85.987 277.612C85.987 275.89 86.785 275.106 87.933 275.106C89.095 275.106 89.907 275.89 89.907 277.612C89.907 279.32 89.095 280.118 87.933 280.118ZM95.2595 278.928C96.8555 278.928 97.9335 277.92 97.9335 276.506C97.9335 275.666 97.5415 274.952 96.8975 274.532L98.1435 273.132L96.8835 272.684L96.4635 274.308C96.1135 274.168 95.7075 274.084 95.2595 274.084C93.6635 274.084 92.5855 275.092 92.5855 276.506C92.5855 277.36 92.9775 278.074 93.6495 278.494C92.9915 279.026 92.5855 279.614 92.5855 280.146C92.5855 280.594 92.8095 280.916 93.2435 281.056C92.7255 281.266 92.1515 281.644 92.1515 282.274C92.1515 283.17 93.2435 283.744 94.9795 283.744C97.2615 283.744 98.5215 282.834 98.5215 281.546C98.5215 280.524 97.7515 280.034 96.5195 280.034H94.4755C93.7755 280.034 93.5795 279.852 93.5795 279.488C93.5795 279.194 93.7755 278.872 93.9435 278.648C94.3215 278.83 94.7695 278.928 95.2595 278.928ZM95.2595 277.99C94.4195 277.99 93.7615 277.43 93.7615 276.506C93.7615 275.582 94.4195 275.022 95.2595 275.022C96.1135 275.022 96.7575 275.582 96.7575 276.506C96.7575 277.43 96.1135 277.99 95.2595 277.99ZM94.9795 282.778C93.7615 282.778 93.1315 282.442 93.1315 281.896C93.1315 281.574 93.3695 281.28 93.5935 281.084H96.3655C97.0515 281.084 97.3875 281.28 97.3875 281.714C97.3875 282.386 96.5195 282.778 94.9795 282.778ZM102.288 281.14C104.164 281.14 105.494 279.754 105.494 277.612C105.494 275.47 104.164 274.084 102.288 274.084C100.412 274.084 99.0964 275.47 99.0964 277.612C99.0964 279.754 100.412 281.14 102.288 281.14ZM102.288 280.118C101.14 280.118 100.342 279.32 100.342 277.612C100.342 275.89 101.14 275.106 102.288 275.106C103.45 275.106 104.262 275.89 104.262 277.612C104.262 279.32 103.45 280.118 102.288 280.118ZM111.485 281V275.82L111.331 273.286L112.381 275.61L114.397 279.432H115.587L117.603 275.61L118.639 273.286L118.513 275.82V281H119.731V271.62H118.373L115.937 276.268L114.999 278.326L114.047 276.268L111.625 271.62H110.267V281H111.485ZM123.258 281.14C124.658 281.14 125.386 280.132 125.61 279.236V279.712C125.61 280.664 126.114 281 126.814 281H127.598V279.894H127.164C126.912 279.894 126.786 279.796 126.786 279.474V276.688C126.786 275.078 125.89 274.084 124.224 274.084C122.712 274.084 121.704 274.938 121.298 275.638L122.124 276.492C122.474 275.75 123.118 275.19 124.084 275.19C125.148 275.19 125.526 275.778 125.568 276.576L123.118 277.668C122.152 278.102 121.466 278.676 121.466 279.586C121.466 280.482 122.11 281.14 123.258 281.14ZM122.698 279.39C122.698 278.97 122.992 278.69 123.636 278.382L125.61 277.458V278.396C125.61 279.376 124.798 280.132 123.65 280.132C123.02 280.132 122.698 279.852 122.698 279.39ZM130.226 281V277.164C130.226 276.002 131.01 274.98 131.878 274.98C132.368 274.98 132.578 275.316 132.578 275.708C132.578 276.086 132.396 276.506 132.172 276.702H133.502C133.614 276.534 133.768 276.114 133.768 275.54C133.768 274.588 133.068 274.07 132.34 274.07C131.192 274.07 130.492 274.98 130.226 276.03V274.224H129.008V281H130.226ZM136.132 281V278.634L137.21 277.612L139.408 281H140.878L138.05 276.856L140.836 274.224H139.31L137.084 276.352L136.09 277.332L136.132 276.38V271.62H134.914V281H136.132Z" fill="#3D0072"/>
<g filter="url(#filter0_d_5962_87741)">
<g clip-path="url(#clip0_5962_87741)">
<rect x="24" y="12" width="381" height="235" fill="white"/>
<path d="M204.191 102.697C204.191 108.8 204.191 114.921 204.226 121.024C204.226 126.291 202.518 131.415 197.625 134.12C191.913 137.252 183.8 136.451 177.43 135.792C177.18 135.792 176.967 135.739 176.736 135.721C176.949 131.326 176.86 126.878 176.647 122.501C176.38 116.558 179.974 109.476 186.362 108.48C193.283 107.394 199.315 106.647 202.589 102.821C202.696 102.715 202.803 102.59 202.892 102.466C203.372 101.807 203.888 101.185 204.404 100.544C204.244 101.238 204.191 101.967 204.191 102.679V102.697Z" fill="#8807F7"/>
<path d="M183.237 175.597C188.005 175.9 192.809 175.828 197.578 175.917C203.147 176.006 208.859 176.7 214.232 175.722C221.955 174.316 230.638 169.28 233.503 161.825C236.154 154.921 234.908 146.683 230.335 140.882C230.015 140.491 229.677 140.099 229.303 139.708C224.677 134.655 217.506 132.003 210.674 132.911C202.186 134.032 194.713 140.704 192.507 148.978C191.137 154.138 192.329 159.619 191.528 164.868C190.87 169.209 187.151 173.658 183.219 175.597H183.237Z" fill="#8807F7"/>
<path d="M230.947 83C230.52 84.2989 231.036 85.7046 231.588 86.9501C238.669 102.733 257.637 113.409 256.979 132.376C256.676 140.953 252.406 151.024 245.235 156.113C244.719 156.486 244.239 156.807 243.634 156.985C242.264 154.422 242.121 150.686 240.965 147.874C239.506 144.334 237.584 140.864 234.897 138.124C232.317 135.508 229.097 133.996 226.517 131.433C221.107 126.024 217.691 118.622 217.246 110.971C216.606 100.082 222.05 89.2632 230.965 83.0356L230.947 83Z" fill="#8807F7"/>
<path d="M181.697 121.078C181.697 121.078 181.448 116.328 186.324 116.559C186.324 116.559 188.103 121.755 181.697 121.078V121.078Z" fill="white" stroke="#8807F7" stroke-width="0.748154" stroke-miterlimit="10"/>
<path d="M180.078 161.362C184.54 161.362 188.156 157.745 188.156 153.284C188.156 148.822 184.54 145.206 180.078 145.206C175.617 145.206 172 148.822 172 153.284C172 157.745 175.617 161.362 180.078 161.362Z" fill="#8807F7"/>
<g filter="url(#filter1_d_5962_87741)">
<rect x="48" y="28" width="22" height="22" rx="11" fill="white"/>
<path d="M62.75 40.875V42.75H55.25V40.875H54V42.75C54 43.4375 54.5625 44 55.25 44H62.75C63.4375 44 64 43.4375 64 42.75V40.875H62.75ZM62.125 38.375L61.2438 37.4938L59.625 39.1062V34H58.375V39.1062L56.7562 37.4938L55.875 38.375L59 41.5L62.125 38.375Z" fill="black"/>
</g>
</g>
</g>
<defs>
<filter id="filter0_d_5962_87741" x="0" y="0" width="429" height="283" filterUnits="userSpaceOnUse" color-interpolation-filters="sRGB">
<feFlood flood-opacity="0" result="BackgroundImageFix"/>
<feColorMatrix in="SourceAlpha" type="matrix" values="0 0 0 0 0 0 0 0 0 0 0 0 0 0 0 0 0 0 127 0" result="hardAlpha"/>
<feOffset dy="12"/>
<feGaussianBlur stdDeviation="12"/>
<feComposite in2="hardAlpha" operator="out"/>
<feColorMatrix type="matrix" values="0 0 0 0 0.45225 0 0 0 0 0.42 0 0 0 0 0.48 0 0 0 0.15 0"/>
<feBlend mode="normal" in2="BackgroundImageFix" result="effect1_dropShadow_5962_87741"/>
<feBlend mode="normal" in="SourceGraphic" in2="effect1_dropShadow_5962_87741" result="shape"/>
</filter>
<filter id="filter1_d_5962_87741" x="44" y="28" width="30" height="30" filterUnits="userSpaceOnUse" color-interpolation-filters="sRGB">
<feFlood flood-opacity="0" result="BackgroundImageFix"/>
<feColorMatrix in="SourceAlpha" type="matrix" values="0 0 0 0 0 0 0 0 0 0 0 0 0 0 0 0 0 0 127 0" result="hardAlpha"/>
<feOffset dy="4"/>
<feGaussianBlur stdDeviation="2"/>
<feComposite in2="hardAlpha" operator="out"/>
<feColorMatrix type="matrix" values="0 0 0 0 0 0 0 0 0 0 0 0 0 0 0 0 0 0 0.25 0"/>
<feBlend mode="normal" in2="BackgroundImageFix" result="effect1_dropShadow_5962_87741"/>
<feBlend mode="normal" in="SourceGraphic" in2="effect1_dropShadow_5962_87741" result="shape"/>
</filter>
<clipPath id="clip0_5962_87741">
<rect x="24" y="12" width="381" height="235" rx="8" fill="white"/>
</clipPath>
</defs>
</svg>
