<svg width="690" height="360" viewBox="0 0 690 360" fill="none" xmlns="http://www.w3.org/2000/svg">
<rect x="20" y="112" width="651" height="136" rx="20" fill="url(#paint0_linear_111_6719)"/>
<path d="M69.8896 85V58.7976L68.5587 40.4143L75.1301 56.3853L84.7793 75.6004H94.262L103.911 56.3853L110.316 40.4143L109.152 58.7976V85H118.551V29.2679H107.072L95.0939 53.7235L89.5206 67.9476L84.0306 53.7235L72.0524 29.2679H60.49V85H69.8896ZM138.254 85.8318C146.739 85.8318 150.649 79.51 151.896 74.1863V77.1809C151.896 83.0036 155.307 85 159.632 85H165.372V77.0145H162.793C161.296 77.0145 160.63 76.4322 160.63 74.6022V59.3799C160.63 49.398 154.974 43.6584 144.909 43.6584C135.925 43.6584 129.603 48.3166 126.443 52.6421L132.016 59.2967C134.345 55.0544 138.587 51.8934 143.994 51.8934C149.567 51.8934 151.397 54.6385 151.73 58.7144L138.171 64.454C131.6 67.0326 127.607 70.5263 127.607 76.2659C127.607 82.0886 131.6 85.8318 138.254 85.8318ZM136.591 74.8518C136.591 72.7722 138.005 71.3581 141.499 69.7776L151.896 65.1194V69.4449C151.896 74.9349 147.737 78.595 141.582 78.595C138.171 78.595 136.591 77.1809 136.591 74.8518ZM181.813 85V72.0236L187.885 66.0344L199.697 85H210.594L194.207 60.4612L210.594 44.4902H199.198L188.135 55.3039L181.48 62.624L181.813 54.8048V29.2679H172.496V85H181.813ZM231.73 85.8318C240.714 85.8318 246.204 81.7559 249.281 77.0977L243.542 71.1086C242.044 74.519 238.884 78.1791 231.813 78.1791C225.408 78.1791 221.166 74.2695 220.667 67.0326H249.614C249.78 66.2008 249.947 64.454 249.947 62.9567C249.947 51.7271 243.209 43.6584 231.064 43.6584C219.668 43.6584 211.766 52.0598 211.766 64.7867C211.766 77.4304 219.668 85.8318 231.73 85.8318ZM231.064 51.1448C237.22 51.1448 240.88 54.6385 241.545 61.0435H220.75C221.498 54.4721 225.325 51.1448 231.064 51.1448ZM283.483 98.8914C290.054 98.8914 294.796 95.9801 297.707 87.8282L312.68 44.4902H302.365L295.128 67.4485L292.217 78.2622L289.306 67.4485L281.986 44.4902H271.754L285.147 82.5045H290.886L290.137 84.7505C288.64 89.2423 286.644 90.6564 283.483 90.6564C279.74 90.6564 277.244 88.3273 275.081 85.2495L270.673 92.736C272.919 95.8969 277.66 98.8914 283.483 98.8914ZM333.574 85.8318C345.386 85.8318 353.372 77.3472 353.372 64.7867C353.372 52.143 345.386 43.6584 333.574 43.6584C321.929 43.6584 313.943 52.143 313.943 64.7867C313.943 77.3472 321.929 85.8318 333.574 85.8318ZM333.657 78.0959C327.668 78.0959 323.509 74.1031 323.509 64.7867C323.509 55.3871 327.668 51.3944 333.657 51.3944C339.73 51.3944 343.889 55.3871 343.889 64.7867C343.889 74.1031 339.73 78.0959 333.657 78.0959ZM373.756 85.8318C381.825 85.8318 385.984 80.3418 387.482 73.9368V85H396.881V44.4902H387.482V67.199C387.482 73.8536 385.152 78.2622 378.331 78.2622C372.093 78.2622 370.429 74.8518 370.429 69.8608V44.4902H361.113V72.689C361.113 81.0904 365.937 85.8318 373.756 85.8318ZM416.007 85V62.7071C416.007 55.9694 420.332 50.6457 424.99 50.6457C427.735 50.6457 428.817 52.4757 428.817 54.7216C428.817 57.0508 427.569 59.7126 426.238 61.0435H435.804C436.553 59.7958 437.634 56.8844 437.634 52.9748C437.634 46.9857 433.891 43.6584 428.817 43.6584C421.58 43.6584 417.504 49.4812 416.007 55.9694V44.4902H406.69V85H416.007ZM78.0415 325L83.6979 303.955L86.3597 291.394L88.9384 303.955L94.678 325H106.573L116.971 284.49H106.573L102.331 307.282L100.584 318.678L98.0884 307.282L91.8498 284.49H80.7865L74.631 307.282L72.0524 318.678L70.3055 307.282L66.1464 284.49H55.7486L66.0632 325H78.0415ZM137.397 325.832C149.209 325.832 157.195 317.347 157.195 304.787C157.195 292.143 149.209 283.658 137.397 283.658C125.752 283.658 117.766 292.143 117.766 304.787C117.766 317.347 125.752 325.832 137.397 325.832ZM137.48 318.096C131.491 318.096 127.332 314.103 127.332 304.787C127.332 295.387 131.491 291.394 137.48 291.394C143.553 291.394 147.712 295.387 147.712 304.787C147.712 314.103 143.553 318.096 137.48 318.096ZM174.502 325V302.707C174.502 295.969 178.827 290.646 183.485 290.646C186.23 290.646 187.312 292.476 187.312 294.722C187.312 297.051 186.064 299.713 184.733 301.044H194.299C195.048 299.796 196.129 296.884 196.129 292.975C196.129 286.986 192.386 283.658 187.312 283.658C180.075 283.658 175.999 289.481 174.502 295.969V284.49H165.185V325H174.502ZM216.949 325.915C222.855 325.915 226.847 323.17 228.594 320.591L225.683 312.273C224.518 314.602 222.189 317.181 219.028 317.181C216.283 317.181 214.204 316.099 214.204 311.691V291.727H226.598V284.49H214.204V273.677L204.887 279.582V284.49H198.565V291.727H204.887V313.937C204.887 321.09 209.296 325.915 216.949 325.915ZM244.199 325V302.291C244.199 295.637 246.528 291.228 253.349 291.228C259.588 291.228 261.252 294.638 261.252 299.629V325H270.651V296.801C270.651 288.4 265.827 283.658 257.924 283.658C249.856 283.658 245.697 289.148 244.199 295.553V269.268H234.883V325H244.199ZM296.476 325L302.133 303.955L304.794 291.394L307.373 303.955L313.113 325H325.008L335.406 284.49H325.008L320.765 307.282L319.019 318.678L316.523 307.282L310.284 284.49H299.221L293.066 307.282L290.487 318.678L288.74 307.282L284.581 284.49H274.183L284.498 325H296.476ZM350.289 325V302.291C350.289 295.637 352.618 291.228 359.439 291.228C365.678 291.228 367.342 294.638 367.342 299.629V325H376.741V296.801C376.741 288.4 371.917 283.658 364.014 283.658C355.946 283.658 351.787 289.148 350.289 295.553V269.268H340.973V325H350.289ZM395.617 278.751V269.268H386.301V278.751H395.617ZM395.617 325V284.49H386.301V325H395.617ZM414.788 325V269.268H405.472V325H414.788ZM442.61 325.832C451.594 325.832 457.084 321.756 460.161 317.098L454.422 311.109C452.925 314.519 449.764 318.179 442.693 318.179C436.288 318.179 432.046 314.269 431.547 307.033H460.494C460.66 306.201 460.827 304.454 460.827 302.957C460.827 291.727 454.089 283.658 441.944 283.658C430.548 283.658 422.646 292.06 422.646 304.787C422.646 317.43 430.548 325.832 442.61 325.832ZM441.944 291.145C448.1 291.145 451.76 294.638 452.425 301.044H431.63C432.379 294.472 436.205 291.145 441.944 291.145Z" fill="#3D0072"/>
<path d="M72.3019 205V171.727H86.1102V205H95.5098V164.49H72.3019V161.828C72.3019 157.919 73.8824 155.839 77.8751 155.839C82.0342 155.839 85.6111 157.836 87.5243 159.998L91.6002 153.427C89.3543 151.431 84.2802 148.436 77.7088 148.436C68.7251 148.436 62.9855 153.094 62.9855 161.662V164.49H56.7468V171.727H62.9855V205H72.3019ZM114.633 205V182.291C114.633 175.637 116.962 171.228 123.783 171.228C130.022 171.228 131.686 174.638 131.686 179.629V205H141.085V176.801C141.085 168.4 136.261 163.658 128.358 163.658C120.29 163.658 116.131 169.148 114.633 175.553V164.49H105.317V205H114.633ZM159.294 205.832C167.778 205.832 171.688 199.51 172.936 194.186V197.181C172.936 203.004 176.346 205 180.672 205H186.411V197.015H183.832C182.335 197.015 181.67 196.432 181.67 194.602V179.38C181.67 169.398 176.013 163.658 165.948 163.658C156.965 163.658 150.643 168.317 147.482 172.642L153.055 179.297C155.384 175.054 159.626 171.893 165.033 171.893C170.606 171.893 172.436 174.638 172.769 178.714L159.211 184.454C152.639 187.033 148.646 190.526 148.646 196.266C148.646 202.089 152.639 205.832 159.294 205.832ZM157.63 194.852C157.63 192.772 159.044 191.358 162.538 189.778L172.936 185.119V189.445C172.936 194.935 168.776 198.595 162.621 198.595C159.211 198.595 157.63 197.181 157.63 194.852ZM202.852 205V182.291C202.852 175.637 205.181 171.228 212.002 171.228C218.241 171.228 219.904 174.638 219.904 179.629V205H229.304V176.801C229.304 168.4 224.479 163.658 216.577 163.658C208.508 163.658 204.349 169.148 202.852 175.553V164.49H193.536V205H202.852ZM256.252 205.832C266.401 205.832 272.806 200.092 274.968 192.439L266.567 188.28C265.652 194.103 262.741 198.013 256.419 198.013C250.014 198.013 246.104 193.271 246.104 184.787C246.104 176.219 250.014 171.478 256.419 171.478C262.657 171.478 265.652 175.387 266.567 181.21L274.968 177.051C272.806 169.398 266.401 163.658 256.252 163.658C244.191 163.658 236.621 172.143 236.621 184.787C236.621 197.347 244.191 205.832 256.252 205.832ZM291.477 158.751V149.268H282.16V158.751H291.477ZM291.477 205V164.49H282.16V205H291.477ZM309.899 205.832C318.384 205.832 322.293 199.51 323.541 194.186V197.181C323.541 203.004 326.951 205 331.277 205H337.017V197.015H334.438C332.941 197.015 332.275 196.432 332.275 194.602V179.38C332.275 169.398 326.619 163.658 316.554 163.658C307.57 163.658 301.248 168.317 298.087 172.642L303.66 179.297C305.99 175.054 310.232 171.893 315.639 171.893C321.212 171.893 323.042 174.638 323.375 178.714L309.816 184.454C303.245 187.033 299.252 190.526 299.252 196.266C299.252 202.089 303.245 205.832 309.899 205.832ZM308.235 194.852C308.235 192.772 309.65 191.358 313.143 189.778L323.541 185.119V189.445C323.541 194.935 319.382 198.595 313.226 198.595C309.816 198.595 308.235 197.181 308.235 194.852ZM353.457 205V149.268H344.141V205H353.457ZM390.906 158.751V149.268H381.589V158.751H390.906ZM378.096 221.304C385.748 221.304 390.906 215.731 390.906 207.329V164.49H381.589V207.08C381.589 211.239 380.092 212.736 377.014 212.736C374.02 212.736 371.857 210.823 370.609 208.494L365.618 215.564C367.531 217.893 371.275 221.304 378.096 221.304ZM417.813 205.832C429.624 205.832 437.61 197.347 437.61 184.787C437.61 172.143 429.624 163.658 417.813 163.658C406.167 163.658 398.181 172.143 398.181 184.787C398.181 197.347 406.167 205.832 417.813 205.832ZM417.896 198.096C411.907 198.096 407.747 194.103 407.747 184.787C407.747 175.387 411.907 171.394 417.896 171.394C423.968 171.394 428.127 175.387 428.127 184.787C428.127 194.103 423.968 198.096 417.896 198.096ZM457.995 205.832C466.063 205.832 470.223 200.342 471.72 193.937V205H481.119V164.49H471.72V187.199C471.72 193.854 469.391 198.262 462.57 198.262C456.331 198.262 454.667 194.852 454.667 189.861V164.49H445.351V192.689C445.351 201.09 450.176 205.832 457.995 205.832ZM500.245 205V182.707C500.245 175.969 504.57 170.646 509.229 170.646C511.974 170.646 513.055 172.476 513.055 174.722C513.055 177.051 511.807 179.713 510.476 181.044H520.042C520.791 179.796 521.872 176.884 521.872 172.975C521.872 166.986 518.129 163.658 513.055 163.658C505.818 163.658 501.742 169.481 500.245 175.969V164.49H490.928V205H500.245ZM536.718 205V182.291C536.718 175.637 539.047 171.228 545.868 171.228C552.107 171.228 553.771 174.638 553.771 179.629V205H563.17V176.801C563.17 168.4 558.346 163.658 550.443 163.658C542.375 163.658 538.216 169.148 536.718 175.553V164.49H527.402V205H536.718ZM590.535 205.832C599.518 205.832 605.008 201.756 608.086 197.098L602.347 191.109C600.849 194.519 597.688 198.179 590.618 198.179C584.213 198.179 579.971 194.269 579.471 187.033H608.419C608.585 186.201 608.752 184.454 608.752 182.957C608.752 171.727 602.014 163.658 589.869 163.658C578.473 163.658 570.571 172.06 570.571 184.787C570.571 197.43 578.473 205.832 590.535 205.832ZM589.869 171.145C596.025 171.145 599.685 174.638 600.35 181.044H579.555C580.303 174.472 584.13 171.145 589.869 171.145ZM623.767 218.891C630.338 218.891 635.079 215.98 637.991 207.828L652.964 164.49H642.649L635.412 187.449L632.501 198.262L629.589 187.449L622.269 164.49H612.038L625.43 202.505H631.17L630.421 204.75C628.924 209.242 626.928 210.656 623.767 210.656C620.023 210.656 617.528 208.327 615.365 205.25L610.957 212.736C613.202 215.897 617.944 218.891 623.767 218.891Z" fill="white"/>
<g filter="url(#filter0_d_111_6719)">
<path d="M636.402 245.571C636.273 244.037 637.853 242.938 639.246 243.593L659.543 253.135C661.287 253.955 660.976 256.524 659.087 256.905L648.807 258.979C648.265 259.089 647.793 259.417 647.502 259.887L641.98 268.804C640.966 270.442 638.449 269.839 638.287 267.919L636.402 245.571Z" fill="url(#paint1_linear_111_6719)"/>
</g>
<defs>
<filter id="filter0_d_111_6719" x="632.395" y="243.4" width="32.2969" height="34.3535" filterUnits="userSpaceOnUse" color-interpolation-filters="sRGB">
<feFlood flood-opacity="0" result="BackgroundImageFix"/>
<feColorMatrix in="SourceAlpha" type="matrix" values="0 0 0 0 0 0 0 0 0 0 0 0 0 0 0 0 0 0 127 0" result="hardAlpha"/>
<feOffset dy="4"/>
<feGaussianBlur stdDeviation="2"/>
<feComposite in2="hardAlpha" operator="out"/>
<feColorMatrix type="matrix" values="0 0 0 0 0 0 0 0 0 0 0 0 0 0 0 0 0 0 0.25 0"/>
<feBlend mode="normal" in2="BackgroundImageFix" result="effect1_dropShadow_111_6719"/>
<feBlend mode="normal" in="SourceGraphic" in2="effect1_dropShadow_111_6719" result="shape"/>
</filter>
<linearGradient id="paint0_linear_111_6719" x1="728.807" y1="280.5" x2="73.6479" y2="52.4184" gradientUnits="userSpaceOnUse">
<stop stop-color="#FFC711"/>
<stop offset="1" stop-color="#8807F7"/>
</linearGradient>
<linearGradient id="paint1_linear_111_6719" x1="638" y1="243.37" x2="656.718" y2="260.356" gradientUnits="userSpaceOnUse">
<stop stop-color="#8807F7"/>
<stop offset="0.598958" stop-color="#FFC711"/>
</linearGradient>
</defs>
</svg>
