<svg width="553" height="335" viewBox="0 0 553 335" fill="none" xmlns="http://www.w3.org/2000/svg">
<rect width="366" height="136" rx="20" fill="url(#paint0_linear_77_6704)"/>
<path d="M67.8896 102V46.2679H58.49V102H67.8896ZM88.101 102V79.2912C88.101 72.6367 90.4301 68.228 95.9201 68.228C101.41 68.228 103.739 71.0562 103.739 76.6294V102H113.056V79.2912C113.056 72.6367 115.385 68.228 120.875 68.228C126.365 68.228 128.694 71.0562 128.694 76.6294V102H138.01V73.8012C138.01 65.3998 133.934 60.6584 126.198 60.6584C118.463 60.6584 114.47 66.2316 113.056 72.6367C112.64 64.9839 108.647 60.6584 101.244 60.6584C93.591 60.6584 89.5983 66.1484 88.101 72.5535V61.4902H78.7846V102H88.101ZM156.905 117.472V91.1863C158.236 97.425 161.646 102.832 169.715 102.832C179.697 102.832 186.019 94.7631 186.019 81.7035C186.019 68.6439 179.697 60.5752 169.882 60.5752C161.813 60.5752 158.236 65.9821 156.905 72.3039V61.4902H147.589V117.472H156.905ZM156.905 84.199V79.2081C156.905 72.5535 159.65 68.1448 166.221 68.1448C172.044 68.1448 176.453 72.5535 176.453 81.7035C176.453 90.8536 172.044 95.2622 166.221 95.2622C159.65 95.2622 156.905 90.8536 156.905 84.199ZM202.883 102V79.7071C202.883 72.9694 207.208 67.6457 211.866 67.6457C214.611 67.6457 215.693 69.4757 215.693 71.7216C215.693 74.0508 214.445 76.7126 213.114 78.0435H222.68C223.429 76.7958 224.51 73.8844 224.51 69.9748C224.51 63.9857 220.767 60.6584 215.693 60.6584C208.456 60.6584 204.38 66.4812 202.883 72.9694V61.4902H193.566V102H202.883ZM246.767 102.832C258.579 102.832 266.565 94.3472 266.565 81.7867C266.565 69.143 258.579 60.6584 246.767 60.6584C235.122 60.6584 227.136 69.143 227.136 81.7867C227.136 94.3472 235.122 102.832 246.767 102.832ZM246.85 95.0959C240.861 95.0959 236.702 91.1031 236.702 81.7867C236.702 72.3871 240.861 68.3944 246.85 68.3944C252.923 68.3944 257.082 72.3871 257.082 81.7867C257.082 91.1031 252.923 95.0959 246.85 95.0959ZM294.318 102L308.792 61.4902H298.644L291.823 83.5335L288.579 95.9277L285.251 83.5335L278.347 61.4902H268.033L282.423 102H294.318ZM329.89 102.832C338.873 102.832 344.363 98.7559 347.441 94.0977L341.702 88.1086C340.204 91.519 337.043 95.1791 329.973 95.1791C323.568 95.1791 319.326 91.2695 318.827 84.0326H347.774C347.94 83.2008 348.107 81.454 348.107 79.9567C348.107 68.7271 341.369 60.6584 329.224 60.6584C317.828 60.6584 309.926 69.0598 309.926 81.7867C309.926 94.4304 317.828 102.832 329.89 102.832ZM329.224 68.1448C335.38 68.1448 339.04 71.6385 339.705 78.0435H318.91C319.658 71.4721 323.485 68.1448 329.224 68.1448Z" fill="white"/>
<path d="M381.643 115.891C388.214 115.891 392.956 112.98 395.867 104.828L410.84 61.4902H400.525L393.288 84.4485L390.377 95.2622L387.466 84.4485L380.146 61.4902H369.914L383.306 99.5045H389.046L388.297 101.75C386.8 106.242 384.804 107.656 381.643 107.656C377.9 107.656 375.404 105.327 373.241 102.25L368.833 109.736C371.079 112.897 375.82 115.891 381.643 115.891ZM431.734 102.832C443.546 102.832 451.532 94.3472 451.532 81.7867C451.532 69.143 443.546 60.6584 431.734 60.6584C420.089 60.6584 412.103 69.143 412.103 81.7867C412.103 94.3472 420.089 102.832 431.734 102.832ZM431.817 95.0959C425.828 95.0959 421.669 91.1031 421.669 81.7867C421.669 72.3871 425.828 68.3944 431.817 68.3944C437.89 68.3944 442.049 72.3871 442.049 81.7867C442.049 91.1031 437.89 95.0959 431.817 95.0959ZM471.916 102.832C479.985 102.832 484.144 97.3418 485.641 90.9368V102H495.041V61.4902H485.641V84.199C485.641 90.8536 483.312 95.2622 476.491 95.2622C470.253 95.2622 468.589 91.8518 468.589 86.8608V61.4902H459.273V89.689C459.273 98.0904 464.097 102.832 471.916 102.832ZM514.166 102V79.7071C514.166 72.9694 518.492 67.6457 523.15 67.6457C525.895 67.6457 526.977 69.4757 526.977 71.7216C526.977 74.0508 525.729 76.7126 524.398 78.0435H533.964C534.712 76.7958 535.794 73.8844 535.794 69.9748C535.794 63.9857 532.051 60.6584 526.977 60.6584C519.74 60.6584 515.664 66.4812 514.166 72.9694V61.4902H504.85V102H514.166ZM70.3019 205V171.727H84.1102V205H93.5098V164.49H70.3019V161.828C70.3019 157.919 71.8824 155.839 75.8751 155.839C80.0342 155.839 83.6111 157.836 85.5243 159.998L89.6002 153.427C87.3543 151.431 82.2802 148.436 75.7088 148.436C66.7251 148.436 60.9855 153.094 60.9855 161.662V164.49H54.7468V171.727H60.9855V205H70.3019ZM112.633 205V182.291C112.633 175.637 114.962 171.228 121.783 171.228C128.022 171.228 129.686 174.638 129.686 179.629V205H139.085V176.801C139.085 168.4 134.261 163.658 126.358 163.658C118.29 163.658 114.131 169.148 112.633 175.553V164.49H103.317V205H112.633ZM157.294 205.832C165.778 205.832 169.688 199.51 170.936 194.186V197.181C170.936 203.004 174.346 205 178.672 205H184.411V197.015H181.832C180.335 197.015 179.67 196.432 179.67 194.602V179.38C179.67 169.398 174.013 163.658 163.948 163.658C154.965 163.658 148.643 168.317 145.482 172.642L151.055 179.297C153.384 175.054 157.626 171.893 163.033 171.893C168.606 171.893 170.436 174.638 170.769 178.714L157.211 184.454C150.639 187.033 146.646 190.526 146.646 196.266C146.646 202.089 150.639 205.832 157.294 205.832ZM155.63 194.852C155.63 192.772 157.044 191.358 160.538 189.778L170.936 185.119V189.445C170.936 194.935 166.776 198.595 160.621 198.595C157.211 198.595 155.63 197.181 155.63 194.852ZM200.852 205V182.291C200.852 175.637 203.181 171.228 210.002 171.228C216.241 171.228 217.904 174.638 217.904 179.629V205H227.304V176.801C227.304 168.4 222.479 163.658 214.577 163.658C206.508 163.658 202.349 169.148 200.852 175.553V164.49H191.536V205H200.852ZM254.252 205.832C264.401 205.832 270.806 200.092 272.968 192.439L264.567 188.28C263.652 194.103 260.741 198.013 254.419 198.013C248.014 198.013 244.104 193.271 244.104 184.787C244.104 176.219 248.014 171.478 254.419 171.478C260.657 171.478 263.652 175.387 264.567 181.21L272.968 177.051C270.806 169.398 264.401 163.658 254.252 163.658C242.191 163.658 234.621 172.143 234.621 184.787C234.621 197.347 242.191 205.832 254.252 205.832ZM289.477 158.751V149.268H280.16V158.751H289.477ZM289.477 205V164.49H280.16V205H289.477ZM307.899 205.832C316.384 205.832 320.293 199.51 321.541 194.186V197.181C321.541 203.004 324.951 205 329.277 205H335.017V197.015H332.438C330.941 197.015 330.275 196.432 330.275 194.602V179.38C330.275 169.398 324.619 163.658 314.554 163.658C305.57 163.658 299.248 168.317 296.087 172.642L301.66 179.297C303.99 175.054 308.232 171.893 313.639 171.893C319.212 171.893 321.042 174.638 321.375 178.714L307.816 184.454C301.245 187.033 297.252 190.526 297.252 196.266C297.252 202.089 301.245 205.832 307.899 205.832ZM306.235 194.852C306.235 192.772 307.65 191.358 311.143 189.778L321.541 185.119V189.445C321.541 194.935 317.382 198.595 311.226 198.595C307.816 198.595 306.235 197.181 306.235 194.852ZM351.457 205V149.268H342.141V205H351.457ZM67.2242 261.751V252.268H57.9078V261.751H67.2242ZM54.4141 324.304C62.0669 324.304 67.2242 318.731 67.2242 310.329V267.49H57.9078V310.08C57.9078 314.239 56.4105 315.736 53.3327 315.736C50.3382 315.736 48.1754 313.823 46.9277 311.494L41.9368 318.564C43.8499 320.893 47.5932 324.304 54.4141 324.304ZM94.131 308.832C105.943 308.832 113.928 300.347 113.928 287.787C113.928 275.143 105.943 266.658 94.131 266.658C82.4855 266.658 74.5 275.143 74.5 287.787C74.5 300.347 82.4855 308.832 94.131 308.832ZM94.2142 301.096C88.2251 301.096 84.066 297.103 84.066 287.787C84.066 278.387 88.2251 274.394 94.2142 274.394C100.287 274.394 104.446 278.387 104.446 287.787C104.446 297.103 100.287 301.096 94.2142 301.096ZM134.313 308.832C142.382 308.832 146.541 303.342 148.038 296.937V308H157.438V267.49H148.038V290.199C148.038 296.854 145.709 301.262 138.888 301.262C132.65 301.262 130.986 297.852 130.986 292.861V267.49H121.67V295.689C121.67 304.09 126.494 308.832 134.313 308.832ZM176.563 308V285.707C176.563 278.969 180.889 273.646 185.547 273.646C188.292 273.646 189.373 275.476 189.373 277.722C189.373 280.051 188.126 282.713 186.795 284.044H196.361C197.109 282.796 198.191 279.884 198.191 275.975C198.191 269.986 194.448 266.658 189.373 266.658C182.137 266.658 178.061 272.481 176.563 278.969V267.49H167.247V308H176.563ZM213.037 308V285.291C213.037 278.637 215.366 274.228 222.187 274.228C228.426 274.228 230.089 277.638 230.089 282.629V308H239.489V279.801C239.489 271.4 234.664 266.658 226.762 266.658C218.693 266.658 214.534 272.148 213.037 278.553V267.49H203.72V308H213.037ZM266.853 308.832C275.837 308.832 281.327 304.756 284.405 300.098L278.665 294.109C277.168 297.519 274.007 301.179 266.936 301.179C260.531 301.179 256.289 297.269 255.79 290.033H284.737C284.904 289.201 285.07 287.454 285.07 285.957C285.07 274.727 278.332 266.658 266.188 266.658C254.792 266.658 246.889 275.06 246.889 287.787C246.889 300.43 254.792 308.832 266.853 308.832ZM266.188 274.145C272.343 274.145 276.003 277.638 276.669 284.044H255.873C256.622 277.472 260.448 274.145 266.188 274.145ZM300.085 321.891C306.657 321.891 311.398 318.98 314.309 310.828L329.282 267.49H318.968L311.731 290.449L308.819 301.262L305.908 290.449L298.588 267.49H288.356L301.749 305.505H307.488L306.74 307.75C305.242 312.242 303.246 313.656 300.085 313.656C296.342 313.656 293.847 311.327 291.684 308.25L287.275 315.736C289.521 318.897 294.262 321.891 300.085 321.891Z" fill="#3D0072"/>
<g filter="url(#filter0_d_77_6704)">
<path d="M354.402 127.201C354.273 125.666 355.853 124.568 357.246 125.223L377.543 134.765C379.287 135.584 378.976 138.154 377.087 138.535L366.807 140.609C366.265 140.718 365.793 141.047 365.502 141.517L359.98 150.434C358.966 152.072 356.449 151.469 356.287 149.549L354.402 127.201Z" fill="url(#paint1_linear_77_6704)"/>
</g>
<defs>
<filter id="filter0_d_77_6704" x="350.395" y="125.029" width="32.2969" height="34.3535" filterUnits="userSpaceOnUse" color-interpolation-filters="sRGB">
<feFlood flood-opacity="0" result="BackgroundImageFix"/>
<feColorMatrix in="SourceAlpha" type="matrix" values="0 0 0 0 0 0 0 0 0 0 0 0 0 0 0 0 0 0 127 0" result="hardAlpha"/>
<feOffset dy="4"/>
<feGaussianBlur stdDeviation="2"/>
<feComposite in2="hardAlpha" operator="out"/>
<feColorMatrix type="matrix" values="0 0 0 0 0 0 0 0 0 0 0 0 0 0 0 0 0 0 0.25 0"/>
<feBlend mode="normal" in2="BackgroundImageFix" result="effect1_dropShadow_77_6704"/>
<feBlend mode="normal" in="SourceGraphic" in2="effect1_dropShadow_77_6704" result="shape"/>
</filter>
<linearGradient id="paint0_linear_77_6704" x1="398.5" y1="168.5" x2="0.757174" y2="90.6523" gradientUnits="userSpaceOnUse">
<stop stop-color="#FFC711"/>
<stop offset="1" stop-color="#8807F7"/>
</linearGradient>
<linearGradient id="paint1_linear_77_6704" x1="356" y1="125" x2="374.718" y2="141.985" gradientUnits="userSpaceOnUse">
<stop stop-color="#8807F7"/>
<stop offset="0.598958" stop-color="#FFC711"/>
</linearGradient>
</defs>
</svg>
