<svg width="259" height="57" viewBox="0 0 259 57" fill="none" xmlns="http://www.w3.org/2000/svg">
<rect x="130" width="129" height="57" fill="#0D9488"/>
<path d="M4 12.35H11.8V47H4V12.35ZM19.3203 21.6C20.587 21.2333 22.2203 20.9 24.2203 20.6C26.2203 20.2667 28.3203 20.1 30.5203 20.1C32.7536 20.1 34.6036 20.4 36.0703 21C37.5703 21.5667 38.7536 22.3833 39.6203 23.45C40.487 24.5167 41.1036 25.7833 41.4703 27.25C41.837 28.7167 42.0203 30.35 42.0203 32.15V47H34.5703V33.05C34.5703 30.65 34.2536 28.95 33.6203 27.95C32.987 26.95 31.8036 26.45 30.0703 26.45C29.537 26.45 28.9703 26.4833 28.3703 26.55C27.7703 26.5833 27.237 26.6333 26.7703 26.7V47H19.3203V21.6ZM56.3137 41.65C57.6803 41.65 58.647 41.5167 59.2137 41.25C59.7803 40.9833 60.0637 40.4667 60.0637 39.7C60.0637 39.1 59.697 38.5833 58.9637 38.15C58.2303 37.6833 57.1137 37.1667 55.6137 36.6C54.447 36.1667 53.3803 35.7167 52.4137 35.25C51.4803 34.7833 50.6803 34.2333 50.0137 33.6C49.347 32.9333 48.8303 32.15 48.4637 31.25C48.097 30.35 47.9137 29.2667 47.9137 28C47.9137 25.5333 48.8303 23.5833 50.6637 22.15C52.497 20.7167 55.0137 20 58.2137 20C59.8137 20 61.347 20.15 62.8137 20.45C64.2803 20.7167 65.447 21.0167 66.3137 21.35L65.0137 27.15C64.147 26.85 63.197 26.5833 62.1637 26.35C61.1637 26.1167 60.0303 26 58.7637 26C56.4303 26 55.2637 26.65 55.2637 27.95C55.2637 28.25 55.3137 28.5167 55.4137 28.75C55.5137 28.9833 55.7137 29.2167 56.0137 29.45C56.3137 29.65 56.7137 29.8833 57.2137 30.15C57.747 30.3833 58.4137 30.65 59.2137 30.95C60.847 31.55 62.197 32.15 63.2637 32.75C64.3303 33.3167 65.1637 33.95 65.7637 34.65C66.397 35.3167 66.8303 36.0667 67.0637 36.9C67.3303 37.7333 67.4637 38.7 67.4637 39.8C67.4637 42.4 66.4803 44.3667 64.5137 45.7C62.5803 47.0333 59.8303 47.7 56.2637 47.7C53.9303 47.7 51.9803 47.5 50.4137 47.1C48.8803 46.7 47.8137 46.3667 47.2137 46.1L48.4637 40.05C49.7303 40.55 51.0303 40.95 52.3637 41.25C53.697 41.5167 55.0137 41.65 56.3137 41.65ZM95.4813 46.1C94.2146 46.4667 92.5813 46.8 90.5813 47.1C88.5813 47.4333 86.4813 47.6 84.2813 47.6C82.0479 47.6 80.1813 47.3 78.6813 46.7C77.2146 46.1 76.0479 45.2667 75.1813 44.2C74.3146 43.1 73.6979 41.8 73.3313 40.3C72.9646 38.8 72.7813 37.15 72.7813 35.35V20.7H80.2313V34.45C80.2313 36.85 80.5479 38.5833 81.1813 39.65C81.8146 40.7167 82.9979 41.25 84.7313 41.25C85.2646 41.25 85.8313 41.2333 86.4313 41.2C87.0313 41.1333 87.5646 41.0667 88.0313 41V20.7H95.4813V46.1ZM118.325 27.3C117.658 27.1333 116.875 26.9667 115.975 26.8C115.075 26.6 114.108 26.5 113.075 26.5C112.608 26.5 112.041 26.55 111.375 26.65C110.741 26.7167 110.258 26.8 109.925 26.9V47H102.475V22.1C103.808 21.6333 105.375 21.2 107.175 20.8C109.008 20.3667 111.041 20.15 113.275 20.15C113.675 20.15 114.158 20.1833 114.725 20.25C115.291 20.2833 115.858 20.35 116.425 20.45C116.991 20.5167 117.558 20.6167 118.125 20.75C118.691 20.85 119.175 20.9833 119.575 21.15L118.325 27.3ZM133.13 41.8C133.863 41.8 134.563 41.7833 135.23 41.75C135.897 41.7167 136.43 41.6667 136.83 41.6V35.95C136.53 35.8833 136.08 35.8167 135.48 35.75C134.88 35.6833 134.33 35.65 133.83 35.65C133.13 35.65 132.463 35.7 131.83 35.8C131.23 35.8667 130.697 36.0167 130.23 36.25C129.763 36.4833 129.397 36.8 129.13 37.2C128.863 37.6 128.73 38.1 128.73 38.7C128.73 39.8667 129.113 40.6833 129.88 41.15C130.68 41.5833 131.763 41.8 133.13 41.8ZM132.53 20C134.73 20 136.563 20.25 138.03 20.75C139.497 21.25 140.663 21.9667 141.53 22.9C142.43 23.8333 143.063 24.9667 143.43 26.3C143.797 27.6333 143.98 29.1167 143.98 30.75V46.25C142.913 46.4833 141.43 46.75 139.53 47.05C137.63 47.3833 135.33 47.55 132.63 47.55C130.93 47.55 129.38 47.4 127.98 47.1C126.613 46.8 125.43 46.3167 124.43 45.65C123.43 44.95 122.663 44.05 122.13 42.95C121.597 41.85 121.33 40.5 121.33 38.9C121.33 37.3667 121.63 36.0667 122.23 35C122.863 33.9333 123.697 33.0833 124.73 32.45C125.763 31.8167 126.947 31.3667 128.28 31.1C129.613 30.8 130.997 30.65 132.43 30.65C133.397 30.65 134.247 30.7 134.98 30.8C135.747 30.8667 136.363 30.9667 136.83 31.1V30.4C136.83 29.1333 136.447 28.1167 135.68 27.35C134.913 26.5833 133.58 26.2 131.68 26.2C130.413 26.2 129.163 26.3 127.93 26.5C126.697 26.6667 125.63 26.9167 124.73 27.25L123.78 21.25C124.213 21.1167 124.747 20.9833 125.38 20.85C126.047 20.6833 126.763 20.55 127.53 20.45C128.297 20.3167 129.097 20.2167 129.93 20.15C130.797 20.05 131.663 20 132.53 20ZM150.717 21.6C151.983 21.2333 153.617 20.9 155.617 20.6C157.617 20.2667 159.717 20.1 161.917 20.1C164.15 20.1 166 20.4 167.467 21C168.967 21.5667 170.15 22.3833 171.017 23.45C171.883 24.5167 172.5 25.7833 172.867 27.25C173.233 28.7167 173.417 30.35 173.417 32.15V47H165.967V33.05C165.967 30.65 165.65 28.95 165.017 27.95C164.383 26.95 163.2 26.45 161.467 26.45C160.933 26.45 160.367 26.4833 159.767 26.55C159.167 26.5833 158.633 26.6333 158.167 26.7V47H150.717V21.6ZM178.91 33.85C178.91 31.95 179.21 30.1667 179.81 28.5C180.443 26.8 181.343 25.3333 182.51 24.1C183.677 22.8333 185.093 21.8333 186.76 21.1C188.427 20.3667 190.327 20 192.46 20C193.86 20 195.143 20.1333 196.31 20.4C197.477 20.6333 198.61 20.9833 199.71 21.45L198.16 27.4C197.46 27.1333 196.693 26.9 195.86 26.7C195.027 26.5 194.093 26.4 193.06 26.4C190.86 26.4 189.21 27.0833 188.11 28.45C187.043 29.8167 186.51 31.6167 186.51 33.85C186.51 36.2167 187.01 38.05 188.01 39.35C189.043 40.65 190.827 41.3 193.36 41.3C194.26 41.3 195.227 41.2167 196.26 41.05C197.293 40.8833 198.243 40.6167 199.11 40.25L200.16 46.35C199.293 46.7167 198.21 47.0333 196.91 47.3C195.61 47.5667 194.177 47.7 192.61 47.7C190.21 47.7 188.143 47.35 186.41 46.65C184.677 45.9167 183.243 44.9333 182.11 43.7C181.01 42.4667 180.193 41.0167 179.66 39.35C179.16 37.65 178.91 35.8167 178.91 33.85ZM202.641 34.05C202.641 31.7167 202.991 29.6833 203.691 27.95C204.424 26.1833 205.374 24.7167 206.541 23.55C207.707 22.3833 209.041 21.5 210.541 20.9C212.074 20.3 213.641 20 215.241 20C218.974 20 221.924 21.15 224.091 23.45C226.257 25.7167 227.341 29.0667 227.341 33.5C227.341 33.9333 227.324 34.4167 227.291 34.95C227.257 35.45 227.224 35.9 227.191 36.3H210.291C210.457 37.8333 211.174 39.05 212.441 39.95C213.707 40.85 215.407 41.3 217.541 41.3C218.907 41.3 220.241 41.1833 221.541 40.95C222.874 40.6833 223.957 40.3667 224.791 40L225.791 46.05C225.391 46.25 224.857 46.45 224.191 46.65C223.524 46.85 222.774 47.0167 221.941 47.15C221.141 47.3167 220.274 47.45 219.341 47.55C218.407 47.65 217.474 47.7 216.541 47.7C214.174 47.7 212.107 47.35 210.341 46.65C208.607 45.95 207.157 45 205.991 43.8C204.857 42.5667 204.007 41.1167 203.441 39.45C202.907 37.7833 202.641 35.9833 202.641 34.05ZM220.141 31.2C220.107 30.5667 219.991 29.95 219.791 29.35C219.624 28.75 219.341 28.2167 218.941 27.75C218.574 27.2833 218.091 26.9 217.491 26.6C216.924 26.3 216.207 26.15 215.341 26.15C214.507 26.15 213.791 26.3 213.191 26.6C212.591 26.8667 212.091 27.2333 211.691 27.7C211.291 28.1667 210.974 28.7167 210.741 29.35C210.541 29.95 210.391 30.5667 210.291 31.2H220.141Z" fill="white"/>
</svg>
