<svg width="263" height="346" viewBox="0 0 263 346" fill="none" xmlns="http://www.w3.org/2000/svg">
<g clip-path="url(#clip0_6274_87259)">
<rect width="252.288" height="539.944" transform="translate(5)" fill="white"/>
<path d="M28.1062 68.0499C30.5112 68.0499 32.315 66.812 32.315 64.6723C32.315 62.4088 30.6173 61.666 28.7252 61.2063L27.3989 60.888C26.108 60.5697 25.2945 60.1983 25.2945 59.155C25.2945 58.2531 26.108 57.7226 27.2397 57.7226C28.6898 57.7226 29.963 58.3592 30.6173 59.8269L32.1204 58.3946C31.2716 56.7676 29.5386 55.8658 27.3635 55.8658C25.1354 55.8658 23.2078 57.0683 23.2078 59.2964C23.2078 61.5423 24.9939 62.3027 26.6738 62.6563L27.7879 62.9039C29.3264 63.2399 30.2813 63.5582 30.2813 64.7077C30.2813 65.7864 29.3264 66.2108 28.1416 66.2108C26.6915 66.2108 24.9055 65.5388 24.2689 63.8058L22.8542 65.2382C23.7737 67.2364 25.8427 68.0499 28.1062 68.0499ZM35.9072 68.0499C37.711 68.0499 38.5421 66.7059 38.8074 65.5742V66.2108C38.8074 67.4486 39.5324 67.873 40.452 67.873H41.6722V66.1754H41.124C40.8056 66.1754 40.6642 66.0516 40.6642 65.6626V62.4265C40.6642 60.3044 39.4617 59.0842 37.3219 59.0842C35.4121 59.0842 34.0681 60.0745 33.3962 60.9941L34.581 62.4088C35.0761 61.5069 35.978 60.8349 37.1274 60.8349C38.3122 60.8349 38.7013 61.4185 38.772 62.285L35.8896 63.5052C34.4925 64.0534 33.6437 64.7961 33.6437 66.0163C33.6437 67.2541 34.4925 68.0499 35.9072 68.0499ZM35.5536 65.7156C35.5536 65.2735 35.8542 64.9729 36.5969 64.6369L38.8074 63.6466V64.5662C38.8074 65.7333 37.9232 66.5114 36.6146 66.5114C35.8896 66.5114 35.5536 66.2108 35.5536 65.7156ZM47.4227 67.873L50.4997 59.2611H48.3422L46.8922 63.9473L46.2025 66.5821L45.4952 63.9473L44.0274 59.2611H41.8346L44.8939 67.873H47.4227ZM54.9848 68.0499C56.8947 68.0499 58.0618 67.1834 58.7161 66.1931L57.4959 64.9199C57.1776 65.6449 56.5056 66.423 55.0025 66.423C53.6409 66.423 52.739 65.5918 52.6329 64.0534H58.7869C58.8222 63.8765 58.8576 63.5052 58.8576 63.1869C58.8576 60.7995 57.4252 59.0842 54.8434 59.0842C52.4207 59.0842 50.7407 60.8703 50.7407 63.5759C50.7407 66.2638 52.4207 68.0499 54.9848 68.0499ZM54.8434 60.6758C56.152 60.6758 56.9301 61.4185 57.0715 62.7801H52.6506C52.8097 61.3831 53.6232 60.6758 54.8434 60.6758Z" fill="#3D0072"/>
<rect x="22.6797" y="80.7559" width="216.921" height="69.5561" rx="6.81923" fill="#F9F9F9"/>
<path d="M39.5174 114.941V112.92H39.0428V112.315H39.5174V111.725H39.0428V111.12H39.5174V109.099H40.8021L41.4404 111.12H42.1851V109.099H43.0934V111.12H43.5598V111.725H43.0934V112.315H43.5598V112.92H43.0934V114.941H41.8005L41.1458 112.92H40.4257V114.941H39.5174ZM40.4257 112.315H40.9658L40.7858 111.725H40.4093L40.4257 112.315ZM42.2096 113.665H42.2505L42.2178 112.92H41.9969L42.2096 113.665ZM40.393 111.12H40.6221L40.3848 110.334H40.3521L40.393 111.12ZM41.825 112.315H42.2014L42.1851 111.725H41.6368L41.825 112.315ZM49.372 115.064C51.2378 115.064 52.4039 113.935 52.4039 112.241C52.4039 110.608 51.4955 109.553 49.9367 109.553C48.8442 109.553 48.1814 110.142 47.9236 110.879L48.12 107.994H51.7901V106.717H46.7944L46.5243 111.394L47.8745 111.529L47.8868 111.419C47.9605 110.891 48.5128 110.559 49.2984 110.559C50.1453 110.559 50.9186 111.026 50.9186 112.18C50.9186 113.137 50.3786 113.726 49.3843 113.726C48.3287 113.726 47.6045 113.112 47.3222 112.094L46.2175 113.162C46.6348 114.229 47.8009 115.064 49.372 115.064ZM56.8519 115.052C59.1472 115.052 60.301 113.235 60.301 110.817C60.301 108.411 59.1472 106.595 56.8519 106.595C54.5565 106.595 53.3904 108.411 53.3904 110.817C53.3904 113.235 54.5565 115.052 56.8519 115.052ZM56.8519 113.726C55.3912 113.726 54.8511 112.548 54.8511 110.817C54.8511 109.099 55.3912 107.908 56.8519 107.908C58.3248 107.908 58.8526 109.099 58.8526 110.817C58.8526 112.548 58.3248 113.726 56.8519 113.726ZM61.5245 116.365C62.4451 116.267 62.801 115.788 62.801 114.966V113.198H61.2299V114.941H61.9541V115.101C61.9541 115.506 61.684 115.592 61.2422 115.641L61.5245 116.365ZM67.1846 115.052C69.48 115.052 70.6338 113.235 70.6338 110.817C70.6338 108.411 69.48 106.595 67.1846 106.595C64.8893 106.595 63.7232 108.411 63.7232 110.817C63.7232 113.235 64.8893 115.052 67.1846 115.052ZM67.1846 113.726C65.7239 113.726 65.1838 112.548 65.1838 110.817C65.1838 109.099 65.7239 107.908 67.1846 107.908C68.6576 107.908 69.1854 109.099 69.1854 110.817C69.1854 112.548 68.6576 113.726 67.1846 113.726ZM75.2039 115.052C77.4992 115.052 78.653 113.235 78.653 110.817C78.653 108.411 77.4992 106.595 75.2039 106.595C72.9085 106.595 71.7424 108.411 71.7424 110.817C71.7424 113.235 72.9085 115.052 75.2039 115.052ZM75.2039 113.726C73.7432 113.726 73.2031 112.548 73.2031 110.817C73.2031 109.099 73.7432 107.908 75.2039 107.908C76.6768 107.908 77.2046 109.099 77.2046 110.817C77.2046 112.548 76.6768 113.726 75.2039 113.726ZM83.2231 115.052C85.5185 115.052 86.6723 113.235 86.6723 110.817C86.6723 108.411 85.5185 106.595 83.2231 106.595C80.9277 106.595 79.7617 108.411 79.7617 110.817C79.7617 113.235 80.9277 115.052 83.2231 115.052ZM83.2231 113.726C81.7624 113.726 81.2223 112.548 81.2223 110.817C81.2223 109.099 81.7624 107.908 83.2231 107.908C84.6961 107.908 85.2239 109.099 85.2239 110.817C85.2239 112.548 84.6961 113.726 83.2231 113.726ZM89.1723 114.941V113.198H87.6011V114.941H89.1723ZM93.5558 115.052C95.8512 115.052 97.005 113.235 97.005 110.817C97.005 108.411 95.8512 106.595 93.5558 106.595C91.2605 106.595 90.0944 108.411 90.0944 110.817C90.0944 113.235 91.2605 115.052 93.5558 115.052ZM93.5558 113.726C92.0951 113.726 91.5551 112.548 91.5551 110.817C91.5551 109.099 92.0951 107.908 93.5558 107.908C95.0288 107.908 95.5566 109.099 95.5566 110.817C95.5566 112.548 95.0288 113.726 93.5558 113.726ZM101.575 115.052C103.87 115.052 105.024 113.235 105.024 110.817C105.024 108.411 103.87 106.595 101.575 106.595C99.2797 106.595 98.1136 108.411 98.1136 110.817C98.1136 113.235 99.2797 115.052 101.575 115.052ZM101.575 113.726C100.114 113.726 99.5743 112.548 99.5743 110.817C99.5743 109.099 100.114 107.908 101.575 107.908C103.048 107.908 103.576 109.099 103.576 110.817C103.576 112.548 103.048 113.726 101.575 113.726Z" fill="#3D0072"/>
<path fill-rule="evenodd" clip-rule="evenodd" d="M105.109 111.828C105.109 111.828 107.027 108.033 110.224 108.033C113.42 108.033 115.338 111.828 115.338 111.828C115.338 111.828 113.42 115.623 110.224 115.623C107.027 115.623 105.109 111.828 105.109 111.828ZM106.267 111.91C106.249 111.883 106.232 111.856 106.215 111.828L106.268 111.746C106.476 111.423 106.783 110.995 107.176 110.572C107.982 109.7 109.022 108.982 110.224 108.982C111.424 108.982 112.465 109.7 113.273 110.572C113.631 110.961 113.952 111.381 114.232 111.828C113.95 112.274 113.629 112.695 113.272 113.084C112.465 113.956 111.426 114.674 110.224 114.674C109.023 114.674 107.982 113.956 107.174 113.084C106.838 112.719 106.535 112.326 106.267 111.91ZM112.142 111.828C112.142 112.228 112.014 112.617 111.777 112.94C111.541 113.264 111.207 113.505 110.823 113.63C110.44 113.755 110.026 113.757 109.641 113.635C109.257 113.514 108.921 113.276 108.681 112.954C108.441 112.633 108.31 112.245 108.306 111.846C108.302 111.446 108.426 111.056 108.659 110.73C108.893 110.404 109.224 110.16 109.607 110.031C109.989 109.902 110.402 109.897 110.788 110.014C110.647 110.077 110.523 110.174 110.428 110.295C110.332 110.415 110.268 110.557 110.24 110.708C110.212 110.859 110.222 111.015 110.268 111.161C110.314 111.308 110.396 111.441 110.506 111.549C110.615 111.658 110.75 111.738 110.898 111.784C111.046 111.83 111.203 111.839 111.356 111.812C111.508 111.784 111.652 111.721 111.774 111.626C111.896 111.532 111.993 111.409 112.057 111.27C112.113 111.451 112.142 111.639 112.142 111.828Z" fill="#9CA3AF"/>
<rect x="38.9609" y="123.699" width="41.1203" height="14.4818" rx="7.24092" fill="#3D0072" fill-opacity="0.11"/>
<rect x="41.6875" y="126.439" width="20.5569" height="9" rx="4.5" fill="white"/>
<path d="M46.8623 132.439V130.049L46.8349 129.561L47.1638 130.049L48.8467 132.439H49.2743V128.767H48.7974V131.113L48.8248 131.672L48.4465 131.102L46.8075 128.767H46.3854V132.439H46.8623ZM51.4387 132.483C52.2829 132.483 52.7543 131.836 52.7817 131.02L52.9297 132.439H53.2258V130.598H51.6031V131.02H52.7269C52.5899 131.639 52.3103 132.034 51.6031 132.034C50.8083 132.034 50.441 131.436 50.441 130.598C50.441 129.759 50.8192 129.161 51.6525 129.161C52.2993 129.161 52.6611 129.556 52.7872 130.077L53.2148 129.797C52.9681 129.101 52.4144 128.712 51.647 128.712C50.5397 128.712 49.9367 129.523 49.9367 130.598C49.9367 131.71 50.4574 132.483 51.4387 132.483ZM54.4641 132.439V130.049L54.4366 129.561L54.7656 130.049L56.4485 132.439H56.8761V128.767H56.3991V131.113L56.4266 131.672L56.0483 131.102L54.4092 128.767H53.9871V132.439H54.4641Z" fill="#3D0072" fill-opacity="0.8"/>
<path d="M67.4104 132.494C68.3862 132.494 68.8138 131.99 68.8138 130.905V128.767H68.3424V130.905C68.3424 131.716 68.0902 132.039 67.4159 132.039C66.7526 132.039 66.495 131.716 66.495 130.905V128.767H66.0181V130.905C66.0181 131.99 66.4566 132.494 67.4104 132.494ZM70.9402 132.494C71.6529 132.494 72.1846 132.111 72.1846 131.475C72.1846 130.751 71.6145 130.548 71.0937 130.422L70.6935 130.323C70.2714 130.219 70.0028 130.082 70.0028 129.715C70.0028 129.375 70.3043 129.172 70.71 129.172C71.1869 129.172 71.5597 129.375 71.7351 129.874L72.1353 129.556C71.9105 129.008 71.3843 128.717 70.721 128.717C70.0796 128.717 69.4985 129.079 69.4985 129.748C69.4985 130.439 70.0522 130.658 70.5401 130.767L70.8854 130.844C71.3733 130.959 71.6967 131.064 71.6967 131.486C71.6967 131.886 71.3514 132.045 70.9402 132.045C70.4798 132.045 69.9096 131.831 69.7397 131.233L69.3779 131.551C69.6191 132.231 70.2495 132.494 70.9402 132.494ZM74.1387 132.439C75.2954 132.439 75.871 131.765 75.871 130.603C75.871 129.441 75.2954 128.767 74.1387 128.767H72.8395V132.439H74.1387ZM74.062 129.189C74.8952 129.189 75.3776 129.556 75.3776 130.603C75.3776 131.65 74.8952 132.017 74.062 132.017H73.3164V129.189H74.062Z" fill="#3D0072" fill-opacity="0.3"/>
<path d="M87.2713 132.439V131.085H86.9533V130.68H87.2713V130.285H86.9533V129.879H87.2713V128.525H88.132L88.5597 129.879H89.0586V128.525H89.6672V129.879H89.9797V130.285H89.6672V130.68H89.9797V131.085H89.6672V132.439H88.8009L88.3623 131.085H87.8798V132.439H87.2713ZM87.8798 130.68H88.2417L88.1211 130.285H87.8689L87.8798 130.68ZM89.0751 131.584H89.1025L89.0805 131.085H88.9325L89.0751 131.584ZM87.8579 129.879H88.0114L87.8524 129.353H87.8305L87.8579 129.879ZM88.8174 130.68H89.0696L89.0586 130.285H88.6913L88.8174 130.68ZM91.4176 132.439C91.4176 130.904 91.9439 130.126 92.6786 129.402V128.766H90.173V129.336H92.0975C91.5218 129.906 90.7378 130.723 90.7378 132.439H91.4176ZM95.0458 132.439V131.612H95.6653V131.074H95.0458V128.766H94.3934L92.595 131.135V131.612H94.4317V132.439H95.0458ZM93.2749 131.074L94.4317 129.567V131.074H93.2749ZM97.5204 132.489C98.5457 132.489 99.061 131.677 99.061 130.597C99.061 129.523 98.5457 128.711 97.5204 128.711C96.4951 128.711 95.9743 129.523 95.9743 130.597C95.9743 131.677 96.4951 132.489 97.5204 132.489ZM97.5204 131.897C96.868 131.897 96.6267 131.37 96.6267 130.597C96.6267 129.83 96.868 129.298 97.5204 129.298C98.1783 129.298 98.4141 129.83 98.4141 130.597C98.4141 131.37 98.1783 131.897 97.5204 131.897ZM101.135 132.659L102.561 128.547H101.996L100.57 132.659H101.135ZM104.673 132.988V132.489C105.353 132.445 105.846 132.072 105.846 131.447C105.846 130.745 105.32 130.515 104.733 130.372L104.673 130.356V129.353C104.947 129.44 105.183 129.632 105.32 129.945L105.786 129.501C105.572 129.09 105.177 128.826 104.673 128.744V128.218H104.289V128.717C103.62 128.717 103.023 129.09 103.023 129.78C103.023 130.477 103.576 130.712 104.097 130.822L104.289 130.866V131.902C103.905 131.831 103.511 131.612 103.352 131.178L102.913 131.623C103.165 132.165 103.691 132.428 104.289 132.483V132.988H104.673ZM103.67 129.737C103.67 129.457 103.922 129.292 104.273 129.292H104.289V130.263C103.922 130.175 103.67 130.06 103.67 129.737ZM105.216 131.458C105.216 131.754 104.98 131.891 104.673 131.919V130.954C105.013 131.047 105.216 131.162 105.216 131.458ZM107.557 132.439V128.766H107.014C106.827 129.002 106.57 129.095 106.268 129.095V129.545H106.937V132.439H107.557Z" fill="#B69FC9"/>
<path d="M41.1295 97.666V93.6222H42.5751V93.0971H39.0973V93.6222H40.543V97.666H41.1295ZM43.8639 97.7342C44.7776 97.7342 45.4255 97.0591 45.4255 96.0158C45.4255 94.9724 44.7776 94.2973 43.8639 94.2973C42.9501 94.2973 42.3091 94.9724 42.3091 96.0158C42.3091 97.0591 42.9501 97.7342 43.8639 97.7342ZM43.8639 97.2364C43.3047 97.2364 42.916 96.8477 42.916 96.0158C42.916 95.177 43.3047 94.7951 43.8639 94.7951C44.4298 94.7951 44.8254 95.177 44.8254 96.0158C44.8254 96.8477 44.4298 97.2364 43.8639 97.2364ZM47.2217 97.741C47.6786 97.741 47.9923 97.5296 48.1355 97.3046L47.9378 96.7181C47.8491 96.9227 47.6445 97.1682 47.3513 97.1682C47.0922 97.1682 46.8944 97.0659 46.8944 96.6431V94.8292H47.9787V94.3655H46.8944V93.5063L46.3011 93.9427V94.3655H45.7692V94.8292H46.3011V96.8204C46.3011 97.3864 46.683 97.741 47.2217 97.741ZM49.3029 97.7342C49.9848 97.7342 50.3394 97.2432 50.4485 96.8068V97.0386C50.4485 97.5024 50.694 97.666 51.035 97.666H51.4168V97.1273H51.2054C51.0827 97.1273 51.0213 97.0796 51.0213 96.9227V95.5657C51.0213 94.7815 50.5849 94.2973 49.7734 94.2973C49.0369 94.2973 48.5459 94.7133 48.3482 95.0543L48.7505 95.4702C48.921 95.1088 49.2347 94.836 49.7052 94.836C50.2235 94.836 50.4076 95.1224 50.4281 95.5111L49.2347 96.043C48.7642 96.2544 48.43 96.534 48.43 96.9773C48.43 97.4137 48.7437 97.7342 49.3029 97.7342ZM49.0301 96.8818C49.0301 96.6772 49.1733 96.5408 49.487 96.3908L50.4485 95.9408V96.3976C50.4485 96.875 50.053 97.2432 49.4938 97.2432C49.187 97.2432 49.0301 97.1068 49.0301 96.8818ZM52.6971 97.666V93.0971H52.1038V97.666H52.6971ZM56.9216 97.7342C57.8081 97.7342 58.4696 97.2569 58.4696 96.4658C58.4696 95.5657 57.7604 95.3134 57.1125 95.1565L56.6147 95.0338C56.0897 94.9042 55.7555 94.7337 55.7555 94.2769C55.7555 93.8541 56.1306 93.6018 56.6352 93.6018C57.2285 93.6018 57.6922 93.8541 57.9104 94.4746L58.4082 94.0791C58.1286 93.3972 57.474 93.0358 56.6488 93.0358C55.851 93.0358 55.1281 93.4858 55.1281 94.3178C55.1281 95.177 55.8169 95.4498 56.4238 95.5862L56.8534 95.6816C57.4603 95.8248 57.8627 95.9544 57.8627 96.4795C57.8627 96.9773 57.433 97.175 56.9216 97.175C56.3488 97.175 55.6396 96.9091 55.4282 96.1658L54.9781 96.5613C55.2782 97.4069 56.0624 97.7342 56.9216 97.7342ZM59.9446 97.7342C60.6265 97.7342 60.9811 97.2432 61.0902 96.8068V97.0386C61.0902 97.5024 61.3357 97.666 61.6767 97.666H62.0586V97.1273H61.8472C61.7244 97.1273 61.663 97.0796 61.663 96.9227V95.5657C61.663 94.7815 61.2266 94.2973 60.4151 94.2973C59.6787 94.2973 59.1877 94.7133 58.9899 95.0543L59.3922 95.4702C59.5627 95.1088 59.8764 94.836 60.3469 94.836C60.8652 94.836 61.0493 95.1224 61.0698 95.5111L59.8764 96.043C59.4059 96.2544 59.0717 96.534 59.0717 96.9773C59.0717 97.4137 59.3854 97.7342 59.9446 97.7342ZM59.6718 96.8818C59.6718 96.6772 59.815 96.5408 60.1287 96.3908L61.0902 95.9408V96.3976C61.0902 96.875 60.6947 97.2432 60.1355 97.2432C59.8287 97.2432 59.6718 97.1068 59.6718 96.8818ZM64.1334 97.666L65.3335 94.3655H64.6994L64.0515 96.3226L63.7719 97.2296L63.4855 96.3226L62.8309 94.3655H62.1899L63.3832 97.666H64.1334ZM66.4155 93.8336V93.0971H65.8222V93.8336H66.4155ZM66.4155 97.666V94.3655H65.8222V97.666H66.4155ZM67.9005 97.666V95.7975C67.9005 95.2452 68.1324 94.8019 68.7665 94.8019C69.3257 94.8019 69.4962 95.102 69.4962 95.5316V97.666H70.0827V95.3884C70.0827 94.686 69.6803 94.2973 69.0325 94.2973C68.3847 94.2973 68.0301 94.7337 67.9005 95.2452V94.3655H67.3072V97.666H67.9005ZM72.2121 96.6568C72.9895 96.6568 73.5146 96.1658 73.5146 95.477C73.5146 95.0679 73.3237 94.7201 73.01 94.5155L73.6169 93.8336L73.0031 93.6154L72.7986 94.4064C72.6281 94.3382 72.4303 94.2973 72.2121 94.2973C71.4347 94.2973 70.9096 94.7883 70.9096 95.477C70.9096 95.893 71.1006 96.2408 71.4279 96.4454C71.1074 96.7045 70.9096 96.9909 70.9096 97.25C70.9096 97.4683 71.0188 97.6251 71.2302 97.6933C70.9778 97.7956 70.6983 97.9797 70.6983 98.2866C70.6983 98.723 71.2302 99.0026 72.0757 99.0026C73.1873 99.0026 73.801 98.5593 73.801 97.932C73.801 97.4342 73.4259 97.1955 72.8258 97.1955H71.8302C71.4893 97.1955 71.3938 97.1068 71.3938 96.9295C71.3938 96.7863 71.4893 96.6295 71.5711 96.5204C71.7552 96.609 71.9734 96.6568 72.2121 96.6568ZM72.2121 96.1999C71.803 96.1999 71.4825 95.9271 71.4825 95.477C71.4825 95.027 71.803 94.7542 72.2121 94.7542C72.6281 94.7542 72.9418 95.027 72.9418 95.477C72.9418 95.9271 72.6281 96.1999 72.2121 96.1999ZM72.0757 98.5321C71.4825 98.5321 71.1756 98.3684 71.1756 98.1024C71.1756 97.9456 71.2915 97.8024 71.4006 97.7069H72.7508C73.085 97.7069 73.2486 97.8024 73.2486 98.0138C73.2486 98.3411 72.8258 98.5321 72.0757 98.5321ZM75.575 97.7342C76.216 97.7342 76.7751 97.441 76.7751 96.7863C76.7751 96.3294 76.5296 96.0226 75.7864 95.8453L75.3636 95.7362C74.9135 95.6271 74.6953 95.5248 74.6953 95.2316C74.6953 94.952 74.9408 94.8019 75.2817 94.8019C75.7523 94.8019 76.0659 95.0474 76.2296 95.4361L76.6797 95.102C76.4956 94.6656 76.0114 94.2973 75.3158 94.2973C74.5998 94.2973 74.1361 94.6656 74.1361 95.2656C74.1361 95.8726 74.6475 96.0976 75.1181 96.2067L75.5545 96.309C75.9432 96.3976 76.2432 96.4931 76.2432 96.7932C76.2432 97.0864 75.9841 97.2364 75.5954 97.2364C74.9408 97.2364 74.5793 96.8613 74.4634 96.4863L74.0338 96.8204C74.2588 97.4342 74.8862 97.7342 75.575 97.7342Z" fill="#6B7280"/>
<rect x="22.6797" y="158.564" width="216.331" height="31.8308" rx="15.9154" fill="#8807F7"/>
<path d="M110.138 176.684V171.308H112.081V170.365H107.139V171.308H109.072V176.684H110.138ZM113.898 176.778C115.237 176.778 116.143 175.816 116.143 174.392C116.143 172.958 115.237 171.996 113.898 171.996C112.578 171.996 111.672 172.958 111.672 174.392C111.672 175.816 112.578 176.778 113.898 176.778ZM113.907 175.901C113.228 175.901 112.757 175.448 112.757 174.392C112.757 173.326 113.228 172.873 113.907 172.873C114.596 172.873 115.067 173.326 115.067 174.392C115.067 175.448 114.596 175.901 113.907 175.901ZM118.123 178.438V175.458C118.274 176.165 118.661 176.778 119.576 176.778C120.708 176.778 121.424 175.863 121.424 174.382C121.424 172.902 120.708 171.987 119.595 171.987C118.68 171.987 118.274 172.6 118.123 173.317V172.091H117.067V178.438H118.123ZM118.123 174.665V174.099C118.123 173.345 118.435 172.845 119.18 172.845C119.84 172.845 120.34 173.345 120.34 174.382C120.34 175.42 119.84 175.92 119.18 175.92C118.435 175.92 118.123 175.42 118.123 174.665ZM126.76 176.778C128.486 176.778 129.287 175.901 129.287 173.986V170.365H128.231V173.996C128.231 175.25 127.825 175.759 126.769 175.759C125.732 175.759 125.307 175.25 125.307 173.996V170.365H124.251V173.986C124.251 175.901 125.071 176.778 126.76 176.778ZM131.451 178.438V175.458C131.602 176.165 131.988 176.778 132.903 176.778C134.035 176.778 134.752 175.863 134.752 174.382C134.752 172.902 134.035 171.987 132.922 171.987C132.007 171.987 131.602 172.6 131.451 173.317V172.091H130.394V178.438H131.451ZM131.451 174.665V174.099C131.451 173.345 131.762 172.845 132.507 172.845C133.167 172.845 133.667 173.345 133.667 174.382C133.667 175.42 133.167 175.92 132.507 175.92C131.762 175.92 131.451 175.42 131.451 174.665Z" fill="white"/>
<path d="M145.648 170.41L141.877 171.662C139.343 172.51 139.343 173.892 141.877 174.735L142.996 175.107L143.368 176.226C144.211 178.76 145.598 178.76 146.441 176.226L147.698 172.46C148.257 170.769 147.339 169.846 145.648 170.41ZM145.781 172.656L144.195 174.251C144.132 174.314 144.053 174.343 143.973 174.343C143.894 174.343 143.815 174.314 143.752 174.251C143.631 174.13 143.631 173.93 143.752 173.808L145.339 172.213C145.46 172.092 145.66 172.092 145.781 172.213C145.902 172.335 145.902 172.535 145.781 172.656Z" fill="white"/>
<path d="M25.0976 221.091C26.3355 221.091 27.169 220.431 27.5238 219.292L26.8802 218.872C26.6986 219.796 26.1539 220.415 25.1059 220.415C23.8433 220.415 23.2656 219.515 23.2656 218.253C23.2656 216.99 23.8433 216.09 25.1059 216.09C26.1539 216.09 26.6986 216.709 26.8802 217.634L27.5238 217.213C27.169 216.074 26.3355 215.414 25.0976 215.414C23.4224 215.414 22.5064 216.66 22.5064 218.253C22.5064 219.845 23.4224 221.091 25.0976 221.091ZM29.1266 221.025V218.764C29.1266 218.079 29.5888 217.477 30.1004 217.477C30.3892 217.477 30.513 217.675 30.513 217.906C30.513 218.129 30.4057 218.376 30.2737 218.492H31.0577C31.1237 218.393 31.2145 218.145 31.2145 217.807C31.2145 217.246 30.8019 216.94 30.3727 216.94C29.696 216.94 29.2834 217.477 29.1266 218.096V217.031H28.4087V221.025H29.1266ZM33.4854 221.108C34.3519 221.108 34.9048 220.704 35.2019 220.225L34.7645 219.73C34.6077 220.076 34.2859 220.514 33.4854 220.514C32.7757 220.514 32.3053 220.035 32.264 219.193H35.2266C35.2431 219.119 35.2596 218.995 35.2596 218.872C35.2596 217.7 34.5747 216.949 33.4441 216.949C32.3465 216.949 31.5708 217.766 31.5708 219.028C31.5708 220.299 32.3548 221.108 33.4854 221.108ZM33.4441 217.551C34.1126 217.551 34.5417 217.939 34.616 218.673H32.2805C32.3713 217.931 32.8004 217.551 33.4441 217.551ZM37.0189 221.108C37.8441 221.108 38.2733 220.514 38.4053 219.986V220.266C38.4053 220.827 38.7024 221.025 39.115 221.025H39.5771V220.373H39.3213C39.1728 220.373 39.0985 220.316 39.0985 220.126V218.484C39.0985 217.535 38.5703 216.949 37.5883 216.949C36.697 216.949 36.1029 217.452 35.8636 217.865L36.3504 218.368C36.5568 217.931 36.9364 217.601 37.5058 217.601C38.133 217.601 38.3558 217.947 38.3805 218.418L36.9364 219.061C36.367 219.317 35.9626 219.655 35.9626 220.192C35.9626 220.72 36.3422 221.108 37.0189 221.108ZM36.6888 220.076C36.6888 219.829 36.8621 219.664 37.2417 219.482L38.4053 218.938V219.49C38.4053 220.068 37.9267 220.514 37.25 220.514C36.8786 220.514 36.6888 220.349 36.6888 220.076ZM41.6326 221.116C42.1855 221.116 42.5651 220.86 42.7384 220.588L42.4991 219.878C42.3918 220.126 42.1442 220.423 41.7894 220.423C41.4758 220.423 41.2365 220.299 41.2365 219.788V217.592H42.5486V217.031H41.2365V215.991L40.5185 216.52V217.031H39.8748V217.592H40.5185V220.002C40.5185 220.687 40.9806 221.116 41.6326 221.116ZM44.8647 221.108C45.7312 221.108 46.2841 220.704 46.5812 220.225L46.1438 219.73C45.987 220.076 45.6652 220.514 44.8647 220.514C44.155 220.514 43.6846 220.035 43.6433 219.193H46.6059C46.6224 219.119 46.639 218.995 46.639 218.872C46.639 217.7 45.954 216.949 44.8234 216.949C43.7258 216.949 42.9501 217.766 42.9501 219.028C42.9501 220.299 43.7341 221.108 44.8647 221.108ZM44.8234 217.551C45.4919 217.551 45.921 217.939 45.9953 218.673H43.6598C43.7506 217.931 44.1797 217.551 44.8234 217.551ZM50.2034 221.108C51.0287 221.108 51.4578 220.514 51.5898 219.986V220.266C51.5898 220.827 51.8869 221.025 52.2995 221.025H52.7617V220.373H52.5058C52.3573 220.373 52.283 220.316 52.283 220.126V218.484C52.283 217.535 51.7549 216.949 50.7728 216.949C49.8816 216.949 49.2874 217.452 49.0481 217.865L49.535 218.368C49.7413 217.931 50.1209 217.601 50.6903 217.601C51.3175 217.601 51.5403 217.947 51.5651 218.418L50.1209 219.061C49.5515 219.317 49.1471 219.655 49.1471 220.192C49.1471 220.72 49.5267 221.108 50.2034 221.108ZM49.8733 220.076C49.8733 219.829 50.0466 219.664 50.4262 219.482L51.5898 218.938V219.49C51.5898 220.068 51.1112 220.514 50.4345 220.514C50.0631 220.514 49.8733 220.349 49.8733 220.076ZM56.1243 221.025V218.764C56.1243 218.096 56.4049 217.559 57.1723 217.559C57.849 217.559 58.0553 217.922 58.0553 218.442V221.025H58.765V218.269C58.765 217.419 58.2781 216.949 57.4942 216.949C56.7102 216.949 56.2811 217.477 56.1243 218.096V217.031H55.4063V221.025H56.1243ZM61.5146 221.108C62.3811 221.108 62.934 220.704 63.2311 220.225L62.7937 219.73C62.6369 220.076 62.3151 220.514 61.5146 220.514C60.8049 220.514 60.3345 220.035 60.2932 219.193H63.2558C63.2723 219.119 63.2889 218.995 63.2889 218.872C63.2889 217.7 62.6039 216.949 61.4733 216.949C60.3757 216.949 59.6 217.766 59.6 219.028C59.6 220.299 60.384 221.108 61.5146 221.108ZM61.4733 217.551C62.1418 217.551 62.5709 217.939 62.6452 218.673H60.3097C60.4005 217.931 60.8296 217.551 61.4733 217.551ZM65.5318 221.025L66.2167 218.69L66.489 217.625L66.7449 218.69L67.4298 221.025H68.3706L69.4022 217.031H68.6017L68.09 219.49L67.9002 220.505L67.6444 219.49L66.9264 217.031H66.0434L65.3172 219.49L65.0696 220.505L64.8798 219.49L64.3599 217.031H63.5594L64.5992 221.025H65.5318ZM73.4062 221.108C74.1819 221.108 74.8586 220.753 74.8586 219.961C74.8586 219.408 74.5615 219.037 73.662 218.822L73.1504 218.69C72.6057 218.558 72.3416 218.434 72.3416 218.079C72.3416 217.741 72.6387 217.559 73.0513 217.559C73.6207 217.559 74.0004 217.856 74.1984 218.327L74.7431 217.922C74.5203 217.394 73.9343 216.949 73.0926 216.949C72.2261 216.949 71.6649 217.394 71.6649 218.121C71.6649 218.855 72.2839 219.127 72.8533 219.259L73.3814 219.383C73.8518 219.49 74.2149 219.606 74.2149 219.969C74.2149 220.324 73.9013 220.505 73.4309 220.505C72.6387 220.505 72.2013 220.052 72.061 219.598L71.5411 220.002C71.8135 220.745 72.5727 221.108 73.4062 221.108ZM76.5402 221.108C77.3655 221.108 77.7946 220.514 77.9266 219.986V220.266C77.9266 220.827 78.2237 221.025 78.6363 221.025H79.0985V220.373H78.8427C78.6941 220.373 78.6198 220.316 78.6198 220.126V218.484C78.6198 217.535 78.0917 216.949 77.1097 216.949C76.2184 216.949 75.6242 217.452 75.3849 217.865L75.8718 218.368C76.0781 217.931 76.4577 217.601 77.0271 217.601C77.6543 217.601 77.8771 217.947 77.9019 218.418L76.4577 219.061C75.8883 219.317 75.4839 219.655 75.4839 220.192C75.4839 220.72 75.8635 221.108 76.5402 221.108ZM76.2101 220.076C76.2101 219.829 76.3834 219.664 76.7631 219.482L77.9266 218.938V219.49C77.9266 220.068 77.448 220.514 76.7713 220.514C76.3999 220.514 76.2101 220.349 76.2101 220.076ZM81.6093 221.025L83.0618 217.031H82.2943L81.5103 219.4L81.172 220.497L80.8254 219.4L80.0331 217.031H79.2574L80.7016 221.025H81.6093ZM84.3711 216.388V215.496H83.6531V216.388H84.3711ZM84.3711 221.025V217.031H83.6531V221.025H84.3711ZM86.1682 221.025V218.764C86.1682 218.096 86.4488 217.559 87.2163 217.559C87.893 217.559 88.0993 217.922 88.0993 218.442V221.025H88.809V218.269C88.809 217.419 88.3221 216.949 87.5381 216.949C86.7542 216.949 86.325 217.477 86.1682 218.096V217.031H85.4503V221.025H86.1682ZM91.386 219.804C92.3268 219.804 92.9622 219.21 92.9622 218.376C92.9622 217.881 92.7312 217.46 92.3515 217.213L93.086 216.388L92.3433 216.123L92.0957 217.081C91.8894 216.998 91.6501 216.949 91.386 216.949C90.4452 216.949 89.8098 217.543 89.8098 218.376C89.8098 218.88 90.0409 219.301 90.437 219.548C90.0491 219.862 89.8098 220.208 89.8098 220.522C89.8098 220.786 89.9418 220.976 90.1977 221.058C89.8923 221.182 89.554 221.405 89.554 221.776C89.554 222.305 90.1977 222.643 91.221 222.643C92.5661 222.643 93.3088 222.106 93.3088 221.347C93.3088 220.745 92.8549 220.456 92.1287 220.456H90.9239C90.5113 220.456 90.3957 220.349 90.3957 220.134C90.3957 219.961 90.5113 219.771 90.6103 219.639C90.8331 219.746 91.0972 219.804 91.386 219.804ZM91.386 219.251C90.8909 219.251 90.503 218.921 90.503 218.376C90.503 217.832 90.8909 217.502 91.386 217.502C91.8894 217.502 92.269 217.832 92.269 218.376C92.269 218.921 91.8894 219.251 91.386 219.251ZM91.221 222.073C90.503 222.073 90.1316 221.875 90.1316 221.554C90.1316 221.364 90.2719 221.19 90.404 221.075H92.038C92.4423 221.075 92.6404 221.19 92.6404 221.446C92.6404 221.842 92.1287 222.073 91.221 222.073ZM95.4556 221.108C96.2313 221.108 96.908 220.753 96.908 219.961C96.908 219.408 96.6109 219.037 95.7114 218.822L95.1998 218.69C94.6551 218.558 94.391 218.434 94.391 218.079C94.391 217.741 94.6881 217.559 95.1008 217.559C95.6702 217.559 96.0498 217.856 96.2478 218.327L96.7925 217.922C96.5697 217.394 95.9838 216.949 95.142 216.949C94.2755 216.949 93.7144 217.394 93.7144 218.121C93.7144 218.855 94.3333 219.127 94.9027 219.259L95.4309 219.383C95.9012 219.49 96.2643 219.606 96.2643 219.969C96.2643 220.324 95.9508 220.505 95.4804 220.505C94.6881 220.505 94.2508 220.052 94.1105 219.598L93.5906 220.002C93.8629 220.745 94.6221 221.108 95.4556 221.108ZM100.271 222.56V219.994C100.412 220.596 100.791 221.108 101.559 221.108C102.566 221.108 103.193 220.283 103.193 219.02C103.193 217.757 102.566 216.94 101.559 216.94C100.791 216.94 100.412 217.452 100.271 218.055V217.031H99.5535V222.56H100.271ZM100.271 219.309V218.739C100.271 218.079 100.552 217.543 101.311 217.543C101.947 217.543 102.467 218.005 102.467 219.02C102.467 220.043 101.947 220.505 101.311 220.505C100.552 220.505 100.271 219.969 100.271 219.309ZM104.776 221.025V215.496H104.058V221.025H104.776ZM106.681 221.108C107.506 221.108 107.935 220.514 108.067 219.986V220.266C108.067 220.827 108.364 221.025 108.777 221.025H109.239V220.373H108.983C108.835 220.373 108.761 220.316 108.761 220.126V218.484C108.761 217.535 108.232 216.949 107.25 216.949C106.359 216.949 105.765 217.452 105.526 217.865L106.012 218.368C106.219 217.931 106.598 217.601 107.168 217.601C107.795 217.601 108.018 217.947 108.043 218.418L106.598 219.061C106.029 219.317 105.625 219.655 105.625 220.192C105.625 220.72 106.004 221.108 106.681 221.108ZM106.351 220.076C106.351 219.829 106.524 219.664 106.904 219.482L108.067 218.938V219.49C108.067 220.068 107.589 220.514 106.912 220.514C106.541 220.514 106.351 220.349 106.351 220.076ZM110.788 221.025V218.764C110.788 218.096 111.069 217.559 111.837 217.559C112.513 217.559 112.72 217.922 112.72 218.442V221.025H113.429V218.269C113.429 217.419 112.942 216.949 112.158 216.949C111.374 216.949 110.945 217.477 110.788 218.096V217.031H110.071V221.025H110.788Z" fill="#3D0072"/>
<g clip-path="url(#clip1_6274_87259)">
<g filter="url(#filter0_d_6274_87259)">
<rect x="22.6797" y="236.963" width="216.921" height="90.7766" rx="4.21366" fill="#FFFAF0"/>
</g>
<rect x="39.2422" y="253.061" width="31.1814" height="28.426" rx="2.75542" fill="#FBBF24"/>
<path d="M50.9758 272.922C50.6516 272.922 50.3742 272.806 50.1435 272.576C49.9124 272.345 49.7969 272.067 49.7969 271.743V265.848C49.7969 265.524 49.9124 265.246 50.1435 265.015C50.3742 264.785 50.6516 264.669 50.9758 264.669H51.5653V263.49C51.5653 262.675 51.8527 261.98 52.4276 261.405C53.0022 260.83 53.6971 260.543 54.5125 260.543C55.328 260.543 56.0231 260.83 56.598 261.405C57.1726 261.98 57.4598 262.675 57.4598 263.49V264.669H58.0493C58.3735 264.669 58.6511 264.785 58.8822 265.015C59.1129 265.246 59.2282 265.524 59.2282 265.848V271.743C59.2282 272.067 59.1129 272.345 58.8822 272.576C58.6511 272.806 58.3735 272.922 58.0493 272.922H50.9758ZM54.5125 269.974C54.8367 269.974 55.1144 269.859 55.3454 269.628C55.5761 269.397 55.6915 269.12 55.6915 268.795C55.6915 268.471 55.5761 268.194 55.3454 267.962C55.1144 267.732 54.8367 267.616 54.5125 267.616C54.1883 267.616 53.9109 267.732 53.6802 267.962C53.4492 268.194 53.3336 268.471 53.3336 268.795C53.3336 269.12 53.4492 269.397 53.6802 269.628C53.9109 269.859 54.1883 269.974 54.5125 269.974ZM52.7442 264.669H56.2809V263.49C56.2809 262.999 56.109 262.582 55.7651 262.238C55.4213 261.894 55.0038 261.722 54.5125 261.722C54.0213 261.722 53.6038 261.894 53.2599 262.238C52.9161 262.582 52.7442 262.999 52.7442 263.49V264.669Z" fill="white"/>
<path d="M87.1085 273.617V273.275H84.845V271.778H86.7254V271.43H84.845V270.01H87.1085V269.668H84.4559V273.617H87.1085ZM88.7596 273.617L89.8266 270.788H89.4139L88.8009 272.509L88.5297 273.322L88.2468 272.509L87.6338 270.788H87.2094L88.2763 273.617H88.7596ZM91.3498 273.676C91.951 273.676 92.3283 273.387 92.5287 273.04L92.2929 272.762C92.1691 273.04 91.9215 273.352 91.3498 273.352C90.7898 273.352 90.4066 272.998 90.383 272.291H92.5405C92.5464 272.244 92.5581 272.173 92.5581 272.102C92.5581 271.248 92.0748 270.729 91.3026 270.729C90.5363 270.729 90.0117 271.283 90.0117 272.202C90.0117 273.14 90.5599 273.676 91.3498 273.676ZM91.3026 271.047C91.8213 271.047 92.1691 271.371 92.2045 272.008H90.3889C90.442 271.371 90.7839 271.047 91.3026 271.047ZM93.6279 273.617V271.978C93.6279 271.489 93.9639 271.018 94.3883 271.018C94.6477 271.018 94.7538 271.183 94.7538 271.365C94.7538 271.536 94.683 271.719 94.6064 271.808H95.0249C95.078 271.713 95.131 271.536 95.131 271.324C95.131 270.935 94.8599 270.723 94.5298 270.723C94.0464 270.723 93.734 271.112 93.6279 271.56V270.788H93.2389V273.617H93.6279ZM95.9288 274.613C96.312 274.613 96.589 274.407 96.7541 273.953L97.9507 270.788H97.5439L96.8366 272.727L96.6303 273.311L96.4299 272.727L95.7166 270.788H95.304L96.3415 273.523L96.5595 273.517L96.4534 273.8C96.3297 274.148 96.1646 274.271 95.9347 274.271C95.6754 274.271 95.5162 274.112 95.3983 273.882L95.1802 274.165C95.2863 274.378 95.5457 274.613 95.9288 274.613ZM99.442 273.676C100.22 273.676 100.768 273.098 100.768 272.202C100.768 271.307 100.22 270.729 99.442 270.729C98.664 270.729 98.1217 271.307 98.1217 272.202C98.1217 273.098 98.664 273.676 99.442 273.676ZM99.442 273.346C98.888 273.346 98.5107 272.951 98.5107 272.202C98.5107 271.448 98.888 271.047 99.442 271.047C100.002 271.047 100.379 271.448 100.379 272.202C100.379 272.951 100.002 273.346 99.442 273.346ZM101.837 273.617V271.978C101.837 271.489 102.078 271.053 102.674 271.053C103.163 271.053 103.375 271.336 103.375 271.796V273.617H103.764V271.707C103.764 271.059 103.387 270.729 102.827 270.729C102.261 270.729 101.937 271.118 101.837 271.578V270.788H101.448V273.617H101.837ZM105.741 273.676C106.342 273.676 106.719 273.387 106.92 273.04L106.684 272.762C106.56 273.04 106.313 273.352 105.741 273.352C105.181 273.352 104.798 272.998 104.774 272.291H106.932C106.937 272.244 106.949 272.173 106.949 272.102C106.949 271.248 106.466 270.729 105.694 270.729C104.927 270.729 104.403 271.283 104.403 272.202C104.403 273.14 104.951 273.676 105.741 273.676ZM105.694 271.047C106.212 271.047 106.56 271.371 106.596 272.008H104.78C104.833 271.371 105.175 271.047 105.694 271.047ZM109.326 273.617V271.978C109.326 271.489 109.567 271.053 110.163 271.053C110.652 271.053 110.864 271.336 110.864 271.796V273.617H111.253V271.707C111.253 271.059 110.876 270.729 110.316 270.729C109.75 270.729 109.426 271.118 109.326 271.578V270.788H108.937V273.617H109.326ZM113.23 273.676C113.831 273.676 114.208 273.387 114.409 273.04L114.173 272.762C114.049 273.04 113.802 273.352 113.23 273.352C112.67 273.352 112.287 272.998 112.263 272.291H114.421C114.427 272.244 114.438 272.173 114.438 272.102C114.438 271.248 113.955 270.729 113.183 270.729C112.416 270.729 111.892 271.283 111.892 272.202C111.892 273.14 112.44 273.676 113.23 273.676ZM113.183 271.047C113.702 271.047 114.049 271.371 114.085 272.008H112.269C112.322 271.371 112.664 271.047 113.183 271.047ZM116.361 273.676C116.963 273.676 117.34 273.387 117.54 273.04L117.305 272.762C117.181 273.04 116.933 273.352 116.361 273.352C115.801 273.352 115.418 272.998 115.395 272.291H117.552C117.558 272.244 117.57 272.173 117.57 272.102C117.57 271.248 117.086 270.729 116.314 270.729C115.548 270.729 115.023 271.283 115.023 272.202C115.023 273.14 115.572 273.676 116.361 273.676ZM116.314 271.047C116.833 271.047 117.181 271.371 117.216 272.008H115.401C115.454 271.371 115.796 271.047 116.314 271.047ZM119.322 273.682C119.882 273.682 120.183 273.293 120.271 272.845V273.617H120.654V269.668H120.271V271.566C120.183 271.118 119.882 270.729 119.322 270.729C118.585 270.729 118.143 271.312 118.143 272.202C118.143 273.098 118.585 273.682 119.322 273.682ZM118.538 272.202C118.538 271.413 118.927 271.053 119.44 271.053C120.012 271.053 120.271 271.466 120.271 271.937V272.468C120.271 272.939 120.012 273.358 119.44 273.358C118.927 273.358 118.538 272.998 118.538 272.202ZM122.565 273.676C123.089 273.676 123.549 273.434 123.549 272.892C123.549 272.491 123.313 272.25 122.724 272.102L122.346 272.008C121.934 271.908 121.722 271.802 121.722 271.507C121.722 271.212 121.963 271.053 122.305 271.053C122.747 271.053 123.042 271.265 123.172 271.648L123.466 271.43C123.325 271.029 122.93 270.729 122.329 270.729C121.745 270.729 121.356 271.035 121.356 271.525C121.356 272.032 121.775 272.22 122.181 272.32L122.565 272.409C122.948 272.497 123.201 272.603 123.201 272.898C123.201 273.193 122.954 273.346 122.576 273.346C122.005 273.346 121.651 273.028 121.562 272.645L121.274 272.863C121.445 273.417 121.987 273.676 122.565 273.676ZM126.052 273.676C126.618 273.676 126.983 273.24 127.078 272.833V273.134C127.078 273.493 127.266 273.617 127.549 273.617H127.814V273.269H127.649C127.514 273.269 127.449 273.216 127.449 273.069V271.743C127.449 271.112 127.107 270.729 126.447 270.729C125.846 270.729 125.433 271.065 125.256 271.36L125.527 271.631C125.675 271.318 125.981 271.077 126.406 271.077C126.865 271.077 127.066 271.324 127.066 271.749V271.772L125.993 272.261C125.598 272.438 125.321 272.674 125.321 273.045C125.321 273.423 125.586 273.676 126.052 273.676ZM125.71 272.992C125.71 272.78 125.852 272.639 126.158 272.497L127.078 272.061V272.562C127.078 272.945 126.689 273.352 126.164 273.352C125.887 273.352 125.71 273.228 125.71 272.992ZM128.828 273.617V271.978C128.828 271.489 129.07 271.053 129.666 271.053C130.155 271.053 130.367 271.336 130.367 271.796V273.617H130.756V271.707C130.756 271.059 130.379 270.729 129.819 270.729C129.253 270.729 128.929 271.118 128.828 271.578V270.788H128.439V273.617H128.828ZM134.039 273.676C134.641 273.676 135.018 273.387 135.218 273.04L134.983 272.762C134.859 273.04 134.611 273.352 134.039 273.352C133.479 273.352 133.096 272.998 133.073 272.291H135.23C135.236 272.244 135.248 272.173 135.248 272.102C135.248 271.248 134.764 270.729 133.992 270.729C133.226 270.729 132.701 271.283 132.701 272.202C132.701 273.14 133.25 273.676 134.039 273.676ZM133.992 271.047C134.511 271.047 134.859 271.371 134.894 272.008H133.079C133.132 271.371 133.474 271.047 133.992 271.047ZM136.318 273.617V271.978C136.318 271.489 136.559 271.053 137.06 271.053C137.502 271.053 137.721 271.295 137.721 271.79V273.617H138.104V271.978C138.104 271.489 138.345 271.053 138.852 271.053C139.288 271.053 139.507 271.295 139.507 271.79V273.617H139.896V271.701C139.896 271.053 139.589 270.729 139.047 270.729C138.516 270.729 138.192 271.124 138.098 271.589C138.068 271.018 137.768 270.729 137.255 270.729C136.73 270.729 136.418 271.112 136.318 271.578V270.788H135.929V273.617H136.318ZM141.868 273.676C142.469 273.676 142.847 273.387 143.047 273.04L142.811 272.762C142.688 273.04 142.44 273.352 141.868 273.352C141.308 273.352 140.925 272.998 140.901 272.291H143.059C143.065 272.244 143.077 272.173 143.077 272.102C143.077 271.248 142.593 270.729 141.821 270.729C141.055 270.729 140.53 271.283 140.53 272.202C140.53 273.14 141.078 273.676 141.868 273.676ZM141.821 271.047C142.34 271.047 142.688 271.371 142.723 272.008H140.907C140.96 271.371 141.302 271.047 141.821 271.047ZM144.146 273.617V271.978C144.146 271.489 144.482 271.018 144.907 271.018C145.166 271.018 145.272 271.183 145.272 271.365C145.272 271.536 145.201 271.719 145.125 271.808H145.543C145.596 271.713 145.649 271.536 145.649 271.324C145.649 270.935 145.378 270.723 145.048 270.723C144.565 270.723 144.252 271.112 144.146 271.56V270.788H143.757V273.617H144.146ZM147.127 272.745C147.788 272.745 148.224 272.326 148.224 271.737C148.224 271.389 148.071 271.1 147.805 270.917L148.312 270.31L147.906 270.157L147.676 270.841C147.517 270.77 147.334 270.729 147.127 270.729C146.473 270.729 146.031 271.147 146.031 271.737C146.031 272.096 146.196 272.391 146.467 272.568C146.232 272.751 146.055 272.986 146.055 273.216C146.055 273.387 146.149 273.523 146.344 273.576C146.12 273.664 145.837 273.847 145.837 274.142C145.837 274.531 146.285 274.773 147.004 274.773C147.911 274.773 148.454 274.395 148.454 273.871C148.454 273.458 148.147 273.258 147.652 273.258H146.774C146.467 273.258 146.373 273.163 146.373 273.004C146.373 272.869 146.461 272.721 146.55 272.615C146.715 272.698 146.909 272.745 147.127 272.745ZM147.127 272.444C146.709 272.444 146.408 272.167 146.408 271.737C146.408 271.307 146.709 271.029 147.127 271.029C147.552 271.029 147.853 271.307 147.853 271.737C147.853 272.167 147.552 272.444 147.127 272.444ZM147.004 274.466C146.467 274.466 146.155 274.307 146.155 274.03C146.155 273.847 146.308 273.682 146.45 273.594H147.599C147.935 273.594 148.094 273.694 148.094 273.918C148.094 274.242 147.687 274.466 147.004 274.466ZM150.14 273.676C150.741 273.676 151.119 273.387 151.319 273.04L151.083 272.762C150.96 273.04 150.712 273.352 150.14 273.352C149.58 273.352 149.197 272.998 149.173 272.291H151.331C151.337 272.244 151.349 272.173 151.349 272.102C151.349 271.248 150.865 270.729 150.093 270.729C149.327 270.729 148.802 271.283 148.802 272.202C148.802 273.14 149.35 273.676 150.14 273.676ZM150.093 271.047C150.612 271.047 150.96 271.371 150.995 272.008H149.179C149.232 271.371 149.574 271.047 150.093 271.047ZM152.418 273.617V271.978C152.418 271.489 152.66 271.053 153.255 271.053C153.745 271.053 153.957 271.336 153.957 271.796V273.617H154.346V271.707C154.346 271.059 153.969 270.729 153.409 270.729C152.843 270.729 152.519 271.118 152.418 271.578V270.788H152.029V273.617H152.418ZM156.293 273.676C157 273.676 157.443 273.264 157.555 272.692L157.183 272.533C157.124 273.01 156.841 273.352 156.299 273.352C155.739 273.352 155.368 272.951 155.368 272.202C155.368 271.448 155.739 271.047 156.299 271.047C156.841 271.047 157.124 271.395 157.183 271.872L157.555 271.713C157.443 271.141 157 270.729 156.299 270.729C155.497 270.729 154.973 271.283 154.973 272.202C154.973 273.122 155.497 273.676 156.293 273.676ZM158.386 274.613C158.769 274.613 159.046 274.407 159.211 273.953L160.408 270.788H160.001L159.294 272.727L159.088 273.311L158.887 272.727L158.174 270.788H157.761L158.799 273.523L159.017 273.517L158.911 273.8C158.787 274.148 158.622 274.271 158.392 274.271C158.133 274.271 157.973 274.112 157.856 273.882L157.637 274.165C157.744 274.378 158.003 274.613 158.386 274.613ZM162.727 273.617V271.088H163.67V270.788H162.727V270.428C162.727 270.086 162.898 269.933 163.175 269.933C163.434 269.933 163.646 270.086 163.764 270.299L163.971 270.016C163.853 269.821 163.582 269.609 163.181 269.609C162.697 269.609 162.344 269.886 162.344 270.458V270.788H161.878V271.088H162.344V273.617H162.727ZM165.083 273.676C165.667 273.676 165.985 273.281 166.085 272.81V273.617H166.468V270.788H166.085V272.421C166.085 272.916 165.849 273.346 165.236 273.346C164.753 273.346 164.541 273.063 164.541 272.609V270.788H164.158V272.692C164.158 273.346 164.529 273.676 165.083 273.676ZM167.684 273.617V271.978C167.684 271.489 167.926 271.053 168.521 271.053C169.011 271.053 169.223 271.336 169.223 271.796V273.617H169.612V271.707C169.612 271.059 169.235 270.729 168.675 270.729C168.109 270.729 167.785 271.118 167.684 271.578V270.788H167.295V273.617H167.684ZM171.418 273.682C171.978 273.682 172.278 273.293 172.367 272.845V273.617H172.75V269.668H172.367V271.566C172.278 271.118 171.978 270.729 171.418 270.729C170.681 270.729 170.239 271.312 170.239 272.202C170.239 273.098 170.681 273.682 171.418 273.682ZM170.634 272.202C170.634 271.413 171.023 271.053 171.536 271.053C172.107 271.053 172.367 271.466 172.367 271.937V272.468C172.367 272.939 172.107 273.358 171.536 273.358C171.023 273.358 170.634 272.998 170.634 272.202ZM173.929 273.617V272.922H173.464V273.617H173.929ZM177.215 273.617L178.046 270.835L178.264 269.998L178.482 270.835L179.313 273.617H179.767L180.911 269.668H180.475L179.72 272.421L179.549 273.252L179.343 272.432L178.518 269.668H178.028L177.191 272.432L176.979 273.252L176.808 272.421L176.071 269.668H175.623L176.761 273.617H177.215ZM182.33 273.676C182.931 273.676 183.309 273.387 183.509 273.04L183.273 272.762C183.149 273.04 182.902 273.352 182.33 273.352C181.77 273.352 181.387 272.998 181.363 272.291H183.521C183.527 272.244 183.539 272.173 183.539 272.102C183.539 271.248 183.055 270.729 182.283 270.729C181.517 270.729 180.992 271.283 180.992 272.202C180.992 273.14 181.54 273.676 182.33 273.676ZM182.283 271.047C182.802 271.047 183.149 271.371 183.185 272.008H181.369C181.422 271.371 181.764 271.047 182.283 271.047ZM185.915 273.617V271.978C185.915 271.489 186.157 271.053 186.658 271.053C187.1 271.053 187.318 271.295 187.318 271.79V273.617H187.701V271.978C187.701 271.489 187.943 271.053 188.45 271.053C188.886 271.053 189.104 271.295 189.104 271.79V273.617H189.493V271.701C189.493 271.053 189.187 270.729 188.644 270.729C188.114 270.729 187.789 271.124 187.695 271.589C187.666 271.018 187.365 270.729 186.852 270.729C186.328 270.729 186.015 271.112 185.915 271.578V270.788H185.526V273.617H185.915ZM190.864 273.676C191.43 273.676 191.795 273.24 191.889 272.833V273.134C191.889 273.493 192.078 273.617 192.361 273.617H192.626V273.269H192.461C192.326 273.269 192.261 273.216 192.261 273.069V271.743C192.261 271.112 191.919 270.729 191.259 270.729C190.657 270.729 190.245 271.065 190.068 271.36L190.339 271.631C190.486 271.318 190.793 271.077 191.217 271.077C191.677 271.077 191.878 271.324 191.878 271.749V271.772L190.805 272.261C190.41 272.438 190.133 272.674 190.133 273.045C190.133 273.423 190.398 273.676 190.864 273.676ZM190.522 272.992C190.522 272.78 190.663 272.639 190.97 272.497L191.889 272.061V272.562C191.889 272.945 191.5 273.352 190.976 273.352C190.699 273.352 190.522 273.228 190.522 272.992ZM193.64 273.617V272.58L194.171 272.079L195.131 273.617H195.603L194.436 271.849L195.579 270.788H195.09L193.994 271.802L193.622 272.167L193.64 271.813V269.668H193.251V273.617H193.64ZM197.17 273.676C197.771 273.676 198.149 273.387 198.349 273.04L198.113 272.762C197.99 273.04 197.742 273.352 197.17 273.352C196.61 273.352 196.227 272.998 196.203 272.291H198.361C198.367 272.244 198.379 272.173 198.379 272.102C198.379 271.248 197.895 270.729 197.123 270.729C196.357 270.729 195.832 271.283 195.832 272.202C195.832 273.14 196.38 273.676 197.17 273.676ZM197.123 271.047C197.642 271.047 197.99 271.371 198.025 272.008H196.209C196.262 271.371 196.604 271.047 197.123 271.047ZM200.755 270.281V269.668H200.366V270.281H200.755ZM200.755 273.617V270.788H200.366V273.617H200.755ZM202.506 273.682C202.872 273.682 203.149 273.511 203.272 273.305L203.137 272.928C203.043 273.128 202.836 273.311 202.583 273.311C202.335 273.311 202.123 273.199 202.123 272.792V271.088H203.072V270.788H202.123V270.092L201.74 270.381V270.788H201.28V271.088H201.74V272.898C201.74 273.411 202.076 273.682 202.506 273.682ZM206.402 273.617C207.646 273.617 208.259 272.892 208.259 271.643C208.259 270.393 207.646 269.668 206.402 269.668H205.099V273.617H206.402ZM206.349 270.01C207.327 270.01 207.864 270.499 207.864 271.643C207.864 272.786 207.327 273.275 206.349 273.275H205.488V270.01H206.349ZM209.385 273.617V269.668H208.996V273.617H209.385ZM212.015 273.617C212.87 273.617 213.348 273.228 213.348 272.562C213.348 272.067 213.059 271.648 212.222 271.56C212.929 271.483 213.171 271.083 213.171 270.67C213.171 270.069 212.776 269.668 211.974 269.668H210.424V273.617H212.015ZM211.85 270.01C212.387 270.01 212.776 270.175 212.776 270.717C212.776 271.253 212.387 271.419 211.833 271.419H210.813V270.01H211.85ZM211.892 271.76C212.499 271.76 212.953 271.984 212.953 272.515C212.953 273.051 212.617 273.275 211.951 273.275H210.813V271.76H211.892ZM214.444 270.281V269.668H214.055V270.281H214.444ZM214.444 273.617V270.788H214.055V273.617H214.444ZM215.658 273.617V272.874C215.753 273.311 216.059 273.682 216.602 273.682C217.344 273.682 217.786 273.098 217.786 272.202C217.786 271.312 217.344 270.729 216.602 270.729C216.059 270.729 215.753 271.1 215.658 271.536V269.668H215.269V273.617H215.658ZM215.658 272.468V271.937C215.658 271.466 215.912 271.053 216.484 271.053C217.002 271.053 217.391 271.413 217.391 272.202C217.391 272.998 217.002 273.358 216.484 273.358C215.912 273.358 215.658 272.939 215.658 272.468ZM218.836 273.617V269.668H218.447V273.617H218.836ZM220.846 273.676C221.448 273.676 221.825 273.387 222.025 273.04L221.79 272.762C221.666 273.04 221.418 273.352 220.846 273.352C220.286 273.352 219.903 272.998 219.88 272.291H222.037C222.043 272.244 222.055 272.173 222.055 272.102C222.055 271.248 221.571 270.729 220.799 270.729C220.033 270.729 219.508 271.283 219.508 272.202C219.508 273.14 220.057 273.676 220.846 273.676ZM220.799 271.047C221.318 271.047 221.666 271.371 221.701 272.008H219.886C219.939 271.371 220.281 271.047 220.799 271.047ZM84.9511 283.676C85.517 283.676 85.8824 283.24 85.9767 282.833V283.134C85.9767 283.493 86.1654 283.617 86.4483 283.617H86.7136V283.269H86.5485C86.4129 283.269 86.3481 283.216 86.3481 283.069V281.743C86.3481 281.112 86.0062 280.729 85.346 280.729C84.7448 280.729 84.3322 281.065 84.1553 281.36L84.4265 281.631C84.5738 281.318 84.8804 281.077 85.3048 281.077C85.7645 281.077 85.965 281.324 85.965 281.749V281.772L84.8921 282.261C84.4972 282.438 84.2202 282.674 84.2202 283.045C84.2202 283.423 84.4854 283.676 84.9511 283.676ZM84.6092 282.992C84.6092 282.78 84.7507 282.639 85.0572 282.497L85.9767 282.061V282.562C85.9767 282.945 85.5877 283.352 85.0631 283.352C84.786 283.352 84.6092 283.228 84.6092 282.992ZM87.7276 283.617V281.978C87.7276 281.489 87.9693 281.053 88.5646 281.053C89.0539 281.053 89.2661 281.336 89.2661 281.796V283.617H89.6551V281.707C89.6551 281.059 89.2779 280.729 88.7179 280.729C88.152 280.729 87.8278 281.118 87.7276 281.578V280.788H87.3385V283.617H87.7276ZM91.4609 283.682C92.0209 283.682 92.3215 283.293 92.4099 282.845V283.617H92.793V279.668H92.4099V281.566C92.3215 281.118 92.0209 280.729 91.4609 280.729C90.724 280.729 90.282 281.312 90.282 282.202C90.282 283.098 90.724 283.682 91.4609 283.682ZM90.6769 282.202C90.6769 281.413 91.0659 281.053 91.5788 281.053C92.1505 281.053 92.4099 281.466 92.4099 281.937V282.468C92.4099 282.939 92.1505 283.358 91.5788 283.358C91.0659 283.358 90.6769 282.998 90.6769 282.202ZM95.4681 283.676C96.034 283.676 96.3994 283.24 96.4937 282.833V283.134C96.4937 283.493 96.6824 283.617 96.9653 283.617H97.2306V283.269H97.0655C96.9299 283.269 96.8651 283.216 96.8651 283.069V281.743C96.8651 281.112 96.5232 280.729 95.863 280.729C95.2618 280.729 94.8492 281.065 94.6723 281.36L94.9435 281.631C95.0908 281.318 95.3974 281.077 95.8218 281.077C96.2815 281.077 96.482 281.324 96.482 281.749V281.772L95.4091 282.261C95.0142 282.438 94.7372 282.674 94.7372 283.045C94.7372 283.423 95.0024 283.676 95.4681 283.676ZM95.1262 282.992C95.1262 282.78 95.2677 282.639 95.5742 282.497L96.4937 282.061V282.562C96.4937 282.945 96.1047 283.352 95.5801 283.352C95.303 283.352 95.1262 283.228 95.1262 282.992ZM98.7633 283.676C99.3469 283.676 99.6652 283.281 99.7654 282.81V283.617H100.149V280.788H99.7654V282.421C99.7654 282.916 99.5296 283.346 98.9166 283.346C98.4332 283.346 98.221 283.063 98.221 282.609V280.788H97.8378V282.692C97.8378 283.346 98.2092 283.676 98.7633 283.676ZM101.815 283.682C102.18 283.682 102.457 283.511 102.581 283.305L102.445 282.928C102.351 283.128 102.145 283.311 101.891 283.311C101.644 283.311 101.431 283.199 101.431 282.792V281.088H102.38V280.788H101.431V280.092L101.048 280.381V280.788H100.589V281.088H101.048V282.898C101.048 283.411 101.384 283.682 101.815 283.682ZM104.018 283.676C104.796 283.676 105.345 283.098 105.345 282.202C105.345 281.307 104.796 280.729 104.018 280.729C103.24 280.729 102.698 281.307 102.698 282.202C102.698 283.098 103.24 283.676 104.018 283.676ZM104.018 283.346C103.464 283.346 103.087 282.951 103.087 282.202C103.087 281.448 103.464 281.047 104.018 281.047C104.578 281.047 104.956 281.448 104.956 282.202C104.956 282.951 104.578 283.346 104.018 283.346ZM106.413 283.617V281.978C106.413 281.489 106.655 281.053 107.156 281.053C107.598 281.053 107.816 281.295 107.816 281.79V283.617H108.199V281.978C108.199 281.489 108.441 281.053 108.948 281.053C109.384 281.053 109.602 281.295 109.602 281.79V283.617H109.991V281.701C109.991 281.053 109.684 280.729 109.142 280.729C108.612 280.729 108.287 281.124 108.193 281.589C108.164 281.018 107.863 280.729 107.35 280.729C106.826 280.729 106.513 281.112 106.413 281.578V280.788H106.024V283.617H106.413ZM111.362 283.676C111.927 283.676 112.293 283.24 112.387 282.833V283.134C112.387 283.493 112.576 283.617 112.859 283.617H113.124V283.269H112.959C112.823 283.269 112.759 283.216 112.759 283.069V281.743C112.759 281.112 112.417 280.729 111.757 280.729C111.155 280.729 110.743 281.065 110.566 281.36L110.837 281.631C110.984 281.318 111.291 281.077 111.715 281.077C112.175 281.077 112.375 281.324 112.375 281.749V281.772L111.303 282.261C110.908 282.438 110.631 282.674 110.631 283.045C110.631 283.423 110.896 283.676 111.362 283.676ZM111.02 282.992C111.02 282.78 111.161 282.639 111.468 282.497L112.387 282.061V282.562C112.387 282.945 111.998 283.352 111.474 283.352C111.197 283.352 111.02 283.228 111.02 282.992ZM114.588 283.682C114.954 283.682 115.231 283.511 115.354 283.305L115.219 282.928C115.125 283.128 114.918 283.311 114.665 283.311C114.417 283.311 114.205 283.199 114.205 282.792V281.088H115.154V280.788H114.205V280.092L113.822 280.381V280.788H113.362V281.088H113.822V282.898C113.822 283.411 114.158 283.682 114.588 283.682ZM116.268 280.281V279.668H115.879V280.281H116.268ZM116.268 283.617V280.788H115.879V283.617H116.268ZM118.249 283.676C118.956 283.676 119.398 283.264 119.51 282.692L119.139 282.533C119.08 283.01 118.797 283.352 118.255 283.352C117.695 283.352 117.323 282.951 117.323 282.202C117.323 281.448 117.695 281.047 118.255 281.047C118.797 281.047 119.08 281.395 119.139 281.872L119.51 281.713C119.398 281.141 118.956 280.729 118.255 280.729C117.453 280.729 116.928 281.283 116.928 282.202C116.928 283.122 117.453 283.676 118.249 283.676ZM120.51 283.617V282.922H120.044V283.617H120.51Z" fill="#3D0072"/>
<rect x="83.9844" y="291.463" width="65.5783" height="22.147" rx="11.0735" fill="#FBBF24"/>
<path d="M98.5392 305.643C98.1714 305.643 97.8413 305.587 97.5489 305.473C97.2565 305.36 97.0089 305.195 96.8062 304.978C96.6034 304.757 96.4478 304.488 96.3393 304.172C96.2309 303.856 96.1766 303.493 96.1766 303.083C96.1766 302.672 96.2379 302.309 96.3605 301.993C96.4879 301.677 96.66 301.411 96.8769 301.194C97.0938 300.972 97.3485 300.805 97.6408 300.692C97.9332 300.579 98.2468 300.522 98.5816 300.522C98.7844 300.522 98.9683 300.539 99.1334 300.572C99.2984 300.6 99.4422 300.633 99.5648 300.671C99.6874 300.708 99.7888 300.748 99.869 300.791C99.9492 300.833 100.006 300.864 100.039 300.883L99.777 301.611C99.6639 301.541 99.5012 301.475 99.289 301.413C99.0815 301.347 98.8551 301.314 98.6099 301.314C98.3977 301.314 98.1996 301.352 98.0157 301.427C97.8318 301.498 97.6715 301.607 97.5347 301.753C97.4027 301.899 97.299 302.083 97.2235 302.305C97.1481 302.526 97.1103 302.783 97.1103 303.076C97.1103 303.335 97.1386 303.573 97.1952 303.79C97.2565 304.007 97.3485 304.196 97.4711 304.356C97.5937 304.511 97.7493 304.634 97.9379 304.724C98.1266 304.809 98.3529 304.851 98.617 304.851C98.9329 304.851 99.1899 304.82 99.388 304.759C99.5861 304.693 99.7393 304.632 99.8478 304.575L100.088 305.304C100.032 305.341 99.9539 305.379 99.8548 305.417C99.7605 305.455 99.6474 305.492 99.5153 305.53C99.3833 305.563 99.2347 305.589 99.0697 305.608C98.9046 305.631 98.7278 305.643 98.5392 305.643ZM102.937 302.609C102.866 302.585 102.767 302.562 102.64 302.538C102.517 302.51 102.373 302.496 102.208 302.496C102.114 302.496 102.012 302.505 101.904 302.524C101.8 302.543 101.727 302.559 101.685 302.573V305.537H100.829V302.015C100.994 301.953 101.199 301.897 101.444 301.845C101.694 301.788 101.97 301.76 102.272 301.76C102.328 301.76 102.394 301.765 102.47 301.774C102.545 301.779 102.621 301.788 102.696 301.802C102.772 301.812 102.845 301.826 102.916 301.845C102.986 301.859 103.043 301.873 103.085 301.887L102.937 302.609ZM103.477 303.705C103.477 303.38 103.524 303.094 103.618 302.849C103.717 302.604 103.847 302.401 104.007 302.241C104.167 302.076 104.351 301.953 104.559 301.873C104.766 301.788 104.979 301.746 105.195 301.746C105.705 301.746 106.101 301.904 106.384 302.22C106.671 302.536 106.815 303.007 106.815 303.634C106.815 303.681 106.813 303.736 106.808 303.797C106.808 303.854 106.806 303.905 106.801 303.953H104.361C104.384 304.25 104.488 304.481 104.672 304.646C104.861 304.806 105.132 304.886 105.485 304.886C105.693 304.886 105.882 304.867 106.051 304.83C106.226 304.792 106.363 304.752 106.462 304.71L106.575 305.41C106.528 305.433 106.462 305.459 106.377 305.488C106.297 305.511 106.202 305.532 106.094 305.551C105.99 305.575 105.877 305.594 105.754 305.608C105.632 305.622 105.507 305.629 105.379 305.629C105.054 305.629 104.771 305.582 104.531 305.488C104.29 305.389 104.092 305.254 103.936 305.084C103.781 304.91 103.665 304.707 103.59 304.476C103.514 304.24 103.477 303.983 103.477 303.705ZM105.959 303.323C105.959 303.205 105.943 303.094 105.91 302.991C105.877 302.882 105.827 302.79 105.761 302.715C105.7 302.635 105.622 302.573 105.528 302.531C105.438 302.484 105.33 302.46 105.203 302.46C105.07 302.46 104.955 302.486 104.856 302.538C104.757 302.585 104.672 302.649 104.601 302.729C104.535 302.809 104.483 302.901 104.446 303.005C104.408 303.109 104.382 303.215 104.368 303.323H105.959ZM109.024 304.936C109.288 304.936 109.489 304.922 109.626 304.893V303.946C109.578 303.931 109.51 303.917 109.42 303.903C109.331 303.889 109.232 303.882 109.123 303.882C109.029 303.882 108.932 303.889 108.833 303.903C108.739 303.917 108.652 303.943 108.572 303.981C108.496 304.019 108.435 304.073 108.388 304.144C108.34 304.21 108.317 304.295 108.317 304.398C108.317 304.601 108.381 304.743 108.508 304.823C108.635 304.898 108.807 304.936 109.024 304.936ZM108.954 301.746C109.236 301.746 109.475 301.781 109.668 301.852C109.861 301.923 110.015 302.022 110.128 302.149C110.246 302.276 110.328 302.432 110.375 302.616C110.427 302.795 110.453 302.993 110.453 303.21V305.452C110.321 305.481 110.121 305.514 109.852 305.551C109.588 305.594 109.288 305.615 108.954 305.615C108.732 305.615 108.529 305.594 108.345 305.551C108.161 305.509 108.003 305.44 107.871 305.346C107.744 305.252 107.643 305.129 107.567 304.978C107.496 304.827 107.461 304.641 107.461 304.419C107.461 304.207 107.501 304.028 107.581 303.882C107.666 303.736 107.779 303.618 107.921 303.528C108.062 303.434 108.225 303.368 108.409 303.33C108.597 303.288 108.793 303.267 108.996 303.267C109.09 303.267 109.189 303.274 109.293 303.288C109.397 303.297 109.508 303.316 109.626 303.344V303.203C109.626 303.104 109.614 303.01 109.59 302.92C109.567 302.83 109.524 302.753 109.463 302.686C109.406 302.616 109.328 302.562 109.229 302.524C109.135 302.486 109.015 302.467 108.869 302.467C108.671 302.467 108.489 302.481 108.324 302.51C108.159 302.538 108.025 302.571 107.921 302.609L107.815 301.915C107.923 301.878 108.081 301.84 108.289 301.802C108.496 301.765 108.718 301.746 108.954 301.746ZM111.459 300.862L112.315 300.72V301.838H113.63V302.552H112.315V304.059C112.315 304.356 112.362 304.568 112.456 304.695C112.55 304.823 112.711 304.886 112.937 304.886C113.093 304.886 113.23 304.87 113.347 304.837C113.47 304.804 113.567 304.773 113.637 304.745L113.779 305.424C113.68 305.466 113.55 305.509 113.39 305.551C113.23 305.598 113.041 305.622 112.824 305.622C112.56 305.622 112.338 305.587 112.159 305.516C111.985 305.445 111.845 305.344 111.742 305.212C111.638 305.075 111.565 304.912 111.522 304.724C111.48 304.53 111.459 304.311 111.459 304.066V300.862ZM114.19 303.705C114.19 303.38 114.238 303.094 114.332 302.849C114.431 302.604 114.561 302.401 114.721 302.241C114.881 302.076 115.065 301.953 115.273 301.873C115.48 301.788 115.692 301.746 115.909 301.746C116.419 301.746 116.815 301.904 117.098 302.22C117.385 302.536 117.529 303.007 117.529 303.634C117.529 303.681 117.527 303.736 117.522 303.797C117.522 303.854 117.52 303.905 117.515 303.953H115.075C115.098 304.25 115.202 304.481 115.386 304.646C115.575 304.806 115.846 304.886 116.199 304.886C116.407 304.886 116.595 304.867 116.765 304.83C116.94 304.792 117.076 304.752 117.175 304.71L117.289 305.41C117.241 305.433 117.175 305.459 117.091 305.488C117.01 305.511 116.916 305.532 116.808 305.551C116.704 305.575 116.591 305.594 116.468 305.608C116.346 305.622 116.221 305.629 116.093 305.629C115.768 305.629 115.485 305.582 115.244 305.488C115.004 305.389 114.806 305.254 114.65 305.084C114.495 304.91 114.379 304.707 114.304 304.476C114.228 304.24 114.19 303.983 114.19 303.705ZM116.673 303.323C116.673 303.205 116.657 303.094 116.624 302.991C116.591 302.882 116.541 302.79 116.475 302.715C116.414 302.635 116.336 302.573 116.242 302.531C116.152 302.484 116.044 302.46 115.916 302.46C115.784 302.46 115.669 302.486 115.57 302.538C115.471 302.585 115.386 302.649 115.315 302.729C115.249 302.809 115.197 302.901 115.16 303.005C115.122 303.109 115.096 303.215 115.082 303.323H116.673ZM121.389 304.936C121.653 304.936 121.854 304.922 121.99 304.893V303.946C121.943 303.931 121.875 303.917 121.785 303.903C121.696 303.889 121.597 303.882 121.488 303.882C121.394 303.882 121.297 303.889 121.198 303.903C121.104 303.917 121.017 303.943 120.936 303.981C120.861 304.019 120.8 304.073 120.752 304.144C120.705 304.21 120.682 304.295 120.682 304.398C120.682 304.601 120.745 304.743 120.873 304.823C121 304.898 121.172 304.936 121.389 304.936ZM121.318 301.746C121.601 301.746 121.839 301.781 122.033 301.852C122.226 301.923 122.379 302.022 122.493 302.149C122.61 302.276 122.693 302.432 122.74 302.616C122.792 302.795 122.818 302.993 122.818 303.21V305.452C122.686 305.481 122.485 305.514 122.217 305.551C121.953 305.594 121.653 305.615 121.318 305.615C121.097 305.615 120.894 305.594 120.71 305.551C120.526 305.509 120.368 305.44 120.236 305.346C120.109 305.252 120.007 305.129 119.932 304.978C119.861 304.827 119.826 304.641 119.826 304.419C119.826 304.207 119.866 304.028 119.946 303.882C120.031 303.736 120.144 303.618 120.286 303.528C120.427 303.434 120.59 303.368 120.774 303.33C120.962 303.288 121.158 303.267 121.361 303.267C121.455 303.267 121.554 303.274 121.658 303.288C121.762 303.297 121.872 303.316 121.99 303.344V303.203C121.99 303.104 121.979 303.01 121.955 302.92C121.931 302.83 121.889 302.753 121.828 302.686C121.771 302.616 121.693 302.562 121.594 302.524C121.5 302.486 121.38 302.467 121.233 302.467C121.035 302.467 120.854 302.481 120.689 302.51C120.524 302.538 120.389 302.571 120.286 302.609L120.18 301.915C120.288 301.878 120.446 301.84 120.653 301.802C120.861 301.765 121.083 301.746 121.318 301.746ZM126.451 304.801C126.503 304.806 126.571 304.811 126.656 304.816C126.741 304.816 126.856 304.816 127.002 304.816C127.601 304.816 128.047 304.665 128.339 304.363C128.636 304.056 128.785 303.63 128.785 303.083C128.785 302.526 128.641 302.099 128.353 301.802C128.066 301.505 127.62 301.357 127.017 301.357C126.753 301.357 126.564 301.364 126.451 301.378V304.801ZM129.719 303.083C129.719 303.507 129.653 303.877 129.521 304.193C129.389 304.504 129.2 304.766 128.955 304.978C128.714 305.186 128.422 305.341 128.078 305.445C127.738 305.544 127.361 305.594 126.946 305.594C126.748 305.594 126.524 305.584 126.274 305.565C126.024 305.551 125.786 305.518 125.559 305.466V300.706C125.786 300.654 126.026 300.621 126.281 300.607C126.536 300.593 126.762 300.586 126.96 300.586C127.37 300.586 127.745 300.635 128.085 300.734C128.424 300.829 128.714 300.979 128.955 301.187C129.2 301.39 129.389 301.649 129.521 301.965C129.653 302.276 129.719 302.649 129.719 303.083ZM130.692 300.635H131.583V305.537H130.692V300.635ZM134.236 305.594C133.976 305.594 133.715 305.584 133.45 305.565C133.186 305.551 132.955 305.518 132.757 305.466V300.706C132.861 300.687 132.972 300.671 133.09 300.656C133.208 300.638 133.328 300.623 133.45 300.614C133.573 300.605 133.693 300.597 133.811 300.593C133.934 300.588 134.049 300.586 134.158 300.586C134.455 300.586 134.731 300.609 134.985 300.656C135.24 300.699 135.459 300.772 135.643 300.876C135.832 300.979 135.978 301.116 136.082 301.286C136.186 301.456 136.237 301.666 136.237 301.915C136.237 302.147 136.181 302.345 136.068 302.51C135.959 302.675 135.806 302.807 135.608 302.906C135.905 303.005 136.124 303.151 136.266 303.344C136.407 303.538 136.478 303.783 136.478 304.08C136.478 304.585 136.294 304.964 135.926 305.219C135.558 305.469 134.995 305.594 134.236 305.594ZM133.634 303.33V304.823C133.733 304.832 133.84 304.839 133.953 304.844C134.066 304.849 134.17 304.851 134.264 304.851C134.448 304.851 134.618 304.839 134.773 304.816C134.934 304.792 135.07 304.752 135.184 304.695C135.301 304.634 135.393 304.554 135.459 304.455C135.53 304.356 135.565 304.229 135.565 304.073C135.565 303.795 135.464 303.601 135.261 303.493C135.059 303.384 134.778 303.33 134.42 303.33H133.634ZM133.634 302.63H134.264C134.603 302.63 134.87 302.583 135.063 302.488C135.257 302.389 135.353 302.215 135.353 301.965C135.353 301.729 135.252 301.562 135.049 301.463C134.851 301.364 134.592 301.314 134.271 301.314C134.134 301.314 134.012 301.317 133.903 301.321C133.799 301.326 133.71 301.333 133.634 301.343V302.63Z" fill="white"/>
<path d="M86.993 262.061C88.9547 262.061 90.0016 260.853 90.0016 258.901C90.0016 256.949 88.9453 255.742 86.993 255.742H84.6068V262.061H86.993ZM86.8609 256.685C88.1719 256.685 88.8887 257.317 88.8887 258.901C88.8887 260.486 88.1719 261.117 86.8704 261.117H85.6726V256.685H86.8609ZM92.0645 262.061V255.742H90.9988V262.061H92.0645ZM96.2963 262.061C97.6544 262.061 98.4938 261.504 98.4938 260.382C98.4938 259.533 97.9845 258.892 96.551 258.778C97.5696 258.694 98.2297 258.194 98.2297 257.354C98.2297 256.421 97.6261 255.742 96.3435 255.742H93.4764V262.061H96.2963ZM96.0228 256.685C96.683 256.685 97.1263 256.892 97.1263 257.534C97.1263 258.175 96.6924 258.373 96.0605 258.373H94.5421V256.685H96.0228ZM96.1643 259.269C96.8999 259.269 97.3998 259.552 97.3998 260.193C97.3998 260.834 97.0037 261.117 96.136 261.117H94.5421V259.269H96.1643Z" fill="#3D0072"/>
<rect x="107.828" y="254.484" width="23.1539" height="9.15394" rx="4.57697" fill="#FEEAB9"/>
<path d="M113.514 260.061V256.994H113.18C113.033 257.195 112.814 257.269 112.566 257.269V257.543H113.116V260.061H113.514ZM116.182 260.061V259.708H114.915L114.539 259.736L114.869 259.456L115.345 259.008C115.624 258.742 116.105 258.285 116.105 257.781C116.105 257.31 115.834 256.948 115.235 256.948C114.53 256.948 114.049 257.433 114.114 258.038L114.484 258.271C114.406 257.662 114.695 257.333 115.207 257.333C115.555 257.333 115.693 257.562 115.693 257.809C115.693 258.147 115.432 258.431 115.098 258.761L114.095 259.749V260.061H116.182ZM117.18 258.335C117.56 258.335 117.844 258.065 117.844 257.644C117.844 257.223 117.56 256.953 117.18 256.953C116.796 256.953 116.512 257.223 116.512 257.644C116.512 258.065 116.796 258.335 117.18 258.335ZM117.084 260.061L119.245 256.994H118.828L116.668 260.061H117.084ZM117.18 258.042C116.965 258.042 116.837 257.886 116.837 257.644C116.837 257.397 116.965 257.241 117.18 257.241C117.396 257.241 117.528 257.397 117.528 257.644C117.528 257.886 117.396 258.042 117.18 258.042ZM118.746 260.061C119.126 260.061 119.409 259.791 119.409 259.369C119.409 258.948 119.126 258.678 118.746 258.678C118.361 258.678 118.078 258.948 118.078 259.369C118.078 259.791 118.361 260.061 118.746 260.061ZM118.746 259.768C118.531 259.768 118.403 259.612 118.403 259.369C118.403 259.122 118.531 258.967 118.746 258.967C118.961 258.967 119.094 259.122 119.094 259.369C119.094 259.612 118.961 259.768 118.746 259.768ZM121.232 260.912V259.488C121.31 259.823 121.521 260.106 121.946 260.106C122.505 260.106 122.853 259.649 122.853 258.948C122.853 258.248 122.505 257.795 121.946 257.795C121.521 257.795 121.31 258.079 121.232 258.413V257.845H120.834V260.912H121.232ZM121.232 259.109V258.793C121.232 258.427 121.388 258.129 121.809 258.129C122.162 258.129 122.45 258.385 122.45 258.948C122.45 259.516 122.162 259.772 121.809 259.772C121.388 259.772 121.232 259.475 121.232 259.109ZM123.723 260.061V259.466H123.242V260.061H123.723ZM124.734 260.106C125.191 260.106 125.429 259.777 125.503 259.484V259.639C125.503 259.951 125.667 260.061 125.896 260.061H126.152V259.699H126.011C125.928 259.699 125.887 259.667 125.887 259.562V258.651C125.887 258.124 125.594 257.8 125.049 257.8C124.555 257.8 124.226 258.079 124.093 258.308L124.363 258.587C124.477 258.344 124.688 258.161 125.004 258.161C125.351 258.161 125.475 258.353 125.489 258.614L124.688 258.971C124.372 259.113 124.148 259.301 124.148 259.598C124.148 259.891 124.358 260.106 124.734 260.106ZM124.551 259.534C124.551 259.397 124.647 259.305 124.857 259.205L125.503 258.903V259.209C125.503 259.53 125.237 259.777 124.862 259.777C124.656 259.777 124.551 259.685 124.551 259.534Z" fill="black"/>
</g>
<g clip-path="url(#clip2_6274_87259)">
<g filter="url(#filter1_d_6274_87259)">
<rect x="22.6797" y="341.887" width="216.921" height="90.7766" rx="4.21366" fill="#FCEFF3"/>
</g>
</g>
<path opacity="0.35" fill-rule="evenodd" clip-rule="evenodd" d="M233.573 14.0488C232.895 14.0488 232.626 14.0942 232.349 14.2239C232.116 14.3335 231.934 14.4924 231.809 14.6972C231.661 14.9398 231.609 15.1748 231.609 15.7692V18.4196C231.609 19.0139 231.661 19.2489 231.809 19.4915C231.934 19.6963 232.116 19.8553 232.349 19.9648C232.626 20.0945 232.895 20.1399 233.573 20.1399H243.774C244.452 20.1399 244.721 20.0945 244.997 19.9648C245.231 19.8553 245.413 19.6963 245.538 19.4915C245.686 19.2489 245.738 19.0139 245.738 18.4196V15.7692C245.738 15.1748 245.686 14.9398 245.538 14.6972C245.413 14.4924 245.231 14.3335 244.997 14.2239C244.721 14.0942 244.452 14.0488 243.774 14.0488H233.573Z" stroke="black" stroke-width="0.589458"/>
<path opacity="0.4" d="M246.75 15.916V18.2738C247.291 18.0742 247.643 17.6096 247.643 17.0949C247.643 16.5803 247.291 16.1157 246.75 15.916Z" fill="black"/>
<path d="M233.767 14.9336H243.577C243.977 14.9336 244.122 14.9701 244.268 15.0386C244.414 15.1071 244.529 15.2076 244.607 15.3357C244.685 15.4637 244.727 15.5908 244.727 15.9411V18.2488C244.727 18.5991 244.685 18.7261 244.607 18.8542C244.529 18.9823 244.414 19.0828 244.268 19.1513C244.122 19.2198 243.977 19.2563 243.577 19.2563H233.767C233.367 19.2563 233.222 19.2198 233.076 19.1513C232.93 19.0828 232.815 18.9823 232.737 18.8542C232.659 18.7261 232.617 18.5991 232.617 18.2488V15.9411C232.617 15.5908 232.659 15.4637 232.737 15.3357C232.815 15.2076 232.93 15.1071 233.076 15.0386C233.222 14.9701 233.367 14.9336 233.767 14.9336Z" fill="black"/>
<path d="M222.744 15.0986C224.241 15.0986 225.68 15.6021 226.765 16.5049C226.847 16.5746 226.977 16.5737 227.058 16.5029L227.839 15.8131C227.879 15.7772 227.902 15.7285 227.902 15.6779C227.901 15.6273 227.878 15.5789 227.837 15.5434C224.99 13.1548 220.498 13.1548 217.651 15.5434C217.61 15.5789 217.586 15.6273 217.586 15.6779C217.586 15.7285 217.608 15.7771 217.649 15.8131L218.43 16.5029C218.51 16.5738 218.641 16.5747 218.723 16.5049C219.808 15.602 221.247 15.0986 222.744 15.0986ZM222.744 17.343C223.566 17.3429 224.359 17.6105 224.969 18.0937C225.051 18.1623 225.181 18.1608 225.262 18.0904L226.042 17.4005C226.083 17.3643 226.106 17.3152 226.105 17.2642C226.104 17.2132 226.08 17.1646 226.039 17.1291C224.182 15.6175 221.308 15.6175 219.451 17.1291C219.409 17.1646 219.385 17.2133 219.385 17.2643C219.384 17.3153 219.407 17.3644 219.448 17.4005L220.228 18.0904C220.308 18.1608 220.438 18.1623 220.521 18.0937C221.13 17.6108 221.922 17.3433 222.744 17.343ZM224.243 18.9894C224.285 18.9535 224.308 18.9042 224.306 18.8531C224.305 18.8019 224.28 18.7535 224.237 18.7191C223.375 18.0812 222.113 18.0812 221.252 18.7191C221.208 18.7534 221.183 18.8019 221.182 18.853C221.18 18.9042 221.203 18.9535 221.245 18.9894L222.594 20.1813C222.634 20.2163 222.688 20.236 222.744 20.236C222.8 20.236 222.854 20.2163 222.894 20.1813L224.243 18.9894Z" fill="black"/>
<path d="M203.454 17.8789H204.127C204.498 17.8789 204.8 18.1429 204.8 18.4684V19.6473C204.8 19.9729 204.498 20.2368 204.127 20.2368H203.454C203.082 20.2368 202.781 19.9729 202.781 19.6473V18.4684C202.781 18.1429 203.082 17.8789 203.454 17.8789ZM206.594 16.7H207.266C207.638 16.7 207.939 16.9639 207.939 17.2895V19.6473C207.939 19.9729 207.638 20.2368 207.266 20.2368H206.594C206.222 20.2368 205.921 19.9729 205.921 19.6473V17.2895C205.921 16.9639 206.222 16.7 206.594 16.7ZM209.733 15.3246H210.406C210.778 15.3246 211.079 15.5885 211.079 15.9141V19.6473C211.079 19.9729 210.778 20.2368 210.406 20.2368H209.733C209.362 20.2368 209.06 19.9729 209.06 19.6473V15.9141C209.06 15.5885 209.362 15.3246 209.733 15.3246ZM212.873 13.9492H213.546C213.917 13.9492 214.218 14.2131 214.218 14.5387V19.6473C214.218 19.9729 213.917 20.2368 213.546 20.2368H212.873C212.501 20.2368 212.2 19.9729 212.2 19.6473V14.5387C212.2 14.2131 212.501 13.9492 212.873 13.9492Z" fill="black"/>
<path d="M27.4236 14.345C27.5946 14.2743 27.7714 14.1947 27.9541 14.1063C28.1428 14.012 28.3255 13.9118 28.5023 13.8057C28.6792 13.6937 28.8472 13.5787 29.0063 13.4608C29.1714 13.3371 29.3187 13.2074 29.4484 13.0718H30.368V19.1992H29.0505V14.7871C28.8737 14.905 28.6762 15.0141 28.4581 15.1143C28.24 15.2086 28.0278 15.2911 27.8215 15.3618L27.4236 14.345ZM36.2156 14.681C36.2156 14.905 36.1714 15.1202 36.083 15.3265C35.9946 15.5328 35.8796 15.7332 35.7382 15.9277C35.5967 16.1164 35.4375 16.2991 35.2607 16.4759C35.0839 16.6528 34.91 16.8208 34.739 16.9799C34.6506 17.0624 34.5533 17.1567 34.4472 17.2628C34.347 17.3631 34.2498 17.4662 34.1555 17.5723C34.0612 17.6784 33.9757 17.7786 33.8991 17.8729C33.8283 17.9614 33.7841 18.035 33.7664 18.094H36.4013V19.1992H32.3164C32.3046 19.1344 32.2987 19.0519 32.2987 18.9516C32.2987 18.8514 32.2987 18.7807 32.2987 18.7394C32.2987 18.4565 32.3429 18.1971 32.4313 17.9614C32.5256 17.7256 32.6465 17.5075 32.7938 17.3071C32.9412 17.1007 33.1062 16.9092 33.289 16.7323C33.4776 16.5555 33.6633 16.3787 33.846 16.2018C33.9875 16.0662 34.1201 15.9395 34.2439 15.8216C34.3677 15.6978 34.4767 15.5799 34.571 15.4679C34.6653 15.3501 34.739 15.2351 34.7921 15.1231C34.8451 15.0052 34.8717 14.8873 34.8717 14.7694C34.8717 14.5101 34.798 14.3273 34.6506 14.2212C34.5032 14.1151 34.3205 14.0621 34.1024 14.0621C33.9433 14.0621 33.7929 14.0886 33.6515 14.1417C33.5159 14.1888 33.3892 14.2478 33.2713 14.3185C33.1593 14.3833 33.062 14.4511 32.9795 14.5219C32.897 14.5867 32.8351 14.6398 32.7938 14.681L32.1395 13.7615C32.3989 13.5198 32.6995 13.3223 33.0414 13.1691C33.3892 13.0099 33.7605 12.9303 34.1555 12.9303C34.515 12.9303 34.8245 12.9716 35.0839 13.0541C35.3432 13.1366 35.5554 13.2545 35.7205 13.4078C35.8914 13.5552 36.0152 13.7379 36.0918 13.956C36.1744 14.1682 36.2156 14.4099 36.2156 14.681ZM38.7653 15.3618C38.7653 15.6271 38.6798 15.8305 38.5088 15.9719C38.3438 16.1075 38.1552 16.1753 37.943 16.1753C37.7308 16.1753 37.5392 16.1075 37.3682 15.9719C37.2032 15.8305 37.1207 15.6271 37.1207 15.3618C37.1207 15.0966 37.2032 14.8962 37.3682 14.7606C37.5392 14.6191 37.7308 14.5484 37.943 14.5484C38.1552 14.5484 38.3438 14.6191 38.5088 14.7606C38.6798 14.8962 38.7653 15.0966 38.7653 15.3618ZM38.7653 18.5007C38.7653 18.766 38.6798 18.9693 38.5088 19.1108C38.3438 19.2464 38.1552 19.3142 37.943 19.3142C37.7308 19.3142 37.5392 19.2464 37.3682 19.1108C37.2032 18.9693 37.1207 18.766 37.1207 18.5007C37.1207 18.2355 37.2032 18.035 37.3682 17.8995C37.5392 17.758 37.7308 17.6873 37.943 17.6873C38.1552 17.6873 38.3438 17.758 38.5088 17.8995C38.6798 18.035 38.7653 18.2355 38.7653 18.5007ZM43.7529 16.1222C43.7529 17.1538 43.5554 17.9466 43.1605 18.5007C42.7715 19.0489 42.2321 19.323 41.5424 19.323C40.8528 19.323 40.3105 19.0489 39.9155 18.5007C39.5265 17.9466 39.332 17.1538 39.332 16.1222C39.332 15.6094 39.3821 15.1555 39.4823 14.7606C39.5884 14.3657 39.7387 14.0326 39.9332 13.7615C40.1277 13.4903 40.3606 13.284 40.6317 13.1425C40.9029 13.0011 41.2064 12.9303 41.5424 12.9303C42.2321 12.9303 42.7715 13.2074 43.1605 13.7615C43.5554 14.3097 43.7529 15.0966 43.7529 16.1222ZM42.4089 16.1222C42.4089 15.8157 42.3942 15.5387 42.3647 15.2911C42.3353 15.0376 42.2881 14.8195 42.2233 14.6368C42.1584 14.4541 42.07 14.3126 41.958 14.2124C41.846 14.1122 41.7075 14.0621 41.5424 14.0621C41.3774 14.0621 41.2389 14.1122 41.1269 14.2124C41.0208 14.3126 40.9323 14.4541 40.8616 14.6368C40.7968 14.8195 40.7496 15.0376 40.7201 15.2911C40.6907 15.5387 40.6759 15.8157 40.6759 16.1222C40.6759 16.4288 40.6907 16.7088 40.7201 16.9622C40.7496 17.2157 40.7968 17.4338 40.8616 17.6165C40.9323 17.7993 41.0208 17.9407 41.1269 18.0409C41.2389 18.1411 41.3774 18.1912 41.5424 18.1912C41.7075 18.1912 41.846 18.1411 41.958 18.0409C42.07 17.9407 42.1584 17.7993 42.2233 17.6165C42.2881 17.4338 42.3353 17.2157 42.3647 16.9622C42.3942 16.7088 42.4089 16.4288 42.4089 16.1222ZM48.7783 16.1222C48.7783 17.1538 48.5808 17.9466 48.1859 18.5007C47.7968 19.0489 47.2575 19.323 46.5678 19.323C45.8781 19.323 45.3358 19.0489 44.9409 18.5007C44.5519 17.9466 44.3573 17.1538 44.3573 16.1222C44.3573 15.6094 44.4074 15.1555 44.5076 14.7606C44.6137 14.3657 44.7641 14.0326 44.9586 13.7615C45.1531 13.4903 45.3859 13.284 45.6571 13.1425C45.9282 13.0011 46.2318 12.9303 46.5678 12.9303C47.2575 12.9303 47.7968 13.2074 48.1859 13.7615C48.5808 14.3097 48.7783 15.0966 48.7783 16.1222ZM47.4343 16.1222C47.4343 15.8157 47.4196 15.5387 47.3901 15.2911C47.3606 15.0376 47.3135 14.8195 47.2486 14.6368C47.1838 14.4541 47.0954 14.3126 46.9834 14.2124C46.8714 14.1122 46.7329 14.0621 46.5678 14.0621C46.4028 14.0621 46.2642 14.1122 46.1522 14.2124C46.0461 14.3126 45.9577 14.4541 45.887 14.6368C45.8221 14.8195 45.775 15.0376 45.7455 15.2911C45.716 15.5387 45.7013 15.8157 45.7013 16.1222C45.7013 16.4288 45.716 16.7088 45.7455 16.9622C45.775 17.2157 45.8221 17.4338 45.887 17.6165C45.9577 17.7993 46.0461 17.9407 46.1522 18.0409C46.2642 18.1411 46.4028 18.1912 46.5678 18.1912C46.7329 18.1912 46.8714 18.1411 46.9834 18.0409C47.0954 17.9407 47.1838 17.7993 47.2486 17.6165C47.3135 17.4338 47.3606 17.2157 47.3901 16.9622C47.4196 16.7088 47.4343 16.4288 47.4343 16.1222Z" fill="black"/>
</g>
<rect x="2.5" y="2.5" width="258" height="564" rx="25.5" stroke="#E8356D" stroke-width="5"/>
<defs>
<filter id="filter0_d_6274_87259" x="14.2524" y="232.749" width="233.777" height="107.632" filterUnits="userSpaceOnUse" color-interpolation-filters="sRGB">
<feFlood flood-opacity="0" result="BackgroundImageFix"/>
<feColorMatrix in="SourceAlpha" type="matrix" values="0 0 0 0 0 0 0 0 0 0 0 0 0 0 0 0 0 0 127 0" result="hardAlpha"/>
<feOffset dy="4.21366"/>
<feGaussianBlur stdDeviation="4.21366"/>
<feComposite in2="hardAlpha" operator="out"/>
<feColorMatrix type="matrix" values="0 0 0 0 0.398122 0 0 0 0 0.113021 0 0 0 0 0.645833 0 0 0 0.12 0"/>
<feBlend mode="normal" in2="BackgroundImageFix" result="effect1_dropShadow_6274_87259"/>
<feBlend mode="normal" in="SourceGraphic" in2="effect1_dropShadow_6274_87259" result="shape"/>
</filter>
<filter id="filter1_d_6274_87259" x="14.2524" y="337.673" width="233.777" height="107.632" filterUnits="userSpaceOnUse" color-interpolation-filters="sRGB">
<feFlood flood-opacity="0" result="BackgroundImageFix"/>
<feColorMatrix in="SourceAlpha" type="matrix" values="0 0 0 0 0 0 0 0 0 0 0 0 0 0 0 0 0 0 127 0" result="hardAlpha"/>
<feOffset dy="4.21366"/>
<feGaussianBlur stdDeviation="4.21366"/>
<feComposite in2="hardAlpha" operator="out"/>
<feColorMatrix type="matrix" values="0 0 0 0 0.398122 0 0 0 0 0.113021 0 0 0 0 0.645833 0 0 0 0.12 0"/>
<feBlend mode="normal" in2="BackgroundImageFix" result="effect1_dropShadow_6274_87259"/>
<feBlend mode="normal" in="SourceGraphic" in2="effect1_dropShadow_6274_87259" result="shape"/>
</filter>
<clipPath id="clip0_6274_87259">
<rect width="252.288" height="539.944" fill="white" transform="translate(5)"/>
</clipPath>
<clipPath id="clip1_6274_87259">
<rect x="22.6797" y="236.963" width="216.921" height="90.7766" rx="4.21366" fill="white"/>
</clipPath>
<clipPath id="clip2_6274_87259">
<rect x="22.6797" y="341.887" width="216.921" height="90.7766" rx="4.21366" fill="white"/>
</clipPath>
</defs>
</svg>
