<svg width="263" height="346" viewBox="0 0 263 346" fill="none" xmlns="http://www.w3.org/2000/svg">
<g clip-path="url(#clip0_6286_87256)">
<rect x="5" y="5" width="253" height="359" rx="20" fill="white"/>
<path d="M33.0393 139.236C36.255 139.236 38.6667 137.581 38.6667 134.72C38.6667 131.694 36.3968 130.701 33.8668 130.086L32.0935 129.66C30.3674 129.235 29.2797 128.738 29.2797 127.343C29.2797 126.137 30.3674 125.428 31.8807 125.428C33.8195 125.428 35.522 126.279 36.3968 128.242L38.4066 126.326C37.2717 124.151 34.9545 122.945 32.0462 122.945C29.0669 122.945 26.4896 124.553 26.4896 127.532C26.4896 130.535 28.8778 131.552 31.124 132.025L32.6136 132.356C34.6707 132.805 35.9476 133.231 35.9476 134.768C35.9476 136.21 34.6707 136.777 33.0865 136.777C31.1477 136.777 28.7595 135.879 27.9083 133.562L26.0167 135.477C27.2463 138.149 30.0127 139.236 33.0393 139.236ZM46.188 139.236C48.7417 139.236 50.3022 138.078 51.1771 136.754L49.5456 135.051C49.12 136.021 48.2215 137.061 46.2117 137.061C44.391 137.061 43.1851 135.95 43.0432 133.893H51.2717C51.3189 133.656 51.3662 133.16 51.3662 132.734C51.3662 129.542 49.451 127.249 45.9989 127.249C42.7595 127.249 40.5132 129.637 40.5132 133.254C40.5132 136.848 42.7595 139.236 46.188 139.236ZM45.9989 129.377C47.7486 129.377 48.7889 130.37 48.9781 132.19H43.0669C43.2797 130.322 44.3674 129.377 45.9989 129.377ZM57.6419 139.26C59.3207 139.26 60.4557 138.48 60.9522 137.747L60.1246 135.382C59.7936 136.044 59.1315 136.777 58.233 136.777C57.4528 136.777 56.8616 136.47 56.8616 135.217V129.542H60.3847V127.485H56.8616V124.411L54.2134 126.09V127.485H52.4164V129.542H54.2134V135.855C54.2134 137.889 55.4666 139.26 57.6419 139.26ZM112.234 139.236C114.646 139.236 115.757 137.439 116.112 135.926V136.777C116.112 138.433 117.081 139 118.311 139H119.942V136.73H119.209C118.784 136.73 118.594 136.565 118.594 136.044V131.717C118.594 128.88 116.987 127.249 114.126 127.249C111.572 127.249 109.775 128.573 108.876 129.802L110.461 131.694C111.123 130.488 112.329 129.589 113.866 129.589C115.45 129.589 115.97 130.37 116.064 131.528L112.21 133.16C110.342 133.893 109.207 134.886 109.207 136.517C109.207 138.172 110.342 139.236 112.234 139.236ZM111.761 136.115C111.761 135.524 112.163 135.122 113.156 134.673L116.112 133.349V134.578C116.112 136.139 114.93 137.179 113.18 137.179C112.21 137.179 111.761 136.777 111.761 136.115ZM124.616 139V132.545C124.616 130.653 125.278 129.4 126.838 129.4C128.399 129.4 129.061 130.204 129.061 131.788V139H131.709V132.545C131.709 130.653 132.371 129.4 133.932 129.4C135.492 129.4 136.154 130.204 136.154 131.788V139H138.803V130.984C138.803 128.596 137.644 127.249 135.445 127.249C133.246 127.249 132.111 128.833 131.709 130.653C131.591 128.478 130.456 127.249 128.351 127.249C126.176 127.249 125.041 128.809 124.616 130.63V127.485H121.967V139H124.616ZM146.326 139.236C149.684 139.236 151.954 136.825 151.954 133.254C151.954 129.66 149.684 127.249 146.326 127.249C143.016 127.249 140.746 129.66 140.746 133.254C140.746 136.825 143.016 139.236 146.326 139.236ZM146.35 137.037C144.647 137.037 143.465 135.903 143.465 133.254C143.465 130.582 144.647 129.447 146.35 129.447C148.076 129.447 149.258 130.582 149.258 133.254C149.258 135.903 148.076 137.037 146.35 137.037ZM157.748 139.236C160.042 139.236 161.224 137.676 161.65 135.855V139H164.321V127.485H161.65V133.94C161.65 135.832 160.988 137.085 159.049 137.085C157.275 137.085 156.802 136.115 156.802 134.697V127.485H154.154V135.501C154.154 137.889 155.526 139.236 157.748 139.236ZM169.758 139V132.545C169.758 130.653 170.42 129.4 172.359 129.4C174.132 129.4 174.605 130.37 174.605 131.788V139H177.277V130.984C177.277 128.596 175.906 127.249 173.659 127.249C171.366 127.249 170.183 128.809 169.758 130.63V127.485H167.11V139H169.758ZM183.856 139.26C185.534 139.26 186.669 138.48 187.166 137.747L186.338 135.382C186.007 136.044 185.345 136.777 184.447 136.777C183.666 136.777 183.075 136.47 183.075 135.217V129.542H186.598V127.485H183.075V124.411L180.427 126.09V127.485H178.63V129.542H180.427V135.855C180.427 137.889 181.68 139.26 183.856 139.26Z" fill="#3D0072"/>
<path d="M73.6672 139C78.5853 139 81.2099 135.973 81.2099 131.079C81.2099 126.184 78.5617 123.158 73.6672 123.158H67.6851V139H73.6672ZM73.3362 125.522C76.6228 125.522 78.4198 127.107 78.4198 131.079C78.4198 135.051 76.6228 136.636 73.3598 136.636H70.3569V125.522H73.3362ZM86.3819 139V123.158H83.71V139H86.3819ZM96.9912 139C100.396 139 102.5 137.605 102.5 134.791C102.5 132.663 101.224 131.055 97.6296 130.772C100.183 130.559 101.838 129.306 101.838 127.201C101.838 124.86 100.325 123.158 97.1094 123.158H89.9214V139H96.9912ZM96.3055 125.522C97.9606 125.522 99.072 126.043 99.072 127.65C99.072 129.258 97.9843 129.755 96.4001 129.755H92.5933V125.522H96.3055ZM96.6602 132.001C98.5045 132.001 99.7577 132.71 99.7577 134.318C99.7577 135.926 98.7646 136.636 96.5892 136.636H92.5933V132.001H96.6602Z" fill="#8807F7"/>
<path d="M28.0142 157.894C28.8866 157.894 29.5747 157.44 29.5747 156.61C29.5747 155.738 28.915 155.454 28.1844 155.284L27.624 155.149C27.0069 155 26.6593 154.787 26.6593 154.269C26.6593 153.751 27.1204 153.453 27.6949 153.453C28.383 153.453 28.8937 153.766 29.1136 154.432L29.5038 154.12C29.2271 153.404 28.5745 153.014 27.702 153.014C26.9005 153.014 26.1699 153.461 26.1699 154.305C26.1699 155.135 26.8083 155.425 27.4751 155.581L27.9929 155.695C28.7164 155.865 29.1065 156.064 29.1065 156.624C29.1065 157.227 28.5958 157.461 28.0142 157.461C27.3899 157.461 26.6167 157.163 26.3898 156.348L26.028 156.66C26.333 157.539 27.1558 157.894 28.0142 157.894ZM31.8562 157.901C32.5797 157.901 33.0337 157.553 33.2749 157.135L32.9912 156.802C32.8422 157.135 32.5443 157.511 31.8562 157.511C31.1823 157.511 30.7213 157.085 30.6929 156.234H33.2891C33.2962 156.177 33.3104 156.092 33.3104 156.007C33.3104 154.979 32.7287 154.354 31.7995 154.354C30.8773 154.354 30.246 155.021 30.246 156.128C30.246 157.256 30.9057 157.901 31.8562 157.901ZM31.7995 154.737C32.4237 154.737 32.8422 155.127 32.8848 155.894H30.7C30.7638 155.127 31.1752 154.737 31.7995 154.737ZM35.1947 157.908C35.6345 157.908 35.9679 157.702 36.1169 157.454L35.9537 157C35.8402 157.241 35.592 157.461 35.2869 157.461C34.989 157.461 34.7337 157.326 34.7337 156.837V154.787H35.8757V154.425H34.7337V153.588L34.2726 153.936V154.425H33.7193V154.787H34.2726V156.965C34.2726 157.582 34.6769 157.908 35.1947 157.908ZM38.7125 157.83V155.858C38.7125 155.269 39.0104 154.744 39.741 154.744C40.3227 154.744 40.5639 155.085 40.5639 155.638V157.83H41.032V155.532C41.032 154.752 40.5922 154.354 39.9325 154.354C39.2374 154.354 38.8331 154.822 38.7125 155.376V153.077H38.2443V157.83H38.7125ZM43.3469 157.901C44.2833 157.901 44.943 157.206 44.943 156.128C44.943 155.049 44.2833 154.354 43.3469 154.354C42.4106 154.354 41.758 155.049 41.758 156.128C41.758 157.206 42.4106 157.901 43.3469 157.901ZM43.3469 157.504C42.6802 157.504 42.2262 157.029 42.2262 156.128C42.2262 155.22 42.6802 154.737 43.3469 154.737C44.0208 154.737 44.4748 155.22 44.4748 156.128C44.4748 157.029 44.0208 157.504 43.3469 157.504ZM46.7711 157.83L47.4946 155.56L47.6932 154.815L47.8848 155.56L48.6083 157.83H49.2112L50.1405 154.425H49.6156L49.0623 156.723L48.9062 157.482L48.7005 156.723L47.977 154.425H47.4024L46.6789 156.723L46.4732 157.482L46.3171 156.723L45.7567 154.425H45.2389L46.1681 157.83H46.7711ZM52.7816 157.83V155.858C52.7816 155.269 53.0725 154.744 53.6754 154.744C54.2074 154.744 54.4699 155.035 54.4699 155.631V157.83H54.9309V155.858C54.9309 155.269 55.2218 154.744 55.8318 154.744C56.3567 154.744 56.6192 155.035 56.6192 155.631V157.83H57.0874V155.525C57.0874 154.744 56.7185 154.354 56.0659 154.354C55.4275 154.354 55.0373 154.83 54.9239 155.39C54.8884 154.702 54.5266 154.354 53.9095 154.354C53.2782 154.354 52.9022 154.815 52.7816 155.376V154.425H52.3135V157.83H52.7816ZM59.1416 157.901C59.8438 157.901 60.2269 157.426 60.3475 156.858V157.83H60.8085V154.425H60.3475V156.39C60.3475 156.986 60.0637 157.504 59.326 157.504C58.7443 157.504 58.489 157.163 58.489 156.617V154.425H58.0279V156.716C58.0279 157.504 58.4748 157.901 59.1416 157.901ZM63.1802 157.901C64.0314 157.901 64.5634 157.404 64.6982 156.716L64.2513 156.525C64.1804 157.099 63.8399 157.511 63.1873 157.511C62.5134 157.511 62.0665 157.029 62.0665 156.128C62.0665 155.22 62.5134 154.737 63.1873 154.737C63.8399 154.737 64.1804 155.156 64.2513 155.73L64.6982 155.539C64.5634 154.851 64.0314 154.354 63.1873 154.354C62.2226 154.354 61.5913 155.021 61.5913 156.128C61.5913 157.234 62.2226 157.901 63.1802 157.901ZM65.9433 157.83V155.858C65.9433 155.269 66.2412 154.744 66.9719 154.744C67.5535 154.744 67.7947 155.085 67.7947 155.638V157.83H68.2629V155.532C68.2629 154.752 67.8231 154.354 67.1634 154.354C66.4682 154.354 66.0639 154.822 65.9433 155.376V153.077H65.4751V157.83H65.9433ZM71.9445 157.83L72.6681 155.56L72.8667 154.815L73.0582 155.56L73.7818 157.83H74.3847L75.3139 154.425H74.789L74.2357 156.723L74.0797 157.482L73.874 156.723L73.1504 154.425H72.5759L71.8523 156.723L71.6466 157.482L71.4906 156.723L70.9302 154.425H70.4124L71.3416 157.83H71.9445ZM76.3965 153.815V153.077H75.9283V153.815H76.3965ZM76.3965 157.83V154.425H75.9283V157.83H76.3965ZM77.8581 157.83V153.077H77.3899V157.83H77.8581ZM79.3197 157.83V153.077H78.8516V157.83H79.3197ZM82.34 157.83V156.936C82.4535 157.461 82.8224 157.908 83.475 157.908C84.3687 157.908 84.9007 157.206 84.9007 156.128C84.9007 155.057 84.3687 154.354 83.475 154.354C82.8224 154.354 82.4535 154.801 82.34 155.326V153.077H81.8718V157.83H82.34ZM82.34 156.447V155.808C82.34 155.241 82.645 154.744 83.3331 154.744C83.9573 154.744 84.4255 155.177 84.4255 156.128C84.4255 157.085 83.9573 157.518 83.3331 157.518C82.645 157.518 82.34 157.014 82.34 156.447ZM87.1769 157.901C87.9004 157.901 88.3544 157.553 88.5956 157.135L88.3118 156.802C88.1629 157.135 87.8649 157.511 87.1769 157.511C86.503 157.511 86.0419 157.085 86.0135 156.234H88.6097C88.6168 156.177 88.631 156.092 88.631 156.007C88.631 154.979 88.0494 154.354 87.1201 154.354C86.198 154.354 85.5666 155.021 85.5666 156.128C85.5666 157.256 86.2263 157.901 87.1769 157.901ZM87.1201 154.737C87.7443 154.737 88.1629 155.127 88.2054 155.894H86.0206C86.0845 155.127 86.4959 154.737 87.1201 154.737ZM91.4057 159.029C91.8668 159.029 92.2002 158.781 92.3988 158.234L93.8388 154.425H93.3493L92.4981 156.759L92.2498 157.461L92.0087 156.759L91.1504 154.425H90.6538L91.9023 157.717L92.1647 157.709L92.037 158.05C91.8881 158.468 91.6895 158.617 91.4128 158.617C91.1007 158.617 90.9092 158.426 90.7673 158.149L90.5049 158.49C90.6325 158.745 90.9447 159.029 91.4057 159.029ZM95.6335 157.901C96.5698 157.901 97.2295 157.206 97.2295 156.128C97.2295 155.049 96.5698 154.354 95.6335 154.354C94.6971 154.354 94.0445 155.049 94.0445 156.128C94.0445 157.206 94.6971 157.901 95.6335 157.901ZM95.6335 157.504C94.9667 157.504 94.5127 157.029 94.5127 156.128C94.5127 155.22 94.9667 154.737 95.6335 154.737C96.3074 154.737 96.7613 155.22 96.7613 156.128C96.7613 157.029 96.3074 157.504 95.6335 157.504ZM99.1393 157.901C99.8415 157.901 100.225 157.426 100.345 156.858V157.83H100.806V154.425H100.345V156.39C100.345 156.986 100.061 157.504 99.3237 157.504C98.742 157.504 98.4867 157.163 98.4867 156.617V154.425H98.0256V156.716C98.0256 157.504 98.4725 157.901 99.1393 157.901ZM102.27 157.83V155.858C102.27 155.269 102.674 154.702 103.185 154.702C103.497 154.702 103.624 154.9 103.624 155.12C103.624 155.326 103.539 155.546 103.447 155.652H103.951C104.015 155.539 104.078 155.326 104.078 155.071C104.078 154.603 103.752 154.347 103.355 154.347C102.773 154.347 102.397 154.815 102.27 155.354V154.425H101.801V157.83H102.27ZM107.39 157.908C107.83 157.908 108.163 157.702 108.312 157.454L108.149 157C108.036 157.241 107.787 157.461 107.482 157.461C107.184 157.461 106.929 157.326 106.929 156.837V154.787H108.071V154.425H106.929V153.588L106.468 153.936V154.425H105.915V154.787H106.468V156.965C106.468 157.582 106.872 157.908 107.39 157.908ZM110.042 157.901C110.978 157.901 111.638 157.206 111.638 156.128C111.638 155.049 110.978 154.354 110.042 154.354C109.106 154.354 108.453 155.049 108.453 156.128C108.453 157.206 109.106 157.901 110.042 157.901ZM110.042 157.504C109.375 157.504 108.921 157.029 108.921 156.128C108.921 155.22 109.375 154.737 110.042 154.737C110.716 154.737 111.17 155.22 111.17 156.128C111.17 157.029 110.716 157.504 110.042 157.504ZM113.521 157.908C113.96 157.908 114.294 157.702 114.443 157.454L114.28 157C114.166 157.241 113.918 157.461 113.613 157.461C113.315 157.461 113.06 157.326 113.06 156.837V154.787H114.202V154.425H113.06V153.588L112.598 153.936V154.425H112.045V154.787H112.598V156.965C112.598 157.582 113.003 157.908 113.521 157.908ZM115.63 157.901C116.311 157.901 116.751 157.376 116.864 156.887V157.248C116.864 157.681 117.091 157.83 117.432 157.83H117.751V157.412H117.552C117.389 157.412 117.311 157.348 117.311 157.17V155.574C117.311 154.815 116.9 154.354 116.105 154.354C115.382 154.354 114.885 154.759 114.672 155.113L114.999 155.44C115.176 155.064 115.545 154.773 116.055 154.773C116.609 154.773 116.85 155.071 116.85 155.581V155.61L115.559 156.199C115.084 156.411 114.75 156.695 114.75 157.142C114.75 157.596 115.069 157.901 115.63 157.901ZM115.218 157.078C115.218 156.823 115.389 156.653 115.758 156.482L116.864 155.957V156.56C116.864 157.021 116.396 157.511 115.765 157.511C115.431 157.511 115.218 157.362 115.218 157.078ZM118.971 157.83V153.077H118.503V157.83H118.971ZM122.828 157.901C123.46 157.901 124.013 157.61 124.013 156.958C124.013 156.475 123.729 156.184 123.02 156.007L122.566 155.894C122.069 155.773 121.814 155.645 121.814 155.291C121.814 154.936 122.105 154.744 122.516 154.744C123.048 154.744 123.403 155 123.559 155.461L123.914 155.198C123.743 154.716 123.268 154.354 122.545 154.354C121.842 154.354 121.374 154.723 121.374 155.312C121.374 155.922 121.878 156.149 122.367 156.27L122.828 156.376C123.289 156.482 123.594 156.61 123.594 156.965C123.594 157.319 123.297 157.504 122.843 157.504C122.154 157.504 121.729 157.121 121.622 156.66L121.275 156.922C121.481 157.589 122.133 157.901 122.828 157.901ZM125.494 157.901C126.175 157.901 126.615 157.376 126.728 156.887V157.248C126.728 157.681 126.955 157.83 127.296 157.83H127.615V157.412H127.417C127.253 157.412 127.175 157.348 127.175 157.17V155.574C127.175 154.815 126.764 154.354 125.969 154.354C125.246 154.354 124.749 154.759 124.537 155.113L124.863 155.44C125.04 155.064 125.409 154.773 125.92 154.773C126.473 154.773 126.714 155.071 126.714 155.581V155.61L125.423 156.199C124.948 156.411 124.615 156.695 124.615 157.142C124.615 157.596 124.934 157.901 125.494 157.901ZM125.083 157.078C125.083 156.823 125.253 156.653 125.622 156.482L126.728 155.957V156.56C126.728 157.021 126.26 157.511 125.629 157.511C125.296 157.511 125.083 157.362 125.083 157.078ZM129.655 157.83L130.939 154.425H130.442L129.704 156.497L129.378 157.475L129.038 156.497L128.3 154.425H127.789L129.073 157.83H129.655ZM131.973 153.815V153.077H131.505V153.815H131.973ZM131.973 157.83V154.425H131.505V157.83H131.973ZM133.435 157.83V155.858C133.435 155.269 133.726 154.744 134.442 154.744C135.031 154.744 135.286 155.085 135.286 155.638V157.83H135.755V155.532C135.755 154.752 135.301 154.354 134.627 154.354C133.946 154.354 133.556 154.822 133.435 155.376V154.425H132.967V157.83H133.435ZM138.006 156.78C138.801 156.78 139.326 156.277 139.326 155.567C139.326 155.149 139.141 154.801 138.822 154.581L139.432 153.851L138.943 153.666L138.666 154.489C138.474 154.404 138.254 154.354 138.006 154.354C137.219 154.354 136.687 154.858 136.687 155.567C136.687 156 136.885 156.355 137.212 156.567C136.928 156.787 136.715 157.071 136.715 157.348C136.715 157.553 136.829 157.717 137.063 157.78C136.793 157.887 136.453 158.107 136.453 158.461C136.453 158.93 136.992 159.22 137.857 159.22C138.95 159.22 139.602 158.766 139.602 158.135C139.602 157.639 139.233 157.397 138.638 157.397H137.581C137.212 157.397 137.098 157.284 137.098 157.092C137.098 156.929 137.205 156.752 137.311 156.624C137.51 156.723 137.744 156.78 138.006 156.78ZM138.006 156.418C137.503 156.418 137.141 156.085 137.141 155.567C137.141 155.049 137.503 154.716 138.006 154.716C138.517 154.716 138.879 155.049 138.879 155.567C138.879 156.085 138.517 156.418 138.006 156.418ZM137.857 158.852C137.212 158.852 136.836 158.66 136.836 158.327C136.836 158.107 137.02 157.908 137.19 157.802H138.574C138.978 157.802 139.17 157.922 139.17 158.192C139.17 158.582 138.68 158.852 137.857 158.852ZM141.483 157.901C142.115 157.901 142.668 157.61 142.668 156.958C142.668 156.475 142.384 156.184 141.675 156.007L141.221 155.894C140.724 155.773 140.469 155.645 140.469 155.291C140.469 154.936 140.76 154.744 141.171 154.744C141.703 154.744 142.058 155 142.214 155.461L142.569 155.198C142.398 154.716 141.923 154.354 141.2 154.354C140.497 154.354 140.029 154.723 140.029 155.312C140.029 155.922 140.533 156.149 141.022 156.27L141.483 156.376C141.944 156.482 142.249 156.61 142.249 156.965C142.249 157.319 141.951 157.504 141.498 157.504C140.809 157.504 140.384 157.121 140.277 156.66L139.93 156.922C140.136 157.589 140.788 157.901 141.483 157.901Z" fill="#6B7280"/>
<rect x="25.1016" y="259.598" width="212.22" height="33.8154" rx="16.9077" fill="#8807F7"/>
<path d="M116.07 279.079C117.428 279.079 118.364 278.373 118.795 277.18L117.896 276.519C117.703 277.437 117.134 278.097 116.079 278.097C114.812 278.097 114.216 277.189 114.216 275.922C114.216 274.647 114.812 273.748 116.079 273.748C117.134 273.748 117.703 274.399 117.896 275.326L118.795 274.665C118.364 273.463 117.428 272.766 116.07 272.766C114.179 272.766 113.115 274.151 113.115 275.922C113.115 277.694 114.179 279.079 116.07 279.079ZM121.496 279.098C122.8 279.098 123.68 278.162 123.68 276.776C123.68 275.381 122.8 274.445 121.496 274.445C120.212 274.445 119.331 275.381 119.331 276.776C119.331 278.162 120.212 279.098 121.496 279.098ZM121.506 278.244C120.845 278.244 120.386 277.804 120.386 276.776C120.386 275.739 120.845 275.298 121.506 275.298C122.175 275.298 122.634 275.739 122.634 276.776C122.634 277.804 122.175 278.244 121.506 278.244ZM125.59 279.006V276.501C125.59 275.766 125.847 275.28 126.599 275.28C127.288 275.28 127.471 275.656 127.471 276.207V279.006H128.508V275.895C128.508 274.968 127.976 274.445 127.104 274.445C126.214 274.445 125.755 275.051 125.59 275.757V274.537H124.562V279.006H125.59ZM131.061 279.107C131.713 279.107 132.153 278.804 132.346 278.519L132.025 277.602C131.896 277.859 131.639 278.143 131.291 278.143C130.988 278.143 130.758 278.024 130.758 277.538V275.335H132.126V274.537H130.758V273.344L129.731 273.995V274.537H129.033V275.335H129.731V277.785C129.731 278.575 130.217 279.107 131.061 279.107ZM134.068 273.904V272.857H133.04V273.904H134.068ZM134.068 279.006V274.537H133.04V279.006H134.068ZM136.183 279.006V276.501C136.183 275.766 136.439 275.28 137.192 275.28C137.88 275.28 138.064 275.656 138.064 276.207V279.006H139.101V275.895C139.101 274.968 138.569 274.445 137.697 274.445C136.807 274.445 136.348 275.051 136.183 275.757V274.537H135.155V279.006H136.183ZM141.523 279.098C142.413 279.098 142.872 278.492 143.037 277.785V279.006H144.074V274.537H143.037V277.042C143.037 277.776 142.78 278.263 142.027 278.263C141.339 278.263 141.156 277.886 141.156 277.336V274.537H140.128V277.648C140.128 278.575 140.66 279.098 141.523 279.098ZM147.12 279.098C148.111 279.098 148.717 278.648 149.057 278.134L148.423 277.473C148.258 277.85 147.909 278.253 147.129 278.253C146.423 278.253 145.955 277.822 145.9 277.024H149.093C149.112 276.932 149.13 276.739 149.13 276.574C149.13 275.335 148.387 274.445 147.047 274.445C145.79 274.445 144.918 275.372 144.918 276.776C144.918 278.171 145.79 279.098 147.12 279.098ZM147.047 275.271C147.726 275.271 148.13 275.656 148.203 276.363H145.909C145.992 275.638 146.414 275.271 147.047 275.271Z" fill="white"/>
<rect width="211.621" height="3.6236" rx="1.8118" transform="matrix(1 0 0 -1 25.0938 91.9082)" fill="#E7CDFE"/>
<rect width="125.909" height="4.13785" rx="2.06893" transform="matrix(1 0 0 -1 25.0938 92.1621)" fill="#8807F7"/>
<g opacity="0.5">
<g filter="url(#filter0_d_6286_87256)">
<circle cx="6.79426" cy="6.79426" r="6.79426" transform="matrix(0 1 1 0 223.719 83.3027)" fill="white"/>
</g>
<g clip-path="url(#clip1_6286_87256)">
<path d="M229.826 87.7326C229.706 87.7904 229.601 87.8759 229.521 87.9821C229.46 88.0599 229.414 88.1476 229.383 88.2411L229.246 88.6619C229.237 88.6904 229.22 88.7158 229.197 88.7353C229.174 88.7549 229.147 88.7679 229.117 88.773C229.083 88.779 229.048 88.7743 229.017 88.7594C228.986 88.7445 228.96 88.7202 228.943 88.6899L228.945 88.6883C228.94 88.6795 228.936 88.6703 228.932 88.6608L228.795 88.2403C228.753 88.1123 228.681 87.9961 228.585 87.9008C228.49 87.8055 228.374 87.7338 228.246 87.6914L227.825 87.5547C227.793 87.5432 227.765 87.5219 227.745 87.4939C227.725 87.4658 227.714 87.4323 227.714 87.3979C227.714 87.3636 227.725 87.3301 227.745 87.302C227.765 87.274 227.793 87.2527 227.825 87.2412L227.833 87.239L228.254 87.1023C228.382 87.0598 228.499 86.9881 228.594 86.8928C228.689 86.7975 228.761 86.6813 228.804 86.5534L228.94 86.1326C228.952 86.1002 228.973 86.072 229.001 86.0521C229.029 86.0322 229.063 86.0215 229.097 86.0215C229.132 86.0215 229.165 86.0322 229.193 86.0521C229.221 86.072 229.243 86.1002 229.254 86.1326L229.391 86.5534L229.394 86.5639C229.424 86.65 229.467 86.7309 229.522 86.8037L229.523 86.8031C229.627 86.9407 229.77 87.0442 229.933 87.1004L230.353 87.2379C230.384 87.2479 230.411 87.2665 230.431 87.2915C230.451 87.3166 230.463 87.3469 230.466 87.3788C230.469 87.4107 230.463 87.4428 230.448 87.4712C230.433 87.4996 230.411 87.5231 230.383 87.5387C230.373 87.5442 230.363 87.5489 230.353 87.5525L229.932 87.6892C229.896 87.7013 229.86 87.7159 229.826 87.7326ZM228.529 89.0032C228.524 88.9913 228.516 88.9807 228.506 88.9719C228.496 88.9632 228.485 88.9565 228.472 88.9523L228.22 88.8701C228.144 88.8439 228.075 88.8006 228.019 88.7435C227.963 88.6864 227.92 88.617 227.895 88.5409L227.813 88.2884C227.806 88.269 227.793 88.2522 227.776 88.2403C227.76 88.2284 227.739 88.222 227.719 88.222C227.698 88.222 227.678 88.2284 227.661 88.2403C227.644 88.2522 227.632 88.269 227.625 88.2884L227.543 88.5409C227.517 88.6176 227.474 88.6873 227.417 88.7445C227.36 88.8016 227.29 88.8446 227.213 88.8701L226.961 88.9523L226.955 88.9534C226.936 88.9602 226.919 88.9729 226.907 88.9897C226.895 89.0066 226.889 89.0267 226.889 89.0474C226.889 89.0681 226.895 89.0883 226.907 89.1051C226.919 89.122 226.936 89.1347 226.955 89.1415L227.208 89.2237C227.314 89.2588 227.406 89.327 227.47 89.4181V89.4195C227.499 89.4608 227.521 89.5059 227.537 89.554L227.62 89.8064C227.627 89.8259 227.64 89.8427 227.656 89.8545C227.673 89.8664 227.693 89.8728 227.714 89.8728C227.735 89.8728 227.755 89.8664 227.771 89.8545C227.788 89.8427 227.801 89.8259 227.808 89.8064L227.89 89.554C227.916 89.477 227.959 89.4071 228.016 89.3498C228.074 89.2925 228.144 89.2494 228.22 89.224L228.473 89.1415C228.487 89.1368 228.499 89.1293 228.509 89.1196C228.519 89.1099 228.527 89.0981 228.532 89.0851C228.538 89.072 228.54 89.058 228.54 89.0439C228.539 89.0299 228.536 89.0161 228.529 89.0034V89.0032ZM230.739 93.172C228.97 93.172 227.526 91.7804 227.443 90.0319C227.487 90.0786 227.543 90.113 227.605 90.1316C227.667 90.1503 227.733 90.1526 227.796 90.1384C227.859 90.1242 227.917 90.094 227.965 90.0506C228.013 90.0072 228.049 89.9522 228.069 89.8909L228.151 89.6395C228.163 89.6037 228.184 89.571 228.21 89.5441C228.237 89.5173 228.269 89.4968 228.305 89.4844L228.564 89.4003C228.637 89.3744 228.701 89.3265 228.745 89.2632C228.79 89.2 228.814 89.1244 228.814 89.0469C228.813 89.0094 228.807 88.9723 228.796 88.9366C228.85 88.9848 228.916 89.0187 228.987 89.0353C229.058 89.0518 229.132 89.0505 229.202 89.0314C229.273 89.0123 229.337 88.9761 229.39 88.9259C229.443 88.8758 229.482 88.8133 229.505 88.7441L229.643 88.3244C229.671 88.2369 229.72 88.1575 229.785 88.0926C229.85 88.0277 229.929 87.9787 230.015 87.9493L230.443 87.8118C230.508 87.7893 230.566 87.7521 230.614 87.7032C230.661 87.6542 230.697 87.5948 230.718 87.5297C230.738 87.4646 230.744 87.3955 230.733 87.328C230.722 87.2605 230.696 87.1964 230.656 87.1408C230.602 87.0646 230.525 87.0074 230.436 86.9775L230.02 86.8424C229.938 86.8138 229.863 86.7676 229.8 86.7071C230.105 86.6171 230.421 86.5715 230.739 86.5718C232.561 86.5718 234.039 88.0494 234.039 89.8719C234.039 91.6944 232.561 93.172 230.739 93.172ZM229.776 89.5969C229.886 89.5969 229.991 89.5534 230.068 89.4761C230.146 89.3987 230.189 89.2938 230.189 89.1844C230.189 89.075 230.146 88.9701 230.068 88.8927C229.991 88.8153 229.886 88.7719 229.776 88.7719C229.667 88.7719 229.562 88.8153 229.485 88.8927C229.407 88.9701 229.364 89.075 229.364 89.1844C229.364 89.2938 229.407 89.3987 229.485 89.4761C229.562 89.5534 229.667 89.5969 229.776 89.5969ZM231.289 89.1844C231.289 89.2938 231.332 89.3987 231.41 89.4761C231.487 89.5534 231.592 89.5969 231.702 89.5969C231.811 89.5969 231.916 89.5534 231.993 89.4761C232.071 89.3987 232.114 89.2938 232.114 89.1844C232.114 89.075 232.071 88.9701 231.993 88.8927C231.916 88.8153 231.811 88.7719 231.702 88.7719C231.592 88.7719 231.487 88.8153 231.41 88.8927C231.332 88.9701 231.289 89.075 231.289 89.1844ZM232.299 90.7327C232.254 90.702 232.198 90.6904 232.145 90.7004C232.091 90.7105 232.044 90.7414 232.013 90.7863L232.01 90.7896L231.998 90.8058C231.987 90.8207 231.968 90.8432 231.942 90.8713C231.891 90.9271 231.813 91.0033 231.706 91.0794C231.495 91.2315 231.176 91.3844 230.739 91.3844C230.302 91.3844 229.983 91.2315 229.772 91.0794C229.665 91.0033 229.587 90.9271 229.536 90.8713C229.512 90.8451 229.489 90.8179 229.467 90.7896L229.465 90.7868C229.435 90.7416 229.387 90.7105 229.333 90.7003C229.28 90.6901 229.224 90.7017 229.179 90.7325C229.134 90.7633 229.102 90.8109 229.092 90.8646C229.082 90.9184 229.094 90.974 229.124 91.0192L229.125 91.0195V91.02L229.126 91.0209L229.128 91.0236L229.13 91.0269L229.134 91.0324C229.164 91.0733 229.197 91.1126 229.231 91.1501C229.322 91.2481 229.422 91.3365 229.531 91.4141C229.797 91.6064 230.199 91.7969 230.739 91.7969C231.279 91.7969 231.681 91.6061 231.947 91.4144C232.056 91.3366 232.156 91.248 232.247 91.1498C232.283 91.1097 232.318 91.0677 232.35 91.0239L232.352 91.0211L232.353 91.02L232.353 91.0195L232.353 91.0192C232.384 90.974 232.396 90.9184 232.385 90.8647C232.375 90.8109 232.344 90.7634 232.299 90.7327Z" fill="#8807F7"/>
</g>
</g>
<g filter="url(#filter1_d_6286_87256)">
<circle cx="6.79426" cy="6.79426" r="6.79426" transform="matrix(0 1 1 0 58.9531 83.3027)" fill="white"/>
</g>
<g clip-path="url(#clip2_6286_87256)">
<path d="M65.5171 93.9463C64.496 93.9463 63.5167 93.5406 62.7947 92.8186C62.0727 92.0966 61.667 91.1173 61.667 90.0962C61.667 89.0751 62.0727 88.0958 62.7947 87.3738C63.5167 86.6517 64.496 86.2461 65.5171 86.2461C66.5382 86.2461 67.5175 86.6517 68.2395 87.3738C68.9616 88.0958 69.3672 89.0751 69.3672 90.0962C69.3672 91.1173 68.9616 92.0966 68.2395 92.8186C67.5175 93.5406 66.5382 93.9463 65.5171 93.9463ZM65.9984 89.3743C65.9984 89.7728 66.214 90.0962 66.4796 90.0962C66.7453 90.0962 66.9609 89.7728 66.9609 89.3743C66.9609 88.9758 66.7453 88.6524 66.4796 88.6524C66.214 88.6524 65.9984 88.9758 65.9984 89.3743ZM67.305 92.2296C67.3603 92.1977 67.4006 92.1451 67.4171 92.0835C67.4336 92.0218 67.425 91.9562 67.3931 91.9009C67.203 91.5715 66.9296 91.2981 66.6003 91.108C66.2709 90.9179 65.8974 90.8179 65.5171 90.8181C65.1369 90.818 64.7633 90.918 64.434 91.1081C64.1047 91.2982 63.8313 91.5716 63.6412 91.9009C63.6098 91.9561 63.6015 92.0216 63.6181 92.0829C63.6348 92.1442 63.675 92.1964 63.73 92.2282C63.7851 92.26 63.8504 92.2687 63.9118 92.2525C63.9733 92.2362 64.0258 92.1963 64.0579 92.1415C64.2057 91.8853 64.4184 91.6726 64.6746 91.5248C64.9307 91.3769 65.2213 91.2991 65.5171 91.2993C65.8129 91.2991 66.1035 91.3769 66.3596 91.5248C66.6158 91.6726 66.8285 91.8853 66.9763 92.1415C67.0082 92.1968 67.0608 92.2371 67.1224 92.2536C67.184 92.2702 67.2497 92.2615 67.305 92.2296ZM64.5546 90.0962C64.8202 90.0962 65.0358 89.7728 65.0358 89.3743C65.0358 88.9758 64.8202 88.6524 64.5546 88.6524C64.2889 88.6524 64.0733 88.9758 64.0733 89.3743C64.0733 89.7728 64.2889 90.0962 64.5546 90.0962Z" fill="#8807F7"/>
</g>
<g opacity="0.5">
<g filter="url(#filter2_d_6286_87256)">
<circle cx="6.79426" cy="6.79426" r="6.79426" transform="matrix(0 1 1 0 168.734 82.8496)" fill="white"/>
<circle cx="6.79426" cy="6.79426" r="6.79426" transform="matrix(0 1 1 0 168.734 82.8496)" stroke="#8807F7" stroke-width="0.886682"/>
</g>
<path d="M175.9 86.0195C173.773 86.0195 172.049 87.7434 172.049 89.87C172.049 91.9962 173.773 93.7197 175.9 93.7197C178.026 93.7201 179.75 91.9962 179.75 89.87C179.75 87.7434 178.026 86.0195 175.9 86.0195ZM177.262 90.9414C177.31 90.8832 177.378 90.8461 177.453 90.838C177.529 90.8299 177.604 90.8516 177.663 90.8983C177.722 90.945 177.761 91.013 177.771 91.0878C177.78 91.1627 177.76 91.2383 177.715 91.2986C177.499 91.5736 177.223 91.7958 176.909 91.9485C176.594 92.1013 176.249 92.1805 175.9 92.1802C175.183 92.1802 174.521 91.8518 174.086 91.3009C174.062 91.2712 174.045 91.2371 174.034 91.2006C174.024 91.1641 174.021 91.126 174.025 91.0883C174.03 91.0506 174.042 91.0142 174.06 90.9811C174.079 90.948 174.103 90.9189 174.133 90.8954C174.163 90.8719 174.197 90.8544 174.233 90.8441C174.27 90.8338 174.308 90.8307 174.346 90.8351C174.383 90.8396 174.42 90.8513 174.453 90.8698C174.486 90.8883 174.515 90.9132 174.539 90.9429C174.701 91.1488 174.907 91.3152 175.143 91.4295C175.379 91.5438 175.638 91.6031 175.9 91.6027C176.438 91.6027 176.935 91.3564 177.262 90.9414ZM177.054 88.6188C177.119 88.617 177.183 88.6281 177.243 88.6515C177.303 88.6748 177.357 88.71 177.403 88.7548C177.45 88.7997 177.486 88.8533 177.511 88.9126C177.536 88.9718 177.549 89.0355 177.549 89.0999C177.549 89.1642 177.536 89.2279 177.511 89.2872C177.486 89.3464 177.45 89.4001 177.403 89.4449C177.357 89.4898 177.303 89.5249 177.243 89.5483C177.183 89.5716 177.119 89.5827 177.054 89.5809C176.929 89.5773 176.81 89.5251 176.723 89.4353C176.636 89.3455 176.587 89.2251 176.587 89.0999C176.587 88.9746 176.636 88.8543 176.723 88.7644C176.81 88.6746 176.929 88.6224 177.054 88.6188ZM174.745 88.6188C174.809 88.617 174.873 88.6281 174.933 88.6515C174.993 88.6748 175.048 88.71 175.094 88.7548C175.14 88.7997 175.176 88.8533 175.202 88.9126C175.227 88.9718 175.239 89.0355 175.239 89.0999C175.239 89.1642 175.227 89.2279 175.202 89.2872C175.176 89.3464 175.14 89.4001 175.094 89.4449C175.048 89.4898 174.993 89.5249 174.933 89.5483C174.873 89.5716 174.809 89.5827 174.745 89.5809C174.619 89.5773 174.501 89.5251 174.413 89.4353C174.326 89.3455 174.277 89.2251 174.277 89.0999C174.277 88.9746 174.326 88.8543 174.413 88.7644C174.501 88.6746 174.619 88.6224 174.745 88.6188Z" fill="#8807F7"/>
</g>
<g clip-path="url(#clip3_6286_87256)" filter="url(#filter3_f_6286_87256)">
<path d="M120.266 96.3C118.855 96.3 117.502 96.082 116.504 95.694C115.506 95.306 114.946 94.7797 114.946 94.231C114.946 93.6823 115.506 93.1561 116.504 92.7681C117.502 92.3801 118.855 92.1621 120.266 92.1621C121.677 92.1621 123.03 92.3801 124.028 92.7681C125.025 93.1561 125.586 93.6823 125.586 94.231C125.586 94.7797 125.025 95.306 124.028 95.694C123.03 96.082 121.677 96.3 120.266 96.3ZM120.931 93.8431C120.931 94.0572 121.229 94.231 121.596 94.231C121.963 94.231 122.261 94.0572 122.261 93.8431C122.261 93.629 121.963 93.4552 121.596 93.4552C121.229 93.4552 120.931 93.629 120.931 93.8431ZM122.736 95.3775C122.813 95.3603 122.868 95.3321 122.891 95.299C122.914 95.2658 122.902 95.2305 122.858 95.2008C122.595 95.0239 122.218 94.8769 121.763 94.7747C121.307 94.6726 120.791 94.6189 120.266 94.619C119.74 94.6189 119.224 94.6727 118.769 94.7748C118.314 94.877 117.936 95.0239 117.674 95.2008C117.63 95.2305 117.619 95.2657 117.642 95.2986C117.665 95.3316 117.72 95.3597 117.796 95.3767C117.872 95.3938 117.963 95.3985 118.048 95.3898C118.133 95.381 118.205 95.3596 118.25 95.3302C118.454 95.1925 118.748 95.0782 119.102 94.9987C119.456 94.9193 119.857 94.8775 120.266 94.8776C120.675 94.8775 121.076 94.9193 121.43 94.9987C121.784 95.0782 122.078 95.1925 122.282 95.3302C122.326 95.3598 122.399 95.3815 122.484 95.3904C122.569 95.3993 122.66 95.3946 122.736 95.3775ZM118.936 94.231C119.303 94.231 119.601 94.0572 119.601 93.8431C119.601 93.629 119.303 93.4552 118.936 93.4552C118.569 93.4552 118.271 93.629 118.271 93.8431C118.271 94.0572 118.569 94.231 118.936 94.231Z" fill="#8807F7"/>
</g>
<g filter="url(#filter4_d_6286_87256)">
<circle cx="6.79426" cy="6.79426" r="6.79426" transform="matrix(0 1 1 0 113.766 83.3027)" fill="white"/>
<circle cx="6.79426" cy="6.79426" r="6.79426" transform="matrix(0 1 1 0 113.766 83.3027)" stroke="#8807F7" stroke-width="0.886682"/>
</g>
<g clip-path="url(#clip4_6286_87256)">
<path d="M120.33 94.1728C119.309 94.1728 118.329 93.7672 117.607 93.0452C116.885 92.3231 116.48 91.3438 116.48 90.3227C116.48 89.3016 116.885 88.3223 117.607 87.6003C118.329 86.8783 119.309 86.4727 120.33 86.4727C121.351 86.4727 122.33 86.8783 123.052 87.6003C123.774 88.3223 124.18 89.3016 124.18 90.3227C124.18 91.3438 123.774 92.3231 123.052 93.0452C122.33 93.7672 121.351 94.1728 120.33 94.1728ZM122.014 89.3602H121.051C120.988 89.3602 120.926 89.3856 120.881 89.4307C120.836 89.4758 120.811 89.537 120.811 89.6008C120.811 89.6647 120.836 89.7259 120.881 89.771C120.926 89.8161 120.988 89.8415 121.051 89.8415H122.014C122.078 89.8415 122.139 89.8161 122.184 89.771C122.229 89.7259 122.255 89.6647 122.255 89.6008C122.255 89.537 122.229 89.4758 122.184 89.4307C122.139 89.3856 122.078 89.3602 122.014 89.3602ZM119.608 89.3602H118.645C118.581 89.3602 118.52 89.3856 118.475 89.4307C118.43 89.4758 118.405 89.537 118.405 89.6008C118.405 89.6647 118.43 89.7259 118.475 89.771C118.52 89.8161 118.581 89.8415 118.645 89.8415H119.608C119.672 89.8415 119.733 89.8161 119.778 89.771C119.823 89.7259 119.848 89.6647 119.848 89.6008C119.848 89.537 119.823 89.4758 119.778 89.4307C119.733 89.3856 119.672 89.3602 119.608 89.3602ZM122.014 91.2853H118.645C118.581 91.2853 118.52 91.3106 118.475 91.3557C118.43 91.4009 118.405 91.4621 118.405 91.5259C118.405 91.5897 118.43 91.6509 118.475 91.696C118.52 91.7412 118.581 91.7665 118.645 91.7665H122.014C122.078 91.7665 122.139 91.7412 122.184 91.696C122.229 91.6509 122.255 91.5897 122.255 91.5259C122.255 91.4621 122.229 91.4009 122.184 91.3557C122.139 91.3106 122.078 91.2853 122.014 91.2853Z" fill="#8807F7"/>
</g>
<rect x="25.6875" y="188.613" width="211.03" height="39.014" rx="4.72897" fill="#F3F4F6"/>
<path d="M39.4278 210.121C39.4278 207.763 40.1643 206.563 41.3891 205.396V204.576H37.7561V205.255H40.7353C39.825 206.132 38.6416 207.365 38.6416 210.121H39.4278ZM43.9787 210.204C45.4932 210.204 46.2049 208.954 46.2049 207.34C46.2049 205.743 45.4932 204.494 43.9787 204.494C42.456 204.494 41.7443 205.743 41.7443 207.34C41.7443 208.954 42.456 210.204 43.9787 210.204ZM43.987 209.517C42.8863 209.517 42.5056 208.615 42.5056 207.34C42.5056 206.083 42.8863 205.172 43.987 205.172C45.0794 205.172 45.4518 206.083 45.4518 207.34C45.4518 208.615 45.0794 209.517 43.987 209.517ZM47.0988 210.965C47.6616 210.899 47.8188 210.609 47.8188 210.121V209.045H46.9499V210.121H47.3554V210.237C47.3554 210.469 47.223 210.527 46.9416 210.568L47.0988 210.965ZM50.7916 210.204C52.3061 210.204 53.0178 208.954 53.0178 207.34C53.0178 205.743 52.3061 204.494 50.7916 204.494C49.2689 204.494 48.5572 205.743 48.5572 207.34C48.5572 208.954 49.2689 210.204 50.7916 210.204ZM50.7999 209.517C49.6992 209.517 49.3185 208.615 49.3185 207.34C49.3185 206.083 49.6992 205.172 50.7999 205.172C51.8923 205.172 52.2647 206.083 52.2647 207.34C52.2647 208.615 51.8923 209.517 50.7999 209.517ZM56.0609 210.204C57.5754 210.204 58.2871 208.954 58.2871 207.34C58.2871 205.743 57.5754 204.494 56.0609 204.494C54.5382 204.494 53.8265 205.743 53.8265 207.34C53.8265 208.954 54.5382 210.204 56.0609 210.204ZM56.0692 209.517C54.9685 209.517 54.5878 208.615 54.5878 207.34C54.5878 206.083 54.9685 205.172 56.0692 205.172C57.1616 205.172 57.534 206.083 57.534 207.34C57.534 208.615 57.1616 209.517 56.0692 209.517ZM61.3302 210.204C62.8446 210.204 63.5564 208.954 63.5564 207.34C63.5564 205.743 62.8446 204.494 61.3302 204.494C59.8075 204.494 59.0958 205.743 59.0958 207.34C59.0958 208.954 59.8075 210.204 61.3302 210.204ZM61.3385 209.517C60.2378 209.517 59.8571 208.615 59.8571 207.34C59.8571 206.083 60.2378 205.172 61.3385 205.172C62.4309 205.172 62.8033 206.083 62.8033 207.34C62.8033 208.615 62.4309 209.517 61.3385 209.517Z" fill="#8807F7"/>
<path d="M34.0334 61.482L29.0532 56.5166C28.9941 56.4575 28.9523 56.3935 28.9279 56.3245C28.903 56.2555 28.8906 56.1816 28.8906 56.1028C28.8906 56.024 28.903 55.9501 28.9279 55.8812C28.9523 55.8122 28.9941 55.7482 29.0532 55.689L34.0334 50.7088C34.1713 50.5709 34.3437 50.502 34.5506 50.502C34.7575 50.502 34.9348 50.5758 35.0826 50.7236C35.2304 50.8714 35.3043 51.0438 35.3043 51.2409C35.3043 51.4379 35.2304 51.6103 35.0826 51.7581L30.7379 56.1028L35.0826 60.4476C35.2206 60.5855 35.2895 60.7554 35.2895 60.9571C35.2895 61.1593 35.2156 61.3343 35.0678 61.482C34.9201 61.6298 34.7477 61.7037 34.5506 61.7037C34.3536 61.7037 34.1812 61.6298 34.0334 61.482Z" fill="#3D0072"/>
<path opacity="0.35" fill-rule="evenodd" clip-rule="evenodd" d="M234.219 19.3535C233.539 19.3535 233.27 19.399 232.992 19.5291C232.758 19.639 232.576 19.7984 232.45 20.0038C232.302 20.247 232.25 20.4827 232.25 21.0787V23.7366C232.25 24.3326 232.302 24.5683 232.45 24.8115C232.576 25.0169 232.758 25.1763 232.992 25.2862C233.27 25.4163 233.539 25.4618 234.219 25.4618H244.449C245.129 25.4618 245.398 25.4163 245.676 25.2862C245.91 25.1763 246.092 25.0169 246.218 24.8115C246.366 24.5683 246.418 24.3326 246.418 23.7366V21.0787C246.418 20.4827 246.366 20.247 246.218 20.0038C246.092 19.7984 245.91 19.639 245.676 19.5291C245.398 19.399 245.129 19.3535 244.449 19.3535H234.219Z" stroke="black" stroke-width="0.591121"/>
<path opacity="0.4" d="M247.43 21.2246V23.5891C247.973 23.3888 248.326 22.923 248.326 22.4069C248.326 21.8907 247.973 21.4249 247.43 21.2246Z" fill="black"/>
<path d="M234.411 20.2402H244.249C244.65 20.2402 244.795 20.2768 244.942 20.3455C245.088 20.4142 245.203 20.515 245.282 20.6434C245.36 20.7719 245.402 20.8993 245.402 21.2506V23.5647C245.402 23.9161 245.36 24.0435 245.282 24.1719C245.203 24.3004 245.088 24.4012 244.942 24.4699C244.795 24.5385 244.65 24.5751 244.249 24.5751H234.411C234.01 24.5751 233.865 24.5385 233.718 24.4699C233.571 24.4012 233.456 24.3004 233.378 24.1719C233.3 24.0435 233.258 23.9161 233.258 23.5647V21.2506C233.258 20.8993 233.3 20.7719 233.378 20.6434C233.456 20.515 233.571 20.4142 233.718 20.3455C233.865 20.2768 234.01 20.2402 234.411 20.2402Z" fill="black"/>
<path d="M223.368 20.407C224.869 20.4071 226.313 20.912 227.4 21.8173C227.482 21.8872 227.613 21.8864 227.694 21.8154L228.477 21.1236C228.518 21.0876 228.541 21.0388 228.54 20.988C228.54 20.9373 228.516 20.8887 228.475 20.8532C225.62 18.4578 221.116 18.4578 218.261 20.8532C218.219 20.8887 218.196 20.9372 218.195 20.988C218.195 21.0387 218.218 21.0875 218.259 21.1236L219.042 21.8154C219.122 21.8865 219.253 21.8873 219.335 21.8173C220.423 20.9119 221.867 20.407 223.368 20.407ZM223.368 22.6578C224.193 22.6577 224.988 22.9261 225.599 23.4107C225.682 23.4794 225.812 23.478 225.893 23.4073L226.675 22.7155C226.716 22.6792 226.739 22.63 226.738 22.5788C226.738 22.5277 226.714 22.4789 226.672 22.4433C224.81 20.9275 221.927 20.9275 220.066 22.4433C220.024 22.4789 220 22.5277 219.999 22.5789C219.999 22.63 220.022 22.6793 220.063 22.7155L220.845 23.4073C220.925 23.478 221.056 23.4794 221.138 23.4107C221.749 22.9264 222.544 22.6581 223.368 22.6578ZM224.871 24.3088C224.913 24.2729 224.936 24.2234 224.935 24.1721C224.934 24.1208 224.908 24.0723 224.865 24.0378C224.001 23.3981 222.735 23.3981 221.871 24.0378C221.828 24.0722 221.802 24.1208 221.801 24.1721C221.8 24.2234 221.823 24.2729 221.865 24.3088L223.218 25.5041C223.258 25.5392 223.312 25.559 223.368 25.559C223.424 25.559 223.479 25.5392 223.518 25.5041L224.871 24.3088Z" fill="black"/>
<path d="M204.034 23.1947H204.709C205.081 23.1947 205.383 23.4594 205.383 23.7858V24.9681C205.383 25.2945 205.081 25.5592 204.709 25.5592H204.034C203.661 25.5592 203.359 25.2945 203.359 24.9681V23.7858C203.359 23.4594 203.661 23.1947 204.034 23.1947ZM207.182 22.0125H207.857C208.23 22.0125 208.532 22.2771 208.532 22.6036V24.9681C208.532 25.2945 208.23 25.5592 207.857 25.5592H207.182C206.81 25.5592 206.508 25.2945 206.508 24.9681V22.6036C206.508 22.2771 206.81 22.0125 207.182 22.0125ZM210.331 20.6332H211.006C211.378 20.6332 211.68 20.8978 211.68 21.2243V24.9681C211.68 25.2945 211.378 25.5592 211.006 25.5592H210.331C209.958 25.5592 209.656 25.2945 209.656 24.9681V21.2243C209.656 20.8978 209.958 20.6332 210.331 20.6332ZM213.479 19.2539H214.154C214.527 19.2539 214.829 19.5186 214.829 19.845V24.9681C214.829 25.2945 214.527 25.5592 214.154 25.5592H213.479C213.107 25.5592 212.805 25.2945 212.805 24.9681V19.845C212.805 19.5186 213.107 19.2539 213.479 19.2539Z" fill="black"/>
<path d="M27.5035 19.6282C27.6749 19.5573 27.8523 19.4775 28.0355 19.3888C28.2247 19.2942 28.4079 19.1937 28.5852 19.0873C28.7626 18.975 28.931 18.8598 29.0907 18.7415C29.2562 18.6174 29.4039 18.4873 29.534 18.3514H30.4561V24.4961H29.135V20.0715C28.9576 20.1898 28.7596 20.2991 28.5409 20.3996C28.3222 20.4942 28.1094 20.577 27.9025 20.6479L27.5035 19.6282ZM36.3203 19.9651C36.3203 20.1898 36.276 20.4055 36.1873 20.6124C36.0986 20.8193 35.9834 21.0203 35.8415 21.2154C35.6996 21.4045 35.54 21.5878 35.3627 21.7651C35.1853 21.9424 35.011 22.1109 34.8395 22.2705C34.7509 22.3533 34.6533 22.4479 34.5469 22.5543C34.4464 22.6548 34.3489 22.7582 34.2543 22.8646C34.1597 22.971 34.074 23.0715 33.9972 23.1661C33.9263 23.2547 33.8819 23.3286 33.8642 23.3877H36.5065V24.4961H32.41C32.3982 24.4311 32.3923 24.3483 32.3923 24.2478C32.3923 24.1473 32.3923 24.0764 32.3923 24.035C32.3923 23.7513 32.4366 23.4912 32.5253 23.2547C32.6199 23.0183 32.7411 22.7996 32.8888 22.5986C33.0366 22.3917 33.2021 22.1996 33.3854 22.0223C33.5745 21.8449 33.7607 21.6676 33.944 21.4902C34.0859 21.3543 34.2189 21.2272 34.343 21.109C34.4671 20.9848 34.5765 20.8666 34.6711 20.7543C34.7656 20.6361 34.8395 20.5208 34.8927 20.4085C34.9459 20.2903 34.9725 20.172 34.9725 20.0538C34.9725 19.7937 34.8987 19.6105 34.7509 19.5041C34.6031 19.3977 34.4198 19.3445 34.2011 19.3445C34.0415 19.3445 33.8908 19.3711 33.7489 19.4243C33.613 19.4716 33.4859 19.5307 33.3676 19.6016C33.2553 19.6666 33.1578 19.7346 33.075 19.8055C32.9923 19.8706 32.9302 19.9238 32.8888 19.9651L32.2327 19.043C32.4928 18.8006 32.7943 18.6026 33.1371 18.4489C33.4859 18.2893 33.8583 18.2095 34.2543 18.2095C34.6149 18.2095 34.9253 18.2509 35.1853 18.3337C35.4454 18.4164 35.6582 18.5346 35.8238 18.6883C35.9952 18.8361 36.1193 19.0194 36.1962 19.2381C36.2789 19.4509 36.3203 19.6932 36.3203 19.9651ZM38.8771 20.6479C38.8771 20.9139 38.7914 21.1178 38.62 21.2597C38.4545 21.3957 38.2653 21.4636 38.0525 21.4636C37.8397 21.4636 37.6476 21.3957 37.4762 21.2597C37.3107 21.1178 37.2279 20.9139 37.2279 20.6479C37.2279 20.3819 37.3107 20.1809 37.4762 20.0449C37.6476 19.9031 37.8397 19.8321 38.0525 19.8321C38.2653 19.8321 38.4545 19.9031 38.62 20.0449C38.7914 20.1809 38.8771 20.3819 38.8771 20.6479ZM38.8771 23.7956C38.8771 24.0616 38.7914 24.2656 38.62 24.4074C38.4545 24.5434 38.2653 24.6114 38.0525 24.6114C37.8397 24.6114 37.6476 24.5434 37.4762 24.4074C37.3107 24.2656 37.2279 24.0616 37.2279 23.7956C37.2279 23.5296 37.3107 23.3286 37.4762 23.1927C37.6476 23.0508 37.8397 22.9799 38.0525 22.9799C38.2653 22.9799 38.4545 23.0508 38.62 23.1927C38.7914 23.3286 38.8771 23.5296 38.8771 23.7956ZM43.8788 21.4104C43.8788 22.4449 43.6808 23.24 43.2848 23.7956C42.8946 24.3454 42.3538 24.6202 41.6621 24.6202C40.9705 24.6202 40.4267 24.3454 40.0306 23.7956C39.6405 23.24 39.4454 22.4449 39.4454 21.4104C39.4454 20.8962 39.4957 20.441 39.5962 20.0449C39.7026 19.6489 39.8533 19.3149 40.0484 19.043C40.2435 18.7711 40.4769 18.5642 40.7489 18.4223C41.0208 18.2805 41.3252 18.2095 41.6621 18.2095C42.3538 18.2095 42.8946 18.4873 43.2848 19.043C43.6808 19.5927 43.8788 20.3819 43.8788 21.4104ZM42.5311 21.4104C42.5311 21.1031 42.5163 20.8252 42.4868 20.577C42.4572 20.3228 42.4099 20.1041 42.3449 19.9208C42.2799 19.7376 42.1912 19.5957 42.0789 19.4952C41.9666 19.3947 41.8277 19.3445 41.6621 19.3445C41.4966 19.3445 41.3577 19.3947 41.2454 19.4952C41.139 19.5957 41.0503 19.7376 40.9794 19.9208C40.9144 20.1041 40.8671 20.3228 40.8375 20.577C40.808 20.8252 40.7932 21.1031 40.7932 21.4104C40.7932 21.7178 40.808 21.9986 40.8375 22.2528C40.8671 22.507 40.9144 22.7257 40.9794 22.9089C41.0503 23.0922 41.139 23.234 41.2454 23.3345C41.3577 23.435 41.4966 23.4853 41.6621 23.4853C41.8277 23.4853 41.9666 23.435 42.0789 23.3345C42.1912 23.234 42.2799 23.0922 42.3449 22.9089C42.4099 22.7257 42.4572 22.507 42.4868 22.2528C42.5163 21.9986 42.5311 21.7178 42.5311 21.4104ZM48.9184 21.4104C48.9184 22.4449 48.7204 23.24 48.3243 23.7956C47.9342 24.3454 47.3933 24.6202 46.7017 24.6202C46.0101 24.6202 45.4662 24.3454 45.0702 23.7956C44.68 23.24 44.485 22.4449 44.485 21.4104C44.485 20.8962 44.5352 20.441 44.6357 20.0449C44.7421 19.6489 44.8929 19.3149 45.0879 19.043C45.283 18.7711 45.5165 18.5642 45.7884 18.4223C46.0603 18.2805 46.3647 18.2095 46.7017 18.2095C47.3933 18.2095 47.9342 18.4873 48.3243 19.043C48.7204 19.5927 48.9184 20.3819 48.9184 21.4104ZM47.5706 21.4104C47.5706 21.1031 47.5559 20.8252 47.5263 20.577C47.4967 20.3228 47.4495 20.1041 47.3844 19.9208C47.3194 19.7376 47.2307 19.5957 47.1184 19.4952C47.0061 19.3947 46.8672 19.3445 46.7017 19.3445C46.5362 19.3445 46.3973 19.3947 46.2849 19.4952C46.1785 19.5957 46.0899 19.7376 46.0189 19.9208C45.9539 20.1041 45.9066 20.3228 45.8771 20.577C45.8475 20.8252 45.8327 21.1031 45.8327 21.4104C45.8327 21.7178 45.8475 21.9986 45.8771 22.2528C45.9066 22.507 45.9539 22.7257 46.0189 22.9089C46.0899 23.0922 46.1785 23.234 46.2849 23.3345C46.3973 23.435 46.5362 23.4853 46.7017 23.4853C46.8672 23.4853 47.0061 23.435 47.1184 23.3345C47.2307 23.234 47.3194 23.0922 47.3844 22.9089C47.4495 22.7257 47.4967 22.507 47.5263 22.2528C47.5559 21.9986 47.5706 21.7178 47.5706 21.4104Z" fill="black"/>
</g>
<rect x="4.5" y="4.5" width="254" height="360" rx="20.5" stroke="#8807F7"/>
<rect x="2.5" y="2.5" width="258" height="564" rx="25.5" stroke="#8807F7" stroke-width="5"/>
<defs>
<filter id="filter0_d_6286_87256" x="219.189" y="80.585" width="22.6449" height="22.6469" filterUnits="userSpaceOnUse" color-interpolation-filters="sRGB">
<feFlood flood-opacity="0" result="BackgroundImageFix"/>
<feColorMatrix in="SourceAlpha" type="matrix" values="0 0 0 0 0 0 0 0 0 0 0 0 0 0 0 0 0 0 127 0" result="hardAlpha"/>
<feOffset dy="1.8118"/>
<feGaussianBlur stdDeviation="2.26475"/>
<feComposite in2="hardAlpha" operator="out"/>
<feColorMatrix type="matrix" values="0 0 0 0 0.533333 0 0 0 0 0.027451 0 0 0 0 0.968627 0 0 0 0.07 0"/>
<feBlend mode="normal" in2="BackgroundImageFix" result="effect1_dropShadow_6286_87256"/>
<feBlend mode="normal" in="SourceGraphic" in2="effect1_dropShadow_6286_87256" result="shape"/>
</filter>
<filter id="filter1_d_6286_87256" x="54.2242" y="80.9382" width="23.0439" height="23.0458" filterUnits="userSpaceOnUse" color-interpolation-filters="sRGB">
<feFlood flood-opacity="0" result="BackgroundImageFix"/>
<feColorMatrix in="SourceAlpha" type="matrix" values="0 0 0 0 0 0 0 0 0 0 0 0 0 0 0 0 0 0 127 0" result="hardAlpha"/>
<feOffset dy="2.36449"/>
<feGaussianBlur stdDeviation="2.36449"/>
<feComposite in2="hardAlpha" operator="out"/>
<feColorMatrix type="matrix" values="0 0 0 0 0.412084 0 0 0 0 0 0 0 0 0 0.766667 0 0 0 0.12 0"/>
<feBlend mode="normal" in2="BackgroundImageFix" result="effect1_dropShadow_6286_87256"/>
<feBlend mode="normal" in="SourceGraphic" in2="effect1_dropShadow_6286_87256" result="shape"/>
</filter>
<filter id="filter2_d_6286_87256" x="163.76" y="79.6885" width="23.5356" height="23.5336" filterUnits="userSpaceOnUse" color-interpolation-filters="sRGB">
<feFlood flood-opacity="0" result="BackgroundImageFix"/>
<feColorMatrix in="SourceAlpha" type="matrix" values="0 0 0 0 0 0 0 0 0 0 0 0 0 0 0 0 0 0 127 0" result="hardAlpha"/>
<feOffset dy="1.8118"/>
<feGaussianBlur stdDeviation="2.26475"/>
<feComposite in2="hardAlpha" operator="out"/>
<feColorMatrix type="matrix" values="0 0 0 0 0.533333 0 0 0 0 0.027451 0 0 0 0 0.968627 0 0 0 0.07 0"/>
<feBlend mode="normal" in2="BackgroundImageFix" result="effect1_dropShadow_6286_87256"/>
<feBlend mode="normal" in="SourceGraphic" in2="effect1_dropShadow_6286_87256" result="shape"/>
</filter>
<filter id="filter3_f_6286_87256" x="97.2117" y="74.4285" width="46.1079" height="39.606" filterUnits="userSpaceOnUse" color-interpolation-filters="sRGB">
<feFlood flood-opacity="0" result="BackgroundImageFix"/>
<feBlend mode="normal" in="SourceGraphic" in2="BackgroundImageFix" result="shape"/>
<feGaussianBlur stdDeviation="8.86682" result="effect1_foregroundBlur_6286_87256"/>
</filter>
<filter id="filter4_d_6286_87256" x="108.791" y="80.1417" width="23.5356" height="23.5336" filterUnits="userSpaceOnUse" color-interpolation-filters="sRGB">
<feFlood flood-opacity="0" result="BackgroundImageFix"/>
<feColorMatrix in="SourceAlpha" type="matrix" values="0 0 0 0 0 0 0 0 0 0 0 0 0 0 0 0 0 0 127 0" result="hardAlpha"/>
<feOffset dy="1.8118"/>
<feGaussianBlur stdDeviation="2.26475"/>
<feComposite in2="hardAlpha" operator="out"/>
<feColorMatrix type="matrix" values="0 0 0 0 0.533333 0 0 0 0 0.027451 0 0 0 0 0.968627 0 0 0 0.07 0"/>
<feBlend mode="normal" in2="BackgroundImageFix" result="effect1_dropShadow_6286_87256"/>
<feBlend mode="normal" in="SourceGraphic" in2="effect1_dropShadow_6286_87256" result="shape"/>
</filter>
<clipPath id="clip0_6286_87256">
<rect x="5" y="5" width="253" height="359" rx="20" fill="white"/>
</clipPath>
<clipPath id="clip1_6286_87256">
<rect width="7.70016" height="7.70016" fill="white" transform="matrix(-1 0 0 1 234.594 86.0195)"/>
</clipPath>
<clipPath id="clip2_6286_87256">
<rect width="7.70016" height="7.70016" fill="white" transform="matrix(-1 0 0 1 69.3672 86.2461)"/>
</clipPath>
<clipPath id="clip3_6286_87256">
<rect width="10.6402" height="4.13785" fill="white" transform="matrix(-1 0 0 1 125.586 92.1621)"/>
</clipPath>
<clipPath id="clip4_6286_87256">
<rect width="7.70016" height="7.70016" fill="white" transform="matrix(-1 0 0 1 124.18 86.4727)"/>
</clipPath>
</defs>
</svg>
