<svg width="575" height="577" viewBox="0 0 575 577" fill="none" xmlns="http://www.w3.org/2000/svg">
<rect width="575" height="577" rx="24" fill="white"/>
<path d="M81.452 93V84.698H84.42V83.62H77.28V84.698H80.248V93H81.452ZM87.0658 93.14C88.9418 93.14 90.2718 91.754 90.2718 89.612C90.2718 87.47 88.9418 86.084 87.0658 86.084C85.1898 86.084 83.8738 87.47 83.8738 89.612C83.8738 91.754 85.1898 93.14 87.0658 93.14ZM87.0658 92.118C85.9178 92.118 85.1198 91.32 85.1198 89.612C85.1198 87.89 85.9178 87.106 87.0658 87.106C88.2278 87.106 89.0398 87.89 89.0398 89.612C89.0398 91.32 88.2278 92.118 87.0658 92.118ZM93.9596 93.154C94.8976 93.154 95.5416 92.72 95.8356 92.258L95.4296 91.054C95.2476 91.474 94.8276 91.978 94.2256 91.978C93.6936 91.978 93.2876 91.768 93.2876 90.9V87.176H95.5136V86.224H93.2876V84.46L92.0696 85.356V86.224H90.9776V87.176H92.0696V91.264C92.0696 92.426 92.8536 93.154 93.9596 93.154ZM98.2322 93.14C99.6322 93.14 100.36 92.132 100.584 91.236V91.712C100.584 92.664 101.088 93 101.788 93H102.572V91.894H102.138C101.886 91.894 101.76 91.796 101.76 91.474V88.688C101.76 87.078 100.864 86.084 99.1982 86.084C97.6862 86.084 96.6782 86.938 96.2722 87.638L97.0982 88.492C97.4482 87.75 98.0922 87.19 99.0582 87.19C100.122 87.19 100.5 87.778 100.542 88.576L98.0922 89.668C97.1262 90.102 96.4402 90.676 96.4402 91.586C96.4402 92.482 97.0842 93.14 98.2322 93.14ZM97.6722 91.39C97.6722 90.97 97.9662 90.69 98.6102 90.382L100.584 89.458V90.396C100.584 91.376 99.7722 92.132 98.6242 92.132C97.9942 92.132 97.6722 91.852 97.6722 91.39ZM105.201 93V83.62H103.983V93H105.201ZM114.14 93C116.17 93 117.374 92.076 117.374 90.48C117.374 89.276 116.688 88.31 114.728 88.1C116.296 87.932 116.954 87.022 116.954 86.014C116.954 84.586 116.002 83.62 114.21 83.62H110.248V93H114.14ZM113.79 84.698C114.91 84.698 115.694 85.048 115.694 86.168C115.694 87.302 114.924 87.638 113.846 87.638H111.466V84.698H113.79ZM113.986 88.73C115.204 88.73 116.114 89.192 116.114 90.326C116.114 91.446 115.428 91.922 113.944 91.922H111.466V88.73H113.986ZM120.435 93.14C121.835 93.14 122.563 92.132 122.787 91.236V91.712C122.787 92.664 123.291 93 123.991 93H124.775V91.894H124.341C124.089 91.894 123.963 91.796 123.963 91.474V88.688C123.963 87.078 123.067 86.084 121.401 86.084C119.889 86.084 118.881 86.938 118.475 87.638L119.301 88.492C119.651 87.75 120.295 87.19 121.261 87.19C122.325 87.19 122.703 87.778 122.745 88.576L120.295 89.668C119.329 90.102 118.643 90.676 118.643 91.586C118.643 92.482 119.287 93.14 120.435 93.14ZM119.875 91.39C119.875 90.97 120.169 90.69 120.813 90.382L122.787 89.458V90.396C122.787 91.376 121.975 92.132 120.827 92.132C120.197 92.132 119.875 91.852 119.875 91.39ZM127.404 93V83.62H126.186V93H127.404ZM130.635 93.14C132.035 93.14 132.763 92.132 132.987 91.236V91.712C132.987 92.664 133.491 93 134.191 93H134.975V91.894H134.541C134.289 91.894 134.163 91.796 134.163 91.474V88.688C134.163 87.078 133.267 86.084 131.601 86.084C130.089 86.084 129.081 86.938 128.675 87.638L129.501 88.492C129.851 87.75 130.495 87.19 131.461 87.19C132.525 87.19 132.903 87.778 132.945 88.576L130.495 89.668C129.529 90.102 128.843 90.676 128.843 91.586C128.843 92.482 129.487 93.14 130.635 93.14ZM130.075 91.39C130.075 90.97 130.369 90.69 131.013 90.382L132.987 89.458V90.396C132.987 91.376 132.175 92.132 131.027 92.132C130.397 92.132 130.075 91.852 130.075 91.39ZM137.603 93V89.164C137.603 88.03 138.079 87.12 139.381 87.12C140.529 87.12 140.879 87.736 140.879 88.618V93H142.083V88.324C142.083 86.882 141.257 86.084 139.927 86.084C138.597 86.084 137.869 86.98 137.603 88.03V86.224H136.385V93H137.603ZM146.677 93.14C148.441 93.14 149.477 92.118 149.799 90.76L148.609 90.27C148.469 91.348 147.909 92.132 146.691 92.132C145.459 92.132 144.717 91.208 144.717 89.612C144.717 88.016 145.459 87.106 146.691 87.106C147.909 87.106 148.469 87.876 148.609 88.954L149.799 88.464C149.477 87.106 148.441 86.084 146.677 86.084C144.731 86.084 143.485 87.47 143.485 89.612C143.485 91.768 144.731 93.14 146.677 93.14ZM154.007 93.14C155.477 93.14 156.415 92.454 156.919 91.642L156.177 90.802C155.911 91.39 155.365 92.132 154.007 92.132C152.803 92.132 152.005 91.32 151.935 89.892H156.961C156.989 89.766 157.017 89.556 157.017 89.346C157.017 87.358 155.855 86.084 153.937 86.084C152.075 86.084 150.759 87.47 150.759 89.612C150.759 91.768 152.089 93.14 154.007 93.14ZM153.937 87.106C155.071 87.106 155.799 87.764 155.925 89.01H151.963C152.117 87.75 152.845 87.106 153.937 87.106Z" fill="#3D0072"/>
<path d="M82.012 126V115.668L81.788 112.252L83.496 114.912L91.28 126H94.192V107.24H91.028V117.544L91.224 121.1L89.376 118.16L81.788 107.24H78.848V126H82.012ZM104.767 126.28C108.799 126.28 111.571 123.564 111.571 119.784C111.571 116.396 109.863 113.764 106.083 113.764C103.199 113.764 101.295 115.416 100.903 118.188V116.396C100.903 111.412 102.807 110.068 104.991 110.068C106.867 110.068 108.239 111.104 109.079 112.784L111.235 110.18C110.059 108.276 107.931 106.96 105.159 106.96C100.147 106.96 97.4873 110.376 97.4873 116.396V116.704C97.4873 123.676 100.259 126.28 104.767 126.28ZM104.683 123.284C102.443 123.284 101.127 122.08 101.127 119.504C101.127 117.376 102.527 116.228 104.739 116.228C107.119 116.228 108.183 117.656 108.183 119.784C108.183 121.772 106.867 123.284 104.683 123.284ZM115.054 129.248C117.154 129.024 117.966 127.932 117.966 126.056V122.024H114.382V126H116.034V126.364C116.034 127.288 115.418 127.484 114.41 127.596L115.054 129.248ZM127.49 126.28C131.522 126.28 134.294 123.564 134.294 119.784C134.294 116.396 132.586 113.764 128.806 113.764C125.922 113.764 124.018 115.416 123.626 118.188V116.396C123.626 111.412 125.53 110.068 127.714 110.068C129.59 110.068 130.962 111.104 131.802 112.784L133.958 110.18C132.782 108.276 130.654 106.96 127.882 106.96C122.87 106.96 120.21 110.376 120.21 116.396V116.704C120.21 123.676 122.982 126.28 127.49 126.28ZM127.406 123.284C125.166 123.284 123.85 122.08 123.85 119.504C123.85 117.376 125.25 116.228 127.462 116.228C129.842 116.228 130.906 117.656 130.906 119.784C130.906 121.772 129.59 123.284 127.406 123.284ZM144.399 126.252C149.635 126.252 152.267 122.108 152.267 116.592C152.267 111.104 149.635 106.96 144.399 106.96C139.163 106.96 136.503 111.104 136.503 116.592C136.503 122.108 139.163 126.252 144.399 126.252ZM144.399 123.228C141.067 123.228 139.835 120.54 139.835 116.592C139.835 112.672 141.067 109.956 144.399 109.956C147.759 109.956 148.963 112.672 148.963 116.592C148.963 120.54 147.759 123.228 144.399 123.228ZM162.692 126.252C167.928 126.252 170.56 122.108 170.56 116.592C170.56 111.104 167.928 106.96 162.692 106.96C157.456 106.96 154.796 111.104 154.796 116.592C154.796 122.108 157.456 126.252 162.692 126.252ZM162.692 123.228C159.36 123.228 158.128 120.54 158.128 116.592C158.128 112.672 159.36 109.956 162.692 109.956C166.052 109.956 167.256 112.672 167.256 116.592C167.256 120.54 166.052 123.228 162.692 123.228Z" fill="#3D0072"/>
<path d="M78.282 270V260.62H77.064V270H78.282ZM81.5463 270V266.164C81.5463 265.03 82.0223 264.12 83.3243 264.12C84.4723 264.12 84.8223 264.736 84.8223 265.618V270H86.0263V265.324C86.0263 263.882 85.2003 263.084 83.8703 263.084C82.5403 263.084 81.8123 263.98 81.5463 265.03V263.224H80.3283V270H81.5463ZM89.9108 270.154C90.8488 270.154 91.4928 269.72 91.7868 269.258L91.3808 268.054C91.1988 268.474 90.7788 268.978 90.1768 268.978C89.6448 268.978 89.2388 268.768 89.2388 267.9V264.176H91.4648V263.224H89.2388V261.46L88.0208 262.356V263.224H86.9288V264.176H88.0208V268.264C88.0208 269.426 88.8048 270.154 89.9108 270.154ZM95.3939 270.14C96.8639 270.14 97.8019 269.454 98.3059 268.642L97.5639 267.802C97.2979 268.39 96.7519 269.132 95.3939 269.132C94.1899 269.132 93.3919 268.32 93.3219 266.892H98.3479C98.3759 266.766 98.4039 266.556 98.4039 266.346C98.4039 264.358 97.2419 263.084 95.3239 263.084C93.4619 263.084 92.1459 264.47 92.1459 266.612C92.1459 268.768 93.4759 270.14 95.3939 270.14ZM95.3239 264.106C96.4579 264.106 97.1859 264.764 97.3119 266.01H93.3499C93.5039 264.75 94.2319 264.106 95.3239 264.106ZM101.165 270V266.164C101.165 265.002 101.949 263.98 102.817 263.98C103.307 263.98 103.517 264.316 103.517 264.708C103.517 265.086 103.335 265.506 103.111 265.702H104.441C104.553 265.534 104.707 265.114 104.707 264.54C104.707 263.588 104.007 263.07 103.279 263.07C102.131 263.07 101.431 263.98 101.165 265.03V263.224H99.9474V270H101.165ZM108.56 270.14C110.03 270.14 110.968 269.454 111.472 268.642L110.73 267.802C110.464 268.39 109.918 269.132 108.56 269.132C107.356 269.132 106.558 268.32 106.488 266.892H111.514C111.542 266.766 111.57 266.556 111.57 266.346C111.57 264.358 110.408 263.084 108.49 263.084C106.628 263.084 105.312 264.47 105.312 266.612C105.312 268.768 106.642 270.14 108.56 270.14ZM108.49 264.106C109.624 264.106 110.352 264.764 110.478 266.01H106.516C106.67 264.75 107.398 264.106 108.49 264.106ZM115.636 270.14C116.952 270.14 118.1 269.538 118.1 268.194C118.1 267.256 117.596 266.626 116.07 266.262L115.202 266.038C114.278 265.814 113.83 265.604 113.83 265.002C113.83 264.428 114.334 264.12 115.034 264.12C116 264.12 116.644 264.624 116.98 265.422L117.904 264.736C117.526 263.84 116.532 263.084 115.104 263.084C113.634 263.084 112.682 263.84 112.682 265.072C112.682 266.318 113.732 266.78 114.698 267.004L115.594 267.214C116.392 267.396 117.008 267.592 117.008 268.208C117.008 268.81 116.476 269.118 115.678 269.118C114.334 269.118 113.592 268.348 113.354 267.578L112.472 268.264C112.934 269.524 114.222 270.14 115.636 270.14ZM121.63 270.154C122.568 270.154 123.212 269.72 123.506 269.258L123.1 268.054C122.918 268.474 122.498 268.978 121.896 268.978C121.364 268.978 120.958 268.768 120.958 267.9V264.176H123.184V263.224H120.958V261.46L119.74 262.356V263.224H118.648V264.176H119.74V268.264C119.74 269.426 120.524 270.154 121.63 270.154Z" fill="#3D0072"/>
<path d="M81.012 303V292.668L80.788 289.252L82.496 291.912L90.28 303H93.192V284.24H90.028V294.544L90.224 298.1L88.376 295.16L80.788 284.24H77.848V303H81.012ZM103.767 303.28C107.799 303.28 110.571 300.564 110.571 296.784C110.571 293.396 108.863 290.764 105.083 290.764C102.199 290.764 100.295 292.416 99.9033 295.188V293.396C99.9033 288.412 101.807 287.068 103.991 287.068C105.867 287.068 107.239 288.104 108.079 289.784L110.235 287.18C109.059 285.276 106.931 283.96 104.159 283.96C99.1472 283.96 96.4873 287.376 96.4873 293.396V293.704C96.4873 300.676 99.2593 303.28 103.767 303.28ZM103.683 300.284C101.443 300.284 100.127 299.08 100.127 296.504C100.127 294.376 101.527 293.228 103.739 293.228C106.119 293.228 107.183 294.656 107.183 296.784C107.183 298.772 105.867 300.284 103.683 300.284ZM120.676 303.252C125.912 303.252 128.544 299.108 128.544 293.592C128.544 288.104 125.912 283.96 120.676 283.96C115.44 283.96 112.78 288.104 112.78 293.592C112.78 299.108 115.44 303.252 120.676 303.252ZM120.676 300.228C117.344 300.228 116.112 297.54 116.112 293.592C116.112 289.672 117.344 286.956 120.676 286.956C124.036 286.956 125.24 289.672 125.24 293.592C125.24 297.54 124.036 300.228 120.676 300.228ZM138.969 303.252C144.205 303.252 146.837 299.108 146.837 293.592C146.837 288.104 144.205 283.96 138.969 283.96C133.733 283.96 131.073 288.104 131.073 293.592C131.073 299.108 133.733 303.252 138.969 303.252ZM138.969 300.228C135.637 300.228 134.405 297.54 134.405 293.592C134.405 289.672 135.637 286.956 138.969 286.956C142.329 286.956 143.533 289.672 143.533 293.592C143.533 297.54 142.329 300.228 138.969 300.228ZM160.789 303.84C159.529 302.412 157.373 298.632 157.373 293.62C157.373 288.608 159.557 284.828 160.789 283.4H159.417C157.961 284.632 155.553 288.216 155.553 293.62C155.553 299.024 158.045 302.608 159.417 303.84H160.789ZM182.738 303V301.376H174.758L172.406 301.488L174.31 299.836L177.978 296.28C179.658 294.656 182.346 292.052 182.346 289.028C182.346 286.172 180.666 283.96 177.026 283.96C172.742 283.96 170.082 286.928 170.474 290.624L172.182 291.716C171.706 287.964 173.498 285.724 176.914 285.724C179.462 285.724 180.47 287.404 180.47 289.14C180.47 291.352 178.818 293.144 176.886 295.076L170.362 301.572V303H182.738ZM189.127 292.444C191.423 292.444 193.131 290.792 193.131 288.216C193.131 285.64 191.423 283.988 189.127 283.988C186.831 283.988 185.151 285.64 185.151 288.216C185.151 290.792 186.831 292.444 189.127 292.444ZM188.063 303L201.279 284.24H199.319L186.103 303H188.063ZM189.127 291.072C187.587 291.072 186.663 289.952 186.663 288.216C186.663 286.48 187.587 285.332 189.127 285.332C190.667 285.332 191.619 286.48 191.619 288.216C191.619 289.952 190.667 291.072 189.127 291.072ZM198.339 303C200.635 303 202.343 301.348 202.343 298.772C202.343 296.196 200.635 294.544 198.339 294.544C196.043 294.544 194.363 296.196 194.363 298.772C194.363 301.348 196.043 303 198.339 303ZM198.339 301.628C196.799 301.628 195.875 300.508 195.875 298.772C195.875 297.036 196.799 295.888 198.339 295.888C199.879 295.888 200.831 297.036 200.831 298.772C200.831 300.508 199.907 301.628 198.339 301.628ZM205.75 303.84C207.122 302.608 209.614 299.024 209.614 293.62C209.614 288.216 207.206 284.632 205.75 283.4H204.378C205.61 284.828 207.794 288.608 207.794 293.62C207.794 298.632 205.638 302.412 204.378 303.84H205.75Z" fill="#3D0072"/>
<path d="M80.452 358V349.698H83.42V348.62H76.28V349.698H79.248V358H80.452ZM86.0658 358.14C87.9418 358.14 89.2718 356.754 89.2718 354.612C89.2718 352.47 87.9418 351.084 86.0658 351.084C84.1898 351.084 82.8738 352.47 82.8738 354.612C82.8738 356.754 84.1898 358.14 86.0658 358.14ZM86.0658 357.118C84.9178 357.118 84.1198 356.32 84.1198 354.612C84.1198 352.89 84.9178 352.106 86.0658 352.106C87.2278 352.106 88.0398 352.89 88.0398 354.612C88.0398 356.32 87.2278 357.118 86.0658 357.118ZM92.9596 358.154C93.8976 358.154 94.5416 357.72 94.8356 357.258L94.4296 356.054C94.2476 356.474 93.8276 356.978 93.2256 356.978C92.6936 356.978 92.2876 356.768 92.2876 355.9V352.176H94.5136V351.224H92.2876V349.46L91.0696 350.356V351.224H89.9776V352.176H91.0696V356.264C91.0696 357.426 91.8536 358.154 92.9596 358.154ZM97.2322 358.14C98.6322 358.14 99.3602 357.132 99.5842 356.236V356.712C99.5842 357.664 100.088 358 100.788 358H101.572V356.894H101.138C100.886 356.894 100.76 356.796 100.76 356.474V353.688C100.76 352.078 99.8642 351.084 98.1982 351.084C96.6862 351.084 95.6782 351.938 95.2722 352.638L96.0982 353.492C96.4482 352.75 97.0922 352.19 98.0582 352.19C99.1222 352.19 99.5002 352.778 99.5422 353.576L97.0922 354.668C96.1262 355.102 95.4402 355.676 95.4402 356.586C95.4402 357.482 96.0842 358.14 97.2322 358.14ZM96.6722 356.39C96.6722 355.97 96.9662 355.69 97.6102 355.382L99.5842 354.458V355.396C99.5842 356.376 98.7722 357.132 97.6242 357.132C96.9942 357.132 96.6722 356.852 96.6722 356.39ZM104.201 358V348.62H102.983V358H104.201ZM112.874 358.14C114.694 358.14 116.052 357.16 116.052 355.536C116.052 353.688 114.596 353.17 113.266 352.848L112.244 352.596C111.166 352.33 110.48 351.98 110.48 351.042C110.48 350.174 111.25 349.656 112.286 349.656C113.504 349.656 114.456 350.174 114.904 351.448L115.926 350.636C115.352 349.236 114.008 348.494 112.314 348.494C110.676 348.494 109.192 349.418 109.192 351.126C109.192 352.89 110.606 353.45 111.852 353.73L112.734 353.926C113.98 354.22 114.806 354.486 114.806 355.564C114.806 356.586 113.924 356.992 112.874 356.992C111.698 356.992 110.242 356.446 109.808 354.92L108.884 355.732C109.5 357.468 111.11 358.14 112.874 358.14ZM119.08 358.14C120.48 358.14 121.208 357.132 121.432 356.236V356.712C121.432 357.664 121.936 358 122.636 358H123.42V356.894H122.986C122.734 356.894 122.608 356.796 122.608 356.474V353.688C122.608 352.078 121.712 351.084 120.046 351.084C118.534 351.084 117.526 351.938 117.12 352.638L117.946 353.492C118.296 352.75 118.94 352.19 119.906 352.19C120.97 352.19 121.348 352.778 121.39 353.576L118.94 354.668C117.974 355.102 117.288 355.676 117.288 356.586C117.288 357.482 117.932 358.14 119.08 358.14ZM118.52 356.39C118.52 355.97 118.814 355.69 119.458 355.382L121.432 354.458V355.396C121.432 356.376 120.62 357.132 119.472 357.132C118.842 357.132 118.52 356.852 118.52 356.39ZM127.679 358L130.143 351.224H128.841L127.511 355.242L126.937 357.104L126.349 355.242L125.005 351.224H123.689L126.139 358H127.679ZM132.365 350.132V348.62H131.147V350.132H132.365ZM132.365 358V351.224H131.147V358H132.365ZM135.413 358V354.164C135.413 353.03 135.889 352.12 137.191 352.12C138.339 352.12 138.689 352.736 138.689 353.618V358H139.893V353.324C139.893 351.882 139.067 351.084 137.737 351.084C136.407 351.084 135.679 351.98 135.413 353.03V351.224H134.195V358H135.413ZM144.265 355.928C145.861 355.928 146.939 354.92 146.939 353.506C146.939 352.666 146.547 351.952 145.903 351.532L147.149 350.132L145.889 349.684L145.469 351.308C145.119 351.168 144.713 351.084 144.265 351.084C142.669 351.084 141.591 352.092 141.591 353.506C141.591 354.36 141.983 355.074 142.655 355.494C141.997 356.026 141.591 356.614 141.591 357.146C141.591 357.594 141.815 357.916 142.249 358.056C141.731 358.266 141.157 358.644 141.157 359.274C141.157 360.17 142.249 360.744 143.985 360.744C146.267 360.744 147.527 359.834 147.527 358.546C147.527 357.524 146.757 357.034 145.525 357.034H143.481C142.781 357.034 142.585 356.852 142.585 356.488C142.585 356.194 142.781 355.872 142.949 355.648C143.327 355.83 143.775 355.928 144.265 355.928ZM144.265 354.99C143.425 354.99 142.767 354.43 142.767 353.506C142.767 352.582 143.425 352.022 144.265 352.022C145.119 352.022 145.763 352.582 145.763 353.506C145.763 354.43 145.119 354.99 144.265 354.99ZM143.985 359.778C142.767 359.778 142.137 359.442 142.137 358.896C142.137 358.574 142.375 358.28 142.599 358.084H145.371C146.057 358.084 146.393 358.28 146.393 358.714C146.393 359.386 145.525 359.778 143.985 359.778ZM151.169 358.14C152.485 358.14 153.633 357.538 153.633 356.194C153.633 355.256 153.129 354.626 151.603 354.262L150.735 354.038C149.811 353.814 149.363 353.604 149.363 353.002C149.363 352.428 149.867 352.12 150.567 352.12C151.533 352.12 152.177 352.624 152.513 353.422L153.437 352.736C153.059 351.84 152.065 351.084 150.637 351.084C149.167 351.084 148.215 351.84 148.215 353.072C148.215 354.318 149.265 354.78 150.231 355.004L151.127 355.214C151.925 355.396 152.541 355.592 152.541 356.208C152.541 356.81 152.009 357.118 151.211 357.118C149.867 357.118 149.125 356.348 148.887 355.578L148.005 356.264C148.467 357.524 149.755 358.14 151.169 358.14Z" fill="#3D0072"/>
<path d="M81.012 391V380.668L80.788 377.252L82.496 379.912L90.28 391H93.192V372.24H90.028V382.544L90.224 386.1L88.376 383.16L80.788 372.24H77.848V391H81.012ZM103.767 391.28C107.799 391.28 110.571 388.564 110.571 384.784C110.571 381.396 108.863 378.764 105.083 378.764C102.199 378.764 100.295 380.416 99.9033 383.188V381.396C99.9033 376.412 101.807 375.068 103.991 375.068C105.867 375.068 107.239 376.104 108.079 377.784L110.235 375.18C109.059 373.276 106.931 371.96 104.159 371.96C99.1472 371.96 96.4873 375.376 96.4873 381.396V381.704C96.4873 388.676 99.2593 391.28 103.767 391.28ZM103.683 388.284C101.443 388.284 100.127 387.08 100.127 384.504C100.127 382.376 101.527 381.228 103.739 381.228C106.119 381.228 107.183 382.656 107.183 384.784C107.183 386.772 105.867 388.284 103.683 388.284ZM114.054 394.248C116.154 394.024 116.966 392.932 116.966 391.056V387.024H113.382V391H115.034V391.364C115.034 392.288 114.418 392.484 113.41 392.596L114.054 394.248ZM126.965 391.252C132.201 391.252 134.833 387.108 134.833 381.592C134.833 376.104 132.201 371.96 126.965 371.96C121.729 371.96 119.069 376.104 119.069 381.592C119.069 387.108 121.729 391.252 126.965 391.252ZM126.965 388.228C123.633 388.228 122.401 385.54 122.401 381.592C122.401 377.672 123.633 374.956 126.965 374.956C130.325 374.956 131.529 377.672 131.529 381.592C131.529 385.54 130.325 388.228 126.965 388.228ZM145.258 391.252C150.494 391.252 153.126 387.108 153.126 381.592C153.126 376.104 150.494 371.96 145.258 371.96C140.022 371.96 137.362 376.104 137.362 381.592C137.362 387.108 140.022 391.252 145.258 391.252ZM145.258 388.228C141.926 388.228 140.694 385.54 140.694 381.592C140.694 377.672 141.926 374.956 145.258 374.956C148.618 374.956 149.822 377.672 149.822 381.592C149.822 385.54 148.618 388.228 145.258 388.228ZM163.551 391.252C168.787 391.252 171.419 387.108 171.419 381.592C171.419 376.104 168.787 371.96 163.551 371.96C158.315 371.96 155.655 376.104 155.655 381.592C155.655 387.108 158.315 391.252 163.551 391.252ZM163.551 388.228C160.219 388.228 158.987 385.54 158.987 381.592C158.987 377.672 160.219 374.956 163.551 374.956C166.911 374.956 168.115 377.672 168.115 381.592C168.115 385.54 166.911 388.228 163.551 388.228ZM185.371 391.84C184.111 390.412 181.955 386.632 181.955 381.62C181.955 376.608 184.139 372.828 185.371 371.4H183.999C182.543 372.632 180.135 376.216 180.135 381.62C180.135 387.024 182.627 390.608 183.999 391.84H185.371ZM207.32 391V389.376H199.34L196.988 389.488L198.892 387.836L202.56 384.28C204.24 382.656 206.928 380.052 206.928 377.028C206.928 374.172 205.248 371.96 201.608 371.96C197.324 371.96 194.664 374.928 195.056 378.624L196.764 379.716C196.288 375.964 198.08 373.724 201.496 373.724C204.044 373.724 205.052 375.404 205.052 377.14C205.052 379.352 203.4 381.144 201.468 383.076L194.944 389.572V391H207.32ZM213.709 380.444C216.005 380.444 217.713 378.792 217.713 376.216C217.713 373.64 216.005 371.988 213.709 371.988C211.413 371.988 209.733 373.64 209.733 376.216C209.733 378.792 211.413 380.444 213.709 380.444ZM212.645 391L225.861 372.24H223.901L210.685 391H212.645ZM213.709 379.072C212.169 379.072 211.245 377.952 211.245 376.216C211.245 374.48 212.169 373.332 213.709 373.332C215.249 373.332 216.201 374.48 216.201 376.216C216.201 377.952 215.249 379.072 213.709 379.072ZM222.921 391C225.217 391 226.925 389.348 226.925 386.772C226.925 384.196 225.217 382.544 222.921 382.544C220.625 382.544 218.945 384.196 218.945 386.772C218.945 389.348 220.625 391 222.921 391ZM222.921 389.628C221.381 389.628 220.457 388.508 220.457 386.772C220.457 385.036 221.381 383.888 222.921 383.888C224.461 383.888 225.413 385.036 225.413 386.772C225.413 388.508 224.489 389.628 222.921 389.628ZM230.332 391.84C231.704 390.608 234.196 387.024 234.196 381.62C234.196 376.216 231.788 372.632 230.332 371.4H228.96C230.192 372.828 232.376 376.608 232.376 381.62C232.376 386.632 230.22 390.412 228.96 391.84H230.332Z" fill="#3D0072"/>
<path d="M81.36 186.16C83.44 186.16 84.992 185.04 84.992 183.184C84.992 181.072 83.328 180.48 81.808 180.112L80.64 179.824C79.408 179.52 78.624 179.12 78.624 178.048C78.624 177.056 79.504 176.464 80.688 176.464C82.08 176.464 83.168 177.056 83.68 178.512L84.848 177.584C84.192 175.984 82.656 175.136 80.72 175.136C78.848 175.136 77.152 176.192 77.152 178.144C77.152 180.16 78.768 180.8 80.192 181.12L81.2 181.344C82.624 181.68 83.568 181.984 83.568 183.216C83.568 184.384 82.56 184.848 81.36 184.848C80.016 184.848 78.352 184.224 77.856 182.48L76.8 183.408C77.504 185.392 79.344 186.16 81.36 186.16ZM88.4529 186.16C90.0529 186.16 90.8849 185.008 91.1409 183.984V184.528C91.1409 185.616 91.7169 186 92.5169 186H93.4129V184.736H92.9169C92.6289 184.736 92.4849 184.624 92.4849 184.256V181.072C92.4849 179.232 91.4609 178.096 89.5569 178.096C87.8289 178.096 86.6769 179.072 86.2129 179.872L87.1569 180.848C87.5569 180 88.2929 179.36 89.3969 179.36C90.6129 179.36 91.0449 180.032 91.0929 180.944L88.2929 182.192C87.1889 182.688 86.4049 183.344 86.4049 184.384C86.4049 185.408 87.1409 186.16 88.4529 186.16ZM87.8129 184.16C87.8129 183.68 88.1489 183.36 88.8849 183.008L91.1409 181.952V183.024C91.1409 184.144 90.2129 185.008 88.9009 185.008C88.1809 185.008 87.8129 184.688 87.8129 184.16ZM98.281 186L101.097 178.256H99.609L98.089 182.848L97.433 184.976L96.761 182.848L95.225 178.256H93.721L96.521 186H98.281ZM103.636 177.008V175.28H102.243V177.008H103.636ZM103.636 186V178.256H102.243V186H103.636ZM107.12 186V181.616C107.12 180.32 107.664 179.28 109.152 179.28C110.464 179.28 110.864 179.984 110.864 180.992V186H112.24V180.656C112.24 179.008 111.296 178.096 109.776 178.096C108.256 178.096 107.424 179.12 107.12 180.32V178.256H105.728V186H107.12ZM117.236 183.632C119.06 183.632 120.292 182.48 120.292 180.864C120.292 179.904 119.844 179.088 119.108 178.608L120.532 177.008L119.092 176.496L118.612 178.352C118.212 178.192 117.748 178.096 117.236 178.096C115.412 178.096 114.18 179.248 114.18 180.864C114.18 181.84 114.628 182.656 115.396 183.136C114.644 183.744 114.18 184.416 114.18 185.024C114.18 185.536 114.436 185.904 114.932 186.064C114.34 186.304 113.684 186.736 113.684 187.456C113.684 188.48 114.932 189.136 116.916 189.136C119.524 189.136 120.964 188.096 120.964 186.624C120.964 185.456 120.084 184.896 118.676 184.896H116.34C115.54 184.896 115.316 184.688 115.316 184.272C115.316 183.936 115.54 183.568 115.732 183.312C116.164 183.52 116.676 183.632 117.236 183.632ZM117.236 182.56C116.276 182.56 115.524 181.92 115.524 180.864C115.524 179.808 116.276 179.168 117.236 179.168C118.212 179.168 118.948 179.808 118.948 180.864C118.948 181.92 118.212 182.56 117.236 182.56ZM116.916 188.032C115.524 188.032 114.804 187.648 114.804 187.024C114.804 186.656 115.076 186.32 115.332 186.096H118.5C119.284 186.096 119.668 186.32 119.668 186.816C119.668 187.584 118.676 188.032 116.916 188.032ZM126.174 186V181.888H124.926V180.864H126.174V179.552H124.926V178.528H126.174V174.576H127.838L129.358 178.528H131.246V174.576H132.51V178.528H133.758V179.552H132.51V180.864H133.758V181.888H132.51V186H130.83L129.31 181.888H127.422V186H126.174ZM127.422 180.864H128.926L128.446 179.552H127.39L127.422 180.864ZM131.246 183.744H131.31L131.262 181.888H130.59L131.246 183.744ZM127.39 178.528H128.062L127.39 176.544H127.326L127.39 178.528ZM130.206 180.864H131.278L131.246 179.552H129.726L130.206 180.864ZM142.466 186V184.768H138.034L136.722 184.864L137.874 183.888L139.538 182.32C140.514 181.392 142.194 179.792 142.194 178.032C142.194 176.384 141.25 175.12 139.154 175.12C136.69 175.12 135.01 176.816 135.234 178.928L136.53 179.744C136.258 177.616 137.266 176.464 139.058 176.464C140.274 176.464 140.754 177.264 140.754 178.128C140.754 179.312 139.842 180.304 138.674 181.456L135.17 184.912V186H142.466ZM144.481 187.632C145.569 187.504 145.873 186.944 145.873 186V183.92H144.193V186H144.977V186.224C144.977 186.672 144.721 186.784 144.177 186.864L144.481 187.632ZM151.62 186.16C154.548 186.16 155.924 183.744 155.924 180.624C155.924 177.536 154.548 175.12 151.62 175.12C148.676 175.12 147.3 177.536 147.3 180.624C147.3 183.744 148.676 186.16 151.62 186.16ZM151.636 184.832C149.508 184.832 148.772 183.088 148.772 180.624C148.772 178.192 149.508 176.432 151.636 176.432C153.748 176.432 154.468 178.192 154.468 180.624C154.468 183.088 153.748 184.832 151.636 184.832ZM161.808 186.16C164.736 186.16 166.112 183.744 166.112 180.624C166.112 177.536 164.736 175.12 161.808 175.12C158.864 175.12 157.488 177.536 157.488 180.624C157.488 183.744 158.864 186.16 161.808 186.16ZM161.824 184.832C159.696 184.832 158.96 183.088 158.96 180.624C158.96 178.192 159.696 176.432 161.824 176.432C163.936 176.432 164.656 178.192 164.656 180.624C164.656 183.088 163.936 184.832 161.824 184.832ZM171.995 186.16C174.923 186.16 176.299 183.744 176.299 180.624C176.299 177.536 174.923 175.12 171.995 175.12C169.051 175.12 167.675 177.536 167.675 180.624C167.675 183.744 169.051 186.16 171.995 186.16ZM172.011 184.832C169.883 184.832 169.147 183.088 169.147 180.624C169.147 178.192 169.883 176.432 172.011 176.432C174.123 176.432 174.843 178.192 174.843 180.624C174.843 183.088 174.123 184.832 172.011 184.832ZM183.073 186V181.616C183.073 180.32 183.617 179.28 184.785 179.28C185.953 179.28 186.481 179.84 186.481 180.976V186H187.873V181.616C187.873 180.32 188.417 179.28 189.601 179.28C190.753 179.28 191.297 179.84 191.297 180.976V186H192.673V180.64C192.673 179.008 191.889 178.096 190.369 178.096C188.961 178.096 188.161 179.136 187.857 180.368C187.777 178.912 186.993 178.096 185.569 178.096C184.177 178.096 183.377 179.12 183.073 180.304V178.256H181.681V186H183.073ZM197.816 186.16C199.96 186.16 201.48 184.576 201.48 182.128C201.48 179.68 199.96 178.096 197.816 178.096C195.672 178.096 194.168 179.68 194.168 182.128C194.168 184.576 195.672 186.16 197.816 186.16ZM197.816 184.992C196.504 184.992 195.592 184.08 195.592 182.128C195.592 180.16 196.504 179.264 197.816 179.264C199.144 179.264 200.072 180.16 200.072 182.128C200.072 184.08 199.144 184.992 197.816 184.992ZM204.62 186V181.616C204.62 180.32 205.164 179.28 206.652 179.28C207.964 179.28 208.364 179.984 208.364 180.992V186H209.74V180.656C209.74 179.008 208.796 178.096 207.276 178.096C205.756 178.096 204.924 179.12 204.62 180.32V178.256H203.228V186H204.62ZM214.179 186.176C215.251 186.176 215.987 185.68 216.323 185.152L215.859 183.776C215.651 184.256 215.171 184.832 214.483 184.832C213.875 184.832 213.411 184.592 213.411 183.6V179.344H215.955V178.256H213.411V176.24L212.019 177.264V178.256H210.771V179.344H212.019V184.016C212.019 185.344 212.915 186.176 214.179 186.176ZM219.089 186V181.616C219.089 180.32 219.633 179.28 221.121 179.28C222.433 179.28 222.833 179.984 222.833 180.992V186H224.209V180.656C224.209 179.008 223.265 178.096 221.745 178.096C220.225 178.096 219.393 179.12 219.089 180.32V175.28H217.697V186H219.089ZM227.667 186V175.28H226.275V186H227.667ZM230.911 188.528C231.999 188.528 232.863 188.064 233.359 186.64L236.335 178.256H234.847L233.199 183.232L232.655 184.896L232.111 183.232L230.447 178.256H228.959L231.567 185.584L232.431 185.568L232.271 186.064C231.967 187.008 231.551 187.312 230.927 187.312C230.191 187.312 229.791 186.848 229.423 186.224L228.671 187.28C229.007 187.92 229.807 188.528 230.911 188.528ZM242.994 186V179.344H245.49V178.256H242.994V177.424C242.994 176.688 243.314 176.272 244.034 176.272C244.722 176.272 245.218 176.688 245.522 177.248L246.29 176.256C245.97 175.76 245.234 175.12 244.049 175.12C242.594 175.12 241.602 175.984 241.602 177.536V178.256H240.338V179.344H241.602V186H242.994ZM249.582 186.16C251.726 186.16 253.246 184.576 253.246 182.128C253.246 179.68 251.726 178.096 249.582 178.096C247.438 178.096 245.934 179.68 245.934 182.128C245.934 184.576 247.438 186.16 249.582 186.16ZM249.582 184.992C248.27 184.992 247.358 184.08 247.358 182.128C247.358 180.16 248.27 179.264 249.582 179.264C250.91 179.264 251.838 180.16 251.838 182.128C251.838 184.08 250.91 184.992 249.582 184.992ZM256.386 186V181.616C256.386 180.288 257.282 179.12 258.274 179.12C258.834 179.12 259.074 179.504 259.074 179.952C259.074 180.384 258.866 180.864 258.61 181.088H260.13C260.258 180.896 260.434 180.416 260.434 179.76C260.434 178.672 259.634 178.08 258.802 178.08C257.49 178.08 256.69 179.12 256.386 180.32V178.256H254.993V186H256.386ZM269.259 186.16C271.595 186.16 273.067 184.976 273.067 183.232C273.067 181.84 272.363 180.624 270.411 180.464C271.771 180.272 272.587 179.136 272.587 178.032C272.587 176.656 271.659 175.12 269.179 175.12C267.259 175.12 265.851 176.272 265.403 177.728L266.587 178.72C266.779 177.248 267.771 176.464 269.147 176.464C270.523 176.464 271.131 177.312 271.131 178.336C271.131 179.456 270.459 180.032 269.115 180.032H267.355V181.232H269.099C270.587 181.232 271.595 181.808 271.595 183.088C271.595 184.176 270.811 184.832 269.435 184.832C267.419 184.832 266.731 183.744 266.411 182.112L265.227 183.168C265.579 184.784 266.939 186.16 269.259 186.16ZM279.932 186V181.616C279.932 180.32 280.476 179.28 281.644 179.28C282.812 179.28 283.34 179.84 283.34 180.976V186H284.732V181.616C284.732 180.32 285.276 179.28 286.46 179.28C287.612 179.28 288.156 179.84 288.156 180.976V186H289.532V180.64C289.532 179.008 288.748 178.096 287.228 178.096C285.82 178.096 285.02 179.136 284.716 180.368C284.636 178.912 283.852 178.096 282.428 178.096C281.036 178.096 280.236 179.12 279.932 180.304V178.256H278.54V186H279.932ZM294.676 186.16C296.82 186.16 298.34 184.576 298.34 182.128C298.34 179.68 296.82 178.096 294.676 178.096C292.532 178.096 291.028 179.68 291.028 182.128C291.028 184.576 292.532 186.16 294.676 186.16ZM294.676 184.992C293.364 184.992 292.452 184.08 292.452 182.128C292.452 180.16 293.364 179.264 294.676 179.264C296.004 179.264 296.932 180.16 296.932 182.128C296.932 184.08 296.004 184.992 294.676 184.992ZM301.479 186V181.616C301.479 180.32 302.023 179.28 303.511 179.28C304.823 179.28 305.223 179.984 305.223 180.992V186H306.599V180.656C306.599 179.008 305.655 178.096 304.135 178.096C302.615 178.096 301.783 179.12 301.479 180.32V178.256H300.087V186H301.479ZM311.039 186.176C312.111 186.176 312.847 185.68 313.183 185.152L312.719 183.776C312.511 184.256 312.031 184.832 311.343 184.832C310.735 184.832 310.271 184.592 310.271 183.6V179.344H312.815V178.256H310.271V176.24L308.879 177.264V178.256H307.631V179.344H308.879V184.016C308.879 185.344 309.775 186.176 311.039 186.176ZM315.948 186V181.616C315.948 180.32 316.492 179.28 317.98 179.28C319.292 179.28 319.692 179.984 319.692 180.992V186H321.068V180.656C321.068 179.008 320.124 178.096 318.604 178.096C317.084 178.096 316.252 179.12 315.948 180.32V175.28H314.556V186H315.948ZM325.908 186.16C327.412 186.16 328.724 185.472 328.724 183.936C328.724 182.864 328.148 182.144 326.404 181.728L325.412 181.472C324.356 181.216 323.844 180.976 323.844 180.288C323.844 179.632 324.42 179.28 325.22 179.28C326.324 179.28 327.06 179.856 327.444 180.768L328.5 179.984C328.068 178.96 326.932 178.096 325.3 178.096C323.62 178.096 322.532 178.96 322.532 180.368C322.532 181.792 323.732 182.32 324.836 182.576L325.86 182.816C326.772 183.024 327.476 183.248 327.476 183.952C327.476 184.64 326.868 184.992 325.956 184.992C324.42 184.992 323.572 184.112 323.3 183.232L322.292 184.016C322.82 185.456 324.292 186.16 325.908 186.16ZM336.797 186L338.125 181.472L338.653 179.408L339.149 181.472L340.477 186H342.301L344.301 178.256H342.749L341.757 183.024L341.389 184.992L340.893 183.024L339.501 178.256H337.789L336.381 183.024L335.901 184.992L335.533 183.024L334.525 178.256H332.973L334.989 186H336.797ZM346.932 177.008V175.28H345.54V177.008H346.932ZM346.932 186V178.256H345.54V186H346.932ZM350.417 186V175.28H349.025V186H350.417ZM353.901 186V175.28H352.509V186H353.901ZM360.901 186V181.616C360.901 180.288 361.797 179.12 362.789 179.12C363.349 179.12 363.589 179.504 363.589 179.952C363.589 180.384 363.381 180.864 363.125 181.088H364.645C364.773 180.896 364.949 180.416 364.949 179.76C364.949 178.672 364.149 178.08 363.317 178.08C362.005 178.08 361.205 179.12 360.901 180.32V178.256H359.509V186H360.901ZM369.352 186.16C371.032 186.16 372.104 185.376 372.68 184.448L371.832 183.488C371.528 184.16 370.904 185.008 369.352 185.008C367.976 185.008 367.064 184.08 366.984 182.448H372.728C372.76 182.304 372.792 182.064 372.792 181.824C372.792 179.552 371.464 178.096 369.272 178.096C367.144 178.096 365.64 179.68 365.64 182.128C365.64 184.592 367.16 186.16 369.352 186.16ZM369.272 179.264C370.568 179.264 371.4 180.016 371.544 181.44H367.016C367.192 180 368.024 179.264 369.272 179.264ZM377.439 186.16C378.943 186.16 380.255 185.472 380.255 183.936C380.255 182.864 379.679 182.144 377.935 181.728L376.943 181.472C375.887 181.216 375.375 180.976 375.375 180.288C375.375 179.632 375.951 179.28 376.751 179.28C377.855 179.28 378.591 179.856 378.975 180.768L380.031 179.984C379.599 178.96 378.463 178.096 376.831 178.096C375.151 178.096 374.063 178.96 374.063 180.368C374.063 181.792 375.263 182.32 376.367 182.576L377.391 182.816C378.303 183.024 379.007 183.248 379.007 183.952C379.007 184.64 378.399 184.992 377.487 184.992C375.951 184.992 375.103 184.112 374.831 183.232L373.823 184.016C374.351 185.456 375.823 186.16 377.439 186.16ZM384.113 186.16C385.665 186.16 386.497 185.104 386.785 183.888V186H388.161V178.256H386.785V182.656C386.785 183.936 386.241 184.992 384.737 184.992C383.425 184.992 383.025 184.272 383.025 183.28V178.256H381.649V183.616C381.649 185.248 382.593 186.16 384.113 186.16ZM391.667 186V175.28H390.275V186H391.667ZM396.351 186.176C397.423 186.176 398.159 185.68 398.495 185.152L398.031 183.776C397.823 184.256 397.343 184.832 396.655 184.832C396.047 184.832 395.583 184.592 395.583 183.6V179.344H398.127V178.256H395.583V176.24L394.191 177.264V178.256H392.943V179.344H394.191V184.016C394.191 185.344 395.087 186.176 396.351 186.176ZM404.667 177.008V175.28H403.275V177.008H404.667ZM404.667 186V178.256H403.275V186H404.667ZM408.151 186V181.616C408.151 180.32 408.695 179.28 410.183 179.28C411.495 179.28 411.895 179.984 411.895 180.992V186H413.271V180.656C413.271 179.008 412.327 178.096 410.807 178.096C409.287 178.096 408.455 179.12 408.151 180.32V178.256H406.759V186H408.151ZM420.453 186.16C422.053 186.16 422.885 185.008 423.141 183.984V184.528C423.141 185.616 423.717 186 424.517 186H425.413V184.736H424.917C424.629 184.736 424.485 184.624 424.485 184.256V181.072C424.485 179.232 423.461 178.096 421.557 178.096C419.829 178.096 418.677 179.072 418.213 179.872L419.157 180.848C419.557 180 420.293 179.36 421.397 179.36C422.613 179.36 423.045 180.032 423.093 180.944L420.293 182.192C419.189 182.688 418.405 183.344 418.405 184.384C418.405 185.408 419.141 186.16 420.453 186.16ZM419.813 184.16C419.813 183.68 420.149 183.36 420.885 183.008L423.141 181.952V183.024C423.141 184.144 422.213 185.008 420.901 185.008C420.181 185.008 419.813 184.688 419.813 184.16ZM78.448 212V210.016C78.72 211.2 79.456 212.192 80.944 212.192C82.912 212.192 84.128 210.592 84.128 208.144C84.128 205.696 82.912 204.096 80.944 204.096C79.456 204.096 78.72 205.088 78.448 206.272V201.28H77.056V212H78.448ZM78.448 208.704V207.6C78.448 206.32 78.992 205.28 80.464 205.28C81.712 205.28 82.72 206.176 82.72 208.144C82.72 210.128 81.712 211.024 80.464 211.024C78.992 211.024 78.448 209.984 78.448 208.704ZM87.4216 212.16C89.0216 212.16 89.8536 211.008 90.1096 209.984V210.528C90.1096 211.616 90.6856 212 91.4856 212H92.3816V210.736H91.8856C91.5976 210.736 91.4536 210.624 91.4536 210.256V207.072C91.4536 205.232 90.4296 204.096 88.5256 204.096C86.7976 204.096 85.6456 205.072 85.1816 205.872L86.1256 206.848C86.5256 206 87.2616 205.36 88.3656 205.36C89.5816 205.36 90.0136 206.032 90.0616 206.944L87.2616 208.192C86.1576 208.688 85.3736 209.344 85.3736 210.384C85.3736 211.408 86.1096 212.16 87.4216 212.16ZM86.7816 210.16C86.7816 209.68 87.1176 209.36 87.8536 209.008L90.1096 207.952V209.024C90.1096 210.144 89.1816 211.008 87.8696 211.008C87.1496 211.008 86.7816 210.688 86.7816 210.16ZM95.3855 212V201.28H93.9935V212H95.3855ZM99.0779 212.16C100.678 212.16 101.51 211.008 101.766 209.984V210.528C101.766 211.616 102.342 212 103.142 212H104.038V210.736H103.542C103.254 210.736 103.11 210.624 103.11 210.256V207.072C103.11 205.232 102.086 204.096 100.182 204.096C98.4539 204.096 97.3019 205.072 96.8379 205.872L97.7819 206.848C98.1819 206 98.9179 205.36 100.022 205.36C101.238 205.36 101.67 206.032 101.718 206.944L98.9179 208.192C97.8139 208.688 97.0299 209.344 97.0299 210.384C97.0299 211.408 97.7659 212.16 99.0779 212.16ZM98.4379 210.16C98.4379 209.68 98.7739 209.36 99.5099 209.008L101.766 207.952V209.024C101.766 210.144 100.838 211.008 99.5259 211.008C98.8059 211.008 98.4379 210.688 98.4379 210.16ZM107.042 212V207.616C107.042 206.32 107.586 205.28 109.074 205.28C110.386 205.28 110.786 205.984 110.786 206.992V212H112.162V206.656C112.162 205.008 111.218 204.096 109.698 204.096C108.178 204.096 107.346 205.12 107.042 206.32V204.256H105.65V212H107.042ZM117.413 212.16C119.429 212.16 120.613 210.992 120.981 209.44L119.621 208.88C119.461 210.112 118.821 211.008 117.429 211.008C116.021 211.008 115.173 209.952 115.173 208.128C115.173 206.304 116.021 205.264 117.429 205.264C118.821 205.264 119.461 206.144 119.621 207.376L120.981 206.816C120.613 205.264 119.429 204.096 117.413 204.096C115.189 204.096 113.765 205.68 113.765 208.128C113.765 210.592 115.189 212.16 117.413 212.16ZM125.79 212.16C127.47 212.16 128.542 211.376 129.118 210.448L128.27 209.488C127.966 210.16 127.342 211.008 125.79 211.008C124.414 211.008 123.502 210.08 123.422 208.448H129.166C129.198 208.304 129.23 208.064 129.23 207.824C129.23 205.552 127.902 204.096 125.71 204.096C123.582 204.096 122.078 205.68 122.078 208.128C122.078 210.592 123.598 212.16 125.79 212.16ZM125.71 205.264C127.006 205.264 127.838 206.016 127.982 207.44H123.454C123.63 206 124.462 205.264 125.71 205.264ZM137.644 212.16C139.788 212.16 141.308 210.576 141.308 208.128C141.308 205.68 139.788 204.096 137.644 204.096C135.5 204.096 133.996 205.68 133.996 208.128C133.996 210.576 135.5 212.16 137.644 212.16ZM137.644 210.992C136.332 210.992 135.42 210.08 135.42 208.128C135.42 206.16 136.332 205.264 137.644 205.264C138.972 205.264 139.9 206.16 139.9 208.128C139.9 210.08 138.972 210.992 137.644 210.992ZM144.931 212V205.344H147.427V204.256H144.931V203.424C144.931 202.688 145.251 202.272 145.971 202.272C146.659 202.272 147.155 202.688 147.459 203.248L148.227 202.256C147.907 201.76 147.171 201.12 145.987 201.12C144.531 201.12 143.539 201.984 143.539 203.536V204.256H142.275V205.344H143.539V212H144.931ZM152.502 212V207.888H151.254V206.864H152.502V205.552H151.254V204.528H152.502V200.576H154.166L155.686 204.528H157.574V200.576H158.838V204.528H160.086V205.552H158.838V206.864H160.086V207.888H158.838V212H157.158L155.638 207.888H153.75V212H152.502ZM153.75 206.864H155.254L154.774 205.552H153.718L153.75 206.864ZM157.574 209.744H157.638L157.59 207.888H156.918L157.574 209.744ZM153.718 204.528H154.39L153.718 202.544H153.654L153.718 204.528ZM156.534 206.864H157.606L157.574 205.552H156.054L156.534 206.864ZM165.178 212.16C167.37 212.16 168.874 210.576 168.874 208.496C168.874 206.544 167.914 204.96 165.722 204.96C163.978 204.96 162.81 206 162.634 207.808V206.64C162.634 203.296 163.898 202.464 165.194 202.464C166.33 202.464 167.13 203.168 167.53 204.24L168.73 203.248C168.106 201.984 166.922 201.12 165.306 201.12C162.666 201.12 161.162 203.008 161.162 206.496V206.688C161.162 210.928 162.842 212.16 165.178 212.16ZM165.146 210.832C163.706 210.832 162.794 210.096 162.794 208.352C162.794 206.96 163.786 206.256 165.178 206.256C166.714 206.256 167.402 207.168 167.402 208.576C167.402 209.856 166.538 210.832 165.146 210.832ZM170.965 213.632C172.053 213.504 172.357 212.944 172.357 212V209.92H170.677V212H171.461V212.224C171.461 212.672 171.205 212.784 170.661 212.864L170.965 213.632ZM177.897 212.16C180.089 212.16 181.593 210.576 181.593 208.496C181.593 206.544 180.633 204.96 178.441 204.96C176.697 204.96 175.529 206 175.353 207.808V206.64C175.353 203.296 176.617 202.464 177.913 202.464C179.049 202.464 179.849 203.168 180.249 204.24L181.449 203.248C180.825 201.984 179.641 201.12 178.025 201.12C175.385 201.12 173.881 203.008 173.881 206.496V206.688C173.881 210.928 175.561 212.16 177.897 212.16ZM177.865 210.832C176.425 210.832 175.513 210.096 175.513 208.352C175.513 206.96 176.505 206.256 177.897 206.256C179.433 206.256 180.121 207.168 180.121 208.576C180.121 209.856 179.257 210.832 177.865 210.832ZM187.245 212.16C190.173 212.16 191.549 209.744 191.549 206.624C191.549 203.536 190.173 201.12 187.245 201.12C184.301 201.12 182.925 203.536 182.925 206.624C182.925 209.744 184.301 212.16 187.245 212.16ZM187.261 210.832C185.133 210.832 184.397 209.088 184.397 206.624C184.397 204.192 185.133 202.432 187.261 202.432C189.373 202.432 190.093 204.192 190.093 206.624C190.093 209.088 189.373 210.832 187.261 210.832ZM197.433 212.16C200.361 212.16 201.737 209.744 201.737 206.624C201.737 203.536 200.361 201.12 197.433 201.12C194.489 201.12 193.113 203.536 193.113 206.624C193.113 209.744 194.489 212.16 197.433 212.16ZM197.449 210.832C195.321 210.832 194.585 209.088 194.585 206.624C194.585 204.192 195.321 202.432 197.449 202.432C199.561 202.432 200.281 204.192 200.281 206.624C200.281 209.088 199.561 210.832 197.449 210.832Z" fill="#6B7280"/>
<rect x="77" y="448" width="201" height="57" rx="28.5" fill="#8807F7"/>
<path d="M129.69 481.14C131.51 481.14 132.868 480.16 132.868 478.536C132.868 476.688 131.412 476.17 130.082 475.848L129.06 475.596C127.982 475.33 127.296 474.98 127.296 474.042C127.296 473.174 128.066 472.656 129.102 472.656C130.32 472.656 131.272 473.174 131.72 474.448L132.742 473.636C132.168 472.236 130.824 471.494 129.13 471.494C127.492 471.494 126.008 472.418 126.008 474.126C126.008 475.89 127.422 476.45 128.668 476.73L129.55 476.926C130.796 477.22 131.622 477.486 131.622 478.564C131.622 479.586 130.74 479.992 129.69 479.992C128.514 479.992 127.058 479.446 126.624 477.92L125.7 478.732C126.316 480.468 127.926 481.14 129.69 481.14ZM136.477 481.154C137.415 481.154 138.059 480.72 138.353 480.258L137.947 479.054C137.765 479.474 137.345 479.978 136.743 479.978C136.211 479.978 135.805 479.768 135.805 478.9V475.176H138.031V474.224H135.805V472.46L134.587 473.356V474.224H133.495V475.176H134.587V479.264C134.587 480.426 135.371 481.154 136.477 481.154ZM140.75 481.14C142.15 481.14 142.878 480.132 143.102 479.236V479.712C143.102 480.664 143.606 481 144.306 481H145.09V479.894H144.656C144.404 479.894 144.278 479.796 144.278 479.474V476.688C144.278 475.078 143.382 474.084 141.716 474.084C140.204 474.084 139.196 474.938 138.79 475.638L139.616 476.492C139.966 475.75 140.61 475.19 141.576 475.19C142.64 475.19 143.018 475.778 143.06 476.576L140.61 477.668C139.644 478.102 138.958 478.676 138.958 479.586C138.958 480.482 139.602 481.14 140.75 481.14ZM140.19 479.39C140.19 478.97 140.484 478.69 141.128 478.382L143.102 477.458V478.396C143.102 479.376 142.29 480.132 141.142 480.132C140.512 480.132 140.19 479.852 140.19 479.39ZM147.718 481V477.164C147.718 476.002 148.502 474.98 149.37 474.98C149.86 474.98 150.07 475.316 150.07 475.708C150.07 476.086 149.888 476.506 149.664 476.702H150.994C151.106 476.534 151.26 476.114 151.26 475.54C151.26 474.588 150.56 474.07 149.832 474.07C148.684 474.07 147.984 474.98 147.718 476.03V474.224H146.5V481H147.718ZM154.661 481.154C155.599 481.154 156.243 480.72 156.537 480.258L156.131 479.054C155.949 479.474 155.529 479.978 154.927 479.978C154.395 479.978 153.989 479.768 153.989 478.9V475.176H156.215V474.224H153.989V472.46L152.771 473.356V474.224H151.679V475.176H152.771V479.264C152.771 480.426 153.555 481.154 154.661 481.154ZM164.485 481.14C166.305 481.14 167.663 480.16 167.663 478.536C167.663 476.688 166.207 476.17 164.877 475.848L163.855 475.596C162.777 475.33 162.091 474.98 162.091 474.042C162.091 473.174 162.861 472.656 163.897 472.656C165.115 472.656 166.067 473.174 166.515 474.448L167.537 473.636C166.963 472.236 165.619 471.494 163.925 471.494C162.287 471.494 160.803 472.418 160.803 474.126C160.803 475.89 162.217 476.45 163.463 476.73L164.345 476.926C165.591 477.22 166.417 477.486 166.417 478.564C166.417 479.586 165.535 479.992 164.485 479.992C163.309 479.992 161.853 479.446 161.419 477.92L160.495 478.732C161.111 480.468 162.721 481.14 164.485 481.14ZM170.691 481.14C172.091 481.14 172.819 480.132 173.043 479.236V479.712C173.043 480.664 173.547 481 174.247 481H175.031V479.894H174.597C174.345 479.894 174.219 479.796 174.219 479.474V476.688C174.219 475.078 173.323 474.084 171.657 474.084C170.145 474.084 169.137 474.938 168.731 475.638L169.557 476.492C169.907 475.75 170.551 475.19 171.517 475.19C172.581 475.19 172.959 475.778 173.001 476.576L170.551 477.668C169.585 478.102 168.899 478.676 168.899 479.586C168.899 480.482 169.543 481.14 170.691 481.14ZM170.131 479.39C170.131 478.97 170.425 478.69 171.069 478.382L173.043 477.458V478.396C173.043 479.376 172.231 480.132 171.083 480.132C170.453 480.132 170.131 479.852 170.131 479.39ZM179.291 481L181.755 474.224H180.453L179.123 478.242L178.549 480.104L177.961 478.242L176.617 474.224H175.301L177.751 481H179.291ZM183.976 473.132V471.62H182.758V473.132H183.976ZM183.976 481V474.224H182.758V481H183.976ZM187.025 481V477.164C187.025 476.03 187.501 475.12 188.803 475.12C189.951 475.12 190.301 475.736 190.301 476.618V481H191.505V476.324C191.505 474.882 190.679 474.084 189.349 474.084C188.019 474.084 187.291 474.98 187.025 476.03V474.224H185.807V481H187.025ZM195.877 478.928C197.473 478.928 198.551 477.92 198.551 476.506C198.551 475.666 198.159 474.952 197.515 474.532L198.761 473.132L197.501 472.684L197.081 474.308C196.731 474.168 196.325 474.084 195.877 474.084C194.281 474.084 193.203 475.092 193.203 476.506C193.203 477.36 193.595 478.074 194.267 478.494C193.609 479.026 193.203 479.614 193.203 480.146C193.203 480.594 193.427 480.916 193.861 481.056C193.343 481.266 192.769 481.644 192.769 482.274C192.769 483.17 193.861 483.744 195.597 483.744C197.879 483.744 199.139 482.834 199.139 481.546C199.139 480.524 198.369 480.034 197.137 480.034H195.093C194.393 480.034 194.197 479.852 194.197 479.488C194.197 479.194 194.393 478.872 194.561 478.648C194.939 478.83 195.387 478.928 195.877 478.928ZM195.877 477.99C195.037 477.99 194.379 477.43 194.379 476.506C194.379 475.582 195.037 475.022 195.877 475.022C196.731 475.022 197.375 475.582 197.375 476.506C197.375 477.43 196.731 477.99 195.877 477.99ZM195.597 482.778C194.379 482.778 193.749 482.442 193.749 481.896C193.749 481.574 193.987 481.28 194.211 481.084H196.983C197.669 481.084 198.005 481.28 198.005 481.714C198.005 482.386 197.137 482.778 195.597 482.778ZM204.747 481V474.896L204.677 473.65L205.517 474.896L209.815 481H210.907V471.62H209.689V477.612L209.759 479.04L208.793 477.584L204.607 471.62H203.529V481H204.747ZM215.552 481.14C217.428 481.14 218.758 479.754 218.758 477.612C218.758 475.47 217.428 474.084 215.552 474.084C213.676 474.084 212.36 475.47 212.36 477.612C212.36 479.754 213.676 481.14 215.552 481.14ZM215.552 480.118C214.404 480.118 213.606 479.32 213.606 477.612C213.606 475.89 214.404 475.106 215.552 475.106C216.714 475.106 217.526 475.89 217.526 477.612C217.526 479.32 216.714 480.118 215.552 480.118ZM222.549 481L223.711 477.038L224.173 475.232L224.607 477.038L225.769 481H227.365L229.115 474.224H227.757L226.889 478.396L226.567 480.118L226.133 478.396L224.915 474.224H223.417L222.185 478.396L221.765 480.118L221.443 478.396L220.561 474.224H219.203L220.967 481H222.549Z" fill="white"/>
</svg>
