<svg width="429" height="287" viewBox="0 0 429 287" fill="none" xmlns="http://www.w3.org/2000/svg">
<path d="M26.282 281V271.62H25.064V281H26.282ZM29.5463 281V277.164C29.5463 276.03 30.0223 275.12 31.3243 275.12C32.4723 275.12 32.8223 275.736 32.8223 276.618V281H34.0263V276.324C34.0263 274.882 33.2003 274.084 31.8703 274.084C30.5403 274.084 29.8123 274.98 29.5463 276.03V274.224H28.3283V281H29.5463ZM38.6834 281L41.1474 274.224H39.8454L38.5154 278.242L37.9414 280.104L37.3534 278.242L36.0094 274.224H34.6934L37.1434 281H38.6834ZM44.6928 281.14C46.1628 281.14 47.1008 280.454 47.6048 279.642L46.8628 278.802C46.5968 279.39 46.0508 280.132 44.6928 280.132C43.4888 280.132 42.6908 279.32 42.6208 277.892H47.6468C47.6748 277.766 47.7028 277.556 47.7028 277.346C47.7028 275.358 46.5408 274.084 44.6228 274.084C42.7608 274.084 41.4448 275.47 41.4448 277.612C41.4448 279.768 42.7748 281.14 44.6928 281.14ZM44.6228 275.106C45.7568 275.106 46.4848 275.764 46.6108 277.01H42.6488C42.8028 275.75 43.5308 275.106 44.6228 275.106ZM50.4643 281V277.164C50.4643 276.002 51.2483 274.98 52.1163 274.98C52.6063 274.98 52.8163 275.316 52.8163 275.708C52.8163 276.086 52.6343 276.506 52.4103 276.702H53.7403C53.8523 276.534 54.0063 276.114 54.0063 275.54C54.0063 274.588 53.3063 274.07 52.5783 274.07C51.4303 274.07 50.7303 274.98 50.4643 276.03V274.224H49.2463V281H50.4643ZM57.4068 281.154C58.3448 281.154 58.9888 280.72 59.2828 280.258L58.8768 279.054C58.6948 279.474 58.2748 279.978 57.6728 279.978C57.1408 279.978 56.7348 279.768 56.7348 278.9V275.176H58.9608V274.224H56.7348V272.46L55.5168 273.356V274.224H54.4248V275.176H55.5168V279.264C55.5168 280.426 56.3008 281.154 57.4068 281.154ZM62.89 281.14C64.36 281.14 65.298 280.454 65.802 279.642L65.06 278.802C64.794 279.39 64.248 280.132 62.89 280.132C61.686 280.132 60.888 279.32 60.818 277.892H65.844C65.872 277.766 65.9 277.556 65.9 277.346C65.9 275.358 64.738 274.084 62.82 274.084C60.958 274.084 59.642 275.47 59.642 277.612C59.642 279.768 60.972 281.14 62.89 281.14ZM62.82 275.106C63.954 275.106 64.682 275.764 64.808 277.01H60.846C61 275.75 61.728 275.106 62.82 275.106ZM69.9743 281.168C71.2763 281.168 71.9203 280.3 72.1583 279.264V281H73.3763V271.62H72.1583V275.988C71.9203 274.952 71.2763 274.084 69.9743 274.084C68.2663 274.084 67.2023 275.484 67.2023 277.626C67.2023 279.768 68.2663 281.168 69.9743 281.168ZM68.4343 277.626C68.4343 275.904 69.3163 275.12 70.3803 275.12C71.6823 275.12 72.1583 276.03 72.1583 277.15V278.116C72.1583 279.236 71.6823 280.146 70.3803 280.146C69.3163 280.146 68.4343 279.362 68.4343 277.626ZM84.571 281V279.922H79.657V271.62H78.439V281H84.571ZM87.933 281.14C89.809 281.14 91.139 279.754 91.139 277.612C91.139 275.47 89.809 274.084 87.933 274.084C86.057 274.084 84.741 275.47 84.741 277.612C84.741 279.754 86.057 281.14 87.933 281.14ZM87.933 280.118C86.785 280.118 85.987 279.32 85.987 277.612C85.987 275.89 86.785 275.106 87.933 275.106C89.095 275.106 89.907 275.89 89.907 277.612C89.907 279.32 89.095 280.118 87.933 280.118ZM95.2595 278.928C96.8555 278.928 97.9335 277.92 97.9335 276.506C97.9335 275.666 97.5415 274.952 96.8975 274.532L98.1435 273.132L96.8835 272.684L96.4635 274.308C96.1135 274.168 95.7075 274.084 95.2595 274.084C93.6635 274.084 92.5855 275.092 92.5855 276.506C92.5855 277.36 92.9775 278.074 93.6495 278.494C92.9915 279.026 92.5855 279.614 92.5855 280.146C92.5855 280.594 92.8095 280.916 93.2435 281.056C92.7255 281.266 92.1515 281.644 92.1515 282.274C92.1515 283.17 93.2435 283.744 94.9795 283.744C97.2615 283.744 98.5215 282.834 98.5215 281.546C98.5215 280.524 97.7515 280.034 96.5195 280.034H94.4755C93.7755 280.034 93.5795 279.852 93.5795 279.488C93.5795 279.194 93.7755 278.872 93.9435 278.648C94.3215 278.83 94.7695 278.928 95.2595 278.928ZM95.2595 277.99C94.4195 277.99 93.7615 277.43 93.7615 276.506C93.7615 275.582 94.4195 275.022 95.2595 275.022C96.1135 275.022 96.7575 275.582 96.7575 276.506C96.7575 277.43 96.1135 277.99 95.2595 277.99ZM94.9795 282.778C93.7615 282.778 93.1315 282.442 93.1315 281.896C93.1315 281.574 93.3695 281.28 93.5935 281.084H96.3655C97.0515 281.084 97.3875 281.28 97.3875 281.714C97.3875 282.386 96.5195 282.778 94.9795 282.778ZM102.288 281.14C104.164 281.14 105.494 279.754 105.494 277.612C105.494 275.47 104.164 274.084 102.288 274.084C100.412 274.084 99.0964 275.47 99.0964 277.612C99.0964 279.754 100.412 281.14 102.288 281.14ZM102.288 280.118C101.14 280.118 100.342 279.32 100.342 277.612C100.342 275.89 101.14 275.106 102.288 275.106C103.45 275.106 104.262 275.89 104.262 277.612C104.262 279.32 103.45 280.118 102.288 280.118Z" fill="#3D0072"/>
<g filter="url(#filter0_d_5962_87727)">
<g clip-path="url(#clip0_5962_87727)">
<rect x="24" y="12" width="381" height="235" fill="white"/>
<g clip-path="url(#clip1_5962_87727)">
<path d="M156.268 114.567C156.268 117.841 156.268 121.124 156.287 124.398C156.287 127.224 155.371 129.973 152.746 131.424C149.682 133.104 145.329 132.674 141.912 132.321C141.778 132.321 141.664 132.292 141.54 132.283C141.654 129.925 141.606 127.539 141.492 125.191C141.349 122.002 143.277 118.203 146.704 117.669C150.417 117.087 153.653 116.686 155.409 114.633C155.466 114.576 155.523 114.509 155.571 114.443C155.829 114.089 156.106 113.755 156.383 113.412C156.297 113.784 156.268 114.175 156.268 114.557V114.567Z" fill="#8807F7"/>
<path d="M145.033 153.674C147.591 153.837 150.168 153.798 152.727 153.846C155.714 153.894 158.778 154.266 161.661 153.741C165.804 152.987 170.462 150.286 171.999 146.286C173.421 142.583 172.753 138.163 170.299 135.051C170.128 134.841 169.946 134.631 169.746 134.421C167.264 131.711 163.417 130.288 159.752 130.775C155.199 131.376 151.19 134.956 150.006 139.395C149.271 142.163 149.911 145.103 149.481 147.919C149.128 150.248 147.133 152.634 145.023 153.674H145.033Z" fill="#8807F7"/>
<path d="M170.627 104C170.398 104.697 170.675 105.451 170.971 106.119C174.77 114.586 184.945 120.313 184.592 130.488C184.43 135.089 182.139 140.492 178.292 143.222C178.015 143.422 177.758 143.594 177.433 143.69C176.698 142.315 176.622 140.31 176.001 138.802C175.219 136.903 174.188 135.041 172.746 133.571C171.362 132.168 169.635 131.357 168.25 129.982C165.349 127.081 163.516 123.11 163.277 119.005C162.934 113.164 165.855 107.36 170.637 104.019L170.627 104Z" fill="#8807F7"/>
<path d="M144.204 124.427C144.204 124.427 144.071 121.879 146.686 122.003C146.686 122.003 147.641 124.79 144.204 124.427V124.427Z" fill="white"/>
<path d="M143.334 146.038C145.727 146.038 147.667 144.098 147.667 141.704C147.667 139.311 145.727 137.371 143.334 137.371C140.94 137.371 139 139.311 139 141.704C139 144.098 140.94 146.038 143.334 146.038Z" fill="#8807F7"/>
<path d="M194.832 146.105L203.136 123.912H207.584L215.889 146.105H211.545L209.512 140.721H201.237L199.203 146.105H194.812H194.832ZM202.63 137.122H208.166L205.37 128.646L202.63 137.122V137.122Z" fill="#8807F7"/>
<path d="M218.109 146.104V131.07H222.042V134.592C222.405 133.304 222.978 132.339 223.76 131.7C224.533 131.06 225.383 130.736 226.309 130.736C227.235 130.736 228.065 130.917 228.781 131.289L228.103 134.812C227.502 134.535 226.748 134.401 225.822 134.401C223.302 134.401 222.052 136.53 222.052 140.778V146.104H218.119H218.109Z" fill="#8807F7"/>
<path d="M230.703 141.818C230.302 140.835 230.102 139.757 230.102 138.602C230.102 137.447 230.302 136.368 230.703 135.366C231.104 134.363 231.638 133.533 232.316 132.855C232.994 132.187 233.786 131.662 234.683 131.29C235.59 130.918 236.535 130.727 237.528 130.727C238.521 130.727 239.494 130.937 240.353 131.347C241.212 131.758 241.842 132.34 242.253 133.075V122.861H246.185V146.095H242.253V144.052C241.842 144.787 241.212 145.369 240.344 145.78C239.485 146.2 238.54 146.4 237.528 146.4C236.516 146.4 235.59 146.209 234.693 145.837C233.796 145.465 233.003 144.949 232.326 144.281C231.648 143.613 231.104 142.792 230.703 141.799V141.818ZM234.225 138.544C234.225 139.757 234.607 140.74 235.361 141.503C236.125 142.267 237.06 142.649 238.177 142.649C239.294 142.649 240.229 142.267 241.021 141.513C241.814 140.759 242.196 139.766 242.196 138.554C242.196 137.342 241.795 136.358 240.993 135.623C240.191 134.888 239.256 134.526 238.177 134.526C237.098 134.526 236.115 134.898 235.361 135.643C234.607 136.387 234.225 137.361 234.225 138.563V138.544Z" fill="#8807F7"/>
<path d="M249.969 125.229C249.969 124.57 250.217 124.007 250.723 123.549C251.229 123.09 251.821 122.861 252.508 122.861C253.195 122.861 253.777 123.09 254.274 123.549C254.77 124.007 255.009 124.56 255.009 125.229C255.009 125.897 254.761 126.46 254.274 126.918C253.787 127.376 253.195 127.605 252.508 127.605C251.821 127.605 251.21 127.376 250.713 126.918C250.217 126.46 249.969 125.897 249.969 125.229V125.229ZM250.522 146.104V131.07H254.455V146.104H250.522Z" fill="#8807F7"/>
<path d="M258.875 146.104V127.605H262.808V146.104H258.875Z" fill="#8807F7"/>
<path d="M267.234 146.104V122.871H271.167V146.104H267.234Z" fill="#8807F7"/>
<path d="M274.688 138.563C274.688 137.389 274.898 136.31 275.327 135.308C275.757 134.315 276.329 133.485 277.045 132.826C277.761 132.168 278.582 131.652 279.508 131.289C280.434 130.927 281.398 130.736 282.4 130.736C283.231 130.736 284.09 130.908 284.977 131.261C285.865 131.614 286.562 132.168 287.068 132.922V131.06H291V146.094H287.068V144.147C286.629 144.863 285.951 145.417 285.035 145.798C284.118 146.18 283.24 146.371 282.41 146.371C281.064 146.371 279.813 146.056 278.649 145.436C277.484 144.815 276.53 143.889 275.795 142.677C275.06 141.465 274.697 140.09 274.697 138.544L274.688 138.563ZM278.811 138.563C278.811 139.737 279.222 140.701 280.052 141.465C280.882 142.228 281.847 142.61 282.954 142.61C284.061 142.61 285.035 142.248 285.846 141.513C286.657 140.778 287.058 139.794 287.058 138.563C287.058 137.332 286.648 136.348 285.827 135.614C285.006 134.879 284.042 134.516 282.944 134.516C281.847 134.516 280.854 134.898 280.033 135.652C279.212 136.415 278.802 137.379 278.802 138.563H278.811Z" fill="#8807F7"/>
</g>
<g filter="url(#filter1_d_5962_87727)">
<rect x="48" y="28" width="22" height="22" rx="11" fill="white"/>
<path d="M62.75 40.875V42.75H55.25V40.875H54V42.75C54 43.4375 54.5625 44 55.25 44H62.75C63.4375 44 64 43.4375 64 42.75V40.875H62.75ZM62.125 38.375L61.2438 37.4938L59.625 39.1063V34H58.375V39.1063L56.7562 37.4938L55.875 38.375L59 41.5L62.125 38.375Z" fill="black"/>
</g>
</g>
</g>
<defs>
<filter id="filter0_d_5962_87727" x="0" y="0" width="429" height="283" filterUnits="userSpaceOnUse" color-interpolation-filters="sRGB">
<feFlood flood-opacity="0" result="BackgroundImageFix"/>
<feColorMatrix in="SourceAlpha" type="matrix" values="0 0 0 0 0 0 0 0 0 0 0 0 0 0 0 0 0 0 127 0" result="hardAlpha"/>
<feOffset dy="12"/>
<feGaussianBlur stdDeviation="12"/>
<feComposite in2="hardAlpha" operator="out"/>
<feColorMatrix type="matrix" values="0 0 0 0 0.45225 0 0 0 0 0.42 0 0 0 0 0.48 0 0 0 0.15 0"/>
<feBlend mode="normal" in2="BackgroundImageFix" result="effect1_dropShadow_5962_87727"/>
<feBlend mode="normal" in="SourceGraphic" in2="effect1_dropShadow_5962_87727" result="shape"/>
</filter>
<filter id="filter1_d_5962_87727" x="44" y="28" width="30" height="30" filterUnits="userSpaceOnUse" color-interpolation-filters="sRGB">
<feFlood flood-opacity="0" result="BackgroundImageFix"/>
<feColorMatrix in="SourceAlpha" type="matrix" values="0 0 0 0 0 0 0 0 0 0 0 0 0 0 0 0 0 0 127 0" result="hardAlpha"/>
<feOffset dy="4"/>
<feGaussianBlur stdDeviation="2"/>
<feComposite in2="hardAlpha" operator="out"/>
<feColorMatrix type="matrix" values="0 0 0 0 0 0 0 0 0 0 0 0 0 0 0 0 0 0 0.25 0"/>
<feBlend mode="normal" in2="BackgroundImageFix" result="effect1_dropShadow_5962_87727"/>
<feBlend mode="normal" in="SourceGraphic" in2="effect1_dropShadow_5962_87727" result="shape"/>
</filter>
<clipPath id="clip0_5962_87727">
<rect x="24" y="12" width="381" height="235" rx="8" fill="white"/>
</clipPath>
<clipPath id="clip1_5962_87727">
<rect width="152" height="50.0176" fill="white" transform="translate(139 104)"/>
</clipPath>
</defs>
</svg>
