<svg width="261" height="57" viewBox="0 0 261 57" fill="none" xmlns="http://www.w3.org/2000/svg">
<rect x="132" width="129" height="57" fill="#E8356D"/>
<path d="M4 12.35H11.8V47H4V12.35ZM19.3203 21.6C20.587 21.2333 22.2203 20.9 24.2203 20.6C26.2203 20.2667 28.3203 20.1 30.5203 20.1C32.7536 20.1 34.6036 20.4 36.0703 21C37.5703 21.5667 38.7536 22.3833 39.6203 23.45C40.487 24.5167 41.1036 25.7833 41.4703 27.25C41.837 28.7167 42.0203 30.35 42.0203 32.15V47H34.5703V33.05C34.5703 30.65 34.2536 28.95 33.6203 27.95C32.987 26.95 31.8036 26.45 30.0703 26.45C29.537 26.45 28.9703 26.4833 28.3703 26.55C27.7703 26.5833 27.237 26.6333 26.7703 26.7V47H19.3203V21.6ZM55.1324 47C53.4324 43.6667 51.6991 39.7667 49.9324 35.3C48.1991 30.8333 46.5491 25.9667 44.9824 20.7H52.8824C53.2158 22 53.5991 23.4167 54.0324 24.95C54.4991 26.45 54.9658 27.9833 55.4324 29.55C55.9324 31.0833 56.4158 32.5833 56.8824 34.05C57.3824 35.5167 57.8658 36.85 58.3324 38.05C58.7658 36.85 59.2324 35.5167 59.7324 34.05C60.2324 32.5833 60.7158 31.0833 61.1824 29.55C61.6824 27.9833 62.1491 26.45 62.5824 24.95C63.0491 23.4167 63.4491 22 63.7824 20.7H71.4824C69.9158 25.9667 68.2491 30.8333 66.4824 35.3C64.7491 39.7667 63.0324 43.6667 61.3324 47H55.1324ZM73.5391 34.05C73.5391 31.7167 73.8891 29.6833 74.5891 27.95C75.3224 26.1833 76.2724 24.7167 77.4391 23.55C78.6057 22.3833 79.9391 21.5 81.4391 20.9C82.9724 20.3 84.5391 20 86.1391 20C89.8724 20 92.8224 21.15 94.9891 23.45C97.1557 25.7167 98.2391 29.0667 98.2391 33.5C98.2391 33.9333 98.2224 34.4167 98.1891 34.95C98.1557 35.45 98.1224 35.9 98.0891 36.3H81.1891C81.3557 37.8333 82.0724 39.05 83.3391 39.95C84.6057 40.85 86.3057 41.3 88.4391 41.3C89.8057 41.3 91.1391 41.1833 92.4391 40.95C93.7724 40.6833 94.8557 40.3667 95.6891 40L96.6891 46.05C96.2891 46.25 95.7557 46.45 95.0891 46.65C94.4224 46.85 93.6724 47.0167 92.8391 47.15C92.0391 47.3167 91.1724 47.45 90.2391 47.55C89.3057 47.65 88.3724 47.7 87.4391 47.7C85.0724 47.7 83.0057 47.35 81.2391 46.65C79.5057 45.95 78.0557 45 76.8891 43.8C75.7557 42.5667 74.9057 41.1167 74.3391 39.45C73.8057 37.7833 73.5391 35.9833 73.5391 34.05ZM91.0391 31.2C91.0057 30.5667 90.8891 29.95 90.6891 29.35C90.5224 28.75 90.2391 28.2167 89.8391 27.75C89.4724 27.2833 88.9891 26.9 88.3891 26.6C87.8224 26.3 87.1057 26.15 86.2391 26.15C85.4057 26.15 84.6891 26.3 84.0891 26.6C83.4891 26.8667 82.9891 27.2333 82.5891 27.7C82.1891 28.1667 81.8724 28.7167 81.6391 29.35C81.4391 29.95 81.2891 30.5667 81.1891 31.2H91.0391ZM111.538 41.65C112.905 41.65 113.872 41.5167 114.438 41.25C115.005 40.9833 115.288 40.4667 115.288 39.7C115.288 39.1 114.922 38.5833 114.188 38.15C113.455 37.6833 112.338 37.1667 110.838 36.6C109.672 36.1667 108.605 35.7167 107.638 35.25C106.705 34.7833 105.905 34.2333 105.238 33.6C104.572 32.9333 104.055 32.15 103.688 31.25C103.322 30.35 103.138 29.2667 103.138 28C103.138 25.5333 104.055 23.5833 105.888 22.15C107.722 20.7167 110.238 20 113.438 20C115.038 20 116.572 20.15 118.038 20.45C119.505 20.7167 120.672 21.0167 121.538 21.35L120.238 27.15C119.372 26.85 118.422 26.5833 117.388 26.35C116.388 26.1167 115.255 26 113.988 26C111.655 26 110.488 26.65 110.488 27.95C110.488 28.25 110.538 28.5167 110.638 28.75C110.738 28.9833 110.938 29.2167 111.238 29.45C111.538 29.65 111.938 29.8833 112.438 30.15C112.972 30.3833 113.638 30.65 114.438 30.95C116.072 31.55 117.422 32.15 118.488 32.75C119.555 33.3167 120.388 33.95 120.988 34.65C121.622 35.3167 122.055 36.0667 122.288 36.9C122.555 37.7333 122.688 38.7 122.688 39.8C122.688 42.4 121.705 44.3667 119.738 45.7C117.805 47.0333 115.055 47.7 111.488 47.7C109.155 47.7 107.205 47.5 105.638 47.1C104.105 46.7 103.038 46.3667 102.438 46.1L103.688 40.05C104.955 40.55 106.255 40.95 107.588 41.25C108.922 41.5167 110.238 41.65 111.538 41.65ZM128.006 14.15L135.456 12.95V20.7H144.406V26.9H135.456V36.15C135.456 37.7167 135.723 38.9667 136.256 39.9C136.823 40.8333 137.939 41.3 139.606 41.3C140.406 41.3 141.223 41.2333 142.056 41.1C142.923 40.9333 143.706 40.7167 144.406 40.45L145.456 46.25C144.556 46.6167 143.556 46.9333 142.456 47.2C141.356 47.4667 140.006 47.6 138.406 47.6C136.373 47.6 134.689 47.3333 133.356 46.8C132.023 46.2333 130.956 45.4667 130.156 44.5C129.356 43.5 128.789 42.3 128.456 40.9C128.156 39.5 128.006 37.95 128.006 36.25V14.15ZM157.923 47H150.473V20.7H157.923V47ZM158.623 13.1C158.623 14.4667 158.173 15.55 157.273 16.35C156.406 17.1167 155.373 17.5 154.173 17.5C152.973 17.5 151.923 17.1167 151.023 16.35C150.156 15.55 149.723 14.4667 149.723 13.1C149.723 11.7333 150.156 10.6667 151.023 9.9C151.923 9.1 152.973 8.7 154.173 8.7C155.373 8.7 156.406 9.1 157.273 9.9C158.173 10.6667 158.623 11.7333 158.623 13.1ZM164.926 21.6C166.192 21.2333 167.826 20.9 169.826 20.6C171.826 20.2667 173.926 20.1 176.126 20.1C178.359 20.1 180.209 20.4 181.676 21C183.176 21.5667 184.359 22.3833 185.226 23.45C186.092 24.5167 186.709 25.7833 187.076 27.25C187.442 28.7167 187.626 30.35 187.626 32.15V47H180.176V33.05C180.176 30.65 179.859 28.95 179.226 27.95C178.592 26.95 177.409 26.45 175.676 26.45C175.142 26.45 174.576 26.4833 173.976 26.55C173.376 26.5833 172.842 26.6333 172.376 26.7V47H164.926V21.6ZM200.719 33C200.719 37.1667 202.402 39.25 205.769 39.25C206.536 39.25 207.252 39.15 207.919 38.95C208.586 38.75 209.152 38.5167 209.619 38.25V26.35C209.252 26.2833 208.819 26.2333 208.319 26.2C207.819 26.1333 207.236 26.1 206.569 26.1C204.602 26.1 203.136 26.75 202.169 28.05C201.202 29.35 200.719 31 200.719 33ZM217.069 43.7C217.069 48 215.969 51.1833 213.769 53.25C211.602 55.35 208.236 56.4 203.669 56.4C202.069 56.4 200.469 56.25 198.869 55.95C197.269 55.6833 195.786 55.3167 194.419 54.85L195.719 48.6C196.886 49.0667 198.102 49.4333 199.369 49.7C200.669 49.9667 202.136 50.1 203.769 50.1C205.902 50.1 207.402 49.6333 208.269 48.7C209.169 47.7667 209.619 46.5667 209.619 45.1V44.15C208.819 44.5167 207.986 44.8 207.119 45C206.286 45.1667 205.369 45.25 204.369 45.25C200.736 45.25 197.952 44.1833 196.019 42.05C194.086 39.8833 193.119 36.8667 193.119 33C193.119 31.0667 193.419 29.3167 194.019 27.75C194.619 26.15 195.486 24.7833 196.619 23.65C197.786 22.5167 199.202 21.65 200.869 21.05C202.536 20.4167 204.419 20.1 206.519 20.1C207.419 20.1 208.336 20.15 209.269 20.25C210.236 20.3167 211.186 20.4167 212.119 20.55C213.052 20.6833 213.936 20.85 214.769 21.05C215.636 21.2167 216.402 21.4 217.069 21.6V43.7Z" fill="white"/>
</svg>
