<svg width="1053" height="71" viewBox="0 0 1053 71" fill="none" xmlns="http://www.w3.org/2000/svg">
<path d="M9.32 55V1.4H0.28V55H9.32ZM28.7581 55V33.16C28.7581 26.76 30.9981 22.52 36.2781 22.52C41.5581 22.52 43.7981 25.24 43.7981 30.6V55H52.7581V33.16C52.7581 26.76 54.9981 22.52 60.2781 22.52C65.5581 22.52 67.7981 25.24 67.7981 30.6V55H76.7581V27.88C76.7581 19.8 72.8381 15.24 65.3981 15.24C57.9581 15.24 54.1181 20.6 52.7581 26.76C52.3581 19.4 48.5181 15.24 41.3981 15.24C34.0381 15.24 30.1981 20.52 28.7581 26.68V16.04H19.7981V55H28.7581ZM94.93 69.88V44.6C96.21 50.6 99.49 55.8 107.25 55.8C116.85 55.8 122.93 48.04 122.93 35.48C122.93 22.92 116.85 15.16 107.41 15.16C99.65 15.16 96.21 20.36 94.93 26.44V16.04H85.97V69.88H94.93ZM94.93 37.88V33.08C94.93 26.68 97.57 22.44 103.89 22.44C109.49 22.44 113.73 26.68 113.73 35.48C113.73 44.28 109.49 48.52 103.89 48.52C97.57 48.52 94.93 44.28 94.93 37.88ZM139.149 55V33.56C139.149 27.08 143.309 21.96 147.789 21.96C150.429 21.96 151.469 23.72 151.469 25.88C151.469 28.12 150.269 30.68 148.989 31.96H158.189C158.909 30.76 159.949 27.96 159.949 24.2C159.949 18.44 156.349 15.24 151.469 15.24C144.509 15.24 140.589 20.84 139.149 27.08V16.04H130.189V55H139.149ZM181.354 55.8C192.714 55.8 200.394 47.64 200.394 35.56C200.394 23.4 192.714 15.24 181.354 15.24C170.154 15.24 162.474 23.4 162.474 35.56C162.474 47.64 170.154 55.8 181.354 55.8ZM181.434 48.36C175.674 48.36 171.674 44.52 171.674 35.56C171.674 26.52 175.674 22.68 181.434 22.68C187.274 22.68 191.274 26.52 191.274 35.56C191.274 44.52 187.274 48.36 181.434 48.36ZM227.086 55L241.006 16.04H231.246L224.686 37.24L221.566 49.16L218.366 37.24L211.726 16.04H201.806L215.646 55H227.086ZM261.297 55.8C269.937 55.8 275.217 51.88 278.177 47.4L272.657 41.64C271.217 44.92 268.177 48.44 261.377 48.44C255.217 48.44 251.137 44.68 250.657 37.72H278.497C278.657 36.92 278.817 35.24 278.817 33.8C278.817 23 272.337 15.24 260.657 15.24C249.697 15.24 242.097 23.32 242.097 35.56C242.097 47.72 249.697 55.8 261.297 55.8ZM260.657 22.44C266.577 22.44 270.097 25.8 270.737 31.96H250.737C251.457 25.64 255.137 22.44 260.657 22.44ZM311.07 68.36C317.39 68.36 321.95 65.56 324.75 57.72L339.15 16.04H329.23L322.27 38.12L319.47 48.52L316.67 38.12L309.63 16.04H299.79L312.67 52.6H318.19L317.47 54.76C316.03 59.08 314.11 60.44 311.07 60.44C307.47 60.44 305.07 58.2 302.99 55.24L298.75 62.44C300.91 65.48 305.47 68.36 311.07 68.36ZM359.245 55.8C370.605 55.8 378.285 47.64 378.285 35.56C378.285 23.4 370.605 15.24 359.245 15.24C348.045 15.24 340.365 23.4 340.365 35.56C340.365 47.64 348.045 55.8 359.245 55.8ZM359.325 48.36C353.565 48.36 349.565 44.52 349.565 35.56C349.565 26.52 353.565 22.68 359.325 22.68C365.165 22.68 369.165 26.52 369.165 35.56C369.165 44.52 365.165 48.36 359.325 48.36ZM397.89 55.8C405.65 55.8 409.65 50.52 411.09 44.36V55H420.13V16.04H411.09V37.88C411.09 44.28 408.85 48.52 402.29 48.52C396.29 48.52 394.69 45.24 394.69 40.44V16.04H385.73V43.16C385.73 51.24 390.37 55.8 397.89 55.8ZM438.524 55V33.56C438.524 27.08 442.684 21.96 447.164 21.96C449.804 21.96 450.844 23.72 450.844 25.88C450.844 28.12 449.644 30.68 448.364 31.96H457.564C458.284 30.76 459.324 27.96 459.324 24.2C459.324 18.44 455.724 15.24 450.844 15.24C443.884 15.24 439.964 20.84 438.524 27.08V16.04H429.564V55H438.524ZM493.671 55V23H506.951V55H515.991V16.04H493.671V13.48C493.671 9.72 495.191 7.72 499.031 7.72C503.031 7.72 506.471 9.64 508.311 11.72L512.231 5.4C510.071 3.48 505.191 0.599999 498.871 0.599999C490.231 0.599999 484.711 5.08 484.711 13.32V16.04H478.711V23H484.711V55H493.671ZM534.383 55V33.16C534.383 26.76 536.623 22.52 543.183 22.52C549.183 22.52 550.783 25.8 550.783 30.6V55H559.823V27.88C559.823 19.8 555.183 15.24 547.583 15.24C539.823 15.24 535.823 20.52 534.383 26.68V16.04H525.423V55H534.383ZM577.335 55.8C585.495 55.8 589.255 49.72 590.455 44.6V47.48C590.455 53.08 593.735 55 597.895 55H603.415V47.32H600.935C599.495 47.32 598.855 46.76 598.855 45V30.36C598.855 20.76 593.415 15.24 583.735 15.24C575.095 15.24 569.015 19.72 565.975 23.88L571.335 30.28C573.575 26.2 577.655 23.16 582.855 23.16C588.215 23.16 589.975 25.8 590.295 29.72L577.255 35.24C570.935 37.72 567.095 41.08 567.095 46.6C567.095 52.2 570.935 55.8 577.335 55.8ZM575.735 45.24C575.735 43.24 577.095 41.88 580.455 40.36L590.455 35.88V40.04C590.455 45.32 586.455 48.84 580.535 48.84C577.255 48.84 575.735 47.48 575.735 45.24ZM619.227 55V33.16C619.227 26.76 621.467 22.52 628.027 22.52C634.027 22.52 635.627 25.8 635.627 30.6V55H644.667V27.88C644.667 19.8 640.027 15.24 632.427 15.24C624.667 15.24 620.667 20.52 619.227 26.68V16.04H610.267V55H619.227ZM670.584 55.8C680.344 55.8 686.504 50.28 688.584 42.92L680.504 38.92C679.624 44.52 676.824 48.28 670.744 48.28C664.584 48.28 660.824 43.72 660.824 35.56C660.824 27.32 664.584 22.76 670.744 22.76C676.744 22.76 679.624 26.52 680.504 32.12L688.584 28.12C686.504 20.76 680.344 15.24 670.584 15.24C658.984 15.24 651.704 23.4 651.704 35.56C651.704 47.64 658.984 55.8 670.584 55.8ZM704.461 10.52V1.4H695.501V10.52H704.461ZM704.461 55V16.04H695.501V55H704.461ZM722.179 55.8C730.339 55.8 734.099 49.72 735.299 44.6V47.48C735.299 53.08 738.579 55 742.739 55H748.259V47.32H745.779C744.339 47.32 743.699 46.76 743.699 45V30.36C743.699 20.76 738.259 15.24 728.579 15.24C719.939 15.24 713.859 19.72 710.819 23.88L716.179 30.28C718.419 26.2 722.499 23.16 727.699 23.16C733.059 23.16 734.819 25.8 735.139 29.72L722.099 35.24C715.779 37.72 711.939 41.08 711.939 46.6C711.939 52.2 715.779 55.8 722.179 55.8ZM720.579 45.24C720.579 43.24 721.939 41.88 725.299 40.36L735.299 35.88V40.04C735.299 45.32 731.299 48.84 725.379 48.84C722.099 48.84 720.579 47.48 720.579 45.24ZM764.071 55V1.4H755.111V55H764.071ZM800.086 10.52V1.4H791.126V10.52H800.086ZM787.766 70.68C795.126 70.68 800.086 65.32 800.086 57.24V16.04H791.126V57C791.126 61 789.686 62.44 786.726 62.44C783.846 62.44 781.766 60.6 780.566 58.36L775.766 65.16C777.606 67.4 781.206 70.68 787.766 70.68ZM825.964 55.8C837.324 55.8 845.004 47.64 845.004 35.56C845.004 23.4 837.324 15.24 825.964 15.24C814.764 15.24 807.084 23.4 807.084 35.56C807.084 47.64 814.764 55.8 825.964 55.8ZM826.044 48.36C820.284 48.36 816.284 44.52 816.284 35.56C816.284 26.52 820.284 22.68 826.044 22.68C831.884 22.68 835.884 26.52 835.884 35.56C835.884 44.52 831.884 48.36 826.044 48.36ZM864.609 55.8C872.369 55.8 876.369 50.52 877.809 44.36V55H886.849V16.04H877.809V37.88C877.809 44.28 875.569 48.52 869.009 48.52C863.009 48.52 861.409 45.24 861.409 40.44V16.04H852.449V43.16C852.449 51.24 857.089 55.8 864.609 55.8ZM905.243 55V33.56C905.243 27.08 909.403 21.96 913.883 21.96C916.523 21.96 917.563 23.72 917.563 25.88C917.563 28.12 916.363 30.68 915.082 31.96H924.283C925.003 30.76 926.043 27.96 926.043 24.2C926.043 18.44 922.443 15.24 917.563 15.24C910.603 15.24 906.683 20.84 905.243 27.08V16.04H896.283V55H905.243ZM940.321 55V33.16C940.321 26.76 942.561 22.52 949.121 22.52C955.121 22.52 956.721 25.8 956.721 30.6V55H965.761V27.88C965.761 19.8 961.121 15.24 953.521 15.24C945.761 15.24 941.761 20.52 940.321 26.68V16.04H931.361V55H940.321ZM992.078 55.8C1000.72 55.8 1006 51.88 1008.96 47.4L1003.44 41.64C1002 44.92 998.958 48.44 992.158 48.44C985.998 48.44 981.918 44.68 981.438 37.72H1009.28C1009.44 36.92 1009.6 35.24 1009.6 33.8C1009.6 23 1003.12 15.24 991.438 15.24C980.478 15.24 972.878 23.32 972.878 35.56C972.878 47.72 980.478 55.8 992.078 55.8ZM991.438 22.44C997.358 22.44 1000.88 25.8 1001.52 31.96H981.518C982.238 25.64 985.918 22.44 991.438 22.44ZM1024.04 68.36C1030.36 68.36 1034.92 65.56 1037.72 57.72L1052.12 16.04H1042.2L1035.24 38.12L1032.44 48.52L1029.64 38.12L1022.6 16.04H1012.76L1025.64 52.6H1031.16L1030.44 54.76C1029 59.08 1027.08 60.44 1024.04 60.44C1020.44 60.44 1018.04 58.2 1015.96 55.24L1011.72 62.44C1013.88 65.48 1018.44 68.36 1024.04 68.36Z" fill="url(#paint0_linear_63_6696)"/>
<defs>
<linearGradient id="paint0_linear_63_6696" x1="1228.59" y1="64.6138" x2="808.171" y2="-150.52" gradientUnits="userSpaceOnUse">
<stop stop-color="#FFC711"/>
<stop offset="1" stop-color="#8807F7"/>
</linearGradient>
</defs>
</svg>
