<svg width="1440" height="1643" viewBox="0 0 1440 1643" fill="none" xmlns="http://www.w3.org/2000/svg">
<rect y="264" width="1440" height="1223" fill="#FEF4FA"/>
<path opacity="0.55" d="M247.589 478.362C164.121 594.612 125.893 737.304 140.067 879.714C154.241 1022.12 219.843 1154.48 324.587 1252C429.332 1349.52 566.034 1405.51 709.092 1409.48C852.149 1413.46 991.749 1365.15 1101.75 1273.59C1211.75 1182.04 1284.6 1053.53 1306.66 912.129C1328.72 770.726 1298.47 626.132 1221.59 505.425C1144.7 384.719 1026.45 296.18 888.981 256.391C751.511 216.602 604.25 228.292 474.779 289.271L596.097 546.854C662.903 515.389 738.888 509.357 809.821 529.888C880.754 550.419 941.77 596.104 981.442 658.387C1021.11 720.67 1036.72 795.279 1025.34 868.241C1013.95 941.203 976.364 1007.51 919.606 1054.75C862.848 1101.99 790.816 1126.92 717 1124.87C643.184 1122.82 572.647 1093.93 518.6 1043.61C464.553 993.292 430.703 924.997 423.39 851.515C416.076 778.034 435.801 704.406 478.87 644.422L247.589 478.362Z" fill="#F8E6F4"/>
</svg>
