<svg width="700" height="145" viewBox="0 0 700 145" fill="none" xmlns="http://www.w3.org/2000/svg">
<path d="M61.0293 107V95.3086H20.9277V28.6674H7.71634V107H61.0293ZM91.2936 108.169C103.92 108.169 111.637 102.44 115.963 95.8931L107.895 87.4753C105.791 92.2688 101.348 97.413 91.4105 97.413C82.4081 97.413 76.4455 91.9181 75.744 81.7465H116.43C116.664 80.5774 116.898 78.1222 116.898 76.0177C116.898 60.2343 107.428 48.8936 90.3583 48.8936C74.341 48.8936 63.2342 60.7019 63.2342 78.5898C63.2342 96.3608 74.341 108.169 91.2936 108.169ZM90.3583 59.4159C99.01 59.4159 104.154 64.3263 105.089 73.3287H75.8609C76.9132 64.0925 82.2912 59.4159 90.3583 59.4159ZM140.65 108.169C152.575 108.169 158.07 99.2837 159.824 91.8011V96.0101C159.824 104.194 164.617 107 170.697 107H178.764V95.7762H175.139C173.035 95.7762 172.1 94.9578 172.1 92.3857V70.9904C172.1 56.9607 164.149 48.8936 150.003 48.8936C137.376 48.8936 128.491 55.4408 124.048 61.5203L131.881 70.8735C135.155 64.9109 141.117 60.4681 148.717 60.4681C156.55 60.4681 159.122 64.3263 159.59 70.0551L140.533 78.1222C131.297 81.7465 125.685 86.6569 125.685 94.724C125.685 102.908 131.297 108.169 140.65 108.169ZM138.311 92.7365C138.311 89.8136 140.299 87.8261 145.209 85.6047L159.824 79.0575V85.137C159.824 92.8534 153.978 97.9976 145.326 97.9976C140.533 97.9976 138.311 96.0101 138.311 92.7365ZM201.872 107V75.667C201.872 66.1969 207.951 58.7144 214.498 58.7144C218.357 58.7144 219.876 61.2865 219.876 64.4432C219.876 67.7168 218.123 71.4581 216.252 73.3287H229.697C230.75 71.575 232.269 67.483 232.269 61.988C232.269 53.5702 227.008 48.8936 219.876 48.8936C209.705 48.8936 203.976 57.0776 201.872 66.1969V50.0627H188.777V107H201.872ZM253.136 107V75.0824C253.136 65.7293 256.409 59.5328 265.996 59.5328C274.765 59.5328 277.103 64.3263 277.103 71.3411V107H290.315V67.3661C290.315 55.5577 283.534 48.8936 272.427 48.8936C261.086 48.8936 255.24 56.6099 253.136 65.6123V50.0627H240.041V107H253.136ZM350.634 108.403C360.338 108.403 369.574 105.597 376.355 100.453C381.5 105.246 386.644 108.169 393.542 108.169C400.44 108.169 405.818 104.428 408.39 100.57L403.129 87.2415C402.895 90.0474 399.855 96.5946 393.776 96.5946C390.736 96.5946 387.813 94.9578 385.007 92.5026C391.203 86.0723 395.295 76.4854 393.191 64.0925H380.681C382.902 73.7963 381.967 80.3435 378.109 85.4878L361.156 67.2491C371.562 64.3263 379.629 57.3114 379.629 46.4384C379.629 35.9161 371.562 27.3814 357.532 27.3814C342.216 27.3814 334.617 36.033 334.617 46.9061C334.617 54.1547 338.826 60.2343 343.619 65.7293C331.109 70.8735 325.614 78.4729 325.614 87.2415C325.614 101.505 336.721 108.403 350.634 108.403ZM347.477 46.7891C347.477 41.7618 350.985 37.7867 357.532 37.7867C364.079 37.7867 367.704 42.1126 367.704 47.3737C367.704 52.5179 365.015 57.3114 355.661 61.2865C350.166 55.207 347.477 51.3488 347.477 46.7891ZM339.06 85.4878C339.06 79.9928 342.918 74.9655 349.465 72.0426L349.699 72.2765L368.873 92.6195C364.547 95.1917 359.169 96.7115 353.44 96.7115C345.256 96.7115 339.06 92.9703 339.06 85.4878Z" fill="white"/>
<path d="M496.653 107V95.3086H454.447V72.861H489.404V61.1696H454.447V40.3589H496.653V28.6674H441.235V107H496.653ZM518.566 108.169C530.491 108.169 535.986 99.2837 537.74 91.8011V96.0101C537.74 104.194 542.533 107 548.613 107H556.68V95.7762H553.056C550.951 95.7762 550.016 94.9578 550.016 92.3857V70.9904C550.016 56.9607 542.066 48.8936 527.919 48.8936C515.292 48.8936 506.407 55.4408 501.964 61.5203L509.797 70.8735C513.071 64.9109 519.034 60.4681 526.633 60.4681C534.466 60.4681 537.038 64.3263 537.506 70.0551L518.449 78.1222C509.213 81.7465 503.601 86.6569 503.601 94.724C503.601 102.908 509.213 108.169 518.566 108.169ZM516.228 92.7365C516.228 89.8136 518.215 87.8261 523.126 85.6047L537.74 79.0575V85.137C537.74 92.8534 531.894 97.9976 523.243 97.9976C518.449 97.9976 516.228 96.0101 516.228 92.7365ZM579.788 107V75.667C579.788 66.1969 585.868 58.7144 592.415 58.7144C596.273 58.7144 597.793 61.2865 597.793 64.4432C597.793 67.7168 596.039 71.4581 594.168 73.3287H607.614C608.666 71.575 610.186 67.483 610.186 61.988C610.186 53.5702 604.925 48.8936 597.793 48.8936C587.621 48.8936 581.892 57.0776 579.788 66.1969V50.0627H566.694V107H579.788ZM631.052 107V75.0824C631.052 65.7293 634.326 59.5328 643.913 59.5328C652.681 59.5328 655.02 64.3263 655.02 71.3411V107H668.231V67.3661C668.231 55.5577 661.45 48.8936 650.343 48.8936C639.002 48.8936 633.157 56.6099 631.052 65.6123V50.0627H617.958V107H631.052Z" fill="url(#paint0_linear_56_6688)"/>
<g clip-path="url(#clip0_56_6688)">
<mask id="mask0_56_6688" style="mask-type:luminance" maskUnits="userSpaceOnUse" x="640" y="18" width="60" height="60">
<path d="M700 18H640V78H700V18Z" fill="white"/>
</mask>
<g mask="url(#mask0_56_6688)">
<mask id="mask1_56_6688" style="mask-type:luminance" maskUnits="userSpaceOnUse" x="640" y="18" width="60" height="60">
<path d="M640 18H700V78H640V18Z" fill="white"/>
</mask>
<g mask="url(#mask1_56_6688)">
<path d="M670.002 28.6699C659.326 28.6699 650.672 37.3242 650.672 47.9999C650.672 58.6757 659.326 67.3301 670.002 67.3301C680.678 67.3301 689.332 58.6757 689.332 47.9999C689.332 37.3242 680.678 28.6699 670.002 28.6699Z" fill="#DE5A00"/>
<path d="M670.002 28.6699C659.326 28.6699 650.672 37.3242 650.672 47.9999C650.672 58.6757 659.326 67.3301 670.002 67.3301C680.678 67.3301 689.332 58.6757 689.332 47.9999C689.332 37.3242 680.678 28.6699 670.002 28.6699Z" fill="#EF7B00"/>
<path d="M670.002 28.6699C659.326 28.6699 650.672 37.3242 650.672 47.9999C650.672 58.6757 659.326 67.3301 670.002 67.3301C680.678 67.3301 689.332 58.6757 689.332 47.9999C689.332 37.3242 680.678 28.6699 670.002 28.6699ZM670.002 62.2999C662.104 62.2999 655.702 55.8976 655.702 47.9999C655.702 40.1022 662.104 33.6999 670.002 33.6999C677.9 33.6999 684.302 40.1022 684.302 47.9999C684.302 55.8976 677.9 62.2999 670.002 62.2999Z" fill="#DE5A00"/>
<path d="M673.612 46.9975C672.904 46.7196 672.056 46.4662 671.069 46.2365V41.8863C671.397 42.008 671.668 42.1844 671.882 42.4167C672.042 42.5909 672.173 42.7816 672.276 42.9889C672.657 43.7561 673.456 44.2689 674.366 44.2689H674.494C676.29 44.2689 677.429 42.4458 676.499 41.0195C676.19 40.5448 675.802 40.11 675.334 39.7152C674.215 38.7699 672.793 38.2072 671.069 38.0266V37.0168C671.069 36.431 670.595 35.9561 670.009 35.9561C669.423 35.9561 668.948 36.431 668.948 37.0168V37.9949C667.174 38.1304 665.707 38.7003 664.549 39.7061C663.21 40.8688 662.541 42.3173 662.541 44.0521C662.541 47.0097 664.677 48.9788 668.948 49.9608V54.4423C668.39 54.3302 667.917 54.114 667.531 53.792C667.234 53.5451 667.006 53.2441 666.846 52.8888C666.506 52.1324 665.685 51.6597 664.803 51.6597C663.102 51.6597 662.004 53.3612 662.839 54.7379C662.883 54.8114 662.93 54.8847 662.978 54.9574C663.65 55.9756 664.576 56.7766 665.758 57.3608C666.711 57.8316 667.774 58.1125 668.948 58.2038V58.9827C668.948 59.5686 669.423 60.0435 670.009 60.0435C670.595 60.0435 671.069 59.5686 671.069 58.9827V58.1754C672.758 58.004 674.177 57.4738 675.326 56.5837C676.748 55.4815 677.459 54.039 677.459 52.256C677.459 49.7622 676.177 48.0095 673.612 46.9975ZM667.976 45.1995C667.466 44.8443 667.211 44.3773 667.211 43.7991C667.211 43.1847 667.435 42.6787 667.883 42.2812C668.165 42.0311 668.52 41.86 668.948 41.7672V45.6764C668.544 45.5284 668.22 45.3696 667.976 45.1995ZM672.025 53.9635C671.771 54.1656 671.451 54.312 671.069 54.4066V50.5772C671.379 50.7009 671.642 50.8298 671.857 50.964C672.445 51.3316 672.739 51.8343 672.739 52.4728C672.739 53.0871 672.501 53.584 672.025 53.9635Z" fill="#DE5A00"/>
<path d="M670.002 28.6699C659.326 28.6699 650.672 37.3242 650.672 47.9999C650.672 58.6757 659.326 67.3301 670.002 67.3301C680.678 67.3301 689.332 58.6757 689.332 47.9999C689.332 37.3242 680.678 28.6699 670.002 28.6699ZM670.002 62.2999C662.104 62.2999 655.702 55.8976 655.702 47.9999C655.702 40.1022 662.104 33.6999 670.002 33.6999C677.9 33.6999 684.302 40.1022 684.302 47.9999C684.302 55.8976 677.9 62.2999 670.002 62.2999Z" fill="#FFC711"/>
<mask id="mask2_56_6688" style="mask-type:alpha" maskUnits="userSpaceOnUse" x="650" y="28" width="40" height="40">
<mask id="mask3_56_6688" style="mask-type:luminance" maskUnits="userSpaceOnUse" x="640" y="18" width="60" height="60">
<path d="M640 18H700V78H640V18Z" fill="white"/>
</mask>
<g mask="url(#mask3_56_6688)">
<path d="M670.002 28.6699C659.326 28.6699 650.672 37.3242 650.672 47.9999C650.672 58.6757 659.326 67.3301 670.002 67.3301C680.678 67.3301 689.332 58.6757 689.332 47.9999C689.332 37.3242 680.678 28.6699 670.002 28.6699ZM670.002 62.2999C662.104 62.2999 655.702 55.8976 655.702 47.9999C655.702 40.1022 662.104 33.6999 670.002 33.6999C677.9 33.6999 684.302 40.1022 684.302 47.9999C684.302 55.8976 677.9 62.2999 670.002 62.2999Z" fill="#FFC711"/>
<path d="M673.612 46.9975C672.904 46.7196 672.056 46.4662 671.069 46.2365V41.8863C671.397 42.008 671.668 42.1844 671.882 42.4167C672.042 42.5909 672.173 42.7816 672.276 42.9889C672.657 43.7561 673.456 44.2689 674.366 44.2689H674.494C676.29 44.2689 677.429 42.4458 676.499 41.0195C676.19 40.5448 675.802 40.11 675.334 39.7152C674.215 38.7699 672.793 38.2072 671.069 38.0266V37.0168C671.069 36.431 670.595 35.9561 670.009 35.9561C669.423 35.9561 668.948 36.431 668.948 37.0168V37.9949C667.174 38.1304 665.707 38.7003 664.549 39.7061C663.21 40.8688 662.541 42.3173 662.541 44.0521C662.541 47.0097 664.677 48.9788 668.948 49.9608V54.4423C668.39 54.3302 667.917 54.114 667.531 53.792C667.234 53.5451 667.006 53.2441 666.846 52.8888C666.506 52.1324 665.685 51.6597 664.803 51.6597C663.102 51.6597 662.004 53.3612 662.839 54.7379C662.883 54.8114 662.93 54.8847 662.978 54.9574C663.65 55.9756 664.576 56.7766 665.758 57.3608C666.711 57.8316 667.774 58.1125 668.948 58.2038V58.9827C668.948 59.5686 669.423 60.0435 670.009 60.0435C670.595 60.0435 671.069 59.5686 671.069 58.9827V58.1754C672.758 58.004 674.177 57.4738 675.326 56.5837C676.748 55.4815 677.459 54.039 677.459 52.256C677.459 49.7622 676.177 48.0095 673.612 46.9975ZM667.976 45.1995C667.466 44.8443 667.211 44.3773 667.211 43.7991C667.211 43.1847 667.435 42.6787 667.883 42.2812C668.165 42.0311 668.52 41.86 668.948 41.7672V45.6764C668.544 45.5284 668.22 45.3696 667.976 45.1995ZM672.025 53.9635C671.771 54.1656 671.451 54.312 671.069 54.4066V50.5772C671.379 50.7009 671.642 50.8298 671.857 50.964C672.445 51.3316 672.739 51.8343 672.739 52.4728C672.739 53.0871 672.501 53.584 672.025 53.9635Z" fill="#FFC711"/>
</g>
</mask>
<g mask="url(#mask2_56_6688)">
<path d="M683.333 27.2154L656.412 72.0191L646.312 65.9502L673.232 21.1465L683.333 27.2154Z" fill="#FFE286"/>
</g>
</g>
</g>
<circle cx="670" cy="48" r="13" fill="#EF7B00"/>
<path d="M665 54V43.052C665 42.8193 665.077 42.5932 665.22 42.4092C665.362 42.2252 665.561 42.0936 665.787 42.0353C666.012 41.9769 666.25 41.995 666.464 42.0867C666.678 42.1784 666.855 42.3386 666.968 42.542L673.032 53.458C673.145 53.6614 673.322 53.8216 673.536 53.9133C673.75 54.005 673.988 54.0231 674.213 53.9647C674.439 53.9064 674.638 53.7748 674.78 53.5908C674.923 53.4068 675 53.1807 675 52.948V42M663 46H677M663 50H677" stroke="#FFE286" stroke-width="2" stroke-linecap="round" stroke-linejoin="round"/>
</g>
<defs>
<linearGradient id="paint0_linear_56_6688" x1="728.5" y1="121" x2="428" y2="59" gradientUnits="userSpaceOnUse">
<stop stop-color="#FFC711"/>
<stop offset="1" stop-color="#8807F7"/>
</linearGradient>
<clipPath id="clip0_56_6688">
<rect width="60" height="60" fill="white" transform="translate(640 18)"/>
</clipPath>
</defs>
</svg>
