<svg width="1015" height="99" viewBox="0 0 1015 99" fill="none" xmlns="http://www.w3.org/2000/svg">
<path d="M36.54 76V69H12.53V29.1H4.62V76H36.54ZM54.6602 76.7C62.2202 76.7 66.8402 73.27 69.4302 69.35L64.6002 64.31C63.3402 67.18 60.6802 70.26 54.7302 70.26C49.3402 70.26 45.7702 66.97 45.3502 60.88H69.7102C69.8502 60.18 69.9902 58.71 69.9902 57.45C69.9902 48 64.3202 41.21 54.1002 41.21C44.5102 41.21 37.8602 48.28 37.8602 58.99C37.8602 69.63 44.5102 76.7 54.6602 76.7ZM54.1002 47.51C59.2802 47.51 62.3602 50.45 62.9202 55.84H45.4202C46.0502 50.31 49.2702 47.51 54.1002 47.51ZM84.2111 76.7C91.3511 76.7 94.6411 71.38 95.6911 66.9V69.42C95.6911 74.32 98.5611 76 102.201 76H107.031V69.28H104.861C103.601 69.28 103.041 68.79 103.041 67.25V54.44C103.041 46.04 98.2811 41.21 89.8111 41.21C82.2511 41.21 76.9311 45.13 74.2711 48.77L78.9611 54.37C80.9211 50.8 84.4911 48.14 89.0411 48.14C93.7311 48.14 95.2711 50.45 95.5511 53.88L84.1411 58.71C78.6111 60.88 75.2511 63.82 75.2511 68.65C75.2511 73.55 78.6111 76.7 84.2111 76.7ZM82.8111 67.46C82.8111 65.71 84.0011 64.52 86.9411 63.19L95.6911 59.27V62.91C95.6911 67.53 92.1911 70.61 87.0111 70.61C84.1411 70.61 82.8111 69.42 82.8111 67.46ZM120.866 76V57.24C120.866 51.57 124.506 47.09 128.426 47.09C130.736 47.09 131.646 48.63 131.646 50.52C131.646 52.48 130.596 54.72 129.476 55.84H137.526C138.156 54.79 139.066 52.34 139.066 49.05C139.066 44.01 135.916 41.21 131.646 41.21C125.556 41.21 122.126 46.11 120.866 51.57V41.91H113.026V76H120.866ZM151.56 76V56.89C151.56 51.29 153.52 47.58 159.26 47.58C164.51 47.58 165.91 50.45 165.91 54.65V76H173.82V52.27C173.82 45.2 169.76 41.21 163.11 41.21C156.32 41.21 152.82 45.83 151.56 51.22V41.91H143.72V76H151.56ZM209.935 76.84C215.745 76.84 221.275 75.16 225.335 72.08C228.415 74.95 231.495 76.7 235.625 76.7C239.755 76.7 242.975 74.46 244.515 72.15L241.365 64.17C241.225 65.85 239.405 69.77 235.765 69.77C233.945 69.77 232.195 68.79 230.515 67.32C234.225 63.47 236.675 57.73 235.415 50.31H227.925C229.255 56.12 228.695 60.04 226.385 63.12L216.235 52.2C222.465 50.45 227.295 46.25 227.295 39.74C227.295 33.44 222.465 28.33 214.065 28.33C204.895 28.33 200.345 33.51 200.345 40.02C200.345 44.36 202.865 48 205.735 51.29C198.245 54.37 194.955 58.92 194.955 64.17C194.955 72.71 201.605 76.84 209.935 76.84ZM208.045 39.95C208.045 36.94 210.145 34.56 214.065 34.56C217.985 34.56 220.155 37.15 220.155 40.3C220.155 43.38 218.545 46.25 212.945 48.63C209.655 44.99 208.045 42.68 208.045 39.95ZM203.005 63.12C203.005 59.83 205.315 56.82 209.235 55.07L209.375 55.21L220.855 67.39C218.265 68.93 215.045 69.84 211.615 69.84C206.715 69.84 203.005 67.6 203.005 63.12Z" fill="white"/>
<path d="M297.361 76V69H272.091V55.56H293.021V48.56H272.091V36.1H297.361V29.1H264.181V76H297.361ZM310.481 76.7C317.621 76.7 320.911 71.38 321.961 66.9V69.42C321.961 74.32 324.831 76 328.471 76H333.301V69.28H331.131C329.871 69.28 329.311 68.79 329.311 67.25V54.44C329.311 46.04 324.551 41.21 316.081 41.21C308.521 41.21 303.201 45.13 300.541 48.77L305.231 54.37C307.191 50.8 310.761 48.14 315.311 48.14C320.001 48.14 321.541 50.45 321.821 53.88L310.411 58.71C304.881 60.88 301.521 63.82 301.521 68.65C301.521 73.55 304.881 76.7 310.481 76.7ZM309.081 67.46C309.081 65.71 310.271 64.52 313.211 63.19L321.961 59.27V62.91C321.961 67.53 318.461 70.61 313.281 70.61C310.411 70.61 309.081 69.42 309.081 67.46ZM347.136 76V57.24C347.136 51.57 350.776 47.09 354.696 47.09C357.006 47.09 357.916 48.63 357.916 50.52C357.916 52.48 356.866 54.72 355.746 55.84H363.796C364.426 54.79 365.336 52.34 365.336 49.05C365.336 44.01 362.186 41.21 357.916 41.21C351.826 41.21 348.396 46.11 347.136 51.57V41.91H339.296V76H347.136ZM377.829 76V56.89C377.829 51.29 379.789 47.58 385.529 47.58C390.779 47.58 392.179 50.45 392.179 54.65V76H400.089V52.27C400.089 45.2 396.029 41.21 389.379 41.21C382.589 41.21 379.089 45.83 377.829 51.22V41.91H369.989V76H377.829ZM431.094 76V57.52H451.464V50.52H431.094V36.1H455.734V29.1H423.184V76H431.094ZM469.499 37.08V29.1H461.659V37.08H469.499ZM469.499 76V41.91H461.659V76H469.499ZM485.632 76V56.89C485.632 51.29 487.592 47.58 493.332 47.58C498.582 47.58 499.982 50.45 499.982 54.65V76H507.892V52.27C507.892 45.2 503.832 41.21 497.182 41.21C490.392 41.21 486.892 45.83 485.632 51.22V41.91H477.792V76H485.632ZM523.215 76.7C530.355 76.7 533.645 71.38 534.695 66.9V69.42C534.695 74.32 537.565 76 541.205 76H546.035V69.28H543.865C542.605 69.28 542.045 68.79 542.045 67.25V54.44C542.045 46.04 537.285 41.21 528.815 41.21C521.255 41.21 515.935 45.13 513.275 48.77L517.965 54.37C519.925 50.8 523.495 48.14 528.045 48.14C532.735 48.14 534.275 50.45 534.555 53.88L523.145 58.71C517.615 60.88 514.255 63.82 514.255 68.65C514.255 73.55 517.615 76.7 523.215 76.7ZM521.815 67.46C521.815 65.71 523.005 64.52 525.945 63.19L534.695 59.27V62.91C534.695 67.53 531.195 70.61 526.015 70.61C523.145 70.61 521.815 69.42 521.815 67.46ZM559.87 76V56.89C559.87 51.29 561.83 47.58 567.57 47.58C572.82 47.58 574.22 50.45 574.22 54.65V76H582.13V52.27C582.13 45.2 578.07 41.21 571.42 41.21C564.63 41.21 561.13 45.83 559.87 51.22V41.91H552.03V76H559.87ZM604.808 76.7C613.348 76.7 618.738 71.87 620.558 65.43L613.488 61.93C612.718 66.83 610.268 70.12 604.948 70.12C599.558 70.12 596.268 66.13 596.268 58.99C596.268 51.78 599.558 47.79 604.948 47.79C610.198 47.79 612.718 51.08 613.488 55.98L620.558 52.48C618.738 46.04 613.348 41.21 604.808 41.21C594.658 41.21 588.288 48.35 588.288 58.99C588.288 69.56 594.658 76.7 604.808 76.7ZM634.45 37.08V29.1H626.61V37.08H634.45ZM634.45 76V41.91H626.61V76H634.45ZM649.953 76.7C657.093 76.7 660.383 71.38 661.433 66.9V69.42C661.433 74.32 664.303 76 667.943 76H672.773V69.28H670.603C669.343 69.28 668.783 68.79 668.783 67.25V54.44C668.783 46.04 664.023 41.21 655.553 41.21C647.993 41.21 642.673 45.13 640.013 48.77L644.703 54.37C646.663 50.8 650.233 48.14 654.783 48.14C659.473 48.14 661.013 50.45 661.293 53.88L649.883 58.71C644.353 60.88 640.993 63.82 640.993 68.65C640.993 73.55 644.353 76.7 649.953 76.7ZM648.553 67.46C648.553 65.71 649.743 64.52 652.683 63.19L661.433 59.27V62.91C661.433 67.53 657.933 70.61 652.753 70.61C649.883 70.61 648.553 69.42 648.553 67.46ZM686.609 76V29.1H678.769V76H686.609ZM717.862 76V57.52H738.232V50.52H717.862V36.1H742.502V29.1H709.952V76H717.862ZM754.284 76V57.24C754.284 51.57 757.924 47.09 761.844 47.09C764.154 47.09 765.064 48.63 765.064 50.52C765.064 52.48 764.014 54.72 762.894 55.84H770.944C771.574 54.79 772.484 52.34 772.484 49.05C772.484 44.01 769.334 41.21 765.064 41.21C758.974 41.21 755.544 46.11 754.284 51.57V41.91H746.444V76H754.284ZM791.984 76.7C799.544 76.7 804.164 73.27 806.754 69.35L801.924 64.31C800.664 67.18 798.004 70.26 792.054 70.26C786.664 70.26 783.094 66.97 782.674 60.88H807.034C807.174 60.18 807.314 58.71 807.314 57.45C807.314 48 801.644 41.21 791.424 41.21C781.834 41.21 775.184 48.28 775.184 58.99C775.184 69.63 781.834 76.7 791.984 76.7ZM791.424 47.51C796.604 47.51 799.684 50.45 800.244 55.84H782.744C783.374 50.31 786.594 47.51 791.424 47.51ZM829.992 76.7C837.552 76.7 842.172 73.27 844.762 69.35L839.932 64.31C838.672 67.18 836.012 70.26 830.062 70.26C824.672 70.26 821.102 66.97 820.682 60.88H845.042C845.182 60.18 845.322 58.71 845.322 57.45C845.322 48 839.652 41.21 829.432 41.21C819.842 41.21 813.192 48.28 813.192 58.99C813.192 69.63 819.842 76.7 829.992 76.7ZM829.432 47.51C834.612 47.51 837.692 50.45 838.252 55.84H820.752C821.382 50.31 824.602 47.51 829.432 47.51ZM864.71 76.77C871.5 76.77 874.37 72.22 875.49 66.97V76H883.33V29.1H875.49V51.08C874.37 45.76 871.36 41.21 864.57 41.21C856.31 41.21 850.99 48 850.99 58.99C850.99 69.98 856.31 76.77 864.71 76.77ZM859.04 58.99C859.04 51.36 862.75 47.58 867.65 47.58C873.18 47.58 875.49 51.29 875.49 56.89V61.16C875.49 66.76 873.18 70.4 867.72 70.4C862.75 70.4 859.04 66.69 859.04 58.99ZM905.921 76.7C915.861 76.7 922.581 69.56 922.581 58.99C922.581 48.35 915.861 41.21 905.921 41.21C896.121 41.21 889.401 48.35 889.401 58.99C889.401 69.56 896.121 76.7 905.921 76.7ZM905.991 70.19C900.951 70.19 897.451 66.83 897.451 58.99C897.451 51.08 900.951 47.72 905.991 47.72C911.101 47.72 914.601 51.08 914.601 58.99C914.601 66.83 911.101 70.19 905.991 70.19ZM937.146 76V56.89C937.146 51.29 939.106 47.58 943.726 47.58C948.346 47.58 950.306 49.96 950.306 54.65V76H958.146V56.89C958.146 51.29 960.106 47.58 964.726 47.58C969.346 47.58 971.306 49.96 971.306 54.65V76H979.146V52.27C979.146 45.2 975.716 41.21 969.206 41.21C962.696 41.21 959.336 45.9 958.146 51.29C957.796 44.85 954.436 41.21 948.206 41.21C941.766 41.21 938.406 45.83 937.146 51.22V41.91H929.306V76H937.146Z" fill="url(#paint0_linear_111_6732)"/>
<g clip-path="url(#clip0_111_6732)">
<mask id="mask0_111_6732" style="mask-type:luminance" maskUnits="userSpaceOnUse" x="955" y="0" width="60" height="60">
<path d="M1015 0H955V60H1015V0Z" fill="white"/>
</mask>
<g mask="url(#mask0_111_6732)">
<mask id="mask1_111_6732" style="mask-type:luminance" maskUnits="userSpaceOnUse" x="955" y="0" width="60" height="60">
<path d="M955 0H1015V60H955V0Z" fill="white"/>
</mask>
<g mask="url(#mask1_111_6732)">
<path d="M985.002 10.6699C974.326 10.6699 965.672 19.3242 965.672 29.9999C965.672 40.6757 974.326 49.3301 985.002 49.3301C995.678 49.3301 1004.33 40.6757 1004.33 29.9999C1004.33 19.3242 995.678 10.6699 985.002 10.6699Z" fill="#DE5A00"/>
<path d="M985.002 10.6699C974.326 10.6699 965.672 19.3242 965.672 29.9999C965.672 40.6757 974.326 49.3301 985.002 49.3301C995.678 49.3301 1004.33 40.6757 1004.33 29.9999C1004.33 19.3242 995.678 10.6699 985.002 10.6699Z" fill="#EF7B00"/>
<path d="M985.002 10.6699C974.326 10.6699 965.672 19.3242 965.672 29.9999C965.672 40.6757 974.326 49.3301 985.002 49.3301C995.678 49.3301 1004.33 40.6757 1004.33 29.9999C1004.33 19.3242 995.678 10.6699 985.002 10.6699ZM985.002 44.2999C977.104 44.2999 970.702 37.8976 970.702 29.9999C970.702 22.1022 977.104 15.6999 985.002 15.6999C992.9 15.6999 999.302 22.1022 999.302 29.9999C999.302 37.8976 992.9 44.2999 985.002 44.2999Z" fill="#DE5A00"/>
<path d="M988.612 28.9975C987.904 28.7196 987.056 28.4662 986.069 28.2365V23.8863C986.397 24.008 986.668 24.1844 986.882 24.4167C987.042 24.5909 987.173 24.7816 987.276 24.9889C987.657 25.7561 988.456 26.2689 989.366 26.2689H989.494C991.29 26.2689 992.429 24.4458 991.499 23.0195C991.19 22.5448 990.802 22.11 990.334 21.7152C989.215 20.7699 987.793 20.2072 986.069 20.0266V19.0168C986.069 18.431 985.595 17.9561 985.009 17.9561C984.423 17.9561 983.948 18.431 983.948 19.0168V19.9949C982.174 20.1304 980.707 20.7003 979.549 21.7061C978.21 22.8688 977.541 24.3173 977.541 26.0521C977.541 29.0097 979.677 30.9788 983.948 31.9608V36.4423C983.39 36.3302 982.917 36.114 982.531 35.792C982.234 35.5451 982.006 35.2441 981.846 34.8888C981.506 34.1324 980.685 33.6597 979.803 33.6597C978.102 33.6597 977.004 35.3612 977.839 36.7379C977.883 36.8114 977.93 36.8847 977.978 36.9574C978.65 37.9756 979.576 38.7766 980.758 39.3608C981.711 39.8316 982.774 40.1125 983.948 40.2038V40.9827C983.948 41.5686 984.423 42.0435 985.009 42.0435C985.595 42.0435 986.069 41.5686 986.069 40.9827V40.1754C987.758 40.004 989.177 39.4738 990.326 38.5837C991.748 37.4815 992.459 36.039 992.459 34.256C992.459 31.7622 991.177 30.0095 988.612 28.9975ZM982.976 27.1995C982.466 26.8443 982.211 26.3773 982.211 25.7991C982.211 25.1847 982.435 24.6787 982.883 24.2812C983.165 24.0311 983.52 23.86 983.948 23.7672V27.6764C983.544 27.5284 983.22 27.3696 982.976 27.1995ZM987.025 35.9635C986.771 36.1656 986.451 36.312 986.069 36.4066V32.5772C986.379 32.7009 986.642 32.8298 986.857 32.964C987.445 33.3316 987.739 33.8343 987.739 34.4728C987.739 35.0871 987.501 35.584 987.025 35.9635Z" fill="#DE5A00"/>
<path d="M985.002 10.6699C974.326 10.6699 965.672 19.3242 965.672 29.9999C965.672 40.6757 974.326 49.3301 985.002 49.3301C995.678 49.3301 1004.33 40.6757 1004.33 29.9999C1004.33 19.3242 995.678 10.6699 985.002 10.6699ZM985.002 44.2999C977.104 44.2999 970.702 37.8976 970.702 29.9999C970.702 22.1022 977.104 15.6999 985.002 15.6999C992.9 15.6999 999.302 22.1022 999.302 29.9999C999.302 37.8976 992.9 44.2999 985.002 44.2999Z" fill="#FFC711"/>
<mask id="mask2_111_6732" style="mask-type:alpha" maskUnits="userSpaceOnUse" x="965" y="10" width="40" height="40">
<mask id="mask3_111_6732" style="mask-type:luminance" maskUnits="userSpaceOnUse" x="955" y="0" width="60" height="60">
<path d="M955 0H1015V60H955V0Z" fill="white"/>
</mask>
<g mask="url(#mask3_111_6732)">
<path d="M985.002 10.6699C974.326 10.6699 965.672 19.3242 965.672 29.9999C965.672 40.6757 974.326 49.3301 985.002 49.3301C995.678 49.3301 1004.33 40.6757 1004.33 29.9999C1004.33 19.3242 995.678 10.6699 985.002 10.6699ZM985.002 44.2999C977.104 44.2999 970.702 37.8976 970.702 29.9999C970.702 22.1022 977.104 15.6999 985.002 15.6999C992.9 15.6999 999.302 22.1022 999.302 29.9999C999.302 37.8976 992.9 44.2999 985.002 44.2999Z" fill="#FFC711"/>
<path d="M988.612 28.9975C987.904 28.7196 987.056 28.4662 986.069 28.2365V23.8863C986.397 24.008 986.668 24.1844 986.882 24.4167C987.042 24.5909 987.173 24.7816 987.276 24.9889C987.657 25.7561 988.456 26.2689 989.366 26.2689H989.494C991.29 26.2689 992.429 24.4458 991.499 23.0195C991.19 22.5448 990.802 22.11 990.334 21.7152C989.215 20.7699 987.793 20.2072 986.069 20.0266V19.0168C986.069 18.431 985.595 17.9561 985.009 17.9561C984.423 17.9561 983.948 18.431 983.948 19.0168V19.9949C982.174 20.1304 980.707 20.7003 979.549 21.7061C978.21 22.8688 977.541 24.3173 977.541 26.0521C977.541 29.0097 979.677 30.9788 983.948 31.9608V36.4423C983.39 36.3302 982.917 36.114 982.531 35.792C982.234 35.5451 982.006 35.2441 981.846 34.8888C981.506 34.1324 980.685 33.6597 979.803 33.6597C978.102 33.6597 977.004 35.3612 977.839 36.7379C977.883 36.8114 977.93 36.8847 977.978 36.9574C978.65 37.9756 979.576 38.7766 980.758 39.3608C981.711 39.8316 982.774 40.1125 983.948 40.2038V40.9827C983.948 41.5686 984.423 42.0435 985.009 42.0435C985.595 42.0435 986.069 41.5686 986.069 40.9827V40.1754C987.758 40.004 989.177 39.4738 990.326 38.5837C991.748 37.4815 992.459 36.039 992.459 34.256C992.459 31.7622 991.177 30.0095 988.612 28.9975ZM982.976 27.1995C982.466 26.8443 982.211 26.3773 982.211 25.7991C982.211 25.1847 982.435 24.6787 982.883 24.2812C983.165 24.0311 983.52 23.86 983.948 23.7672V27.6764C983.544 27.5284 983.22 27.3696 982.976 27.1995ZM987.025 35.9635C986.771 36.1656 986.451 36.312 986.069 36.4066V32.5772C986.379 32.7009 986.642 32.8298 986.857 32.964C987.445 33.3316 987.739 33.8343 987.739 34.4728C987.739 35.0871 987.501 35.584 987.025 35.9635Z" fill="#FFC711"/>
</g>
</mask>
<g mask="url(#mask2_111_6732)">
<path d="M998.333 9.21544L971.412 54.0191L961.312 47.9502L988.232 3.14648L998.333 9.21544Z" fill="#FFE286"/>
</g>
</g>
</g>
<circle cx="985" cy="30" r="13" fill="#EF7B00"/>
<path d="M980 36V25.052C980 24.8193 980.077 24.5932 980.22 24.4092C980.362 24.2252 980.561 24.0936 980.787 24.0353C981.012 23.9769 981.25 23.995 981.464 24.0867C981.678 24.1784 981.855 24.3386 981.968 24.542L988.032 35.458C988.145 35.6614 988.322 35.8216 988.536 35.9133C988.75 36.005 988.988 36.0231 989.213 35.9647C989.439 35.9064 989.638 35.7748 989.78 35.5908C989.923 35.4068 990 35.1807 990 34.948V24M978 28H992M978 32H992" stroke="#FFE286" stroke-width="2" stroke-linecap="round" stroke-linejoin="round"/>
</g>
<defs>
<linearGradient id="paint0_linear_111_6732" x1="1061.99" y1="84.6" x2="305.265" y2="-326.712" gradientUnits="userSpaceOnUse">
<stop stop-color="#FFC711"/>
<stop offset="1" stop-color="#8807F7"/>
</linearGradient>
<clipPath id="clip0_111_6732">
<rect width="60" height="60" fill="white" transform="translate(955)"/>
</clipPath>
</defs>
</svg>
