<svg width="1440" height="825" viewBox="0 0 1440 825" fill="none" xmlns="http://www.w3.org/2000/svg">
<rect width="1440" height="825" fill="white"/>
<g opacity="0.05">
<path fill-rule="evenodd" clip-rule="evenodd" d="M223.182 150.799C225.492 164.255 238.273 173.291 251.729 170.981C265.185 168.671 274.221 155.89 271.911 142.434C269.601 128.978 256.82 119.942 243.364 122.252C229.908 124.562 220.872 137.343 223.182 150.799ZM234.298 148.481C235.509 155.54 242.214 160.28 249.273 159.068C256.332 157.856 261.072 151.152 259.86 144.093C258.648 137.034 251.944 132.294 244.885 133.506C237.826 134.717 233.086 141.422 234.298 148.481Z" fill="#E8356D"/>
<path fill-rule="evenodd" clip-rule="evenodd" d="M278.274 163.708C279.273 169.527 284.8 173.434 290.619 172.435C296.437 171.436 300.345 165.909 299.346 160.09C298.347 154.271 292.82 150.364 287.001 151.363C281.182 152.362 277.275 157.889 278.274 163.708ZM283.08 162.704C283.604 165.756 286.504 167.806 289.556 167.282C292.609 166.758 294.658 163.859 294.134 160.806C293.61 157.754 290.711 155.704 287.659 156.228C284.606 156.752 282.556 159.651 283.08 162.704Z" fill="#E8356D"/>
</g>
<g opacity="0.05">
<path fill-rule="evenodd" clip-rule="evenodd" d="M637.748 81.9685C648.61 78.4238 654.542 66.7449 650.997 55.8829C647.452 45.021 635.773 39.0891 624.911 42.6337C614.05 46.1784 608.118 57.8573 611.662 68.7193C615.207 79.5812 626.886 85.5131 637.748 81.9685ZM634.481 73.0458C640.179 71.1863 643.29 65.0597 641.431 59.3616C639.571 53.6635 633.445 50.5517 627.747 52.4112C622.049 54.2707 618.937 60.3973 620.796 66.0954C622.656 71.7935 628.782 74.9053 634.481 73.0458Z" fill="#E8356D"/>
<path fill-rule="evenodd" clip-rule="evenodd" d="M641.757 34.785C646.454 33.2522 649.019 28.2019 647.486 23.5048C645.953 18.8077 640.903 16.2426 636.206 17.7754C631.509 19.3082 628.944 24.3586 630.477 29.0556C632.009 33.7527 637.06 36.3178 641.757 34.785ZM640.342 30.927C642.806 30.1228 644.152 27.4735 643.348 25.0095C642.544 22.5454 639.894 21.1998 637.43 22.0039C634.966 22.808 633.621 25.4573 634.425 27.9214C635.229 30.3854 637.878 31.7311 640.342 30.927Z" fill="#E8356D"/>
</g>
<path opacity="0.4" d="M262 597C266.631 600.034 284.086 615.858 291.84 609.514C297.81 604.629 300.878 603.497 308.565 603.497C321.209 603.497 322.734 620.158 338.284 616.011C344.633 614.318 365.048 608.121 370.771 613.845C372.469 615.543 372.541 617.362 374.141 619.139C376.224 621.454 379.537 622.095 381.119 624.073C383.223 626.702 392.208 624.371 395.197 625.035C401.558 626.449 398.95 632.483 404.943 629.487" stroke="#FBDCE6" stroke-width="10" stroke-linecap="round"/>
</svg>
