<svg width="1450" height="877" viewBox="0 0 1450 877" fill="none" xmlns="http://www.w3.org/2000/svg">
<g clip-path="url(#clip0_5085_90448)">
<rect width="1450" height="903" fill="#8807F7"/>
<path opacity="0.55" d="M791.051 793.391C878.992 683.635 923.906 545.584 917.381 405.093C910.856 264.602 853.34 131.309 755.604 30.1758C657.868 -70.957 526.616 -132.992 386.43 -144.311C246.244 -155.63 106.74 -115.457 -5.95573 -31.315C-118.652 52.8268 -196.809 175.166 -225.79 312.789C-254.77 450.413 -232.587 593.882 -163.394 716.326C-94.2017 838.77 17.2546 931.791 150.1 977.967C282.946 1024.14 428.069 1020.31 558.289 967.177L452.588 708.104C385.396 735.518 310.514 737.497 241.967 713.671C173.421 689.845 115.91 641.847 80.2077 578.667C44.505 515.487 33.0587 441.459 48.0125 370.447C62.9663 299.435 103.295 236.309 161.444 192.893C219.594 149.477 291.577 128.748 363.911 134.588C436.245 140.429 503.97 172.438 554.4 224.621C604.831 276.805 634.509 345.583 637.876 418.074C641.243 490.566 618.067 561.799 572.691 618.432L791.051 793.391Z" fill="#7F00EC"/>
</g>
<defs>
<clipPath id="clip0_5085_90448">
<rect width="1450" height="877" fill="white"/>
</clipPath>
</defs>
</svg>
