<svg width="436" height="353" viewBox="0 0 436 353" fill="none" xmlns="http://www.w3.org/2000/svg">
<path opacity="0.1" d="M304.202 304.202C351.824 256.58 351.824 179.369 304.202 131.747C256.58 84.1251 179.369 84.1251 131.747 131.747C84.1249 179.369 84.1249 256.58 131.747 304.202C179.369 351.825 256.58 351.825 304.202 304.202Z" fill="#92E3A9"/>
<path opacity="0.1" d="M326.962 326.962C387.154 266.77 387.154 169.18 326.962 108.987C266.77 48.7953 169.18 48.7953 108.987 108.987C48.7953 169.18 48.7953 266.77 108.987 326.962C169.18 387.154 266.77 387.154 326.962 326.962Z" fill="#92E3A9"/>
<path opacity="0.1" d="M399.659 251.188C417.984 150.851 351.5 54.6561 251.162 36.3312C150.825 18.0063 54.63 84.4907 36.3051 184.828C17.9803 285.166 84.4646 381.361 184.802 399.686C285.14 418.01 381.334 351.526 399.659 251.188Z" fill="#92E3A9"/>
<path d="M193.209 117.453C192.7 117.587 192.17 117.619 191.648 117.547C191.127 117.475 190.625 117.3 190.171 117.034C189.717 116.767 189.321 116.413 189.005 115.992C188.688 115.571 188.458 115.092 188.328 114.582L178.738 75.5899C178.575 74.5852 178.796 73.5559 179.358 72.7072C179.92 71.8584 180.781 71.2524 181.769 71.0098C182.758 70.7672 183.801 70.9058 184.692 71.3981C185.583 71.8903 186.256 72.7001 186.576 73.6661L196.167 112.658C196.393 113.685 196.211 114.76 195.659 115.655C195.107 116.55 194.228 117.195 193.209 117.453Z" fill="white"/>
<path d="M245.724 118.746C245.046 118.917 244.336 118.917 243.657 118.746C243.13 118.599 242.638 118.346 242.212 118.003C241.786 117.66 241.435 117.233 241.18 116.749C240.924 116.265 240.77 115.734 240.727 115.189C240.684 114.644 240.753 114.095 240.929 113.577L252.127 75.0156C252.246 74.473 252.475 73.9607 252.8 73.5105C253.125 73.0602 253.539 72.6816 254.017 72.3982C254.494 72.1149 255.025 71.9328 255.576 71.8633C256.127 71.7939 256.687 71.8385 257.219 71.9945C257.752 72.1504 258.248 72.4143 258.674 72.7698C259.101 73.1253 259.45 73.5648 259.699 74.0609C259.949 74.557 260.094 75.0992 260.125 75.6536C260.156 76.2081 260.073 76.763 259.88 77.2839L248.682 115.817C248.497 116.526 248.125 117.172 247.605 117.687C247.085 118.202 246.435 118.568 245.724 118.746Z" fill="white"/>
<path d="M290.6 146.109C289.77 146.26 288.913 146.147 288.149 145.786C287.386 145.425 286.754 144.835 286.343 144.098C285.932 143.361 285.761 142.513 285.855 141.674C285.949 140.835 286.303 140.047 286.868 139.419L315.839 111.625C316.626 111.045 317.596 110.769 318.57 110.849C319.545 110.928 320.457 111.358 321.139 112.058C321.822 112.758 322.228 113.681 322.283 114.657C322.338 115.632 322.038 116.595 321.438 117.367L292.438 145.161C291.915 145.627 291.283 145.953 290.6 146.109Z" fill="white"/>
<path d="M354.746 182.661L315.754 192.251C314.71 192.506 313.609 192.336 312.69 191.779C311.772 191.222 311.113 190.322 310.858 189.279C310.603 188.236 310.773 187.134 311.33 186.216C311.887 185.298 312.787 184.639 313.83 184.384L352.908 174.822C353.936 174.56 355.026 174.714 355.94 175.252C356.855 175.79 357.519 176.668 357.79 177.693C357.922 178.22 357.948 178.767 357.865 179.303C357.783 179.84 357.595 180.354 357.312 180.817C357.028 181.279 356.655 181.681 356.215 181.997C355.774 182.314 355.275 182.54 354.746 182.661Z" fill="white"/>
<path d="M352.909 255.965C352.223 256.152 351.499 256.152 350.813 255.965L312.28 244.767C311.769 244.62 311.292 244.374 310.877 244.042C310.461 243.711 310.115 243.301 309.857 242.835C309.338 241.896 309.213 240.788 309.51 239.756C309.807 238.725 310.501 237.853 311.441 237.333C312.381 236.814 313.488 236.689 314.52 236.986L353.082 248.184C353.601 248.323 354.088 248.564 354.514 248.893C354.94 249.222 355.296 249.631 355.563 250.098C355.83 250.565 356.002 251.081 356.069 251.614C356.136 252.148 356.096 252.69 355.953 253.208C355.737 253.898 355.342 254.517 354.806 255.001C354.271 255.486 353.616 255.819 352.909 255.965Z" fill="white"/>
<path d="M114.592 313.937C113.904 314.1 113.186 314.082 112.507 313.886C111.828 313.69 111.211 313.321 110.716 312.817C110.337 312.441 110.037 311.993 109.832 311.501C109.627 311.008 109.521 310.479 109.521 309.946C109.521 309.412 109.627 308.883 109.832 308.391C110.037 307.898 110.337 307.451 110.716 307.074L139.687 279.28C140.042 278.823 140.491 278.448 141.003 278.179C141.516 277.91 142.08 277.754 142.657 277.721C143.235 277.689 143.813 277.78 144.352 277.99C144.892 278.2 145.38 278.523 145.784 278.937C146.187 279.351 146.498 279.847 146.694 280.392C146.89 280.936 146.967 281.516 146.92 282.093C146.873 282.67 146.703 283.23 146.421 283.735C146.139 284.24 145.752 284.679 145.286 285.023L116.315 312.817C115.843 313.328 115.251 313.713 114.592 313.937Z" fill="white"/>
<path d="M118.41 239.915L79.4468 249.591C78.4421 249.754 77.4129 249.532 76.5641 248.971C75.7153 248.409 75.1093 247.548 74.8667 246.559C74.6241 245.571 74.7627 244.527 75.255 243.636C75.7473 242.746 76.557 242.073 77.523 241.752L116.487 232.162C117.514 231.907 118.6 232.065 119.513 232.602C120.425 233.139 121.091 234.012 121.368 235.033C121.5 235.548 121.529 236.084 121.451 236.61C121.373 237.136 121.192 237.641 120.916 238.096C120.641 238.551 120.277 238.946 119.847 239.258C119.416 239.57 118.928 239.794 118.41 239.915Z" fill="white"/>
<path d="M119.705 187.485C119.017 187.656 118.297 187.656 117.609 187.485L79.0471 176.287C78.0856 175.931 77.2947 175.224 76.8341 174.308C76.3735 173.393 76.2774 172.336 76.5653 171.352C76.8531 170.368 77.5035 169.53 78.3851 169.007C79.2667 168.484 80.3139 168.315 81.3154 168.534L119.848 179.617C120.704 179.852 121.46 180.361 121.998 181.066C122.537 181.772 122.828 182.635 122.828 183.522C122.828 184.41 122.537 185.273 121.998 185.978C121.46 186.684 120.704 187.193 119.848 187.427L119.705 187.485Z" fill="white"/>
<path d="M147.067 142.606C146.397 142.762 145.697 142.741 145.038 142.544C144.378 142.348 143.781 141.983 143.305 141.486L115.396 112.515C114.635 111.753 114.207 110.72 114.207 109.643C114.207 108.566 114.635 107.534 115.396 106.772C116.158 106.011 117.191 105.583 118.268 105.583C119.345 105.583 120.377 106.011 121.139 106.772L149.048 135.916C149.434 136.288 149.74 136.734 149.95 137.227C150.159 137.721 150.267 138.251 150.267 138.787C150.267 139.323 150.159 139.853 149.95 140.347C149.74 140.84 149.434 141.286 149.048 141.658C148.501 142.17 147.809 142.501 147.067 142.606Z" fill="white"/>
<path d="M241.962 360.998C235.329 359.103 233.979 353.647 238.947 348.852C241.795 346.384 245.186 344.625 248.844 343.717C252.501 342.809 256.322 342.778 259.994 343.626C266.626 345.55 267.976 350.977 263.008 355.772C260.16 358.239 256.769 359.999 253.111 360.907C249.454 361.815 245.633 361.846 241.962 360.998Z" fill="#263238"/>
<path d="M265.735 351.637L263.323 352.24C262.312 351.091 260.966 350.288 259.475 349.943C256.472 349.238 253.345 349.255 250.35 349.994C247.355 350.733 244.578 352.172 242.247 354.192C241.106 355.203 240.295 356.533 239.922 358.011L237.51 358.614L241.357 362.318C242.315 363.155 243.456 363.755 244.688 364.07C247.691 364.777 250.819 364.761 253.814 364.022C256.81 363.283 259.586 361.843 261.916 359.82C262.86 358.97 263.588 357.907 264.041 356.719L265.735 351.637Z" fill="#263238"/>
<path d="M235.961 358.327C226.141 355.456 224.16 347.445 231.539 340.353C235.763 336.726 240.782 334.144 246.19 332.817C251.597 331.49 257.241 331.456 262.664 332.715C272.484 335.587 274.465 343.598 267.086 350.69C262.865 354.323 257.847 356.908 252.438 358.235C247.029 359.563 241.384 359.594 235.961 358.327Z" fill="#455A64"/>
<path d="M234.667 355.571C224.474 352.699 222.435 344.258 230.073 336.936C234.447 333.153 239.652 330.456 245.265 329.065C250.878 327.673 256.74 327.625 262.375 328.925C272.539 331.796 274.607 340.238 266.94 347.588C262.566 351.361 257.365 354.05 251.758 355.437C246.15 356.824 240.295 356.87 234.667 355.571Z" fill="#37474F"/>
<path d="M233.461 352.412C223.01 349.398 220.914 340.927 228.752 333.318C233.241 329.452 238.578 326.698 244.33 325.281C250.082 323.864 256.088 323.824 261.858 325.164C272.31 328.207 274.406 336.649 266.567 344.287C262.077 348.15 256.739 350.9 250.987 352.312C245.234 353.724 239.23 353.758 233.461 352.412Z" fill="#455A64"/>
<path d="M232.312 349.282C221.602 346.181 219.449 337.395 227.488 329.7C232.09 325.737 237.561 322.915 243.458 321.463C249.355 320.011 255.511 319.971 261.427 321.345C272.108 324.446 274.262 333.232 266.222 340.927C261.625 344.888 256.158 347.709 250.266 349.16C244.374 350.612 238.223 350.654 232.312 349.282Z" fill="#37474F"/>
<path d="M231.048 346.153C220.079 342.965 217.868 334.007 226.109 326.053C230.815 321.986 236.413 319.086 242.45 317.59C248.487 316.093 254.791 316.041 260.852 317.44C271.82 320.627 274.002 329.614 265.791 337.539C261.085 341.606 255.487 344.506 249.45 346.002C243.413 347.499 237.108 347.551 231.048 346.153Z" fill="#455A64"/>
<path d="M229.844 342.994C218.617 339.721 216.349 330.533 224.791 322.464C229.623 318.338 235.359 315.408 241.535 313.911C247.711 312.415 254.152 312.394 260.337 313.851C271.564 317.124 273.832 326.312 265.391 334.38C260.559 338.507 254.822 341.437 248.646 342.934C242.471 344.43 236.029 344.451 229.844 342.994Z" fill="#37474F"/>
<path d="M268.202 308.826C267.254 304.95 263.723 301.705 257.865 299.982C251.361 298.464 244.591 298.502 238.105 300.094C231.619 301.686 225.6 304.786 220.538 309.142C216.145 313.362 214.537 317.756 215.485 321.775L217.696 330.705C218.643 334.61 222.175 337.855 228.032 339.549C234.534 341.073 241.303 341.04 247.789 339.454C254.276 337.867 260.296 334.771 265.359 330.418C269.752 326.197 271.36 321.661 270.413 317.784L268.202 308.826Z" fill="#92E3A9"/>
<path d="M197.856 135.686C176.87 140.825 158.783 154.084 147.569 172.551C136.354 191.018 132.929 213.181 138.047 234.172C153.494 296.996 207.905 294.699 214.107 320.024C215.112 324.044 218.759 327.432 224.846 329.212C231.577 330.775 238.582 330.729 245.292 329.077C252.002 327.426 258.228 324.216 263.465 319.708C268.03 315.315 269.724 310.635 268.72 306.615C262.518 281.29 311.789 258.119 296.341 195.266C291.153 174.323 277.872 156.291 259.411 145.123C240.95 133.955 218.815 130.562 197.856 135.686Z" fill="white"/>
<path d="M227.602 326.858C217.409 323.986 215.371 315.545 223.008 308.223C227.379 304.445 232.58 301.75 238.187 300.359C243.795 298.967 249.651 298.916 255.282 300.212C265.475 303.083 267.513 311.525 259.876 318.875C255.5 322.644 250.298 325.331 244.692 326.718C239.085 328.104 233.231 328.152 227.602 326.858Z" fill="#F5F5F5"/>
<path opacity="0.25" d="M263.034 315.028C262.162 316.457 261.11 317.77 259.905 318.933C255.519 322.694 250.31 325.371 244.699 326.748C239.087 328.125 233.231 328.162 227.602 326.857C225.993 326.407 224.456 325.73 223.037 324.847C223.889 323.412 224.933 322.098 226.138 320.943C230.524 317.181 235.733 314.504 241.344 313.127C246.955 311.75 252.812 311.713 258.44 313.018C260.063 313.456 261.611 314.133 263.034 315.028Z" fill="#92E3A9"/>
<path d="M263.034 315.028C262.162 316.457 261.11 317.77 259.905 318.933C255.519 322.694 250.31 325.371 244.699 326.748C239.087 328.125 233.231 328.162 227.602 326.857C225.993 326.407 224.456 325.73 223.037 324.847C223.889 323.412 224.933 322.098 226.138 320.943C230.524 317.181 235.733 314.504 241.344 313.127C246.955 311.75 252.812 311.713 258.44 313.018C260.063 313.456 261.611 314.133 263.034 315.028Z" fill="#EBEBEB"/>
<path opacity="0.1" d="M245.865 157.738C244.983 158.419 244.192 159.211 243.511 160.093C242.312 161.774 241.571 163.737 241.36 165.791C241.148 167.844 241.474 169.918 242.305 171.808C245.176 179.187 253.79 182.144 259.533 187.054C265.819 192.432 271.106 198.876 275.153 206.091C276.428 208.777 277.987 211.318 279.804 213.671C280.891 214.845 282.378 215.57 283.972 215.703C285.566 215.836 287.152 215.367 288.418 214.389C289.606 213.083 290.492 211.531 291.013 209.844C291.534 208.156 291.678 206.375 291.433 204.627C290.278 188.175 282.648 172.852 270.214 162.016C263.438 155.728 254.163 151.507 245.865 157.738Z" fill="#92E3A9"/>
<path opacity="0.1" d="M280.835 226.448C280.753 227.712 280.939 228.979 281.379 230.166C281.819 231.353 282.505 232.435 283.391 233.339C284.369 234.307 285.69 234.85 287.066 234.85C288.442 234.85 289.763 234.307 290.741 233.339C291.709 232.318 292.405 231.071 292.766 229.712C293.127 228.353 293.142 226.924 292.809 225.558C292.499 224.046 291.648 222.699 290.417 221.769C289.186 220.839 287.657 220.389 286.119 220.505C284.716 220.795 283.444 221.531 282.493 222.602C281.541 223.672 280.96 225.021 280.835 226.448Z" fill="#92E3A9"/>
<path d="M252.643 319.191L251.724 319.421C244.804 291.253 242.105 273.193 242.708 259.123C242.838 255.477 243.319 251.852 244.144 248.298C237.04 247.732 230.139 245.657 223.901 242.211C219.962 248.157 214.804 253.198 208.769 256.999C211.152 259.708 213.267 262.64 215.086 265.756C222.178 278.016 228.179 295.244 235.185 323.412L234.266 323.641C227.346 295.56 221.403 278.39 214.368 266.215C212.556 263.051 210.441 260.07 208.051 257.314C207.242 257.772 206.408 258.184 205.553 258.549C196.738 262.339 190.709 261.018 188.038 258.549C187.116 257.703 186.475 256.594 186.203 255.371C185.931 254.149 186.04 252.873 186.517 251.715C186.967 250.551 187.753 249.547 188.776 248.831C189.798 248.115 191.011 247.72 192.259 247.696C196.423 247.294 202.28 249.533 208.31 256.309C214.285 252.601 219.388 247.645 223.269 241.781C222.056 241.069 220.92 240.232 219.881 239.283C213.937 233.798 212.818 228.085 213.708 224.553C213.984 223.374 214.581 222.294 215.432 221.433C216.284 220.572 217.356 219.962 218.532 219.672C219.701 219.384 220.928 219.428 222.074 219.799C223.22 220.169 224.24 220.851 225.021 221.768C227.49 224.467 229.127 230.066 226.428 237.675C225.923 238.993 225.299 240.261 224.561 241.465C230.755 244.87 237.611 246.898 244.66 247.408C246.929 238.794 251.092 234.028 254.94 232.449C256.051 231.908 257.298 231.706 258.524 231.869C259.749 232.033 260.9 232.554 261.831 233.368C262.793 234.174 263.484 235.256 263.813 236.468C264.141 237.679 264.091 238.962 263.668 240.144C262.462 243.618 257.754 247.581 248.192 248.327C247.273 248.327 246.354 248.327 245.321 248.327C244.466 251.876 243.975 255.503 243.856 259.152C243.052 273.135 245.752 291.11 252.643 319.191ZM245.35 247.408C246.172 247.452 246.996 247.452 247.819 247.408C256.95 246.719 261.4 243.044 262.491 239.857C262.857 238.854 262.901 237.763 262.618 236.733C262.335 235.704 261.739 234.789 260.912 234.114C260.116 233.418 259.131 232.976 258.083 232.843C257.034 232.71 255.97 232.892 255.026 233.368C251.58 234.631 247.589 239.082 245.35 247.322V247.408ZM191.082 248.93C190.228 249.097 189.431 249.48 188.767 250.043C188.103 250.606 187.595 251.33 187.292 252.146C186.906 253.12 186.82 254.187 187.045 255.211C187.27 256.234 187.796 257.166 188.555 257.889C191.024 260.186 196.681 261.392 205.065 257.889C205.812 257.573 206.53 257.2 207.276 256.798C201.533 250.538 195.791 248.442 192.173 248.758L191.082 248.93ZM218.589 220.562C217.576 220.801 216.65 221.322 215.919 222.063C215.188 222.805 214.68 223.737 214.454 224.754C213.392 228.86 215.718 234.287 220.197 238.565C221.193 239.469 222.28 240.268 223.441 240.948C224.15 239.802 224.746 238.591 225.222 237.33C227.318 231.387 226.858 225.529 224.016 222.371C223.369 221.591 222.522 221.003 221.566 220.669C220.609 220.335 219.58 220.268 218.589 220.476V220.562Z" fill="#455A64"/>
</svg>
