<svg width="500" height="206" viewBox="0 0 500 206" fill="none" xmlns="http://www.w3.org/2000/svg">
<path d="M6.35 199.72C6.35 200.06 6.31333 200.377 6.24 200.67C6.16667 200.963 6.03667 201.22 5.85 201.44C5.67 201.66 5.42333 201.833 5.11 201.96C4.80333 202.087 4.41333 202.15 3.94 202.15C3.5 202.15 3.11667 202.09 2.79 201.97C2.47 201.843 2.22333 201.71 2.05 201.57L2.5 200.58C2.66667 200.693 2.87 200.803 3.11 200.91C3.35667 201.01 3.60667 201.06 3.86 201.06C4.28667 201.06 4.59667 200.953 4.79 200.74C4.98333 200.527 5.08 200.16 5.08 199.64V195.07H6.35V199.72ZM9.73695 201.15C10.1103 201.15 10.3936 201.13 10.587 201.09V199.75C10.5203 199.73 10.4236 199.71 10.297 199.69C10.1703 199.67 10.0303 199.66 9.87695 199.66C9.74362 199.66 9.60695 199.67 9.46695 199.69C9.33362 199.71 9.21029 199.747 9.09695 199.8C8.99029 199.853 8.90362 199.93 8.83695 200.03C8.77029 200.123 8.73695 200.243 8.73695 200.39C8.73695 200.677 8.82695 200.877 9.00695 200.99C9.18695 201.097 9.43029 201.15 9.73695 201.15ZM9.63695 196.64C10.037 196.64 10.3736 196.69 10.647 196.79C10.9203 196.89 11.137 197.03 11.297 197.21C11.4636 197.39 11.5803 197.61 11.647 197.87C11.7203 198.123 11.757 198.403 11.757 198.71V201.88C11.5703 201.92 11.287 201.967 10.907 202.02C10.5336 202.08 10.1103 202.11 9.63695 202.11C9.32362 202.11 9.03695 202.08 8.77695 202.02C8.51695 201.96 8.29362 201.863 8.10695 201.73C7.92695 201.597 7.78362 201.423 7.67695 201.21C7.57695 200.997 7.52695 200.733 7.52695 200.42C7.52695 200.12 7.58362 199.867 7.69695 199.66C7.81695 199.453 7.97695 199.287 8.17695 199.16C8.37695 199.027 8.60695 198.933 8.86695 198.88C9.13362 198.82 9.41029 198.79 9.69695 198.79C9.83029 198.79 9.97029 198.8 10.117 198.82C10.2636 198.833 10.4203 198.86 10.587 198.9V198.7C10.587 198.56 10.5703 198.427 10.537 198.3C10.5036 198.173 10.4436 198.063 10.357 197.97C10.277 197.87 10.167 197.793 10.027 197.74C9.89362 197.687 9.72362 197.66 9.51695 197.66C9.23695 197.66 8.98029 197.68 8.74695 197.72C8.51362 197.76 8.32362 197.807 8.17695 197.86L8.02695 196.88C8.18029 196.827 8.40362 196.773 8.69695 196.72C8.99029 196.667 9.30362 196.64 9.63695 196.64ZM13.2388 196.94C13.4721 196.873 13.7754 196.81 14.1488 196.75C14.5221 196.69 14.9354 196.66 15.3888 196.66C15.8154 196.66 16.1721 196.72 16.4588 196.84C16.7454 196.953 16.9721 197.117 17.1388 197.33C17.3121 197.537 17.4321 197.79 17.4988 198.09C17.5721 198.383 17.6087 198.707 17.6087 199.06V202H16.3988V199.25C16.3988 198.97 16.3788 198.733 16.3388 198.54C16.3054 198.34 16.2454 198.18 16.1588 198.06C16.0788 197.933 15.9654 197.843 15.8188 197.79C15.6788 197.73 15.5054 197.7 15.2988 197.7C15.1454 197.7 14.9854 197.71 14.8188 197.73C14.6521 197.75 14.5288 197.767 14.4488 197.78V202H13.2388V196.94ZM20.3384 200.67C20.3517 200.783 20.3584 200.867 20.3584 200.92C20.3584 200.973 20.3584 201.027 20.3584 201.08C20.3584 201.493 20.2917 201.92 20.1584 202.36C20.0317 202.8 19.8517 203.217 19.6184 203.61L18.6684 203.35C18.8284 202.963 18.935 202.583 18.9884 202.21C19.0484 201.843 19.0784 201.52 19.0784 201.24C19.0784 201.16 19.075 201.06 19.0684 200.94C19.0684 200.82 19.065 200.73 19.0584 200.67H20.3384ZM28.1381 196.87C28.1381 197.11 28.0881 197.347 27.9881 197.58C27.8881 197.807 27.7581 198.03 27.5981 198.25C27.4448 198.463 27.2681 198.673 27.0681 198.88C26.8681 199.08 26.6681 199.277 26.4681 199.47C26.3615 199.57 26.2415 199.69 26.1081 199.83C25.9748 199.97 25.8481 200.11 25.7281 200.25C25.6081 200.39 25.5048 200.527 25.4181 200.66C25.3315 200.787 25.2848 200.893 25.2781 200.98H28.3581V202H23.9481C23.9415 201.947 23.9381 201.883 23.9381 201.81C23.9381 201.73 23.9381 201.67 23.9381 201.63C23.9381 201.31 23.9881 201.017 24.0881 200.75C24.1948 200.477 24.3315 200.223 24.4981 199.99C24.6648 199.757 24.8515 199.537 25.0581 199.33C25.2648 199.123 25.4715 198.92 25.6781 198.72C25.8381 198.567 25.9915 198.417 26.1381 198.27C26.2848 198.123 26.4115 197.98 26.5181 197.84C26.6315 197.693 26.7215 197.547 26.7881 197.4C26.8548 197.247 26.8881 197.09 26.8881 196.93C26.8881 196.583 26.7881 196.337 26.5881 196.19C26.3881 196.043 26.1448 195.97 25.8581 195.97C25.6715 195.97 25.4981 195.997 25.3381 196.05C25.1781 196.103 25.0348 196.167 24.9081 196.24C24.7881 196.313 24.6815 196.39 24.5881 196.47C24.4948 196.543 24.4248 196.603 24.3781 196.65L23.7781 195.8C24.0581 195.533 24.3848 195.32 24.7581 195.16C25.1381 194.993 25.5448 194.91 25.9781 194.91C26.7181 194.91 27.2615 195.087 27.6081 195.44C27.9615 195.787 28.1381 196.263 28.1381 196.87ZM34.2617 198.53C34.2617 199.697 34.0484 200.593 33.6217 201.22C33.1951 201.84 32.6051 202.15 31.8517 202.15C31.0984 202.15 30.5084 201.84 30.0817 201.22C29.6551 200.593 29.4417 199.697 29.4417 198.53C29.4417 197.95 29.4951 197.437 29.6017 196.99C29.7151 196.537 29.8751 196.157 30.0817 195.85C30.2951 195.543 30.5484 195.31 30.8417 195.15C31.1417 194.99 31.4784 194.91 31.8517 194.91C32.6051 194.91 33.1951 195.223 33.6217 195.85C34.0484 196.47 34.2617 197.363 34.2617 198.53ZM33.0117 198.53C33.0117 198.17 32.9917 197.833 32.9517 197.52C32.9117 197.207 32.8451 196.937 32.7517 196.71C32.6651 196.477 32.5484 196.293 32.4017 196.16C32.2551 196.027 32.0717 195.96 31.8517 195.96C31.6317 195.96 31.4451 196.027 31.2917 196.16C31.1451 196.293 31.0251 196.477 30.9317 196.71C30.8451 196.937 30.7817 197.207 30.7417 197.52C30.7084 197.833 30.6917 198.17 30.6917 198.53C30.6917 198.89 30.7084 199.227 30.7417 199.54C30.7817 199.853 30.8451 200.127 30.9317 200.36C31.0251 200.587 31.1451 200.767 31.2917 200.9C31.4451 201.033 31.6317 201.1 31.8517 201.1C32.0717 201.1 32.2551 201.033 32.4017 200.9C32.5484 200.767 32.6651 200.587 32.7517 200.36C32.8451 200.127 32.9117 199.853 32.9517 199.54C32.9917 199.227 33.0117 198.89 33.0117 198.53ZM39.5053 196.87C39.5053 197.11 39.4553 197.347 39.3553 197.58C39.2553 197.807 39.1253 198.03 38.9653 198.25C38.812 198.463 38.6353 198.673 38.4353 198.88C38.2353 199.08 38.0353 199.277 37.8353 199.47C37.7286 199.57 37.6086 199.69 37.4753 199.83C37.342 199.97 37.2153 200.11 37.0953 200.25C36.9753 200.39 36.872 200.527 36.7853 200.66C36.6986 200.787 36.652 200.893 36.6453 200.98H39.7253V202H35.3153C35.3086 201.947 35.3053 201.883 35.3053 201.81C35.3053 201.73 35.3053 201.67 35.3053 201.63C35.3053 201.31 35.3553 201.017 35.4553 200.75C35.562 200.477 35.6986 200.223 35.8653 199.99C36.032 199.757 36.2186 199.537 36.4253 199.33C36.632 199.123 36.8386 198.92 37.0453 198.72C37.2053 198.567 37.3586 198.417 37.5053 198.27C37.652 198.123 37.7786 197.98 37.8853 197.84C37.9986 197.693 38.0886 197.547 38.1553 197.4C38.222 197.247 38.2553 197.09 38.2553 196.93C38.2553 196.583 38.1553 196.337 37.9553 196.19C37.7553 196.043 37.512 195.97 37.2253 195.97C37.0386 195.97 36.8653 195.997 36.7053 196.05C36.5453 196.103 36.402 196.167 36.2753 196.24C36.1553 196.313 36.0486 196.39 35.9553 196.47C35.862 196.543 35.792 196.603 35.7453 196.65L35.1453 195.8C35.4253 195.533 35.752 195.32 36.1253 195.16C36.5053 194.993 36.912 194.91 37.3453 194.91C38.0853 194.91 38.6286 195.087 38.9753 195.44C39.3286 195.787 39.5053 196.263 39.5053 196.87ZM42.7389 202.15C42.5589 202.15 42.3722 202.137 42.1789 202.11C41.9922 202.09 41.8122 202.06 41.6389 202.02C41.4722 201.987 41.3189 201.95 41.1789 201.91C41.0389 201.863 40.9322 201.82 40.8589 201.78L41.0989 200.75C41.2389 200.817 41.4422 200.893 41.7089 200.98C41.9756 201.06 42.3056 201.1 42.6989 201.1C43.2256 201.1 43.6056 201 43.8389 200.8C44.0722 200.593 44.1889 200.32 44.1889 199.98C44.1889 199.76 44.1422 199.577 44.0489 199.43C43.9622 199.283 43.8389 199.167 43.6789 199.08C43.5256 198.987 43.3456 198.923 43.1389 198.89C42.9389 198.85 42.7256 198.83 42.4989 198.83H42.0889V197.85H42.5889C42.7422 197.85 42.8956 197.837 43.0489 197.81C43.2089 197.777 43.3522 197.723 43.4789 197.65C43.6056 197.57 43.7089 197.467 43.7889 197.34C43.8689 197.213 43.9089 197.05 43.9089 196.85C43.9089 196.69 43.8789 196.553 43.8189 196.44C43.7589 196.327 43.6789 196.233 43.5789 196.16C43.4856 196.087 43.3756 196.033 43.2489 196C43.1222 195.967 42.9889 195.95 42.8489 195.95C42.5489 195.95 42.2822 195.997 42.0489 196.09C41.8156 196.177 41.6089 196.277 41.4289 196.39L40.9889 195.49C41.0822 195.43 41.1956 195.367 41.3289 195.3C41.4622 195.233 41.6089 195.17 41.7689 195.11C41.9356 195.05 42.1122 195.003 42.2989 194.97C42.4856 194.93 42.6822 194.91 42.8889 194.91C43.2756 194.91 43.6089 194.957 43.8889 195.05C44.1689 195.143 44.3989 195.277 44.5789 195.45C44.7656 195.617 44.9022 195.817 44.9889 196.05C45.0822 196.277 45.1289 196.527 45.1289 196.8C45.1289 197.12 45.0389 197.407 44.8589 197.66C44.6856 197.913 44.4589 198.107 44.1789 198.24C44.5389 198.367 44.8356 198.577 45.0689 198.87C45.3089 199.163 45.4289 199.54 45.4289 200C45.4289 200.307 45.3756 200.593 45.2689 200.86C45.1622 201.12 44.9989 201.347 44.7789 201.54C44.5589 201.727 44.2789 201.877 43.9389 201.99C43.6056 202.097 43.2056 202.15 42.7389 202.15Z" fill="#9CA3AF"/>
<path d="M453.34 195.07C453.487 195.323 453.65 195.633 453.83 196C454.01 196.367 454.193 196.753 454.38 197.16C454.567 197.56 454.75 197.97 454.93 198.39C455.117 198.803 455.287 199.187 455.44 199.54C455.593 199.187 455.76 198.803 455.94 198.39C456.12 197.97 456.303 197.56 456.49 197.16C456.677 196.753 456.86 196.367 457.04 196C457.22 195.633 457.383 195.323 457.53 195.07H458.67C458.73 195.577 458.787 196.117 458.84 196.69C458.893 197.257 458.94 197.84 458.98 198.44C459.027 199.033 459.067 199.633 459.1 200.24C459.14 200.84 459.173 201.427 459.2 202H457.96C457.933 201.193 457.9 200.363 457.86 199.51C457.827 198.657 457.773 197.83 457.7 197.03C457.627 197.183 457.54 197.367 457.44 197.58C457.34 197.793 457.233 198.027 457.12 198.28C457.007 198.527 456.89 198.783 456.77 199.05C456.657 199.317 456.543 199.577 456.43 199.83C456.323 200.077 456.223 200.31 456.13 200.53C456.037 200.743 455.957 200.927 455.89 201.08H454.95C454.883 200.927 454.803 200.74 454.71 200.52C454.617 200.3 454.513 200.067 454.4 199.82C454.293 199.567 454.18 199.307 454.06 199.04C453.947 198.773 453.833 198.517 453.72 198.27C453.607 198.023 453.5 197.793 453.4 197.58C453.3 197.36 453.213 197.177 453.14 197.03C453.067 197.83 453.01 198.657 452.97 199.51C452.937 200.363 452.907 201.193 452.88 202H451.64C451.667 201.427 451.697 200.833 451.73 200.22C451.77 199.607 451.81 199 451.85 198.4C451.897 197.793 451.947 197.207 452 196.64C452.053 196.073 452.11 195.55 452.17 195.07H453.34ZM462.448 201.15C462.821 201.15 463.105 201.13 463.298 201.09V199.75C463.231 199.73 463.135 199.71 463.008 199.69C462.881 199.67 462.741 199.66 462.588 199.66C462.455 199.66 462.318 199.67 462.178 199.69C462.045 199.71 461.921 199.747 461.808 199.8C461.701 199.853 461.615 199.93 461.548 200.03C461.481 200.123 461.448 200.243 461.448 200.39C461.448 200.677 461.538 200.877 461.718 200.99C461.898 201.097 462.141 201.15 462.448 201.15ZM462.348 196.64C462.748 196.64 463.085 196.69 463.358 196.79C463.631 196.89 463.848 197.03 464.008 197.21C464.175 197.39 464.291 197.61 464.358 197.87C464.431 198.123 464.468 198.403 464.468 198.71V201.88C464.281 201.92 463.998 201.967 463.618 202.02C463.245 202.08 462.821 202.11 462.348 202.11C462.035 202.11 461.748 202.08 461.488 202.02C461.228 201.96 461.005 201.863 460.818 201.73C460.638 201.597 460.495 201.423 460.388 201.21C460.288 200.997 460.238 200.733 460.238 200.42C460.238 200.12 460.295 199.867 460.408 199.66C460.528 199.453 460.688 199.287 460.888 199.16C461.088 199.027 461.318 198.933 461.578 198.88C461.845 198.82 462.121 198.79 462.408 198.79C462.541 198.79 462.681 198.8 462.828 198.82C462.975 198.833 463.131 198.86 463.298 198.9V198.7C463.298 198.56 463.281 198.427 463.248 198.3C463.215 198.173 463.155 198.063 463.068 197.97C462.988 197.87 462.878 197.793 462.738 197.74C462.605 197.687 462.435 197.66 462.228 197.66C461.948 197.66 461.691 197.68 461.458 197.72C461.225 197.76 461.035 197.807 460.888 197.86L460.738 196.88C460.891 196.827 461.115 196.773 461.408 196.72C461.701 196.667 462.015 196.64 462.348 196.64ZM468.93 197.86C468.83 197.827 468.69 197.793 468.51 197.76C468.336 197.72 468.133 197.7 467.9 197.7C467.766 197.7 467.623 197.713 467.47 197.74C467.323 197.767 467.22 197.79 467.16 197.81V202H465.95V197.02C466.183 196.933 466.473 196.853 466.82 196.78C467.173 196.7 467.563 196.66 467.99 196.66C468.07 196.66 468.163 196.667 468.27 196.68C468.376 196.687 468.483 196.7 468.59 196.72C468.696 196.733 468.8 196.753 468.9 196.78C469 196.8 469.08 196.82 469.14 196.84L468.93 197.86ZM470.745 200.67C470.758 200.783 470.765 200.867 470.765 200.92C470.765 200.973 470.765 201.027 470.765 201.08C470.765 201.493 470.698 201.92 470.565 202.36C470.438 202.8 470.258 203.217 470.025 203.61L469.075 203.35C469.235 202.963 469.341 202.583 469.395 202.21C469.455 201.843 469.485 201.52 469.485 201.24C469.485 201.16 469.481 201.06 469.475 200.94C469.475 200.82 469.471 200.73 469.465 200.67H470.745ZM478.544 196.87C478.544 197.11 478.494 197.347 478.394 197.58C478.294 197.807 478.164 198.03 478.004 198.25C477.851 198.463 477.674 198.673 477.474 198.88C477.274 199.08 477.074 199.277 476.874 199.47C476.768 199.57 476.648 199.69 476.514 199.83C476.381 199.97 476.254 200.11 476.134 200.25C476.014 200.39 475.911 200.527 475.824 200.66C475.738 200.787 475.691 200.893 475.684 200.98H478.764V202H474.354C474.348 201.947 474.344 201.883 474.344 201.81C474.344 201.73 474.344 201.67 474.344 201.63C474.344 201.31 474.394 201.017 474.494 200.75C474.601 200.477 474.738 200.223 474.904 199.99C475.071 199.757 475.258 199.537 475.464 199.33C475.671 199.123 475.878 198.92 476.084 198.72C476.244 198.567 476.398 198.417 476.544 198.27C476.691 198.123 476.818 197.98 476.924 197.84C477.038 197.693 477.128 197.547 477.194 197.4C477.261 197.247 477.294 197.09 477.294 196.93C477.294 196.583 477.194 196.337 476.994 196.19C476.794 196.043 476.551 195.97 476.264 195.97C476.078 195.97 475.904 195.997 475.744 196.05C475.584 196.103 475.441 196.167 475.314 196.24C475.194 196.313 475.088 196.39 474.994 196.47C474.901 196.543 474.831 196.603 474.784 196.65L474.184 195.8C474.464 195.533 474.791 195.32 475.164 195.16C475.544 194.993 475.951 194.91 476.384 194.91C477.124 194.91 477.668 195.087 478.014 195.44C478.368 195.787 478.544 196.263 478.544 196.87ZM484.668 198.53C484.668 199.697 484.455 200.593 484.028 201.22C483.601 201.84 483.011 202.15 482.258 202.15C481.505 202.15 480.915 201.84 480.488 201.22C480.061 200.593 479.848 199.697 479.848 198.53C479.848 197.95 479.901 197.437 480.008 196.99C480.121 196.537 480.281 196.157 480.488 195.85C480.701 195.543 480.955 195.31 481.248 195.15C481.548 194.99 481.885 194.91 482.258 194.91C483.011 194.91 483.601 195.223 484.028 195.85C484.455 196.47 484.668 197.363 484.668 198.53ZM483.418 198.53C483.418 198.17 483.398 197.833 483.358 197.52C483.318 197.207 483.251 196.937 483.158 196.71C483.071 196.477 482.955 196.293 482.808 196.16C482.661 196.027 482.478 195.96 482.258 195.96C482.038 195.96 481.851 196.027 481.698 196.16C481.551 196.293 481.431 196.477 481.338 196.71C481.251 196.937 481.188 197.207 481.148 197.52C481.115 197.833 481.098 198.17 481.098 198.53C481.098 198.89 481.115 199.227 481.148 199.54C481.188 199.853 481.251 200.127 481.338 200.36C481.431 200.587 481.551 200.767 481.698 200.9C481.851 201.033 482.038 201.1 482.258 201.1C482.478 201.1 482.661 201.033 482.808 200.9C482.955 200.767 483.071 200.587 483.158 200.36C483.251 200.127 483.318 199.853 483.358 199.54C483.398 199.227 483.418 198.89 483.418 198.53ZM489.912 196.87C489.912 197.11 489.862 197.347 489.762 197.58C489.662 197.807 489.532 198.03 489.372 198.25C489.218 198.463 489.042 198.673 488.842 198.88C488.642 199.08 488.442 199.277 488.242 199.47C488.135 199.57 488.015 199.69 487.882 199.83C487.748 199.97 487.622 200.11 487.502 200.25C487.382 200.39 487.278 200.527 487.192 200.66C487.105 200.787 487.058 200.893 487.052 200.98H490.132V202H485.722C485.715 201.947 485.712 201.883 485.712 201.81C485.712 201.73 485.712 201.67 485.712 201.63C485.712 201.31 485.762 201.017 485.862 200.75C485.968 200.477 486.105 200.223 486.272 199.99C486.438 199.757 486.625 199.537 486.832 199.33C487.038 199.123 487.245 198.92 487.452 198.72C487.612 198.567 487.765 198.417 487.912 198.27C488.058 198.123 488.185 197.98 488.292 197.84C488.405 197.693 488.495 197.547 488.562 197.4C488.628 197.247 488.662 197.09 488.662 196.93C488.662 196.583 488.562 196.337 488.362 196.19C488.162 196.043 487.918 195.97 487.632 195.97C487.445 195.97 487.272 195.997 487.112 196.05C486.952 196.103 486.808 196.167 486.682 196.24C486.562 196.313 486.455 196.39 486.362 196.47C486.268 196.543 486.198 196.603 486.152 196.65L485.552 195.8C485.832 195.533 486.158 195.32 486.532 195.16C486.912 194.993 487.318 194.91 487.752 194.91C488.492 194.91 489.035 195.087 489.382 195.44C489.735 195.787 489.912 196.263 489.912 196.87ZM493.145 202.15C492.965 202.15 492.778 202.137 492.585 202.11C492.398 202.09 492.218 202.06 492.045 202.02C491.878 201.987 491.725 201.95 491.585 201.91C491.445 201.863 491.338 201.82 491.265 201.78L491.505 200.75C491.645 200.817 491.848 200.893 492.115 200.98C492.382 201.06 492.712 201.1 493.105 201.1C493.632 201.1 494.012 201 494.245 200.8C494.478 200.593 494.595 200.32 494.595 199.98C494.595 199.76 494.548 199.577 494.455 199.43C494.368 199.283 494.245 199.167 494.085 199.08C493.932 198.987 493.752 198.923 493.545 198.89C493.345 198.85 493.132 198.83 492.905 198.83H492.495V197.85H492.995C493.148 197.85 493.302 197.837 493.455 197.81C493.615 197.777 493.758 197.723 493.885 197.65C494.012 197.57 494.115 197.467 494.195 197.34C494.275 197.213 494.315 197.05 494.315 196.85C494.315 196.69 494.285 196.553 494.225 196.44C494.165 196.327 494.085 196.233 493.985 196.16C493.892 196.087 493.782 196.033 493.655 196C493.528 195.967 493.395 195.95 493.255 195.95C492.955 195.95 492.688 195.997 492.455 196.09C492.222 196.177 492.015 196.277 491.835 196.39L491.395 195.49C491.488 195.43 491.602 195.367 491.735 195.3C491.868 195.233 492.015 195.17 492.175 195.11C492.342 195.05 492.518 195.003 492.705 194.97C492.892 194.93 493.088 194.91 493.295 194.91C493.682 194.91 494.015 194.957 494.295 195.05C494.575 195.143 494.805 195.277 494.985 195.45C495.172 195.617 495.308 195.817 495.395 196.05C495.488 196.277 495.535 196.527 495.535 196.8C495.535 197.12 495.445 197.407 495.265 197.66C495.092 197.913 494.865 198.107 494.585 198.24C494.945 198.367 495.242 198.577 495.475 198.87C495.715 199.163 495.835 199.54 495.835 200C495.835 200.307 495.782 200.593 495.675 200.86C495.568 201.12 495.405 201.347 495.185 201.54C494.965 201.727 494.685 201.877 494.345 201.99C494.012 202.097 493.612 202.15 493.145 202.15Z" fill="#3D0072"/>
<path d="M1 134C104.667 145.333 349.4 134.6 499 1" stroke="#22C55E" stroke-width="2"/>
<path d="M499 1C349.4 134.6 104.667 145.333 1 134V192H499V1Z" fill="url(#paint0_linear_6528_104813)"/>
<defs>
<linearGradient id="paint0_linear_6528_104813" x1="250" y1="1" x2="250" y2="192" gradientUnits="userSpaceOnUse">
<stop stop-color="#22C55E" stop-opacity="0.31"/>
<stop offset="1" stop-color="#22C55E" stop-opacity="0"/>
</linearGradient>
</defs>
</svg>
