<svg width="519" height="215" viewBox="0 0 519 215" fill="none" xmlns="http://www.w3.org/2000/svg">
<g clip-path="url(#clip0_13168_84819)">
<rect opacity="0.75" width="519" height="215" fill="#250144"/>
<path d="M244 133C242.625 133 241.448 132.511 240.47 131.533C239.49 130.553 239 129.375 239 128V103C239 101.625 239.49 100.448 240.47 99.4675C241.448 98.4892 242.625 98 244 98H246.5V93C246.5 89.5417 247.719 86.5933 250.158 84.155C252.594 81.7183 255.542 80.5 259 80.5C262.458 80.5 265.407 81.7183 267.845 84.155C270.282 86.5933 271.5 89.5417 271.5 93V98H274C275.375 98 276.553 98.4892 277.533 99.4675C278.511 100.448 279 101.625 279 103V128C279 129.375 278.511 130.553 277.533 131.533C276.553 132.511 275.375 133 274 133H244ZM259 120.5C260.375 120.5 261.553 120.011 262.533 119.033C263.511 118.053 264 116.875 264 115.5C264 114.125 263.511 112.947 262.533 111.967C261.553 110.989 260.375 110.5 259 110.5C257.625 110.5 256.448 110.989 255.47 111.967C254.49 112.947 254 114.125 254 115.5C254 116.875 254.49 118.053 255.47 119.033C256.448 120.011 257.625 120.5 259 120.5ZM251.5 98H266.5V93C266.5 90.9167 265.771 89.1458 264.313 87.6875C262.854 86.2292 261.083 85.5 259 85.5C256.917 85.5 255.146 86.2292 253.688 87.6875C252.229 89.1458 251.5 90.9167 251.5 93V98Z" fill="white"/>
</g>
<defs>
<clipPath id="clip0_13168_84819">
<rect width="519" height="215" rx="10" fill="white"/>
</clipPath>
</defs>
</svg>
