<svg width="239" height="244" viewBox="0 0 239 244" fill="none" xmlns="http://www.w3.org/2000/svg">
<g filter="url(#filter0_i_171_601)">
<circle cx="120.075" cy="124.993" r="115.478" fill="#FBF3FA"/>
</g>
<circle cx="120.075" cy="124.993" r="115.478" stroke="#F3F4F6" stroke-width="1.14904"/>
<mask id="mask0_171_601" style="mask-type:alpha" maskUnits="userSpaceOnUse" x="0" y="0" width="239" height="240">
<circle cx="119.5" cy="119.822" r="119.5" fill="white"/>
</mask>
<g mask="url(#mask0_171_601)">
<path d="M123.524 111.582L159.968 181.452C172.018 172.4 184.833 165.51 192.811 161.587C166.626 111.691 123.524 111.582 123.524 111.582Z" fill="#1F3C88"/>
<path d="M254.381 138.204C254.381 138.204 257.87 126.623 254.771 123.632C251.672 120.645 241.588 138.951 241.588 138.951L203.979 178.924C200.244 172.56 196.514 166.803 192.816 161.582C184.832 165.505 172.023 172.395 159.973 181.447L180.301 220.422C185.324 230.046 196.53 235.107 207.415 232.662C213.656 231.261 219.064 227.533 222.457 222.296L262.909 159.867C265.886 150.917 262.006 144.002 254.381 138.204Z" fill="#F1C27D"/>
<path d="M66.6827 227.389C64.8391 234.114 63.8826 238.202 63.8826 238.202L64.807 260.38C64.807 260.38 25.6536 261.09 14.1112 247.368C6.35208 238.14 7.24983 222.929 20.5984 194.907C24.0665 187.631 26.3803 182.56 29.64 177.029C40.2847 177.75 54.8517 179.449 69.8195 183.198L49.3209 223.455L66.6827 227.389Z" fill="#F1C27D"/>
<path d="M123.524 111.582C123.524 111.582 66.3941 108.565 29.6506 177.009C42.6305 177.92 61.3763 180.227 79.6251 185.979C90.1897 156.489 105.451 123.266 123.524 111.582Z" fill="#1F3C88"/>
<path d="M189.556 259.463L64.8069 260.38C63.968 247.151 65.7581 223.805 68.0933 201.4C68.2376 200.123 68.3551 198.872 68.4994 197.595C69.5361 187.868 70.6636 178.419 71.7003 170.248C72.0156 167.606 72.3362 165.104 72.6248 162.771C74.1531 151.154 75.2486 143.456 75.2486 143.456L123.534 111.603C146.235 118.524 178.885 159.63 178.885 159.63L189.556 259.463Z" fill="#1F3C88"/>
<path d="M52.8746 260.045C52.8746 260.045 84.2582 263.088 84.8247 259.87C85.3911 256.652 77.9687 255.035 77.9687 255.035C77.9687 255.035 93.4708 255.679 92.9952 252.96C92.5196 250.236 85.8239 248.367 85.8239 248.367C85.8239 248.367 96.6984 248.655 95.5655 245.632C94.4327 242.61 85.2949 240.406 85.2949 240.406C85.2949 240.406 99.7443 237.873 94.2403 235.195C88.7363 232.517 58.7313 225.885 58.7313 225.885L52.8746 260.045Z" fill="#F1C27D"/>
<path d="M65.9132 228.66C65.801 228.66 65.6834 228.645 65.5659 228.619L36.8434 221.786C36.0685 221.601 35.5983 220.849 35.7907 220.102C35.983 219.356 36.0685 231.421 36.8434 231.606L65.5659 238.439C66.3407 238.624 67.5057 226.858 67.3133 227.605C67.153 228.238 66.5598 228.66 65.9132 228.66Z" fill="#F1C27D"/>
<path d="M194.75 189.516C194.403 189.516 194.05 189.392 193.772 189.15C193.184 188.63 200.683 197.775 201.222 197.214L226.461 170.808C227.001 170.242 220.379 160.181 220.961 160.701C221.549 161.221 221.586 162.102 221.047 162.663L195.808 189.068C195.525 189.367 195.14 189.516 194.75 189.516Z" fill="#F1C27D"/>
<path d="M119.735 143.878C110.972 143.878 104.81 138.513 104.714 138.42C104.132 137.9 104.094 137.02 104.639 136.458C105.179 135.897 106.093 135.861 106.675 136.381C107.252 136.896 121.002 148.755 136.37 132.977C136.915 132.416 137.829 132.39 138.412 132.916C138.994 133.441 139.021 134.321 138.476 134.883C131.775 141.757 125.239 143.878 119.735 143.878Z" fill="#3A6BEA"/>
<path d="M70.1988 182.508C69.627 187.364 69.0499 192.431 68.4995 197.59C68.3552 198.867 68.2376 200.118 68.0933 201.395C78.2464 188.208 77.9471 171.453 77.9311 170.799C73.763 176.313 71.1179 180.855 70.1988 182.508Z" fill="#102048"/>
<path d="M136.985 80.5791V115.558C136.985 123.858 130.038 130.552 121.461 130.552C112.847 130.552 105.9 123.858 105.9 115.558V80.5791H136.985Z" fill="#F1C27D"/>
<path d="M136.985 90.0071V113.848C122.84 106.948 117.063 94.4818 117.063 94.4818L136.985 90.0071Z" fill="#102048"/>
<path d="M146.08 57.5413C146.08 57.5413 158.707 113.9 117.058 94.4716L102.656 75.4709L112.184 47.7166L133.896 46.4344L146.08 57.5413Z" fill="#F1C27D"/>
<path d="M146.08 57.5413C146.08 57.5413 116.615 34.6994 105.981 74.6214L96.6771 72.9118C96.6771 72.9118 88.8111 42.3099 117.058 36.62C141.425 31.7128 146.08 57.5413 146.08 57.5413Z" fill="#7F47DD"/>
<path d="M109.276 82.6014C112.206 79.7781 111.74 74.7523 108.237 71.3761C104.733 67.9998 99.5173 67.5515 96.5874 70.3748C93.6575 73.1981 94.1227 78.2238 97.6265 81.6001C101.13 84.9764 106.346 85.4246 109.276 82.6014Z" fill="#F1C27D"/>
<path d="M106.237 79.3793C105.975 79.3793 105.724 79.2403 105.596 79.0034C105.574 78.9622 103.239 74.6575 99.5519 75.0334C99.1511 75.0694 98.7984 74.7965 98.761 74.4154C98.7183 74.0344 99.0068 73.6894 99.4023 73.6534C104.078 73.1745 106.771 78.1589 106.883 78.3701C107.065 78.7099 106.921 79.127 106.568 79.3021C106.456 79.3587 106.344 79.3793 106.237 79.3793Z" fill="#102048"/>
<path d="M143.04 72.8081C144.076 72.3945 144.568 71.2499 144.139 70.2515C143.71 69.2531 142.522 68.7789 141.486 69.1925C140.45 69.6061 139.958 70.7507 140.387 71.7491C140.816 72.7476 142.004 73.2217 143.04 72.8081Z" fill="#102048"/>
<path d="M129.445 73.1335C130.566 73.1335 131.475 72.2575 131.475 71.1768C131.475 70.0961 130.566 69.2201 129.445 69.2201C128.323 69.2201 127.414 70.0961 127.414 71.1768C127.414 72.2575 128.323 73.1335 129.445 73.1335Z" fill="#102048"/>
<path d="M138.631 82.3969C138.096 82.3969 137.482 82.3299 136.931 82.0982C136.568 81.9437 136.397 81.537 136.557 81.1868C136.712 80.8367 137.14 80.6719 137.503 80.8264C137.952 81.0117 138.647 81.0581 139.406 80.9551C139.935 80.8779 140.357 80.6616 140.576 80.3578C140.741 80.1209 140.79 79.8737 140.725 79.5802C140.501 78.5761 139.015 77.3043 137.733 76.5474C137.391 76.3465 137.289 75.9191 137.492 75.5896C137.701 75.26 138.144 75.1571 138.486 75.3579C139.021 75.672 141.703 77.3403 142.136 79.2868C142.286 79.951 142.158 80.5895 141.767 81.1405C141.319 81.7738 140.554 82.2012 139.614 82.3351C139.363 82.3608 139.021 82.3969 138.631 82.3969Z" fill="#102048"/>
<path d="M135.024 88.2414C130.866 88.2414 128.114 84.9511 128.082 84.9099C127.836 84.6112 127.89 84.1735 128.2 83.9315C128.51 83.6946 128.964 83.7461 129.21 84.0448C129.349 84.2147 132.576 88.0303 137.182 86.4855C137.556 86.3568 137.968 86.5525 138.102 86.9129C138.235 87.2734 138.032 87.6698 137.658 87.7986C136.734 88.1075 135.852 88.2414 135.024 88.2414Z" fill="#102048"/>
<path d="M133.324 65.3477C132.865 66.5269 131.545 66.2694 128.52 66.7843C127.826 66.9028 124.176 67.7473 123.989 67.0212C123.855 66.5063 125.603 65.1417 128.045 64.5547C129.391 64.2303 130.631 64.1428 131.962 64.2303C132.288 64.2509 132.619 64.2921 132.892 64.4106C133.346 64.6062 133.485 64.9409 133.324 65.3477Z" fill="#102048"/>
<path d="M138.957 65.2757C139.347 66.4548 140.538 66.1974 143.253 66.7071C143.873 66.8256 147.149 67.67 147.33 66.9389C147.458 66.4239 145.914 65.0646 143.729 64.4775C142.521 64.1531 141.409 64.0708 140.212 64.1583C139.918 64.1789 139.619 64.2201 139.368 64.3385C138.951 64.5342 138.823 64.8637 138.957 65.2757Z" fill="#102048"/>
<path opacity="0.4" d="M123.838 78.0764C124.456 75.5551 122.836 73.0286 120.219 72.4332C117.603 71.8379 114.981 73.3992 114.363 75.9205C113.745 78.4418 115.365 80.9683 117.982 81.5637C120.599 82.159 123.22 80.5978 123.838 78.0764Z" fill="#EB5D60"/>
</g>
<defs>
<filter id="filter0_i_171_601" x="4.02173" y="8.93991" width="232.106" height="232.106" filterUnits="userSpaceOnUse" color-interpolation-filters="sRGB">
<feFlood flood-opacity="0" result="BackgroundImageFix"/>
<feBlend mode="normal" in="SourceGraphic" in2="BackgroundImageFix" result="shape"/>
<feColorMatrix in="SourceAlpha" type="matrix" values="0 0 0 0 0 0 0 0 0 0 0 0 0 0 0 0 0 0 127 0" result="hardAlpha"/>
<feOffset dy="-8.04327"/>
<feComposite in2="hardAlpha" operator="arithmetic" k2="-1" k3="1"/>
<feColorMatrix type="matrix" values="0 0 0 0 0.754167 0 0 0 0 0.741597 0 0 0 0 0.741597 0 0 0 0.19 0"/>
<feBlend mode="normal" in2="shape" result="effect1_innerShadow_171_601"/>
</filter>
</defs>
</svg>
