<svg width="99" height="33" viewBox="0 0 99 33" fill="none" xmlns="http://www.w3.org/2000/svg">
<g clip-path="url(#clip0_5099_55528)">
<path d="M11.246 6.88227C11.246 9.01471 11.246 11.1534 11.2584 13.2858C11.2584 15.126 10.6616 16.9166 8.95192 17.8615C6.95625 18.9557 4.12128 18.676 1.89559 18.4459C1.80855 18.4459 1.73394 18.4273 1.65312 18.4211C1.72773 16.8855 1.69664 15.3312 1.62204 13.8018C1.52878 11.7253 2.78462 9.25095 5.01654 8.9028C7.43496 8.52356 9.54254 8.26245 10.6865 6.92579C10.7238 6.88848 10.7611 6.84496 10.7922 6.80144C10.96 6.57141 11.1403 6.35382 11.3206 6.13C11.2647 6.37247 11.246 6.62737 11.246 6.87605V6.88227Z" fill="white"/>
<path d="M3.92809 32.3534C5.59426 32.4591 7.27285 32.4342 8.93902 32.4653C10.8849 32.4964 12.8806 32.7389 14.7582 32.3969C17.4564 31.9058 20.4903 30.1464 21.4912 27.5414C22.4175 25.1292 21.9824 22.2507 20.3846 20.224C20.2727 20.0872 20.1545 19.9504 20.024 19.8137C18.4076 18.048 15.9021 17.1217 13.5148 17.4388C10.5492 17.8304 7.93808 20.1618 7.16717 23.0527C6.68845 24.8557 7.10499 26.7705 6.82523 28.6045C6.5952 30.1215 5.29584 31.6758 3.92188 32.3534H3.92809Z" fill="white"/>
<path d="M20.5979 0C20.4487 0.453843 20.629 0.944989 20.8217 1.38018C23.2961 6.89469 29.9234 10.6249 29.6934 17.2523C29.5877 20.2489 28.0956 23.7677 25.5902 25.5458C25.4099 25.6763 25.242 25.7882 25.0306 25.8504C24.5519 24.9552 24.5022 23.6496 24.0981 22.6673C23.5883 21.4301 22.9168 20.2178 21.9781 19.2604C21.0766 18.3465 19.9513 17.818 19.0498 16.9228C17.1599 15.0328 15.9662 12.4465 15.8108 9.77317C15.587 5.96835 17.4894 2.18839 20.6041 0.0124341L20.5979 0Z" fill="white"/>
<path d="M3.38747 13.3045C3.38747 13.3045 3.30043 11.6445 5.0039 11.7253C5.0039 11.7253 5.6256 13.5407 3.38747 13.3045Z" fill="white" stroke="white" stroke-width="0.261407" stroke-miterlimit="10"/>
<path d="M2.82253 27.3798C4.38137 27.3798 5.64506 26.1161 5.64506 24.5573C5.64506 22.9984 4.38137 21.7347 2.82253 21.7347C1.26369 21.7347 0 22.9984 0 24.5573C0 26.1161 1.26369 27.3798 2.82253 27.3798Z" fill="white"/>
<path d="M36.364 27.4233L41.7728 12.9687H44.6699L50.0788 27.4233H47.25L45.9258 23.9169H40.5356L39.2114 27.4233H36.3516H36.364ZM41.4433 21.5731H45.0492L43.2276 16.0524L41.4433 21.5731Z" fill="white"/>
<path d="M51.5273 27.4233V17.6315H54.0888V19.9256C54.325 19.0863 54.698 18.4583 55.2078 18.0418C55.7114 17.6253 56.2647 17.4139 56.8678 17.4139C57.4708 17.4139 58.0117 17.532 58.478 17.7745L58.0366 20.0686C57.6449 19.8883 57.1538 19.8012 56.5507 19.8012C54.9094 19.8012 54.095 21.1876 54.095 23.9542V27.4233H51.5336H51.5273Z" fill="white"/>
<path d="M59.7276 24.6319C59.4665 23.9915 59.3359 23.289 59.3359 22.5367C59.3359 21.7845 59.4665 21.0819 59.7276 20.4292C59.9887 19.7764 60.3369 19.2355 60.7783 18.7941C61.2197 18.3589 61.7357 18.017 62.3201 17.7745C62.9107 17.532 63.5262 17.4077 64.1728 17.4077C64.8194 17.4077 65.4535 17.5445 66.013 17.8118C66.5726 18.0791 66.9829 18.4584 67.2502 18.9371V12.2849H69.8116V27.4171H67.2502V26.0867C66.9829 26.5654 66.5726 26.9446 66.0068 27.2119C65.4473 27.4855 64.8318 27.616 64.1728 27.616C63.5138 27.616 62.9107 27.4917 62.3263 27.2492C61.7419 27.0068 61.2259 26.6711 60.7845 26.2359C60.3431 25.8007 59.9887 25.266 59.7276 24.6194V24.6319ZM62.0217 22.4994C62.0217 23.289 62.2704 23.9293 62.7615 24.4267C63.2589 24.9241 63.8682 25.1728 64.5955 25.1728C65.3229 25.1728 65.9322 24.9241 66.4482 24.4329C66.9642 23.9418 67.2129 23.2952 67.2129 22.5056C67.2129 21.7161 66.9518 21.0757 66.4296 20.597C65.9073 20.1183 65.2981 19.8821 64.5955 19.8821C63.893 19.8821 63.2527 20.1245 62.7615 20.6095C62.2704 21.0944 62.0217 21.7285 62.0217 22.5119V22.4994Z" fill="white"/>
<path d="M72.2734 13.8267C72.2734 13.3977 72.4351 13.0309 72.7646 12.7325C73.0941 12.4341 73.4795 12.2849 73.9272 12.2849C74.3748 12.2849 74.754 12.4341 75.0773 12.7325C75.4006 13.0309 75.556 13.3915 75.556 13.8267C75.556 14.2619 75.3944 14.6287 75.0773 14.9271C74.7603 15.2255 74.3748 15.3747 73.9272 15.3747C73.4795 15.3747 73.0817 15.2255 72.7584 14.9271C72.4351 14.6287 72.2734 14.2619 72.2734 13.8267ZM72.634 27.4233V17.6315H75.1954V27.4233H72.634Z" fill="white"/>
<path d="M78.0781 27.4233V15.3747H80.6395V27.4233H78.0781Z" fill="white"/>
<path d="M83.5234 27.4233V12.2911H86.0849V27.4233H83.5234Z" fill="white"/>
<path d="M88.375 22.5118C88.375 21.7471 88.5118 21.0446 88.7915 20.3918C89.0713 19.7453 89.4443 19.2044 89.9106 18.7754C90.3769 18.3464 90.9116 18.0107 91.5146 17.7745C92.1177 17.5382 92.7456 17.4139 93.3984 17.4139C93.9392 17.4139 94.4988 17.5258 95.077 17.7558C95.6551 17.9858 96.109 18.3464 96.4385 18.8376V17.6253H98.9999V27.4171H96.4385V26.1488C96.1525 26.6151 95.7111 26.9757 95.1143 27.2244C94.5174 27.473 93.9455 27.5974 93.4046 27.5974C92.528 27.5974 91.7136 27.3922 90.9551 26.9881C90.1966 26.584 89.5749 25.9809 89.0962 25.1914C88.6175 24.4018 88.3812 23.5066 88.3812 22.4994L88.375 22.5118ZM91.0608 22.5118C91.0608 23.2765 91.3281 23.9045 91.869 24.4018C92.4099 24.8992 93.0378 25.1479 93.759 25.1479C94.4801 25.1479 95.1143 24.9116 95.6427 24.4329C96.1712 23.9542 96.4323 23.3138 96.4323 22.5118C96.4323 21.7098 96.1649 21.0695 95.6303 20.5908C95.0956 20.1121 94.4677 19.8758 93.7527 19.8758C93.0378 19.8758 92.3912 20.1245 91.8565 20.6156C91.3219 21.113 91.0545 21.7409 91.0545 22.5118H91.0608Z" fill="white"/>
</g>
<defs>
<clipPath id="clip0_5099_55528">
<rect width="99" height="32.5772" fill="white"/>
</clipPath>
</defs>
</svg>
