<svg width="132" height="18" viewBox="0 0 132 18" fill="none" xmlns="http://www.w3.org/2000/svg">
<g clip-path="url(#clip0_291_73933)">
<path d="M5.00134 17.5934V16.4287C5.00134 15.9822 4.72957 15.691 4.26367 15.691C4.03072 15.691 3.77836 15.7687 3.60365 16.021C3.46776 15.8075 3.27364 15.691 2.98245 15.691C2.78833 15.691 2.59421 15.7493 2.43891 15.9628V15.7299H2.03125V17.5934H2.43891V16.5646C2.43891 16.2346 2.61362 16.0793 2.88539 16.0793C3.15717 16.0793 3.29305 16.254 3.29305 16.5646V17.5934H3.70071V16.5646C3.70071 16.2346 3.89483 16.0793 4.14719 16.0793C4.41897 16.0793 4.55486 16.254 4.55486 16.5646V17.5934H5.00134ZM11.0386 15.7299H10.3786V15.1669H9.9709V15.7299H9.60207V16.0987H9.9709V16.9528C9.9709 17.3799 10.1456 17.6323 10.6115 17.6323C10.7862 17.6323 10.9803 17.574 11.1162 17.4964L10.9998 17.147C10.8833 17.2246 10.7474 17.244 10.6503 17.244C10.4562 17.244 10.3786 17.1275 10.3786 16.9334V16.0987H11.0386V15.7299ZM14.494 15.691C14.261 15.691 14.1057 15.8075 14.0087 15.9628V15.7299H13.601V17.5934H14.0087V16.5452C14.0087 16.2346 14.1446 16.0599 14.3969 16.0599C14.4746 16.0599 14.5716 16.0793 14.6493 16.0987L14.7658 15.7104C14.6881 15.691 14.5716 15.691 14.494 15.691ZM9.27205 15.8852C9.07793 15.7493 8.80616 15.691 8.51497 15.691C8.04908 15.691 7.73848 15.924 7.73848 16.2928C7.73848 16.6034 7.97143 16.7781 8.37908 16.8364L8.57321 16.8558C8.78674 16.8946 8.90322 16.9528 8.90322 17.0499C8.90322 17.1858 8.74792 17.2828 8.47615 17.2828C8.20437 17.2828 7.99084 17.1858 7.85495 17.0887L7.66083 17.3993C7.87437 17.5546 8.16555 17.6323 8.45674 17.6323C9.00028 17.6323 9.31088 17.3799 9.31088 17.0305C9.31088 16.7005 9.05852 16.5258 8.67027 16.4675L8.47615 16.4481C8.30143 16.4287 8.16555 16.3899 8.16555 16.2734C8.16555 16.1375 8.30144 16.0599 8.51497 16.0599C8.74792 16.0599 8.98087 16.1569 9.09734 16.2152L9.27205 15.8852ZM20.1041 15.691C19.8712 15.691 19.7159 15.8075 19.6188 15.9628V15.7299H19.2112V17.5934H19.6188V16.5452C19.6188 16.2346 19.7547 16.0599 20.0071 16.0599C20.0847 16.0599 20.1818 16.0793 20.2594 16.0987L20.3759 15.7104C20.2983 15.691 20.1818 15.691 20.1041 15.691ZM14.9016 16.6616C14.9016 17.2246 15.2899 17.6323 15.8917 17.6323C16.1634 17.6323 16.3576 17.574 16.5517 17.4187L16.3576 17.0887C16.2023 17.2052 16.047 17.2634 15.8723 17.2634C15.5422 17.2634 15.3093 17.0305 15.3093 16.6616C15.3093 16.3122 15.5422 16.0793 15.8723 16.0599C16.047 16.0599 16.2023 16.1181 16.3576 16.2346L16.5517 15.9046C16.3576 15.7493 16.1634 15.691 15.8917 15.691C15.2899 15.691 14.9016 16.0987 14.9016 16.6616ZM18.6676 16.6616V15.7299H18.26V15.9628C18.1241 15.7881 17.93 15.691 17.6776 15.691C17.1535 15.691 16.7458 16.0987 16.7458 16.6616C16.7458 17.2246 17.1535 17.6323 17.6776 17.6323C17.9494 17.6323 18.1435 17.5352 18.26 17.3605V17.5934H18.6676V16.6616ZM17.1729 16.6616C17.1729 16.3316 17.3864 16.0599 17.7358 16.0599C18.0658 16.0599 18.2988 16.3122 18.2988 16.6616C18.2988 16.9917 18.0658 17.2634 17.7358 17.2634C17.3864 17.244 17.1729 16.9917 17.1729 16.6616ZM12.3004 15.691C11.7568 15.691 11.3686 16.0793 11.3686 16.6616C11.3686 17.244 11.7568 17.6323 12.3198 17.6323C12.5916 17.6323 12.8633 17.5546 13.0769 17.3799L12.8828 17.0887C12.7275 17.2052 12.5333 17.2828 12.3392 17.2828C12.0868 17.2828 11.8345 17.1664 11.7762 16.8364H13.1545C13.1545 16.7781 13.1545 16.7393 13.1545 16.6811C13.1739 16.0793 12.8245 15.691 12.3004 15.691ZM12.3004 16.0405C12.5527 16.0405 12.7275 16.1957 12.7663 16.4869H11.7957C11.8345 16.2346 12.0092 16.0405 12.3004 16.0405ZM22.4142 16.6616V14.9922H22.0066V15.9628C21.8707 15.7881 21.6765 15.691 21.4242 15.691C20.9001 15.691 20.4924 16.0987 20.4924 16.6616C20.4924 17.2246 20.9001 17.6323 21.4242 17.6323C21.696 17.6323 21.8901 17.5352 22.0066 17.3605V17.5934H22.4142V16.6616ZM20.9195 16.6616C20.9195 16.3316 21.133 16.0599 21.4824 16.0599C21.8124 16.0599 22.0454 16.3122 22.0454 16.6616C22.0454 16.9917 21.8124 17.2634 21.4824 17.2634C21.133 17.244 20.9195 16.9917 20.9195 16.6616ZM7.292 16.6616V15.7299H6.88434V15.9628C6.74845 15.7881 6.55433 15.691 6.30197 15.691C5.77783 15.691 5.37017 16.0987 5.37017 16.6616C5.37017 17.2246 5.77783 17.6323 6.30197 17.6323C6.57374 17.6323 6.76786 17.5352 6.88434 17.3605V17.5934H7.292V16.6616ZM5.77783 16.6616C5.77783 16.3316 5.99137 16.0599 6.34079 16.0599C6.6708 16.0599 6.90375 16.3122 6.90375 16.6616C6.90375 16.9917 6.6708 17.2634 6.34079 17.2634C5.99137 17.244 5.77783 16.9917 5.77783 16.6616Z" fill="white"/>
<path d="M15.2497 1.57812H9.13477V12.5655H15.2497V1.57812Z" fill="#FF5F00"/>
<path d="M9.52326 7.07048C9.52326 4.83806 10.5715 2.858 12.1828 1.57678C10.9986 0.644992 9.50385 0.0820312 7.87321 0.0820312C4.01015 0.0820312 0.884766 3.20742 0.884766 7.07048C0.884766 10.9335 4.01015 14.0589 7.87321 14.0589C9.50385 14.0589 10.9986 13.496 12.1828 12.5642C10.5715 11.3024 9.52326 9.3029 9.52326 7.07048Z" fill="#EB001B"/>
<path d="M23.4992 7.07048C23.4992 10.9335 20.3738 14.0589 16.5107 14.0589C14.8801 14.0589 13.3853 13.496 12.2012 12.5642C13.8318 11.283 14.8607 9.3029 14.8607 7.07048C14.8607 4.83806 13.8124 2.858 12.2012 1.57678C13.3853 0.644992 14.8801 0.0820312 16.5107 0.0820312C20.3738 0.0820312 23.4992 3.22683 23.4992 7.07048Z" fill="#F79E1B"/>
</g>
<path d="M38.2474 12.721C40.0954 12.721 41.1274 11.305 41.1874 9.517L41.5114 12.625H42.1594V8.593H38.6074V9.517H41.0674C40.7674 10.873 40.1554 11.737 38.6074 11.737C36.8674 11.737 36.0634 10.429 36.0634 8.593C36.0634 6.757 36.8914 5.449 38.7154 5.449C40.1314 5.449 40.9234 6.313 41.1994 7.453L42.1354 6.841C41.5954 5.317 40.3834 4.465 38.7034 4.465C36.2794 4.465 34.9594 6.241 34.9594 8.593C34.9594 11.029 36.0994 12.721 38.2474 12.721ZM46.0152 12.625V5.509H48.5592V4.585H42.4392V5.509H44.9832V12.625H46.0152ZM52.5058 12.625C54.2458 12.625 55.2778 11.833 55.2778 10.465C55.2778 9.433 54.6898 8.605 53.0098 8.425C54.3538 8.281 54.9178 7.501 54.9178 6.637C54.9178 5.413 54.1018 4.585 52.5658 4.585H49.1698V12.625H52.5058ZM52.2058 5.509C53.1658 5.509 53.8378 5.809 53.8378 6.769C53.8378 7.741 53.1778 8.029 52.2538 8.029H50.2138V5.509H52.2058ZM52.3738 8.965C53.4178 8.965 54.1978 9.361 54.1978 10.333C54.1978 11.293 53.6098 11.701 52.3378 11.701H50.2138V8.965H52.3738ZM57.9022 12.745C59.1022 12.745 59.7262 11.881 59.9182 11.113V11.521C59.9182 12.337 60.3502 12.625 60.9502 12.625H61.6222V11.677H61.2502C61.0342 11.677 60.9262 11.593 60.9262 11.317V8.929C60.9262 7.549 60.1582 6.697 58.7302 6.697C57.4342 6.697 56.5702 7.429 56.2222 8.029L56.9302 8.761C57.2302 8.125 57.7822 7.645 58.6102 7.645C59.5222 7.645 59.8462 8.149 59.8822 8.833L57.7822 9.769C56.9542 10.141 56.3662 10.633 56.3662 11.413C56.3662 12.181 56.9182 12.745 57.9022 12.745ZM57.4222 11.245C57.4222 10.885 57.6742 10.645 58.2262 10.381L59.9182 9.589V10.393C59.9182 11.233 59.2222 11.881 58.2382 11.881C57.6982 11.881 57.4222 11.641 57.4222 11.245ZM63.8751 12.625V9.337C63.8751 8.365 64.2831 7.585 65.3991 7.585C66.3831 7.585 66.6831 8.113 66.6831 8.869V12.625H67.7151V8.617C67.7151 7.381 67.0071 6.697 65.8671 6.697C64.7271 6.697 64.1031 7.465 63.8751 8.365V6.817H62.8311V12.625H63.8751ZM70.3087 12.625V10.597L71.2327 9.721L73.1167 12.625H74.3767L71.9527 9.073L74.3407 6.817H73.0327L71.1247 8.641L70.2727 9.481L70.3087 8.665V4.585H69.2647V12.625H70.3087Z" fill="white"/>
<path d="M91.636 6.65294L90.952 5.66894L92.092 5.26094L91.912 4.68494L90.76 5.03294L90.724 3.82094H90.136L90.1 5.02094L88.936 4.67294L88.756 5.24894L89.884 5.64494L89.2 6.64094L89.692 6.98894L90.424 6.04094L91.156 7.00094L91.636 6.65294ZM96.511 6.65294L95.827 5.66894L96.967 5.26094L96.787 4.68494L95.635 5.03294L95.599 3.82094H95.011L94.975 5.02094L93.811 4.67294L93.631 5.24894L94.759 5.64494L94.075 6.64094L94.567 6.98894L95.299 6.04094L96.031 7.00094L96.511 6.65294ZM101.386 6.65294L100.702 5.66894L101.842 5.26094L101.662 4.68494L100.51 5.03294L100.474 3.82094H99.886L99.85 5.02094L98.686 4.67294L98.506 5.24894L99.634 5.64494L98.95 6.64094L99.442 6.98894L100.174 6.04094L100.906 7.00094L101.386 6.65294ZM110.938 12.4609V10.5409H112.378V9.61694H110.938V4.42094H109.894L105.85 9.72494V10.5409H109.894V12.4609H110.938ZM107.038 9.61694L109.894 5.93294V9.61694H107.038ZM116.359 12.5809C118.111 12.5809 119.155 11.5129 119.155 9.88094C119.155 8.33294 118.327 7.21694 116.731 7.21694C115.675 7.21694 115.039 7.78094 114.787 8.48894L115.003 5.40494H118.543V4.42094H113.971L113.719 9.02894L114.751 9.13694L114.763 9.00494C114.811 8.46494 115.411 8.08094 116.287 8.08094C117.163 8.08094 118.051 8.57294 118.051 9.88094C118.051 10.9249 117.499 11.5849 116.395 11.5849C115.267 11.5849 114.547 10.9129 114.259 9.86894L113.419 10.7569C113.827 11.7769 114.919 12.5809 116.359 12.5809ZM121.921 12.4609C121.921 9.04094 122.989 7.30094 124.765 5.60894V4.42094H119.497V5.40494H123.817C122.497 6.67694 120.781 8.46494 120.781 12.4609H121.921ZM129.746 12.4609V10.5409H131.186V9.61694H129.746V4.42094H128.702L124.658 9.72494V10.5409H128.702V12.4609H129.746ZM125.846 9.61694L128.702 5.93294V9.61694H125.846Z" fill="white"/>
<defs>
<clipPath id="clip0_291_73933">
<rect width="22.6154" height="17.5488" fill="white" transform="translate(0.884766 0.078125)"/>
</clipPath>
</defs>
</svg>
