<svg width="105" height="34" viewBox="0 0 105 34" fill="none" xmlns="http://www.w3.org/2000/svg">
<g clip-path="url(#clip0_285_73275)">
<path d="M13.0013 25.5934V24.4287C13.0013 23.9822 12.7296 23.691 12.2637 23.691C12.0307 23.691 11.7784 23.7687 11.6037 24.021C11.4678 23.8075 11.2736 23.691 10.9825 23.691C10.7883 23.691 10.5942 23.7493 10.4389 23.9628V23.7299H10.0312V25.5934H10.4389V24.5646C10.4389 24.2346 10.6136 24.0793 10.8854 24.0793C11.1572 24.0793 11.2931 24.254 11.2931 24.5646V25.5934H11.7007V24.5646C11.7007 24.2346 11.8948 24.0793 12.1472 24.0793C12.419 24.0793 12.5549 24.254 12.5549 24.5646V25.5934H13.0013ZM19.0386 23.7299H18.3786V23.1669H17.9709V23.7299H17.6021V24.0987H17.9709V24.9528C17.9709 25.3799 18.1456 25.6323 18.6115 25.6323C18.7862 25.6323 18.9803 25.574 19.1162 25.4964L18.9998 25.147C18.8833 25.2246 18.7474 25.244 18.6503 25.244C18.4562 25.244 18.3786 25.1275 18.3786 24.9334V24.0987H19.0386V23.7299ZM22.494 23.691C22.261 23.691 22.1057 23.8075 22.0087 23.9628V23.7299H21.601V25.5934H22.0087V24.5452C22.0087 24.2346 22.1446 24.0599 22.3969 24.0599C22.4746 24.0599 22.5716 24.0793 22.6493 24.0987L22.7658 23.7104C22.6881 23.691 22.5716 23.691 22.494 23.691ZM17.2721 23.8852C17.0779 23.7493 16.8062 23.691 16.515 23.691C16.0491 23.691 15.7385 23.924 15.7385 24.2928C15.7385 24.6034 15.9714 24.7781 16.3791 24.8364L16.5732 24.8558C16.7867 24.8946 16.9032 24.9528 16.9032 25.0499C16.9032 25.1858 16.7479 25.2828 16.4761 25.2828C16.2044 25.2828 15.9908 25.1858 15.855 25.0887L15.6608 25.3993C15.8744 25.5546 16.1656 25.6323 16.4567 25.6323C17.0003 25.6323 17.3109 25.3799 17.3109 25.0305C17.3109 24.7005 17.0585 24.5258 16.6703 24.4675L16.4761 24.4481C16.3014 24.4287 16.1656 24.3899 16.1656 24.2734C16.1656 24.1375 16.3014 24.0599 16.515 24.0599C16.7479 24.0599 16.9809 24.1569 17.0973 24.2152L17.2721 23.8852ZM28.1041 23.691C27.8712 23.691 27.7159 23.8075 27.6188 23.9628V23.7299H27.2112V25.5934H27.6188V24.5452C27.6188 24.2346 27.7547 24.0599 28.0071 24.0599C28.0847 24.0599 28.1818 24.0793 28.2594 24.0987L28.3759 23.7104C28.2983 23.691 28.1818 23.691 28.1041 23.691ZM22.9016 24.6616C22.9016 25.2246 23.2899 25.6323 23.8917 25.6323C24.1634 25.6323 24.3576 25.574 24.5517 25.4187L24.3576 25.0887C24.2023 25.2052 24.047 25.2634 23.8723 25.2634C23.5422 25.2634 23.3093 25.0305 23.3093 24.6616C23.3093 24.3122 23.5422 24.0793 23.8723 24.0599C24.047 24.0599 24.2023 24.1181 24.3576 24.2346L24.5517 23.9046C24.3576 23.7493 24.1634 23.691 23.8917 23.691C23.2899 23.691 22.9016 24.0987 22.9016 24.6616ZM26.6676 24.6616V23.7299H26.26V23.9628C26.1241 23.7881 25.93 23.691 25.6776 23.691C25.1535 23.691 24.7458 24.0987 24.7458 24.6616C24.7458 25.2246 25.1535 25.6323 25.6776 25.6323C25.9494 25.6323 26.1435 25.5352 26.26 25.3605V25.5934H26.6676V24.6616ZM25.1729 24.6616C25.1729 24.3316 25.3864 24.0599 25.7358 24.0599C26.0658 24.0599 26.2988 24.3122 26.2988 24.6616C26.2988 24.9917 26.0658 25.2634 25.7358 25.2634C25.3864 25.244 25.1729 24.9917 25.1729 24.6616ZM20.3004 23.691C19.7568 23.691 19.3686 24.0793 19.3686 24.6616C19.3686 25.244 19.7568 25.6323 20.3198 25.6323C20.5916 25.6323 20.8633 25.5546 21.0769 25.3799L20.8828 25.0887C20.7275 25.2052 20.5333 25.2828 20.3392 25.2828C20.0868 25.2828 19.8345 25.1664 19.7762 24.8364H21.1545C21.1545 24.7781 21.1545 24.7393 21.1545 24.6811C21.1739 24.0793 20.8245 23.691 20.3004 23.691ZM20.3004 24.0405C20.5527 24.0405 20.7275 24.1957 20.7663 24.4869H19.7957C19.8345 24.2346 20.0092 24.0405 20.3004 24.0405ZM30.4142 24.6616V22.9922H30.0066V23.9628C29.8707 23.7881 29.6765 23.691 29.4242 23.691C28.9001 23.691 28.4924 24.0987 28.4924 24.6616C28.4924 25.2246 28.9001 25.6323 29.4242 25.6323C29.696 25.6323 29.8901 25.5352 30.0066 25.3605V25.5934H30.4142V24.6616ZM28.9195 24.6616C28.9195 24.3316 29.133 24.0599 29.4824 24.0599C29.8124 24.0599 30.0454 24.3122 30.0454 24.6616C30.0454 24.9917 29.8124 25.2634 29.4824 25.2634C29.133 25.244 28.9195 24.9917 28.9195 24.6616ZM15.292 24.6616V23.7299H14.8843V23.9628C14.7485 23.7881 14.5543 23.691 14.302 23.691C13.7778 23.691 13.3702 24.0987 13.3702 24.6616C13.3702 25.2246 13.7778 25.6323 14.302 25.6323C14.5737 25.6323 14.7679 25.5352 14.8843 25.3605V25.5934H15.292V24.6616ZM13.7778 24.6616C13.7778 24.3316 13.9914 24.0599 14.3408 24.0599C14.6708 24.0599 14.9038 24.3122 14.9038 24.6616C14.9038 24.9917 14.6708 25.2634 14.3408 25.2634C13.9914 25.244 13.7778 24.9917 13.7778 24.6616Z" fill="white"/>
<path d="M23.2497 9.57812H17.1348V20.5655H23.2497V9.57812Z" fill="#FF5F00"/>
<path d="M17.5233 15.0705C17.5233 12.8381 18.5715 10.858 20.1828 9.57678C18.9986 8.64499 17.5038 8.08203 15.8732 8.08203C12.0102 8.08203 8.88477 11.2074 8.88477 15.0705C8.88477 18.9335 12.0102 22.0589 15.8732 22.0589C17.5038 22.0589 18.9986 21.496 20.1828 20.5642C18.5715 19.3024 17.5233 17.3029 17.5233 15.0705Z" fill="#EB001B"/>
<path d="M31.4992 15.0705C31.4992 18.9335 28.3738 22.0589 24.5107 22.0589C22.8801 22.0589 21.3853 21.496 20.2012 20.5642C21.8318 19.283 22.8607 17.3029 22.8607 15.0705C22.8607 12.8381 21.8124 10.858 20.2012 9.57678C21.3853 8.64499 22.8801 8.08203 24.5107 8.08203C28.3738 8.08203 31.4992 11.2268 31.4992 15.0705Z" fill="#F79E1B"/>
</g>
<path d="M46.2474 20.721C48.0954 20.721 49.1274 19.305 49.1874 17.517L49.5114 20.625H50.1594V16.593H46.6074V17.517H49.0674C48.7674 18.873 48.1554 19.737 46.6074 19.737C44.8674 19.737 44.0634 18.429 44.0634 16.593C44.0634 14.757 44.8914 13.449 46.7154 13.449C48.1314 13.449 48.9234 14.313 49.1994 15.453L50.1354 14.841C49.5954 13.317 48.3834 12.465 46.7034 12.465C44.2794 12.465 42.9594 14.241 42.9594 16.593C42.9594 19.029 44.0994 20.721 46.2474 20.721ZM54.0152 20.625V13.509H56.5592V12.585H50.4392V13.509H52.9832V20.625H54.0152ZM60.5058 20.625C62.2458 20.625 63.2778 19.833 63.2778 18.465C63.2778 17.433 62.6898 16.605 61.0098 16.425C62.3538 16.281 62.9178 15.501 62.9178 14.637C62.9178 13.413 62.1018 12.585 60.5658 12.585H57.1698V20.625H60.5058ZM60.2058 13.509C61.1658 13.509 61.8378 13.809 61.8378 14.769C61.8378 15.741 61.1778 16.029 60.2538 16.029H58.2138V13.509H60.2058ZM60.3738 16.965C61.4178 16.965 62.1978 17.361 62.1978 18.333C62.1978 19.293 61.6098 19.701 60.3378 19.701H58.2138V16.965H60.3738ZM65.9022 20.745C67.1022 20.745 67.7262 19.881 67.9182 19.113V19.521C67.9182 20.337 68.3502 20.625 68.9502 20.625H69.6222V19.677H69.2502C69.0342 19.677 68.9262 19.593 68.9262 19.317V16.929C68.9262 15.549 68.1582 14.697 66.7302 14.697C65.4342 14.697 64.5702 15.429 64.2222 16.029L64.9302 16.761C65.2302 16.125 65.7822 15.645 66.6102 15.645C67.5222 15.645 67.8462 16.149 67.8822 16.833L65.7822 17.769C64.9542 18.141 64.3662 18.633 64.3662 19.413C64.3662 20.181 64.9182 20.745 65.9022 20.745ZM65.4222 19.245C65.4222 18.885 65.6742 18.645 66.2262 18.381L67.9182 17.589V18.393C67.9182 19.233 67.2222 19.881 66.2382 19.881C65.6982 19.881 65.4222 19.641 65.4222 19.245ZM71.8751 20.625V17.337C71.8751 16.365 72.2831 15.585 73.3991 15.585C74.3831 15.585 74.6831 16.113 74.6831 16.869V20.625H75.7151V16.617C75.7151 15.381 75.0071 14.697 73.8671 14.697C72.7271 14.697 72.1031 15.465 71.8751 16.365V14.817H70.8311V20.625H71.8751ZM78.3087 20.625V18.597L79.2327 17.721L81.1167 20.625H82.3767L79.9527 17.073L82.3407 14.817H81.0327L79.1247 16.641L78.2727 17.481L78.3087 16.665V12.585H77.2647V20.625H78.3087Z" fill="white"/>
<defs>
<clipPath id="clip0_285_73275">
<rect width="22.6154" height="17.5488" fill="white" transform="translate(8.88477 8.07812)"/>
</clipPath>
</defs>
</svg>
