<svg width="1170" height="507" viewBox="0 0 1170 507" fill="none" xmlns="http://www.w3.org/2000/svg">
<g clip-path="url(#clip0_4401_79358)">
<rect width="1170" height="699" fill="#EEEFF2"/>
<g clip-path="url(#clip1_4401_79358)">
<path d="M282.419 490.854L279.304 490.854C276.102 490.854 273.506 488.253 273.506 485.045L273.506 454.315C273.506 451.106 276.102 448.506 279.304 448.506L282.419 448.506C285.621 448.506 288.217 451.106 288.217 454.315L288.217 485.045C288.217 488.253 285.621 490.854 282.419 490.854Z" fill="url(#paint0_linear_4401_79358)"/>
<path d="M288.078 488.091L279.165 488.091C277.564 488.091 276.266 486.79 276.266 485.186L276.266 454.171C276.266 452.566 277.564 451.266 279.165 451.266L288.078 451.266C289.679 451.266 290.977 452.566 290.977 454.171L290.977 485.186C290.977 486.79 289.679 488.091 288.078 488.091Z" fill="url(#paint1_linear_4401_79358)"/>
<path d="M791.084 145H388.081C328.035 145 279.357 193.767 279.357 253.925V1282.17C279.357 1342.33 328.035 1391.1 388.081 1391.1H791.084C851.13 1391.1 899.808 1342.33 899.808 1282.17V253.925C899.808 193.767 851.13 145 791.084 145Z" fill="#3D0072"/>
<path d="M789.642 147.905H389.538C330.292 147.905 282.264 196.022 282.264 255.377V1280.72C282.264 1340.08 330.292 1388.19 389.538 1388.19H789.642C848.888 1388.19 896.917 1340.08 896.917 1280.72V255.377C896.917 196.022 848.888 147.905 789.642 147.905Z" fill="url(#paint2_linear_4401_79358)"/>
<path d="M789.355 150.477H389.252C331.607 150.477 284.877 197.294 284.877 255.045V1280.39C284.877 1338.14 331.607 1384.96 389.252 1384.96H789.355C847 1384.96 893.73 1338.14 893.73 1280.39V255.045C893.73 197.294 847 150.477 789.355 150.477Z" fill="#3D0072"/>
<path d="M784.922 165.538H393.024C341.601 165.538 299.914 207.301 299.914 258.819V1275.95C299.914 1327.47 341.601 1369.23 393.024 1369.23H784.922C836.345 1369.23 878.032 1327.47 878.032 1275.95V258.819C878.032 207.301 836.345 165.538 784.922 165.538Z" fill="white"/>
<path d="M795.346 165.699H380.016C334.372 165.699 297.371 202.769 297.371 248.497V1341.42C297.371 1387.15 334.372 1424.22 380.016 1424.22H795.346C840.99 1424.22 877.991 1387.15 877.991 1341.42V248.497C877.991 202.769 840.99 165.699 795.346 165.699Z" fill="white"/>
<path d="M347.657 319.776C348.552 319.776 349.285 319.708 349.854 319.572C350.451 319.409 350.926 319.205 351.279 318.961C351.632 318.689 351.876 318.376 352.011 318.023C352.147 317.67 352.215 317.275 352.215 316.84C352.215 315.916 351.781 315.155 350.913 314.557C350.044 313.932 348.552 313.266 346.436 312.559C345.513 312.233 344.591 311.866 343.668 311.458C342.746 311.024 341.918 310.494 341.186 309.868C340.453 309.216 339.856 308.441 339.395 307.544C338.934 306.62 338.703 305.506 338.703 304.201C338.703 302.896 338.947 301.727 339.436 300.695C339.924 299.634 340.616 298.737 341.511 298.003C342.407 297.27 343.492 296.712 344.767 296.332C346.042 295.924 347.48 295.72 349.081 295.72C350.98 295.72 352.622 295.924 354.006 296.332C355.389 296.74 356.529 297.188 357.424 297.677L355.593 302.692C354.806 302.285 353.924 301.931 352.947 301.632C351.998 301.306 350.845 301.143 349.488 301.143C347.969 301.143 346.87 301.36 346.192 301.795C345.54 302.203 345.215 302.842 345.215 303.712C345.215 304.228 345.337 304.663 345.581 305.016C345.825 305.37 346.164 305.696 346.599 305.995C347.06 306.267 347.575 306.525 348.145 306.77C348.742 306.987 349.393 307.218 350.099 307.463C351.564 308.006 352.839 308.55 353.924 309.094C355.009 309.61 355.905 310.222 356.61 310.929C357.343 311.635 357.885 312.464 358.238 313.416C358.591 314.367 358.767 315.522 358.767 316.881C358.767 319.518 357.845 321.57 356 323.038C354.155 324.479 351.374 325.199 347.657 325.199C346.409 325.199 345.283 325.117 344.279 324.954C343.275 324.818 342.38 324.642 341.593 324.424C340.833 324.207 340.168 323.976 339.599 323.731C339.056 323.487 338.595 323.255 338.215 323.038L340.006 317.982C340.847 318.444 341.878 318.866 343.099 319.246C344.347 319.599 345.866 319.776 347.657 319.776ZM371.902 320.388C372.499 320.388 373.069 320.374 373.612 320.347C374.154 320.32 374.588 320.279 374.914 320.225V315.617C374.67 315.563 374.303 315.509 373.815 315.454C373.327 315.4 372.879 315.373 372.472 315.373C371.902 315.373 371.36 315.413 370.844 315.495C370.356 315.549 369.922 315.672 369.542 315.862C369.162 316.052 368.864 316.311 368.646 316.637C368.43 316.963 368.321 317.371 368.321 317.86C368.321 318.811 368.633 319.477 369.257 319.858C369.908 320.211 370.79 320.388 371.902 320.388ZM371.414 302.611C373.205 302.611 374.697 302.815 375.891 303.222C377.084 303.63 378.034 304.214 378.739 304.976C379.472 305.737 379.988 306.661 380.286 307.748C380.584 308.835 380.734 310.045 380.734 311.377V324.016C379.865 324.207 378.658 324.424 377.112 324.669C375.565 324.941 373.693 325.077 371.495 325.077C370.112 325.077 368.85 324.954 367.711 324.71C366.598 324.465 365.635 324.071 364.821 323.527C364.007 322.956 363.383 322.222 362.949 321.326C362.515 320.428 362.298 319.328 362.298 318.023C362.298 316.773 362.542 315.713 363.03 314.843C363.546 313.973 364.224 313.28 365.065 312.763C365.906 312.247 366.869 311.88 367.955 311.662C369.04 311.418 370.166 311.296 371.333 311.296C372.119 311.296 372.811 311.336 373.408 311.418C374.032 311.472 374.534 311.554 374.914 311.662V311.092C374.914 310.059 374.602 309.23 373.978 308.604C373.354 307.979 372.269 307.667 370.722 307.667C369.691 307.667 368.674 307.748 367.67 307.911C366.666 308.047 365.798 308.251 365.065 308.523L364.292 303.63C364.645 303.521 365.079 303.413 365.594 303.304C366.137 303.168 366.72 303.059 367.344 302.978C367.968 302.869 368.619 302.787 369.298 302.733C370.003 302.652 370.708 302.611 371.414 302.611ZM391.52 324.628C390.136 321.91 388.726 318.73 387.288 315.087C385.877 311.445 384.534 307.476 383.258 303.182H389.689C389.96 304.242 390.272 305.397 390.625 306.647C391.005 307.871 391.384 309.121 391.764 310.398C392.171 311.649 392.565 312.872 392.945 314.068C393.352 315.264 393.745 316.351 394.125 317.33C394.477 316.351 394.857 315.264 395.264 314.068C395.671 312.872 396.065 311.649 396.445 310.398C396.852 309.121 397.231 307.871 397.584 306.647C397.964 305.397 398.289 304.242 398.561 303.182H404.828C403.553 307.476 402.196 311.445 400.758 315.087C399.347 318.73 397.95 321.91 396.567 324.628H391.52ZM406.502 314.068C406.502 312.165 406.787 310.507 407.357 309.094C407.954 307.653 408.727 306.457 409.677 305.506C410.626 304.554 411.713 303.834 412.932 303.345C414.18 302.855 415.456 302.611 416.758 302.611C419.797 302.611 422.198 303.549 423.961 305.424C425.725 307.273 426.607 310.004 426.607 313.619C426.607 313.973 426.593 314.367 426.566 314.802C426.539 315.21 426.512 315.577 426.485 315.903H412.729C412.865 317.153 413.448 318.145 414.479 318.879C415.51 319.613 416.894 319.98 418.63 319.98C419.744 319.98 420.828 319.885 421.886 319.695C422.971 319.477 423.853 319.219 424.531 318.92L425.345 323.853C425.02 324.016 424.587 324.18 424.043 324.343C423.5 324.506 422.89 324.642 422.211 324.75C421.56 324.886 420.855 324.995 420.095 325.077C419.337 325.158 418.576 325.199 417.816 325.199C415.89 325.199 414.208 324.914 412.77 324.343C411.359 323.772 410.18 322.997 409.229 322.019C408.306 321.013 407.615 319.83 407.153 318.471C406.719 317.112 406.502 315.644 406.502 314.068ZM420.746 311.744C420.719 311.227 420.624 310.725 420.461 310.235C420.326 309.746 420.095 309.311 419.77 308.931C419.471 308.55 419.078 308.237 418.589 307.993C418.128 307.748 417.545 307.626 416.839 307.626C416.161 307.626 415.578 307.748 415.089 307.993C414.601 308.21 414.194 308.509 413.868 308.89C413.543 309.27 413.285 309.719 413.095 310.235C412.932 310.725 412.81 311.227 412.729 311.744H420.746Z" fill="#3D0072"/>
<path d="M821.596 351.895H355.116C346.448 351.895 339.422 358.934 339.422 367.618V496.545C339.422 505.228 346.448 512.267 355.116 512.267H821.596C830.263 512.267 837.29 505.228 837.29 496.545V367.618C837.29 358.934 830.263 351.895 821.596 351.895Z" fill="#F9F9F9"/>
<path d="M376.799 432.261V427.601H375.707V426.204H376.799V424.846H375.707V423.451H376.799V418.79H379.756L381.225 423.451H382.939V418.79H385.029V423.451H386.103V424.846H385.029V426.204H386.103V427.601H385.029V432.261H382.054L380.547 427.601H378.89V432.261H376.799ZM378.89 426.204H380.133L379.718 424.846H378.852L378.89 426.204ZM382.995 429.317H383.089L383.014 427.601H382.506L382.995 429.317ZM378.814 423.451H379.342L378.795 421.64H378.72L378.814 423.451ZM382.11 426.204H382.976L382.939 424.846H381.677L382.11 426.204ZM400.989 426.488C400.989 425.941 400.867 425.459 400.624 425.045C400.378 424.61 399.954 424.252 399.351 423.969C398.75 423.687 397.939 423.47 396.922 423.319C395.905 423.168 394.624 423.091 393.08 423.091C393.287 421.338 393.457 419.554 393.589 417.742C393.72 415.931 393.824 414.234 393.899 412.648H404.493V416.186H397.43C397.393 416.865 397.346 417.527 397.289 418.167C397.251 418.79 397.204 419.338 397.148 419.808C399.898 419.999 401.921 420.649 403.221 421.762C404.539 422.857 405.198 424.385 405.198 426.347C405.198 427.252 405.039 428.092 404.719 428.866C404.398 429.638 403.919 430.309 403.279 430.874C402.638 431.441 401.828 431.884 400.849 432.205C399.888 432.526 398.758 432.685 397.459 432.685C396.95 432.685 396.413 432.648 395.849 432.573C395.302 432.515 394.766 432.431 394.238 432.319C393.73 432.224 393.268 432.12 392.854 432.006C392.44 431.894 392.12 431.781 391.894 431.667L392.656 428.185C393.127 428.394 393.749 428.601 394.521 428.808C395.293 428.997 396.216 429.092 397.289 429.092C398.589 429.092 399.531 428.837 400.113 428.328C400.698 427.8 400.989 427.185 400.989 426.488ZM421.96 422.412C421.96 425.714 421.33 428.251 420.068 430.025C418.826 431.781 417.101 432.658 414.898 432.658C412.696 432.658 410.962 431.781 409.7 430.025C408.458 428.251 407.836 425.714 407.836 422.412C407.836 420.771 407.995 419.318 408.316 418.055C408.655 416.79 409.136 415.724 409.758 414.857C410.378 413.987 411.121 413.327 411.989 412.876C412.855 412.423 413.824 412.197 414.898 412.197C417.101 412.197 418.826 413.083 420.068 414.857C421.33 416.61 421.96 419.129 421.96 422.412ZM417.667 422.412C417.667 421.431 417.619 420.545 417.526 419.752C417.431 418.941 417.281 418.243 417.074 417.657C416.867 417.074 416.584 416.62 416.227 416.3C415.867 415.979 415.425 415.819 414.898 415.819C414.372 415.819 413.929 415.979 413.57 416.3C413.231 416.62 412.95 417.074 412.723 417.657C412.516 418.243 412.365 418.941 412.27 419.752C412.177 420.545 412.13 421.431 412.13 422.412C412.13 423.393 412.177 424.29 412.27 425.101C412.365 425.912 412.516 426.61 412.723 427.196C412.95 427.781 413.231 428.233 413.57 428.554C413.929 428.874 414.372 429.036 414.898 429.036C415.425 429.036 415.867 428.874 416.227 428.554C416.584 428.233 416.867 427.781 417.074 427.196C417.281 426.61 417.431 425.912 417.526 425.101C417.619 424.29 417.667 423.393 417.667 422.412ZM428.892 427.96C428.929 428.413 428.948 428.734 428.948 428.922C428.967 429.11 428.977 429.272 428.977 429.402C428.977 429.969 428.919 430.574 428.807 431.213C428.712 431.837 428.572 432.47 428.384 433.11C428.196 433.751 427.96 434.393 427.677 435.035C427.394 435.676 427.074 436.289 426.717 436.875L423.411 436.053C423.845 434.809 424.146 433.639 424.316 432.544C424.485 431.449 424.57 430.545 424.57 429.827C424.57 429.715 424.56 429.572 424.541 429.402C424.541 429.214 424.533 429.026 424.514 428.837C424.514 428.649 424.504 428.469 424.485 428.299C424.485 428.129 424.485 428.015 424.485 427.96H428.892ZM444.969 422.412C444.969 425.714 444.336 428.251 443.076 430.025C441.832 431.781 440.109 432.658 437.907 432.658C435.702 432.658 433.971 431.781 432.708 430.025C431.464 428.251 430.843 425.714 430.843 422.412C430.843 420.771 431.004 419.318 431.324 418.055C431.663 416.79 432.142 415.724 432.764 414.857C433.386 413.987 434.13 413.327 434.995 412.876C435.863 412.423 436.832 412.197 437.907 412.197C440.109 412.197 441.832 413.083 443.076 414.857C444.336 416.61 444.969 419.129 444.969 422.412ZM440.675 422.412C440.675 421.431 440.628 420.545 440.533 419.752C440.44 418.941 440.289 418.243 440.08 417.657C439.874 417.074 439.591 416.62 439.233 416.3C438.876 415.979 438.433 415.819 437.907 415.819C437.378 415.819 436.936 415.979 436.578 416.3C436.239 416.62 435.956 417.074 435.731 417.657C435.524 418.243 435.374 418.941 435.279 419.752C435.183 420.545 435.138 421.431 435.138 422.412C435.138 423.393 435.183 424.29 435.279 425.101C435.374 425.912 435.524 426.61 435.731 427.196C435.956 427.781 436.239 428.233 436.578 428.554C436.936 428.874 437.378 429.036 437.907 429.036C438.433 429.036 438.876 428.874 439.233 428.554C439.591 428.233 439.874 427.781 440.08 427.196C440.289 426.61 440.44 425.912 440.533 425.101C440.628 424.29 440.675 423.393 440.675 422.412ZM461.024 422.412C461.024 425.714 460.392 428.251 459.132 430.025C457.888 431.781 456.165 432.658 453.96 432.658C451.758 432.658 450.024 431.781 448.764 430.025C447.52 428.251 446.898 425.714 446.898 422.412C446.898 420.771 447.06 419.318 447.38 418.055C447.719 416.79 448.198 415.724 448.82 414.857C449.442 413.987 450.186 413.327 451.051 412.876C451.919 412.423 452.888 412.197 453.96 412.197C456.165 412.197 457.888 413.083 459.132 414.857C460.392 416.61 461.024 419.129 461.024 422.412ZM456.729 422.412C456.729 421.431 456.683 420.545 456.588 419.752C456.493 418.941 456.345 418.243 456.136 417.657C455.929 417.074 455.646 416.62 455.289 416.3C454.931 415.979 454.489 415.819 453.96 415.819C453.433 415.819 452.991 415.979 452.634 416.3C452.295 416.62 452.012 417.074 451.787 417.657C451.578 418.243 451.429 418.941 451.334 419.752C451.239 420.545 451.194 421.431 451.194 422.412C451.194 423.393 451.239 424.29 451.334 425.101C451.429 425.912 451.578 426.61 451.787 427.196C452.012 427.781 452.295 428.233 452.634 428.554C452.991 428.874 453.433 429.036 453.96 429.036C454.489 429.036 454.931 428.874 455.289 428.554C455.646 428.233 455.929 427.781 456.136 427.196C456.345 426.61 456.493 425.912 456.588 425.101C456.683 424.29 456.729 423.393 456.729 422.412ZM477.078 422.412C477.078 425.714 476.448 428.251 475.186 430.025C473.944 431.781 472.221 432.658 470.016 432.658C467.814 432.658 466.08 431.781 464.82 430.025C463.576 428.251 462.954 425.714 462.954 422.412C462.954 420.771 463.115 419.318 463.436 418.055C463.774 416.79 464.254 415.724 464.876 414.857C465.498 413.987 466.241 413.327 467.107 412.876C467.973 412.423 468.944 412.197 470.016 412.197C472.221 412.197 473.944 413.083 475.186 414.857C476.448 416.61 477.078 419.129 477.078 422.412ZM472.785 422.412C472.785 421.431 472.737 420.545 472.644 419.752C472.549 418.941 472.398 418.243 472.192 417.657C471.985 417.074 471.702 416.62 471.345 416.3C470.987 415.979 470.545 415.819 470.016 415.819C469.489 415.819 469.047 415.979 468.69 416.3C468.351 416.62 468.068 417.074 467.843 417.657C467.634 418.243 467.483 418.941 467.39 419.752C467.295 420.545 467.248 421.431 467.248 422.412C467.248 423.393 467.295 424.29 467.39 425.101C467.483 425.912 467.634 426.61 467.843 427.196C468.068 427.781 468.351 428.233 468.69 428.554C469.047 428.874 469.489 429.036 470.016 429.036C470.545 429.036 470.987 428.874 471.345 428.554C471.702 428.233 471.985 427.781 472.192 427.196C472.398 426.61 472.549 425.912 472.644 425.101C472.737 424.29 472.785 423.393 472.785 422.412ZM484.152 430.025C484.152 430.874 483.878 431.526 483.332 431.979C482.805 432.412 482.202 432.629 481.524 432.629C480.847 432.629 480.235 432.412 479.688 431.979C479.161 431.526 478.896 430.874 478.896 430.025C478.896 429.177 479.161 428.535 479.688 428.1C480.235 427.649 480.847 427.421 481.524 427.421C482.202 427.421 482.805 427.649 483.332 428.1C483.878 428.535 484.152 429.177 484.152 430.025ZM500.086 422.412C500.086 425.714 499.456 428.251 498.194 430.025C496.95 431.781 495.227 432.658 493.024 432.658C490.822 432.658 489.088 431.781 487.826 430.025C486.584 428.251 485.962 425.714 485.962 422.412C485.962 420.771 486.121 419.318 486.442 418.055C486.781 416.79 487.262 415.724 487.884 414.857C488.504 413.987 489.248 413.327 490.115 412.876C490.981 412.423 491.95 412.197 493.024 412.197C495.227 412.197 496.95 413.083 498.194 414.857C499.456 416.61 500.086 419.129 500.086 422.412ZM495.793 422.412C495.793 421.431 495.745 420.545 495.65 419.752C495.557 418.941 495.407 418.243 495.2 417.657C494.991 417.074 494.71 416.62 494.353 416.3C493.993 415.979 493.551 415.819 493.024 415.819C492.498 415.819 492.055 415.979 491.696 416.3C491.357 416.62 491.076 417.074 490.849 417.657C490.642 418.243 490.491 418.941 490.396 419.752C490.303 420.545 490.256 421.431 490.256 422.412C490.256 423.393 490.303 424.29 490.396 425.101C490.491 425.912 490.642 426.61 490.849 427.196C491.076 427.781 491.357 428.233 491.696 428.554C492.055 428.874 492.498 429.036 493.024 429.036C493.551 429.036 493.993 428.874 494.353 428.554C494.71 428.233 494.991 427.781 495.2 427.196C495.407 426.61 495.557 425.912 495.65 425.101C495.745 424.29 495.793 423.393 495.793 422.412ZM516.142 422.412C516.142 425.714 515.512 428.251 514.25 430.025C513.006 431.781 511.283 432.658 509.08 432.658C506.876 432.658 505.144 431.781 503.882 430.025C502.64 428.251 502.018 425.714 502.018 422.412C502.018 420.771 502.177 419.318 502.498 418.055C502.836 416.79 503.318 415.724 503.938 414.857C504.56 413.987 505.303 413.327 506.171 412.876C507.037 412.423 508.006 412.197 509.08 412.197C511.283 412.197 513.006 413.083 514.25 414.857C515.512 416.61 516.142 419.129 516.142 422.412ZM511.849 422.412C511.849 421.431 511.801 420.545 511.706 419.752C511.613 418.941 511.462 418.243 511.256 417.657C511.047 417.074 510.766 416.62 510.407 416.3C510.049 415.979 509.607 415.819 509.08 415.819C508.553 415.819 508.109 415.979 507.752 416.3C507.413 416.62 507.13 417.074 506.905 417.657C506.698 418.243 506.547 418.941 506.452 419.752C506.359 420.545 506.312 421.431 506.312 422.412C506.312 423.393 506.359 424.29 506.452 425.101C506.547 425.912 506.698 426.61 506.905 427.196C507.13 427.781 507.413 428.233 507.752 428.554C508.109 428.874 508.553 429.036 509.08 429.036C509.607 429.036 510.049 428.874 510.407 428.554C510.766 428.233 511.047 427.781 511.256 427.196C511.462 426.61 511.613 425.912 511.706 425.101C511.801 424.29 511.849 423.393 511.849 422.412Z" fill="#3D0072"/>
<path fill-rule="evenodd" clip-rule="evenodd" d="M527.75 423.536C527.75 423.536 532.163 414.784 539.521 414.784C546.876 414.784 551.291 423.536 551.291 423.536C551.291 423.536 546.876 432.286 539.521 432.286C532.163 432.286 527.75 423.536 527.75 423.536ZM530.413 423.724C530.374 423.662 530.335 423.598 530.295 423.536L530.415 423.346C530.895 422.603 531.601 421.615 532.504 420.638C534.362 418.628 536.754 416.972 539.521 416.972C542.283 416.972 544.678 418.628 546.539 420.638C547.362 421.537 548.099 422.505 548.746 423.536C548.097 424.563 547.357 425.534 546.535 426.432C544.678 428.442 542.287 430.098 539.521 430.098C536.756 430.098 534.362 428.442 532.502 426.432C531.729 425.589 531.031 424.685 530.413 423.724ZM543.934 423.536C543.934 424.455 543.64 425.353 543.095 426.099C542.55 426.846 541.783 427.403 540.899 427.69C540.017 427.978 539.064 427.982 538.18 427.703C537.295 427.421 536.521 426.873 535.969 426.132C535.417 425.391 535.116 424.497 535.107 423.575C535.097 422.654 535.382 421.754 535.919 421.002C536.457 420.251 537.221 419.688 538.099 419.392C538.979 419.096 539.932 419.082 540.82 419.353C540.494 419.498 540.209 419.721 539.99 419.999C539.771 420.278 539.622 420.605 539.558 420.953C539.494 421.301 539.517 421.661 539.622 421.998C539.729 422.336 539.917 422.642 540.169 422.892C540.421 423.143 540.731 423.329 541.072 423.435C541.413 423.538 541.773 423.561 542.124 423.497C542.475 423.435 542.806 423.288 543.087 423.07C543.37 422.851 543.593 422.569 543.74 422.247C543.87 422.665 543.934 423.099 543.934 423.536Z" fill="#9CA3AF"/>
<path d="M455.058 450.905H392.156C382.967 450.905 375.518 458.368 375.518 467.574C375.518 476.78 382.967 484.243 392.156 484.243H455.058C464.247 484.243 471.696 476.78 471.696 467.574C471.696 458.368 464.247 450.905 455.058 450.905Z" fill="#3D0072" fill-opacity="0.11"/>
<path d="M418.776 457.222H392.127C386.422 457.222 381.797 461.856 381.797 467.572C381.797 473.288 386.422 477.921 392.127 477.921H418.776C424.482 477.921 429.107 473.288 429.107 467.572C429.107 461.856 424.482 457.222 418.776 457.222Z" fill="white"/>
<path d="M397.927 471.712C397.641 471.232 397.321 470.718 396.968 470.17C396.615 469.615 396.249 469.058 395.87 468.501C395.492 467.938 395.105 467.394 394.71 466.872C394.323 466.34 393.953 465.864 393.599 465.444V471.712H392.035V462.954H393.335C393.671 463.308 394.033 463.728 394.419 464.217C394.806 464.699 395.193 465.2 395.58 465.721C395.975 466.243 396.354 466.771 396.716 467.301C397.086 467.824 397.414 468.313 397.7 468.768V462.954H399.276V471.712H397.927ZM405.462 464.154C404.561 464.154 403.871 464.436 403.392 465.001C402.921 465.558 402.685 466.332 402.685 467.328C402.685 467.8 402.741 468.232 402.85 468.63C402.968 469.017 403.136 469.35 403.355 469.627C403.582 469.905 403.859 470.124 404.187 470.283C404.524 470.437 404.914 470.511 405.361 470.511C405.638 470.511 405.877 470.503 406.08 470.486C406.282 470.461 406.441 470.432 406.559 470.397V467.251H408.148V471.459C407.929 471.544 407.559 471.637 407.038 471.739C406.518 471.838 405.917 471.89 405.235 471.89C404.603 471.89 404.028 471.788 403.505 471.585C402.985 471.385 402.538 471.089 402.169 470.702C401.807 470.315 401.526 469.838 401.324 469.273C401.121 468.708 401.02 468.06 401.02 467.328C401.02 466.593 401.129 465.945 401.348 465.38C401.576 464.815 401.884 464.339 402.27 463.952C402.656 463.556 403.111 463.256 403.631 463.055C404.154 462.852 404.708 462.751 405.297 462.751C405.702 462.751 406.059 462.78 406.369 462.84C406.689 462.89 406.962 462.95 407.189 463.016C407.417 463.084 407.603 463.157 407.745 463.231C407.896 463.308 408.001 463.362 408.061 463.397L407.582 464.699C407.328 464.546 407.014 464.419 406.636 464.318C406.264 464.208 405.873 464.154 405.462 464.154ZM415.877 471.712C415.592 471.232 415.272 470.718 414.919 470.17C414.565 469.615 414.2 469.058 413.822 468.501C413.443 467.938 413.055 467.394 412.66 466.872C412.274 466.34 411.904 465.864 411.551 465.444V471.712H409.985V462.954H411.284C411.621 463.308 411.983 463.728 412.371 464.217C412.757 464.699 413.144 465.2 413.53 465.721C413.927 466.243 414.305 466.771 414.667 467.301C415.036 467.824 415.365 468.313 415.65 468.768V462.954H417.226V471.712H415.877Z" fill="#3D0072" fill-opacity="0.8"/>
<path d="M441.369 471.902C440.77 471.902 440.258 471.819 439.83 471.649C439.4 471.474 439.043 471.229 438.758 470.917C438.479 470.606 438.272 470.24 438.138 469.818C438.004 469.395 437.938 468.934 437.938 468.427V462.954H439.539V468.276C439.539 468.671 439.58 469.012 439.665 469.3C439.758 469.577 439.884 469.805 440.043 469.981C440.212 470.159 440.404 470.29 440.623 470.374C440.851 470.457 441.103 470.501 441.382 470.501C441.659 470.501 441.911 470.457 442.138 470.374C442.365 470.29 442.559 470.159 442.718 469.981C442.886 469.805 443.012 469.577 443.097 469.3C443.19 469.012 443.235 468.671 443.235 468.276V462.954H444.838V468.427C444.838 468.934 444.766 469.395 444.623 469.818C444.489 470.24 444.278 470.606 443.993 470.917C443.714 471.229 443.357 471.474 442.921 471.649C442.483 471.819 441.966 471.902 441.369 471.902ZM448.989 470.526C449.561 470.526 449.979 470.428 450.239 470.234C450.499 470.041 450.63 469.768 450.63 469.414C450.63 469.203 450.584 469.021 450.491 468.87C450.407 468.718 450.28 468.584 450.113 468.466C449.952 468.34 449.756 468.226 449.52 468.124C449.285 468.015 449.016 467.909 448.712 467.808C448.409 467.698 448.115 467.58 447.83 467.454C447.551 467.319 447.303 467.156 447.084 466.961C446.876 466.767 446.702 466.535 446.568 466.266C446.442 465.996 446.378 465.672 446.378 465.293C446.378 464.5 446.652 463.881 447.198 463.434C447.745 462.981 448.489 462.753 449.431 462.753C449.979 462.753 450.462 462.815 450.882 462.941C451.311 463.059 451.648 463.19 451.892 463.335L451.4 464.622C451.113 464.463 450.799 464.341 450.454 464.256C450.117 464.173 449.768 464.129 449.407 464.129C448.977 464.129 448.64 464.218 448.396 464.394C448.161 464.572 448.043 464.821 448.043 465.142C448.043 465.334 448.082 465.504 448.157 465.647C448.241 465.781 448.355 465.903 448.497 466.013C448.65 466.123 448.822 466.224 449.016 466.317C449.216 466.408 449.435 466.497 449.671 466.582C450.084 466.733 450.45 466.889 450.768 467.05C451.097 467.201 451.369 467.387 451.588 467.605C451.816 467.816 451.989 468.069 452.107 468.365C452.225 468.65 452.283 469 452.283 469.414C452.283 470.205 452.002 470.819 451.438 471.258C450.882 471.689 450.066 471.902 448.989 471.902C448.628 471.902 448.297 471.877 447.993 471.828C447.7 471.784 447.433 471.73 447.198 471.662C446.971 471.596 446.774 471.527 446.605 471.461C446.437 471.385 446.303 471.318 446.202 471.258L446.669 469.956C446.896 470.083 447.202 470.209 447.59 470.335C447.977 470.461 448.444 470.526 448.989 470.526ZM455.272 470.399C455.365 470.408 455.487 470.416 455.64 470.424C455.791 470.424 455.997 470.424 456.258 470.424C457.326 470.424 458.119 470.155 458.642 469.615C459.171 469.068 459.435 468.304 459.435 467.327C459.435 466.334 459.179 465.57 458.667 465.04C458.154 464.508 457.359 464.243 456.283 464.243C455.811 464.243 455.475 464.256 455.272 464.281V470.399ZM461.103 467.327C461.103 468.085 460.985 468.747 460.749 469.313C460.514 469.867 460.177 470.335 459.739 470.716C459.309 471.086 458.789 471.364 458.175 471.55C457.57 471.726 456.896 471.815 456.157 471.815C455.803 471.815 455.404 471.799 454.958 471.763C454.512 471.738 454.086 471.681 453.683 471.587V463.08C454.086 462.989 454.516 462.929 454.971 462.904C455.425 462.879 455.828 462.867 456.181 462.867C456.913 462.867 457.582 462.954 458.188 463.132C458.793 463.299 459.309 463.571 459.739 463.941C460.177 464.303 460.514 464.767 460.749 465.33C460.985 465.887 461.103 466.553 461.103 467.327Z" fill="#3D0072" fill-opacity="0.3"/>
<path d="M488.249 472.749V469.625H487.518V468.692H488.249V467.781H487.518V466.845H488.249V463.722H490.23L491.214 466.845H492.363V463.722H493.763V466.845H494.482V467.781H493.763V468.692H494.482V469.625H493.763V472.749H491.77L490.759 469.625H489.65V472.749H488.249ZM489.65 468.692H490.482L490.204 467.781H489.623L489.65 468.692ZM492.4 470.776H492.464L492.412 469.625H492.071L492.4 470.776ZM489.598 466.845H489.951L489.586 465.632H489.536L489.598 466.845ZM491.807 468.692H492.387L492.363 467.781H491.516L491.807 468.692ZM496.404 472.749C496.454 472.134 496.559 471.492 496.718 470.828C496.879 470.161 497.071 469.507 497.299 468.868C497.534 468.228 497.794 467.626 498.082 467.061C498.367 466.487 498.658 465.995 498.951 465.581H495.154V463.976H501.274V465.34C501.005 465.636 500.706 466.044 500.377 466.568C500.059 467.09 499.751 467.684 499.456 468.35C499.17 469.006 498.918 469.714 498.699 470.474C498.489 471.231 498.358 471.989 498.309 472.749H496.404ZM505.807 466.288C505.48 466.719 505.131 467.187 504.761 467.692C504.389 468.197 504.08 468.717 503.827 469.246H505.807V466.288ZM507.65 463.989V469.246H508.584V470.789H507.65V472.749H505.807V470.789H502.034V469.412C502.22 469.039 502.451 468.623 502.728 468.16C503.007 467.688 503.313 467.208 503.65 466.719C503.995 466.222 504.356 465.738 504.735 465.266C505.115 464.794 505.493 464.368 505.871 463.989H507.65ZM515.691 468.35C515.691 469.824 515.41 470.958 514.846 471.749C514.292 472.533 513.522 472.925 512.538 472.925C511.553 472.925 510.78 472.533 510.216 471.749C509.66 470.958 509.383 469.824 509.383 468.35C509.383 467.615 509.456 466.967 509.598 466.402C509.749 465.837 509.964 465.361 510.241 464.974C510.52 464.587 510.85 464.291 511.239 464.09C511.625 463.887 512.059 463.786 512.538 463.786C513.522 463.786 514.292 464.181 514.846 464.974C515.41 465.759 515.691 466.883 515.691 468.35ZM513.774 468.35C513.774 467.911 513.753 467.516 513.712 467.162C513.668 466.8 513.602 466.487 513.509 466.226C513.416 465.964 513.29 465.763 513.131 465.62C512.97 465.475 512.774 465.405 512.538 465.405C512.303 465.405 512.104 465.475 511.945 465.62C511.792 465.763 511.666 465.964 511.565 466.226C511.474 466.487 511.406 466.8 511.365 467.162C511.321 467.516 511.301 467.911 511.301 468.35C511.301 468.787 511.321 469.188 511.365 469.551C511.406 469.913 511.474 470.225 511.565 470.486C511.666 470.747 511.792 470.95 511.945 471.093C512.104 471.236 512.303 471.308 512.538 471.308C512.774 471.308 512.97 471.236 513.131 471.093C513.29 470.95 513.416 470.747 513.509 470.486C513.602 470.225 513.668 469.913 513.712 469.551C513.753 469.188 513.774 468.787 513.774 468.35ZM520.772 475.088H518.842L523.082 462.85H524.987L520.772 475.088ZM527.454 472.622C526.84 472.571 526.338 472.48 525.951 472.343C525.573 472.2 525.292 472.082 525.106 471.989L525.65 470.536C525.943 470.679 526.292 470.809 526.697 470.927C527.108 471.045 527.542 471.105 527.997 471.105C528.509 471.105 528.858 471.037 529.042 470.902C529.237 470.76 529.334 470.561 529.334 470.308C529.334 470.149 529.296 470.014 529.22 469.905C529.144 469.787 529.034 469.681 528.892 469.588C528.749 469.495 528.567 469.408 528.35 469.323C528.131 469.23 527.879 469.133 527.592 469.031C527.315 468.932 527.04 468.822 526.772 468.704C526.511 468.578 526.272 468.425 526.053 468.249C525.842 468.071 525.67 467.855 525.536 467.603C525.41 467.342 525.346 467.03 525.346 466.667C525.346 466.39 525.383 466.125 525.46 465.872C525.544 465.61 525.67 465.374 525.838 465.165C526.007 464.953 526.226 464.775 526.495 464.633C526.763 464.481 527.084 464.372 527.454 464.303V462.939H529.042V464.254C529.48 464.295 529.854 464.359 530.166 464.444C530.487 464.527 530.739 464.612 530.923 464.697L530.532 466.214C530.255 466.096 529.931 465.995 529.561 465.91C529.199 465.825 528.817 465.783 528.412 465.783C528.009 465.783 527.718 465.85 527.542 465.986C527.365 466.121 527.276 466.297 527.276 466.516C527.276 466.651 527.303 466.769 527.352 466.87C527.412 466.963 527.499 467.048 527.617 467.123C527.734 467.199 527.879 467.276 528.046 467.35C528.222 467.419 528.433 467.493 528.677 467.578C529.046 467.713 529.387 467.862 529.699 468.021C530.02 468.18 530.292 468.367 530.52 468.578C530.755 468.779 530.935 469.019 531.063 469.298C531.197 469.576 531.263 469.901 531.263 470.271C531.263 470.524 531.226 470.776 531.15 471.029C531.075 471.273 530.949 471.501 530.772 471.712C530.596 471.923 530.365 472.103 530.077 472.256C529.801 472.407 529.456 472.517 529.042 472.583V474.127H527.454V472.622ZM532.72 465.808C532.964 465.707 533.216 465.593 533.476 465.467C533.745 465.332 534.007 465.189 534.259 465.038C534.511 464.877 534.751 464.713 534.978 464.544C535.214 464.368 535.425 464.181 535.608 463.989H536.92V472.749H535.04V466.44C534.788 466.609 534.507 466.765 534.195 466.907C533.885 467.044 533.582 467.162 533.288 467.261L532.72 465.808Z" fill="#B69FC9"/>
<path d="M384.403 380.645V382.359H381.06V391.539H379.067V382.359H375.725V380.645H384.403ZM392.382 387.42C392.382 388.07 392.288 388.662 392.1 389.198C391.911 389.732 391.645 390.187 391.299 390.566C390.954 390.943 390.536 391.237 390.044 391.446C389.563 391.655 389.029 391.761 388.443 391.761C387.857 391.761 387.324 391.655 386.842 391.446C386.361 391.237 385.948 390.943 385.603 390.566C385.257 390.187 384.985 389.732 384.786 389.198C384.598 388.662 384.504 388.07 384.504 387.42C384.504 386.77 384.598 386.184 384.786 385.66C384.985 385.124 385.257 384.669 385.603 384.292C385.958 383.913 386.377 383.626 386.858 383.427C387.339 383.218 387.868 383.112 388.443 383.112C389.018 383.112 389.547 383.218 390.028 383.427C390.52 383.626 390.938 383.913 391.284 384.292C391.629 384.669 391.896 385.124 392.084 385.66C392.283 386.184 392.382 386.77 392.382 387.42ZM390.436 387.42C390.436 386.602 390.258 385.959 389.903 385.487C389.557 385.004 389.071 384.764 388.443 384.764C387.815 384.764 387.324 385.004 386.968 385.487C386.623 385.959 386.45 386.602 386.45 387.42C386.45 388.248 386.623 388.904 386.968 389.386C387.324 389.869 387.815 390.109 388.443 390.109C389.071 390.109 389.557 389.869 389.903 389.386C390.258 388.904 390.436 388.248 390.436 387.42ZM394.244 381.148L396.143 380.833V383.317H399.061V384.905H396.143V388.254C396.143 388.914 396.248 389.386 396.457 389.67C396.667 389.951 397.022 390.094 397.524 390.094C397.87 390.094 398.173 390.057 398.435 389.982C398.706 389.91 398.921 389.842 399.078 389.78L399.392 391.289C399.173 391.384 398.884 391.477 398.529 391.572C398.173 391.676 397.755 391.729 397.273 391.729C396.687 391.729 396.196 391.651 395.798 391.493C395.411 391.336 395.102 391.111 394.872 390.817C394.642 390.512 394.48 390.152 394.386 389.732C394.292 389.301 394.244 388.815 394.244 388.271V381.148ZM403.787 390.204C404.371 390.204 404.816 390.173 405.119 390.109V388.002C405.016 387.97 404.863 387.939 404.665 387.908C404.466 387.877 404.245 387.861 404.006 387.861C403.797 387.861 403.582 387.877 403.361 387.908C403.152 387.939 402.96 387.997 402.78 388.08C402.613 388.165 402.479 388.285 402.373 388.442C402.268 388.589 402.216 388.778 402.216 389.01C402.216 389.459 402.357 389.773 402.64 389.951C402.923 390.119 403.305 390.204 403.787 390.204ZM403.63 383.112C404.256 383.112 404.785 383.191 405.214 383.348C405.642 383.506 405.983 383.725 406.235 384.009C406.495 384.292 406.679 384.638 406.782 385.046C406.898 385.445 406.956 385.886 406.956 386.366V391.351C406.663 391.415 406.218 391.487 405.621 391.572C405.037 391.665 404.371 391.713 403.63 391.713C403.138 391.713 402.687 391.665 402.278 391.572C401.871 391.477 401.52 391.326 401.227 391.115C400.946 390.906 400.72 390.632 400.553 390.297C400.396 389.962 400.318 389.548 400.318 389.055C400.318 388.583 400.406 388.186 400.584 387.861C400.772 387.536 401.024 387.273 401.338 387.074C401.652 386.865 402.012 386.718 402.421 386.635C402.838 386.54 403.272 386.493 403.723 386.493C403.931 386.493 404.152 386.509 404.382 386.54C404.613 386.561 404.859 386.602 405.119 386.666V386.352C405.119 386.132 405.094 385.921 405.041 385.723C404.989 385.524 404.894 385.35 404.76 385.203C404.634 385.046 404.46 384.926 404.241 384.843C404.032 384.758 403.764 384.717 403.439 384.717C403.001 384.717 402.599 384.748 402.233 384.81C401.865 384.874 401.568 384.946 401.338 385.031L401.103 383.489C401.342 383.406 401.694 383.321 402.154 383.239C402.613 383.154 403.105 383.112 403.63 383.112ZM412.138 391.696C411.572 391.686 411.103 391.624 410.725 391.508C410.359 391.394 410.066 391.231 409.847 391.022C409.628 390.8 409.47 390.533 409.375 390.218C409.293 389.893 409.249 389.527 409.249 389.119V379.653L411.148 379.339V388.757C411.148 388.987 411.165 389.181 411.196 389.339C411.237 389.496 411.305 389.633 411.4 389.749C411.493 389.852 411.619 389.937 411.776 389.999C411.944 390.051 412.154 390.094 412.404 390.125L412.138 391.696ZM420.334 390.061C421.045 390.061 421.563 389.941 421.888 389.701C422.212 389.459 422.373 389.119 422.373 388.678C422.373 388.416 422.318 388.192 422.202 388.002C422.097 387.813 421.94 387.645 421.731 387.499C421.532 387.341 421.287 387.2 420.993 387.074C420.7 386.938 420.365 386.807 419.989 386.681C419.613 386.546 419.245 386.399 418.89 386.242C418.545 386.074 418.237 385.87 417.964 385.627C417.702 385.387 417.489 385.099 417.322 384.764C417.165 384.429 417.086 384.025 417.086 383.553C417.086 382.568 417.425 381.798 418.105 381.241C418.787 380.676 419.712 380.392 420.884 380.392C421.563 380.392 422.165 380.471 422.687 380.628C423.223 380.775 423.64 380.937 423.944 381.115L423.332 382.719C422.977 382.52 422.584 382.369 422.154 382.264C421.737 382.158 421.301 382.106 420.853 382.106C420.318 382.106 419.9 382.216 419.597 382.435C419.303 382.657 419.156 382.965 419.156 383.365C419.156 383.605 419.204 383.814 419.299 383.992C419.402 384.16 419.545 384.313 419.723 384.45C419.911 384.586 420.125 384.71 420.365 384.826C420.617 384.942 420.888 385.052 421.181 385.157C421.694 385.346 422.15 385.538 422.547 385.739C422.956 385.927 423.295 386.157 423.568 386.43C423.849 386.691 424.063 387.006 424.21 387.374C424.357 387.73 424.431 388.165 424.431 388.678C424.431 389.664 424.08 390.43 423.38 390.974C422.687 391.508 421.673 391.775 420.334 391.775C419.884 391.775 419.47 391.744 419.094 391.682C418.729 391.63 418.398 391.562 418.105 391.477C417.824 391.394 417.578 391.309 417.367 391.226C417.159 391.131 416.991 391.046 416.865 390.974L417.446 389.355C417.729 389.513 418.111 389.67 418.592 389.827C419.074 389.982 419.654 390.061 420.334 390.061ZM428.966 390.204C429.553 390.204 429.997 390.173 430.301 390.109V388.002C430.196 387.97 430.045 387.939 429.844 387.908C429.646 387.877 429.427 387.861 429.185 387.861C428.977 387.861 428.762 387.877 428.543 387.908C428.334 387.939 428.14 387.997 427.962 388.08C427.795 388.165 427.659 388.285 427.553 388.442C427.45 388.589 427.396 388.778 427.396 389.01C427.396 389.459 427.539 389.773 427.822 389.951C428.103 390.119 428.485 390.204 428.966 390.204ZM428.809 383.112C429.437 383.112 429.966 383.191 430.394 383.348C430.824 383.506 431.163 383.725 431.415 384.009C431.677 384.292 431.859 384.638 431.964 385.046C432.08 385.445 432.136 385.886 432.136 386.366V391.351C431.844 391.415 431.398 391.487 430.803 391.572C430.216 391.665 429.553 391.713 428.809 391.713C428.318 391.713 427.867 391.665 427.46 391.572C427.051 391.477 426.702 391.326 426.409 391.115C426.125 390.906 425.9 390.632 425.733 390.297C425.576 389.962 425.497 389.548 425.497 389.055C425.497 388.583 425.586 388.186 425.764 387.861C425.954 387.536 426.204 387.273 426.518 387.074C426.832 386.865 427.194 386.718 427.601 386.635C428.02 386.54 428.454 386.493 428.904 386.493C429.113 386.493 429.332 386.509 429.563 386.54C429.793 386.561 430.039 386.602 430.301 386.666V386.352C430.301 386.132 430.274 385.921 430.223 385.723C430.169 385.524 430.076 385.35 429.939 385.203C429.813 385.046 429.642 384.926 429.421 384.843C429.212 384.758 428.946 384.717 428.621 384.717C428.181 384.717 427.778 384.748 427.413 384.81C427.047 384.874 426.747 384.946 426.518 385.031L426.282 383.489C426.524 383.406 426.873 383.321 427.334 383.239C427.795 383.154 428.287 383.112 428.809 383.112ZM436.365 391.539C435.842 390.461 435.303 389.223 434.749 387.83C434.206 386.424 433.708 384.921 433.258 383.317H435.282C435.398 383.779 435.528 384.276 435.675 384.81C435.832 385.335 435.995 385.863 436.163 386.399C436.34 386.923 436.518 387.436 436.696 387.939C436.884 388.432 437.057 388.877 437.214 389.277C437.369 388.877 437.537 388.432 437.716 387.939C437.894 387.436 438.066 386.923 438.233 386.399C438.411 385.863 438.578 385.335 438.735 384.81C438.892 384.276 439.028 383.779 439.144 383.317H441.105C440.656 384.921 440.152 386.424 439.599 387.83C439.055 389.223 438.52 390.461 437.997 391.539H436.365ZM444.437 391.539H442.539V383.317H444.437V391.539ZM444.642 380.912C444.642 381.268 444.526 381.552 444.297 381.761C444.068 381.97 443.795 382.075 443.481 382.075C443.156 382.075 442.88 381.97 442.648 381.761C442.419 381.552 442.303 381.268 442.303 380.912C442.303 380.544 442.419 380.256 442.648 380.047C442.88 379.838 443.156 379.732 443.481 379.732C443.795 379.732 444.068 379.838 444.297 380.047C444.526 380.256 444.642 380.544 444.642 380.912ZM446.861 383.584C447.227 383.479 447.704 383.379 448.289 383.286C448.875 383.191 449.524 383.143 450.235 383.143C450.904 383.143 451.464 383.239 451.915 383.427C452.365 383.605 452.72 383.862 452.981 384.197C453.254 384.522 453.442 384.921 453.547 385.393C453.661 385.853 453.718 386.362 453.718 386.917V391.539H451.82V387.217C451.82 386.776 451.789 386.404 451.727 386.099C451.673 385.785 451.58 385.534 451.444 385.346C451.318 385.147 451.14 385.004 450.911 384.921C450.69 384.826 450.419 384.779 450.094 384.779C449.853 384.779 449.603 384.795 449.34 384.826C449.078 384.857 448.886 384.884 448.76 384.905V391.539H446.861V383.584ZM457.532 387.217C457.532 388.024 457.704 388.616 458.049 388.993C458.406 389.359 458.861 389.544 459.415 389.544C459.718 389.544 460.001 389.502 460.262 389.417C460.535 389.335 460.754 389.233 460.921 389.119V384.857C460.787 384.826 460.619 384.799 460.419 384.779C460.22 384.748 459.97 384.731 459.667 384.731C458.977 384.731 458.448 384.963 458.082 385.424C457.714 385.874 457.532 386.472 457.532 387.217ZM462.822 390.707C462.822 392.017 462.487 392.976 461.816 393.584C461.156 394.193 460.142 394.495 458.772 394.495C458.27 394.495 457.778 394.453 457.297 394.371C456.826 394.286 456.396 394.176 456.01 394.04L456.355 392.421C456.679 392.557 457.045 392.667 457.454 392.75C457.871 392.835 458.322 392.876 458.803 392.876C459.568 392.876 460.111 392.719 460.435 392.404C460.76 392.09 460.921 391.624 460.921 391.005V390.69C460.733 390.786 460.483 390.879 460.169 390.974C459.865 391.069 459.514 391.115 459.117 391.115C458.594 391.115 458.113 391.032 457.673 390.864C457.245 390.697 456.873 390.45 456.559 390.125C456.256 389.8 456.016 389.397 455.836 388.914C455.669 388.422 455.586 387.857 455.586 387.217C455.586 386.619 455.675 386.068 455.853 385.565C456.041 385.062 456.307 384.632 456.652 384.276C457.01 383.92 457.437 383.642 457.939 383.444C458.442 383.243 459.012 383.143 459.65 383.143C460.268 383.143 460.855 383.191 461.409 383.286C461.962 383.379 462.433 383.479 462.822 383.584V390.707ZM467.293 390.173C467.795 390.173 468.161 390.115 468.392 389.999C468.621 389.873 468.737 389.664 468.737 389.37C468.737 389.099 468.611 388.873 468.359 388.695C468.119 388.517 467.716 388.322 467.152 388.113C466.805 387.987 466.487 387.857 466.194 387.72C465.911 387.573 465.665 387.405 465.456 387.217C465.247 387.027 465.08 386.803 464.954 386.54C464.838 386.267 464.782 385.938 464.782 385.549C464.782 384.795 465.059 384.203 465.613 383.773C466.169 383.332 466.921 383.112 467.873 383.112C468.355 383.112 468.816 383.16 469.254 383.253C469.694 383.338 470.024 383.421 470.243 383.506L469.898 385.046C469.69 384.953 469.421 384.868 469.097 384.795C468.772 384.71 468.396 384.669 467.968 384.669C467.58 384.669 467.266 384.737 467.026 384.874C466.785 385 466.665 385.199 466.665 385.47C466.665 385.607 466.685 385.729 466.727 385.832C466.78 385.938 466.863 386.037 466.979 386.132C467.094 386.215 467.245 386.304 467.433 386.399C467.621 386.482 467.853 386.571 468.123 386.666C468.574 386.834 468.956 387.002 469.27 387.169C469.584 387.327 469.84 387.509 470.039 387.72C470.247 387.919 470.4 388.148 470.493 388.411C470.588 388.672 470.636 388.987 470.636 389.355C470.636 390.14 470.342 390.738 469.756 391.148C469.181 391.545 468.355 391.744 467.276 391.744C466.555 391.744 465.975 391.682 465.535 391.556C465.094 391.44 464.787 391.347 464.609 391.272L464.939 389.684C465.22 389.8 465.555 389.91 465.944 390.016C466.34 390.119 466.791 390.173 467.293 390.173Z" fill="#6B7280"/>
<path opacity="0.35" fill-rule="evenodd" clip-rule="evenodd" d="M823.405 198.091C821.843 198.091 821.226 198.196 820.589 198.495C820.052 198.748 819.633 199.114 819.345 199.587C819.005 200.146 818.887 200.688 818.887 202.058V208.169C818.887 209.539 819.005 210.081 819.345 210.64C819.633 211.113 820.052 211.479 820.589 211.732C821.226 212.031 821.843 212.135 823.405 212.135H846.883C848.443 212.135 849.06 212.031 849.697 211.732C850.236 211.479 850.653 211.113 850.94 210.64C851.281 210.081 851.401 209.539 851.401 208.169V202.058C851.401 200.688 851.281 200.146 850.94 199.587C850.653 199.114 850.236 198.748 849.697 198.495C849.06 198.196 848.443 198.091 846.883 198.091H823.405Z" stroke="black" stroke-width="0.656588"/>
<path opacity="0.4" d="M853.721 202.395V207.831C854.967 207.371 855.776 206.3 855.776 205.113C855.776 203.927 854.967 202.856 853.721 202.395Z" fill="black"/>
<path d="M823.856 200.13H846.432C847.352 200.13 847.686 200.214 848.021 200.372C848.358 200.53 848.622 200.762 848.802 201.057C848.982 201.352 849.079 201.645 849.079 202.453V207.774C849.079 208.581 848.982 208.874 848.802 209.17C848.622 209.465 848.358 209.697 848.021 209.855C847.686 210.013 847.352 210.097 846.432 210.097H823.856C822.934 210.097 822.602 210.013 822.265 209.855C821.928 209.697 821.664 209.465 821.484 209.17C821.304 208.874 821.209 208.581 821.209 207.774V202.453C821.209 201.645 821.304 201.352 821.484 201.057C821.664 200.762 821.928 200.53 822.265 200.372C822.602 200.214 822.934 200.13 823.856 200.13Z" fill="black"/>
<path d="M798.507 200.513C801.951 200.513 805.263 201.674 807.759 203.756C807.947 203.916 808.248 203.914 808.432 203.751L810.23 202.161C810.325 202.078 810.376 201.966 810.376 201.849C810.374 201.732 810.321 201.621 810.226 201.539C803.674 196.032 793.337 196.032 786.784 201.539C786.688 201.621 786.635 201.732 786.635 201.849C786.635 201.966 786.686 202.078 786.779 202.161L788.577 203.751C788.763 203.915 789.062 203.917 789.25 203.756C791.748 201.674 795.06 200.513 798.507 200.513ZM798.507 205.688C800.399 205.688 802.224 206.305 803.627 207.419C803.817 207.577 804.114 207.574 804.3 207.411L806.095 205.821C806.188 205.737 806.242 205.624 806.24 205.506C806.238 205.389 806.184 205.277 806.087 205.195C801.814 201.71 795.199 201.71 790.928 205.195C790.831 205.277 790.775 205.389 790.775 205.507C790.773 205.624 790.827 205.737 790.92 205.821L792.715 207.411C792.901 207.574 793.199 207.577 793.389 207.419C794.792 206.306 796.614 205.689 798.507 205.688ZM801.955 209.484C802.052 209.401 802.104 209.288 802.102 209.17C802.098 209.052 802.04 208.94 801.941 208.861C799.957 207.39 797.054 207.39 795.071 208.861C794.971 208.94 794.914 209.052 794.91 209.17C794.908 209.288 794.959 209.401 795.056 209.484L798.162 212.232C798.252 212.313 798.377 212.358 798.507 212.358C798.635 212.358 798.759 212.313 798.85 212.232L801.955 209.484Z" fill="black"/>
<path d="M754.114 206.925H755.663C756.519 206.925 757.211 207.533 757.211 208.284V211.002C757.211 211.753 756.519 212.361 755.663 212.361H754.114C753.259 212.361 752.566 211.753 752.566 211.002V208.284C752.566 207.533 753.259 206.925 754.114 206.925ZM761.339 204.206H762.889C763.744 204.206 764.436 204.815 764.436 205.566V211.002C764.436 211.753 763.744 212.361 762.889 212.361H761.339C760.486 212.361 759.792 211.753 759.792 211.002V205.566C759.792 204.815 760.486 204.206 761.339 204.206ZM768.566 201.035H770.114C770.969 201.035 771.661 201.644 771.661 202.394V211.002C771.661 211.753 770.969 212.361 770.114 212.361H768.566C767.711 212.361 767.017 211.753 767.017 211.002V202.394C767.017 201.644 767.711 201.035 768.566 201.035ZM775.792 197.864H777.339C778.194 197.864 778.889 198.472 778.889 199.223V211.002C778.889 211.753 778.194 212.361 777.339 212.361H775.792C774.936 212.361 774.242 211.753 774.242 211.002V199.223C774.242 198.472 774.936 197.864 775.792 197.864Z" fill="black"/>
<path d="M348.979 198.959C349.372 198.796 349.779 198.613 350.2 198.409C350.634 198.191 351.054 197.96 351.461 197.716C351.868 197.457 352.255 197.192 352.621 196.921C353.001 196.635 353.34 196.336 353.638 196.024H355.755V210.151H352.723V199.978C352.316 200.25 351.861 200.502 351.36 200.733C350.857 200.95 350.369 201.14 349.894 201.304L348.979 198.959ZM369.213 199.734C369.213 200.25 369.111 200.746 368.907 201.222C368.704 201.698 368.439 202.16 368.114 202.608C367.788 203.043 367.422 203.465 367.015 203.872C366.608 204.28 366.208 204.667 365.814 205.034C365.611 205.225 365.387 205.442 365.143 205.687C364.912 205.918 364.688 206.156 364.471 206.4C364.254 206.645 364.058 206.876 363.881 207.093C363.718 207.297 363.617 207.467 363.576 207.603H369.64V210.151H360.239C360.212 210.002 360.198 209.812 360.198 209.58C360.198 209.349 360.198 209.186 360.198 209.091C360.198 208.439 360.3 207.841 360.503 207.297C360.72 206.754 360.999 206.251 361.338 205.789C361.677 205.313 362.057 204.871 362.477 204.464C362.911 204.056 363.339 203.648 363.759 203.24C364.085 202.928 364.39 202.636 364.675 202.364C364.96 202.078 365.211 201.806 365.428 201.548C365.645 201.276 365.814 201.011 365.937 200.753C366.058 200.481 366.12 200.21 366.12 199.938C366.12 199.34 365.95 198.918 365.611 198.674C365.272 198.429 364.851 198.307 364.349 198.307C363.983 198.307 363.637 198.368 363.312 198.49C362.999 198.599 362.708 198.735 362.437 198.898C362.179 199.048 361.955 199.204 361.765 199.367C361.575 199.516 361.433 199.639 361.338 199.734L359.832 197.614C360.429 197.057 361.121 196.601 361.907 196.248C362.708 195.881 363.562 195.697 364.471 195.697C365.299 195.697 366.011 195.792 366.608 195.983C367.205 196.173 367.693 196.445 368.073 196.798C368.467 197.138 368.751 197.559 368.928 198.062C369.118 198.551 369.213 199.109 369.213 199.734ZM375.08 201.304C375.08 201.915 374.884 202.384 374.49 202.71C374.11 203.023 373.676 203.179 373.188 203.179C372.7 203.179 372.259 203.023 371.865 202.71C371.486 202.384 371.295 201.915 371.295 201.304C371.295 200.692 371.486 200.23 371.865 199.917C372.259 199.591 372.7 199.428 373.188 199.428C373.676 199.428 374.11 199.591 374.49 199.917C374.884 200.23 375.08 200.692 375.08 201.304ZM375.08 208.541C375.08 209.152 374.884 209.621 374.49 209.947C374.11 210.26 373.676 210.416 373.188 210.416C372.7 210.416 372.259 210.26 371.865 209.947C371.486 209.621 371.295 209.152 371.295 208.541C371.295 207.929 371.486 207.467 371.865 207.154C372.259 206.828 372.7 206.665 373.188 206.665C373.676 206.665 374.11 206.828 374.49 207.154C374.884 207.467 375.08 207.929 375.08 208.541ZM386.559 203.057C386.559 205.435 386.105 207.263 385.196 208.541C384.3 209.805 383.059 210.437 381.472 210.437C379.885 210.437 378.637 209.805 377.728 208.541C376.832 207.263 376.385 205.435 376.385 203.057C376.385 201.874 376.5 200.828 376.731 199.917C376.975 199.007 377.321 198.239 377.768 197.614C378.216 196.988 378.752 196.513 379.376 196.187C380 195.86 380.699 195.697 381.472 195.697C383.059 195.697 384.3 196.336 385.196 197.614C386.105 198.878 386.559 200.692 386.559 203.057ZM383.466 203.057C383.466 202.35 383.432 201.711 383.364 201.14C383.296 200.556 383.188 200.053 383.039 199.632C382.889 199.211 382.686 198.884 382.428 198.653C382.17 198.422 381.852 198.307 381.472 198.307C381.092 198.307 380.773 198.422 380.516 198.653C380.271 198.884 380.068 199.211 379.905 199.632C379.756 200.053 379.647 200.556 379.579 201.14C379.512 201.711 379.478 202.35 379.478 203.057C379.478 203.763 379.512 204.409 379.579 204.993C379.647 205.578 379.756 206.081 379.905 206.502C380.068 206.923 380.271 207.25 380.516 207.481C380.773 207.712 381.092 207.827 381.472 207.827C381.852 207.827 382.17 207.712 382.428 207.481C382.686 207.25 382.889 206.923 383.039 206.502C383.188 206.081 383.296 205.578 383.364 204.993C383.432 204.409 383.466 203.763 383.466 203.057ZM398.124 203.057C398.124 205.435 397.67 207.263 396.761 208.541C395.866 209.805 394.624 210.437 393.037 210.437C391.45 210.437 390.202 209.805 389.293 208.541C388.398 207.263 387.95 205.435 387.95 203.057C387.95 201.874 388.065 200.828 388.296 199.917C388.54 199.007 388.886 198.239 389.334 197.614C389.781 196.988 390.317 196.513 390.941 196.187C391.565 195.86 392.264 195.697 393.037 195.697C394.624 195.697 395.866 196.336 396.761 197.614C397.67 198.878 398.124 200.692 398.124 203.057ZM395.031 203.057C395.031 202.35 394.998 201.711 394.93 201.14C394.862 200.556 394.753 200.053 394.604 199.632C394.455 199.211 394.251 198.884 393.994 198.653C393.736 198.422 393.417 198.307 393.037 198.307C392.657 198.307 392.339 198.422 392.081 198.653C391.837 198.884 391.633 199.211 391.47 199.632C391.321 200.053 391.213 200.556 391.145 201.14C391.077 201.711 391.043 202.35 391.043 203.057C391.043 203.763 391.077 204.409 391.145 204.993C391.213 205.578 391.321 206.081 391.47 206.502C391.633 206.923 391.837 207.25 392.081 207.481C392.339 207.712 392.657 207.827 393.037 207.827C393.417 207.827 393.736 207.712 393.994 207.481C394.251 207.25 394.455 206.923 394.604 206.502C394.753 206.081 394.862 205.578 394.93 204.993C394.998 204.409 395.031 203.763 395.031 203.057Z" fill="black"/>
<path d="M654.588 181.968H532.956C518.238 181.968 506.307 193.921 506.307 208.667C506.307 223.412 518.238 235.365 532.956 235.365H654.588C669.306 235.365 681.237 223.412 681.237 208.667C681.237 193.921 669.306 181.968 654.588 181.968Z" fill="#3D0072"/>
<g opacity="0.5">
<path d="M642.968 207.982C642.968 214.031 647.863 218.935 653.901 218.935C659.939 218.935 664.834 214.031 664.834 207.982C664.834 201.932 659.939 197.028 653.901 197.028C647.863 197.028 642.968 201.932 642.968 207.982Z" stroke="#A0A9BB" stroke-opacity="0.25" stroke-width="0.661456"/>
<path d="M642.968 207.982C642.968 214.031 647.863 218.935 653.901 218.935C659.939 218.935 664.834 214.031 664.834 207.982C664.834 201.932 659.939 197.028 653.901 197.028C647.863 197.028 642.968 201.932 642.968 207.982Z" stroke="url(#paint3_linear_4401_79358)" stroke-width="0.661456"/>
</g>
<g filter="url(#filter0_d_4401_79358)">
<path d="M648.436 212.649C648.436 214.218 650.883 215.491 653.903 215.491C656.922 215.491 659.369 214.218 659.369 212.649C659.369 211.079 656.922 209.807 653.903 209.807C650.883 209.807 648.436 211.079 648.436 212.649Z" fill="url(#paint4_radial_4401_79358)"/>
</g>
<g filter="url(#filter1_d_4401_79358)">
<path d="M648.436 203.521C648.436 201.951 650.883 200.679 653.903 200.679C656.922 200.679 659.369 201.951 659.369 203.521C659.369 205.091 656.922 206.363 653.903 206.363C650.883 206.363 648.436 205.091 648.436 203.521Z" fill="url(#paint5_radial_4401_79358)"/>
</g>
<path d="M285.163 278.615H282.264V298.947H285.163V278.615Z" fill="url(#paint6_linear_4401_79358)"/>
<path d="M896.909 278.615H894.01V298.947H896.909V278.615Z" fill="url(#paint7_linear_4401_79358)"/>
<path d="M783.836 150.809V147.905H763.541V150.809H783.836Z" fill="url(#paint8_linear_4401_79358)"/>
<path d="M409.83 150.809V147.905H389.535V150.809H409.83Z" fill="url(#paint9_linear_4401_79358)"/>
</g>
</g>
<defs>
<filter id="filter0_d_4401_79358" x="647.774" y="209.145" width="12.2565" height="7.00712" filterUnits="userSpaceOnUse" color-interpolation-filters="sRGB">
<feFlood flood-opacity="0" result="BackgroundImageFix"/>
<feColorMatrix in="SourceAlpha" type="matrix" values="0 0 0 0 0 0 0 0 0 0 0 0 0 0 0 0 0 0 127 0" result="hardAlpha"/>
<feOffset/>
<feGaussianBlur stdDeviation="0.330728"/>
<feComposite in2="hardAlpha" operator="out"/>
<feColorMatrix type="matrix" values="0 0 0 0 0 0 0 0 0 0 0 0 0 0 0 0 0 0 0.5 0"/>
<feBlend mode="normal" in2="BackgroundImageFix" result="effect1_dropShadow_4401_79358"/>
<feBlend mode="normal" in="SourceGraphic" in2="effect1_dropShadow_4401_79358" result="shape"/>
</filter>
<filter id="filter1_d_4401_79358" x="647.774" y="200.017" width="12.2565" height="7.00712" filterUnits="userSpaceOnUse" color-interpolation-filters="sRGB">
<feFlood flood-opacity="0" result="BackgroundImageFix"/>
<feColorMatrix in="SourceAlpha" type="matrix" values="0 0 0 0 0 0 0 0 0 0 0 0 0 0 0 0 0 0 127 0" result="hardAlpha"/>
<feOffset/>
<feGaussianBlur stdDeviation="0.330728"/>
<feComposite in2="hardAlpha" operator="out"/>
<feColorMatrix type="matrix" values="0 0 0 0 0 0 0 0 0 0 0 0 0 0 0 0 0 0 0.5 0"/>
<feBlend mode="normal" in2="BackgroundImageFix" result="effect1_dropShadow_4401_79358"/>
<feBlend mode="normal" in="SourceGraphic" in2="effect1_dropShadow_4401_79358" result="shape"/>
</filter>
<linearGradient id="paint0_linear_4401_79358" x1="280.862" y1="490.854" x2="280.862" y2="448.506" gradientUnits="userSpaceOnUse">
<stop stop-color="#3D0072"/>
<stop offset="1" stop-color="#80609B"/>
</linearGradient>
<linearGradient id="paint1_linear_4401_79358" x1="283.621" y1="488.091" x2="283.621" y2="451.266" gradientUnits="userSpaceOnUse">
<stop stop-color="#3D0072"/>
<stop offset="1" stop-color="#80609B"/>
</linearGradient>
<linearGradient id="paint2_linear_4401_79358" x1="896.916" y1="147.905" x2="280.443" y2="1387.29" gradientUnits="userSpaceOnUse">
<stop stop-color="#EFEFEF"/>
<stop offset="1" stop-color="#3D0072"/>
</linearGradient>
<linearGradient id="paint3_linear_4401_79358" x1="656.243" y1="194.484" x2="639.354" y2="204.96" gradientUnits="userSpaceOnUse">
<stop stop-color="#010005" stop-opacity="0.66"/>
<stop offset="1" stop-color="#2E2D31"/>
</linearGradient>
<radialGradient id="paint4_radial_4401_79358" cx="0" cy="0" r="1" gradientUnits="userSpaceOnUse" gradientTransform="translate(653.903 211.216) rotate(180) scale(7.01006 2.88739)">
<stop stop-color="#1F85DE"/>
<stop offset="0.257948" stop-color="#1B75C9"/>
<stop offset="1" stop-color="#000232"/>
</radialGradient>
<radialGradient id="paint5_radial_4401_79358" cx="0" cy="0" r="1" gradientUnits="userSpaceOnUse" gradientTransform="translate(648.436 202.111) rotate(180) scale(7.01006 2.88739)">
<stop stop-color="#1F85DE"/>
<stop offset="0.257948" stop-color="#1B75C9"/>
<stop offset="1" stop-color="#000232"/>
</radialGradient>
<linearGradient id="paint6_linear_4401_79358" x1="283.713" y1="278.615" x2="283.713" y2="298.947" gradientUnits="userSpaceOnUse">
<stop stop-color="#5A5A5A"/>
<stop offset="0.53125" stop-color="#242424"/>
<stop offset="1" stop-color="#585858"/>
</linearGradient>
<linearGradient id="paint7_linear_4401_79358" x1="895.46" y1="278.615" x2="895.46" y2="298.947" gradientUnits="userSpaceOnUse">
<stop stop-color="#5A5A5A"/>
<stop offset="0.53125" stop-color="#242424"/>
<stop offset="1" stop-color="#585858"/>
</linearGradient>
<linearGradient id="paint8_linear_4401_79358" x1="783.836" y1="149.358" x2="763.541" y2="149.358" gradientUnits="userSpaceOnUse">
<stop stop-color="#5A5A5A"/>
<stop offset="0.53125" stop-color="#242424"/>
<stop offset="1" stop-color="#585858"/>
</linearGradient>
<linearGradient id="paint9_linear_4401_79358" x1="409.83" y1="149.358" x2="389.535" y2="149.358" gradientUnits="userSpaceOnUse">
<stop stop-color="#5A5A5A"/>
<stop offset="0.53125" stop-color="#242424"/>
<stop offset="1" stop-color="#585858"/>
</linearGradient>
<clipPath id="clip0_4401_79358">
<rect width="1170" height="507" rx="24" fill="white"/>
</clipPath>
<clipPath id="clip1_4401_79358">
<rect width="750" height="592" fill="white" transform="translate(192 145)"/>
</clipPath>
</defs>
</svg>
