<svg width="319" height="249" viewBox="0 0 319 249" fill="none" xmlns="http://www.w3.org/2000/svg">
<g clip-path="url(#clip0_5734_86833)">
<rect width="345" height="254" fill="#FF97B7"/>
<path d="M205.626 105.925C205.646 97.721 203.463 89.6624 199.304 82.5907C195.146 75.519 189.165 69.6937 181.986 65.7232C174.807 61.7527 166.694 59.7827 158.493 60.019C150.293 60.2553 142.307 62.6892 135.368 67.0665C128.43 71.4438 122.794 77.6039 119.05 84.9033C115.306 92.2027 113.59 100.374 114.083 108.563C114.575 116.752 117.257 124.658 121.849 131.456C126.441 138.254 132.774 143.695 140.187 147.209C140.187 152.638 140.158 158.778 140.158 158.778L180.311 158.886C180.311 158.886 180.567 152.399 180.674 146.61C188.172 142.778 194.468 136.953 198.87 129.775C203.272 122.597 205.609 114.345 205.626 105.925Z" fill="#FF725E"/>
<g opacity="0.1">
<path d="M205.645 105.892C205.681 96.2532 202.662 86.8513 197.022 79.0352C202.393 94.4218 200.369 112.271 191.531 125.989C182.144 140.557 167.707 151.382 148.594 151.382C155.75 157.055 165.191 156.039 174.306 155.555C176.347 155.448 178.437 155.328 180.462 155.076C180.541 152.704 180.636 149.54 180.689 146.556C188.184 142.726 194.479 136.904 198.881 129.731C203.284 122.557 205.624 114.309 205.645 105.892Z" fill="black"/>
</g>
<g opacity="0.3">
<path d="M146.34 73.9452C145.799 72.6272 144.344 71.6645 142.621 71.1439C140.13 70.4312 137.458 70.7281 135.184 71.9702C128.458 75.507 124.632 79.7793 122.264 87.3693C121.458 89.9393 121.053 94.1867 122.309 96.7112C122.608 97.3465 123.035 97.9131 123.563 98.3753C124.092 98.8375 124.71 99.1853 125.379 99.3969C128.92 100.434 131.738 97.0004 132.845 93.7157C133.874 90.6541 134.25 87.1958 136.432 84.8159C138.229 82.8533 140.915 82.0187 143.154 80.5808C145.394 79.143 147.348 76.4077 146.34 73.9452Z" fill="white"/>
</g>
<g opacity="0.3">
<path d="M159.633 68.1733C158.307 65.8554 154.956 64.8886 152.997 65.7645C152.193 66.1509 151.486 66.715 150.932 67.4143C150.377 68.1136 149.988 68.9298 149.795 69.8013C149.593 70.8576 149.711 71.9503 150.135 72.939C150.558 73.9277 151.267 74.7674 152.171 75.3502C153.097 75.8976 154.173 76.1388 155.244 76.0394C156.315 75.94 157.328 75.505 158.137 74.7966C159.707 73.338 160.695 70.0368 159.633 68.1733Z" fill="white"/>
</g>
<path d="M151.293 184.92C152.27 185.57 153.15 186.354 153.908 187.25C154.163 187.571 154.488 187.829 154.857 188.006C155.226 188.182 155.631 188.273 156.04 188.271H164.118C164.565 188.274 165.005 188.167 165.401 187.959C165.796 187.752 166.135 187.45 166.386 187.081C166.977 186.205 168.039 185.164 169.15 184.941L151.293 184.92Z" fill="#455A64"/>
<path d="M142.586 162.402C142.586 162.568 144.437 175.211 145.143 180.016C145.275 180.996 145.648 181.928 146.229 182.728C146.811 183.528 147.582 184.171 148.474 184.598C149.195 184.929 149.978 185.102 150.771 185.106L168.443 185.139C168.443 185.139 173.062 185.139 174.115 181.483C175.227 177.632 177.338 162.477 177.338 162.477L142.586 162.402Z" fill="#263238"/>
<path d="M175.248 179.796L144.462 179.846C144.23 179.846 144.007 179.754 143.843 179.589C143.678 179.425 143.586 179.202 143.586 178.97V178.875C143.585 178.76 143.608 178.646 143.651 178.54C143.695 178.434 143.759 178.337 143.84 178.256C143.921 178.174 144.017 178.11 144.123 178.066C144.229 178.022 144.343 177.999 144.458 177.999L175.248 177.945C175.48 177.945 175.703 178.038 175.867 178.202C176.031 178.366 176.124 178.589 176.124 178.821V178.916C176.124 179.149 176.031 179.372 175.867 179.537C175.703 179.702 175.48 179.795 175.248 179.796Z" fill="#E0E0E0"/>
<path d="M175.25 179.796C175.474 179.773 175.683 179.676 175.845 179.519C175.936 179.422 176.005 179.305 176.046 179.178C176.087 179.051 176.098 178.916 176.08 178.784C176.069 178.605 176.001 178.434 175.884 178.298C175.768 178.162 175.611 178.067 175.436 178.028C173.783 178.003 171.279 178.057 168.242 178.065L144.464 178.148C144.343 178.148 144.225 178.178 144.119 178.236C144.013 178.294 143.923 178.377 143.857 178.478C143.79 178.578 143.75 178.693 143.741 178.813C143.727 178.936 143.737 179.061 143.77 179.18C143.804 179.295 143.866 179.399 143.951 179.483C144.035 179.568 144.139 179.63 144.253 179.664C144.519 179.699 144.787 179.71 145.055 179.697H154.711H165.4L172.61 179.734L174.568 179.755H175.076C175.134 179.745 175.192 179.745 175.25 179.755H175.076H174.568L172.61 179.788L165.4 179.846L154.711 179.895L148.398 179.916H145.055H144.642C144.486 179.926 144.33 179.911 144.179 179.87C144.019 179.822 143.872 179.735 143.753 179.617C143.635 179.499 143.547 179.353 143.497 179.193C143.453 179.036 143.439 178.872 143.456 178.709C143.476 178.453 143.592 178.214 143.782 178.04C143.971 177.865 144.219 177.77 144.477 177.772H168.255C171.304 177.792 173.75 177.772 175.477 177.829C175.672 177.878 175.846 177.99 175.973 178.146C176.1 178.302 176.172 178.496 176.18 178.697C176.195 178.84 176.179 178.984 176.131 179.119C176.083 179.254 176.005 179.377 175.903 179.478C175.828 179.58 175.729 179.662 175.615 179.717C175.502 179.772 175.376 179.8 175.25 179.796Z" fill="#263238"/>
<path d="M175.909 175.818L143.817 175.872C143.703 175.872 143.589 175.85 143.482 175.807C143.376 175.763 143.28 175.699 143.198 175.618C143.117 175.537 143.052 175.441 143.008 175.335C142.964 175.229 142.941 175.115 142.941 175V174.893C142.941 174.778 142.963 174.664 143.007 174.558C143.05 174.451 143.114 174.355 143.195 174.273C143.276 174.192 143.373 174.127 143.479 174.083C143.585 174.039 143.698 174.017 143.813 174.017L175.905 173.963C176.137 173.964 176.36 174.056 176.524 174.22C176.689 174.384 176.783 174.606 176.785 174.839V174.934C176.786 175.05 176.764 175.164 176.72 175.272C176.677 175.379 176.613 175.476 176.531 175.559C176.45 175.641 176.353 175.706 176.246 175.751C176.139 175.795 176.024 175.818 175.909 175.818Z" fill="#E0E0E0"/>
<path d="M175.908 175.818C176.141 175.799 176.359 175.695 176.52 175.525C176.611 175.42 176.677 175.297 176.714 175.163C176.75 175.029 176.756 174.889 176.731 174.752C176.707 174.568 176.621 174.398 176.489 174.268C176.356 174.138 176.184 174.057 175.999 174.037L168.521 174.091L143.817 174.174C143.691 174.174 143.568 174.207 143.458 174.27C143.349 174.332 143.258 174.421 143.193 174.529C143.128 174.635 143.092 174.756 143.09 174.88C143.077 175.009 143.094 175.139 143.139 175.26C143.183 175.376 143.257 175.479 143.352 175.558C143.448 175.637 143.563 175.689 143.685 175.711C143.924 175.736 144.259 175.711 144.54 175.711H154.572H165.674L173.165 175.744L175.198 175.769H175.727H175.908C175.848 175.778 175.787 175.778 175.727 175.769H175.198L173.165 175.802L165.678 175.86L154.572 175.909H148.011H144.54C144.238 175.909 143.978 175.909 143.631 175.909C143.459 175.878 143.299 175.804 143.164 175.694C143.03 175.583 142.926 175.439 142.863 175.277C142.804 175.117 142.78 174.947 142.792 174.777C142.799 174.51 142.91 174.256 143.101 174.07C143.293 173.884 143.55 173.78 143.817 173.781H168.517C171.682 173.781 174.231 173.781 176.012 173.823C176.223 173.844 176.421 173.938 176.572 174.089C176.722 174.239 176.816 174.437 176.838 174.649C176.86 174.797 176.849 174.948 176.804 175.091C176.76 175.234 176.684 175.366 176.582 175.475C176.51 175.587 176.41 175.677 176.291 175.738C176.173 175.798 176.041 175.826 175.908 175.818Z" fill="#263238"/>
<path d="M176.329 171.843L143.407 171.901C143.292 171.901 143.178 171.878 143.072 171.834C142.966 171.79 142.869 171.726 142.788 171.644C142.706 171.563 142.642 171.466 142.598 171.36C142.554 171.254 142.531 171.14 142.531 171.025V170.93C142.531 170.698 142.623 170.475 142.786 170.31C142.949 170.146 143.171 170.052 143.403 170.05L176.329 169.996C176.561 169.996 176.784 170.088 176.948 170.253C177.113 170.417 177.205 170.64 177.205 170.872V170.967C177.206 171.082 177.183 171.196 177.139 171.303C177.096 171.409 177.031 171.506 176.95 171.588C176.868 171.669 176.771 171.734 176.665 171.777C176.558 171.821 176.444 171.844 176.329 171.843Z" fill="#E0E0E0"/>
<path d="M176.331 171.842C176.462 171.835 176.59 171.799 176.706 171.737C176.821 171.675 176.922 171.588 177.001 171.483C177.08 171.378 177.134 171.257 177.161 171.128C177.188 171 177.187 170.867 177.157 170.739C177.124 170.552 177.028 170.382 176.884 170.258C176.74 170.134 176.558 170.063 176.368 170.057L168.704 170.115L143.413 170.202C143.317 170.202 143.223 170.221 143.134 170.258C143.046 170.295 142.965 170.349 142.898 170.416C142.83 170.484 142.777 170.565 142.74 170.654C142.704 170.742 142.686 170.837 142.686 170.933C142.675 171.066 142.696 171.199 142.748 171.322C142.802 171.435 142.884 171.533 142.987 171.605C143.09 171.678 143.21 171.722 143.335 171.735C143.603 171.735 143.93 171.735 144.223 171.735H154.491H165.861L173.526 171.768L175.612 171.793H176.153C176.214 171.787 176.275 171.787 176.335 171.793C176.275 171.802 176.214 171.802 176.153 171.793H175.612L173.526 171.822L165.861 171.884L154.491 171.933H147.776H144.223C143.917 171.933 143.636 171.933 143.302 171.933C143.124 171.914 142.954 171.849 142.809 171.744C142.664 171.639 142.549 171.497 142.475 171.334C142.406 171.174 142.375 171 142.384 170.826C142.383 170.691 142.409 170.557 142.46 170.431C142.511 170.306 142.586 170.192 142.682 170.096C142.777 170 142.89 169.924 143.015 169.872C143.14 169.82 143.274 169.793 143.409 169.793H168.72L176.389 169.83C176.603 169.839 176.807 169.923 176.966 170.066C177.125 170.209 177.229 170.403 177.261 170.615C177.303 170.787 177.3 170.967 177.251 171.137C177.203 171.308 177.111 171.462 176.984 171.586C176.903 171.677 176.801 171.747 176.688 171.792C176.574 171.836 176.452 171.853 176.331 171.842Z" fill="#263238"/>
<path d="M177.008 167.869L142.748 167.927C142.631 167.928 142.516 167.906 142.408 167.862C142.3 167.818 142.202 167.752 142.12 167.67C142.038 167.588 141.972 167.49 141.928 167.382C141.884 167.274 141.862 167.159 141.863 167.042V166.947C141.863 166.715 141.956 166.492 142.12 166.328C142.284 166.164 142.507 166.072 142.739 166.072L176.996 166.014C177.228 166.014 177.451 166.106 177.615 166.27C177.779 166.434 177.872 166.657 177.872 166.89V166.985C177.873 167.099 177.852 167.213 177.81 167.32C177.767 167.427 177.704 167.524 177.624 167.606C177.543 167.688 177.448 167.754 177.342 167.799C177.236 167.844 177.123 167.868 177.008 167.869Z" fill="#E0E0E0"/>
<path d="M177.009 167.868C177.145 167.86 177.277 167.821 177.395 167.755C177.514 167.689 177.616 167.596 177.693 167.485C177.771 167.374 177.822 167.246 177.843 167.112C177.864 166.978 177.855 166.841 177.815 166.711C177.769 166.517 177.655 166.346 177.493 166.23C177.331 166.114 177.133 166.06 176.935 166.079L168.985 166.141L142.749 166.227C142.614 166.23 142.482 166.271 142.369 166.343C142.255 166.416 142.163 166.519 142.104 166.641C142.046 166.762 142.016 166.894 142.016 167.029C142.016 167.163 142.046 167.296 142.104 167.417C142.167 167.533 142.26 167.63 142.374 167.697C142.487 167.764 142.617 167.799 142.749 167.797H154.338H166.135L174.084 167.83L176.245 167.855H176.811H177.001C176.938 167.862 176.874 167.862 176.811 167.855H176.245L174.084 167.884L166.135 167.946L154.338 168H147.372H143.687H142.749C142.564 168 142.382 167.951 142.222 167.857C142.062 167.763 141.93 167.629 141.84 167.467C141.755 167.304 141.712 167.122 141.716 166.938C141.708 166.755 141.748 166.572 141.832 166.409C141.918 166.242 142.048 166.103 142.209 166.005C142.369 165.907 142.553 165.856 142.741 165.855H168.977L176.927 165.889C177.148 165.875 177.367 165.941 177.544 166.074C177.721 166.208 177.845 166.399 177.894 166.616C177.931 166.77 177.932 166.931 177.896 167.086C177.86 167.241 177.789 167.386 177.687 167.508C177.559 167.653 177.386 167.751 177.195 167.785C177.14 167.825 177.076 167.853 177.009 167.868Z" fill="#263238"/>
<path d="M138.145 151.498C138.145 151.824 138.859 159.555 139.227 163.526C139.294 164.244 139.523 164.938 139.896 165.556C140.27 166.174 140.778 166.699 141.384 167.091L143.185 168.261L177.355 168.327L179.136 167.178C179.749 166.783 180.264 166.252 180.641 165.627C181.018 165.002 181.246 164.298 181.309 163.571L182.346 151.589L138.145 151.498Z" fill="#FF725E"/>
<g opacity="0.3">
<path d="M145.609 179.768C148.915 180.52 152.179 180.594 155.794 180.594C158.711 180.594 161.579 180.672 164.735 180.615C167.057 180.569 169.193 180.458 171.507 180.363C172.677 180.313 173.962 180.02 174.197 179.784L145.609 179.768Z" fill="black"/>
</g>
<g opacity="0.3">
<path d="M144.398 175.777C147.943 176.529 151.48 176.604 155.377 176.604C158.521 176.604 161.603 176.682 165.02 176.604C167.499 176.562 169.821 176.451 172.317 176.356C173.577 176.306 174.961 176.013 175.209 175.777H144.398Z" fill="black"/>
</g>
<g opacity="0.3">
<path d="M144.402 171.83C147.947 172.582 151.484 172.656 155.38 172.656C158.525 172.656 161.607 172.735 165.02 172.656C167.524 172.615 169.825 172.504 172.317 172.409C173.581 172.359 174.965 172.066 175.209 171.83H144.402Z" fill="black"/>
</g>
<g opacity="0.3">
<path d="M144.406 167.867C147.955 168.619 151.492 168.694 155.384 168.694C158.533 168.694 161.615 168.772 165.028 168.694C167.528 168.652 169.833 168.541 172.325 168.446C173.589 168.396 174.973 168.103 175.217 167.867H144.406Z" fill="black"/>
</g>
<g opacity="0.3">
<path d="M138.148 151.498C138.148 151.824 138.863 159.555 139.231 163.526C139.298 164.244 139.526 164.938 139.9 165.556C140.274 166.174 140.782 166.699 141.388 167.091L143.189 168.261L177.359 168.327L179.14 167.178C179.753 166.783 180.268 166.252 180.645 165.627C181.022 165.002 181.25 164.298 181.313 163.571L182.35 151.589L138.148 151.498Z" fill="black"/>
</g>
<path d="M180.478 165.212C180.478 165.295 171.339 165.348 160.067 165.324C148.796 165.299 139.652 165.22 139.652 165.138C139.652 165.055 148.792 165.006 160.067 165.026C171.343 165.047 180.478 165.134 180.478 165.212Z" fill="#263238"/>
<path d="M182.112 151.34C182.112 151.431 172.195 151.526 159.949 151.551C147.702 151.575 137.774 151.522 137.77 151.431C137.765 151.34 147.686 151.245 159.936 151.22C172.187 151.195 182.112 151.261 182.112 151.34Z" fill="#263238"/>
<path d="M135.806 140.715C135.806 140.715 135.765 140.715 135.691 140.641L135.364 140.405C135.083 140.19 134.654 139.893 134.125 139.463C132.646 138.273 131.252 136.982 129.952 135.6C129.125 134.728 128.266 133.728 127.382 132.621C126.455 131.434 125.589 130.201 124.787 128.927C121.078 123.068 118.865 116.389 118.341 109.475C118.205 107.888 118.197 106.376 118.213 104.963C118.23 103.55 118.35 102.232 118.498 101.038C118.719 99.1519 119.071 97.284 119.552 95.4473C119.709 94.7945 119.878 94.2987 119.965 93.9599L120.085 93.5756C120.114 93.4888 120.13 93.4434 120.13 93.4475C120.128 93.4925 120.119 93.5369 120.106 93.5797L120.006 93.9929C119.924 94.3359 119.767 94.8193 119.626 95.4886C119.183 97.3293 118.859 99.1966 118.655 101.079C118.519 102.269 118.44 103.558 118.403 104.988C118.366 106.417 118.403 107.9 118.544 109.479C119.093 116.357 121.295 123.001 124.965 128.844C125.791 130.191 126.683 131.41 127.53 132.534C128.377 133.658 129.249 134.641 130.071 135.513C131.363 136.902 132.744 138.206 134.203 139.418C134.707 139.86 135.133 140.165 135.401 140.393L135.715 140.645L135.806 140.715Z" fill="#263238"/>
<path d="M161.318 130.082C156.741 130.082 152.268 128.725 148.463 126.183C144.658 123.641 141.692 120.027 139.941 115.799C138.19 111.571 137.732 106.919 138.624 102.431C139.517 97.9422 141.721 93.8195 144.957 90.5836C148.193 87.3477 152.315 85.144 156.804 84.2512C161.292 83.3585 165.944 83.8167 170.172 85.5679C174.4 87.3192 178.014 90.2848 180.556 94.0898C183.098 97.8948 184.455 102.368 184.455 106.945C184.455 113.081 182.018 118.966 177.679 123.305C173.339 127.645 167.454 130.082 161.318 130.082ZM161.318 88.5086C157.669 88.5086 154.102 89.5906 151.068 91.6177C148.034 93.6448 145.67 96.5261 144.274 99.897C142.877 103.268 142.512 106.977 143.224 110.556C143.936 114.135 145.693 117.422 148.273 120.002C150.853 122.582 154.14 124.339 157.718 125.051C161.297 125.763 165.006 125.397 168.377 124.001C171.748 122.605 174.63 120.24 176.657 117.206C178.684 114.172 179.766 110.606 179.766 106.957C179.76 102.066 177.815 97.3766 174.356 93.918C170.898 90.4595 166.209 88.5141 161.318 88.5086Z" fill="#FF725E"/>
<path d="M155.176 117.093C153.195 116.098 151.534 114.568 150.379 112.676C149.25 110.73 148.656 108.521 148.656 106.272C148.656 104.023 149.25 101.813 150.379 99.8677C151.535 97.9759 153.196 96.4447 155.176 95.4467C157.323 94.3578 159.702 93.8062 162.109 93.8394C164.429 93.7867 166.723 94.3346 168.769 95.4301C170.615 96.4415 172.07 98.0414 172.901 99.9751L167.48 102.9C166.224 100.697 164.416 99.595 162.055 99.595C161.215 99.5674 160.378 99.7127 159.596 100.022C158.814 100.331 158.104 100.797 157.51 101.392C156.317 102.588 155.72 104.217 155.717 106.28C155.714 108.343 156.312 109.973 157.51 111.168C158.104 111.762 158.815 112.228 159.596 112.537C160.378 112.845 161.215 112.99 162.055 112.961C164.443 112.961 166.252 111.859 167.48 109.656L172.905 112.618C172.052 114.522 170.601 116.096 168.773 117.101C166.73 118.209 164.432 118.761 162.109 118.7C159.702 118.735 157.322 118.183 155.176 117.093Z" fill="#FF725E"/>
<g opacity="0.5">
<path d="M161.318 130.082C156.741 130.082 152.268 128.725 148.463 126.183C144.658 123.641 141.692 120.027 139.941 115.799C138.19 111.571 137.732 106.919 138.624 102.431C139.517 97.9422 141.721 93.8195 144.957 90.5836C148.193 87.3477 152.315 85.144 156.804 84.2512C161.292 83.3585 165.944 83.8167 170.172 85.5679C174.4 87.3192 178.014 90.2848 180.556 94.0898C183.098 97.8948 184.455 102.368 184.455 106.945C184.455 113.081 182.018 118.966 177.679 123.305C173.339 127.645 167.454 130.082 161.318 130.082ZM161.318 88.5086C157.669 88.5086 154.102 89.5906 151.068 91.6177C148.034 93.6448 145.67 96.5261 144.274 99.897C142.877 103.268 142.512 106.977 143.224 110.556C143.936 114.135 145.693 117.422 148.273 120.002C150.853 122.582 154.14 124.339 157.718 125.051C161.297 125.763 165.006 125.397 168.377 124.001C171.748 122.605 174.63 120.24 176.657 117.206C178.684 114.172 179.766 110.606 179.766 106.957C179.76 102.066 177.815 97.3766 174.356 93.918C170.898 90.4595 166.209 88.5141 161.318 88.5086Z" fill="black"/>
<path d="M155.176 117.091C153.195 116.096 151.534 114.566 150.379 112.674C149.25 110.728 148.656 108.519 148.656 106.27C148.656 104.021 149.25 101.811 150.379 99.8657C151.535 97.974 153.196 96.4428 155.176 95.4447C157.323 94.3558 159.702 93.8043 162.109 93.8375C164.429 93.7847 166.723 94.3327 168.769 95.4282C170.615 96.4395 172.07 98.0394 172.901 99.9731L167.48 102.898C166.224 100.695 164.416 99.593 162.055 99.593C161.215 99.5655 160.378 99.7108 159.596 100.02C158.814 100.329 158.104 100.796 157.51 101.39C156.317 102.586 155.72 104.215 155.717 106.278C155.714 108.341 156.312 109.971 157.51 111.166C158.104 111.76 158.815 112.226 159.596 112.535C160.378 112.843 161.215 112.988 162.055 112.959C164.443 112.959 166.252 111.857 167.48 109.654L172.905 112.616C172.052 114.52 170.601 116.094 168.773 117.099C166.73 118.208 164.432 118.759 162.109 118.698C159.702 118.733 157.322 118.181 155.176 117.091Z" fill="black"/>
</g>
</g>
<defs>
<clipPath id="clip0_5734_86833">
<rect width="319" height="249" rx="16" fill="white"/>
</clipPath>
</defs>
</svg>
