<svg width="207" height="178" viewBox="0 0 207 178" fill="none" xmlns="http://www.w3.org/2000/svg">
<g clip-path="url(#clip0_5428_84790)">
<path d="M89.8389 221.156L64.7394 162.662L51.0256 168.547L43.506 151.022L57.2197 145.138L49.9033 128.087L36.1895 133.972L28.6698 116.447L42.3836 110.563L17.2841 52.0686L54.4059 36.1398L97.9481 86.72L119.465 77.4874L94.3651 18.9935L120.61 7.7317L145.71 66.2256L159.187 60.4426L166.707 77.9671L153.23 83.7501L160.546 100.801L174.023 95.0179L181.543 112.542L168.066 118.325L193.165 176.819L155.807 192.85L111.792 142.472L90.9848 151.401L116.084 209.895L89.8389 221.156ZM83.4651 133.876L99.0705 127.18L86.5522 112.361L75.6758 117.028L83.4651 133.876ZM151.777 150.833L152.959 150.326L142.766 129.181L136.382 131.921L151.777 150.833ZM67.6832 99.7066L74.3036 96.8658L57.6915 77.0736L56.7457 77.4794L67.6832 99.7066ZM123.897 116.527L134.774 111.86L126.984 95.0119L111.142 101.81L123.897 116.527Z" fill="#31C496"/>
</g>
<defs>
<clipPath id="clip0_5428_84790">
<rect width="144.727" height="185.221" fill="white" transform="translate(0.722656 57.8428) rotate(-23.224)"/>
</clipPath>
</defs>
</svg>
