<svg width="171" height="137" viewBox="0 0 171 137" fill="none" xmlns="http://www.w3.org/2000/svg">
<g filter="url(#filter0_f_9896_67327)">
<ellipse cx="85.5097" cy="68.4603" rx="29.3222" ry="11.8685" fill="#EAB308"/>
<path d="M86.0284 63.3008L74.3281 65.2226V68.1052C74.3281 70.7717 79.3202 73.2652 86.0284 73.8706C92.7366 73.2652 97.7287 70.7717 97.7287 68.1052V65.2226L86.0284 63.3008ZM86.0284 68.5809H95.1286C94.4396 70.5603 90.8645 72.3236 86.0284 72.8761V68.5857H76.9282V65.8471L86.0284 64.353V68.5809Z" fill="white"/>
</g>
<circle cx="81.1875" cy="38" r="25" fill="#EAB308"/>
<path d="M75.875 47.6875C75.3594 47.6875 74.9181 47.5041 74.5512 47.1372C74.1837 46.7697 74 46.3281 74 45.8125V36.4375C74 35.9219 74.1837 35.4803 74.5512 35.1128C74.9181 34.7459 75.3594 34.5625 75.875 34.5625H76.8125V32.6875C76.8125 31.3906 77.2697 30.285 78.1841 29.3706C79.0978 28.4569 80.2031 28 81.5 28C82.7969 28 83.9025 28.4569 84.8169 29.3706C85.7306 30.285 86.1875 31.3906 86.1875 32.6875V34.5625H87.125C87.6406 34.5625 88.0822 34.7459 88.4497 35.1128C88.8166 35.4803 89 35.9219 89 36.4375V45.8125C89 46.3281 88.8166 46.7697 88.4497 47.1372C88.0822 47.5041 87.6406 47.6875 87.125 47.6875H75.875ZM81.5 43C82.0156 43 82.4572 42.8166 82.8247 42.4497C83.1916 42.0822 83.375 41.6406 83.375 41.125C83.375 40.6094 83.1916 40.1678 82.8247 39.8003C82.4572 39.4334 82.0156 39.25 81.5 39.25C80.9844 39.25 80.5431 39.4334 80.1763 39.8003C79.8088 40.1678 79.625 40.6094 79.625 41.125C79.625 41.6406 79.8088 42.0822 80.1763 42.4497C80.5431 42.8166 80.9844 43 81.5 43ZM78.6875 34.5625H84.3125V32.6875C84.3125 31.9062 84.0391 31.2422 83.4922 30.6953C82.9453 30.1484 82.2812 29.875 81.5 29.875C80.7188 29.875 80.0547 30.1484 79.5078 30.6953C78.9609 31.2422 78.6875 31.9062 78.6875 32.6875V34.5625Z" fill="white"/>
<defs>
<filter id="filter0_f_9896_67327" x="0.335651" y="0.739948" width="170.348" height="135.441" filterUnits="userSpaceOnUse" color-interpolation-filters="sRGB">
<feFlood flood-opacity="0" result="BackgroundImageFix"/>
<feBlend mode="normal" in="SourceGraphic" in2="BackgroundImageFix" result="shape"/>
<feGaussianBlur stdDeviation="27.9259" result="effect1_foregroundBlur_9896_67327"/>
</filter>
</defs>
</svg>
