<svg width="171" height="137" viewBox="0 0 171 137" fill="none" xmlns="http://www.w3.org/2000/svg">
<g filter="url(#filter0_f_9896_67298)">
<ellipse cx="85.3222" cy="68.4603" rx="29.3222" ry="11.8685" fill="#E8356D"/>
<path d="M85.8409 63.3008L74.1406 65.2226V68.1052C74.1406 70.7717 79.1327 73.2652 85.8409 73.8706C92.5491 73.2652 97.5412 70.7717 97.5412 68.1052V65.2226L85.8409 63.3008ZM85.8409 68.5809H94.9411C94.2521 70.5603 90.677 72.3236 85.8409 72.8761V68.5857H76.7407V65.8471L85.8409 64.353V68.5809Z" fill="white"/>
</g>
<circle cx="81.1875" cy="38" r="25" fill="#E8356D"/>
<path d="M82.9146 29.1547C85.0934 29.6389 86.901 30.7525 88.3373 32.4955C89.7737 34.2385 90.4919 36.2801 90.4919 38.6203C90.4919 40.0889 90.1972 41.4446 89.6078 42.6873C89.0191 43.9301 88.2163 44.9952 87.1995 45.8829H88.5552C88.8296 45.8829 89.0594 45.9758 89.2447 46.1618C89.4306 46.347 89.5236 46.5769 89.5236 46.8512C89.5236 47.1256 89.4306 47.3554 89.2447 47.5407C89.0594 47.7266 88.8296 47.8196 88.5552 47.8196H84.6818C84.4075 47.8196 84.1776 47.7266 83.9924 47.5407C83.8065 47.3554 83.7135 47.1256 83.7135 46.8512V42.9778C83.7135 42.7035 83.8065 42.4733 83.9924 42.2874C84.1776 42.1021 84.4075 42.0095 84.6818 42.0095C84.9562 42.0095 85.186 42.1021 85.3713 42.2874C85.5572 42.4733 85.6502 42.7035 85.6502 42.9778V44.6482C86.5378 43.922 87.2441 43.0424 87.7689 42.0095C88.2931 40.9766 88.5552 39.8469 88.5552 38.6203C88.5552 36.7643 87.9865 35.1462 86.849 33.766C85.7109 32.3864 84.2784 31.4949 82.5515 31.0914C82.3255 31.043 82.1399 30.93 81.9947 30.7525C81.8494 30.575 81.7768 30.3732 81.7768 30.1473C81.7768 29.8245 81.8898 29.5582 82.1157 29.3484C82.3417 29.1386 82.608 29.074 82.9146 29.1547ZM78.7023 48.0859C76.5235 47.6017 74.7159 46.4881 73.2796 44.7451C71.8432 43.0021 71.125 40.9605 71.125 38.6203C71.125 37.1516 71.4197 35.796 72.0091 34.5532C72.5979 33.3105 73.4006 32.2454 74.4174 31.3577H73.0617C72.7873 31.3577 72.5575 31.2647 72.3722 31.0788C72.1863 30.8935 72.0933 30.6637 72.0933 30.3894C72.0933 30.115 72.1863 29.8848 72.3722 29.6989C72.5575 29.5137 72.7873 29.421 73.0617 29.421H76.9351C77.2094 29.421 77.4396 29.5137 77.6255 29.6989C77.8108 29.8848 77.9034 30.115 77.9034 30.3894V34.2627C77.9034 34.5371 77.8108 34.7672 77.6255 34.9532C77.4396 35.1384 77.2094 35.2311 76.9351 35.2311C76.6607 35.2311 76.4306 35.1384 76.2446 34.9532C76.0594 34.7672 75.9667 34.5371 75.9667 34.2627V32.5923C75.0791 33.3025 74.3728 34.1782 73.848 35.2195C73.3238 36.2601 73.0617 37.3937 73.0617 38.6203C73.0617 40.4763 73.6308 42.0941 74.7689 43.4736C75.9064 44.8539 77.3385 45.7457 79.0654 46.1492C79.2914 46.1976 79.477 46.3106 79.6222 46.4881C79.7675 46.6656 79.8401 46.8674 79.8401 47.0933C79.8401 47.4161 79.7271 47.6824 79.5012 47.8922C79.2752 48.102 79.0089 48.1666 78.7023 48.0859ZM79.4286 42.6631C79.2994 42.6631 79.1784 42.6431 79.0654 42.6031C78.9525 42.5624 78.8476 42.4937 78.7507 42.3968L76.0151 39.6371C75.8376 39.4595 75.745 39.2375 75.7372 38.9708C75.7288 38.7049 75.8215 38.475 76.0151 38.2814C76.1927 38.1038 76.4186 38.0151 76.693 38.0151C76.9674 38.0151 77.1933 38.1038 77.3708 38.2814L79.4286 40.3391L84.2461 35.5216C84.4397 35.3279 84.6657 35.235 84.9239 35.2427C85.1821 35.2511 85.4081 35.3521 85.6018 35.5458C85.7793 35.7395 85.8723 35.9654 85.8806 36.2236C85.8884 36.4819 85.7954 36.7078 85.6018 36.9015L80.1064 42.3968C80.0096 42.4937 79.9047 42.5624 79.7917 42.6031C79.6787 42.6431 79.5577 42.6631 79.4286 42.6631Z" fill="white"/>
<defs>
<filter id="filter0_f_9896_67298" x="0.148151" y="0.739948" width="170.348" height="135.441" filterUnits="userSpaceOnUse" color-interpolation-filters="sRGB">
<feFlood flood-opacity="0" result="BackgroundImageFix"/>
<feBlend mode="normal" in="SourceGraphic" in2="BackgroundImageFix" result="shape"/>
<feGaussianBlur stdDeviation="27.9259" result="effect1_foregroundBlur_9896_67298"/>
</filter>
</defs>
</svg>
