<svg width="171" height="137" viewBox="0 0 171 137" fill="none" xmlns="http://www.w3.org/2000/svg">
<g filter="url(#filter0_f_11530_63511)">
<ellipse cx="85.5097" cy="68.4603" rx="29.3222" ry="11.8685" fill="#E8356D"/>
<path d="M86.0284 63.3008L74.3281 65.2226V68.1052C74.3281 70.7717 79.3202 73.2652 86.0284 73.8706C92.7366 73.2652 97.7287 70.7717 97.7287 68.1052V65.2226L86.0284 63.3008ZM86.0284 68.5809H95.1286C94.4396 70.5603 90.8645 72.3236 86.0284 72.8761V68.5857H76.9282V65.8471L86.0284 64.353V68.5809Z" fill="white"/>
</g>
<circle cx="81.375" cy="38" r="25" fill="#E8356D"/>
<path d="M75.6875 46.6875C75.1719 46.6875 74.7306 46.5041 74.3637 46.1372C73.9962 45.7697 73.8125 45.3281 73.8125 44.8125V35.4375C73.8125 34.9219 73.9962 34.4803 74.3637 34.1128C74.7306 33.7459 75.1719 33.5625 75.6875 33.5625H76.625V31.6875C76.625 30.3906 77.0822 29.285 77.9966 28.3706C78.9103 27.4569 80.0156 27 81.3125 27C82.6094 27 83.715 27.4569 84.6294 28.3706C85.5431 29.285 86 30.3906 86 31.6875V33.5625H86.9375C87.4531 33.5625 87.8947 33.7459 88.2622 34.1128C88.6291 34.4803 88.8125 34.9219 88.8125 35.4375V44.8125C88.8125 45.3281 88.6291 45.7697 88.2622 46.1372C87.8947 46.5041 87.4531 46.6875 86.9375 46.6875H75.6875ZM81.3125 42C81.8281 42 82.2697 41.8166 82.6372 41.4497C83.0041 41.0822 83.1875 40.6406 83.1875 40.125C83.1875 39.6094 83.0041 39.1678 82.6372 38.8003C82.2697 38.4334 81.8281 38.25 81.3125 38.25C80.7969 38.25 80.3556 38.4334 79.9888 38.8003C79.6213 39.1678 79.4375 39.6094 79.4375 40.125C79.4375 40.6406 79.6213 41.0822 79.9888 41.4497C80.3556 41.8166 80.7969 42 81.3125 42ZM78.5 33.5625H84.125V31.6875C84.125 30.9062 83.8516 30.2422 83.3047 29.6953C82.7578 29.1484 82.0938 28.875 81.3125 28.875C80.5312 28.875 79.8672 29.1484 79.3203 29.6953C78.7734 30.2422 78.5 30.9062 78.5 31.6875V33.5625Z" fill="white"/>
<defs>
<filter id="filter0_f_11530_63511" x="0.335651" y="0.739948" width="170.344" height="135.44" filterUnits="userSpaceOnUse" color-interpolation-filters="sRGB">
<feFlood flood-opacity="0" result="BackgroundImageFix"/>
<feBlend mode="normal" in="SourceGraphic" in2="BackgroundImageFix" result="shape"/>
<feGaussianBlur stdDeviation="27.9259" result="effect1_foregroundBlur_11530_63511"/>
</filter>
</defs>
</svg>
