<svg width="171" height="137" viewBox="0 0 171 137" fill="none" xmlns="http://www.w3.org/2000/svg">
<g filter="url(#filter0_f_11530_63496)">
<ellipse cx="85.3222" cy="68.4603" rx="29.3222" ry="11.8685" fill="#EAB308"/>
<path d="M85.8409 63.3008L74.1406 65.2226V68.1052C74.1406 70.7717 79.1327 73.2652 85.8409 73.8706C92.5491 73.2652 97.5412 70.7717 97.5412 68.1052V65.2226L85.8409 63.3008ZM85.8409 68.5809H94.9411C94.2521 70.5603 90.677 72.3236 85.8409 72.8761V68.5857H76.7407V65.8471L85.8409 64.353V68.5809Z" fill="white"/>
</g>
<circle cx="81" cy="38" r="25" fill="#EAB308"/>
<path d="M82.9146 28.1547C85.0934 28.6389 86.901 29.7525 88.3373 31.4955C89.7737 33.2385 90.4919 35.2801 90.4919 37.6203C90.4919 39.0889 90.1972 40.4446 89.6078 41.6873C89.0191 42.9301 88.2163 43.9952 87.1995 44.8829H88.5552C88.8296 44.8829 89.0594 44.9758 89.2447 45.1618C89.4306 45.347 89.5236 45.5769 89.5236 45.8512C89.5236 46.1256 89.4306 46.3554 89.2447 46.5407C89.0594 46.7266 88.8296 46.8196 88.5552 46.8196H84.6818C84.4075 46.8196 84.1776 46.7266 83.9924 46.5407C83.8065 46.3554 83.7135 46.1256 83.7135 45.8512V41.9778C83.7135 41.7035 83.8065 41.4733 83.9924 41.2874C84.1776 41.1021 84.4075 41.0095 84.6818 41.0095C84.9562 41.0095 85.186 41.1021 85.3713 41.2874C85.5572 41.4733 85.6502 41.7035 85.6502 41.9778V43.6482C86.5378 42.922 87.2441 42.0424 87.7689 41.0095C88.2931 39.9766 88.5552 38.8469 88.5552 37.6203C88.5552 35.7643 87.9865 34.1462 86.849 32.766C85.7109 31.3864 84.2784 30.4949 82.5515 30.0914C82.3255 30.043 82.1399 29.93 81.9947 29.7525C81.8494 29.575 81.7768 29.3732 81.7768 29.1473C81.7768 28.8245 81.8898 28.5582 82.1157 28.3484C82.3417 28.1386 82.608 28.074 82.9146 28.1547ZM78.7023 47.0859C76.5235 46.6017 74.7159 45.4881 73.2796 43.7451C71.8432 42.0021 71.125 39.9605 71.125 37.6203C71.125 36.1516 71.4197 34.796 72.0091 33.5532C72.5979 32.3105 73.4006 31.2454 74.4174 30.3577H73.0617C72.7873 30.3577 72.5575 30.2647 72.3722 30.0788C72.1863 29.8935 72.0933 29.6637 72.0933 29.3894C72.0933 29.115 72.1863 28.8848 72.3722 28.6989C72.5575 28.5137 72.7873 28.421 73.0617 28.421H76.9351C77.2094 28.421 77.4396 28.5137 77.6255 28.6989C77.8108 28.8848 77.9034 29.115 77.9034 29.3894V33.2627C77.9034 33.5371 77.8108 33.7672 77.6255 33.9532C77.4396 34.1384 77.2094 34.2311 76.9351 34.2311C76.6607 34.2311 76.4306 34.1384 76.2446 33.9532C76.0594 33.7672 75.9667 33.5371 75.9667 33.2627V31.5923C75.0791 32.3025 74.3728 33.1782 73.848 34.2195C73.3238 35.2601 73.0617 36.3937 73.0617 37.6203C73.0617 39.4763 73.6308 41.0941 74.7689 42.4736C75.9064 43.8539 77.3385 44.7457 79.0654 45.1492C79.2914 45.1976 79.477 45.3106 79.6222 45.4881C79.7675 45.6656 79.8401 45.8674 79.8401 46.0933C79.8401 46.4161 79.7271 46.6824 79.5012 46.8922C79.2752 47.102 79.0089 47.1666 78.7023 47.0859ZM79.4286 41.6631C79.2994 41.6631 79.1784 41.6431 79.0654 41.6031C78.9525 41.5624 78.8476 41.4937 78.7507 41.3968L76.0151 38.6371C75.8376 38.4595 75.745 38.2375 75.7372 37.9708C75.7288 37.7049 75.8215 37.475 76.0151 37.2814C76.1927 37.1038 76.4186 37.0151 76.693 37.0151C76.9674 37.0151 77.1933 37.1038 77.3708 37.2814L79.4286 39.3391L84.2461 34.5216C84.4397 34.3279 84.6657 34.235 84.9239 34.2427C85.1821 34.2511 85.4081 34.3521 85.6018 34.5458C85.7793 34.7395 85.8723 34.9654 85.8806 35.2236C85.8884 35.4819 85.7954 35.7078 85.6018 35.9015L80.1064 41.3968C80.0096 41.4937 79.9047 41.5624 79.7917 41.6031C79.6787 41.6431 79.5577 41.6631 79.4286 41.6631Z" fill="white"/>
<defs>
<filter id="filter0_f_11530_63496" x="0.148151" y="0.739948" width="170.348" height="135.44" filterUnits="userSpaceOnUse" color-interpolation-filters="sRGB">
<feFlood flood-opacity="0" result="BackgroundImageFix"/>
<feBlend mode="normal" in="SourceGraphic" in2="BackgroundImageFix" result="shape"/>
<feGaussianBlur stdDeviation="27.9259" result="effect1_foregroundBlur_11530_63496"/>
</filter>
</defs>
</svg>
