<svg width="1170" height="383" viewBox="0 0 1170 383" fill="none" xmlns="http://www.w3.org/2000/svg">
<g clip-path="url(#clip0_5768_86902)">
<rect width="1170" height="368" rx="20" fill="#3D0072"/>
<rect opacity="0.18" width="23.3953" height="411.745" rx="11.6976" transform="matrix(-0.641595 -0.767044 -0.767044 0.641595 330.836 50.2119)" fill="#57089C"/>
<rect opacity="0.18" width="35.9948" height="515.492" rx="17.9974" transform="matrix(-0.641595 -0.767044 -0.767044 0.641595 626.605 -49.5596)" fill="#57089C"/>
<rect opacity="0.1" width="35.9948" height="515.492" rx="17.9974" transform="matrix(-0.641595 -0.767044 -0.767044 0.641595 1176.78 -1.75195)" fill="#54019C"/>
<rect opacity="0.18" width="35.9948" height="184.317" rx="17.9974" transform="matrix(-0.641595 -0.767044 -0.767044 0.641595 1031.73 284.86)" fill="#54019C"/>
<rect opacity="0.18" width="35.9948" height="184.317" rx="17.9974" transform="matrix(-0.641595 -0.767044 -0.767044 0.641595 1205 268.875)" fill="#54019C"/>
<rect opacity="0.25" width="221.152" height="538.337" rx="84.4444" transform="matrix(-0.641595 -0.767044 -0.767044 0.641595 879.914 98.0791)" fill="#54019C"/>
</g>
<defs>
<clipPath id="clip0_5768_86902">
<rect width="1170" height="368" fill="white"/>
</clipPath>
</defs>
</svg>
