<svg width="1439" height="977" viewBox="0 0 1439 977" fill="none" xmlns="http://www.w3.org/2000/svg">
<rect width="1440" height="988" fill="#0F206C"/>
<g opacity="0.08">
<path d="M279 639.5L446 556L613 639.5L446 723L279 639.5Z" fill="#C505FF"/>
<path d="M279 639.5L446 723V890L279 806.5V639.5Z" fill="#FD59FF"/>
<path d="M446 723L613 639.5V806.5L446 890V723Z" fill="#8E00CB"/>
<path d="M446 389L613 305.5L780 389L613 472.5L446 389Z" fill="#C505FF"/>
<path d="M446 389L613 472.5V639.5L446 556V389Z" fill="#FD59FF"/>
<path d="M613 472.5L780 389V556L613 639.5V472.5Z" fill="#8E00CB"/>
<path d="M780 389L947 305.5L1114 389L947 472.5L780 389Z" fill="#C505FF"/>
<path d="M780 389L947 472.5V639.5L780 556V389Z" fill="#FD59FF"/>
<path d="M947 472.5L1114 389V556L947 639.5V472.5Z" fill="#8E00CB"/>
<path d="M613 138.5L780 55L947 138.5L780 222L613 138.5Z" fill="#C505FF"/>
<path d="M613 138.5L780 222V389L613 305.5V138.5Z" fill="#FD59FF"/>
<path d="M780 222L947 138.5V305.5L780 389V222Z" fill="#8E00CB"/>
<path d="M947 639.5L1114 556L1281 639.5L1114 723L947 639.5Z" fill="#C505FF"/>
<path d="M947 639.5L1114 723V890L947 806.5V639.5Z" fill="#FD59FF"/>
<path d="M1114 723L1281 639.5V806.5L1114 890V723Z" fill="#8E00CB"/>
</g>
</svg>
