<svg width="172" height="137" viewBox="0 0 172 137" fill="none" xmlns="http://www.w3.org/2000/svg">
<g filter="url(#filter0_f_9896_67312)">
<ellipse cx="86.1347" cy="68.4603" rx="29.3222" ry="11.8685" fill="#8807F7"/>
<path d="M86.6534 63.3008L74.9531 65.2226V68.1052C74.9531 70.7717 79.9452 73.2652 86.6534 73.8706C93.3616 73.2652 98.3537 70.7717 98.3537 68.1052V65.2226L86.6534 63.3008ZM86.6534 68.5809H95.7536C95.0646 70.5603 91.4895 72.3236 86.6534 72.8761V68.5857H77.5532V65.8471L86.6534 64.353V68.5809Z" fill="white"/>
</g>
<circle cx="81.8125" cy="38" r="25" fill="#8807F7"/>
<path d="M80.9167 44.9875C80.7722 44.9875 80.6415 44.9647 80.5245 44.9192C80.4068 44.8745 80.2937 44.8069 80.1854 44.7167C79.409 44.0306 78.7951 43.1772 78.3438 42.1567C77.8924 41.137 77.6667 40.1125 77.6667 39.0833C77.6667 38.0542 77.8924 37.0293 78.3438 36.0088C78.7951 34.9891 79.4 34.1361 80.1583 33.45C80.2667 33.3597 80.384 33.2875 80.5104 33.2333C80.6368 33.1792 80.7722 33.1521 80.9167 33.1521C81.0611 33.1521 81.1922 33.1792 81.3099 33.2333C81.4269 33.2875 81.5396 33.3597 81.6479 33.45C82.4243 34.1361 83.0382 34.9891 83.4896 36.0088C83.941 37.0293 84.1667 38.0542 84.1667 39.0833C84.1667 40.1125 83.941 41.137 83.4896 42.1567C83.0382 43.1772 82.4333 44.0306 81.675 44.7167C81.5847 44.8069 81.4721 44.8745 81.337 44.9192C81.2012 44.9647 81.0611 44.9875 80.9167 44.9875ZM85.25 46.6667C84.7625 46.6667 84.2887 46.6215 83.8287 46.5312C83.3679 46.441 82.9208 46.3056 82.4875 46.125C83.4986 45.4569 84.3021 44.4097 84.8979 42.9833C85.4938 41.5569 85.7917 40.2569 85.7917 39.0833C85.7917 37.9097 85.4938 36.6097 84.8979 35.1833C84.3021 33.7569 83.4986 32.7097 82.4875 32.0417C82.9208 31.8611 83.3679 31.7257 83.8287 31.6354C84.2887 31.5451 84.7625 31.5 85.25 31.5C87.3625 31.5 89.1543 32.2356 90.6255 33.7067C92.0974 35.1786 92.8333 36.9708 92.8333 39.0833C92.8333 41.1958 92.0974 42.9877 90.6255 44.4588C89.1543 45.9307 87.3625 46.6667 85.25 46.6667ZM76.5833 46.6667C74.4708 46.6667 72.679 45.9307 71.2078 44.4588C69.7359 42.9877 69 41.1958 69 39.0833C69 36.9708 69.7359 35.1786 71.2078 33.7067C72.679 32.2356 74.4708 31.5 76.5833 31.5C77.0708 31.5 77.5446 31.5451 78.0047 31.6354C78.4654 31.7257 78.9125 31.8611 79.3458 32.0417C78.3347 32.7097 77.5312 33.7569 76.9354 35.1833C76.3396 36.6097 76.0417 37.9097 76.0417 39.0833C76.0417 40.2569 76.3396 41.5569 76.9354 42.9833C77.5312 44.4097 78.3347 45.4569 79.3458 46.125C78.9125 46.3056 78.4654 46.441 78.0047 46.5312C77.5446 46.6215 77.0708 46.6667 76.5833 46.6667Z" fill="white"/>
<defs>
<filter id="filter0_f_9896_67312" x="0.960651" y="0.739948" width="170.348" height="135.441" filterUnits="userSpaceOnUse" color-interpolation-filters="sRGB">
<feFlood flood-opacity="0" result="BackgroundImageFix"/>
<feBlend mode="normal" in="SourceGraphic" in2="BackgroundImageFix" result="shape"/>
<feGaussianBlur stdDeviation="27.9259" result="effect1_foregroundBlur_9896_67312"/>
</filter>
</defs>
</svg>
