<svg width="50" height="50" viewBox="0 0 50 50" fill="none" xmlns="http://www.w3.org/2000/svg">
<circle cx="25" cy="25" r="25" fill="#ECF2FD"/>
<path d="M18.418 25.489C18.418 25.983 18.4787 26.4337 18.6 26.841C18.7213 27.2397 18.8947 27.582 19.12 27.868C19.354 28.1453 19.6357 28.362 19.965 28.518C20.2943 28.674 20.667 28.752 21.083 28.752C21.4903 28.752 21.8587 28.674 22.188 28.518C22.5173 28.362 22.7947 28.1453 23.02 27.868C23.254 27.582 23.4317 27.2397 23.553 26.841C23.6743 26.4337 23.735 25.983 23.735 25.489C23.735 24.995 23.6743 24.5487 23.553 24.15C23.4317 23.7427 23.254 23.4003 23.02 23.123C22.7947 22.837 22.5173 22.616 22.188 22.46C21.8587 22.304 21.4903 22.226 21.083 22.226C20.667 22.226 20.2943 22.304 19.965 22.46C19.6357 22.616 19.354 22.837 19.12 23.123C18.8947 23.409 18.7213 23.7513 18.6 24.15C18.4787 24.5487 18.418 24.995 18.418 25.489ZM25.451 25.489C25.451 26.2603 25.334 26.9407 25.1 27.53C24.8747 28.1193 24.5627 28.6133 24.164 29.012C23.774 29.402 23.3147 29.6967 22.786 29.896C22.2573 30.0953 21.694 30.195 21.096 30.195C20.498 30.195 19.9303 30.0953 19.393 29.896C18.8643 29.6967 18.4007 29.402 18.002 29.012C17.612 28.6133 17.3 28.1193 17.066 27.53C16.832 26.9407 16.715 26.2603 16.715 25.489C16.715 24.7177 16.832 24.0417 17.066 23.461C17.3 22.8717 17.6163 22.3777 18.015 21.979C18.4223 21.5803 18.8903 21.2813 19.419 21.082C19.9477 20.8827 20.5067 20.783 21.096 20.783C21.6853 20.783 22.2443 20.8827 22.773 21.082C23.3017 21.2813 23.761 21.5803 24.151 21.979C24.5497 22.3777 24.866 22.8717 25.1 23.461C25.334 24.0417 25.451 24.7177 25.451 25.489ZM29.9649 30.104C29.4883 30.104 29.0073 30.0867 28.5219 30.052C28.0366 30.026 27.6119 29.9653 27.2479 29.87V21.121C27.4386 21.0863 27.6423 21.056 27.8589 21.03C28.0756 20.9953 28.2966 20.9693 28.5219 20.952C28.7473 20.9347 28.9683 20.9217 29.1849 20.913C29.4103 20.9043 29.6226 20.9 29.8219 20.9C30.3679 20.9 30.8749 20.9433 31.3429 21.03C31.8109 21.108 32.2139 21.2423 32.5519 21.433C32.8986 21.6237 33.1673 21.875 33.3579 22.187C33.5486 22.499 33.6439 22.8847 33.6439 23.344C33.6439 23.7687 33.5399 24.1327 33.3319 24.436C33.1326 24.7393 32.8509 24.982 32.4869 25.164C33.0329 25.346 33.4359 25.6147 33.6959 25.97C33.9559 26.3253 34.0859 26.776 34.0859 27.322C34.0859 28.2493 33.7479 28.947 33.0719 29.415C32.3959 29.8743 31.3603 30.104 29.9649 30.104ZM28.8599 25.944V28.687C29.0419 28.7043 29.2369 28.7173 29.4449 28.726C29.6529 28.7347 29.8436 28.739 30.0169 28.739C30.3549 28.739 30.6669 28.7173 30.9529 28.674C31.2476 28.6307 31.4989 28.557 31.7069 28.453C31.9236 28.3403 32.0926 28.193 32.2139 28.011C32.3439 27.829 32.4089 27.595 32.4089 27.309C32.4089 26.7977 32.2226 26.4423 31.8499 26.243C31.4773 26.0437 30.9616 25.944 30.3029 25.944H28.8599ZM28.8599 24.657H30.0169C30.6409 24.657 31.1306 24.5703 31.4859 24.397C31.8413 24.215 32.0189 23.8943 32.0189 23.435C32.0189 23.0017 31.8326 22.694 31.4599 22.512C31.0959 22.33 30.6193 22.239 30.0299 22.239C29.7786 22.239 29.5533 22.2433 29.3539 22.252C29.1633 22.2607 28.9986 22.2737 28.8599 22.291V24.657Z" fill="#2563EB"/>
</svg>
