<svg width="377" height="211" viewBox="0 0 377 211" fill="none" xmlns="http://www.w3.org/2000/svg">
<g clip-path="url(#clip0_1_23534)">
<rect width="377" height="211" rx="1" fill="#6E97E9"/>
<path d="M217.194 57.6395L220.009 50.9598L207.812 42.884C206.366 41.925 204.818 41.185 203.205 40.6825C202.642 40.5107 202.07 40.3711 201.488 40.2529C198.632 39.7132 195.711 39.8044 192.885 40.5214C191.835 40.7737 190.798 41.0928 189.779 41.4772C188.687 41.88 187.616 42.3532 186.57 42.8947C185.157 43.6023 183.782 44.4056 182.452 45.3003C180.997 46.2776 179.571 47.3515 178.155 48.5221C177.094 49.4027 176.044 50.3477 175.011 51.3572C159.803 66.0268 147.831 92.1765 144.791 117.327C144.575 119.046 144.416 120.742 144.294 122.439C144.116 124.866 144.031 127.283 144.031 129.667C144.031 131.621 144.106 133.511 144.238 135.326C144.35 136.916 144.5 138.441 144.707 139.912C144.913 141.383 145.138 142.801 145.42 144.207C146.159 147.96 147.356 151.575 148.976 154.947C149.304 155.612 149.642 156.267 149.998 156.89C151.444 159.472 153.277 161.74 155.412 163.592C156.053 164.132 156.72 164.631 157.41 165.084L168.979 172.72L171.54 166.609C172.216 166.427 172.91 166.233 173.595 165.986C176.41 164.997 179.113 163.627 181.645 161.905C183.267 160.81 184.834 159.609 186.336 158.308C188.371 156.564 190.308 154.674 192.134 152.648C204.81 138.688 214.792 116.855 218.451 95.1083C218.99 91.9114 219.387 88.6856 219.643 85.4431C219.859 82.7798 219.962 80.1272 219.953 77.5176C219.956 73.7506 219.686 69.9897 219.146 66.2738C218.728 63.3332 218.075 60.4429 217.194 57.6395Z" fill="#BA68C8"/>
<path opacity="0.25" d="M147.602 102.454L172.418 118.853L175.683 108.049L150.848 91.6289C149.591 95.1835 148.54 98.8026 147.602 102.454Z" fill="white"/>
<path opacity="0.25" d="M207.751 42.884C206.306 41.925 204.757 41.185 203.145 40.6825C202.582 40.5107 202.01 40.3711 201.428 40.2529C198.571 39.7132 195.651 39.8044 192.824 40.5214C192.449 40.6073 192.064 40.7255 191.68 40.8329L217.209 57.7147C217.214 57.6901 217.214 57.6642 217.209 57.6395L220.024 50.9598L207.751 42.884Z" fill="white"/>
<path opacity="0.25" d="M205.098 84.3588L208.373 79.8699L171.163 55.3418C169.981 56.6842 168.817 58.1017 167.691 59.5623L205.098 84.3588Z" fill="white"/>
<path opacity="0.25" d="M159.801 71.6214L192.038 92.9278L195.585 82.3068L165.562 62.4609C163.498 65.3932 161.575 68.4512 159.801 71.6214Z" fill="white"/>
<path opacity="0.4" d="M207.751 42.884C206.305 41.925 204.757 41.185 203.145 40.6825C202.582 40.5107 202.009 40.3711 201.428 40.2529C198.571 39.7132 195.651 39.8044 192.824 40.5214C191.774 40.7737 190.737 41.0928 189.719 41.4772C188.626 41.88 187.555 42.3532 186.51 42.8947C185.096 43.6023 183.721 44.4056 182.391 45.3003C180.937 46.2776 179.511 47.3515 178.094 48.5221C177.034 49.4027 175.983 50.3477 174.951 51.3572C160.812 65.0173 149.478 88.6326 145.547 112.13L197.328 146.355C207.988 131.555 215.262 113.951 218.494 95.1297C219.032 91.9329 219.43 88.7071 219.686 85.4646C219.901 82.8013 220.005 80.1487 219.995 77.5391C219.999 73.772 219.729 70.0111 219.188 66.2953C218.761 63.3387 218.095 60.4339 217.199 57.6181L220.014 50.9384L207.751 42.884Z" fill="white"/>
<path opacity="0.1" d="M168.976 172.72L171.537 166.609C172.212 166.427 172.907 166.233 173.592 165.986C176.407 164.997 179.11 163.627 181.642 161.906C183.264 160.81 184.831 159.609 186.333 158.308C188.368 156.564 190.305 154.674 192.131 152.648C193.94 150.645 195.659 148.537 197.282 146.334L145.511 112.119C145.22 113.848 144.966 115.577 144.76 117.306C144.554 119.035 144.385 120.721 144.263 122.418C144.084 124.845 144 127.261 144 129.645C144 131.6 144.075 133.49 144.206 135.305C144.319 136.894 144.469 138.419 144.676 139.89C144.882 141.362 145.107 142.779 145.389 144.186C146.128 147.939 147.325 151.554 148.944 154.925C149.273 155.591 149.611 156.246 149.967 156.869C151.413 159.45 153.245 161.719 155.381 163.57C156.021 164.111 156.689 164.609 157.379 165.063L168.976 172.72Z" fill="black"/>
<path opacity="0.1" d="M148.984 154.958C149.313 155.624 149.65 156.279 150.007 156.901C151.453 159.483 153.285 161.751 155.42 163.603C156.061 164.144 156.728 164.642 157.419 165.095L168.978 172.72L171.539 166.61H171.642L171.83 164.107L146.113 147.107C146.82 149.835 147.782 152.467 148.984 154.958Z" fill="black"/>
<path d="M232.258 74.9943C231.712 71.1501 230.751 67.3986 229.397 63.8256C227.766 59.3782 225.185 55.4712 221.891 52.4636C219.888 50.695 217.598 49.3992 215.154 48.6512C214.591 48.4794 214.019 48.3398 213.437 48.2217C210.581 47.682 207.66 47.7731 204.834 48.4902C203.784 48.7424 202.747 49.0615 201.728 49.4459C200.638 49.8515 199.567 50.321 198.52 50.8527C197.109 51.5706 195.734 52.3773 194.401 53.269C192.946 54.2463 191.52 55.3202 190.104 56.4908C189.043 57.3714 188.002 58.3164 186.97 59.3259C171.78 73.9848 159.836 100.134 156.806 125.285C156.6 126.993 156.431 128.7 156.309 130.397C156.13 132.824 156.046 135.241 156.055 137.625C156.055 139.579 156.13 141.469 156.252 143.284C156.365 144.863 156.525 146.399 156.722 147.87C156.919 149.341 157.163 150.759 157.444 152.165C158.185 155.916 159.378 159.531 160.99 162.905C161.319 163.57 161.657 164.225 162.013 164.848C163.467 167.425 165.302 169.693 167.436 171.549C170.535 174.21 174.262 175.741 178.132 175.942C181.024 176.084 183.916 175.651 186.679 174.664C189.493 173.67 192.195 172.3 194.729 170.583C196.352 169.488 197.918 168.286 199.42 166.985C201.459 165.242 203.399 163.351 205.228 161.326C217.894 147.365 227.877 125.522 231.498 103.786C232.042 100.557 232.44 97.3352 232.69 94.1206C232.906 91.4573 233.009 88.8047 232.999 86.2059C233.023 82.4517 232.775 78.7016 232.258 74.9943Z" fill="#BA68C8"/>
<path opacity="0.1" d="M232.258 74.9943C231.712 71.1501 230.751 67.3986 229.397 63.8256C227.766 59.3782 225.185 55.4712 221.891 52.4636C219.888 50.695 217.598 49.3992 215.154 48.6512C214.591 48.4794 214.019 48.3398 213.437 48.2217C210.581 47.682 207.66 47.7731 204.834 48.4902C203.784 48.7424 202.747 49.0615 201.728 49.4459C200.638 49.8515 199.567 50.321 198.52 50.8527C197.109 51.5706 195.734 52.3773 194.401 53.269C192.946 54.2463 191.52 55.3202 190.104 56.4908C189.043 57.3714 188.002 58.3164 186.97 59.3259C171.78 73.9848 159.836 100.134 156.806 125.285C156.6 126.993 156.431 128.7 156.309 130.397C156.13 132.824 156.046 135.241 156.055 137.625C156.055 139.579 156.13 141.469 156.252 143.284C156.365 144.863 156.525 146.399 156.722 147.87C156.919 149.341 157.163 150.759 157.444 152.165C158.185 155.916 159.378 159.531 160.99 162.905C161.319 163.57 161.657 164.225 162.013 164.848C163.467 167.425 165.302 169.693 167.436 171.549C170.535 174.21 174.262 175.741 178.132 175.942C181.024 176.084 183.916 175.651 186.679 174.664C189.493 173.67 192.195 172.3 194.729 170.583C196.352 169.488 197.918 168.286 199.42 166.985C201.459 165.242 203.399 163.351 205.228 161.326C217.894 147.365 227.877 125.522 231.498 103.786C232.042 100.557 232.44 97.3352 232.69 94.1206C232.906 91.4573 233.009 88.8047 232.999 86.2059C233.023 82.4517 232.775 78.7016 232.258 74.9943Z" fill="white"/>
<path opacity="0.05" d="M157.558 120.098C157.258 121.837 157.005 123.577 156.798 125.317C156.592 127.024 156.423 128.732 156.301 130.429C156.123 132.856 156.038 135.272 156.048 137.656C156.048 139.611 156.123 141.501 156.245 143.316C156.357 144.894 156.517 146.43 156.714 147.901C156.911 149.372 157.155 150.79 157.436 152.197C158.177 155.948 159.371 159.562 160.983 162.936C161.311 163.602 161.649 164.257 162.005 164.88C163.46 167.457 165.295 169.724 167.428 171.581C170.527 174.242 174.254 175.772 178.124 175.973C181.016 176.115 183.908 175.683 186.671 174.695C189.485 173.701 192.187 172.331 194.721 170.614C196.17 169.625 197.573 168.55 198.925 167.393L157.558 120.098Z" fill="black"/>
<path opacity="0.05" d="M158.148 155.15C158.841 157.839 159.785 160.435 160.963 162.893C161.291 163.559 161.629 164.214 161.986 164.837C163.44 167.414 165.275 169.682 167.409 171.538C169.949 173.714 172.921 175.134 176.059 175.673L158.148 155.15Z" fill="black"/>
<path opacity="0.15" d="M162.823 99.5859C161.584 103.13 160.505 106.749 159.586 110.389L204.621 161.937L205.24 161.282C207.186 159.118 209.027 156.834 210.757 154.441L162.823 99.5859Z" fill="white"/>
<path opacity="0.15" d="M177.551 70.3965C175.485 73.3285 173.559 76.3865 171.781 79.5569L221.376 136.324C222.99 132.851 224.46 129.272 225.786 125.585L177.551 70.3965Z" fill="white"/>
<path opacity="0.15" d="M183.183 63.2656C181.992 64.6188 180.819 66.0363 179.684 67.5613L227.102 121.837C227.758 119.807 228.387 117.756 228.978 115.694L183.183 63.2656Z" fill="white"/>
<path opacity="0.15" d="M232.982 82.2744C232.935 81.2005 232.86 80.2017 232.776 79.1923C232.776 78.8593 232.719 78.5157 232.682 78.1828C232.644 77.8499 232.616 77.5062 232.569 77.1089C232.485 76.3679 232.391 75.6269 232.288 74.9611C231.741 71.1169 230.78 67.3654 229.426 63.7924C227.795 59.345 225.215 55.438 221.92 52.4304C219.917 50.6618 217.628 49.366 215.184 48.618C214.621 48.4462 214.049 48.3066 213.467 48.1885C210.61 47.6488 207.69 47.7399 204.863 48.457C204.488 48.5429 204.103 48.661 203.719 48.7684L232.982 82.2744Z" fill="white"/>
<path d="M223.255 92.9393C223.255 116.146 211.433 142.93 196.487 154.324C195.849 154.807 195.202 155.269 194.554 155.699C178.708 166.169 165.863 155.065 165.863 130.87C165.863 106.675 178.708 78.5811 194.554 68.1105C195.202 67.6809 195.849 67.2943 196.487 66.94C211.405 58.5635 223.255 69.7428 223.255 92.9393Z" fill="#BA68C8"/>
<path opacity="0.4" d="M223.255 92.9393C223.255 116.146 211.433 142.93 196.487 154.324C195.849 154.807 195.202 155.269 194.554 155.699C178.708 166.169 165.863 155.065 165.863 130.87C165.863 106.675 178.708 78.5811 194.554 68.1105C195.202 67.6809 195.849 67.2943 196.487 66.94C211.405 58.5635 223.255 69.7428 223.255 92.9393Z" fill="black"/>
<path d="M221.978 93.787C221.978 94.528 221.978 95.2798 221.978 96.0423C221.246 117.671 210.24 141.92 196.43 152.444L196.054 152.723C195.576 153.078 195.116 153.432 194.591 153.797C191.951 155.623 189.025 156.841 185.978 157.384C179.542 158.383 174.166 155.161 170.825 148.556C168.662 143.941 167.449 138.82 167.279 133.586C167.213 132.448 167.176 131.277 167.176 130.074C167.176 128.872 167.176 127.851 167.26 126.724C167.377 124.334 167.608 121.954 167.955 119.593C170.375 102.883 178.162 85.8401 188.07 75.5628C189.446 74.1309 190.907 72.8104 192.442 71.6108C193.146 71.0524 193.868 70.5369 194.591 70.0536C195.313 69.5704 195.829 69.2804 196.467 68.9797L196.983 68.7005C200.479 66.6576 204.45 65.9357 208.326 66.6386C214.097 67.9058 218.544 73.1787 220.673 81.5874C221.6 85.5651 222.039 89.671 221.978 93.787Z" fill="#BA68C8"/>
<path opacity="0.5" d="M221.978 93.787C221.978 94.528 221.978 95.2798 221.978 96.0423C221.246 117.671 210.24 141.92 196.43 152.444L196.054 152.723C195.576 153.078 195.116 153.432 194.591 153.797C191.951 155.623 189.025 156.841 185.978 157.384C179.542 158.383 174.166 155.161 170.825 148.556C168.662 143.941 167.449 138.82 167.279 133.586C167.213 132.448 167.176 131.277 167.176 130.074C167.176 128.872 167.176 127.851 167.26 126.724C167.377 124.334 167.608 121.954 167.955 119.593C170.375 102.883 178.162 85.8401 188.07 75.5628C189.446 74.1309 190.907 72.8104 192.442 71.6108C193.146 71.0524 193.868 70.5369 194.591 70.0536C195.313 69.5704 195.829 69.2804 196.467 68.9797L196.983 68.7005C200.479 66.6576 204.45 65.9357 208.326 66.6386C214.097 67.9058 218.544 73.1787 220.673 81.5874C221.6 85.5651 222.039 89.671 221.978 93.787Z" fill="black"/>
<path d="M217.386 93.0158C217.386 92.2533 217.386 91.5016 217.386 90.7606C217.427 86.6261 216.962 82.5054 216.007 78.518C215.041 74.1632 212.991 70.2234 210.105 67.1775C209.492 66.9362 208.865 66.7425 208.229 66.5976C204.352 65.8947 200.381 66.6166 196.886 68.6595L196.37 68.9387C195.769 69.2824 195.15 69.6475 194.493 70.0126C193.836 70.3777 193.048 71.0114 192.345 71.5698C190.809 72.7694 189.348 74.0899 187.972 75.5218C178.065 85.7561 170.277 102.799 167.857 119.552C167.511 121.913 167.279 124.293 167.163 126.683C167.106 127.81 167.078 128.917 167.078 130.033C167.078 131.15 167.078 132.407 167.181 133.545C167.351 138.779 168.564 143.9 170.728 148.515C171.679 150.425 172.899 152.141 174.34 153.595C176.588 154.464 178.983 154.71 181.33 154.315C184.377 153.772 187.303 152.553 189.943 150.728C190.44 150.406 190.928 150.051 191.406 149.654L191.782 149.375C205.649 138.893 216.654 114.644 217.386 93.0158Z" fill="#BA68C8"/>
<path opacity="0.25" d="M217.386 93.0158C217.386 92.2533 217.386 91.5016 217.386 90.7606C217.427 86.6261 216.962 82.5054 216.007 78.518C215.041 74.1632 212.991 70.2234 210.105 67.1775C209.492 66.9362 208.865 66.7425 208.229 66.5976C204.352 65.8947 200.381 66.6166 196.886 68.6595L196.37 68.9387C195.769 69.2824 195.15 69.6475 194.493 70.0126C193.836 70.3777 193.048 71.0114 192.345 71.5698C190.809 72.7694 189.348 74.0899 187.972 75.5218C178.065 85.7561 170.277 102.799 167.857 119.552C167.511 121.913 167.279 124.293 167.163 126.683C167.106 127.81 167.078 128.917 167.078 130.033C167.078 131.15 167.078 132.407 167.181 133.545C167.351 138.779 168.564 143.9 170.728 148.515C171.679 150.425 172.899 152.141 174.34 153.595C176.588 154.464 178.983 154.71 181.33 154.315C184.377 153.772 187.303 152.553 189.943 150.728C190.44 150.406 190.928 150.051 191.406 149.654L191.782 149.375C205.649 138.893 216.654 114.644 217.386 93.0158Z" fill="black"/>
<path d="M213.43 48.1453C196.861 45.9975 183.407 61.7196 174.381 75.8415C161.387 97.76 153.159 125.521 157.653 152.089V152.035C159.116 159.413 162.072 166.823 167.438 171.516C161.95 166.909 158.769 159.51 157.231 152.078V152.132C153.093 130.407 158.3 107.575 166.988 88.1377C176.277 68.9147 192.039 45.5679 213.43 48.1453Z" fill="#F5F5F5"/>
<path opacity="0.35" d="M200.894 99.6102L195.387 95.9697L206.036 85.5742L211.543 89.204L200.894 99.6102Z" fill="black"/>
<path opacity="0.35" d="M204.272 102.014C201.457 99.7269 196.569 101.456 192.431 102.949C191.437 103.325 190.555 103.668 189.72 103.958C189.467 104.638 189.331 105.367 189.316 106.106C189.316 109.779 192.037 108.78 197.948 106.546C199.94 105.769 201.978 105.155 204.047 104.71C204.234 106.578 205.36 108.275 209.779 105.612L204.272 102.014Z" fill="black"/>
<path opacity="0.45" d="M190.636 149.794L185.129 146.153V138.711L190.636 142.362V149.794Z" fill="black"/>
<path opacity="0.35" d="M199.963 121.549C199.963 124.513 198.021 127.144 195.14 129.066C190.552 132.116 188.77 129.625 188.376 127.198L187.438 126.553C188.219 126.276 188.968 125.894 189.67 125.415C191.66 124.246 193.24 122.332 194.146 119.992C197.514 118.724 199.963 118.22 199.963 121.549Z" fill="black"/>
<path opacity="0.35" d="M179.501 139.785C178.893 139.381 178.196 139.187 177.494 139.226C177.376 138.839 177.275 138.444 177.193 138.045L171.695 134.404C171.846 135.499 172.199 136.545 172.731 137.471C173.264 138.397 173.963 139.182 174.782 139.774L180.28 143.404C180.28 143.404 181.19 141.052 179.501 139.785Z" fill="black"/>
<path d="M197.95 106.589C192.039 108.823 189.318 109.811 189.318 106.149C189.332 105.41 189.469 104.681 189.722 104.001C185.687 105.43 183.811 105.601 183.811 102.552C183.811 100.318 185.134 97.5471 188.784 95.1201C192.668 92.5427 194.844 93.1441 195.351 96.0114L206 85.6052C206 85.4549 205.906 85.3153 205.85 85.1649C206.509 84.9965 207.142 84.714 207.726 84.3273L203.335 81.3418L202.913 81.0519H202.848C201.549 80.3303 200.095 80.0579 198.663 80.2679C196.76 80.5123 194.902 81.0956 193.156 81.9969V81.868L198.663 78.1953L193.156 74.5547L189.403 77.0354L184.43 80.3645V87.796C176.971 94.014 172.308 102.133 172.308 110.917C172.308 114.923 173.246 117.189 174.776 118.338H174.851C174.98 118.434 175.115 118.52 175.254 118.596L179.861 121.57C179.992 120.765 179.893 119.933 179.58 119.197C181.042 118.979 182.486 118.62 183.895 118.123C189.525 116.19 194.469 113.151 194.469 117.898C194.466 118.61 194.352 119.315 194.131 119.981C197.528 118.714 199.977 118.209 199.977 121.538C199.977 124.502 198.034 127.133 195.154 129.056C190.566 132.106 188.784 129.614 188.389 127.187L187.451 126.543L182.92 123.546L171.727 134.393L177.225 138.034C177.408 138.966 177.695 139.869 178.078 140.718C180.539 140.613 182.954 139.926 185.171 138.699V141.717L193.878 140.353V132.911C201.384 126.553 206.619 117.984 206.619 109.027C206.658 107.5 206.448 105.978 206 104.538C203.248 104.803 200.54 105.493 197.95 106.589Z" fill="#BA68C8"/>
<path opacity="0.15" d="M197.95 106.589C192.039 108.823 189.318 109.811 189.318 106.149C189.332 105.41 189.469 104.681 189.722 104.001C185.687 105.43 183.811 105.601 183.811 102.552C183.811 100.318 185.134 97.5471 188.784 95.1201C192.668 92.5427 194.844 93.1441 195.351 96.0114L206 85.6052C206 85.4549 205.906 85.3153 205.85 85.1649C206.509 84.9965 207.142 84.714 207.726 84.3273L203.335 81.3418L202.913 81.0519H202.848C201.549 80.3303 200.095 80.0579 198.663 80.2679C196.76 80.5123 194.902 81.0956 193.156 81.9969V81.868L198.663 78.1953L193.156 74.5547L189.403 77.0354L184.43 80.3645V87.796C176.971 94.014 172.308 102.133 172.308 110.917C172.308 114.923 173.246 117.189 174.776 118.338H174.851C174.98 118.434 175.115 118.52 175.254 118.596L179.861 121.57C179.992 120.765 179.893 119.933 179.58 119.197C181.042 118.979 182.486 118.62 183.895 118.123C189.525 116.19 194.469 113.151 194.469 117.898C194.466 118.61 194.352 119.315 194.131 119.981C197.528 118.714 199.977 118.209 199.977 121.538C199.977 124.502 198.034 127.133 195.154 129.056C190.566 132.106 188.784 129.614 188.389 127.187L187.451 126.543L182.92 123.546L171.727 134.393L177.225 138.034C177.408 138.966 177.695 139.869 178.078 140.718C180.539 140.613 182.954 139.926 185.171 138.699V141.717L193.878 140.353V132.911C201.384 126.553 206.619 117.984 206.619 109.027C206.658 107.5 206.448 105.978 206 104.538C203.248 104.803 200.54 105.493 197.95 106.589Z" fill="black"/>
<g opacity="0.2">
<path d="M184.427 87.7637C180.355 91.5761 176.649 96.0435 174.482 101.499C173.386 104.2 172.749 107.116 172.606 110.09C172.49 111.577 172.569 113.076 172.84 114.536C173.06 116.021 173.752 117.359 174.782 118.295C173.647 117.45 172.838 116.14 172.521 114.633C172.178 113.145 172.029 111.607 172.08 110.069C172.155 106.993 172.767 103.966 173.882 101.166C175.037 98.4162 176.549 95.8818 178.366 93.6487C180.169 91.411 182.204 89.4347 184.427 87.7637Z" fill="black"/>
</g>
<path d="M205.96 104.549C203.221 104.814 200.526 105.5 197.947 106.59C192.037 108.823 189.316 109.811 189.316 106.149C189.33 105.41 189.467 104.682 189.719 104.001C190.348 102.283 191.764 100.447 194.288 98.7607C198.173 96.1726 200.349 96.7954 200.856 99.652L211.505 89.2458C210.482 85.7342 208.409 83.8763 205.322 83.8226C203.023 83.8804 200.761 84.4877 198.679 85.6053V78.1738L193.172 81.8359L189.897 83.9837V91.4152C182.438 97.6331 177.776 105.763 177.776 114.536C177.729 116.167 177.955 117.793 178.442 119.326C180.084 124.03 184.596 123.385 189.353 121.785C191.023 121.216 192.637 120.54 194.044 120.003C197.441 118.735 199.89 118.231 199.89 121.56C199.89 124.524 197.947 127.155 195.067 129.077C190.479 132.127 188.696 129.636 188.302 127.209L177.109 138.055C177.291 138.985 177.578 139.884 177.963 140.729C179.417 143.865 182.016 144.724 185.056 144.262C186.958 143.921 188.811 143.285 190.564 142.372V149.804L199.261 144.058V136.541C206.767 130.194 212.011 121.614 212.011 112.657C212.086 106.224 209.413 104.452 205.96 104.549Z" fill="#BA68C8"/>
<g opacity="0.1">
<path d="M205.964 104.549C203.225 104.814 200.53 105.5 197.951 106.59C192.04 108.823 189.32 109.811 189.32 106.149C189.334 105.41 189.471 104.682 189.723 104.001C190.352 102.283 191.768 100.447 194.292 98.7607C198.176 96.1726 200.353 96.7954 200.86 99.652L211.509 89.2458C210.486 85.7342 208.413 83.8763 205.326 83.8226C203.027 83.8804 200.765 84.4877 198.683 85.6053V78.1738L193.176 81.8359L189.901 83.9837V91.4152C182.442 97.6331 177.779 105.763 177.779 114.536C177.733 116.167 177.959 117.793 178.446 119.326C180.087 124.03 184.6 123.385 189.357 121.785C191.027 121.216 192.641 120.54 194.048 120.003C197.445 118.735 199.893 118.231 199.893 121.56C199.893 124.524 197.951 127.155 195.071 129.077C190.483 132.127 188.7 129.636 188.306 127.209L177.113 138.055C177.295 138.985 177.582 139.884 177.967 140.729C179.421 143.865 182.02 144.724 185.06 144.262C186.962 143.921 188.815 143.285 190.567 142.372V149.804L199.265 144.058V136.541C206.771 130.194 212.015 121.614 212.015 112.657C212.09 106.224 209.416 104.452 205.964 104.549Z" fill="white"/>
</g>
<path opacity="0.15" d="M187.601 127.949L180.742 134.607L188.37 143.349C189.121 143.059 189.881 142.737 190.64 142.361V145.937L192.77 148.386L199.338 144.09V141.438L187.601 127.949Z" fill="white"/>
<path opacity="0.15" d="M205.963 104.549C203.224 104.813 200.529 105.5 197.951 106.589L196.074 107.309L209.829 123.052C211.296 119.849 212.084 116.295 212.127 112.678C212.134 111.658 212.05 110.639 211.874 109.639L207.511 104.645C206.999 104.561 206.481 104.529 205.963 104.549Z" fill="white"/>
<path opacity="0.15" d="M191.063 101.619C192.002 100.469 193.091 99.4909 194.29 98.7195C198.175 96.1314 200.351 96.7543 200.858 99.6109L202.031 98.4618L189.899 84.5762V91.4062C188.406 92.6494 186.992 94.0131 185.668 95.4871L191.063 101.619Z" fill="white"/>
<path opacity="0.15" d="M201.641 84.4028C200.643 84.7112 199.665 85.0987 198.714 85.5626V81.0629L197.091 79.2051L193.207 81.7932L192.531 82.2442L204.569 96.0118L208.462 92.2101L201.641 84.4028Z" fill="white"/>
<path opacity="0.15" d="M183.254 122.934L177.953 116.877C178.042 117.7 178.219 118.508 178.479 119.283C178.835 120.391 179.489 121.342 180.347 121.998C181.205 122.654 182.223 122.982 183.254 122.934Z" fill="white"/>
<path d="M189.933 91.405L184.426 87.7645V80.3223L189.933 83.9736V91.405Z" fill="#BA68C8"/>
<path opacity="0.35" d="M189.933 91.405L184.426 87.7645V80.3223L189.933 83.9736V91.405Z" fill="black"/>
<path d="M199.336 136.564L200.19 135.791C200.462 135.544 200.79 135.244 201.128 134.878C201.466 134.513 201.907 134.127 202.338 133.654C202.77 133.182 203.276 132.698 203.727 132.14L204.459 131.281L205.19 130.357C205.444 130.057 205.688 129.724 205.932 129.391C206.176 129.058 206.42 128.714 206.663 128.317C207.123 127.608 207.602 126.888 208.033 126.169C208.465 125.449 208.868 124.644 209.262 123.882C209.656 123.119 209.985 122.324 210.266 121.54C210.548 120.756 210.792 119.994 211.045 119.264C211.139 118.899 211.233 118.533 211.317 118.19C211.364 118.018 211.411 117.846 211.448 117.674C211.486 117.503 211.514 117.331 211.542 117.17C211.674 116.572 211.774 115.966 211.842 115.355C211.908 114.807 211.983 114.334 211.993 113.937C211.993 113.142 212.058 112.691 212.058 112.691C212.058 112.691 212.058 113.142 212.058 113.937C212.008 115.02 211.889 116.096 211.702 117.159C211.702 117.331 211.645 117.492 211.617 117.674C211.589 117.857 211.533 118.018 211.495 118.19C211.411 118.555 211.326 118.92 211.233 119.264C210.998 119.994 210.801 120.789 210.482 121.562C210.163 122.335 209.844 123.141 209.488 123.935C209.131 124.73 208.709 125.514 208.258 126.255C207.808 126.996 207.32 127.748 206.861 128.403C206.617 128.757 206.363 129.09 206.119 129.477C205.875 129.863 205.631 130.142 205.369 130.454L204.618 131.377L203.868 132.215C203.389 132.763 202.929 133.289 202.46 133.697C201.991 134.105 201.578 134.535 201.203 134.889C200.828 135.243 200.499 135.533 200.218 135.759L199.336 136.564Z" fill="white"/>
<path d="M189.934 83.9729L198.715 78.1309V85.5623L198.124 79.3336L189.934 83.9729Z" fill="#FAFAFA"/>
<path d="M190.637 142.361L191.096 148.816L199.334 144.047L190.637 149.793V142.361Z" fill="#FAFAFA"/>
<path d="M206.711 47.0613L207.442 36L208.184 47.0613L217.847 47.8989L208.184 48.7473L207.442 59.8086L206.711 48.7473L197.047 47.8989L206.711 47.0613Z" fill="white"/>
<path d="M214.291 56.1361L214.648 50.7773L215.004 56.1361L219.686 56.5442L215.004 56.9523L214.648 62.3111L214.291 56.9523L209.609 56.5442L214.291 56.1361Z" fill="white"/>
</g>
<defs>
<clipPath id="clip0_1_23534">
<rect width="377" height="211" rx="16" fill="white"/>
</clipPath>
</defs>
</svg>
