<svg width="138" height="30" viewBox="0 0 138 30" fill="none" xmlns="http://www.w3.org/2000/svg">
<path d="M41.5398 21V17.608H44.1158C46.3878 17.608 48.1318 16.44 48.1318 13.992C48.1318 11.432 46.3718 10.28 44.1158 10.28H39.7318V21H41.5398ZM43.9398 11.88C45.1718 11.88 46.2598 12.328 46.2598 13.992C46.2598 15.544 45.1718 16.008 43.9398 16.008H41.5398V11.88H43.9398ZM51.0178 21.16C52.6498 21.16 53.4018 19.944 53.6418 18.92V19.496C53.6418 20.616 54.2978 21 55.1298 21H56.2338V19.464H55.7378C55.4498 19.464 55.3218 19.352 55.3218 19V16.072C55.3218 14.152 54.2338 13.048 52.2978 13.048C50.5698 13.048 49.3538 13.944 48.7458 14.776L49.8178 16.056C50.2658 15.24 51.0818 14.632 52.1218 14.632C53.1938 14.632 53.5458 15.16 53.6098 15.944L51.0018 17.048C49.7378 17.544 48.9698 18.216 48.9698 19.32C48.9698 20.44 49.7378 21.16 51.0178 21.16ZM50.6978 19.048C50.6978 18.648 50.9698 18.376 51.6418 18.072L53.6418 17.176V18.008C53.6418 19.064 52.8418 19.768 51.6578 19.768C51.0018 19.768 50.6978 19.496 50.6978 19.048ZM58.9054 23.672C60.1694 23.672 61.0814 23.112 61.6414 21.544L64.5214 13.208H62.5374L61.1454 17.624L60.5854 19.704L60.0254 17.624L58.6174 13.208H56.6494L59.2254 20.52H60.3294L60.1854 20.952C59.8974 21.816 59.5134 22.088 58.9054 22.088C58.1854 22.088 57.7054 21.64 57.2894 21.048L56.4414 22.488C56.8734 23.096 57.7854 23.672 58.9054 23.672ZM72.3578 21L73.4458 16.952L73.9578 14.536L74.4538 16.952L75.5578 21H77.8458L79.8458 13.208H77.8458L77.0298 17.592L76.6938 19.784L76.2138 17.592L75.0138 13.208H72.8858L71.7018 17.592L71.2058 19.784L70.8698 17.592L70.0698 13.208H68.0698L70.0538 21H72.3578ZM82.7087 12.104V10.28H80.9167V12.104H82.7087ZM82.7087 21V13.208H80.9167V21H82.7087ZM87.4202 21.176C88.5562 21.176 89.3242 20.648 89.6602 20.152L89.1002 18.552C88.8762 19 88.4282 19.496 87.8202 19.496C87.2922 19.496 86.8922 19.288 86.8922 18.44V14.6H89.2762V13.208H86.8922V11.128L85.1002 12.264V13.208H83.8842V14.6H85.1002V18.872C85.1002 20.248 85.9482 21.176 87.4202 21.176ZM92.6618 21V16.632C92.6618 15.352 93.1098 14.504 94.4218 14.504C95.6218 14.504 95.9418 15.16 95.9418 16.12V21H97.7498V15.576C97.7498 13.96 96.8218 13.048 95.3018 13.048C93.7498 13.048 92.9498 14.104 92.6618 15.336V10.28H90.8698V21H92.6618ZM107.829 21.128C110.197 21.128 111.829 19.896 112.581 17.816L111.013 16.664C110.677 18.264 109.685 19.416 107.845 19.416C105.637 19.416 104.597 17.832 104.597 15.624C104.597 13.4 105.637 11.832 107.845 11.832C109.685 11.832 110.677 12.968 111.013 14.584L112.581 13.432C111.829 11.336 110.197 10.12 107.829 10.12C104.533 10.12 102.677 12.536 102.677 15.624C102.677 18.712 104.533 21.128 107.829 21.128ZM115.737 21.16C117.369 21.16 118.121 19.944 118.361 18.92V19.496C118.361 20.616 119.017 21 119.849 21H120.953V19.464H120.457C120.169 19.464 120.041 19.352 120.041 19V16.072C120.041 14.152 118.953 13.048 117.017 13.048C115.289 13.048 114.073 13.944 113.465 14.776L114.537 16.056C114.985 15.24 115.801 14.632 116.841 14.632C117.913 14.632 118.265 15.16 118.329 15.944L115.721 17.048C114.457 17.544 113.689 18.216 113.689 19.32C113.689 20.44 114.457 21.16 115.737 21.16ZM115.417 19.048C115.417 18.648 115.689 18.376 116.361 18.072L118.361 17.176V18.008C118.361 19.064 117.561 19.768 116.377 19.768C115.721 19.768 115.417 19.496 115.417 19.048ZM124.115 21V16.712C124.115 15.416 124.947 14.392 125.843 14.392C126.371 14.392 126.579 14.744 126.579 15.176C126.579 15.624 126.339 16.136 126.083 16.392H127.923C128.067 16.152 128.275 15.592 128.275 14.84C128.275 13.688 127.555 13.048 126.579 13.048C125.187 13.048 124.403 14.168 124.115 15.416V13.208H122.323V21H124.115ZM131.98 21.176C133.532 21.176 134.188 20.136 134.444 18.936V21H136.236V10.28H134.444V15.304C134.188 14.088 133.5 13.048 131.948 13.048C130.06 13.048 128.844 14.6 128.844 17.112C128.844 19.624 130.06 21.176 131.98 21.176ZM130.684 17.112C130.684 15.368 131.532 14.504 132.652 14.504C133.916 14.504 134.444 15.352 134.444 16.632V17.608C134.444 18.888 133.916 19.72 132.668 19.72C131.532 19.72 130.684 18.872 130.684 17.112Z" fill="white"/>
<ellipse cx="15.7951" cy="15" rx="14.881" ry="15" fill="white"/>
<rect x="8.99023" y="12.7188" width="13.004" height="9.49992" rx="1.55736" transform="rotate(-19.5235 8.99023 12.7188)" fill="url(#paint0_linear_285_73259)"/>
<g clip-path="url(#clip0_285_73259)">
<path d="M9.5 12.0259C9.5 11.5974 9.67023 11.1864 9.97325 10.8834C10.2763 10.5804 10.6872 10.4102 11.1158 10.4102H20.8104C21.2389 10.4102 21.6499 10.5804 21.9529 10.8834C22.2559 11.1864 22.4261 11.5974 22.4261 12.0259V12.8338H9.5V12.0259ZM9.5 14.4496V18.489C9.5 18.9175 9.67023 19.3285 9.97325 19.6315C10.2763 19.9345 10.6872 20.1047 11.1158 20.1047H20.8104C21.2389 20.1047 21.6499 19.9345 21.9529 19.6315C22.2559 19.3285 22.4261 18.9175 22.4261 18.489V14.4496H9.5ZM11.9236 16.0653H12.7315C12.9458 16.0653 13.1513 16.1505 13.3028 16.302C13.4543 16.4535 13.5394 16.659 13.5394 16.8732V17.6811C13.5394 17.8954 13.4543 18.1009 13.3028 18.2524C13.1513 18.4039 12.9458 18.489 12.7315 18.489H11.9236C11.7094 18.489 11.5039 18.4039 11.3524 18.2524C11.2009 18.1009 11.1158 17.8954 11.1158 17.6811V16.8732C11.1158 16.659 11.2009 16.4535 11.3524 16.302C11.5039 16.1505 11.7094 16.0653 11.9236 16.0653Z" fill="#8807F7"/>
<rect x="10.2793" y="15.5664" width="3.65981" height="3.4262" fill="#8807F7"/>
</g>
<g clip-path="url(#clip1_285_73259)">
<path opacity="0.5" d="M19.6334 17.9775C19.4564 17.9775 19.2833 17.925 19.1362 17.8267C18.989 17.7284 18.8742 17.5886 18.8065 17.4251C18.7387 17.2616 18.7209 17.0816 18.7555 16.908C18.79 16.7344 18.8752 16.5749 19.0003 16.4497C19.1255 16.3245 19.2849 16.2393 19.4585 16.2047C19.6321 16.1702 19.8121 16.1879 19.9756 16.2556C20.1392 16.3233 20.279 16.438 20.3774 16.5852C20.4757 16.7323 20.5282 16.9053 20.5283 17.0824V17.0825C20.528 17.3198 20.4337 17.5472 20.2659 17.715C20.0981 17.8828 19.8707 17.9772 19.6334 17.9775Z" fill="url(#paint1_linear_285_73259)"/>
<path d="M18.7583 17.9775C18.5813 17.9775 18.4082 17.925 18.261 17.8266C18.1139 17.7283 17.9991 17.5885 17.9314 17.425C17.8637 17.2615 17.8459 17.0815 17.8805 16.9079C17.915 16.7343 18.0003 16.5748 18.1254 16.4496C18.2506 16.3245 18.4101 16.2392 18.5837 16.2047C18.7573 16.1702 18.9372 16.1879 19.1008 16.2556C19.2643 16.3234 19.4041 16.4381 19.5024 16.5853C19.6008 16.7324 19.6533 16.9055 19.6533 17.0825C19.653 17.3198 19.5586 17.5473 19.3909 17.7151C19.2231 17.8829 18.9956 17.9772 18.7583 17.9775Z" fill="url(#paint2_linear_285_73259)"/>
</g>
<defs>
<linearGradient id="paint0_linear_285_73259" x1="15.25" y1="-1.04328" x2="16.5736" y2="22.9601" gradientUnits="userSpaceOnUse">
<stop stop-color="#8807F7"/>
<stop offset="1" stop-color="white"/>
</linearGradient>
<linearGradient id="paint1_linear_285_73259" x1="19.5999" y1="13.5944" x2="19.9404" y2="18.1052" gradientUnits="userSpaceOnUse">
<stop stop-color="#8807F7"/>
<stop offset="1" stop-color="white"/>
</linearGradient>
<linearGradient id="paint2_linear_285_73259" x1="18.7249" y1="13.5944" x2="19.0654" y2="18.1052" gradientUnits="userSpaceOnUse">
<stop stop-color="#8807F7"/>
<stop offset="1" stop-color="white"/>
</linearGradient>
<clipPath id="clip0_285_73259">
<rect width="12.9261" height="12.9261" fill="white" transform="translate(9.5 8.79297)"/>
</clipPath>
<clipPath id="clip1_285_73259">
<rect width="3.1926" height="3.1926" fill="white" transform="translate(17.6016 15.4883)"/>
</clipPath>
</defs>
</svg>
