<svg width="134" height="57" viewBox="0 0 134 57" fill="none" xmlns="http://www.w3.org/2000/svg">
<path d="M15.484 5.2129C20.6044 5.90256 24.4132 7.34051 26.9104 9.52674C29.4121 11.6799 30.387 14.8047 29.8353 18.901C29.2791 23.0304 27.489 25.8332 24.4649 27.3094C21.4452 28.7526 17.3586 29.1271 12.2052 28.433L9.7771 28.106L8.2287 39.6022L0.498499 38.561L5.05693 4.71663C6.78621 4.6132 8.60125 4.62222 10.502 4.7437C12.4028 4.86518 14.0635 5.02158 15.484 5.2129ZM15.0919 11.8701C14.5303 11.7945 13.9664 11.7354 13.4004 11.6928C12.8674 11.6546 12.4005 11.6254 11.9996 11.605L10.6648 21.5155L13.0928 21.8425C15.7687 22.2029 17.8328 22.111 19.2851 21.5666C20.7374 21.0223 21.597 19.7591 21.864 17.777C21.993 16.8189 21.9181 16.0016 21.6393 15.325C21.3935 14.6529 20.9647 14.0906 20.3529 13.6382C19.7787 13.1573 19.0379 12.7884 18.1308 12.5317C17.228 12.2419 16.2151 12.0214 15.0919 11.8701ZM31.6567 29.6907C31.9681 27.3783 32.5864 25.4099 33.5115 23.7855C34.4741 22.1325 35.6114 20.8058 36.9233 19.8053C38.2353 18.8048 39.6746 18.1073 41.2413 17.7129C42.841 17.323 44.4337 17.2348 46.0193 17.4483C49.7193 17.9467 52.4894 19.4802 54.3296 22.0488C56.1744 24.5844 56.8008 28.049 56.2091 32.4427C56.1512 32.8721 56.0702 33.3489 55.966 33.873C55.8662 34.3641 55.7731 34.8056 55.6866 35.1976L38.9379 32.9417C38.8984 34.4836 39.4462 35.785 40.5814 36.8461C41.7166 37.9071 43.3413 38.58 45.4556 38.8647C46.81 39.0472 48.147 39.1095 49.4665 39.0518C50.8235 38.9655 51.9394 38.7963 52.8142 38.5441L52.9977 44.6735C52.5746 44.8183 52.0193 44.9453 51.3319 45.0545C50.6445 45.1637 49.879 45.2288 49.0353 45.2497C48.2202 45.3081 47.3435 45.3246 46.4052 45.2991C45.4669 45.2736 44.5352 45.1986 43.6102 45.074C41.2648 44.7581 39.2633 44.1353 37.6059 43.2058C35.9815 42.2807 34.6713 41.1456 33.6752 39.8006C32.7167 38.4271 32.0678 36.8766 31.7287 35.1492C31.4226 33.4262 31.3986 31.6068 31.6567 29.6907ZM49.3805 29.2022C49.432 28.5701 49.3987 27.9433 49.2806 27.322C49.1955 26.7051 48.9859 26.1388 48.6517 25.6229C48.3507 25.1114 47.9228 24.667 47.3682 24.2896C46.8467 23.9167 46.1564 23.6723 45.2975 23.5567C44.4717 23.4454 43.7414 23.4984 43.1067 23.7156C42.4765 23.8998 41.932 24.1965 41.4733 24.6056C41.0146 25.0147 40.6273 25.5175 40.3116 26.114C40.0333 26.6819 39.8023 27.2731 39.6186 27.8874L49.3805 29.2022ZM78.4426 29.1813C77.8041 28.9271 77.05 28.6574 76.1803 28.3721C75.3151 28.0537 74.3704 27.8256 73.3463 27.6876C72.8839 27.6254 72.3156 27.5993 71.6415 27.6094C71.005 27.5909 70.5148 27.609 70.1711 27.6636L67.4881 47.5837L60.1048 46.5893L63.4285 21.9121C64.8122 21.6276 66.4227 21.4073 68.26 21.2511C70.1348 21.0664 72.1788 21.1231 74.3922 21.4212C74.7886 21.4746 75.2631 21.5721 75.8158 21.7138C76.373 21.8225 76.9257 21.9642 77.4739 22.139C78.0266 22.2807 78.5749 22.4554 79.1187 22.6632C79.6669 22.8379 80.1281 23.0346 80.5023 23.2532L78.4426 29.1813ZM90.6356 33.7497C91.4692 33.0548 92.3237 32.329 93.1992 31.5724C94.1077 30.8203 94.981 30.0802 95.819 29.3523C96.6615 28.5912 97.4477 27.8731 98.1777 27.1978C98.9407 26.527 99.5913 25.9419 100.129 25.4426L108.9 26.624C106.878 28.4033 104.9 30.1045 102.966 31.7275C101.069 33.322 98.9989 34.9602 96.7543 36.6423C97.6252 37.6678 98.5047 38.8793 99.3927 40.277C100.285 41.6417 101.138 43.0515 101.951 44.5064C102.764 45.9613 103.495 47.405 104.143 48.8377C104.79 50.2703 105.322 51.5695 105.737 52.7353L97.263 51.594C96.8502 50.6639 96.3658 49.6401 95.81 48.5226C95.2917 47.3765 94.7216 46.2402 94.0997 45.1138C93.4823 43.9544 92.8086 42.8378 92.0788 41.7641C91.3819 40.6948 90.6651 39.7742 89.9282 39.0023L88.3931 50.3994L81.0098 49.4049L86.0287 12.1414L93.5722 11.9466L90.6356 33.7497ZM117.902 48.9756C119.257 49.158 120.233 49.1549 120.83 48.9663C121.427 48.7776 121.777 48.3034 121.879 47.5436C121.959 46.949 121.665 46.388 120.996 45.8607C120.331 45.3003 119.294 44.6392 117.883 43.8774C116.784 43.2922 115.787 42.7038 114.892 42.1123C114.029 41.5252 113.309 40.8734 112.733 40.1567C112.162 39.407 111.754 38.5617 111.511 37.6208C111.268 36.6799 111.23 35.5818 111.4 34.3265C111.729 31.8819 112.898 30.0717 114.906 28.8959C116.914 27.7201 119.504 27.3458 122.675 27.773C124.261 27.9865 125.76 28.3399 127.174 28.833C128.592 29.293 129.708 29.7461 130.523 30.1921L128.46 35.7667C127.641 35.3537 126.735 34.9626 125.742 34.5934C124.782 34.2287 123.675 33.9618 122.419 33.7927C120.107 33.4812 118.864 33.9697 118.69 35.258C118.65 35.5554 118.664 35.8263 118.732 36.0709C118.8 36.3155 118.967 36.5734 119.233 36.8447C119.504 37.083 119.869 37.3676 120.329 37.6986C120.827 38.0011 121.452 38.3544 122.205 38.7585C123.743 39.5711 125.001 40.3459 125.978 41.083C126.96 41.7869 127.701 42.5258 128.202 43.2997C128.741 44.0449 129.07 44.846 129.19 45.703C129.343 46.5645 129.346 47.5403 129.199 48.6305C128.852 51.2072 127.615 53.025 125.488 54.0839C123.394 55.1473 120.58 55.4409 117.045 54.9648C114.733 54.6533 112.827 54.1948 111.328 53.5893C109.861 52.9882 108.849 52.5155 108.29 52.1711L110.336 46.3421C111.525 47.0067 112.76 47.5766 114.041 48.0519C115.327 48.4942 116.614 48.8021 117.902 48.9756Z" fill="white"/>
</svg>
