<svg width="429" height="287" viewBox="0 0 429 287" fill="none" xmlns="http://www.w3.org/2000/svg">
<path d="M26.282 281V277.822H28.816C30.664 277.822 32.12 276.8 32.12 274.798C32.12 272.642 30.664 271.62 28.816 271.62H25.064V281H26.282ZM28.62 272.698C29.754 272.698 30.86 273.118 30.86 274.798C30.86 276.324 29.754 276.744 28.62 276.744H26.282V272.698H28.62ZM34.4135 281V277.164C34.4135 276.002 35.1975 274.98 36.0655 274.98C36.5555 274.98 36.7655 275.316 36.7655 275.708C36.7655 276.086 36.5835 276.506 36.3595 276.702H37.6895C37.8015 276.534 37.9555 276.114 37.9555 275.54C37.9555 274.588 37.2555 274.07 36.5275 274.07C35.3795 274.07 34.6795 274.98 34.4135 276.03V274.224H33.1955V281H34.4135ZM40.3197 273.132V271.62H39.1017V273.132H40.3197ZM40.3197 281V274.224H39.1017V281H40.3197ZM43.3686 281V277.164C43.3686 276.03 43.8446 275.12 44.8666 275.12C45.8886 275.12 46.3506 275.61 46.3506 276.604V281H47.5686V277.164C47.5686 276.03 48.0446 275.12 49.0806 275.12C50.0886 275.12 50.5646 275.61 50.5646 276.604V281H51.7686V276.31C51.7686 274.882 51.0826 274.084 49.7526 274.084C48.5206 274.084 47.8206 274.994 47.5546 276.072C47.4846 274.798 46.7986 274.084 45.5526 274.084C44.3346 274.084 43.6346 274.98 43.3686 276.016V274.224H42.1506V281H43.3686ZM55.0076 281.14C56.4076 281.14 57.1356 280.132 57.3596 279.236V279.712C57.3596 280.664 57.8636 281 58.5636 281H59.3476V279.894H58.9136C58.6616 279.894 58.5356 279.796 58.5356 279.474V276.688C58.5356 275.078 57.6396 274.084 55.9736 274.084C54.4616 274.084 53.4536 274.938 53.0476 275.638L53.8736 276.492C54.2236 275.75 54.8676 275.19 55.8336 275.19C56.8976 275.19 57.2756 275.778 57.3176 276.576L54.8676 277.668C53.9016 278.102 53.2156 278.676 53.2156 279.586C53.2156 280.482 53.8596 281.14 55.0076 281.14ZM54.4476 279.39C54.4476 278.97 54.7416 278.69 55.3856 278.382L57.3596 277.458V278.396C57.3596 279.376 56.5476 280.132 55.3996 280.132C54.7696 280.132 54.4476 279.852 54.4476 279.39ZM61.976 281V277.164C61.976 276.002 62.76 274.98 63.628 274.98C64.118 274.98 64.328 275.316 64.328 275.708C64.328 276.086 64.146 276.506 63.922 276.702H65.252C65.364 276.534 65.518 276.114 65.518 275.54C65.518 274.588 64.818 274.07 64.09 274.07C62.942 274.07 62.242 274.98 61.976 276.03V274.224H60.758V281H61.976ZM67.5765 283.212C68.5285 283.212 69.2845 282.806 69.7185 281.56L72.3225 274.224H71.0205L69.5785 278.578L69.1025 280.034L68.6265 278.578L67.1705 274.224H65.8685L68.1505 280.636L68.9065 280.622L68.7665 281.056C68.5005 281.882 68.1365 282.148 67.5905 282.148C66.9465 282.148 66.5965 281.742 66.2745 281.196L65.6165 282.12C65.9105 282.68 66.6105 283.212 67.5765 283.212ZM82.6706 281V279.922H77.7566V271.62H76.5386V281H82.6706ZM86.0326 281.14C87.9086 281.14 89.2386 279.754 89.2386 277.612C89.2386 275.47 87.9086 274.084 86.0326 274.084C84.1566 274.084 82.8406 275.47 82.8406 277.612C82.8406 279.754 84.1566 281.14 86.0326 281.14ZM86.0326 280.118C84.8846 280.118 84.0866 279.32 84.0866 277.612C84.0866 275.89 84.8846 275.106 86.0326 275.106C87.1946 275.106 88.0066 275.89 88.0066 277.612C88.0066 279.32 87.1946 280.118 86.0326 280.118ZM93.3591 278.928C94.9551 278.928 96.0331 277.92 96.0331 276.506C96.0331 275.666 95.6411 274.952 94.9971 274.532L96.2431 273.132L94.9831 272.684L94.5631 274.308C94.2131 274.168 93.8071 274.084 93.3591 274.084C91.7631 274.084 90.6851 275.092 90.6851 276.506C90.6851 277.36 91.0771 278.074 91.7491 278.494C91.0911 279.026 90.6851 279.614 90.6851 280.146C90.6851 280.594 90.9091 280.916 91.3431 281.056C90.8251 281.266 90.2511 281.644 90.2511 282.274C90.2511 283.17 91.3431 283.744 93.0791 283.744C95.3611 283.744 96.6211 282.834 96.6211 281.546C96.6211 280.524 95.8511 280.034 94.6191 280.034H92.5751C91.8751 280.034 91.6791 279.852 91.6791 279.488C91.6791 279.194 91.8751 278.872 92.0431 278.648C92.4211 278.83 92.8691 278.928 93.3591 278.928ZM93.3591 277.99C92.5191 277.99 91.8611 277.43 91.8611 276.506C91.8611 275.582 92.5191 275.022 93.3591 275.022C94.2131 275.022 94.8571 275.582 94.8571 276.506C94.8571 277.43 94.2131 277.99 93.3591 277.99ZM93.0791 282.778C91.8611 282.778 91.2311 282.442 91.2311 281.896C91.2311 281.574 91.4691 281.28 91.6931 281.084H94.4651C95.1511 281.084 95.4871 281.28 95.4871 281.714C95.4871 282.386 94.6191 282.778 93.0791 282.778ZM100.388 281.14C102.264 281.14 103.594 279.754 103.594 277.612C103.594 275.47 102.264 274.084 100.388 274.084C98.512 274.084 97.196 275.47 97.196 277.612C97.196 279.754 98.512 281.14 100.388 281.14ZM100.388 280.118C99.24 280.118 98.442 279.32 98.442 277.612C98.442 275.89 99.24 275.106 100.388 275.106C101.55 275.106 102.362 275.89 102.362 277.612C102.362 279.32 101.55 280.118 100.388 280.118ZM109.585 281V275.82L109.431 273.286L110.481 275.61L112.497 279.432H113.687L115.703 275.61L116.739 273.286L116.613 275.82V281H117.831V271.62H116.473L114.037 276.268L113.099 278.326L112.147 276.268L109.725 271.62H108.367V281H109.585ZM121.357 281.14C122.757 281.14 123.485 280.132 123.709 279.236V279.712C123.709 280.664 124.213 281 124.913 281H125.697V279.894H125.263C125.011 279.894 124.885 279.796 124.885 279.474V276.688C124.885 275.078 123.989 274.084 122.323 274.084C120.811 274.084 119.803 274.938 119.397 275.638L120.223 276.492C120.573 275.75 121.217 275.19 122.183 275.19C123.247 275.19 123.625 275.778 123.667 276.576L121.217 277.668C120.251 278.102 119.565 278.676 119.565 279.586C119.565 280.482 120.209 281.14 121.357 281.14ZM120.797 279.39C120.797 278.97 121.091 278.69 121.735 278.382L123.709 277.458V278.396C123.709 279.376 122.897 280.132 121.749 280.132C121.119 280.132 120.797 279.852 120.797 279.39ZM128.326 281V277.164C128.326 276.002 129.11 274.98 129.978 274.98C130.468 274.98 130.678 275.316 130.678 275.708C130.678 276.086 130.496 276.506 130.272 276.702H131.602C131.714 276.534 131.868 276.114 131.868 275.54C131.868 274.588 131.168 274.07 130.44 274.07C129.292 274.07 128.592 274.98 128.326 276.03V274.224H127.108V281H128.326ZM134.232 281V278.634L135.31 277.612L137.508 281H138.978L136.15 276.856L138.936 274.224H137.41L135.184 276.352L134.19 277.332L134.232 276.38V271.62H133.014V281H134.232Z" fill="#3D0072"/>
<g filter="url(#filter0_d_5962_87737)">
<g clip-path="url(#clip0_5962_87737)">
<rect x="24" y="12" width="381" height="235" fill="#8807F7"/>
<path d="M204.191 102.697C204.191 108.8 204.191 114.921 204.226 121.024C204.226 126.291 202.518 131.415 197.625 134.12C191.913 137.252 183.8 136.451 177.43 135.792C177.18 135.792 176.967 135.739 176.736 135.721C176.949 131.326 176.86 126.878 176.647 122.501C176.38 116.558 179.974 109.476 186.362 108.48C193.283 107.394 199.315 106.647 202.589 102.821C202.696 102.715 202.803 102.59 202.892 102.466C203.372 101.807 203.888 101.185 204.404 100.544C204.244 101.238 204.191 101.967 204.191 102.679V102.697Z" fill="white"/>
<path d="M183.237 175.597C188.005 175.9 192.809 175.828 197.578 175.917C203.147 176.006 208.859 176.7 214.232 175.722C221.955 174.316 230.638 169.28 233.503 161.825C236.154 154.921 234.908 146.683 230.335 140.882C230.015 140.491 229.677 140.099 229.303 139.708C224.677 134.655 217.506 132.003 210.674 132.911C202.186 134.032 194.713 140.704 192.507 148.978C191.137 154.138 192.329 159.619 191.528 164.868C190.87 169.209 187.151 173.658 183.219 175.597H183.237Z" fill="white"/>
<path d="M230.947 83C230.52 84.2989 231.036 85.7046 231.588 86.9501C238.669 102.733 257.637 113.409 256.979 132.376C256.676 140.953 252.406 151.024 245.235 156.113C244.719 156.486 244.239 156.807 243.634 156.985C242.264 154.422 242.121 150.686 240.965 147.874C239.506 144.334 237.584 140.864 234.897 138.124C232.317 135.508 229.097 133.996 226.517 131.433C221.107 126.024 217.691 118.622 217.246 110.971C216.606 100.082 222.05 89.2632 230.965 83.0356L230.947 83Z" fill="white"/>
<path d="M181.697 121.078C181.697 121.078 181.448 116.328 186.324 116.559C186.324 116.559 188.103 121.755 181.697 121.078Z" fill="#8807F7" stroke="white" stroke-width="0.748154" stroke-miterlimit="10"/>
<path d="M180.078 161.362C184.54 161.362 188.156 157.745 188.156 153.284C188.156 148.822 184.54 145.206 180.078 145.206C175.617 145.206 172 148.822 172 153.284C172 157.745 175.617 161.362 180.078 161.362Z" fill="white"/>
<g filter="url(#filter1_d_5962_87737)">
<rect x="48" y="28" width="22" height="22" rx="11" fill="white"/>
<path d="M62.75 40.875V42.75H55.25V40.875H54V42.75C54 43.4375 54.5625 44 55.25 44H62.75C63.4375 44 64 43.4375 64 42.75V40.875H62.75ZM62.125 38.375L61.2438 37.4938L59.625 39.1062V34H58.375V39.1062L56.7562 37.4938L55.875 38.375L59 41.5L62.125 38.375Z" fill="black"/>
</g>
</g>
</g>
<defs>
<filter id="filter0_d_5962_87737" x="0" y="0" width="429" height="283" filterUnits="userSpaceOnUse" color-interpolation-filters="sRGB">
<feFlood flood-opacity="0" result="BackgroundImageFix"/>
<feColorMatrix in="SourceAlpha" type="matrix" values="0 0 0 0 0 0 0 0 0 0 0 0 0 0 0 0 0 0 127 0" result="hardAlpha"/>
<feOffset dy="12"/>
<feGaussianBlur stdDeviation="12"/>
<feComposite in2="hardAlpha" operator="out"/>
<feColorMatrix type="matrix" values="0 0 0 0 0.45225 0 0 0 0 0.42 0 0 0 0 0.48 0 0 0 0.15 0"/>
<feBlend mode="normal" in2="BackgroundImageFix" result="effect1_dropShadow_5962_87737"/>
<feBlend mode="normal" in="SourceGraphic" in2="effect1_dropShadow_5962_87737" result="shape"/>
</filter>
<filter id="filter1_d_5962_87737" x="44" y="28" width="30" height="30" filterUnits="userSpaceOnUse" color-interpolation-filters="sRGB">
<feFlood flood-opacity="0" result="BackgroundImageFix"/>
<feColorMatrix in="SourceAlpha" type="matrix" values="0 0 0 0 0 0 0 0 0 0 0 0 0 0 0 0 0 0 127 0" result="hardAlpha"/>
<feOffset dy="4"/>
<feGaussianBlur stdDeviation="2"/>
<feComposite in2="hardAlpha" operator="out"/>
<feColorMatrix type="matrix" values="0 0 0 0 0 0 0 0 0 0 0 0 0 0 0 0 0 0 0.25 0"/>
<feBlend mode="normal" in2="BackgroundImageFix" result="effect1_dropShadow_5962_87737"/>
<feBlend mode="normal" in="SourceGraphic" in2="effect1_dropShadow_5962_87737" result="shape"/>
</filter>
<clipPath id="clip0_5962_87737">
<rect x="24" y="12" width="381" height="235" rx="8" fill="white"/>
</clipPath>
</defs>
</svg>
