<svg width="278" height="586" viewBox="0 0 278 586" fill="none" xmlns="http://www.w3.org/2000/svg">
<g clip-path="url(#clip0_5856_86596)">
<rect width="278" height="657" fill="#0D9488"/>
<g opacity="0.4">
<path d="M418.173 344.086C431.032 264.868 377.237 190.225 298.019 177.366C218.801 164.507 144.158 218.302 131.299 297.52C118.44 376.738 172.235 451.381 251.453 464.24C330.671 477.099 405.314 423.304 418.173 344.086Z" fill="#09675F"/>
<path d="M274.636 149.372C273.766 149.372 272.93 149.03 272.31 148.419C271.69 147.809 271.334 146.979 271.32 146.109V85.8988C271.422 85.0981 271.812 84.3618 272.417 83.8281C273.023 83.2944 273.803 83 274.61 83C275.417 83 276.196 83.2944 276.802 83.8281C277.408 84.3618 277.798 85.0981 277.899 85.8988V146.109C277.899 146.974 277.555 147.804 276.944 148.416C276.332 149.028 275.502 149.372 274.636 149.372Z" fill="#09675F"/>
<path d="M187.257 172.794C186.683 172.792 186.119 172.64 185.62 172.354C185.122 172.068 184.707 171.658 184.415 171.163L154.31 119.005C153.877 118.252 153.762 117.357 153.989 116.518C154.216 115.679 154.767 114.964 155.521 114.532C156.274 114.099 157.169 113.983 158.008 114.21C158.847 114.437 159.562 114.988 159.994 115.742L190.099 167.847C190.543 168.602 190.67 169.501 190.453 170.349C190.236 171.197 189.693 171.924 188.941 172.373C188.42 172.642 187.844 172.786 187.257 172.794Z" fill="#09675F"/>
<path d="M123.311 236.743C122.743 236.728 122.184 236.584 121.68 236.322L69.575 206.217C68.9024 205.742 68.4306 205.033 68.2514 204.23C68.0722 203.426 68.1984 202.584 68.6055 201.869C69.0126 201.153 69.6714 200.614 70.4537 200.358C71.2361 200.101 72.0861 200.145 72.8381 200.48L124.996 230.585C125.615 230.957 126.096 231.522 126.365 232.193C126.634 232.864 126.677 233.604 126.486 234.302C126.295 234.999 125.882 235.615 125.309 236.056C124.736 236.496 124.034 236.738 123.311 236.743Z" fill="#09675F"/>
<path d="M99.7847 324.105H39.7326C39.2657 324.164 38.7915 324.124 38.3416 323.985C37.8918 323.847 37.4766 323.615 37.1235 323.303C36.7704 322.992 36.4875 322.609 36.2938 322.181C36.1001 321.752 36 321.286 36 320.816C36 320.345 36.1001 319.88 36.2938 319.451C36.4875 319.022 36.7704 318.639 37.1235 318.328C37.4766 318.017 37.8918 317.785 38.3416 317.646C38.7915 317.508 39.2657 317.467 39.7326 317.526H99.7847C100.585 317.628 101.322 318.018 101.855 318.624C102.389 319.229 102.684 320.009 102.684 320.816C102.684 321.623 102.389 322.402 101.855 323.008C101.322 323.614 100.585 324.004 99.7847 324.105Z" fill="#09675F"/>
<path d="M71.2076 441.53C70.631 441.539 70.0628 441.391 69.5627 441.104C69.0626 440.817 68.649 440.401 68.3655 439.899C67.9265 439.138 67.8075 438.234 68.0345 437.385C68.2614 436.536 68.8159 435.813 69.5761 435.372L121.681 405.32C122.054 405.035 122.484 404.832 122.942 404.726C123.4 404.619 123.875 404.611 124.337 404.703C124.798 404.794 125.234 404.982 125.617 405.255C126 405.528 126.32 405.879 126.557 406.285C126.794 406.691 126.942 407.142 126.991 407.61C127.04 408.077 126.989 408.55 126.841 408.996C126.694 409.443 126.453 409.852 126.135 410.199C125.817 410.545 125.429 410.819 124.997 411.004L72.8392 441.109C72.3345 441.372 71.7764 441.516 71.2076 441.53Z" fill="#09675F"/>
<path d="M157.157 527.529C156.581 527.521 156.017 527.357 155.526 527.055C155.151 526.842 154.822 526.558 154.558 526.217C154.295 525.876 154.101 525.487 153.988 525.071C153.876 524.655 153.847 524.221 153.903 523.794C153.959 523.366 154.099 522.955 154.315 522.582L184.42 470.424C184.605 469.992 184.88 469.604 185.226 469.286C185.572 468.968 185.982 468.727 186.428 468.58C186.874 468.432 187.347 468.381 187.814 468.43C188.282 468.479 188.734 468.627 189.14 468.864C189.546 469.101 189.897 469.421 190.169 469.804C190.442 470.187 190.63 470.623 190.722 471.084C190.813 471.546 190.805 472.021 190.699 472.479C190.592 472.936 190.39 473.366 190.104 473.74L159.999 525.845C159.727 526.361 159.318 526.791 158.816 527.088C158.314 527.386 157.74 527.538 157.157 527.529Z" fill="#09675F"/>
<path d="M274.636 558.997C273.757 558.997 272.913 558.648 272.292 558.026C271.67 557.404 271.32 556.56 271.32 555.681V495.471C271.422 494.67 271.812 493.934 272.417 493.4C273.023 492.867 273.803 492.572 274.61 492.572C275.417 492.572 276.196 492.867 276.802 493.4C277.408 493.934 277.798 494.67 277.899 495.471V555.681C277.899 556.551 277.557 557.387 276.947 558.007C276.336 558.628 275.506 558.983 274.636 558.997Z" fill="#09675F"/>
<path d="M245.614 285C244.031 281.512 241.769 278.374 238.958 275.772C236.147 273.169 232.846 271.153 229.246 269.843C223.288 267.938 216.932 267.647 210.825 269.001C204.806 270.139 199.289 273.118 195.036 277.527C191.23 282.137 187.996 287.192 185.404 292.579C185.088 293.106 185.404 295.158 186.088 294.369C189.85 290.583 194.298 287.546 199.194 285.421C203.98 282.893 209.129 281.117 214.457 280.158C218.431 279.613 222.474 279.864 226.351 280.895C229.533 281.64 232.649 282.643 235.667 283.895C238.34 285.402 240.861 287.164 243.193 289.158C245.719 290.79 246.404 286.79 245.614 285Z" fill="#D7D6D6"/>
<path d="M274.636 379.21C256.474 379.197 238.644 374.344 222.982 365.148C207.32 355.953 194.392 342.748 185.531 326.894L189.268 324.789C197.747 339.979 210.127 352.631 225.129 361.439C240.132 370.246 257.213 374.889 274.609 374.889C292.006 374.889 309.087 370.246 324.09 361.439C339.092 352.631 351.472 339.979 359.951 324.789L363.74 326.894C354.879 342.748 341.952 355.953 326.29 365.148C310.628 374.344 292.798 379.197 274.636 379.21Z" fill="#D7D6D6"/>
<path d="M178.724 331.846C179.406 330.763 180.181 329.742 181.039 328.793C182.402 327.118 184.061 325.709 185.934 324.635C187.53 323.83 189.184 323.144 190.881 322.583C191.726 322.233 192.61 321.986 193.513 321.846C194.408 321.846 195.46 321.846 196.407 321.846C197.355 321.846 197.513 324.372 196.407 324.688C194.721 325.276 193.085 325.998 191.513 326.846C190.8 327.198 190.114 327.603 189.46 328.056C189.093 328.294 188.757 328.577 188.46 328.898L187.829 329.53C187.571 329.881 187.27 330.2 186.934 330.477H186.618L186.145 330.951L185.302 331.951C184.793 332.61 184.319 333.295 183.881 334.004L183.25 335.056C182.62 336.16 181.736 337.099 180.671 337.793C180.323 338.058 179.898 338.201 179.46 338.201C179.023 338.201 178.598 338.058 178.25 337.793C176.408 335.898 177.671 333.793 178.724 331.846Z" fill="#D7D6D6"/>
</g>
<path d="M42.37 138V131.64H47.2C51.46 131.64 54.73 129.45 54.73 124.86C54.73 120.06 51.43 117.9 47.2 117.9H38.98V138H42.37ZM46.87 120.9C49.18 120.9 51.22 121.74 51.22 124.86C51.22 127.77 49.18 128.64 46.87 128.64H42.37V120.9H46.87ZM63.0841 138.3C67.3441 138.3 70.2241 135.24 70.2241 130.71C70.2241 126.15 67.3441 123.09 63.0841 123.09C58.8841 123.09 56.0041 126.15 56.0041 130.71C56.0041 135.24 58.8841 138.3 63.0841 138.3ZM63.1141 135.51C60.9541 135.51 59.4541 134.07 59.4541 130.71C59.4541 127.32 60.9541 125.88 63.1141 125.88C65.3041 125.88 66.8041 127.32 66.8041 130.71C66.8041 134.07 65.3041 135.51 63.1141 135.51ZM78.8723 138.3C81.9623 138.3 84.3923 136.86 84.3923 133.98C84.3923 131.88 83.1923 130.56 79.9223 129.72L78.1523 129.27C76.1723 128.76 75.3923 128.37 75.3923 127.32C75.3923 126.33 76.2623 125.79 77.5523 125.79C79.4423 125.79 81.0023 126.75 82.0223 128.37L84.0023 126.27C83.1023 124.62 80.9123 123.12 77.7923 123.12C74.4323 123.12 72.2423 124.77 72.2423 127.5C72.2423 130.17 74.3723 131.19 76.6823 131.73L78.6323 132.21C80.2523 132.6 81.3623 132.96 81.3623 134.04C81.3623 135.09 80.4323 135.6 78.9923 135.6C76.3823 135.6 74.5823 134.1 73.7723 132.63L71.7923 134.73C72.9023 137.04 75.7523 138.3 78.8723 138.3ZM90.4113 121.32V117.9H87.0513V121.32H90.4113ZM90.4113 138V123.39H87.0513V138H90.4113ZM99.2453 138.33C101.375 138.33 102.815 137.34 103.445 136.41L102.395 133.41C101.975 134.25 101.135 135.18 99.9953 135.18C99.0053 135.18 98.2553 134.79 98.2553 133.2V126H102.725V123.39H98.2553V119.49L94.8953 121.62V123.39H92.6153V126H94.8953V134.01C94.8953 136.59 96.4853 138.33 99.2453 138.33ZM109.073 121.32V117.9H105.713V121.32H109.073ZM109.073 138V123.39H105.713V138H109.073ZM120.487 138L125.707 123.39H122.047L119.587 131.34L118.417 135.81L117.217 131.34L114.727 123.39H111.007L116.197 138H120.487ZM130.987 121.32V117.9H127.627V121.32H130.987ZM130.987 138V123.39H127.627V138H130.987ZM139.821 138.33C141.951 138.33 143.391 137.34 144.021 136.41L142.971 133.41C142.551 134.25 141.711 135.18 140.571 135.18C139.581 135.18 138.831 134.79 138.831 133.2V126H143.301V123.39H138.831V119.49L135.471 121.62V123.39H133.191V126H135.471V134.01C135.471 136.59 137.061 138.33 139.821 138.33ZM148.29 143.01C150.66 143.01 152.37 141.96 153.42 139.02L158.82 123.39H155.1L152.49 131.67L151.44 135.57L150.39 131.67L147.75 123.39H144.06L148.89 137.1H150.96L150.69 137.91C150.15 139.53 149.43 140.04 148.29 140.04C146.94 140.04 146.04 139.2 145.26 138.09L143.67 140.79C144.48 141.93 146.19 143.01 148.29 143.01Z" fill="white"/>
<path d="M41.536 234.112C43.692 234.112 44.896 232.46 44.966 230.374L45.344 234H46.1V229.296H41.956V230.374H44.826C44.476 231.956 43.762 232.964 41.956 232.964C39.926 232.964 38.988 231.438 38.988 229.296C38.988 227.154 39.954 225.628 42.082 225.628C43.734 225.628 44.658 226.636 44.98 227.966L46.072 227.252C45.442 225.474 44.028 224.48 42.068 224.48C39.24 224.48 37.7 226.552 37.7 229.296C37.7 232.138 39.03 234.112 41.536 234.112ZM49.0951 234V230.164C49.0951 229.002 49.8791 227.98 50.7471 227.98C51.2371 227.98 51.4471 228.316 51.4471 228.708C51.4471 229.086 51.2651 229.506 51.0411 229.702H52.3711C52.4831 229.534 52.6371 229.114 52.6371 228.54C52.6371 227.588 51.9371 227.07 51.2091 227.07C50.0611 227.07 49.3611 227.98 49.0951 229.03V227.224H47.8771V234H49.0951ZM56.4896 234.14C57.9596 234.14 58.8976 233.454 59.4016 232.642L58.6596 231.802C58.3936 232.39 57.8476 233.132 56.4896 233.132C55.2856 233.132 54.4876 232.32 54.4176 230.892H59.4436C59.4716 230.766 59.4996 230.556 59.4996 230.346C59.4996 228.358 58.3376 227.084 56.4196 227.084C54.5576 227.084 53.2416 228.47 53.2416 230.612C53.2416 232.768 54.5716 234.14 56.4896 234.14ZM56.4196 228.106C57.5536 228.106 58.2816 228.764 58.4076 230.01H54.4456C54.5996 228.75 55.3276 228.106 56.4196 228.106ZM62.4842 234.14C63.8842 234.14 64.6122 233.132 64.8362 232.236V232.712C64.8362 233.664 65.3402 234 66.0402 234H66.8242V232.894H66.3902C66.1382 232.894 66.0122 232.796 66.0122 232.474V229.688C66.0122 228.078 65.1162 227.084 63.4502 227.084C61.9382 227.084 60.9302 227.938 60.5242 228.638L61.3502 229.492C61.7002 228.75 62.3442 228.19 63.3102 228.19C64.3742 228.19 64.7522 228.778 64.7942 229.576L62.3442 230.668C61.3782 231.102 60.6922 231.676 60.6922 232.586C60.6922 233.482 61.3362 234.14 62.4842 234.14ZM61.9242 232.39C61.9242 231.97 62.2182 231.69 62.8622 231.382L64.8362 230.458V231.396C64.8362 232.376 64.0242 233.132 62.8762 233.132C62.2462 233.132 61.9242 232.852 61.9242 232.39ZM70.3111 234.154C71.2491 234.154 71.8931 233.72 72.1871 233.258L71.7811 232.054C71.5991 232.474 71.1791 232.978 70.5771 232.978C70.0451 232.978 69.6391 232.768 69.6391 231.9V228.176H71.8651V227.224H69.6391V225.46L68.4211 226.356V227.224H67.3291V228.176H68.4211V232.264C68.4211 233.426 69.2051 234.154 70.3111 234.154ZM77.7693 234.14C79.1693 234.14 79.8973 233.132 80.1213 232.236V232.712C80.1213 233.664 80.6253 234 81.3253 234H82.1093V232.894H81.6753C81.4233 232.894 81.2973 232.796 81.2973 232.474V229.688C81.2973 228.078 80.4013 227.084 78.7353 227.084C77.2233 227.084 76.2153 227.938 75.8093 228.638L76.6353 229.492C76.9853 228.75 77.6293 228.19 78.5953 228.19C79.6593 228.19 80.0373 228.778 80.0793 229.576L77.6293 230.668C76.6633 231.102 75.9773 231.676 75.9773 232.586C75.9773 233.482 76.6213 234.14 77.7693 234.14ZM77.2093 232.39C77.2093 231.97 77.5033 231.69 78.1473 231.382L80.1213 230.458V231.396C80.1213 232.376 79.3093 233.132 78.1613 233.132C77.5313 233.132 77.2093 232.852 77.2093 232.39ZM85.5963 234.154C86.5343 234.154 87.1783 233.72 87.4723 233.258L87.0663 232.054C86.8843 232.474 86.4643 232.978 85.8623 232.978C85.3303 232.978 84.9243 232.768 84.9243 231.9V228.176H87.1503V227.224H84.9243V225.46L83.7063 226.356V227.224H82.6143V228.176H83.7063V232.264C83.7063 233.426 84.4903 234.154 85.5963 234.154ZM90.3678 234.154C91.3058 234.154 91.9498 233.72 92.2438 233.258L91.8378 232.054C91.6558 232.474 91.2358 232.978 90.6338 232.978C90.1018 232.978 89.6958 232.768 89.6958 231.9V228.176H91.9218V227.224H89.6958V225.46L88.4778 226.356V227.224H87.3858V228.176H88.4778V232.264C88.4778 233.426 89.2618 234.154 90.3678 234.154ZM94.6635 226.132V224.62H93.4455V226.132H94.6635ZM94.6635 234V227.224H93.4455V234H94.6635ZM98.7623 234.154C99.7003 234.154 100.344 233.72 100.638 233.258L100.232 232.054C100.05 232.474 99.6303 232.978 99.0283 232.978C98.4963 232.978 98.0903 232.768 98.0903 231.9V228.176H100.316V227.224H98.0903V225.46L96.8723 226.356V227.224H95.7803V228.176H96.8723V232.264C96.8723 233.426 97.6563 234.154 98.7623 234.154ZM103.64 234.14C104.998 234.14 105.726 233.216 105.978 232.152V234H107.182V227.224H105.978V231.074C105.978 232.194 105.502 233.118 104.186 233.118C103.038 233.118 102.688 232.488 102.688 231.62V227.224H101.484V231.914C101.484 233.342 102.31 234.14 103.64 234.14ZM111.398 234.168C112.7 234.168 113.344 233.3 113.582 232.264V234H114.8V224.62H113.582V228.988C113.344 227.952 112.7 227.084 111.398 227.084C109.69 227.084 108.626 228.484 108.626 230.626C108.626 232.768 109.69 234.168 111.398 234.168ZM109.858 230.626C109.858 228.904 110.74 228.12 111.804 228.12C113.106 228.12 113.582 229.03 113.582 230.15V231.116C113.582 232.236 113.106 233.146 111.804 233.146C110.74 233.146 109.858 232.362 109.858 230.626ZM119.531 234.14C121.001 234.14 121.939 233.454 122.443 232.642L121.701 231.802C121.435 232.39 120.889 233.132 119.531 233.132C118.327 233.132 117.529 232.32 117.459 230.892H122.485C122.513 230.766 122.541 230.556 122.541 230.346C122.541 228.358 121.379 227.084 119.461 227.084C117.599 227.084 116.283 228.47 116.283 230.612C116.283 232.768 117.613 234.14 119.531 234.14ZM119.461 228.106C120.595 228.106 121.323 228.764 121.449 230.01H117.487C117.641 228.75 118.369 228.106 119.461 228.106ZM129.456 234.154C130.394 234.154 131.038 233.72 131.332 233.258L130.926 232.054C130.744 232.474 130.324 232.978 129.722 232.978C129.19 232.978 128.784 232.768 128.784 231.9V228.176H131.01V227.224H128.784V225.46L127.566 226.356V227.224H126.474V228.176H127.566V232.264C127.566 233.426 128.35 234.154 129.456 234.154ZM134.771 234.14C136.647 234.14 137.977 232.754 137.977 230.612C137.977 228.47 136.647 227.084 134.771 227.084C132.895 227.084 131.579 228.47 131.579 230.612C131.579 232.754 132.895 234.14 134.771 234.14ZM134.771 233.118C133.623 233.118 132.825 232.32 132.825 230.612C132.825 228.89 133.623 228.106 134.771 228.106C135.933 228.106 136.745 228.89 136.745 230.612C136.745 232.32 135.933 233.118 134.771 233.118ZM145.186 234L146.348 230.038L146.81 228.232L147.244 230.038L148.406 234H150.002L151.752 227.224H150.394L149.526 231.396L149.204 233.118L148.77 231.396L147.552 227.224H146.054L144.822 231.396L144.402 233.118L144.08 231.396L143.198 227.224H141.84L143.604 234H145.186ZM155.21 234.14C157.086 234.14 158.416 232.754 158.416 230.612C158.416 228.47 157.086 227.084 155.21 227.084C153.334 227.084 152.018 228.47 152.018 230.612C152.018 232.754 153.334 234.14 155.21 234.14ZM155.21 233.118C154.062 233.118 153.264 232.32 153.264 230.612C153.264 228.89 154.062 228.106 155.21 228.106C156.372 228.106 157.184 228.89 157.184 230.612C157.184 232.32 156.372 233.118 155.21 233.118ZM161.163 234V230.164C161.163 229.002 161.947 227.98 162.815 227.98C163.305 227.98 163.515 228.316 163.515 228.708C163.515 229.086 163.333 229.506 163.109 229.702H164.439C164.551 229.534 164.705 229.114 164.705 228.54C164.705 227.588 164.005 227.07 163.277 227.07C162.129 227.07 161.429 227.98 161.163 229.03V227.224H159.945V234H161.163ZM167.07 234V231.634L168.148 230.612L170.346 234H171.816L168.988 229.856L171.774 227.224H170.248L168.022 229.352L167.028 230.332L167.07 229.38V224.62H165.852V234H167.07ZM177.369 234.14C178.769 234.14 179.497 233.132 179.721 232.236V232.712C179.721 233.664 180.225 234 180.925 234H181.709V232.894H181.275C181.023 232.894 180.897 232.796 180.897 232.474V229.688C180.897 228.078 180.001 227.084 178.335 227.084C176.823 227.084 175.815 227.938 175.409 228.638L176.235 229.492C176.585 228.75 177.229 228.19 178.195 228.19C179.259 228.19 179.637 228.778 179.679 229.576L177.229 230.668C176.263 231.102 175.577 231.676 175.577 232.586C175.577 233.482 176.221 234.14 177.369 234.14ZM176.809 232.39C176.809 231.97 177.103 231.69 177.747 231.382L179.721 230.458V231.396C179.721 232.376 178.909 233.132 177.761 233.132C177.131 233.132 176.809 232.852 176.809 232.39ZM184.337 234V224.62H183.119V234H184.337ZM188.744 234L189.906 230.038L190.368 228.232L190.802 230.038L191.964 234H193.56L195.31 227.224H193.952L193.084 231.396L192.762 233.118L192.328 231.396L191.11 227.224H189.612L188.38 231.396L187.96 233.118L187.638 231.396L186.756 227.224H185.398L187.162 234H188.744ZM197.685 234.14C199.085 234.14 199.813 233.132 200.037 232.236V232.712C200.037 233.664 200.541 234 201.241 234H202.025V232.894H201.591C201.339 232.894 201.213 232.796 201.213 232.474V229.688C201.213 228.078 200.317 227.084 198.651 227.084C197.139 227.084 196.131 227.938 195.725 228.638L196.551 229.492C196.901 228.75 197.545 228.19 198.511 228.19C199.575 228.19 199.953 228.778 199.995 229.576L197.545 230.668C196.579 231.102 195.893 231.676 195.893 232.586C195.893 233.482 196.537 234.14 197.685 234.14ZM197.125 232.39C197.125 231.97 197.419 231.69 198.063 231.382L200.037 230.458V231.396C200.037 232.376 199.225 233.132 198.077 233.132C197.447 233.132 197.125 232.852 197.125 232.39ZM204.239 236.212C205.191 236.212 205.947 235.806 206.381 234.56L208.985 227.224H207.683L206.241 231.578L205.765 233.034L205.289 231.578L203.833 227.224H202.531L204.813 233.636L205.569 233.622L205.429 234.056C205.163 234.882 204.799 235.148 204.253 235.148C203.609 235.148 203.259 234.742 202.937 234.196L202.279 235.12C202.573 235.68 203.273 236.212 204.239 236.212ZM212.452 234.14C213.768 234.14 214.916 233.538 214.916 232.194C214.916 231.256 214.412 230.626 212.886 230.262L212.018 230.038C211.094 229.814 210.646 229.604 210.646 229.002C210.646 228.428 211.15 228.12 211.85 228.12C212.816 228.12 213.46 228.624 213.796 229.422L214.72 228.736C214.342 227.84 213.348 227.084 211.92 227.084C210.45 227.084 209.498 227.84 209.498 229.072C209.498 230.318 210.548 230.78 211.514 231.004L212.41 231.214C213.208 231.396 213.824 231.592 213.824 232.208C213.824 232.81 213.292 233.118 212.494 233.118C211.15 233.118 210.408 232.348 210.17 231.578L209.288 232.264C209.75 233.524 211.038 234.14 212.452 234.14ZM40.5 266L41.662 262.038L42.124 260.232L42.558 262.038L43.72 266H45.316L47.066 259.224H45.708L44.84 263.396L44.518 265.118L44.084 263.396L42.866 259.224H41.368L40.136 263.396L39.716 265.118L39.394 263.396L38.512 259.224H37.154L38.918 266H40.5ZM49.3686 258.132V256.62H48.1506V258.132H49.3686ZM49.3686 266V259.224H48.1506V266H49.3686ZM52.4174 266V262.164C52.4174 261.03 52.8934 260.12 54.1954 260.12C55.3434 260.12 55.6934 260.736 55.6934 261.618V266H56.8974V261.324C56.8974 259.882 56.0714 259.084 54.7414 259.084C53.4114 259.084 52.6834 259.98 52.4174 261.03V259.224H51.1994V266H52.4174ZM61.1322 266.14C62.4482 266.14 63.5962 265.538 63.5962 264.194C63.5962 263.256 63.0922 262.626 61.5662 262.262L60.6982 262.038C59.7742 261.814 59.3262 261.604 59.3262 261.002C59.3262 260.428 59.8302 260.12 60.5302 260.12C61.4962 260.12 62.1402 260.624 62.4762 261.422L63.4002 260.736C63.0222 259.84 62.0282 259.084 60.6002 259.084C59.1302 259.084 58.1782 259.84 58.1782 261.072C58.1782 262.318 59.2282 262.78 60.1942 263.004L61.0902 263.214C61.8882 263.396 62.5042 263.592 62.5042 264.208C62.5042 264.81 61.9722 265.118 61.1742 265.118C59.8302 265.118 59.0882 264.348 58.8502 263.578L57.9682 264.264C58.4302 265.524 59.7182 266.14 61.1322 266.14ZM69.4842 266.14C70.8842 266.14 71.6122 265.132 71.8362 264.236V264.712C71.8362 265.664 72.3402 266 73.0402 266H73.8242V264.894H73.3902C73.1382 264.894 73.0122 264.796 73.0122 264.474V261.688C73.0122 260.078 72.1162 259.084 70.4502 259.084C68.9382 259.084 67.9302 259.938 67.5242 260.638L68.3502 261.492C68.7002 260.75 69.3442 260.19 70.3102 260.19C71.3742 260.19 71.7522 260.778 71.7942 261.576L69.3442 262.668C68.3782 263.102 67.6922 263.676 67.6922 264.586C67.6922 265.482 68.3362 266.14 69.4842 266.14ZM68.9242 264.39C68.9242 263.97 69.2182 263.69 69.8622 263.382L71.8362 262.458V263.396C71.8362 264.376 71.0242 265.132 69.8762 265.132C69.2462 265.132 68.9242 264.852 68.9242 264.39ZM76.4525 266V262.164C76.4525 261.03 76.9285 260.12 78.2305 260.12C79.3785 260.12 79.7285 260.736 79.7285 261.618V266H80.9325V261.324C80.9325 259.882 80.1065 259.084 78.7765 259.084C77.4465 259.084 76.7185 259.98 76.4525 261.03V259.224H75.2345V266H76.4525ZM85.1071 266.168C86.4091 266.168 87.0531 265.3 87.2911 264.264V266H88.5091V256.62H87.2911V260.988C87.0531 259.952 86.4091 259.084 85.1071 259.084C83.3991 259.084 82.3351 260.484 82.3351 262.626C82.3351 264.768 83.3991 266.168 85.1071 266.168ZM83.5671 262.626C83.5671 260.904 84.4491 260.12 85.5131 260.12C86.8151 260.12 87.2911 261.03 87.2911 262.15V263.116C87.2911 264.236 86.8151 265.146 85.5131 265.146C84.4491 265.146 83.5671 264.362 83.5671 262.626ZM94.8318 266.14C96.2318 266.14 96.9598 265.132 97.1838 264.236V264.712C97.1838 265.664 97.6878 266 98.3878 266H99.1718V264.894H98.7378C98.4858 264.894 98.3598 264.796 98.3598 264.474V261.688C98.3598 260.078 97.4638 259.084 95.7978 259.084C94.2858 259.084 93.2778 259.938 92.8718 260.638L93.6978 261.492C94.0478 260.75 94.6918 260.19 95.6578 260.19C96.7218 260.19 97.0998 260.778 97.1418 261.576L94.6918 262.668C93.7258 263.102 93.0398 263.676 93.0398 264.586C93.0398 265.482 93.6838 266.14 94.8318 266.14ZM94.2718 264.39C94.2718 263.97 94.5658 263.69 95.2098 263.382L97.1838 262.458V263.396C97.1838 264.376 96.3718 265.132 95.2238 265.132C94.5938 265.132 94.2718 264.852 94.2718 264.39ZM102.659 266.154C103.597 266.154 104.241 265.72 104.535 265.258L104.129 264.054C103.947 264.474 103.527 264.978 102.925 264.978C102.393 264.978 101.987 264.768 101.987 263.9V260.176H104.213V259.224H101.987V257.46L100.769 258.356V259.224H99.6768V260.176H100.769V264.264C100.769 265.426 101.553 266.154 102.659 266.154ZM109.151 266L110.173 263.382H114.275L115.297 266H116.641L112.861 256.62H111.643L107.863 266H109.151ZM111.755 259.336L112.231 257.866L112.693 259.336L113.855 262.304H110.593L111.755 259.336ZM118.658 266V262.164C118.658 261.002 119.442 259.98 120.31 259.98C120.8 259.98 121.01 260.316 121.01 260.708C121.01 261.086 120.828 261.506 120.604 261.702H121.934C122.046 261.534 122.2 261.114 122.2 260.54C122.2 259.588 121.5 259.07 120.772 259.07C119.624 259.07 118.924 259.98 118.658 261.03V259.224H117.44V266H118.658ZM125.562 266.168C126.864 266.168 127.508 265.3 127.746 264.264V266H128.964V256.62H127.746V260.988C127.508 259.952 126.864 259.084 125.562 259.084C123.854 259.084 122.79 260.484 122.79 262.626C122.79 264.768 123.854 266.168 125.562 266.168ZM124.022 262.626C124.022 260.904 124.904 260.12 125.968 260.12C127.27 260.12 127.746 261.03 127.746 262.15V263.116C127.746 264.236 127.27 265.146 125.968 265.146C124.904 265.146 124.022 264.362 124.022 262.626ZM132.029 258.132V256.62H130.811V258.132H132.029ZM132.029 266V259.224H130.811V266H132.029ZM135.078 266V256.62H133.86V266H135.078ZM138.126 266V256.62H136.908V266H138.126ZM141.357 266.14C142.757 266.14 143.485 265.132 143.709 264.236V264.712C143.709 265.664 144.213 266 144.913 266H145.697V264.894H145.263C145.011 264.894 144.885 264.796 144.885 264.474V261.688C144.885 260.078 143.989 259.084 142.323 259.084C140.811 259.084 139.803 259.938 139.397 260.638L140.223 261.492C140.573 260.75 141.217 260.19 142.183 260.19C143.247 260.19 143.625 260.778 143.667 261.576L141.217 262.668C140.251 263.102 139.565 263.676 139.565 264.586C139.565 265.482 140.209 266.14 141.357 266.14ZM140.797 264.39C140.797 263.97 141.091 263.69 141.735 263.382L143.709 262.458V263.396C143.709 264.376 142.897 265.132 141.749 265.132C141.119 265.132 140.797 264.852 140.797 264.39ZM152.76 266L153.922 262.038L154.384 260.232L154.818 262.038L155.98 266H157.576L159.326 259.224H157.968L157.1 263.396L156.778 265.118L156.344 263.396L155.126 259.224H153.628L152.396 263.396L151.976 265.118L151.654 263.396L150.772 259.224H149.414L151.178 266H152.76ZM162.953 266.14C164.423 266.14 165.361 265.454 165.865 264.642L165.123 263.802C164.857 264.39 164.311 265.132 162.953 265.132C161.749 265.132 160.951 264.32 160.881 262.892H165.907C165.935 262.766 165.963 262.556 165.963 262.346C165.963 260.358 164.801 259.084 162.883 259.084C161.021 259.084 159.705 260.47 159.705 262.612C159.705 264.768 161.035 266.14 162.953 266.14ZM162.883 260.106C164.017 260.106 164.745 260.764 164.871 262.01H160.909C161.063 260.75 161.791 260.106 162.883 260.106ZM172.01 266.14C173.41 266.14 174.138 265.132 174.362 264.236V264.712C174.362 265.664 174.866 266 175.566 266H176.35V264.894H175.916C175.664 264.894 175.538 264.796 175.538 264.474V261.688C175.538 260.078 174.642 259.084 172.976 259.084C171.464 259.084 170.456 259.938 170.05 260.638L170.876 261.492C171.226 260.75 171.87 260.19 172.836 260.19C173.9 260.19 174.278 260.778 174.32 261.576L171.87 262.668C170.904 263.102 170.218 263.676 170.218 264.586C170.218 265.482 170.862 266.14 172.01 266.14ZM171.45 264.39C171.45 263.97 171.744 263.69 172.388 263.382L174.362 262.458V263.396C174.362 264.376 173.55 265.132 172.402 265.132C171.772 265.132 171.45 264.852 171.45 264.39ZM178.978 266V262.164C178.978 261.002 179.762 259.98 180.63 259.98C181.12 259.98 181.33 260.316 181.33 260.708C181.33 261.086 181.148 261.506 180.924 261.702H182.254C182.366 261.534 182.52 261.114 182.52 260.54C182.52 259.588 181.82 259.07 181.092 259.07C179.944 259.07 179.244 259.98 178.978 261.03V259.224H177.76V266H178.978ZM186.372 266.14C187.842 266.14 188.78 265.454 189.284 264.642L188.542 263.802C188.276 264.39 187.73 265.132 186.372 265.132C185.168 265.132 184.37 264.32 184.3 262.892H189.326C189.354 262.766 189.382 262.556 189.382 262.346C189.382 260.358 188.22 259.084 186.302 259.084C184.44 259.084 183.124 260.47 183.124 262.612C183.124 264.768 184.454 266.14 186.372 266.14ZM186.302 260.106C187.436 260.106 188.164 260.764 188.29 262.01H184.328C184.482 260.75 185.21 260.106 186.302 260.106ZM195.429 266.14C196.829 266.14 197.557 265.132 197.781 264.236V264.712C197.781 265.664 198.285 266 198.985 266H199.769V264.894H199.335C199.083 264.894 198.957 264.796 198.957 264.474V261.688C198.957 260.078 198.061 259.084 196.395 259.084C194.883 259.084 193.875 259.938 193.469 260.638L194.295 261.492C194.645 260.75 195.289 260.19 196.255 260.19C197.319 260.19 197.697 260.778 197.739 261.576L195.289 262.668C194.323 263.102 193.637 263.676 193.637 264.586C193.637 265.482 194.281 266.14 195.429 266.14ZM194.869 264.39C194.869 263.97 195.163 263.69 195.807 263.382L197.781 262.458V263.396C197.781 264.376 196.969 265.132 195.821 265.132C195.191 265.132 194.869 264.852 194.869 264.39ZM202.398 266V256.62H201.18V266H202.398ZM206.805 266L207.967 262.038L208.429 260.232L208.863 262.038L210.025 266H211.621L213.371 259.224H212.013L211.145 263.396L210.823 265.118L210.389 263.396L209.171 259.224H207.673L206.441 263.396L206.021 265.118L205.699 263.396L204.817 259.224H203.459L205.223 266H206.805ZM215.746 266.14C217.146 266.14 217.874 265.132 218.098 264.236V264.712C218.098 265.664 218.602 266 219.302 266H220.086V264.894H219.652C219.4 264.894 219.274 264.796 219.274 264.474V261.688C219.274 260.078 218.378 259.084 216.712 259.084C215.2 259.084 214.192 259.938 213.786 260.638L214.612 261.492C214.962 260.75 215.606 260.19 216.572 260.19C217.636 260.19 218.014 260.778 218.056 261.576L215.606 262.668C214.64 263.102 213.954 263.676 213.954 264.586C213.954 265.482 214.598 266.14 215.746 266.14ZM215.186 264.39C215.186 263.97 215.48 263.69 216.124 263.382L218.098 262.458V263.396C218.098 264.376 217.286 265.132 216.138 265.132C215.508 265.132 215.186 264.852 215.186 264.39ZM222.299 268.212C223.251 268.212 224.007 267.806 224.441 266.56L227.045 259.224H225.743L224.301 263.578L223.825 265.034L223.349 263.578L221.893 259.224H220.591L222.873 265.636L223.629 265.622L223.489 266.056C223.223 266.882 222.859 267.148 222.313 267.148C221.669 267.148 221.319 266.742 220.997 266.196L220.339 267.12C220.633 267.68 221.333 268.212 222.299 268.212ZM230.513 266.14C231.829 266.14 232.977 265.538 232.977 264.194C232.977 263.256 232.473 262.626 230.947 262.262L230.079 262.038C229.155 261.814 228.707 261.604 228.707 261.002C228.707 260.428 229.211 260.12 229.911 260.12C230.877 260.12 231.521 260.624 231.857 261.422L232.781 260.736C232.403 259.84 231.409 259.084 229.981 259.084C228.511 259.084 227.559 259.84 227.559 261.072C227.559 262.318 228.609 262.78 229.575 263.004L230.471 263.214C231.269 263.396 231.885 263.592 231.885 264.208C231.885 264.81 231.353 265.118 230.555 265.118C229.211 265.118 228.469 264.348 228.231 263.578L227.349 264.264C227.811 265.524 229.099 266.14 230.513 266.14ZM39.142 298V296.264C39.38 297.3 40.024 298.168 41.326 298.168C43.048 298.168 44.112 296.768 44.112 294.626C44.112 292.484 43.048 291.084 41.326 291.084C40.024 291.084 39.38 291.952 39.142 292.988V288.62H37.924V298H39.142ZM39.142 295.116V294.15C39.142 293.03 39.618 292.12 40.906 292.12C41.998 292.12 42.88 292.904 42.88 294.626C42.88 296.362 41.998 297.146 40.906 297.146C39.618 297.146 39.142 296.236 39.142 295.116ZM46.7983 290.132V288.62H45.5802V290.132H46.7983ZM46.7983 298V291.224H45.5802V298H46.7983ZM51.2751 295.928C52.8711 295.928 53.9491 294.92 53.9491 293.506C53.9491 292.666 53.5571 291.952 52.9131 291.532L54.1591 290.132L52.8991 289.684L52.4791 291.308C52.1291 291.168 51.7231 291.084 51.2751 291.084C49.6791 291.084 48.6011 292.092 48.6011 293.506C48.6011 294.36 48.9931 295.074 49.6651 295.494C49.0071 296.026 48.6011 296.614 48.6011 297.146C48.6011 297.594 48.8251 297.916 49.2591 298.056C48.7411 298.266 48.1671 298.644 48.1671 299.274C48.1671 300.17 49.2591 300.744 50.9951 300.744C53.2771 300.744 54.5371 299.834 54.5371 298.546C54.5371 297.524 53.7671 297.034 52.5351 297.034H50.4911C49.7911 297.034 49.5951 296.852 49.5951 296.488C49.5951 296.194 49.7911 295.872 49.9591 295.648C50.3371 295.83 50.7851 295.928 51.2751 295.928ZM51.2751 294.99C50.4351 294.99 49.7771 294.43 49.7771 293.506C49.7771 292.582 50.4351 292.022 51.2751 292.022C52.1291 292.022 52.7731 292.582 52.7731 293.506C52.7731 294.43 52.1291 294.99 51.2751 294.99ZM50.9951 299.778C49.7771 299.778 49.1471 299.442 49.1471 298.896C49.1471 298.574 49.3851 298.28 49.6091 298.084H52.3811C53.0671 298.084 53.4031 298.28 53.4031 298.714C53.4031 299.386 52.5351 299.778 50.9951 299.778ZM61.5033 298.14C63.3793 298.14 64.7093 296.754 64.7093 294.612C64.7093 292.47 63.3793 291.084 61.5033 291.084C59.6273 291.084 58.3113 292.47 58.3113 294.612C58.3113 296.754 59.6273 298.14 61.5033 298.14ZM61.5033 297.118C60.3553 297.118 59.5573 296.32 59.5573 294.612C59.5573 292.89 60.3553 292.106 61.5033 292.106C62.6653 292.106 63.4773 292.89 63.4773 294.612C63.4773 296.32 62.6653 297.118 61.5033 297.118ZM67.4565 298V294.164C67.4565 293.03 67.9325 292.12 69.2345 292.12C70.3825 292.12 70.7325 292.736 70.7325 293.618V298H71.9365V293.324C71.9365 291.882 71.1105 291.084 69.7805 291.084C68.4505 291.084 67.7225 291.98 67.4565 293.03V291.224H66.2385V298H67.4565ZM78.0385 300.604V296.25C78.2765 297.272 78.9205 298.14 80.2225 298.14C81.9305 298.14 82.9945 296.74 82.9945 294.598C82.9945 292.456 81.9305 291.07 80.2225 291.07C78.9205 291.07 78.2765 291.938 78.0385 292.96V291.224H76.8205V300.604H78.0385ZM78.0385 295.088V294.122C78.0385 293.002 78.5145 292.092 79.8025 292.092C80.8805 292.092 81.7625 292.876 81.7625 294.598C81.7625 296.334 80.8805 297.118 79.8025 297.118C78.5145 297.118 78.0385 296.208 78.0385 295.088ZM87.2884 298.14C89.1644 298.14 90.4944 296.754 90.4944 294.612C90.4944 292.47 89.1644 291.084 87.2884 291.084C85.4124 291.084 84.0964 292.47 84.0964 294.612C84.0964 296.754 85.4124 298.14 87.2884 298.14ZM87.2884 297.118C86.1404 297.118 85.3424 296.32 85.3424 294.612C85.3424 292.89 86.1404 292.106 87.2884 292.106C88.4504 292.106 89.2624 292.89 89.2624 294.612C89.2624 296.32 88.4504 297.118 87.2884 297.118ZM94.5462 298.14C95.8622 298.14 97.0102 297.538 97.0102 296.194C97.0102 295.256 96.5062 294.626 94.9802 294.262L94.1122 294.038C93.1882 293.814 92.7402 293.604 92.7402 293.002C92.7402 292.428 93.2442 292.12 93.9442 292.12C94.9102 292.12 95.5542 292.624 95.8902 293.422L96.8142 292.736C96.4362 291.84 95.4422 291.084 94.0142 291.084C92.5442 291.084 91.5922 291.84 91.5922 293.072C91.5922 294.318 92.6422 294.78 93.6082 295.004L94.5042 295.214C95.3022 295.396 95.9182 295.592 95.9182 296.208C95.9182 296.81 95.3862 297.118 94.5882 297.118C93.2442 297.118 92.5022 296.348 92.2642 295.578L91.3822 296.264C91.8442 297.524 93.1322 298.14 94.5462 298.14ZM99.64 290.132V288.62H98.422V290.132H99.64ZM99.64 298V291.224H98.422V298H99.64ZM103.739 298.154C104.677 298.154 105.321 297.72 105.615 297.258L105.209 296.054C105.027 296.474 104.607 296.978 104.005 296.978C103.473 296.978 103.067 296.768 103.067 295.9V292.176H105.293V291.224H103.067V289.46L101.849 290.356V291.224H100.757V292.176H101.849V296.264C101.849 297.426 102.633 298.154 103.739 298.154ZM108.035 290.132V288.62H106.817V290.132H108.035ZM108.035 298V291.224H106.817V298H108.035ZM113.015 298L115.479 291.224H114.177L112.847 295.242L112.273 297.104L111.685 295.242L110.341 291.224H109.025L111.475 298H113.015ZM117.701 290.132V288.62H116.483V290.132H117.701ZM117.701 298V291.224H116.483V298H117.701ZM121.799 298.154C122.737 298.154 123.381 297.72 123.675 297.258L123.269 296.054C123.087 296.474 122.667 296.978 122.065 296.978C121.533 296.978 121.127 296.768 121.127 295.9V292.176H123.353V291.224H121.127V289.46L119.909 290.356V291.224H118.817V292.176H119.909V296.264C119.909 297.426 120.693 298.154 121.799 298.154ZM125.475 300.212C126.427 300.212 127.183 299.806 127.617 298.56L130.221 291.224H128.919L127.477 295.578L127.001 297.034L126.525 295.578L125.069 291.224H123.767L126.049 297.636L126.805 297.622L126.665 298.056C126.399 298.882 126.035 299.148 125.489 299.148C124.845 299.148 124.495 298.742 124.173 298.196L123.515 299.12C123.809 299.68 124.509 300.212 125.475 300.212ZM135.697 298.14C137.097 298.14 137.825 297.132 138.049 296.236V296.712C138.049 297.664 138.553 298 139.253 298H140.037V296.894H139.603C139.351 296.894 139.225 296.796 139.225 296.474V293.688C139.225 292.078 138.329 291.084 136.663 291.084C135.151 291.084 134.143 291.938 133.737 292.638L134.563 293.492C134.913 292.75 135.557 292.19 136.523 292.19C137.587 292.19 137.965 292.778 138.007 293.576L135.557 294.668C134.591 295.102 133.905 295.676 133.905 296.586C133.905 297.482 134.549 298.14 135.697 298.14ZM135.137 296.39C135.137 295.97 135.431 295.69 136.075 295.382L138.049 294.458V295.396C138.049 296.376 137.237 297.132 136.089 297.132C135.459 297.132 135.137 296.852 135.137 296.39ZM142.665 298V294.164C142.665 293.03 143.141 292.12 144.443 292.12C145.591 292.12 145.941 292.736 145.941 293.618V298H147.145V293.324C147.145 291.882 146.319 291.084 144.989 291.084C143.659 291.084 142.931 291.98 142.665 293.03V291.224H141.447V298H142.665ZM151.32 298.168C152.622 298.168 153.266 297.3 153.504 296.264V298H154.722V288.62H153.504V292.988C153.266 291.952 152.622 291.084 151.32 291.084C149.612 291.084 148.548 292.484 148.548 294.626C148.548 296.768 149.612 298.168 151.32 298.168ZM149.78 294.626C149.78 292.904 150.662 292.12 151.726 292.12C153.028 292.12 153.504 293.03 153.504 294.15V295.116C153.504 296.236 153.028 297.146 151.726 297.146C150.662 297.146 149.78 296.362 149.78 294.626ZM161.045 298.14C162.445 298.14 163.173 297.132 163.397 296.236V296.712C163.397 297.664 163.901 298 164.601 298H165.385V296.894H164.951C164.699 296.894 164.573 296.796 164.573 296.474V293.688C164.573 292.078 163.677 291.084 162.011 291.084C160.499 291.084 159.491 291.938 159.085 292.638L159.911 293.492C160.261 292.75 160.905 292.19 161.871 292.19C162.935 292.19 163.313 292.778 163.355 293.576L160.905 294.668C159.939 295.102 159.253 295.676 159.253 296.586C159.253 297.482 159.897 298.14 161.045 298.14ZM160.485 296.39C160.485 295.97 160.779 295.69 161.423 295.382L163.397 294.458V295.396C163.397 296.376 162.585 297.132 161.437 297.132C160.807 297.132 160.485 296.852 160.485 296.39ZM172.685 298.14C174.449 298.14 175.485 297.118 175.807 295.76L174.617 295.27C174.477 296.348 173.917 297.132 172.699 297.132C171.467 297.132 170.725 296.208 170.725 294.612C170.725 293.016 171.467 292.106 172.699 292.106C173.917 292.106 174.477 292.876 174.617 293.954L175.807 293.464C175.485 292.106 174.449 291.084 172.685 291.084C170.739 291.084 169.493 292.47 169.493 294.612C169.493 296.768 170.739 298.14 172.685 298.14ZM178.709 298.14C180.109 298.14 180.837 297.132 181.061 296.236V296.712C181.061 297.664 181.565 298 182.265 298H183.049V296.894H182.615C182.363 296.894 182.237 296.796 182.237 296.474V293.688C182.237 292.078 181.341 291.084 179.675 291.084C178.163 291.084 177.155 291.938 176.749 292.638L177.575 293.492C177.925 292.75 178.569 292.19 179.535 292.19C180.599 292.19 180.977 292.778 181.019 293.576L178.569 294.668C177.603 295.102 176.917 295.676 176.917 296.586C176.917 297.482 177.561 298.14 178.709 298.14ZM178.149 296.39C178.149 295.97 178.443 295.69 179.087 295.382L181.061 294.458V295.396C181.061 296.376 180.249 297.132 179.101 297.132C178.471 297.132 178.149 296.852 178.149 296.39ZM185.677 298V294.164C185.677 293.03 186.153 292.12 187.455 292.12C188.603 292.12 188.953 292.736 188.953 293.618V298H190.157V293.324C190.157 291.882 189.331 291.084 188.001 291.084C186.671 291.084 185.943 291.98 185.677 293.03V291.224H184.459V298H185.677ZM197.435 298.168C198.737 298.168 199.381 297.3 199.619 296.264V298H200.837V288.62H199.619V292.988C199.381 291.952 198.737 291.084 197.435 291.084C195.727 291.084 194.663 292.484 194.663 294.626C194.663 296.768 195.727 298.168 197.435 298.168ZM195.895 294.626C195.895 292.904 196.777 292.12 197.841 292.12C199.143 292.12 199.619 293.03 199.619 294.15V295.116C199.619 296.236 199.143 297.146 197.841 297.146C196.777 297.146 195.895 296.362 195.895 294.626ZM205.4 298.14C207.276 298.14 208.606 296.754 208.606 294.612C208.606 292.47 207.276 291.084 205.4 291.084C203.524 291.084 202.208 292.47 202.208 294.612C202.208 296.754 203.524 298.14 205.4 298.14ZM205.4 297.118C204.252 297.118 203.454 296.32 203.454 294.612C203.454 292.89 204.252 292.106 205.4 292.106C206.562 292.106 207.374 292.89 207.374 294.612C207.374 296.32 206.562 297.118 205.4 297.118ZM39.142 330V326.164C39.142 325.03 39.618 324.12 40.64 324.12C41.662 324.12 42.124 324.61 42.124 325.604V330H43.342V326.164C43.342 325.03 43.818 324.12 44.854 324.12C45.862 324.12 46.338 324.61 46.338 325.604V330H47.542V325.31C47.542 323.882 46.856 323.084 45.526 323.084C44.294 323.084 43.594 323.994 43.328 325.072C43.258 323.798 42.572 323.084 41.326 323.084C40.108 323.084 39.408 323.98 39.142 325.016V323.224H37.924V330H39.142ZM50.5717 322.132V320.62H49.3537V322.132H50.5717ZM50.5717 330V323.224H49.3537V330H50.5717ZM53.6205 330V326.164C53.6205 325.03 54.0965 324.12 55.3985 324.12C56.5465 324.12 56.8965 324.736 56.8965 325.618V330H58.1005V325.324C58.1005 323.882 57.2745 323.084 55.9445 323.084C54.6145 323.084 53.8865 323.98 53.6205 325.03V323.224H52.4025V330H53.6205ZM62.275 330.168C63.577 330.168 64.221 329.3 64.459 328.264V330H65.677V320.62H64.459V324.988C64.221 323.952 63.577 323.084 62.275 323.084C60.567 323.084 59.503 324.484 59.503 326.626C59.503 328.768 60.567 330.168 62.275 330.168ZM60.735 326.626C60.735 324.904 61.617 324.12 62.681 324.12C63.983 324.12 64.459 325.03 64.459 326.15V327.116C64.459 328.236 63.983 329.146 62.681 329.146C61.617 329.146 60.735 328.362 60.735 326.626ZM70.1556 330.14C71.4716 330.14 72.6196 329.538 72.6196 328.194C72.6196 327.256 72.1156 326.626 70.5896 326.262L69.7216 326.038C68.7976 325.814 68.3496 325.604 68.3496 325.002C68.3496 324.428 68.8536 324.12 69.5536 324.12C70.5196 324.12 71.1636 324.624 71.4996 325.422L72.4236 324.736C72.0456 323.84 71.0516 323.084 69.6236 323.084C68.1536 323.084 67.2016 323.84 67.2016 325.072C67.2016 326.318 68.2516 326.78 69.2176 327.004L70.1136 327.214C70.9116 327.396 71.5276 327.592 71.5276 328.208C71.5276 328.81 70.9956 329.118 70.1976 329.118C68.8536 329.118 68.1116 328.348 67.8736 327.578L66.9916 328.264C67.4536 329.524 68.7416 330.14 70.1556 330.14ZM76.7787 330.14C78.2487 330.14 79.1867 329.454 79.6907 328.642L78.9487 327.802C78.6827 328.39 78.1367 329.132 76.7787 329.132C75.5747 329.132 74.7767 328.32 74.7067 326.892H79.7327C79.7607 326.766 79.7887 326.556 79.7887 326.346C79.7887 324.358 78.6267 323.084 76.7087 323.084C74.8467 323.084 73.5307 324.47 73.5307 326.612C73.5307 328.768 74.8607 330.14 76.7787 330.14ZM76.7087 324.106C77.8427 324.106 78.5707 324.764 78.6967 326.01H74.7347C74.8887 324.75 75.6167 324.106 76.7087 324.106ZM83.4908 330.154C84.4288 330.154 85.0728 329.72 85.3668 329.258L84.9608 328.054C84.7788 328.474 84.3588 328.978 83.7568 328.978C83.2248 328.978 82.8188 328.768 82.8188 327.9V324.176H85.0448V323.224H82.8188V321.46L81.6008 322.356V323.224H80.5088V324.176H81.6008V328.264C81.6008 329.426 82.3848 330.154 83.4908 330.154ZM88.0623 330V328.18H86.5923V330H88.0623Z" fill="white"/>
</g>
<defs>
<clipPath id="clip0_5856_86596">
<path d="M0 0H268C273.523 0 278 4.47715 278 10V586H60C26.8629 586 0 559.137 0 526V0Z" fill="white"/>
</clipPath>
</defs>
</svg>
