<svg width="489" height="472" viewBox="0 0 489 472" fill="none" xmlns="http://www.w3.org/2000/svg">
<g clip-path="url(#clip0_9952_113330)">
<path opacity="0.8" d="M16 24C16 10.7452 26.7452 0 40 0H465C478.255 0 489 10.7452 489 24V472H16V24Z" fill="#E8356D"/>
<g clip-path="url(#clip1_9952_113330)">
<rect width="7.56681" height="77.1369" rx="3.02498" transform="matrix(-1 0 0 1 416.184 273.295)" fill="url(#paint0_linear_9952_113330)"/>
<rect width="7.56681" height="74.1119" rx="1.51249" transform="matrix(-1 0 0 1 414.645 274.797)" fill="url(#paint1_linear_9952_113330)"/>
<rect width="7.67449" height="51.2935" rx="3.02498" transform="matrix(1 -8.63978e-08 -1.30531e-07 -1 85.3574 395.217)" fill="url(#paint2_linear_9952_113330)"/>
<rect width="7.67449" height="48.4173" rx="1.51249" transform="matrix(1 -8.63978e-08 -1.30531e-07 -1 86.793 393.772)" fill="url(#paint3_linear_9952_113330)"/>
<rect width="7.67449" height="50.3348" rx="3.02498" transform="matrix(1 -8.63978e-08 -1.30531e-07 -1 85.3789 323.796)" fill="url(#paint4_linear_9952_113330)"/>
<rect width="7.67449" height="22.0514" rx="3.02498" transform="matrix(1 -8.63978e-08 -1.30531e-07 -1 85.8516 255.24)" fill="url(#paint5_linear_9952_113330)"/>
<rect width="6.46703" height="48.5027" rx="1.51249" transform="matrix(1 -8.63978e-08 -1.30531e-07 -1 87.5234 323.057)" fill="#3D0072"/>
<rect width="7.67449" height="19.1751" rx="1.51249" transform="matrix(1 -2.87993e-08 -1.5933e-07 -1 87.3008 253.807)" fill="url(#paint6_linear_9952_113330)"/>
<rect x="88.8926" y="75.1489" width="323.673" height="648.858" rx="56.7183" fill="#3D0072"/>
<rect x="90.4043" y="76.6641" width="320.648" height="645.833" rx="55.9621" fill="url(#paint7_linear_9952_113330)"/>
<rect x="91.7715" y="78.001" width="317.623" height="642.808" rx="54.4496" fill="#3D0072"/>
<rect x="99.6094" y="85.8481" width="301.589" height="626.776" rx="48.5727" fill="white"/>
<g clip-path="url(#clip2_9952_113330)">
<rect x="104" y="90" width="293.676" height="927" rx="40" fill="white"/>
<path d="M125.545 166.117H128.756V180.382H125.545V166.117ZM131.853 169.925C132.374 169.774 133.046 169.637 133.87 169.513C134.693 169.376 135.558 169.307 136.463 169.307C137.383 169.307 138.145 169.431 138.748 169.678C139.366 169.911 139.853 170.247 140.21 170.686C140.567 171.126 140.821 171.647 140.972 172.251C141.123 172.855 141.198 173.527 141.198 174.268V180.382H138.131V174.639C138.131 173.651 138 172.951 137.74 172.539C137.479 172.127 136.992 171.922 136.278 171.922C136.059 171.922 135.825 171.935 135.578 171.963C135.331 171.976 135.112 171.997 134.92 172.024V180.382H131.853V169.925ZM147.082 178.179C147.645 178.179 148.043 178.124 148.276 178.015C148.51 177.905 148.626 177.692 148.626 177.376C148.626 177.129 148.475 176.917 148.173 176.738C147.872 176.546 147.412 176.334 146.794 176.1C146.314 175.922 145.875 175.737 145.477 175.544C145.093 175.352 144.763 175.126 144.489 174.865C144.214 174.591 144.002 174.268 143.851 173.898C143.7 173.527 143.624 173.081 143.624 172.56C143.624 171.544 144.002 170.741 144.756 170.151C145.511 169.561 146.547 169.266 147.865 169.266C148.523 169.266 149.155 169.328 149.759 169.451C150.362 169.561 150.843 169.685 151.199 169.822L150.664 172.21C150.307 172.086 149.916 171.976 149.491 171.88C149.079 171.784 148.613 171.736 148.091 171.736C147.131 171.736 146.65 172.004 146.65 172.539C146.65 172.663 146.671 172.772 146.712 172.868C146.753 172.964 146.835 173.061 146.959 173.157C147.082 173.239 147.247 173.335 147.453 173.445C147.673 173.541 147.947 173.651 148.276 173.774C148.949 174.021 149.505 174.268 149.944 174.515C150.383 174.748 150.726 175.009 150.973 175.297C151.234 175.572 151.412 175.881 151.508 176.224C151.618 176.567 151.673 176.965 151.673 177.418C151.673 178.488 151.268 179.298 150.458 179.847C149.662 180.396 148.53 180.67 147.062 180.67C146.101 180.67 145.298 180.588 144.653 180.423C144.022 180.258 143.583 180.121 143.336 180.011L143.851 177.521C144.372 177.726 144.907 177.891 145.456 178.015C146.005 178.124 146.547 178.179 147.082 178.179ZM163.208 180.011C162.686 180.162 162.014 180.299 161.19 180.423C160.367 180.56 159.502 180.629 158.597 180.629C157.677 180.629 156.909 180.505 156.291 180.258C155.687 180.011 155.207 179.668 154.85 179.229C154.493 178.776 154.24 178.241 154.089 177.623C153.938 177.006 153.862 176.327 153.862 175.586V169.554H156.929V175.215C156.929 176.203 157.06 176.917 157.32 177.356C157.581 177.795 158.068 178.015 158.782 178.015C159.001 178.015 159.235 178.008 159.482 177.994C159.729 177.967 159.948 177.939 160.14 177.912V169.554H163.208V180.011ZM172.612 172.271C172.338 172.203 172.015 172.134 171.645 172.066C171.274 171.983 170.876 171.942 170.451 171.942C170.259 171.942 170.025 171.963 169.751 172.004C169.49 172.031 169.291 172.066 169.154 172.107V180.382H166.087V170.131C166.636 169.939 167.281 169.76 168.022 169.595C168.776 169.417 169.614 169.328 170.533 169.328C170.698 169.328 170.897 169.342 171.13 169.369C171.363 169.383 171.597 169.41 171.83 169.451C172.063 169.479 172.296 169.52 172.53 169.575C172.763 169.616 172.962 169.671 173.127 169.74L172.612 172.271ZM174.055 175.05C174.055 174.09 174.199 173.253 174.488 172.539C174.789 171.812 175.181 171.208 175.661 170.728C176.141 170.247 176.69 169.884 177.308 169.637C177.939 169.39 178.584 169.266 179.243 169.266C180.78 169.266 181.994 169.74 182.886 170.686C183.778 171.62 184.224 172.999 184.224 174.824C184.224 175.002 184.217 175.201 184.204 175.421C184.19 175.627 184.176 175.812 184.162 175.977H177.205C177.273 176.608 177.568 177.109 178.09 177.479C178.611 177.85 179.311 178.035 180.19 178.035C180.752 178.035 181.301 177.987 181.836 177.891C182.385 177.781 182.831 177.651 183.174 177.5L183.586 179.991C183.421 180.073 183.202 180.155 182.927 180.238C182.653 180.32 182.344 180.389 182.001 180.444C181.672 180.512 181.315 180.567 180.931 180.608C180.546 180.649 180.162 180.67 179.778 180.67C178.803 180.67 177.953 180.526 177.225 180.238C176.512 179.95 175.915 179.558 175.434 179.064C174.968 178.557 174.618 177.96 174.385 177.274C174.165 176.587 174.055 175.846 174.055 175.05ZM181.26 173.877C181.246 173.616 181.198 173.362 181.116 173.115C181.047 172.868 180.931 172.649 180.766 172.457C180.615 172.265 180.416 172.107 180.169 171.983C179.936 171.86 179.641 171.798 179.284 171.798C178.941 171.798 178.646 171.86 178.399 171.983C178.152 172.093 177.946 172.244 177.781 172.436C177.616 172.628 177.486 172.855 177.39 173.115C177.308 173.362 177.246 173.616 177.205 173.877H181.26Z" fill="#3D0072"/>
<path d="M124.696 340.988H125.906V347.645H124.696V340.988ZM127.443 342.784C127.667 342.72 127.959 342.659 128.317 342.602C128.676 342.544 129.073 342.515 129.508 342.515C129.918 342.515 130.261 342.573 130.536 342.688C130.812 342.797 131.029 342.954 131.189 343.159C131.356 343.357 131.471 343.601 131.535 343.889C131.606 344.171 131.641 344.481 131.641 344.821V347.645H130.479V345.003C130.479 344.734 130.459 344.507 130.421 344.321C130.389 344.129 130.331 343.975 130.248 343.86C130.171 343.738 130.062 343.652 129.921 343.601C129.787 343.543 129.62 343.514 129.422 343.514C129.275 343.514 129.121 343.524 128.961 343.543C128.801 343.562 128.682 343.578 128.605 343.591V347.645H127.443V342.784ZM134.218 347.645C133.898 346.985 133.568 346.23 133.229 345.378C132.896 344.52 132.592 343.601 132.316 342.621H133.555C133.626 342.903 133.706 343.207 133.796 343.534C133.892 343.854 133.991 344.177 134.093 344.504C134.202 344.824 134.311 345.138 134.42 345.445C134.535 345.746 134.641 346.018 134.737 346.262C134.833 346.018 134.935 345.746 135.044 345.445C135.153 345.138 135.259 344.824 135.361 344.504C135.47 344.177 135.573 343.854 135.669 343.534C135.765 343.207 135.848 342.903 135.919 342.621H137.119C136.844 343.601 136.537 344.52 136.197 345.378C135.864 346.23 135.537 346.985 135.217 347.645H134.218ZM137.596 345.157C137.596 344.715 137.66 344.328 137.788 343.995C137.923 343.662 138.099 343.386 138.317 343.169C138.534 342.944 138.784 342.778 139.066 342.669C139.348 342.554 139.636 342.496 139.931 342.496C140.622 342.496 141.16 342.711 141.544 343.14C141.935 343.569 142.13 344.209 142.13 345.061C142.13 345.125 142.127 345.199 142.121 345.282C142.121 345.359 142.118 345.429 142.111 345.493H138.797C138.829 345.897 138.97 346.21 139.22 346.435C139.476 346.652 139.844 346.761 140.324 346.761C140.606 346.761 140.862 346.736 141.093 346.684C141.33 346.633 141.516 346.579 141.65 346.521L141.804 347.472C141.74 347.504 141.65 347.539 141.535 347.578C141.426 347.61 141.298 347.639 141.151 347.664C141.01 347.696 140.856 347.722 140.689 347.741C140.523 347.76 140.353 347.77 140.18 347.77C139.738 347.77 139.354 347.706 139.028 347.578C138.701 347.443 138.432 347.261 138.221 347.03C138.009 346.793 137.852 346.518 137.75 346.204C137.647 345.884 137.596 345.535 137.596 345.157ZM140.968 344.638C140.968 344.478 140.946 344.328 140.901 344.187C140.856 344.039 140.789 343.915 140.699 343.812C140.616 343.703 140.51 343.62 140.382 343.562C140.26 343.498 140.113 343.466 139.94 343.466C139.761 343.466 139.604 343.502 139.469 343.572C139.335 343.636 139.22 343.722 139.124 343.831C139.034 343.94 138.964 344.065 138.912 344.206C138.861 344.347 138.826 344.491 138.807 344.638H140.968ZM144.621 346.809C144.929 346.809 145.153 346.774 145.294 346.704C145.434 346.627 145.505 346.499 145.505 346.319C145.505 346.153 145.428 346.015 145.274 345.906C145.127 345.797 144.881 345.679 144.535 345.551C144.323 345.474 144.128 345.394 143.949 345.311C143.776 345.221 143.625 345.119 143.497 345.003C143.369 344.888 143.267 344.75 143.19 344.59C143.119 344.424 143.084 344.222 143.084 343.985C143.084 343.524 143.254 343.162 143.593 342.9C143.933 342.631 144.394 342.496 144.977 342.496C145.271 342.496 145.553 342.525 145.822 342.583C146.091 342.634 146.293 342.685 146.427 342.736L146.216 343.678C146.088 343.62 145.924 343.569 145.726 343.524C145.527 343.473 145.297 343.447 145.034 343.447C144.797 343.447 144.605 343.489 144.458 343.572C144.311 343.649 144.237 343.771 144.237 343.937C144.237 344.02 144.25 344.094 144.275 344.158C144.307 344.222 144.359 344.283 144.429 344.34C144.499 344.392 144.592 344.446 144.708 344.504C144.823 344.555 144.964 344.609 145.13 344.667C145.406 344.77 145.639 344.872 145.832 344.974C146.024 345.071 146.181 345.183 146.302 345.311C146.43 345.432 146.523 345.573 146.581 345.733C146.638 345.893 146.667 346.086 146.667 346.31C146.667 346.79 146.488 347.155 146.129 347.405C145.777 347.648 145.271 347.77 144.612 347.77C144.17 347.77 143.814 347.731 143.545 347.655C143.276 347.584 143.087 347.527 142.978 347.482L143.18 346.511C143.353 346.582 143.558 346.649 143.795 346.713C144.038 346.777 144.314 346.809 144.621 346.809ZM147.695 341.295L148.858 341.103V342.621H150.645V343.591H148.858V345.637C148.858 346.041 148.922 346.329 149.05 346.502C149.178 346.675 149.396 346.761 149.703 346.761C149.914 346.761 150.1 346.739 150.26 346.694C150.427 346.649 150.558 346.608 150.654 346.569L150.846 347.491C150.712 347.549 150.536 347.607 150.318 347.664C150.1 347.728 149.844 347.76 149.549 347.76C149.191 347.76 148.89 347.712 148.646 347.616C148.41 347.52 148.221 347.382 148.08 347.203C147.939 347.017 147.84 346.796 147.782 346.54C147.724 346.278 147.695 345.98 147.695 345.647V341.295ZM157.007 344.485C156.86 345.048 156.7 345.599 156.527 346.137C156.361 346.668 156.194 347.171 156.028 347.645H155.077C154.948 347.35 154.814 347.014 154.673 346.636C154.532 346.259 154.391 345.855 154.25 345.426C154.11 344.997 153.969 344.545 153.828 344.072C153.687 343.598 153.549 343.114 153.415 342.621H154.644C154.702 342.89 154.769 343.181 154.846 343.495C154.923 343.803 155.003 344.12 155.086 344.446C155.169 344.766 155.256 345.08 155.346 345.388C155.435 345.695 155.525 345.977 155.614 346.233C155.711 345.938 155.803 345.634 155.893 345.32C155.989 345.007 156.079 344.693 156.162 344.379C156.245 344.065 156.322 343.761 156.393 343.466C156.469 343.165 156.537 342.884 156.594 342.621H157.488C157.545 342.884 157.609 343.165 157.68 343.466C157.75 343.761 157.824 344.065 157.901 344.379C157.984 344.693 158.07 345.007 158.16 345.32C158.256 345.634 158.352 345.938 158.448 346.233C158.532 345.977 158.618 345.695 158.708 345.388C158.797 345.08 158.884 344.766 158.967 344.446C159.057 344.12 159.14 343.803 159.217 343.495C159.294 343.181 159.361 342.89 159.419 342.621H160.619C160.485 343.114 160.347 343.598 160.206 344.072C160.065 344.545 159.924 344.997 159.784 345.426C159.643 345.855 159.502 346.259 159.361 346.636C159.22 347.014 159.082 347.35 158.948 347.645H158.006C157.84 347.171 157.667 346.668 157.488 346.137C157.315 345.599 157.155 345.048 157.007 344.485ZM162.678 347.645H161.515V342.621H162.678V347.645ZM162.803 341.151C162.803 341.369 162.732 341.542 162.591 341.67C162.45 341.798 162.284 341.862 162.092 341.862C161.893 341.862 161.723 341.798 161.583 341.67C161.442 341.542 161.371 341.369 161.371 341.151C161.371 340.927 161.442 340.751 161.583 340.623C161.723 340.495 161.893 340.431 162.092 340.431C162.284 340.431 162.45 340.495 162.591 340.623C162.732 340.751 162.803 340.927 162.803 341.151ZM164.103 341.295L165.265 341.103V342.621H167.052V343.591H165.265V345.637C165.265 346.041 165.329 346.329 165.457 346.502C165.585 346.675 165.803 346.761 166.111 346.761C166.322 346.761 166.508 346.739 166.668 346.694C166.834 346.649 166.966 346.608 167.062 346.569L167.254 347.491C167.119 347.549 166.943 347.607 166.725 347.664C166.508 347.728 166.252 347.76 165.957 347.76C165.598 347.76 165.297 347.712 165.054 347.616C164.817 347.52 164.628 347.382 164.487 347.203C164.346 347.017 164.247 346.796 164.189 346.54C164.132 346.278 164.103 345.98 164.103 345.647V341.295ZM168.176 347.645V340.383L169.338 340.191V342.679C169.466 342.634 169.613 342.595 169.78 342.563C169.953 342.531 170.123 342.515 170.289 342.515C170.692 342.515 171.026 342.573 171.288 342.688C171.557 342.797 171.772 342.954 171.932 343.159C172.092 343.357 172.204 343.598 172.268 343.879C172.338 344.161 172.374 344.475 172.374 344.821V347.645H171.211V345.003C171.211 344.734 171.192 344.507 171.154 344.321C171.122 344.129 171.064 343.975 170.981 343.86C170.904 343.738 170.798 343.652 170.664 343.601C170.529 343.543 170.363 343.514 170.164 343.514C170.01 343.514 169.854 343.53 169.693 343.562C169.533 343.594 169.415 343.623 169.338 343.649V347.645H168.176ZM180.13 347.491C179.906 347.549 179.614 347.607 179.256 347.664C178.897 347.728 178.503 347.76 178.074 347.76C177.671 347.76 177.331 347.703 177.056 347.587C176.787 347.472 176.569 347.312 176.403 347.107C176.243 346.902 176.127 346.659 176.057 346.377C175.986 346.089 175.951 345.775 175.951 345.436V342.621H177.114V345.253C177.114 345.791 177.19 346.175 177.344 346.406C177.504 346.636 177.78 346.752 178.17 346.752C178.311 346.752 178.458 346.745 178.612 346.732C178.772 346.72 178.891 346.704 178.968 346.684V342.621H180.13V347.491ZM182.868 346.809C183.175 346.809 183.399 346.774 183.54 346.704C183.681 346.627 183.752 346.499 183.752 346.319C183.752 346.153 183.675 346.015 183.521 345.906C183.374 345.797 183.127 345.679 182.781 345.551C182.57 345.474 182.375 345.394 182.195 345.311C182.022 345.221 181.872 345.119 181.744 345.003C181.616 344.888 181.513 344.75 181.436 344.59C181.366 344.424 181.331 344.222 181.331 343.985C181.331 343.524 181.5 343.162 181.84 342.9C182.179 342.631 182.64 342.496 183.223 342.496C183.518 342.496 183.8 342.525 184.069 342.583C184.338 342.634 184.539 342.685 184.674 342.736L184.462 343.678C184.334 343.62 184.171 343.569 183.972 343.524C183.774 343.473 183.543 343.447 183.281 343.447C183.044 343.447 182.852 343.489 182.704 343.572C182.557 343.649 182.484 343.771 182.484 343.937C182.484 344.02 182.496 344.094 182.522 344.158C182.554 344.222 182.605 344.283 182.676 344.34C182.746 344.392 182.839 344.446 182.954 344.504C183.07 344.555 183.21 344.609 183.377 344.667C183.652 344.77 183.886 344.872 184.078 344.974C184.27 345.071 184.427 345.183 184.549 345.311C184.677 345.432 184.77 345.573 184.827 345.733C184.885 345.893 184.914 346.086 184.914 346.31C184.914 346.79 184.735 347.155 184.376 347.405C184.024 347.648 183.518 347.77 182.858 347.77C182.416 347.77 182.061 347.731 181.792 347.655C181.523 347.584 181.334 347.527 181.225 347.482L181.427 346.511C181.6 346.582 181.805 346.649 182.042 346.713C182.285 346.777 182.56 346.809 182.868 346.809Z" fill="#3D0072"/>
<rect x="121" y="208" width="261.303" height="84.0157" rx="8.23684" fill="#F9F9F9"/>
<path d="M140.61 249V246.559H140.036V245.827H140.61V245.116H140.036V244.384H140.61V241.943H142.161L142.932 244.384H143.832V241.943H144.929V244.384H145.492V245.116H144.929V245.827H145.492V246.559H144.929V249H143.367L142.577 246.559H141.707V249H140.61ZM141.707 245.827H142.359L142.142 245.116H141.687L141.707 245.827ZM143.862 247.458H143.911L143.871 246.559H143.605L143.862 247.458ZM141.667 244.384H141.944L141.657 243.435H141.618L141.667 244.384ZM143.397 245.827H143.852L143.832 245.116H143.17L143.397 245.827ZM152.513 249.148C154.767 249.148 156.175 247.784 156.175 245.738C156.175 243.766 155.078 242.491 153.195 242.491C151.875 242.491 151.075 243.203 150.763 244.092L151.001 240.608H155.434V239.066H149.399L149.073 244.715L150.704 244.878L150.719 244.745C150.808 244.107 151.475 243.707 152.424 243.707C153.447 243.707 154.381 244.27 154.381 245.664C154.381 246.821 153.729 247.532 152.528 247.532C151.253 247.532 150.378 246.791 150.037 245.56L148.703 246.85C149.207 248.14 150.615 249.148 152.513 249.148ZM157.925 250.72C159.037 250.601 159.467 250.023 159.467 249.03V246.895H157.569V249H158.444V249.193C158.444 249.682 158.118 249.786 157.584 249.845L157.925 250.72ZM164.762 249.133C167.535 249.133 168.928 246.939 168.928 244.018C168.928 241.112 167.535 238.918 164.762 238.918C161.989 238.918 160.581 241.112 160.581 244.018C160.581 246.939 161.989 249.133 164.762 249.133ZM164.762 247.532C162.998 247.532 162.345 246.109 162.345 244.018C162.345 241.943 162.998 240.505 164.762 240.505C166.541 240.505 167.179 241.943 167.179 244.018C167.179 246.109 166.541 247.532 164.762 247.532ZM174.448 249.133C177.221 249.133 178.615 246.939 178.615 244.018C178.615 241.112 177.221 238.918 174.448 238.918C171.676 238.918 170.267 241.112 170.267 244.018C170.267 246.939 171.676 249.133 174.448 249.133ZM174.448 247.532C172.684 247.532 172.032 246.109 172.032 244.018C172.032 241.943 172.684 240.505 174.448 240.505C176.227 240.505 176.865 241.943 176.865 244.018C176.865 246.109 176.227 247.532 174.448 247.532ZM184.135 249.133C186.907 249.133 188.301 246.939 188.301 244.018C188.301 241.112 186.907 238.918 184.135 238.918C181.362 238.918 179.954 241.112 179.954 244.018C179.954 246.939 181.362 249.133 184.135 249.133ZM184.135 247.532C182.37 247.532 181.718 246.109 181.718 244.018C181.718 241.943 182.37 240.505 184.135 240.505C185.914 240.505 186.551 241.943 186.551 244.018C186.551 246.109 185.914 247.532 184.135 247.532ZM189.779 250.72C190.891 250.601 191.321 250.023 191.321 249.03V246.895H189.423V249H190.298V249.193C190.298 249.682 189.971 249.786 189.438 249.845L189.779 250.72ZM196.615 249.133C199.388 249.133 200.782 246.939 200.782 244.018C200.782 241.112 199.388 238.918 196.615 238.918C193.843 238.918 192.434 241.112 192.434 244.018C192.434 246.939 193.843 249.133 196.615 249.133ZM196.615 247.532C194.851 247.532 194.199 246.109 194.199 244.018C194.199 241.943 194.851 240.505 196.615 240.505C198.395 240.505 199.032 241.943 199.032 244.018C199.032 246.109 198.395 247.532 196.615 247.532ZM206.302 249.133C209.074 249.133 210.468 246.939 210.468 244.018C210.468 241.112 209.074 238.918 206.302 238.918C203.529 238.918 202.121 241.112 202.121 244.018C202.121 246.939 203.529 249.133 206.302 249.133ZM206.302 247.532C204.537 247.532 203.885 246.109 203.885 244.018C203.885 241.943 204.537 240.505 206.302 240.505C208.081 240.505 208.718 241.943 208.718 244.018C208.718 246.109 208.081 247.532 206.302 247.532ZM215.988 249.133C218.761 249.133 220.154 246.939 220.154 244.018C220.154 241.112 218.761 238.918 215.988 238.918C213.216 238.918 211.807 241.112 211.807 244.018C211.807 246.939 213.216 249.133 215.988 249.133ZM215.988 247.532C214.224 247.532 213.571 246.109 213.571 244.018C213.571 241.943 214.224 240.505 215.988 240.505C217.767 240.505 218.405 241.943 218.405 244.018C218.405 246.109 217.767 247.532 215.988 247.532ZM223.174 249V246.895H221.276V249H223.174ZM228.469 249.133C231.241 249.133 232.635 246.939 232.635 244.018C232.635 241.112 231.241 238.918 228.469 238.918C225.696 238.918 224.288 241.112 224.288 244.018C224.288 246.939 225.696 249.133 228.469 249.133ZM228.469 247.532C226.704 247.532 226.052 246.109 226.052 244.018C226.052 241.943 226.704 240.505 228.469 240.505C230.248 240.505 230.885 241.943 230.885 244.018C230.885 246.109 230.248 247.532 228.469 247.532ZM238.155 249.133C240.928 249.133 242.321 246.939 242.321 244.018C242.321 241.112 240.928 238.918 238.155 238.918C235.383 238.918 233.974 241.112 233.974 244.018C233.974 246.939 235.383 249.133 238.155 249.133ZM238.155 247.532C236.391 247.532 235.738 246.109 235.738 244.018C235.738 241.943 236.391 240.505 238.155 240.505C239.934 240.505 240.572 241.943 240.572 244.018C240.572 246.109 239.934 247.532 238.155 247.532Z" fill="#3D0072"/>
<path fill-rule="evenodd" clip-rule="evenodd" d="M246.936 246.577C246.936 246.577 249.252 241.993 253.113 241.993C256.974 241.993 259.291 246.577 259.291 246.577C259.291 246.577 256.974 251.161 253.113 251.161C249.252 251.161 246.936 246.577 246.936 246.577ZM248.333 246.676C248.312 246.643 248.292 246.61 248.271 246.577L248.335 246.478C248.587 246.088 248.957 245.571 249.431 245.06C250.406 244.006 251.661 243.139 253.113 243.139C254.563 243.139 255.821 244.006 256.797 245.06C257.228 245.53 257.616 246.038 257.955 246.577C257.615 247.116 257.226 247.623 256.795 248.094C255.821 249.148 254.565 250.015 253.113 250.015C251.663 250.015 250.406 249.148 249.43 248.094C249.024 247.653 248.657 247.179 248.333 246.676ZM255.43 246.577C255.43 247.059 255.276 247.53 254.99 247.92C254.704 248.311 254.3 248.603 253.837 248.753C253.374 248.904 252.874 248.906 252.41 248.76C251.945 248.613 251.539 248.326 251.249 247.937C250.96 247.549 250.801 247.081 250.797 246.598C250.792 246.116 250.941 245.644 251.223 245.251C251.506 244.857 251.906 244.562 252.368 244.406C252.829 244.251 253.329 244.244 253.795 244.386C253.624 244.462 253.475 244.579 253.36 244.725C253.244 244.871 253.167 245.042 253.133 245.225C253.099 245.407 253.111 245.595 253.167 245.771C253.223 245.948 253.321 246.109 253.454 246.24C253.586 246.371 253.749 246.469 253.927 246.524C254.106 246.579 254.296 246.591 254.48 246.557C254.664 246.524 254.838 246.447 254.986 246.333C255.133 246.219 255.251 246.071 255.328 245.902C255.396 246.121 255.43 246.348 255.43 246.577Z" fill="#9CA3AF"/>
<rect x="139.938" y="259.868" width="49.3819" height="17.6214" rx="8.81071" fill="#3D0072" fill-opacity="0.11"/>
<rect x="143.232" y="263.179" width="24.8304" height="11" rx="5.5" fill="white"/>
<path d="M149.728 270.179V267.292L149.695 266.703L150.092 267.292L152.125 270.179H152.641V265.743H152.065V268.577L152.098 269.252L151.641 268.564L149.662 265.743H149.152V270.179H149.728ZM155.255 270.232C156.275 270.232 156.845 269.451 156.878 268.464L157.057 270.179H157.414V267.954H155.454V268.464H156.812C156.646 269.212 156.308 269.689 155.454 269.689C154.494 269.689 154.05 268.967 154.05 267.954C154.05 266.941 154.507 266.22 155.514 266.22C156.295 266.22 156.732 266.696 156.884 267.325L157.401 266.988C157.103 266.147 156.434 265.677 155.507 265.677C154.17 265.677 153.441 266.657 153.441 267.954C153.441 269.299 154.07 270.232 155.255 270.232ZM158.91 270.179V267.292L158.877 266.703L159.274 267.292L161.307 270.179H161.823V265.743H161.247V268.577L161.28 269.252L160.823 268.564L158.844 265.743H158.334V270.179H158.91Z" fill="#3D0072" fill-opacity="0.8"/>
<path d="M174.3 270.245C175.479 270.245 175.996 269.636 175.996 268.325V265.742H175.426V268.325C175.426 269.305 175.122 269.695 174.307 269.695C173.506 269.695 173.195 269.305 173.195 268.325V265.742H172.619V268.325C172.619 269.636 173.148 270.245 174.3 270.245ZM178.564 270.245C179.425 270.245 180.067 269.781 180.067 269.013C180.067 268.139 179.379 267.894 178.749 267.742L178.266 267.623C177.756 267.497 177.432 267.331 177.432 266.888C177.432 266.477 177.796 266.232 178.286 266.232C178.862 266.232 179.312 266.477 179.524 267.08L180.008 266.696C179.736 266.034 179.1 265.683 178.299 265.683C177.525 265.683 176.823 266.12 176.823 266.928C176.823 267.762 177.491 268.027 178.081 268.159L178.498 268.252C179.087 268.391 179.478 268.517 179.478 269.027C179.478 269.51 179.061 269.702 178.564 269.702C178.008 269.702 177.319 269.444 177.114 268.722L176.677 269.106C176.968 269.927 177.73 270.245 178.564 270.245ZM182.427 270.179C183.825 270.179 184.52 269.364 184.52 267.961C184.52 266.557 183.825 265.742 182.427 265.742H180.858V270.179H182.427ZM182.335 266.252C183.341 266.252 183.924 266.696 183.924 267.961C183.924 269.225 183.341 269.669 182.335 269.669H181.434V266.252H182.335Z" fill="#3D0072" fill-opacity="0.3"/>
<path d="M198.007 270.679V269.043H197.623V268.553H198.007V268.076H197.623V267.586H198.007V265.95H199.047L199.563 267.586H200.166V265.95H200.901V267.586H201.278V268.076H200.901V268.553H201.278V269.043H200.901V270.679H199.855L199.325 269.043H198.742V270.679H198.007ZM198.742 268.553H199.179L199.033 268.076H198.729L198.742 268.553ZM200.186 269.646H200.219L200.192 269.043H200.014L200.186 269.646ZM198.716 267.586H198.901L198.709 266.95H198.682L198.716 267.586ZM199.874 268.553H200.179L200.166 268.076H199.722L199.874 268.553ZM203.015 270.679C203.015 268.824 203.651 267.884 204.538 267.01L204.538 266.242H201.512V266.93H203.836C203.141 267.619 202.194 268.606 202.194 270.679H203.015ZM207.398 270.679V269.679H208.146V269.03H207.398L207.398 266.242H206.61L204.437 269.103V269.679H206.656V270.679H207.398ZM205.259 269.03L206.656 267.209L206.656 269.03H205.259ZM210.387 270.738C211.625 270.738 212.248 269.758 212.248 268.454C212.248 267.156 211.625 266.175 210.387 266.175C209.148 266.175 208.519 267.156 208.519 268.454C208.519 269.758 209.148 270.738 210.387 270.738ZM210.387 270.023C209.599 270.023 209.307 269.387 209.307 268.454C209.307 267.526 209.599 266.884 210.387 266.884C211.181 266.884 211.466 267.526 211.466 268.454C211.466 269.387 211.181 270.023 210.387 270.023ZM214.753 270.944L216.475 265.977H215.792L214.071 270.944H214.753ZM219.026 271.341V270.738C219.847 270.685 220.443 270.235 220.443 269.48C220.443 268.632 219.807 268.354 219.099 268.182L219.026 268.162V266.95C219.357 267.056 219.642 267.288 219.807 267.666L220.37 267.129C220.112 266.632 219.635 266.315 219.026 266.215V265.579H218.562V266.182C217.755 266.182 217.033 266.632 217.033 267.467C217.033 268.308 217.702 268.593 218.331 268.725L218.562 268.778V270.03C218.099 269.944 217.622 269.679 217.43 269.156L216.9 269.692C217.205 270.348 217.841 270.665 218.562 270.732V271.341H219.026ZM217.814 267.414C217.814 267.076 218.119 266.877 218.543 266.877H218.562V268.05C218.119 267.944 217.814 267.805 217.814 267.414ZM219.682 269.493C219.682 269.851 219.397 270.016 219.026 270.05V268.884C219.437 268.997 219.682 269.136 219.682 269.493ZM222.509 270.679V266.242H221.854C221.629 266.526 221.317 266.639 220.953 266.639V267.182H221.761V270.679H222.509Z" fill="#B69FC9"/>
<path d="M140.744 228.18L141.346 226.639H143.759L144.36 228.18H145.151L142.927 222.661H142.21L139.986 228.18H140.744ZM142.276 224.259L142.556 223.394L142.828 224.259L143.512 226.005H141.593L142.276 224.259ZM147.228 228.262C148.266 228.262 148.876 227.661 149.065 226.862L148.365 226.574C148.283 227.208 147.953 227.669 147.236 227.669C146.512 227.669 146.075 227.125 146.075 226.186C146.075 225.247 146.512 224.712 147.236 224.712C147.953 224.712 148.283 225.165 148.365 225.799L149.065 225.511C148.876 224.712 148.266 224.111 147.228 224.111C146.083 224.111 145.35 224.926 145.35 226.186C145.35 227.455 146.083 228.262 147.228 228.262ZM151.499 228.262C152.537 228.262 153.147 227.661 153.336 226.862L152.636 226.574C152.554 227.208 152.224 227.669 151.508 227.669C150.783 227.669 150.346 227.125 150.346 226.186C150.346 225.247 150.783 224.712 151.508 224.712C152.224 224.712 152.554 225.165 152.636 225.799L153.336 225.511C153.147 224.712 152.537 224.111 151.499 224.111C150.355 224.111 149.621 224.926 149.621 226.186C149.621 227.455 150.355 228.262 151.499 228.262ZM155.713 228.262C156.817 228.262 157.599 227.447 157.599 226.186C157.599 224.926 156.817 224.111 155.713 224.111C154.609 224.111 153.835 224.926 153.835 226.186C153.835 227.447 154.609 228.262 155.713 228.262ZM155.713 227.661C155.038 227.661 154.568 227.191 154.568 226.186C154.568 225.173 155.038 224.712 155.713 224.712C156.397 224.712 156.874 225.173 156.874 226.186C156.874 227.191 156.397 227.661 155.713 227.661ZM159.743 228.262C160.542 228.262 160.97 227.718 161.118 227.092V228.18H161.827V224.193H161.118V226.458C161.118 227.117 160.838 227.661 160.064 227.661C159.389 227.661 159.183 227.29 159.183 226.779V224.193H158.474V226.952C158.474 227.793 158.96 228.262 159.743 228.262ZM163.632 228.18V225.923C163.632 225.256 163.912 224.72 164.678 224.72C165.353 224.72 165.559 225.083 165.559 225.602V228.18H166.267V225.429C166.267 224.58 165.781 224.111 164.999 224.111C164.216 224.111 163.788 224.638 163.632 225.256V224.193H162.915V228.18H163.632ZM168.553 228.27C169.105 228.27 169.484 228.015 169.657 227.743L169.418 227.035C169.311 227.282 169.063 227.578 168.709 227.578C168.396 227.578 168.157 227.455 168.157 226.944V224.753H169.467V224.193H168.157V223.155L167.441 223.682V224.193H166.798V224.753H167.441V227.158C167.441 227.842 167.902 228.27 168.553 228.27ZM174.489 228.18C175.684 228.18 176.392 227.636 176.392 226.697C176.392 225.989 175.988 225.42 174.835 225.297C175.758 225.198 176.145 224.663 176.145 224.07C176.145 223.229 175.585 222.661 174.531 222.661H172.199V228.18H174.489ZM174.283 223.295C174.942 223.295 175.404 223.501 175.404 224.16C175.404 224.827 174.951 225.025 174.316 225.025H172.916V223.295H174.283ZM174.399 225.667C175.115 225.667 175.651 225.939 175.651 226.606C175.651 227.265 175.247 227.545 174.374 227.545H172.916V225.667H174.399ZM178.193 228.262C179.017 228.262 179.445 227.669 179.577 227.142V227.422C179.577 227.982 179.874 228.18 180.286 228.18H180.747V227.529H180.491C180.343 227.529 180.269 227.471 180.269 227.282V225.643C180.269 224.696 179.742 224.111 178.762 224.111C177.872 224.111 177.279 224.613 177.04 225.025L177.526 225.527C177.732 225.091 178.111 224.761 178.679 224.761C179.305 224.761 179.528 225.107 179.552 225.577L178.111 226.219C177.543 226.475 177.139 226.812 177.139 227.348C177.139 227.875 177.518 228.262 178.193 228.262ZM177.864 227.232C177.864 226.985 178.037 226.821 178.416 226.639L179.577 226.096V226.648C179.577 227.224 179.099 227.669 178.424 227.669C178.053 227.669 177.864 227.504 177.864 227.232ZM182.293 228.18V222.661H181.577V228.18H182.293ZM184.194 228.262C185.018 228.262 185.446 227.669 185.578 227.142V227.422C185.578 227.982 185.874 228.18 186.286 228.18H186.747V227.529H186.492C186.344 227.529 186.27 227.471 186.27 227.282V225.643C186.27 224.696 185.743 224.111 184.762 224.111C183.873 224.111 183.28 224.613 183.041 225.025L183.527 225.527C183.733 225.091 184.112 224.761 184.68 224.761C185.306 224.761 185.528 225.107 185.553 225.577L184.112 226.219C183.543 226.475 183.14 226.812 183.14 227.348C183.14 227.875 183.519 228.262 184.194 228.262ZM183.865 227.232C183.865 226.985 184.038 226.821 184.416 226.639L185.578 226.096V226.648C185.578 227.224 185.1 227.669 184.425 227.669C184.054 227.669 183.865 227.504 183.865 227.232ZM188.294 228.18V225.923C188.294 225.256 188.574 224.72 189.34 224.72C190.015 224.72 190.221 225.083 190.221 225.602V228.18H190.93V225.429C190.93 224.58 190.444 224.111 189.661 224.111C188.879 224.111 188.45 224.638 188.294 225.256V224.193H187.577V228.18H188.294ZM193.633 228.262C194.671 228.262 195.28 227.661 195.47 226.862L194.77 226.574C194.687 227.208 194.358 227.669 193.641 227.669C192.916 227.669 192.48 227.125 192.48 226.186C192.48 225.247 192.916 224.712 193.641 224.712C194.358 224.712 194.687 225.165 194.77 225.799L195.47 225.511C195.28 224.712 194.671 224.111 193.633 224.111C192.488 224.111 191.755 224.926 191.755 226.186C191.755 227.455 192.488 228.262 193.633 228.262ZM197.945 228.262C198.81 228.262 199.362 227.858 199.659 227.381L199.222 226.887C199.065 227.232 198.744 227.669 197.945 227.669C197.237 227.669 196.767 227.191 196.726 226.351H199.683C199.7 226.277 199.716 226.153 199.716 226.03C199.716 224.86 199.033 224.111 197.904 224.111C196.809 224.111 196.034 224.926 196.034 226.186C196.034 227.455 196.817 228.262 197.945 228.262ZM197.904 224.712C198.571 224.712 199 225.099 199.074 225.832H196.743C196.833 225.091 197.262 224.712 197.904 224.712Z" fill="#6B7280"/>
<rect x="121" y="313.295" width="84.0157" height="42.7199" rx="5.69598" fill="#FCE8EE"/>
<path d="M162.16 338.379V333.312H163.972V332.654H159.614V333.312H161.426V338.379H162.16ZM165.586 338.464C166.731 338.464 167.543 337.618 167.543 336.311C167.543 335.004 166.731 334.158 165.586 334.158C164.441 334.158 163.638 335.004 163.638 336.311C163.638 337.618 164.441 338.464 165.586 338.464ZM165.586 337.841C164.886 337.841 164.399 337.354 164.399 336.311C164.399 335.26 164.886 334.782 165.586 334.782C166.295 334.782 166.791 335.26 166.791 336.311C166.791 337.354 166.295 337.841 165.586 337.841ZM169.236 339.968V337.311C169.381 337.935 169.774 338.464 170.569 338.464C171.611 338.464 172.261 337.61 172.261 336.303C172.261 334.995 171.611 334.15 170.569 334.15C169.774 334.15 169.381 334.679 169.236 335.303V334.244H168.493V339.968H169.236ZM169.236 336.602V336.012C169.236 335.329 169.527 334.773 170.313 334.773C170.971 334.773 171.509 335.252 171.509 336.303C171.509 337.362 170.971 337.841 170.313 337.841C169.527 337.841 169.236 337.285 169.236 336.602ZM177.204 338.464C178.725 338.464 179.392 337.678 179.392 335.987V332.654H178.657V335.987C178.657 337.251 178.264 337.755 177.213 337.755C176.179 337.755 175.778 337.251 175.778 335.987V332.654H175.034V335.987C175.034 337.678 175.718 338.464 177.204 338.464ZM181.259 339.968V337.311C181.405 337.935 181.798 338.464 182.592 338.464C183.635 338.464 184.284 337.61 184.284 336.303C184.284 334.995 183.635 334.15 182.592 334.15C181.798 334.15 181.405 334.679 181.259 335.303V334.244H180.516V339.968H181.259ZM181.259 336.602V336.012C181.259 335.329 181.55 334.773 182.336 334.773C182.994 334.773 183.532 335.252 183.532 336.303C183.532 337.362 182.994 337.841 182.336 337.841C181.55 337.841 181.259 337.285 181.259 336.602Z" fill="#E8356D"/>
<path d="M148.851 337.399L146.117 329.197C144.284 323.685 141.269 323.685 139.436 329.197L138.88 330.864C138.714 331.35 138.337 331.727 137.852 331.893L136.191 332.442C130.678 334.275 130.672 337.284 136.191 339.124L144.393 341.858C148.072 343.084 150.078 341.078 148.851 337.399ZM144.08 338.044L140.63 334.595C140.368 334.333 140.368 333.899 140.63 333.637C140.892 333.375 141.327 333.375 141.588 333.637L145.038 337.086C145.3 337.348 145.3 337.782 145.038 338.044C144.776 338.306 144.342 338.306 144.08 338.044Z" fill="#E8356D"/>
<rect x="210.711" y="313.295" width="84.0157" height="42.7199" rx="5.69598" fill="#FEFCE8"/>
<path d="M245.574 338.387V336.106H246.489C247.052 336.106 247.36 336.243 247.574 336.627L248.582 338.387H249.453L248.428 336.619C248.249 336.302 248.035 336.123 247.77 336.038C248.65 335.918 249.274 335.337 249.274 334.423C249.274 333.278 248.445 332.663 247.326 332.663H244.831V338.387H245.574ZM247.206 333.321C247.89 333.321 248.505 333.568 248.505 334.423C248.505 335.234 247.89 335.482 247.206 335.482H245.574V333.321H247.206ZM251.787 338.473C252.684 338.473 253.257 338.054 253.564 337.558L253.111 337.046C252.949 337.405 252.616 337.857 251.787 337.857C251.052 337.857 250.565 337.362 250.523 336.49H253.59C253.607 336.414 253.624 336.285 253.624 336.157C253.624 334.944 252.915 334.166 251.744 334.166C250.608 334.166 249.805 335.012 249.805 336.32C249.805 337.635 250.617 338.473 251.787 338.473ZM251.744 334.79C252.437 334.79 252.881 335.192 252.958 335.952H250.54C250.634 335.183 251.078 334.79 251.744 334.79ZM256.111 338.473C256.905 338.473 257.298 337.943 257.443 337.319V339.976H258.187V334.252H257.443V335.311C257.298 334.688 256.905 334.158 256.111 334.158C255.068 334.158 254.419 335.004 254.419 336.311C254.419 337.618 255.068 338.473 256.111 338.473ZM255.171 336.311C255.171 335.26 255.709 334.782 256.358 334.782C257.153 334.782 257.443 335.337 257.443 336.021V336.61C257.443 337.294 257.153 337.849 256.358 337.849C255.709 337.849 255.171 337.37 255.171 336.311ZM260.604 338.473C261.433 338.473 261.877 337.909 262.031 337.259V338.387H262.765V334.252H262.031V336.602C262.031 337.285 261.74 337.849 260.937 337.849C260.236 337.849 260.023 337.464 260.023 336.935V334.252H259.288V337.114C259.288 337.986 259.792 338.473 260.604 338.473ZM265.638 338.473C266.535 338.473 267.107 338.054 267.415 337.558L266.962 337.046C266.8 337.405 266.467 337.857 265.638 337.857C264.903 337.857 264.416 337.362 264.373 336.49H267.441C267.458 336.414 267.475 336.285 267.475 336.157C267.475 334.944 266.766 334.166 265.595 334.166C264.459 334.166 263.656 335.012 263.656 336.32C263.656 337.635 264.467 338.473 265.638 338.473ZM265.595 334.79C266.287 334.79 266.731 335.192 266.808 335.952H264.39C264.484 335.183 264.929 334.79 265.595 334.79ZM269.956 338.473C270.759 338.473 271.46 338.105 271.46 337.285C271.46 336.713 271.152 336.328 270.221 336.106L269.691 335.969C269.127 335.833 268.854 335.704 268.854 335.337C268.854 334.987 269.162 334.799 269.589 334.799C270.178 334.799 270.571 335.106 270.776 335.593L271.34 335.175C271.11 334.628 270.503 334.166 269.632 334.166C268.734 334.166 268.153 334.628 268.153 335.38C268.153 336.14 268.794 336.422 269.384 336.559L269.931 336.687C270.418 336.798 270.794 336.918 270.794 337.294C270.794 337.661 270.469 337.849 269.982 337.849C269.162 337.849 268.709 337.379 268.564 336.909L268.025 337.328C268.307 338.097 269.093 338.473 269.956 338.473ZM273.614 338.481C274.186 338.481 274.579 338.216 274.759 337.934L274.511 337.2C274.4 337.456 274.144 337.763 273.776 337.763C273.452 337.763 273.204 337.635 273.204 337.106V334.833H274.562V334.252H273.204V333.175L272.46 333.722V334.252H271.794V334.833H272.46V337.328C272.46 338.037 272.939 338.481 273.614 338.481ZM276.915 338.473C277.718 338.473 278.419 338.105 278.419 337.285C278.419 336.713 278.111 336.328 277.18 336.106L276.65 335.969C276.086 335.833 275.813 335.704 275.813 335.337C275.813 334.987 276.12 334.799 276.547 334.799C277.137 334.799 277.53 335.106 277.735 335.593L278.299 335.175C278.068 334.628 277.462 334.166 276.59 334.166C275.693 334.166 275.112 334.628 275.112 335.38C275.112 336.14 275.753 336.422 276.342 336.559L276.889 336.687C277.376 336.798 277.752 336.918 277.752 337.294C277.752 337.661 277.428 337.849 276.941 337.849C276.12 337.849 275.667 337.379 275.522 336.909L274.984 337.328C275.266 338.097 276.052 338.473 276.915 338.473Z" fill="#EAB308"/>
<path d="M238.552 332.672L235.818 340.874C233.985 346.386 230.97 346.386 229.137 340.874L228.581 339.206C228.415 338.721 228.038 338.344 227.553 338.178L225.892 337.629C220.379 335.795 220.373 332.787 225.892 330.947L234.094 328.213C237.773 326.987 239.779 328.992 238.552 332.672ZM233.781 332.027L230.331 335.476C230.07 335.738 230.07 336.172 230.331 336.434C230.593 336.696 231.028 336.696 231.29 336.434L234.739 332.985C235.001 332.723 235.001 332.288 234.739 332.027C234.477 331.765 234.043 331.765 233.781 332.027Z" fill="#EAB308"/>
<rect x="300.424" y="313.296" width="84.0157" height="42.7199" rx="5.69598" fill="#F3E6FE"/>
<g clip-path="url(#clip3_9952_113330)">
<path d="M324.627 336.079C324.902 336.08 325.165 336.185 325.364 336.374C325.562 336.564 325.68 336.822 325.694 337.096C325.707 337.37 325.614 337.639 325.435 337.846C325.255 338.053 325.003 338.184 324.73 338.21L324.627 338.215H315.814L316.839 339.241C317.033 339.434 317.145 339.695 317.153 339.969C317.16 340.243 317.061 340.509 316.878 340.713C316.694 340.916 316.439 341.041 316.166 341.062C315.892 341.083 315.621 340.998 315.409 340.824L315.328 340.751L312.602 338.024C311.908 337.33 312.36 336.161 313.307 336.084L313.407 336.079H324.627ZM321.025 328.561C321.211 328.374 321.461 328.263 321.725 328.249C321.989 328.235 322.249 328.32 322.454 328.487L322.535 328.56L325.261 331.287C325.955 331.98 325.503 333.15 324.555 333.227L324.456 333.231H313.235C312.961 333.231 312.697 333.126 312.499 332.936C312.3 332.747 312.182 332.489 312.169 332.215C312.156 331.941 312.249 331.672 312.428 331.465C312.608 331.257 312.86 331.127 313.133 331.1L313.235 331.095H322.049L321.024 330.07C320.824 329.87 320.712 329.598 320.712 329.315C320.712 329.032 320.824 328.761 321.024 328.561H321.025Z" fill="#8807F7"/>
</g>
<path d="M339.453 336.963V331.896H341.265V331.238H336.907V331.896H338.719V336.963H339.453ZM342.416 336.963V334.622C342.416 333.913 342.894 333.289 343.424 333.289C343.723 333.289 343.851 333.494 343.851 333.733C343.851 333.964 343.74 334.22 343.603 334.34H344.415C344.483 334.237 344.577 333.981 344.577 333.631C344.577 333.05 344.15 332.734 343.706 332.734C343.005 332.734 342.578 333.289 342.416 333.93V332.828H341.672V336.963H342.416ZM346.09 337.048C346.944 337.048 347.388 336.433 347.525 335.886V336.177C347.525 336.758 347.832 336.963 348.26 336.963H348.738V336.288H348.473C348.319 336.288 348.243 336.228 348.243 336.032V334.331C348.243 333.349 347.696 332.742 346.679 332.742C345.756 332.742 345.141 333.263 344.893 333.691L345.397 334.212C345.611 333.759 346.004 333.417 346.594 333.417C347.243 333.417 347.474 333.776 347.499 334.263L346.004 334.929C345.415 335.194 344.996 335.545 344.996 336.1C344.996 336.647 345.389 337.048 346.09 337.048ZM345.748 335.98C345.748 335.724 345.927 335.553 346.32 335.365L347.525 334.801V335.374C347.525 335.972 347.029 336.433 346.329 336.433C345.944 336.433 345.748 336.262 345.748 335.98ZM350.342 336.963V334.622C350.342 333.93 350.633 333.374 351.427 333.374C352.128 333.374 352.341 333.75 352.341 334.289V336.963H353.076V334.109C353.076 333.229 352.572 332.742 351.761 332.742C350.949 332.742 350.505 333.289 350.342 333.93V332.828H349.599V336.963H350.342ZM355.661 337.048C356.464 337.048 357.164 336.681 357.164 335.861C357.164 335.288 356.857 334.904 355.926 334.682L355.396 334.545C354.832 334.408 354.559 334.28 354.559 333.913C354.559 333.562 354.866 333.374 355.293 333.374C355.883 333.374 356.276 333.682 356.481 334.169L357.045 333.75C356.814 333.204 356.208 332.742 355.336 332.742C354.439 332.742 353.858 333.204 353.858 333.955C353.858 334.716 354.499 334.998 355.088 335.134L355.635 335.263C356.122 335.374 356.498 335.493 356.498 335.869C356.498 336.237 356.173 336.425 355.686 336.425C354.866 336.425 354.413 335.955 354.268 335.485L353.73 335.903C354.012 336.672 354.798 337.048 355.661 337.048ZM359.002 336.963V333.409H360.335V332.828H359.002V332.383C359.002 331.99 359.173 331.768 359.558 331.768C359.925 331.768 360.19 331.99 360.352 332.289L360.762 331.76C360.591 331.495 360.198 331.153 359.566 331.153C358.789 331.153 358.259 331.614 358.259 332.443V332.828H357.584V333.409H358.259V336.963H359.002ZM362.623 337.048C363.52 337.048 364.093 336.63 364.4 336.134L363.947 335.621C363.785 335.98 363.452 336.433 362.623 336.433C361.888 336.433 361.401 335.938 361.358 335.066H364.426C364.443 334.989 364.46 334.861 364.46 334.733C364.46 333.52 363.751 332.742 362.58 332.742C361.444 332.742 360.641 333.588 360.641 334.895C360.641 336.211 361.452 337.048 362.623 337.048ZM362.58 333.366C363.272 333.366 363.717 333.767 363.793 334.528H361.376C361.47 333.759 361.914 333.366 362.58 333.366ZM366.145 336.963V334.622C366.145 333.913 366.624 333.289 367.153 333.289C367.452 333.289 367.581 333.494 367.581 333.733C367.581 333.964 367.47 334.22 367.333 334.34H368.145C368.213 334.237 368.307 333.981 368.307 333.631C368.307 333.05 367.88 332.734 367.435 332.734C366.735 332.734 366.308 333.289 366.145 333.93V332.828H365.402V336.963H366.145Z" fill="#8807F7"/>
<rect x="125" y="382" width="254" height="199" fill="#D9D9D9"/>
<g clip-path="url(#clip4_9952_113330)">
<path opacity="0.35" fill-rule="evenodd" clip-rule="evenodd" d="M370.067 106.354C369.277 106.354 368.965 106.406 368.643 106.557C368.371 106.685 368.159 106.87 368.014 107.108C367.842 107.391 367.781 107.664 367.781 108.356V111.441C367.781 112.133 367.842 112.407 368.014 112.689C368.159 112.927 368.371 113.112 368.643 113.24C368.965 113.391 369.277 113.444 370.067 113.444H381.942C382.731 113.444 383.043 113.391 383.366 113.24C383.638 113.112 383.849 112.927 383.994 112.689C384.167 112.407 384.227 112.133 384.227 111.441V108.356C384.227 107.664 384.167 107.391 383.994 107.108C383.849 106.87 383.638 106.685 383.366 106.557C383.043 106.406 382.731 106.354 381.942 106.354H370.067Z" stroke="black" stroke-width="0.686158"/>
<path opacity="0.4" d="M385.402 108.526V111.271C386.033 111.039 386.442 110.498 386.442 109.899C386.442 109.3 386.033 108.759 385.402 108.526Z" fill="black"/>
<path d="M370.294 107.383H381.713C382.178 107.383 382.347 107.425 382.517 107.505C382.688 107.585 382.821 107.702 382.912 107.851C383.003 108 383.052 108.148 383.052 108.556V111.242C383.052 111.65 383.003 111.798 382.912 111.947C382.821 112.096 382.688 112.213 382.517 112.292C382.347 112.372 382.178 112.415 381.713 112.415H370.294C369.828 112.415 369.659 112.372 369.489 112.292C369.319 112.213 369.186 112.096 369.095 111.947C369.004 111.798 368.955 111.65 368.955 111.242V108.556C368.955 108.148 369.004 108 369.095 107.851C369.186 107.702 369.319 107.585 369.489 107.505C369.659 107.425 369.828 107.383 370.294 107.383Z" fill="black"/>
<path d="M357.471 107.576C359.213 107.576 360.889 108.162 362.152 109.213C362.247 109.294 362.399 109.293 362.492 109.211L363.401 108.408C363.449 108.366 363.475 108.31 363.475 108.251C363.474 108.192 363.447 108.135 363.399 108.094C360.085 105.314 354.857 105.314 351.542 108.094C351.494 108.135 351.467 108.192 351.467 108.251C351.466 108.31 351.493 108.366 351.54 108.408L352.449 109.211C352.543 109.294 352.695 109.295 352.79 109.213C354.053 108.162 355.729 107.576 357.471 107.576ZM357.471 110.189C358.428 110.189 359.352 110.5 360.061 111.063C360.157 111.143 360.308 111.141 360.402 111.059L361.31 110.256C361.357 110.214 361.384 110.157 361.383 110.097C361.383 110.038 361.355 109.981 361.306 109.94C359.145 108.18 355.799 108.18 353.638 109.94C353.589 109.981 353.561 110.038 353.561 110.097C353.56 110.157 353.587 110.214 353.635 110.256L354.542 111.059C354.636 111.141 354.787 111.143 354.883 111.063C355.592 110.501 356.515 110.189 357.471 110.189ZM359.216 112.105C359.264 112.064 359.291 112.006 359.29 111.947C359.288 111.887 359.259 111.831 359.209 111.791C358.206 111.048 356.737 111.048 355.734 111.791C355.683 111.831 355.654 111.887 355.652 111.947C355.651 112.006 355.678 112.064 355.726 112.105L357.297 113.493C357.343 113.534 357.406 113.557 357.471 113.557C357.537 113.557 357.599 113.534 357.645 113.493L359.216 112.105Z" fill="black"/>
<path d="M335.021 110.814H335.805C336.237 110.814 336.588 111.121 336.588 111.5V112.872C336.588 113.251 336.237 113.558 335.805 113.558H335.021C334.589 113.558 334.238 113.251 334.238 112.872V111.5C334.238 111.121 334.589 110.814 335.021 110.814ZM338.676 109.441H339.459C339.892 109.441 340.242 109.749 340.242 110.127V112.872C340.242 113.251 339.892 113.558 339.459 113.558H338.676C338.244 113.558 337.893 113.251 337.893 112.872V110.127C337.893 109.749 338.244 109.441 338.676 109.441ZM342.331 107.84H343.114C343.546 107.84 343.897 108.147 343.897 108.526V112.872C343.897 113.251 343.546 113.558 343.114 113.558H342.331C341.898 113.558 341.548 113.251 341.548 112.872V108.526C341.548 108.147 341.898 107.84 342.331 107.84ZM345.985 106.239H346.768C347.201 106.239 347.552 106.546 347.552 106.925V112.872C347.552 113.251 347.201 113.558 346.768 113.558H345.985C345.553 113.558 345.202 113.251 345.202 112.872V106.925C345.202 106.546 345.553 106.239 345.985 106.239Z" fill="black"/>
<path d="M130.103 107.387C130.302 107.304 130.508 107.212 130.721 107.109C130.94 106.999 131.153 106.882 131.359 106.759C131.565 106.628 131.76 106.495 131.946 106.357C132.138 106.213 132.309 106.062 132.46 105.904H133.531V113.037H131.997V107.901C131.791 108.038 131.561 108.165 131.307 108.282C131.054 108.392 130.807 108.488 130.566 108.57L130.103 107.387ZM140.338 107.778C140.338 108.038 140.286 108.289 140.183 108.529C140.08 108.769 139.946 109.002 139.782 109.229C139.617 109.449 139.432 109.661 139.226 109.867C139.02 110.073 138.818 110.268 138.619 110.454C138.516 110.55 138.403 110.66 138.279 110.783C138.162 110.9 138.049 111.02 137.939 111.143C137.83 111.267 137.73 111.383 137.641 111.493C137.559 111.596 137.507 111.682 137.487 111.751H140.554V113.037H135.799C135.785 112.962 135.778 112.866 135.778 112.749C135.778 112.632 135.778 112.55 135.778 112.502C135.778 112.173 135.83 111.871 135.932 111.596C136.042 111.322 136.183 111.068 136.354 110.835C136.526 110.594 136.718 110.371 136.931 110.166C137.15 109.96 137.367 109.754 137.579 109.548C137.744 109.39 137.898 109.243 138.042 109.105C138.186 108.961 138.313 108.824 138.423 108.694C138.533 108.556 138.619 108.423 138.681 108.292C138.742 108.155 138.773 108.018 138.773 107.881C138.773 107.579 138.687 107.366 138.516 107.243C138.344 107.119 138.132 107.057 137.878 107.057C137.692 107.057 137.517 107.088 137.353 107.15C137.195 107.205 137.047 107.273 136.91 107.356C136.78 107.431 136.667 107.51 136.571 107.592C136.475 107.668 136.402 107.73 136.354 107.778L135.593 106.707C135.895 106.426 136.245 106.196 136.643 106.018C137.047 105.832 137.48 105.74 137.939 105.74C138.358 105.74 138.718 105.788 139.02 105.884C139.322 105.98 139.569 106.117 139.761 106.296C139.96 106.467 140.104 106.68 140.194 106.934C140.29 107.181 140.338 107.462 140.338 107.778ZM143.306 108.57C143.306 108.879 143.206 109.116 143.007 109.28C142.815 109.438 142.595 109.517 142.348 109.517C142.101 109.517 141.878 109.438 141.679 109.28C141.487 109.116 141.391 108.879 141.391 108.57C141.391 108.261 141.487 108.028 141.679 107.87C141.878 107.706 142.101 107.623 142.348 107.623C142.595 107.623 142.815 107.706 143.007 107.87C143.206 108.028 143.306 108.261 143.306 108.57ZM143.306 112.224C143.306 112.533 143.206 112.77 143.007 112.934C142.815 113.092 142.595 113.171 142.348 113.171C142.101 113.171 141.878 113.092 141.679 112.934C141.487 112.77 141.391 112.533 141.391 112.224C141.391 111.915 141.487 111.682 141.679 111.524C141.878 111.359 142.101 111.277 142.348 111.277C142.595 111.277 142.815 111.359 143.007 111.524C143.206 111.682 143.306 111.915 143.306 112.224ZM149.111 109.455C149.111 110.656 148.882 111.579 148.422 112.224C147.969 112.862 147.341 113.181 146.538 113.181C145.735 113.181 145.104 112.862 144.644 112.224C144.192 111.579 143.965 110.656 143.965 109.455C143.965 108.858 144.024 108.33 144.14 107.87C144.264 107.411 144.439 107.023 144.665 106.707C144.891 106.392 145.163 106.152 145.478 105.987C145.794 105.822 146.147 105.74 146.538 105.74C147.341 105.74 147.969 106.062 148.422 106.707C148.882 107.345 149.111 108.261 149.111 109.455ZM147.547 109.455C147.547 109.099 147.53 108.776 147.495 108.488C147.461 108.193 147.406 107.939 147.331 107.726C147.255 107.514 147.152 107.349 147.022 107.232C146.892 107.116 146.73 107.057 146.538 107.057C146.346 107.057 146.185 107.116 146.055 107.232C145.931 107.349 145.828 107.514 145.746 107.726C145.67 107.939 145.615 108.193 145.581 108.488C145.547 108.776 145.53 109.099 145.53 109.455C145.53 109.812 145.547 110.138 145.581 110.433C145.615 110.728 145.67 110.982 145.746 111.195C145.828 111.407 145.931 111.572 146.055 111.689C146.185 111.805 146.346 111.864 146.538 111.864C146.73 111.864 146.892 111.805 147.022 111.689C147.152 111.572 147.255 111.407 147.331 111.195C147.406 110.982 147.461 110.728 147.495 110.433C147.53 110.138 147.547 109.812 147.547 109.455ZM154.961 109.455C154.961 110.656 154.731 111.579 154.272 112.224C153.819 112.862 153.191 113.181 152.388 113.181C151.585 113.181 150.954 112.862 150.494 112.224C150.041 111.579 149.815 110.656 149.815 109.455C149.815 108.858 149.873 108.33 149.99 107.87C150.113 107.411 150.288 107.023 150.515 106.707C150.741 106.392 151.012 106.152 151.328 105.987C151.644 105.822 151.997 105.74 152.388 105.74C153.191 105.74 153.819 106.062 154.272 106.707C154.731 107.345 154.961 108.261 154.961 109.455ZM153.397 109.455C153.397 109.099 153.38 108.776 153.345 108.488C153.311 108.193 153.256 107.939 153.181 107.726C153.105 107.514 153.002 107.349 152.872 107.232C152.741 107.116 152.58 107.057 152.388 107.057C152.196 107.057 152.035 107.116 151.904 107.232C151.781 107.349 151.678 107.514 151.596 107.726C151.52 107.939 151.465 108.193 151.431 108.488C151.397 108.776 151.379 109.099 151.379 109.455C151.379 109.812 151.397 110.138 151.431 110.433C151.465 110.728 151.52 110.982 151.596 111.195C151.678 111.407 151.781 111.572 151.904 111.689C152.035 111.805 152.196 111.864 152.388 111.864C152.58 111.864 152.741 111.805 152.872 111.689C153.002 111.572 153.105 111.407 153.181 111.195C153.256 110.982 153.311 110.728 153.345 110.433C153.38 110.138 153.397 109.812 153.397 109.455Z" fill="black"/>
</g>
</g>
<rect x="207.283" y="94.3999" width="91.2566" height="27.8047" rx="13.9024" fill="#3D0072"/>
<g opacity="0.5">
<circle cx="284.283" cy="107.948" r="5.70354" transform="rotate(90 284.283 107.948)" stroke="#A0A9BB" stroke-opacity="0.25" stroke-width="0.712942"/>
<circle cx="284.283" cy="107.948" r="5.70354" transform="rotate(90 284.283 107.948)" stroke="url(#paint8_linear_9952_113330)" stroke-width="0.712942"/>
</g>
<g filter="url(#filter0_i_9952_113330)">
<ellipse cx="284.279" cy="110.377" rx="1.4799" ry="2.85177" transform="rotate(90 284.279 110.377)" fill="url(#paint9_radial_9952_113330)"/>
</g>
<g filter="url(#filter1_i_9952_113330)">
<ellipse cx="1.4799" cy="2.85177" rx="1.4799" ry="2.85177" transform="matrix(0 -1 -1 0 287.133 107.102)" fill="url(#paint10_radial_9952_113330)"/>
</g>
<rect x="90.3965" y="144.72" width="1.51249" height="10.5874" fill="#3D0072"/>
<rect x="409.535" y="144.729" width="1.51249" height="10.5874" fill="#3D0072"/>
<rect x="352.057" y="76.6611" width="1.51249" height="10.5874" transform="rotate(90 352.057 76.6611)" fill="#3D0072"/>
<rect x="156.951" y="76.6582" width="1.51249" height="10.5874" transform="rotate(90 156.951 76.6582)" fill="#3D0072"/>
</g>
<path opacity="0.6" d="M16 20C16 8.95431 24.9543 0 36 0H469C480.046 0 489 8.95431 489 20V472H16V20Z" fill="#E8356D"/>
<path d="M144.72 248.32C150.52 248.32 154.68 245.4 156.72 240.68L151.84 236.76C151.04 240.12 148.76 242.84 144.68 242.84C140 242.84 137.56 239.44 137.56 234.56C137.56 229.68 140 226.28 144.68 226.28C148.76 226.28 151.04 229 151.84 232.36L156.72 228.44C154.68 223.72 150.52 220.8 144.72 220.8C136.32 220.8 131.4 226.84 131.4 234.56C131.4 242.28 136.32 248.32 144.72 248.32ZM168.261 248.4C174.381 248.4 178.261 244.2 178.261 238.2C178.261 232.24 174.381 228 168.261 228C162.301 228 158.461 232.24 158.461 238.2C158.461 244.2 162.301 248.4 168.261 248.4ZM168.341 243.76C165.941 243.76 164.261 242.2 164.261 238.2C164.261 234.16 165.941 232.64 168.341 232.64C170.781 232.64 172.461 234.16 172.461 238.2C172.461 242.2 170.781 243.76 168.341 243.76ZM187.134 248V237.16C187.134 233.96 188.014 232.44 190.294 232.44C192.614 232.44 193.414 233.76 193.414 236.32V248H199.134V237.16C199.134 233.96 200.014 232.44 202.294 232.44C204.614 232.44 205.414 233.76 205.414 236.32V248H211.134V234.32C211.134 230.28 209.134 228 205.534 228C201.494 228 199.734 230.84 199.134 234.08C199.134 230.28 197.134 228 193.534 228C189.494 228 187.734 230.84 187.134 234.04V228.4H181.414V248H187.134ZM220.767 226.08V221.2H215.047V226.08H220.767ZM220.767 248V228.4H215.047V248H220.767ZM230.533 248V237.16C230.533 233.96 231.413 232.44 234.133 232.44C236.733 232.44 237.373 233.92 237.373 236.32V248H243.093V234.32C243.093 230.28 240.813 228 237.093 228C233.053 228 231.173 230.88 230.533 234.08V228.4H224.813V248H230.533ZM255.328 242.32C260.448 242.32 263.928 239.4 263.928 235.16C263.928 232.68 262.728 230.68 260.728 229.4L264.528 225.44L259.448 223.72L258.568 228.44C257.568 228.16 256.488 228 255.328 228C250.208 228 246.768 230.92 246.768 235.16C246.768 237.68 247.968 239.72 250.008 240.96C248.128 242 246.368 243.64 246.368 245.64C246.368 247.36 247.648 248.24 249.288 248.6C246.928 248.88 244.968 249.84 244.968 251.72C244.968 254.04 248.128 255.84 254.168 255.84C261.968 255.84 265.528 252.8 265.528 249.12C265.528 246.24 263.568 244.44 259.208 244.44H252.328C250.768 244.44 250.288 243.92 250.288 243C250.288 242.44 250.528 241.84 250.808 241.4C252.088 242 253.608 242.32 255.328 242.32ZM255.328 238.48C253.528 238.48 252.088 237.36 252.088 235.16C252.088 232.96 253.528 231.84 255.328 231.84C257.168 231.84 258.568 232.96 258.568 235.16C258.568 237.36 257.168 238.48 255.328 238.48ZM254.648 251.84C250.968 251.84 249.568 251.08 249.568 249.8C249.568 249.32 249.848 248.92 250.088 248.64H258.368C259.888 248.64 260.608 248.92 260.608 249.8C260.608 251.08 258.608 251.84 254.648 251.84ZM287.315 248.4C293.115 248.4 297.435 245.64 297.435 240.52C297.435 235.72 294.035 233.68 289.035 232.52L285.995 231.8C283.195 231.16 281.475 230.44 281.475 228.48C281.475 226.92 282.955 226.04 284.995 226.04C288.075 226.04 291.195 227.56 292.955 230.36L296.835 226C294.595 222.8 290.555 220.88 285.515 220.88C280.075 220.88 275.555 223.64 275.555 228.88C275.555 233.96 279.475 235.8 283.635 236.64L286.235 237.2C289.795 237.92 291.555 238.6 291.555 240.68C291.555 242.52 289.875 243.24 287.555 243.24C284.355 243.24 280.475 241.76 278.675 238.4L274.915 242.8C277.395 246.72 282.155 248.4 287.315 248.4ZM309.511 248.4C315.631 248.4 319.511 244.2 319.511 238.2C319.511 232.24 315.631 228 309.511 228C303.551 228 299.711 232.24 299.711 238.2C299.711 244.2 303.551 248.4 309.511 248.4ZM309.591 243.76C307.191 243.76 305.511 242.2 305.511 238.2C305.511 234.16 307.191 232.64 309.591 232.64C312.031 232.64 313.711 234.16 313.711 238.2C313.711 242.2 312.031 243.76 309.591 243.76ZM331.855 248.4C337.975 248.4 341.855 244.2 341.855 238.2C341.855 232.24 337.975 228 331.855 228C325.895 228 322.055 232.24 322.055 238.2C322.055 244.2 325.895 248.4 331.855 248.4ZM331.935 243.76C329.535 243.76 327.855 242.2 327.855 238.2C327.855 234.16 329.535 232.64 331.935 232.64C334.375 232.64 336.055 234.16 336.055 238.2C336.055 242.2 334.375 243.76 331.935 243.76ZM350.728 248V237.16C350.728 233.96 351.608 232.44 354.328 232.44C356.928 232.44 357.568 233.92 357.568 236.32V248H363.288V234.32C363.288 230.28 361.008 228 357.288 228C353.248 228 351.368 230.88 350.728 234.08V228.4H345.008V248H350.728Z" fill="white"/>
</g>
<defs>
<filter id="filter0_i_9952_113330" x="281.428" y="108.897" width="5.70312" height="2.95996" filterUnits="userSpaceOnUse" color-interpolation-filters="sRGB">
<feFlood flood-opacity="0" result="BackgroundImageFix"/>
<feBlend mode="normal" in="SourceGraphic" in2="BackgroundImageFix" result="shape"/>
<feColorMatrix in="SourceAlpha" type="matrix" values="0 0 0 0 0 0 0 0 0 0 0 0 0 0 0 0 0 0 127 0" result="hardAlpha"/>
<feOffset/>
<feGaussianBlur stdDeviation="0.356471"/>
<feComposite in2="hardAlpha" operator="arithmetic" k2="-1" k3="1"/>
<feColorMatrix type="matrix" values="0 0 0 0 0 0 0 0 0 0 0 0 0 0 0 0 0 0 0.5 0"/>
<feBlend mode="normal" in2="shape" result="effect1_innerShadow_9952_113330"/>
</filter>
<filter id="filter1_i_9952_113330" x="281.43" y="104.142" width="5.70312" height="2.95996" filterUnits="userSpaceOnUse" color-interpolation-filters="sRGB">
<feFlood flood-opacity="0" result="BackgroundImageFix"/>
<feBlend mode="normal" in="SourceGraphic" in2="BackgroundImageFix" result="shape"/>
<feColorMatrix in="SourceAlpha" type="matrix" values="0 0 0 0 0 0 0 0 0 0 0 0 0 0 0 0 0 0 127 0" result="hardAlpha"/>
<feOffset/>
<feGaussianBlur stdDeviation="0.356471"/>
<feComposite in2="hardAlpha" operator="arithmetic" k2="-1" k3="1"/>
<feColorMatrix type="matrix" values="0 0 0 0 0 0 0 0 0 0 0 0 0 0 0 0 0 0 0.5 0"/>
<feBlend mode="normal" in2="shape" result="effect1_innerShadow_9952_113330"/>
</filter>
<linearGradient id="paint0_linear_9952_113330" x1="3.78341" y1="0" x2="3.78341" y2="77.1369" gradientUnits="userSpaceOnUse">
<stop stop-color="#3D0072"/>
<stop offset="1" stop-color="#80609B"/>
</linearGradient>
<linearGradient id="paint1_linear_9952_113330" x1="3.78341" y1="0" x2="3.78341" y2="74.1119" gradientUnits="userSpaceOnUse">
<stop stop-color="#3D0072"/>
<stop offset="1" stop-color="#80609B"/>
</linearGradient>
<linearGradient id="paint2_linear_9952_113330" x1="3.83725" y1="0" x2="3.83725" y2="51.2935" gradientUnits="userSpaceOnUse">
<stop stop-color="#3D0072"/>
<stop offset="1" stop-color="#80609B"/>
</linearGradient>
<linearGradient id="paint3_linear_9952_113330" x1="3.83725" y1="0" x2="3.83725" y2="48.4173" gradientUnits="userSpaceOnUse">
<stop stop-color="#3D0072"/>
<stop offset="1" stop-color="#80609B"/>
</linearGradient>
<linearGradient id="paint4_linear_9952_113330" x1="3.83725" y1="0" x2="3.83725" y2="50.3348" gradientUnits="userSpaceOnUse">
<stop stop-color="#3D0072"/>
<stop offset="1" stop-color="#80609B"/>
</linearGradient>
<linearGradient id="paint5_linear_9952_113330" x1="3.83725" y1="0" x2="3.83725" y2="22.0514" gradientUnits="userSpaceOnUse">
<stop stop-color="#3D0072"/>
<stop offset="1" stop-color="#80609B"/>
</linearGradient>
<linearGradient id="paint6_linear_9952_113330" x1="3.83725" y1="0" x2="3.83725" y2="19.1751" gradientUnits="userSpaceOnUse">
<stop stop-color="#3D0072"/>
<stop offset="1" stop-color="#80609B"/>
</linearGradient>
<linearGradient id="paint7_linear_9952_113330" x1="411.052" y1="76.6641" x2="90.4043" y2="722.497" gradientUnits="userSpaceOnUse">
<stop stop-color="#EFEFEF"/>
<stop offset="1" stop-color="#3D0072"/>
</linearGradient>
<linearGradient id="paint8_linear_9952_113330" x1="277.254" y1="106.726" x2="282.724" y2="115.528" gradientUnits="userSpaceOnUse">
<stop stop-color="#010005" stop-opacity="0.66"/>
<stop offset="1" stop-color="#2E2D31"/>
</linearGradient>
<radialGradient id="paint9_radial_9952_113330" cx="0" cy="0" r="1" gradientUnits="userSpaceOnUse" gradientTransform="translate(283.533 110.377) rotate(90) scale(3.65696 1.5035)">
<stop stop-color="#1F85DE"/>
<stop offset="0.257948" stop-color="#1B75C9"/>
<stop offset="1" stop-color="#000232"/>
</radialGradient>
<radialGradient id="paint10_radial_9952_113330" cx="0" cy="0" r="1" gradientUnits="userSpaceOnUse" gradientTransform="translate(0.734117 2.85177) rotate(90) scale(3.65696 1.5035)">
<stop stop-color="#1F85DE"/>
<stop offset="0.257948" stop-color="#1B75C9"/>
<stop offset="1" stop-color="#000232"/>
</radialGradient>
<clipPath id="clip0_9952_113330">
<rect width="488.997" height="472" fill="white" transform="translate(0.00195312)"/>
</clipPath>
<clipPath id="clip1_9952_113330">
<rect width="330.896" height="499.798" fill="white" transform="translate(91.7246 72) rotate(1.11069)"/>
</clipPath>
<clipPath id="clip2_9952_113330">
<rect x="104" y="90" width="293.676" height="927" rx="40" fill="white"/>
</clipPath>
<clipPath id="clip3_9952_113330">
<rect width="17.0879" height="17.0879" fill="white" transform="translate(310.389 326.111)"/>
</clipPath>
<clipPath id="clip4_9952_113330">
<rect width="293.676" height="38.4249" fill="white" transform="translate(104 90)"/>
</clipPath>
</defs>
</svg>
