<svg width="473" height="472" viewBox="0 0 473 472" fill="none" xmlns="http://www.w3.org/2000/svg">
<g clip-path="url(#clip0_9952_112809)">
<path opacity="0.8" d="M0 24C0 10.7452 10.7452 0 24 0H449C462.255 0 473 10.7452 473 24V472H0V24Z" fill="#E8356D"/>
<g clip-path="url(#clip1_9952_112809)">
<rect width="7.56681" height="77.1369" rx="3.02498" transform="matrix(-1 0 0 1 400.184 263.295)" fill="url(#paint0_linear_9952_112809)"/>
<rect width="7.56681" height="74.1119" rx="1.51249" transform="matrix(-1 0 0 1 398.645 264.797)" fill="url(#paint1_linear_9952_112809)"/>
<rect width="7.67449" height="51.2935" rx="3.02498" transform="matrix(1 -8.63978e-08 -1.30531e-07 -1 69.3574 385.217)" fill="url(#paint2_linear_9952_112809)"/>
<rect width="7.67449" height="48.4173" rx="1.51249" transform="matrix(1 -8.63978e-08 -1.30531e-07 -1 70.793 383.772)" fill="url(#paint3_linear_9952_112809)"/>
<rect width="7.67449" height="50.3348" rx="3.02498" transform="matrix(1 -8.63978e-08 -1.30531e-07 -1 69.3789 313.796)" fill="url(#paint4_linear_9952_112809)"/>
<rect width="7.67449" height="22.0514" rx="3.02498" transform="matrix(1 -8.63978e-08 -1.30531e-07 -1 69.8516 245.24)" fill="url(#paint5_linear_9952_112809)"/>
<rect width="6.46703" height="48.5027" rx="1.51249" transform="matrix(1 -8.63978e-08 -1.30531e-07 -1 71.5234 313.057)" fill="#3D0072"/>
<rect width="7.67449" height="19.1751" rx="1.51249" transform="matrix(1 -2.87993e-08 -1.5933e-07 -1 71.3008 243.808)" fill="url(#paint6_linear_9952_112809)"/>
<rect x="72.8926" y="65.1492" width="323.673" height="648.858" rx="56.7183" fill="#3D0072"/>
<rect x="74.4043" y="66.6641" width="320.648" height="645.833" rx="55.9621" fill="url(#paint7_linear_9952_112809)"/>
<rect x="75.7715" y="68.0015" width="317.623" height="642.808" rx="54.4496" fill="#3D0072"/>
<rect x="83.6094" y="75.8486" width="301.589" height="626.776" rx="48.5727" fill="white"/>
<g clip-path="url(#clip2_9952_112809)">
<rect x="88" y="80" width="293.676" height="927" rx="40" fill="white"/>
<path d="M114.3 160.567C113.518 160.567 112.736 160.54 111.954 160.485C111.185 160.444 110.382 160.334 109.545 160.155V146.322C110.204 146.199 110.924 146.11 111.707 146.055C112.489 145.986 113.216 145.952 113.889 145.952C114.794 145.952 115.625 146.021 116.379 146.158C117.148 146.281 117.807 146.501 118.355 146.816C118.904 147.132 119.33 147.551 119.632 148.072C119.947 148.58 120.105 149.211 120.105 149.966C120.105 151.105 119.556 152.004 118.458 152.663C119.364 153.006 119.982 153.472 120.311 154.062C120.64 154.652 120.805 155.318 120.805 156.059C120.805 157.555 120.256 158.68 119.158 159.435C118.074 160.19 116.455 160.567 114.3 160.567ZM112.674 154.165V157.85C112.907 157.877 113.161 157.898 113.436 157.912C113.71 157.925 114.012 157.932 114.341 157.932C115.302 157.932 116.077 157.795 116.668 157.521C117.258 157.246 117.553 156.738 117.553 155.997C117.553 155.339 117.306 154.872 116.812 154.598C116.318 154.309 115.611 154.165 114.691 154.165H112.674ZM112.674 151.716H114.239C115.227 151.716 115.933 151.592 116.359 151.345C116.784 151.084 116.997 150.673 116.997 150.11C116.997 149.534 116.777 149.129 116.338 148.896C115.899 148.662 115.254 148.546 114.403 148.546C114.129 148.546 113.834 148.552 113.518 148.566C113.202 148.566 112.921 148.58 112.674 148.607V151.716ZM132.412 160.011C131.891 160.162 131.218 160.299 130.395 160.423C129.572 160.56 128.707 160.629 127.801 160.629C126.882 160.629 126.113 160.505 125.496 160.258C124.892 160.011 124.412 159.668 124.055 159.229C123.698 158.776 123.444 158.241 123.293 157.623C123.142 157.006 123.067 156.327 123.067 155.586V149.554H126.134V155.215C126.134 156.203 126.264 156.917 126.525 157.356C126.786 157.795 127.273 158.015 127.987 158.015C128.206 158.015 128.439 158.008 128.686 157.994C128.933 157.967 129.153 157.939 129.345 157.912V149.554H132.412V160.011ZM137.906 154.886C137.906 155.833 138.118 156.594 138.544 157.171C138.969 157.747 139.601 158.035 140.438 158.035C140.712 158.035 140.966 158.028 141.199 158.015C141.433 157.987 141.625 157.96 141.776 157.932V152.354C141.584 152.23 141.33 152.127 141.014 152.045C140.712 151.963 140.403 151.922 140.088 151.922C138.633 151.922 137.906 152.91 137.906 154.886ZM144.843 160.032C144.568 160.114 144.253 160.197 143.896 160.279C143.539 160.348 143.162 160.409 142.764 160.464C142.379 160.519 141.981 160.56 141.57 160.588C141.172 160.629 140.788 160.649 140.417 160.649C139.525 160.649 138.729 160.519 138.029 160.258C137.329 159.998 136.739 159.627 136.259 159.147C135.779 158.653 135.408 158.063 135.147 157.376C134.9 156.677 134.777 155.894 134.777 155.03C134.777 154.152 134.887 153.362 135.106 152.663C135.326 151.949 135.641 151.345 136.053 150.851C136.465 150.357 136.966 149.98 137.556 149.719C138.16 149.458 138.846 149.328 139.614 149.328C140.04 149.328 140.417 149.369 140.746 149.451C141.089 149.534 141.433 149.65 141.776 149.801V144.902L144.843 144.408V160.032ZM150.329 154.618C150.329 156.334 151.022 157.191 152.408 157.191C152.724 157.191 153.019 157.15 153.293 157.068C153.568 156.985 153.801 156.889 153.993 156.78V151.88C153.842 151.853 153.664 151.832 153.458 151.819C153.252 151.791 153.012 151.777 152.737 151.777C151.928 151.777 151.324 152.045 150.926 152.58C150.528 153.115 150.329 153.795 150.329 154.618ZM157.06 159.023C157.06 160.794 156.607 162.104 155.702 162.955C154.81 163.819 153.423 164.252 151.543 164.252C150.885 164.252 150.226 164.19 149.567 164.067C148.909 163.957 148.298 163.806 147.735 163.614L148.27 161.041C148.751 161.233 149.252 161.384 149.773 161.493C150.308 161.603 150.912 161.658 151.585 161.658C152.463 161.658 153.08 161.466 153.437 161.082C153.808 160.697 153.993 160.203 153.993 159.6V159.209C153.664 159.359 153.321 159.476 152.964 159.558C152.621 159.627 152.243 159.661 151.832 159.661C150.336 159.661 149.19 159.222 148.394 158.344C147.598 157.452 147.2 156.21 147.2 154.618C147.2 153.822 147.324 153.102 147.571 152.457C147.818 151.798 148.174 151.235 148.641 150.769C149.121 150.302 149.705 149.945 150.391 149.698C151.077 149.438 151.852 149.307 152.717 149.307C153.087 149.307 153.465 149.328 153.849 149.369C154.247 149.396 154.638 149.438 155.022 149.493C155.406 149.547 155.77 149.616 156.113 149.698C156.47 149.767 156.786 149.842 157.06 149.925V159.023ZM159.422 155.05C159.422 154.09 159.566 153.253 159.855 152.539C160.156 151.812 160.548 151.208 161.028 150.728C161.508 150.247 162.057 149.884 162.675 149.637C163.306 149.39 163.951 149.266 164.61 149.266C166.147 149.266 167.361 149.74 168.253 150.686C169.145 151.62 169.591 152.999 169.591 154.824C169.591 155.002 169.584 155.201 169.571 155.421C169.557 155.627 169.543 155.812 169.529 155.977H162.572C162.64 156.608 162.935 157.109 163.457 157.479C163.978 157.85 164.678 158.035 165.556 158.035C166.119 158.035 166.668 157.987 167.203 157.891C167.752 157.781 168.198 157.651 168.541 157.5L168.953 159.991C168.788 160.073 168.569 160.155 168.294 160.238C168.02 160.32 167.711 160.389 167.368 160.444C167.039 160.512 166.682 160.567 166.298 160.608C165.913 160.649 165.529 160.67 165.145 160.67C164.17 160.67 163.32 160.526 162.592 160.238C161.879 159.95 161.282 159.558 160.801 159.064C160.335 158.557 159.985 157.96 159.752 157.274C159.532 156.587 159.422 155.846 159.422 155.05ZM166.627 153.877C166.613 153.616 166.565 153.362 166.483 153.115C166.414 152.868 166.298 152.649 166.133 152.457C165.982 152.265 165.783 152.107 165.536 151.983C165.303 151.86 165.008 151.798 164.651 151.798C164.308 151.798 164.013 151.86 163.766 151.983C163.519 152.093 163.313 152.244 163.148 152.436C162.983 152.628 162.853 152.855 162.757 153.115C162.675 153.362 162.613 153.616 162.572 153.877H166.627ZM171.855 146.858L174.922 146.364V149.554H178.607V152.107H174.922V155.915C174.922 156.56 175.032 157.075 175.252 157.459C175.485 157.843 175.945 158.035 176.631 158.035C176.96 158.035 177.296 158.008 177.639 157.953C177.996 157.884 178.319 157.795 178.607 157.685L179.039 160.073C178.669 160.224 178.257 160.354 177.804 160.464C177.351 160.574 176.795 160.629 176.137 160.629C175.3 160.629 174.607 160.519 174.058 160.299C173.509 160.066 173.07 159.751 172.74 159.353C172.411 158.941 172.178 158.447 172.04 157.87C171.917 157.294 171.855 156.656 171.855 155.956V146.858Z" fill="#3D0072"/>
<path d="M108.696 330.987H109.906V337.645H108.696V330.987ZM111.443 332.784C111.667 332.72 111.959 332.659 112.317 332.601C112.676 332.544 113.073 332.515 113.508 332.515C113.918 332.515 114.261 332.572 114.536 332.688C114.812 332.797 115.029 332.953 115.189 333.158C115.356 333.357 115.471 333.6 115.535 333.889C115.606 334.17 115.641 334.481 115.641 334.82V337.645H114.479V335.003C114.479 334.734 114.459 334.507 114.421 334.321C114.389 334.129 114.331 333.975 114.248 333.86C114.171 333.738 114.062 333.652 113.921 333.6C113.787 333.543 113.62 333.514 113.422 333.514C113.275 333.514 113.121 333.523 112.961 333.543C112.801 333.562 112.682 333.578 112.605 333.591V337.645H111.443V332.784ZM118.218 337.645C117.898 336.985 117.568 336.229 117.229 335.377C116.896 334.519 116.592 333.6 116.316 332.62H117.555C117.626 332.902 117.706 333.206 117.796 333.533C117.892 333.853 117.991 334.177 118.093 334.503C118.202 334.824 118.311 335.137 118.42 335.445C118.535 335.746 118.641 336.018 118.737 336.261C118.833 336.018 118.935 335.746 119.044 335.445C119.153 335.137 119.259 334.824 119.361 334.503C119.47 334.177 119.573 333.853 119.669 333.533C119.765 333.206 119.848 332.902 119.919 332.62H121.119C120.844 333.6 120.537 334.519 120.197 335.377C119.864 336.229 119.537 336.985 119.217 337.645H118.218ZM121.596 335.157C121.596 334.715 121.66 334.327 121.788 333.994C121.923 333.661 122.099 333.386 122.317 333.168C122.534 332.944 122.784 332.777 123.066 332.669C123.348 332.553 123.636 332.496 123.931 332.496C124.622 332.496 125.16 332.71 125.544 333.139C125.935 333.568 126.13 334.209 126.13 335.06C126.13 335.125 126.127 335.198 126.121 335.281C126.121 335.358 126.118 335.429 126.111 335.493H122.797C122.829 335.896 122.97 336.21 123.22 336.434C123.476 336.652 123.844 336.761 124.324 336.761C124.606 336.761 124.862 336.735 125.093 336.684C125.33 336.633 125.516 336.578 125.65 336.521L125.804 337.472C125.74 337.504 125.65 337.539 125.535 337.577C125.426 337.609 125.298 337.638 125.151 337.664C125.01 337.696 124.856 337.721 124.689 337.741C124.523 337.76 124.353 337.769 124.18 337.769C123.738 337.769 123.354 337.705 123.028 337.577C122.701 337.443 122.432 337.26 122.221 337.03C122.009 336.793 121.852 336.517 121.75 336.204C121.647 335.883 121.596 335.534 121.596 335.157ZM124.968 334.638C124.968 334.478 124.946 334.327 124.901 334.186C124.856 334.039 124.789 333.914 124.699 333.812C124.616 333.703 124.51 333.62 124.382 333.562C124.26 333.498 124.113 333.466 123.94 333.466C123.761 333.466 123.604 333.501 123.469 333.571C123.335 333.636 123.22 333.722 123.124 333.831C123.034 333.94 122.964 334.065 122.912 334.206C122.861 334.346 122.826 334.49 122.807 334.638H124.968ZM128.621 336.809C128.929 336.809 129.153 336.774 129.294 336.703C129.434 336.626 129.505 336.498 129.505 336.319C129.505 336.152 129.428 336.015 129.274 335.906C129.127 335.797 128.881 335.678 128.535 335.55C128.323 335.474 128.128 335.393 127.949 335.31C127.776 335.221 127.625 335.118 127.497 335.003C127.369 334.888 127.267 334.75 127.19 334.59C127.119 334.423 127.084 334.222 127.084 333.985C127.084 333.523 127.254 333.162 127.593 332.899C127.933 332.63 128.394 332.496 128.977 332.496C129.271 332.496 129.553 332.524 129.822 332.582C130.091 332.633 130.293 332.685 130.427 332.736L130.216 333.677C130.088 333.62 129.924 333.568 129.726 333.523C129.527 333.472 129.297 333.447 129.034 333.447C128.797 333.447 128.605 333.488 128.458 333.571C128.311 333.648 128.237 333.77 128.237 333.937C128.237 334.02 128.25 334.093 128.275 334.157C128.307 334.222 128.359 334.282 128.429 334.34C128.499 334.391 128.592 334.446 128.708 334.503C128.823 334.555 128.964 334.609 129.13 334.667C129.406 334.769 129.639 334.872 129.832 334.974C130.024 335.07 130.181 335.182 130.302 335.31C130.43 335.432 130.523 335.573 130.581 335.733C130.638 335.893 130.667 336.085 130.667 336.309C130.667 336.79 130.488 337.155 130.129 337.404C129.777 337.648 129.271 337.769 128.612 337.769C128.17 337.769 127.814 337.731 127.545 337.654C127.276 337.584 127.087 337.526 126.978 337.481L127.18 336.511C127.353 336.581 127.558 336.649 127.795 336.713C128.038 336.777 128.314 336.809 128.621 336.809ZM131.695 331.295L132.858 331.103V332.62H134.645V333.591H132.858V335.637C132.858 336.04 132.922 336.328 133.05 336.501C133.178 336.674 133.396 336.761 133.703 336.761C133.914 336.761 134.1 336.738 134.26 336.694C134.427 336.649 134.558 336.607 134.654 336.569L134.846 337.491C134.712 337.548 134.536 337.606 134.318 337.664C134.1 337.728 133.844 337.76 133.549 337.76C133.191 337.76 132.89 337.712 132.646 337.616C132.41 337.52 132.221 337.382 132.08 337.203C131.939 337.017 131.84 336.796 131.782 336.54C131.724 336.277 131.695 335.979 131.695 335.646V331.295ZM141.007 334.484C140.86 335.048 140.7 335.598 140.527 336.136C140.361 336.668 140.194 337.171 140.028 337.645H139.077C138.948 337.35 138.814 337.014 138.673 336.636C138.532 336.258 138.391 335.855 138.25 335.425C138.11 334.996 137.969 334.545 137.828 334.071C137.687 333.597 137.549 333.114 137.415 332.62H138.644C138.702 332.889 138.769 333.181 138.846 333.495C138.923 333.802 139.003 334.119 139.086 334.446C139.169 334.766 139.256 335.08 139.346 335.387C139.435 335.694 139.525 335.976 139.614 336.232C139.711 335.938 139.803 335.634 139.893 335.32C139.989 335.006 140.079 334.692 140.162 334.378C140.245 334.065 140.322 333.76 140.393 333.466C140.469 333.165 140.537 332.883 140.594 332.62H141.488C141.545 332.883 141.609 333.165 141.68 333.466C141.75 333.76 141.824 334.065 141.901 334.378C141.984 334.692 142.07 335.006 142.16 335.32C142.256 335.634 142.352 335.938 142.448 336.232C142.532 335.976 142.618 335.694 142.708 335.387C142.797 335.08 142.884 334.766 142.967 334.446C143.057 334.119 143.14 333.802 143.217 333.495C143.294 333.181 143.361 332.889 143.419 332.62H144.619C144.485 333.114 144.347 333.597 144.206 334.071C144.065 334.545 143.924 334.996 143.784 335.425C143.643 335.855 143.502 336.258 143.361 336.636C143.22 337.014 143.082 337.35 142.948 337.645H142.006C141.84 337.171 141.667 336.668 141.488 336.136C141.315 335.598 141.155 335.048 141.007 334.484ZM146.678 337.645H145.515V332.62H146.678V337.645ZM146.803 331.151C146.803 331.368 146.732 331.541 146.591 331.669C146.45 331.798 146.284 331.862 146.092 331.862C145.893 331.862 145.723 331.798 145.583 331.669C145.442 331.541 145.371 331.368 145.371 331.151C145.371 330.927 145.442 330.75 145.583 330.622C145.723 330.494 145.893 330.43 146.092 330.43C146.284 330.43 146.45 330.494 146.591 330.622C146.732 330.75 146.803 330.927 146.803 331.151ZM148.103 331.295L149.265 331.103V332.62H151.052V333.591H149.265V335.637C149.265 336.04 149.329 336.328 149.457 336.501C149.585 336.674 149.803 336.761 150.111 336.761C150.322 336.761 150.508 336.738 150.668 336.694C150.834 336.649 150.966 336.607 151.062 336.569L151.254 337.491C151.119 337.548 150.943 337.606 150.725 337.664C150.508 337.728 150.252 337.76 149.957 337.76C149.598 337.76 149.297 337.712 149.054 337.616C148.817 337.52 148.628 337.382 148.487 337.203C148.346 337.017 148.247 336.796 148.189 336.54C148.132 336.277 148.103 335.979 148.103 335.646V331.295ZM152.176 337.645V330.382L153.338 330.19V332.678C153.466 332.633 153.613 332.595 153.78 332.563C153.953 332.531 154.123 332.515 154.289 332.515C154.692 332.515 155.026 332.572 155.288 332.688C155.557 332.797 155.772 332.953 155.932 333.158C156.092 333.357 156.204 333.597 156.268 333.879C156.338 334.161 156.374 334.474 156.374 334.82V337.645H155.211V335.003C155.211 334.734 155.192 334.507 155.154 334.321C155.122 334.129 155.064 333.975 154.981 333.86C154.904 333.738 154.798 333.652 154.664 333.6C154.529 333.543 154.363 333.514 154.164 333.514C154.01 333.514 153.854 333.53 153.693 333.562C153.533 333.594 153.415 333.623 153.338 333.648V337.645H152.176ZM164.13 337.491C163.906 337.548 163.614 337.606 163.256 337.664C162.897 337.728 162.503 337.76 162.074 337.76C161.671 337.76 161.331 337.702 161.056 337.587C160.787 337.472 160.569 337.312 160.403 337.107C160.243 336.902 160.127 336.658 160.057 336.377C159.986 336.088 159.951 335.775 159.951 335.435V332.62H161.114V335.253C161.114 335.791 161.19 336.175 161.344 336.405C161.504 336.636 161.78 336.751 162.17 336.751C162.311 336.751 162.458 336.745 162.612 336.732C162.772 336.719 162.891 336.703 162.968 336.684V332.62H164.13V337.491ZM166.868 336.809C167.175 336.809 167.399 336.774 167.54 336.703C167.681 336.626 167.752 336.498 167.752 336.319C167.752 336.152 167.675 336.015 167.521 335.906C167.374 335.797 167.127 335.678 166.781 335.55C166.57 335.474 166.375 335.393 166.195 335.31C166.022 335.221 165.872 335.118 165.744 335.003C165.616 334.888 165.513 334.75 165.436 334.59C165.366 334.423 165.331 334.222 165.331 333.985C165.331 333.523 165.5 333.162 165.84 332.899C166.179 332.63 166.64 332.496 167.223 332.496C167.518 332.496 167.8 332.524 168.069 332.582C168.338 332.633 168.539 332.685 168.674 332.736L168.462 333.677C168.334 333.62 168.171 333.568 167.972 333.523C167.774 333.472 167.543 333.447 167.281 333.447C167.044 333.447 166.852 333.488 166.704 333.571C166.557 333.648 166.484 333.77 166.484 333.937C166.484 334.02 166.496 334.093 166.522 334.157C166.554 334.222 166.605 334.282 166.676 334.34C166.746 334.391 166.839 334.446 166.954 334.503C167.07 334.555 167.21 334.609 167.377 334.667C167.652 334.769 167.886 334.872 168.078 334.974C168.27 335.07 168.427 335.182 168.549 335.31C168.677 335.432 168.77 335.573 168.827 335.733C168.885 335.893 168.914 336.085 168.914 336.309C168.914 336.79 168.735 337.155 168.376 337.404C168.024 337.648 167.518 337.769 166.858 337.769C166.416 337.769 166.061 337.731 165.792 337.654C165.523 337.584 165.334 337.526 165.225 337.481L165.427 336.511C165.6 336.581 165.805 336.649 166.042 336.713C166.285 336.777 166.56 336.809 166.868 336.809Z" fill="#3D0072"/>
<rect x="105" y="198" width="261.303" height="84.0157" rx="8.23684" fill="#F9F9F9"/>
<path d="M124.61 239V236.558H124.036V235.827H124.61V235.115H124.036V234.384H124.61V231.942H126.161L126.932 234.384H127.832V231.942H128.929V234.384H129.492V235.115H128.929V235.827H129.492V236.558H128.929V239H127.367L126.577 236.558H125.707V239H124.61ZM125.707 235.827H126.359L126.142 235.115H125.687L125.707 235.827ZM127.862 237.458H127.911L127.871 236.558H127.605L127.862 237.458ZM125.667 234.384H125.944L125.657 233.435H125.618L125.667 234.384ZM127.397 235.827H127.852L127.832 235.115H127.17L127.397 235.827ZM136.513 239.148C138.767 239.148 140.175 237.784 140.175 235.738C140.175 233.766 139.078 232.491 137.195 232.491C135.875 232.491 135.075 233.203 134.763 234.092L135.001 230.608H139.434V229.066H133.399L133.073 234.715L134.704 234.878L134.719 234.745C134.808 234.107 135.475 233.707 136.424 233.707C137.447 233.707 138.381 234.27 138.381 235.664C138.381 236.82 137.729 237.532 136.528 237.532C135.253 237.532 134.378 236.791 134.037 235.56L132.703 236.85C133.207 238.14 134.615 239.148 136.513 239.148ZM141.925 240.72C143.037 240.601 143.467 240.023 143.467 239.029V236.894H141.569V239H142.444V239.192C142.444 239.682 142.118 239.786 141.584 239.845L141.925 240.72ZM148.762 239.133C151.535 239.133 152.928 236.939 152.928 234.018C152.928 231.112 151.535 228.918 148.762 228.918C145.989 228.918 144.581 231.112 144.581 234.018C144.581 236.939 145.989 239.133 148.762 239.133ZM148.762 237.532C146.998 237.532 146.345 236.109 146.345 234.018C146.345 231.942 146.998 230.504 148.762 230.504C150.541 230.504 151.179 231.942 151.179 234.018C151.179 236.109 150.541 237.532 148.762 237.532ZM158.448 239.133C161.221 239.133 162.615 236.939 162.615 234.018C162.615 231.112 161.221 228.918 158.448 228.918C155.676 228.918 154.267 231.112 154.267 234.018C154.267 236.939 155.676 239.133 158.448 239.133ZM158.448 237.532C156.684 237.532 156.032 236.109 156.032 234.018C156.032 231.942 156.684 230.504 158.448 230.504C160.227 230.504 160.865 231.942 160.865 234.018C160.865 236.109 160.227 237.532 158.448 237.532ZM168.135 239.133C170.907 239.133 172.301 236.939 172.301 234.018C172.301 231.112 170.907 228.918 168.135 228.918C165.362 228.918 163.954 231.112 163.954 234.018C163.954 236.939 165.362 239.133 168.135 239.133ZM168.135 237.532C166.37 237.532 165.718 236.109 165.718 234.018C165.718 231.942 166.37 230.504 168.135 230.504C169.914 230.504 170.551 231.942 170.551 234.018C170.551 236.109 169.914 237.532 168.135 237.532ZM173.779 240.72C174.891 240.601 175.321 240.023 175.321 239.029V236.894H173.423V239H174.298V239.192C174.298 239.682 173.971 239.786 173.438 239.845L173.779 240.72ZM180.615 239.133C183.388 239.133 184.782 236.939 184.782 234.018C184.782 231.112 183.388 228.918 180.615 228.918C177.843 228.918 176.434 231.112 176.434 234.018C176.434 236.939 177.843 239.133 180.615 239.133ZM180.615 237.532C178.851 237.532 178.199 236.109 178.199 234.018C178.199 231.942 178.851 230.504 180.615 230.504C182.395 230.504 183.032 231.942 183.032 234.018C183.032 236.109 182.395 237.532 180.615 237.532ZM190.302 239.133C193.074 239.133 194.468 236.939 194.468 234.018C194.468 231.112 193.074 228.918 190.302 228.918C187.529 228.918 186.121 231.112 186.121 234.018C186.121 236.939 187.529 239.133 190.302 239.133ZM190.302 237.532C188.537 237.532 187.885 236.109 187.885 234.018C187.885 231.942 188.537 230.504 190.302 230.504C192.081 230.504 192.718 231.942 192.718 234.018C192.718 236.109 192.081 237.532 190.302 237.532ZM199.988 239.133C202.761 239.133 204.154 236.939 204.154 234.018C204.154 231.112 202.761 228.918 199.988 228.918C197.216 228.918 195.807 231.112 195.807 234.018C195.807 236.939 197.216 239.133 199.988 239.133ZM199.988 237.532C198.224 237.532 197.571 236.109 197.571 234.018C197.571 231.942 198.224 230.504 199.988 230.504C201.767 230.504 202.405 231.942 202.405 234.018C202.405 236.109 201.767 237.532 199.988 237.532ZM207.174 239V236.894H205.276V239H207.174ZM212.469 239.133C215.241 239.133 216.635 236.939 216.635 234.018C216.635 231.112 215.241 228.918 212.469 228.918C209.696 228.918 208.288 231.112 208.288 234.018C208.288 236.939 209.696 239.133 212.469 239.133ZM212.469 237.532C210.704 237.532 210.052 236.109 210.052 234.018C210.052 231.942 210.704 230.504 212.469 230.504C214.248 230.504 214.885 231.942 214.885 234.018C214.885 236.109 214.248 237.532 212.469 237.532ZM222.155 239.133C224.928 239.133 226.321 236.939 226.321 234.018C226.321 231.112 224.928 228.918 222.155 228.918C219.383 228.918 217.974 231.112 217.974 234.018C217.974 236.939 219.383 239.133 222.155 239.133ZM222.155 237.532C220.391 237.532 219.738 236.109 219.738 234.018C219.738 231.942 220.391 230.504 222.155 230.504C223.934 230.504 224.572 231.942 224.572 234.018C224.572 236.109 223.934 237.532 222.155 237.532Z" fill="#3D0072"/>
<path fill-rule="evenodd" clip-rule="evenodd" d="M230.936 236.577C230.936 236.577 233.252 231.993 237.113 231.993C240.974 231.993 243.291 236.577 243.291 236.577C243.291 236.577 240.974 241.161 237.113 241.161C233.252 241.161 230.936 236.577 230.936 236.577ZM232.333 236.676C232.312 236.643 232.292 236.61 232.271 236.577L232.335 236.477C232.587 236.088 232.957 235.571 233.431 235.059C234.406 234.006 235.661 233.139 237.113 233.139C238.563 233.139 239.821 234.006 240.797 235.059C241.228 235.529 241.616 236.037 241.955 236.577C241.615 237.115 241.226 237.623 240.795 238.094C239.821 239.147 238.565 240.015 237.113 240.015C235.663 240.015 234.406 239.147 233.43 238.094C233.024 237.653 232.657 237.179 232.333 236.676ZM239.43 236.577C239.43 237.059 239.276 237.529 238.99 237.92C238.704 238.311 238.3 238.602 237.837 238.753C237.374 238.904 236.874 238.906 236.41 238.76C235.945 238.613 235.539 238.325 235.249 237.937C234.96 237.549 234.801 237.08 234.797 236.598C234.792 236.115 234.941 235.644 235.223 235.25C235.506 234.857 235.906 234.561 236.368 234.406C236.829 234.251 237.329 234.244 237.795 234.386C237.624 234.462 237.475 234.578 237.36 234.724C237.244 234.87 237.167 235.042 237.133 235.224C237.099 235.407 237.111 235.594 237.167 235.771C237.223 235.948 237.321 236.109 237.454 236.24C237.586 236.371 237.749 236.468 237.927 236.524C238.106 236.579 238.296 236.59 238.48 236.557C238.664 236.524 238.838 236.447 238.986 236.333C239.133 236.219 239.251 236.071 239.328 235.902C239.396 236.121 239.43 236.348 239.43 236.577Z" fill="#9CA3AF"/>
<rect x="123.938" y="249.868" width="49.3819" height="17.6214" rx="8.81071" fill="#3D0072" fill-opacity="0.11"/>
<rect x="127.232" y="253.179" width="24.8304" height="11" rx="5.5" fill="white"/>
<path d="M133.728 260.179V257.292L133.695 256.703L134.092 257.292L136.125 260.179H136.641V255.743H136.065V258.577L136.098 259.252L135.641 258.564L133.662 255.743H133.152V260.179H133.728ZM139.255 260.232C140.275 260.232 140.845 259.451 140.878 258.464L141.057 260.179H141.414V257.954H139.454V258.464H140.812C140.646 259.212 140.308 259.689 139.454 259.689C138.494 259.689 138.05 258.967 138.05 257.954C138.05 256.941 138.507 256.22 139.514 256.22C140.295 256.22 140.732 256.696 140.884 257.325L141.401 256.988C141.103 256.147 140.434 255.677 139.507 255.677C138.17 255.677 137.441 256.657 137.441 257.954C137.441 259.299 138.07 260.232 139.255 260.232ZM142.91 260.179V257.292L142.877 256.703L143.274 257.292L145.307 260.179H145.823V255.743H145.247V258.577L145.28 259.252L144.823 258.564L142.844 255.743H142.334V260.179H142.91Z" fill="#3D0072" fill-opacity="0.8"/>
<path d="M158.3 260.245C159.479 260.245 159.996 259.636 159.996 258.325V255.742H159.426V258.325C159.426 259.305 159.122 259.695 158.307 259.695C157.506 259.695 157.195 259.305 157.195 258.325V255.742H156.619V258.325C156.619 259.636 157.148 260.245 158.3 260.245ZM162.564 260.245C163.425 260.245 164.067 259.781 164.067 259.013C164.067 258.139 163.379 257.894 162.749 257.742L162.266 257.623C161.756 257.497 161.432 257.331 161.432 256.888C161.432 256.477 161.796 256.232 162.286 256.232C162.862 256.232 163.312 256.477 163.524 257.08L164.008 256.696C163.736 256.034 163.1 255.683 162.299 255.683C161.525 255.683 160.823 256.12 160.823 256.928C160.823 257.762 161.491 258.027 162.081 258.159L162.498 258.252C163.087 258.391 163.478 258.517 163.478 259.027C163.478 259.51 163.061 259.702 162.564 259.702C162.008 259.702 161.319 259.444 161.114 258.722L160.677 259.106C160.968 259.927 161.73 260.245 162.564 260.245ZM166.427 260.179C167.825 260.179 168.52 259.364 168.52 257.961C168.52 256.557 167.825 255.742 166.427 255.742H164.858V260.179H166.427ZM166.335 256.252C167.341 256.252 167.924 256.696 167.924 257.961C167.924 259.225 167.341 259.669 166.335 259.669H165.434V256.252H166.335Z" fill="#3D0072" fill-opacity="0.3"/>
<path d="M182.007 260.679V259.043H181.623V258.553H182.007V258.076H181.623V257.586H182.007V255.95H183.047L183.563 257.586H184.166V255.95H184.901V257.586H185.278V258.076H184.901V258.553H185.278V259.043H184.901V260.679H183.855L183.325 259.043H182.742V260.679H182.007ZM182.742 258.553H183.179L183.033 258.076H182.729L182.742 258.553ZM184.186 259.646H184.219L184.192 259.043H184.014L184.186 259.646ZM182.716 257.586H182.901L182.709 256.95H182.682L182.716 257.586ZM183.874 258.553H184.179L184.166 258.076H183.722L183.874 258.553ZM187.015 260.679C187.015 258.824 187.651 257.884 188.538 257.01L188.538 256.242H185.512V256.93H187.836C187.141 257.619 186.194 258.606 186.194 260.679H187.015ZM191.398 260.679V259.679H192.146V259.03H191.398L191.398 256.242H190.61L188.437 259.103V259.679H190.656V260.679H191.398ZM189.259 259.03L190.656 257.209L190.656 259.03H189.259ZM194.387 260.738C195.625 260.738 196.248 259.758 196.248 258.454C196.248 257.156 195.625 256.175 194.387 256.175C193.148 256.175 192.519 257.156 192.519 258.454C192.519 259.758 193.148 260.738 194.387 260.738ZM194.387 260.023C193.599 260.023 193.307 259.387 193.307 258.454C193.307 257.526 193.599 256.884 194.387 256.884C195.181 256.884 195.466 257.526 195.466 258.454C195.466 259.387 195.181 260.023 194.387 260.023ZM198.753 260.944L200.475 255.977H199.792L198.071 260.944H198.753ZM203.026 261.341V260.738C203.847 260.685 204.443 260.235 204.443 259.48C204.443 258.632 203.807 258.354 203.099 258.182L203.026 258.162V256.95C203.357 257.056 203.642 257.288 203.807 257.666L204.37 257.129C204.112 256.632 203.635 256.315 203.026 256.215V255.579H202.562V256.182C201.755 256.182 201.033 256.632 201.033 257.467C201.033 258.308 201.702 258.593 202.331 258.725L202.562 258.778V260.03C202.099 259.944 201.622 259.679 201.43 259.156L200.9 259.692C201.205 260.348 201.841 260.665 202.562 260.732V261.341H203.026ZM201.814 257.414C201.814 257.076 202.119 256.877 202.543 256.877H202.562V258.05C202.119 257.944 201.814 257.805 201.814 257.414ZM203.682 259.493C203.682 259.851 203.397 260.016 203.026 260.05V258.884C203.437 258.997 203.682 259.136 203.682 259.493ZM206.509 260.679V256.242H205.854C205.629 256.526 205.317 256.639 204.953 256.639V257.182H205.761V260.679H206.509Z" fill="#B69FC9"/>
<path d="M124.744 218.179L125.346 216.639H127.759L128.36 218.179H129.151L126.927 212.661H126.21L123.986 218.179H124.744ZM126.276 214.259L126.556 213.394L126.828 214.259L127.512 216.005H125.593L126.276 214.259ZM131.228 218.262C132.266 218.262 132.876 217.661 133.065 216.862L132.365 216.573C132.283 217.207 131.953 217.669 131.236 217.669C130.512 217.669 130.075 217.125 130.075 216.186C130.075 215.247 130.512 214.712 131.236 214.712C131.953 214.712 132.283 215.165 132.365 215.799L133.065 215.511C132.876 214.712 132.266 214.11 131.228 214.11C130.083 214.11 129.35 214.926 129.35 216.186C129.35 217.455 130.083 218.262 131.228 218.262ZM135.499 218.262C136.537 218.262 137.147 217.661 137.336 216.862L136.636 216.573C136.554 217.207 136.224 217.669 135.508 217.669C134.783 217.669 134.346 217.125 134.346 216.186C134.346 215.247 134.783 214.712 135.508 214.712C136.224 214.712 136.554 215.165 136.636 215.799L137.336 215.511C137.147 214.712 136.537 214.11 135.499 214.11C134.355 214.11 133.621 214.926 133.621 216.186C133.621 217.455 134.355 218.262 135.499 218.262ZM139.713 218.262C140.817 218.262 141.599 217.446 141.599 216.186C141.599 214.926 140.817 214.11 139.713 214.11C138.609 214.11 137.835 214.926 137.835 216.186C137.835 217.446 138.609 218.262 139.713 218.262ZM139.713 217.661C139.038 217.661 138.568 217.191 138.568 216.186C138.568 215.173 139.038 214.712 139.713 214.712C140.397 214.712 140.874 215.173 140.874 216.186C140.874 217.191 140.397 217.661 139.713 217.661ZM143.743 218.262C144.542 218.262 144.97 217.718 145.118 217.092V218.179H145.827V214.193H145.118V216.458C145.118 217.117 144.838 217.661 144.064 217.661C143.389 217.661 143.183 217.29 143.183 216.779V214.193H142.474V216.952C142.474 217.792 142.96 218.262 143.743 218.262ZM147.632 218.179V215.923C147.632 215.255 147.912 214.72 148.678 214.72C149.353 214.72 149.559 215.082 149.559 215.601V218.179H150.267V215.428C150.267 214.58 149.781 214.11 148.999 214.11C148.216 214.11 147.788 214.638 147.632 215.255V214.193H146.915V218.179H147.632ZM152.553 218.27C153.105 218.27 153.484 218.015 153.657 217.743L153.418 217.035C153.311 217.282 153.063 217.578 152.709 217.578C152.396 217.578 152.157 217.455 152.157 216.944V214.753H153.467V214.193H152.157V213.155L151.441 213.682V214.193H150.798V214.753H151.441V217.158C151.441 217.842 151.902 218.27 152.553 218.27ZM158.489 218.179C159.684 218.179 160.392 217.636 160.392 216.697C160.392 215.988 159.988 215.42 158.835 215.297C159.758 215.198 160.145 214.662 160.145 214.069C160.145 213.229 159.585 212.661 158.531 212.661H156.199V218.179H158.489ZM158.283 213.295C158.942 213.295 159.404 213.501 159.404 214.16C159.404 214.827 158.951 215.025 158.316 215.025H156.916V213.295H158.283ZM158.399 215.667C159.115 215.667 159.651 215.939 159.651 216.606C159.651 217.265 159.247 217.545 158.374 217.545H156.916V215.667H158.399ZM162.193 218.262C163.017 218.262 163.445 217.669 163.577 217.142V217.422C163.577 217.982 163.874 218.179 164.286 218.179H164.747V217.529H164.491C164.343 217.529 164.269 217.471 164.269 217.282V215.642C164.269 214.695 163.742 214.11 162.762 214.11C161.872 214.11 161.279 214.613 161.04 215.025L161.526 215.527C161.732 215.091 162.111 214.761 162.679 214.761C163.305 214.761 163.528 215.107 163.552 215.577L162.111 216.219C161.543 216.474 161.139 216.812 161.139 217.348C161.139 217.875 161.518 218.262 162.193 218.262ZM161.864 217.232C161.864 216.985 162.037 216.82 162.416 216.639L163.577 216.096V216.647C163.577 217.224 163.099 217.669 162.424 217.669C162.053 217.669 161.864 217.504 161.864 217.232ZM166.293 218.179V212.661H165.577V218.179H166.293ZM168.194 218.262C169.018 218.262 169.446 217.669 169.578 217.142V217.422C169.578 217.982 169.874 218.179 170.286 218.179H170.747V217.529H170.492C170.344 217.529 170.27 217.471 170.27 217.282V215.642C170.27 214.695 169.743 214.11 168.762 214.11C167.873 214.11 167.28 214.613 167.041 215.025L167.527 215.527C167.733 215.091 168.112 214.761 168.68 214.761C169.306 214.761 169.528 215.107 169.553 215.577L168.112 216.219C167.543 216.474 167.14 216.812 167.14 217.348C167.14 217.875 167.519 218.262 168.194 218.262ZM167.865 217.232C167.865 216.985 168.038 216.82 168.416 216.639L169.578 216.096V216.647C169.578 217.224 169.1 217.669 168.425 217.669C168.054 217.669 167.865 217.504 167.865 217.232ZM172.294 218.179V215.923C172.294 215.255 172.574 214.72 173.34 214.72C174.015 214.72 174.221 215.082 174.221 215.601V218.179H174.93V215.428C174.93 214.58 174.444 214.11 173.661 214.11C172.879 214.11 172.45 214.638 172.294 215.255V214.193H171.577V218.179H172.294ZM177.633 218.262C178.671 218.262 179.28 217.661 179.47 216.862L178.77 216.573C178.687 217.207 178.358 217.669 177.641 217.669C176.916 217.669 176.48 217.125 176.48 216.186C176.48 215.247 176.916 214.712 177.641 214.712C178.358 214.712 178.687 215.165 178.77 215.799L179.47 215.511C179.28 214.712 178.671 214.11 177.633 214.11C176.488 214.11 175.755 214.926 175.755 216.186C175.755 217.455 176.488 218.262 177.633 218.262ZM181.945 218.262C182.81 218.262 183.362 217.858 183.659 217.38L183.222 216.886C183.065 217.232 182.744 217.669 181.945 217.669C181.237 217.669 180.767 217.191 180.726 216.351H183.683C183.7 216.277 183.716 216.153 183.716 216.03C183.716 214.86 183.033 214.11 181.904 214.11C180.809 214.11 180.034 214.926 180.034 216.186C180.034 217.455 180.817 218.262 181.945 218.262ZM181.904 214.712C182.571 214.712 183 215.099 183.074 215.832H180.743C180.833 215.091 181.262 214.712 181.904 214.712Z" fill="#6B7280"/>
<rect x="105" y="303.294" width="84.0157" height="42.7199" rx="5.69598" fill="#FCE8EE"/>
<path d="M146.16 328.378V323.312H147.972V322.654H143.614V323.312H145.426V328.378H146.16ZM149.586 328.464C150.731 328.464 151.543 327.618 151.543 326.311C151.543 325.004 150.731 324.158 149.586 324.158C148.441 324.158 147.638 325.004 147.638 326.311C147.638 327.618 148.441 328.464 149.586 328.464ZM149.586 327.84C148.886 327.84 148.399 327.353 148.399 326.311C148.399 325.26 148.886 324.781 149.586 324.781C150.295 324.781 150.791 325.26 150.791 326.311C150.791 327.353 150.295 327.84 149.586 327.84ZM153.236 329.968V327.31C153.381 327.934 153.774 328.464 154.569 328.464C155.611 328.464 156.261 327.609 156.261 326.302C156.261 324.995 155.611 324.149 154.569 324.149C153.774 324.149 153.381 324.679 153.236 325.303V324.243H152.493V329.968H153.236ZM153.236 326.601V326.012C153.236 325.328 153.527 324.773 154.313 324.773C154.971 324.773 155.509 325.251 155.509 326.302C155.509 327.362 154.971 327.84 154.313 327.84C153.527 327.84 153.236 327.285 153.236 326.601ZM161.204 328.464C162.725 328.464 163.392 327.678 163.392 325.986V322.654H162.657V325.986C162.657 327.251 162.264 327.755 161.213 327.755C160.179 327.755 159.778 327.251 159.778 325.986V322.654H159.034V325.986C159.034 327.678 159.718 328.464 161.204 328.464ZM165.259 329.968V327.31C165.405 327.934 165.798 328.464 166.592 328.464C167.635 328.464 168.284 327.609 168.284 326.302C168.284 324.995 167.635 324.149 166.592 324.149C165.798 324.149 165.405 324.679 165.259 325.303V324.243H164.516V329.968H165.259ZM165.259 326.601V326.012C165.259 325.328 165.55 324.773 166.336 324.773C166.994 324.773 167.532 325.251 167.532 326.302C167.532 327.362 166.994 327.84 166.336 327.84C165.55 327.84 165.259 327.285 165.259 326.601Z" fill="#E8356D"/>
<path d="M132.851 327.399L130.117 319.197C128.284 313.684 125.269 313.684 123.436 319.197L122.88 320.864C122.714 321.349 122.337 321.726 121.852 321.892L120.191 322.442C114.678 324.275 114.672 327.284 120.191 329.123L128.393 331.857C132.072 333.084 134.078 331.078 132.851 327.399ZM128.08 328.044L124.63 324.594C124.368 324.332 124.368 323.898 124.63 323.636C124.892 323.374 125.327 323.374 125.588 323.636L129.038 327.086C129.3 327.348 129.3 327.782 129.038 328.044C128.776 328.306 128.342 328.306 128.08 328.044Z" fill="#E8356D"/>
<rect x="194.711" y="303.295" width="84.0157" height="42.7199" rx="5.69598" fill="#FEFCE8"/>
<path d="M229.574 328.387V326.105H230.489C231.052 326.105 231.36 326.242 231.574 326.627L232.582 328.387H233.453L232.428 326.618C232.249 326.302 232.035 326.123 231.77 326.037C232.65 325.918 233.274 325.337 233.274 324.422C233.274 323.277 232.445 322.662 231.326 322.662H228.831V328.387H229.574ZM231.206 323.32C231.89 323.32 232.505 323.568 232.505 324.422C232.505 325.234 231.89 325.482 231.206 325.482H229.574V323.32H231.206ZM235.787 328.472C236.684 328.472 237.257 328.054 237.564 327.558L237.111 327.045C236.949 327.404 236.616 327.857 235.787 327.857C235.052 327.857 234.565 327.361 234.523 326.49H237.59C237.607 326.413 237.624 326.285 237.624 326.157C237.624 324.943 236.915 324.166 235.744 324.166C234.608 324.166 233.805 325.012 233.805 326.319C233.805 327.635 234.617 328.472 235.787 328.472ZM235.744 324.79C236.437 324.79 236.881 325.191 236.958 325.952H234.54C234.634 325.183 235.078 324.79 235.744 324.79ZM240.111 328.472C240.905 328.472 241.298 327.942 241.443 327.319V329.976H242.187V324.251H241.443V325.311C241.298 324.687 240.905 324.157 240.111 324.157C239.068 324.157 238.419 325.003 238.419 326.311C238.419 327.618 239.068 328.472 240.111 328.472ZM239.171 326.311C239.171 325.26 239.709 324.781 240.358 324.781C241.153 324.781 241.443 325.337 241.443 326.02V326.61C241.443 327.293 241.153 327.848 240.358 327.848C239.709 327.848 239.171 327.37 239.171 326.311ZM244.604 328.472C245.433 328.472 245.877 327.908 246.031 327.259V328.387H246.765V324.251H246.031V326.601C246.031 327.285 245.74 327.848 244.937 327.848C244.236 327.848 244.023 327.464 244.023 326.934V324.251H243.288V327.114C243.288 327.985 243.792 328.472 244.604 328.472ZM249.638 328.472C250.535 328.472 251.107 328.054 251.415 327.558L250.962 327.045C250.8 327.404 250.467 327.857 249.638 327.857C248.903 327.857 248.416 327.361 248.373 326.49H251.441C251.458 326.413 251.475 326.285 251.475 326.157C251.475 324.943 250.766 324.166 249.595 324.166C248.459 324.166 247.656 325.012 247.656 326.319C247.656 327.635 248.467 328.472 249.638 328.472ZM249.595 324.79C250.287 324.79 250.731 325.191 250.808 325.952H248.39C248.484 325.183 248.929 324.79 249.595 324.79ZM253.956 328.472C254.759 328.472 255.46 328.105 255.46 327.285C255.46 326.712 255.152 326.328 254.221 326.105L253.691 325.969C253.127 325.832 252.854 325.704 252.854 325.337C252.854 324.986 253.162 324.798 253.589 324.798C254.178 324.798 254.571 325.106 254.776 325.593L255.34 325.174C255.11 324.627 254.503 324.166 253.632 324.166C252.734 324.166 252.153 324.627 252.153 325.379C252.153 326.14 252.794 326.422 253.384 326.558L253.931 326.686C254.418 326.798 254.794 326.917 254.794 327.293C254.794 327.66 254.469 327.848 253.982 327.848C253.162 327.848 252.709 327.379 252.564 326.909L252.025 327.327C252.307 328.096 253.093 328.472 253.956 328.472ZM257.614 328.481C258.186 328.481 258.579 328.216 258.759 327.934L258.511 327.199C258.4 327.455 258.144 327.763 257.776 327.763C257.452 327.763 257.204 327.635 257.204 327.105V324.832H258.562V324.251H257.204V323.175L256.46 323.722V324.251H255.794V324.832H256.46V327.327C256.46 328.036 256.939 328.481 257.614 328.481ZM260.915 328.472C261.718 328.472 262.419 328.105 262.419 327.285C262.419 326.712 262.111 326.328 261.18 326.105L260.65 325.969C260.086 325.832 259.813 325.704 259.813 325.337C259.813 324.986 260.12 324.798 260.547 324.798C261.137 324.798 261.53 325.106 261.735 325.593L262.299 325.174C262.068 324.627 261.462 324.166 260.59 324.166C259.693 324.166 259.112 324.627 259.112 325.379C259.112 326.14 259.753 326.422 260.342 326.558L260.889 326.686C261.376 326.798 261.752 326.917 261.752 327.293C261.752 327.66 261.428 327.848 260.941 327.848C260.12 327.848 259.667 327.379 259.522 326.909L258.984 327.327C259.266 328.096 260.052 328.472 260.915 328.472Z" fill="#EAB308"/>
<path d="M222.552 322.671L219.818 330.873C217.985 336.386 214.97 336.386 213.137 330.873L212.581 329.206C212.415 328.72 212.038 328.344 211.553 328.177L209.892 327.628C204.379 325.795 204.373 322.786 209.892 320.947L218.094 318.213C221.773 316.986 223.779 318.992 222.552 322.671ZM217.781 322.026L214.331 325.475C214.07 325.737 214.07 326.172 214.331 326.434C214.593 326.695 215.028 326.695 215.29 326.434L218.739 322.984C219.001 322.722 219.001 322.288 218.739 322.026C218.477 321.764 218.043 321.764 217.781 322.026Z" fill="#EAB308"/>
<rect x="284.424" y="303.295" width="84.0157" height="42.7199" rx="5.69598" fill="#F3E6FE"/>
<g clip-path="url(#clip3_9952_112809)">
<path d="M308.627 326.079C308.902 326.079 309.165 326.185 309.364 326.374C309.562 326.563 309.68 326.822 309.694 327.096C309.707 327.37 309.614 327.638 309.435 327.846C309.255 328.053 309.003 328.183 308.73 328.21L308.627 328.215H299.814L300.839 329.24C301.033 329.434 301.145 329.694 301.153 329.969C301.16 330.243 301.061 330.509 300.878 330.712C300.694 330.916 300.439 331.041 300.166 331.062C299.892 331.082 299.621 330.997 299.409 330.824L299.328 330.75L296.602 328.023C295.908 327.33 296.36 326.16 297.307 326.083L297.407 326.079H308.627ZM305.025 318.56C305.211 318.373 305.461 318.262 305.725 318.249C305.989 318.235 306.249 318.32 306.454 318.486L306.535 318.56L309.261 321.286C309.955 321.98 309.503 323.15 308.555 323.227L308.456 323.231H297.235C296.961 323.231 296.697 323.125 296.499 322.936C296.3 322.747 296.182 322.488 296.169 322.214C296.156 321.94 296.249 321.672 296.428 321.464C296.608 321.257 296.86 321.126 297.133 321.1L297.235 321.095H306.049L305.024 320.07C304.824 319.869 304.712 319.598 304.712 319.315C304.712 319.032 304.824 318.76 305.024 318.56H305.025Z" fill="#8807F7"/>
</g>
<path d="M323.453 326.962V321.896H325.265V321.238H320.907V321.896H322.719V326.962H323.453ZM326.416 326.962V324.621C326.416 323.912 326.894 323.288 327.424 323.288C327.723 323.288 327.851 323.494 327.851 323.733C327.851 323.963 327.74 324.22 327.603 324.339H328.415C328.483 324.237 328.577 323.981 328.577 323.63C328.577 323.049 328.15 322.733 327.706 322.733C327.005 322.733 326.578 323.288 326.416 323.929V322.827H325.672V326.962H326.416ZM330.09 327.048C330.944 327.048 331.388 326.433 331.525 325.886V326.176C331.525 326.757 331.832 326.962 332.26 326.962H332.738V326.287H332.473C332.319 326.287 332.243 326.228 332.243 326.031V324.331C332.243 323.348 331.696 322.742 330.679 322.742C329.756 322.742 329.141 323.263 328.893 323.69L329.397 324.211C329.611 323.758 330.004 323.417 330.594 323.417C331.243 323.417 331.474 323.775 331.499 324.263L330.004 324.929C329.415 325.194 328.996 325.544 328.996 326.099C328.996 326.646 329.389 327.048 330.09 327.048ZM329.748 325.98C329.748 325.724 329.927 325.553 330.32 325.365L331.525 324.801V325.373C331.525 325.971 331.029 326.433 330.329 326.433C329.944 326.433 329.748 326.262 329.748 325.98ZM334.342 326.962V324.621C334.342 323.929 334.633 323.374 335.427 323.374C336.128 323.374 336.341 323.75 336.341 324.288V326.962H337.076V324.109C337.076 323.229 336.572 322.742 335.761 322.742C334.949 322.742 334.505 323.288 334.342 323.929V322.827H333.599V326.962H334.342ZM339.661 327.048C340.464 327.048 341.164 326.68 341.164 325.86C341.164 325.288 340.857 324.903 339.926 324.681L339.396 324.544C338.832 324.408 338.559 324.28 338.559 323.912C338.559 323.562 338.866 323.374 339.293 323.374C339.883 323.374 340.276 323.682 340.481 324.169L341.045 323.75C340.814 323.203 340.208 322.742 339.336 322.742C338.439 322.742 337.858 323.203 337.858 323.955C337.858 324.715 338.499 324.997 339.088 325.134L339.635 325.262C340.122 325.373 340.498 325.493 340.498 325.869C340.498 326.236 340.173 326.424 339.686 326.424C338.866 326.424 338.413 325.954 338.268 325.484L337.73 325.903C338.012 326.672 338.798 327.048 339.661 327.048ZM343.002 326.962V323.408H344.335V322.827H343.002V322.383C343.002 321.99 343.173 321.768 343.558 321.768C343.925 321.768 344.19 321.99 344.352 322.289L344.762 321.759C344.591 321.494 344.198 321.153 343.566 321.153C342.789 321.153 342.259 321.614 342.259 322.443V322.827H341.584V323.408H342.259V326.962H343.002ZM346.623 327.048C347.52 327.048 348.093 326.629 348.4 326.134L347.947 325.621C347.785 325.98 347.452 326.433 346.623 326.433C345.888 326.433 345.401 325.937 345.358 325.066H348.426C348.443 324.989 348.46 324.861 348.46 324.732C348.46 323.519 347.751 322.742 346.58 322.742C345.444 322.742 344.641 323.588 344.641 324.895C344.641 326.211 345.452 327.048 346.623 327.048ZM346.58 323.365C347.272 323.365 347.717 323.767 347.793 324.527H345.376C345.47 323.758 345.914 323.365 346.58 323.365ZM350.145 326.962V324.621C350.145 323.912 350.624 323.288 351.153 323.288C351.452 323.288 351.581 323.494 351.581 323.733C351.581 323.963 351.47 324.22 351.333 324.339H352.145C352.213 324.237 352.307 323.981 352.307 323.63C352.307 323.049 351.88 322.733 351.435 322.733C350.735 322.733 350.308 323.288 350.145 323.929V322.827H349.402V326.962H350.145Z" fill="#8807F7"/>
<rect x="112" y="372" width="254" height="199" fill="#D9D9D9"/>
<g clip-path="url(#clip4_9952_112809)">
<path opacity="0.35" fill-rule="evenodd" clip-rule="evenodd" d="M354.067 96.3538C353.277 96.3538 352.965 96.4066 352.643 96.5576C352.371 96.6851 352.159 96.8701 352.014 97.1085C351.842 97.3909 351.781 97.6645 351.781 98.3563V101.442C351.781 102.133 351.842 102.407 352.014 102.689C352.159 102.928 352.371 103.113 352.643 103.24C352.965 103.391 353.277 103.444 354.067 103.444H365.942C366.731 103.444 367.043 103.391 367.366 103.24C367.638 103.113 367.849 102.928 367.994 102.689C368.167 102.407 368.227 102.133 368.227 101.442V98.3563C368.227 97.6645 368.167 97.3909 367.994 97.1085C367.849 96.8701 367.638 96.6851 367.366 96.5576C367.043 96.4066 366.731 96.3538 365.942 96.3538H354.067Z" stroke="black" stroke-width="0.686158"/>
<path opacity="0.4" d="M369.402 98.5264V101.271C370.033 101.039 370.442 100.498 370.442 99.8987C370.442 99.2996 370.033 98.7588 369.402 98.5264Z" fill="black"/>
<path d="M354.294 97.3831H365.713C366.178 97.3831 366.347 97.4255 366.517 97.5053C366.688 97.585 366.821 97.702 366.912 97.8511C367.003 98.0002 367.052 98.1481 367.052 98.5559V101.242C367.052 101.65 367.003 101.798 366.912 101.947C366.821 102.096 366.688 102.213 366.517 102.293C366.347 102.372 366.178 102.415 365.713 102.415H354.294C353.828 102.415 353.659 102.372 353.489 102.293C353.319 102.213 353.186 102.096 353.095 101.947C353.004 101.798 352.955 101.65 352.955 101.242V98.5559C352.955 98.1481 353.004 98.0002 353.095 97.8511C353.186 97.702 353.319 97.585 353.489 97.5053C353.659 97.4255 353.828 97.3831 354.294 97.3831Z" fill="black"/>
<path d="M341.471 97.5761C343.213 97.5761 344.889 98.1622 346.152 99.2131C346.247 99.2942 346.399 99.2932 346.492 99.2108L347.401 98.4078C347.449 98.366 347.475 98.3094 347.475 98.2505C347.474 98.1915 347.447 98.1352 347.399 98.0939C344.085 95.3134 338.857 95.3134 335.542 98.0939C335.494 98.1352 335.467 98.1915 335.467 98.2504C335.466 98.3093 335.493 98.3659 335.54 98.4078L336.449 99.2108C336.543 99.2933 336.695 99.2944 336.79 99.2131C338.053 98.1621 339.729 97.5761 341.471 97.5761ZM341.471 100.189C342.428 100.189 343.352 100.5 344.061 101.063C344.157 101.142 344.308 101.141 344.402 101.059L345.31 100.256C345.357 100.214 345.384 100.156 345.383 100.097C345.383 100.038 345.355 99.981 345.306 99.9397C343.145 98.1801 339.799 98.1801 337.638 99.9397C337.589 99.981 337.561 100.038 337.561 100.097C337.56 100.156 337.587 100.214 337.635 100.256L338.542 101.059C338.636 101.141 338.787 101.142 338.883 101.063C339.592 100.5 340.515 100.189 341.471 100.189ZM343.216 102.105C343.264 102.063 343.291 102.006 343.29 101.946C343.288 101.887 343.259 101.831 343.209 101.791C342.206 101.048 340.737 101.048 339.734 101.791C339.683 101.831 339.654 101.887 339.652 101.946C339.651 102.006 339.678 102.063 339.726 102.105L341.297 103.493C341.343 103.533 341.406 103.556 341.471 103.556C341.537 103.556 341.599 103.533 341.645 103.493L343.216 102.105Z" fill="black"/>
<path d="M319.021 100.814H319.805C320.237 100.814 320.588 101.121 320.588 101.5V102.872C320.588 103.251 320.237 103.558 319.805 103.558H319.021C318.589 103.558 318.238 103.251 318.238 102.872V101.5C318.238 101.121 318.589 100.814 319.021 100.814ZM322.676 99.4413H323.459C323.892 99.4413 324.242 99.7485 324.242 100.127V102.872C324.242 103.251 323.892 103.558 323.459 103.558H322.676C322.244 103.558 321.893 103.251 321.893 102.872V100.127C321.893 99.7485 322.244 99.4413 322.676 99.4413ZM326.331 97.8403H327.114C327.546 97.8403 327.897 98.1475 327.897 98.5265V102.872C327.897 103.251 327.546 103.558 327.114 103.558H326.331C325.898 103.558 325.548 103.251 325.548 102.872V98.5265C325.548 98.1475 325.898 97.8403 326.331 97.8403ZM329.985 96.2393H330.768C331.201 96.2393 331.552 96.5465 331.552 96.9254V102.872C331.552 103.251 331.201 103.558 330.768 103.558H329.985C329.553 103.558 329.202 103.251 329.202 102.872V96.9254C329.202 96.5465 329.553 96.2393 329.985 96.2393Z" fill="black"/>
<path d="M114.103 97.3866C114.302 97.3043 114.508 97.2116 114.721 97.1087C114.94 96.9989 115.153 96.8823 115.359 96.7588C115.565 96.6284 115.76 96.4946 115.946 96.3574C116.138 96.2133 116.309 96.0623 116.46 95.9045H117.531V103.037H115.997V97.9012C115.791 98.0384 115.561 98.1654 115.307 98.282C115.054 98.3918 114.807 98.4879 114.566 98.5702L114.103 97.3866ZM124.338 97.7777C124.338 98.0384 124.286 98.2889 124.183 98.529C124.08 98.7692 123.946 99.0025 123.782 99.2289C123.617 99.4485 123.432 99.6612 123.226 99.8671C123.02 100.073 122.818 100.268 122.619 100.454C122.516 100.55 122.403 100.66 122.279 100.783C122.162 100.9 122.049 101.02 121.939 101.143C121.83 101.267 121.73 101.383 121.641 101.493C121.559 101.596 121.507 101.682 121.487 101.751H124.554V103.037H119.799C119.785 102.962 119.778 102.866 119.778 102.749C119.778 102.632 119.778 102.55 119.778 102.502C119.778 102.173 119.83 101.871 119.932 101.596C120.042 101.322 120.183 101.068 120.354 100.835C120.526 100.594 120.718 100.371 120.931 100.166C121.15 99.9597 121.367 99.7538 121.579 99.548C121.744 99.3902 121.898 99.2427 122.042 99.1054C122.186 98.9613 122.313 98.8241 122.423 98.6937C122.533 98.5565 122.619 98.4227 122.681 98.2923C122.742 98.1551 122.773 98.0179 122.773 97.8806C122.773 97.5787 122.687 97.366 122.516 97.2425C122.344 97.119 122.132 97.0572 121.878 97.0572C121.692 97.0572 121.517 97.0881 121.353 97.1499C121.195 97.2048 121.047 97.2734 120.91 97.3557C120.78 97.4312 120.667 97.5101 120.571 97.5924C120.475 97.6679 120.402 97.7297 120.354 97.7777L119.593 96.7073C119.895 96.426 120.245 96.1961 120.643 96.0177C121.047 95.8324 121.48 95.7398 121.939 95.7398C122.358 95.7398 122.718 95.7878 123.02 95.8839C123.322 95.98 123.569 96.1172 123.761 96.2956C123.96 96.4671 124.104 96.6799 124.194 96.9337C124.29 97.1807 124.338 97.4621 124.338 97.7777ZM127.306 98.5702C127.306 98.879 127.206 99.1157 127.007 99.2804C126.815 99.4382 126.595 99.5171 126.348 99.5171C126.101 99.5171 125.878 99.4382 125.679 99.2804C125.487 99.1157 125.391 98.879 125.391 98.5702C125.391 98.2614 125.487 98.0282 125.679 97.8703C125.878 97.7057 126.101 97.6233 126.348 97.6233C126.595 97.6233 126.815 97.7057 127.007 97.8703C127.206 98.0282 127.306 98.2614 127.306 98.5702ZM127.306 102.224C127.306 102.533 127.206 102.77 127.007 102.934C126.815 103.092 126.595 103.171 126.348 103.171C126.101 103.171 125.878 103.092 125.679 102.934C125.487 102.77 125.391 102.533 125.391 102.224C125.391 101.915 125.487 101.682 125.679 101.524C125.878 101.359 126.101 101.277 126.348 101.277C126.595 101.277 126.815 101.359 127.007 101.524C127.206 101.682 127.306 101.915 127.306 102.224ZM133.111 99.4554C133.111 100.656 132.882 101.579 132.422 102.224C131.969 102.862 131.341 103.181 130.538 103.181C129.735 103.181 129.104 102.862 128.644 102.224C128.192 101.579 127.965 100.656 127.965 99.4554C127.965 98.8584 128.024 98.3301 128.14 97.8703C128.264 97.4106 128.439 97.0229 128.665 96.7073C128.891 96.3917 129.163 96.1515 129.478 95.9868C129.794 95.8222 130.147 95.7398 130.538 95.7398C131.341 95.7398 131.969 96.0623 132.422 96.7073C132.882 97.3454 133.111 98.2614 133.111 99.4554ZM131.547 99.4554C131.547 99.0986 131.53 98.7761 131.495 98.4879C131.461 98.1928 131.406 97.939 131.331 97.7262C131.255 97.5135 131.152 97.3489 131.022 97.2322C130.892 97.1156 130.73 97.0572 130.538 97.0572C130.346 97.0572 130.185 97.1156 130.055 97.2322C129.931 97.3489 129.828 97.5135 129.746 97.7262C129.67 97.939 129.615 98.1928 129.581 98.4879C129.547 98.7761 129.53 99.0986 129.53 99.4554C129.53 99.8122 129.547 100.138 129.581 100.433C129.615 100.728 129.67 100.982 129.746 101.195C129.828 101.407 129.931 101.572 130.055 101.689C130.185 101.805 130.346 101.864 130.538 101.864C130.73 101.864 130.892 101.805 131.022 101.689C131.152 101.572 131.255 101.407 131.331 101.195C131.406 100.982 131.461 100.728 131.495 100.433C131.53 100.138 131.547 99.8122 131.547 99.4554ZM138.961 99.4554C138.961 100.656 138.731 101.579 138.272 102.224C137.819 102.862 137.191 103.181 136.388 103.181C135.585 103.181 134.954 102.862 134.494 102.224C134.041 101.579 133.815 100.656 133.815 99.4554C133.815 98.8584 133.873 98.3301 133.99 97.8703C134.113 97.4106 134.288 97.0229 134.515 96.7073C134.741 96.3917 135.012 96.1515 135.328 95.9868C135.644 95.8222 135.997 95.7398 136.388 95.7398C137.191 95.7398 137.819 96.0623 138.272 96.7073C138.731 97.3454 138.961 98.2614 138.961 99.4554ZM137.397 99.4554C137.397 99.0986 137.38 98.7761 137.345 98.4879C137.311 98.1928 137.256 97.939 137.181 97.7262C137.105 97.5135 137.002 97.3489 136.872 97.2322C136.741 97.1156 136.58 97.0572 136.388 97.0572C136.196 97.0572 136.035 97.1156 135.904 97.2322C135.781 97.3489 135.678 97.5135 135.596 97.7262C135.52 97.939 135.465 98.1928 135.431 98.4879C135.397 98.7761 135.379 99.0986 135.379 99.4554C135.379 99.8122 135.397 100.138 135.431 100.433C135.465 100.728 135.52 100.982 135.596 101.195C135.678 101.407 135.781 101.572 135.904 101.689C136.035 101.805 136.196 101.864 136.388 101.864C136.58 101.864 136.741 101.805 136.872 101.689C137.002 101.572 137.105 101.407 137.181 101.195C137.256 100.982 137.311 100.728 137.345 100.433C137.38 100.138 137.397 99.8122 137.397 99.4554Z" fill="black"/>
</g>
</g>
<rect x="191.283" y="84.4004" width="91.2566" height="27.8047" rx="13.9024" fill="#3D0072"/>
<g opacity="0.5">
<circle cx="268.283" cy="97.9487" r="5.70354" transform="rotate(90 268.283 97.9487)" stroke="#A0A9BB" stroke-opacity="0.25" stroke-width="0.712942"/>
<circle cx="268.283" cy="97.9487" r="5.70354" transform="rotate(90 268.283 97.9487)" stroke="url(#paint8_linear_9952_112809)" stroke-width="0.712942"/>
</g>
<g filter="url(#filter0_i_9952_112809)">
<ellipse cx="268.279" cy="100.378" rx="1.4799" ry="2.85177" transform="rotate(90 268.279 100.378)" fill="url(#paint9_radial_9952_112809)"/>
</g>
<g filter="url(#filter1_i_9952_112809)">
<ellipse cx="1.4799" cy="2.85177" rx="1.4799" ry="2.85177" transform="matrix(0 -1 -1 0 271.133 97.1021)" fill="url(#paint10_radial_9952_112809)"/>
</g>
<rect x="74.3965" y="134.72" width="1.51249" height="10.5874" fill="#3D0072"/>
<rect x="393.535" y="134.729" width="1.51249" height="10.5874" fill="#3D0072"/>
<rect x="336.057" y="66.6614" width="1.51249" height="10.5874" transform="rotate(90 336.057 66.6614)" fill="#3D0072"/>
<rect x="140.951" y="66.6582" width="1.51249" height="10.5874" transform="rotate(90 140.951 66.6582)" fill="#3D0072"/>
</g>
<path opacity="0.6" d="M0 20C0 8.95431 8.9543 0 20 0H453C464.046 0 473 8.95431 473 20V472H0V20Z" fill="#E8356D"/>
<path d="M128.72 248.32C134.52 248.32 138.68 245.4 140.72 240.68L135.84 236.76C135.04 240.12 132.76 242.84 128.68 242.84C124 242.84 121.56 239.44 121.56 234.56C121.56 229.68 124 226.28 128.68 226.28C132.76 226.28 135.04 229 135.84 232.36L140.72 228.44C138.68 223.72 134.52 220.8 128.72 220.8C120.32 220.8 115.4 226.84 115.4 234.56C115.4 242.28 120.32 248.32 128.72 248.32ZM152.261 248.4C158.381 248.4 162.261 244.2 162.261 238.2C162.261 232.24 158.381 228 152.261 228C146.301 228 142.461 232.24 142.461 238.2C142.461 244.2 146.301 248.4 152.261 248.4ZM152.341 243.76C149.941 243.76 148.261 242.2 148.261 238.2C148.261 234.16 149.941 232.64 152.341 232.64C154.781 232.64 156.461 234.16 156.461 238.2C156.461 242.2 154.781 243.76 152.341 243.76ZM171.134 248V237.16C171.134 233.96 172.014 232.44 174.294 232.44C176.614 232.44 177.414 233.76 177.414 236.32V248H183.134V237.16C183.134 233.96 184.014 232.44 186.294 232.44C188.614 232.44 189.414 233.76 189.414 236.32V248H195.134V234.32C195.134 230.28 193.134 228 189.534 228C185.494 228 183.734 230.84 183.134 234.08C183.134 230.28 181.134 228 177.534 228C173.494 228 171.734 230.84 171.134 234.04V228.4H165.414V248H171.134ZM204.767 226.08V221.2H199.047V226.08H204.767ZM204.767 248V228.4H199.047V248H204.767ZM214.533 248V237.16C214.533 233.96 215.413 232.44 218.133 232.44C220.733 232.44 221.373 233.92 221.373 236.32V248H227.093V234.32C227.093 230.28 224.813 228 221.093 228C217.053 228 215.173 230.88 214.533 234.08V228.4H208.813V248H214.533ZM239.328 242.32C244.448 242.32 247.928 239.4 247.928 235.16C247.928 232.68 246.728 230.68 244.728 229.4L248.528 225.44L243.448 223.72L242.568 228.44C241.568 228.16 240.488 228 239.328 228C234.208 228 230.768 230.92 230.768 235.16C230.768 237.68 231.968 239.72 234.008 240.96C232.128 242 230.368 243.64 230.368 245.64C230.368 247.36 231.648 248.24 233.288 248.6C230.928 248.88 228.968 249.84 228.968 251.72C228.968 254.04 232.128 255.84 238.168 255.84C245.968 255.84 249.528 252.8 249.528 249.12C249.528 246.24 247.568 244.44 243.208 244.44H236.328C234.768 244.44 234.288 243.92 234.288 243C234.288 242.44 234.528 241.84 234.808 241.4C236.088 242 237.608 242.32 239.328 242.32ZM239.328 238.48C237.528 238.48 236.088 237.36 236.088 235.16C236.088 232.96 237.528 231.84 239.328 231.84C241.168 231.84 242.568 232.96 242.568 235.16C242.568 237.36 241.168 238.48 239.328 238.48ZM238.648 251.84C234.968 251.84 233.568 251.08 233.568 249.8C233.568 249.32 233.848 248.92 234.088 248.64H242.368C243.888 248.64 244.608 248.92 244.608 249.8C244.608 251.08 242.608 251.84 238.648 251.84ZM271.315 248.4C277.115 248.4 281.435 245.64 281.435 240.52C281.435 235.72 278.035 233.68 273.035 232.52L269.995 231.8C267.195 231.16 265.475 230.44 265.475 228.48C265.475 226.92 266.955 226.04 268.995 226.04C272.075 226.04 275.195 227.56 276.955 230.36L280.835 226C278.595 222.8 274.555 220.88 269.515 220.88C264.075 220.88 259.555 223.64 259.555 228.88C259.555 233.96 263.475 235.8 267.635 236.64L270.235 237.2C273.795 237.92 275.555 238.6 275.555 240.68C275.555 242.52 273.875 243.24 271.555 243.24C268.355 243.24 264.475 241.76 262.675 238.4L258.915 242.8C261.395 246.72 266.155 248.4 271.315 248.4ZM293.511 248.4C299.631 248.4 303.511 244.2 303.511 238.2C303.511 232.24 299.631 228 293.511 228C287.551 228 283.711 232.24 283.711 238.2C283.711 244.2 287.551 248.4 293.511 248.4ZM293.591 243.76C291.191 243.76 289.511 242.2 289.511 238.2C289.511 234.16 291.191 232.64 293.591 232.64C296.031 232.64 297.711 234.16 297.711 238.2C297.711 242.2 296.031 243.76 293.591 243.76ZM315.855 248.4C321.975 248.4 325.855 244.2 325.855 238.2C325.855 232.24 321.975 228 315.855 228C309.895 228 306.055 232.24 306.055 238.2C306.055 244.2 309.895 248.4 315.855 248.4ZM315.935 243.76C313.535 243.76 311.855 242.2 311.855 238.2C311.855 234.16 313.535 232.64 315.935 232.64C318.375 232.64 320.055 234.16 320.055 238.2C320.055 242.2 318.375 243.76 315.935 243.76ZM334.728 248V237.16C334.728 233.96 335.608 232.44 338.328 232.44C340.928 232.44 341.568 233.92 341.568 236.32V248H347.288V234.32C347.288 230.28 345.008 228 341.288 228C337.248 228 335.368 230.88 334.728 234.08V228.4H329.008V248H334.728Z" fill="white"/>
</g>
<defs>
<filter id="filter0_i_9952_112809" x="265.428" y="98.8984" width="5.70312" height="2.95972" filterUnits="userSpaceOnUse" color-interpolation-filters="sRGB">
<feFlood flood-opacity="0" result="BackgroundImageFix"/>
<feBlend mode="normal" in="SourceGraphic" in2="BackgroundImageFix" result="shape"/>
<feColorMatrix in="SourceAlpha" type="matrix" values="0 0 0 0 0 0 0 0 0 0 0 0 0 0 0 0 0 0 127 0" result="hardAlpha"/>
<feOffset/>
<feGaussianBlur stdDeviation="0.356471"/>
<feComposite in2="hardAlpha" operator="arithmetic" k2="-1" k3="1"/>
<feColorMatrix type="matrix" values="0 0 0 0 0 0 0 0 0 0 0 0 0 0 0 0 0 0 0.5 0"/>
<feBlend mode="normal" in2="shape" result="effect1_innerShadow_9952_112809"/>
</filter>
<filter id="filter1_i_9952_112809" x="265.43" y="94.1423" width="5.70312" height="2.95972" filterUnits="userSpaceOnUse" color-interpolation-filters="sRGB">
<feFlood flood-opacity="0" result="BackgroundImageFix"/>
<feBlend mode="normal" in="SourceGraphic" in2="BackgroundImageFix" result="shape"/>
<feColorMatrix in="SourceAlpha" type="matrix" values="0 0 0 0 0 0 0 0 0 0 0 0 0 0 0 0 0 0 127 0" result="hardAlpha"/>
<feOffset/>
<feGaussianBlur stdDeviation="0.356471"/>
<feComposite in2="hardAlpha" operator="arithmetic" k2="-1" k3="1"/>
<feColorMatrix type="matrix" values="0 0 0 0 0 0 0 0 0 0 0 0 0 0 0 0 0 0 0.5 0"/>
<feBlend mode="normal" in2="shape" result="effect1_innerShadow_9952_112809"/>
</filter>
<linearGradient id="paint0_linear_9952_112809" x1="3.78341" y1="0" x2="3.78341" y2="77.1369" gradientUnits="userSpaceOnUse">
<stop stop-color="#3D0072"/>
<stop offset="1" stop-color="#80609B"/>
</linearGradient>
<linearGradient id="paint1_linear_9952_112809" x1="3.78341" y1="0" x2="3.78341" y2="74.1119" gradientUnits="userSpaceOnUse">
<stop stop-color="#3D0072"/>
<stop offset="1" stop-color="#80609B"/>
</linearGradient>
<linearGradient id="paint2_linear_9952_112809" x1="3.83725" y1="0" x2="3.83725" y2="51.2935" gradientUnits="userSpaceOnUse">
<stop stop-color="#3D0072"/>
<stop offset="1" stop-color="#80609B"/>
</linearGradient>
<linearGradient id="paint3_linear_9952_112809" x1="3.83725" y1="0" x2="3.83725" y2="48.4173" gradientUnits="userSpaceOnUse">
<stop stop-color="#3D0072"/>
<stop offset="1" stop-color="#80609B"/>
</linearGradient>
<linearGradient id="paint4_linear_9952_112809" x1="3.83725" y1="0" x2="3.83725" y2="50.3348" gradientUnits="userSpaceOnUse">
<stop stop-color="#3D0072"/>
<stop offset="1" stop-color="#80609B"/>
</linearGradient>
<linearGradient id="paint5_linear_9952_112809" x1="3.83725" y1="0" x2="3.83725" y2="22.0514" gradientUnits="userSpaceOnUse">
<stop stop-color="#3D0072"/>
<stop offset="1" stop-color="#80609B"/>
</linearGradient>
<linearGradient id="paint6_linear_9952_112809" x1="3.83725" y1="0" x2="3.83725" y2="19.1751" gradientUnits="userSpaceOnUse">
<stop stop-color="#3D0072"/>
<stop offset="1" stop-color="#80609B"/>
</linearGradient>
<linearGradient id="paint7_linear_9952_112809" x1="395.052" y1="66.6641" x2="74.4043" y2="712.497" gradientUnits="userSpaceOnUse">
<stop stop-color="#EFEFEF"/>
<stop offset="1" stop-color="#3D0072"/>
</linearGradient>
<linearGradient id="paint8_linear_9952_112809" x1="261.254" y1="96.7267" x2="266.724" y2="105.528" gradientUnits="userSpaceOnUse">
<stop stop-color="#010005" stop-opacity="0.66"/>
<stop offset="1" stop-color="#2E2D31"/>
</linearGradient>
<radialGradient id="paint9_radial_9952_112809" cx="0" cy="0" r="1" gradientUnits="userSpaceOnUse" gradientTransform="translate(267.533 100.378) rotate(90) scale(3.65696 1.5035)">
<stop stop-color="#1F85DE"/>
<stop offset="0.257948" stop-color="#1B75C9"/>
<stop offset="1" stop-color="#000232"/>
</radialGradient>
<radialGradient id="paint10_radial_9952_112809" cx="0" cy="0" r="1" gradientUnits="userSpaceOnUse" gradientTransform="translate(0.734117 2.85177) rotate(90) scale(3.65696 1.5035)">
<stop stop-color="#1F85DE"/>
<stop offset="0.257948" stop-color="#1B75C9"/>
<stop offset="1" stop-color="#000232"/>
</radialGradient>
<clipPath id="clip0_9952_112809">
<rect width="473" height="472" fill="white"/>
</clipPath>
<clipPath id="clip1_9952_112809">
<rect width="330.896" height="499.798" fill="white" transform="translate(75.7246 62) rotate(1.11069)"/>
</clipPath>
<clipPath id="clip2_9952_112809">
<rect x="88" y="80" width="293.676" height="927" rx="40" fill="white"/>
</clipPath>
<clipPath id="clip3_9952_112809">
<rect width="17.0879" height="17.0879" fill="white" transform="translate(294.389 316.111)"/>
</clipPath>
<clipPath id="clip4_9952_112809">
<rect width="293.676" height="38.4249" fill="white" transform="translate(88 80)"/>
</clipPath>
</defs>
</svg>
