<svg width="178" height="177" viewBox="0 0 178 177" fill="none" xmlns="http://www.w3.org/2000/svg">
<ellipse cx="89" cy="87.2072" rx="87.5" ry="86.2072" fill="white" stroke="#F3F4F6" stroke-width="1.1164"/>
<mask id="mask0_9347_110666" style="mask-type:alpha" maskUnits="userSpaceOnUse" x="4" y="10" width="169" height="166">
<path d="M172.998 93.2414C172.998 138.948 135.39 176 88.998 176C42.6061 176 4.99805 138.948 4.99805 93.2414C4.99805 47.5349 42.6061 10.4824 88.998 10.4824C135.39 10.4824 172.998 47.5349 172.998 93.2414Z" fill="white"/>
</mask>
<g mask="url(#mask0_9347_110666)">
<path d="M149.101 154.958C143.609 140.41 110.002 133.463 104.118 129.246C96.5641 123.831 98.9693 105.904 98.9693 105.904L86.609 106.225L74.2486 105.904C74.2486 105.904 76.6539 123.835 69.0996 129.246C63.2156 133.463 29.6088 140.41 24.1168 154.958C18.6203 169.505 16.5625 182.363 16.5625 182.363H85.9275H87.2994H156.664C156.655 182.363 154.598 169.505 149.101 154.958Z" fill="#965450"/>
<path d="M71.9551 125.907C77.7411 125.323 83.5582 124.169 88.5959 121.391C92.2706 119.368 95.5756 116.977 98.6445 114.287C98.4619 109.679 98.9652 105.9 98.9652 105.9L86.6049 106.221L74.2445 105.9C74.2445 105.9 75.9549 118.662 71.9551 125.907Z" fill="#76413B"/>
<path d="M150.075 154.755C144.721 140.585 112.896 133.573 105.44 129.285C99.5511 132.66 92.3665 134.648 84.6073 134.648C77.8637 134.648 71.5566 133.147 66.1537 130.54C55.7041 134.924 29.0191 141.889 24.1552 154.755C18.6186 169.408 16.543 182.363 16.543 182.363H86.4202H87.8054H157.683C157.687 182.363 155.611 169.412 150.075 154.755Z" fill="#E8356D"/>
<path d="M12.3086 157.482H159.216" stroke="white" stroke-width="0.815958" stroke-miterlimit="10"/>
<path d="M12.3086 166.035H159.216" stroke="white" stroke-width="0.815958" stroke-miterlimit="10"/>
<path d="M12.3086 174.58H159.216" stroke="white" stroke-width="0.815958" stroke-miterlimit="10"/>
<path d="M12.3086 148.934H159.216" stroke="white" stroke-width="0.815958" stroke-miterlimit="10"/>
<path d="M65.8479 77.9514C63.8524 71.8472 59.122 73.2602 58.6811 73.4094C58.2178 73.4621 53.3316 74.1774 54.1734 80.5362C55.0242 86.93 58.788 90.3968 62.3201 89.3787C65.9547 88.8082 67.8567 84.0907 65.8479 77.9514Z" fill="#76413B"/>
<path d="M106.743 77.9514C108.739 71.8472 113.469 73.2602 113.91 73.4094C114.373 73.4621 119.259 74.1774 118.418 80.5362C117.567 86.93 113.803 90.3968 110.271 89.3787C106.636 88.8082 104.734 84.0907 106.743 77.9514Z" fill="#76413B"/>
<path d="M110.866 68.3499C108.394 41.5984 87.7488 43.0948 85.8023 43.2967C83.8558 43.0948 63.2107 41.5984 60.7386 68.3499C58.2488 95.2638 70.4176 112.839 85.8023 111.874C101.187 112.839 113.356 95.2638 110.866 68.3499Z" fill="#965450"/>
<path d="M87.166 90.9918C88.0123 89.8333 89.0412 88.8503 90.1459 87.9419L90.088 88.113L89.3931 82.8031C89.1793 81.0302 88.9477 79.2617 88.7473 77.4844C89.0591 79.2441 89.3441 81.0039 89.6425 82.768L90.4844 88.056L90.4977 88.1437C89.4911 89.2101 88.4176 90.2019 87.166 90.9918Z" fill="#76413B"/>
<path d="M72.9531 77.8909C72.9531 79.9051 73.7103 81.5376 74.6502 81.5376C75.5855 81.5376 76.3472 79.9051 76.3472 77.8909C76.3472 75.8766 75.59 74.2441 74.6502 74.2441C73.7103 74.2441 72.9531 75.8766 72.9531 77.8909Z" fill="#352C38"/>
<path d="M96.2539 77.8909C96.2539 79.9051 97.0111 81.5376 97.9509 81.5376C98.8863 81.5376 99.648 79.9051 99.648 77.8909C99.648 75.8766 98.8908 74.2441 97.9509 74.2441C97.0111 74.2441 96.2539 75.8766 96.2539 77.8909Z" fill="#352C38"/>
<path d="M68.793 71.9237C71.6615 67.452 77.5989 66.6138 80.6055 71.441C76.4453 67.8732 72.8151 68.6675 68.793 71.9237Z" fill="#352C38"/>
<path d="M92.2539 71.9237C95.1224 67.452 101.06 66.6138 104.066 71.441C99.9062 67.8732 96.276 68.6675 92.2539 71.9237Z" fill="#352C38"/>
<path d="M75.4629 94.8947L98.344 94.6797C98.344 94.6797 88.3978 103.772 75.4629 94.8947Z" fill="white"/>
<path d="M59.2958 53.0189C59.2958 53.0189 57.9106 86.4759 61.8347 102.177C64.7923 114 73.3844 117.199 73.3844 117.199C73.3844 117.199 93.7133 124.936 105.031 112.42C108.292 108.817 113.347 89.89 111.036 55.9767L102.72 52.5625C102.72 52.5625 104.105 69.1769 108.265 71.2263C108.265 71.2263 107.04 100.918 101.798 104.455C97.4103 107.413 104.8 90.7984 96.2522 91.0266C87.7046 91.2548 87.473 91.483 87.473 91.483C87.473 91.483 72.2263 88.9817 72.4579 94.8972C72.6896 100.813 74.3064 104.683 72.2263 104.683C70.1462 104.683 62.5251 99.9043 63.9104 68.7249C63.9104 68.7249 68.2977 67.1319 68.2977 56.2093C68.3022 41.8417 59.2958 53.0189 59.2958 53.0189Z" fill="#352C38"/>
<path d="M75.3574 96.2903L97.0634 96.0645C97.0634 96.0645 88.3843 104.478 75.3574 96.2903Z" fill="white"/>
<path d="M67.3782 51.2018C67.3782 51.2018 74.0239 60.0794 81.93 60.0794C86.3174 60.0794 81.93 52.5709 81.93 52.5709C81.93 52.5709 88.1659 62.1288 94.6334 61.9006C101.101 61.6724 95.5554 52.5709 95.5554 52.5709C95.5554 52.5709 100.406 62.357 106.415 61.9006C112.419 61.4442 107.337 51.8863 107.337 51.8863C107.337 51.8863 110.107 62.1288 115.884 60.764C121.661 59.3992 114.499 50.5216 114.499 50.5216C114.499 50.5216 119.35 55.0723 121.43 54.8441C123.51 54.6159 123.51 48.4722 116.348 45.5144C116.348 45.5144 123.51 45.2862 123.741 41.8721C124.004 38.0059 119.354 36.6367 108.726 37.7733C108.726 37.7733 117.506 34.131 115.657 30.945C113.809 27.7591 105.956 32.3098 105.956 32.3098C105.956 32.3098 113.809 27.9873 109.19 24.5731C105.399 21.7733 85.627 21.8435 73.6141 35.9521C73.6141 35.9521 98.562 22.9801 95.5599 21.1589C93.4397 19.8731 63.5922 26.4425 59.0623 38.9099C53.5168 54.1595 57.677 62.809 59.4676 73.1919L67.3782 51.2018Z" fill="#352C38"/>
</g>
</svg>
