<svg width="292" height="274" viewBox="0 0 292 274" fill="none" xmlns="http://www.w3.org/2000/svg">
<g filter="url(#filter0_d_1479_14140)">
<path d="M234.152 20.4375H53.5971C39.1452 20.4375 27.4297 32.153 27.4297 46.6049V221.926C27.4297 236.378 39.1452 248.094 53.5971 248.094H234.152C248.604 248.094 260.319 236.378 260.319 221.926V46.6049C260.319 32.153 248.604 20.4375 234.152 20.4375Z" fill="white"/>
</g>
<path d="M107.348 37.9707V42.3981H111.775V37.9707H107.348Z" fill="#8807F7"/>
<path d="M127.271 37.9707V42.3981H131.699V37.9707H127.271Z" fill="#8807F7"/>
<path d="M160.477 37.9707V42.3981H164.904V37.9707H160.477Z" fill="#8807F7"/>
<path d="M167.119 37.9707V42.3981H171.547V37.9707H167.119Z" fill="#8807F7"/>
<path d="M173.76 37.9707V42.3981H178.187V37.9707H173.76Z" fill="#8807F7"/>
<path d="M100.707 44.6113V49.0387H105.134V44.6113H100.707Z" fill="#8807F7"/>
<path d="M120.631 44.6113V49.0387H125.058V44.6113H120.631Z" fill="#8807F7"/>
<path d="M133.912 44.6113V49.0387H138.34V44.6113H133.912Z" fill="#8807F7"/>
<path d="M140.555 44.6113V49.0387H144.982V44.6113H140.555Z" fill="#8807F7"/>
<path d="M147.195 44.6113V49.0387H151.623V44.6113H147.195Z" fill="#8807F7"/>
<path d="M167.119 44.6113V49.0387H171.547V44.6113H167.119Z" fill="#8807F7"/>
<path d="M173.76 44.6113V49.0387H178.187V44.6113H173.76Z" fill="#8807F7"/>
<path d="M100.707 51.2539V55.6813H105.134V51.2539H100.707Z" fill="#8807F7"/>
<path d="M107.348 51.2539V55.6813H111.775V51.2539H107.348Z" fill="#8807F7"/>
<path d="M127.271 51.2539V55.6813H131.699V51.2539H127.271Z" fill="#8807F7"/>
<path d="M133.912 51.2539V55.6813H138.34V51.2539H133.912Z" fill="#8807F7"/>
<path d="M140.555 51.2539V55.6813H144.982V51.2539H140.555Z" fill="#8807F7"/>
<path d="M153.836 51.2539V55.6813H158.263V51.2539H153.836Z" fill="#8807F7"/>
<path d="M160.477 51.2539V55.6813H164.904V51.2539H160.477Z" fill="#8807F7"/>
<path d="M167.119 51.2539V55.6813H171.547V51.2539H167.119Z" fill="#8807F7"/>
<path d="M100.707 57.8926V62.32H105.134V57.8926H100.707Z" fill="#8807F7"/>
<path d="M127.271 57.8926V62.32H131.699V57.8926H127.271Z" fill="#8807F7"/>
<path d="M133.912 57.8926V62.32H138.34V57.8926H133.912Z" fill="#8807F7"/>
<path d="M140.555 57.8926V62.32H144.982V57.8926H140.555Z" fill="#8807F7"/>
<path d="M153.836 57.8926V62.32H158.263V57.8926H153.836Z" fill="#8807F7"/>
<path d="M160.477 57.8926V62.32H164.904V57.8926H160.477Z" fill="#8807F7"/>
<path d="M167.119 57.8926V62.32H171.547V57.8926H167.119Z" fill="#8807F7"/>
<path d="M173.76 57.8926V62.32H178.187V57.8926H173.76Z" fill="#8807F7"/>
<path d="M100.707 64.5332V68.9606H105.134V64.5332H100.707Z" fill="#8807F7"/>
<path d="M107.348 64.5332V68.9606H111.775V64.5332H107.348Z" fill="#8807F7"/>
<path d="M127.271 64.5332V68.9606H131.699V64.5332H127.271Z" fill="#8807F7"/>
<path d="M147.195 64.5332V68.9606H151.623V64.5332H147.195Z" fill="#8807F7"/>
<path d="M153.836 64.5332V68.9606H158.263V64.5332H153.836Z" fill="#8807F7"/>
<path d="M160.477 64.5332V68.9606H164.904V64.5332H160.477Z" fill="#8807F7"/>
<path d="M167.119 64.5332V68.9606H171.547V64.5332H167.119Z" fill="#8807F7"/>
<path d="M100.707 71.1758V75.6032H105.134V71.1758H100.707Z" fill="#8807F7"/>
<path d="M133.912 71.1758V75.6032H138.34V71.1758H133.912Z" fill="#8807F7"/>
<path d="M140.555 71.1758V75.6032H144.982V71.1758H140.555Z" fill="#8807F7"/>
<path d="M147.195 71.1758V75.6032H151.623V71.1758H147.195Z" fill="#8807F7"/>
<path d="M100.707 77.8164V82.2438H105.134V77.8164H100.707Z" fill="#8807F7"/>
<path d="M113.99 77.8164V82.2438H118.418V77.8164H113.99Z" fill="#8807F7"/>
<path d="M127.271 77.8164V82.2438H131.699V77.8164H127.271Z" fill="#8807F7"/>
<path d="M140.555 77.8164V82.2438H144.982V77.8164H140.555Z" fill="#8807F7"/>
<path d="M153.836 77.8164V82.2438H158.263V77.8164H153.836Z" fill="#8807F7"/>
<path d="M167.119 77.8164V82.2438H171.547V77.8164H167.119Z" fill="#8807F7"/>
<path d="M180.4 77.8164V82.2438H184.828V77.8164H180.4Z" fill="#8807F7"/>
<path d="M120.631 84.457V88.8844H125.058V84.457H120.631Z" fill="#8807F7"/>
<path d="M133.912 84.457V88.8844H138.34V84.457H133.912Z" fill="#8807F7"/>
<path d="M140.555 84.457V88.8844H144.982V84.457H140.555Z" fill="#8807F7"/>
<path d="M147.195 84.457V88.8844H151.623V84.457H147.195Z" fill="#8807F7"/>
<path d="M167.119 84.457V88.8844H171.547V84.457H167.119Z" fill="#8807F7"/>
<path d="M173.76 84.457V88.8844H178.187V84.457H173.76Z" fill="#8807F7"/>
<path d="M60.8613 91.0996V95.527H65.2887V91.0996H60.8613Z" fill="#8807F7"/>
<path d="M80.7832 91.0996V95.527H85.2106V91.0996H80.7832Z" fill="#8807F7"/>
<path d="M87.4258 91.0996V95.527H91.8532V91.0996H87.4258Z" fill="#8807F7"/>
<path d="M94.0664 91.0996V95.527H98.4938V91.0996H94.0664Z" fill="#8807F7"/>
<path d="M100.707 91.0996V95.527H105.134V91.0996H100.707Z" fill="#8807F7"/>
<path d="M140.555 91.0996V95.527H144.982V91.0996H140.555Z" fill="#8807F7"/>
<path d="M153.836 91.0996V95.527H158.263V91.0996H153.836Z" fill="#8807F7"/>
<path d="M160.477 91.0996V95.527H164.904V91.0996H160.477Z" fill="#8807F7"/>
<path d="M167.119 91.0996V95.527H171.547V91.0996H167.119Z" fill="#8807F7"/>
<path d="M173.76 91.0996V95.527H178.187V91.0996H173.76Z" fill="#8807F7"/>
<path d="M180.4 91.0996V95.527H184.828V91.0996H180.4Z" fill="#8807F7"/>
<path d="M187.041 91.0996V95.527H191.468V91.0996H187.041Z" fill="#8807F7"/>
<path d="M200.324 91.0996V95.527H204.752V91.0996H200.324Z" fill="#8807F7"/>
<path d="M206.965 91.0996V95.527H211.392V91.0996H206.965Z" fill="#8807F7"/>
<path d="M213.605 91.0996V95.527H218.033V91.0996H213.605Z" fill="#8807F7"/>
<path d="M220.248 91.0996V95.527H224.675V91.0996H220.248Z" fill="#8807F7"/>
<path d="M226.889 91.0996V95.527H231.316V91.0996H226.889Z" fill="#8807F7"/>
<path d="M54.2188 97.7383V102.166H58.6462V97.7383H54.2188Z" fill="#8807F7"/>
<path d="M60.8613 97.7383V102.166H65.2887V97.7383H60.8613Z" fill="#8807F7"/>
<path d="M67.502 97.7383V102.166H71.9294V97.7383H67.502Z" fill="#8807F7"/>
<path d="M74.1426 97.7383V102.166H78.57V97.7383H74.1426Z" fill="#8807F7"/>
<path d="M80.7832 97.7383V102.166H85.2106V97.7383H80.7832Z" fill="#8807F7"/>
<path d="M94.0664 97.7383V102.166H98.4938V97.7383H94.0664Z" fill="#8807F7"/>
<path d="M100.707 97.7383V102.166H105.134V97.7383H100.707Z" fill="#8807F7"/>
<path d="M120.631 97.7383V102.166H125.058V97.7383H120.631Z" fill="#8807F7"/>
<path d="M153.836 97.7383V102.166H158.263V97.7383H153.836Z" fill="#8807F7"/>
<path d="M167.119 97.7383V102.166H171.547V97.7383H167.119Z" fill="#8807F7"/>
<path d="M187.041 97.7383V102.166H191.468V97.7383H187.041Z" fill="#8807F7"/>
<path d="M193.684 97.7383V102.166H198.111V97.7383H193.684Z" fill="#8807F7"/>
<path d="M200.324 97.7383V102.166H204.752V97.7383H200.324Z" fill="#8807F7"/>
<path d="M213.605 97.7383V102.166H218.033V97.7383H213.605Z" fill="#8807F7"/>
<path d="M220.248 97.7383V102.166H224.675V97.7383H220.248Z" fill="#8807F7"/>
<path d="M226.889 97.7383V102.166H231.316V97.7383H226.889Z" fill="#8807F7"/>
<path d="M233.529 97.7383V102.166H237.957V97.7383H233.529Z" fill="#8807F7"/>
<path d="M47.5781 104.381V108.808H52.0055V104.381H47.5781Z" fill="#8807F7"/>
<path d="M60.8613 104.381V108.808H65.2887V104.381H60.8613Z" fill="#8807F7"/>
<path d="M74.1426 104.381V108.808H78.57V104.381H74.1426Z" fill="#8807F7"/>
<path d="M87.4258 104.381V108.808H91.8532V104.381H87.4258Z" fill="#8807F7"/>
<path d="M94.0664 104.381V108.808H98.4938V104.381H94.0664Z" fill="#8807F7"/>
<path d="M120.631 104.381V108.808H125.058V104.381H120.631Z" fill="#8807F7"/>
<path d="M127.271 104.381V108.808H131.699V104.381H127.271Z" fill="#8807F7"/>
<path d="M133.912 104.381V108.808H138.34V104.381H133.912Z" fill="#8807F7"/>
<path d="M147.195 104.381V108.808H151.623V104.381H147.195Z" fill="#8807F7"/>
<path d="M160.477 104.381V108.808H164.904V104.381H160.477Z" fill="#8807F7"/>
<path d="M167.119 104.381V108.808H171.547V104.381H167.119Z" fill="#8807F7"/>
<path d="M173.76 104.381V108.808H178.187V104.381H173.76Z" fill="#8807F7"/>
<path d="M187.041 104.381V108.808H191.468V104.381H187.041Z" fill="#8807F7"/>
<path d="M200.324 104.381V108.808H204.752V104.381H200.324Z" fill="#8807F7"/>
<path d="M213.605 104.381V108.808H218.033V104.381H213.605Z" fill="#8807F7"/>
<path d="M220.248 104.381V108.808H224.675V104.381H220.248Z" fill="#8807F7"/>
<path d="M233.529 104.381V108.808H237.957V104.381H233.529Z" fill="#8807F7"/>
<path d="M47.5781 111.021V115.449H52.0055V111.021H47.5781Z" fill="#8807F7"/>
<path d="M54.2188 111.021V115.449H58.6462V111.021H54.2188Z" fill="#8807F7"/>
<path d="M67.502 111.021V115.449H71.9294V111.021H67.502Z" fill="#8807F7"/>
<path d="M74.1426 111.021V115.449H78.57V111.021H74.1426Z" fill="#8807F7"/>
<path d="M80.7832 111.021V115.449H85.2106V111.021H80.7832Z" fill="#8807F7"/>
<path d="M107.348 111.021V115.449H111.775V111.021H107.348Z" fill="#8807F7"/>
<path d="M113.99 111.021V115.449H118.418V111.021H113.99Z" fill="#8807F7"/>
<path d="M120.631 111.021V115.449H125.058V111.021H120.631Z" fill="#8807F7"/>
<path d="M140.555 111.021V115.449H144.982V111.021H140.555Z" fill="#8807F7"/>
<path d="M147.195 111.021V115.449H151.623V111.021H147.195Z" fill="#8807F7"/>
<path d="M193.684 111.021V115.449H198.111V111.021H193.684Z" fill="#8807F7"/>
<path d="M200.324 111.021V115.449H204.752V111.021H200.324Z" fill="#8807F7"/>
<path d="M213.605 111.021V115.449H218.033V111.021H213.605Z" fill="#8807F7"/>
<path d="M54.2188 117.664V122.091H58.6462V117.664H54.2188Z" fill="#8807F7"/>
<path d="M60.8613 117.664V122.091H65.2887V117.664H60.8613Z" fill="#8807F7"/>
<path d="M67.502 117.664V122.091H71.9294V117.664H67.502Z" fill="#8807F7"/>
<path d="M80.7832 117.664V122.091H85.2106V117.664H80.7832Z" fill="#8807F7"/>
<path d="M87.4258 117.664V122.091H91.8532V117.664H87.4258Z" fill="#8807F7"/>
<path d="M94.0664 117.664V122.091H98.4938V117.664H94.0664Z" fill="#8807F7"/>
<path d="M100.707 117.664V122.091H105.134V117.664H100.707Z" fill="#8807F7"/>
<path d="M107.348 117.664V122.091H111.775V117.664H107.348Z" fill="#8807F7"/>
<path d="M140.555 117.664V122.091H144.982V117.664H140.555Z" fill="#8807F7"/>
<path d="M147.195 117.664V122.091H151.623V117.664H147.195Z" fill="#8807F7"/>
<path d="M153.836 117.664V122.091H158.263V117.664H153.836Z" fill="#8807F7"/>
<path d="M173.76 117.664V122.091H178.187V117.664H173.76Z" fill="#8807F7"/>
<path d="M187.041 117.664V122.091H191.468V117.664H187.041Z" fill="#8807F7"/>
<path d="M193.684 117.664V122.091H198.111V117.664H193.684Z" fill="#8807F7"/>
<path d="M213.605 117.664V122.091H218.033V117.664H213.605Z" fill="#8807F7"/>
<path d="M226.889 117.664V122.091H231.316V117.664H226.889Z" fill="#8807F7"/>
<path d="M47.5781 124.305V128.732H52.0055V124.305H47.5781Z" fill="#8807F7"/>
<path d="M54.2188 124.305V128.732H58.6462V124.305H54.2188Z" fill="#8807F7"/>
<path d="M107.348 124.305V128.732H111.775V124.305H107.348Z" fill="#8807F7"/>
<path d="M120.631 124.305V128.732H125.058V124.305H120.631Z" fill="#8807F7"/>
<path d="M133.912 124.305V128.732H138.34V124.305H133.912Z" fill="#8807F7"/>
<path d="M140.555 124.305V128.732H144.982V124.305H140.555Z" fill="#8807F7"/>
<path d="M153.836 124.305V128.732H158.263V124.305H153.836Z" fill="#8807F7"/>
<path d="M160.477 124.305V128.732H164.904V124.305H160.477Z" fill="#8807F7"/>
<path d="M167.119 124.305V128.732H171.547V124.305H167.119Z" fill="#8807F7"/>
<path d="M173.76 124.305V128.732H178.187V124.305H173.76Z" fill="#8807F7"/>
<path d="M180.4 124.305V128.732H184.828V124.305H180.4Z" fill="#8807F7"/>
<path d="M193.684 124.305V128.732H198.111V124.305H193.684Z" fill="#8807F7"/>
<path d="M213.605 124.305V128.732H218.033V124.305H213.605Z" fill="#8807F7"/>
<path d="M233.529 124.305V128.732H237.957V124.305H233.529Z" fill="#8807F7"/>
<path d="M47.5781 130.945V135.373H52.0055V130.945H47.5781Z" fill="#8807F7"/>
<path d="M54.2188 130.945V135.373H58.6462V130.945H54.2188Z" fill="#8807F7"/>
<path d="M67.502 130.945V135.373H71.9294V130.945H67.502Z" fill="#8807F7"/>
<path d="M80.7832 130.945V135.373H85.2106V130.945H80.7832Z" fill="#8807F7"/>
<path d="M87.4258 130.945V135.373H91.8532V130.945H87.4258Z" fill="#8807F7"/>
<path d="M107.348 130.945V135.373H111.775V130.945H107.348Z" fill="#8807F7"/>
<path d="M120.631 130.945V135.373H125.058V130.945H120.631Z" fill="#8807F7"/>
<path d="M127.271 130.945V135.373H131.699V130.945H127.271Z" fill="#8807F7"/>
<path d="M140.555 130.945V135.373H144.982V130.945H140.555Z" fill="#8807F7"/>
<path d="M160.477 130.945V135.373H164.904V130.945H160.477Z" fill="#8807F7"/>
<path d="M173.76 130.945V135.373H178.187V130.945H173.76Z" fill="#8807F7"/>
<path d="M187.041 130.945V135.373H191.468V130.945H187.041Z" fill="#8807F7"/>
<path d="M193.684 130.945V135.373H198.111V130.945H193.684Z" fill="#8807F7"/>
<path d="M213.605 130.945V135.373H218.033V130.945H213.605Z" fill="#8807F7"/>
<path d="M220.248 130.945V135.373H224.675V130.945H220.248Z" fill="#8807F7"/>
<path d="M233.529 130.945V135.373H237.957V130.945H233.529Z" fill="#8807F7"/>
<path d="M47.5781 137.588V142.015H52.0055V137.588H47.5781Z" fill="#8807F7"/>
<path d="M54.2188 137.588V142.015H58.6462V137.588H54.2188Z" fill="#8807F7"/>
<path d="M67.502 137.588V142.015H71.9294V137.588H67.502Z" fill="#8807F7"/>
<path d="M80.7832 137.588V142.015H85.2106V137.588H80.7832Z" fill="#8807F7"/>
<path d="M94.0664 137.588V142.015H98.4938V137.588H94.0664Z" fill="#8807F7"/>
<path d="M113.99 137.588V142.015H118.418V137.588H113.99Z" fill="#8807F7"/>
<path d="M127.271 137.588V142.015H131.699V137.588H127.271Z" fill="#8807F7"/>
<path d="M133.912 137.588V142.015H138.34V137.588H133.912Z" fill="#8807F7"/>
<path d="M140.555 137.588V142.015H144.982V137.588H140.555Z" fill="#8807F7"/>
<path d="M147.195 137.588V142.015H151.623V137.588H147.195Z" fill="#8807F7"/>
<path d="M167.119 137.588V142.015H171.547V137.588H167.119Z" fill="#8807F7"/>
<path d="M193.684 137.588V142.015H198.111V137.588H193.684Z" fill="#8807F7"/>
<path d="M213.605 137.588V142.015H218.033V137.588H213.605Z" fill="#8807F7"/>
<path d="M54.2188 144.229V148.656H58.6462V144.229H54.2188Z" fill="#8807F7"/>
<path d="M67.502 144.229V148.656H71.9294V144.229H67.502Z" fill="#8807F7"/>
<path d="M74.1426 144.229V148.656H78.57V144.229H74.1426Z" fill="#8807F7"/>
<path d="M87.4258 144.229V148.656H91.8532V144.229H87.4258Z" fill="#8807F7"/>
<path d="M94.0664 144.229V148.656H98.4938V144.229H94.0664Z" fill="#8807F7"/>
<path d="M100.707 144.229V148.656H105.134V144.229H100.707Z" fill="#8807F7"/>
<path d="M107.348 144.229V148.656H111.775V144.229H107.348Z" fill="#8807F7"/>
<path d="M113.99 144.229V148.656H118.418V144.229H113.99Z" fill="#8807F7"/>
<path d="M120.631 144.229V148.656H125.058V144.229H120.631Z" fill="#8807F7"/>
<path d="M127.271 144.229V148.656H131.699V144.229H127.271Z" fill="#8807F7"/>
<path d="M133.912 144.229V148.656H138.34V144.229H133.912Z" fill="#8807F7"/>
<path d="M140.555 144.229V148.656H144.982V144.229H140.555Z" fill="#8807F7"/>
<path d="M160.477 144.229V148.656H164.904V144.229H160.477Z" fill="#8807F7"/>
<path d="M173.76 144.229V148.656H178.187V144.229H173.76Z" fill="#8807F7"/>
<path d="M180.4 144.229V148.656H184.828V144.229H180.4Z" fill="#8807F7"/>
<path d="M193.684 144.229V148.656H198.111V144.229H193.684Z" fill="#8807F7"/>
<path d="M200.324 144.229V148.656H204.752V144.229H200.324Z" fill="#8807F7"/>
<path d="M54.2188 150.869V155.297H58.6462V150.869H54.2188Z" fill="#8807F7"/>
<path d="M60.8613 150.869V155.297H65.2887V150.869H60.8613Z" fill="#8807F7"/>
<path d="M74.1426 150.869V155.297H78.57V150.869H74.1426Z" fill="#8807F7"/>
<path d="M100.707 150.869V155.297H105.134V150.869H100.707Z" fill="#8807F7"/>
<path d="M107.348 150.869V155.297H111.775V150.869H107.348Z" fill="#8807F7"/>
<path d="M113.99 150.869V155.297H118.418V150.869H113.99Z" fill="#8807F7"/>
<path d="M133.912 150.869V155.297H138.34V150.869H133.912Z" fill="#8807F7"/>
<path d="M147.195 150.869V155.297H151.623V150.869H147.195Z" fill="#8807F7"/>
<path d="M153.836 150.869V155.297H158.263V150.869H153.836Z" fill="#8807F7"/>
<path d="M167.119 150.869V155.297H171.547V150.869H167.119Z" fill="#8807F7"/>
<path d="M173.76 150.869V155.297H178.187V150.869H173.76Z" fill="#8807F7"/>
<path d="M180.4 150.869V155.297H184.828V150.869H180.4Z" fill="#8807F7"/>
<path d="M193.684 150.869V155.297H198.111V150.869H193.684Z" fill="#8807F7"/>
<path d="M200.324 150.869V155.297H204.752V150.869H200.324Z" fill="#8807F7"/>
<path d="M233.529 150.869V155.297H237.957V150.869H233.529Z" fill="#8807F7"/>
<path d="M47.5781 157.51V161.937H52.0055V157.51H47.5781Z" fill="#8807F7"/>
<path d="M54.2188 157.51V161.937H58.6462V157.51H54.2188Z" fill="#8807F7"/>
<path d="M80.7832 157.51V161.937H85.2106V157.51H80.7832Z" fill="#8807F7"/>
<path d="M87.4258 157.51V161.937H91.8532V157.51H87.4258Z" fill="#8807F7"/>
<path d="M127.271 157.51V161.937H131.699V157.51H127.271Z" fill="#8807F7"/>
<path d="M133.912 157.51V161.937H138.34V157.51H133.912Z" fill="#8807F7"/>
<path d="M147.195 157.51V161.937H151.623V157.51H147.195Z" fill="#8807F7"/>
<path d="M167.119 157.51V161.937H171.547V157.51H167.119Z" fill="#8807F7"/>
<path d="M173.76 157.51V161.937H178.187V157.51H173.76Z" fill="#8807F7"/>
<path d="M206.965 157.51V161.937H211.392V157.51H206.965Z" fill="#8807F7"/>
<path d="M220.248 157.51V161.937H224.675V157.51H220.248Z" fill="#8807F7"/>
<path d="M233.529 157.51V161.937H237.957V157.51H233.529Z" fill="#8807F7"/>
<path d="M67.502 164.152V168.58H71.9294V164.152H67.502Z" fill="#8807F7"/>
<path d="M100.707 164.152V168.58H105.134V164.152H100.707Z" fill="#8807F7"/>
<path d="M107.348 164.152V168.58H111.775V164.152H107.348Z" fill="#8807F7"/>
<path d="M113.99 164.152V168.58H118.418V164.152H113.99Z" fill="#8807F7"/>
<path d="M120.631 164.152V168.58H125.058V164.152H120.631Z" fill="#8807F7"/>
<path d="M173.76 164.152V168.58H178.187V164.152H173.76Z" fill="#8807F7"/>
<path d="M187.041 164.152V168.58H191.468V164.152H187.041Z" fill="#8807F7"/>
<path d="M193.684 164.152V168.58H198.111V164.152H193.684Z" fill="#8807F7"/>
<path d="M233.529 164.152V168.58H237.957V164.152H233.529Z" fill="#8807F7"/>
<path d="M47.5781 170.793V175.22H52.0055V170.793H47.5781Z" fill="#8807F7"/>
<path d="M54.2188 170.793V175.22H58.6462V170.793H54.2188Z" fill="#8807F7"/>
<path d="M60.8613 170.793V175.22H65.2887V170.793H60.8613Z" fill="#8807F7"/>
<path d="M87.4258 170.793V175.22H91.8532V170.793H87.4258Z" fill="#8807F7"/>
<path d="M94.0664 170.793V175.22H98.4938V170.793H94.0664Z" fill="#8807F7"/>
<path d="M107.348 170.793V175.22H111.775V170.793H107.348Z" fill="#8807F7"/>
<path d="M140.555 170.793V175.22H144.982V170.793H140.555Z" fill="#8807F7"/>
<path d="M147.195 170.793V175.22H151.623V170.793H147.195Z" fill="#8807F7"/>
<path d="M160.477 170.793V175.22H164.904V170.793H160.477Z" fill="#8807F7"/>
<path d="M173.76 170.793V175.22H178.187V170.793H173.76Z" fill="#8807F7"/>
<path d="M180.4 170.793V175.22H184.828V170.793H180.4Z" fill="#8807F7"/>
<path d="M187.041 170.793V175.22H191.468V170.793H187.041Z" fill="#8807F7"/>
<path d="M193.684 170.793V175.22H198.111V170.793H193.684Z" fill="#8807F7"/>
<path d="M200.324 170.793V175.22H204.752V170.793H200.324Z" fill="#8807F7"/>
<path d="M206.965 170.793V175.22H211.392V170.793H206.965Z" fill="#8807F7"/>
<path d="M213.605 170.793V175.22H218.033V170.793H213.605Z" fill="#8807F7"/>
<path d="M233.529 170.793V175.22H237.957V170.793H233.529Z" fill="#8807F7"/>
<path d="M100.707 177.432V181.859H105.134V177.432H100.707Z" fill="#8807F7"/>
<path d="M107.348 177.432V181.859H111.775V177.432H107.348Z" fill="#8807F7"/>
<path d="M113.99 177.432V181.859H118.418V177.432H113.99Z" fill="#8807F7"/>
<path d="M120.631 177.432V181.859H125.058V177.432H120.631Z" fill="#8807F7"/>
<path d="M153.836 177.432V181.859H158.263V177.432H153.836Z" fill="#8807F7"/>
<path d="M160.477 177.432V181.859H164.904V177.432H160.477Z" fill="#8807F7"/>
<path d="M180.4 177.432V181.859H184.828V177.432H180.4Z" fill="#8807F7"/>
<path d="M206.965 177.432V181.859H211.392V177.432H206.965Z" fill="#8807F7"/>
<path d="M213.605 177.432V181.859H218.033V177.432H213.605Z" fill="#8807F7"/>
<path d="M233.529 177.432V181.859H237.957V177.432H233.529Z" fill="#8807F7"/>
<path d="M100.707 184.074V188.502H105.134V184.074H100.707Z" fill="#8807F7"/>
<path d="M120.631 184.074V188.502H125.058V184.074H120.631Z" fill="#8807F7"/>
<path d="M127.271 184.074V188.502H131.699V184.074H127.271Z" fill="#8807F7"/>
<path d="M140.555 184.074V188.502H144.982V184.074H140.555Z" fill="#8807F7"/>
<path d="M160.477 184.074V188.502H164.904V184.074H160.477Z" fill="#8807F7"/>
<path d="M180.4 184.074V188.502H184.828V184.074H180.4Z" fill="#8807F7"/>
<path d="M193.684 184.074V188.502H198.111V184.074H193.684Z" fill="#8807F7"/>
<path d="M206.965 184.074V188.502H211.392V184.074H206.965Z" fill="#8807F7"/>
<path d="M213.605 184.074V188.502H218.033V184.074H213.605Z" fill="#8807F7"/>
<path d="M220.248 184.074V188.502H224.675V184.074H220.248Z" fill="#8807F7"/>
<path d="M233.529 184.074V188.502H237.957V184.074H233.529Z" fill="#8807F7"/>
<path d="M100.707 190.715V195.142H105.134V190.715H100.707Z" fill="#8807F7"/>
<path d="M113.99 190.715V195.142H118.418V190.715H113.99Z" fill="#8807F7"/>
<path d="M153.836 190.715V195.142H158.263V190.715H153.836Z" fill="#8807F7"/>
<path d="M160.477 190.715V195.142H164.904V190.715H160.477Z" fill="#8807F7"/>
<path d="M167.119 190.715V195.142H171.547V190.715H167.119Z" fill="#8807F7"/>
<path d="M173.76 190.715V195.142H178.187V190.715H173.76Z" fill="#8807F7"/>
<path d="M180.4 190.715V195.142H184.828V190.715H180.4Z" fill="#8807F7"/>
<path d="M206.965 190.715V195.142H211.392V190.715H206.965Z" fill="#8807F7"/>
<path d="M213.605 190.715V195.142H218.033V190.715H213.605Z" fill="#8807F7"/>
<path d="M226.889 190.715V195.142H231.316V190.715H226.889Z" fill="#8807F7"/>
<path d="M113.99 197.357V201.785H118.418V197.357H113.99Z" fill="#8807F7"/>
<path d="M120.631 197.357V201.785H125.058V197.357H120.631Z" fill="#8807F7"/>
<path d="M133.912 197.357V201.785H138.34V197.357H133.912Z" fill="#8807F7"/>
<path d="M160.477 197.357V201.785H164.904V197.357H160.477Z" fill="#8807F7"/>
<path d="M173.76 197.357V201.785H178.187V197.357H173.76Z" fill="#8807F7"/>
<path d="M180.4 197.357V201.785H184.828V197.357H180.4Z" fill="#8807F7"/>
<path d="M187.041 197.357V201.785H191.468V197.357H187.041Z" fill="#8807F7"/>
<path d="M193.684 197.357V201.785H198.111V197.357H193.684Z" fill="#8807F7"/>
<path d="M200.324 197.357V201.785H204.752V197.357H200.324Z" fill="#8807F7"/>
<path d="M206.965 197.357V201.785H211.392V197.357H206.965Z" fill="#8807F7"/>
<path d="M226.889 197.357V201.785H231.316V197.357H226.889Z" fill="#8807F7"/>
<path d="M107.348 203.998V208.425H111.775V203.998H107.348Z" fill="#8807F7"/>
<path d="M147.195 203.998V208.425H151.623V203.998H147.195Z" fill="#8807F7"/>
<path d="M153.836 203.998V208.425H158.263V203.998H153.836Z" fill="#8807F7"/>
<path d="M160.477 203.998V208.425H164.904V203.998H160.477Z" fill="#8807F7"/>
<path d="M167.119 203.998V208.425H171.547V203.998H167.119Z" fill="#8807F7"/>
<path d="M173.76 203.998V208.425H178.187V203.998H173.76Z" fill="#8807F7"/>
<path d="M180.4 203.998V208.425H184.828V203.998H180.4Z" fill="#8807F7"/>
<path d="M200.324 203.998V208.425H204.752V203.998H200.324Z" fill="#8807F7"/>
<path d="M206.965 203.998V208.425H211.392V203.998H206.965Z" fill="#8807F7"/>
<path d="M213.605 203.998V208.425H218.033V203.998H213.605Z" fill="#8807F7"/>
<path d="M220.248 203.998V208.425H224.675V203.998H220.248Z" fill="#8807F7"/>
<path d="M226.889 203.998V208.425H231.316V203.998H226.889Z" fill="#8807F7"/>
<path d="M100.707 210.641V215.068H105.134V210.641H100.707Z" fill="#8807F7"/>
<path d="M113.99 210.641V215.068H118.418V210.641H113.99Z" fill="#8807F7"/>
<path d="M120.631 210.641V215.068H125.058V210.641H120.631Z" fill="#8807F7"/>
<path d="M127.271 210.641V215.068H131.699V210.641H127.271Z" fill="#8807F7"/>
<path d="M133.912 210.641V215.068H138.34V210.641H133.912Z" fill="#8807F7"/>
<path d="M140.555 210.641V215.068H144.982V210.641H140.555Z" fill="#8807F7"/>
<path d="M147.195 210.641V215.068H151.623V210.641H147.195Z" fill="#8807F7"/>
<path d="M160.477 210.641V215.068H164.904V210.641H160.477Z" fill="#8807F7"/>
<path d="M187.041 210.641V215.068H191.468V210.641H187.041Z" fill="#8807F7"/>
<path d="M206.965 210.641V215.068H211.392V210.641H206.965Z" fill="#8807F7"/>
<path d="M213.605 210.641V215.068H218.033V210.641H213.605Z" fill="#8807F7"/>
<path d="M226.889 210.641V215.068H231.316V210.641H226.889Z" fill="#8807F7"/>
<path d="M233.529 210.641V215.068H237.957V210.641H233.529Z" fill="#8807F7"/>
<path d="M107.348 217.279V221.707H111.775V217.279H107.348Z" fill="#8807F7"/>
<path d="M113.99 217.279V221.707H118.418V217.279H113.99Z" fill="#8807F7"/>
<path d="M133.912 217.279V221.707H138.34V217.279H133.912Z" fill="#8807F7"/>
<path d="M147.195 217.279V221.707H151.623V217.279H147.195Z" fill="#8807F7"/>
<path d="M153.836 217.279V221.707H158.263V217.279H153.836Z" fill="#8807F7"/>
<path d="M160.477 217.279V221.707H164.904V217.279H160.477Z" fill="#8807F7"/>
<path d="M180.4 217.279V221.707H184.828V217.279H180.4Z" fill="#8807F7"/>
<path d="M193.684 217.279V221.707H198.111V217.279H193.684Z" fill="#8807F7"/>
<path d="M213.605 217.279V221.707H218.033V217.279H213.605Z" fill="#8807F7"/>
<path d="M107.348 223.92V228.347H111.775V223.92H107.348Z" fill="#8807F7"/>
<path d="M127.271 223.92V228.347H131.699V223.92H127.271Z" fill="#8807F7"/>
<path d="M133.912 223.92V228.347H138.34V223.92H133.912Z" fill="#8807F7"/>
<path d="M140.555 223.92V228.347H144.982V223.92H140.555Z" fill="#8807F7"/>
<path d="M147.195 223.92V228.347H151.623V223.92H147.195Z" fill="#8807F7"/>
<path d="M153.836 223.92V228.347H158.263V223.92H153.836Z" fill="#8807F7"/>
<path d="M160.477 223.92V228.347H164.904V223.92H160.477Z" fill="#8807F7"/>
<path d="M167.119 223.92V228.347H171.547V223.92H167.119Z" fill="#8807F7"/>
<path d="M180.4 223.92V228.347H184.828V223.92H180.4Z" fill="#8807F7"/>
<path d="M193.684 223.92V228.347H198.111V223.92H193.684Z" fill="#8807F7"/>
<path d="M200.324 223.92V228.347H204.752V223.92H200.324Z" fill="#8807F7"/>
<path d="M206.965 223.92V228.347H211.392V223.92H206.965Z" fill="#8807F7"/>
<path d="M213.605 223.92V228.347H218.033V223.92H213.605Z" fill="#8807F7"/>
<path d="M233.529 223.92V228.347H237.957V223.92H233.529Z" fill="#8807F7"/>
<path d="M47.5781 42.1575V80.2716C47.5781 81.382 48.0192 82.447 48.8044 83.2321C49.5896 84.0173 50.6545 84.4584 51.7649 84.4584H89.8791C90.9895 84.4584 92.0544 84.0173 92.8396 83.2321C93.6247 82.447 94.0658 81.382 94.0658 80.2716V42.1575C94.0658 41.0471 93.6247 39.9822 92.8396 39.197C92.0544 38.4118 90.9895 37.9707 89.8791 37.9707H51.7649C50.6545 37.9707 49.5896 38.4118 48.8044 39.197C48.0192 39.9822 47.5781 41.0471 47.5781 42.1575ZM83.2379 77.8173H58.406C57.2956 77.8173 56.2307 77.3762 55.4455 76.591C54.6603 75.8059 54.2192 74.7409 54.2192 73.6305V48.7986C54.2192 47.6882 54.6603 46.6233 55.4455 45.8381C56.2307 45.0529 57.2956 44.6118 58.406 44.6118H83.2379C84.3484 44.6118 85.4133 45.0529 86.1985 45.8381C86.9836 46.6233 87.4247 47.6882 87.4247 48.7986V73.6305C87.4247 74.7409 86.9836 75.8059 86.1985 76.591C85.4133 77.3762 84.3484 77.8173 83.2379 77.8173Z" fill="#8807F7"/>
<path d="M47.5781 188.261V226.375C47.5781 227.486 48.0192 228.55 48.8044 229.336C49.5896 230.121 50.6545 230.562 51.7649 230.562H89.8791C90.9895 230.562 92.0544 230.121 92.8396 229.336C93.6247 228.55 94.0658 227.486 94.0658 226.375V188.261C94.0658 187.151 93.6247 186.086 92.8396 185.3C92.0544 184.515 90.9895 184.074 89.8791 184.074H51.7649C50.6545 184.074 49.5896 184.515 48.8044 185.3C48.0192 186.086 47.5781 187.151 47.5781 188.261ZM83.2379 223.921H58.406C57.2956 223.921 56.2307 223.48 55.4455 222.695C54.6603 221.909 54.2192 220.844 54.2192 219.734V194.902C54.2192 193.792 54.6603 192.727 55.4455 191.942C56.2307 191.156 57.2956 190.715 58.406 190.715H83.2379C84.3484 190.715 85.4133 191.156 86.1985 191.942C86.9836 192.727 87.4247 193.792 87.4247 194.902V219.734C87.4247 220.844 86.9836 221.909 86.1985 222.695C85.4133 223.48 84.3484 223.921 83.2379 223.921Z" fill="#8807F7"/>
<path d="M193.684 42.1575V80.2716C193.684 81.382 194.125 82.447 194.91 83.2321C195.695 84.0173 196.76 84.4584 197.87 84.4584H235.985C237.095 84.4584 238.16 84.0173 238.945 83.2321C239.73 82.447 240.171 81.382 240.171 80.2716V42.1575C240.171 41.0471 239.73 39.9822 238.945 39.197C238.16 38.4118 237.095 37.9707 235.985 37.9707H197.87C196.76 37.9707 195.695 38.4118 194.91 39.197C194.125 39.9822 193.684 41.0471 193.684 42.1575ZM229.343 77.8173H204.511C203.401 77.8173 202.336 77.3762 201.551 76.591C200.766 75.8059 200.325 74.7409 200.325 73.6305V48.7986C200.325 47.6882 200.766 46.6233 201.551 45.8381C202.336 45.0529 203.401 44.6118 204.511 44.6118H229.343C230.454 44.6118 231.519 45.0529 232.304 45.8381C233.089 46.6233 233.53 47.6882 233.53 48.7986V73.6305C233.53 74.7409 233.089 75.8059 232.304 76.591C231.519 77.3762 230.454 77.8173 229.343 77.8173Z" fill="#8807F7"/>
<path d="M70.823 71.1772C76.3246 71.1772 80.7846 66.7172 80.7846 61.2156C80.7846 55.7139 76.3246 51.2539 70.823 51.2539C65.3213 51.2539 60.8613 55.7139 60.8613 61.2156C60.8613 66.7172 65.3213 71.1772 70.823 71.1772Z" fill="#8807F7"/>
<path d="M216.926 71.1772C222.428 71.1772 226.888 66.7172 226.888 61.2156C226.888 55.7139 222.428 51.2539 216.926 51.2539C211.425 51.2539 206.965 55.7139 206.965 61.2156C206.965 66.7172 211.425 71.1772 216.926 71.1772Z" fill="#8807F7"/>
<path d="M70.823 217.281C76.3246 217.281 80.7846 212.821 80.7846 207.319C80.7846 201.817 76.3246 197.357 70.823 197.357C65.3213 197.357 60.8613 201.817 60.8613 207.319C60.8613 212.821 65.3213 217.281 70.823 217.281Z" fill="#8807F7"/>
<circle cx="143.875" cy="134.266" r="31.4009" fill="white"/>
<path d="M141.19 119.482C141.198 122.202 141.198 124.922 141.205 127.642C141.212 129.986 140.443 132.27 138.27 133.467C135.725 134.858 132.119 134.508 129.281 134.214C129.174 134.207 129.074 134.193 128.974 134.186C129.067 132.227 129.031 130.251 128.938 128.299C128.817 125.654 130.421 122.502 133.259 122.055C136.344 121.569 139.024 121.24 140.479 119.539C140.529 119.489 140.572 119.439 140.615 119.382C140.829 119.092 141.058 118.81 141.287 118.527C141.215 118.835 141.19 119.16 141.19 119.482Z" fill="#8807F7"/>
<path d="M131.869 151.93C133.992 152.066 136.13 152.034 138.256 152.07C140.737 152.112 143.274 152.42 145.669 151.984C149.104 151.358 152.968 149.117 154.244 145.797C155.427 142.723 154.869 139.052 152.832 136.472C152.689 136.293 152.539 136.122 152.374 135.95C150.316 133.698 147.12 132.522 144.086 132.926C140.308 133.427 136.98 136.397 136.001 140.075C135.39 142.369 135.922 144.814 135.565 147.151C135.272 149.089 133.62 151.072 131.869 151.93Z" fill="#8807F7"/>
<path d="M153.1 110.715C152.911 111.29 153.139 111.916 153.386 112.47C156.535 119.497 164.981 124.25 164.691 132.689C164.559 136.506 162.654 140.992 159.469 143.254C159.237 143.419 159.026 143.565 158.754 143.64C158.147 142.504 158.082 140.838 157.564 139.584C156.917 138.011 156.059 136.463 154.862 135.245C153.715 134.079 152.278 133.407 151.131 132.264C148.722 129.858 147.203 126.559 147.002 123.157C146.709 118.303 149.136 113.488 153.1 110.715Z" fill="#8807F7"/>
<path d="M131.175 127.661C131.175 127.661 131.064 125.541 133.234 125.648C133.237 125.648 134.027 127.965 131.175 127.661Z" fill="white" stroke="#8807F7" stroke-width="0.509588" stroke-miterlimit="10"/>
<path d="M130.461 145.592C132.447 145.592 134.057 143.982 134.057 141.996C134.057 140.01 132.447 138.4 130.461 138.4C128.475 138.4 126.865 140.01 126.865 141.996C126.865 143.982 128.475 145.592 130.461 145.592Z" fill="#8807F7"/>
<rect x="1" y="0.8125" width="290" height="266.188" rx="26.1674" stroke="#8807F7" stroke-opacity="0.5" stroke-width="1.27566"/>
<defs>
<filter id="filter0_d_1479_14140" x="10.4209" y="11.9331" width="266.908" height="261.674" filterUnits="userSpaceOnUse" color-interpolation-filters="sRGB">
<feFlood flood-opacity="0" result="BackgroundImageFix"/>
<feColorMatrix in="SourceAlpha" type="matrix" values="0 0 0 0 0 0 0 0 0 0 0 0 0 0 0 0 0 0 127 0" result="hardAlpha"/>
<feOffset dy="8.5044"/>
<feGaussianBlur stdDeviation="8.5044"/>
<feComposite in2="hardAlpha" operator="out"/>
<feColorMatrix type="matrix" values="0 0 0 0 0.398122 0 0 0 0 0.113021 0 0 0 0 0.645833 0 0 0 0.12 0"/>
<feBlend mode="normal" in2="BackgroundImageFix" result="effect1_dropShadow_1479_14140"/>
<feBlend mode="normal" in="SourceGraphic" in2="effect1_dropShadow_1479_14140" result="shape"/>
</filter>
</defs>
</svg>
