<svg width="750" height="346" viewBox="0 0 750 346" fill="none" xmlns="http://www.w3.org/2000/svg">
<g clip-path="url(#clip0_4401_79453)">
<path d="M90.4185 345.854L87.3045 345.854C84.102 345.854 81.5059 343.253 81.5059 340.045L81.5059 309.315C81.5059 306.106 84.102 303.506 87.3045 303.506L90.4185 303.506C93.621 303.506 96.2172 306.106 96.2172 309.315L96.2172 340.045C96.2172 343.253 93.621 345.854 90.4185 345.854Z" fill="url(#paint0_linear_4401_79453)"/>
<path d="M96.0776 343.091L87.1649 343.091C85.5637 343.091 84.2656 341.79 84.2656 340.186L84.2656 309.171C84.2656 307.566 85.5637 306.266 87.1649 306.266L96.0776 306.266C97.6789 306.266 98.9769 307.566 98.9769 309.171L98.9769 340.186C98.9769 341.79 97.6789 343.091 96.0776 343.091Z" fill="url(#paint1_linear_4401_79453)"/>
<path d="M599.084 0H196.081C136.035 0 87.3574 48.7672 87.3574 108.925V1137.17C87.3574 1197.33 136.035 1246.1 196.081 1246.1H599.084C659.13 1246.1 707.808 1197.33 707.808 1137.17V108.925C707.808 48.7672 659.13 0 599.084 0Z" fill="#3D0072"/>
<path d="M597.642 2.90479H197.538C138.292 2.90479 90.2637 51.0217 90.2637 110.377V1135.72C90.2637 1195.08 138.292 1243.19 197.538 1243.19H597.642C656.888 1243.19 704.917 1195.08 704.917 1135.72V110.377C704.917 51.0217 656.888 2.90479 597.642 2.90479Z" fill="url(#paint2_linear_4401_79453)"/>
<path d="M597.355 5.47705H197.252C139.607 5.47705 92.877 52.2936 92.877 110.045V1135.39C92.877 1193.14 139.607 1239.96 197.252 1239.96H597.355C655 1239.96 701.73 1193.14 701.73 1135.39V110.045C701.73 52.2936 655 5.47705 597.355 5.47705Z" fill="#3D0072"/>
<path d="M592.922 20.5376H201.024C149.601 20.5376 107.914 62.3011 107.914 113.819V1130.95C107.914 1182.47 149.601 1224.23 201.024 1224.23H592.922C644.345 1224.23 686.032 1182.47 686.032 1130.95V113.819C686.032 62.3011 644.345 20.5376 592.922 20.5376Z" fill="white"/>
<path d="M603.346 20.6992H188.016C142.372 20.6992 105.371 57.7688 105.371 103.496V1196.42C105.371 1242.15 142.372 1279.22 188.016 1279.22H603.346C648.99 1279.22 685.991 1242.15 685.991 1196.42V103.496C685.991 57.7688 648.99 20.6992 603.346 20.6992Z" fill="white"/>
<path d="M155.657 174.776C156.552 174.776 157.285 174.708 157.854 174.572C158.451 174.409 158.926 174.205 159.279 173.961C159.632 173.689 159.876 173.376 160.011 173.023C160.147 172.67 160.215 172.275 160.215 171.84C160.215 170.916 159.781 170.155 158.913 169.557C158.044 168.932 156.552 168.266 154.436 167.559C153.513 167.233 152.591 166.866 151.668 166.458C150.746 166.023 149.918 165.494 149.186 164.868C148.453 164.216 147.856 163.441 147.395 162.544C146.934 161.62 146.703 160.506 146.703 159.201C146.703 157.896 146.947 156.727 147.436 155.694C147.924 154.634 148.616 153.737 149.511 153.003C150.407 152.27 151.492 151.712 152.767 151.332C154.042 150.924 155.48 150.72 157.081 150.72C158.98 150.72 160.622 150.924 162.006 151.332C163.389 151.739 164.529 152.188 165.424 152.677L163.593 157.692C162.806 157.285 161.924 156.931 160.947 156.632C159.998 156.306 158.845 156.143 157.488 156.143C155.969 156.143 154.87 156.36 154.192 156.795C153.54 157.203 153.215 157.842 153.215 158.712C153.215 159.228 153.337 159.663 153.581 160.016C153.825 160.37 154.164 160.696 154.599 160.995C155.06 161.267 155.575 161.525 156.145 161.769C156.742 161.987 157.393 162.218 158.099 162.463C159.564 163.006 160.839 163.55 161.924 164.094C163.009 164.61 163.905 165.222 164.61 165.928C165.343 166.635 165.885 167.464 166.238 168.415C166.591 169.367 166.767 170.522 166.767 171.881C166.767 174.518 165.845 176.57 164 178.038C162.155 179.479 159.374 180.199 155.657 180.199C154.409 180.199 153.283 180.117 152.279 179.954C151.275 179.818 150.38 179.642 149.593 179.424C148.833 179.207 148.168 178.976 147.599 178.731C147.056 178.486 146.595 178.255 146.215 178.038L148.006 172.982C148.847 173.444 149.878 173.866 151.099 174.246C152.347 174.599 153.866 174.776 155.657 174.776ZM179.902 175.388C180.499 175.388 181.069 175.374 181.612 175.347C182.154 175.32 182.588 175.279 182.914 175.224V170.617C182.67 170.563 182.303 170.509 181.815 170.454C181.327 170.4 180.879 170.373 180.472 170.373C179.902 170.373 179.36 170.413 178.844 170.495C178.356 170.549 177.922 170.672 177.542 170.862C177.162 171.052 176.864 171.31 176.646 171.636C176.43 171.963 176.321 172.37 176.321 172.86C176.321 173.811 176.633 174.477 177.257 174.858C177.908 175.211 178.79 175.388 179.902 175.388ZM179.414 157.611C181.205 157.611 182.697 157.815 183.891 158.222C185.084 158.63 186.034 159.214 186.739 159.975C187.472 160.737 187.988 161.661 188.286 162.748C188.584 163.835 188.734 165.045 188.734 166.377V179.016C187.865 179.207 186.658 179.424 185.112 179.669C183.565 179.941 181.693 180.077 179.495 180.077C178.112 180.077 176.85 179.954 175.711 179.71C174.598 179.465 173.635 179.071 172.821 178.527C172.007 177.956 171.383 177.222 170.949 176.325C170.515 175.428 170.298 174.328 170.298 173.023C170.298 171.772 170.542 170.712 171.03 169.843C171.546 168.973 172.224 168.28 173.065 167.763C173.906 167.247 174.869 166.88 175.955 166.662C177.04 166.418 178.166 166.295 179.333 166.295C180.119 166.295 180.811 166.336 181.408 166.418C182.032 166.472 182.534 166.554 182.914 166.662V166.092C182.914 165.059 182.602 164.229 181.978 163.604C181.354 162.979 180.269 162.667 178.722 162.667C177.691 162.667 176.674 162.748 175.67 162.911C174.666 163.047 173.798 163.251 173.065 163.523L172.292 158.63C172.645 158.521 173.079 158.413 173.594 158.304C174.137 158.168 174.72 158.059 175.344 157.978C175.968 157.869 176.619 157.787 177.298 157.733C178.003 157.652 178.708 157.611 179.414 157.611ZM199.52 179.628C198.136 176.91 196.726 173.73 195.288 170.087C193.877 166.445 192.534 162.476 191.258 158.181H197.689C197.96 159.242 198.272 160.397 198.625 161.647C199.005 162.87 199.384 164.121 199.764 165.398C200.171 166.649 200.565 167.872 200.945 169.068C201.352 170.264 201.745 171.351 202.125 172.33C202.477 171.351 202.857 170.264 203.264 169.068C203.671 167.872 204.065 166.649 204.445 165.398C204.852 164.121 205.231 162.87 205.584 161.647C205.964 160.397 206.289 159.242 206.561 158.181H212.828C211.553 162.476 210.196 166.445 208.758 170.087C207.347 173.73 205.95 176.91 204.567 179.628H199.52ZM214.502 169.068C214.502 167.165 214.787 165.507 215.357 164.094C215.954 162.653 216.727 161.457 217.677 160.506C218.626 159.554 219.713 158.834 220.932 158.345C222.18 157.855 223.456 157.611 224.758 157.611C227.797 157.611 230.198 158.548 231.961 160.424C233.725 162.272 234.607 165.004 234.607 168.619C234.607 168.973 234.593 169.367 234.566 169.802C234.539 170.209 234.512 170.576 234.485 170.903H220.729C220.865 172.153 221.448 173.145 222.479 173.879C223.51 174.613 224.894 174.98 226.63 174.98C227.744 174.98 228.828 174.885 229.886 174.695C230.971 174.477 231.853 174.219 232.531 173.92L233.345 178.853C233.02 179.016 232.587 179.179 232.043 179.343C231.5 179.506 230.89 179.642 230.211 179.75C229.56 179.886 228.855 179.995 228.095 180.077C227.337 180.158 226.576 180.199 225.816 180.199C223.89 180.199 222.208 179.913 220.77 179.343C219.359 178.772 218.18 177.997 217.229 177.018C216.306 176.013 215.615 174.83 215.153 173.471C214.719 172.112 214.502 170.644 214.502 169.068ZM228.746 166.744C228.719 166.227 228.624 165.725 228.461 165.235C228.326 164.746 228.095 164.311 227.77 163.931C227.471 163.55 227.078 163.237 226.589 162.993C226.128 162.748 225.545 162.626 224.839 162.626C224.161 162.626 223.578 162.748 223.089 162.993C222.601 163.21 222.194 163.509 221.868 163.89C221.543 164.27 221.285 164.719 221.095 165.235C220.932 165.725 220.81 166.227 220.729 166.744H228.746Z" fill="#3D0072"/>
<path d="M629.596 206.895H163.116C154.448 206.895 147.422 213.934 147.422 222.618V351.545C147.422 360.228 154.448 367.267 163.116 367.267H629.596C638.263 367.267 645.29 360.228 645.29 351.545V222.618C645.29 213.934 638.263 206.895 629.596 206.895Z" fill="#F9F9F9"/>
<path d="M184.799 287.261V282.601H183.707V281.204H184.799V279.846H183.707V278.451H184.799V273.79H187.756L189.225 278.451H190.939V273.79H193.029V278.451H194.103V279.846H193.029V281.204H194.103V282.601H193.029V287.261H190.054L188.547 282.601H186.89V287.261H184.799ZM186.89 281.204H188.133L187.718 279.846H186.852L186.89 281.204ZM190.995 284.317H191.089L191.014 282.601H190.506L190.995 284.317ZM186.814 278.451H187.342L186.795 276.64H186.72L186.814 278.451ZM190.11 281.204H190.976L190.939 279.846H189.677L190.11 281.204ZM208.989 281.488C208.989 280.941 208.867 280.459 208.624 280.045C208.378 279.61 207.954 279.252 207.351 278.968C206.75 278.687 205.939 278.47 204.922 278.318C203.905 278.167 202.624 278.091 201.08 278.091C201.287 276.338 201.457 274.553 201.589 272.742C201.72 270.931 201.824 269.234 201.899 267.648H212.493V271.186H205.43C205.393 271.864 205.346 272.527 205.289 273.166C205.251 273.789 205.204 274.338 205.148 274.808C207.898 274.998 209.921 275.648 211.221 276.762C212.539 277.857 213.198 279.385 213.198 281.347C213.198 282.251 213.039 283.092 212.719 283.866C212.398 284.638 211.919 285.309 211.279 285.874C210.638 286.441 209.828 286.884 208.849 287.205C207.888 287.526 206.758 287.685 205.459 287.685C204.95 287.685 204.413 287.648 203.849 287.573C203.302 287.515 202.766 287.43 202.238 287.319C201.73 287.223 201.268 287.12 200.854 287.006C200.44 286.894 200.12 286.78 199.894 286.667L200.656 283.185C201.127 283.394 201.749 283.601 202.521 283.808C203.293 283.996 204.216 284.092 205.289 284.092C206.589 284.092 207.531 283.837 208.113 283.328C208.698 282.8 208.989 282.185 208.989 281.488ZM229.96 277.412C229.96 280.713 229.33 283.251 228.068 285.025C226.826 286.78 225.101 287.658 222.898 287.658C220.696 287.658 218.962 286.78 217.7 285.025C216.458 283.251 215.836 280.713 215.836 277.412C215.836 275.77 215.995 274.317 216.316 273.055C216.655 271.79 217.136 270.724 217.758 269.857C218.378 268.987 219.121 268.327 219.989 267.876C220.855 267.422 221.824 267.197 222.898 267.197C225.101 267.197 226.826 268.083 228.068 269.857C229.33 271.61 229.96 274.129 229.96 277.412ZM225.667 277.412C225.667 276.431 225.619 275.545 225.526 274.752C225.431 273.941 225.281 273.243 225.074 272.657C224.867 272.074 224.584 271.62 224.227 271.299C223.867 270.979 223.425 270.819 222.898 270.819C222.372 270.819 221.929 270.979 221.57 271.299C221.231 271.62 220.95 272.074 220.723 272.657C220.516 273.243 220.365 273.941 220.27 274.752C220.177 275.545 220.13 276.431 220.13 277.412C220.13 278.393 220.177 279.289 220.27 280.101C220.365 280.912 220.516 281.61 220.723 282.195C220.95 282.781 221.231 283.233 221.57 283.553C221.929 283.874 222.372 284.036 222.898 284.036C223.425 284.036 223.867 283.874 224.227 283.553C224.584 283.233 224.867 282.781 225.074 282.195C225.281 281.61 225.431 280.912 225.526 280.101C225.619 279.289 225.667 278.393 225.667 277.412ZM236.892 282.959C236.929 283.413 236.948 283.733 236.948 283.922C236.967 284.11 236.977 284.272 236.977 284.402C236.977 284.969 236.919 285.574 236.807 286.213C236.712 286.836 236.572 287.47 236.384 288.109C236.196 288.751 235.96 289.393 235.677 290.034C235.394 290.676 235.074 291.289 234.717 291.874L231.411 291.053C231.845 289.809 232.146 288.639 232.316 287.544C232.485 286.449 232.57 285.545 232.57 284.826C232.57 284.715 232.56 284.572 232.541 284.402C232.541 284.214 232.533 284.025 232.514 283.837C232.514 283.649 232.504 283.468 232.485 283.299C232.485 283.129 232.485 283.015 232.485 282.959H236.892ZM252.969 277.412C252.969 280.713 252.336 283.251 251.076 285.025C249.832 286.78 248.109 287.658 245.907 287.658C243.702 287.658 241.971 286.78 240.708 285.025C239.464 283.251 238.843 280.713 238.843 277.412C238.843 275.77 239.004 274.317 239.324 273.055C239.663 271.79 240.142 270.724 240.764 269.857C241.386 268.987 242.13 268.327 242.995 267.876C243.863 267.422 244.832 267.197 245.907 267.197C248.109 267.197 249.832 268.083 251.076 269.857C252.336 271.61 252.969 274.129 252.969 277.412ZM248.675 277.412C248.675 276.431 248.628 275.545 248.533 274.752C248.44 273.941 248.289 273.243 248.08 272.657C247.874 272.074 247.591 271.62 247.233 271.299C246.876 270.979 246.433 270.819 245.907 270.819C245.378 270.819 244.936 270.979 244.578 271.299C244.239 271.62 243.956 272.074 243.731 272.657C243.524 273.243 243.374 273.941 243.279 274.752C243.183 275.545 243.138 276.431 243.138 277.412C243.138 278.393 243.183 279.289 243.279 280.101C243.374 280.912 243.524 281.61 243.731 282.195C243.956 282.781 244.239 283.233 244.578 283.553C244.936 283.874 245.378 284.036 245.907 284.036C246.433 284.036 246.876 283.874 247.233 283.553C247.591 283.233 247.874 282.781 248.08 282.195C248.289 281.61 248.44 280.912 248.533 280.101C248.628 279.289 248.675 278.393 248.675 277.412ZM269.024 277.412C269.024 280.713 268.392 283.251 267.132 285.025C265.888 286.78 264.165 287.658 261.96 287.658C259.758 287.658 258.024 286.78 256.764 285.025C255.52 283.251 254.898 280.713 254.898 277.412C254.898 275.77 255.06 274.317 255.38 273.055C255.719 271.79 256.198 270.724 256.82 269.857C257.442 268.987 258.186 268.327 259.051 267.876C259.919 267.422 260.888 267.197 261.96 267.197C264.165 267.197 265.888 268.083 267.132 269.857C268.392 271.61 269.024 274.129 269.024 277.412ZM264.729 277.412C264.729 276.431 264.683 275.545 264.588 274.752C264.493 273.941 264.345 273.243 264.136 272.657C263.929 272.074 263.646 271.62 263.289 271.299C262.931 270.979 262.489 270.819 261.96 270.819C261.433 270.819 260.991 270.979 260.634 271.299C260.295 271.62 260.012 272.074 259.787 272.657C259.578 273.243 259.429 273.941 259.334 274.752C259.239 275.545 259.194 276.431 259.194 277.412C259.194 278.393 259.239 279.289 259.334 280.101C259.429 280.912 259.578 281.61 259.787 282.195C260.012 282.781 260.295 283.233 260.634 283.553C260.991 283.874 261.433 284.036 261.96 284.036C262.489 284.036 262.931 283.874 263.289 283.553C263.646 283.233 263.929 282.781 264.136 282.195C264.345 281.61 264.493 280.912 264.588 280.101C264.683 279.289 264.729 278.393 264.729 277.412ZM285.078 277.412C285.078 280.713 284.448 283.251 283.186 285.025C281.944 286.78 280.221 287.658 278.016 287.658C275.814 287.658 274.08 286.78 272.82 285.025C271.576 283.251 270.954 280.713 270.954 277.412C270.954 275.77 271.115 274.317 271.436 273.055C271.774 271.79 272.254 270.724 272.876 269.857C273.498 268.987 274.241 268.327 275.107 267.876C275.973 267.422 276.944 267.197 278.016 267.197C280.221 267.197 281.944 268.083 283.186 269.857C284.448 271.61 285.078 274.129 285.078 277.412ZM280.785 277.412C280.785 276.431 280.737 275.545 280.644 274.752C280.549 273.941 280.398 273.243 280.192 272.657C279.985 272.074 279.702 271.62 279.345 271.299C278.987 270.979 278.545 270.819 278.016 270.819C277.489 270.819 277.047 270.979 276.69 271.299C276.351 271.62 276.068 272.074 275.843 272.657C275.634 273.243 275.483 273.941 275.39 274.752C275.295 275.545 275.248 276.431 275.248 277.412C275.248 278.393 275.295 279.289 275.39 280.101C275.483 280.912 275.634 281.61 275.843 282.195C276.068 282.781 276.351 283.233 276.69 283.553C277.047 283.874 277.489 284.036 278.016 284.036C278.545 284.036 278.987 283.874 279.345 283.553C279.702 283.233 279.985 282.781 280.192 282.195C280.398 281.61 280.549 280.912 280.644 280.101C280.737 279.289 280.785 278.393 280.785 277.412ZM292.152 285.025C292.152 285.874 291.878 286.526 291.332 286.979C290.805 287.412 290.202 287.629 289.524 287.629C288.847 287.629 288.235 287.412 287.688 286.979C287.161 286.526 286.896 285.874 286.896 285.025C286.896 284.176 287.161 283.535 287.688 283.1C288.235 282.649 288.847 282.421 289.524 282.421C290.202 282.421 290.805 282.649 291.332 283.1C291.878 283.535 292.152 284.176 292.152 285.025ZM308.086 277.412C308.086 280.713 307.456 283.251 306.194 285.025C304.95 286.78 303.227 287.658 301.024 287.658C298.822 287.658 297.088 286.78 295.826 285.025C294.584 283.251 293.962 280.713 293.962 277.412C293.962 275.77 294.121 274.317 294.442 273.055C294.781 271.79 295.262 270.724 295.884 269.857C296.504 268.987 297.248 268.327 298.115 267.876C298.981 267.422 299.95 267.197 301.024 267.197C303.227 267.197 304.95 268.083 306.194 269.857C307.456 271.61 308.086 274.129 308.086 277.412ZM303.793 277.412C303.793 276.431 303.745 275.545 303.65 274.752C303.557 273.941 303.407 273.243 303.2 272.657C302.991 272.074 302.71 271.62 302.353 271.299C301.993 270.979 301.551 270.819 301.024 270.819C300.498 270.819 300.055 270.979 299.696 271.299C299.357 271.62 299.076 272.074 298.849 272.657C298.642 273.243 298.491 273.941 298.396 274.752C298.303 275.545 298.256 276.431 298.256 277.412C298.256 278.393 298.303 279.289 298.396 280.101C298.491 280.912 298.642 281.61 298.849 282.195C299.076 282.781 299.357 283.233 299.696 283.553C300.055 283.874 300.498 284.036 301.024 284.036C301.551 284.036 301.993 283.874 302.353 283.553C302.71 283.233 302.991 282.781 303.2 282.195C303.407 281.61 303.557 280.912 303.65 280.101C303.745 279.289 303.793 278.393 303.793 277.412ZM324.142 277.412C324.142 280.713 323.512 283.251 322.25 285.025C321.006 286.78 319.283 287.658 317.08 287.658C314.876 287.658 313.144 286.78 311.882 285.025C310.64 283.251 310.018 280.713 310.018 277.412C310.018 275.77 310.177 274.317 310.498 273.055C310.836 271.79 311.318 270.724 311.938 269.857C312.56 268.987 313.303 268.327 314.171 267.876C315.037 267.422 316.006 267.197 317.08 267.197C319.283 267.197 321.006 268.083 322.25 269.857C323.512 271.61 324.142 274.129 324.142 277.412ZM319.849 277.412C319.849 276.431 319.801 275.545 319.706 274.752C319.613 273.941 319.462 273.243 319.256 272.657C319.047 272.074 318.766 271.62 318.407 271.299C318.049 270.979 317.607 270.819 317.08 270.819C316.553 270.819 316.109 270.979 315.752 271.299C315.413 271.62 315.13 272.074 314.905 272.657C314.698 273.243 314.547 273.941 314.452 274.752C314.359 275.545 314.312 276.431 314.312 277.412C314.312 278.393 314.359 279.289 314.452 280.101C314.547 280.912 314.698 281.61 314.905 282.195C315.13 282.781 315.413 283.233 315.752 283.553C316.109 283.874 316.553 284.036 317.08 284.036C317.607 284.036 318.049 283.874 318.407 283.553C318.766 283.233 319.047 282.781 319.256 282.195C319.462 281.61 319.613 280.912 319.706 280.101C319.801 279.289 319.849 278.393 319.849 277.412Z" fill="#3D0072"/>
<path fill-rule="evenodd" clip-rule="evenodd" d="M335.75 278.536C335.75 278.536 340.163 269.784 347.521 269.784C354.876 269.784 359.291 278.536 359.291 278.536C359.291 278.536 354.876 287.285 347.521 287.285C340.163 287.285 335.75 278.536 335.75 278.536ZM338.413 278.724C338.374 278.662 338.335 278.598 338.295 278.536L338.415 278.345C338.895 277.602 339.601 276.615 340.504 275.638C342.362 273.628 344.754 271.972 347.521 271.972C350.283 271.972 352.678 273.628 354.539 275.638C355.362 276.536 356.099 277.505 356.746 278.536C356.097 279.563 355.357 280.533 354.535 281.432C352.678 283.442 350.287 285.098 347.521 285.098C344.756 285.098 342.362 283.442 340.502 281.432C339.729 280.589 339.031 279.685 338.413 278.724ZM351.934 278.536C351.934 279.455 351.64 280.353 351.095 281.098C350.55 281.846 349.783 282.402 348.899 282.69C348.017 282.978 347.064 282.982 346.18 282.703C345.295 282.421 344.521 281.873 343.969 281.132C343.417 280.39 343.116 279.496 343.107 278.575C343.097 277.654 343.382 276.754 343.919 276.002C344.457 275.251 345.221 274.688 346.099 274.392C346.979 274.096 347.932 274.081 348.82 274.353C348.494 274.497 348.209 274.721 347.99 274.998C347.771 275.278 347.622 275.605 347.558 275.953C347.494 276.3 347.517 276.66 347.622 276.998C347.729 277.335 347.917 277.642 348.169 277.892C348.421 278.143 348.731 278.329 349.072 278.434C349.413 278.538 349.773 278.561 350.124 278.497C350.475 278.434 350.806 278.287 351.087 278.07C351.37 277.851 351.593 277.569 351.74 277.246C351.87 277.664 351.934 278.099 351.934 278.536Z" fill="#9CA3AF"/>
<path d="M263.058 305.904H200.156C190.967 305.904 183.518 313.367 183.518 322.574C183.518 331.78 190.967 339.243 200.156 339.243H263.058C272.247 339.243 279.696 331.78 279.696 322.574C279.696 313.367 272.247 305.904 263.058 305.904Z" fill="#3D0072" fill-opacity="0.11"/>
<path d="M226.776 312.222H200.127C194.422 312.222 189.797 316.856 189.797 322.572C189.797 328.288 194.422 332.921 200.127 332.921H226.776C232.482 332.921 237.107 328.288 237.107 322.572C237.107 316.856 232.482 312.222 226.776 312.222Z" fill="white"/>
<path d="M205.927 326.712C205.641 326.232 205.321 325.718 204.968 325.17C204.615 324.615 204.249 324.058 203.87 323.501C203.492 322.938 203.105 322.394 202.71 321.872C202.323 321.34 201.953 320.864 201.599 320.444V326.712H200.035V317.954H201.335C201.671 318.308 202.033 318.728 202.419 319.217C202.806 319.699 203.193 320.2 203.58 320.721C203.975 321.243 204.354 321.771 204.716 322.301C205.086 322.824 205.414 323.313 205.7 323.768V317.954H207.276V326.712H205.927ZM213.462 319.154C212.561 319.154 211.871 319.436 211.392 320.001C210.921 320.558 210.685 321.332 210.685 322.328C210.685 322.8 210.741 323.232 210.85 323.63C210.968 324.017 211.136 324.35 211.355 324.627C211.582 324.905 211.859 325.124 212.187 325.283C212.524 325.437 212.914 325.511 213.361 325.511C213.638 325.511 213.877 325.503 214.08 325.486C214.282 325.461 214.441 325.432 214.559 325.397V322.251H216.148V326.459C215.929 326.544 215.559 326.637 215.038 326.739C214.518 326.838 213.917 326.89 213.235 326.89C212.603 326.89 212.028 326.788 211.505 326.585C210.985 326.385 210.538 326.089 210.169 325.702C209.807 325.315 209.526 324.838 209.324 324.273C209.121 323.708 209.02 323.06 209.02 322.328C209.02 321.593 209.129 320.945 209.348 320.38C209.576 319.815 209.884 319.339 210.27 318.952C210.656 318.556 211.111 318.256 211.631 318.055C212.154 317.852 212.708 317.751 213.297 317.751C213.702 317.751 214.059 317.78 214.369 317.84C214.689 317.89 214.962 317.95 215.189 318.016C215.417 318.084 215.603 318.157 215.745 318.231C215.896 318.308 216.001 318.362 216.061 318.397L215.582 319.699C215.328 319.546 215.014 319.419 214.636 319.318C214.264 319.208 213.873 319.154 213.462 319.154ZM223.877 326.712C223.592 326.232 223.272 325.718 222.919 325.17C222.565 324.615 222.2 324.058 221.822 323.501C221.443 322.938 221.055 322.394 220.66 321.872C220.274 321.34 219.904 320.864 219.551 320.444V326.712H217.985V317.954H219.284C219.621 318.308 219.983 318.728 220.371 319.217C220.757 319.699 221.144 320.2 221.53 320.721C221.927 321.243 222.305 321.771 222.667 322.301C223.036 322.824 223.365 323.313 223.65 323.768V317.954H225.226V326.712H223.877Z" fill="#3D0072" fill-opacity="0.8"/>
<path d="M249.369 326.902C248.77 326.902 248.258 326.819 247.83 326.649C247.4 326.474 247.043 326.229 246.758 325.917C246.479 325.606 246.272 325.24 246.138 324.818C246.004 324.395 245.938 323.934 245.938 323.427V317.954H247.539V323.276C247.539 323.671 247.58 324.012 247.665 324.3C247.758 324.577 247.884 324.805 248.043 324.981C248.212 325.159 248.404 325.29 248.623 325.374C248.851 325.457 249.103 325.501 249.382 325.501C249.659 325.501 249.911 325.457 250.138 325.374C250.365 325.29 250.559 325.159 250.718 324.981C250.886 324.805 251.012 324.577 251.097 324.3C251.19 324.012 251.235 323.671 251.235 323.276V317.954H252.838V323.427C252.838 323.934 252.766 324.395 252.623 324.818C252.489 325.24 252.278 325.606 251.993 325.917C251.714 326.229 251.357 326.474 250.921 326.649C250.483 326.819 249.966 326.902 249.369 326.902ZM256.989 325.526C257.561 325.526 257.979 325.428 258.239 325.234C258.499 325.041 258.63 324.768 258.63 324.414C258.63 324.203 258.584 324.021 258.491 323.87C258.407 323.718 258.28 323.584 258.113 323.466C257.952 323.34 257.756 323.226 257.52 323.124C257.285 323.015 257.016 322.909 256.712 322.808C256.409 322.698 256.115 322.58 255.83 322.454C255.551 322.319 255.303 322.156 255.084 321.961C254.876 321.767 254.702 321.535 254.568 321.266C254.442 320.996 254.378 320.672 254.378 320.293C254.378 319.5 254.652 318.881 255.198 318.434C255.745 317.981 256.489 317.753 257.431 317.753C257.979 317.753 258.462 317.815 258.882 317.941C259.311 318.059 259.648 318.19 259.892 318.335L259.4 319.622C259.113 319.463 258.799 319.341 258.454 319.256C258.117 319.173 257.768 319.129 257.407 319.129C256.977 319.129 256.64 319.218 256.396 319.394C256.161 319.572 256.043 319.821 256.043 320.142C256.043 320.334 256.082 320.504 256.157 320.647C256.241 320.781 256.355 320.903 256.497 321.013C256.65 321.123 256.822 321.224 257.016 321.317C257.216 321.408 257.435 321.497 257.671 321.582C258.084 321.733 258.45 321.889 258.768 322.05C259.097 322.201 259.369 322.387 259.588 322.605C259.816 322.816 259.989 323.069 260.107 323.365C260.225 323.65 260.283 324 260.283 324.414C260.283 325.205 260.002 325.819 259.438 326.258C258.882 326.689 258.066 326.902 256.989 326.902C256.628 326.902 256.297 326.877 255.993 326.828C255.7 326.784 255.433 326.73 255.198 326.662C254.971 326.596 254.774 326.527 254.605 326.461C254.437 326.385 254.303 326.318 254.202 326.258L254.669 324.956C254.896 325.083 255.202 325.209 255.59 325.335C255.977 325.461 256.444 325.526 256.989 325.526ZM263.272 325.399C263.365 325.408 263.487 325.416 263.64 325.424C263.791 325.424 263.997 325.424 264.258 325.424C265.326 325.424 266.119 325.155 266.642 324.615C267.171 324.068 267.435 323.304 267.435 322.327C267.435 321.334 267.179 320.57 266.667 320.04C266.154 319.508 265.359 319.243 264.283 319.243C263.811 319.243 263.475 319.256 263.272 319.281V325.399ZM269.103 322.327C269.103 323.085 268.985 323.747 268.749 324.313C268.514 324.867 268.177 325.335 267.739 325.716C267.309 326.086 266.789 326.364 266.175 326.55C265.57 326.726 264.896 326.815 264.157 326.815C263.803 326.815 263.404 326.799 262.958 326.763C262.512 326.738 262.086 326.681 261.683 326.587V318.08C262.086 317.989 262.516 317.929 262.971 317.904C263.425 317.879 263.828 317.867 264.181 317.867C264.913 317.867 265.582 317.954 266.188 318.132C266.793 318.299 267.309 318.571 267.739 318.941C268.177 319.303 268.514 319.767 268.749 320.33C268.985 320.887 269.103 321.553 269.103 322.327Z" fill="#3D0072" fill-opacity="0.3"/>
<path d="M296.249 327.748V324.625H295.518V323.691H296.249V322.781H295.518V321.845H296.249V318.722H298.23L299.214 321.845H300.363V318.722H301.763V321.845H302.482V322.781H301.763V323.691H302.482V324.625H301.763V327.748H299.77L298.759 324.625H297.65V327.748H296.249ZM297.65 323.691H298.482L298.204 322.781H297.623L297.65 323.691ZM300.4 325.776H300.464L300.412 324.625H300.071L300.4 325.776ZM297.598 321.845H297.951L297.586 320.632H297.536L297.598 321.845ZM299.807 323.691H300.387L300.363 322.781H299.516L299.807 323.691ZM304.404 327.748C304.454 327.134 304.559 326.492 304.718 325.828C304.879 325.161 305.071 324.507 305.299 323.867C305.534 323.228 305.794 322.625 306.082 322.06C306.367 321.487 306.658 320.994 306.951 320.58H303.154V318.976H309.274V320.34C309.005 320.636 308.706 321.044 308.377 321.568C308.059 322.089 307.751 322.683 307.456 323.35C307.17 324.006 306.918 324.714 306.699 325.474C306.489 326.231 306.358 326.989 306.309 327.748H304.404ZM313.807 321.288C313.48 321.719 313.131 322.187 312.761 322.692C312.389 323.197 312.08 323.716 311.827 324.246H313.807V321.288ZM315.65 318.989V324.246H316.584V325.788H315.65V327.748H313.807V325.788H310.034V324.412C310.22 324.039 310.451 323.623 310.728 323.159C311.007 322.688 311.313 322.207 311.65 321.719C311.995 321.222 312.356 320.738 312.735 320.266C313.115 319.794 313.493 319.367 313.871 318.989H315.65ZM323.691 323.35C323.691 324.824 323.41 325.958 322.846 326.749C322.292 327.533 321.522 327.924 320.538 327.924C319.553 327.924 318.78 327.533 318.216 326.749C317.66 325.958 317.383 324.824 317.383 323.35C317.383 322.615 317.456 321.967 317.598 321.402C317.749 320.837 317.964 320.361 318.241 319.974C318.52 319.587 318.85 319.291 319.239 319.09C319.625 318.887 320.059 318.786 320.538 318.786C321.522 318.786 322.292 319.181 322.846 319.974C323.41 320.758 323.691 321.882 323.691 323.35ZM321.774 323.35C321.774 322.911 321.753 322.516 321.712 322.162C321.668 321.8 321.602 321.487 321.509 321.226C321.416 320.963 321.29 320.762 321.131 320.62C320.97 320.475 320.774 320.404 320.538 320.404C320.303 320.404 320.104 320.475 319.945 320.62C319.792 320.762 319.666 320.963 319.565 321.226C319.474 321.487 319.406 321.8 319.365 322.162C319.321 322.516 319.301 322.911 319.301 323.35C319.301 323.787 319.321 324.188 319.365 324.55C319.406 324.913 319.474 325.225 319.565 325.486C319.666 325.747 319.792 325.95 319.945 326.093C320.104 326.235 320.303 326.308 320.538 326.308C320.774 326.308 320.97 326.235 321.131 326.093C321.29 325.95 321.416 325.747 321.509 325.486C321.602 325.225 321.668 324.913 321.712 324.55C321.753 324.188 321.774 323.787 321.774 323.35ZM328.772 330.088H326.842L331.082 317.85H332.987L328.772 330.088ZM335.454 327.622C334.84 327.57 334.338 327.479 333.951 327.343C333.573 327.2 333.292 327.082 333.106 326.989L333.65 325.536C333.943 325.679 334.292 325.809 334.697 325.927C335.108 326.045 335.542 326.105 335.997 326.105C336.509 326.105 336.858 326.037 337.042 325.902C337.237 325.759 337.334 325.561 337.334 325.308C337.334 325.149 337.296 325.014 337.22 324.904C337.144 324.786 337.034 324.681 336.892 324.588C336.749 324.495 336.567 324.408 336.35 324.323C336.131 324.23 335.879 324.132 335.592 324.031C335.315 323.932 335.04 323.822 334.772 323.704C334.511 323.578 334.272 323.424 334.053 323.248C333.842 323.07 333.67 322.855 333.536 322.603C333.41 322.342 333.346 322.029 333.346 321.667C333.346 321.39 333.383 321.125 333.46 320.872C333.544 320.609 333.67 320.373 333.838 320.164C334.007 319.953 334.226 319.775 334.495 319.632C334.763 319.481 335.084 319.371 335.454 319.303V317.939H337.042V319.253C337.48 319.295 337.854 319.359 338.166 319.444C338.487 319.527 338.739 319.612 338.923 319.696L338.532 321.214C338.255 321.096 337.931 320.994 337.561 320.909C337.199 320.825 336.817 320.783 336.412 320.783C336.009 320.783 335.718 320.849 335.542 320.986C335.365 321.121 335.276 321.297 335.276 321.516C335.276 321.65 335.303 321.768 335.352 321.87C335.412 321.963 335.499 322.048 335.617 322.122C335.734 322.199 335.879 322.276 336.046 322.35C336.222 322.418 336.433 322.493 336.677 322.578C337.046 322.712 337.387 322.861 337.699 323.021C338.02 323.18 338.292 323.366 338.52 323.578C338.755 323.778 338.935 324.019 339.063 324.298C339.197 324.575 339.263 324.9 339.263 325.271C339.263 325.523 339.226 325.776 339.15 326.028C339.075 326.273 338.949 326.5 338.772 326.711C338.596 326.923 338.365 327.103 338.077 327.256C337.801 327.407 337.456 327.517 337.042 327.583V329.127H335.454V327.622ZM340.72 320.808C340.964 320.707 341.216 320.593 341.476 320.467C341.745 320.332 342.007 320.189 342.259 320.038C342.511 319.877 342.751 319.713 342.978 319.543C343.214 319.367 343.425 319.181 343.608 318.989H344.92V327.748H343.04V321.439C342.788 321.609 342.507 321.764 342.195 321.907C341.885 322.044 341.582 322.162 341.288 322.261L340.72 320.808Z" fill="#B69FC9"/>
<path d="M192.403 235.645V237.359H189.06V246.539H187.067V237.359H183.725V235.645H192.403ZM200.382 242.42C200.382 243.07 200.288 243.662 200.1 244.198C199.911 244.732 199.645 245.187 199.299 245.566C198.954 245.943 198.536 246.237 198.044 246.446C197.563 246.655 197.029 246.761 196.443 246.761C195.857 246.761 195.324 246.655 194.842 246.446C194.361 246.237 193.948 245.943 193.603 245.566C193.257 245.187 192.985 244.732 192.786 244.198C192.598 243.662 192.504 243.07 192.504 242.42C192.504 241.77 192.598 241.184 192.786 240.66C192.985 240.124 193.257 239.669 193.603 239.292C193.958 238.913 194.377 238.626 194.858 238.427C195.339 238.218 195.868 238.112 196.443 238.112C197.018 238.112 197.547 238.218 198.028 238.427C198.52 238.626 198.938 238.913 199.284 239.292C199.629 239.669 199.896 240.124 200.084 240.66C200.283 241.184 200.382 241.77 200.382 242.42ZM198.436 242.42C198.436 241.602 198.258 240.959 197.903 240.487C197.557 240.004 197.071 239.764 196.443 239.764C195.815 239.764 195.324 240.004 194.968 240.487C194.623 240.959 194.45 241.602 194.45 242.42C194.45 243.248 194.623 243.904 194.968 244.386C195.324 244.869 195.815 245.109 196.443 245.109C197.071 245.109 197.557 244.869 197.903 244.386C198.258 243.904 198.436 243.248 198.436 242.42ZM202.244 236.148L204.143 235.833V238.317H207.061V239.905H204.143V243.254C204.143 243.914 204.248 244.386 204.457 244.67C204.667 244.951 205.022 245.094 205.524 245.094C205.87 245.094 206.173 245.057 206.435 244.982C206.706 244.91 206.921 244.842 207.078 244.78L207.392 246.289C207.173 246.384 206.884 246.477 206.529 246.572C206.173 246.676 205.755 246.729 205.273 246.729C204.687 246.729 204.196 246.651 203.798 246.493C203.411 246.336 203.102 246.111 202.872 245.817C202.642 245.512 202.48 245.152 202.386 244.732C202.292 244.301 202.244 243.815 202.244 243.271V236.148ZM211.787 245.204C212.371 245.204 212.816 245.173 213.119 245.109V243.002C213.016 242.97 212.863 242.939 212.665 242.908C212.466 242.877 212.245 242.861 212.006 242.861C211.797 242.861 211.582 242.877 211.361 242.908C211.152 242.939 210.96 242.997 210.78 243.08C210.613 243.165 210.479 243.285 210.373 243.442C210.268 243.589 210.216 243.778 210.216 244.01C210.216 244.459 210.357 244.773 210.64 244.951C210.923 245.119 211.305 245.204 211.787 245.204ZM211.63 238.112C212.256 238.112 212.785 238.191 213.214 238.348C213.642 238.506 213.983 238.725 214.235 239.009C214.495 239.292 214.679 239.638 214.782 240.046C214.898 240.445 214.956 240.886 214.956 241.366V246.351C214.663 246.415 214.218 246.487 213.621 246.572C213.037 246.665 212.371 246.713 211.63 246.713C211.138 246.713 210.687 246.665 210.278 246.572C209.871 246.477 209.52 246.326 209.227 246.115C208.946 245.906 208.72 245.632 208.553 245.297C208.396 244.962 208.318 244.548 208.318 244.055C208.318 243.583 208.406 243.186 208.584 242.861C208.772 242.536 209.024 242.273 209.338 242.074C209.652 241.865 210.012 241.718 210.421 241.635C210.838 241.54 211.272 241.493 211.723 241.493C211.931 241.493 212.152 241.509 212.382 241.54C212.613 241.561 212.859 241.602 213.119 241.666V241.352C213.119 241.132 213.094 240.921 213.041 240.723C212.989 240.524 212.894 240.35 212.76 240.203C212.634 240.046 212.46 239.926 212.241 239.843C212.032 239.758 211.764 239.717 211.439 239.717C211.001 239.717 210.599 239.748 210.233 239.81C209.865 239.874 209.568 239.946 209.338 240.031L209.103 238.489C209.342 238.406 209.694 238.321 210.154 238.239C210.613 238.154 211.105 238.112 211.63 238.112ZM220.138 246.696C219.572 246.686 219.103 246.624 218.725 246.508C218.359 246.394 218.066 246.231 217.847 246.022C217.628 245.8 217.47 245.533 217.375 245.218C217.293 244.893 217.249 244.527 217.249 244.119V234.653L219.148 234.339V243.757C219.148 243.987 219.165 244.181 219.196 244.339C219.237 244.496 219.305 244.633 219.4 244.749C219.493 244.852 219.619 244.937 219.776 244.999C219.944 245.051 220.154 245.094 220.404 245.125L220.138 246.696ZM228.334 245.061C229.045 245.061 229.563 244.941 229.888 244.701C230.212 244.459 230.373 244.119 230.373 243.678C230.373 243.416 230.318 243.192 230.202 243.002C230.097 242.813 229.94 242.645 229.731 242.499C229.532 242.341 229.287 242.2 228.993 242.074C228.7 241.938 228.365 241.807 227.989 241.681C227.613 241.546 227.245 241.399 226.89 241.242C226.545 241.074 226.237 240.87 225.964 240.627C225.702 240.387 225.489 240.099 225.322 239.764C225.165 239.429 225.086 239.025 225.086 238.553C225.086 237.568 225.425 236.798 226.105 236.241C226.787 235.676 227.712 235.392 228.884 235.392C229.563 235.392 230.165 235.471 230.687 235.628C231.223 235.775 231.64 235.937 231.944 236.115L231.332 237.719C230.977 237.52 230.584 237.369 230.154 237.264C229.737 237.158 229.301 237.106 228.853 237.106C228.318 237.106 227.9 237.216 227.597 237.435C227.303 237.657 227.156 237.965 227.156 238.365C227.156 238.605 227.204 238.814 227.299 238.992C227.402 239.16 227.545 239.313 227.723 239.45C227.911 239.586 228.125 239.71 228.365 239.826C228.617 239.942 228.888 240.052 229.181 240.157C229.694 240.346 230.15 240.538 230.547 240.739C230.956 240.927 231.295 241.157 231.568 241.43C231.849 241.691 232.063 242.006 232.21 242.374C232.357 242.73 232.431 243.165 232.431 243.678C232.431 244.664 232.08 245.43 231.38 245.974C230.687 246.508 229.673 246.775 228.334 246.775C227.884 246.775 227.47 246.744 227.094 246.682C226.729 246.63 226.398 246.562 226.105 246.477C225.824 246.394 225.578 246.309 225.367 246.226C225.159 246.131 224.991 246.046 224.865 245.974L225.446 244.355C225.729 244.513 226.111 244.67 226.592 244.827C227.074 244.982 227.654 245.061 228.334 245.061ZM236.966 245.204C237.553 245.204 237.997 245.173 238.301 245.109V243.002C238.196 242.97 238.045 242.939 237.844 242.908C237.646 242.877 237.427 242.861 237.185 242.861C236.977 242.861 236.762 242.877 236.543 242.908C236.334 242.939 236.14 242.997 235.962 243.08C235.795 243.165 235.659 243.285 235.553 243.442C235.45 243.589 235.396 243.778 235.396 244.01C235.396 244.459 235.539 244.773 235.822 244.951C236.103 245.119 236.485 245.204 236.966 245.204ZM236.809 238.112C237.437 238.112 237.966 238.191 238.394 238.348C238.824 238.506 239.163 238.725 239.415 239.009C239.677 239.292 239.859 239.638 239.964 240.046C240.08 240.445 240.136 240.886 240.136 241.366V246.351C239.844 246.415 239.398 246.487 238.803 246.572C238.216 246.665 237.553 246.713 236.809 246.713C236.318 246.713 235.867 246.665 235.46 246.572C235.051 246.477 234.702 246.326 234.409 246.115C234.125 245.906 233.9 245.632 233.733 245.297C233.576 244.962 233.497 244.548 233.497 244.055C233.497 243.583 233.586 243.186 233.764 242.861C233.954 242.536 234.204 242.273 234.518 242.074C234.832 241.865 235.194 241.718 235.601 241.635C236.02 241.54 236.454 241.493 236.904 241.493C237.113 241.493 237.332 241.509 237.563 241.54C237.793 241.561 238.039 241.602 238.301 241.666V241.352C238.301 241.132 238.274 240.921 238.223 240.723C238.169 240.524 238.076 240.35 237.939 240.203C237.813 240.046 237.642 239.926 237.421 239.843C237.212 239.758 236.946 239.717 236.621 239.717C236.181 239.717 235.778 239.748 235.413 239.81C235.047 239.874 234.747 239.946 234.518 240.031L234.282 238.489C234.524 238.406 234.873 238.321 235.334 238.239C235.795 238.154 236.287 238.112 236.809 238.112ZM244.365 246.539C243.842 245.461 243.303 244.223 242.749 242.83C242.206 241.424 241.708 239.921 241.258 238.317H243.282C243.398 238.779 243.528 239.276 243.675 239.81C243.832 240.335 243.995 240.863 244.163 241.399C244.34 241.923 244.518 242.436 244.696 242.939C244.884 243.432 245.057 243.877 245.214 244.277C245.369 243.877 245.537 243.432 245.716 242.939C245.894 242.436 246.066 241.923 246.233 241.399C246.411 240.863 246.578 240.335 246.735 239.81C246.892 239.276 247.028 238.779 247.144 238.317H249.105C248.656 239.921 248.152 241.424 247.599 242.83C247.055 244.223 246.52 245.461 245.997 246.539H244.365ZM252.437 246.539H250.539V238.317H252.437V246.539ZM252.642 235.912C252.642 236.268 252.526 236.552 252.297 236.761C252.068 236.97 251.795 237.075 251.481 237.075C251.156 237.075 250.88 236.97 250.648 236.761C250.419 236.552 250.303 236.268 250.303 235.912C250.303 235.544 250.419 235.256 250.648 235.047C250.88 234.838 251.156 234.732 251.481 234.732C251.795 234.732 252.068 234.838 252.297 235.047C252.526 235.256 252.642 235.544 252.642 235.912ZM254.861 238.584C255.227 238.479 255.704 238.379 256.289 238.286C256.875 238.191 257.524 238.143 258.235 238.143C258.904 238.143 259.464 238.239 259.915 238.427C260.365 238.605 260.72 238.862 260.981 239.197C261.254 239.522 261.442 239.921 261.547 240.393C261.661 240.853 261.718 241.362 261.718 241.917V246.539H259.82V242.217C259.82 241.776 259.789 241.404 259.727 241.099C259.673 240.785 259.58 240.534 259.444 240.346C259.318 240.147 259.14 240.004 258.911 239.921C258.69 239.826 258.419 239.779 258.094 239.779C257.853 239.779 257.603 239.795 257.34 239.826C257.078 239.857 256.886 239.884 256.76 239.905V246.539H254.861V238.584ZM265.532 242.217C265.532 243.024 265.704 243.616 266.049 243.993C266.406 244.359 266.861 244.544 267.415 244.544C267.718 244.544 268.001 244.502 268.262 244.417C268.535 244.335 268.754 244.233 268.921 244.119V239.857C268.787 239.826 268.619 239.799 268.419 239.779C268.22 239.748 267.97 239.731 267.667 239.731C266.977 239.731 266.448 239.963 266.082 240.424C265.714 240.874 265.532 241.472 265.532 242.217ZM270.822 245.707C270.822 247.017 270.487 247.976 269.816 248.584C269.156 249.193 268.142 249.495 266.772 249.495C266.27 249.495 265.778 249.453 265.297 249.371C264.826 249.286 264.396 249.176 264.01 249.04L264.355 247.421C264.679 247.557 265.045 247.667 265.454 247.75C265.871 247.835 266.322 247.876 266.803 247.876C267.568 247.876 268.111 247.719 268.435 247.404C268.76 247.09 268.921 246.624 268.921 246.005V245.69C268.733 245.786 268.483 245.879 268.169 245.974C267.865 246.069 267.514 246.115 267.117 246.115C266.594 246.115 266.113 246.032 265.673 245.864C265.245 245.697 264.873 245.45 264.559 245.125C264.256 244.8 264.016 244.397 263.836 243.914C263.669 243.422 263.586 242.857 263.586 242.217C263.586 241.619 263.675 241.068 263.853 240.565C264.041 240.062 264.307 239.632 264.652 239.276C265.01 238.92 265.437 238.642 265.939 238.444C266.442 238.243 267.012 238.143 267.65 238.143C268.268 238.143 268.855 238.191 269.409 238.286C269.962 238.379 270.433 238.479 270.822 238.584V245.707ZM275.293 245.173C275.795 245.173 276.161 245.115 276.392 244.999C276.621 244.873 276.737 244.664 276.737 244.37C276.737 244.099 276.611 243.873 276.359 243.695C276.119 243.517 275.716 243.322 275.152 243.113C274.805 242.987 274.487 242.857 274.194 242.72C273.911 242.573 273.665 242.405 273.456 242.217C273.247 242.027 273.08 241.803 272.954 241.54C272.838 241.267 272.782 240.938 272.782 240.549C272.782 239.795 273.059 239.203 273.613 238.773C274.169 238.332 274.921 238.112 275.873 238.112C276.355 238.112 276.816 238.16 277.254 238.253C277.694 238.338 278.024 238.421 278.243 238.506L277.898 240.046C277.69 239.953 277.421 239.868 277.097 239.795C276.772 239.71 276.396 239.669 275.968 239.669C275.58 239.669 275.266 239.737 275.026 239.874C274.785 240 274.665 240.199 274.665 240.47C274.665 240.607 274.685 240.729 274.727 240.832C274.78 240.938 274.863 241.037 274.979 241.132C275.094 241.215 275.245 241.304 275.433 241.399C275.621 241.482 275.853 241.571 276.123 241.666C276.574 241.834 276.956 242.002 277.27 242.169C277.584 242.327 277.84 242.509 278.039 242.72C278.247 242.919 278.4 243.148 278.493 243.411C278.588 243.672 278.636 243.987 278.636 244.355C278.636 245.14 278.342 245.738 277.756 246.148C277.181 246.545 276.355 246.744 275.276 246.744C274.555 246.744 273.975 246.682 273.535 246.556C273.094 246.44 272.787 246.347 272.609 246.272L272.939 244.684C273.22 244.8 273.555 244.91 273.944 245.016C274.34 245.119 274.791 245.173 275.293 245.173Z" fill="#6B7280"/>
<path opacity="0.35" fill-rule="evenodd" clip-rule="evenodd" d="M631.405 53.0913C629.843 53.0913 629.226 53.196 628.589 53.4952C628.052 53.7477 627.633 54.1143 627.345 54.5864C627.005 55.1457 626.887 55.6876 626.887 57.0579V63.1688C626.887 64.5391 627.005 65.081 627.345 65.6403C627.633 66.1124 628.052 66.479 628.589 66.7315C629.226 67.0306 629.843 67.1354 631.405 67.1354H654.883C656.443 67.1354 657.06 67.0306 657.697 66.7315C658.236 66.479 658.653 66.1124 658.94 65.6403C659.281 65.081 659.401 64.5391 659.401 63.1688V57.0579C659.401 55.6876 659.281 55.1457 658.94 54.5864C658.653 54.1143 658.236 53.7477 657.697 53.4952C657.06 53.196 656.443 53.0913 654.883 53.0913H631.405Z" stroke="black" stroke-width="0.656588"/>
<path opacity="0.4" d="M661.721 57.395V62.8315C662.967 62.3709 663.776 61.2999 663.776 60.1133C663.776 58.9266 662.967 57.8556 661.721 57.395Z" fill="black"/>
<path d="M631.856 55.1299H654.432C655.352 55.1299 655.686 55.2139 656.021 55.3719C656.358 55.5298 656.622 55.7616 656.802 56.0568C656.982 56.3522 657.079 56.6451 657.079 57.453V62.7735C657.079 63.5812 656.982 63.8741 656.802 64.1695C656.622 64.4649 656.358 64.6965 656.021 64.8544C655.686 65.0124 655.352 65.0966 654.432 65.0966H631.856C630.934 65.0966 630.602 65.0124 630.265 64.8544C629.928 64.6965 629.664 64.4649 629.484 64.1695C629.304 63.8741 629.209 63.5812 629.209 62.7735V57.453C629.209 56.6451 629.304 56.3522 629.484 56.0568C629.664 55.7616 629.928 55.5298 630.265 55.3719C630.602 55.2139 630.934 55.1299 631.856 55.1299Z" fill="black"/>
<path d="M606.507 55.513C609.951 55.5132 613.263 56.674 615.759 58.7555C615.947 58.9162 616.248 58.9143 616.432 58.751L618.23 57.1605C618.325 57.0777 618.376 56.9655 618.376 56.8487C618.374 56.7322 618.321 56.6206 618.226 56.5386C611.674 51.0314 601.337 51.0314 594.784 56.5386C594.688 56.6204 594.635 56.732 594.635 56.8487C594.635 56.9655 594.686 57.0777 594.779 57.1605L596.577 58.751C596.763 58.9145 597.062 58.9166 597.25 58.7555C599.748 56.6738 603.06 55.513 606.507 55.513ZM606.507 60.6878C608.399 60.6878 610.224 61.3047 611.627 62.4189C611.817 62.577 612.114 62.5735 612.3 62.4112L614.095 60.8205C614.188 60.7371 614.242 60.6239 614.24 60.5063C614.238 60.3887 614.184 60.2765 614.087 60.1948C609.814 56.7094 603.199 56.7094 598.928 60.1948C598.831 60.2765 598.775 60.3887 598.775 60.5065C598.773 60.6241 598.827 60.7373 598.92 60.8205L600.715 62.4112C600.901 62.5735 601.199 62.577 601.389 62.4189C602.792 61.3055 604.614 60.6886 606.507 60.6878ZM609.955 64.4839C610.052 64.4013 610.104 64.2876 610.102 64.1696C610.098 64.0517 610.04 63.9399 609.941 63.8608C607.957 62.3899 605.054 62.3899 603.071 63.8608C602.971 63.9399 602.914 64.0517 602.91 64.1694C602.908 64.2874 602.959 64.4013 603.056 64.4839L606.162 67.2319C606.252 67.3128 606.377 67.3582 606.507 67.3582C606.635 67.3582 606.759 67.3128 606.85 67.2319L609.955 64.4839Z" fill="black"/>
<path d="M562.114 61.9248H563.663C564.519 61.9248 565.211 62.5333 565.211 63.2839V66.0021C565.211 66.7527 564.519 67.3612 563.663 67.3612H562.114C561.259 67.3612 560.566 66.7527 560.566 66.0021V63.2839C560.566 62.5333 561.259 61.9248 562.114 61.9248ZM569.339 59.2065H570.889C571.744 59.2065 572.436 59.8151 572.436 60.5656V66.0021C572.436 66.7527 571.744 67.3612 570.889 67.3612H569.339C568.486 67.3612 567.792 66.7527 567.792 66.0021V60.5656C567.792 59.8151 568.486 59.2065 569.339 59.2065ZM576.566 56.0354H578.114C578.969 56.0354 579.661 56.6439 579.661 57.3945V66.0021C579.661 66.7527 578.969 67.3612 578.114 67.3612H576.566C575.711 67.3612 575.017 66.7527 575.017 66.0021V57.3945C575.017 56.6439 575.711 56.0354 576.566 56.0354ZM583.792 52.8643H585.339C586.194 52.8643 586.889 53.4726 586.889 54.2234V66.0021C586.889 66.7527 586.194 67.3612 585.339 67.3612H583.792C582.936 67.3612 582.242 66.7527 582.242 66.0021V54.2234C582.242 53.4726 582.936 52.8643 583.792 52.8643Z" fill="black"/>
<path d="M156.979 53.9591C157.372 53.796 157.779 53.6126 158.2 53.4087C158.634 53.1911 159.054 52.9601 159.461 52.7154C159.868 52.4573 160.255 52.1922 160.621 51.9204C161.001 51.6349 161.34 51.336 161.638 51.0235H163.755V65.1512H160.723V54.9783C160.316 55.2503 159.861 55.5016 159.36 55.7326C158.857 55.9501 158.369 56.1404 157.894 56.3035L156.979 53.9591ZM177.213 54.7338C177.213 55.2503 177.111 55.7462 176.907 56.2219C176.704 56.6976 176.439 57.1598 176.114 57.6081C175.788 58.043 175.422 58.4645 175.015 58.8722C174.608 59.2798 174.208 59.6673 173.814 60.0341C173.611 60.2245 173.387 60.4419 173.143 60.6865C172.912 60.9175 172.688 61.1554 172.471 61.4C172.254 61.6447 172.058 61.8757 171.881 62.0933C171.718 62.2972 171.617 62.4669 171.576 62.6029H177.64V65.1512H168.239C168.212 65.0017 168.198 64.8115 168.198 64.5803C168.198 64.3493 168.198 64.1862 168.198 64.0912C168.198 63.4387 168.3 62.8407 168.503 62.2972C168.72 61.7534 168.999 61.2506 169.338 60.7886C169.677 60.3127 170.057 59.8712 170.477 59.4634C170.911 59.0556 171.339 58.6479 171.759 58.2401C172.085 57.9275 172.39 57.6355 172.675 57.3635C172.96 57.0782 173.211 56.8062 173.428 56.5481C173.645 56.2763 173.814 56.0112 173.937 55.7531C174.058 55.4813 174.12 55.2095 174.12 54.9375C174.12 54.3395 173.95 53.9183 173.611 53.6736C173.272 53.429 172.851 53.3066 172.349 53.3066C171.983 53.3066 171.637 53.3679 171.312 53.4902C170.999 53.5989 170.708 53.7349 170.437 53.898C170.179 54.0474 169.955 54.2037 169.765 54.3668C169.575 54.5163 169.433 54.6386 169.338 54.7338L167.832 52.6136C168.429 52.0564 169.121 51.601 169.907 51.2477C170.708 50.8807 171.562 50.6973 172.471 50.6973C173.299 50.6973 174.011 50.7923 174.608 50.9827C175.205 51.1729 175.693 51.4447 176.073 51.7981C176.467 52.1379 176.751 52.5592 176.928 53.062C177.118 53.5513 177.213 54.1085 177.213 54.7338ZM183.08 56.3035C183.08 56.9151 182.884 57.384 182.49 57.7102C182.11 58.0227 181.676 58.179 181.188 58.179C180.7 58.179 180.259 58.0227 179.865 57.7102C179.486 57.384 179.295 56.9151 179.295 56.3035C179.295 55.6918 179.486 55.2298 179.865 54.9172C180.259 54.591 180.7 54.4279 181.188 54.4279C181.676 54.4279 182.11 54.591 182.49 54.9172C182.884 55.2298 183.08 55.6918 183.08 56.3035ZM183.08 63.5406C183.08 64.1522 182.884 64.6211 182.49 64.9473C182.11 65.2598 181.676 65.4161 181.188 65.4161C180.7 65.4161 180.259 65.2598 179.865 64.9473C179.486 64.6211 179.295 64.1522 179.295 63.5406C179.295 62.9291 179.486 62.4669 179.865 62.1543C180.259 61.8281 180.7 61.6652 181.188 61.6652C181.676 61.6652 182.11 61.8281 182.49 62.1543C182.884 62.4669 183.08 62.9291 183.08 63.5406ZM194.559 58.0567C194.559 60.435 194.105 62.263 193.196 63.5406C192.3 64.8047 191.059 65.4366 189.472 65.4366C187.885 65.4366 186.637 64.8047 185.728 63.5406C184.832 62.263 184.385 60.435 184.385 58.0567C184.385 56.8744 184.5 55.8278 184.731 54.9172C184.975 54.0067 185.321 53.2387 185.768 52.6136C186.216 51.9883 186.752 51.5126 187.376 51.1866C188 50.8604 188.699 50.6973 189.472 50.6973C191.059 50.6973 192.3 51.336 193.196 52.6136C194.105 53.8775 194.559 55.6918 194.559 58.0567ZM191.466 58.0567C191.466 57.35 191.432 56.7112 191.364 56.1404C191.296 55.556 191.188 55.0532 191.039 54.6318C190.889 54.2106 190.686 53.8843 190.428 53.6533C190.17 53.4221 189.852 53.3066 189.472 53.3066C189.092 53.3066 188.773 53.4221 188.516 53.6533C188.271 53.8843 188.068 54.2106 187.905 54.6318C187.756 55.0532 187.647 55.556 187.579 56.1404C187.512 56.7112 187.478 57.35 187.478 58.0567C187.478 58.7634 187.512 59.409 187.579 59.9933C187.647 60.5779 187.756 61.0807 187.905 61.5021C188.068 61.9233 188.271 62.2495 188.516 62.4805C188.773 62.7116 189.092 62.8271 189.472 62.8271C189.852 62.8271 190.17 62.7116 190.428 62.4805C190.686 62.2495 190.889 61.9233 191.039 61.5021C191.188 61.0807 191.296 60.5779 191.364 59.9933C191.432 59.409 191.466 58.7634 191.466 58.0567ZM206.124 58.0567C206.124 60.435 205.67 62.263 204.761 63.5406C203.866 64.8047 202.624 65.4366 201.037 65.4366C199.45 65.4366 198.202 64.8047 197.293 63.5406C196.398 62.263 195.95 60.435 195.95 58.0567C195.95 56.8744 196.065 55.8278 196.296 54.9172C196.54 54.0067 196.886 53.2387 197.334 52.6136C197.781 51.9883 198.317 51.5126 198.941 51.1866C199.565 50.8604 200.264 50.6973 201.037 50.6973C202.624 50.6973 203.866 51.336 204.761 52.6136C205.67 53.8775 206.124 55.6918 206.124 58.0567ZM203.031 58.0567C203.031 57.35 202.998 56.7112 202.93 56.1404C202.862 55.556 202.753 55.0532 202.604 54.6318C202.455 54.2106 202.251 53.8843 201.994 53.6533C201.736 53.4221 201.417 53.3066 201.037 53.3066C200.657 53.3066 200.339 53.4221 200.081 53.6533C199.837 53.8843 199.633 54.2106 199.47 54.6318C199.321 55.0532 199.213 55.556 199.145 56.1404C199.077 56.7112 199.043 57.35 199.043 58.0567C199.043 58.7634 199.077 59.409 199.145 59.9933C199.213 60.5779 199.321 61.0807 199.47 61.5021C199.633 61.9233 199.837 62.2495 200.081 62.4805C200.339 62.7116 200.657 62.8271 201.037 62.8271C201.417 62.8271 201.736 62.7116 201.994 62.4805C202.251 62.2495 202.455 61.9233 202.604 61.5021C202.753 61.0807 202.862 60.5779 202.93 59.9933C202.998 59.409 203.031 58.7634 203.031 58.0567Z" fill="black"/>
<path d="M462.588 36.9678H340.956C326.238 36.9678 314.307 48.9212 314.307 63.6666C314.307 78.4119 326.238 90.3653 340.956 90.3653H462.588C477.306 90.3653 489.237 78.4119 489.237 63.6666C489.237 48.9212 477.306 36.9678 462.588 36.9678Z" fill="#3D0072"/>
<g opacity="0.5">
<path d="M450.968 62.9816C450.968 69.031 455.863 73.935 461.901 73.935C467.939 73.935 472.834 69.031 472.834 62.9816C472.834 56.9323 467.939 52.0283 461.901 52.0283C455.863 52.0283 450.968 56.9323 450.968 62.9816Z" stroke="#A0A9BB" stroke-opacity="0.25" stroke-width="0.661456"/>
<path d="M450.968 62.9816C450.968 69.031 455.863 73.935 461.901 73.935C467.939 73.935 472.834 69.031 472.834 62.9816C472.834 56.9323 467.939 52.0283 461.901 52.0283C455.863 52.0283 450.968 56.9323 450.968 62.9816Z" stroke="url(#paint3_linear_4401_79453)" stroke-width="0.661456"/>
</g>
<g filter="url(#filter0_d_4401_79453)">
<path d="M456.436 67.6487C456.436 69.2184 458.883 70.4908 461.903 70.4908C464.922 70.4908 467.369 69.2184 467.369 67.6487C467.369 66.0791 464.922 64.8066 461.903 64.8066C458.883 64.8066 456.436 66.0791 456.436 67.6487Z" fill="url(#paint4_radial_4401_79453)"/>
</g>
<g filter="url(#filter1_d_4401_79453)">
<path d="M456.436 58.5212C456.436 56.9516 458.883 55.6791 461.903 55.6791C464.922 55.6791 467.369 56.9516 467.369 58.5212C467.369 60.0908 464.922 61.3633 461.903 61.3633C458.883 61.3633 456.436 60.0908 456.436 58.5212Z" fill="url(#paint5_radial_4401_79453)"/>
</g>
<path d="M93.163 133.615H90.2637V153.947H93.163V133.615Z" fill="url(#paint6_linear_4401_79453)"/>
<path d="M704.909 133.615H702.01V153.947H704.909V133.615Z" fill="url(#paint7_linear_4401_79453)"/>
<path d="M591.836 5.80943V2.90479L571.541 2.90479V5.80943L591.836 5.80943Z" fill="url(#paint8_linear_4401_79453)"/>
<path d="M217.83 5.80943V2.90479L197.535 2.90479V5.80943L217.83 5.80943Z" fill="url(#paint9_linear_4401_79453)"/>
</g>
<defs>
<filter id="filter0_d_4401_79453" x="455.774" y="64.1452" width="12.2565" height="7.00699" filterUnits="userSpaceOnUse" color-interpolation-filters="sRGB">
<feFlood flood-opacity="0" result="BackgroundImageFix"/>
<feColorMatrix in="SourceAlpha" type="matrix" values="0 0 0 0 0 0 0 0 0 0 0 0 0 0 0 0 0 0 127 0" result="hardAlpha"/>
<feOffset/>
<feGaussianBlur stdDeviation="0.330728"/>
<feComposite in2="hardAlpha" operator="out"/>
<feColorMatrix type="matrix" values="0 0 0 0 0 0 0 0 0 0 0 0 0 0 0 0 0 0 0.5 0"/>
<feBlend mode="normal" in2="BackgroundImageFix" result="effect1_dropShadow_4401_79453"/>
<feBlend mode="normal" in="SourceGraphic" in2="effect1_dropShadow_4401_79453" result="shape"/>
</filter>
<filter id="filter1_d_4401_79453" x="455.774" y="55.0177" width="12.2565" height="7.00699" filterUnits="userSpaceOnUse" color-interpolation-filters="sRGB">
<feFlood flood-opacity="0" result="BackgroundImageFix"/>
<feColorMatrix in="SourceAlpha" type="matrix" values="0 0 0 0 0 0 0 0 0 0 0 0 0 0 0 0 0 0 127 0" result="hardAlpha"/>
<feOffset/>
<feGaussianBlur stdDeviation="0.330728"/>
<feComposite in2="hardAlpha" operator="out"/>
<feColorMatrix type="matrix" values="0 0 0 0 0 0 0 0 0 0 0 0 0 0 0 0 0 0 0.5 0"/>
<feBlend mode="normal" in2="BackgroundImageFix" result="effect1_dropShadow_4401_79453"/>
<feBlend mode="normal" in="SourceGraphic" in2="effect1_dropShadow_4401_79453" result="shape"/>
</filter>
<linearGradient id="paint0_linear_4401_79453" x1="88.8615" y1="345.854" x2="88.8615" y2="303.506" gradientUnits="userSpaceOnUse">
<stop stop-color="#3D0072"/>
<stop offset="1" stop-color="#80609B"/>
</linearGradient>
<linearGradient id="paint1_linear_4401_79453" x1="91.6213" y1="343.091" x2="91.6213" y2="306.266" gradientUnits="userSpaceOnUse">
<stop stop-color="#3D0072"/>
<stop offset="1" stop-color="#80609B"/>
</linearGradient>
<linearGradient id="paint2_linear_4401_79453" x1="704.916" y1="2.90482" x2="88.4429" y2="1242.29" gradientUnits="userSpaceOnUse">
<stop stop-color="#EFEFEF"/>
<stop offset="1" stop-color="#3D0072"/>
</linearGradient>
<linearGradient id="paint3_linear_4401_79453" x1="464.243" y1="49.4837" x2="447.354" y2="59.9606" gradientUnits="userSpaceOnUse">
<stop stop-color="#010005" stop-opacity="0.66"/>
<stop offset="1" stop-color="#2E2D31"/>
</linearGradient>
<radialGradient id="paint4_radial_4401_79453" cx="0" cy="0" r="1" gradientUnits="userSpaceOnUse" gradientTransform="translate(461.903 66.2163) rotate(180) scale(7.01006 2.88739)">
<stop stop-color="#1F85DE"/>
<stop offset="0.257948" stop-color="#1B75C9"/>
<stop offset="1" stop-color="#000232"/>
</radialGradient>
<radialGradient id="paint5_radial_4401_79453" cx="0" cy="0" r="1" gradientUnits="userSpaceOnUse" gradientTransform="translate(456.436 57.1114) rotate(180) scale(7.01006 2.88739)">
<stop stop-color="#1F85DE"/>
<stop offset="0.257948" stop-color="#1B75C9"/>
<stop offset="1" stop-color="#000232"/>
</radialGradient>
<linearGradient id="paint6_linear_4401_79453" x1="91.7133" y1="133.615" x2="91.7133" y2="153.947" gradientUnits="userSpaceOnUse">
<stop stop-color="#5A5A5A"/>
<stop offset="0.53125" stop-color="#242424"/>
<stop offset="1" stop-color="#585858"/>
</linearGradient>
<linearGradient id="paint7_linear_4401_79453" x1="703.46" y1="133.615" x2="703.46" y2="153.947" gradientUnits="userSpaceOnUse">
<stop stop-color="#5A5A5A"/>
<stop offset="0.53125" stop-color="#242424"/>
<stop offset="1" stop-color="#585858"/>
</linearGradient>
<linearGradient id="paint8_linear_4401_79453" x1="591.836" y1="4.35788" x2="571.541" y2="4.35788" gradientUnits="userSpaceOnUse">
<stop stop-color="#5A5A5A"/>
<stop offset="0.53125" stop-color="#242424"/>
<stop offset="1" stop-color="#585858"/>
</linearGradient>
<linearGradient id="paint9_linear_4401_79453" x1="217.83" y1="4.35788" x2="197.535" y2="4.35788" gradientUnits="userSpaceOnUse">
<stop stop-color="#5A5A5A"/>
<stop offset="0.53125" stop-color="#242424"/>
<stop offset="1" stop-color="#585858"/>
</linearGradient>
<clipPath id="clip0_4401_79453">
<rect width="750" height="562" fill="white"/>
</clipPath>
</defs>
</svg>
