<svg width="330" height="48" viewBox="0 0 330 48" fill="none" xmlns="http://www.w3.org/2000/svg">
<path d="M13.2177 0.805C10.8777 1.12 10.1577 2.245 10.1577 4.45V9.94H13.7127V4.63H12.0477V4.045C12.0477 2.875 12.6327 2.605 13.8927 2.425L13.2177 0.805ZM7.3677 0.805C5.0277 1.12 4.3077 2.245 4.3077 4.45V9.94H7.8627V4.63H6.1977V4.045C6.1977 2.875 6.7827 2.605 8.0427 2.425L7.3677 0.805Z" fill="white"/>
<path d="M316.282 47.195C318.622 46.88 319.342 45.755 319.342 43.55V38.06H315.787V43.37H317.452V43.955C317.452 45.125 316.867 45.395 315.607 45.575L316.282 47.195ZM322.132 47.195C324.472 46.88 325.192 45.755 325.192 43.55V38.06H321.637V43.37H323.302V43.955C323.302 45.125 322.717 45.395 321.457 45.575L322.132 47.195Z" fill="white"/>
<path d="M34.3154 15V6.96H33.2714V15H34.3154ZM39.7969 8.256V6.96H38.7529V8.256H39.7969ZM38.1049 17.352C39.0289 17.352 39.7969 16.692 39.7969 15.48V9.192H38.7529V15.408C38.7529 16.104 38.5129 16.344 38.0209 16.344C37.5049 16.344 37.1569 15.996 36.9649 15.636L36.3889 16.488C36.6409 16.824 37.1449 17.352 38.1049 17.352ZM43.7059 15.12C45.3139 15.12 46.4539 13.932 46.4539 12.096C46.4539 10.26 45.3139 9.072 43.7059 9.072C42.0979 9.072 40.9699 10.26 40.9699 12.096C40.9699 13.932 42.0979 15.12 43.7059 15.12ZM43.7059 14.244C42.7219 14.244 42.0379 13.56 42.0379 12.096C42.0379 10.62 42.7219 9.948 43.7059 9.948C44.7019 9.948 45.3979 10.62 45.3979 12.096C45.3979 13.56 44.7019 14.244 43.7059 14.244ZM48.8321 8.256V6.96H47.7881V8.256H48.8321ZM48.8321 15V9.192H47.7881V15H48.8321ZM51.4454 15V11.712C51.4454 10.74 51.8534 9.96 52.9694 9.96C53.9534 9.96 54.2534 10.488 54.2534 11.244V15H55.2854V10.992C55.2854 9.756 54.5774 9.072 53.4374 9.072C52.2974 9.072 51.6734 9.84 51.4454 10.74V9.192H50.4014V15H51.4454ZM59.2835 15.12C60.5435 15.12 61.3475 14.532 61.7795 13.836L61.1435 13.116C60.9155 13.62 60.4475 14.256 59.2835 14.256C58.2515 14.256 57.5675 13.56 57.5075 12.336H61.8155C61.8395 12.228 61.8635 12.048 61.8635 11.868C61.8635 10.164 60.8675 9.072 59.2235 9.072C57.6275 9.072 56.4995 10.26 56.4995 12.096C56.4995 13.944 57.6395 15.12 59.2835 15.12ZM59.2235 9.948C60.1955 9.948 60.8195 10.512 60.9275 11.58H57.5315C57.6635 10.5 58.2875 9.948 59.2235 9.948ZM65.3557 15.144C66.4717 15.144 67.0237 14.4 67.2277 13.512V15H68.2717V6.96H67.2277V10.704C67.0237 9.816 66.4717 9.072 65.3557 9.072C63.8917 9.072 62.9797 10.272 62.9797 12.108C62.9797 13.944 63.8917 15.144 65.3557 15.144ZM64.0357 12.108C64.0357 10.632 64.7917 9.96 65.7037 9.96C66.8197 9.96 67.2277 10.74 67.2277 11.7V12.528C67.2277 13.488 66.8197 14.268 65.7037 14.268C64.7917 14.268 64.0357 13.596 64.0357 12.108ZM73.6912 15.12C74.8912 15.12 75.5152 14.256 75.7072 13.488V13.896C75.7072 14.712 76.1392 15 76.7392 15H77.4112V14.052H77.0392C76.8232 14.052 76.7152 13.968 76.7152 13.692V11.304C76.7152 9.924 75.9472 9.072 74.5192 9.072C73.2232 9.072 72.3592 9.804 72.0112 10.404L72.7192 11.136C73.0192 10.5 73.5712 10.02 74.3992 10.02C75.3112 10.02 75.6352 10.524 75.6712 11.208L73.5712 12.144C72.7432 12.516 72.1552 13.008 72.1552 13.788C72.1552 14.556 72.7072 15.12 73.6912 15.12ZM73.2112 13.62C73.2112 13.26 73.4632 13.02 74.0152 12.756L75.7072 11.964V12.768C75.7072 13.608 75.0112 14.256 74.0272 14.256C73.4872 14.256 73.2112 14.016 73.2112 13.62ZM79.6641 15V11.712C79.6641 10.716 80.3361 9.84 81.0801 9.84C81.5001 9.84 81.6801 10.128 81.6801 10.464C81.6801 10.788 81.5241 11.148 81.3321 11.316H82.4721C82.5681 11.172 82.7001 10.812 82.7001 10.32C82.7001 9.504 82.1001 9.06 81.4761 9.06C80.4921 9.06 79.8921 9.84 79.6641 10.74V9.192H78.6201V15H79.6641ZM85.5823 15.144C86.6983 15.144 87.2503 14.4 87.4543 13.512V15H88.4983V6.96H87.4543V10.704C87.2503 9.816 86.6983 9.072 85.5823 9.072C84.1183 9.072 83.2063 10.272 83.2063 12.108C83.2063 13.944 84.1183 15.144 85.5823 15.144ZM84.2623 12.108C84.2623 10.632 85.0183 9.96 85.9303 9.96C87.0463 9.96 87.4543 10.74 87.4543 11.7V12.528C87.4543 13.488 87.0463 14.268 85.9303 14.268C85.0183 14.268 84.2623 13.596 84.2623 12.108ZM91.1251 8.256V6.96H90.0811V8.256H91.1251ZM91.1251 15V9.192H90.0811V15H91.1251ZM93.7383 15V6.96H92.6943V15H93.7383ZM96.3516 15V6.96H95.3076V15H96.3516ZM99.1209 15.12C100.321 15.12 100.945 14.256 101.137 13.488V13.896C101.137 14.712 101.569 15 102.169 15H102.841V14.052H102.469C102.253 14.052 102.145 13.968 102.145 13.692V11.304C102.145 9.924 101.377 9.072 99.9489 9.072C98.6529 9.072 97.7889 9.804 97.4409 10.404L98.1489 11.136C98.4489 10.5 99.0009 10.02 99.8289 10.02C100.741 10.02 101.065 10.524 101.101 11.208L99.0009 12.144C98.1729 12.516 97.5849 13.008 97.5849 13.788C97.5849 14.556 98.1369 15.12 99.1209 15.12ZM98.6409 13.62C98.6409 13.26 98.8929 13.02 99.4449 12.756L101.137 11.964V12.768C101.137 13.608 100.441 14.256 99.4569 14.256C98.9169 14.256 98.6409 14.016 98.6409 13.62ZM107.731 15V13.512C107.935 14.4 108.487 15.144 109.603 15.144C111.079 15.144 111.991 13.944 111.991 12.108C111.991 10.272 111.079 9.072 109.603 9.072C108.487 9.072 107.935 9.816 107.731 10.704V6.96H106.687V15H107.731ZM107.731 12.528V11.7C107.731 10.74 108.139 9.96 109.243 9.96C110.179 9.96 110.935 10.632 110.935 12.108C110.935 13.596 110.179 14.268 109.243 14.268C108.139 14.268 107.731 13.488 107.731 12.528ZM115.815 15.12C117.075 15.12 117.879 14.532 118.311 13.836L117.675 13.116C117.447 13.62 116.979 14.256 115.815 14.256C114.783 14.256 114.099 13.56 114.039 12.336H118.347C118.371 12.228 118.395 12.048 118.395 11.868C118.395 10.164 117.399 9.072 115.755 9.072C114.159 9.072 113.031 10.26 113.031 12.096C113.031 13.944 114.171 15.12 115.815 15.12ZM115.755 9.948C116.727 9.948 117.351 10.512 117.459 11.58H114.063C114.195 10.5 114.819 9.948 115.755 9.948ZM122.247 15.12C123.759 15.12 124.647 14.244 124.923 13.08L123.903 12.66C123.783 13.584 123.303 14.256 122.259 14.256C121.203 14.256 120.567 13.464 120.567 12.096C120.567 10.728 121.203 9.948 122.259 9.948C123.303 9.948 123.783 10.608 123.903 11.532L124.923 11.112C124.647 9.948 123.759 9.072 122.247 9.072C120.579 9.072 119.511 10.26 119.511 12.096C119.511 13.944 120.579 15.12 122.247 15.12ZM127.41 15.12C128.61 15.12 129.234 14.256 129.426 13.488V13.896C129.426 14.712 129.858 15 130.458 15H131.13V14.052H130.758C130.542 14.052 130.434 13.968 130.434 13.692V11.304C130.434 9.924 129.666 9.072 128.238 9.072C126.942 9.072 126.078 9.804 125.73 10.404L126.438 11.136C126.738 10.5 127.29 10.02 128.118 10.02C129.03 10.02 129.354 10.524 129.39 11.208L127.29 12.144C126.462 12.516 125.874 13.008 125.874 13.788C125.874 14.556 126.426 15.12 127.41 15.12ZM126.93 13.62C126.93 13.26 127.182 13.02 127.734 12.756L129.426 11.964V12.768C129.426 13.608 128.73 14.256 127.746 14.256C127.206 14.256 126.93 14.016 126.93 13.62ZM134.151 15.12C135.315 15.12 135.939 14.328 136.155 13.416V15H137.187V9.192H136.155V12.492C136.155 13.452 135.747 14.244 134.619 14.244C133.635 14.244 133.335 13.704 133.335 12.96V9.192H132.303V13.212C132.303 14.436 133.011 15.12 134.151 15.12ZM140.853 15.12C141.981 15.12 142.965 14.604 142.965 13.452C142.965 12.648 142.533 12.108 141.225 11.796L140.481 11.604C139.689 11.412 139.305 11.232 139.305 10.716C139.305 10.224 139.737 9.96 140.337 9.96C141.165 9.96 141.717 10.392 142.005 11.076L142.797 10.488C142.473 9.72 141.621 9.072 140.397 9.072C139.137 9.072 138.321 9.72 138.321 10.776C138.321 11.844 139.221 12.24 140.049 12.432L140.817 12.612C141.501 12.768 142.029 12.936 142.029 13.464C142.029 13.98 141.573 14.244 140.889 14.244C139.737 14.244 139.101 13.584 138.897 12.924L138.141 13.512C138.537 14.592 139.641 15.12 140.853 15.12ZM146.53 15.12C147.79 15.12 148.594 14.532 149.026 13.836L148.39 13.116C148.162 13.62 147.694 14.256 146.53 14.256C145.498 14.256 144.814 13.56 144.754 12.336H149.062C149.086 12.228 149.11 12.048 149.11 11.868C149.11 10.164 148.114 9.072 146.47 9.072C144.874 9.072 143.746 10.26 143.746 12.096C143.746 13.944 144.886 15.12 146.53 15.12ZM146.47 9.948C147.442 9.948 148.066 10.512 148.174 11.58H144.778C144.91 10.5 145.534 9.948 146.47 9.948ZM154.257 15V6.96H153.213V15H154.257ZM160.797 15L161.793 11.604L162.189 10.056L162.561 11.604L163.557 15H164.925L166.425 9.192H165.261L164.517 12.768L164.241 14.244L163.869 12.768L162.825 9.192H161.541L160.485 12.768L160.125 14.244L159.849 12.768L159.093 9.192H157.929L159.441 15H160.797ZM168.461 15.12C169.661 15.12 170.285 14.256 170.477 13.488V13.896C170.477 14.712 170.909 15 171.509 15H172.181V14.052H171.809C171.593 14.052 171.485 13.968 171.485 13.692V11.304C171.485 9.924 170.717 9.072 169.289 9.072C167.993 9.072 167.129 9.804 166.781 10.404L167.489 11.136C167.789 10.5 168.341 10.02 169.169 10.02C170.081 10.02 170.405 10.524 170.441 11.208L168.341 12.144C167.513 12.516 166.925 13.008 166.925 13.788C166.925 14.556 167.477 15.12 168.461 15.12ZM167.981 13.62C167.981 13.26 168.233 13.02 168.785 12.756L170.477 11.964V12.768C170.477 13.608 169.781 14.256 168.797 14.256C168.257 14.256 167.981 14.016 167.981 13.62ZM174.434 15V11.712C174.434 10.74 174.842 9.96 175.958 9.96C176.942 9.96 177.242 10.488 177.242 11.244V15H178.274V10.992C178.274 9.756 177.566 9.072 176.426 9.072C175.286 9.072 174.662 9.84 174.434 10.74V9.192H173.39V15H174.434ZM181.603 15.132C182.407 15.132 182.959 14.76 183.211 14.364L182.863 13.332C182.707 13.692 182.347 14.124 181.831 14.124C181.375 14.124 181.027 13.944 181.027 13.2V10.008H182.935V9.192H181.027V7.68L179.983 8.448V9.192H179.047V10.008H179.983V13.512C179.983 14.508 180.655 15.132 181.603 15.132ZM187.996 15.12C189.196 15.12 189.82 14.256 190.012 13.488V13.896C190.012 14.712 190.444 15 191.044 15H191.716V14.052H191.344C191.128 14.052 191.02 13.968 191.02 13.692V11.304C191.02 9.924 190.252 9.072 188.824 9.072C187.528 9.072 186.664 9.804 186.316 10.404L187.024 11.136C187.324 10.5 187.876 10.02 188.704 10.02C189.616 10.02 189.94 10.524 189.976 11.208L187.876 12.144C187.048 12.516 186.46 13.008 186.46 13.788C186.46 14.556 187.012 15.12 187.996 15.12ZM187.516 13.62C187.516 13.26 187.768 13.02 188.32 12.756L190.012 11.964V12.768C190.012 13.608 189.316 14.256 188.332 14.256C187.792 14.256 187.516 14.016 187.516 13.62ZM197.818 15.12C198.946 15.12 199.93 14.604 199.93 13.452C199.93 12.648 199.498 12.108 198.19 11.796L197.446 11.604C196.654 11.412 196.27 11.232 196.27 10.716C196.27 10.224 196.702 9.96 197.302 9.96C198.13 9.96 198.682 10.392 198.97 11.076L199.762 10.488C199.438 9.72 198.586 9.072 197.362 9.072C196.102 9.072 195.286 9.72 195.286 10.776C195.286 11.844 196.186 12.24 197.014 12.432L197.782 12.612C198.466 12.768 198.994 12.936 198.994 13.464C198.994 13.98 198.538 14.244 197.854 14.244C196.702 14.244 196.066 13.584 195.862 12.924L195.106 13.512C195.502 14.592 196.606 15.12 197.818 15.12ZM202.375 15.12C203.575 15.12 204.199 14.256 204.391 13.488V13.896C204.391 14.712 204.823 15 205.423 15H206.095V14.052H205.723C205.507 14.052 205.399 13.968 205.399 13.692V11.304C205.399 9.924 204.631 9.072 203.203 9.072C201.907 9.072 201.043 9.804 200.695 10.404L201.403 11.136C201.703 10.5 202.255 10.02 203.083 10.02C203.995 10.02 204.319 10.524 204.355 11.208L202.255 12.144C201.427 12.516 200.839 13.008 200.839 13.788C200.839 14.556 201.391 15.12 202.375 15.12ZM201.895 13.62C201.895 13.26 202.147 13.02 202.699 12.756L204.391 11.964V12.768C204.391 13.608 203.695 14.256 202.711 14.256C202.171 14.256 201.895 14.016 201.895 13.62ZM209.746 15L211.858 9.192H210.742L209.602 12.636L209.11 14.232L208.606 12.636L207.454 9.192H206.326L208.426 15H209.746ZM213.762 8.256V6.96H212.718V8.256H213.762ZM213.762 15V9.192H212.718V15H213.762ZM216.375 15V11.712C216.375 10.74 216.783 9.96 217.899 9.96C218.883 9.96 219.183 10.488 219.183 11.244V15H220.215V10.992C220.215 9.756 219.507 9.072 218.367 9.072C217.227 9.072 216.603 9.84 216.375 10.74V9.192H215.331V15H216.375ZM223.962 13.224C225.33 13.224 226.254 12.36 226.254 11.148C226.254 10.428 225.918 9.816 225.366 9.456L226.434 8.256L225.354 7.872L224.994 9.264C224.694 9.144 224.346 9.072 223.962 9.072C222.594 9.072 221.67 9.936 221.67 11.148C221.67 11.88 222.006 12.492 222.582 12.852C222.018 13.308 221.67 13.812 221.67 14.268C221.67 14.652 221.862 14.928 222.234 15.048C221.79 15.228 221.298 15.552 221.298 16.092C221.298 16.86 222.234 17.352 223.722 17.352C225.678 17.352 226.758 16.572 226.758 15.468C226.758 14.592 226.098 14.172 225.042 14.172H223.29C222.69 14.172 222.522 14.016 222.522 13.704C222.522 13.452 222.69 13.176 222.834 12.984C223.158 13.14 223.542 13.224 223.962 13.224ZM223.962 12.42C223.242 12.42 222.678 11.94 222.678 11.148C222.678 10.356 223.242 9.876 223.962 9.876C224.694 9.876 225.246 10.356 225.246 11.148C225.246 11.94 224.694 12.42 223.962 12.42ZM223.722 16.524C222.678 16.524 222.138 16.236 222.138 15.768C222.138 15.492 222.342 15.24 222.534 15.072H224.91C225.498 15.072 225.786 15.24 225.786 15.612C225.786 16.188 225.042 16.524 223.722 16.524ZM229.88 15.12C231.008 15.12 231.992 14.604 231.992 13.452C231.992 12.648 231.56 12.108 230.252 11.796L229.508 11.604C228.716 11.412 228.332 11.232 228.332 10.716C228.332 10.224 228.764 9.96 229.364 9.96C230.192 9.96 230.744 10.392 231.032 11.076L231.824 10.488C231.5 9.72 230.648 9.072 229.424 9.072C228.164 9.072 227.348 9.72 227.348 10.776C227.348 11.844 228.248 12.24 229.076 12.432L229.844 12.612C230.528 12.768 231.056 12.936 231.056 13.464C231.056 13.98 230.6 14.244 229.916 14.244C228.764 14.244 228.128 13.584 227.924 12.924L227.168 13.512C227.564 14.592 228.668 15.12 229.88 15.12ZM237.039 15.12C238.239 15.12 238.863 14.256 239.055 13.488V13.896C239.055 14.712 239.487 15 240.087 15H240.759V14.052H240.387C240.171 14.052 240.063 13.968 240.063 13.692V11.304C240.063 9.924 239.295 9.072 237.867 9.072C236.571 9.072 235.707 9.804 235.359 10.404L236.067 11.136C236.367 10.5 236.919 10.02 237.747 10.02C238.659 10.02 238.983 10.524 239.019 11.208L236.919 12.144C236.091 12.516 235.503 13.008 235.503 13.788C235.503 14.556 236.055 15.12 237.039 15.12ZM236.559 13.62C236.559 13.26 236.811 13.02 237.363 12.756L239.055 11.964V12.768C239.055 13.608 238.359 14.256 237.375 14.256C236.835 14.256 236.559 14.016 236.559 13.62ZM243.012 17.232V13.5C243.216 14.376 243.768 15.12 244.884 15.12C246.348 15.12 247.26 13.92 247.26 12.084C247.26 10.248 246.348 9.06 244.884 9.06C243.768 9.06 243.216 9.804 243.012 10.68V9.192H241.968V17.232H243.012ZM243.012 12.504V11.676C243.012 10.716 243.42 9.936 244.524 9.936C245.448 9.936 246.204 10.608 246.204 12.084C246.204 13.572 245.448 14.244 244.524 14.244C243.42 14.244 243.012 13.464 243.012 12.504ZM249.563 17.232V13.5C249.767 14.376 250.319 15.12 251.435 15.12C252.899 15.12 253.811 13.92 253.811 12.084C253.811 10.248 252.899 9.06 251.435 9.06C250.319 9.06 249.767 9.804 249.563 10.68V9.192H248.519V17.232H249.563ZM249.563 12.504V11.676C249.563 10.716 249.971 9.936 251.075 9.936C251.999 9.936 252.755 10.608 252.755 12.084C252.755 13.572 251.999 14.244 251.075 14.244C249.971 14.244 249.563 13.464 249.563 12.504ZM259.65 15.132C260.454 15.132 261.006 14.76 261.258 14.364L260.91 13.332C260.754 13.692 260.394 14.124 259.878 14.124C259.422 14.124 259.074 13.944 259.074 13.2V10.008H260.982V9.192H259.074V7.68L258.03 8.448V9.192H257.094V10.008H258.03V13.512C258.03 14.508 258.702 15.132 259.65 15.132ZM263.332 15V11.712C263.332 10.74 263.74 9.96 264.856 9.96C265.84 9.96 266.14 10.488 266.14 11.244V15H267.172V10.992C267.172 9.756 266.464 9.072 265.324 9.072C264.184 9.072 263.56 9.84 263.332 10.74V6.96H262.288V15H263.332ZM269.945 15.12C271.145 15.12 271.769 14.256 271.961 13.488V13.896C271.961 14.712 272.393 15 272.993 15H273.665V14.052H273.293C273.077 14.052 272.969 13.968 272.969 13.692V11.304C272.969 9.924 272.201 9.072 270.773 9.072C269.477 9.072 268.613 9.804 268.265 10.404L268.973 11.136C269.273 10.5 269.825 10.02 270.653 10.02C271.565 10.02 271.889 10.524 271.925 11.208L269.825 12.144C268.997 12.516 268.409 13.008 268.409 13.788C268.409 14.556 268.961 15.12 269.945 15.12ZM269.465 13.62C269.465 13.26 269.717 13.02 270.269 12.756L271.961 11.964V12.768C271.961 13.608 271.265 14.256 270.281 14.256C269.741 14.256 269.465 14.016 269.465 13.62ZM276.654 15.132C277.458 15.132 278.01 14.76 278.262 14.364L277.914 13.332C277.758 13.692 277.398 14.124 276.882 14.124C276.426 14.124 276.078 13.944 276.078 13.2V10.008H277.986V9.192H276.078V7.68L275.034 8.448V9.192H274.098V10.008H275.034V13.512C275.034 14.508 275.706 15.132 276.654 15.132ZM284.055 15L285.051 11.604L285.447 10.056L285.819 11.604L286.815 15H288.183L289.683 9.192H288.519L287.775 12.768L287.499 14.244L287.127 12.768L286.083 9.192H284.799L283.743 12.768L283.383 14.244L283.107 12.768L282.351 9.192H281.187L282.699 15H284.055ZM291.719 15.12C292.919 15.12 293.543 14.256 293.735 13.488V13.896C293.735 14.712 294.167 15 294.767 15H295.439V14.052H295.067C294.851 14.052 294.743 13.968 294.743 13.692V11.304C294.743 9.924 293.975 9.072 292.547 9.072C291.251 9.072 290.387 9.804 290.039 10.404L290.747 11.136C291.047 10.5 291.599 10.02 292.427 10.02C293.339 10.02 293.663 10.524 293.699 11.208L291.599 12.144C290.771 12.516 290.183 13.008 290.183 13.788C290.183 14.556 290.735 15.12 291.719 15.12ZM291.239 13.62C291.239 13.26 291.491 13.02 292.043 12.756L293.735 11.964V12.768C293.735 13.608 293.039 14.256 292.055 14.256C291.515 14.256 291.239 14.016 291.239 13.62ZM298.728 15.12C299.856 15.12 300.84 14.604 300.84 13.452C300.84 12.648 300.408 12.108 299.1 11.796L298.356 11.604C297.564 11.412 297.18 11.232 297.18 10.716C297.18 10.224 297.612 9.96 298.212 9.96C299.04 9.96 299.592 10.392 299.88 11.076L300.672 10.488C300.348 9.72 299.496 9.072 298.272 9.072C297.012 9.072 296.196 9.72 296.196 10.776C296.196 11.844 297.096 12.24 297.924 12.432L298.692 12.612C299.376 12.768 299.904 12.936 299.904 13.464C299.904 13.98 299.448 14.244 298.764 14.244C297.612 14.244 296.976 13.584 296.772 12.924L296.016 13.512C296.412 14.592 297.516 15.12 298.728 15.12ZM302.965 15V11.712C302.965 10.74 303.373 9.96 304.489 9.96C305.473 9.96 305.773 10.488 305.773 11.244V15H306.805V10.992C306.805 9.756 306.097 9.072 304.957 9.072C303.817 9.072 303.193 9.84 302.965 10.74V9.192H301.921V15H302.965ZM309.255 9.504L309.483 6.96H308.223L308.451 9.504H309.255ZM312.877 15.132C313.681 15.132 314.233 14.76 314.485 14.364L314.137 13.332C313.981 13.692 313.621 14.124 313.105 14.124C312.649 14.124 312.301 13.944 312.301 13.2V10.008H314.209V9.192H312.301V7.68L311.257 8.448V9.192H310.321V10.008H311.257V13.512C311.257 14.508 311.929 15.132 312.877 15.132ZM30.6951 32.12C31.8951 32.12 32.5191 31.256 32.7111 30.488V30.896C32.7111 31.712 33.1431 32 33.7431 32H34.4151V31.052H34.0431C33.8271 31.052 33.7191 30.968 33.7191 30.692V28.304C33.7191 26.924 32.9511 26.072 31.5231 26.072C30.2271 26.072 29.3631 26.804 29.0151 27.404L29.7231 28.136C30.0231 27.5 30.5751 27.02 31.4031 27.02C32.3151 27.02 32.6391 27.524 32.6751 28.208L30.5751 29.144C29.7471 29.516 29.1591 30.008 29.1591 30.788C29.1591 31.556 29.7111 32.12 30.6951 32.12ZM30.2151 30.62C30.2151 30.26 30.4671 30.02 31.0191 29.756L32.7111 28.964V29.768C32.7111 30.608 32.0151 31.256 31.0311 31.256C30.4911 31.256 30.2151 31.016 30.2151 30.62ZM37.7043 32.12C38.8323 32.12 39.8163 31.604 39.8163 30.452C39.8163 29.648 39.3843 29.108 38.0763 28.796L37.3323 28.604C36.5403 28.412 36.1562 28.232 36.1562 27.716C36.1562 27.224 36.5883 26.96 37.1883 26.96C38.0163 26.96 38.5683 27.392 38.8563 28.076L39.6483 27.488C39.3243 26.72 38.4723 26.072 37.2483 26.072C35.9883 26.072 35.1723 26.72 35.1723 27.776C35.1723 28.844 36.0723 29.24 36.9003 29.432L37.6683 29.612C38.3523 29.768 38.8803 29.936 38.8803 30.464C38.8803 30.98 38.4243 31.244 37.7402 31.244C36.5883 31.244 35.9523 30.584 35.7483 29.924L34.9923 30.512C35.3883 31.592 36.4923 32.12 37.7043 32.12ZM46.0751 32.12C47.5871 32.12 48.4751 31.244 48.7511 30.08L47.7311 29.66C47.6111 30.584 47.1311 31.256 46.0871 31.256C45.0311 31.256 44.3951 30.464 44.3951 29.096C44.3951 27.728 45.0311 26.948 46.0871 26.948C47.1311 26.948 47.6111 27.608 47.7311 28.532L48.7511 28.112C48.4751 26.948 47.5871 26.072 46.0751 26.072C44.4071 26.072 43.3391 27.26 43.3391 29.096C43.3391 30.944 44.4071 32.12 46.0751 32.12ZM52.2138 32.12C53.8218 32.12 54.9618 30.932 54.9618 29.096C54.9618 27.26 53.8218 26.072 52.2138 26.072C50.6058 26.072 49.4778 27.26 49.4778 29.096C49.4778 30.932 50.6058 32.12 52.2138 32.12ZM52.2138 31.244C51.2298 31.244 50.5458 30.56 50.5458 29.096C50.5458 27.62 51.2298 26.948 52.2138 26.948C53.2098 26.948 53.9058 27.62 53.9058 29.096C53.9058 30.56 53.2098 31.244 52.2138 31.244ZM57.3165 32V28.712C57.3165 27.74 57.7245 26.96 58.6005 26.96C59.4765 26.96 59.8725 27.38 59.8725 28.232V32H60.9165V28.712C60.9165 27.74 61.3245 26.96 62.2125 26.96C63.0765 26.96 63.4845 27.38 63.4845 28.232V32H64.5165V27.98C64.5165 26.756 63.9285 26.072 62.7885 26.072C61.7325 26.072 61.1325 26.852 60.9045 27.776C60.8445 26.684 60.2565 26.072 59.1885 26.072C58.1445 26.072 57.5445 26.84 57.3165 27.728V26.192H56.2725V32H57.3165ZM67.1133 34.232V30.5C67.3173 31.376 67.8693 32.12 68.9853 32.12C70.4493 32.12 71.3613 30.92 71.3613 29.084C71.3613 27.248 70.4493 26.06 68.9853 26.06C67.8693 26.06 67.3173 26.804 67.1133 27.68V26.192H66.0693V34.232H67.1133ZM67.1133 29.504V28.676C67.1133 27.716 67.5213 26.936 68.6253 26.936C69.5493 26.936 70.3053 27.608 70.3053 29.084C70.3053 30.572 69.5493 31.244 68.6253 31.244C67.5213 31.244 67.1133 30.464 67.1133 29.504ZM73.6641 32V23.96H72.6201V32H73.6641ZM77.7054 32.12C78.9654 32.12 79.7694 31.532 80.2014 30.836L79.5654 30.116C79.3374 30.62 78.8694 31.256 77.7054 31.256C76.6734 31.256 75.9894 30.56 75.9294 29.336H80.2374C80.2614 29.228 80.2854 29.048 80.2854 28.868C80.2854 27.164 79.2894 26.072 77.6454 26.072C76.0494 26.072 74.9214 27.26 74.9214 29.096C74.9214 30.944 76.0614 32.12 77.7054 32.12ZM77.6454 26.948C78.6174 26.948 79.2414 27.512 79.3494 28.58H75.9534C76.0854 27.5 76.7094 26.948 77.6454 26.948ZM81.6783 32L82.6863 30.488L83.2503 29.636L83.8143 30.488L84.7863 32H85.9983L84.0303 29.036L86.0823 26.192H84.8823L83.3343 28.532L81.8223 26.192H80.6223L82.5543 29.072L80.4783 32H81.6783ZM90.8006 32.12C92.0006 32.12 92.6246 31.256 92.8166 30.488V30.896C92.8166 31.712 93.2486 32 93.8486 32H94.5206V31.052H94.1486C93.9326 31.052 93.8246 30.968 93.8246 30.692V28.304C93.8246 26.924 93.0566 26.072 91.6286 26.072C90.3326 26.072 89.4686 26.804 89.1206 27.404L89.8286 28.136C90.1286 27.5 90.6806 27.02 91.5086 27.02C92.4206 27.02 92.7446 27.524 92.7806 28.208L90.6806 29.144C89.8526 29.516 89.2646 30.008 89.2646 30.788C89.2646 31.556 89.8166 32.12 90.8006 32.12ZM90.3206 30.62C90.3206 30.26 90.5726 30.02 91.1246 29.756L92.8166 28.964V29.768C92.8166 30.608 92.1206 31.256 91.1366 31.256C90.5966 31.256 90.3206 31.016 90.3206 30.62ZM97.8097 32.12C98.9377 32.12 99.9217 31.604 99.9217 30.452C99.9217 29.648 99.4897 29.108 98.1817 28.796L97.4377 28.604C96.6457 28.412 96.2617 28.232 96.2617 27.716C96.2617 27.224 96.6937 26.96 97.2937 26.96C98.1217 26.96 98.6737 27.392 98.9617 28.076L99.7537 27.488C99.4297 26.72 98.5777 26.072 97.3537 26.072C96.0937 26.072 95.2777 26.72 95.2777 27.776C95.2777 28.844 96.1777 29.24 97.0057 29.432L97.7737 29.612C98.4577 29.768 98.9857 29.936 98.9857 30.464C98.9857 30.98 98.5297 31.244 97.8457 31.244C96.6937 31.244 96.0577 30.584 95.8537 29.924L95.0977 30.512C95.4937 31.592 96.5977 32.12 97.8097 32.12ZM105.713 32.132C106.517 32.132 107.069 31.76 107.321 31.364L106.973 30.332C106.817 30.692 106.457 31.124 105.941 31.124C105.485 31.124 105.137 30.944 105.137 30.2V27.008H107.045V26.192H105.137V24.68L104.093 25.448V26.192H103.157V27.008H104.093V30.512C104.093 31.508 104.765 32.132 105.713 32.132ZM109.395 32V28.712C109.395 27.74 109.803 26.96 110.919 26.96C111.903 26.96 112.203 27.488 112.203 28.244V32H113.235V27.992C113.235 26.756 112.527 26.072 111.387 26.072C110.247 26.072 109.623 26.84 109.395 27.74V23.96H108.351V32H109.395ZM117.233 32.12C118.493 32.12 119.297 31.532 119.729 30.836L119.093 30.116C118.865 30.62 118.397 31.256 117.233 31.256C116.201 31.256 115.517 30.56 115.457 29.336H119.765C119.789 29.228 119.813 29.048 119.813 28.868C119.813 27.164 118.817 26.072 117.173 26.072C115.577 26.072 114.449 27.26 114.449 29.096C114.449 30.944 115.589 32.12 117.233 32.12ZM117.173 26.948C118.145 26.948 118.769 27.512 118.877 28.58H115.481C115.613 27.5 116.237 26.948 117.173 26.948ZM126.124 32.12C127.732 32.12 128.872 30.932 128.872 29.096C128.872 27.26 127.732 26.072 126.124 26.072C124.516 26.072 123.388 27.26 123.388 29.096C123.388 30.932 124.516 32.12 126.124 32.12ZM126.124 31.244C125.14 31.244 124.456 30.56 124.456 29.096C124.456 27.62 125.14 26.948 126.124 26.948C127.12 26.948 127.816 27.62 127.816 29.096C127.816 30.56 127.12 31.244 126.124 31.244ZM131.227 32V28.712C131.227 27.74 131.635 26.96 132.751 26.96C133.735 26.96 134.035 27.488 134.035 28.244V32H135.067V27.992C135.067 26.756 134.359 26.072 133.219 26.072C132.079 26.072 131.455 26.84 131.227 27.74V26.192H130.183V32H131.227ZM139.065 32.12C140.325 32.12 141.129 31.532 141.561 30.836L140.925 30.116C140.697 30.62 140.229 31.256 139.065 31.256C138.033 31.256 137.349 30.56 137.289 29.336H141.597C141.621 29.228 141.645 29.048 141.645 28.868C141.645 27.164 140.649 26.072 139.005 26.072C137.409 26.072 136.281 27.26 136.281 29.096C136.281 30.944 137.421 32.12 139.065 32.12ZM139.005 26.948C139.977 26.948 140.601 27.512 140.709 28.58H137.313C137.445 27.5 138.069 26.948 139.005 26.948ZM145.13 32.12C146.258 32.12 147.242 31.604 147.242 30.452C147.242 29.648 146.81 29.108 145.502 28.796L144.758 28.604C143.966 28.412 143.582 28.232 143.582 27.716C143.582 27.224 144.014 26.96 144.614 26.96C145.442 26.96 145.994 27.392 146.282 28.076L147.074 27.488C146.75 26.72 145.898 26.072 144.674 26.072C143.414 26.072 142.598 26.72 142.598 27.776C142.598 28.844 143.498 29.24 144.326 29.432L145.094 29.612C145.778 29.768 146.306 29.936 146.306 30.464C146.306 30.98 145.85 31.244 145.166 31.244C144.014 31.244 143.378 30.584 143.174 29.924L142.418 30.512C142.814 31.592 143.918 32.12 145.13 32.12ZM152.253 32V23.96H151.209V32H152.253ZM158.397 32.12C159.561 32.12 160.185 31.328 160.401 30.416V32H161.433V26.192H160.401V29.492C160.401 30.452 159.993 31.244 158.865 31.244C157.881 31.244 157.581 30.704 157.581 29.96V26.192H156.549V30.212C156.549 31.436 157.257 32.12 158.397 32.12ZM165.099 32.12C166.227 32.12 167.211 31.604 167.211 30.452C167.211 29.648 166.779 29.108 165.471 28.796L164.727 28.604C163.935 28.412 163.551 28.232 163.551 27.716C163.551 27.224 163.983 26.96 164.583 26.96C165.411 26.96 165.963 27.392 166.251 28.076L167.043 27.488C166.719 26.72 165.867 26.072 164.643 26.072C163.383 26.072 162.567 26.72 162.567 27.776C162.567 28.844 163.467 29.24 164.295 29.432L165.063 29.612C165.747 29.768 166.275 29.936 166.275 30.464C166.275 30.98 165.819 31.244 165.135 31.244C163.983 31.244 163.347 30.584 163.143 29.924L162.387 30.512C162.783 31.592 163.887 32.12 165.099 32.12ZM170.776 32.12C172.036 32.12 172.84 31.532 173.272 30.836L172.636 30.116C172.408 30.62 171.94 31.256 170.776 31.256C169.744 31.256 169.06 30.56 169 29.336H173.308C173.332 29.228 173.356 29.048 173.356 28.868C173.356 27.164 172.36 26.072 170.716 26.072C169.12 26.072 167.992 27.26 167.992 29.096C167.992 30.944 169.132 32.12 170.776 32.12ZM170.716 26.948C171.688 26.948 172.312 27.512 172.42 28.58H169.024C169.156 27.5 169.78 26.948 170.716 26.948ZM176.848 32.144C177.964 32.144 178.516 31.4 178.72 30.512V32H179.764V23.96H178.72V27.704C178.516 26.816 177.964 26.072 176.848 26.072C175.384 26.072 174.472 27.272 174.472 29.108C174.472 30.944 175.384 32.144 176.848 32.144ZM175.528 29.108C175.528 27.632 176.284 26.96 177.196 26.96C178.312 26.96 178.72 27.74 178.72 28.7V29.528C178.72 30.488 178.312 31.268 177.196 31.268C176.284 31.268 175.528 30.596 175.528 29.108ZM185.027 32V30.512C185.231 31.4 185.783 32.144 186.899 32.144C188.375 32.144 189.287 30.944 189.287 29.108C189.287 27.272 188.375 26.072 186.899 26.072C185.783 26.072 185.231 26.816 185.027 27.704V23.96H183.983V32H185.027ZM185.027 29.528V28.7C185.027 27.74 185.435 26.96 186.539 26.96C187.475 26.96 188.231 27.632 188.231 29.108C188.231 30.596 187.475 31.268 186.539 31.268C185.435 31.268 185.027 30.488 185.027 29.528ZM193.112 32.12C194.372 32.12 195.176 31.532 195.608 30.836L194.972 30.116C194.744 30.62 194.276 31.256 193.112 31.256C192.08 31.256 191.396 30.56 191.336 29.336H195.644C195.668 29.228 195.692 29.048 195.692 28.868C195.692 27.164 194.696 26.072 193.052 26.072C191.456 26.072 190.328 27.26 190.328 29.096C190.328 30.944 191.468 32.12 193.112 32.12ZM193.052 26.948C194.024 26.948 194.648 27.512 194.756 28.58H191.36C191.492 27.5 192.116 26.948 193.052 26.948ZM198.421 32V27.008H200.293V26.192H198.421V25.568C198.421 25.016 198.661 24.704 199.201 24.704C199.717 24.704 200.089 25.016 200.317 25.436L200.893 24.692C200.653 24.32 200.101 23.84 199.213 23.84C198.121 23.84 197.377 24.488 197.377 25.652V26.192H196.429V27.008H197.377V32H198.421ZM203.362 32.12C204.97 32.12 206.11 30.932 206.11 29.096C206.11 27.26 204.97 26.072 203.362 26.072C201.754 26.072 200.626 27.26 200.626 29.096C200.626 30.932 201.754 32.12 203.362 32.12ZM203.362 31.244C202.378 31.244 201.694 30.56 201.694 29.096C201.694 27.62 202.378 26.948 203.362 26.948C204.358 26.948 205.054 27.62 205.054 29.096C205.054 30.56 204.358 31.244 203.362 31.244ZM208.465 32V28.712C208.465 27.716 209.137 26.84 209.881 26.84C210.301 26.84 210.481 27.128 210.481 27.464C210.481 27.788 210.325 28.148 210.133 28.316H211.273C211.369 28.172 211.501 27.812 211.501 27.32C211.501 26.504 210.901 26.06 210.277 26.06C209.293 26.06 208.693 26.84 208.465 27.74V26.192H207.421V32H208.465ZM214.803 32.12C216.063 32.12 216.867 31.532 217.299 30.836L216.663 30.116C216.435 30.62 215.967 31.256 214.803 31.256C213.771 31.256 213.087 30.56 213.027 29.336H217.335C217.359 29.228 217.383 29.048 217.383 28.868C217.383 27.164 216.387 26.072 214.743 26.072C213.147 26.072 212.019 27.26 212.019 29.096C212.019 30.944 213.159 32.12 214.803 32.12ZM214.743 26.948C215.715 26.948 216.339 27.512 216.447 28.58H213.051C213.183 27.5 213.807 26.948 214.743 26.948ZM219.858 27.98V26.42H218.598V27.98H219.858ZM218.814 33.224C219.63 33.128 219.858 32.708 219.858 32V30.44H218.598V32H219.186V32.168C219.186 32.504 218.994 32.588 218.586 32.648L218.814 33.224ZM226.212 30.224C227.58 30.224 228.504 29.36 228.504 28.148C228.504 27.428 228.168 26.816 227.616 26.456L228.684 25.256L227.604 24.872L227.244 26.264C226.944 26.144 226.596 26.072 226.212 26.072C224.844 26.072 223.92 26.936 223.92 28.148C223.92 28.88 224.256 29.492 224.832 29.852C224.268 30.308 223.92 30.812 223.92 31.268C223.92 31.652 224.112 31.928 224.484 32.048C224.04 32.228 223.548 32.552 223.548 33.092C223.548 33.86 224.484 34.352 225.972 34.352C227.928 34.352 229.008 33.572 229.008 32.468C229.008 31.592 228.348 31.172 227.292 31.172H225.54C224.94 31.172 224.772 31.016 224.772 30.704C224.772 30.452 224.94 30.176 225.084 29.984C225.408 30.14 225.792 30.224 226.212 30.224ZM226.212 29.42C225.492 29.42 224.928 28.94 224.928 28.148C224.928 27.356 225.492 26.876 226.212 26.876C226.944 26.876 227.496 27.356 227.496 28.148C227.496 28.94 226.944 29.42 226.212 29.42ZM225.972 33.524C224.928 33.524 224.388 33.236 224.388 32.768C224.388 32.492 224.592 32.24 224.784 32.072H227.16C227.748 32.072 228.036 32.24 228.036 32.612C228.036 33.188 227.292 33.524 225.972 33.524ZM232.237 32.12C233.845 32.12 234.985 30.932 234.985 29.096C234.985 27.26 233.845 26.072 232.237 26.072C230.629 26.072 229.501 27.26 229.501 29.096C229.501 30.932 230.629 32.12 232.237 32.12ZM232.237 31.244C231.253 31.244 230.569 30.56 230.569 29.096C230.569 27.62 231.253 26.948 232.237 26.948C233.233 26.948 233.929 27.62 233.929 29.096C233.929 30.56 233.233 31.244 232.237 31.244ZM237.363 25.256V23.96H236.319V25.256H237.363ZM237.363 32V26.192H236.319V32H237.363ZM239.977 32V28.712C239.977 27.74 240.385 26.96 241.501 26.96C242.485 26.96 242.785 27.488 242.785 28.244V32H243.817V27.992C243.817 26.756 243.109 26.072 241.969 26.072C240.829 26.072 240.205 26.84 239.977 27.74V26.192H238.933V32H239.977ZM247.564 30.224C248.932 30.224 249.856 29.36 249.856 28.148C249.856 27.428 249.52 26.816 248.968 26.456L250.036 25.256L248.956 24.872L248.596 26.264C248.296 26.144 247.948 26.072 247.564 26.072C246.196 26.072 245.272 26.936 245.272 28.148C245.272 28.88 245.608 29.492 246.184 29.852C245.62 30.308 245.272 30.812 245.272 31.268C245.272 31.652 245.464 31.928 245.836 32.048C245.392 32.228 244.9 32.552 244.9 33.092C244.9 33.86 245.836 34.352 247.324 34.352C249.28 34.352 250.36 33.572 250.36 32.468C250.36 31.592 249.7 31.172 248.644 31.172H246.892C246.292 31.172 246.124 31.016 246.124 30.704C246.124 30.452 246.292 30.176 246.436 29.984C246.76 30.14 247.144 30.224 247.564 30.224ZM247.564 29.42C246.844 29.42 246.28 28.94 246.28 28.148C246.28 27.356 246.844 26.876 247.564 26.876C248.296 26.876 248.848 27.356 248.848 28.148C248.848 28.94 248.296 29.42 247.564 29.42ZM247.324 33.524C246.28 33.524 245.74 33.236 245.74 32.768C245.74 32.492 245.944 32.24 246.136 32.072H248.512C249.1 32.072 249.388 32.24 249.388 32.612C249.388 33.188 248.644 33.524 247.324 33.524ZM255.047 34.232V30.5C255.251 31.376 255.803 32.12 256.919 32.12C258.383 32.12 259.295 30.92 259.295 29.084C259.295 27.248 258.383 26.06 256.919 26.06C255.803 26.06 255.251 26.804 255.047 27.68V26.192H254.003V34.232H255.047ZM255.047 29.504V28.676C255.047 27.716 255.455 26.936 256.559 26.936C257.483 26.936 258.239 27.608 258.239 29.084C258.239 30.572 257.483 31.244 256.559 31.244C255.455 31.244 255.047 30.464 255.047 29.504ZM261.574 32V28.712C261.574 27.716 262.246 26.84 262.99 26.84C263.41 26.84 263.59 27.128 263.59 27.464C263.59 27.788 263.434 28.148 263.242 28.316H264.382C264.478 28.172 264.61 27.812 264.61 27.32C264.61 26.504 264.01 26.06 263.386 26.06C262.402 26.06 261.802 26.84 261.574 27.74V26.192H260.53V32H261.574ZM267.912 32.12C269.172 32.12 269.976 31.532 270.408 30.836L269.772 30.116C269.544 30.62 269.076 31.256 267.912 31.256C266.88 31.256 266.196 30.56 266.136 29.336H270.444C270.468 29.228 270.492 29.048 270.492 28.868C270.492 27.164 269.496 26.072 267.852 26.072C266.256 26.072 265.128 27.26 265.128 29.096C265.128 30.944 266.268 32.12 267.912 32.12ZM267.852 26.948C268.824 26.948 269.448 27.512 269.556 28.58H266.16C266.292 27.5 266.916 26.948 267.852 26.948ZM273.666 32.132C274.47 32.132 275.022 31.76 275.274 31.364L274.926 30.332C274.77 30.692 274.41 31.124 273.894 31.124C273.438 31.124 273.09 30.944 273.09 30.2V27.008H274.998V26.192H273.09V24.68L272.046 25.448V26.192H271.11V27.008H272.046V30.512C272.046 31.508 272.718 32.132 273.666 32.132ZM277.756 32.132C278.56 32.132 279.112 31.76 279.364 31.364L279.016 30.332C278.86 30.692 278.5 31.124 277.984 31.124C277.528 31.124 277.18 30.944 277.18 30.2V27.008H279.088V26.192H277.18V24.68L276.136 25.448V26.192H275.2V27.008H276.136V30.512C276.136 31.508 276.808 32.132 277.756 32.132ZM280.906 33.896C281.722 33.896 282.37 33.548 282.742 32.48L284.974 26.192H283.858L282.622 29.924L282.214 31.172L281.806 29.924L280.558 26.192H279.442L281.398 31.688L282.046 31.676L281.926 32.048C281.698 32.756 281.386 32.984 280.918 32.984C280.366 32.984 280.066 32.636 279.79 32.168L279.226 32.96C279.478 33.44 280.078 33.896 280.906 33.896ZM290.736 30.224C292.104 30.224 293.028 29.36 293.028 28.148C293.028 27.428 292.692 26.816 292.14 26.456L293.208 25.256L292.128 24.872L291.768 26.264C291.468 26.144 291.12 26.072 290.736 26.072C289.368 26.072 288.444 26.936 288.444 28.148C288.444 28.88 288.78 29.492 289.356 29.852C288.792 30.308 288.444 30.812 288.444 31.268C288.444 31.652 288.636 31.928 289.008 32.048C288.564 32.228 288.072 32.552 288.072 33.092C288.072 33.86 289.008 34.352 290.496 34.352C292.452 34.352 293.532 33.572 293.532 32.468C293.532 31.592 292.872 31.172 291.816 31.172H290.064C289.464 31.172 289.296 31.016 289.296 30.704C289.296 30.452 289.464 30.176 289.608 29.984C289.932 30.14 290.316 30.224 290.736 30.224ZM290.736 29.42C290.016 29.42 289.452 28.94 289.452 28.148C289.452 27.356 290.016 26.876 290.736 26.876C291.468 26.876 292.02 27.356 292.02 28.148C292.02 28.94 291.468 29.42 290.736 29.42ZM290.496 33.524C289.452 33.524 288.912 33.236 288.912 32.768C288.912 32.492 289.116 32.24 289.308 32.072H291.684C292.272 32.072 292.56 32.24 292.56 32.612C292.56 33.188 291.816 33.524 290.496 33.524ZM295.535 32V28.712C295.535 27.716 296.207 26.84 296.951 26.84C297.371 26.84 297.551 27.128 297.551 27.464C297.551 27.788 297.395 28.148 297.203 28.316H298.343C298.439 28.172 298.571 27.812 298.571 27.32C298.571 26.504 297.971 26.06 297.347 26.06C296.363 26.06 295.763 26.84 295.535 27.74V26.192H294.491V32H295.535ZM301.873 32.12C303.133 32.12 303.937 31.532 304.369 30.836L303.733 30.116C303.505 30.62 303.037 31.256 301.873 31.256C300.841 31.256 300.157 30.56 300.097 29.336H304.405C304.429 29.228 304.453 29.048 304.453 28.868C304.453 27.164 303.457 26.072 301.813 26.072C300.217 26.072 299.089 27.26 299.089 29.096C299.089 30.944 300.229 32.12 301.873 32.12ZM301.813 26.948C302.785 26.948 303.409 27.512 303.517 28.58H300.121C300.253 27.5 300.877 26.948 301.813 26.948ZM307.012 32.12C308.212 32.12 308.836 31.256 309.028 30.488V30.896C309.028 31.712 309.46 32 310.06 32H310.732V31.052H310.36C310.144 31.052 310.036 30.968 310.036 30.692V28.304C310.036 26.924 309.268 26.072 307.84 26.072C306.544 26.072 305.68 26.804 305.332 27.404L306.04 28.136C306.34 27.5 306.892 27.02 307.72 27.02C308.632 27.02 308.956 27.524 308.992 28.208L306.892 29.144C306.064 29.516 305.476 30.008 305.476 30.788C305.476 31.556 306.028 32.12 307.012 32.12ZM306.532 30.62C306.532 30.26 306.784 30.02 307.336 29.756L309.028 28.964V29.768C309.028 30.608 308.332 31.256 307.348 31.256C306.808 31.256 306.532 31.016 306.532 30.62ZM313.72 32.132C314.524 32.132 315.076 31.76 315.328 31.364L314.98 30.332C314.824 30.692 314.464 31.124 313.948 31.124C313.492 31.124 313.144 30.944 313.144 30.2V27.008H315.052V26.192H313.144V24.68L312.1 25.448V26.192H311.164V27.008H312.1V30.512C312.1 31.508 312.772 32.132 313.72 32.132ZM317.639 32V30.44H316.379V32H317.639Z" fill="white"/>
</svg>
