<svg width="335" height="48" viewBox="0 0 335 48" fill="none" xmlns="http://www.w3.org/2000/svg">
<path d="M13.2177 0.805C10.8777 1.12 10.1577 2.245 10.1577 4.45V9.94H13.7127V4.63H12.0477V4.045C12.0477 2.875 12.6327 2.605 13.8927 2.425L13.2177 0.805ZM7.3677 0.805C5.0277 1.12 4.3077 2.245 4.3077 4.45V9.94H7.8627V4.63H6.1977V4.045C6.1977 2.875 6.7827 2.605 8.0427 2.425L7.3677 0.805Z" fill="white"/>
<path d="M325.282 47.195C327.622 46.88 328.342 45.755 328.342 43.55V38.06H324.787V43.37H326.452V43.955C326.452 45.125 325.867 45.395 324.607 45.575L325.282 47.195ZM331.132 47.195C333.472 46.88 334.192 45.755 334.192 43.55V38.06H330.637V43.37H332.302V43.955C332.302 45.125 331.717 45.395 330.457 45.575L331.132 47.195Z" fill="white"/>
<path d="M40.2033 15C42.7353 15 43.9953 13.524 43.9953 10.98C43.9953 8.436 42.7353 6.96 40.2033 6.96H37.3593V15H40.2033ZM40.0353 7.884C41.8593 7.884 42.9153 8.688 42.9153 10.98C42.9153 13.272 41.8593 14.076 40.0353 14.076H38.4033V7.884H40.0353ZM47.7587 15.12C49.3667 15.12 50.5067 13.932 50.5067 12.096C50.5067 10.26 49.3667 9.072 47.7587 9.072C46.1507 9.072 45.0227 10.26 45.0227 12.096C45.0227 13.932 46.1507 15.12 47.7587 15.12ZM47.7587 14.244C46.7747 14.244 46.0907 13.56 46.0907 12.096C46.0907 10.62 46.7747 9.948 47.7587 9.948C48.7547 9.948 49.4507 10.62 49.4507 12.096C49.4507 13.56 48.7547 14.244 47.7587 14.244ZM53.7559 15L54.7519 11.604L55.1479 10.056L55.5199 11.604L56.5159 15H57.8839L59.3839 9.192H58.2199L57.4759 12.768L57.1999 14.244L56.8279 12.768L55.7839 9.192H54.4999L53.4439 12.768L53.0839 14.244L52.8079 12.768L52.0519 9.192H50.8879L52.3999 15H53.7559ZM61.1348 15V11.712C61.1348 10.74 61.5428 9.96 62.6588 9.96C63.6428 9.96 63.9428 10.488 63.9428 11.244V15H64.9748V10.992C64.9748 9.756 64.2668 9.072 63.1268 9.072C61.9868 9.072 61.3628 9.84 61.1348 10.74V9.192H60.0908V15H61.1348ZM67.5684 15V6.96H66.5244V15H67.5684ZM71.4657 15.12C73.0737 15.12 74.2137 13.932 74.2137 12.096C74.2137 10.26 73.0737 9.072 71.4657 9.072C69.8577 9.072 68.7297 10.26 68.7297 12.096C68.7297 13.932 69.8577 15.12 71.4657 15.12ZM71.4657 14.244C70.4817 14.244 69.7977 13.56 69.7977 12.096C69.7977 10.62 70.4817 9.948 71.4657 9.948C72.4617 9.948 73.1577 10.62 73.1577 12.096C73.1577 13.56 72.4617 14.244 71.4657 14.244ZM76.7596 15.12C77.9596 15.12 78.5836 14.256 78.7756 13.488V13.896C78.7756 14.712 79.2076 15 79.8076 15H80.4796V14.052H80.1076C79.8916 14.052 79.7836 13.968 79.7836 13.692V11.304C79.7836 9.924 79.0156 9.072 77.5876 9.072C76.2916 9.072 75.4276 9.804 75.0796 10.404L75.7876 11.136C76.0876 10.5 76.6396 10.02 77.4676 10.02C78.3796 10.02 78.7036 10.524 78.7396 11.208L76.6396 12.144C75.8116 12.516 75.2236 13.008 75.2236 13.788C75.2236 14.556 75.7756 15.12 76.7596 15.12ZM76.2796 13.62C76.2796 13.26 76.5316 13.02 77.0836 12.756L78.7756 11.964V12.768C78.7756 13.608 78.0796 14.256 77.0956 14.256C76.5556 14.256 76.2796 14.016 76.2796 13.62ZM83.717 15.144C84.833 15.144 85.385 14.4 85.589 13.512V15H86.633V6.96H85.589V10.704C85.385 9.816 84.833 9.072 83.717 9.072C82.253 9.072 81.341 10.272 81.341 12.108C81.341 13.944 82.253 15.144 83.717 15.144ZM82.397 12.108C82.397 10.632 83.153 9.96 84.065 9.96C85.181 9.96 85.589 10.74 85.589 11.7V12.528C85.589 13.488 85.181 14.268 84.065 14.268C83.153 14.268 82.397 13.596 82.397 12.108ZM89.2598 8.256V6.96H88.2158V8.256H89.2598ZM89.2598 15V9.192H88.2158V15H89.2598ZM91.8731 15V11.712C91.8731 10.74 92.2811 9.96 93.3971 9.96C94.3811 9.96 94.6811 10.488 94.6811 11.244V15H95.7131V10.992C95.7131 9.756 95.0051 9.072 93.8651 9.072C92.7251 9.072 92.1011 9.84 91.8731 10.74V9.192H90.8291V15H91.8731ZM99.4604 13.224C100.828 13.224 101.752 12.36 101.752 11.148C101.752 10.428 101.416 9.816 100.864 9.456L101.932 8.256L100.852 7.872L100.492 9.264C100.192 9.144 99.8444 9.072 99.4604 9.072C98.0924 9.072 97.1684 9.936 97.1684 11.148C97.1684 11.88 97.5044 12.492 98.0804 12.852C97.5164 13.308 97.1684 13.812 97.1684 14.268C97.1684 14.652 97.3604 14.928 97.7324 15.048C97.2884 15.228 96.7964 15.552 96.7964 16.092C96.7964 16.86 97.7324 17.352 99.2204 17.352C101.176 17.352 102.256 16.572 102.256 15.468C102.256 14.592 101.596 14.172 100.54 14.172H98.7884C98.1884 14.172 98.0204 14.016 98.0204 13.704C98.0204 13.452 98.1884 13.176 98.3324 12.984C98.6564 13.14 99.0404 13.224 99.4604 13.224ZM99.4604 12.42C98.7404 12.42 98.1764 11.94 98.1764 11.148C98.1764 10.356 98.7404 9.876 99.4604 9.876C100.192 9.876 100.744 10.356 100.744 11.148C100.744 11.94 100.192 12.42 99.4604 12.42ZM99.2204 16.524C98.1764 16.524 97.6364 16.236 97.6364 15.768C97.6364 15.492 97.8404 15.24 98.0324 15.072H100.408C100.996 15.072 101.284 15.24 101.284 15.612C101.284 16.188 100.54 16.524 99.2204 16.524ZM107.843 15.132C108.647 15.132 109.199 14.76 109.451 14.364L109.103 13.332C108.947 13.692 108.587 14.124 108.071 14.124C107.615 14.124 107.267 13.944 107.267 13.2V10.008H109.175V9.192H107.267V7.68L106.223 8.448V9.192H105.287V10.008H106.223V13.512C106.223 14.508 106.895 15.132 107.843 15.132ZM111.525 15V11.712C111.525 10.74 111.933 9.96 113.049 9.96C114.033 9.96 114.333 10.488 114.333 11.244V15H115.365V10.992C115.365 9.756 114.657 9.072 113.517 9.072C112.377 9.072 111.753 9.84 111.525 10.74V6.96H110.481V15H111.525ZM117.959 8.256V6.96H116.915V8.256H117.959ZM117.959 15V9.192H116.915V15H117.959ZM121.784 15.12C122.912 15.12 123.896 14.604 123.896 13.452C123.896 12.648 123.464 12.108 122.156 11.796L121.412 11.604C120.62 11.412 120.236 11.232 120.236 10.716C120.236 10.224 120.668 9.96 121.268 9.96C122.096 9.96 122.648 10.392 122.936 11.076L123.728 10.488C123.404 9.72 122.552 9.072 121.328 9.072C120.068 9.072 119.252 9.72 119.252 10.776C119.252 11.844 120.152 12.24 120.98 12.432L121.748 12.612C122.432 12.768 122.96 12.936 122.96 13.464C122.96 13.98 122.504 14.244 121.82 14.244C120.668 14.244 120.032 13.584 119.828 12.924L119.072 13.512C119.468 14.592 120.572 15.12 121.784 15.12ZM128.943 15.12C130.143 15.12 130.767 14.256 130.959 13.488V13.896C130.959 14.712 131.391 15 131.991 15H132.663V14.052H132.291C132.075 14.052 131.967 13.968 131.967 13.692V11.304C131.967 9.924 131.199 9.072 129.771 9.072C128.475 9.072 127.611 9.804 127.263 10.404L127.971 11.136C128.271 10.5 128.823 10.02 129.651 10.02C130.563 10.02 130.887 10.524 130.923 11.208L128.823 12.144C127.995 12.516 127.407 13.008 127.407 13.788C127.407 14.556 127.959 15.12 128.943 15.12ZM128.463 13.62C128.463 13.26 128.715 13.02 129.267 12.756L130.959 11.964V12.768C130.959 13.608 130.263 14.256 129.279 14.256C128.739 14.256 128.463 14.016 128.463 13.62ZM134.916 17.232V13.5C135.12 14.376 135.672 15.12 136.788 15.12C138.252 15.12 139.164 13.92 139.164 12.084C139.164 10.248 138.252 9.06 136.788 9.06C135.672 9.06 135.12 9.804 134.916 10.68V9.192H133.872V17.232H134.916ZM134.916 12.504V11.676C134.916 10.716 135.324 9.936 136.428 9.936C137.352 9.936 138.108 10.608 138.108 12.084C138.108 13.572 137.352 14.244 136.428 14.244C135.324 14.244 134.916 13.464 134.916 12.504ZM141.467 17.232V13.5C141.671 14.376 142.223 15.12 143.339 15.12C144.803 15.12 145.715 13.92 145.715 12.084C145.715 10.248 144.803 9.06 143.339 9.06C142.223 9.06 141.671 9.804 141.467 10.68V9.192H140.423V17.232H141.467ZM141.467 12.504V11.676C141.467 10.716 141.875 9.936 142.979 9.936C143.903 9.936 144.659 10.608 144.659 12.084C144.659 13.572 143.903 14.244 142.979 14.244C141.875 14.244 141.467 13.464 141.467 12.504ZM150.654 15V11.712C150.654 10.74 151.062 9.96 151.938 9.96C152.814 9.96 153.21 10.38 153.21 11.232V15H154.254V11.712C154.254 10.74 154.662 9.96 155.55 9.96C156.414 9.96 156.822 10.38 156.822 11.232V15H157.854V10.98C157.854 9.756 157.266 9.072 156.126 9.072C155.07 9.072 154.47 9.852 154.242 10.776C154.182 9.684 153.594 9.072 152.526 9.072C151.482 9.072 150.882 9.84 150.654 10.728V9.192H149.61V15H150.654ZM160.451 8.256V6.96H159.407V8.256H160.451ZM160.451 15V9.192H159.407V15H160.451ZM164.289 13.224C165.657 13.224 166.581 12.36 166.581 11.148C166.581 10.428 166.245 9.816 165.693 9.456L166.761 8.256L165.681 7.872L165.321 9.264C165.021 9.144 164.673 9.072 164.289 9.072C162.921 9.072 161.997 9.936 161.997 11.148C161.997 11.88 162.333 12.492 162.909 12.852C162.345 13.308 161.997 13.812 161.997 14.268C161.997 14.652 162.189 14.928 162.561 15.048C162.117 15.228 161.625 15.552 161.625 16.092C161.625 16.86 162.561 17.352 164.049 17.352C166.005 17.352 167.085 16.572 167.085 15.468C167.085 14.592 166.425 14.172 165.369 14.172H163.617C163.017 14.172 162.849 14.016 162.849 13.704C162.849 13.452 163.017 13.176 163.161 12.984C163.485 13.14 163.869 13.224 164.289 13.224ZM164.289 12.42C163.569 12.42 163.005 11.94 163.005 11.148C163.005 10.356 163.569 9.876 164.289 9.876C165.021 9.876 165.573 10.356 165.573 11.148C165.573 11.94 165.021 12.42 164.289 12.42ZM164.049 16.524C163.005 16.524 162.465 16.236 162.465 15.768C162.465 15.492 162.669 15.24 162.861 15.072H165.237C165.825 15.072 166.113 15.24 166.113 15.612C166.113 16.188 165.369 16.524 164.049 16.524ZM169.135 15V11.712C169.135 10.74 169.543 9.96 170.659 9.96C171.643 9.96 171.943 10.488 171.943 11.244V15H172.975V10.992C172.975 9.756 172.267 9.072 171.127 9.072C169.987 9.072 169.363 9.84 169.135 10.74V6.96H168.091V15H169.135ZM176.304 15.132C177.108 15.132 177.66 14.76 177.912 14.364L177.564 13.332C177.408 13.692 177.048 14.124 176.532 14.124C176.076 14.124 175.728 13.944 175.728 13.2V10.008H177.636V9.192H175.728V7.68L174.684 8.448V9.192H173.748V10.008H174.684V13.512C174.684 14.508 175.356 15.132 176.304 15.132ZM182.541 15V11.712C182.541 10.74 182.949 9.96 184.065 9.96C185.049 9.96 185.349 10.488 185.349 11.244V15H186.381V10.992C186.381 9.756 185.673 9.072 184.533 9.072C183.393 9.072 182.769 9.84 182.541 10.74V6.96H181.497V15H182.541ZM189.154 15.12C190.354 15.12 190.978 14.256 191.17 13.488V13.896C191.17 14.712 191.602 15 192.202 15H192.874V14.052H192.502C192.286 14.052 192.178 13.968 192.178 13.692V11.304C192.178 9.924 191.41 9.072 189.982 9.072C188.686 9.072 187.822 9.804 187.474 10.404L188.182 11.136C188.482 10.5 189.034 10.02 189.862 10.02C190.774 10.02 191.098 10.524 191.134 11.208L189.034 12.144C188.206 12.516 187.618 13.008 187.618 13.788C187.618 14.556 188.17 15.12 189.154 15.12ZM188.674 13.62C188.674 13.26 188.926 13.02 189.478 12.756L191.17 11.964V12.768C191.17 13.608 190.474 14.256 189.49 14.256C188.95 14.256 188.674 14.016 188.674 13.62ZM196.525 15L198.637 9.192H197.521L196.381 12.636L195.889 14.232L195.385 12.636L194.233 9.192H193.105L195.205 15H196.525ZM201.676 15.12C202.936 15.12 203.74 14.532 204.172 13.836L203.536 13.116C203.308 13.62 202.84 14.256 201.676 14.256C200.644 14.256 199.96 13.56 199.9 12.336H204.208C204.232 12.228 204.256 12.048 204.256 11.868C204.256 10.164 203.26 9.072 201.616 9.072C200.02 9.072 198.892 10.26 198.892 12.096C198.892 13.944 200.032 15.12 201.676 15.12ZM201.616 9.948C202.588 9.948 203.212 10.512 203.32 11.58H199.924C200.056 10.5 200.68 9.948 201.616 9.948ZM209.283 15V13.512C209.487 14.4 210.039 15.144 211.155 15.144C212.631 15.144 213.543 13.944 213.543 12.108C213.543 10.272 212.631 9.072 211.155 9.072C210.039 9.072 209.487 9.816 209.283 10.704V6.96H208.239V15H209.283ZM209.283 12.528V11.7C209.283 10.74 209.691 9.96 210.795 9.96C211.731 9.96 212.487 10.632 212.487 12.108C212.487 13.596 211.731 14.268 210.795 14.268C209.691 14.268 209.283 13.488 209.283 12.528ZM217.368 15.12C218.628 15.12 219.432 14.532 219.864 13.836L219.228 13.116C219 13.62 218.532 14.256 217.368 14.256C216.336 14.256 215.652 13.56 215.592 12.336H219.9C219.924 12.228 219.948 12.048 219.948 11.868C219.948 10.164 218.952 9.072 217.308 9.072C215.712 9.072 214.584 10.26 214.584 12.096C214.584 13.944 215.724 15.12 217.368 15.12ZM217.308 9.948C218.28 9.948 218.904 10.512 219.012 11.58H215.616C215.748 10.5 216.372 9.948 217.308 9.948ZM223.86 15.12C225.12 15.12 225.924 14.532 226.356 13.836L225.72 13.116C225.492 13.62 225.024 14.256 223.86 14.256C222.828 14.256 222.144 13.56 222.084 12.336H226.392C226.416 12.228 226.44 12.048 226.44 11.868C226.44 10.164 225.444 9.072 223.8 9.072C222.204 9.072 221.076 10.26 221.076 12.096C221.076 13.944 222.216 15.12 223.86 15.12ZM223.8 9.948C224.772 9.948 225.396 10.512 225.504 11.58H222.108C222.24 10.5 222.864 9.948 223.8 9.948ZM228.807 15V11.712C228.807 10.74 229.215 9.96 230.331 9.96C231.315 9.96 231.615 10.488 231.615 11.244V15H232.647V10.992C232.647 9.756 231.939 9.072 230.799 9.072C229.659 9.072 229.035 9.84 228.807 10.74V9.192H227.763V15H228.807ZM238.777 15.132C239.581 15.132 240.133 14.76 240.385 14.364L240.037 13.332C239.881 13.692 239.521 14.124 239.005 14.124C238.549 14.124 238.201 13.944 238.201 13.2V10.008H240.109V9.192H238.201V7.68L237.157 8.448V9.192H236.221V10.008H237.157V13.512C237.157 14.508 237.829 15.132 238.777 15.132ZM242.459 15V11.712C242.459 10.74 242.867 9.96 243.983 9.96C244.967 9.96 245.267 10.488 245.267 11.244V15H246.299V10.992C246.299 9.756 245.591 9.072 244.451 9.072C243.311 9.072 242.687 9.84 242.459 10.74V6.96H241.415V15H242.459ZM250.297 15.12C251.557 15.12 252.361 14.532 252.793 13.836L252.157 13.116C251.929 13.62 251.461 14.256 250.297 14.256C249.265 14.256 248.581 13.56 248.521 12.336H252.829C252.853 12.228 252.877 12.048 252.877 11.868C252.877 10.164 251.881 9.072 250.237 9.072C248.641 9.072 247.513 10.26 247.513 12.096C247.513 13.944 248.653 15.12 250.297 15.12ZM250.237 9.948C251.209 9.948 251.833 10.512 251.941 11.58H248.545C248.677 10.5 249.301 9.948 250.237 9.948ZM257.904 15V13.512C258.108 14.4 258.66 15.144 259.776 15.144C261.252 15.144 262.164 13.944 262.164 12.108C262.164 10.272 261.252 9.072 259.776 9.072C258.66 9.072 258.108 9.816 257.904 10.704V6.96H256.86V15H257.904ZM257.904 12.528V11.7C257.904 10.74 258.312 9.96 259.416 9.96C260.352 9.96 261.108 10.632 261.108 12.108C261.108 13.596 260.352 14.268 259.416 14.268C258.312 14.268 257.904 13.488 257.904 12.528ZM265.989 15.12C267.249 15.12 268.053 14.532 268.485 13.836L267.849 13.116C267.621 13.62 267.153 14.256 265.989 14.256C264.957 14.256 264.273 13.56 264.213 12.336H268.521C268.545 12.228 268.569 12.048 268.569 11.868C268.569 10.164 267.573 9.072 265.929 9.072C264.333 9.072 263.205 10.26 263.205 12.096C263.205 13.944 264.345 15.12 265.989 15.12ZM265.929 9.948C266.901 9.948 267.525 10.512 267.633 11.58H264.237C264.369 10.5 264.993 9.948 265.929 9.948ZM272.054 15.12C273.182 15.12 274.166 14.604 274.166 13.452C274.166 12.648 273.734 12.108 272.426 11.796L271.682 11.604C270.89 11.412 270.506 11.232 270.506 10.716C270.506 10.224 270.938 9.96 271.538 9.96C272.366 9.96 272.918 10.392 273.206 11.076L273.998 10.488C273.674 9.72 272.822 9.072 271.598 9.072C270.338 9.072 269.522 9.72 269.522 10.776C269.522 11.844 270.422 12.24 271.25 12.432L272.018 12.612C272.702 12.768 273.23 12.936 273.23 13.464C273.23 13.98 272.774 14.244 272.09 14.244C270.938 14.244 270.302 13.584 270.098 12.924L269.342 13.512C269.738 14.592 270.842 15.12 272.054 15.12ZM277.191 15.132C277.995 15.132 278.547 14.76 278.799 14.364L278.451 13.332C278.295 13.692 277.935 14.124 277.419 14.124C276.963 14.124 276.615 13.944 276.615 13.2V10.008H278.523V9.192H276.615V7.68L275.571 8.448V9.192H274.635V10.008H275.571V13.512C275.571 14.508 276.243 15.132 277.191 15.132ZM284.436 15.144C285.552 15.144 286.104 14.4 286.308 13.512V15H287.352V6.96H286.308V10.704C286.104 9.816 285.552 9.072 284.436 9.072C282.972 9.072 282.06 10.272 282.06 12.108C282.06 13.944 282.972 15.144 284.436 15.144ZM283.116 12.108C283.116 10.632 283.872 9.96 284.784 9.96C285.9 9.96 286.308 10.74 286.308 11.7V12.528C286.308 13.488 285.9 14.268 284.784 14.268C283.872 14.268 283.116 13.596 283.116 12.108ZM291.407 15.12C292.667 15.12 293.471 14.532 293.903 13.836L293.267 13.116C293.039 13.62 292.571 14.256 291.407 14.256C290.375 14.256 289.691 13.56 289.631 12.336H293.939C293.963 12.228 293.987 12.048 293.987 11.868C293.987 10.164 292.991 9.072 291.347 9.072C289.751 9.072 288.623 10.26 288.623 12.096C288.623 13.944 289.763 15.12 291.407 15.12ZM291.347 9.948C292.319 9.948 292.943 10.512 293.051 11.58H289.655C289.787 10.5 290.411 9.948 291.347 9.948ZM297.839 15.12C299.351 15.12 300.239 14.244 300.515 13.08L299.495 12.66C299.375 13.584 298.895 14.256 297.851 14.256C296.795 14.256 296.159 13.464 296.159 12.096C296.159 10.728 296.795 9.948 297.851 9.948C298.895 9.948 299.375 10.608 299.495 11.532L300.515 11.112C300.239 9.948 299.351 9.072 297.839 9.072C296.171 9.072 295.103 10.26 295.103 12.096C295.103 13.944 296.171 15.12 297.839 15.12ZM302.764 8.256V6.96H301.72V8.256H302.764ZM302.764 15V9.192H301.72V15H302.764ZM306.589 15.12C307.717 15.12 308.701 14.604 308.701 13.452C308.701 12.648 308.269 12.108 306.961 11.796L306.217 11.604C305.425 11.412 305.041 11.232 305.041 10.716C305.041 10.224 305.473 9.96 306.073 9.96C306.901 9.96 307.453 10.392 307.741 11.076L308.533 10.488C308.209 9.72 307.357 9.072 306.133 9.072C304.873 9.072 304.057 9.72 304.057 10.776C304.057 11.844 304.957 12.24 305.785 12.432L306.553 12.612C307.237 12.768 307.765 12.936 307.765 13.464C307.765 13.98 307.309 14.244 306.625 14.244C305.473 14.244 304.837 13.584 304.633 12.924L303.877 13.512C304.273 14.592 305.377 15.12 306.589 15.12ZM310.955 8.256V6.96H309.911V8.256H310.955ZM310.955 15V9.192H309.911V15H310.955ZM314.852 15.12C316.46 15.12 317.6 13.932 317.6 12.096C317.6 10.26 316.46 9.072 314.852 9.072C313.244 9.072 312.116 10.26 312.116 12.096C312.116 13.932 313.244 15.12 314.852 15.12ZM314.852 14.244C313.868 14.244 313.184 13.56 313.184 12.096C313.184 10.62 313.868 9.948 314.852 9.948C315.848 9.948 316.544 10.62 316.544 12.096C316.544 13.56 315.848 14.244 314.852 14.244ZM319.955 15V11.712C319.955 10.74 320.363 9.96 321.479 9.96C322.463 9.96 322.763 10.488 322.763 11.244V15H323.795V10.992C323.795 9.756 323.087 9.072 321.947 9.072C320.807 9.072 320.183 9.84 319.955 10.74V9.192H318.911V15H319.955ZM135.259 32.132C136.063 32.132 136.615 31.76 136.867 31.364L136.519 30.332C136.363 30.692 136.003 31.124 135.487 31.124C135.031 31.124 134.683 30.944 134.683 30.2V27.008H136.591V26.192H134.683V24.68L133.639 25.448V26.192H132.703V27.008H133.639V30.512C133.639 31.508 134.311 32.132 135.259 32.132ZM138.941 32V28.712C138.941 27.74 139.349 26.96 140.465 26.96C141.449 26.96 141.749 27.488 141.749 28.244V32H142.781V27.992C142.781 26.756 142.073 26.072 140.933 26.072C139.793 26.072 139.169 26.84 138.941 27.74V23.96H137.897V32H138.941ZM145.375 25.256V23.96H144.331V25.256H145.375ZM145.375 32V26.192H144.331V32H145.375ZM149.2 32.12C150.328 32.12 151.312 31.604 151.312 30.452C151.312 29.648 150.88 29.108 149.572 28.796L148.828 28.604C148.036 28.412 147.652 28.232 147.652 27.716C147.652 27.224 148.084 26.96 148.684 26.96C149.512 26.96 150.064 27.392 150.352 28.076L151.144 27.488C150.82 26.72 149.968 26.072 148.744 26.072C147.484 26.072 146.668 26.72 146.668 27.776C146.668 28.844 147.568 29.24 148.396 29.432L149.164 29.612C149.848 29.768 150.376 29.936 150.376 30.464C150.376 30.98 149.92 31.244 149.236 31.244C148.084 31.244 147.448 30.584 147.244 29.924L146.488 30.512C146.884 31.592 147.988 32.12 149.2 32.12ZM157.367 32L158.363 28.604L158.759 27.056L159.131 28.604L160.127 32H161.495L162.995 26.192H161.831L161.087 29.768L160.811 31.244L160.439 29.768L159.395 26.192H158.111L157.055 29.768L156.695 31.244L156.419 29.768L155.663 26.192H154.499L156.011 32H157.367ZM166.104 32.12C167.364 32.12 168.168 31.532 168.6 30.836L167.964 30.116C167.736 30.62 167.268 31.256 166.104 31.256C165.072 31.256 164.388 30.56 164.328 29.336H168.636C168.66 29.228 168.684 29.048 168.684 28.868C168.684 27.164 167.688 26.072 166.044 26.072C164.448 26.072 163.32 27.26 163.32 29.096C163.32 30.944 164.46 32.12 166.104 32.12ZM166.044 26.948C167.016 26.948 167.64 27.512 167.748 28.58H164.352C164.484 27.5 165.108 26.948 166.044 26.948ZM172.596 32.12C173.856 32.12 174.66 31.532 175.092 30.836L174.456 30.116C174.228 30.62 173.76 31.256 172.596 31.256C171.564 31.256 170.88 30.56 170.82 29.336H175.128C175.152 29.228 175.176 29.048 175.176 28.868C175.176 27.164 174.18 26.072 172.536 26.072C170.94 26.072 169.812 27.26 169.812 29.096C169.812 30.944 170.952 32.12 172.596 32.12ZM172.536 26.948C173.508 26.948 174.132 27.512 174.24 28.58H170.844C170.976 27.5 171.6 26.948 172.536 26.948ZM177.566 32V29.972L178.49 29.096L180.374 32H181.634L179.21 28.448L181.598 26.192H180.29L178.382 28.016L177.53 28.856L177.566 28.04V23.96H176.522V32H177.566ZM187.774 28.94V28.208H184.942V28.94H187.774ZM192.789 32V23.96H191.745V32H192.789ZM196.83 32.12C198.09 32.12 198.894 31.532 199.326 30.836L198.69 30.116C198.462 30.62 197.994 31.256 196.83 31.256C195.798 31.256 195.114 30.56 195.054 29.336H199.362C199.386 29.228 199.41 29.048 199.41 28.868C199.41 27.164 198.414 26.072 196.77 26.072C195.174 26.072 194.046 27.26 194.046 29.096C194.046 30.944 195.186 32.12 196.83 32.12ZM196.77 26.948C197.742 26.948 198.366 27.512 198.474 28.58H195.078C195.21 27.5 195.834 26.948 196.77 26.948ZM202.584 32.132C203.388 32.132 203.94 31.76 204.192 31.364L203.844 30.332C203.688 30.692 203.328 31.124 202.812 31.124C202.356 31.124 202.008 30.944 202.008 30.2V27.008H203.916V26.192H202.008V24.68L200.964 25.448V26.192H200.028V27.008H200.964V30.512C200.964 31.508 201.636 32.132 202.584 32.132ZM210.044 30.224C211.412 30.224 212.336 29.36 212.336 28.148C212.336 27.428 212 26.816 211.448 26.456L212.516 25.256L211.436 24.872L211.076 26.264C210.776 26.144 210.428 26.072 210.044 26.072C208.676 26.072 207.752 26.936 207.752 28.148C207.752 28.88 208.088 29.492 208.664 29.852C208.1 30.308 207.752 30.812 207.752 31.268C207.752 31.652 207.944 31.928 208.316 32.048C207.872 32.228 207.38 32.552 207.38 33.092C207.38 33.86 208.316 34.352 209.804 34.352C211.76 34.352 212.84 33.572 212.84 32.468C212.84 31.592 212.18 31.172 211.124 31.172H209.372C208.772 31.172 208.604 31.016 208.604 30.704C208.604 30.452 208.772 30.176 208.916 29.984C209.24 30.14 209.624 30.224 210.044 30.224ZM210.044 29.42C209.324 29.42 208.76 28.94 208.76 28.148C208.76 27.356 209.324 26.876 210.044 26.876C210.776 26.876 211.328 27.356 211.328 28.148C211.328 28.94 210.776 29.42 210.044 29.42ZM209.804 33.524C208.76 33.524 208.22 33.236 208.22 32.768C208.22 32.492 208.424 32.24 208.616 32.072H210.992C211.58 32.072 211.868 32.24 211.868 32.612C211.868 33.188 211.124 33.524 209.804 33.524ZM216.069 32.12C217.677 32.12 218.817 30.932 218.817 29.096C218.817 27.26 217.677 26.072 216.069 26.072C214.461 26.072 213.333 27.26 213.333 29.096C213.333 30.932 214.461 32.12 216.069 32.12ZM216.069 31.244C215.085 31.244 214.401 30.56 214.401 29.096C214.401 27.62 215.085 26.948 216.069 26.948C217.065 26.948 217.761 27.62 217.761 29.096C217.761 30.56 217.065 31.244 216.069 31.244ZM222.573 32.12C224.181 32.12 225.321 30.932 225.321 29.096C225.321 27.26 224.181 26.072 222.573 26.072C220.965 26.072 219.837 27.26 219.837 29.096C219.837 30.932 220.965 32.12 222.573 32.12ZM222.573 31.244C221.589 31.244 220.905 30.56 220.905 29.096C220.905 27.62 221.589 26.948 222.573 26.948C223.569 26.948 224.265 27.62 224.265 29.096C224.265 30.56 223.569 31.244 222.573 31.244ZM227.639 29.564C227.639 27.968 227.807 26.024 227.807 23.96H226.535C226.535 26.036 226.715 27.98 226.715 29.564H227.639ZM227.807 32V30.44H226.547V32H227.807Z" fill="white"/>
</svg>
