<svg width="330" height="49" viewBox="0 0 330 49" fill="none" xmlns="http://www.w3.org/2000/svg">
<path d="M13.2177 0.805C10.8777 1.12 10.1577 2.245 10.1577 4.45V9.94H13.7127V4.63H12.0477V4.045C12.0477 2.875 12.6327 2.605 13.8927 2.425L13.2177 0.805ZM7.3677 0.805C5.0277 1.12 4.3077 2.245 4.3077 4.45V9.94H7.8627V4.63H6.1977V4.045C6.1977 2.875 6.7827 2.605 8.0427 2.425L7.3677 0.805Z" fill="white"/>
<path d="M316.282 48.195C318.622 47.88 319.342 46.755 319.342 44.55V39.06H315.787V44.37H317.452V44.955C317.452 46.125 316.867 46.395 315.607 46.575L316.282 48.195ZM322.132 48.195C324.472 47.88 325.192 46.755 325.192 44.55V39.06H321.637V44.37H323.302V44.955C323.302 46.125 322.717 46.395 321.457 46.575L322.132 48.195Z" fill="white"/>
<path d="M33.289 15L34.165 12.756H37.681L38.557 15H39.709L36.469 6.96H35.425L32.185 15H33.289ZM35.521 9.288L35.929 8.028L36.325 9.288L37.321 11.832H34.525L35.521 9.288ZM42.2204 15.132C43.0244 15.132 43.5764 14.76 43.8284 14.364L43.4804 13.332C43.3244 13.692 42.9644 14.124 42.4484 14.124C41.9924 14.124 41.6444 13.944 41.6444 13.2V10.008H43.5524V9.192H41.6444V7.68L40.6004 8.448V9.192H39.6644V10.008H40.6004V13.512C40.6004 14.508 41.2724 15.132 42.2204 15.132ZM49.3571 15.132C50.1611 15.132 50.7131 14.76 50.9651 14.364L50.6171 13.332C50.4611 13.692 50.1011 14.124 49.5851 14.124C49.1291 14.124 48.7811 13.944 48.7811 13.2V10.008H50.6891V9.192H48.7811V7.68L47.7371 8.448V9.192H46.8011V10.008H47.7371V13.512C47.7371 14.508 48.4091 15.132 49.3571 15.132ZM53.0391 15V11.712C53.0391 10.74 53.4471 9.96 54.5631 9.96C55.5471 9.96 55.8471 10.488 55.8471 11.244V15H56.8791V10.992C56.8791 9.756 56.1711 9.072 55.0311 9.072C53.8911 9.072 53.2671 9.84 53.0391 10.74V6.96H51.9951V15H53.0391ZM59.4727 8.256V6.96H58.4287V8.256H59.4727ZM59.4727 15V9.192H58.4287V15H59.4727ZM63.298 15.12C64.426 15.12 65.41 14.604 65.41 13.452C65.41 12.648 64.978 12.108 63.67 11.796L62.926 11.604C62.134 11.412 61.75 11.232 61.75 10.716C61.75 10.224 62.182 9.96 62.782 9.96C63.61 9.96 64.162 10.392 64.45 11.076L65.242 10.488C64.918 9.72 64.066 9.072 62.842 9.072C61.582 9.072 60.766 9.72 60.766 10.776C60.766 11.844 61.666 12.24 62.494 12.432L63.262 12.612C63.946 12.768 64.474 12.936 64.474 13.464C64.474 13.98 64.018 14.244 63.334 14.244C62.182 14.244 61.546 13.584 61.342 12.924L60.586 13.512C60.982 14.592 62.086 15.12 63.298 15.12ZM70.3008 17.232V13.5C70.5048 14.376 71.0568 15.12 72.1728 15.12C73.6368 15.12 74.5488 13.92 74.5488 12.084C74.5488 10.248 73.6368 9.06 72.1728 9.06C71.0568 9.06 70.5048 9.804 70.3008 10.68V9.192H69.2568V17.232H70.3008ZM70.3008 12.504V11.676C70.3008 10.716 70.7088 9.936 71.8128 9.936C72.7368 9.936 73.4928 10.608 73.4928 12.084C73.4928 13.572 72.7368 14.244 71.8128 14.244C70.7088 14.244 70.3008 13.464 70.3008 12.504ZM78.2294 15.12C79.8374 15.12 80.9774 13.932 80.9774 12.096C80.9774 10.26 79.8374 9.072 78.2294 9.072C76.6214 9.072 75.4934 10.26 75.4934 12.096C75.4934 13.932 76.6214 15.12 78.2294 15.12ZM78.2294 14.244C77.2454 14.244 76.5614 13.56 76.5614 12.096C76.5614 10.62 77.2454 9.948 78.2294 9.948C79.2254 9.948 79.9214 10.62 79.9214 12.096C79.9214 13.56 79.2254 14.244 78.2294 14.244ZM83.3555 8.256V6.96H82.3115V8.256H83.3555ZM83.3555 15V9.192H82.3115V15H83.3555ZM85.9688 15V11.712C85.9688 10.74 86.3768 9.96 87.4928 9.96C88.4768 9.96 88.7768 10.488 88.7768 11.244V15H89.8088V10.992C89.8088 9.756 89.1008 9.072 87.9608 9.072C86.8208 9.072 86.1968 9.84 85.9688 10.74V9.192H84.9248V15H85.9688ZM93.1383 15.132C93.9423 15.132 94.4943 14.76 94.7463 14.364L94.3983 13.332C94.2423 13.692 93.8823 14.124 93.3663 14.124C92.9103 14.124 92.5623 13.944 92.5623 13.2V10.008H94.4703V9.192H92.5623V7.68L91.5183 8.448V9.192H90.5823V10.008H91.5183V13.512C91.5183 14.508 92.1903 15.132 93.1383 15.132ZM99.3751 8.256V6.96H98.3311V8.256H99.3751ZM99.3751 15V9.192H98.3311V15H99.3751ZM102.888 15.132C103.692 15.132 104.244 14.76 104.496 14.364L104.148 13.332C103.992 13.692 103.632 14.124 103.116 14.124C102.66 14.124 102.312 13.944 102.312 13.2V10.008H104.22V9.192H102.312V7.68L101.268 8.448V9.192H100.332V10.008H101.268V13.512C101.268 14.508 101.94 15.132 102.888 15.132ZM106.426 9.504L106.654 6.96H105.394L105.622 9.504H106.426ZM110.361 15.12C111.489 15.12 112.473 14.604 112.473 13.452C112.473 12.648 112.041 12.108 110.733 11.796L109.989 11.604C109.197 11.412 108.812 11.232 108.812 10.716C108.812 10.224 109.245 9.96 109.845 9.96C110.673 9.96 111.225 10.392 111.513 11.076L112.305 10.488C111.981 9.72 111.129 9.072 109.905 9.072C108.645 9.072 107.829 9.72 107.829 10.776C107.829 11.844 108.729 12.24 109.557 12.432L110.325 12.612C111.009 12.768 111.537 12.936 111.537 13.464C111.537 13.98 111.081 14.244 110.396 14.244C109.245 14.244 108.609 13.584 108.405 12.924L107.649 13.512C108.045 14.592 109.149 15.12 110.361 15.12ZM117.363 15V11.712C117.363 10.74 117.771 9.96 118.647 9.96C119.523 9.96 119.919 10.38 119.919 11.232V15H120.963V11.712C120.963 10.74 121.371 9.96 122.259 9.96C123.123 9.96 123.531 10.38 123.531 11.232V15H124.563V10.98C124.563 9.756 123.975 9.072 122.835 9.072C121.779 9.072 121.179 9.852 120.951 10.776C120.891 9.684 120.303 9.072 119.235 9.072C118.191 9.072 117.591 9.84 117.363 10.728V9.192H116.319V15H117.363ZM127.34 15.12C128.54 15.12 129.164 14.256 129.356 13.488V13.896C129.356 14.712 129.788 15 130.388 15H131.06V14.052H130.688C130.472 14.052 130.364 13.968 130.364 13.692V11.304C130.364 9.924 129.596 9.072 128.168 9.072C126.872 9.072 126.008 9.804 125.66 10.404L126.368 11.136C126.668 10.5 127.22 10.02 128.048 10.02C128.96 10.02 129.284 10.524 129.32 11.208L127.22 12.144C126.392 12.516 125.804 13.008 125.804 13.788C125.804 14.556 126.356 15.12 127.34 15.12ZM126.86 13.62C126.86 13.26 127.112 13.02 127.664 12.756L129.356 11.964V12.768C129.356 13.608 128.66 14.256 127.676 14.256C127.136 14.256 126.86 14.016 126.86 13.62ZM133.313 15V12.972L134.237 12.096L136.121 15H137.381L134.957 11.448L137.345 9.192H136.037L134.129 11.016L133.277 11.856L133.313 11.04V6.96H132.269V15H133.313ZM140.459 15.12C141.719 15.12 142.523 14.532 142.955 13.836L142.319 13.116C142.091 13.62 141.623 14.256 140.459 14.256C139.427 14.256 138.743 13.56 138.683 12.336H142.991C143.015 12.228 143.039 12.048 143.039 11.868C143.039 10.164 142.043 9.072 140.399 9.072C138.803 9.072 137.675 10.26 137.675 12.096C137.675 13.944 138.815 15.12 140.459 15.12ZM140.399 9.948C141.371 9.948 141.995 10.512 142.103 11.58H138.707C138.839 10.5 139.463 9.948 140.399 9.948ZM148.066 8.256V6.96H147.022V8.256H148.066ZM148.066 15V9.192H147.022V15H148.066ZM151.58 15.132C152.384 15.132 152.936 14.76 153.188 14.364L152.84 13.332C152.684 13.692 152.324 14.124 151.808 14.124C151.352 14.124 151.004 13.944 151.004 13.2V10.008H152.912V9.192H151.004V7.68L149.96 8.448V9.192H149.024V10.008H149.96V13.512C149.96 14.508 150.632 15.132 151.58 15.132ZM159.1 15.12C160.708 15.12 161.848 13.932 161.848 12.096C161.848 10.26 160.708 9.072 159.1 9.072C157.492 9.072 156.364 10.26 156.364 12.096C156.364 13.932 157.492 15.12 159.1 15.12ZM159.1 14.244C158.116 14.244 157.432 13.56 157.432 12.096C157.432 10.62 158.116 9.948 159.1 9.948C160.096 9.948 160.792 10.62 160.792 12.096C160.792 13.56 160.096 14.244 159.1 14.244ZM164.203 15V11.712C164.203 10.716 164.875 9.84 165.619 9.84C166.039 9.84 166.219 10.128 166.219 10.464C166.219 10.788 166.063 11.148 165.871 11.316H167.011C167.107 11.172 167.239 10.812 167.239 10.32C167.239 9.504 166.639 9.06 166.015 9.06C165.031 9.06 164.431 9.84 164.203 10.74V9.192H163.159V15H164.203ZM171.902 15V13.512C172.106 14.4 172.658 15.144 173.774 15.144C175.25 15.144 176.162 13.944 176.162 12.108C176.162 10.272 175.25 9.072 173.774 9.072C172.658 9.072 172.106 9.816 171.902 10.704V6.96H170.858V15H171.902ZM171.902 12.528V11.7C171.902 10.74 172.31 9.96 173.414 9.96C174.35 9.96 175.106 10.632 175.106 12.108C175.106 13.596 174.35 14.268 173.414 14.268C172.31 14.268 171.902 13.488 171.902 12.528ZM178.441 15V11.712C178.441 10.716 179.113 9.84 179.857 9.84C180.277 9.84 180.457 10.128 180.457 10.464C180.457 10.788 180.301 11.148 180.109 11.316H181.249C181.345 11.172 181.477 10.812 181.477 10.32C181.477 9.504 180.877 9.06 180.253 9.06C179.269 9.06 178.669 9.84 178.441 10.74V9.192H177.397V15H178.441ZM184.78 15.12C186.04 15.12 186.844 14.532 187.276 13.836L186.64 13.116C186.412 13.62 185.944 14.256 184.78 14.256C183.748 14.256 183.064 13.56 183.004 12.336H187.312C187.336 12.228 187.36 12.048 187.36 11.868C187.36 10.164 186.364 9.072 184.72 9.072C183.124 9.072 181.996 10.26 181.996 12.096C181.996 13.944 183.136 15.12 184.78 15.12ZM184.72 9.948C185.692 9.948 186.316 10.512 186.424 11.58H183.028C183.16 10.5 183.784 9.948 184.72 9.948ZM189.918 15.12C191.118 15.12 191.742 14.256 191.934 13.488V13.896C191.934 14.712 192.366 15 192.966 15H193.638V14.052H193.266C193.05 14.052 192.942 13.968 192.942 13.692V11.304C192.942 9.924 192.174 9.072 190.746 9.072C189.45 9.072 188.586 9.804 188.238 10.404L188.946 11.136C189.246 10.5 189.798 10.02 190.626 10.02C191.538 10.02 191.862 10.524 191.898 11.208L189.798 12.144C188.97 12.516 188.382 13.008 188.382 13.788C188.382 14.556 188.934 15.12 189.918 15.12ZM189.438 13.62C189.438 13.26 189.69 13.02 190.242 12.756L191.934 11.964V12.768C191.934 13.608 191.238 14.256 190.254 14.256C189.714 14.256 189.438 14.016 189.438 13.62ZM195.891 15V12.972L196.815 12.096L198.699 15H199.959L197.535 11.448L199.923 9.192H198.615L196.707 11.016L195.855 11.856L195.891 11.04V6.96H194.847V15H195.891ZM204.563 8.256V6.96H203.519V8.256H204.563ZM204.563 15V9.192H203.519V15H204.563ZM208.076 15.132C208.88 15.132 209.432 14.76 209.684 14.364L209.336 13.332C209.18 13.692 208.82 14.124 208.304 14.124C207.848 14.124 207.5 13.944 207.5 13.2V10.008H209.408V9.192H207.5V7.68L206.456 8.448V9.192H205.52V10.008H206.456V13.512C206.456 14.508 207.128 15.132 208.076 15.132ZM215.477 15L216.473 11.604L216.869 10.056L217.241 11.604L218.237 15H219.605L221.105 9.192H219.941L219.197 12.768L218.921 14.244L218.549 12.768L217.505 9.192H216.221L215.165 12.768L214.805 14.244L214.529 12.768L213.773 9.192H212.609L214.121 15H215.477ZM223.078 8.256V6.96H222.034V8.256H223.078ZM223.078 15V9.192H222.034V15H223.078ZM226.591 15.132C227.395 15.132 227.947 14.76 228.199 14.364L227.851 13.332C227.695 13.692 227.335 14.124 226.819 14.124C226.363 14.124 226.015 13.944 226.015 13.2V10.008H227.923V9.192H226.015V7.68L224.971 8.448V9.192H224.035V10.008H224.971V13.512C224.971 14.508 225.643 15.132 226.591 15.132ZM230.274 15V11.712C230.274 10.74 230.682 9.96 231.798 9.96C232.782 9.96 233.082 10.488 233.082 11.244V15H234.114V10.992C234.114 9.756 233.406 9.072 232.266 9.072C231.126 9.072 230.502 9.84 230.274 10.74V6.96H229.229V15H230.274ZM239.344 15V11.712C239.344 10.74 239.752 9.96 240.628 9.96C241.504 9.96 241.9 10.38 241.9 11.232V15H242.944V11.712C242.944 10.74 243.352 9.96 244.24 9.96C245.104 9.96 245.512 10.38 245.512 11.232V15H246.544V10.98C246.544 9.756 245.956 9.072 244.816 9.072C243.76 9.072 243.16 9.852 242.932 10.776C242.872 9.684 242.284 9.072 241.216 9.072C240.172 9.072 239.572 9.84 239.344 10.728V9.192H238.3V15H239.344ZM248.785 16.896C249.601 16.896 250.249 16.548 250.621 15.48L252.853 9.192H251.737L250.501 12.924L250.093 14.172L249.685 12.924L248.437 9.192H247.321L249.277 14.688L249.925 14.676L249.805 15.048C249.577 15.756 249.265 15.984 248.797 15.984C248.245 15.984 247.945 15.636 247.669 15.168L247.105 15.96C247.357 16.44 247.957 16.896 248.785 16.896ZM257.847 15V10.008H260.091V15H261.123V9.192H257.847V8.688C257.847 8.028 258.123 7.704 258.699 7.704C259.299 7.704 259.803 8.028 260.079 8.388L260.643 7.644C260.403 7.344 259.731 6.84 258.759 6.84C257.535 6.84 256.803 7.488 256.803 8.652V9.192H255.855V10.008H256.803V15H257.847ZM263.754 15V11.712C263.754 10.74 264.162 9.96 265.278 9.96C266.262 9.96 266.562 10.488 266.562 11.244V15H267.594V10.992C267.594 9.756 266.886 9.072 265.746 9.072C264.606 9.072 263.982 9.84 263.754 10.74V9.192H262.71V15H263.754ZM270.367 15.12C271.567 15.12 272.191 14.256 272.383 13.488V13.896C272.383 14.712 272.815 15 273.415 15H274.087V14.052H273.715C273.499 14.052 273.391 13.968 273.391 13.692V11.304C273.391 9.924 272.623 9.072 271.195 9.072C269.899 9.072 269.035 9.804 268.687 10.404L269.395 11.136C269.695 10.5 270.247 10.02 271.075 10.02C271.987 10.02 272.311 10.524 272.347 11.208L270.247 12.144C269.419 12.516 268.831 13.008 268.831 13.788C268.831 14.556 269.383 15.12 270.367 15.12ZM269.887 13.62C269.887 13.26 270.139 13.02 270.691 12.756L272.383 11.964V12.768C272.383 13.608 271.687 14.256 270.703 14.256C270.163 14.256 269.887 14.016 269.887 13.62ZM276.34 15V11.712C276.34 10.74 276.748 9.96 277.864 9.96C278.848 9.96 279.148 10.488 279.148 11.244V15H280.18V10.992C280.18 9.756 279.472 9.072 278.332 9.072C277.192 9.072 276.568 9.84 276.34 10.74V9.192H275.296V15H276.34ZM284.118 15.12C285.63 15.12 286.518 14.244 286.794 13.08L285.774 12.66C285.654 13.584 285.174 14.256 284.13 14.256C283.074 14.256 282.438 13.464 282.438 12.096C282.438 10.728 283.074 9.948 284.13 9.948C285.174 9.948 285.654 10.608 285.774 11.532L286.794 11.112C286.518 9.948 285.63 9.072 284.118 9.072C282.45 9.072 281.382 10.26 281.382 12.096C281.382 13.944 282.45 15.12 284.118 15.12ZM290.401 15.12C291.661 15.12 292.465 14.532 292.897 13.836L292.261 13.116C292.033 13.62 291.565 14.256 290.401 14.256C289.369 14.256 288.685 13.56 288.625 12.336H292.933C292.957 12.228 292.981 12.048 292.981 11.868C292.981 10.164 291.985 9.072 290.341 9.072C288.745 9.072 287.617 10.26 287.617 12.096C287.617 13.944 288.757 15.12 290.401 15.12ZM290.341 9.948C291.313 9.948 291.937 10.512 292.045 11.58H288.649C288.781 10.5 289.405 9.948 290.341 9.948ZM296.466 15.12C297.594 15.12 298.578 14.604 298.578 13.452C298.578 12.648 298.146 12.108 296.838 11.796L296.094 11.604C295.302 11.412 294.918 11.232 294.918 10.716C294.918 10.224 295.35 9.96 295.95 9.96C296.778 9.96 297.33 10.392 297.618 11.076L298.41 10.488C298.086 9.72 297.234 9.072 296.01 9.072C294.75 9.072 293.934 9.72 293.934 10.776C293.934 11.844 294.834 12.24 295.662 12.432L296.43 12.612C297.114 12.768 297.642 12.936 297.642 13.464C297.642 13.98 297.186 14.244 296.502 14.244C295.35 14.244 294.714 13.584 294.51 12.924L293.754 13.512C294.15 14.592 295.254 15.12 296.466 15.12ZM300.916 10.98V9.42H299.656V10.98H300.916ZM299.872 16.224C300.688 16.128 300.916 15.708 300.916 15V13.44H299.656V15H300.244V15.168C300.244 15.504 300.052 15.588 299.644 15.648L299.872 16.224ZM306.167 15V6.96H305.123V15H306.167ZM308.762 9.504L308.99 6.96H307.73L307.958 9.504H308.762ZM311.484 15V6.96H310.44V15H311.484ZM314.098 15V6.96H313.054V15H314.098ZM112.91 32V23.96H111.866V32H112.91ZM116.952 32.12C118.212 32.12 119.016 31.532 119.448 30.836L118.812 30.116C118.584 30.62 118.116 31.256 116.952 31.256C115.92 31.256 115.236 30.56 115.176 29.336H119.484C119.508 29.228 119.532 29.048 119.532 28.868C119.532 27.164 118.536 26.072 116.892 26.072C115.296 26.072 114.168 27.26 114.168 29.096C114.168 30.944 115.308 32.12 116.952 32.12ZM116.892 26.948C117.864 26.948 118.488 27.512 118.596 28.58H115.2C115.332 27.5 115.956 26.948 116.892 26.948ZM122.705 32.132C123.509 32.132 124.061 31.76 124.313 31.364L123.965 30.332C123.809 30.692 123.449 31.124 122.933 31.124C122.477 31.124 122.129 30.944 122.129 30.2V27.008H124.037V26.192H122.129V24.68L121.085 25.448V26.192H120.149V27.008H121.085V30.512C121.085 31.508 121.757 32.132 122.705 32.132ZM128.761 33.896C129.577 33.896 130.225 33.548 130.597 32.48L132.829 26.192H131.713L130.477 29.924L130.069 31.172L129.661 29.924L128.413 26.192H127.297L129.253 31.688L129.901 31.676L129.781 32.048C129.553 32.756 129.241 32.984 128.773 32.984C128.221 32.984 127.921 32.636 127.645 32.168L127.081 32.96C127.333 33.44 127.933 33.896 128.761 33.896ZM135.827 32.12C137.435 32.12 138.575 30.932 138.575 29.096C138.575 27.26 137.435 26.072 135.827 26.072C134.219 26.072 133.091 27.26 133.091 29.096C133.091 30.932 134.219 32.12 135.827 32.12ZM135.827 31.244C134.843 31.244 134.159 30.56 134.159 29.096C134.159 27.62 134.843 26.948 135.827 26.948C136.823 26.948 137.519 27.62 137.519 29.096C137.519 30.56 136.823 31.244 135.827 31.244ZM141.698 32.12C142.862 32.12 143.486 31.328 143.702 30.416V32H144.734V26.192H143.702V29.492C143.702 30.452 143.294 31.244 142.166 31.244C141.182 31.244 140.882 30.704 140.882 29.96V26.192H139.85V30.212C139.85 31.436 140.558 32.12 141.698 32.12ZM150 32V29.972L150.924 29.096L152.808 32H154.068L151.644 28.448L154.032 26.192H152.724L150.816 28.016L149.964 28.856L150 28.04V23.96H148.956V32H150ZM155.824 32V28.712C155.824 27.74 156.232 26.96 157.348 26.96C158.332 26.96 158.632 27.488 158.632 28.244V32H159.664V27.992C159.664 26.756 158.956 26.072 157.816 26.072C156.676 26.072 156.052 26.84 155.824 27.74V26.192H154.78V32H155.824ZM163.518 32.12C165.126 32.12 166.266 30.932 166.266 29.096C166.266 27.26 165.126 26.072 163.518 26.072C161.91 26.072 160.782 27.26 160.782 29.096C160.782 30.932 161.91 32.12 163.518 32.12ZM163.518 31.244C162.534 31.244 161.85 30.56 161.85 29.096C161.85 27.62 162.534 26.948 163.518 26.948C164.514 26.948 165.21 27.62 165.21 29.096C165.21 30.56 164.514 31.244 163.518 31.244ZM169.516 32L170.512 28.604L170.908 27.056L171.28 28.604L172.276 32H173.644L175.144 26.192H173.98L173.236 29.768L172.96 31.244L172.588 29.768L171.544 26.192H170.26L169.204 29.768L168.844 31.244L168.568 29.768L167.812 26.192H166.648L168.16 32H169.516ZM179.754 32V28.712C179.754 27.74 180.162 26.96 181.278 26.96C182.262 26.96 182.562 27.488 182.562 28.244V32H183.594V27.992C183.594 26.756 182.886 26.072 181.746 26.072C180.606 26.072 179.982 26.84 179.754 27.74V23.96H178.71V32H179.754ZM187.448 32.12C189.056 32.12 190.196 30.932 190.196 29.096C190.196 27.26 189.056 26.072 187.448 26.072C185.84 26.072 184.712 27.26 184.712 29.096C184.712 30.932 185.84 32.12 187.448 32.12ZM187.448 31.244C186.464 31.244 185.78 30.56 185.78 29.096C185.78 27.62 186.464 26.948 187.448 26.948C188.444 26.948 189.14 27.62 189.14 29.096C189.14 30.56 188.444 31.244 187.448 31.244ZM193.445 32L194.441 28.604L194.837 27.056L195.209 28.604L196.205 32H197.573L199.073 26.192H197.909L197.165 29.768L196.889 31.244L196.517 29.768L195.473 26.192H194.189L193.133 29.768L192.773 31.244L192.497 29.768L191.741 26.192H190.577L192.089 32H193.445ZM203.684 25.256V23.96H202.64V25.256H203.684ZM203.684 32V26.192H202.64V32H203.684ZM207.197 32.132C208.001 32.132 208.553 31.76 208.805 31.364L208.457 30.332C208.301 30.692 207.941 31.124 207.425 31.124C206.969 31.124 206.621 30.944 206.621 30.2V27.008H208.529V26.192H206.621V24.68L205.577 25.448V26.192H204.641V27.008H205.577V30.512C205.577 31.508 206.249 32.132 207.197 32.132ZM214.658 30.224C216.026 30.224 216.95 29.36 216.95 28.148C216.95 27.428 216.614 26.816 216.062 26.456L217.13 25.256L216.05 24.872L215.69 26.264C215.39 26.144 215.042 26.072 214.658 26.072C213.29 26.072 212.366 26.936 212.366 28.148C212.366 28.88 212.702 29.492 213.278 29.852C212.714 30.308 212.366 30.812 212.366 31.268C212.366 31.652 212.558 31.928 212.93 32.048C212.486 32.228 211.994 32.552 211.994 33.092C211.994 33.86 212.93 34.352 214.418 34.352C216.374 34.352 217.454 33.572 217.454 32.468C217.454 31.592 216.794 31.172 215.738 31.172H213.986C213.386 31.172 213.218 31.016 213.218 30.704C213.218 30.452 213.386 30.176 213.53 29.984C213.854 30.14 214.238 30.224 214.658 30.224ZM214.658 29.42C213.938 29.42 213.374 28.94 213.374 28.148C213.374 27.356 213.938 26.876 214.658 26.876C215.39 26.876 215.942 27.356 215.942 28.148C215.942 28.94 215.39 29.42 214.658 29.42ZM214.418 33.524C213.374 33.524 212.834 33.236 212.834 32.768C212.834 32.492 213.038 32.24 213.23 32.072H215.606C216.194 32.072 216.482 32.24 216.482 32.612C216.482 33.188 215.738 33.524 214.418 33.524ZM220.683 32.12C222.291 32.12 223.431 30.932 223.431 29.096C223.431 27.26 222.291 26.072 220.683 26.072C219.075 26.072 217.947 27.26 217.947 29.096C217.947 30.932 219.075 32.12 220.683 32.12ZM220.683 31.244C219.699 31.244 219.015 30.56 219.015 29.096C219.015 27.62 219.699 26.948 220.683 26.948C221.679 26.948 222.375 27.62 222.375 29.096C222.375 30.56 221.679 31.244 220.683 31.244ZM227.33 32.12C228.59 32.12 229.394 31.532 229.826 30.836L229.19 30.116C228.962 30.62 228.494 31.256 227.33 31.256C226.298 31.256 225.614 30.56 225.554 29.336H229.862C229.886 29.228 229.91 29.048 229.91 28.868C229.91 27.164 228.914 26.072 227.27 26.072C225.674 26.072 224.546 27.26 224.546 29.096C224.546 30.944 225.686 32.12 227.33 32.12ZM227.27 26.948C228.242 26.948 228.866 27.512 228.974 28.58H225.578C225.71 27.5 226.334 26.948 227.27 26.948ZM233.396 32.12C234.524 32.12 235.508 31.604 235.508 30.452C235.508 29.648 235.076 29.108 233.768 28.796L233.024 28.604C232.232 28.412 231.848 28.232 231.848 27.716C231.848 27.224 232.28 26.96 232.88 26.96C233.708 26.96 234.26 27.392 234.548 28.076L235.34 27.488C235.016 26.72 234.164 26.072 232.94 26.072C231.68 26.072 230.864 26.72 230.864 27.776C230.864 28.844 231.764 29.24 232.592 29.432L233.36 29.612C234.044 29.768 234.572 29.936 234.572 30.464C234.572 30.98 234.116 31.244 233.432 31.244C232.28 31.244 231.644 30.584 231.44 29.924L230.684 30.512C231.08 31.592 232.184 32.12 233.396 32.12Z" fill="white"/>
</svg>
