<svg width="553" height="336" viewBox="0 0 553 336" fill="none" xmlns="http://www.w3.org/2000/svg">
<path d="M276.949 80.2164L275.465 79.0501C282.144 70.5686 289.162 62.596 296.329 55.1323L297.665 56.447C290.541 63.8471 283.565 71.8621 276.949 80.2164Z" fill="#EAB308"/>
<path d="M269.03 87.1813L262.191 95.8032L263.653 96.9628L270.492 88.3408L269.03 87.1813Z" fill="#EAB308"/>
<path d="M416.151 178.58C462.227 104.516 468.503 31.5325 434.959 7.91153C401.415 -15.7094 334.814 14.7815 280.596 83.1212L125.66 278.556L284.519 390.427L416.151 178.58Z" fill="#EAB308"/>
<path opacity="0.1" d="M398.024 165.816L263.168 375.457L246.672 343.927L380.616 152.67C418.486 98.5788 439.711 49.1529 439.796 21.6304C439.791 21.0983 439.976 20.582 440.317 20.1733C440.657 19.7645 441.132 19.4899 441.656 19.3983C442.18 19.3067 442.72 19.4041 443.179 19.673C443.638 19.942 443.987 20.3651 444.163 20.8671C453.705 48.3259 437.166 104.982 398.024 165.816Z" fill="white"/>
<path d="M284.425 390.377C305.871 359.919 287.69 310.185 243.817 279.294C199.944 248.402 146.993 248.051 125.547 278.509C104.1 308.967 122.281 358.701 166.154 389.593C210.027 420.484 262.978 420.836 284.425 390.377Z" fill="#EAB308"/>
<path opacity="0.5" d="M284.425 390.377C305.871 359.919 287.69 310.185 243.817 279.294C199.944 248.402 146.993 248.051 125.547 278.509C104.1 308.967 122.281 358.701 166.154 389.593C210.027 420.484 262.978 420.836 284.425 390.377Z" fill="white"/>
<path opacity="0.1" d="M267.94 244.779C233.081 220.225 193.536 213.206 168.282 224.677L128.949 274.252C152.273 248.214 202.123 249.995 243.81 279.341C285.496 308.687 304.007 355.102 287.299 385.783L320.313 332.774C323.154 304.934 303.18 269.587 267.94 244.779Z" fill="black"/>
<path opacity="0.2" d="M323.769 84.9448C314.1 100.254 306.806 128.9 335.537 149.107C364.268 169.315 388.779 152.839 399.911 138.506L323.769 84.9448Z" fill="black"/>
<path d="M406.697 120.864C403.41 148.217 371.796 168.17 338.612 144.803C305.428 121.437 313.549 84.945 338.188 72.7104C353.37 65.1195 372.707 68.4697 385.939 77.6721C399.17 86.8746 408.733 103.901 406.697 120.864Z" fill="white"/>
<path d="M343.128 138.336C330.215 129.261 323.599 117.387 324.532 104.961C324.956 99.5985 326.76 94.4367 329.77 89.978C332.78 85.5192 336.892 81.9153 341.707 79.5167C353.242 73.7493 369.569 75.5516 381.422 83.8847C393.275 92.2178 400.505 107.018 398.915 119.825C398.284 125.152 396.287 130.226 393.118 134.554C389.949 138.882 385.716 142.317 380.828 144.527C369.505 149.659 356.041 147.432 343.128 138.336Z" fill="#EAB308"/>
<path opacity="0.3" d="M343.128 138.336C330.215 129.261 323.599 117.387 324.532 104.961C324.956 99.5985 326.76 94.4367 329.77 89.978C332.78 85.5192 336.892 81.9153 341.707 79.5167C353.242 73.7493 369.569 75.5516 381.422 83.8847C393.275 92.2178 400.505 107.018 398.915 119.825C398.284 125.152 396.287 130.226 393.118 134.554C389.949 138.882 385.716 142.317 380.828 144.527C369.505 149.659 356.041 147.432 343.128 138.336Z" fill="black"/>
<path d="M343.131 138.336C330.218 129.261 323.369 117.726 323.878 105.894C324.098 100.864 325.704 95.9923 328.517 91.8166C331.331 87.641 335.244 84.3238 339.823 82.2309C350.913 77.0996 366.922 79.3472 378.774 87.7015C390.627 96.0558 398.134 110.368 397.031 122.539C396.603 127.564 394.792 132.371 391.797 136.429C388.803 140.486 384.743 143.634 380.068 145.524C369.19 149.998 356.044 147.432 343.131 138.336Z" fill="#EAB308"/>
<path opacity="0.2" d="M343.131 138.336C330.218 129.261 323.369 117.726 323.878 105.894C324.098 100.864 325.704 95.9923 328.517 91.8166C331.331 87.641 335.244 84.3238 339.823 82.2309C350.913 77.0996 366.922 79.3472 378.774 87.7015C390.627 96.0558 398.134 110.368 397.031 122.539C396.603 127.564 394.792 132.371 391.797 136.429C388.803 140.486 384.743 143.634 380.068 145.524C369.19 149.998 356.044 147.432 343.131 138.336Z" fill="white"/>
<path opacity="0.3" d="M387.762 96.0768L328.074 122.412C325.113 117.423 323.642 111.692 323.833 105.894C323.946 103.163 324.482 100.467 325.423 97.9004L363.95 80.9374C373.301 83.3072 381.638 88.6317 387.72 96.1193L387.762 96.0768Z" fill="white"/>
<path opacity="0.3" d="M396.327 113.061L341.557 137.191C338.264 134.775 335.261 131.986 332.609 128.879L392.192 102.586C394.054 105.867 395.446 109.393 396.327 113.061Z" fill="white"/>
<path opacity="0.1" d="M456.034 65.8403C454.211 51.2097 442.973 34.2891 425.204 21.7789C407.435 9.26869 387.737 4.39184 373.34 7.59361C397.83 -2.39336 419.776 -2.77502 434.958 7.91167C450.14 18.5984 457.179 39.4204 456.034 65.8403Z" fill="black"/>
<path opacity="0.5" d="M243.787 330.736C250.468 321.247 245.056 305.93 231.699 296.525C218.342 287.12 202.097 287.188 195.416 296.677C188.735 306.166 194.147 321.482 207.504 330.887C220.861 340.293 237.105 340.225 243.787 330.736Z" fill="#EAB308"/>
<path opacity="0.5" d="M180.794 321.833C174.115 331.311 157.873 331.396 144.514 321.982C131.156 312.567 125.728 297.258 132.407 287.78C139.086 278.302 155.349 278.217 168.708 287.631C182.066 297.046 187.388 312.355 180.794 321.833Z" fill="#EAB308"/>
<path opacity="0.5" d="M210.476 378.235C203.797 387.713 187.555 387.777 174.197 378.384C160.838 368.99 155.431 353.66 162.11 344.161C168.79 334.661 185.032 334.619 198.39 344.012C211.748 353.406 217.071 368.736 210.476 378.235Z" fill="#EAB308"/>
<path opacity="0.5" d="M243.808 330.781C243.101 331.783 242.275 332.694 241.348 333.495C245.059 324.038 239.461 310.913 227.523 302.517C215.585 294.12 201.358 293.272 193.703 299.93C194.153 298.801 194.729 297.727 195.421 296.728C202.1 287.25 218.363 287.165 231.721 296.579C245.08 305.994 250.466 321.282 243.808 330.781Z" fill="#EAB308"/>
<path opacity="0.5" d="M180.794 321.833C180.09 322.83 179.272 323.741 178.356 324.547C182.066 315.069 176.49 301.965 164.531 293.548C152.572 285.13 138.365 284.303 130.711 290.982C131.156 289.851 131.733 288.776 132.428 287.78C139.108 278.281 155.35 278.217 168.708 287.632C182.066 297.046 187.389 312.334 180.794 321.833Z" fill="#EAB308"/>
<path opacity="0.5" d="M210.476 378.235C209.783 379.235 208.964 380.14 208.037 380.928C211.748 371.471 206.15 358.346 194.213 349.949C182.275 341.553 168.047 340.704 160.393 347.384C160.829 346.242 161.406 345.16 162.11 344.161C168.789 334.661 185.031 334.619 198.39 344.012C211.748 353.406 217.07 368.736 210.476 378.235Z" fill="#EAB308"/>
<path d="M230.789 155.278C230.789 155.278 202.164 192.427 177.228 224.402C173.687 228.86 169.048 232.32 163.765 234.442C158.483 236.565 152.739 237.277 147.098 236.509C125.322 233.816 89.8477 249.231 89.8477 249.231C89.8477 249.231 156.958 138.993 230.789 155.278Z" fill="#EAB308"/>
<path opacity="0.3" d="M230.789 155.278C230.789 155.278 202.164 192.427 177.228 224.402C173.687 228.86 169.048 232.32 163.765 234.442C158.483 236.565 152.739 237.277 147.098 236.509C125.322 233.816 89.8477 249.231 89.8477 249.231C89.8477 249.231 156.958 138.993 230.789 155.278Z" fill="black"/>
<path d="M365.026 249.825C365.026 249.825 339.814 289.285 317.996 323.53C314.994 328.366 313.302 333.9 313.086 339.588C312.87 345.276 314.139 350.922 316.766 355.971C326.647 375.585 324.06 414.26 324.06 414.26C324.06 414.26 405.249 313.818 365.026 249.825Z" fill="#EAB308"/>
<path opacity="0.3" d="M365.026 249.825C365.026 249.825 339.814 289.285 317.996 323.53C314.994 328.366 313.302 333.9 313.086 339.588C312.87 345.276 314.139 350.922 316.766 355.971C326.647 375.585 324.06 414.26 324.06 414.26C324.06 414.26 405.249 313.818 365.026 249.825Z" fill="black"/>
<path d="M156.513 307.648C151.763 291.151 126.064 311.889 100.747 337.015C75.4296 362.142 62.9406 419.498 38.4503 449.395C13.9599 479.292 -56.1608 506.306 -28.7444 551.3C11.6912 617.604 -81.2448 681.216 28.8238 681.216H254.58C295.864 681.216 340.625 630.729 276.335 596.401C212.045 562.072 115.738 642.116 89.7421 565.761C76.8503 527.87 123.668 545.257 101.977 483.215C80.2853 421.173 81.7271 404.273 92.7743 376.624C119.661 309.238 163.828 332.711 156.513 307.648Z" fill="#EAB308"/>
<path opacity="0.6" d="M156.513 307.648C151.763 291.151 126.064 311.889 100.747 337.015C75.4296 362.142 62.9406 419.498 38.4503 449.395C13.9599 479.292 -56.1608 506.306 -28.7444 551.3C11.6912 617.604 -81.2448 681.216 28.8238 681.216H254.58C295.864 681.216 340.625 630.729 276.335 596.401C212.045 562.072 115.738 642.116 89.7421 565.761C76.8503 527.87 123.668 545.257 101.977 483.215C80.2853 421.173 81.7271 404.273 92.7743 376.624C119.661 309.238 163.828 332.711 156.513 307.648Z" fill="white"/>
<path d="M203.308 315.26C208.906 305.04 228.116 311.168 227.692 324.547C227.268 337.927 177.524 355.462 186.769 401.665C196.014 447.868 284.815 451.176 305.658 497.464C326.502 543.752 245.758 550.24 269.845 579.183C293.933 608.126 368.273 541.652 421.24 558.743C474.207 575.833 527.131 681.152 429.976 681.152H130.6C65.5047 681.152 17.9659 546.741 80.517 491.442C143.068 436.143 92.6031 454.102 115.948 418.671C139.294 383.239 181.828 354.444 203.308 315.26Z" fill="#EAB308"/>
<path opacity="0.8" d="M203.308 315.26C208.906 305.04 228.116 311.168 227.692 324.547C227.268 337.927 177.524 355.462 186.769 401.665C196.014 447.868 284.815 451.176 305.658 497.464C326.502 543.752 245.758 550.24 269.845 579.183C293.933 608.126 368.273 541.652 421.24 558.743C474.207 575.833 527.131 681.152 429.976 681.152H130.6C65.5047 681.152 17.9659 546.741 80.517 491.442C143.068 436.143 92.6031 454.102 115.948 418.671C139.294 383.239 181.828 354.444 203.308 315.26Z" fill="white"/>
</svg>
