<svg width="198" height="57" viewBox="0 0 198 57" fill="none" xmlns="http://www.w3.org/2000/svg">
<rect x="69" width="129" height="57" fill="#EAB308"/>
<path d="M13.45 41.05C14.55 41.05 15.45 40.9667 16.15 40.8C16.8833 40.6 17.4667 40.35 17.9 40.05C18.3333 39.7167 18.6333 39.3333 18.8 38.9C18.9667 38.4667 19.05 37.9833 19.05 37.45C19.05 36.3167 18.5167 35.3833 17.45 34.65C16.3833 33.8833 14.55 33.0667 11.95 32.2C10.8167 31.8 9.68333 31.35 8.55 30.85C7.41667 30.3167 6.4 29.6667 5.5 28.9C4.6 28.1 3.86667 27.15 3.3 26.05C2.73333 24.9167 2.45 23.55 2.45 21.95C2.45 20.35 2.75 18.9167 3.35 17.65C3.95 16.35 4.8 15.25 5.9 14.35C7 13.45 8.33333 12.7667 9.9 12.3C11.4667 11.8 13.2333 11.55 15.2 11.55C17.5333 11.55 19.55 11.8 21.25 12.3C22.95 12.8 24.35 13.35 25.45 13.95L23.2 20.1C22.2333 19.6 21.15 19.1667 19.95 18.8C18.7833 18.4 17.3667 18.2 15.7 18.2C13.8333 18.2 12.4833 18.4667 11.65 19C10.85 19.5 10.45 20.2833 10.45 21.35C10.45 21.9833 10.6 22.5167 10.9 22.95C11.2 23.3833 11.6167 23.7833 12.15 24.15C12.7167 24.4833 13.35 24.8 14.05 25.1C14.7833 25.3667 15.5833 25.65 16.45 25.95C18.25 26.6167 19.8167 27.2833 21.15 27.95C22.4833 28.5833 23.5833 29.3333 24.45 30.2C25.35 31.0667 26.0167 32.0833 26.45 33.25C26.8833 34.4167 27.1 35.8333 27.1 37.5C27.1 40.7333 25.9667 43.25 23.7 45.05C21.4333 46.8167 18.0167 47.7 13.45 47.7C11.9167 47.7 10.5333 47.6 9.3 47.4C8.06667 47.2333 6.96667 47.0167 6 46.75C5.06667 46.4833 4.25 46.2 3.55 45.9C2.88333 45.6 2.31667 45.3167 1.85 45.05L4.05 38.85C5.08333 39.4167 6.35 39.9333 7.85 40.4C9.38333 40.8333 11.25 41.05 13.45 41.05ZM43.2375 41.8C43.9708 41.8 44.6708 41.7833 45.3375 41.75C46.0042 41.7167 46.5375 41.6667 46.9375 41.6V35.95C46.6375 35.8833 46.1875 35.8167 45.5875 35.75C44.9875 35.6833 44.4375 35.65 43.9375 35.65C43.2375 35.65 42.5708 35.7 41.9375 35.8C41.3375 35.8667 40.8042 36.0167 40.3375 36.25C39.8708 36.4833 39.5042 36.8 39.2375 37.2C38.9708 37.6 38.8375 38.1 38.8375 38.7C38.8375 39.8667 39.2208 40.6833 39.9875 41.15C40.7875 41.5833 41.8708 41.8 43.2375 41.8ZM42.6375 20C44.8375 20 46.6708 20.25 48.1375 20.75C49.6042 21.25 50.7708 21.9667 51.6375 22.9C52.5375 23.8333 53.1708 24.9667 53.5375 26.3C53.9042 27.6333 54.0875 29.1167 54.0875 30.75V46.25C53.0208 46.4833 51.5375 46.75 49.6375 47.05C47.7375 47.3833 45.4375 47.55 42.7375 47.55C41.0375 47.55 39.4875 47.4 38.0875 47.1C36.7208 46.8 35.5375 46.3167 34.5375 45.65C33.5375 44.95 32.7708 44.05 32.2375 42.95C31.7042 41.85 31.4375 40.5 31.4375 38.9C31.4375 37.3667 31.7375 36.0667 32.3375 35C32.9708 33.9333 33.8042 33.0833 34.8375 32.45C35.8708 31.8167 37.0542 31.3667 38.3875 31.1C39.7208 30.8 41.1042 30.65 42.5375 30.65C43.5042 30.65 44.3542 30.7 45.0875 30.8C45.8542 30.8667 46.4708 30.9667 46.9375 31.1V30.4C46.9375 29.1333 46.5542 28.1167 45.7875 27.35C45.0208 26.5833 43.6875 26.2 41.7875 26.2C40.5208 26.2 39.2708 26.3 38.0375 26.5C36.8042 26.6667 35.7375 26.9167 34.8375 27.25L33.8875 21.25C34.3208 21.1167 34.8542 20.9833 35.4875 20.85C36.1542 20.6833 36.8708 20.55 37.6375 20.45C38.4042 20.3167 39.2042 20.2167 40.0375 20.15C40.9042 20.05 41.7708 20 42.6375 20ZM67.3395 47C65.6395 43.6667 63.9061 39.7667 62.1395 35.3C60.4061 30.8333 58.7561 25.9667 57.1895 20.7H65.0895C65.4228 22 65.8061 23.4167 66.2395 24.95C66.7061 26.45 67.1728 27.9833 67.6395 29.55C68.1395 31.0833 68.6228 32.5833 69.0895 34.05C69.5895 35.5167 70.0728 36.85 70.5395 38.05C70.9728 36.85 71.4395 35.5167 71.9395 34.05C72.4395 32.5833 72.9228 31.0833 73.3895 29.55C73.8895 27.9833 74.3561 26.45 74.7895 24.95C75.2561 23.4167 75.6561 22 75.9895 20.7H83.6895C82.1228 25.9667 80.4561 30.8333 78.6895 35.3C76.9561 39.7667 75.2395 43.6667 73.5395 47H67.3395ZM95.1297 47H87.6797V20.7H95.1297V47ZM95.8297 13.1C95.8297 14.4667 95.3797 15.55 94.4797 16.35C93.613 17.1167 92.5797 17.5 91.3797 17.5C90.1797 17.5 89.1297 17.1167 88.2297 16.35C87.363 15.55 86.9297 14.4667 86.9297 13.1C86.9297 11.7333 87.363 10.6667 88.2297 9.9C89.1297 9.1 90.1797 8.7 91.3797 8.7C92.5797 8.7 93.613 9.1 94.4797 9.9C95.3797 10.6667 95.8297 11.7333 95.8297 13.1ZM102.133 21.6C103.399 21.2333 105.033 20.9 107.033 20.6C109.033 20.2667 111.133 20.1 113.333 20.1C115.566 20.1 117.416 20.4 118.883 21C120.383 21.5667 121.566 22.3833 122.433 23.45C123.299 24.5167 123.916 25.7833 124.283 27.25C124.649 28.7167 124.833 30.35 124.833 32.15V47H117.383V33.05C117.383 30.65 117.066 28.95 116.433 27.95C115.799 26.95 114.616 26.45 112.883 26.45C112.349 26.45 111.783 26.4833 111.183 26.55C110.583 26.5833 110.049 26.6333 109.583 26.7V47H102.133V21.6ZM137.926 33C137.926 37.1667 139.61 39.25 142.976 39.25C143.743 39.25 144.46 39.15 145.126 38.95C145.793 38.75 146.36 38.5167 146.826 38.25V26.35C146.46 26.2833 146.026 26.2333 145.526 26.2C145.026 26.1333 144.443 26.1 143.776 26.1C141.81 26.1 140.343 26.75 139.376 28.05C138.41 29.35 137.926 31 137.926 33ZM154.276 43.7C154.276 48 153.176 51.1833 150.976 53.25C148.81 55.35 145.443 56.4 140.876 56.4C139.276 56.4 137.676 56.25 136.076 55.95C134.476 55.6833 132.993 55.3167 131.626 54.85L132.926 48.6C134.093 49.0667 135.31 49.4333 136.576 49.7C137.876 49.9667 139.343 50.1 140.976 50.1C143.11 50.1 144.61 49.6333 145.476 48.7C146.376 47.7667 146.826 46.5667 146.826 45.1V44.15C146.026 44.5167 145.193 44.8 144.326 45C143.493 45.1667 142.576 45.25 141.576 45.25C137.943 45.25 135.16 44.1833 133.226 42.05C131.293 39.8833 130.326 36.8667 130.326 33C130.326 31.0667 130.626 29.3167 131.226 27.75C131.826 26.15 132.693 24.7833 133.826 23.65C134.993 22.5167 136.41 21.65 138.076 21.05C139.743 20.4167 141.626 20.1 143.726 20.1C144.626 20.1 145.543 20.15 146.476 20.25C147.443 20.3167 148.393 20.4167 149.326 20.55C150.26 20.6833 151.143 20.85 151.976 21.05C152.843 21.2167 153.61 21.4 154.276 21.6V43.7Z" fill="white"/>
</svg>
