<svg width="1437" height="606" viewBox="0 0 1437 606" fill="none" xmlns="http://www.w3.org/2000/svg">
<g clip-path="url(#clip0_4808_83469)">
<rect width="1450" height="606" fill="#F5F5F5"/>
<g opacity="0.2">
<path fill-rule="evenodd" clip-rule="evenodd" d="M143.184 411.8C145.494 425.256 158.275 434.292 171.731 431.982C185.187 429.672 194.223 416.891 191.913 403.435C189.603 389.979 176.822 380.943 163.366 383.253C149.91 385.563 140.874 398.344 143.184 411.8ZM154.3 409.482C155.511 416.541 162.216 421.281 169.275 420.069C176.334 418.857 181.074 412.152 179.862 405.094C178.65 398.035 171.946 393.295 164.887 394.506C157.828 395.718 153.088 402.423 154.3 409.482Z" fill="#9CA3AF"/>
<path fill-rule="evenodd" clip-rule="evenodd" d="M198.28 424.708C199.279 430.527 204.806 434.434 210.624 433.435C216.443 432.436 220.351 426.909 219.352 421.091C218.353 415.272 212.826 411.364 207.007 412.363C201.188 413.362 197.281 418.889 198.28 424.708ZM203.086 423.704C203.61 426.756 206.51 428.806 209.562 428.282C212.615 427.758 214.664 424.859 214.14 421.806C213.616 418.754 210.717 416.704 207.664 417.228C204.612 417.752 202.562 420.651 203.086 423.704Z" fill="#9CA3AF"/>
</g>
<g opacity="0.2">
<path fill-rule="evenodd" clip-rule="evenodd" d="M1185.49 225.958C1195.7 225.958 1203.97 217.682 1203.97 207.472C1203.97 197.263 1195.7 188.986 1185.49 188.986C1175.28 188.986 1167 197.263 1167 207.472C1167 217.682 1175.28 225.958 1185.49 225.958ZM1185.18 217.473C1190.54 217.473 1194.88 213.132 1194.88 207.776C1194.88 202.42 1190.54 198.078 1185.18 198.078C1179.83 198.078 1175.48 202.42 1175.48 207.776C1175.48 213.132 1179.83 217.473 1185.18 217.473Z" fill="#9CA3AF"/>
<path fill-rule="evenodd" clip-rule="evenodd" d="M1201.97 186.988C1206.39 186.988 1209.96 183.409 1209.96 178.994C1209.96 174.579 1206.39 171 1201.97 171C1197.56 171 1193.98 174.579 1193.98 178.994C1193.98 183.409 1197.56 186.988 1201.97 186.988ZM1201.84 183.319C1204.15 183.319 1206.03 181.441 1206.03 179.125C1206.03 176.809 1204.15 174.932 1201.84 174.932C1199.52 174.932 1197.64 176.809 1197.64 179.125C1197.64 181.441 1199.52 183.319 1201.84 183.319Z" fill="#9CA3AF"/>
</g>
<g opacity="0.2">
<path d="M556.811 537L566.174 553.217H547.448L556.811 537Z" fill="#9CA3AF"/>
<path d="M571.871 554.399L590.462 552.157L583.108 569.378L571.871 554.399Z" fill="#9CA3AF"/>
</g>
<g opacity="0.2">
<path d="M1090.81 479L1100.17 495.217H1081.45L1090.81 479Z" fill="#9CA3AF"/>
<path d="M1105.87 496.399L1124.46 494.157L1117.11 511.378L1105.87 496.399Z" fill="#9CA3AF"/>
</g>
</g>
<defs>
<clipPath id="clip0_4808_83469">
<rect width="1437" height="606" fill="white"/>
</clipPath>
</defs>
</svg>
