<svg width="1440" height="915" viewBox="0 0 1440 915" fill="none" xmlns="http://www.w3.org/2000/svg">
<rect width="1450" height="915" fill="#F5F5F5"/>
<g opacity="0.2">
<path fill-rule="evenodd" clip-rule="evenodd" d="M185.919 333.361C188.019 345.59 199.633 353.801 211.861 351.701C224.089 349.602 232.301 337.988 230.201 325.76C228.102 313.531 216.488 305.32 204.259 307.419C192.031 309.519 183.82 321.133 185.919 333.361ZM196.02 331.255C197.121 337.67 203.214 341.977 209.629 340.876C216.043 339.775 220.351 333.682 219.25 327.267C218.148 320.852 212.055 316.545 205.641 317.646C199.226 318.747 194.918 324.84 196.02 331.255Z" fill="#9CA3AF"/>
<path fill-rule="evenodd" clip-rule="evenodd" d="M235.981 345.092C236.889 350.38 241.911 353.931 247.199 353.023C252.487 352.115 256.038 347.093 255.13 341.805C254.222 336.517 249.2 332.966 243.912 333.874C238.624 334.782 235.073 339.804 235.981 345.092ZM240.35 344.18C240.826 346.954 243.461 348.816 246.235 348.34C249.009 347.864 250.872 345.229 250.395 342.455C249.919 339.681 247.284 337.819 244.511 338.295C241.737 338.771 239.874 341.406 240.35 344.18Z" fill="#9CA3AF"/>
</g>
<g opacity="0.2">
<path fill-rule="evenodd" clip-rule="evenodd" d="M1215.49 234.959C1225.7 234.959 1233.97 226.682 1233.97 216.473C1233.97 206.263 1225.7 197.987 1215.49 197.987C1205.28 197.987 1197 206.263 1197 216.473C1197 226.682 1205.28 234.959 1215.49 234.959ZM1215.18 226.473C1220.54 226.473 1224.88 222.131 1224.88 216.775C1224.88 211.42 1220.54 207.078 1215.18 207.078C1209.83 207.078 1205.49 211.42 1205.49 216.775C1205.49 222.131 1209.83 226.473 1215.18 226.473Z" fill="#9CA3AF"/>
<path fill-rule="evenodd" clip-rule="evenodd" d="M1231.97 195.988C1236.39 195.988 1239.96 192.409 1239.96 187.994C1239.96 183.579 1236.39 180 1231.97 180C1227.56 180 1223.98 183.579 1223.98 187.994C1223.98 192.409 1227.56 195.988 1231.97 195.988ZM1231.84 192.319C1234.15 192.319 1236.03 190.441 1236.03 188.125C1236.03 185.809 1234.15 183.931 1231.84 183.931C1229.52 183.931 1227.64 185.809 1227.64 188.125C1227.64 190.441 1229.52 192.319 1231.84 192.319Z" fill="#9CA3AF"/>
</g>
<g opacity="0.2">
<path d="M293.811 137L303.174 153.217H284.448L293.811 137Z" fill="#9CA3AF"/>
<path d="M390.246 95.9427L408.837 93.7008L401.483 110.922L390.246 95.9427Z" fill="#9CA3AF"/>
</g>
<g opacity="0.2">
<path d="M1160.87 298.399L1179.46 296.157L1172.11 313.378L1160.87 298.399Z" fill="#9CA3AF"/>
</g>
</svg>
