<svg width="150" height="23" viewBox="0 0 150 23" fill="none" xmlns="http://www.w3.org/2000/svg">
<path d="M9.98843 17.8203C9.83527 17.3718 9.67664 16.9287 9.51254 16.4911C9.34844 16.0535 9.18981 15.6049 9.03664 15.1455H4.24488C4.09172 15.6049 3.93309 16.059 3.76899 16.5075C3.61583 16.9451 3.46267 17.3827 3.3095 17.8203H1.15978C1.58644 16.606 1.99122 15.4846 2.37413 14.4562C2.75703 13.4279 3.12899 12.4542 3.49002 11.5352C3.86198 10.6163 4.22847 9.74105 4.5895 8.9096C4.95052 8.07816 5.32248 7.25765 5.70539 6.44808H7.65819C8.0411 7.25765 8.41306 8.07816 8.77408 8.9096C9.13511 9.74105 9.49613 10.6163 9.85715 11.5352C10.2291 12.4542 10.6065 13.4279 10.9895 14.4562C11.3833 15.4846 11.7935 16.606 12.2202 17.8203H9.98843ZM6.64076 8.64704C6.38914 9.22687 6.09923 9.9325 5.77103 10.764C5.45376 11.5954 5.12009 12.498 4.77001 13.4716H8.51152C8.16144 12.498 7.82229 11.5899 7.49409 10.7475C7.16589 9.90515 6.88145 9.20499 6.64076 8.64704ZM15.4697 17.8203C14.9227 16.6935 14.3593 15.4026 13.7794 13.9475C13.2105 12.4815 12.6909 10.9116 12.2205 9.23781H14.3374C14.4577 9.71917 14.5945 10.2388 14.7476 10.7968C14.9117 11.3438 15.0813 11.8962 15.2563 12.4542C15.4423 13.0012 15.6283 13.5373 15.8143 14.0624C16.0112 14.5766 16.1917 15.0415 16.3558 15.4573C16.5199 15.0415 16.695 14.5766 16.881 14.0624C17.0669 13.5373 17.2474 13.0012 17.4225 12.4542C17.6085 11.8962 17.7835 11.3438 17.9476 10.7968C18.1117 10.2388 18.2539 9.71917 18.3743 9.23781H20.4255C19.9551 10.9116 19.43 12.4815 18.8502 13.9475C18.2813 15.4026 17.7233 16.6935 17.1763 17.8203H15.4697ZM24.9279 16.4255C25.5406 16.4255 26.0055 16.3926 26.3228 16.327V14.128C26.2134 14.0952 26.0548 14.0624 25.8469 14.0296C25.6391 13.9967 25.4093 13.9803 25.1577 13.9803C24.9389 13.9803 24.7146 13.9967 24.4849 14.0296C24.2661 14.0624 24.0637 14.1226 23.8777 14.2101C23.7027 14.2976 23.5604 14.4234 23.451 14.5875C23.3416 14.7407 23.2869 14.9376 23.2869 15.1783C23.2869 15.6487 23.4346 15.9769 23.73 16.1629C24.0254 16.3379 24.4247 16.4255 24.9279 16.4255ZM24.7638 9.02447C25.4203 9.02447 25.9727 9.10653 26.4213 9.27063C26.8698 9.43473 27.2254 9.66447 27.4879 9.95985C27.7614 10.2552 27.9529 10.6163 28.0623 11.0429C28.1826 11.4586 28.2428 11.9181 28.2428 12.4214V17.6234C27.9365 17.689 27.4715 17.7656 26.8479 17.8531C26.2353 17.9516 25.5406 18.0008 24.7638 18.0008C24.2497 18.0008 23.7792 17.9516 23.3526 17.8531C22.9259 17.7547 22.5594 17.596 22.2531 17.3772C21.9577 17.1584 21.7225 16.874 21.5475 16.5239C21.3834 16.1738 21.3013 15.7417 21.3013 15.2275C21.3013 14.7352 21.3943 14.3195 21.5803 13.9803C21.7772 13.6412 22.0398 13.3677 22.368 13.1598C22.6962 12.941 23.0736 12.7879 23.5003 12.7003C23.9379 12.6019 24.3919 12.5527 24.8623 12.5527C25.0811 12.5527 25.3109 12.5691 25.5515 12.6019C25.7922 12.6238 26.0493 12.6675 26.3228 12.7332V12.405C26.3228 12.1752 26.2955 11.9564 26.2408 11.7486C26.1861 11.5407 26.0876 11.3602 25.9454 11.207C25.8141 11.0429 25.6336 10.9171 25.4038 10.8296C25.185 10.7421 24.9061 10.6983 24.5669 10.6983C24.1074 10.6983 23.6862 10.7311 23.3033 10.7968C22.9204 10.8624 22.6086 10.939 22.368 11.0265L22.1218 9.41832C22.3734 9.3308 22.7399 9.24328 23.2213 9.15576C23.7027 9.06824 24.2168 9.02447 24.7638 9.02447ZM32.6765 17.8203H30.6909V9.23781H32.6765V17.8203ZM32.8898 6.72705C32.8898 7.09902 32.7695 7.3944 32.5288 7.6132C32.2881 7.832 32.0037 7.9414 31.6755 7.9414C31.3363 7.9414 31.0464 7.832 30.8057 7.6132C30.565 7.3944 30.4447 7.09902 30.4447 6.72705C30.4447 6.34415 30.565 6.0433 30.8057 5.8245C31.0464 5.60569 31.3363 5.49629 31.6755 5.49629C32.0037 5.49629 32.2881 5.60569 32.5288 5.8245C32.7695 6.0433 32.8898 6.34415 32.8898 6.72705ZM38.1963 17.9844C37.6056 17.9735 37.1132 17.9078 36.7194 17.7875C36.3365 17.6672 36.0302 17.4976 35.8004 17.2788C35.5707 17.049 35.4066 16.7701 35.3081 16.4419C35.2206 16.1027 35.1769 15.7198 35.1769 15.2931V5.41424L37.1625 5.08604V14.9157C37.1625 15.1564 37.1789 15.3588 37.2117 15.5229C37.2555 15.687 37.3266 15.8292 37.425 15.9496C37.5235 16.059 37.6548 16.1465 37.8189 16.2121C37.9939 16.2668 38.2127 16.3106 38.4753 16.3434L38.1963 17.9844ZM43.1009 16.4255C43.7135 16.4255 44.1785 16.3926 44.4958 16.327V14.128C44.3864 14.0952 44.2277 14.0624 44.0199 14.0296C43.812 13.9967 43.5823 13.9803 43.3306 13.9803C43.1118 13.9803 42.8876 13.9967 42.6578 14.0296C42.439 14.0624 42.2366 14.1226 42.0507 14.2101C41.8756 14.2976 41.7334 14.4234 41.624 14.5875C41.5146 14.7407 41.4599 14.9376 41.4599 15.1783C41.4599 15.6487 41.6076 15.9769 41.903 16.1629C42.1983 16.3379 42.5977 16.4255 43.1009 16.4255ZM42.9368 9.02447C43.5932 9.02447 44.1457 9.10653 44.5942 9.27063C45.0428 9.43473 45.3983 9.66447 45.6609 9.95985C45.9344 10.2552 46.1258 10.6163 46.2352 11.0429C46.3556 11.4586 46.4157 11.9181 46.4157 12.4214V17.6234C46.1094 17.689 45.6445 17.7656 45.0209 17.8531C44.4082 17.9516 43.7135 18.0008 42.9368 18.0008C42.4226 18.0008 41.9522 17.9516 41.5255 17.8531C41.0989 17.7547 40.7324 17.596 40.426 17.3772C40.1307 17.1584 39.8955 16.874 39.7204 16.5239C39.5563 16.1738 39.4743 15.7417 39.4743 15.2275C39.4743 14.7352 39.5672 14.3195 39.7532 13.9803C39.9502 13.6412 40.2127 13.3677 40.5409 13.1598C40.8691 12.941 41.2466 12.7879 41.6732 12.7003C42.1108 12.6019 42.5648 12.5527 43.0353 12.5527C43.2541 12.5527 43.4838 12.5691 43.7245 12.6019C43.9652 12.6238 44.2223 12.6675 44.4958 12.7332V12.405C44.4958 12.1752 44.4684 11.9564 44.4137 11.7486C44.359 11.5407 44.2606 11.3602 44.1183 11.207C43.987 11.0429 43.8065 10.9171 43.5768 10.8296C43.358 10.7421 43.079 10.6983 42.7399 10.6983C42.2804 10.6983 41.8592 10.7311 41.4763 10.7968C41.0934 10.8624 40.7816 10.939 40.5409 11.0265L40.2948 9.41832C40.5464 9.3308 40.9129 9.24328 41.3942 9.15576C41.8756 9.06824 42.3898 9.02447 42.9368 9.02447ZM54.5417 13.5044C54.5417 12.6621 54.3722 11.9947 54.033 11.5024C53.7048 11.0101 53.1797 10.764 52.4576 10.764C52.1294 10.764 51.8176 10.8132 51.5223 10.9116C51.2378 11.0101 51.0081 11.1195 50.833 11.2398V16.1793C50.9753 16.2121 51.1558 16.2449 51.3746 16.2778C51.6043 16.2996 51.8778 16.3106 52.1951 16.3106C52.9281 16.3106 53.5024 16.0644 53.9181 15.5721C54.3339 15.0689 54.5417 14.3797 54.5417 13.5044ZM56.5766 13.5373C56.5766 14.2265 56.4726 14.8501 56.2648 15.408C56.0679 15.955 55.778 16.4255 55.395 16.8193C55.0231 17.2131 54.5691 17.514 54.033 17.7219C53.4969 17.9297 52.8898 18.0336 52.2115 18.0336C51.5551 18.0336 50.926 17.9844 50.3243 17.886C49.7335 17.7875 49.2412 17.6781 48.8474 17.5578V5.41424L50.833 5.08604V9.53319C51.0628 9.41285 51.3417 9.30345 51.6699 9.20499C52.0091 9.10652 52.3811 9.05729 52.7858 9.05729C53.3875 9.05729 53.9236 9.1667 54.394 9.3855C54.8754 9.59336 55.2747 9.89421 55.592 10.2881C55.9092 10.6819 56.1499 11.1578 56.314 11.7157C56.4891 12.2627 56.5766 12.8699 56.5766 13.5373ZM61.6096 17.9844C61.0189 17.9735 60.5266 17.9078 60.1327 17.7875C59.7498 17.6672 59.4435 17.4976 59.2137 17.2788C58.984 17.049 58.8199 16.7701 58.7214 16.4419C58.6339 16.1027 58.5902 15.7198 58.5902 15.2931V5.41424L60.5758 5.08604V14.9157C60.5758 15.1564 60.5922 15.3588 60.625 15.5229C60.6688 15.687 60.7399 15.8292 60.8383 15.9496C60.9368 16.059 61.0681 16.1465 61.2322 16.2121C61.4072 16.2668 61.626 16.3106 61.8886 16.3434L61.6096 17.9844ZM63.0188 13.5701C63.0188 12.8152 63.1282 12.1533 63.347 11.5845C63.5768 11.0156 63.8776 10.5451 64.2496 10.1732C64.6216 9.79028 65.0482 9.50584 65.5296 9.31986C66.011 9.12294 66.5033 9.02447 67.0065 9.02447C68.188 9.02447 69.107 9.39097 69.7634 10.124C70.4308 10.8569 70.7644 11.951 70.7644 13.406C70.7644 13.5154 70.759 13.6412 70.748 13.7834C70.748 13.9147 70.7426 14.035 70.7316 14.1444H65.0701C65.1248 14.8337 65.3655 15.3697 65.7922 15.7526C66.2298 16.1246 66.8588 16.3106 67.6793 16.3106C68.1607 16.3106 68.5983 16.2668 68.9921 16.1793C69.3969 16.0918 69.7142 15.9988 69.9439 15.9003L70.2065 17.5249C70.0971 17.5796 69.9439 17.6398 69.747 17.7054C69.561 17.7601 69.3422 17.8094 69.0906 17.8531C68.8499 17.9078 68.5874 17.9516 68.3029 17.9844C68.0185 18.0172 67.7286 18.0336 67.4332 18.0336C66.6783 18.0336 66.0219 17.9242 65.464 17.7054C64.906 17.4757 64.4465 17.1639 64.0855 16.7701C63.7245 16.3653 63.4564 15.8949 63.2814 15.3588C63.1064 14.8118 63.0188 14.2156 63.0188 13.5701ZM68.7788 12.6839C68.7788 12.4104 68.7405 12.1533 68.6639 11.9127C68.5874 11.661 68.4725 11.4477 68.3193 11.2727C68.1771 11.0867 67.9966 10.9445 67.7778 10.846C67.5699 10.7366 67.3183 10.6819 67.0229 10.6819C66.7166 10.6819 66.4486 10.7421 66.2188 10.8624C65.9891 10.9718 65.7922 11.1195 65.6281 11.3055C65.4749 11.4915 65.3546 11.7048 65.267 11.9455C65.1795 12.1862 65.1193 12.4323 65.0865 12.6839H68.7788ZM78.7018 17.8203H76.7162V9.23781H78.7018V17.8203ZM78.9151 6.72705C78.9151 7.09902 78.7948 7.3944 78.5541 7.6132C78.3134 7.832 78.029 7.9414 77.7008 7.9414C77.3616 7.9414 77.0717 7.832 76.8311 7.6132C76.5904 7.3944 76.47 7.09902 76.47 6.72705C76.47 6.34415 76.5904 6.0433 76.8311 5.8245C77.0717 5.60569 77.3616 5.49629 77.7008 5.49629C78.029 5.49629 78.3134 5.60569 78.5541 5.8245C78.7948 6.0433 78.9151 6.34415 78.9151 6.72705ZM81.235 9.51678C81.6179 9.40738 82.1157 9.30345 82.7283 9.20499C83.341 9.10652 84.0193 9.05729 84.7632 9.05729C85.4633 9.05729 86.0486 9.15576 86.5191 9.35268C86.9895 9.53866 87.3615 9.80669 87.635 10.1568C87.9194 10.4959 88.1163 10.9116 88.2257 11.4039C88.3461 11.8853 88.4062 12.4159 88.4062 12.9957V17.8203H86.4206V13.3075C86.4206 12.848 86.3878 12.4597 86.3221 12.1424C86.2674 11.8142 86.169 11.5516 86.0268 11.3547C85.8955 11.1469 85.7095 10.9992 85.4688 10.9116C85.2391 10.8132 84.9546 10.764 84.6155 10.764C84.3639 10.764 84.1013 10.7804 83.8278 10.8132C83.5543 10.846 83.3519 10.8734 83.2206 10.8952V17.8203H81.235V9.51678Z" fill="#3D0072"/>
<g clip-path="url(#clip0_1474_14139)">
<path d="M116.776 11.7211C116.769 10.4125 117.361 9.42485 118.559 8.69746C117.888 7.7383 116.876 7.21059 115.538 7.10718C114.273 7.00734 112.889 7.84527 112.383 7.84527C111.848 7.84527 110.621 7.14284 109.659 7.14284C107.669 7.17493 105.555 8.72955 105.555 11.8923C105.555 12.8265 105.726 13.7916 106.068 14.7876C106.525 16.0962 108.172 19.3052 109.891 19.2518C110.789 19.2304 111.424 18.6135 112.593 18.6135C113.727 18.6135 114.315 19.2518 115.317 19.2518C117.05 19.2268 118.541 16.3101 118.976 14.9979C116.651 13.9033 116.776 11.7889 116.776 11.7211ZM114.758 5.86634C115.731 4.71107 115.642 3.65921 115.613 3.28125C114.754 3.33117 113.759 3.86602 113.192 4.52566C112.568 5.23166 112.201 6.10524 112.279 7.08935C113.21 7.16067 114.059 6.68287 114.758 5.86634Z" fill="black"/>
</g>
<path d="M144.044 11.7634L136.642 19.0259C136.25 18.7249 136.021 18.2575 136.023 17.7629V5.77668C136.021 5.28203 136.25 4.81455 136.642 4.51367L144.044 11.7634Z" fill="#2196F3"/>
<path d="M149.916 11.7636C149.916 12.3384 149.607 12.8689 149.108 13.1529L146.784 14.4412L144.043 11.7636L146.784 9.08594L149.108 10.3868C149.604 10.6679 149.913 11.193 149.916 11.7636Z" fill="#FFC107"/>
<path d="M146.785 14.4433L138.348 19.1543C138.114 19.2775 137.854 19.3426 137.59 19.3438C137.314 19.3491 137.042 19.2745 136.807 19.1291C136.75 19.0982 136.696 19.0645 136.643 19.028L144.044 11.7656L146.785 14.4433Z" fill="#F44336"/>
<path d="M146.785 9.08397L144.044 11.7616L136.643 4.51179C136.696 4.47532 136.75 4.44157 136.807 4.41073C137.278 4.12501 137.867 4.11536 138.348 4.38545L146.785 9.08397Z" fill="#4CAF50"/>
<defs>
<clipPath id="clip0_1474_14139">
<rect width="17.2307" height="19.3169" fill="white" transform="translate(105.029)"/>
</clipPath>
</defs>
</svg>
