<svg width="24" height="24" viewBox="0 0 24 24" fill="none" xmlns="http://www.w3.org/2000/svg">
<path d="M4.83007 4.61C4.90662 4.42925 5.03468 4.27503 5.19827 4.16656C5.36187 4.05809 5.55377 4.00016 5.75007 4H18.2501C18.5153 4 18.7696 4.10536 18.9572 4.29289C19.1447 4.48043 19.2501 4.73478 19.2501 5C19.2501 5.26522 19.1447 5.51957 18.9572 5.70711C18.7696 5.89464 18.5153 6 18.2501 6H8.11007L13.0601 11.115C13.2332 11.2941 13.3332 11.5313 13.3406 11.7803C13.348 12.0292 13.2622 12.272 13.1001 12.461L7.92407 18.5H18.2501C18.5153 18.5 18.7696 18.6054 18.9572 18.7929C19.1447 18.9804 19.2501 19.2348 19.2501 19.5C19.2501 19.7652 19.1447 20.0196 18.9572 20.2071C18.7696 20.3946 18.5153 20.5 18.2501 20.5H5.75007C5.5589 20.5 5.37174 20.4452 5.21075 20.3421C5.04976 20.2391 4.92169 20.092 4.84172 19.9184C4.76174 19.7447 4.73321 19.5518 4.7595 19.3625C4.7858 19.1731 4.86581 18.9953 4.99007 18.85L10.9891 11.851L5.03007 5.695C4.89398 5.5537 4.80246 5.3755 4.7669 5.18258C4.73134 4.98965 4.7533 4.79053 4.83007 4.61Z" fill="#16A34A"/>
</svg>
