<svg width="586" height="273" viewBox="0 0 586 273" fill="none" xmlns="http://www.w3.org/2000/svg">
<path d="M15.06 268.551V259.334H13.6981C13.2304 259.925 12.5838 260.159 11.8272 260.159V261.287H13.5055V268.551H15.06ZM18.3375 268.551V264.217L18.1174 261.177L19.2042 263.818L20.7999 266.996H22.3682L23.964 263.818L25.0233 261.177L24.8307 264.217V268.551H26.3852V259.334H24.4868L22.5058 263.378L21.5841 265.731L20.6761 263.378L18.6952 259.334H16.783V268.551H18.3375Z" fill="#16A34A"/>
<path d="M152.135 268.688C154.103 268.688 155.327 267.698 155.327 266.185C155.327 265.015 154.735 263.984 152.988 263.818C154.295 263.626 154.956 262.663 154.956 261.7C154.956 260.462 154.13 259.196 152.067 259.196C150.416 259.196 149.246 260.173 148.889 261.439L149.645 262.099C149.838 260.778 150.773 260.063 152.053 260.063C153.374 260.063 154.006 260.847 154.006 261.879C154.006 262.979 153.318 263.543 151.97 263.543H150.485V264.314H151.957C153.415 264.314 154.378 264.823 154.378 266.102C154.378 267.203 153.566 267.835 152.245 267.835C150.512 267.835 149.714 266.9 149.453 265.442L148.696 266.116C148.985 267.56 150.168 268.688 152.135 268.688ZM158.128 268.551V262.663L158.018 260.613L158.912 262.512L161.265 266.859H162.145L164.498 262.512L165.378 260.613L165.296 262.663V268.551H166.19V259.334H165.199L162.503 264.355L161.705 266.02L160.907 264.355L158.211 259.334H157.22V268.551H158.128Z" fill="#9CA3AF"/>
<path d="M290.883 268.688C292.767 268.688 294.006 267.354 294.006 265.607C294.006 263.915 293.153 262.539 291.24 262.539C289.741 262.539 288.613 263.447 288.503 265.098V263.901C288.503 260.806 289.741 260.063 290.938 260.063C291.983 260.063 292.726 260.723 293.07 261.672L293.827 261.012C293.345 259.939 292.355 259.196 291.007 259.196C288.902 259.196 287.567 260.682 287.567 263.777V264.217C287.567 267.67 289.012 268.688 290.883 268.688ZM290.869 267.835C289.507 267.835 288.64 267.065 288.64 265.414C288.64 264.08 289.617 263.378 290.938 263.378C292.382 263.378 293.056 264.3 293.056 265.662C293.056 266.886 292.245 267.835 290.869 267.835ZM296.767 268.551V262.663L296.657 260.613L297.551 262.512L299.904 266.859H300.784L303.137 262.512L304.017 260.613L303.935 262.663V268.551H304.829V259.334H303.838L301.142 264.355L300.344 266.02L299.546 264.355L296.85 259.334H295.859V268.551H296.767Z" fill="#9CA3AF"/>
<path d="M431.462 268.551V259.334H430.692C430.389 259.994 429.88 260.159 428.904 260.159V260.792H430.554V268.551H431.462ZM436.951 268.551V265.015L440.39 259.334H439.372L437.336 262.704L436.497 264.314L435.685 262.69L433.705 259.334H432.604L436.043 265.015V268.551H436.951Z" fill="#9CA3AF"/>
<path d="M563.38 268.551L564.494 265.717H568.635L569.749 268.551H570.753L567.053 259.334H566.131L562.43 268.551H563.38ZM566.09 261.686L566.571 260.255L567.053 261.686L568.318 264.919H564.81L566.09 261.686ZM577.463 268.551V267.753H572.511V259.334H571.603V268.551H577.463ZM584.18 268.551V267.753H579.228V259.334H578.32V268.551H584.18Z" fill="#9CA3AF"/>
<path d="M1.23438 183.891C122.622 197.162 409.189 184.594 584.361 28.1562" stroke="#22C55E" stroke-width="2.34188"/>
<path d="M584.361 28.1562C409.189 184.594 122.622 197.162 1.23438 183.891V251.805H584.361V28.1562Z" fill="url(#paint0_linear_7663_105892)"/>
<g filter="url(#filter0_d_7663_105892)">
<rect x="297" y="57.2969" width="112.652" height="51.9932" rx="7.22128" fill="white"/>
</g>
<g filter="url(#filter1_d_7663_105892)">
<path d="M350.443 129.516L362.95 107.852H337.935L350.443 129.516Z" fill="white"/>
</g>
<path d="M314.303 76.8555V73.0773L314.26 72.3061L314.78 73.0773L317.44 76.8555H318.116V71.0496H317.362V74.7584L317.405 75.6423L316.807 74.7411L314.216 71.0496H313.549V76.8555H314.303ZM320.991 76.9421C322.152 76.9421 322.976 76.0842 322.976 74.7584C322.976 73.4326 322.152 72.5747 320.991 72.5747C319.83 72.5747 319.015 73.4326 319.015 74.7584C319.015 76.0842 319.83 76.9421 320.991 76.9421ZM320.991 76.3095C320.281 76.3095 319.787 75.8156 319.787 74.7584C319.787 73.6925 320.281 73.2073 320.991 73.2073C321.71 73.2073 322.213 73.6925 322.213 74.7584C322.213 75.8156 321.71 76.3095 320.991 76.3095ZM325.677 76.8555L327.202 72.6613H326.396L325.573 75.1484L325.218 76.3009L324.854 75.1484L324.022 72.6613H323.208L324.724 76.8555H325.677ZM333.783 76.8555V76.1882H331.382L330.672 76.2402L331.296 75.7116L332.197 74.8624C332.726 74.3598 333.636 73.4932 333.636 72.54C333.636 71.6475 333.124 70.9629 331.989 70.9629C330.655 70.9629 329.745 71.8815 329.866 73.0253L330.568 73.4672C330.421 72.3147 330.967 71.6908 331.937 71.6908C332.596 71.6908 332.856 72.1241 332.856 72.592C332.856 73.2333 332.362 73.7705 331.729 74.3945L329.831 76.2662V76.8555H333.783ZM336.828 76.9421C338.414 76.9421 339.159 75.6336 339.159 73.9438C339.159 72.2714 338.414 70.9629 336.828 70.9629C335.234 70.9629 334.488 72.2714 334.488 73.9438C334.488 75.6336 335.234 76.9421 336.828 76.9421ZM336.837 76.2229C335.684 76.2229 335.286 75.2783 335.286 73.9438C335.286 72.6267 335.684 71.6735 336.837 71.6735C337.981 71.6735 338.371 72.6267 338.371 73.9438C338.371 75.2783 337.981 76.2229 336.837 76.2229ZM343.98 76.8555V76.1882H341.58L340.869 76.2402L341.493 75.7116L342.394 74.8624C342.923 74.3598 343.833 73.4932 343.833 72.54C343.833 71.6475 343.321 70.9629 342.186 70.9629C340.852 70.9629 339.942 71.8815 340.063 73.0253L340.765 73.4672C340.618 72.3147 341.164 71.6908 342.134 71.6908C342.793 71.6908 343.053 72.1241 343.053 72.592C343.053 73.2333 342.559 73.7705 341.926 74.3945L340.029 76.2662V76.8555H343.98ZM349.007 76.8555V76.1882H346.606L345.896 76.2402L346.52 75.7116L347.421 74.8624C347.95 74.3598 348.859 73.4932 348.859 72.54C348.859 71.6475 348.348 70.9629 347.213 70.9629C345.878 70.9629 344.969 71.8815 345.09 73.0253L345.792 73.4672C345.645 72.3147 346.19 71.6908 347.161 71.6908C347.82 71.6908 348.08 72.1241 348.08 72.592C348.08 73.2333 347.586 73.7705 346.953 74.3945L345.055 76.2662V76.8555H349.007Z" fill="#9CA3AF"/>
<path d="M314.031 93.4062V88.0769L313.915 86.315L314.796 87.687L318.811 93.4062H320.313V83.7297H318.681V89.0446L318.782 90.8788L317.829 89.3623L313.915 83.7297H312.399V93.4062H314.031ZM325.812 93.5218C327.964 93.5218 329.192 91.9476 329.264 89.7667L329.712 93.4062H330.752V88.3947H326.332V89.7667H329.12C328.773 91.1099 328.051 91.9909 326.419 91.9909C324.513 91.9909 323.574 90.6044 323.574 88.5536C323.574 86.546 324.498 85.1307 326.52 85.1307C328.08 85.1307 329.004 86.0839 329.293 87.3259L330.709 86.315C330.044 84.5674 328.542 83.5853 326.506 83.5853C323.502 83.5853 321.841 85.7084 321.841 88.5536C321.841 91.6298 323.328 93.5218 325.812 93.5218ZM334.199 93.4062V88.0769L334.084 86.315L334.965 87.687L338.98 93.4062H340.482V83.7297H338.85V89.0446L338.951 90.8788L337.998 89.3623L334.084 83.7297H332.567V93.4062H334.199ZM348.941 93.5507C351.021 93.5507 352.45 92.1497 352.45 90.2C352.45 88.4525 351.569 87.0949 349.62 87.0949C348.132 87.0949 347.15 87.947 346.948 89.3768V88.4525C346.948 85.8817 347.93 85.1884 349.056 85.1884C350.024 85.1884 350.732 85.7228 351.165 86.5894L352.277 85.2462C351.67 84.2641 350.573 83.5853 349.143 83.5853C346.558 83.5853 345.186 85.3473 345.186 88.4525V88.6113C345.186 92.2075 346.616 93.5507 348.941 93.5507ZM348.897 92.0053C347.742 92.0053 347.063 91.3843 347.063 90.0556C347.063 88.9579 347.785 88.3658 348.926 88.3658C350.154 88.3658 350.703 89.1024 350.703 90.2C350.703 91.2254 350.024 92.0053 348.897 92.0053ZM357.663 93.5362C360.363 93.5362 361.721 91.3987 361.721 88.5536C361.721 85.7228 360.363 83.5853 357.663 83.5853C354.962 83.5853 353.59 85.7228 353.59 88.5536C353.59 91.3987 354.962 93.5362 357.663 93.5362ZM357.663 91.9764C355.944 91.9764 355.308 90.59 355.308 88.5536C355.308 86.5316 355.944 85.1307 357.663 85.1307C359.396 85.1307 360.017 86.5316 360.017 88.5536C360.017 90.59 359.396 91.9764 357.663 91.9764ZM363.16 95.0816C364.244 94.966 364.662 94.4028 364.662 93.4351V91.3554H362.814V93.4062H363.666V93.594C363.666 94.0706 363.348 94.1717 362.828 94.2295L363.16 95.0816ZM369.82 93.5362C372.521 93.5362 373.879 91.3987 373.879 88.5536C373.879 85.7228 372.521 83.5853 369.82 83.5853C367.119 83.5853 365.747 85.7228 365.747 88.5536C365.747 91.3987 367.119 93.5362 369.82 93.5362ZM369.82 91.9764C368.102 91.9764 367.466 90.59 367.466 88.5536C367.466 86.5316 368.102 85.1307 369.82 85.1307C371.553 85.1307 372.174 86.5316 372.174 88.5536C372.174 90.59 371.553 91.9764 369.82 91.9764ZM379.256 93.5362C381.957 93.5362 383.314 91.3987 383.314 88.5536C383.314 85.7228 381.957 83.5853 379.256 83.5853C376.555 83.5853 375.183 85.7228 375.183 88.5536C375.183 91.3987 376.555 93.5362 379.256 93.5362ZM379.256 91.9764C377.537 91.9764 376.902 90.59 376.902 88.5536C376.902 86.5316 377.537 85.1307 379.256 85.1307C380.989 85.1307 381.61 86.5316 381.61 88.5536C381.61 90.59 380.989 91.9764 379.256 91.9764ZM388.691 93.5362C391.392 93.5362 392.75 91.3987 392.75 88.5536C392.75 85.7228 391.392 83.5853 388.691 83.5853C385.991 83.5853 384.619 85.7228 384.619 88.5536C384.619 91.3987 385.991 93.5362 388.691 93.5362ZM388.691 91.9764C386.973 91.9764 386.337 90.59 386.337 88.5536C386.337 86.5316 386.973 85.1307 388.691 85.1307C390.425 85.1307 391.046 86.5316 391.046 88.5536C391.046 90.59 390.425 91.9764 388.691 91.9764Z" fill="#22C55E"/>
<g filter="url(#filter2_d_7663_105892)">
<circle cx="353.126" cy="150.779" r="18.6887" fill="#22C55E"/>
<circle cx="353.126" cy="150.779" r="14.4423" stroke="white" stroke-width="8.49292"/>
</g>
<defs>
<filter id="filter0_d_7663_105892" x="279.669" y="51.5199" width="147.311" height="86.6543" filterUnits="userSpaceOnUse" color-interpolation-filters="sRGB">
<feFlood flood-opacity="0" result="BackgroundImageFix"/>
<feColorMatrix in="SourceAlpha" type="matrix" values="0 0 0 0 0 0 0 0 0 0 0 0 0 0 0 0 0 0 127 0" result="hardAlpha"/>
<feOffset dy="11.554"/>
<feGaussianBlur stdDeviation="8.66553"/>
<feComposite in2="hardAlpha" operator="out"/>
<feColorMatrix type="matrix" values="0 0 0 0 0.666875 0 0 0 0 0.663889 0 0 0 0 0.669444 0 0 0 0.15 0"/>
<feBlend mode="normal" in2="BackgroundImageFix" result="effect1_dropShadow_7663_105892"/>
<feBlend mode="normal" in="SourceGraphic" in2="effect1_dropShadow_7663_105892" result="shape"/>
</filter>
<filter id="filter1_d_7663_105892" x="320.606" y="102.075" width="59.6778" height="56.3262" filterUnits="userSpaceOnUse" color-interpolation-filters="sRGB">
<feFlood flood-opacity="0" result="BackgroundImageFix"/>
<feColorMatrix in="SourceAlpha" type="matrix" values="0 0 0 0 0 0 0 0 0 0 0 0 0 0 0 0 0 0 127 0" result="hardAlpha"/>
<feOffset dy="11.554"/>
<feGaussianBlur stdDeviation="8.66553"/>
<feComposite in2="hardAlpha" operator="out"/>
<feColorMatrix type="matrix" values="0 0 0 0 0.666875 0 0 0 0 0.663889 0 0 0 0 0.669444 0 0 0 0.15 0"/>
<feBlend mode="normal" in2="BackgroundImageFix" result="effect1_dropShadow_7663_105892"/>
<feBlend mode="normal" in="SourceGraphic" in2="effect1_dropShadow_7663_105892" result="shape"/>
</filter>
<filter id="filter2_d_7663_105892" x="317.452" y="132.09" width="71.3467" height="71.3506" filterUnits="userSpaceOnUse" color-interpolation-filters="sRGB">
<feFlood flood-opacity="0" result="BackgroundImageFix"/>
<feColorMatrix in="SourceAlpha" type="matrix" values="0 0 0 0 0 0 0 0 0 0 0 0 0 0 0 0 0 0 127 0" result="hardAlpha"/>
<feOffset dy="16.9858"/>
<feGaussianBlur stdDeviation="8.49292"/>
<feComposite in2="hardAlpha" operator="out"/>
<feColorMatrix type="matrix" values="0 0 0 0 0.0509804 0 0 0 0 0.0392157 0 0 0 0 0.172549 0 0 0 0.08 0"/>
<feBlend mode="normal" in2="BackgroundImageFix" result="effect1_dropShadow_7663_105892"/>
<feBlend mode="normal" in="SourceGraphic" in2="effect1_dropShadow_7663_105892" result="shape"/>
</filter>
<linearGradient id="paint0_linear_7663_105892" x1="292.798" y1="28.1562" x2="292.798" y2="251.805" gradientUnits="userSpaceOnUse">
<stop stop-color="#22C55E" stop-opacity="0.31"/>
<stop offset="1" stop-color="#22C55E" stop-opacity="0"/>
</linearGradient>
</defs>
</svg>
