<svg width="431" height="353" viewBox="0 0 431 353" fill="none" xmlns="http://www.w3.org/2000/svg">
<path d="M340.54 110.367C339.605 118.973 336.297 127.15 330.986 133.986C325.675 140.821 318.569 146.047 310.461 149.08C302.353 152.113 293.562 152.834 285.069 151.162C276.575 149.491 268.713 145.492 262.359 139.613L238.933 143.027L250.697 122.859C247.797 115.732 246.718 107.994 247.559 100.345C248.178 94.2114 250.005 88.2612 252.933 82.8366C255.861 77.412 259.834 72.6204 264.622 68.7376C269.41 64.8547 274.919 61.9574 280.831 60.2125C286.744 58.4676 292.943 57.9096 299.072 58.5705C305.201 59.2315 311.138 61.0984 316.543 64.0637C321.947 67.0291 326.712 71.0342 330.562 75.8486C334.412 80.663 337.272 86.1914 338.976 92.1156C340.681 98.0398 341.196 104.243 340.494 110.367L340.54 110.367Z" fill="white"/>
<path d="M340.54 110.367C339.614 118.981 336.324 127.17 331.033 134.03C329.719 135.736 328.301 137.36 326.788 138.894C325.22 140.373 323.566 141.76 321.836 143.045C318.388 145.652 314.588 147.755 310.548 149.291C306.51 150.858 302.272 151.852 297.959 152.246C295.798 152.442 293.626 152.476 291.46 152.348C289.291 152.291 287.129 152.062 284.995 151.664C276.372 150.053 268.367 146.072 261.879 140.168L262.434 140.339L239.069 143.861L237.386 144.164L238.24 142.623L249.943 122.394L249.94 123.197C247.231 116.549 246.073 109.371 246.556 102.208C247.038 95.0455 249.148 88.0874 252.725 81.8632C256.302 75.6389 261.251 70.3125 267.197 66.2893C273.142 62.2661 279.927 59.652 287.035 58.646C294.143 57.64 301.387 58.2686 308.215 60.4839C315.044 62.6992 321.277 66.4428 326.441 71.43C331.604 76.4172 335.562 82.5165 338.014 89.2638C340.465 96.0112 341.345 103.229 340.586 110.367L340.54 110.367ZM340.54 110.367C341.295 103.335 340.43 96.2236 338.01 89.578C335.59 82.9324 331.68 76.9295 326.58 72.0297C321.479 67.1299 315.325 63.4635 308.587 61.3117C301.85 59.16 294.71 58.58 287.713 59.6165C280.776 60.6285 274.162 63.2157 268.38 67.1795C262.66 71.1768 257.873 76.3637 254.347 82.3846C250.876 88.4364 248.818 95.1943 248.325 102.153C247.872 109.126 248.983 116.112 251.578 122.6L251.747 123.017L251.514 123.387L239.688 143.523L238.858 142.286L262.268 139.088L262.593 139.089L262.823 139.306C269.05 145.173 276.787 149.19 285.167 150.908C287.257 151.335 289.378 151.6 291.509 151.7C293.636 151.853 295.771 151.86 297.899 151.721C302.17 151.408 306.377 150.497 310.395 149.013C314.433 147.568 318.236 145.536 321.682 142.983C323.408 141.709 325.062 140.338 326.634 138.878C328.151 137.361 329.574 135.752 330.894 134.06C336.243 127.209 339.582 119.006 340.54 110.367Z" fill="white"/>
<path d="M320.132 106.859C320.132 107.98 319.798 109.076 319.175 110.008C318.551 110.939 317.665 111.665 316.629 112.093C315.593 112.521 314.453 112.631 313.354 112.411C312.254 112.191 311.245 111.649 310.454 110.855C309.663 110.061 309.125 109.05 308.909 107.95C308.692 106.849 308.807 105.71 309.239 104.675C309.67 103.641 310.399 102.757 311.333 102.137C312.267 101.517 313.364 101.188 314.485 101.192C315.228 101.192 315.964 101.339 316.651 101.624C317.337 101.909 317.96 102.327 318.485 102.854C319.009 103.38 319.425 104.005 319.707 104.692C319.99 105.38 320.134 106.116 320.132 106.859Z" fill="#3D0072"/>
<path d="M299.849 106.795C299.848 107.917 299.515 109.013 298.89 109.945C298.266 110.877 297.379 111.603 296.342 112.03C295.305 112.458 294.164 112.567 293.065 112.346C291.965 112.124 290.956 111.581 290.165 110.785C289.375 109.99 288.838 108.977 288.624 107.876C288.409 106.775 288.526 105.635 288.96 104.601C289.394 103.566 290.125 102.684 291.061 102.066C291.997 101.447 293.096 101.121 294.217 101.128C295.716 101.132 297.151 101.732 298.207 102.795C299.263 103.858 299.854 105.297 299.849 106.795Z" fill="#3D0072"/>
<path d="M279.583 106.729C279.583 107.85 279.25 108.946 278.626 109.878C278.002 110.809 277.116 111.535 276.08 111.963C275.044 112.391 273.904 112.501 272.805 112.281C271.706 112.061 270.696 111.519 269.905 110.725C269.114 109.931 268.576 108.92 268.36 107.82C268.143 106.72 268.258 105.58 268.69 104.545C269.122 103.511 269.851 102.627 270.784 102.007C271.718 101.387 272.815 101.058 273.936 101.062C275.436 101.066 276.873 101.666 277.931 102.728C278.99 103.791 279.584 105.23 279.583 106.729Z" fill="#3D0072"/>
<mask id="mask0_3352_71090" style="mask-type:alpha" maskUnits="userSpaceOnUse" x="0" y="76" width="277" height="277">
<path d="M276.085 214.618C276.085 290.857 214.282 352.661 138.043 352.661C61.8038 352.661 0 290.857 0 214.618C0 138.379 61.8038 76.5757 138.043 76.5757C214.282 76.5757 276.085 138.379 276.085 214.618Z" fill="white"/>
</mask>
<g mask="url(#mask0_3352_71090)">
<path d="M241.66 331.071C232.757 307.134 178.277 295.704 168.738 288.765C156.492 279.854 160.391 250.358 160.391 250.358L140.353 250.885L120.316 250.358C120.316 250.358 124.215 279.862 111.969 288.765C102.43 295.704 47.9502 307.134 39.0471 331.071C30.1367 355.007 26.8008 376.164 26.8008 376.164H139.249H141.473H253.92C253.906 376.164 250.57 355.007 241.66 331.071Z" fill="#965450"/>
<path d="M116.598 283.27C125.977 282.309 135.408 280.41 143.574 275.84C149.531 272.511 154.889 268.576 159.864 264.149C159.568 256.568 160.384 250.351 160.384 250.351L140.347 250.878L120.309 250.351C120.309 250.351 123.082 271.348 116.598 283.27Z" fill="#76413B"/>
<path d="M243.243 330.739C234.563 307.424 182.971 295.885 170.884 288.831C161.338 294.383 149.691 297.654 137.113 297.654C126.181 297.654 115.956 295.185 107.198 290.896C90.2578 298.109 46.9986 309.568 39.1136 330.739C30.1383 354.849 26.7734 376.165 26.7734 376.165H140.052H142.297H255.576C255.583 376.165 252.218 354.857 243.243 330.739Z" fill="#D13062"/>
<path d="M19.9102 335.222H258.063" stroke="#FFEEF6" stroke-width="1.32733" stroke-miterlimit="10"/>
<path d="M19.9102 349.294H258.063" stroke="#FFEEF6" stroke-width="1.32733" stroke-miterlimit="10"/>
<path d="M19.9102 321.156H258.063" stroke="#FFEEF6" stroke-width="1.32733" stroke-miterlimit="10"/>
<path d="M106.7 204.36C103.465 194.316 95.7971 196.641 95.0822 196.887C94.3313 196.973 86.4102 198.15 87.7749 208.613C89.154 219.134 95.2555 224.838 100.982 223.163C106.874 222.224 109.957 214.462 106.7 204.36Z" fill="#76413B"/>
<path d="M172.996 204.36C176.231 194.316 183.899 196.641 184.614 196.887C185.365 196.973 193.286 198.15 191.921 208.613C190.542 219.134 184.441 224.838 178.715 223.163C172.822 222.224 169.739 214.462 172.996 204.36Z" fill="#76413B"/>
<path d="M179.678 188.562C175.671 144.545 142.203 147.007 139.048 147.339C135.892 147.007 102.424 144.545 98.4168 188.562C94.3804 232.846 114.107 261.765 139.048 260.177C163.988 261.765 183.715 232.846 179.678 188.562Z" fill="#965450"/>
<path d="M141.266 225.821C142.638 223.915 144.306 222.297 146.096 220.803L146.002 221.084L144.876 212.347C144.529 209.43 144.154 206.52 143.829 203.596C144.334 206.491 144.797 209.387 145.28 212.289L146.645 220.99L146.667 221.135C145.035 222.889 143.295 224.521 141.266 225.821Z" fill="#76413B"/>
<path d="M118.219 204.253C118.219 207.568 119.446 210.254 120.97 210.254C122.486 210.254 123.721 207.568 123.721 204.253C123.721 200.939 122.493 198.253 120.97 198.253C119.446 198.253 118.219 200.939 118.219 204.253Z" fill="#352C38"/>
<path d="M155.992 204.253C155.992 207.568 157.22 210.254 158.743 210.254C160.26 210.254 161.494 207.568 161.494 204.253C161.494 200.939 160.267 198.253 158.743 198.253C157.22 198.253 155.992 200.939 155.992 204.253Z" fill="#352C38"/>
<path d="M111.477 194.433C116.127 187.075 125.752 185.696 130.626 193.639C123.882 187.769 117.997 189.075 111.477 194.433Z" fill="#352C38"/>
<path d="M149.508 194.433C154.158 187.075 163.783 185.696 168.657 193.639C161.913 187.769 156.028 189.075 149.508 194.433Z" fill="#352C38"/>
<path d="M122.287 232.234L159.38 231.88C159.38 231.88 143.256 246.842 122.287 232.234Z" fill="white"/>
<path d="M96.076 163.326C96.076 163.326 93.8304 218.377 100.192 244.213C104.986 263.665 118.915 268.929 118.915 268.929C118.915 268.929 151.87 281.659 170.218 261.066C175.504 255.138 183.699 223.995 179.952 168.193L166.471 162.576C166.471 162.576 168.716 189.913 175.46 193.285C175.46 193.285 173.475 242.14 164.976 247.96C157.863 252.827 169.843 225.489 155.986 225.865C142.13 226.24 141.754 226.616 141.754 226.616C141.754 226.616 117.038 222.5 117.413 232.234C117.789 241.967 120.41 248.336 117.038 248.336C113.666 248.336 101.311 240.472 103.557 189.169C103.557 189.169 110.669 186.548 110.669 168.576C110.676 144.935 96.076 163.326 96.076 163.326Z" fill="#352C38"/>
<path d="M122.113 234.526L157.301 234.155C157.301 234.155 143.231 247.999 122.113 234.526Z" fill="white"/>
<path d="M109.181 160.337C109.181 160.337 119.954 174.945 132.771 174.945C139.883 174.945 132.771 162.59 132.771 162.59C132.771 162.59 142.88 178.317 153.364 177.941C163.849 177.566 154.859 162.59 154.859 162.59C154.859 162.59 162.722 178.692 172.463 177.941C182.196 177.191 173.958 161.464 173.958 161.464C173.958 161.464 178.449 178.317 187.814 176.071C197.179 173.826 185.569 159.218 185.569 159.218C185.569 159.218 193.432 166.706 196.804 166.331C200.176 165.955 200.176 155.846 188.565 150.979C188.565 150.979 200.176 150.604 200.551 144.986C200.977 138.625 193.439 136.372 176.21 138.242C176.21 138.242 190.442 132.249 187.446 127.007C184.449 121.765 171.719 129.252 171.719 129.252C171.719 129.252 184.449 122.14 176.961 116.522C170.817 111.915 138.764 112.031 119.29 135.246C119.29 135.246 159.733 113.901 154.866 110.905C151.429 108.789 103.043 119.598 95.6997 140.112C86.71 165.204 93.4541 179.436 96.3568 196.52L109.181 160.337Z" fill="#352C38"/>
</g>
</svg>
