<svg width="484" height="505" viewBox="0 0 484 505" fill="none" xmlns="http://www.w3.org/2000/svg">
<path opacity="0.65" d="M118.237 147.095C92.5428 182.88 80.7752 226.806 85.1383 270.644C89.5014 314.482 109.696 355.226 141.94 385.246C174.183 415.265 216.265 432.5 260.303 433.724C304.34 434.948 347.314 420.076 381.175 391.893C415.036 363.711 437.462 324.151 444.253 280.622C451.043 237.094 441.733 192.583 418.065 155.426C394.398 118.268 357.996 91.0132 315.679 78.7648C273.361 66.5164 228.029 70.1149 188.174 88.8864L225.519 168.179C246.084 158.493 269.475 156.636 291.31 162.956C313.146 169.276 331.929 183.339 344.141 202.512C356.353 221.685 361.157 244.652 357.653 267.112C354.149 289.572 342.578 309.985 325.106 324.527C307.634 339.069 285.46 346.742 262.737 346.111C240.014 345.48 218.301 336.586 201.663 321.097C185.026 305.607 174.606 284.584 172.354 261.963C170.103 239.343 176.175 216.679 189.433 198.213L118.237 147.095Z" fill="#EFDDFF"/>
<path d="M8.832 222.988C13.392 222.988 16.464 219.364 16.464 214.684C16.464 210.052 13.392 206.428 8.832 206.428C4.272 206.428 1.2 210.052 1.2 214.684C1.2 219.364 4.272 222.988 8.832 222.988ZM8.856 221.5C5.04 221.5 2.856 218.62 2.856 214.684C2.856 210.796 5.04 207.892 8.856 207.892C12.648 207.892 14.832 210.796 14.832 214.684C14.832 218.62 12.648 221.5 8.856 221.5ZM23.1885 222.988C25.5645 222.988 26.8605 221.38 27.2685 219.46V222.748H28.8285V211.228H27.2685V217.876C27.2685 219.892 26.3085 221.644 23.8125 221.644C21.8445 221.644 20.9805 220.492 20.9805 218.644V211.228H19.4205V218.98C19.4205 221.644 20.9325 222.988 23.1885 222.988ZM33.7796 222.748V216.076C33.7796 214.084 35.1476 212.164 36.8756 212.164C37.9316 212.164 38.3636 212.836 38.3636 213.58C38.3636 214.276 38.0756 215.02 37.7636 215.38H39.4676C39.6836 214.996 39.8996 214.276 39.8996 213.412C39.8996 211.828 38.7956 210.964 37.4516 210.964C35.4836 210.964 34.2116 212.548 33.7796 214.372V211.228H32.1956V222.748H33.7796ZM49.1603 222.748V215.26H58.1363V222.748H59.7203V206.668H58.1363V213.844H49.1603V206.668H47.5763V222.748H49.1603ZM65.8344 222.988C68.1384 222.988 69.6264 221.212 70.0104 219.556V220.78C70.0104 222.244 70.7784 222.748 71.9304 222.748H73.0104V221.332H72.3384C71.7864 221.332 71.5224 221.116 71.5224 220.516V215.116C71.5224 212.548 70.1304 210.988 67.4424 210.988C64.9944 210.988 63.3144 212.356 62.5944 213.556L63.6984 214.66C64.2984 213.388 65.5464 212.404 67.2744 212.404C69.1464 212.404 69.9624 213.412 69.9624 215.14V215.236L65.5944 217.228C63.9864 217.948 62.8584 218.908 62.8584 220.42C62.8584 221.956 63.9384 222.988 65.8344 222.988ZM64.4424 220.204C64.4424 219.34 65.0184 218.764 66.2664 218.188L70.0104 216.412V218.452C70.0104 220.012 68.4264 221.668 66.2904 221.668C65.1624 221.668 64.4424 221.164 64.4424 220.204ZM77.139 222.748V206.668H75.555V222.748H77.139ZM82.7563 222.988C85.0603 222.988 86.5483 221.212 86.9323 219.556V220.78C86.9323 222.244 87.7003 222.748 88.8523 222.748H89.9323V221.332H89.2603C88.7083 221.332 88.4443 221.116 88.4443 220.516V215.116C88.4443 212.548 87.0523 210.988 84.3643 210.988C81.9163 210.988 80.2363 212.356 79.5163 213.556L80.6203 214.66C81.2203 213.388 82.4683 212.404 84.1963 212.404C86.0683 212.404 86.8843 213.412 86.8843 215.14V215.236L82.5163 217.228C80.9083 217.948 79.7803 218.908 79.7803 220.42C79.7803 221.956 80.8603 222.988 82.7563 222.988ZM81.3643 220.204C81.3643 219.34 81.9403 218.764 83.1883 218.188L86.9323 216.412V218.452C86.9323 220.012 85.3483 221.668 83.2123 221.668C82.0843 221.668 81.3643 221.164 81.3643 220.204ZM94.0609 222.748V206.668H92.4769V222.748H94.0609ZM107.112 222.988C109.248 222.988 111.12 222.004 111.12 219.796C111.12 218.164 110.16 217.18 107.76 216.58L106.224 216.196C104.544 215.788 103.68 215.356 103.68 214.156C103.68 212.956 104.664 212.308 106.056 212.308C107.856 212.308 109.056 213.172 109.584 214.732L110.784 213.844C110.208 212.212 108.6 210.988 106.152 210.988C103.776 210.988 102.192 212.236 102.192 214.228C102.192 216.292 103.896 217.06 105.552 217.468L107.112 217.828C108.672 218.188 109.704 218.62 109.704 219.82C109.704 221.02 108.696 221.644 107.16 221.644C104.832 221.644 103.392 220.348 103.032 218.788L101.856 219.676C102.552 221.932 104.76 222.988 107.112 222.988ZM116.131 222.988C118.435 222.988 119.923 221.212 120.307 219.556V220.78C120.307 222.244 121.075 222.748 122.227 222.748H123.307V221.332H122.635C122.083 221.332 121.819 221.116 121.819 220.516V215.116C121.819 212.548 120.427 210.988 117.739 210.988C115.291 210.988 113.611 212.356 112.891 213.556L113.995 214.66C114.595 213.388 115.843 212.404 117.571 212.404C119.443 212.404 120.259 213.412 120.259 215.14V215.236L115.891 217.228C114.283 217.948 113.155 218.908 113.155 220.42C113.155 221.956 114.235 222.988 116.131 222.988ZM114.739 220.204C114.739 219.34 115.315 218.764 116.563 218.188L120.307 216.412V218.452C120.307 220.012 118.723 221.668 116.587 221.668C115.459 221.668 114.739 221.164 114.739 220.204ZM130.208 222.748L134.552 211.228H132.872L130.376 218.236L129.272 221.548L128.12 218.236L125.624 211.228H123.896L128.24 222.748H130.208ZM138.053 209.164V206.668H136.469V209.164H138.053ZM138.053 222.748V211.228H136.469V222.748H138.053ZM142.998 222.748V216.076C142.998 214.084 143.982 212.308 146.406 212.308C148.398 212.308 149.262 213.46 149.262 215.332V222.748H150.846V214.972C150.846 212.332 149.31 210.988 147.03 210.988C144.726 210.988 143.406 212.572 142.998 214.444V211.228H141.414V222.748H142.998ZM158.464 219.196C161.152 219.196 162.928 217.492 162.928 215.092C162.928 213.676 162.304 212.5 161.224 211.756L163.288 209.284L161.632 208.66L160.696 211.444C160.048 211.156 159.304 210.988 158.464 210.988C155.8 210.988 154 212.692 154 215.092C154 216.556 154.672 217.756 155.776 218.476C154.816 219.22 154.096 220.18 154.096 221.116C154.096 221.812 154.48 222.364 155.272 222.58C154.36 222.94 153.208 223.684 153.208 224.884C153.208 226.468 155.032 227.452 157.96 227.452C161.656 227.452 163.864 225.916 163.864 223.78C163.864 222.1 162.616 221.284 160.6 221.284H157.024C155.776 221.284 155.392 220.9 155.392 220.252C155.392 219.7 155.752 219.1 156.112 218.668C156.784 219.004 157.576 219.196 158.464 219.196ZM158.464 217.972C156.76 217.972 155.536 216.844 155.536 215.092C155.536 213.34 156.76 212.212 158.464 212.212C160.192 212.212 161.416 213.34 161.416 215.092C161.416 216.844 160.192 217.972 158.464 217.972ZM157.96 226.204C155.776 226.204 154.504 225.556 154.504 224.428C154.504 223.684 155.128 223.012 155.704 222.652H160.384C161.752 222.652 162.4 223.06 162.4 223.972C162.4 225.292 160.744 226.204 157.96 226.204ZM170.229 222.988C172.365 222.988 174.237 222.004 174.237 219.796C174.237 218.164 173.277 217.18 170.877 216.58L169.341 216.196C167.661 215.788 166.797 215.356 166.797 214.156C166.797 212.956 167.781 212.308 169.173 212.308C170.973 212.308 172.173 213.172 172.701 214.732L173.901 213.844C173.325 212.212 171.717 210.988 169.269 210.988C166.893 210.988 165.309 212.236 165.309 214.228C165.309 216.292 167.013 217.06 168.669 217.468L170.229 217.828C171.789 218.188 172.821 218.62 172.821 219.82C172.821 221.02 171.813 221.644 170.277 221.644C167.949 221.644 166.509 220.348 166.149 218.788L164.973 219.676C165.669 221.932 167.877 222.988 170.229 222.988ZM183.756 227.212V219.7C184.14 221.476 185.388 222.988 187.596 222.988C190.596 222.988 192.396 220.612 192.396 216.964C192.396 213.34 190.596 210.94 187.596 210.94C185.388 210.94 184.14 212.452 183.756 214.252V211.228H182.172V227.212H183.756ZM183.756 218.044V215.884C183.756 213.964 184.788 212.284 187.116 212.284C189.204 212.284 190.788 213.724 190.788 216.964C190.788 220.204 189.204 221.644 187.116 221.644C184.788 221.644 183.756 219.964 183.756 218.044ZM196.67 222.748V206.668H195.086V222.748H196.67ZM202.288 222.988C204.592 222.988 206.08 221.212 206.464 219.556V220.78C206.464 222.244 207.232 222.748 208.384 222.748H209.464V221.332H208.792C208.24 221.332 207.976 221.116 207.976 220.516V215.116C207.976 212.548 206.584 210.988 203.896 210.988C201.448 210.988 199.768 212.356 199.048 213.556L200.152 214.66C200.752 213.388 202 212.404 203.728 212.404C205.6 212.404 206.416 213.412 206.416 215.14V215.236L202.048 217.228C200.44 217.948 199.312 218.908 199.312 220.42C199.312 221.956 200.392 222.988 202.288 222.988ZM200.896 220.204C200.896 219.34 201.472 218.764 202.72 218.188L206.464 216.412V218.452C206.464 220.012 204.88 221.668 202.744 221.668C201.616 221.668 200.896 221.164 200.896 220.204ZM213.592 222.748V216.076C213.592 214.084 214.576 212.308 217 212.308C218.992 212.308 219.856 213.46 219.856 215.332V222.748H221.44V214.972C221.44 212.332 219.904 210.988 217.624 210.988C215.32 210.988 214 212.572 213.592 214.444V211.228H212.008V222.748H213.592ZM231.569 209.164V206.668H229.985V209.164H231.569ZM231.569 222.748V211.228H229.985V222.748H231.569ZM239.346 222.988C241.482 222.988 243.354 222.004 243.354 219.796C243.354 218.164 242.394 217.18 239.994 216.58L238.458 216.196C236.778 215.788 235.914 215.356 235.914 214.156C235.914 212.956 236.898 212.308 238.29 212.308C240.09 212.308 241.29 213.172 241.818 214.732L243.018 213.844C242.442 212.212 240.834 210.988 238.386 210.988C236.01 210.988 234.426 212.236 234.426 214.228C234.426 216.292 236.13 217.06 237.786 217.468L239.346 217.828C240.906 218.188 241.938 218.62 241.938 219.82C241.938 221.02 240.93 221.644 239.394 221.644C237.066 221.644 235.626 220.348 235.266 218.788L234.09 219.676C234.786 221.932 236.994 222.988 239.346 222.988ZM255.993 222.988C258.873 222.988 260.673 221.308 261.129 218.98L259.617 218.332C259.377 220.276 258.225 221.668 256.017 221.668C253.737 221.668 252.225 220.036 252.225 216.988C252.225 213.916 253.737 212.284 256.017 212.284C258.225 212.284 259.377 213.7 259.617 215.644L261.129 214.996C260.673 212.668 258.873 210.988 256.017 210.988C252.753 210.988 250.617 213.244 250.617 216.988C250.617 220.732 252.753 222.988 255.993 222.988ZM265.084 222.748V216.076C265.084 214.084 266.452 212.164 268.18 212.164C269.236 212.164 269.668 212.836 269.668 213.58C269.668 214.276 269.38 215.02 269.068 215.38H270.772C270.988 214.996 271.204 214.276 271.204 213.412C271.204 211.828 270.1 210.964 268.756 210.964C266.788 210.964 265.516 212.548 265.084 214.372V211.228H263.5V222.748H265.084ZM277.817 222.988C280.265 222.988 281.801 221.812 282.617 220.396L281.657 219.268C281.153 220.396 280.145 221.668 277.817 221.668C275.537 221.668 273.977 220.228 273.881 217.348H282.665C282.689 217.156 282.737 216.868 282.737 216.58C282.737 213.1 280.769 210.988 277.625 210.988C274.505 210.988 272.369 213.244 272.369 216.988C272.369 220.804 274.601 222.988 277.817 222.988ZM277.625 212.284C279.737 212.284 281.153 213.604 281.297 216.196H273.905C274.121 213.604 275.513 212.284 277.625 212.284ZM287.881 222.988C290.185 222.988 291.673 221.212 292.057 219.556V220.78C292.057 222.244 292.825 222.748 293.977 222.748H295.057V221.332H294.385C293.833 221.332 293.569 221.116 293.569 220.516V215.116C293.569 212.548 292.177 210.988 289.489 210.988C287.041 210.988 285.361 212.356 284.641 213.556L285.745 214.66C286.345 213.388 287.593 212.404 289.321 212.404C291.193 212.404 292.009 213.412 292.009 215.14V215.236L287.641 217.228C286.033 217.948 284.905 218.908 284.905 220.42C284.905 221.956 285.985 222.988 287.881 222.988ZM286.489 220.204C286.489 219.34 287.065 218.764 288.313 218.188L292.057 216.412V218.452C292.057 220.012 290.473 221.668 288.337 221.668C287.209 221.668 286.489 221.164 286.489 220.204ZM301.018 223.012C302.506 223.012 303.634 222.316 304.138 221.476L303.586 219.94C303.202 220.756 302.362 221.5 301.33 221.5C300.322 221.5 299.458 221.044 299.458 219.388V212.452H303.322V211.228H299.458V208.396L297.898 209.572V211.228H296.026V212.452H297.898V219.82C297.898 221.908 299.266 223.012 301.018 223.012ZM310.207 222.988C312.655 222.988 314.191 221.812 315.007 220.396L314.047 219.268C313.543 220.396 312.535 221.668 310.207 221.668C307.927 221.668 306.367 220.228 306.271 217.348H315.055C315.079 217.156 315.127 216.868 315.127 216.58C315.127 213.1 313.159 210.988 310.015 210.988C306.895 210.988 304.759 213.244 304.759 216.988C304.759 220.804 306.991 222.988 310.207 222.988ZM310.015 212.284C312.127 212.284 313.543 213.604 313.687 216.196H306.295C306.511 213.604 307.903 212.284 310.015 212.284ZM322.261 223.012C324.541 223.012 325.765 221.428 326.125 219.604V222.748H327.685V206.668H326.125V214.396C325.765 212.572 324.541 210.988 322.261 210.988C319.261 210.988 317.461 213.364 317.461 216.988C317.461 220.636 319.261 223.012 322.261 223.012ZM319.069 216.988C319.069 213.772 320.653 212.308 322.741 212.308C325.069 212.308 326.125 213.988 326.125 215.908V218.068C326.125 219.988 325.069 221.692 322.741 221.692C320.653 221.692 319.069 220.228 319.069 216.988ZM337.905 222.748V219.724C338.289 221.5 339.537 223.012 341.745 223.012C344.769 223.012 346.569 220.636 346.569 216.988C346.569 213.364 344.769 210.988 341.745 210.988C339.537 210.988 338.289 212.5 337.905 214.276V206.668H336.321V222.748H337.905ZM337.905 218.068V215.908C337.905 213.988 338.937 212.308 341.265 212.308C343.377 212.308 344.961 213.772 344.961 216.988C344.961 220.228 343.377 221.692 341.265 221.692C338.937 221.692 337.905 219.988 337.905 218.068ZM351.584 222.988C353.888 222.988 355.376 221.212 355.76 219.556V220.78C355.76 222.244 356.528 222.748 357.68 222.748H358.76V221.332H358.088C357.536 221.332 357.272 221.116 357.272 220.516V215.116C357.272 212.548 355.88 210.988 353.192 210.988C350.744 210.988 349.064 212.356 348.344 213.556L349.448 214.66C350.048 213.388 351.296 212.404 353.024 212.404C354.896 212.404 355.712 213.412 355.712 215.14V215.236L351.344 217.228C349.736 217.948 348.608 218.908 348.608 220.42C348.608 221.956 349.688 222.988 351.584 222.988ZM350.192 220.204C350.192 219.34 350.768 218.764 352.016 218.188L355.76 216.412V218.452C355.76 220.012 354.176 221.668 352.04 221.668C350.912 221.668 350.192 221.164 350.192 220.204ZM365.369 222.988C367.505 222.988 369.377 222.004 369.377 219.796C369.377 218.164 368.417 217.18 366.017 216.58L364.481 216.196C362.801 215.788 361.937 215.356 361.937 214.156C361.937 212.956 362.921 212.308 364.313 212.308C366.113 212.308 367.313 213.172 367.841 214.732L369.041 213.844C368.465 212.212 366.857 210.988 364.409 210.988C362.033 210.988 360.449 212.236 360.449 214.228C360.449 216.292 362.153 217.06 363.809 217.468L365.369 217.828C366.929 218.188 367.961 218.62 367.961 219.82C367.961 221.02 366.953 221.644 365.417 221.644C363.089 221.644 361.649 220.348 361.289 218.788L360.113 219.676C360.809 221.932 363.017 222.988 365.369 222.988ZM376.606 222.988C379.054 222.988 380.59 221.812 381.406 220.396L380.446 219.268C379.942 220.396 378.934 221.668 376.606 221.668C374.326 221.668 372.766 220.228 372.67 217.348H381.454C381.478 217.156 381.526 216.868 381.526 216.58C381.526 213.1 379.558 210.988 376.414 210.988C373.294 210.988 371.158 213.244 371.158 216.988C371.158 220.804 373.39 222.988 376.606 222.988ZM376.414 212.284C378.526 212.284 379.942 213.604 380.086 216.196H372.694C372.91 213.604 374.302 212.284 376.414 212.284ZM388.66 223.012C390.94 223.012 392.164 221.428 392.524 219.604V222.748H394.084V206.668H392.524V214.396C392.164 212.572 390.94 210.988 388.66 210.988C385.66 210.988 383.86 213.364 383.86 216.988C383.86 220.636 385.66 223.012 388.66 223.012ZM385.468 216.988C385.468 213.772 387.052 212.308 389.14 212.308C391.468 212.308 392.524 213.988 392.524 215.908V218.068C392.524 219.988 391.468 221.692 389.14 221.692C387.052 221.692 385.468 220.228 385.468 216.988ZM407.327 222.988C410.495 222.988 412.727 220.636 412.727 216.988C412.727 213.34 410.495 210.988 407.327 210.988C404.159 210.988 401.951 213.34 401.951 216.988C401.951 220.636 404.159 222.988 407.327 222.988ZM407.327 221.644C405.071 221.644 403.535 220.036 403.535 216.988C403.535 213.916 405.071 212.284 407.327 212.284C409.607 212.284 411.143 213.916 411.143 216.988C411.143 220.036 409.607 221.644 407.327 221.644ZM417.077 222.748V216.076C417.077 214.084 418.061 212.308 420.485 212.308C422.477 212.308 423.341 213.46 423.341 215.332V222.748H424.925V214.972C424.925 212.332 423.389 210.988 421.109 210.988C418.805 210.988 417.485 212.572 417.077 214.444V211.228H415.493V222.748H417.077ZM434.765 226.804C436.325 226.804 437.453 225.964 438.125 224.116L442.997 211.228H441.341L438.461 219.124L437.621 221.5L436.805 219.124L433.901 211.228H432.221L436.445 222.364L437.333 222.34L436.901 223.492C436.397 224.908 435.725 225.412 434.789 225.412C433.733 225.412 433.085 224.764 432.605 223.828L431.717 224.98C432.149 225.844 433.205 226.804 434.765 226.804ZM449.069 222.988C452.237 222.988 454.469 220.636 454.469 216.988C454.469 213.34 452.237 210.988 449.069 210.988C445.901 210.988 443.693 213.34 443.693 216.988C443.693 220.636 445.901 222.988 449.069 222.988ZM449.069 221.644C446.813 221.644 445.277 220.036 445.277 216.988C445.277 213.916 446.813 212.284 449.069 212.284C451.349 212.284 452.885 213.916 452.885 216.988C452.885 220.036 451.349 221.644 449.069 221.644ZM460.931 222.988C463.307 222.988 464.603 221.38 465.011 219.46V222.748H466.571V211.228H465.011V217.876C465.011 219.892 464.051 221.644 461.555 221.644C459.587 221.644 458.723 220.492 458.723 218.644V211.228H457.163V218.98C457.163 221.644 458.675 222.988 460.931 222.988ZM471.522 222.748V216.076C471.522 214.084 472.89 212.164 474.618 212.164C475.674 212.164 476.106 212.836 476.106 213.58C476.106 214.276 475.818 215.02 475.506 215.38H477.21C477.426 214.996 477.642 214.276 477.642 213.412C477.642 211.828 476.538 210.964 475.194 210.964C473.226 210.964 471.954 212.548 471.522 214.372V211.228H469.938V222.748H471.522ZM6.552 267.748L10.896 256.228H9.216L6.72 263.236L5.616 266.548L4.464 263.236L1.968 256.228H0.24L4.584 267.748H6.552ZM14.9048 267.988C17.2088 267.988 18.6968 266.212 19.0808 264.556V265.78C19.0808 267.244 19.8488 267.748 21.0008 267.748H22.0808V266.332H21.4088C20.8568 266.332 20.5928 266.116 20.5928 265.516V260.116C20.5928 257.548 19.2008 255.988 16.5128 255.988C14.0648 255.988 12.3848 257.356 11.6648 258.556L12.7688 259.66C13.3688 258.388 14.6168 257.404 16.3448 257.404C18.2168 257.404 19.0328 258.412 19.0328 260.14V260.236L14.6648 262.228C13.0568 262.948 11.9288 263.908 11.9288 265.42C11.9288 266.956 13.0088 267.988 14.9048 267.988ZM13.5128 265.204C13.5128 264.34 14.0888 263.764 15.3368 263.188L19.0808 261.412V263.452C19.0808 265.012 17.4968 266.668 15.3608 266.668C14.2328 266.668 13.5128 266.164 13.5128 265.204ZM26.2093 267.748V251.668H24.6253V267.748H26.2093ZM33.2666 267.988C35.6426 267.988 36.9386 266.38 37.3466 264.46V267.748H38.9066V256.228H37.3466V262.876C37.3466 264.892 36.3866 266.644 33.8906 266.644C31.9226 266.644 31.0586 265.492 31.0586 263.644V256.228H29.4986V263.98C29.4986 266.644 31.0106 267.988 33.2666 267.988ZM47.0509 267.988C49.4989 267.988 51.0349 266.812 51.8509 265.396L50.8909 264.268C50.3869 265.396 49.3789 266.668 47.0509 266.668C44.7709 266.668 43.2109 265.228 43.1149 262.348H51.8989C51.9229 262.156 51.9709 261.868 51.9709 261.58C51.9709 258.1 50.0029 255.988 46.8589 255.988C43.7389 255.988 41.6029 258.244 41.6029 261.988C41.6029 265.804 43.8349 267.988 47.0509 267.988ZM46.8589 257.284C48.9709 257.284 50.3869 258.604 50.5309 261.196H43.1389C43.3549 258.604 44.7469 257.284 46.8589 257.284ZM58.9944 267.988C61.1304 267.988 63.0024 267.004 63.0024 264.796C63.0024 263.164 62.0424 262.18 59.6424 261.58L58.1064 261.196C56.4264 260.788 55.5624 260.356 55.5624 259.156C55.5624 257.956 56.5464 257.308 57.9384 257.308C59.7384 257.308 60.9384 258.172 61.4664 259.732L62.6664 258.844C62.0904 257.212 60.4824 255.988 58.0344 255.988C55.6584 255.988 54.0744 257.236 54.0744 259.228C54.0744 261.292 55.7784 262.06 57.4344 262.468L58.9944 262.828C60.5544 263.188 61.5864 263.62 61.5864 264.82C61.5864 266.02 60.5784 266.644 59.0424 266.644C56.7144 266.644 55.2744 265.348 54.9144 263.788L53.7384 264.676C54.4344 266.932 56.6424 267.988 58.9944 267.988ZM67.1981 267.748V264.916H65.3021V267.748H67.1981ZM80.5755 267.748L83.9595 256.42L84.8475 253.012L85.7355 256.42L89.1195 267.748H90.9675L95.6235 251.668H93.8475L90.7755 262.876L90.0795 266.26L89.2395 262.924L85.8795 251.668H83.8875L80.4795 262.924L79.6155 266.26L78.9195 262.876L75.9195 251.668H74.0955L78.7275 267.748H80.5755ZM101.402 267.988C103.85 267.988 105.386 266.812 106.202 265.396L105.242 264.268C104.738 265.396 103.73 266.668 101.402 266.668C99.1224 266.668 97.5624 265.228 97.4664 262.348H106.25C106.274 262.156 106.322 261.868 106.322 261.58C106.322 258.1 104.354 255.988 101.21 255.988C98.0904 255.988 95.9544 258.244 95.9544 261.988C95.9544 265.804 98.1864 267.988 101.402 267.988ZM101.21 257.284C103.322 257.284 104.738 258.604 104.882 261.196H97.4904C97.7064 258.604 99.0984 257.284 101.21 257.284ZM118.542 268.012C120.822 268.012 122.046 266.428 122.406 264.604V267.748H123.966V251.668H122.406V259.396C122.046 257.572 120.822 255.988 118.542 255.988C115.542 255.988 113.742 258.364 113.742 261.988C113.742 265.636 115.542 268.012 118.542 268.012ZM115.35 261.988C115.35 258.772 116.934 257.308 119.022 257.308C121.35 257.308 122.406 258.988 122.406 260.908V263.068C122.406 264.988 121.35 266.692 119.022 266.692C116.934 266.692 115.35 265.228 115.35 261.988ZM131.936 267.988C135.104 267.988 137.336 265.636 137.336 261.988C137.336 258.34 135.104 255.988 131.936 255.988C128.768 255.988 126.56 258.34 126.56 261.988C126.56 265.636 128.768 267.988 131.936 267.988ZM131.936 266.644C129.68 266.644 128.144 265.036 128.144 261.988C128.144 258.916 129.68 257.284 131.936 257.284C134.216 257.284 135.752 258.916 135.752 261.988C135.752 265.036 134.216 266.644 131.936 266.644ZM147.006 267.748V261.076C147.006 259.084 147.99 257.308 150.414 257.308C152.406 257.308 153.27 258.46 153.27 260.332V267.748H154.854V259.972C154.854 257.332 153.318 255.988 151.038 255.988C148.734 255.988 147.414 257.572 147.006 259.444V256.228H145.422V267.748H147.006ZM162.686 267.988C165.854 267.988 168.086 265.636 168.086 261.988C168.086 258.34 165.854 255.988 162.686 255.988C159.518 255.988 157.31 258.34 157.31 261.988C157.31 265.636 159.518 267.988 162.686 267.988ZM162.686 266.644C160.43 266.644 158.894 265.036 158.894 261.988C158.894 258.916 160.43 257.284 162.686 257.284C164.966 257.284 166.502 258.916 166.502 261.988C166.502 265.036 164.966 266.644 162.686 266.644ZM174.456 268.012C175.944 268.012 177.072 267.316 177.576 266.476L177.024 264.94C176.64 265.756 175.8 266.5 174.768 266.5C173.76 266.5 172.896 266.044 172.896 264.388V257.452H176.76V256.228H172.896V253.396L171.336 254.572V256.228H169.464V257.452H171.336V264.82C171.336 266.908 172.704 268.012 174.456 268.012ZM186.358 267.748V251.668H184.774V267.748H186.358ZM194.543 267.988C196.991 267.988 198.527 266.812 199.343 265.396L198.383 264.268C197.879 265.396 196.871 266.668 194.543 266.668C192.263 266.668 190.703 265.228 190.607 262.348H199.391C199.415 262.156 199.463 261.868 199.463 261.58C199.463 258.1 197.495 255.988 194.351 255.988C191.231 255.988 189.095 258.244 189.095 261.988C189.095 265.804 191.327 267.988 194.543 267.988ZM194.351 257.284C196.463 257.284 197.879 258.604 198.023 261.196H190.631C190.847 258.604 192.239 257.284 194.351 257.284ZM204.608 267.988C206.912 267.988 208.4 266.212 208.784 264.556V265.78C208.784 267.244 209.552 267.748 210.704 267.748H211.784V266.332H211.112C210.56 266.332 210.296 266.116 210.296 265.516V260.116C210.296 257.548 208.904 255.988 206.216 255.988C203.768 255.988 202.088 257.356 201.368 258.556L202.472 259.66C203.072 258.388 204.32 257.404 206.048 257.404C207.92 257.404 208.736 258.412 208.736 260.14V260.236L204.368 262.228C202.76 262.948 201.632 263.908 201.632 265.42C201.632 266.956 202.712 267.988 204.608 267.988ZM203.216 265.204C203.216 264.34 203.792 263.764 205.04 263.188L208.784 261.412V263.452C208.784 265.012 207.2 266.668 205.064 266.668C203.936 266.668 203.216 266.164 203.216 265.204ZM218.685 267.748L223.029 256.228H221.349L218.853 263.236L217.749 266.548L216.597 263.236L214.101 256.228H212.373L216.717 267.748H218.685ZM229.231 267.988C231.679 267.988 233.215 266.812 234.031 265.396L233.071 264.268C232.567 265.396 231.559 266.668 229.231 266.668C226.951 266.668 225.391 265.228 225.295 262.348H234.079C234.103 262.156 234.151 261.868 234.151 261.58C234.151 258.1 232.183 255.988 229.039 255.988C225.919 255.988 223.783 258.244 223.783 261.988C223.783 265.804 226.015 267.988 229.231 267.988ZM229.039 257.284C231.151 257.284 232.567 258.604 232.711 261.196H225.319C225.535 258.604 226.927 257.284 229.039 257.284ZM244.499 267.988C246.803 267.988 248.291 266.212 248.675 264.556V265.78C248.675 267.244 249.443 267.748 250.595 267.748H251.675V266.332H251.003C250.451 266.332 250.187 266.116 250.187 265.516V260.116C250.187 257.548 248.795 255.988 246.107 255.988C243.659 255.988 241.979 257.356 241.259 258.556L242.363 259.66C242.963 258.388 244.211 257.404 245.939 257.404C247.811 257.404 248.627 258.412 248.627 260.14V260.236L244.259 262.228C242.651 262.948 241.523 263.908 241.523 265.42C241.523 266.956 242.603 267.988 244.499 267.988ZM243.107 265.204C243.107 264.34 243.683 263.764 244.931 263.188L248.675 261.412V263.452C248.675 265.012 247.091 266.668 244.955 266.668C243.827 266.668 243.107 266.164 243.107 265.204ZM255.803 267.748V261.076C255.803 259.084 256.787 257.308 259.211 257.308C261.203 257.308 262.067 258.46 262.067 260.332V267.748H263.651V259.972C263.651 257.332 262.115 255.988 259.835 255.988C257.531 255.988 256.211 257.572 255.803 259.444V256.228H254.219V267.748H255.803ZM267.843 271.804C269.403 271.804 270.531 270.964 271.203 269.116L276.075 256.228H274.419L271.539 264.124L270.699 266.5L269.883 264.124L266.979 256.228H265.299L269.523 267.364L270.411 267.34L269.979 268.492C269.475 269.908 268.803 270.412 267.867 270.412C266.811 270.412 266.163 269.764 265.683 268.828L264.795 269.98C265.227 270.844 266.283 271.804 267.843 271.804ZM279.452 267.748V264.724C279.836 266.5 281.084 268.012 283.292 268.012C286.316 268.012 288.116 265.636 288.116 261.988C288.116 258.364 286.316 255.988 283.292 255.988C281.084 255.988 279.836 257.5 279.452 259.276V251.668H277.868V267.748H279.452ZM279.452 263.068V260.908C279.452 258.988 280.484 257.308 282.812 257.308C284.924 257.308 286.508 258.772 286.508 261.988C286.508 265.228 284.924 266.692 282.812 266.692C280.484 266.692 279.452 264.988 279.452 263.068ZM295.601 267.988C298.769 267.988 301.001 265.636 301.001 261.988C301.001 258.34 298.769 255.988 295.601 255.988C292.433 255.988 290.225 258.34 290.225 261.988C290.225 265.636 292.433 267.988 295.601 267.988ZM295.601 266.644C293.345 266.644 291.809 265.036 291.809 261.988C291.809 258.916 293.345 257.284 295.601 257.284C297.881 257.284 299.417 258.916 299.417 261.988C299.417 265.036 297.881 266.644 295.601 266.644ZM308.128 268.012C310.408 268.012 311.632 266.428 311.992 264.604V267.748H313.552V251.668H311.992V259.396C311.632 257.572 310.408 255.988 308.128 255.988C305.128 255.988 303.328 258.364 303.328 261.988C303.328 265.636 305.128 268.012 308.128 268.012ZM304.936 261.988C304.936 258.772 306.52 257.308 308.608 257.308C310.936 257.308 311.992 258.988 311.992 260.908V263.068C311.992 264.988 310.936 266.692 308.608 266.692C306.52 266.692 304.936 265.228 304.936 261.988ZM318.21 271.804C319.77 271.804 320.898 270.964 321.57 269.116L326.442 256.228H324.786L321.906 264.124L321.066 266.5L320.25 264.124L317.346 256.228H315.666L319.89 267.364L320.778 267.34L320.346 268.492C319.842 269.908 319.17 270.412 318.234 270.412C317.178 270.412 316.53 269.764 316.05 268.828L315.162 269.98C315.594 270.844 316.65 271.804 318.21 271.804ZM335.092 267.748V264.724C335.476 266.5 336.724 268.012 338.932 268.012C341.956 268.012 343.756 265.636 343.756 261.988C343.756 258.364 341.956 255.988 338.932 255.988C336.724 255.988 335.476 257.5 335.092 259.276V251.668H333.508V267.748H335.092ZM335.092 263.068V260.908C335.092 258.988 336.124 257.308 338.452 257.308C340.564 257.308 342.148 258.772 342.148 261.988C342.148 265.228 340.564 266.692 338.452 266.692C336.124 266.692 335.092 264.988 335.092 263.068ZM351.457 267.988C353.905 267.988 355.441 266.812 356.257 265.396L355.297 264.268C354.793 265.396 353.785 266.668 351.457 266.668C349.177 266.668 347.617 265.228 347.521 262.348H356.305C356.329 262.156 356.377 261.868 356.377 261.58C356.377 258.1 354.409 255.988 351.265 255.988C348.145 255.988 346.009 258.244 346.009 261.988C346.009 265.804 348.241 267.988 351.457 267.988ZM351.265 257.284C353.377 257.284 354.793 258.604 354.937 261.196H347.545C347.761 258.604 349.153 257.284 351.265 257.284ZM360.78 267.748V261.076C360.78 259.084 361.788 257.308 364.26 257.308C366.228 257.308 367.044 258.46 367.044 260.332V267.748H368.628V259.972C368.628 257.332 367.14 255.988 364.908 255.988C362.556 255.988 361.188 257.572 360.78 259.444V251.668H359.196V267.748H360.78ZM373.483 254.164V251.668H371.899V254.164H373.483ZM373.483 267.748V256.228H371.899V267.748H373.483ZM378.428 267.748V261.076C378.428 259.084 379.412 257.308 381.836 257.308C383.828 257.308 384.692 258.46 384.692 260.332V267.748H386.276V259.972C386.276 257.332 384.74 255.988 382.46 255.988C380.156 255.988 378.836 257.572 378.428 259.444V256.228H376.844V267.748H378.428ZM393.628 268.012C395.908 268.012 397.132 266.428 397.492 264.604V267.748H399.052V251.668H397.492V259.396C397.132 257.572 395.908 255.988 393.628 255.988C390.628 255.988 388.828 258.364 388.828 261.988C388.828 265.636 390.628 268.012 393.628 268.012ZM390.436 261.988C390.436 258.772 392.02 257.308 394.108 257.308C396.436 257.308 397.492 258.988 397.492 260.908V263.068C397.492 264.988 396.436 266.692 394.108 266.692C392.02 266.692 390.436 265.228 390.436 261.988ZM409.944 267.988C412.248 267.988 413.736 266.212 414.12 264.556V265.78C414.12 267.244 414.888 267.748 416.04 267.748H417.12V266.332H416.448C415.896 266.332 415.632 266.116 415.632 265.516V260.116C415.632 257.548 414.24 255.988 411.552 255.988C409.104 255.988 407.424 257.356 406.704 258.556L407.808 259.66C408.408 258.388 409.656 257.404 411.384 257.404C413.256 257.404 414.072 258.412 414.072 260.14V260.236L409.704 262.228C408.096 262.948 406.968 263.908 406.968 265.42C406.968 266.956 408.048 267.988 409.944 267.988ZM408.552 265.204C408.552 264.34 409.128 263.764 410.376 263.188L414.12 261.412V263.452C414.12 265.012 412.536 266.668 410.4 266.668C409.272 266.668 408.552 266.164 408.552 265.204ZM421.248 267.748V261.076C421.248 259.084 422.232 257.308 424.656 257.308C426.648 257.308 427.512 258.46 427.512 260.332V267.748H429.096V259.972C429.096 257.332 427.56 255.988 425.28 255.988C422.976 255.988 421.656 257.572 421.248 259.444V256.228H419.664V267.748H421.248ZM436.449 268.012C438.729 268.012 439.953 266.428 440.313 264.604V267.748H441.873V251.668H440.313V259.396C439.953 257.572 438.729 255.988 436.449 255.988C433.449 255.988 431.649 258.364 431.649 261.988C431.649 265.636 433.449 268.012 436.449 268.012ZM433.257 261.988C433.257 258.772 434.841 257.308 436.929 257.308C439.257 257.308 440.313 258.988 440.313 260.908V263.068C440.313 264.988 439.257 266.692 436.929 266.692C434.841 266.692 433.257 265.228 433.257 261.988ZM454.42 267.748L456.868 260.068L457.54 257.548L458.188 260.068L460.636 267.748H462.676L465.82 256.228H464.044L462.172 264.004L461.644 266.572L460.948 264.004L458.5 256.228H456.556L454.108 264.004L453.412 266.572L452.884 264.004L450.988 256.228H449.236L452.38 267.748H454.42ZM472.184 267.988C474.632 267.988 476.168 266.812 476.984 265.396L476.024 264.268C475.52 265.396 474.512 266.668 472.184 266.668C469.904 266.668 468.344 265.228 468.248 262.348H477.032C477.056 262.156 477.104 261.868 477.104 261.58C477.104 258.1 475.136 255.988 471.992 255.988C468.872 255.988 466.736 258.244 466.736 261.988C466.736 265.804 468.968 267.988 472.184 267.988ZM471.992 257.284C474.104 257.284 475.52 258.604 475.664 261.196H468.272C468.488 258.604 469.88 257.284 471.992 257.284ZM5.376 312.988C7.752 312.988 9.048 311.38 9.456 309.46V312.748H11.016V301.228H9.456V307.876C9.456 309.892 8.496 311.644 6 311.644C4.032 311.644 3.168 310.492 3.168 308.644V301.228H1.608V308.98C1.608 311.644 3.12 312.988 5.376 312.988ZM15.9671 312.748V306.076C15.9671 304.084 16.9511 302.308 19.3751 302.308C21.3671 302.308 22.2311 303.46 22.2311 305.332V312.748H23.8151V304.972C23.8151 302.332 22.2791 300.988 19.9991 300.988C17.6951 300.988 16.3751 302.572 15.9671 304.444V301.228H14.3831V312.748H15.9671ZM31.1674 313.012C33.4474 313.012 34.6714 311.428 35.0314 309.604V312.748H36.5914V296.668H35.0314V304.396C34.6714 302.572 33.4474 300.988 31.1674 300.988C28.1674 300.988 26.3674 303.364 26.3674 306.988C26.3674 310.636 28.1674 313.012 31.1674 313.012ZM27.9754 306.988C27.9754 303.772 29.5594 302.308 31.6474 302.308C33.9754 302.308 35.0314 303.988 35.0314 305.908V308.068C35.0314 309.988 33.9754 311.692 31.6474 311.692C29.5594 311.692 27.9754 310.228 27.9754 306.988ZM44.7774 312.988C47.2254 312.988 48.7614 311.812 49.5774 310.396L48.6174 309.268C48.1134 310.396 47.1054 311.668 44.7774 311.668C42.4974 311.668 40.9374 310.228 40.8414 307.348H49.6254C49.6494 307.156 49.6974 306.868 49.6974 306.58C49.6974 303.1 47.7294 300.988 44.5854 300.988C41.4654 300.988 39.3294 303.244 39.3294 306.988C39.3294 310.804 41.5614 312.988 44.7774 312.988ZM44.5854 302.284C46.6974 302.284 48.1134 303.604 48.2574 306.196H40.8654C41.0814 303.604 42.4734 302.284 44.5854 302.284ZM54.0531 312.748V306.076C54.0531 304.084 55.4211 302.164 57.1491 302.164C58.2051 302.164 58.6371 302.836 58.6371 303.58C58.6371 304.276 58.3491 305.02 58.0371 305.38H59.7411C59.9571 304.996 60.1731 304.276 60.1731 303.412C60.1731 301.828 59.0691 300.964 57.7251 300.964C55.7571 300.964 54.4851 302.548 54.0531 304.372V301.228H52.4691V312.748H54.0531ZM66.4007 312.988C68.5367 312.988 70.4087 312.004 70.4087 309.796C70.4087 308.164 69.4487 307.18 67.0487 306.58L65.5127 306.196C63.8327 305.788 62.9687 305.356 62.9687 304.156C62.9687 302.956 63.9527 302.308 65.3447 302.308C67.1447 302.308 68.3447 303.172 68.8727 304.732L70.0727 303.844C69.4967 302.212 67.8887 300.988 65.4407 300.988C63.0647 300.988 61.4807 302.236 61.4807 304.228C61.4807 306.292 63.1847 307.06 64.8407 307.468L66.4007 307.828C67.9607 308.188 68.9927 308.62 68.9927 309.82C68.9927 311.02 67.9847 311.644 66.4487 311.644C64.1207 311.644 62.6807 310.348 62.3207 308.788L61.1447 309.676C61.8407 311.932 64.0487 312.988 66.4007 312.988ZM76.5574 313.012C78.0454 313.012 79.1734 312.316 79.6774 311.476L79.1254 309.94C78.7414 310.756 77.9014 311.5 76.8694 311.5C75.8614 311.5 74.9974 311.044 74.9974 309.388V302.452H78.8614V301.228H74.9974V298.396L73.4374 299.572V301.228H71.5654V302.452H73.4374V309.82C73.4374 311.908 74.8054 313.012 76.5574 313.012ZM83.6938 312.988C85.9978 312.988 87.4858 311.212 87.8698 309.556V310.78C87.8698 312.244 88.6378 312.748 89.7898 312.748H90.8698V311.332H90.1978C89.6458 311.332 89.3818 311.116 89.3818 310.516V305.116C89.3818 302.548 87.9898 300.988 85.3018 300.988C82.8538 300.988 81.1738 302.356 80.4538 303.556L81.5578 304.66C82.1578 303.388 83.4058 302.404 85.1338 302.404C87.0058 302.404 87.8218 303.412 87.8218 305.14V305.236L83.4538 307.228C81.8458 307.948 80.7178 308.908 80.7178 310.42C80.7178 311.956 81.7978 312.988 83.6938 312.988ZM82.3018 310.204C82.3018 309.34 82.8778 308.764 84.1258 308.188L87.8698 306.412V308.452C87.8698 310.012 86.2858 311.668 84.1498 311.668C83.0218 311.668 82.3018 311.164 82.3018 310.204ZM94.9984 312.748V306.076C94.9984 304.084 95.9824 302.308 98.4064 302.308C100.398 302.308 101.262 303.46 101.262 305.332V312.748H102.846V304.972C102.846 302.332 101.31 300.988 99.0304 300.988C96.7264 300.988 95.4064 302.572 94.9984 304.444V301.228H93.4144V312.748H94.9984ZM110.199 313.012C112.479 313.012 113.703 311.428 114.063 309.604V312.748H115.623V296.668H114.063V304.396C113.703 302.572 112.479 300.988 110.199 300.988C107.199 300.988 105.399 303.364 105.399 306.988C105.399 310.636 107.199 313.012 110.199 313.012ZM107.007 306.988C107.007 303.772 108.591 302.308 110.679 302.308C113.007 302.308 114.063 303.988 114.063 305.908V308.068C114.063 309.988 113.007 311.692 110.679 311.692C108.591 311.692 107.007 310.228 107.007 306.988ZM128.026 313.012C129.514 313.012 130.642 312.316 131.146 311.476L130.594 309.94C130.21 310.756 129.37 311.5 128.338 311.5C127.33 311.5 126.466 311.044 126.466 309.388V302.452H130.33V301.228H126.466V298.396L124.906 299.572V301.228H123.034V302.452H124.906V309.82C124.906 311.908 126.274 313.012 128.026 313.012ZM134.866 312.748V306.076C134.866 304.084 135.874 302.308 138.346 302.308C140.314 302.308 141.13 303.46 141.13 305.332V312.748H142.714V304.972C142.714 302.332 141.226 300.988 138.994 300.988C136.642 300.988 135.274 302.572 134.866 304.444V296.668H133.282V312.748H134.866ZM150.762 312.988C153.21 312.988 154.746 311.812 155.562 310.396L154.602 309.268C154.098 310.396 153.09 311.668 150.762 311.668C148.482 311.668 146.922 310.228 146.826 307.348H155.61C155.634 307.156 155.682 306.868 155.682 306.58C155.682 303.1 153.714 300.988 150.57 300.988C147.45 300.988 145.314 303.244 145.314 306.988C145.314 310.804 147.546 312.988 150.762 312.988ZM150.57 302.284C152.682 302.284 154.098 303.604 154.242 306.196H146.85C147.066 303.604 148.458 302.284 150.57 302.284ZM162.705 312.988C164.841 312.988 166.713 312.004 166.713 309.796C166.713 308.164 165.753 307.18 163.353 306.58L161.817 306.196C160.137 305.788 159.273 305.356 159.273 304.156C159.273 302.956 160.257 302.308 161.649 302.308C163.449 302.308 164.649 303.172 165.177 304.732L166.377 303.844C165.801 302.212 164.193 300.988 161.745 300.988C159.369 300.988 157.785 302.236 157.785 304.228C157.785 306.292 159.489 307.06 161.145 307.468L162.705 307.828C164.265 308.188 165.297 308.62 165.297 309.82C165.297 311.02 164.289 311.644 162.753 311.644C160.425 311.644 158.985 310.348 158.625 308.788L157.449 309.676C158.145 311.932 160.353 312.988 162.705 312.988ZM173.942 312.988C176.39 312.988 177.926 311.812 178.742 310.396L177.782 309.268C177.278 310.396 176.27 311.668 173.942 311.668C171.662 311.668 170.102 310.228 170.006 307.348H178.79C178.814 307.156 178.862 306.868 178.862 306.58C178.862 303.1 176.894 300.988 173.75 300.988C170.63 300.988 168.494 303.244 168.494 306.988C168.494 310.804 170.726 312.988 173.942 312.988ZM173.75 302.284C175.862 302.284 177.278 303.604 177.422 306.196H170.03C170.246 303.604 171.638 302.284 173.75 302.284ZM191.825 312.748L196.169 301.228H194.489L191.993 308.236L190.889 311.548L189.737 308.236L187.241 301.228H185.513L189.857 312.748H191.825ZM200.178 312.988C202.482 312.988 203.97 311.212 204.354 309.556V310.78C204.354 312.244 205.122 312.748 206.274 312.748H207.354V311.332H206.682C206.13 311.332 205.866 311.116 205.866 310.516V305.116C205.866 302.548 204.474 300.988 201.786 300.988C199.338 300.988 197.658 302.356 196.938 303.556L198.042 304.66C198.642 303.388 199.89 302.404 201.618 302.404C203.49 302.404 204.306 303.412 204.306 305.14V305.236L199.938 307.228C198.33 307.948 197.202 308.908 197.202 310.42C197.202 311.956 198.282 312.988 200.178 312.988ZM198.786 310.204C198.786 309.34 199.362 308.764 200.61 308.188L204.354 306.412V308.452C204.354 310.012 202.77 311.668 200.634 311.668C199.506 311.668 198.786 311.164 198.786 310.204ZM211.483 312.748V296.668H209.899V312.748H211.483ZM218.54 312.988C220.916 312.988 222.212 311.38 222.62 309.46V312.748H224.18V301.228H222.62V307.876C222.62 309.892 221.66 311.644 219.164 311.644C217.196 311.644 216.332 310.492 216.332 308.644V301.228H214.772V308.98C214.772 311.644 216.284 312.988 218.54 312.988ZM232.324 312.988C234.772 312.988 236.308 311.812 237.124 310.396L236.164 309.268C235.66 310.396 234.652 311.668 232.324 311.668C230.044 311.668 228.484 310.228 228.388 307.348H237.172C237.196 307.156 237.244 306.868 237.244 306.58C237.244 303.1 235.276 300.988 232.132 300.988C229.012 300.988 226.876 303.244 226.876 306.988C226.876 310.804 229.108 312.988 232.324 312.988ZM232.132 302.284C234.244 302.284 235.66 303.604 235.804 306.196H228.412C228.628 303.604 230.02 302.284 232.132 302.284ZM244.268 312.988C246.404 312.988 248.276 312.004 248.276 309.796C248.276 308.164 247.316 307.18 244.916 306.58L243.38 306.196C241.7 305.788 240.836 305.356 240.836 304.156C240.836 302.956 241.82 302.308 243.212 302.308C245.012 302.308 246.212 303.172 246.74 304.732L247.94 303.844C247.364 302.212 245.756 300.988 243.308 300.988C240.932 300.988 239.348 302.236 239.348 304.228C239.348 306.292 241.052 307.06 242.708 307.468L244.268 307.828C245.828 308.188 246.86 308.62 246.86 309.82C246.86 311.02 245.852 311.644 244.316 311.644C241.988 311.644 240.548 310.348 240.188 308.788L239.012 309.676C239.708 311.932 241.916 312.988 244.268 312.988Z" fill="#3D0072"/>
</svg>
