<svg width="24" height="24" viewBox="0 0 24 24" fill="none" xmlns="http://www.w3.org/2000/svg">
<path d="M12 21C16.9706 21 21 16.9706 21 12C21 7.02944 16.9706 3 12 3C7.02944 3 3 7.02944 3 12C3 16.9706 7.02944 21 12 21Z" stroke="#3D0072" stroke-width="2" stroke-linecap="round" stroke-linejoin="round"/>
<path d="M3.60156 9H20.4016M3.60156 15H20.4016M11.5016 3C9.8169 5.69961 8.92377 8.81787 8.92377 12C8.92377 15.1821 9.8169 18.3004 11.5016 21M12.5016 3C14.1862 5.69961 15.0794 8.81787 15.0794 12C15.0794 15.1821 14.1862 18.3004 12.5016 21" stroke="#3D0072" stroke-width="2" stroke-linecap="round" stroke-linejoin="round"/>
</svg>
