<svg width="66" height="65" viewBox="0 0 66 65" fill="none" xmlns="http://www.w3.org/2000/svg">
<rect x="0.515625" width="65" height="65" rx="5.99706" fill="white"/>
<path d="M33.2387 39.1665C33.0693 39.1665 32.9161 39.1399 32.7789 39.0865C32.6408 39.034 32.5083 38.9548 32.3813 38.849C31.4709 38.0445 30.7511 37.0439 30.2218 35.8473C29.6925 34.6515 29.4279 33.4503 29.4279 32.2435C29.4279 31.0368 29.6925 29.8351 30.2218 28.6385C30.7511 27.4427 31.4603 26.4426 32.3495 25.6381C32.4765 25.5322 32.6141 25.4475 32.7623 25.384C32.9105 25.3205 33.0693 25.2887 33.2387 25.2887C33.4081 25.2887 33.5618 25.3205 33.6998 25.384C33.837 25.4475 33.9691 25.5322 34.0961 25.6381C35.0065 26.4426 35.7263 27.4427 36.2556 28.6385C36.7849 29.8351 37.0495 31.0368 37.0495 32.2435C37.0495 33.4503 36.7849 34.6515 36.2556 35.8473C35.7263 37.0439 35.0171 38.0445 34.1279 38.849C34.022 38.9548 33.8899 39.034 33.7316 39.0865C33.5724 39.1399 33.4081 39.1665 33.2387 39.1665ZM38.3198 41.1355C37.7482 41.1355 37.1927 41.0826 36.6532 40.9767C36.1129 40.8708 35.5887 40.7121 35.0806 40.5003C36.2662 39.717 37.2083 38.4891 37.907 36.8165C38.6056 35.144 38.955 33.6197 38.955 32.2435C38.955 30.8674 38.6056 29.343 37.907 27.6705C37.2083 25.998 36.2662 24.77 35.0806 23.9867C35.5887 23.775 36.1129 23.6162 36.6532 23.5103C37.1927 23.4045 37.7482 23.3516 38.3198 23.3516C40.7969 23.3516 42.8979 24.2141 44.6229 25.9391C46.3488 27.665 47.2118 29.7665 47.2118 32.2435C47.2118 34.7206 46.3488 36.8216 44.6229 38.5466C42.8979 40.2725 40.7969 41.1355 38.3198 41.1355ZM28.1576 41.1355C25.6805 41.1355 23.5795 40.2725 21.8545 38.5466C20.1286 36.8216 19.2656 34.7206 19.2656 32.2435C19.2656 29.7665 20.1286 27.665 21.8545 25.9391C23.5795 24.2141 25.6805 23.3516 28.1576 23.3516C28.7292 23.3516 29.2847 23.4045 29.8242 23.5103C30.3645 23.6162 30.8887 23.775 31.3968 23.9867C30.2112 24.77 29.2691 25.998 28.5704 27.6705C27.8718 29.343 27.5224 30.8674 27.5224 32.2435C27.5224 33.6197 27.8718 35.144 28.5704 36.8165C29.2691 38.4891 30.2112 39.717 31.3968 40.5003C30.8887 40.7121 30.3645 40.8708 29.8242 40.9767C29.2847 41.0826 28.7292 41.1355 28.1576 41.1355Z" fill="#156AF4"/>
</svg>
