<svg width="720" height="723" viewBox="0 0 720 723" fill="none" xmlns="http://www.w3.org/2000/svg">
<rect width="724" height="723" fill="#069669"/>
<path d="M241.078 637.398C300.182 584.697 338.048 512.256 347.582 433.643C357.117 355.031 337.667 275.638 292.874 210.335C248.082 145.032 181.019 98.298 104.247 78.8848C27.4749 59.4716 -53.7414 68.7113 -124.191 104.873C-194.641 141.035 -249.492 201.639 -278.471 275.335C-307.45 349.031 -308.57 430.763 -281.621 505.225C-254.672 579.687 -201.502 641.771 -132.069 679.85C-62.6369 717.928 18.2957 729.39 95.571 712.087L61.1479 558.348C21.2747 567.276 -20.4856 561.362 -56.312 541.714C-92.1384 522.066 -119.573 490.031 -133.479 451.61C-147.384 413.188 -146.806 371.015 -131.854 332.989C-116.901 294.963 -88.5982 263.692 -52.2469 245.033C-15.8957 226.374 26.011 221.606 65.6246 231.623C105.238 241.64 139.842 265.754 162.954 299.45C186.066 333.146 196.103 374.111 191.183 414.674C186.263 455.238 166.725 492.616 136.228 519.81L241.078 637.398Z" fill="#079C6E"/>
</svg>
