<svg width="561" height="307" viewBox="0 0 561 307" fill="none" xmlns="http://www.w3.org/2000/svg">
<rect x="-2" width="563" height="308" rx="16" fill="#FFF7B2"/>
<path opacity="0.5" d="M172.085 305.599C213.403 336.09 264.199 350.851 315.191 347.184C366.184 343.517 413.969 321.667 449.814 285.627C485.66 249.586 507.173 201.762 510.423 150.892C513.672 100.022 498.442 49.5029 467.514 8.56527C436.586 -32.3724 392.026 -60.9952 341.975 -72.0733C291.925 -83.1513 239.725 -75.945 194.915 -51.7709C150.105 -27.5969 115.675 11.9308 97.9178 59.5896C80.1603 107.248 80.2603 159.857 98.1994 207.801L220.167 163.487C213.192 144.845 213.153 124.39 220.058 105.859C226.962 87.3277 240.349 71.9583 257.773 62.5589C275.196 53.1594 295.493 50.3574 314.953 54.6648C334.414 58.9722 351.741 70.1015 363.766 86.0191C375.792 101.937 381.714 121.58 380.45 141.359C379.186 161.139 370.822 179.734 356.884 193.747C342.946 207.761 324.366 216.257 304.539 217.682C284.712 219.108 264.961 213.369 248.896 201.513L172.085 305.599Z" fill="#FFEF68"/>
</svg>
