<svg width="146" height="145" viewBox="0 0 146 145" fill="none" xmlns="http://www.w3.org/2000/svg">
<path d="M52.251 3.68599C90.3284 -7.7737 130.486 13.8042 141.946 51.8817C153.406 89.9591 131.828 130.117 93.7502 141.577C55.6728 153.036 15.515 131.458 4.05532 93.3809C-7.40437 55.3035 14.1736 15.1457 52.251 3.68599ZM90.3221 130.186C122.109 120.62 140.122 87.0963 130.555 55.3097C120.989 23.5232 87.4657 5.51015 55.6791 15.0766C23.8925 24.643 5.87949 58.1662 15.4459 89.9528C25.0123 121.739 58.5355 139.752 90.3221 130.186Z" fill="#3D0072" fill-opacity="0.26"/>
<path d="M73.0002 6.57849C73.0002 3.2937 75.6676 0.605338 78.9412 0.876376C86.3609 1.4907 93.6529 3.25322 100.553 6.11153C109.289 9.72987 117.226 15.0334 123.912 21.7192C130.598 28.405 135.901 36.3422 139.52 45.0777C143.138 53.8131 145 63.1757 145 72.6309C145 82.086 143.138 91.4486 139.52 100.184C135.901 108.92 130.598 116.857 123.912 123.543C117.226 130.228 109.289 135.532 100.553 139.15C93.6528 142.008 86.3609 143.771 78.9411 144.385C75.6676 144.656 73.0002 141.968 73.0002 138.683C73.0002 135.398 75.6695 132.766 78.9382 132.442C84.7944 131.86 90.5444 130.421 96.0013 128.16C103.294 125.14 109.919 120.713 115.501 115.131C121.082 109.55 125.509 102.924 128.53 95.632C131.55 88.3397 133.105 80.5239 133.105 72.6309C133.105 64.7378 131.55 56.922 128.53 49.6298C125.509 42.3375 121.082 35.7116 115.501 30.1304C109.919 24.5491 103.294 20.1219 96.0013 17.1013C90.5445 14.841 84.7944 13.4016 78.9382 12.8201C75.6695 12.4956 73.0002 9.86327 73.0002 6.57849Z" fill="#E6356D"/>
<path d="M57.6387 77.2446C57.6387 76.6615 57.5239 76.1403 57.2942 75.6809C57.0645 75.2215 56.6581 74.8328 56.075 74.5148C55.5096 74.1967 54.741 73.9582 53.7693 73.7992C52.8152 73.6402 51.6048 73.5607 50.1383 73.5607C50.3327 71.8645 50.4829 70.2566 50.5889 68.7371C50.6949 67.1999 50.7833 65.6627 50.8539 64.1256H60.236V66.8289H53.5837C53.5661 67.1292 53.5396 67.4738 53.5042 67.8625C53.4866 68.2335 53.4601 68.6134 53.4247 69.0021C53.4071 69.3908 53.3806 69.7619 53.3452 70.1153C53.3099 70.4686 53.2745 70.769 53.2392 71.0164C55.8542 71.1577 57.7801 71.7584 59.0169 72.8186C60.2714 73.861 60.8986 75.2922 60.8986 77.1121C60.8986 77.9425 60.7572 78.7111 60.4745 79.4178C60.1918 80.1246 59.759 80.7342 59.1759 81.2465C58.5928 81.7589 57.8596 82.1653 56.9761 82.4657C56.0927 82.7484 55.0591 82.8897 53.8753 82.8897C53.3982 82.8897 52.9123 82.8544 52.4176 82.7837C51.9229 82.713 51.4458 82.6247 50.9864 82.5187C50.5447 82.4303 50.1472 82.3332 49.7938 82.2272C49.4404 82.1211 49.1754 82.024 48.9987 81.9356L49.6083 79.2323C49.9793 79.409 50.5094 79.6034 51.1985 79.8154C51.9052 80.0097 52.7621 80.1069 53.7693 80.1069C54.4583 80.1069 55.0502 80.0362 55.545 79.8949C56.0397 79.7359 56.4372 79.5238 56.7376 79.2588C57.0556 78.9938 57.2853 78.6934 57.4267 78.3577C57.568 78.0043 57.6387 77.6333 57.6387 77.2446ZM76.4654 73.2956C76.4654 76.3876 75.9 78.7641 74.7692 80.4249C73.6384 82.0681 72.0747 82.8897 70.0782 82.8897C68.0816 82.8897 66.5179 82.0681 65.3871 80.4249C64.2563 78.7641 63.6909 76.3876 63.6909 73.2956C63.6909 71.7584 63.8323 70.398 64.115 69.2141C64.4154 68.0127 64.8394 67.0056 65.3871 66.1928C65.9525 65.38 66.6239 64.7616 67.4014 64.3376C68.1965 63.9135 69.0887 63.7015 70.0782 63.7015C72.0747 63.7015 73.6384 64.5319 74.7692 66.1928C75.9 67.836 76.4654 70.2036 76.4654 73.2956ZM73.1525 73.2956C73.1525 72.3415 73.0995 71.4492 72.9935 70.6188C72.8875 69.7884 72.7108 69.0728 72.4635 68.4721C72.2338 67.8537 71.9246 67.3678 71.5358 67.0144C71.1471 66.661 70.6612 66.4843 70.0782 66.4843C69.4951 66.4843 69.0004 66.661 68.594 67.0144C68.2053 67.3678 67.8873 67.8537 67.6399 68.4721C67.4102 69.0728 67.2423 69.7884 67.1363 70.6188C67.048 71.4492 67.0038 72.3415 67.0038 73.2956C67.0038 74.2497 67.048 75.142 67.1363 75.9724C67.2423 76.8029 67.4102 77.5273 67.6399 78.1457C67.8873 78.7464 68.2053 79.2235 68.594 79.5768C69.0004 79.9302 69.4951 80.1069 70.0782 80.1069C70.6612 80.1069 71.1471 79.9302 71.5358 79.5768C71.9246 79.2235 72.2338 78.7464 72.4635 78.1457C72.7108 77.5273 72.8875 76.8029 72.9935 75.9724C73.0995 75.142 73.1525 74.2497 73.1525 73.2956ZM87.7652 68.7371C87.7652 70.3449 87.35 71.5818 86.5196 72.4475C85.7068 73.3133 84.6379 73.7462 83.3127 73.7462C82.659 73.7462 82.0583 73.6402 81.5105 73.4281C80.9628 73.1984 80.4946 72.8716 80.1059 72.4475C79.7171 72.0235 79.4079 71.5022 79.1783 70.8838C78.9662 70.2478 78.8602 69.5322 78.8602 68.7371C78.8602 67.1116 79.2666 65.8748 80.0794 65.0267C80.9098 64.1609 81.9876 63.728 83.3127 63.728C84.6379 63.728 85.7068 64.1609 86.5196 65.0267C87.35 65.8748 87.7652 67.1116 87.7652 68.7371ZM85.2475 68.7371C85.2475 67.8007 85.0708 67.1027 84.7174 66.6434C84.3817 66.1663 83.9135 65.9278 83.3127 65.9278C82.712 65.9278 82.2438 66.1663 81.9081 66.6434C81.5724 67.1027 81.4045 67.8007 81.4045 68.7371C81.4045 69.6735 81.5724 70.3803 81.9081 70.8573C82.2438 71.3167 82.712 71.5464 83.3127 71.5464C83.9135 71.5464 84.3817 71.3167 84.7174 70.8573C85.0708 70.3803 85.2475 69.6735 85.2475 68.7371ZM93.1454 64.1256H96.1932L85.8305 82.4922H82.7827L93.1454 64.1256ZM100.142 77.9072C100.142 79.515 99.727 80.7518 98.8965 81.6176C98.0838 82.4834 97.0148 82.9162 95.6897 82.9162C95.0359 82.9162 94.4352 82.8014 93.8875 82.5717C93.3397 82.3597 92.8715 82.0416 92.4828 81.6176C92.0941 81.1935 91.7849 80.6723 91.5552 80.0539C91.3432 79.4178 91.2371 78.7022 91.2371 77.9072C91.2371 76.2816 91.6435 75.0448 92.4563 74.1967C93.2867 73.331 94.3645 72.8981 95.6897 72.8981C97.0148 72.8981 98.0838 73.331 98.8965 74.1967C99.727 75.0448 100.142 76.2816 100.142 77.9072ZM97.6244 77.9072C97.6244 76.9707 97.4477 76.2728 97.0943 75.8134C96.7586 75.3364 96.2904 75.0978 95.6897 75.0978C95.0889 75.0978 94.6207 75.3364 94.285 75.8134C93.9493 76.2728 93.7814 76.9707 93.7814 77.9072C93.7814 78.8436 93.9493 79.5503 94.285 80.0274C94.6207 80.4868 95.0889 80.7165 95.6897 80.7165C96.2904 80.7165 96.7586 80.4868 97.0943 80.0274C97.4477 79.5503 97.6244 78.8436 97.6244 77.9072Z" fill="#E6356D"/>
</svg>
