<svg width="197" height="197" viewBox="0 0 197 197" fill="none" xmlns="http://www.w3.org/2000/svg">
<circle cx="98.5" cy="98.5" r="98.5" fill="url(#paint0_radial_3161_70965)"/>
<path d="M123.322 143.51C118.867 146.284 113.996 148.324 108.895 149.554C96.6682 152.543 83.7641 150.812 72.7571 144.707C61.7501 138.601 53.4496 128.571 49.5114 116.616C45.5732 104.661 46.2869 91.661 51.5102 80.2092C56.7335 68.7574 66.0823 59.6957 77.6915 54.8322C89.3007 49.9686 102.317 49.6607 114.143 53.9699C125.969 58.279 135.736 66.8884 141.495 78.0804C147.254 89.2724 148.582 102.224 145.213 114.352C141.845 126.48 134.028 136.892 123.322 143.51Z" fill="#8807F7"/>
<path d="M112.253 95.2512C112.257 98.2658 111.368 101.214 109.696 103.723C108.025 106.232 105.646 108.188 102.863 109.345C100.079 110.502 97.0143 110.807 94.0571 110.222C91.0998 109.636 88.3827 108.187 86.2494 106.057C84.1161 103.927 82.6626 101.212 82.0728 98.2555C81.483 95.2991 81.7834 92.2343 82.936 89.4487C84.0885 86.6631 86.0415 84.282 88.5478 82.6067C91.054 80.9314 94.0009 80.0371 97.0155 80.0371C101.053 80.0371 104.925 81.6393 107.782 84.4918C110.639 87.3443 112.247 91.214 112.253 95.2512Z" fill="white"/>
<path d="M123.322 137.236V143.511C118.867 146.285 113.996 148.325 108.895 149.555C102.447 151.143 95.747 151.424 89.189 150.382C82.6309 149.34 76.3477 146.996 70.7095 143.488V137.236C70.7095 130.259 73.481 123.568 78.4144 118.635C83.3477 113.701 90.0388 110.93 97.0156 110.93C103.992 110.93 110.684 113.701 115.617 118.635C120.55 123.568 123.322 130.259 123.322 137.236Z" fill="white"/>
<path d="M126.658 37.4648C122.82 37.4648 119.068 38.603 115.877 40.7353C112.686 42.8676 110.198 45.8983 108.73 49.4441C107.261 52.99 106.877 56.8918 107.625 60.6561C108.374 64.4204 110.222 67.8781 112.936 70.592C115.65 73.3059 119.108 75.1541 122.872 75.9028C126.636 76.6516 130.538 76.2673 134.084 74.7986C137.63 73.3298 140.661 70.8425 142.793 67.6513C144.925 64.4601 146.063 60.7083 146.063 56.8703C146.063 51.7236 144.019 46.7878 140.38 43.1486C136.74 39.5094 131.804 37.4648 126.658 37.4648ZM126.658 65.9246C124.861 65.9292 123.102 65.4001 121.606 64.4044C120.11 63.4087 118.943 61.9913 118.253 60.3316C117.563 58.672 117.381 56.8449 117.731 55.0819C118.08 53.3189 118.945 51.6993 120.216 50.4284C121.487 49.1575 123.106 48.2925 124.869 47.943C126.633 47.5935 128.46 47.7752 130.119 48.4651C131.779 49.155 133.196 50.3221 134.192 51.8184C135.188 53.3147 135.717 55.073 135.712 56.8703C135.712 59.2716 134.758 61.5746 133.06 63.2727C131.362 64.9707 129.059 65.9246 126.658 65.9246Z" fill="#8807F7"/>
<path d="M130.386 38.2798H122.93L123.346 33H129.969L130.386 38.2798Z" fill="#8807F7"/>
<path d="M116.191 40.7766L110.911 46.0563L107.461 42.027L112.162 37.3262L116.191 40.7766Z" fill="#8807F7"/>
<path d="M107.924 52.6094V60.0659L102.644 59.649V53.003L107.924 52.6094Z" fill="#8807F7"/>
<path d="M110.448 66.8066L115.705 72.0864L111.699 75.5136L106.998 70.8359L110.448 66.8066Z" fill="#8807F7"/>
<path d="M122.257 75.0723H129.714L129.297 80.352H122.674L122.257 75.0723Z" fill="#8807F7"/>
<path d="M136.453 72.5473L141.732 67.2676L145.183 71.2968L140.482 75.9977L136.453 72.5473Z" fill="#8807F7"/>
<path d="M144.72 60.7375V53.2578L150 53.6746V60.3207L144.72 60.7375Z" fill="#8807F7"/>
<path d="M142.197 46.5195L136.94 41.2628L140.969 37.8125L145.647 42.5133L142.197 46.5195Z" fill="#8807F7"/>
<defs>
<radialGradient id="paint0_radial_3161_70965" cx="0" cy="0" r="1" gradientUnits="userSpaceOnUse" gradientTransform="translate(147.75 120) rotate(-60.5434) scale(252.662)">
<stop stop-color="#E7CDFE"/>
<stop offset="1" stop-color="#E7CDFE" stop-opacity="0.09"/>
</radialGradient>
</defs>
</svg>
