<svg width="21" height="23" viewBox="0 0 21 23" fill="none" xmlns="http://www.w3.org/2000/svg">
<path d="M9.6502 1.08202C9.89631 0.900603 10.194 0.802734 10.4998 0.802734C10.8055 0.802734 11.1033 0.900603 11.3494 1.08202L20.4152 7.76898C21.4882 8.5613 20.9861 10.2299 19.7088 10.3464H1.29078C0.013526 10.2299 -0.487638 8.5613 0.584376 7.76898L9.65115 1.08202H9.6502ZM10.4998 7.48355C10.8796 7.48355 11.2438 7.33269 11.5123 7.06416C11.7808 6.79563 11.9317 6.43142 11.9317 6.05166C11.9317 5.67189 11.7808 5.30768 11.5123 5.03915C11.2438 4.77062 10.8796 4.61976 10.4998 4.61976C10.12 4.61976 9.75582 4.77062 9.48729 5.03915C9.21875 5.30768 9.06789 5.67189 9.06789 6.05166C9.06789 6.43142 9.21875 6.79563 9.48729 7.06416C9.75582 7.33269 10.12 7.48355 10.4998 7.48355ZM15.7501 11.3019H18.1356V17.0295H15.7491V11.3019H15.7501ZM13.8409 17.0295V11.3019H11.4544V17.0295H13.8409ZM9.54519 17.0305V11.3029H7.1587V17.0305H9.54519ZM5.25045 17.0305V11.3029H2.86396V17.0305H5.25045ZM3.10261 17.9851C2.27979 17.9851 1.49067 18.312 0.908847 18.8938C0.327025 19.4756 0.000161472 20.2647 0.000161472 21.0875V21.5648C0.000413317 21.7547 0.0758941 21.9368 0.210079 22.0711C0.344263 22.2055 0.526219 22.2812 0.71611 22.2817H20.2825C20.4724 22.2817 20.6545 22.2063 20.7888 22.072C20.923 21.9378 20.9985 21.7557 20.9985 21.5658V21.0885C20.9985 20.2657 20.6716 19.4766 20.0898 18.8947C19.508 18.3129 18.7188 17.986 17.896 17.986H3.10356L3.10261 17.9851Z" fill="#3D0072"/>
</svg>
