<svg width="41" height="42" viewBox="0 0 41 42" fill="none" xmlns="http://www.w3.org/2000/svg">
<path d="M40.7658 20.7712C40.7658 32.2428 31.6401 41.5423 20.3829 41.5423C9.12574 41.5423 0 32.2428 0 20.7712C0 9.29957 9.12574 0 20.3829 0C31.6401 0 40.7658 9.29957 40.7658 20.7712Z" fill="#E7CDFE"/>
<mask id="mask0_2943_63943" style="mask-type:alpha" maskUnits="userSpaceOnUse" x="0" y="0" width="41" height="42">
<ellipse cx="20.3829" cy="20.7712" rx="20.3829" ry="20.7712" fill="#F8FAFC"/>
</mask>
<g mask="url(#mask0_2943_63943)">
</g>
<rect x="7.875" y="15.9668" width="23.4533" height="17.1335" rx="2.80877" transform="rotate(-19.5235 7.875 15.9668)" fill="url(#paint0_linear_2943_63943)"/>
<g clip-path="url(#clip0_2943_63943)">
<path d="M8.78906 14.7129C8.78906 13.9401 9.09608 13.1988 9.64258 12.6523C10.1891 12.1058 10.9303 11.7988 11.7032 11.7988H29.1878C29.9606 11.7988 30.7019 12.1058 31.2484 12.6523C31.7949 13.1988 32.1019 13.9401 32.1019 14.7129V16.17H8.78906V14.7129ZM8.78906 19.0841V26.3693C8.78906 27.1422 9.09608 27.8834 9.64258 28.4299C10.1891 28.9764 10.9303 29.2834 11.7032 29.2834H29.1878C29.9606 29.2834 30.7019 28.9764 31.2484 28.4299C31.7949 27.8834 32.1019 27.1422 32.1019 26.3693V19.0841H8.78906ZM13.1602 21.9982H14.6173C15.0037 21.9982 15.3743 22.1517 15.6476 22.4249C15.9208 22.6982 16.0743 23.0688 16.0743 23.4552V24.9123C16.0743 25.2987 15.9208 25.6693 15.6476 25.9426C15.3743 26.2158 15.0037 26.3693 14.6173 26.3693H13.1602C12.7738 26.3693 12.4032 26.2158 12.1299 25.9426C11.8567 25.6693 11.7032 25.2987 11.7032 24.9123V23.4552C11.7032 23.0688 11.8567 22.6982 12.1299 22.4249C12.4032 22.1517 12.7738 21.9982 13.1602 21.9982Z" fill="#8807F7"/>
<rect x="10.1875" y="21.1016" width="6.60062" height="6.1793" fill="#8807F7"/>
</g>
<g clip-path="url(#clip1_2943_63943)">
<path opacity="0.5" d="M27.0519 25.4573C26.7326 25.4574 26.4206 25.3627 26.1551 25.1854C25.8896 25.0081 25.6827 24.756 25.5605 24.4611C25.4382 24.1662 25.4062 23.8416 25.4685 23.5285C25.5307 23.2154 25.6844 22.9277 25.9101 22.7019C26.1358 22.4762 26.4234 22.3224 26.7365 22.2601C27.0496 22.1977 27.3742 22.2297 27.6691 22.3518C27.9641 22.4739 28.2162 22.6808 28.3936 22.9462C28.571 23.2116 28.6658 23.5237 28.6658 23.8429V23.8432C28.6654 24.2711 28.4952 24.6814 28.1926 24.984C27.8901 25.2866 27.4798 25.4568 27.0519 25.4573V25.4573Z" fill="url(#paint1_linear_2943_63943)"/>
<path d="M25.4892 25.4573C25.1699 25.4573 24.8578 25.3626 24.5924 25.1853C24.3269 25.0079 24.12 24.7558 23.9979 24.4609C23.8757 24.1659 23.8437 23.8414 23.906 23.5283C23.9683 23.2151 24.122 22.9275 24.3478 22.7018C24.5735 22.476 24.8611 22.3223 25.1742 22.26C25.4874 22.1977 25.8119 22.2297 26.1069 22.3519C26.4018 22.474 26.6539 22.6809 26.8313 22.9464C27.0086 23.2118 27.1033 23.5239 27.1033 23.8432C27.1029 24.2711 26.9327 24.6814 26.63 24.984C26.3274 25.2867 25.9171 25.4569 25.4892 25.4573Z" fill="url(#paint2_linear_2943_63943)"/>
</g>
<defs>
<linearGradient id="paint0_linear_2943_63943" x1="19.1647" y1="-8.85361" x2="21.5519" y2="34.4376" gradientUnits="userSpaceOnUse">
<stop stop-color="#8807F7"/>
<stop offset="1" stop-color="white"/>
</linearGradient>
<linearGradient id="paint1_linear_2943_63943" x1="26.9915" y1="17.5523" x2="27.6056" y2="25.6877" gradientUnits="userSpaceOnUse">
<stop stop-color="#8807F7"/>
<stop offset="1" stop-color="white"/>
</linearGradient>
<linearGradient id="paint2_linear_2943_63943" x1="25.429" y1="17.5523" x2="26.0431" y2="25.6877" gradientUnits="userSpaceOnUse">
<stop stop-color="#8807F7"/>
<stop offset="1" stop-color="white"/>
</linearGradient>
<clipPath id="clip0_2943_63943">
<rect width="23.3128" height="23.3128" fill="white" transform="translate(8.78906 8.88574)"/>
</clipPath>
<clipPath id="clip1_2943_63943">
<rect width="5.75798" height="5.75798" fill="white" transform="translate(23.3906 20.9629)"/>
</clipPath>
</defs>
</svg>
