<svg width="26" height="27" viewBox="0 0 26 27" fill="none" xmlns="http://www.w3.org/2000/svg">
<rect width="25.1811" height="26.3025" rx="12.5905" fill="#F5EBFF"/>
<path d="M11.1865 9.48911C11.1887 10.3209 11.1887 11.1527 11.1908 11.9846C11.193 12.7016 10.958 13.4001 10.2934 13.7662C9.51518 14.1914 8.41229 14.0843 7.5444 13.9947C7.51161 13.9925 7.481 13.9881 7.4504 13.9859C7.47882 13.387 7.46789 12.7825 7.43947 12.1857C7.4023 11.3768 7.89309 10.4127 8.76097 10.2761C9.70428 10.1275 10.5241 10.0269 10.9689 9.5066C10.9843 9.4913 10.9974 9.476 11.0105 9.45851C11.0761 9.36997 11.146 9.28362 11.216 9.19727C11.1941 9.29127 11.1865 9.39074 11.1865 9.48911Z" fill="#8807F7"/>
<path d="M8.33594 19.41C8.98521 19.4516 9.63886 19.4417 10.2892 19.4526C11.0478 19.4658 11.8239 19.5598 12.5562 19.4264C13.6067 19.2351 14.7882 18.5498 15.1785 17.5343C15.5403 16.5943 15.3698 15.4717 14.7467 14.6825C14.703 14.6279 14.6571 14.5754 14.6068 14.523C13.9772 13.8343 13 13.4747 12.072 13.5982C10.9166 13.7513 9.89901 14.6596 9.59951 15.7843C9.4126 16.4861 9.57546 17.2337 9.46616 17.9486C9.37653 18.541 8.87154 19.1477 8.33594 19.41Z" fill="#8807F7"/>
<path d="M14.8252 6.80664C14.7672 6.98262 14.8372 7.17391 14.9126 7.34333C15.8756 9.49228 18.4585 10.946 18.37 13.5268C18.3295 14.6941 17.7469 16.0659 16.773 16.7578C16.702 16.8081 16.6375 16.8529 16.5544 16.8759C16.3686 16.5283 16.3489 16.0189 16.1904 15.6353C15.9926 15.1543 15.7302 14.681 15.3641 14.3083C15.0132 13.952 14.5738 13.7465 14.2229 13.3967C13.4862 12.6611 13.0216 11.6522 12.9604 10.6116C12.8708 9.1272 13.613 7.65485 14.8252 6.80664Z" fill="#8807F7"/>
<path d="M8.12139 11.9908C8.12139 11.9908 8.08744 11.3414 8.7522 11.3743C8.7533 11.3743 8.99533 12.0839 8.12139 11.9908Z" fill="white" stroke="#8807F7" stroke-width="0.155842" stroke-miterlimit="10"/>
<path d="M7.9043 17.4727C8.5116 17.4727 9.00392 16.9804 9.00392 16.3731C9.00392 15.7658 8.5116 15.2734 7.9043 15.2734C7.297 15.2734 6.80469 15.7658 6.80469 16.3731C6.80469 16.9804 7.297 17.4727 7.9043 17.4727Z" fill="#8807F7"/>
</svg>
