<svg width="256" height="249" viewBox="0 0 256 249" fill="none" xmlns="http://www.w3.org/2000/svg">
<circle cx="124.5" cy="124.5" r="124.5" fill="#F3F4F6"/>
<path d="M255.468 202.926H0V203.054H255.468V202.926Z" fill="#EBEBEB"/>
<path d="M229.869 211.147H216.467V211.275H229.869V211.147Z" fill="#EBEBEB"/>
<path d="M182.282 209.487H164.793V209.615H182.282V209.487Z" fill="#EBEBEB"/>
<path d="M212.433 206.406H198.924V206.533H212.433V206.406Z" fill="#EBEBEB"/>
<path d="M56.6571 207.264H34.5898V207.392H56.6571V207.264Z" fill="#EBEBEB"/>
<path d="M30.035 207.264H26.8008V207.392H30.035V207.264Z" fill="#EBEBEB"/>
<path d="M95.8864 209.42H67.1719V209.548H95.8864V209.42Z" fill="#EBEBEB"/>
<path d="M121.092 180.139H22.4358C21.6629 180.137 20.9222 179.829 20.3761 179.282C19.8301 178.735 19.5234 177.994 19.5234 177.221V38.5379C19.5302 37.7695 19.8398 37.0347 20.3851 36.4932C20.9304 35.9518 21.6673 35.6473 22.4358 35.646H121.092C121.866 35.646 122.608 35.9534 123.155 36.5005C123.702 37.0476 124.01 37.7897 124.01 38.5634V177.221C124.01 177.995 123.702 178.737 123.155 179.284C122.608 179.831 121.866 180.139 121.092 180.139ZM22.4358 35.7482C21.6968 35.7495 20.9885 36.044 20.4665 36.5671C19.9444 37.0901 19.6512 37.7989 19.6512 38.5379V177.221C19.6512 177.96 19.9444 178.669 20.4665 179.192C20.9885 179.715 21.6968 180.009 22.4358 180.011H121.092C121.832 180.009 122.541 179.715 123.063 179.192C123.586 178.669 123.881 177.961 123.882 177.221V38.5379C123.881 37.7984 123.586 37.0896 123.063 36.5668C122.541 36.0439 121.832 35.7495 121.092 35.7482H22.4358Z" fill="#EBEBEB"/>
<path d="M231.614 180.139H132.953C132.179 180.137 131.438 179.829 130.891 179.283C130.344 178.736 130.037 177.994 130.035 177.221V38.5379C130.043 37.769 130.354 37.0342 130.9 36.4929C131.446 35.9516 132.184 35.6473 132.953 35.646H231.614C232.382 35.6487 233.117 35.9537 233.662 36.495C234.206 37.0364 234.515 37.7703 234.521 38.5379V177.221C234.521 177.993 234.215 178.734 233.671 179.28C233.126 179.827 232.386 180.136 231.614 180.139ZM132.953 35.7482C132.213 35.7495 131.504 36.0439 130.981 36.5668C130.459 37.0896 130.164 37.7984 130.163 38.5379V177.221C130.164 177.961 130.459 178.669 130.981 179.192C131.504 179.715 132.213 180.009 132.953 180.011H231.614C232.354 180.009 233.062 179.715 233.585 179.192C234.108 178.669 234.403 177.961 234.404 177.221V38.5379C234.403 37.7984 234.108 37.0896 233.585 36.5668C233.062 36.0439 232.354 35.7495 231.614 35.7482H132.953Z" fill="#EBEBEB"/>
<path d="M208.891 60.9526H151.359V149.779H208.891V60.9526Z" fill="#EBEBEB"/>
<path d="M110.745 149.784H151.359V60.9581H110.745L110.745 149.784Z" fill="#F5F5F5"/>
<path d="M110.751 60.9526H110.025V149.779H110.751V60.9526Z" fill="#E6E6E6"/>
<path d="M207.807 148.701V62.041H152.442V148.701H207.807Z" fill="#F5F5F5"/>
<path d="M207.813 113.63H178.557V62.041H179.068V113.119H207.813V113.63Z" fill="#E0E0E0"/>
<path d="M208.891 149.784H218.17V60.9581H208.891V149.784Z" fill="#E0E0E0"/>
<path d="M152.44 148.695H161.719V62.0356H152.44V148.695Z" fill="#E0E0E0"/>
<path d="M188.652 72.8423H165.062V107.141H188.652V72.8423Z" fill="#E6E6E6"/>
<path d="M184.852 75.6675H168.855C168.288 75.6675 167.828 76.1273 167.828 76.6945V98.4756C167.828 99.0428 168.288 99.5026 168.855 99.5026H184.852C185.42 99.5026 185.879 99.0428 185.879 98.4756V76.6945C185.879 76.1273 185.42 75.6675 184.852 75.6675Z" fill="#F0F0F0"/>
<path d="M188.656 107.146H192.988V72.8474H188.656V107.146Z" fill="#E0E0E0"/>
<path d="M176.857 84.7831C176.657 84.7831 176.466 84.7039 176.325 84.5631C176.185 84.4222 176.105 84.2312 176.105 84.032V79.9036C176.105 79.704 176.184 79.5124 176.325 79.3707C176.466 79.2291 176.657 79.1488 176.857 79.1475C177.056 79.1488 177.247 79.2291 177.388 79.3707C177.529 79.5124 177.608 79.704 177.608 79.9036V84.032C177.608 84.1306 177.588 84.2283 177.55 84.3194C177.513 84.4106 177.457 84.4933 177.388 84.5631C177.318 84.6328 177.235 84.6882 177.144 84.7259C177.053 84.7637 176.955 84.7831 176.857 84.7831Z" fill="#FAFAFA"/>
<path d="M174.148 84.7831C173.948 84.7831 173.757 84.7039 173.616 84.5631C173.476 84.4222 173.396 84.2312 173.396 84.032V79.9036C173.396 79.704 173.475 79.5124 173.616 79.3707C173.757 79.2291 173.948 79.1488 174.148 79.1475C174.347 79.1488 174.538 79.2291 174.679 79.3707C174.82 79.5124 174.899 79.704 174.899 79.9036V84.032C174.899 84.2312 174.82 84.4222 174.679 84.5631C174.538 84.7039 174.347 84.7831 174.148 84.7831Z" fill="#FAFAFA"/>
<path d="M171.441 84.7831C171.241 84.7831 171.05 84.7039 170.909 84.5631C170.769 84.4222 170.689 84.2312 170.689 84.032V79.9036C170.689 79.704 170.768 79.5124 170.909 79.3707C171.05 79.2291 171.241 79.1488 171.441 79.1475C171.64 79.1488 171.831 79.2291 171.972 79.3707C172.113 79.5124 172.192 79.704 172.192 79.9036V84.032C172.192 84.2312 172.112 84.4222 171.972 84.5631C171.831 84.7039 171.64 84.7831 171.441 84.7831Z" fill="#FAFAFA"/>
<path d="M179.562 84.7831C179.365 84.7791 179.178 84.6982 179.041 84.5578C178.903 84.4173 178.826 84.2286 178.826 84.032V79.9036C178.826 79.704 178.905 79.5124 179.046 79.3707C179.187 79.2291 179.378 79.1488 179.577 79.1475C179.777 79.1488 179.968 79.2291 180.109 79.3707C180.249 79.5124 180.328 79.704 180.328 79.9036V84.032C180.328 84.1319 180.308 84.2309 180.27 84.323C180.231 84.4152 180.174 84.4986 180.103 84.5686C180.032 84.6385 179.947 84.6935 179.854 84.7304C179.761 84.7672 179.662 84.7851 179.562 84.7831Z" fill="#FAFAFA"/>
<path d="M182.271 84.7831C182.071 84.7831 181.88 84.7039 181.74 84.5631C181.599 84.4222 181.52 84.2312 181.52 84.032V79.9036C181.52 79.704 181.599 79.5124 181.739 79.3707C181.88 79.2291 182.071 79.1488 182.271 79.1475C182.47 79.1488 182.661 79.2291 182.802 79.3707C182.943 79.5124 183.022 79.704 183.022 79.9036V84.032C183.022 84.1306 183.002 84.2283 182.965 84.3194C182.927 84.4106 182.871 84.4933 182.802 84.5631C182.732 84.6328 182.649 84.6882 182.558 84.7259C182.467 84.7637 182.369 84.7831 182.271 84.7831Z" fill="#FAFAFA"/>
<path d="M171.44 90.6633C171.44 90.7643 171.41 90.8631 171.354 90.9471C171.298 91.0312 171.218 91.0967 171.124 91.1353C171.031 91.174 170.928 91.1841 170.829 91.1644C170.73 91.1447 170.639 91.096 170.568 91.0246C170.496 90.9531 170.447 90.8621 170.428 90.763C170.408 90.6639 170.418 90.5611 170.457 90.4678C170.496 90.3744 170.561 90.2946 170.645 90.2385C170.729 90.1823 170.828 90.1523 170.929 90.1523C171.064 90.1523 171.194 90.2062 171.29 90.302C171.386 90.3978 171.44 90.5278 171.44 90.6633Z" fill="#FAFAFA"/>
<path d="M171.44 95.5378C171.44 95.6388 171.41 95.7376 171.354 95.8217C171.298 95.9057 171.218 95.9712 171.124 96.0098C171.031 96.0485 170.928 96.0586 170.829 96.0389C170.73 96.0192 170.639 95.9705 170.568 95.8991C170.496 95.8276 170.447 95.7366 170.428 95.6375C170.408 95.5384 170.418 95.4356 170.457 95.3423C170.496 95.2489 170.561 95.1691 170.645 95.113C170.729 95.0568 170.828 95.0269 170.929 95.0269C171.064 95.0269 171.194 95.0807 171.29 95.1765C171.386 95.2723 171.44 95.4023 171.44 95.5378Z" fill="#E6E6E6"/>
<path d="M173.604 95.5378C173.604 95.6388 173.574 95.7376 173.518 95.8217C173.462 95.9057 173.382 95.9712 173.288 96.0098C173.195 96.0485 173.092 96.0586 172.993 96.0389C172.894 96.0192 172.803 95.9705 172.732 95.8991C172.66 95.8276 172.612 95.7366 172.592 95.6375C172.572 95.5384 172.582 95.4356 172.621 95.3423C172.66 95.2489 172.725 95.1691 172.809 95.113C172.893 95.0568 172.992 95.0269 173.093 95.0269C173.228 95.0269 173.358 95.0807 173.454 95.1765C173.55 95.2723 173.604 95.4023 173.604 95.5378Z" fill="#E6E6E6"/>
<path d="M175.762 95.5378C175.762 95.6388 175.732 95.7376 175.676 95.8217C175.62 95.9057 175.54 95.9712 175.447 96.0098C175.353 96.0485 175.251 96.0586 175.151 96.0389C175.052 96.0192 174.961 95.9705 174.89 95.8991C174.818 95.8276 174.77 95.7366 174.75 95.6375C174.73 95.5384 174.74 95.4356 174.779 95.3423C174.818 95.2489 174.883 95.1691 174.967 95.113C175.051 95.0568 175.15 95.0269 175.251 95.0269C175.387 95.0269 175.517 95.0807 175.612 95.1765C175.708 95.2723 175.762 95.4023 175.762 95.5378Z" fill="#E6E6E6"/>
<path d="M172.211 118.709H167.971V144.966H172.211V118.709Z" fill="#E6E6E6"/>
<path d="M172.211 123.695H167.971V125.872H172.211V123.695Z" fill="#E0E0E0"/>
<path d="M172.211 132.463H167.971V133.388H172.211V132.463Z" fill="#E0E0E0"/>
<path d="M172.217 144.966H173.842V118.709H172.217V144.966Z" fill="#E0E0E0"/>
<path d="M171.014 121.315C171.015 121.498 170.961 121.678 170.86 121.83C170.759 121.983 170.614 122.103 170.445 122.173C170.276 122.244 170.09 122.263 169.91 122.227C169.73 122.192 169.565 122.103 169.435 121.974C169.305 121.844 169.217 121.679 169.182 121.499C169.146 121.319 169.165 121.133 169.235 120.964C169.306 120.794 169.425 120.65 169.578 120.549C169.731 120.448 169.911 120.394 170.094 120.395C170.337 120.396 170.571 120.494 170.743 120.666C170.915 120.838 171.012 121.071 171.014 121.315Z" fill="#F5F5F5"/>
<path d="M177.626 118.709H173.385V144.966H177.626V118.709Z" fill="#E6E6E6"/>
<path d="M177.626 123.695H173.385V125.872H177.626V123.695Z" fill="#E0E0E0"/>
<path d="M177.626 132.463H173.385V133.388H177.626V132.463Z" fill="#E0E0E0"/>
<path d="M177.631 144.966H179.256V118.709H177.631V144.966Z" fill="#E0E0E0"/>
<path d="M176.432 121.315C176.433 121.498 176.379 121.678 176.278 121.83C176.177 121.983 176.032 122.103 175.863 122.173C175.694 122.244 175.508 122.263 175.328 122.227C175.148 122.192 174.983 122.103 174.853 121.974C174.723 121.844 174.635 121.679 174.6 121.499C174.564 121.319 174.583 121.133 174.653 120.964C174.724 120.794 174.843 120.65 174.996 120.549C175.149 120.448 175.329 120.394 175.512 120.395C175.755 120.396 175.989 120.494 176.161 120.666C176.333 120.838 176.43 121.071 176.432 121.315Z" fill="#F5F5F5"/>
<path d="M183.047 118.709H178.807V144.966H183.047V118.709Z" fill="#E6E6E6"/>
<path d="M183.047 123.695H178.807V125.872H183.047V123.695Z" fill="#E0E0E0"/>
<path d="M183.047 132.463H178.807V133.388H183.047V132.463Z" fill="#E0E0E0"/>
<path d="M183.047 144.966H184.672V118.709H183.047V144.966Z" fill="#E0E0E0"/>
<path d="M181.848 121.315C181.849 121.498 181.795 121.678 181.694 121.83C181.593 121.983 181.448 122.103 181.279 122.173C181.11 122.244 180.924 122.263 180.744 122.227C180.564 122.192 180.399 122.103 180.269 121.974C180.139 121.844 180.051 121.679 180.016 121.499C179.98 121.319 179.999 121.133 180.069 120.964C180.14 120.794 180.259 120.65 180.412 120.549C180.565 120.448 180.745 120.394 180.928 120.395C181.171 120.396 181.405 120.494 181.577 120.666C181.749 120.838 181.846 121.071 181.848 121.315Z" fill="#F5F5F5"/>
<path d="M188.461 118.709H184.221V144.966H188.461V118.709Z" fill="#E6E6E6"/>
<path d="M188.461 123.695H184.221V125.872H188.461V123.695Z" fill="#E0E0E0"/>
<path d="M188.461 132.463H184.221V133.388H188.461V132.463Z" fill="#E0E0E0"/>
<path d="M188.463 144.966H190.088V118.709H188.463V144.966Z" fill="#E0E0E0"/>
<path d="M187.262 121.315C187.263 121.498 187.209 121.678 187.108 121.83C187.007 121.983 186.862 122.103 186.693 122.173C186.524 122.244 186.338 122.263 186.158 122.227C185.978 122.192 185.813 122.103 185.683 121.974C185.553 121.844 185.465 121.679 185.43 121.499C185.394 121.319 185.413 121.133 185.483 120.964C185.554 120.794 185.673 120.65 185.826 120.549C185.979 120.448 186.159 120.394 186.342 120.395C186.585 120.396 186.819 120.494 186.991 120.666C187.163 120.838 187.26 121.071 187.262 121.315Z" fill="#F5F5F5"/>
<path d="M193.881 118.709H189.641V144.966H193.881V118.709Z" fill="#E6E6E6"/>
<path d="M193.881 123.695H189.641V125.872H193.881V123.695Z" fill="#E0E0E0"/>
<path d="M193.881 132.463H189.641V133.388H193.881V132.463Z" fill="#E0E0E0"/>
<path d="M193.879 144.966H195.504V118.709H193.879V144.966Z" fill="#E0E0E0"/>
<path d="M192.68 121.315C192.681 121.498 192.627 121.678 192.526 121.83C192.425 121.983 192.28 122.103 192.111 122.173C191.942 122.244 191.756 122.263 191.576 122.227C191.396 122.192 191.231 122.103 191.101 121.974C190.971 121.844 190.883 121.679 190.848 121.499C190.812 121.319 190.831 121.133 190.901 120.964C190.972 120.794 191.091 120.65 191.244 120.549C191.397 120.448 191.577 120.394 191.76 120.395C192.003 120.396 192.237 120.494 192.409 120.666C192.581 120.838 192.678 121.071 192.68 121.315Z" fill="#F5F5F5"/>
<path d="M199.295 118.709H195.055V144.966H199.295V118.709Z" fill="#E6E6E6"/>
<path d="M199.295 123.695H195.055V125.872H199.295V123.695Z" fill="#E0E0E0"/>
<path d="M199.295 132.463H195.055V133.388H199.295V132.463Z" fill="#E0E0E0"/>
<path d="M199.297 144.966H200.922V118.709H199.297V144.966Z" fill="#E0E0E0"/>
<path d="M198.094 121.315C198.095 121.498 198.041 121.678 197.94 121.83C197.839 121.983 197.694 122.103 197.525 122.173C197.356 122.244 197.17 122.263 196.99 122.227C196.81 122.192 196.645 122.103 196.515 121.974C196.385 121.844 196.297 121.679 196.262 121.499C196.226 121.319 196.245 121.133 196.316 120.964C196.386 120.794 196.505 120.65 196.658 120.549C196.811 120.448 196.991 120.394 197.174 120.395C197.418 120.396 197.651 120.494 197.823 120.666C197.995 120.838 198.092 121.071 198.094 121.315Z" fill="#F5F5F5"/>
<path d="M170.351 118.709H169.84V113.119H178.812V113.63H170.351V118.709Z" fill="#E0E0E0"/>
<path d="M175.767 113.375H175.256V118.714H175.767V113.375Z" fill="#E0E0E0"/>
<path d="M181.185 113.375H180.674V118.714H181.185V113.375Z" fill="#E0E0E0"/>
<path d="M186.599 113.375H186.088V118.714H186.599V113.375Z" fill="#E0E0E0"/>
<path d="M192.015 113.375H191.504V118.714H192.015V113.375Z" fill="#E0E0E0"/>
<path d="M197.429 113.375H196.918V118.714H197.429V113.375Z" fill="#E0E0E0"/>
<path d="M204.326 85.6309H196.248V101.276H204.326V85.6309Z" fill="#EBEBEB"/>
<path d="M203.539 85.6309H196.248V101.276H203.539V85.6309Z" fill="white"/>
<path d="M200.613 62.041H199.969V85.6309H200.613V62.041Z" fill="#E0E0E0"/>
<path d="M81.1729 94.7817H60.291L60.7151 96.5445H75.7417L79.7066 113.012H64.6646L65.0887 114.775H80.1153L84.0802 131.242H69.0536L69.4112 132.708L60.291 94.7817H54.4102L80.4679 203.054H86.3487L73.652 150.32L73.8666 151.23H88.9034L92.8683 167.697H77.8314L78.2555 169.46H93.2821L97.247 185.927H82.2204L82.6444 187.685H97.6711L101.375 203.054H107.241L81.1729 94.7817ZM73.4425 149.452L69.4879 133H84.5145L88.4793 149.467L73.4425 149.452Z" fill="#E0E0E0"/>
<path d="M44 203.054H45.5737L71.6416 94.7817H70.073L44 203.054Z" fill="#F5F5F5"/>
<path d="M49.8653 203.054H45.5684L71.6363 94.7817H75.9332L49.8653 203.054Z" fill="#E6E6E6"/>
<path d="M23.1055 203.054H24.6791L50.7471 94.7817H49.1734L23.1055 203.054Z" fill="#F5F5F5"/>
<path d="M28.9696 203.054H24.6777L50.7457 94.7817H55.0426L28.9696 203.054Z" fill="#E6E6E6"/>
<path d="M50.3223 96.5445H69.6458L70.0699 94.7817H50.7463L50.3223 96.5445Z" fill="#F5F5F5"/>
<path d="M45.9336 114.774H65.2572L65.6812 113.012H46.3577L45.9336 114.774Z" fill="#F5F5F5"/>
<path d="M41.543 133H60.8665L61.2906 131.237H41.967L41.543 133Z" fill="#F5F5F5"/>
<path d="M37.1562 151.23H56.4798L56.9039 149.467H37.5803L37.1562 151.23Z" fill="#F5F5F5"/>
<path d="M32.7656 169.46H52.0892L52.5133 167.697H33.1897L32.7656 169.46Z" fill="#F5F5F5"/>
<path d="M28.375 187.685H47.6986L48.1227 185.927H28.7991L28.375 187.685Z" fill="#F5F5F5"/>
<path d="M195.088 171.805V167.283C195.088 166.693 194.853 166.126 194.435 165.708C194.018 165.29 193.451 165.056 192.86 165.056C192.27 165.057 191.705 165.292 191.288 165.71C190.872 166.128 190.638 166.693 190.638 167.283V171.805C190.637 173.586 189.942 175.296 188.701 176.572L183.168 182.254C182.601 182.836 182.186 183.549 181.958 184.329C181.73 185.109 181.696 185.933 181.86 186.73L185.191 202.926H200.519L203.866 186.73C204.029 185.933 203.996 185.109 203.768 184.329C203.54 183.549 203.124 182.836 202.558 182.254L197.024 176.572C195.783 175.296 195.089 173.586 195.088 171.805Z" fill="#EBEBEB"/>
<path d="M192.863 165.056H191.514V166.767H192.863V165.056Z" fill="#EBEBEB"/>
<path d="M193.735 171.805V167.283C193.735 166.693 193.501 166.128 193.084 165.71C192.668 165.292 192.102 165.057 191.512 165.056C190.921 165.056 190.355 165.29 189.937 165.708C189.519 166.126 189.285 166.693 189.285 167.283V171.805C189.284 173.586 188.589 175.296 187.348 176.572L181.82 182.254C181.251 182.835 180.834 183.547 180.605 184.328C180.376 185.108 180.342 185.933 180.507 186.73L183.843 202.926H199.171L202.503 186.73C202.666 185.933 202.633 185.109 202.405 184.329C202.177 183.549 201.761 182.836 201.195 182.254L195.687 176.572C194.438 175.299 193.738 173.588 193.735 171.805Z" fill="#E0E0E0"/>
<path d="M191.514 166.772H160.857V168.607H191.514C191.745 168.589 191.961 168.485 192.119 168.315C192.277 168.145 192.365 167.922 192.365 167.69C192.365 167.458 192.277 167.234 192.119 167.064C191.961 166.894 191.745 166.79 191.514 166.772Z" fill="#EBEBEB"/>
<path d="M164.426 171.805V167.283C164.426 166.693 164.192 166.128 163.775 165.71C163.359 165.292 162.793 165.057 162.203 165.056C161.612 165.056 161.046 165.29 160.628 165.708C160.21 166.126 159.976 166.693 159.976 167.283V171.805C159.975 173.586 159.28 175.296 158.039 176.572L152.506 182.254C151.939 182.836 151.524 183.549 151.296 184.329C151.068 185.109 151.034 185.933 151.198 186.73L154.529 202.926H169.857L173.209 186.73C173.372 185.933 173.339 185.109 173.111 184.329C172.883 183.549 172.467 182.836 171.901 182.254L166.362 176.572C165.121 175.296 164.426 173.586 164.426 171.805Z" fill="#EBEBEB"/>
<path d="M162.202 165.056H160.854V166.767H162.202V165.056Z" fill="#EBEBEB"/>
<path d="M163.076 171.805V167.283C163.076 166.693 162.842 166.128 162.426 165.71C162.009 165.292 161.444 165.057 160.854 165.056C160.561 165.056 160.272 165.113 160.002 165.225C159.732 165.337 159.487 165.502 159.28 165.708C159.074 165.915 158.91 166.161 158.799 166.431C158.688 166.701 158.631 166.991 158.631 167.283V171.805C158.629 173.586 157.932 175.296 156.69 176.572L151.161 182.254C150.594 182.836 150.177 183.548 149.949 184.329C149.721 185.109 149.688 185.933 149.853 186.73L153.185 202.926H168.513L171.844 186.73C172.009 185.933 171.976 185.109 171.748 184.329C171.52 183.548 171.104 182.836 170.536 182.254L165.033 176.572C163.785 175.299 163.083 173.588 163.076 171.805Z" fill="#F5F5F5"/>
<path d="M161.773 167.687C161.774 167.869 161.721 168.047 161.62 168.199C161.52 168.351 161.377 168.47 161.209 168.54C161.041 168.611 160.856 168.63 160.677 168.595C160.498 168.56 160.334 168.473 160.205 168.344C160.076 168.216 159.988 168.052 159.952 167.873C159.916 167.695 159.934 167.51 160.003 167.341C160.073 167.173 160.19 167.029 160.342 166.928C160.493 166.827 160.671 166.772 160.853 166.772C161.096 166.774 161.328 166.87 161.5 167.041C161.672 167.213 161.77 167.444 161.773 167.687Z" fill="#EBEBEB"/>
<path d="M202.813 186.729H172.969L169.576 202.926H199.42L202.813 186.729Z" fill="#EBEBEB"/>
<path d="M49.0474 44.0869H25.8867V49.2014H49.0474V44.0869Z" fill="#FAFAFA"/>
<path d="M60.0884 49.2012H36.9277V54.3156H60.0884V49.2012Z" fill="#F5F5F5"/>
<path d="M196.149 47.6123H172.988V52.7268H196.149V47.6123Z" fill="#FAFAFA"/>
<path d="M207.19 42.4976H184.029V47.612H207.19V42.4976Z" fill="#F5F5F5"/>
<path d="M48.5025 78.2939H25.3418V83.4084H48.5025V78.2939Z" fill="#F5F5F5"/>
<path d="M226.145 156.35H202.984V161.464H226.145V156.35Z" fill="#F5F5F5"/>
<path d="M127.733 226C182.445 226 226.798 223.411 226.798 220.216C226.798 217.022 182.445 214.433 127.733 214.433C73.021 214.433 28.668 217.022 28.668 220.216C28.668 223.411 73.021 226 127.733 226Z" fill="#F5F5F5"/>
<path d="M125.284 90.4596C124.635 91.088 124.053 91.6194 123.424 92.1712C122.796 92.723 122.167 93.2493 121.529 93.7755C120.241 94.7974 118.928 95.8193 117.528 96.7901C116.105 97.791 114.62 98.7023 113.083 99.5184C112.255 99.9656 111.402 100.365 110.528 100.714C109.479 101.135 108.385 101.435 107.268 101.608L107.008 101.649C106.83 101.667 106.65 101.667 106.471 101.649C105.332 101.571 104.216 101.283 103.181 100.801C102.4 100.445 101.649 100.028 100.933 99.5542C99.6791 98.7195 98.4934 97.7866 97.387 96.7645C96.3243 95.7835 95.3433 94.7719 94.398 93.6989C93.4524 92.6448 92.5654 91.5395 91.7412 90.388C91.4366 89.9499 91.2924 89.4203 91.3328 88.8882C91.3733 88.3562 91.5959 87.8544 91.9631 87.4674C92.3304 87.0803 92.8198 86.8317 93.3489 86.7634C93.8781 86.6951 94.4146 86.8114 94.8681 87.0925L94.9294 87.1334L98.23 89.2129C99.3286 89.8975 100.422 90.572 101.51 91.1851C102.533 91.7834 103.589 92.3225 104.673 92.7997C105.115 93.003 105.575 93.1638 106.047 93.2799C106.431 93.3719 106.758 93.3821 106.65 93.3259L105.858 93.3872C106.281 93.2311 106.693 93.045 107.09 92.8303C107.601 92.5544 108.168 92.2325 108.73 91.8697C109.292 91.507 109.869 91.1085 110.441 90.6844C111.014 90.2603 111.601 89.8413 112.179 89.3917C113.333 88.4874 114.498 87.5523 115.643 86.5867L117.359 85.1305L119.03 83.6897L119.112 83.6232C120.019 82.8388 121.196 82.4395 122.393 82.5105C123.59 82.5816 124.712 83.1173 125.519 84.0036C126.327 84.8898 126.757 86.0565 126.716 87.2548C126.676 88.4532 126.17 89.5885 125.305 90.4187L125.284 90.4596Z" fill="#CF7A64"/>
<path d="M94.0078 90.6691L88.8984 91.18L90.0174 85.105C90.0174 85.105 94.7129 85.1918 95.0705 87.6954L94.0078 90.6691Z" fill="#263238"/>
<path d="M84.7211 87.8536L85.4722 85.8099C85.6165 85.4117 85.8977 85.0779 86.2656 84.8683C86.6335 84.6586 87.0641 84.5866 87.4802 84.6654L90.0348 85.1405L88.9006 91.1951L85.8349 90.1733C85.607 90.0977 85.3966 89.977 85.2163 89.8183C85.036 89.6597 84.8895 89.4664 84.7856 89.2499C84.6816 89.0334 84.6224 88.7982 84.6113 88.5583C84.6002 88.3184 84.6376 88.0787 84.7211 87.8536Z" fill="#263238"/>
<path d="M90.4785 89.8971C91.8223 90.9496 94.0551 94.1532 94.5098 95.1086C97.8973 93.8722 99.5885 90.6737 99.1338 89.5139C96.8192 87.7307 94.8266 86.5351 93.3602 86.249C90.969 86.7395 90.4785 89.8971 90.4785 89.8971Z" fill="#263238"/>
<path d="M128.925 85.3499C128.174 87.8637 126.529 91.384 124.02 92.8351C121.512 94.2861 117.174 99.7378 113.853 101.179C108.544 98.4605 108.263 93.6475 108.892 91.1643C112.105 86.9031 117.976 80.6595 121.031 79.8318C123.688 79.1113 125.982 83.2755 128.925 85.3499Z" fill="#263238"/>
<path d="M128.335 65.4794C130.077 66.1999 131.115 65.924 131.115 65.924C131.115 65.924 130.093 64.6109 130.093 63.9569C130.236 64.1722 130.424 64.3535 130.645 64.4877C130.866 64.622 131.113 64.7059 131.37 64.7335C130.573 61.9284 132.31 60.8146 131.743 59.7212C130.67 57.6468 126.721 57.6264 127.073 59.8643C125.438 60.7277 125.137 62.7919 125.137 62.7919C125.41 62.3668 125.784 62.0158 126.225 61.77C125.545 63.3744 125.883 65.648 127.058 67.3546C127.282 67.3554 127.502 67.3012 127.701 67.1969C127.899 67.0926 128.068 66.9413 128.194 66.7562C128.32 66.5711 128.399 66.3579 128.424 66.1353C128.448 65.9127 128.418 65.6875 128.335 65.4794Z" fill="#263238"/>
<path d="M148.81 135.166L150.349 134.77C151.442 134.488 152.1 133.374 151.819 132.281L149.4 122.879C149.118 121.786 148.004 121.128 146.911 121.409L145.372 121.805C144.279 122.087 143.621 123.201 143.902 124.294L146.321 133.696C146.603 134.789 147.717 135.447 148.81 135.166Z" fill="#263238"/>
<path d="M145.072 121.177C147.213 119.685 148.46 119.705 149.287 120.308C150.115 120.911 150.309 124.554 151.479 126.486C149.895 127.221 145.072 121.177 145.072 121.177Z" fill="#263238"/>
<path d="M142.35 78.8916C136.399 78.2328 130.395 78.1934 124.436 78.7741C121.985 79.0357 119.718 80.1961 118.072 82.0314C116.426 83.8668 115.519 86.2467 115.525 88.7118C115.525 97.878 117.952 111.244 119.48 125.315C133.439 130 145.211 125.08 145.211 125.08C145.522 121.866 145.349 112.307 144.271 106.687C145.063 100.882 147.071 94.2401 148.21 86.5352C148.337 85.6472 148.285 84.7427 148.058 83.8749C147.831 83.007 147.433 82.1933 146.887 81.4814C146.341 80.7695 145.658 80.1737 144.879 79.729C144.1 79.2843 143.24 78.9996 142.35 78.8916Z" fill="#263238"/>
<path d="M136.954 67.7944C136.76 71.4558 137.398 75.1136 138.819 78.4934C136.939 80.2408 133.889 82.4123 129.822 82.351C125.755 82.2897 126.429 80.2153 127.517 78.8C130.43 77.3285 130.619 75.1723 129.903 73.8695L136.954 67.7944Z" fill="#CE7A63"/>
<path opacity="0.2" d="M136.953 67.7944L129.902 73.8695C130.12 74.2716 130.24 74.7194 130.252 75.1766C130.265 75.6337 130.169 76.0874 129.974 76.5008C131.423 76.5844 132.85 76.1172 133.969 75.1928C135.783 73.7366 136.437 71.9739 136.948 69.4754C136.928 68.944 136.928 68.3871 136.953 67.7944Z" fill="black"/>
<path d="M139.238 64.7697C138.441 69.3273 138.216 72.0403 135.615 74.1147C131.727 77.2314 126.291 74.4417 125.713 69.7207C125.202 65.4748 126.587 58.7305 131.293 57.4582C132.334 57.1749 133.429 57.1603 134.477 57.4157C135.525 57.6712 136.492 58.1883 137.285 58.9188C138.079 59.6493 138.675 60.5692 139.016 61.5925C139.358 62.6158 139.434 63.7089 139.238 64.7697Z" fill="#CE7A63"/>
<path d="M139.104 66.3278C137.295 66.8387 136.294 66.4708 136.294 66.4708C136.294 66.4708 137.443 65.2753 137.54 64.6264C137.375 64.8245 137.168 64.9838 136.934 65.0933C136.7 65.2028 136.445 65.2596 136.186 65.2599C137.28 62.5571 135.676 61.2593 136.36 60.2374C137.648 58.2908 142.164 59.0367 141.567 61.2235C142.001 61.5269 142.331 61.9559 142.514 62.4529C142.697 62.9498 142.723 63.4908 142.588 64.003C142.377 63.6221 142.064 63.3072 141.684 63.0936C142.195 64.7643 142.629 66.1592 140.182 68.3153C139.96 68.2925 139.748 68.216 139.562 68.0924C139.377 67.9688 139.225 67.8019 139.118 67.6061C139.012 67.4103 138.955 67.1915 138.953 66.9687C138.95 66.746 139.002 66.526 139.104 66.3278Z" fill="#263238"/>
<path d="M126.909 69.4497C128.71 69.2627 130.523 69.22 132.33 69.322C131.819 70.3439 130.894 71.1256 128.851 71.0541C126.807 70.9825 126.909 69.4497 126.909 69.4497Z" fill="white"/>
<path d="M128.484 68.3053C128.453 69.8381 128.422 70.2724 130.783 70.349C132.443 70.4154 134.099 71.5088 133.848 72.4898C134.574 71.749 135.136 70.1191 133.787 69.0359C132.3 67.8607 130.614 67.733 128.484 68.3053Z" fill="#263238"/>
<path d="M128.962 68.3103C128.906 69.8176 128.242 69.9913 127.261 70.1905C126.28 70.3898 126.101 70.8803 126.198 71.5956C125.334 71.0847 124.788 69.6387 125.34 68.9592C125.763 68.4316 126.363 68.0753 127.029 67.956C127.695 67.8367 128.382 67.9626 128.962 68.3103Z" fill="#263238"/>
<path d="M140.617 68.2902C140.157 69.2567 139.346 70.0114 138.348 70.4004C137.081 70.8551 136.478 69.6084 136.851 68.2442C137.194 67.0129 138.256 65.2961 139.518 65.4341C140.78 65.572 141.215 67.0589 140.617 68.2902Z" fill="#CE7A63"/>
<path d="M132.948 64.5956C132.892 64.989 132.637 65.27 132.381 65.2291C132.126 65.1883 131.967 64.8408 132.029 64.4474C132.09 64.054 132.34 63.7781 132.596 63.819C132.851 63.8598 133.01 64.2073 132.948 64.5956Z" fill="#263238"/>
<path d="M128.198 63.9111C128.136 64.2994 127.881 64.5804 127.625 64.5396C127.37 64.4987 127.212 64.1512 127.273 63.7629C127.334 63.3746 127.585 63.0885 127.84 63.1294C128.096 63.1703 128.244 63.5177 128.198 63.9111Z" fill="#263238"/>
<path d="M129.525 64.626C129.525 64.626 128.294 66.731 127.154 67.6609C127.747 68.412 128.963 68.3098 128.963 68.3098L129.525 64.626Z" fill="#BA4D3C"/>
<path d="M134.492 62.9557C134.531 62.9682 134.572 62.9682 134.61 62.9557C134.666 62.935 134.713 62.8928 134.738 62.8383C134.764 62.7839 134.768 62.7214 134.748 62.6645C134.631 62.3103 134.431 61.9894 134.164 61.7289C133.897 61.4683 133.572 61.2758 133.215 61.1675C133.185 61.1598 133.155 61.1582 133.125 61.1625C133.094 61.1669 133.065 61.1772 133.039 61.1929C133.013 61.2086 132.99 61.2294 132.972 61.2539C132.954 61.2785 132.941 61.3064 132.934 61.3361C132.92 61.3957 132.93 61.4583 132.961 61.5108C132.993 61.5633 133.043 61.6014 133.103 61.6171C133.38 61.7095 133.632 61.8658 133.838 62.0735C134.044 62.2812 134.198 62.5344 134.288 62.8127C134.305 62.8537 134.333 62.889 134.369 62.9143C134.405 62.9397 134.448 62.9541 134.492 62.9557Z" fill="#263238"/>
<path d="M126.421 61.8213C126.459 61.8286 126.498 61.8264 126.534 61.8148C126.571 61.8032 126.604 61.7826 126.631 61.7549C126.827 61.5411 127.071 61.3769 127.342 61.2756C127.614 61.1744 127.906 61.139 128.194 61.1724C128.224 61.1791 128.254 61.1798 128.284 61.1743C128.314 61.1689 128.342 61.1575 128.368 61.1408C128.393 61.1241 128.415 61.1024 128.431 61.0771C128.448 61.0518 128.46 61.0234 128.465 60.9936C128.477 60.9326 128.464 60.8694 128.43 60.8177C128.395 60.766 128.342 60.73 128.281 60.7177C127.917 60.6694 127.548 60.7091 127.203 60.8336C126.858 60.9581 126.548 61.1637 126.299 61.433C126.256 61.4769 126.232 61.5355 126.232 61.5965C126.232 61.6575 126.256 61.7162 126.299 61.76C126.334 61.7899 126.376 61.8109 126.421 61.8213Z" fill="#263238"/>
<path d="M133.534 166.701C137.275 145.835 138.833 120.671 138.833 120.671L118.242 120.359C118.242 120.359 120.613 154.27 121.436 168.474C122.289 183.245 122.887 211.664 122.887 211.664H129.774C129.774 211.664 135.609 184.962 133.534 166.701Z" fill="#E8356D"/>
<path opacity="0.2" d="M129.494 126.357C129.494 126.357 132.202 146.611 134.42 161.464C136.392 148.982 137.644 135.866 138.292 127.977L129.494 126.357Z" fill="black"/>
<path d="M113.654 218.638C113.654 218.638 122.886 216.477 123.29 213.324L129.176 214.091L129.82 220.222H127.388L127.005 219.461L126.187 220.222C117.93 220.222 114.87 220.135 113.342 219.624C113.296 219.447 113.301 219.261 113.356 219.086C113.411 218.912 113.514 218.756 113.654 218.638Z" fill="#263238"/>
<path d="M130.01 215.199C127.802 215.326 123.367 215.005 122.529 214.58C121.692 214.156 122.177 210.728 122.177 210.728C122.177 210.728 129.897 209.962 130.577 210.386C131.256 210.81 130.01 215.199 130.01 215.199Z" fill="#E8356D"/>
<path opacity="0.3" d="M130.01 215.199C127.802 215.326 123.367 215.005 122.529 214.58C121.692 214.156 122.177 210.728 122.177 210.728C122.177 210.728 129.897 209.962 130.577 210.386C131.256 210.81 130.01 215.199 130.01 215.199Z" fill="white"/>
<path d="M152.038 166.114C148.64 145.129 149.013 131.104 145.615 120.763L125.898 120.492C125.898 120.492 135.305 153.79 139.597 167.652C143.888 181.513 151.68 211.663 151.68 211.663H157.985C157.985 211.663 157.73 182.346 152.038 166.114Z" fill="#E8356D"/>
<path d="M145.049 218.638C145.049 218.638 152.013 216.477 152.417 213.324L158.303 214.091L158.946 220.222H157.414L157.03 219.461L156.213 220.222C147.956 220.222 146.255 220.135 144.727 219.624C144.682 219.446 144.688 219.259 144.745 219.084C144.802 218.91 144.907 218.755 145.049 218.638Z" fill="#263238"/>
<path d="M158.945 215.051C157.586 215.326 152.456 215.005 151.531 214.58C150.606 214.156 150.903 210.554 150.903 210.554C150.903 210.554 157.882 209.727 158.628 210.151C159.374 210.575 158.945 215.051 158.945 215.051Z" fill="#E8356D"/>
<path opacity="0.3" d="M158.945 215.051C157.586 215.326 152.456 215.005 151.531 214.58C150.606 214.156 150.903 210.554 150.903 210.554C150.903 210.554 157.882 209.727 158.628 210.151C159.374 210.575 158.945 215.051 158.945 215.051Z" fill="white"/>
<path d="M118.246 120.359C118.046 118.05 116.084 101.664 116.008 100.162C116.105 91.9871 120.213 81.5998 122.905 78.621C123.525 78.3509 124.221 78.311 124.867 78.5086C124.867 78.5086 121.148 83.2501 120.126 91.1389C126.967 92.7841 134.35 91.9615 136.282 91.563C136.956 86.0602 140.369 79.4181 141.115 78.4728C141.738 78.4384 142.361 78.5269 142.949 78.7334C142.949 78.7334 139.24 86.1522 138.862 91.8491C138.484 97.5461 145.867 100.31 145.867 100.31C145.867 100.31 145.075 105.246 145.244 107.463C145.412 109.681 145.642 120.748 145.642 120.748C145.642 120.748 127.836 123.66 118.246 120.359Z" fill="#E8356D"/>
<path d="M123.17 128.994L119.711 120.313L119.374 120.446L119.031 120.584L122.495 129.265L122.403 130.031L123.436 131.641L123.778 131.503L124.125 131.365L123.763 129.49L123.17 128.994Z" fill="white"/>
<path d="M119.635 121.11C119.334 121.228 118.999 121.222 118.703 121.094C118.406 120.965 118.172 120.725 118.051 120.426L114.863 112.429C114.744 112.128 114.749 111.791 114.877 111.494C115.006 111.196 115.247 110.961 115.548 110.84C115.849 110.723 116.184 110.729 116.481 110.857C116.777 110.985 117.011 111.225 117.132 111.525L120.32 119.521C120.439 119.823 120.434 120.159 120.306 120.457C120.177 120.755 119.936 120.99 119.635 121.11Z" fill="#263238"/>
<path d="M118.134 119.24C117.797 119.582 117.74 121.795 118.42 122.816C122.972 125.162 134.974 125.504 146.169 122.607C146.44 121.294 146.332 119.541 145.576 118.995C144.043 120.303 132.185 122.178 124.071 121.125C121.987 120.893 119.97 120.252 118.134 119.24Z" fill="#263238"/>
<path opacity="0.2" d="M119.838 94.1479C119.838 94.1479 124.099 95.8953 135.979 95.0421C136.126 98.7082 135.998 102.38 135.595 106.027C135.253 108.199 125.888 110.283 125.888 110.283C125.888 110.283 119.915 107.984 119.445 105.302C118.975 102.619 119.838 94.1479 119.838 94.1479Z" fill="white"/>
<path d="M142.576 62.4244C138.305 60.7638 132.674 58.9654 127.662 59.0726C127.795 57.6738 128.415 56.3662 129.415 55.3786C130.436 54.5509 133.839 53.8458 136.491 54.4231C138.591 54.8932 141.156 56.4669 142.3 58.4749C142.796 59.3434 142.576 62.4244 142.576 62.4244Z" fill="#E8356D"/>
<path opacity="0.3" d="M136.813 55.9966C134.81 54.1572 130.421 54.5507 129.415 55.3784C128.415 56.366 127.795 57.6736 127.662 59.0724C130.845 59.006 134.274 59.706 137.447 60.6512C137.498 58.9549 137.59 57.6929 136.813 55.9966Z" fill="white"/>
<path d="M138.293 60.9065C135.273 60.6409 131.998 60.4927 130.568 59.8847C129.137 59.2767 125.632 59.0314 124.947 59.7774C124.631 59.2 126.24 58.1526 129.546 58.3263C132.852 58.5 138.293 60.9065 138.293 60.9065Z" fill="#E8356D"/>
<path d="M133.364 55.5523L132.005 55.4399L131.443 56.5589L131.05 56.5231L130.523 57.9537L132.031 56.6151L132.307 56.6355L133.364 55.5523Z" fill="white"/>
<path d="M136.926 54.4844C136.875 54.7398 136.528 54.8829 136.16 54.8063C135.792 54.7296 135.542 54.4486 135.598 54.1931C135.654 53.9377 135.996 53.7946 136.364 53.8712C136.732 53.9479 136.998 54.2238 136.926 54.4844Z" fill="#E8356D"/>
<path d="M148.682 82.4582C149.346 83.0764 149.913 83.6231 150.496 84.226C151.078 84.8289 151.64 85.4216 152.202 86.0296C153.311 87.2609 154.399 88.5178 155.426 89.8616C156.504 91.229 157.496 92.6624 158.395 94.1535C158.886 94.962 159.332 95.7979 159.728 96.657C160.207 97.6818 160.565 98.7585 160.796 99.8657L160.852 100.121C160.886 100.289 160.901 100.461 160.898 100.632C160.886 101.776 160.66 102.907 160.234 103.969C159.918 104.765 159.542 105.537 159.11 106.278C158.346 107.577 157.478 108.813 156.515 109.972C155.609 111.07 154.649 112.123 153.638 113.124C152.634 114.123 151.579 115.068 150.475 115.955C150.055 116.288 149.533 116.466 148.997 116.457C148.461 116.448 147.944 116.253 147.536 115.905C147.128 115.558 146.853 115.08 146.758 114.552C146.663 114.024 146.754 113.48 147.016 113.012L147.052 112.951L148.953 109.538C149.576 108.403 150.189 107.279 150.741 106.16C151.284 105.106 151.765 104.021 152.182 102.911C152.36 102.458 152.497 101.989 152.591 101.511C152.662 101.123 152.652 100.801 152.591 100.908L152.693 101.695C152.517 101.28 152.31 100.879 152.075 100.494C151.768 99.9832 151.415 99.4723 151.022 98.9103C150.629 98.3482 150.199 97.8169 149.75 97.2651C149.3 96.7133 148.84 96.1512 148.36 95.5994C147.394 94.4958 146.398 93.3871 145.371 92.2937L143.838 90.6587L142.305 89.0697L142.229 88.993C141.436 88.1226 141.007 86.981 141.03 85.8036C141.054 84.6262 141.528 83.5027 142.356 82.6647C143.183 81.8268 144.301 81.3383 145.478 81.2998C146.655 81.2614 147.802 81.676 148.682 82.4582Z" fill="#CF7A64"/>
<path d="M150.045 111.627L144.895 111.698L146.708 117.605C146.708 117.605 151.368 116.976 151.429 114.447L150.045 111.627Z" fill="#263238"/>
<path d="M141.136 115.51L142.122 117.472C142.311 117.851 142.629 118.149 143.018 118.315C143.408 118.481 143.843 118.503 144.247 118.377L146.71 117.605L144.896 111.699L141.963 113.094C141.749 113.196 141.557 113.34 141.398 113.518C141.24 113.696 141.119 113.903 141.042 114.128C140.965 114.353 140.933 114.591 140.949 114.829C140.966 115.066 141.029 115.298 141.136 115.51Z" fill="#263238"/>
<path d="M146.82 112.429C147.981 111.074 148.88 109.514 149.472 107.831C152.992 108.608 155.092 111.551 154.796 112.762C152.752 114.836 150.923 116.287 149.513 116.762C147.51 115.72 146.82 112.429 146.82 112.429Z" fill="#263238"/>
<path d="M143.391 79.1011C145.946 79.7142 149.548 81.1448 151.127 83.5871C152.706 86.0294 156.967 90.6584 158.586 93.8927C156.159 99.3392 152.792 99.2779 150.284 98.7874C145.854 95.8087 140.147 92.1095 140.065 88.9519C139.993 86.198 141.48 82.1411 143.391 79.1011Z" fill="#263238"/>
<path d="M146.514 105.726C146.721 105.846 146.954 105.915 147.194 105.925C147.379 105.936 147.562 105.875 147.704 105.757C147.817 105.63 147.898 105.478 147.94 105.313C147.982 105.149 147.983 104.977 147.945 104.811C147.803 104.064 147.57 103.336 147.25 102.645C147.112 102.318 146.969 101.971 146.851 101.623C146.54 100.613 146.32 99.5765 146.192 98.527C146.039 97.5102 145.886 96.4424 145.819 95.4205C145.763 94.511 145.788 93.576 145.788 92.6768V91.19C145.783 90.6024 145.742 90.0097 145.742 89.417C145.666 86.9492 145.589 84.3996 146.575 82.1771C146.642 82.0238 146.718 81.8705 146.79 81.7172L146.8 81.695C147.17 80.9101 147.549 80.1046 147.367 79.229C147.35 79.0808 147.281 78.9434 147.173 78.8406C147.117 78.7864 147.049 78.7457 146.975 78.7218C146.9 78.6979 146.821 78.6913 146.744 78.7027C146.576 78.7361 146.422 78.8178 146.299 78.9377C146.194 78.9013 146.082 78.8925 145.972 78.9122C145.671 78.9684 145.41 79.3465 145.16 79.8012L145.063 79.98C144.58 80.7331 144.157 81.5223 143.796 82.3406C143.074 83.9819 142.559 85.7068 142.263 87.4755C142.088 88.4808 141.975 89.4961 141.926 90.5155C141.727 94.1125 142.217 97.9701 143.459 102.65C143.578 103.189 143.78 103.706 144.056 104.183C144.299 104.554 144.618 104.869 144.993 105.107C145.367 105.344 145.789 105.498 146.228 105.557L146.514 105.726Z" fill="#E8356D"/>
<path opacity="0.4" d="M146.514 105.726C146.721 105.846 146.954 105.915 147.194 105.925C147.379 105.936 147.562 105.875 147.704 105.757C147.817 105.63 147.898 105.478 147.94 105.313C147.982 105.149 147.983 104.977 147.945 104.811C147.803 104.064 147.57 103.336 147.25 102.645C147.112 102.318 146.969 101.971 146.851 101.623C146.54 100.613 146.32 99.5765 146.192 98.527C146.039 97.5102 145.886 96.4424 145.819 95.4205C145.763 94.511 145.788 93.576 145.788 92.6768V91.19C145.783 90.6024 145.742 90.0097 145.742 89.417C145.666 86.9492 145.589 84.3996 146.575 82.1771C146.642 82.0238 146.718 81.8705 146.79 81.7172L146.8 81.695C147.17 80.9101 147.549 80.1046 147.367 79.229C147.35 79.0808 147.281 78.9434 147.173 78.8406C147.117 78.7864 147.049 78.7457 146.975 78.7218C146.9 78.6979 146.821 78.6913 146.744 78.7027C146.576 78.7361 146.422 78.8178 146.299 78.9377C146.194 78.9013 146.082 78.8925 145.972 78.9122C145.671 78.9684 145.41 79.3465 145.16 79.8012L145.063 79.98C144.58 80.7331 144.157 81.5223 143.796 82.3406C143.074 83.9819 142.559 85.7068 142.263 87.4755C142.088 88.4808 141.975 89.4961 141.926 90.5155C141.727 94.1125 142.217 97.9701 143.459 102.65C143.578 103.189 143.78 103.706 144.056 104.183C144.299 104.554 144.618 104.869 144.993 105.107C145.367 105.344 145.789 105.498 146.228 105.557L146.514 105.726Z" fill="white"/>
<path opacity="0.4" d="M99.0879 56.5227C98.6679 54.4806 97.7365 52.5785 96.3809 50.9945C95.0253 49.4105 93.2899 48.1965 91.3372 47.4661C89.3844 46.7358 87.2782 46.513 85.2159 46.8186C83.1536 47.1243 81.2025 47.9483 79.5456 49.2136C77.8886 50.4789 76.5798 52.1441 75.7419 54.0532C74.9039 55.9622 74.5642 58.0527 74.7546 60.1289C74.9449 62.205 75.6591 64.1989 76.8302 65.9238C78.0013 67.6486 79.591 69.0481 81.4504 69.991C82.1062 70.318 82.6819 70.7855 83.1365 71.3603C83.6788 72.0641 84.4081 72.6011 85.2411 72.9101C86.0741 73.2191 86.9773 73.2876 87.8473 73.1077L91.8377 72.2851C92.7086 72.1065 93.5116 71.6864 94.1549 71.0729C94.7982 70.4594 95.2559 69.6772 95.4756 68.8158C95.6628 68.1147 96.0031 67.4639 96.4719 66.91C97.6631 65.488 98.5172 63.815 98.9702 62.0161C99.4233 60.2173 99.4635 58.3393 99.0879 56.5227Z" fill="#E8356D"/>
<path d="M93.684 74.7631L87.1338 76.112C86.8961 76.1604 86.6489 76.1129 86.446 75.9799C86.2431 75.8469 86.101 75.6391 86.0506 75.4018C86.0037 75.1635 86.0525 74.9163 86.1863 74.7136C86.3201 74.5109 86.5283 74.369 86.7659 74.3186L93.3161 72.9442C93.5544 72.8973 93.8016 72.946 94.0043 73.0798C94.207 73.2137 94.3488 73.4219 94.3993 73.6595C94.4255 73.7789 94.4277 73.9024 94.4059 74.0228C94.3841 74.1431 94.3385 74.258 94.272 74.3606C94.2055 74.4632 94.1193 74.5517 94.0183 74.6208C93.9174 74.6899 93.8037 74.7382 93.684 74.7631Z" fill="#263238"/>
<path d="M93.5846 77.4969L88.3067 78.5647C88.0682 78.613 87.8204 78.5648 87.6174 78.4308C87.4143 78.2967 87.2727 78.0877 87.2235 77.8494C87.1752 77.6123 87.2228 77.3658 87.3559 77.1637C87.489 76.9616 87.6968 76.8205 87.9337 76.7714L93.2117 75.6831C93.4494 75.6346 93.6966 75.6821 93.8995 75.8151C94.1024 75.9482 94.2445 76.1559 94.2948 76.3933C94.3218 76.5124 94.3248 76.6358 94.3036 76.7561C94.2824 76.8764 94.2374 76.9913 94.1712 77.094C94.1051 77.1968 94.0192 77.2853 93.9185 77.3545C93.8178 77.4237 93.7043 77.4721 93.5846 77.4969Z" fill="#263238"/>
<path d="M91.8891 72.5356C91.8284 72.5475 91.7654 72.537 91.7118 72.506C91.6582 72.475 91.6178 72.4256 91.5979 72.367C91.4753 72.0042 89.6512 66.3533 89.2731 61.525C88.1853 61.845 87.0727 62.0741 85.9469 62.2096C87.5104 66.808 88.0673 72.7042 88.1031 73.0874C88.1088 73.1544 88.0878 73.2209 88.0448 73.2726C88.0017 73.3242 87.9401 73.3568 87.8732 73.3633C87.8399 73.3668 87.8062 73.3636 87.7741 73.3539C87.7421 73.3442 87.7123 73.3281 87.6866 73.3067C87.6609 73.2852 87.6397 73.2589 87.6244 73.2291C87.609 73.1993 87.5998 73.1668 87.5972 73.1334C87.5972 73.0414 87.0046 66.8642 85.4309 62.2658C81.3996 62.5979 79.9741 61.0651 79.5245 60.3038C79.2553 59.8841 79.1235 59.3909 79.1473 58.8929C79.1711 58.3948 79.3493 57.9165 79.6573 57.5243C79.9978 57.1555 80.4484 56.9065 80.9418 56.8145C81.4353 56.7224 81.9453 56.7922 82.3959 57.0134C83.8317 57.5601 84.9506 59.4403 85.7732 61.7293C86.3114 61.6714 86.8939 61.5795 87.5206 61.4534C88.1542 61.3206 88.7264 61.1775 89.2374 61.0191C89.0994 58.582 89.3702 56.4207 90.4738 55.3477C90.8031 54.9685 91.2459 54.7054 91.7364 54.5978C92.227 54.4901 92.7393 54.5434 93.1971 54.7499C93.6351 54.9881 93.9884 55.3564 94.208 55.8039C94.4277 56.2515 94.5029 56.7562 94.4233 57.2484C94.3058 58.1272 93.6007 60.0994 89.7687 61.3819C90.1468 66.2307 92.0526 72.1115 92.0833 72.2239C92.1028 72.2883 92.0968 72.3578 92.0663 72.4178C92.0358 72.4778 91.9833 72.5237 91.9198 72.5458L91.8891 72.5356ZM91.9657 55.0616C91.5385 55.1647 91.149 55.3861 90.8417 55.7003C89.876 56.6404 89.6257 58.5973 89.7483 60.8403C93.3248 59.5987 93.8358 57.7747 93.9329 57.1667C93.9991 56.7805 93.9437 56.3833 93.7744 56.03C93.605 55.6767 93.3301 55.3847 92.9876 55.1945C92.6725 55.0336 92.3115 54.9866 91.9657 55.0616ZM80.95 57.3353C80.6056 57.3996 80.2937 57.5799 80.0661 57.8462C79.8258 58.1562 79.6879 58.5331 79.6714 58.925C79.6549 59.3168 79.7607 59.704 79.9741 60.033C80.2858 60.544 81.5069 62.0206 85.2674 61.7549C84.4959 59.6447 83.4944 57.9484 82.2324 57.463C81.8213 57.2958 81.3705 57.2514 80.9347 57.3353H80.95Z" fill="white"/>
<path d="M87.8604 40.229L87.6387 43.9727L88.1487 44.0029L88.3705 40.2592L87.8604 40.229Z" fill="#E8356D"/>
<path d="M92.6916 41.086L91.5078 44.6445L91.9926 44.8058L93.1764 41.2473L92.6916 41.086Z" fill="#E8356D"/>
<path d="M97.1212 43.1688L95.0605 46.3022L95.4874 46.583L97.5481 43.4496L97.1212 43.1688Z" fill="#E8356D"/>
<path d="M78.5489 71.3827L76.4883 74.5161L76.9152 74.7968L78.9758 71.6634L78.5489 71.3827Z" fill="#E8356D"/>
<path d="M100.87 46.3119L98.0684 48.8047L98.408 49.1864L101.21 46.6936L100.87 46.3119Z" fill="#E8356D"/>
<path d="M75.6202 68.7699L72.8184 71.2627L73.158 71.6444L75.9598 69.1516L75.6202 68.7699Z" fill="#E8356D"/>
<path d="M103.679 50.3331L100.324 52.0205L100.554 52.477L103.909 50.7896L103.679 50.3331Z" fill="#E8356D"/>
<path d="M73.478 65.4791L70.123 67.1665L70.3526 67.623L73.7076 65.9356L73.478 65.4791Z" fill="#E8356D"/>
<path d="M105.352 54.9394L101.674 55.6978L101.777 56.1982L105.455 55.4398L105.352 54.9394Z" fill="#E8356D"/>
<path d="M72.2561 61.7617L68.5781 62.52L68.6813 63.0204L72.3593 62.2621L72.2561 61.7617Z" fill="#E8356D"/>
<path d="M102.022 59.6032L101.992 60.1133L105.741 60.3334L105.771 59.8233L102.022 59.6032Z" fill="#E8356D"/>
<path d="M68.2956 57.6311L68.2656 58.1411L72.0145 58.3612L72.0445 57.8512L68.2956 57.6311Z" fill="#E8356D"/>
<path d="M101.353 63.4663L101.191 63.9512L104.75 65.1337L104.911 64.6488L101.353 63.4663Z" fill="#E8356D"/>
<path d="M69.2842 52.832L69.123 53.3169L72.682 54.4994L72.8431 54.0146L69.2842 52.832Z" fill="#E8356D"/>
<path d="M99.7031 67.028L99.4219 67.4546L102.553 69.519L102.834 69.0925L99.7031 67.028Z" fill="#E8356D"/>
<path d="M71.4883 48.4572L71.207 48.8838L74.3379 50.9482L74.6192 50.5217L71.4883 48.4572Z" fill="#E8356D"/>
<path d="M74.7332 44.7852L74.3516 45.125L76.8454 47.926L77.227 47.5862L74.7332 44.7852Z" fill="#E8356D"/>
<path d="M78.8237 42.0904L78.3672 42.3198L80.0511 45.6708L80.5076 45.4414L78.8237 42.0904Z" fill="#E8356D"/>
<path d="M83.475 40.5531L82.9746 40.6562L83.7329 44.3343L84.2334 44.2311L83.475 40.5531Z" fill="#E8356D"/>
</svg>
