<svg width="349" height="186" viewBox="0 0 349 186" fill="none" xmlns="http://www.w3.org/2000/svg">
<g clip-path="url(#clip0_5319_99919)">
<rect width="349" height="186" rx="10" fill="#FDF1F5"/>
<g opacity="0.2">
<path fill-rule="evenodd" clip-rule="evenodd" d="M156.454 75.1868C160.018 75.1868 162.907 72.2973 162.907 68.733C162.907 65.1687 160.018 62.2793 156.454 62.2793C152.889 62.2793 150 65.1687 150 68.733C150 72.2973 152.889 75.1868 156.454 75.1868ZM156.347 72.2243C158.216 72.2243 159.732 70.7085 159.732 68.8387C159.732 66.9689 158.216 65.4531 156.347 65.4531C154.477 65.4531 152.961 66.9689 152.961 68.8387C152.961 70.7085 154.477 72.2243 156.347 72.2243Z" fill="#E8356D"/>
<path fill-rule="evenodd" clip-rule="evenodd" d="M162.213 61.5816C163.754 61.5816 165.003 60.3321 165.003 58.7908C165.003 57.2495 163.754 56 162.213 56C160.671 56 159.422 57.2495 159.422 58.7908C159.422 60.3321 160.671 61.5816 162.213 61.5816ZM162.167 60.3006C162.976 60.3006 163.631 59.6452 163.631 58.8366C163.631 58.028 162.976 57.3726 162.167 57.3726C161.359 57.3726 160.703 58.028 160.703 58.8366C160.703 59.6452 161.359 60.3006 162.167 60.3006Z" fill="#E8356D"/>
</g>
<g opacity="0.2">
<path fill-rule="evenodd" clip-rule="evenodd" d="M297.454 162.187C301.018 162.187 303.907 159.297 303.907 155.733C303.907 152.169 301.018 149.279 297.454 149.279C293.889 149.279 291 152.169 291 155.733C291 159.297 293.889 162.187 297.454 162.187ZM297.347 159.224C299.216 159.224 300.732 157.708 300.732 155.839C300.732 153.969 299.216 152.453 297.347 152.453C295.477 152.453 293.961 153.969 293.961 155.839C293.961 157.708 295.477 159.224 297.347 159.224Z" fill="#E8356D"/>
<path fill-rule="evenodd" clip-rule="evenodd" d="M303.213 148.582C304.754 148.582 306.003 147.332 306.003 145.791C306.003 144.249 304.754 143 303.213 143C301.671 143 300.422 144.249 300.422 145.791C300.422 147.332 301.671 148.582 303.213 148.582ZM303.167 147.301C303.976 147.301 304.631 146.645 304.631 145.837C304.631 145.028 303.976 144.373 303.167 144.373C302.359 144.373 301.703 145.028 301.703 145.837C301.703 146.645 302.359 147.301 303.167 147.301Z" fill="#E8356D"/>
</g>
<path d="M109.43 75.8365C94.1623 64.1987 75.1757 58.5258 56.0261 59.8803C36.8765 61.2347 18.8774 69.5236 5.39976 83.1946C-8.07786 96.8656 -16.1095 114.981 -17.1911 134.148C-18.2726 153.315 -12.3298 172.219 -0.475649 187.319C11.3785 202.42 28.3309 212.681 47.2066 216.181C66.0822 219.681 85.5865 216.18 102.067 206.333C118.547 196.487 130.872 180.971 136.734 162.69C142.596 144.41 141.594 124.619 133.914 107.025L98.9098 122.304C102.873 131.383 103.39 141.595 100.365 151.027C97.3403 160.46 90.9806 168.466 82.4771 173.547C73.9736 178.627 63.9096 180.434 54.17 178.628C44.4304 176.822 35.6831 171.527 29.5665 163.735C23.4499 155.944 20.3835 146.19 20.9416 136.3C21.4996 126.41 25.6439 117.062 32.5982 110.008C39.5525 102.954 48.8398 98.6773 58.7208 97.9784C68.6018 97.2795 78.3986 100.207 86.2766 106.212L109.43 75.8365Z" fill="#FCE8EE"/>
</g>
<defs>
<clipPath id="clip0_5319_99919">
<rect width="349" height="186" fill="white"/>
</clipPath>
</defs>
</svg>
