<svg width="36" height="37" viewBox="0 0 36 37" fill="none" xmlns="http://www.w3.org/2000/svg">
<ellipse cx="18" cy="18.144" rx="18" ry="18.144" fill="#E9D6FA"/>
<path d="M26.4193 22.0417V24.4167H10.5859V22.0417C10.5859 21.6062 10.9422 21.25 11.3776 21.25H25.6276C26.063 21.25 26.4193 21.6062 26.4193 22.0417Z" fill="#8807F7" stroke="#8807F7" stroke-width="1.1875" stroke-miterlimit="10" stroke-linecap="round" stroke-linejoin="round"/>
<path d="M14.5443 15.709H12.9609V21.2507H14.5443V15.709Z" fill="#8807F7"/>
<path d="M17.7083 15.709H16.125V21.2507H17.7083V15.709Z" fill="#8807F7"/>
<path d="M20.8724 15.709H19.2891V21.2507H20.8724V15.709Z" fill="#8807F7"/>
<path d="M24.0443 15.709H22.4609V21.2507H24.0443V15.709Z" fill="#8807F7"/>
<path d="M27.2057 25.0098H9.78906C9.46448 25.0098 9.19531 24.7406 9.19531 24.416C9.19531 24.0914 9.46448 23.8223 9.78906 23.8223H27.2057C27.5303 23.8223 27.7995 24.0914 27.7995 24.416C27.7995 24.7406 27.5303 25.0098 27.2057 25.0098Z" fill="#8807F7"/>
<path d="M25.9205 11.5518L18.7955 8.7018C18.6372 8.63846 18.368 8.63846 18.2097 8.7018L11.0847 11.5518C10.8076 11.6626 10.5859 11.9872 10.5859 12.288V14.9164C10.5859 15.3518 10.9422 15.708 11.3776 15.708H25.6276C26.063 15.708 26.4193 15.3518 26.4193 14.9164V12.288C26.4193 11.9872 26.1976 11.6626 25.9205 11.5518ZM18.5026 13.7289C17.8455 13.7289 17.3151 13.1985 17.3151 12.5414C17.3151 11.8843 17.8455 11.3539 18.5026 11.3539C19.1597 11.3539 19.6901 11.8843 19.6901 12.5414C19.6901 13.1985 19.1597 13.7289 18.5026 13.7289Z" fill="#8807F7"/>
</svg>
