<svg width="1024" height="328" viewBox="0 0 1024 328" fill="none" xmlns="http://www.w3.org/2000/svg">
<rect width="1024" height="328" rx="10" fill="#8807F7"/>
<path d="M68.15 53.675V56.4H62.825V71H59.65V56.4H54.325V53.675H68.15ZM80.8604 64.45C80.8604 65.4833 80.7104 66.425 80.4104 67.275C80.1104 68.125 79.6854 68.85 79.1354 69.45C78.5854 70.05 77.9187 70.5167 77.1354 70.85C76.3687 71.1833 75.5187 71.35 74.5854 71.35C73.652 71.35 72.802 71.1833 72.0354 70.85C71.2687 70.5167 70.6104 70.05 70.0604 69.45C69.5104 68.85 69.077 68.125 68.7604 67.275C68.4604 66.425 68.3104 65.4833 68.3104 64.45C68.3104 63.4167 68.4604 62.4833 68.7604 61.65C69.077 60.8 69.5104 60.075 70.0604 59.475C70.627 58.875 71.2937 58.4167 72.0604 58.1C72.827 57.7667 73.6687 57.6 74.5854 57.6C75.502 57.6 76.3437 57.7667 77.1104 58.1C77.8937 58.4167 78.5604 58.875 79.1104 59.475C79.6604 60.075 80.0854 60.8 80.3854 61.65C80.702 62.4833 80.8604 63.4167 80.8604 64.45ZM77.7604 64.45C77.7604 63.15 77.477 62.125 76.9104 61.375C76.3604 60.6083 75.5854 60.225 74.5854 60.225C73.5854 60.225 72.802 60.6083 72.2354 61.375C71.6854 62.125 71.4104 63.15 71.4104 64.45C71.4104 65.7667 71.6854 66.8083 72.2354 67.575C72.802 68.3417 73.5854 68.725 74.5854 68.725C75.5854 68.725 76.3604 68.3417 76.9104 67.575C77.477 66.8083 77.7604 65.7667 77.7604 64.45ZM83.8268 54.475L86.8518 53.975V57.925H91.5018V60.45H86.8518V65.775C86.8518 66.825 87.0184 67.575 87.3518 68.025C87.6851 68.475 88.2518 68.7 89.0518 68.7C89.6018 68.7 90.0851 68.6417 90.5018 68.525C90.9351 68.4083 91.2768 68.3 91.5268 68.2L92.0268 70.6C91.6768 70.75 91.2184 70.9 90.6518 71.05C90.0851 71.2167 89.4184 71.3 88.6518 71.3C87.7184 71.3 86.9351 71.175 86.3018 70.925C85.6851 70.675 85.1934 70.3167 84.8268 69.85C84.4601 69.3667 84.2018 68.7917 84.0518 68.125C83.9018 67.4417 83.8268 66.6667 83.8268 65.8V54.475ZM99.026 68.875C99.9593 68.875 100.668 68.825 101.151 68.725V65.375C100.984 65.325 100.743 65.275 100.426 65.225C100.109 65.175 99.7593 65.15 99.376 65.15C99.0426 65.15 98.701 65.175 98.351 65.225C98.0176 65.275 97.7093 65.3667 97.426 65.5C97.1593 65.6333 96.9426 65.825 96.776 66.075C96.6093 66.3083 96.526 66.6083 96.526 66.975C96.526 67.6917 96.751 68.1917 97.201 68.475C97.651 68.7417 98.2593 68.875 99.026 68.875ZM98.776 57.6C99.776 57.6 100.618 57.725 101.301 57.975C101.984 58.225 102.526 58.575 102.926 59.025C103.343 59.475 103.634 60.025 103.801 60.675C103.984 61.3083 104.076 62.0083 104.076 62.775V70.7C103.609 70.8 102.901 70.9167 101.951 71.05C101.018 71.2 99.9593 71.275 98.776 71.275C97.9926 71.275 97.276 71.2 96.626 71.05C95.976 70.9 95.4176 70.6583 94.951 70.325C94.501 69.9917 94.1426 69.5583 93.876 69.025C93.626 68.4917 93.501 67.8333 93.501 67.05C93.501 66.3 93.6426 65.6667 93.926 65.15C94.226 64.6333 94.626 64.2167 95.126 63.9C95.626 63.5667 96.201 63.3333 96.851 63.2C97.5176 63.05 98.2093 62.975 98.926 62.975C99.2593 62.975 99.6093 63 99.976 63.05C100.343 63.0833 100.734 63.15 101.151 63.25V62.75C101.151 62.4 101.109 62.0667 101.026 61.75C100.943 61.4333 100.793 61.1583 100.576 60.925C100.376 60.675 100.101 60.4833 99.751 60.35C99.4176 60.2167 98.9926 60.15 98.476 60.15C97.776 60.15 97.1343 60.2 96.551 60.3C95.9676 60.4 95.4926 60.5167 95.126 60.65L94.751 58.2C95.1343 58.0667 95.6926 57.9333 96.426 57.8C97.1593 57.6667 97.9426 57.6 98.776 57.6ZM112.33 71.25C111.43 71.2333 110.68 71.1333 110.08 70.95C109.497 70.7667 109.03 70.5083 108.68 70.175C108.33 69.825 108.08 69.4 107.93 68.9C107.797 68.3833 107.73 67.8 107.73 67.15V52.1L110.755 51.6V66.575C110.755 66.9417 110.78 67.25 110.83 67.5C110.897 67.75 111.005 67.9667 111.155 68.15C111.305 68.3167 111.505 68.45 111.755 68.55C112.022 68.6333 112.355 68.7 112.755 68.75L112.33 71.25ZM125.387 68.65C126.521 68.65 127.346 68.4583 127.862 68.075C128.379 67.6917 128.637 67.15 128.637 66.45C128.637 66.0333 128.546 65.675 128.362 65.375C128.196 65.075 127.946 64.8083 127.612 64.575C127.296 64.325 126.904 64.1 126.437 63.9C125.971 63.6833 125.437 63.475 124.837 63.275C124.237 63.0583 123.654 62.825 123.087 62.575C122.537 62.3083 122.046 61.9833 121.612 61.6C121.196 61.2167 120.854 60.7583 120.587 60.225C120.337 59.6917 120.212 59.05 120.212 58.3C120.212 56.7333 120.754 55.5083 121.837 54.625C122.921 53.725 124.396 53.275 126.262 53.275C127.346 53.275 128.304 53.4 129.137 53.65C129.987 53.8833 130.654 54.1417 131.137 54.425L130.162 56.975C129.596 56.6583 128.971 56.4167 128.287 56.25C127.621 56.0833 126.929 56 126.212 56C125.362 56 124.696 56.175 124.212 56.525C123.746 56.875 123.512 57.3667 123.512 58C123.512 58.3833 123.587 58.7167 123.737 59C123.904 59.2667 124.129 59.5083 124.412 59.725C124.712 59.9417 125.054 60.1417 125.437 60.325C125.837 60.5083 126.271 60.6833 126.737 60.85C127.554 61.15 128.279 61.4583 128.912 61.775C129.562 62.075 130.104 62.4417 130.537 62.875C130.987 63.2917 131.329 63.7917 131.562 64.375C131.796 64.9417 131.912 65.6333 131.912 66.45C131.912 68.0167 131.354 69.2333 130.237 70.1C129.137 70.95 127.521 71.375 125.387 71.375C124.671 71.375 124.012 71.325 123.412 71.225C122.829 71.1417 122.304 71.0333 121.837 70.9C121.387 70.7667 120.996 70.6333 120.662 70.5C120.329 70.35 120.062 70.2167 119.862 70.1L120.787 67.525C121.237 67.775 121.846 68.025 122.612 68.275C123.379 68.525 124.304 68.65 125.387 68.65ZM139.138 68.875C140.072 68.875 140.78 68.825 141.263 68.725V65.375C141.097 65.325 140.855 65.275 140.538 65.225C140.222 65.175 139.872 65.15 139.488 65.15C139.155 65.15 138.813 65.175 138.463 65.225C138.13 65.275 137.822 65.3667 137.538 65.5C137.272 65.6333 137.055 65.825 136.888 66.075C136.722 66.3083 136.638 66.6083 136.638 66.975C136.638 67.6917 136.863 68.1917 137.313 68.475C137.763 68.7417 138.372 68.875 139.138 68.875ZM138.888 57.6C139.888 57.6 140.73 57.725 141.413 57.975C142.097 58.225 142.638 58.575 143.038 59.025C143.455 59.475 143.747 60.025 143.913 60.675C144.097 61.3083 144.188 62.0083 144.188 62.775V70.7C143.722 70.8 143.013 70.9167 142.063 71.05C141.13 71.2 140.072 71.275 138.888 71.275C138.105 71.275 137.388 71.2 136.738 71.05C136.088 70.9 135.53 70.6583 135.063 70.325C134.613 69.9917 134.255 69.5583 133.988 69.025C133.738 68.4917 133.613 67.8333 133.613 67.05C133.613 66.3 133.755 65.6667 134.038 65.15C134.338 64.6333 134.738 64.2167 135.238 63.9C135.738 63.5667 136.313 63.3333 136.963 63.2C137.63 63.05 138.322 62.975 139.038 62.975C139.372 62.975 139.722 63 140.088 63.05C140.455 63.0833 140.847 63.15 141.263 63.25V62.75C141.263 62.4 141.222 62.0667 141.138 61.75C141.055 61.4333 140.905 61.1583 140.688 60.925C140.488 60.675 140.213 60.4833 139.863 60.35C139.53 60.2167 139.105 60.15 138.588 60.15C137.888 60.15 137.247 60.2 136.663 60.3C136.08 60.4 135.605 60.5167 135.238 60.65L134.863 58.2C135.247 58.0667 135.805 57.9333 136.538 57.8C137.272 57.6667 138.055 57.6 138.888 57.6ZM150.925 71C150.092 69.2833 149.234 67.3167 148.35 65.1C147.484 62.8667 146.692 60.475 145.975 57.925H149.2C149.384 58.6583 149.592 59.45 149.825 60.3C150.075 61.1333 150.334 61.975 150.6 62.825C150.884 63.6583 151.167 64.475 151.45 65.275C151.75 66.0583 152.025 66.7667 152.275 67.4C152.525 66.7667 152.792 66.0583 153.075 65.275C153.359 64.475 153.634 63.6583 153.9 62.825C154.184 61.975 154.45 61.1333 154.7 60.3C154.95 59.45 155.167 58.6583 155.35 57.925H158.475C157.759 60.475 156.959 62.8667 156.075 65.1C155.209 67.3167 154.359 69.2833 153.525 71H150.925ZM163.785 71H160.76V57.925H163.785V71ZM164.11 54.1C164.11 54.6667 163.926 55.1167 163.56 55.45C163.193 55.7833 162.76 55.95 162.26 55.95C161.743 55.95 161.301 55.7833 160.935 55.45C160.568 55.1167 160.385 54.6667 160.385 54.1C160.385 53.5167 160.568 53.0583 160.935 52.725C161.301 52.3917 161.743 52.225 162.26 52.225C162.76 52.225 163.193 52.3917 163.56 52.725C163.926 53.0583 164.11 53.5167 164.11 54.1ZM167.644 58.35C168.227 58.1833 168.985 58.025 169.919 57.875C170.852 57.725 171.885 57.65 173.019 57.65C174.085 57.65 174.977 57.8 175.694 58.1C176.41 58.3833 176.977 58.7917 177.394 59.325C177.827 59.8417 178.127 60.475 178.294 61.225C178.477 61.9583 178.569 62.7667 178.569 63.65V71H175.544V64.125C175.544 63.425 175.494 62.8333 175.394 62.35C175.31 61.85 175.16 61.45 174.944 61.15C174.744 60.8333 174.46 60.6083 174.094 60.475C173.744 60.325 173.31 60.25 172.794 60.25C172.41 60.25 172.01 60.275 171.594 60.325C171.177 60.375 170.869 60.4167 170.669 60.45V71H167.644V58.35ZM184.643 64.125C184.643 65.4083 184.918 66.35 185.468 66.95C186.034 67.5333 186.759 67.825 187.643 67.825C188.126 67.825 188.576 67.7583 188.993 67.625C189.426 67.4917 189.776 67.3333 190.043 67.15V60.375C189.826 60.325 189.559 60.2833 189.243 60.25C188.926 60.2 188.526 60.175 188.043 60.175C186.943 60.175 186.101 60.5417 185.518 61.275C184.934 61.9917 184.643 62.9417 184.643 64.125ZM193.068 69.675C193.068 71.7583 192.534 73.2833 191.468 74.25C190.418 75.2167 188.801 75.7 186.618 75.7C185.818 75.7 185.034 75.6333 184.268 75.5C183.518 75.3667 182.834 75.1917 182.218 74.975L182.768 72.4C183.284 72.6167 183.868 72.7917 184.518 72.925C185.184 73.0583 185.901 73.125 186.668 73.125C187.884 73.125 188.751 72.875 189.268 72.375C189.784 71.875 190.043 71.1333 190.043 70.15V69.65C189.743 69.8 189.343 69.95 188.843 70.1C188.359 70.25 187.801 70.325 187.168 70.325C186.334 70.325 185.568 70.1917 184.868 69.925C184.184 69.6583 183.593 69.2667 183.093 68.75C182.609 68.2333 182.226 67.5917 181.943 66.825C181.676 66.0417 181.543 65.1417 181.543 64.125C181.543 63.175 181.684 62.3 181.968 61.5C182.268 60.7 182.693 60.0167 183.243 59.45C183.809 58.8833 184.493 58.4417 185.293 58.125C186.093 57.8083 187.001 57.65 188.018 57.65C189.001 57.65 189.934 57.725 190.818 57.875C191.701 58.025 192.451 58.1833 193.068 58.35V69.675ZM200.191 68.825C200.991 68.825 201.575 68.7333 201.941 68.55C202.308 68.35 202.491 68.0167 202.491 67.55C202.491 67.1167 202.291 66.7583 201.891 66.475C201.508 66.1917 200.866 65.8833 199.966 65.55C199.416 65.35 198.908 65.1417 198.441 64.925C197.991 64.6917 197.6 64.425 197.266 64.125C196.933 63.825 196.666 63.4667 196.466 63.05C196.283 62.6167 196.191 62.0917 196.191 61.475C196.191 60.275 196.633 59.3333 197.516 58.65C198.4 57.95 199.6 57.6 201.116 57.6C201.883 57.6 202.616 57.675 203.316 57.825C204.016 57.9583 204.541 58.0917 204.891 58.225L204.341 60.675C204.008 60.525 203.583 60.3917 203.066 60.275C202.55 60.1417 201.95 60.075 201.266 60.075C200.65 60.075 200.15 60.1833 199.766 60.4C199.383 60.6 199.191 60.9167 199.191 61.35C199.191 61.5667 199.225 61.7583 199.291 61.925C199.375 62.0917 199.508 62.25 199.691 62.4C199.875 62.5333 200.116 62.675 200.416 62.825C200.716 62.9583 201.083 63.1 201.516 63.25C202.233 63.5167 202.841 63.7833 203.341 64.05C203.841 64.3 204.25 64.5917 204.566 64.925C204.9 65.2417 205.141 65.6083 205.291 66.025C205.441 66.4417 205.516 66.9417 205.516 67.525C205.516 68.775 205.05 69.725 204.116 70.375C203.2 71.0083 201.883 71.325 200.166 71.325C199.016 71.325 198.091 71.225 197.391 71.025C196.691 70.8417 196.2 70.6917 195.916 70.575L196.441 68.05C196.891 68.2333 197.425 68.4083 198.041 68.575C198.675 68.7417 199.391 68.825 200.191 68.825Z" fill="white"/>
<circle cx="68" cy="129.5" r="9" fill="#FBBF24"/>
<path d="M132.1 130.06C132.1 131.26 131.913 132.307 131.54 133.2C131.167 134.08 130.64 134.813 129.96 135.4C129.28 135.973 128.467 136.407 127.52 136.7C126.573 136.98 125.533 137.12 124.4 137.12C123.84 137.12 123.22 137.093 122.54 137.04C121.873 137 121.267 136.913 120.72 136.78V123.34C121.267 123.207 121.873 123.12 122.54 123.08C123.22 123.027 123.84 123 124.4 123C125.533 123 126.573 123.147 127.52 123.44C128.467 123.72 129.28 124.153 129.96 124.74C130.64 125.313 131.167 126.047 131.54 126.94C131.913 127.82 132.1 128.86 132.1 130.06ZM124.56 135.42C126.4 135.42 127.773 134.953 128.68 134.02C129.587 133.073 130.04 131.753 130.04 130.06C130.04 128.367 129.587 127.053 128.68 126.12C127.773 125.173 126.4 124.7 124.56 124.7C124.013 124.7 123.587 124.707 123.28 124.72C122.987 124.733 122.78 124.747 122.66 124.76V135.36C122.78 135.373 122.987 135.387 123.28 135.4C123.587 135.413 124.013 135.42 124.56 135.42ZM134.978 123.14H136.918V137H134.978V123.14ZM144.089 137.12C143.809 137.12 143.502 137.113 143.169 137.1C142.849 137.087 142.522 137.067 142.189 137.04C141.869 137.013 141.549 136.98 141.229 136.94C140.909 136.9 140.616 136.847 140.349 136.78V123.34C140.616 123.273 140.909 123.22 141.229 123.18C141.549 123.14 141.869 123.107 142.189 123.08C142.522 123.053 142.849 123.033 143.169 123.02C143.489 123.007 143.789 123 144.069 123C144.869 123 145.616 123.06 146.309 123.18C147.016 123.3 147.622 123.507 148.129 123.8C148.649 124.08 149.056 124.453 149.349 124.92C149.642 125.387 149.789 125.96 149.789 126.64C149.789 127.4 149.609 128.027 149.249 128.52C148.889 129 148.409 129.36 147.809 129.6C148.622 129.84 149.269 130.22 149.749 130.74C150.229 131.26 150.469 131.993 150.469 132.94C150.469 134.327 149.956 135.373 148.929 136.08C147.916 136.773 146.302 137.12 144.089 137.12ZM142.269 130.54V135.42C142.416 135.433 142.589 135.447 142.789 135.46C142.962 135.473 143.162 135.487 143.389 135.5C143.629 135.5 143.902 135.5 144.209 135.5C144.782 135.5 145.322 135.467 145.829 135.4C146.349 135.32 146.802 135.187 147.189 135C147.576 134.813 147.882 134.553 148.109 134.22C148.349 133.887 148.469 133.467 148.469 132.96C148.469 132.507 148.382 132.127 148.209 131.82C148.036 131.5 147.782 131.247 147.449 131.06C147.129 130.873 146.742 130.74 146.289 130.66C145.836 130.58 145.329 130.54 144.769 130.54H142.269ZM142.269 128.98H144.309C144.789 128.98 145.242 128.947 145.669 128.88C146.096 128.813 146.462 128.693 146.769 128.52C147.089 128.347 147.336 128.12 147.509 127.84C147.696 127.56 147.789 127.207 147.789 126.78C147.789 126.38 147.696 126.047 147.509 125.78C147.322 125.5 147.062 125.28 146.729 125.12C146.409 124.947 146.029 124.82 145.589 124.74C145.149 124.66 144.682 124.62 144.189 124.62C143.696 124.62 143.309 124.627 143.029 124.64C142.749 124.653 142.496 124.673 142.269 124.7V128.98Z" fill="white"/>
<path d="M829.76 137V131.86H828.2V130.58H829.76V128.94H828.2V127.66H829.76V122.72H831.84L833.74 127.66H836.1V122.72H837.68V127.66H839.24V128.94H837.68V130.58H839.24V131.86H837.68V137H835.58L833.68 131.86H831.32V137H829.76ZM831.32 130.58H833.2L832.6 128.94H831.28L831.32 130.58ZM836.1 134.18H836.18L836.12 131.86H835.28L836.1 134.18ZM831.28 127.66H832.12L831.28 125.18H831.2L831.28 127.66ZM834.8 130.58H836.14L836.1 128.94H834.2L834.8 130.58ZM847.105 133.04C847.105 132.6 847.019 132.207 846.845 131.86C846.672 131.513 846.365 131.22 845.925 130.98C845.499 130.74 844.919 130.56 844.185 130.44C843.465 130.32 842.552 130.26 841.445 130.26C841.592 128.98 841.705 127.767 841.785 126.62C841.865 125.46 841.932 124.3 841.985 123.14H849.065V125.18H844.045C844.032 125.407 844.012 125.667 843.985 125.96C843.972 126.24 843.952 126.527 843.925 126.82C843.912 127.113 843.892 127.393 843.865 127.66C843.839 127.927 843.812 128.153 843.785 128.34C845.759 128.447 847.212 128.9 848.145 129.7C849.092 130.487 849.565 131.567 849.565 132.94C849.565 133.567 849.459 134.147 849.245 134.68C849.032 135.213 848.705 135.673 848.265 136.06C847.825 136.447 847.272 136.753 846.605 136.98C845.939 137.193 845.159 137.3 844.265 137.3C843.905 137.3 843.539 137.273 843.165 137.22C842.792 137.167 842.432 137.1 842.085 137.02C841.752 136.953 841.452 136.88 841.185 136.8C840.919 136.72 840.719 136.647 840.585 136.58L841.045 134.54C841.325 134.673 841.725 134.82 842.245 134.98C842.779 135.127 843.425 135.2 844.185 135.2C844.705 135.2 845.152 135.147 845.525 135.04C845.899 134.92 846.199 134.76 846.425 134.56C846.665 134.36 846.839 134.133 846.945 133.88C847.052 133.613 847.105 133.333 847.105 133.04ZM854.853 134.34C854.879 134.567 854.893 134.733 854.893 134.84C854.893 134.947 854.893 135.053 854.893 135.16C854.893 135.987 854.759 136.84 854.493 137.72C854.239 138.6 853.879 139.433 853.413 140.22L851.513 139.7C851.833 138.927 852.046 138.167 852.153 137.42C852.273 136.687 852.333 136.04 852.333 135.48C852.333 135.32 852.326 135.12 852.313 134.88C852.313 134.64 852.306 134.46 852.293 134.34H854.853ZM866.664 130.06C866.664 132.393 866.237 134.187 865.384 135.44C864.531 136.68 863.351 137.3 861.844 137.3C860.337 137.3 859.157 136.68 858.304 135.44C857.451 134.187 857.024 132.393 857.024 130.06C857.024 128.9 857.131 127.873 857.344 126.98C857.571 126.073 857.891 125.313 858.304 124.7C858.731 124.087 859.237 123.62 859.824 123.3C860.424 122.98 861.097 122.82 861.844 122.82C863.351 122.82 864.531 123.447 865.384 124.7C866.237 125.94 866.664 127.727 866.664 130.06ZM864.164 130.06C864.164 129.34 864.124 128.667 864.044 128.04C863.964 127.413 863.831 126.873 863.644 126.42C863.471 125.953 863.237 125.587 862.944 125.32C862.651 125.053 862.284 124.92 861.844 124.92C861.404 124.92 861.031 125.053 860.724 125.32C860.431 125.587 860.191 125.953 860.004 126.42C859.831 126.873 859.704 127.413 859.624 128.04C859.557 128.667 859.524 129.34 859.524 130.06C859.524 130.78 859.557 131.453 859.624 132.08C859.704 132.707 859.831 133.253 860.004 133.72C860.191 134.173 860.431 134.533 860.724 134.8C861.031 135.067 861.404 135.2 861.844 135.2C862.284 135.2 862.651 135.067 862.944 134.8C863.237 134.533 863.471 134.173 863.644 133.72C863.831 133.253 863.964 132.707 864.044 132.08C864.124 131.453 864.164 130.78 864.164 130.06ZM878.031 130.06C878.031 132.393 877.605 134.187 876.751 135.44C875.898 136.68 874.718 137.3 873.211 137.3C871.705 137.3 870.525 136.68 869.671 135.44C868.818 134.187 868.391 132.393 868.391 130.06C868.391 128.9 868.498 127.873 868.711 126.98C868.938 126.073 869.258 125.313 869.671 124.7C870.098 124.087 870.605 123.62 871.191 123.3C871.791 122.98 872.465 122.82 873.211 122.82C874.718 122.82 875.898 123.447 876.751 124.7C877.605 125.94 878.031 127.727 878.031 130.06ZM875.531 130.06C875.531 129.34 875.491 128.667 875.411 128.04C875.331 127.413 875.198 126.873 875.011 126.42C874.838 125.953 874.605 125.587 874.311 125.32C874.018 125.053 873.651 124.92 873.211 124.92C872.771 124.92 872.398 125.053 872.091 125.32C871.798 125.587 871.558 125.953 871.371 126.42C871.198 126.873 871.071 127.413 870.991 128.04C870.925 128.667 870.891 129.34 870.891 130.06C870.891 130.78 870.925 131.453 870.991 132.08C871.071 132.707 871.198 133.253 871.371 133.72C871.558 134.173 871.798 134.533 872.091 134.8C872.398 135.067 872.771 135.2 873.211 135.2C873.651 135.2 874.018 135.067 874.311 134.8C874.605 134.533 874.838 134.173 875.011 133.72C875.198 133.253 875.331 132.707 875.411 132.08C875.491 131.453 875.531 130.78 875.531 130.06ZM889.398 130.06C889.398 132.393 888.972 134.187 888.118 135.44C887.265 136.68 886.085 137.3 884.578 137.3C883.072 137.3 881.892 136.68 881.038 135.44C880.185 134.187 879.758 132.393 879.758 130.06C879.758 128.9 879.865 127.873 880.078 126.98C880.305 126.073 880.625 125.313 881.038 124.7C881.465 124.087 881.972 123.62 882.558 123.3C883.158 122.98 883.832 122.82 884.578 122.82C886.085 122.82 887.265 123.447 888.118 124.7C888.972 125.94 889.398 127.727 889.398 130.06ZM886.898 130.06C886.898 129.34 886.858 128.667 886.778 128.04C886.698 127.413 886.565 126.873 886.378 126.42C886.205 125.953 885.972 125.587 885.678 125.32C885.385 125.053 885.018 124.92 884.578 124.92C884.138 124.92 883.765 125.053 883.458 125.32C883.165 125.587 882.925 125.953 882.738 126.42C882.565 126.873 882.438 127.413 882.358 128.04C882.292 128.667 882.258 129.34 882.258 130.06C882.258 130.78 882.292 131.453 882.358 132.08C882.438 132.707 882.565 133.253 882.738 133.72C882.925 134.173 883.165 134.533 883.458 134.8C883.765 135.067 884.138 135.2 884.578 135.2C885.018 135.2 885.385 135.067 885.678 134.8C885.972 134.533 886.205 134.173 886.378 133.72C886.565 133.253 886.698 132.707 886.778 132.08C886.858 131.453 886.898 130.78 886.898 130.06ZM894.526 135.68C894.526 136.147 894.366 136.527 894.046 136.82C893.739 137.113 893.366 137.26 892.926 137.26C892.472 137.26 892.092 137.113 891.786 136.82C891.479 136.527 891.326 136.147 891.326 135.68C891.326 135.213 891.479 134.833 891.786 134.54C892.092 134.233 892.472 134.08 892.926 134.08C893.366 134.08 893.739 134.233 894.046 134.54C894.366 134.833 894.526 135.213 894.526 135.68ZM906.078 130.06C906.078 132.393 905.651 134.187 904.798 135.44C903.945 136.68 902.765 137.3 901.258 137.3C899.751 137.3 898.571 136.68 897.718 135.44C896.865 134.187 896.438 132.393 896.438 130.06C896.438 128.9 896.545 127.873 896.758 126.98C896.985 126.073 897.305 125.313 897.718 124.7C898.145 124.087 898.651 123.62 899.238 123.3C899.838 122.98 900.511 122.82 901.258 122.82C902.765 122.82 903.945 123.447 904.798 124.7C905.651 125.94 906.078 127.727 906.078 130.06ZM903.578 130.06C903.578 129.34 903.538 128.667 903.458 128.04C903.378 127.413 903.245 126.873 903.058 126.42C902.885 125.953 902.651 125.587 902.358 125.32C902.065 125.053 901.698 124.92 901.258 124.92C900.818 124.92 900.445 125.053 900.138 125.32C899.845 125.587 899.605 125.953 899.418 126.42C899.245 126.873 899.118 127.413 899.038 128.04C898.971 128.667 898.938 129.34 898.938 130.06C898.938 130.78 898.971 131.453 899.038 132.08C899.118 132.707 899.245 133.253 899.418 133.72C899.605 134.173 899.845 134.533 900.138 134.8C900.445 135.067 900.818 135.2 901.258 135.2C901.698 135.2 902.065 135.067 902.358 134.8C902.651 134.533 902.885 134.173 903.058 133.72C903.245 133.253 903.378 132.707 903.458 132.08C903.538 131.453 903.578 130.78 903.578 130.06ZM917.445 130.06C917.445 132.393 917.019 134.187 916.165 135.44C915.312 136.68 914.132 137.3 912.625 137.3C911.119 137.3 909.939 136.68 909.085 135.44C908.232 134.187 907.805 132.393 907.805 130.06C907.805 128.9 907.912 127.873 908.125 126.98C908.352 126.073 908.672 125.313 909.085 124.7C909.512 124.087 910.019 123.62 910.605 123.3C911.205 122.98 911.879 122.82 912.625 122.82C914.132 122.82 915.312 123.447 916.165 124.7C917.019 125.94 917.445 127.727 917.445 130.06ZM914.945 130.06C914.945 129.34 914.905 128.667 914.825 128.04C914.745 127.413 914.612 126.873 914.425 126.42C914.252 125.953 914.019 125.587 913.725 125.32C913.432 125.053 913.065 124.92 912.625 124.92C912.185 124.92 911.812 125.053 911.505 125.32C911.212 125.587 910.972 125.953 910.785 126.42C910.612 126.873 910.485 127.413 910.405 128.04C910.339 128.667 910.305 129.34 910.305 130.06C910.305 130.78 910.339 131.453 910.405 132.08C910.485 132.707 910.612 133.253 910.785 133.72C910.972 134.173 911.212 134.533 911.505 134.8C911.812 135.067 912.185 135.2 912.625 135.2C913.065 135.2 913.432 135.067 913.725 134.8C914.019 134.533 914.252 134.173 914.425 133.72C914.612 133.253 914.745 132.707 914.825 132.08C914.905 131.453 914.945 130.78 914.945 130.06Z" fill="white"/>
<rect x="218" y="125" width="192" height="11" rx="5.5" fill="#FFC727"/>
<path d="M433.66 133.04C433.66 132.6 433.573 132.207 433.4 131.86C433.227 131.513 432.92 131.22 432.48 130.98C432.053 130.74 431.473 130.56 430.74 130.44C430.02 130.32 429.107 130.26 428 130.26C428.147 128.98 428.26 127.767 428.34 126.62C428.42 125.46 428.487 124.3 428.54 123.14H435.62V125.18H430.6C430.587 125.407 430.567 125.667 430.54 125.96C430.527 126.24 430.507 126.527 430.48 126.82C430.467 127.113 430.447 127.393 430.42 127.66C430.393 127.927 430.367 128.153 430.34 128.34C432.313 128.447 433.767 128.9 434.7 129.7C435.647 130.487 436.12 131.567 436.12 132.94C436.12 133.567 436.013 134.147 435.8 134.68C435.587 135.213 435.26 135.673 434.82 136.06C434.38 136.447 433.827 136.753 433.16 136.98C432.493 137.193 431.713 137.3 430.82 137.3C430.46 137.3 430.093 137.273 429.72 137.22C429.347 137.167 428.987 137.1 428.64 137.02C428.307 136.953 428.007 136.88 427.74 136.8C427.473 136.72 427.273 136.647 427.14 136.58L427.6 134.54C427.88 134.673 428.28 134.82 428.8 134.98C429.333 135.127 429.98 135.2 430.74 135.2C431.26 135.2 431.707 135.147 432.08 135.04C432.453 134.92 432.753 134.76 432.98 134.56C433.22 134.36 433.393 134.133 433.5 133.88C433.607 133.613 433.66 133.333 433.66 133.04ZM447.867 130.06C447.867 132.393 447.441 134.187 446.587 135.44C445.734 136.68 444.554 137.3 443.047 137.3C441.541 137.3 440.361 136.68 439.507 135.44C438.654 134.187 438.227 132.393 438.227 130.06C438.227 128.9 438.334 127.873 438.547 126.98C438.774 126.073 439.094 125.313 439.507 124.7C439.934 124.087 440.441 123.62 441.027 123.3C441.627 122.98 442.301 122.82 443.047 122.82C444.554 122.82 445.734 123.447 446.587 124.7C447.441 125.94 447.867 127.727 447.867 130.06ZM445.367 130.06C445.367 129.34 445.327 128.667 445.247 128.04C445.167 127.413 445.034 126.873 444.847 126.42C444.674 125.953 444.441 125.587 444.147 125.32C443.854 125.053 443.487 124.92 443.047 124.92C442.607 124.92 442.234 125.053 441.927 125.32C441.634 125.587 441.394 125.953 441.207 126.42C441.034 126.873 440.907 127.413 440.827 128.04C440.761 128.667 440.727 129.34 440.727 130.06C440.727 130.78 440.761 131.453 440.827 132.08C440.907 132.707 441.034 133.253 441.207 133.72C441.394 134.173 441.634 134.533 441.927 134.8C442.234 135.067 442.607 135.2 443.047 135.2C443.487 135.2 443.854 135.067 444.147 134.8C444.441 134.533 444.674 134.173 444.847 133.72C445.034 133.253 445.167 132.707 445.247 132.08C445.327 131.453 445.367 130.78 445.367 130.06ZM453.33 130.772C453.33 131.5 453.142 132.06 452.766 132.452C452.398 132.844 451.914 133.04 451.314 133.04C451.018 133.04 450.746 132.992 450.498 132.896C450.25 132.792 450.038 132.644 449.862 132.452C449.686 132.26 449.546 132.024 449.442 131.744C449.346 131.456 449.298 131.132 449.298 130.772C449.298 130.036 449.482 129.476 449.85 129.092C450.226 128.7 450.714 128.504 451.314 128.504C451.914 128.504 452.398 128.7 452.766 129.092C453.142 129.476 453.33 130.036 453.33 130.772ZM452.19 130.772C452.19 130.348 452.11 130.032 451.95 129.824C451.798 129.608 451.586 129.5 451.314 129.5C451.042 129.5 450.83 129.608 450.678 129.824C450.526 130.032 450.45 130.348 450.45 130.772C450.45 131.196 450.526 131.516 450.678 131.732C450.83 131.94 451.042 132.044 451.314 132.044C451.586 132.044 451.798 131.94 451.95 131.732C452.11 131.516 452.19 131.196 452.19 130.772ZM455.766 128.684H457.146L452.454 137H451.074L455.766 128.684ZM458.934 134.924C458.934 135.652 458.746 136.212 458.37 136.604C458.002 136.996 457.518 137.192 456.918 137.192C456.622 137.192 456.35 137.14 456.102 137.036C455.854 136.94 455.642 136.796 455.466 136.604C455.29 136.412 455.15 136.176 455.046 135.896C454.95 135.608 454.902 135.284 454.902 134.924C454.902 134.188 455.086 133.628 455.454 133.244C455.83 132.852 456.318 132.656 456.918 132.656C457.518 132.656 458.002 132.852 458.37 133.244C458.746 133.628 458.934 134.188 458.934 134.924ZM457.794 134.924C457.794 134.5 457.714 134.184 457.554 133.976C457.402 133.76 457.19 133.652 456.918 133.652C456.646 133.652 456.434 133.76 456.282 133.976C456.13 134.184 456.054 134.5 456.054 134.924C456.054 135.348 456.13 135.668 456.282 135.884C456.434 136.092 456.646 136.196 456.918 136.196C457.19 136.196 457.402 136.092 457.554 135.884C457.714 135.668 457.794 135.348 457.794 134.924Z" fill="white"/>
<circle cx="68" cy="187.5" r="9" fill="#E8356D"/>
<path d="M132.1 188.06C132.1 189.26 131.913 190.307 131.54 191.2C131.167 192.08 130.64 192.813 129.96 193.4C129.28 193.973 128.467 194.407 127.52 194.7C126.573 194.98 125.533 195.12 124.4 195.12C123.84 195.12 123.22 195.093 122.54 195.04C121.873 195 121.267 194.913 120.72 194.78V181.34C121.267 181.207 121.873 181.12 122.54 181.08C123.22 181.027 123.84 181 124.4 181C125.533 181 126.573 181.147 127.52 181.44C128.467 181.72 129.28 182.153 129.96 182.74C130.64 183.313 131.167 184.047 131.54 184.94C131.913 185.82 132.1 186.86 132.1 188.06ZM124.56 193.42C126.4 193.42 127.773 192.953 128.68 192.02C129.587 191.073 130.04 189.753 130.04 188.06C130.04 186.367 129.587 185.053 128.68 184.12C127.773 183.173 126.4 182.7 124.56 182.7C124.013 182.7 123.587 182.707 123.28 182.72C122.987 182.733 122.78 182.747 122.66 182.76V193.36C122.78 193.373 122.987 193.387 123.28 193.4C123.587 193.413 124.013 193.42 124.56 193.42ZM138.698 184.38C138.858 184.38 139.038 184.393 139.238 184.42C139.451 184.433 139.658 184.46 139.858 184.5C140.058 184.527 140.238 184.56 140.398 184.6C140.571 184.627 140.698 184.653 140.778 184.68L140.458 186.3C140.311 186.247 140.064 186.187 139.718 186.12C139.384 186.04 138.951 186 138.418 186C138.071 186 137.724 186.04 137.378 186.12C137.044 186.187 136.824 186.233 136.718 186.26V195H134.858V185.04C135.298 184.88 135.844 184.733 136.498 184.6C137.151 184.453 137.884 184.38 138.698 184.38ZM141.993 189.82C141.993 188.9 142.126 188.1 142.393 187.42C142.659 186.727 143.013 186.153 143.453 185.7C143.893 185.247 144.399 184.907 144.973 184.68C145.546 184.453 146.133 184.34 146.733 184.34C148.133 184.34 149.206 184.78 149.953 185.66C150.699 186.527 151.073 187.853 151.073 189.64C151.073 189.72 151.073 189.827 151.073 189.96C151.073 190.08 151.066 190.193 151.053 190.3H143.933C144.013 191.38 144.326 192.2 144.873 192.76C145.419 193.32 146.273 193.6 147.433 193.6C148.086 193.6 148.633 193.547 149.073 193.44C149.526 193.32 149.866 193.207 150.093 193.1L150.353 194.66C150.126 194.78 149.726 194.907 149.153 195.04C148.593 195.173 147.953 195.24 147.233 195.24C146.326 195.24 145.539 195.107 144.873 194.84C144.219 194.56 143.679 194.18 143.253 193.7C142.826 193.22 142.506 192.653 142.293 192C142.093 191.333 141.993 190.607 141.993 189.82ZM149.133 188.8C149.146 187.96 148.933 187.273 148.493 186.74C148.066 186.193 147.473 185.92 146.713 185.92C146.286 185.92 145.906 186.007 145.573 186.18C145.253 186.34 144.979 186.553 144.753 186.82C144.526 187.087 144.346 187.393 144.213 187.74C144.093 188.087 144.013 188.44 143.973 188.8H149.133ZM157.265 193.66C157.705 193.66 158.091 193.653 158.425 193.64C158.771 193.613 159.058 193.573 159.285 193.52V190.42C159.151 190.353 158.931 190.3 158.625 190.26C158.331 190.207 157.971 190.18 157.545 190.18C157.265 190.18 156.965 190.2 156.645 190.24C156.338 190.28 156.051 190.367 155.785 190.5C155.531 190.62 155.318 190.793 155.145 191.02C154.971 191.233 154.885 191.52 154.885 191.88C154.885 192.547 155.098 193.013 155.525 193.28C155.951 193.533 156.531 193.66 157.265 193.66ZM157.105 184.34C157.851 184.34 158.478 184.44 158.985 184.64C159.505 184.827 159.918 185.1 160.225 185.46C160.545 185.807 160.771 186.227 160.905 186.72C161.038 187.2 161.105 187.733 161.105 188.32V194.82C160.945 194.847 160.718 194.887 160.425 194.94C160.145 194.98 159.825 195.02 159.465 195.06C159.105 195.1 158.711 195.133 158.285 195.16C157.871 195.2 157.458 195.22 157.045 195.22C156.458 195.22 155.918 195.16 155.425 195.04C154.931 194.92 154.505 194.733 154.145 194.48C153.785 194.213 153.505 193.867 153.305 193.44C153.105 193.013 153.005 192.5 153.005 191.9C153.005 191.327 153.118 190.833 153.345 190.42C153.585 190.007 153.905 189.673 154.305 189.42C154.705 189.167 155.171 188.98 155.705 188.86C156.238 188.74 156.798 188.68 157.385 188.68C157.571 188.68 157.765 188.693 157.965 188.72C158.165 188.733 158.351 188.76 158.525 188.8C158.711 188.827 158.871 188.853 159.005 188.88C159.138 188.907 159.231 188.927 159.285 188.94V188.42C159.285 188.113 159.251 187.813 159.185 187.52C159.118 187.213 158.998 186.947 158.825 186.72C158.651 186.48 158.411 186.293 158.105 186.16C157.811 186.013 157.425 185.94 156.945 185.94C156.331 185.94 155.791 185.987 155.325 186.08C154.871 186.16 154.531 186.247 154.305 186.34L154.085 184.8C154.325 184.693 154.725 184.593 155.285 184.5C155.845 184.393 156.451 184.34 157.105 184.34ZM164.194 184.9C164.62 184.793 165.18 184.68 165.874 184.56C166.58 184.44 167.394 184.38 168.314 184.38C168.98 184.38 169.54 184.473 169.994 184.66C170.447 184.833 170.827 185.093 171.134 185.44C171.227 185.373 171.374 185.28 171.574 185.16C171.774 185.04 172.02 184.927 172.314 184.82C172.607 184.7 172.934 184.6 173.294 184.52C173.654 184.427 174.04 184.38 174.454 184.38C175.254 184.38 175.907 184.5 176.414 184.74C176.92 184.967 177.314 185.293 177.594 185.72C177.887 186.147 178.08 186.653 178.174 187.24C178.28 187.827 178.334 188.467 178.334 189.16V195H176.474V189.56C176.474 188.947 176.44 188.42 176.374 187.98C176.32 187.54 176.207 187.173 176.034 186.88C175.874 186.587 175.647 186.373 175.354 186.24C175.074 186.093 174.707 186.02 174.254 186.02C173.627 186.02 173.107 186.107 172.694 186.28C172.294 186.44 172.02 186.587 171.874 186.72C171.98 187.067 172.06 187.447 172.114 187.86C172.167 188.273 172.194 188.707 172.194 189.16V195H170.334V189.56C170.334 188.947 170.3 188.42 170.234 187.98C170.167 187.54 170.047 187.173 169.874 186.88C169.714 186.587 169.487 186.373 169.194 186.24C168.914 186.093 168.554 186.02 168.114 186.02C167.927 186.02 167.727 186.027 167.514 186.04C167.3 186.053 167.094 186.073 166.894 186.1C166.707 186.113 166.534 186.133 166.374 186.16C166.214 186.187 166.107 186.207 166.054 186.22V195H164.194V184.9ZM183.84 193.66C184.6 193.66 185.16 193.56 185.52 193.36C185.894 193.16 186.08 192.84 186.08 192.4C186.08 191.947 185.9 191.587 185.54 191.32C185.18 191.053 184.587 190.753 183.76 190.42C183.36 190.26 182.974 190.1 182.6 189.94C182.24 189.767 181.927 189.567 181.66 189.34C181.394 189.113 181.18 188.84 181.02 188.52C180.86 188.2 180.78 187.807 180.78 187.34C180.78 186.42 181.12 185.693 181.8 185.16C182.48 184.613 183.407 184.34 184.58 184.34C184.874 184.34 185.167 184.36 185.46 184.4C185.754 184.427 186.027 184.467 186.28 184.52C186.534 184.56 186.754 184.607 186.94 184.66C187.14 184.713 187.294 184.76 187.4 184.8L187.06 186.4C186.86 186.293 186.547 186.187 186.12 186.08C185.694 185.96 185.18 185.9 184.58 185.9C184.06 185.9 183.607 186.007 183.22 186.22C182.834 186.42 182.64 186.74 182.64 187.18C182.64 187.407 182.68 187.607 182.76 187.78C182.854 187.953 182.987 188.113 183.16 188.26C183.347 188.393 183.574 188.52 183.84 188.64C184.107 188.76 184.427 188.887 184.8 189.02C185.294 189.207 185.734 189.393 186.12 189.58C186.507 189.753 186.834 189.96 187.1 190.2C187.38 190.44 187.594 190.733 187.74 191.08C187.887 191.413 187.96 191.827 187.96 192.32C187.96 193.28 187.6 194.007 186.88 194.5C186.174 194.993 185.16 195.24 183.84 195.24C182.92 195.24 182.2 195.16 181.68 195C181.16 194.853 180.807 194.74 180.62 194.66L180.96 193.06C181.174 193.14 181.514 193.26 181.98 193.42C182.447 193.58 183.067 193.66 183.84 193.66Z" fill="white"/>
<path d="M829.76 195V189.86H828.2V188.58H829.76V186.94H828.2V185.66H829.76V180.72H831.84L833.74 185.66H836.1V180.72H837.68V185.66H839.24V186.94H837.68V188.58H839.24V189.86H837.68V195H835.58L833.68 189.86H831.32V195H829.76ZM831.32 188.58H833.2L832.6 186.94H831.28L831.32 188.58ZM836.1 192.18H836.18L836.12 189.86H835.28L836.1 192.18ZM831.28 185.66H832.12L831.28 183.18H831.2L831.28 185.66ZM834.8 188.58H836.14L836.1 186.94H834.2L834.8 188.58ZM847.105 191.04C847.105 190.6 847.019 190.207 846.845 189.86C846.672 189.513 846.365 189.22 845.925 188.98C845.499 188.74 844.919 188.56 844.185 188.44C843.465 188.32 842.552 188.26 841.445 188.26C841.592 186.98 841.705 185.767 841.785 184.62C841.865 183.46 841.932 182.3 841.985 181.14H849.065V183.18H844.045C844.032 183.407 844.012 183.667 843.985 183.96C843.972 184.24 843.952 184.527 843.925 184.82C843.912 185.113 843.892 185.393 843.865 185.66C843.839 185.927 843.812 186.153 843.785 186.34C845.759 186.447 847.212 186.9 848.145 187.7C849.092 188.487 849.565 189.567 849.565 190.94C849.565 191.567 849.459 192.147 849.245 192.68C849.032 193.213 848.705 193.673 848.265 194.06C847.825 194.447 847.272 194.753 846.605 194.98C845.939 195.193 845.159 195.3 844.265 195.3C843.905 195.3 843.539 195.273 843.165 195.22C842.792 195.167 842.432 195.1 842.085 195.02C841.752 194.953 841.452 194.88 841.185 194.8C840.919 194.72 840.719 194.647 840.585 194.58L841.045 192.54C841.325 192.673 841.725 192.82 842.245 192.98C842.779 193.127 843.425 193.2 844.185 193.2C844.705 193.2 845.152 193.147 845.525 193.04C845.899 192.92 846.199 192.76 846.425 192.56C846.665 192.36 846.839 192.133 846.945 191.88C847.052 191.613 847.105 191.333 847.105 191.04ZM854.853 192.34C854.879 192.567 854.893 192.733 854.893 192.84C854.893 192.947 854.893 193.053 854.893 193.16C854.893 193.987 854.759 194.84 854.493 195.72C854.239 196.6 853.879 197.433 853.413 198.22L851.513 197.7C851.833 196.927 852.046 196.167 852.153 195.42C852.273 194.687 852.333 194.04 852.333 193.48C852.333 193.32 852.326 193.12 852.313 192.88C852.313 192.64 852.306 192.46 852.293 192.34H854.853ZM866.664 188.06C866.664 190.393 866.237 192.187 865.384 193.44C864.531 194.68 863.351 195.3 861.844 195.3C860.337 195.3 859.157 194.68 858.304 193.44C857.451 192.187 857.024 190.393 857.024 188.06C857.024 186.9 857.131 185.873 857.344 184.98C857.571 184.073 857.891 183.313 858.304 182.7C858.731 182.087 859.237 181.62 859.824 181.3C860.424 180.98 861.097 180.82 861.844 180.82C863.351 180.82 864.531 181.447 865.384 182.7C866.237 183.94 866.664 185.727 866.664 188.06ZM864.164 188.06C864.164 187.34 864.124 186.667 864.044 186.04C863.964 185.413 863.831 184.873 863.644 184.42C863.471 183.953 863.237 183.587 862.944 183.32C862.651 183.053 862.284 182.92 861.844 182.92C861.404 182.92 861.031 183.053 860.724 183.32C860.431 183.587 860.191 183.953 860.004 184.42C859.831 184.873 859.704 185.413 859.624 186.04C859.557 186.667 859.524 187.34 859.524 188.06C859.524 188.78 859.557 189.453 859.624 190.08C859.704 190.707 859.831 191.253 860.004 191.72C860.191 192.173 860.431 192.533 860.724 192.8C861.031 193.067 861.404 193.2 861.844 193.2C862.284 193.2 862.651 193.067 862.944 192.8C863.237 192.533 863.471 192.173 863.644 191.72C863.831 191.253 863.964 190.707 864.044 190.08C864.124 189.453 864.164 188.78 864.164 188.06ZM878.031 188.06C878.031 190.393 877.605 192.187 876.751 193.44C875.898 194.68 874.718 195.3 873.211 195.3C871.705 195.3 870.525 194.68 869.671 193.44C868.818 192.187 868.391 190.393 868.391 188.06C868.391 186.9 868.498 185.873 868.711 184.98C868.938 184.073 869.258 183.313 869.671 182.7C870.098 182.087 870.605 181.62 871.191 181.3C871.791 180.98 872.465 180.82 873.211 180.82C874.718 180.82 875.898 181.447 876.751 182.7C877.605 183.94 878.031 185.727 878.031 188.06ZM875.531 188.06C875.531 187.34 875.491 186.667 875.411 186.04C875.331 185.413 875.198 184.873 875.011 184.42C874.838 183.953 874.605 183.587 874.311 183.32C874.018 183.053 873.651 182.92 873.211 182.92C872.771 182.92 872.398 183.053 872.091 183.32C871.798 183.587 871.558 183.953 871.371 184.42C871.198 184.873 871.071 185.413 870.991 186.04C870.925 186.667 870.891 187.34 870.891 188.06C870.891 188.78 870.925 189.453 870.991 190.08C871.071 190.707 871.198 191.253 871.371 191.72C871.558 192.173 871.798 192.533 872.091 192.8C872.398 193.067 872.771 193.2 873.211 193.2C873.651 193.2 874.018 193.067 874.311 192.8C874.605 192.533 874.838 192.173 875.011 191.72C875.198 191.253 875.331 190.707 875.411 190.08C875.491 189.453 875.531 188.78 875.531 188.06ZM889.398 188.06C889.398 190.393 888.972 192.187 888.118 193.44C887.265 194.68 886.085 195.3 884.578 195.3C883.072 195.3 881.892 194.68 881.038 193.44C880.185 192.187 879.758 190.393 879.758 188.06C879.758 186.9 879.865 185.873 880.078 184.98C880.305 184.073 880.625 183.313 881.038 182.7C881.465 182.087 881.972 181.62 882.558 181.3C883.158 180.98 883.832 180.82 884.578 180.82C886.085 180.82 887.265 181.447 888.118 182.7C888.972 183.94 889.398 185.727 889.398 188.06ZM886.898 188.06C886.898 187.34 886.858 186.667 886.778 186.04C886.698 185.413 886.565 184.873 886.378 184.42C886.205 183.953 885.972 183.587 885.678 183.32C885.385 183.053 885.018 182.92 884.578 182.92C884.138 182.92 883.765 183.053 883.458 183.32C883.165 183.587 882.925 183.953 882.738 184.42C882.565 184.873 882.438 185.413 882.358 186.04C882.292 186.667 882.258 187.34 882.258 188.06C882.258 188.78 882.292 189.453 882.358 190.08C882.438 190.707 882.565 191.253 882.738 191.72C882.925 192.173 883.165 192.533 883.458 192.8C883.765 193.067 884.138 193.2 884.578 193.2C885.018 193.2 885.385 193.067 885.678 192.8C885.972 192.533 886.205 192.173 886.378 191.72C886.565 191.253 886.698 190.707 886.778 190.08C886.858 189.453 886.898 188.78 886.898 188.06ZM894.526 193.68C894.526 194.147 894.366 194.527 894.046 194.82C893.739 195.113 893.366 195.26 892.926 195.26C892.472 195.26 892.092 195.113 891.786 194.82C891.479 194.527 891.326 194.147 891.326 193.68C891.326 193.213 891.479 192.833 891.786 192.54C892.092 192.233 892.472 192.08 892.926 192.08C893.366 192.08 893.739 192.233 894.046 192.54C894.366 192.833 894.526 193.213 894.526 193.68ZM906.078 188.06C906.078 190.393 905.651 192.187 904.798 193.44C903.945 194.68 902.765 195.3 901.258 195.3C899.751 195.3 898.571 194.68 897.718 193.44C896.865 192.187 896.438 190.393 896.438 188.06C896.438 186.9 896.545 185.873 896.758 184.98C896.985 184.073 897.305 183.313 897.718 182.7C898.145 182.087 898.651 181.62 899.238 181.3C899.838 180.98 900.511 180.82 901.258 180.82C902.765 180.82 903.945 181.447 904.798 182.7C905.651 183.94 906.078 185.727 906.078 188.06ZM903.578 188.06C903.578 187.34 903.538 186.667 903.458 186.04C903.378 185.413 903.245 184.873 903.058 184.42C902.885 183.953 902.651 183.587 902.358 183.32C902.065 183.053 901.698 182.92 901.258 182.92C900.818 182.92 900.445 183.053 900.138 183.32C899.845 183.587 899.605 183.953 899.418 184.42C899.245 184.873 899.118 185.413 899.038 186.04C898.971 186.667 898.938 187.34 898.938 188.06C898.938 188.78 898.971 189.453 899.038 190.08C899.118 190.707 899.245 191.253 899.418 191.72C899.605 192.173 899.845 192.533 900.138 192.8C900.445 193.067 900.818 193.2 901.258 193.2C901.698 193.2 902.065 193.067 902.358 192.8C902.651 192.533 902.885 192.173 903.058 191.72C903.245 191.253 903.378 190.707 903.458 190.08C903.538 189.453 903.578 188.78 903.578 188.06ZM917.445 188.06C917.445 190.393 917.019 192.187 916.165 193.44C915.312 194.68 914.132 195.3 912.625 195.3C911.119 195.3 909.939 194.68 909.085 193.44C908.232 192.187 907.805 190.393 907.805 188.06C907.805 186.9 907.912 185.873 908.125 184.98C908.352 184.073 908.672 183.313 909.085 182.7C909.512 182.087 910.019 181.62 910.605 181.3C911.205 180.98 911.879 180.82 912.625 180.82C914.132 180.82 915.312 181.447 916.165 182.7C917.019 183.94 917.445 185.727 917.445 188.06ZM914.945 188.06C914.945 187.34 914.905 186.667 914.825 186.04C914.745 185.413 914.612 184.873 914.425 184.42C914.252 183.953 914.019 183.587 913.725 183.32C913.432 183.053 913.065 182.92 912.625 182.92C912.185 182.92 911.812 183.053 911.505 183.32C911.212 183.587 910.972 183.953 910.785 184.42C910.612 184.873 910.485 185.413 910.405 186.04C910.339 186.667 910.305 187.34 910.305 188.06C910.305 188.78 910.339 189.453 910.405 190.08C910.485 190.707 910.612 191.253 910.785 191.72C910.972 192.173 911.212 192.533 911.505 192.8C911.812 193.067 912.185 193.2 912.625 193.2C913.065 193.2 913.432 193.067 913.725 192.8C914.019 192.533 914.252 192.173 914.425 191.72C914.612 191.253 914.745 190.707 914.825 190.08C914.905 189.453 914.945 188.78 914.945 188.06Z" fill="white"/>
<rect x="218" y="182" width="105" height="11" rx="5.5" fill="#E8356D"/>
<path d="M344.72 194.3C344.36 194.3 343.987 194.273 343.6 194.22C343.227 194.18 342.867 194.12 342.52 194.04C342.187 193.973 341.88 193.9 341.6 193.82C341.32 193.727 341.107 193.64 340.96 193.56L341.44 191.5C341.72 191.633 342.127 191.787 342.66 191.96C343.193 192.12 343.853 192.2 344.64 192.2C345.693 192.2 346.453 192 346.92 191.6C347.387 191.187 347.62 190.64 347.62 189.96C347.62 189.52 347.527 189.153 347.34 188.86C347.167 188.567 346.92 188.333 346.6 188.16C346.293 187.973 345.933 187.847 345.52 187.78C345.12 187.7 344.693 187.66 344.24 187.66H343.42V185.7H344.42C344.727 185.7 345.033 185.673 345.34 185.62C345.66 185.553 345.947 185.447 346.2 185.3C346.453 185.14 346.66 184.933 346.82 184.68C346.98 184.427 347.06 184.1 347.06 183.7C347.06 183.38 347 183.107 346.88 182.88C346.76 182.653 346.6 182.467 346.4 182.32C346.213 182.173 345.993 182.067 345.74 182C345.487 181.933 345.22 181.9 344.94 181.9C344.34 181.9 343.807 181.993 343.34 182.18C342.873 182.353 342.46 182.553 342.1 182.78L341.22 180.98C341.407 180.86 341.633 180.733 341.9 180.6C342.167 180.467 342.46 180.34 342.78 180.22C343.113 180.1 343.467 180.007 343.84 179.94C344.213 179.86 344.607 179.82 345.02 179.82C345.793 179.82 346.46 179.913 347.02 180.1C347.58 180.287 348.04 180.553 348.4 180.9C348.773 181.233 349.047 181.633 349.22 182.1C349.407 182.553 349.5 183.053 349.5 183.6C349.5 184.24 349.32 184.813 348.96 185.32C348.613 185.827 348.16 186.213 347.6 186.48C348.32 186.733 348.913 187.153 349.38 187.74C349.86 188.327 350.1 189.08 350.1 190C350.1 190.613 349.993 191.187 349.78 191.72C349.567 192.24 349.24 192.693 348.8 193.08C348.36 193.453 347.8 193.753 347.12 193.98C346.453 194.193 345.653 194.3 344.72 194.3ZM361.867 187.06C361.867 189.393 361.441 191.187 360.587 192.44C359.734 193.68 358.554 194.3 357.047 194.3C355.541 194.3 354.361 193.68 353.507 192.44C352.654 191.187 352.227 189.393 352.227 187.06C352.227 185.9 352.334 184.873 352.547 183.98C352.774 183.073 353.094 182.313 353.507 181.7C353.934 181.087 354.441 180.62 355.027 180.3C355.627 179.98 356.301 179.82 357.047 179.82C358.554 179.82 359.734 180.447 360.587 181.7C361.441 182.94 361.867 184.727 361.867 187.06ZM359.367 187.06C359.367 186.34 359.327 185.667 359.247 185.04C359.167 184.413 359.034 183.873 358.847 183.42C358.674 182.953 358.441 182.587 358.147 182.32C357.854 182.053 357.487 181.92 357.047 181.92C356.607 181.92 356.234 182.053 355.927 182.32C355.634 182.587 355.394 182.953 355.207 183.42C355.034 183.873 354.907 184.413 354.827 185.04C354.761 185.667 354.727 186.34 354.727 187.06C354.727 187.78 354.761 188.453 354.827 189.08C354.907 189.707 355.034 190.253 355.207 190.72C355.394 191.173 355.634 191.533 355.927 191.8C356.234 192.067 356.607 192.2 357.047 192.2C357.487 192.2 357.854 192.067 358.147 191.8C358.441 191.533 358.674 191.173 358.847 190.72C359.034 190.253 359.167 189.707 359.247 189.08C359.327 188.453 359.367 187.78 359.367 187.06ZM367.33 187.772C367.33 188.5 367.142 189.06 366.766 189.452C366.398 189.844 365.914 190.04 365.314 190.04C365.018 190.04 364.746 189.992 364.498 189.896C364.25 189.792 364.038 189.644 363.862 189.452C363.686 189.26 363.546 189.024 363.442 188.744C363.346 188.456 363.298 188.132 363.298 187.772C363.298 187.036 363.482 186.476 363.85 186.092C364.226 185.7 364.714 185.504 365.314 185.504C365.914 185.504 366.398 185.7 366.766 186.092C367.142 186.476 367.33 187.036 367.33 187.772ZM366.19 187.772C366.19 187.348 366.11 187.032 365.95 186.824C365.798 186.608 365.586 186.5 365.314 186.5C365.042 186.5 364.83 186.608 364.678 186.824C364.526 187.032 364.45 187.348 364.45 187.772C364.45 188.196 364.526 188.516 364.678 188.732C364.83 188.94 365.042 189.044 365.314 189.044C365.586 189.044 365.798 188.94 365.95 188.732C366.11 188.516 366.19 188.196 366.19 187.772ZM369.766 185.684H371.146L366.454 194H365.074L369.766 185.684ZM372.934 191.924C372.934 192.652 372.746 193.212 372.37 193.604C372.002 193.996 371.518 194.192 370.918 194.192C370.622 194.192 370.35 194.14 370.102 194.036C369.854 193.94 369.642 193.796 369.466 193.604C369.29 193.412 369.15 193.176 369.046 192.896C368.95 192.608 368.902 192.284 368.902 191.924C368.902 191.188 369.086 190.628 369.454 190.244C369.83 189.852 370.318 189.656 370.918 189.656C371.518 189.656 372.002 189.852 372.37 190.244C372.746 190.628 372.934 191.188 372.934 191.924ZM371.794 191.924C371.794 191.5 371.714 191.184 371.554 190.976C371.402 190.76 371.19 190.652 370.918 190.652C370.646 190.652 370.434 190.76 370.282 190.976C370.13 191.184 370.054 191.5 370.054 191.924C370.054 192.348 370.13 192.668 370.282 192.884C370.434 193.092 370.646 193.196 370.918 193.196C371.19 193.196 371.402 193.092 371.554 192.884C371.714 192.668 371.794 192.348 371.794 191.924Z" fill="white"/>
<circle cx="68" cy="245.5" r="9" fill="#22C55E"/>
<path d="M131.92 239.14C131.413 240.607 130.927 241.967 130.46 243.22C130.007 244.46 129.56 245.64 129.12 246.76C128.68 247.88 128.24 248.953 127.8 249.98C127.373 250.993 126.933 252 126.48 253H124.66C124.207 252 123.76 250.993 123.32 249.98C122.893 248.953 122.453 247.88 122 246.76C121.56 245.64 121.107 244.46 120.64 243.22C120.173 241.967 119.693 240.607 119.2 239.14H121.34C122.06 241.247 122.767 243.273 123.46 245.22C124.153 247.167 124.867 248.993 125.6 250.7C126.333 249.007 127.047 247.187 127.74 245.24C128.433 243.28 129.133 241.247 129.84 239.14H131.92ZM136.737 251.66C137.177 251.66 137.564 251.653 137.897 251.64C138.244 251.613 138.531 251.573 138.757 251.52V248.42C138.624 248.353 138.404 248.3 138.097 248.26C137.804 248.207 137.444 248.18 137.017 248.18C136.737 248.18 136.437 248.2 136.117 248.24C135.811 248.28 135.524 248.367 135.257 248.5C135.004 248.62 134.791 248.793 134.617 249.02C134.444 249.233 134.357 249.52 134.357 249.88C134.357 250.547 134.571 251.013 134.997 251.28C135.424 251.533 136.004 251.66 136.737 251.66ZM136.577 242.34C137.324 242.34 137.951 242.44 138.457 242.64C138.977 242.827 139.391 243.1 139.697 243.46C140.017 243.807 140.244 244.227 140.377 244.72C140.511 245.2 140.577 245.733 140.577 246.32V252.82C140.417 252.847 140.191 252.887 139.897 252.94C139.617 252.98 139.297 253.02 138.937 253.06C138.577 253.1 138.184 253.133 137.757 253.16C137.344 253.2 136.931 253.22 136.517 253.22C135.931 253.22 135.391 253.16 134.897 253.04C134.404 252.92 133.977 252.733 133.617 252.48C133.257 252.213 132.977 251.867 132.777 251.44C132.577 251.013 132.477 250.5 132.477 249.9C132.477 249.327 132.591 248.833 132.817 248.42C133.057 248.007 133.377 247.673 133.777 247.42C134.177 247.167 134.644 246.98 135.177 246.86C135.711 246.74 136.271 246.68 136.857 246.68C137.044 246.68 137.237 246.693 137.437 246.72C137.637 246.733 137.824 246.76 137.997 246.8C138.184 246.827 138.344 246.853 138.477 246.88C138.611 246.907 138.704 246.927 138.757 246.94V246.42C138.757 246.113 138.724 245.813 138.657 245.52C138.591 245.213 138.471 244.947 138.297 244.72C138.124 244.48 137.884 244.293 137.577 244.16C137.284 244.013 136.897 243.94 136.417 243.94C135.804 243.94 135.264 243.987 134.797 244.08C134.344 244.16 134.004 244.247 133.777 244.34L133.557 242.8C133.797 242.693 134.197 242.593 134.757 242.5C135.317 242.393 135.924 242.34 136.577 242.34ZM151.946 252.7C151.52 252.807 150.953 252.92 150.246 253.04C149.553 253.16 148.746 253.22 147.826 253.22C147.026 253.22 146.353 253.107 145.806 252.88C145.26 252.64 144.82 252.307 144.486 251.88C144.153 251.453 143.913 250.953 143.766 250.38C143.62 249.793 143.546 249.147 143.546 248.44V242.6H145.406V248.04C145.406 249.307 145.606 250.213 146.006 250.76C146.406 251.307 147.08 251.58 148.026 251.58C148.226 251.58 148.433 251.573 148.646 251.56C148.86 251.547 149.06 251.533 149.246 251.52C149.433 251.493 149.6 251.473 149.746 251.46C149.906 251.433 150.02 251.407 150.086 251.38V242.6H151.946V252.7ZM158.271 253.2C157.124 253.173 156.311 252.927 155.831 252.46C155.351 251.993 155.111 251.267 155.111 250.28V237.8L156.971 237.48V249.98C156.971 250.287 156.997 250.54 157.051 250.74C157.104 250.94 157.191 251.1 157.311 251.22C157.431 251.34 157.591 251.433 157.791 251.5C157.991 251.553 158.237 251.6 158.531 251.64L158.271 253.2ZM162.36 242.6H166.3V244.16H162.36V248.96C162.36 249.48 162.4 249.913 162.48 250.26C162.56 250.593 162.68 250.86 162.84 251.06C163 251.247 163.2 251.38 163.44 251.46C163.68 251.54 163.96 251.58 164.28 251.58C164.84 251.58 165.286 251.52 165.62 251.4C165.966 251.267 166.206 251.173 166.34 251.12L166.7 252.66C166.513 252.753 166.186 252.867 165.72 253C165.253 253.147 164.72 253.22 164.12 253.22C163.413 253.22 162.826 253.133 162.36 252.96C161.906 252.773 161.54 252.5 161.26 252.14C160.98 251.78 160.78 251.34 160.66 250.82C160.553 250.287 160.5 249.673 160.5 248.98V239.7L162.36 239.38V242.6Z" fill="white"/>
<path d="M829.76 253V247.86H828.2V246.58H829.76V244.94H828.2V243.66H829.76V238.72H831.84L833.74 243.66H836.1V238.72H837.68V243.66H839.24V244.94H837.68V246.58H839.24V247.86H837.68V253H835.58L833.68 247.86H831.32V253H829.76ZM831.32 246.58H833.2L832.6 244.94H831.28L831.32 246.58ZM836.1 250.18H836.18L836.12 247.86H835.28L836.1 250.18ZM831.28 243.66H832.12L831.28 241.18H831.2L831.28 243.66ZM834.8 246.58H836.14L836.1 244.94H834.2L834.8 246.58ZM847.105 249.04C847.105 248.6 847.019 248.207 846.845 247.86C846.672 247.513 846.365 247.22 845.925 246.98C845.499 246.74 844.919 246.56 844.185 246.44C843.465 246.32 842.552 246.26 841.445 246.26C841.592 244.98 841.705 243.767 841.785 242.62C841.865 241.46 841.932 240.3 841.985 239.14H849.065V241.18H844.045C844.032 241.407 844.012 241.667 843.985 241.96C843.972 242.24 843.952 242.527 843.925 242.82C843.912 243.113 843.892 243.393 843.865 243.66C843.839 243.927 843.812 244.153 843.785 244.34C845.759 244.447 847.212 244.9 848.145 245.7C849.092 246.487 849.565 247.567 849.565 248.94C849.565 249.567 849.459 250.147 849.245 250.68C849.032 251.213 848.705 251.673 848.265 252.06C847.825 252.447 847.272 252.753 846.605 252.98C845.939 253.193 845.159 253.3 844.265 253.3C843.905 253.3 843.539 253.273 843.165 253.22C842.792 253.167 842.432 253.1 842.085 253.02C841.752 252.953 841.452 252.88 841.185 252.8C840.919 252.72 840.719 252.647 840.585 252.58L841.045 250.54C841.325 250.673 841.725 250.82 842.245 250.98C842.779 251.127 843.425 251.2 844.185 251.2C844.705 251.2 845.152 251.147 845.525 251.04C845.899 250.92 846.199 250.76 846.425 250.56C846.665 250.36 846.839 250.133 846.945 249.88C847.052 249.613 847.105 249.333 847.105 249.04ZM854.853 250.34C854.879 250.567 854.893 250.733 854.893 250.84C854.893 250.947 854.893 251.053 854.893 251.16C854.893 251.987 854.759 252.84 854.493 253.72C854.239 254.6 853.879 255.433 853.413 256.22L851.513 255.7C851.833 254.927 852.046 254.167 852.153 253.42C852.273 252.687 852.333 252.04 852.333 251.48C852.333 251.32 852.326 251.12 852.313 250.88C852.313 250.64 852.306 250.46 852.293 250.34H854.853ZM866.664 246.06C866.664 248.393 866.237 250.187 865.384 251.44C864.531 252.68 863.351 253.3 861.844 253.3C860.337 253.3 859.157 252.68 858.304 251.44C857.451 250.187 857.024 248.393 857.024 246.06C857.024 244.9 857.131 243.873 857.344 242.98C857.571 242.073 857.891 241.313 858.304 240.7C858.731 240.087 859.237 239.62 859.824 239.3C860.424 238.98 861.097 238.82 861.844 238.82C863.351 238.82 864.531 239.447 865.384 240.7C866.237 241.94 866.664 243.727 866.664 246.06ZM864.164 246.06C864.164 245.34 864.124 244.667 864.044 244.04C863.964 243.413 863.831 242.873 863.644 242.42C863.471 241.953 863.237 241.587 862.944 241.32C862.651 241.053 862.284 240.92 861.844 240.92C861.404 240.92 861.031 241.053 860.724 241.32C860.431 241.587 860.191 241.953 860.004 242.42C859.831 242.873 859.704 243.413 859.624 244.04C859.557 244.667 859.524 245.34 859.524 246.06C859.524 246.78 859.557 247.453 859.624 248.08C859.704 248.707 859.831 249.253 860.004 249.72C860.191 250.173 860.431 250.533 860.724 250.8C861.031 251.067 861.404 251.2 861.844 251.2C862.284 251.2 862.651 251.067 862.944 250.8C863.237 250.533 863.471 250.173 863.644 249.72C863.831 249.253 863.964 248.707 864.044 248.08C864.124 247.453 864.164 246.78 864.164 246.06ZM878.031 246.06C878.031 248.393 877.605 250.187 876.751 251.44C875.898 252.68 874.718 253.3 873.211 253.3C871.705 253.3 870.525 252.68 869.671 251.44C868.818 250.187 868.391 248.393 868.391 246.06C868.391 244.9 868.498 243.873 868.711 242.98C868.938 242.073 869.258 241.313 869.671 240.7C870.098 240.087 870.605 239.62 871.191 239.3C871.791 238.98 872.465 238.82 873.211 238.82C874.718 238.82 875.898 239.447 876.751 240.7C877.605 241.94 878.031 243.727 878.031 246.06ZM875.531 246.06C875.531 245.34 875.491 244.667 875.411 244.04C875.331 243.413 875.198 242.873 875.011 242.42C874.838 241.953 874.605 241.587 874.311 241.32C874.018 241.053 873.651 240.92 873.211 240.92C872.771 240.92 872.398 241.053 872.091 241.32C871.798 241.587 871.558 241.953 871.371 242.42C871.198 242.873 871.071 243.413 870.991 244.04C870.925 244.667 870.891 245.34 870.891 246.06C870.891 246.78 870.925 247.453 870.991 248.08C871.071 248.707 871.198 249.253 871.371 249.72C871.558 250.173 871.798 250.533 872.091 250.8C872.398 251.067 872.771 251.2 873.211 251.2C873.651 251.2 874.018 251.067 874.311 250.8C874.605 250.533 874.838 250.173 875.011 249.72C875.198 249.253 875.331 248.707 875.411 248.08C875.491 247.453 875.531 246.78 875.531 246.06ZM889.398 246.06C889.398 248.393 888.972 250.187 888.118 251.44C887.265 252.68 886.085 253.3 884.578 253.3C883.072 253.3 881.892 252.68 881.038 251.44C880.185 250.187 879.758 248.393 879.758 246.06C879.758 244.9 879.865 243.873 880.078 242.98C880.305 242.073 880.625 241.313 881.038 240.7C881.465 240.087 881.972 239.62 882.558 239.3C883.158 238.98 883.832 238.82 884.578 238.82C886.085 238.82 887.265 239.447 888.118 240.7C888.972 241.94 889.398 243.727 889.398 246.06ZM886.898 246.06C886.898 245.34 886.858 244.667 886.778 244.04C886.698 243.413 886.565 242.873 886.378 242.42C886.205 241.953 885.972 241.587 885.678 241.32C885.385 241.053 885.018 240.92 884.578 240.92C884.138 240.92 883.765 241.053 883.458 241.32C883.165 241.587 882.925 241.953 882.738 242.42C882.565 242.873 882.438 243.413 882.358 244.04C882.292 244.667 882.258 245.34 882.258 246.06C882.258 246.78 882.292 247.453 882.358 248.08C882.438 248.707 882.565 249.253 882.738 249.72C882.925 250.173 883.165 250.533 883.458 250.8C883.765 251.067 884.138 251.2 884.578 251.2C885.018 251.2 885.385 251.067 885.678 250.8C885.972 250.533 886.205 250.173 886.378 249.72C886.565 249.253 886.698 248.707 886.778 248.08C886.858 247.453 886.898 246.78 886.898 246.06ZM894.526 251.68C894.526 252.147 894.366 252.527 894.046 252.82C893.739 253.113 893.366 253.26 892.926 253.26C892.472 253.26 892.092 253.113 891.786 252.82C891.479 252.527 891.326 252.147 891.326 251.68C891.326 251.213 891.479 250.833 891.786 250.54C892.092 250.233 892.472 250.08 892.926 250.08C893.366 250.08 893.739 250.233 894.046 250.54C894.366 250.833 894.526 251.213 894.526 251.68ZM906.078 246.06C906.078 248.393 905.651 250.187 904.798 251.44C903.945 252.68 902.765 253.3 901.258 253.3C899.751 253.3 898.571 252.68 897.718 251.44C896.865 250.187 896.438 248.393 896.438 246.06C896.438 244.9 896.545 243.873 896.758 242.98C896.985 242.073 897.305 241.313 897.718 240.7C898.145 240.087 898.651 239.62 899.238 239.3C899.838 238.98 900.511 238.82 901.258 238.82C902.765 238.82 903.945 239.447 904.798 240.7C905.651 241.94 906.078 243.727 906.078 246.06ZM903.578 246.06C903.578 245.34 903.538 244.667 903.458 244.04C903.378 243.413 903.245 242.873 903.058 242.42C902.885 241.953 902.651 241.587 902.358 241.32C902.065 241.053 901.698 240.92 901.258 240.92C900.818 240.92 900.445 241.053 900.138 241.32C899.845 241.587 899.605 241.953 899.418 242.42C899.245 242.873 899.118 243.413 899.038 244.04C898.971 244.667 898.938 245.34 898.938 246.06C898.938 246.78 898.971 247.453 899.038 248.08C899.118 248.707 899.245 249.253 899.418 249.72C899.605 250.173 899.845 250.533 900.138 250.8C900.445 251.067 900.818 251.2 901.258 251.2C901.698 251.2 902.065 251.067 902.358 250.8C902.651 250.533 902.885 250.173 903.058 249.72C903.245 249.253 903.378 248.707 903.458 248.08C903.538 247.453 903.578 246.78 903.578 246.06ZM917.445 246.06C917.445 248.393 917.019 250.187 916.165 251.44C915.312 252.68 914.132 253.3 912.625 253.3C911.119 253.3 909.939 252.68 909.085 251.44C908.232 250.187 907.805 248.393 907.805 246.06C907.805 244.9 907.912 243.873 908.125 242.98C908.352 242.073 908.672 241.313 909.085 240.7C909.512 240.087 910.019 239.62 910.605 239.3C911.205 238.98 911.879 238.82 912.625 238.82C914.132 238.82 915.312 239.447 916.165 240.7C917.019 241.94 917.445 243.727 917.445 246.06ZM914.945 246.06C914.945 245.34 914.905 244.667 914.825 244.04C914.745 243.413 914.612 242.873 914.425 242.42C914.252 241.953 914.019 241.587 913.725 241.32C913.432 241.053 913.065 240.92 912.625 240.92C912.185 240.92 911.812 241.053 911.505 241.32C911.212 241.587 910.972 241.953 910.785 242.42C910.612 242.873 910.485 243.413 910.405 244.04C910.339 244.667 910.305 245.34 910.305 246.06C910.305 246.78 910.339 247.453 910.405 248.08C910.485 248.707 910.612 249.253 910.785 249.72C910.972 250.173 911.212 250.533 911.505 250.8C911.812 251.067 912.185 251.2 912.625 251.2C913.065 251.2 913.432 251.067 913.725 250.8C914.019 250.533 914.252 250.173 914.425 249.72C914.612 249.253 914.745 248.707 914.825 248.08C914.905 247.453 914.945 246.78 914.945 246.06Z" fill="white"/>
<rect x="218" y="240" width="78" height="11" rx="5.5" fill="#22C55E"/>
<path d="M324.62 242.74C324.62 243.22 324.52 243.693 324.32 244.16C324.12 244.613 323.86 245.06 323.54 245.5C323.233 245.927 322.88 246.347 322.48 246.76C322.08 247.16 321.68 247.553 321.28 247.94C321.067 248.14 320.827 248.38 320.56 248.66C320.293 248.94 320.04 249.22 319.8 249.5C319.56 249.78 319.353 250.053 319.18 250.32C319.007 250.573 318.913 250.787 318.9 250.96H325.06V253H316.24C316.227 252.893 316.22 252.767 316.22 252.62C316.22 252.46 316.22 252.34 316.22 252.26C316.22 251.62 316.32 251.033 316.52 250.5C316.733 249.953 317.007 249.447 317.34 248.98C317.673 248.513 318.047 248.073 318.46 247.66C318.873 247.247 319.287 246.84 319.7 246.44C320.02 246.133 320.327 245.833 320.62 245.54C320.913 245.247 321.167 244.96 321.38 244.68C321.607 244.387 321.787 244.093 321.92 243.8C322.053 243.493 322.12 243.18 322.12 242.86C322.12 242.167 321.92 241.673 321.52 241.38C321.12 241.087 320.633 240.94 320.06 240.94C319.687 240.94 319.34 240.993 319.02 241.1C318.7 241.207 318.413 241.333 318.16 241.48C317.92 241.627 317.707 241.78 317.52 241.94C317.333 242.087 317.193 242.207 317.1 242.3L315.9 240.6C316.46 240.067 317.113 239.64 317.86 239.32C318.62 238.987 319.433 238.82 320.3 238.82C321.78 238.82 322.867 239.173 323.56 239.88C324.267 240.573 324.62 241.527 324.62 242.74ZM336.867 246.06C336.867 248.393 336.441 250.187 335.587 251.44C334.734 252.68 333.554 253.3 332.047 253.3C330.541 253.3 329.361 252.68 328.507 251.44C327.654 250.187 327.227 248.393 327.227 246.06C327.227 244.9 327.334 243.873 327.547 242.98C327.774 242.073 328.094 241.313 328.507 240.7C328.934 240.087 329.441 239.62 330.027 239.3C330.627 238.98 331.301 238.82 332.047 238.82C333.554 238.82 334.734 239.447 335.587 240.7C336.441 241.94 336.867 243.727 336.867 246.06ZM334.367 246.06C334.367 245.34 334.327 244.667 334.247 244.04C334.167 243.413 334.034 242.873 333.847 242.42C333.674 241.953 333.441 241.587 333.147 241.32C332.854 241.053 332.487 240.92 332.047 240.92C331.607 240.92 331.234 241.053 330.927 241.32C330.634 241.587 330.394 241.953 330.207 242.42C330.034 242.873 329.907 243.413 329.827 244.04C329.761 244.667 329.727 245.34 329.727 246.06C329.727 246.78 329.761 247.453 329.827 248.08C329.907 248.707 330.034 249.253 330.207 249.72C330.394 250.173 330.634 250.533 330.927 250.8C331.234 251.067 331.607 251.2 332.047 251.2C332.487 251.2 332.854 251.067 333.147 250.8C333.441 250.533 333.674 250.173 333.847 249.72C334.034 249.253 334.167 248.707 334.247 248.08C334.327 247.453 334.367 246.78 334.367 246.06ZM342.33 246.772C342.33 247.5 342.142 248.06 341.766 248.452C341.398 248.844 340.914 249.04 340.314 249.04C340.018 249.04 339.746 248.992 339.498 248.896C339.25 248.792 339.038 248.644 338.862 248.452C338.686 248.26 338.546 248.024 338.442 247.744C338.346 247.456 338.298 247.132 338.298 246.772C338.298 246.036 338.482 245.476 338.85 245.092C339.226 244.7 339.714 244.504 340.314 244.504C340.914 244.504 341.398 244.7 341.766 245.092C342.142 245.476 342.33 246.036 342.33 246.772ZM341.19 246.772C341.19 246.348 341.11 246.032 340.95 245.824C340.798 245.608 340.586 245.5 340.314 245.5C340.042 245.5 339.83 245.608 339.678 245.824C339.526 246.032 339.45 246.348 339.45 246.772C339.45 247.196 339.526 247.516 339.678 247.732C339.83 247.94 340.042 248.044 340.314 248.044C340.586 248.044 340.798 247.94 340.95 247.732C341.11 247.516 341.19 247.196 341.19 246.772ZM344.766 244.684H346.146L341.454 253H340.074L344.766 244.684ZM347.934 250.924C347.934 251.652 347.746 252.212 347.37 252.604C347.002 252.996 346.518 253.192 345.918 253.192C345.622 253.192 345.35 253.14 345.102 253.036C344.854 252.94 344.642 252.796 344.466 252.604C344.29 252.412 344.15 252.176 344.046 251.896C343.95 251.608 343.902 251.284 343.902 250.924C343.902 250.188 344.086 249.628 344.454 249.244C344.83 248.852 345.318 248.656 345.918 248.656C346.518 248.656 347.002 248.852 347.37 249.244C347.746 249.628 347.934 250.188 347.934 250.924ZM346.794 250.924C346.794 250.5 346.714 250.184 346.554 249.976C346.402 249.76 346.19 249.652 345.918 249.652C345.646 249.652 345.434 249.76 345.282 249.976C345.13 250.184 345.054 250.5 345.054 250.924C345.054 251.348 345.13 251.668 345.282 251.884C345.434 252.092 345.646 252.196 345.918 252.196C346.19 252.196 346.402 252.092 346.554 251.884C346.714 251.668 346.794 251.348 346.794 250.924Z" fill="white"/>
</svg>
