<svg width="293" height="61" viewBox="0 0 293 61" fill="none" xmlns="http://www.w3.org/2000/svg">
<circle cx="28" cy="21" r="20.5" fill="white" stroke="#F3F4F6"/>
<path d="M21.562 16.9C22.862 16.9 23.8543 17.1383 24.539 17.615C25.2323 18.0917 25.579 18.8197 25.579 19.799C25.579 21.021 24.9767 21.8487 23.772 22.282C23.9367 22.4813 24.123 22.724 24.331 23.01C24.539 23.296 24.7513 23.608 24.968 23.946C25.1847 24.2753 25.3927 24.6177 25.592 24.973C25.7913 25.3197 25.969 25.662 26.125 26H24.292C24.1273 25.688 23.9497 25.376 23.759 25.064C23.5683 24.7433 23.3733 24.4357 23.174 24.141C22.9833 23.8377 22.7927 23.556 22.602 23.296C22.4113 23.0273 22.2337 22.789 22.069 22.581C21.9477 22.5897 21.8437 22.594 21.757 22.594C21.6703 22.594 21.588 22.594 21.51 22.594H20.717V26H19.079V17.121C19.4777 17.0343 19.9023 16.978 20.353 16.952C20.8037 16.9173 21.2067 16.9 21.562 16.9ZM21.679 18.317C21.3323 18.317 21.0117 18.33 20.717 18.356V21.268H21.432C21.8307 21.268 22.1817 21.2463 22.485 21.203C22.7883 21.1597 23.0397 21.0817 23.239 20.969C23.447 20.8563 23.603 20.7047 23.707 20.514C23.811 20.3233 23.863 20.0807 23.863 19.786C23.863 19.5087 23.811 19.2747 23.707 19.084C23.603 18.8933 23.4513 18.7417 23.252 18.629C23.0613 18.5163 22.8317 18.4383 22.563 18.395C22.2943 18.343 21.9997 18.317 21.679 18.317ZM28.6192 21.489C28.6192 21.983 28.6798 22.4337 28.8012 22.841C28.9225 23.2397 29.0958 23.582 29.3212 23.868C29.5552 24.1453 29.8368 24.362 30.1662 24.518C30.4955 24.674 30.8682 24.752 31.2842 24.752C31.6915 24.752 32.0598 24.674 32.3892 24.518C32.7185 24.362 32.9958 24.1453 33.2212 23.868C33.4552 23.582 33.6328 23.2397 33.7542 22.841C33.8755 22.4337 33.9362 21.983 33.9362 21.489C33.9362 20.995 33.8755 20.5487 33.7542 20.15C33.6328 19.7427 33.4552 19.4003 33.2212 19.123C32.9958 18.837 32.7185 18.616 32.3892 18.46C32.0598 18.304 31.6915 18.226 31.2842 18.226C30.8682 18.226 30.4955 18.304 30.1662 18.46C29.8368 18.616 29.5552 18.837 29.3212 19.123C29.0958 19.409 28.9225 19.7513 28.8012 20.15C28.6798 20.5487 28.6192 20.995 28.6192 21.489ZM35.6522 21.489C35.6522 22.2603 35.5352 22.9407 35.3012 23.53C35.0758 24.1193 34.7638 24.6133 34.3652 25.012C33.9752 25.402 33.5158 25.6967 32.9872 25.896C32.4585 26.0953 31.8952 26.195 31.2972 26.195C30.6992 26.195 30.1315 26.0953 29.5942 25.896C29.0655 25.6967 28.6018 25.402 28.2032 25.012C27.8132 24.6133 27.5012 24.1193 27.2672 23.53C27.0332 22.9407 26.9162 22.2603 26.9162 21.489C26.9162 20.7177 27.0332 20.0417 27.2672 19.461C27.5012 18.8717 27.8175 18.3777 28.2162 17.979C28.6235 17.5803 29.0915 17.2813 29.6202 17.082C30.1488 16.8827 30.7078 16.783 31.2972 16.783C31.8865 16.783 32.4455 16.8827 32.9742 17.082C33.5028 17.2813 33.9622 17.5803 34.3522 17.979C34.7508 18.3777 35.0672 18.8717 35.3012 19.461C35.5352 20.0417 35.6522 20.7177 35.6522 21.489Z" fill="#3D0072"/>
<path d="M4.25 56.1C4.35667 56.2333 4.49 56.41 4.65 56.63C4.81667 56.8433 4.98667 57.0833 5.16 57.35C5.33333 57.61 5.50333 57.8833 5.67 58.17C5.84333 58.4567 5.99 58.7333 6.11 59H5.05C4.91667 58.7467 4.77 58.49 4.61 58.23C4.45667 57.97 4.3 57.7233 4.14 57.49C3.98 57.25 3.82 57.0267 3.66 56.82C3.50667 56.6133 3.36667 56.4333 3.24 56.28C3.15333 56.2867 3.06333 56.29 2.97 56.29C2.88333 56.29 2.79333 56.29 2.7 56.29H1.83V59H0.86V52.17C1.13333 52.1033 1.43667 52.06 1.77 52.04C2.11 52.0133 2.42 52 2.7 52C3.67333 52 4.41333 52.1833 4.92 52.55C5.43333 52.9167 5.69 53.4633 5.69 54.19C5.69 54.65 5.56667 55.0433 5.32 55.37C5.08 55.6967 4.72333 55.94 4.25 56.1ZM2.78 52.85C2.36667 52.85 2.05 52.86 1.83 52.88V55.49H2.52C2.85333 55.49 3.15333 55.4733 3.42 55.44C3.68667 55.4067 3.91 55.3433 4.09 55.25C4.27667 55.1567 4.42 55.0267 4.52 54.86C4.62 54.6867 4.67 54.46 4.67 54.18C4.67 53.92 4.62 53.7033 4.52 53.53C4.42 53.3567 4.28333 53.22 4.11 53.12C3.94333 53.02 3.74333 52.95 3.51 52.91C3.28333 52.87 3.04 52.85 2.78 52.85ZM11.6791 56.4C11.6791 56.8133 11.6191 57.1867 11.4991 57.52C11.3791 57.8533 11.2091 58.14 10.9891 58.38C10.7757 58.62 10.5191 58.8067 10.2191 58.94C9.91906 59.0667 9.5924 59.13 9.23906 59.13C8.88573 59.13 8.55906 59.0667 8.25906 58.94C7.95906 58.8067 7.69906 58.62 7.47906 58.38C7.26573 58.14 7.09906 57.8533 6.97906 57.52C6.85906 57.1867 6.79906 56.8133 6.79906 56.4C6.79906 55.9933 6.85906 55.6233 6.97906 55.29C7.09906 54.95 7.26573 54.66 7.47906 54.42C7.69906 54.18 7.95906 53.9967 8.25906 53.87C8.55906 53.7367 8.88573 53.67 9.23906 53.67C9.5924 53.67 9.91906 53.7367 10.2191 53.87C10.5191 53.9967 10.7757 54.18 10.9891 54.42C11.2091 54.66 11.3791 54.95 11.4991 55.29C11.6191 55.6233 11.6791 55.9933 11.6791 56.4ZM10.7091 56.4C10.7091 55.8133 10.5757 55.35 10.3091 55.01C10.0491 54.6633 9.6924 54.49 9.23906 54.49C8.78573 54.49 8.42573 54.6633 8.15906 55.01C7.89906 55.35 7.76906 55.8133 7.76906 56.4C7.76906 56.9867 7.89906 57.4533 8.15906 57.8C8.42573 58.14 8.78573 58.31 9.23906 58.31C9.6924 58.31 10.0491 58.14 10.3091 57.8C10.5757 57.4533 10.7091 56.9867 10.7091 56.4ZM14.5475 59.1C13.9742 59.0867 13.5675 58.9633 13.3275 58.73C13.0875 58.4967 12.9675 58.1333 12.9675 57.64V51.4L13.8975 51.24V57.49C13.8975 57.6433 13.9108 57.77 13.9375 57.87C13.9642 57.97 14.0075 58.05 14.0675 58.11C14.1275 58.17 14.2075 58.2167 14.3075 58.25C14.4075 58.2767 14.5308 58.3 14.6775 58.32L14.5475 59.1ZM17.4819 58.33C17.7019 58.33 17.8952 58.3267 18.0619 58.32C18.2352 58.3067 18.3785 58.2867 18.4919 58.26V56.71C18.4252 56.6767 18.3152 56.65 18.1619 56.63C18.0152 56.6033 17.8352 56.59 17.6219 56.59C17.4819 56.59 17.3319 56.6 17.1719 56.62C17.0185 56.64 16.8752 56.6833 16.7419 56.75C16.6152 56.81 16.5085 56.8967 16.4219 57.01C16.3352 57.1167 16.2919 57.26 16.2919 57.44C16.2919 57.7733 16.3985 58.0067 16.6119 58.14C16.8252 58.2667 17.1152 58.33 17.4819 58.33ZM17.4019 53.67C17.7752 53.67 18.0885 53.72 18.3419 53.82C18.6019 53.9133 18.8085 54.05 18.9619 54.23C19.1219 54.4033 19.2352 54.6133 19.3019 54.86C19.3685 55.1 19.4019 55.3667 19.4019 55.66V58.91C19.3219 58.9233 19.2085 58.9433 19.0619 58.97C18.9219 58.99 18.7619 59.01 18.5819 59.03C18.4019 59.05 18.2052 59.0667 17.9919 59.08C17.7852 59.1 17.5785 59.11 17.3719 59.11C17.0785 59.11 16.8085 59.08 16.5619 59.02C16.3152 58.96 16.1019 58.8667 15.9219 58.74C15.7419 58.6067 15.6019 58.4333 15.5019 58.22C15.4019 58.0067 15.3519 57.75 15.3519 57.45C15.3519 57.1633 15.4085 56.9167 15.5219 56.71C15.6419 56.5033 15.8019 56.3367 16.0019 56.21C16.2019 56.0833 16.4352 55.99 16.7019 55.93C16.9685 55.87 17.2485 55.84 17.5419 55.84C17.6352 55.84 17.7319 55.8467 17.8319 55.86C17.9319 55.8667 18.0252 55.88 18.1119 55.9C18.2052 55.9133 18.2852 55.9267 18.3519 55.94C18.4185 55.9533 18.4652 55.9633 18.4919 55.97V55.71C18.4919 55.5567 18.4752 55.4067 18.4419 55.26C18.4085 55.1067 18.3485 54.9733 18.2619 54.86C18.1752 54.74 18.0552 54.6467 17.9019 54.58C17.7552 54.5067 17.5619 54.47 17.3219 54.47C17.0152 54.47 16.7452 54.4933 16.5119 54.54C16.2852 54.58 16.1152 54.6233 16.0019 54.67L15.8919 53.9C16.0119 53.8467 16.2119 53.7967 16.4919 53.75C16.7719 53.6967 17.0752 53.67 17.4019 53.67ZM21.8165 53.8H23.7865V54.58H21.8165V56.98C21.8165 57.24 21.8365 57.4567 21.8765 57.63C21.9165 57.7967 21.9765 57.93 22.0565 58.03C22.1365 58.1233 22.2365 58.19 22.3565 58.23C22.4765 58.27 22.6165 58.29 22.7765 58.29C23.0565 58.29 23.2798 58.26 23.4465 58.2C23.6198 58.1333 23.7398 58.0867 23.8065 58.06L23.9865 58.83C23.8932 58.8767 23.7298 58.9333 23.4965 59C23.2632 59.0733 22.9965 59.11 22.6965 59.11C22.3432 59.11 22.0498 59.0667 21.8165 58.98C21.5898 58.8867 21.4065 58.75 21.2665 58.57C21.1265 58.39 21.0265 58.17 20.9665 57.91C20.9132 57.6433 20.8865 57.3367 20.8865 56.99V52.35L21.8165 52.19V53.8ZM31.9744 59C31.861 58.7 31.7544 58.4067 31.6544 58.12C31.5544 57.8267 31.451 57.53 31.3444 57.23H28.2044L27.5744 59H26.5644C26.831 58.2667 27.081 57.59 27.3144 56.97C27.5477 56.3433 27.7744 55.75 27.9944 55.19C28.221 54.63 28.4444 54.0967 28.6644 53.59C28.8844 53.0767 29.1144 52.57 29.3544 52.07H30.2444C30.4844 52.57 30.7144 53.0767 30.9344 53.59C31.1544 54.0967 31.3744 54.63 31.5944 55.19C31.821 55.75 32.051 56.3433 32.2844 56.97C32.5177 57.59 32.7677 58.2667 33.0344 59H31.9744ZM31.0644 56.43C30.851 55.85 30.6377 55.29 30.4244 54.75C30.2177 54.2033 30.001 53.68 29.7744 53.18C29.541 53.68 29.3177 54.2033 29.1044 54.75C28.8977 55.29 28.691 55.85 28.4844 56.43H31.0644ZM34.8452 54.03C34.9586 53.9567 35.1286 53.88 35.3552 53.8C35.5886 53.72 35.8552 53.68 36.1552 53.68C36.5286 53.68 36.8586 53.7467 37.1452 53.88C37.4386 54.0133 37.6852 54.2 37.8852 54.44C38.0852 54.68 38.2352 54.9667 38.3352 55.3C38.4419 55.6333 38.4952 56 38.4952 56.4C38.4952 56.82 38.4319 57.2 38.3052 57.54C38.1852 57.8733 38.0119 58.1567 37.7852 58.39C37.5586 58.6233 37.2852 58.8033 36.9652 58.93C36.6452 59.0567 36.2852 59.12 35.8852 59.12C35.4519 59.12 35.0686 59.09 34.7352 59.03C34.4019 58.97 34.1286 58.91 33.9152 58.85V51.4L34.8452 51.24V54.03ZM34.8452 58.19C34.9386 58.2167 35.0686 58.2433 35.2352 58.27C35.4086 58.29 35.6219 58.3 35.8752 58.3C36.3752 58.3 36.7752 58.1367 37.0752 57.81C37.3752 57.4767 37.5252 57.0067 37.5252 56.4C37.5252 56.1333 37.4986 55.8833 37.4452 55.65C37.3919 55.4167 37.3052 55.2167 37.1852 55.05C37.0652 54.8767 36.9086 54.7433 36.7152 54.65C36.5286 54.55 36.3019 54.5 36.0352 54.5C35.7819 54.5 35.5486 54.5433 35.3352 54.63C35.1219 54.7167 34.9586 54.8067 34.8452 54.9V58.19ZM40.7339 59H39.8039V53.8H40.7339V59ZM40.2639 52.86C40.0972 52.86 39.9539 52.8067 39.8339 52.7C39.7206 52.5867 39.6639 52.4367 39.6639 52.25C39.6639 52.0633 39.7206 51.9167 39.8339 51.81C39.9539 51.6967 40.0972 51.64 40.2639 51.64C40.4306 51.64 40.5706 51.6967 40.6839 51.81C40.8039 51.9167 40.8639 52.0633 40.8639 52.25C40.8639 52.4367 40.8039 52.5867 40.6839 52.7C40.5706 52.8067 40.4306 52.86 40.2639 52.86ZM46.9232 56.4C46.9232 56.8133 46.8632 57.1867 46.7432 57.52C46.6232 57.8533 46.4532 58.14 46.2332 58.38C46.0199 58.62 45.7632 58.8067 45.4632 58.94C45.1632 59.0667 44.8365 59.13 44.4832 59.13C44.1299 59.13 43.8032 59.0667 43.5032 58.94C43.2032 58.8067 42.9432 58.62 42.7232 58.38C42.5099 58.14 42.3432 57.8533 42.2232 57.52C42.1032 57.1867 42.0432 56.8133 42.0432 56.4C42.0432 55.9933 42.1032 55.6233 42.2232 55.29C42.3432 54.95 42.5099 54.66 42.7232 54.42C42.9432 54.18 43.2032 53.9967 43.5032 53.87C43.8032 53.7367 44.1299 53.67 44.4832 53.67C44.8365 53.67 45.1632 53.7367 45.4632 53.87C45.7632 53.9967 46.0199 54.18 46.2332 54.42C46.4532 54.66 46.6232 54.95 46.7432 55.29C46.8632 55.6233 46.9232 55.9933 46.9232 56.4ZM45.9532 56.4C45.9532 55.8133 45.8199 55.35 45.5532 55.01C45.2932 54.6633 44.9365 54.49 44.4832 54.49C44.0299 54.49 43.6699 54.6633 43.4032 55.01C43.1432 55.35 43.0132 55.8133 43.0132 56.4C43.0132 56.9867 43.1432 57.4533 43.4032 57.8C43.6699 58.14 44.0299 58.31 44.4832 58.31C44.9365 58.31 45.2932 58.14 45.5532 57.8C45.8199 57.4533 45.9532 56.9867 45.9532 56.4ZM49.7916 59.1C49.2183 59.0867 48.8116 58.9633 48.5716 58.73C48.3316 58.4967 48.2116 58.1333 48.2116 57.64V51.4L49.1416 51.24V57.49C49.1416 57.6433 49.155 57.77 49.1816 57.87C49.2083 57.97 49.2516 58.05 49.3116 58.11C49.3716 58.17 49.4516 58.2167 49.5516 58.25C49.6516 58.2767 49.775 58.3 49.9216 58.32L49.7916 59.1ZM52.726 58.33C52.946 58.33 53.1393 58.3267 53.306 58.32C53.4793 58.3067 53.6227 58.2867 53.736 58.26V56.71C53.6693 56.6767 53.5593 56.65 53.406 56.63C53.2593 56.6033 53.0793 56.59 52.866 56.59C52.726 56.59 52.576 56.6 52.416 56.62C52.2627 56.64 52.1193 56.6833 51.986 56.75C51.8593 56.81 51.7527 56.8967 51.666 57.01C51.5793 57.1167 51.536 57.26 51.536 57.44C51.536 57.7733 51.6427 58.0067 51.856 58.14C52.0693 58.2667 52.3593 58.33 52.726 58.33ZM52.646 53.67C53.0193 53.67 53.3327 53.72 53.586 53.82C53.846 53.9133 54.0527 54.05 54.206 54.23C54.366 54.4033 54.4793 54.6133 54.546 54.86C54.6127 55.1 54.646 55.3667 54.646 55.66V58.91C54.566 58.9233 54.4527 58.9433 54.306 58.97C54.166 58.99 54.006 59.01 53.826 59.03C53.646 59.05 53.4493 59.0667 53.236 59.08C53.0293 59.1 52.8227 59.11 52.616 59.11C52.3227 59.11 52.0527 59.08 51.806 59.02C51.5593 58.96 51.346 58.8667 51.166 58.74C50.986 58.6067 50.846 58.4333 50.746 58.22C50.646 58.0067 50.596 57.75 50.596 57.45C50.596 57.1633 50.6527 56.9167 50.766 56.71C50.886 56.5033 51.046 56.3367 51.246 56.21C51.446 56.0833 51.6793 55.99 51.946 55.93C52.2127 55.87 52.4927 55.84 52.786 55.84C52.8793 55.84 52.976 55.8467 53.076 55.86C53.176 55.8667 53.2693 55.88 53.356 55.9C53.4493 55.9133 53.5293 55.9267 53.596 55.94C53.6627 55.9533 53.7093 55.9633 53.736 55.97V55.71C53.736 55.5567 53.7193 55.4067 53.686 55.26C53.6527 55.1067 53.5927 54.9733 53.506 54.86C53.4193 54.74 53.2993 54.6467 53.146 54.58C52.9993 54.5067 52.806 54.47 52.566 54.47C52.2593 54.47 51.9893 54.4933 51.756 54.54C51.5293 54.58 51.3593 54.6233 51.246 54.67L51.136 53.9C51.256 53.8467 51.456 53.7967 51.736 53.75C52.016 53.6967 52.3193 53.67 52.646 53.67Z" fill="#3D0072"/>
<circle cx="110.5" cy="21" r="20.5" fill="white" stroke="#F3F4F6"/>
<path d="M107.559 26C107.438 25.6447 107.312 25.2937 107.182 24.947C107.052 24.6003 106.926 24.245 106.805 23.881H103.009C102.888 24.245 102.762 24.6047 102.632 24.96C102.511 25.3067 102.389 25.6533 102.268 26H100.565C100.903 25.038 101.224 24.1497 101.527 23.335C101.83 22.5203 102.125 21.749 102.411 21.021C102.706 20.293 102.996 19.5997 103.282 18.941C103.568 18.2823 103.863 17.6323 104.166 16.991H105.713C106.016 17.6323 106.311 18.2823 106.597 18.941C106.883 19.5997 107.169 20.293 107.455 21.021C107.75 21.749 108.049 22.5203 108.352 23.335C108.664 24.1497 108.989 25.038 109.327 26H107.559ZM104.907 18.733C104.708 19.1923 104.478 19.7513 104.218 20.41C103.967 21.0687 103.702 21.7837 103.425 22.555H106.389C106.112 21.7837 105.843 21.0643 105.583 20.397C105.323 19.7297 105.098 19.175 104.907 18.733ZM111.589 21.489C111.589 21.983 111.65 22.4337 111.771 22.841C111.892 23.2397 112.066 23.582 112.291 23.868C112.525 24.1453 112.807 24.362 113.136 24.518C113.465 24.674 113.838 24.752 114.254 24.752C114.661 24.752 115.03 24.674 115.359 24.518C115.688 24.362 115.966 24.1453 116.191 23.868C116.425 23.582 116.603 23.2397 116.724 22.841C116.845 22.4337 116.906 21.983 116.906 21.489C116.906 20.995 116.845 20.5487 116.724 20.15C116.603 19.7427 116.425 19.4003 116.191 19.123C115.966 18.837 115.688 18.616 115.359 18.46C115.03 18.304 114.661 18.226 114.254 18.226C113.838 18.226 113.465 18.304 113.136 18.46C112.807 18.616 112.525 18.837 112.291 19.123C112.066 19.409 111.892 19.7513 111.771 20.15C111.65 20.5487 111.589 20.995 111.589 21.489ZM118.622 21.489C118.622 22.2603 118.505 22.9407 118.271 23.53C118.046 24.1193 117.734 24.6133 117.335 25.012C116.945 25.402 116.486 25.6967 115.957 25.896C115.428 26.0953 114.865 26.195 114.267 26.195C113.669 26.195 113.101 26.0953 112.564 25.896C112.035 25.6967 111.572 25.402 111.173 25.012C110.783 24.6133 110.471 24.1193 110.237 23.53C110.003 22.9407 109.886 22.2603 109.886 21.489C109.886 20.7177 110.003 20.0417 110.237 19.461C110.471 18.8717 110.787 18.3777 111.186 17.979C111.593 17.5803 112.061 17.2813 112.59 17.082C113.119 16.8827 113.678 16.783 114.267 16.783C114.856 16.783 115.415 16.8827 115.944 17.082C116.473 17.2813 116.932 17.5803 117.322 17.979C117.721 18.3777 118.037 18.8717 118.271 19.461C118.505 20.0417 118.622 20.7177 118.622 21.489Z" fill="#3D0072"/>
<path d="M91.49 59C91.3767 58.7 91.27 58.4067 91.17 58.12C91.07 57.8267 90.9667 57.53 90.86 57.23H87.72L87.09 59H86.08C86.3467 58.2667 86.5967 57.59 86.83 56.97C87.0633 56.3433 87.29 55.75 87.51 55.19C87.7367 54.63 87.96 54.0967 88.18 53.59C88.4 53.0767 88.63 52.57 88.87 52.07H89.76C90 52.57 90.23 53.0767 90.45 53.59C90.67 54.0967 90.89 54.63 91.11 55.19C91.3367 55.75 91.5667 56.3433 91.8 56.97C92.0333 57.59 92.2833 58.2667 92.55 59H91.49ZM90.58 56.43C90.3667 55.85 90.1533 55.29 89.94 54.75C89.7333 54.2033 89.5167 53.68 89.29 53.18C89.0567 53.68 88.8333 54.2033 88.62 54.75C88.4133 55.29 88.2067 55.85 88 56.43H90.58ZM93.4309 53.95C93.6442 53.8967 93.9275 53.84 94.2809 53.78C94.6342 53.72 95.0409 53.69 95.5009 53.69C95.9142 53.69 96.2575 53.75 96.5309 53.87C96.8042 53.9833 97.0209 54.1467 97.1809 54.36C97.3475 54.5667 97.4642 54.8167 97.5309 55.11C97.5975 55.4033 97.6309 55.7267 97.6309 56.08V59H96.7009V56.28C96.7009 55.96 96.6775 55.6867 96.6309 55.46C96.5909 55.2333 96.5209 55.05 96.4209 54.91C96.3209 54.77 96.1875 54.67 96.0209 54.61C95.8542 54.5433 95.6475 54.51 95.4009 54.51C95.3009 54.51 95.1975 54.5133 95.0909 54.52C94.9842 54.5267 94.8809 54.5367 94.7809 54.55C94.6875 54.5567 94.6009 54.5667 94.5209 54.58C94.4475 54.5933 94.3942 54.6033 94.3609 54.61V59H93.4309V53.95ZM100.103 59H99.173V53.8H100.103V59ZM99.633 52.86C99.4664 52.86 99.323 52.8067 99.203 52.7C99.0897 52.5867 99.033 52.4367 99.033 52.25C99.033 52.0633 99.0897 51.9167 99.203 51.81C99.323 51.6967 99.4664 51.64 99.633 51.64C99.7997 51.64 99.9397 51.6967 100.053 51.81C100.173 51.9167 100.233 52.0633 100.233 52.25C100.233 52.4367 100.173 52.5867 100.053 52.7C99.9397 52.8067 99.7997 52.86 99.633 52.86ZM102.572 53.8H104.542V54.58H102.572V56.98C102.572 57.24 102.592 57.4567 102.632 57.63C102.672 57.7967 102.732 57.93 102.812 58.03C102.892 58.1233 102.992 58.19 103.112 58.23C103.232 58.27 103.372 58.29 103.532 58.29C103.812 58.29 104.036 58.26 104.202 58.2C104.376 58.1333 104.496 58.0867 104.562 58.06L104.742 58.83C104.649 58.8767 104.486 58.9333 104.252 59C104.019 59.0733 103.752 59.11 103.452 59.11C103.099 59.11 102.806 59.0667 102.572 58.98C102.346 58.8867 102.162 58.75 102.022 58.57C101.882 58.39 101.782 58.17 101.722 57.91C101.669 57.6433 101.642 57.3367 101.642 56.99V52.35L102.572 52.19V53.8ZM107.486 58.33C107.706 58.33 107.899 58.3267 108.066 58.32C108.239 58.3067 108.382 58.2867 108.496 58.26V56.71C108.429 56.6767 108.319 56.65 108.166 56.63C108.019 56.6033 107.839 56.59 107.626 56.59C107.486 56.59 107.336 56.6 107.176 56.62C107.022 56.64 106.879 56.6833 106.746 56.75C106.619 56.81 106.512 56.8967 106.426 57.01C106.339 57.1167 106.296 57.26 106.296 57.44C106.296 57.7733 106.402 58.0067 106.616 58.14C106.829 58.2667 107.119 58.33 107.486 58.33ZM107.406 53.67C107.779 53.67 108.092 53.72 108.346 53.82C108.606 53.9133 108.812 54.05 108.966 54.23C109.126 54.4033 109.239 54.6133 109.306 54.86C109.372 55.1 109.406 55.3667 109.406 55.66V58.91C109.326 58.9233 109.212 58.9433 109.066 58.97C108.926 58.99 108.766 59.01 108.586 59.03C108.406 59.05 108.209 59.0667 107.996 59.08C107.789 59.1 107.582 59.11 107.376 59.11C107.082 59.11 106.812 59.08 106.566 59.02C106.319 58.96 106.106 58.8667 105.926 58.74C105.746 58.6067 105.606 58.4333 105.506 58.22C105.406 58.0067 105.356 57.75 105.356 57.45C105.356 57.1633 105.412 56.9167 105.526 56.71C105.646 56.5033 105.806 56.3367 106.006 56.21C106.206 56.0833 106.439 55.99 106.706 55.93C106.972 55.87 107.252 55.84 107.546 55.84C107.639 55.84 107.736 55.8467 107.836 55.86C107.936 55.8667 108.029 55.88 108.116 55.9C108.209 55.9133 108.289 55.9267 108.356 55.94C108.422 55.9533 108.469 55.9633 108.496 55.97V55.71C108.496 55.5567 108.479 55.4067 108.446 55.26C108.412 55.1067 108.352 54.9733 108.266 54.86C108.179 54.74 108.059 54.6467 107.906 54.58C107.759 54.5067 107.566 54.47 107.326 54.47C107.019 54.47 106.749 54.4933 106.516 54.54C106.289 54.58 106.119 54.6233 106.006 54.67L105.896 53.9C106.016 53.8467 106.216 53.7967 106.496 53.75C106.776 53.6967 107.079 53.67 107.406 53.67ZM113.045 55.53C113.045 54.9367 113.132 54.4133 113.305 53.96C113.485 53.5067 113.725 53.13 114.025 52.83C114.332 52.5233 114.685 52.2933 115.085 52.14C115.492 51.9867 115.922 51.91 116.375 51.91C116.822 51.91 117.242 51.9867 117.635 52.14C118.035 52.2933 118.385 52.5233 118.685 52.83C118.985 53.13 119.222 53.5067 119.395 53.96C119.575 54.4133 119.665 54.9367 119.665 55.53C119.665 56.1233 119.575 56.6467 119.395 57.1C119.222 57.5533 118.985 57.9333 118.685 58.24C118.385 58.54 118.035 58.7667 117.635 58.92C117.242 59.0733 116.822 59.15 116.375 59.15C115.922 59.15 115.492 59.0733 115.085 58.92C114.685 58.7667 114.332 58.54 114.025 58.24C113.725 57.9333 113.485 57.5533 113.305 57.1C113.132 56.6467 113.045 56.1233 113.045 55.53ZM114.065 55.53C114.065 55.95 114.118 56.3333 114.225 56.68C114.332 57.02 114.482 57.31 114.675 57.55C114.875 57.79 115.115 57.9767 115.395 58.11C115.682 58.2367 116.002 58.3 116.355 58.3C116.708 58.3 117.025 58.2367 117.305 58.11C117.585 57.9767 117.822 57.79 118.015 57.55C118.215 57.31 118.368 57.02 118.475 56.68C118.582 56.3333 118.635 55.95 118.635 55.53C118.635 55.11 118.582 54.73 118.475 54.39C118.368 54.0433 118.215 53.75 118.015 53.51C117.822 53.27 117.585 53.0867 117.305 52.96C117.025 52.8267 116.708 52.76 116.355 52.76C116.002 52.76 115.682 52.8267 115.395 52.96C115.115 53.0867 114.875 53.27 114.675 53.51C114.482 53.75 114.332 54.0433 114.225 54.39C114.118 54.73 114.065 55.11 114.065 55.53ZM120.198 60.87C120.118 60.87 120.015 60.86 119.888 60.84C119.761 60.82 119.655 60.7933 119.568 60.76L119.688 60C119.755 60.02 119.831 60.0367 119.918 60.05C120.005 60.0633 120.085 60.07 120.158 60.07C120.478 60.07 120.705 59.97 120.838 59.77C120.978 59.5767 121.048 59.29 121.048 58.91V53.8H121.978V58.9C121.978 59.5667 121.825 60.06 121.518 60.38C121.218 60.7067 120.778 60.87 120.198 60.87ZM121.508 52.86C121.341 52.86 121.198 52.8067 121.078 52.7C120.965 52.5867 120.908 52.4367 120.908 52.25C120.908 52.0633 120.965 51.9167 121.078 51.81C121.198 51.6967 121.341 51.64 121.508 51.64C121.675 51.64 121.815 51.6967 121.928 51.81C122.048 51.9167 122.108 52.0633 122.108 52.25C122.108 52.4367 122.048 52.5867 121.928 52.7C121.815 52.8067 121.675 52.86 121.508 52.86ZM123.287 56.41C123.287 55.95 123.354 55.55 123.487 55.21C123.621 54.8633 123.797 54.5767 124.017 54.35C124.237 54.1233 124.491 53.9533 124.777 53.84C125.064 53.7267 125.357 53.67 125.657 53.67C126.357 53.67 126.894 53.89 127.267 54.33C127.641 54.7633 127.827 55.4267 127.827 56.32C127.827 56.36 127.827 56.4133 127.827 56.48C127.827 56.54 127.824 56.5967 127.817 56.65H124.257C124.297 57.19 124.454 57.6 124.727 57.88C125.001 58.16 125.427 58.3 126.007 58.3C126.334 58.3 126.607 58.2733 126.827 58.22C127.054 58.16 127.224 58.1033 127.337 58.05L127.467 58.83C127.354 58.89 127.154 58.9533 126.867 59.02C126.587 59.0867 126.267 59.12 125.907 59.12C125.454 59.12 125.061 59.0533 124.727 58.92C124.401 58.78 124.131 58.59 123.917 58.35C123.704 58.11 123.544 57.8267 123.437 57.5C123.337 57.1667 123.287 56.8033 123.287 56.41ZM126.857 55.9C126.864 55.48 126.757 55.1367 126.537 54.87C126.324 54.5967 126.027 54.46 125.647 54.46C125.434 54.46 125.244 54.5033 125.077 54.59C124.917 54.67 124.781 54.7767 124.667 54.91C124.554 55.0433 124.464 55.1967 124.397 55.37C124.337 55.5433 124.297 55.72 124.277 55.9H126.857ZM129.163 59V51.4L130.093 51.24V53.9C130.267 53.8333 130.45 53.7833 130.643 53.75C130.843 53.71 131.04 53.69 131.233 53.69C131.647 53.69 131.99 53.75 132.263 53.87C132.537 53.9833 132.753 54.1467 132.913 54.36C133.08 54.5667 133.197 54.8167 133.263 55.11C133.33 55.4033 133.363 55.7267 133.363 56.08V59H132.433V56.28C132.433 55.96 132.41 55.6867 132.363 55.46C132.323 55.2333 132.253 55.05 132.153 54.91C132.053 54.77 131.92 54.67 131.753 54.61C131.587 54.5433 131.38 54.51 131.133 54.51C131.033 54.51 130.93 54.5167 130.823 54.53C130.717 54.5433 130.613 54.56 130.513 54.58C130.42 54.5933 130.333 54.61 130.253 54.63C130.18 54.65 130.127 54.6667 130.093 54.68V59H129.163Z" fill="#3D0072"/>
<circle cx="186" cy="21" r="20.5" fill="white" stroke="#F3F4F6"/>
<path d="M178.418 21.489C178.418 21.983 178.479 22.4337 178.6 22.841C178.721 23.2397 178.895 23.582 179.12 23.868C179.354 24.1453 179.636 24.362 179.965 24.518C180.294 24.674 180.667 24.752 181.083 24.752C181.49 24.752 181.859 24.674 182.188 24.518C182.517 24.362 182.795 24.1453 183.02 23.868C183.254 23.582 183.432 23.2397 183.553 22.841C183.674 22.4337 183.735 21.983 183.735 21.489C183.735 20.995 183.674 20.5487 183.553 20.15C183.432 19.7427 183.254 19.4003 183.02 19.123C182.795 18.837 182.517 18.616 182.188 18.46C181.859 18.304 181.49 18.226 181.083 18.226C180.667 18.226 180.294 18.304 179.965 18.46C179.636 18.616 179.354 18.837 179.12 19.123C178.895 19.409 178.721 19.7513 178.6 20.15C178.479 20.5487 178.418 20.995 178.418 21.489ZM185.451 21.489C185.451 22.2603 185.334 22.9407 185.1 23.53C184.875 24.1193 184.563 24.6133 184.164 25.012C183.774 25.402 183.315 25.6967 182.786 25.896C182.257 26.0953 181.694 26.195 181.096 26.195C180.498 26.195 179.93 26.0953 179.393 25.896C178.864 25.6967 178.401 25.402 178.002 25.012C177.612 24.6133 177.3 24.1193 177.066 23.53C176.832 22.9407 176.715 22.2603 176.715 21.489C176.715 20.7177 176.832 20.0417 177.066 19.461C177.3 18.8717 177.616 18.3777 178.015 17.979C178.422 17.5803 178.89 17.2813 179.419 17.082C179.948 16.8827 180.507 16.783 181.096 16.783C181.685 16.783 182.244 16.8827 182.773 17.082C183.302 17.2813 183.761 17.5803 184.151 17.979C184.55 18.3777 184.866 18.8717 185.1 19.461C185.334 20.0417 185.451 20.7177 185.451 21.489ZM189.318 24.778C189.907 24.778 190.336 24.6783 190.605 24.479C190.873 24.2797 191.008 23.998 191.008 23.634C191.008 23.4173 190.96 23.231 190.865 23.075C190.778 22.919 190.648 22.7803 190.475 22.659C190.31 22.529 190.106 22.412 189.864 22.308C189.621 22.1953 189.344 22.087 189.032 21.983C188.72 21.8703 188.416 21.749 188.122 21.619C187.836 21.4803 187.58 21.3113 187.355 21.112C187.138 20.9127 186.96 20.6743 186.822 20.397C186.692 20.1197 186.627 19.786 186.627 19.396C186.627 18.5813 186.908 17.9443 187.472 17.485C188.035 17.017 188.802 16.783 189.773 16.783C190.336 16.783 190.834 16.848 191.268 16.978C191.71 17.0993 192.056 17.2337 192.308 17.381L191.801 18.707C191.506 18.5423 191.181 18.4167 190.826 18.33C190.479 18.2433 190.119 18.2 189.747 18.2C189.305 18.2 188.958 18.291 188.707 18.473C188.464 18.655 188.343 18.9107 188.343 19.24C188.343 19.4393 188.382 19.6127 188.46 19.76C188.546 19.8987 188.663 20.0243 188.811 20.137C188.967 20.2497 189.144 20.3537 189.344 20.449C189.552 20.5443 189.777 20.6353 190.02 20.722C190.444 20.878 190.821 21.0383 191.151 21.203C191.489 21.359 191.77 21.5497 191.996 21.775C192.23 21.9917 192.407 22.2517 192.529 22.555C192.65 22.8497 192.711 23.2093 192.711 23.634C192.711 24.4487 192.42 25.0813 191.84 25.532C191.268 25.974 190.427 26.195 189.318 26.195C188.945 26.195 188.603 26.169 188.291 26.117C187.987 26.0737 187.714 26.0173 187.472 25.948C187.238 25.8787 187.034 25.8093 186.861 25.74C186.687 25.662 186.549 25.5927 186.445 25.532L186.926 24.193C187.16 24.323 187.476 24.453 187.875 24.583C188.273 24.713 188.754 24.778 189.318 24.778Z" fill="#3D0072"/>
<path d="M170.08 55.53C170.08 54.9367 170.167 54.4133 170.34 53.96C170.52 53.5067 170.76 53.13 171.06 52.83C171.367 52.5233 171.72 52.2933 172.12 52.14C172.527 51.9867 172.957 51.91 173.41 51.91C173.857 51.91 174.277 51.9867 174.67 52.14C175.07 52.2933 175.42 52.5233 175.72 52.83C176.02 53.13 176.257 53.5067 176.43 53.96C176.61 54.4133 176.7 54.9367 176.7 55.53C176.7 56.1233 176.61 56.6467 176.43 57.1C176.257 57.5533 176.02 57.9333 175.72 58.24C175.42 58.54 175.07 58.7667 174.67 58.92C174.277 59.0733 173.857 59.15 173.41 59.15C172.957 59.15 172.527 59.0733 172.12 58.92C171.72 58.7667 171.367 58.54 171.06 58.24C170.76 57.9333 170.52 57.5533 170.34 57.1C170.167 56.6467 170.08 56.1233 170.08 55.53ZM171.1 55.53C171.1 55.95 171.153 56.3333 171.26 56.68C171.367 57.02 171.517 57.31 171.71 57.55C171.91 57.79 172.15 57.9767 172.43 58.11C172.717 58.2367 173.037 58.3 173.39 58.3C173.743 58.3 174.06 58.2367 174.34 58.11C174.62 57.9767 174.857 57.79 175.05 57.55C175.25 57.31 175.403 57.02 175.51 56.68C175.617 56.3333 175.67 55.95 175.67 55.53C175.67 55.11 175.617 54.73 175.51 54.39C175.403 54.0433 175.25 53.75 175.05 53.51C174.857 53.27 174.62 53.0867 174.34 52.96C174.06 52.8267 173.743 52.76 173.39 52.76C173.037 52.76 172.717 52.8267 172.43 52.96C172.15 53.0867 171.91 53.27 171.71 53.51C171.517 53.75 171.367 54.0433 171.26 54.39C171.153 54.73 171.1 55.11 171.1 55.53ZM179.293 58.33C179.673 58.33 179.953 58.28 180.133 58.18C180.32 58.08 180.413 57.92 180.413 57.7C180.413 57.4733 180.323 57.2933 180.143 57.16C179.963 57.0267 179.667 56.8767 179.253 56.71C179.053 56.63 178.86 56.55 178.673 56.47C178.493 56.3833 178.337 56.2833 178.203 56.17C178.07 56.0567 177.963 55.92 177.883 55.76C177.803 55.6 177.763 55.4033 177.763 55.17C177.763 54.71 177.933 54.3467 178.273 54.08C178.613 53.8067 179.077 53.67 179.663 53.67C179.81 53.67 179.957 53.68 180.103 53.7C180.25 53.7133 180.387 53.7333 180.513 53.76C180.64 53.78 180.75 53.8033 180.843 53.83C180.943 53.8567 181.02 53.88 181.073 53.9L180.903 54.7C180.803 54.6467 180.647 54.5933 180.433 54.54C180.22 54.48 179.963 54.45 179.663 54.45C179.403 54.45 179.177 54.5033 178.983 54.61C178.79 54.71 178.693 54.87 178.693 55.09C178.693 55.2033 178.713 55.3033 178.753 55.39C178.8 55.4767 178.867 55.5567 178.953 55.63C179.047 55.6967 179.16 55.76 179.293 55.82C179.427 55.88 179.587 55.9433 179.773 56.01C180.02 56.1033 180.24 56.1967 180.433 56.29C180.627 56.3767 180.79 56.48 180.923 56.6C181.063 56.72 181.17 56.8667 181.243 57.04C181.317 57.2067 181.353 57.4133 181.353 57.66C181.353 58.14 181.173 58.5033 180.813 58.75C180.46 58.9967 179.953 59.12 179.293 59.12C178.833 59.12 178.473 59.08 178.213 59C177.953 58.9267 177.777 58.87 177.683 58.83L177.853 58.03C177.96 58.07 178.13 58.13 178.363 58.21C178.597 58.29 178.907 58.33 179.293 58.33ZM182.546 59V51.4L183.476 51.24V53.9C183.649 53.8333 183.833 53.7833 184.026 53.75C184.226 53.71 184.423 53.69 184.616 53.69C185.029 53.69 185.373 53.75 185.646 53.87C185.919 53.9833 186.136 54.1467 186.296 54.36C186.463 54.5667 186.579 54.8167 186.646 55.11C186.713 55.4033 186.746 55.7267 186.746 56.08V59H185.816V56.28C185.816 55.96 185.793 55.6867 185.746 55.46C185.706 55.2333 185.636 55.05 185.536 54.91C185.436 54.77 185.303 54.67 185.136 54.61C184.969 54.5433 184.763 54.51 184.516 54.51C184.416 54.51 184.313 54.5167 184.206 54.53C184.099 54.5433 183.996 54.56 183.896 54.58C183.803 54.5933 183.716 54.61 183.636 54.63C183.563 54.65 183.509 54.6667 183.476 54.68V59H182.546ZM192.849 56.4C192.849 56.8133 192.789 57.1867 192.669 57.52C192.549 57.8533 192.379 58.14 192.159 58.38C191.946 58.62 191.689 58.8067 191.389 58.94C191.089 59.0667 190.762 59.13 190.409 59.13C190.056 59.13 189.729 59.0667 189.429 58.94C189.129 58.8067 188.869 58.62 188.649 58.38C188.436 58.14 188.269 57.8533 188.149 57.52C188.029 57.1867 187.969 56.8133 187.969 56.4C187.969 55.9933 188.029 55.6233 188.149 55.29C188.269 54.95 188.436 54.66 188.649 54.42C188.869 54.18 189.129 53.9967 189.429 53.87C189.729 53.7367 190.056 53.67 190.409 53.67C190.762 53.67 191.089 53.7367 191.389 53.87C191.689 53.9967 191.946 54.18 192.159 54.42C192.379 54.66 192.549 54.95 192.669 55.29C192.789 55.6233 192.849 55.9933 192.849 56.4ZM191.879 56.4C191.879 55.8133 191.746 55.35 191.479 55.01C191.219 54.6633 190.862 54.49 190.409 54.49C189.956 54.49 189.596 54.6633 189.329 55.01C189.069 55.35 188.939 55.8133 188.939 56.4C188.939 56.9867 189.069 57.4533 189.329 57.8C189.596 58.14 189.956 58.31 190.409 58.31C190.862 58.31 191.219 58.14 191.479 57.8C191.746 57.4533 191.879 56.9867 191.879 56.4ZM197.517 54.9C197.404 54.8067 197.241 54.7167 197.027 54.63C196.814 54.5433 196.581 54.5 196.327 54.5C196.061 54.5 195.831 54.55 195.637 54.65C195.451 54.7433 195.297 54.8767 195.177 55.05C195.057 55.2167 194.971 55.4167 194.917 55.65C194.864 55.8833 194.837 56.1333 194.837 56.4C194.837 57.0067 194.987 57.4767 195.287 57.81C195.587 58.1367 195.987 58.3 196.487 58.3C196.741 58.3 196.951 58.29 197.117 58.27C197.291 58.2433 197.424 58.2167 197.517 58.19V54.9ZM197.517 51.4L198.447 51.24V58.85C198.234 58.91 197.961 58.97 197.627 59.03C197.294 59.09 196.911 59.12 196.477 59.12C196.077 59.12 195.717 59.0567 195.397 58.93C195.077 58.8033 194.804 58.6233 194.577 58.39C194.351 58.1567 194.174 57.8733 194.047 57.54C193.927 57.2 193.867 56.82 193.867 56.4C193.867 56 193.917 55.6333 194.017 55.3C194.124 54.9667 194.277 54.68 194.477 54.44C194.677 54.2 194.921 54.0133 195.207 53.88C195.501 53.7467 195.834 53.68 196.207 53.68C196.507 53.68 196.771 53.72 196.997 53.8C197.231 53.88 197.404 53.9567 197.517 54.03V51.4ZM200.976 59H200.046V53.8H200.976V59ZM200.506 52.86C200.339 52.86 200.196 52.8067 200.076 52.7C199.963 52.5867 199.906 52.4367 199.906 52.25C199.906 52.0633 199.963 51.9167 200.076 51.81C200.196 51.6967 200.339 51.64 200.506 51.64C200.673 51.64 200.813 51.6967 200.926 51.81C201.046 51.9167 201.106 52.0633 201.106 52.25C201.106 52.4367 201.046 52.5867 200.926 52.7C200.813 52.8067 200.673 52.86 200.506 52.86Z" fill="#3D0072"/>
<circle cx="265" cy="21" r="20.5" fill="white" stroke="#F3F4F6"/>
<path d="M258.562 16.9C259.862 16.9 260.854 17.1383 261.539 17.615C262.232 18.0917 262.579 18.8197 262.579 19.799C262.579 21.021 261.977 21.8487 260.772 22.282C260.937 22.4813 261.123 22.724 261.331 23.01C261.539 23.296 261.751 23.608 261.968 23.946C262.185 24.2753 262.393 24.6177 262.592 24.973C262.791 25.3197 262.969 25.662 263.125 26H261.292C261.127 25.688 260.95 25.376 260.759 25.064C260.568 24.7433 260.373 24.4357 260.174 24.141C259.983 23.8377 259.793 23.556 259.602 23.296C259.411 23.0273 259.234 22.789 259.069 22.581C258.948 22.5897 258.844 22.594 258.757 22.594C258.67 22.594 258.588 22.594 258.51 22.594H257.717V26H256.079V17.121C256.478 17.0343 256.902 16.978 257.353 16.952C257.804 16.9173 258.207 16.9 258.562 16.9ZM258.679 18.317C258.332 18.317 258.012 18.33 257.717 18.356V21.268H258.432C258.831 21.268 259.182 21.2463 259.485 21.203C259.788 21.1597 260.04 21.0817 260.239 20.969C260.447 20.8563 260.603 20.7047 260.707 20.514C260.811 20.3233 260.863 20.0807 260.863 19.786C260.863 19.5087 260.811 19.2747 260.707 19.084C260.603 18.8933 260.451 18.7417 260.252 18.629C260.061 18.5163 259.832 18.4383 259.563 18.395C259.294 18.343 259 18.317 258.679 18.317ZM265.619 21.489C265.619 21.983 265.68 22.4337 265.801 22.841C265.923 23.2397 266.096 23.582 266.321 23.868C266.555 24.1453 266.837 24.362 267.166 24.518C267.496 24.674 267.868 24.752 268.284 24.752C268.692 24.752 269.06 24.674 269.389 24.518C269.719 24.362 269.996 24.1453 270.221 23.868C270.455 23.582 270.633 23.2397 270.754 22.841C270.876 22.4337 270.936 21.983 270.936 21.489C270.936 20.995 270.876 20.5487 270.754 20.15C270.633 19.7427 270.455 19.4003 270.221 19.123C269.996 18.837 269.719 18.616 269.389 18.46C269.06 18.304 268.692 18.226 268.284 18.226C267.868 18.226 267.496 18.304 267.166 18.46C266.837 18.616 266.555 18.837 266.321 19.123C266.096 19.409 265.923 19.7513 265.801 20.15C265.68 20.5487 265.619 20.995 265.619 21.489ZM272.652 21.489C272.652 22.2603 272.535 22.9407 272.301 23.53C272.076 24.1193 271.764 24.6133 271.365 25.012C270.975 25.402 270.516 25.6967 269.987 25.896C269.459 26.0953 268.895 26.195 268.297 26.195C267.699 26.195 267.132 26.0953 266.594 25.896C266.066 25.6967 265.602 25.402 265.203 25.012C264.813 24.6133 264.501 24.1193 264.267 23.53C264.033 22.9407 263.916 22.2603 263.916 21.489C263.916 20.7177 264.033 20.0417 264.267 19.461C264.501 18.8717 264.818 18.3777 265.216 17.979C265.624 17.5803 266.092 17.2813 266.62 17.082C267.149 16.8827 267.708 16.783 268.297 16.783C268.887 16.783 269.446 16.8827 269.974 17.082C270.503 17.2813 270.962 17.5803 271.352 17.979C271.751 18.3777 272.067 18.8717 272.301 19.461C272.535 20.0417 272.652 20.7177 272.652 21.489Z" fill="#3D0072"/>
<path d="M241.25 56.1C241.357 56.2333 241.49 56.41 241.65 56.63C241.817 56.8433 241.987 57.0833 242.16 57.35C242.333 57.61 242.503 57.8833 242.67 58.17C242.843 58.4567 242.99 58.7333 243.11 59H242.05C241.917 58.7467 241.77 58.49 241.61 58.23C241.457 57.97 241.3 57.7233 241.14 57.49C240.98 57.25 240.82 57.0267 240.66 56.82C240.507 56.6133 240.367 56.4333 240.24 56.28C240.153 56.2867 240.063 56.29 239.97 56.29C239.883 56.29 239.793 56.29 239.7 56.29H238.83V59H237.86V52.17C238.133 52.1033 238.437 52.06 238.77 52.04C239.11 52.0133 239.42 52 239.7 52C240.673 52 241.413 52.1833 241.92 52.55C242.433 52.9167 242.69 53.4633 242.69 54.19C242.69 54.65 242.567 55.0433 242.32 55.37C242.08 55.6967 241.723 55.94 241.25 56.1ZM239.78 52.85C239.367 52.85 239.05 52.86 238.83 52.88V55.49H239.52C239.853 55.49 240.153 55.4733 240.42 55.44C240.687 55.4067 240.91 55.3433 241.09 55.25C241.277 55.1567 241.42 55.0267 241.52 54.86C241.62 54.6867 241.67 54.46 241.67 54.18C241.67 53.92 241.62 53.7033 241.52 53.53C241.42 53.3567 241.283 53.22 241.11 53.12C240.943 53.02 240.743 52.95 240.51 52.91C240.283 52.87 240.04 52.85 239.78 52.85ZM248.679 56.4C248.679 56.8133 248.619 57.1867 248.499 57.52C248.379 57.8533 248.209 58.14 247.989 58.38C247.776 58.62 247.519 58.8067 247.219 58.94C246.919 59.0667 246.592 59.13 246.239 59.13C245.886 59.13 245.559 59.0667 245.259 58.94C244.959 58.8067 244.699 58.62 244.479 58.38C244.266 58.14 244.099 57.8533 243.979 57.52C243.859 57.1867 243.799 56.8133 243.799 56.4C243.799 55.9933 243.859 55.6233 243.979 55.29C244.099 54.95 244.266 54.66 244.479 54.42C244.699 54.18 244.959 53.9967 245.259 53.87C245.559 53.7367 245.886 53.67 246.239 53.67C246.592 53.67 246.919 53.7367 247.219 53.87C247.519 53.9967 247.776 54.18 247.989 54.42C248.209 54.66 248.379 54.95 248.499 55.29C248.619 55.6233 248.679 55.9933 248.679 56.4ZM247.709 56.4C247.709 55.8133 247.576 55.35 247.309 55.01C247.049 54.6633 246.692 54.49 246.239 54.49C245.786 54.49 245.426 54.6633 245.159 55.01C244.899 55.35 244.769 55.8133 244.769 56.4C244.769 56.9867 244.899 57.4533 245.159 57.8C245.426 58.14 245.786 58.31 246.239 58.31C246.692 58.31 247.049 58.14 247.309 57.8C247.576 57.4533 247.709 56.9867 247.709 56.4ZM251.548 59.1C250.974 59.0867 250.568 58.9633 250.328 58.73C250.088 58.4967 249.968 58.1333 249.968 57.64V51.4L250.898 51.24V57.49C250.898 57.6433 250.911 57.77 250.938 57.87C250.964 57.97 251.008 58.05 251.068 58.11C251.128 58.17 251.208 58.2167 251.308 58.25C251.408 58.2767 251.531 58.3 251.678 58.32L251.548 59.1ZM254.482 58.33C254.702 58.33 254.895 58.3267 255.062 58.32C255.235 58.3067 255.379 58.2867 255.492 58.26V56.71C255.425 56.6767 255.315 56.65 255.162 56.63C255.015 56.6033 254.835 56.59 254.622 56.59C254.482 56.59 254.332 56.6 254.172 56.62C254.019 56.64 253.875 56.6833 253.742 56.75C253.615 56.81 253.509 56.8967 253.422 57.01C253.335 57.1167 253.292 57.26 253.292 57.44C253.292 57.7733 253.399 58.0067 253.612 58.14C253.825 58.2667 254.115 58.33 254.482 58.33ZM254.402 53.67C254.775 53.67 255.089 53.72 255.342 53.82C255.602 53.9133 255.809 54.05 255.962 54.23C256.122 54.4033 256.235 54.6133 256.302 54.86C256.369 55.1 256.402 55.3667 256.402 55.66V58.91C256.322 58.9233 256.209 58.9433 256.062 58.97C255.922 58.99 255.762 59.01 255.582 59.03C255.402 59.05 255.205 59.0667 254.992 59.08C254.785 59.1 254.579 59.11 254.372 59.11C254.079 59.11 253.809 59.08 253.562 59.02C253.315 58.96 253.102 58.8667 252.922 58.74C252.742 58.6067 252.602 58.4333 252.502 58.22C252.402 58.0067 252.352 57.75 252.352 57.45C252.352 57.1633 252.409 56.9167 252.522 56.71C252.642 56.5033 252.802 56.3367 253.002 56.21C253.202 56.0833 253.435 55.99 253.702 55.93C253.969 55.87 254.249 55.84 254.542 55.84C254.635 55.84 254.732 55.8467 254.832 55.86C254.932 55.8667 255.025 55.88 255.112 55.9C255.205 55.9133 255.285 55.9267 255.352 55.94C255.419 55.9533 255.465 55.9633 255.492 55.97V55.71C255.492 55.5567 255.475 55.4067 255.442 55.26C255.409 55.1067 255.349 54.9733 255.262 54.86C255.175 54.74 255.055 54.6467 254.902 54.58C254.755 54.5067 254.562 54.47 254.322 54.47C254.015 54.47 253.745 54.4933 253.512 54.54C253.285 54.58 253.115 54.6233 253.002 54.67L252.892 53.9C253.012 53.8467 253.212 53.7967 253.492 53.75C253.772 53.6967 254.075 53.67 254.402 53.67ZM258.816 53.8H260.786V54.58H258.816V56.98C258.816 57.24 258.836 57.4567 258.876 57.63C258.916 57.7967 258.976 57.93 259.056 58.03C259.136 58.1233 259.236 58.19 259.356 58.23C259.476 58.27 259.616 58.29 259.776 58.29C260.056 58.29 260.28 58.26 260.446 58.2C260.62 58.1333 260.74 58.0867 260.806 58.06L260.986 58.83C260.893 58.8767 260.73 58.9333 260.496 59C260.263 59.0733 259.996 59.11 259.696 59.11C259.343 59.11 259.05 59.0667 258.816 58.98C258.59 58.8867 258.406 58.75 258.266 58.57C258.126 58.39 258.026 58.17 257.966 57.91C257.913 57.6433 257.886 57.3367 257.886 56.99V52.35L258.816 52.19V53.8ZM268.974 59C268.861 58.7 268.754 58.4067 268.654 58.12C268.554 57.8267 268.451 57.53 268.344 57.23H265.204L264.574 59H263.564C263.831 58.2667 264.081 57.59 264.314 56.97C264.548 56.3433 264.774 55.75 264.994 55.19C265.221 54.63 265.444 54.0967 265.664 53.59C265.884 53.0767 266.114 52.57 266.354 52.07H267.244C267.484 52.57 267.714 53.0767 267.934 53.59C268.154 54.0967 268.374 54.63 268.594 55.19C268.821 55.75 269.051 56.3433 269.284 56.97C269.518 57.59 269.768 58.2667 270.034 59H268.974ZM268.064 56.43C267.851 55.85 267.638 55.29 267.424 54.75C267.218 54.2033 267.001 53.68 266.774 53.18C266.541 53.68 266.318 54.2033 266.104 54.75C265.898 55.29 265.691 55.85 265.484 56.43H268.064ZM271.845 54.03C271.959 53.9567 272.129 53.88 272.355 53.8C272.589 53.72 272.855 53.68 273.155 53.68C273.529 53.68 273.859 53.7467 274.145 53.88C274.439 54.0133 274.685 54.2 274.885 54.44C275.085 54.68 275.235 54.9667 275.335 55.3C275.442 55.6333 275.495 56 275.495 56.4C275.495 56.82 275.432 57.2 275.305 57.54C275.185 57.8733 275.012 58.1567 274.785 58.39C274.559 58.6233 274.285 58.8033 273.965 58.93C273.645 59.0567 273.285 59.12 272.885 59.12C272.452 59.12 272.069 59.09 271.735 59.03C271.402 58.97 271.129 58.91 270.915 58.85V51.4L271.845 51.24V54.03ZM271.845 58.19C271.939 58.2167 272.069 58.2433 272.235 58.27C272.409 58.29 272.622 58.3 272.875 58.3C273.375 58.3 273.775 58.1367 274.075 57.81C274.375 57.4767 274.525 57.0067 274.525 56.4C274.525 56.1333 274.499 55.8833 274.445 55.65C274.392 55.4167 274.305 55.2167 274.185 55.05C274.065 54.8767 273.909 54.7433 273.715 54.65C273.529 54.55 273.302 54.5 273.035 54.5C272.782 54.5 272.549 54.5433 272.335 54.63C272.122 54.7167 271.959 54.8067 271.845 54.9V58.19ZM277.734 59H276.804V53.8H277.734V59ZM277.264 52.86C277.097 52.86 276.954 52.8067 276.834 52.7C276.721 52.5867 276.664 52.4367 276.664 52.25C276.664 52.0633 276.721 51.9167 276.834 51.81C276.954 51.6967 277.097 51.64 277.264 51.64C277.431 51.64 277.571 51.6967 277.684 51.81C277.804 51.9167 277.864 52.0633 277.864 52.25C277.864 52.4367 277.804 52.5867 277.684 52.7C277.571 52.8067 277.431 52.86 277.264 52.86ZM283.923 56.4C283.923 56.8133 283.863 57.1867 283.743 57.52C283.623 57.8533 283.453 58.14 283.233 58.38C283.02 58.62 282.763 58.8067 282.463 58.94C282.163 59.0667 281.837 59.13 281.483 59.13C281.13 59.13 280.803 59.0667 280.503 58.94C280.203 58.8067 279.943 58.62 279.723 58.38C279.51 58.14 279.343 57.8533 279.223 57.52C279.103 57.1867 279.043 56.8133 279.043 56.4C279.043 55.9933 279.103 55.6233 279.223 55.29C279.343 54.95 279.51 54.66 279.723 54.42C279.943 54.18 280.203 53.9967 280.503 53.87C280.803 53.7367 281.13 53.67 281.483 53.67C281.837 53.67 282.163 53.7367 282.463 53.87C282.763 53.9967 283.02 54.18 283.233 54.42C283.453 54.66 283.623 54.95 283.743 55.29C283.863 55.6233 283.923 55.9933 283.923 56.4ZM282.953 56.4C282.953 55.8133 282.82 55.35 282.553 55.01C282.293 54.6633 281.937 54.49 281.483 54.49C281.03 54.49 280.67 54.6633 280.403 55.01C280.143 55.35 280.013 55.8133 280.013 56.4C280.013 56.9867 280.143 57.4533 280.403 57.8C280.67 58.14 281.03 58.31 281.483 58.31C281.937 58.31 282.293 58.14 282.553 57.8C282.82 57.4533 282.953 56.9867 282.953 56.4ZM286.792 59.1C286.218 59.0867 285.812 58.9633 285.572 58.73C285.332 58.4967 285.212 58.1333 285.212 57.64V51.4L286.142 51.24V57.49C286.142 57.6433 286.155 57.77 286.182 57.87C286.208 57.97 286.252 58.05 286.312 58.11C286.372 58.17 286.452 58.2167 286.552 58.25C286.652 58.2767 286.775 58.3 286.922 58.32L286.792 59.1ZM289.726 58.33C289.946 58.33 290.139 58.3267 290.306 58.32C290.479 58.3067 290.623 58.2867 290.736 58.26V56.71C290.669 56.6767 290.559 56.65 290.406 56.63C290.259 56.6033 290.079 56.59 289.866 56.59C289.726 56.59 289.576 56.6 289.416 56.62C289.263 56.64 289.119 56.6833 288.986 56.75C288.859 56.81 288.753 56.8967 288.666 57.01C288.579 57.1167 288.536 57.26 288.536 57.44C288.536 57.7733 288.643 58.0067 288.856 58.14C289.069 58.2667 289.359 58.33 289.726 58.33ZM289.646 53.67C290.019 53.67 290.333 53.72 290.586 53.82C290.846 53.9133 291.053 54.05 291.206 54.23C291.366 54.4033 291.479 54.6133 291.546 54.86C291.613 55.1 291.646 55.3667 291.646 55.66V58.91C291.566 58.9233 291.453 58.9433 291.306 58.97C291.166 58.99 291.006 59.01 290.826 59.03C290.646 59.05 290.449 59.0667 290.236 59.08C290.029 59.1 289.823 59.11 289.616 59.11C289.323 59.11 289.053 59.08 288.806 59.02C288.559 58.96 288.346 58.8667 288.166 58.74C287.986 58.6067 287.846 58.4333 287.746 58.22C287.646 58.0067 287.596 57.75 287.596 57.45C287.596 57.1633 287.653 56.9167 287.766 56.71C287.886 56.5033 288.046 56.3367 288.246 56.21C288.446 56.0833 288.679 55.99 288.946 55.93C289.213 55.87 289.493 55.84 289.786 55.84C289.879 55.84 289.976 55.8467 290.076 55.86C290.176 55.8667 290.269 55.88 290.356 55.9C290.449 55.9133 290.529 55.9267 290.596 55.94C290.663 55.9533 290.709 55.9633 290.736 55.97V55.71C290.736 55.5567 290.719 55.4067 290.686 55.26C290.653 55.1067 290.593 54.9733 290.506 54.86C290.419 54.74 290.299 54.6467 290.146 54.58C289.999 54.5067 289.806 54.47 289.566 54.47C289.259 54.47 288.989 54.4933 288.756 54.54C288.529 54.58 288.359 54.6233 288.246 54.67L288.136 53.9C288.256 53.8467 288.456 53.7967 288.736 53.75C289.016 53.6967 289.319 53.67 289.646 53.67Z" fill="#3D0072"/>
</svg>
