<svg width="1209" height="475" viewBox="0 0 1209 475" fill="none" xmlns="http://www.w3.org/2000/svg">
<g clip-path="url(#clip0_5043_92272)">
<path d="M0 17C0 5.95432 8.9543 -3 20 -3H1195C1206.05 -3 1215 5.95431 1215 17V475H0V17Z" fill="#F3E6FE"/>
<circle cx="388.5" cy="217.5" r="121.5" fill="#F8F0FF"/>
<path d="M1089.66 218.688C1069.42 251.849 1061.97 291.252 1068.69 329.516C1075.41 367.781 1095.85 402.282 1126.18 426.558C1156.52 450.835 1194.66 463.222 1233.47 461.399C1272.27 459.576 1309.08 443.668 1337.01 416.655C1364.93 389.642 1382.05 353.377 1385.15 314.651C1388.26 275.925 1377.14 237.395 1353.88 206.276C1330.62 175.158 1296.82 153.586 1258.8 145.601C1220.78 137.615 1181.15 143.764 1147.33 162.895L1185.4 230.167C1202.84 220.295 1223.29 217.122 1242.91 221.243C1262.53 225.363 1279.97 236.494 1291.97 252.551C1303.97 268.608 1309.71 288.489 1308.11 308.471C1306.5 328.453 1297.67 347.166 1283.26 361.104C1268.86 375.043 1249.86 383.251 1229.84 384.191C1209.81 385.132 1190.13 378.74 1174.48 366.214C1158.83 353.688 1148.28 335.885 1144.82 316.141C1141.35 296.397 1145.19 276.066 1155.64 258.955L1089.66 218.688Z" fill="#F8F0FF"/>
<path d="M466.363 153.012C469.141 157.678 472.215 162.841 472.215 162.841" stroke="#F5A3BD" stroke-width="1.45961" stroke-linecap="round"/>
<path d="M487.791 120.507C493.054 121.842 498.879 123.319 498.879 123.319" stroke="#F5A3BD" stroke-width="1.45961" stroke-linecap="round"/>
<path d="M479.956 82.3798C484.622 79.6021 489.785 76.5278 489.785 76.5278" stroke="#F5A3BD" stroke-width="1.45961" stroke-linecap="round"/>
<path d="M447.465 60.9709C448.8 55.7079 450.277 49.8828 450.277 49.8828" stroke="#F5A3BD" stroke-width="1.45961" stroke-linecap="round"/>
<path d="M409.344 68.8041C406.566 64.1387 403.492 58.9751 403.492 58.9751" stroke="#F5A3BD" stroke-width="1.45961" stroke-linecap="round"/>
<path d="M387.92 101.296C382.657 99.9608 376.832 98.4834 376.832 98.4834" stroke="#F5A3BD" stroke-width="1.45961" stroke-linecap="round"/>
<path d="M395.751 139.428C391.085 142.205 385.922 145.28 385.922 145.28" stroke="#F5A3BD" stroke-width="1.45961" stroke-linecap="round"/>
<path d="M428.246 160.83C426.911 166.093 425.434 171.918 425.434 171.918" stroke="#F5A3BD" stroke-width="1.45961" stroke-linecap="round"/>
<path d="M466.363 153.012C469.141 157.678 472.215 162.841 472.215 162.841" stroke="#F5A3BD" stroke-width="1.45961" stroke-linecap="round"/>
<path d="M487.791 120.507C493.054 121.842 498.879 123.319 498.879 123.319" stroke="#F5A3BD" stroke-width="1.45961" stroke-linecap="round"/>
<path d="M167.09 312.859C169.041 316.134 171.199 319.76 171.199 319.76" stroke="#F5A3BD" stroke-width="1.02484" stroke-linecap="round"/>
<path d="M182.129 290.038C185.824 290.975 189.914 292.013 189.914 292.013" stroke="#F5A3BD" stroke-width="1.02484" stroke-linecap="round"/>
<path d="M176.634 263.277C179.91 261.327 183.535 259.168 183.535 259.168" stroke="#F5A3BD" stroke-width="1.02484" stroke-linecap="round"/>
<path d="M153.826 248.231C154.763 244.535 155.801 240.445 155.801 240.445" stroke="#F5A3BD" stroke-width="1.02484" stroke-linecap="round"/>
<path d="M127.05 253.74C125.1 250.464 122.941 246.839 122.941 246.839" stroke="#F5A3BD" stroke-width="1.02484" stroke-linecap="round"/>
<path d="M112.008 276.554C108.313 275.616 104.223 274.579 104.223 274.579" stroke="#F5A3BD" stroke-width="1.02484" stroke-linecap="round"/>
<path d="M117.503 303.315C114.227 305.265 110.602 307.423 110.602 307.423" stroke="#F5A3BD" stroke-width="1.02484" stroke-linecap="round"/>
<path d="M140.318 318.35C139.381 322.045 138.344 326.135 138.344 326.135" stroke="#F5A3BD" stroke-width="1.02484" stroke-linecap="round"/>
<path d="M167.09 312.859C169.041 316.134 171.199 319.76 171.199 319.76" stroke="#F5A3BD" stroke-width="1.02484" stroke-linecap="round"/>
<path d="M182.129 290.038C185.824 290.975 189.914 292.013 189.914 292.013" stroke="#F5A3BD" stroke-width="1.02484" stroke-linecap="round"/>
<path d="M453.562 113.474C451.624 121.117 443.846 125.748 436.203 123.81C428.561 121.871 423.93 114.093 425.868 106.451C427.807 98.8085 435.585 94.1773 443.227 96.1155C450.869 98.0538 455.501 105.832 453.562 113.474Z" stroke="#F5A3BD" stroke-width="1.70286"/>
<path d="M157.952 285.551C156.66 290.645 151.474 293.733 146.379 292.441C141.284 291.149 138.197 285.963 139.489 280.868C140.781 275.773 145.967 272.686 151.062 273.978C156.156 275.27 159.244 280.456 157.952 285.551Z" stroke="#F5A3BD" stroke-width="1.13524"/>
<path d="M1084.81 128.18L1071.1 111.99L1087.29 98.2743L1101 114.464L1084.81 128.18Z" stroke="#FAD1DE" stroke-width="4.83161"/>
</g>
<defs>
<clipPath id="clip0_5043_92272">
<rect width="1209" height="475" rx="10" fill="white"/>
</clipPath>
</defs>
</svg>
