<svg width="630" height="206" viewBox="0 0 630 206" fill="none" xmlns="http://www.w3.org/2000/svg">
<g clip-path="url(#clip0_1813_15122)">
<g clip-path="url(#clip1_1813_15122)">
<rect width="630" height="206" rx="10" fill="#F9F9F9"/>
<path d="M36.604 26.142C36.604 26.674 36.6693 27.1593 36.8 27.598C36.9307 28.0273 37.1173 28.396 37.36 28.704C37.612 29.0027 37.9153 29.236 38.27 29.404C38.6247 29.572 39.026 29.656 39.474 29.656C39.9127 29.656 40.3093 29.572 40.664 29.404C41.0187 29.236 41.3173 29.0027 41.56 28.704C41.812 28.396 42.0033 28.0273 42.134 27.598C42.2647 27.1593 42.33 26.674 42.33 26.142C42.33 25.61 42.2647 25.1293 42.134 24.7C42.0033 24.2613 41.812 23.8927 41.56 23.594C41.3173 23.286 41.0187 23.048 40.664 22.88C40.3093 22.712 39.9127 22.628 39.474 22.628C39.026 22.628 38.6247 22.712 38.27 22.88C37.9153 23.048 37.612 23.286 37.36 23.594C37.1173 23.902 36.9307 24.2707 36.8 24.7C36.6693 25.1293 36.604 25.61 36.604 26.142ZM44.178 26.142C44.178 26.9727 44.052 27.7053 43.8 28.34C43.5573 28.9747 43.2213 29.5067 42.792 29.936C42.372 30.356 41.8773 30.6733 41.308 30.888C40.7387 31.1027 40.132 31.21 39.488 31.21C38.844 31.21 38.2327 31.1027 37.654 30.888C37.0847 30.6733 36.5853 30.356 36.156 29.936C35.736 29.5067 35.4 28.9747 35.148 28.34C34.896 27.7053 34.77 26.9727 34.77 26.142C34.77 25.3113 34.896 24.5833 35.148 23.958C35.4 23.3233 35.7407 22.7913 36.17 22.362C36.6087 21.9327 37.1127 21.6107 37.682 21.396C38.2513 21.1813 38.8533 21.074 39.488 21.074C40.1227 21.074 40.7247 21.1813 41.294 21.396C41.8633 21.6107 42.358 21.9327 42.778 22.362C43.2073 22.7913 43.548 23.3233 43.8 23.958C44.052 24.5833 44.178 25.3113 44.178 26.142ZM47.9052 31C47.4385 30.0387 46.9578 28.9373 46.4632 27.696C45.9778 26.4453 45.5345 25.106 45.1332 23.678H46.9392C47.0418 24.0887 47.1585 24.532 47.2892 25.008C47.4292 25.4747 47.5738 25.946 47.7232 26.422C47.8818 26.8887 48.0405 27.346 48.1992 27.794C48.3672 28.2327 48.5212 28.6293 48.6612 28.984C48.8012 28.6293 48.9505 28.2327 49.1092 27.794C49.2678 27.346 49.4218 26.8887 49.5712 26.422C49.7298 25.946 49.8792 25.4747 50.0192 25.008C50.1592 24.532 50.2805 24.0887 50.3832 23.678H52.1332C51.7318 25.106 51.2838 26.4453 50.7892 27.696C50.3038 28.9373 49.8278 30.0387 49.3612 31H47.9052ZM52.8283 27.374C52.8283 26.73 52.9216 26.1653 53.1083 25.68C53.3043 25.1947 53.5609 24.7933 53.8783 24.476C54.1956 24.1493 54.5596 23.9067 54.9703 23.748C55.3809 23.58 55.8009 23.496 56.2303 23.496C57.2383 23.496 58.0223 23.8087 58.5823 24.434C59.1516 25.0593 59.4363 25.9927 59.4363 27.234C59.4363 27.3273 59.4316 27.4347 59.4223 27.556C59.4223 27.668 59.4176 27.7707 59.4083 27.864H54.5783C54.6249 28.452 54.8303 28.9093 55.1943 29.236C55.5676 29.5533 56.1043 29.712 56.8043 29.712C57.2149 29.712 57.5883 29.6747 57.9243 29.6C58.2696 29.5253 58.5403 29.446 58.7363 29.362L58.9603 30.748C58.8669 30.7947 58.7363 30.846 58.5683 30.902C58.4096 30.9487 58.2229 30.9907 58.0083 31.028C57.8029 31.0747 57.5789 31.112 57.3363 31.14C57.0936 31.168 56.8463 31.182 56.5943 31.182C55.9503 31.182 55.3903 31.0887 54.9143 30.902C54.4383 30.706 54.0463 30.44 53.7383 30.104C53.4303 29.7587 53.2016 29.3573 53.0523 28.9C52.9029 28.4333 52.8283 27.9247 52.8283 27.374ZM57.7423 26.618C57.7423 26.3847 57.7096 26.1653 57.6443 25.96C57.5789 25.7453 57.4809 25.5633 57.3503 25.414C57.2289 25.2553 57.0749 25.134 56.8883 25.05C56.7109 24.9567 56.4963 24.91 56.2443 24.91C55.9829 24.91 55.7543 24.9613 55.5583 25.064C55.3623 25.1573 55.1943 25.2833 55.0543 25.442C54.9236 25.6007 54.8209 25.7827 54.7463 25.988C54.6716 26.1933 54.6203 26.4033 54.5923 26.618H57.7423ZM65.4043 25.204C65.2643 25.1573 65.0683 25.1107 64.8163 25.064C64.5736 25.008 64.289 24.98 63.9623 24.98C63.7756 24.98 63.575 24.9987 63.3603 25.036C63.155 25.0733 63.0103 25.106 62.9263 25.134V31H61.2323V24.028C61.559 23.9067 61.965 23.7947 62.4503 23.692C62.945 23.58 63.491 23.524 64.0883 23.524C64.2003 23.524 64.331 23.5333 64.4803 23.552C64.6296 23.5613 64.779 23.58 64.9283 23.608C65.0776 23.6267 65.2223 23.6547 65.3623 23.692C65.5023 23.72 65.6143 23.748 65.6983 23.776L65.4043 25.204ZM69.0009 31C68.5342 30.0387 68.0535 28.9373 67.5589 27.696C67.0735 26.4453 66.6302 25.106 66.2289 23.678H68.0349C68.1375 24.0887 68.2542 24.532 68.3849 25.008C68.5249 25.4747 68.6695 25.946 68.8189 26.422C68.9775 26.8887 69.1362 27.346 69.2949 27.794C69.4629 28.2327 69.6169 28.6293 69.7569 28.984C69.8969 28.6293 70.0462 28.2327 70.2049 27.794C70.3635 27.346 70.5175 26.8887 70.6669 26.422C70.8255 25.946 70.9749 25.4747 71.1149 25.008C71.2549 24.532 71.3762 24.0887 71.4789 23.678H73.2289C72.8275 25.106 72.3795 26.4453 71.8849 27.696C71.3995 28.9373 70.9235 30.0387 70.4569 31H69.0009ZM76.202 31H74.508V23.678H76.202V31ZM76.384 21.536C76.384 21.8533 76.2813 22.1053 76.076 22.292C75.8707 22.4787 75.628 22.572 75.348 22.572C75.0587 22.572 74.8113 22.4787 74.606 22.292C74.4007 22.1053 74.298 21.8533 74.298 21.536C74.298 21.2093 74.4007 20.9527 74.606 20.766C74.8113 20.5793 75.0587 20.486 75.348 20.486C75.628 20.486 75.8707 20.5793 76.076 20.766C76.2813 20.9527 76.384 21.2093 76.384 21.536ZM77.9572 27.374C77.9572 26.73 78.0505 26.1653 78.2372 25.68C78.4332 25.1947 78.6898 24.7933 79.0072 24.476C79.3245 24.1493 79.6885 23.9067 80.0992 23.748C80.5098 23.58 80.9298 23.496 81.3592 23.496C82.3672 23.496 83.1512 23.8087 83.7112 24.434C84.2805 25.0593 84.5652 25.9927 84.5652 27.234C84.5652 27.3273 84.5605 27.4347 84.5512 27.556C84.5512 27.668 84.5465 27.7707 84.5372 27.864H79.7072C79.7538 28.452 79.9592 28.9093 80.3232 29.236C80.6965 29.5533 81.2332 29.712 81.9332 29.712C82.3438 29.712 82.7172 29.6747 83.0532 29.6C83.3985 29.5253 83.6692 29.446 83.8652 29.362L84.0892 30.748C83.9958 30.7947 83.8652 30.846 83.6972 30.902C83.5385 30.9487 83.3518 30.9907 83.1372 31.028C82.9318 31.0747 82.7078 31.112 82.4652 31.14C82.2225 31.168 81.9752 31.182 81.7232 31.182C81.0792 31.182 80.5192 31.0887 80.0432 30.902C79.5672 30.706 79.1752 30.44 78.8672 30.104C78.5592 29.7587 78.3305 29.3573 78.1812 28.9C78.0318 28.4333 77.9572 27.9247 77.9572 27.374ZM82.8712 26.618C82.8712 26.3847 82.8385 26.1653 82.7732 25.96C82.7078 25.7453 82.6098 25.5633 82.4792 25.414C82.3578 25.2553 82.2038 25.134 82.0172 25.05C81.8398 24.9567 81.6252 24.91 81.3732 24.91C81.1118 24.91 80.8832 24.9613 80.6872 25.064C80.4912 25.1573 80.3232 25.2833 80.1832 25.442C80.0525 25.6007 79.9498 25.7827 79.8752 25.988C79.8005 26.1933 79.7492 26.4033 79.7212 26.618H82.8712ZM90.7292 26.394C90.5145 27.2153 90.2812 28.018 90.0292 28.802C89.7865 29.5767 89.5439 30.3093 89.3012 31H87.9152C87.7285 30.5707 87.5325 30.0807 87.3272 29.53C87.1219 28.9793 86.9165 28.3913 86.7112 27.766C86.5059 27.1407 86.3005 26.4827 86.0952 25.792C85.8899 25.1013 85.6892 24.3967 85.4932 23.678H87.2852C87.3692 24.07 87.4672 24.4947 87.5792 24.952C87.6912 25.4 87.8079 25.862 87.9292 26.338C88.0505 26.8047 88.1765 27.262 88.3072 27.71C88.4379 28.158 88.5685 28.5687 88.6992 28.942C88.8392 28.5127 88.9745 28.0693 89.1052 27.612C89.2452 27.1547 89.3759 26.6973 89.4972 26.24C89.6185 25.7827 89.7305 25.3393 89.8332 24.91C89.9452 24.4713 90.0432 24.0607 90.1272 23.678H91.4292C91.5132 24.0607 91.6065 24.4713 91.7092 24.91C91.8119 25.3393 91.9192 25.7827 92.0312 26.24C92.1525 26.6973 92.2785 27.1547 92.4092 27.612C92.5492 28.0693 92.6892 28.5127 92.8292 28.942C92.9505 28.5687 93.0765 28.158 93.2072 27.71C93.3379 27.262 93.4639 26.8047 93.5852 26.338C93.7159 25.862 93.8372 25.4 93.9492 24.952C94.0612 24.4947 94.1592 24.07 94.2432 23.678H95.9932C95.7972 24.3967 95.5965 25.1013 95.3912 25.792C95.1859 26.4827 94.9805 27.1407 94.7752 27.766C94.5699 28.3913 94.3645 28.9793 94.1592 29.53C93.9539 30.0807 93.7532 30.5707 93.5572 31H92.1852C91.9425 30.3093 91.6905 29.5767 91.4292 28.802C91.1772 28.018 90.9439 27.2153 90.7292 26.394Z" fill="#3D0072"/>
<path d="M43.81 56C43.006 54.572 42.136 53.162 41.2 51.77C40.264 50.378 39.268 49.064 38.212 47.828V56H35.44V43.526H37.726C38.122 43.922 38.56 44.408 39.04 44.984C39.52 45.56 40.006 46.178 40.498 46.838C41.002 47.486 41.5 48.164 41.992 48.872C42.484 49.568 42.946 50.24 43.378 50.888V43.526H46.168V56H43.81ZM55.1295 45.686C53.8215 45.686 52.8735 46.052 52.2855 46.784C51.7095 47.504 51.4215 48.494 51.4215 49.754C51.4215 50.366 51.4935 50.924 51.6375 51.428C51.7815 51.92 51.9975 52.346 52.2855 52.706C52.5735 53.066 52.9335 53.348 53.3655 53.552C53.7975 53.744 54.3015 53.84 54.8775 53.84C55.1895 53.84 55.4535 53.834 55.6695 53.822C55.8975 53.81 56.0955 53.786 56.2635 53.75V49.412H59.0715V55.586C58.7355 55.718 58.1955 55.856 57.4515 56C56.7075 56.156 55.7895 56.234 54.6975 56.234C53.7615 56.234 52.9095 56.09 52.1415 55.802C51.3855 55.514 50.7375 55.094 50.1975 54.542C49.6575 53.99 49.2375 53.312 48.9375 52.508C48.6495 51.704 48.5055 50.786 48.5055 49.754C48.5055 48.71 48.6675 47.786 48.9915 46.982C49.3155 46.178 49.7595 45.5 50.3235 44.948C50.8875 44.384 51.5475 43.958 52.3035 43.67C53.0715 43.382 53.8875 43.238 54.7515 43.238C55.3395 43.238 55.8675 43.28 56.3355 43.364C56.8155 43.436 57.2235 43.526 57.5595 43.634C57.9075 43.73 58.1895 43.832 58.4055 43.94C58.6335 44.048 58.7955 44.132 58.8915 44.192L58.0815 46.442C57.6975 46.238 57.2535 46.064 56.7495 45.92C56.2575 45.764 55.7175 45.686 55.1295 45.686ZM70.0541 56C69.2501 54.572 68.3801 53.162 67.4441 51.77C66.5081 50.378 65.5121 49.064 64.4561 47.828V56H61.6841V43.526H63.9701C64.3661 43.922 64.8041 44.408 65.2841 44.984C65.7641 45.56 66.2501 46.178 66.7421 46.838C67.2461 47.486 67.7441 48.164 68.2361 48.872C68.7281 49.568 69.1901 50.24 69.6221 50.888V43.526H72.4121V56H70.0541ZM83.9158 46.802C83.4478 47.414 82.9498 48.08 82.4218 48.8C81.8938 49.52 81.4498 50.258 81.0898 51.014H83.9158V46.802ZM86.5438 43.526V51.014H87.8758V53.21H86.5438V56H83.9158V53.21H78.5338V51.248C78.7978 50.72 79.1278 50.126 79.5238 49.466C79.9198 48.794 80.3578 48.11 80.8378 47.414C81.3298 46.706 81.8458 46.016 82.3858 45.344C82.9258 44.672 83.4658 44.066 84.0058 43.526H86.5438ZM97.3323 46.802C97.3323 47.258 97.2423 47.696 97.0623 48.116C96.8823 48.536 96.6483 48.944 96.3603 49.34C96.0723 49.724 95.7483 50.096 95.3883 50.456C95.0283 50.816 94.6743 51.158 94.3263 51.482C94.1463 51.65 93.9483 51.842 93.7323 52.058C93.5283 52.262 93.3303 52.472 93.1383 52.688C92.9463 52.904 92.7723 53.108 92.6163 53.3C92.4723 53.48 92.3823 53.63 92.3463 53.75H97.7103V56H89.3943C89.3703 55.868 89.3583 55.7 89.3583 55.496C89.3583 55.292 89.3583 55.148 89.3583 55.064C89.3583 54.488 89.4483 53.96 89.6283 53.48C89.8203 53 90.0663 52.556 90.3663 52.148C90.6663 51.728 91.0023 51.338 91.3743 50.978C91.7583 50.618 92.1363 50.258 92.5083 49.898C92.7963 49.622 93.0663 49.364 93.3183 49.124C93.5703 48.872 93.7923 48.632 93.9843 48.404C94.1763 48.164 94.3263 47.93 94.4343 47.702C94.5423 47.462 94.5963 47.222 94.5963 46.982C94.5963 46.454 94.4463 46.082 94.1463 45.866C93.8463 45.65 93.4743 45.542 93.0303 45.542C92.7063 45.542 92.4003 45.596 92.1123 45.704C91.8363 45.8 91.5783 45.92 91.3383 46.064C91.1103 46.196 90.9123 46.334 90.7443 46.478C90.5763 46.61 90.4503 46.718 90.3663 46.802L89.0343 44.93C89.5623 44.438 90.1743 44.036 90.8703 43.724C91.5783 43.4 92.3343 43.238 93.1383 43.238C93.8703 43.238 94.5003 43.322 95.0283 43.49C95.5563 43.658 95.9883 43.898 96.3243 44.21C96.6723 44.51 96.9243 44.882 97.0803 45.326C97.2483 45.758 97.3323 46.25 97.3323 46.802ZM108.247 49.736C108.247 51.836 107.845 53.45 107.041 54.578C106.249 55.694 105.151 56.252 103.747 56.252C102.343 56.252 101.239 55.694 100.435 54.578C99.6428 53.45 99.2468 51.836 99.2468 49.736C99.2468 48.692 99.3488 47.768 99.5528 46.964C99.7688 46.16 100.075 45.482 100.471 44.93C100.867 44.378 101.341 43.958 101.893 43.67C102.445 43.382 103.063 43.238 103.747 43.238C105.151 43.238 106.249 43.802 107.041 44.93C107.845 46.046 108.247 47.648 108.247 49.736ZM105.511 49.736C105.511 49.112 105.481 48.548 105.421 48.044C105.361 47.528 105.265 47.084 105.133 46.712C105.001 46.34 104.821 46.052 104.593 45.848C104.365 45.644 104.083 45.542 103.747 45.542C103.411 45.542 103.129 45.644 102.901 45.848C102.685 46.052 102.505 46.34 102.361 46.712C102.229 47.084 102.133 47.528 102.073 48.044C102.013 48.548 101.983 49.112 101.983 49.736C101.983 50.36 102.013 50.93 102.073 51.446C102.133 51.962 102.229 52.406 102.361 52.778C102.505 53.15 102.685 53.438 102.901 53.642C103.129 53.846 103.411 53.948 103.747 53.948C104.083 53.948 104.365 53.846 104.593 53.642C104.821 53.438 105.001 53.15 105.133 52.778C105.265 52.406 105.361 51.962 105.421 51.446C105.481 50.93 105.511 50.36 105.511 49.736ZM112.663 53.264C112.687 53.552 112.699 53.756 112.699 53.876C112.711 53.996 112.717 54.098 112.717 54.182C112.717 54.542 112.681 54.926 112.609 55.334C112.549 55.73 112.459 56.132 112.339 56.54C112.219 56.948 112.069 57.356 111.889 57.764C111.709 58.172 111.505 58.562 111.277 58.934L109.171 58.412C109.447 57.62 109.639 56.876 109.747 56.18C109.855 55.484 109.909 54.908 109.909 54.452C109.909 54.38 109.903 54.29 109.891 54.182C109.891 54.062 109.885 53.942 109.873 53.822C109.873 53.702 109.867 53.588 109.855 53.48C109.855 53.372 109.855 53.3 109.855 53.264H112.663ZM122.907 49.736C122.907 51.836 122.505 53.45 121.701 54.578C120.909 55.694 119.811 56.252 118.407 56.252C117.003 56.252 115.899 55.694 115.095 54.578C114.303 53.45 113.907 51.836 113.907 49.736C113.907 48.692 114.009 47.768 114.213 46.964C114.429 46.16 114.735 45.482 115.131 44.93C115.527 44.378 116.001 43.958 116.553 43.67C117.105 43.382 117.723 43.238 118.407 43.238C119.811 43.238 120.909 43.802 121.701 44.93C122.505 46.046 122.907 47.648 122.907 49.736ZM120.171 49.736C120.171 49.112 120.141 48.548 120.081 48.044C120.021 47.528 119.925 47.084 119.793 46.712C119.661 46.34 119.481 46.052 119.253 45.848C119.025 45.644 118.743 45.542 118.407 45.542C118.071 45.542 117.789 45.644 117.561 45.848C117.345 46.052 117.165 46.34 117.021 46.712C116.889 47.084 116.793 47.528 116.733 48.044C116.673 48.548 116.643 49.112 116.643 49.736C116.643 50.36 116.673 50.93 116.733 51.446C116.793 51.962 116.889 52.406 117.021 52.778C117.165 53.15 117.345 53.438 117.561 53.642C117.789 53.846 118.071 53.948 118.407 53.948C118.743 53.948 119.025 53.846 119.253 53.642C119.481 53.438 119.661 53.15 119.793 52.778C119.925 52.406 120.021 51.962 120.081 51.446C120.141 50.93 120.171 50.36 120.171 49.736ZM133.137 49.736C133.137 51.836 132.735 53.45 131.931 54.578C131.139 55.694 130.041 56.252 128.637 56.252C127.233 56.252 126.129 55.694 125.325 54.578C124.533 53.45 124.137 51.836 124.137 49.736C124.137 48.692 124.239 47.768 124.443 46.964C124.659 46.16 124.965 45.482 125.361 44.93C125.757 44.378 126.231 43.958 126.783 43.67C127.335 43.382 127.953 43.238 128.637 43.238C130.041 43.238 131.139 43.802 131.931 44.93C132.735 46.046 133.137 47.648 133.137 49.736ZM130.401 49.736C130.401 49.112 130.371 48.548 130.311 48.044C130.251 47.528 130.155 47.084 130.023 46.712C129.891 46.34 129.711 46.052 129.483 45.848C129.255 45.644 128.973 45.542 128.637 45.542C128.301 45.542 128.019 45.644 127.791 45.848C127.575 46.052 127.395 46.34 127.251 46.712C127.119 47.084 127.023 47.528 126.963 48.044C126.903 48.548 126.873 49.112 126.873 49.736C126.873 50.36 126.903 50.93 126.963 51.446C127.023 51.962 127.119 52.406 127.251 52.778C127.395 53.15 127.575 53.438 127.791 53.642C128.019 53.846 128.301 53.948 128.637 53.948C128.973 53.948 129.255 53.846 129.483 53.642C129.711 53.438 129.891 53.15 130.023 52.778C130.155 52.406 130.251 51.962 130.311 51.446C130.371 50.93 130.401 50.36 130.401 49.736ZM143.368 49.736C143.368 51.836 142.966 53.45 142.162 54.578C141.37 55.694 140.272 56.252 138.868 56.252C137.464 56.252 136.36 55.694 135.556 54.578C134.764 53.45 134.368 51.836 134.368 49.736C134.368 48.692 134.47 47.768 134.674 46.964C134.89 46.16 135.196 45.482 135.592 44.93C135.988 44.378 136.462 43.958 137.014 43.67C137.566 43.382 138.184 43.238 138.868 43.238C140.272 43.238 141.37 43.802 142.162 44.93C142.966 46.046 143.368 47.648 143.368 49.736ZM140.632 49.736C140.632 49.112 140.602 48.548 140.542 48.044C140.482 47.528 140.386 47.084 140.254 46.712C140.122 46.34 139.942 46.052 139.714 45.848C139.486 45.644 139.204 45.542 138.868 45.542C138.532 45.542 138.25 45.644 138.022 45.848C137.806 46.052 137.626 46.34 137.482 46.712C137.35 47.084 137.254 47.528 137.194 48.044C137.134 48.548 137.104 49.112 137.104 49.736C137.104 50.36 137.134 50.93 137.194 51.446C137.254 51.962 137.35 52.406 137.482 52.778C137.626 53.15 137.806 53.438 138.022 53.642C138.25 53.846 138.532 53.948 138.868 53.948C139.204 53.948 139.486 53.846 139.714 53.642C139.942 53.438 140.122 53.15 140.254 52.778C140.386 52.406 140.482 51.962 140.542 51.446C140.602 50.93 140.632 50.36 140.632 49.736Z" fill="#3D0072"/>
<circle cx="275" cy="37" r="7" fill="#FFC727"/>
<path d="M288.996 41V32.684H294.336V33.968H290.508V36.02H293.916V37.28H290.508V39.716H294.624V41H288.996ZM298.163 39.98C298.611 39.98 298.951 39.956 299.183 39.908V38.3C299.103 38.276 298.987 38.252 298.835 38.228C298.683 38.204 298.515 38.192 298.331 38.192C298.171 38.192 298.007 38.204 297.839 38.228C297.679 38.252 297.531 38.296 297.395 38.36C297.267 38.424 297.163 38.516 297.083 38.636C297.003 38.748 296.963 38.892 296.963 39.068C296.963 39.412 297.071 39.652 297.287 39.788C297.503 39.916 297.795 39.98 298.163 39.98ZM298.043 34.568C298.523 34.568 298.927 34.628 299.255 34.748C299.583 34.868 299.843 35.036 300.035 35.252C300.235 35.468 300.375 35.732 300.455 36.044C300.543 36.348 300.587 36.684 300.587 37.052V40.856C300.363 40.904 300.023 40.96 299.567 41.024C299.119 41.096 298.611 41.132 298.043 41.132C297.667 41.132 297.323 41.096 297.011 41.024C296.699 40.952 296.431 40.836 296.207 40.676C295.991 40.516 295.819 40.308 295.691 40.052C295.571 39.796 295.511 39.48 295.511 39.104C295.511 38.744 295.579 38.44 295.715 38.192C295.859 37.944 296.051 37.744 296.291 37.592C296.531 37.432 296.807 37.32 297.119 37.256C297.439 37.184 297.771 37.148 298.115 37.148C298.275 37.148 298.443 37.16 298.619 37.184C298.795 37.2 298.983 37.232 299.183 37.28V37.04C299.183 36.872 299.163 36.712 299.123 36.56C299.083 36.408 299.011 36.276 298.907 36.164C298.811 36.044 298.679 35.952 298.511 35.888C298.351 35.824 298.147 35.792 297.899 35.792C297.563 35.792 297.255 35.816 296.975 35.864C296.695 35.912 296.467 35.968 296.291 36.032L296.111 34.856C296.295 34.792 296.563 34.728 296.915 34.664C297.267 34.6 297.643 34.568 298.043 34.568ZM305.941 36.032C305.821 35.992 305.653 35.952 305.437 35.912C305.229 35.864 304.985 35.84 304.705 35.84C304.545 35.84 304.373 35.856 304.189 35.888C304.013 35.92 303.889 35.948 303.817 35.972V41H302.365V35.024C302.645 34.92 302.993 34.824 303.409 34.736C303.833 34.64 304.301 34.592 304.813 34.592C304.909 34.592 305.021 34.6 305.149 34.616C305.277 34.624 305.405 34.64 305.533 34.664C305.661 34.68 305.785 34.704 305.905 34.736C306.025 34.76 306.121 34.784 306.193 34.808L305.941 36.032ZM307.205 34.928C307.485 34.848 307.849 34.772 308.297 34.7C308.745 34.628 309.241 34.592 309.785 34.592C310.297 34.592 310.725 34.664 311.069 34.808C311.413 34.944 311.685 35.14 311.885 35.396C312.093 35.644 312.237 35.948 312.317 36.308C312.405 36.66 312.449 37.048 312.449 37.472V41H310.997V37.7C310.997 37.364 310.973 37.08 310.925 36.848C310.885 36.608 310.813 36.416 310.709 36.272C310.613 36.12 310.477 36.012 310.301 35.948C310.133 35.876 309.925 35.84 309.677 35.84C309.493 35.84 309.301 35.852 309.101 35.876C308.901 35.9 308.753 35.92 308.657 35.936V41H307.205V34.928Z" fill="#3D0072"/>
<circle cx="442" cy="36" r="7" fill="#8807F7"/>
<path d="M460.012 38.872C460.556 38.872 460.952 38.78 461.2 38.596C461.448 38.412 461.572 38.152 461.572 37.816C461.572 37.616 461.528 37.444 461.44 37.3C461.36 37.156 461.24 37.028 461.08 36.916C460.928 36.796 460.74 36.688 460.516 36.592C460.292 36.488 460.036 36.388 459.748 36.292C459.46 36.188 459.18 36.076 458.908 35.956C458.644 35.828 458.408 35.672 458.2 35.488C458 35.304 457.836 35.084 457.708 34.828C457.588 34.572 457.528 34.264 457.528 33.904C457.528 33.152 457.788 32.564 458.308 32.14C458.828 31.708 459.536 31.492 460.432 31.492C460.952 31.492 461.412 31.552 461.812 31.672C462.22 31.784 462.54 31.908 462.772 32.044L462.304 33.268C462.032 33.116 461.732 33 461.404 32.92C461.084 32.84 460.752 32.8 460.408 32.8C460 32.8 459.68 32.884 459.448 33.052C459.224 33.22 459.112 33.456 459.112 33.76C459.112 33.944 459.148 34.104 459.22 34.24C459.3 34.368 459.408 34.484 459.544 34.588C459.688 34.692 459.852 34.788 460.036 34.876C460.228 34.964 460.436 35.048 460.66 35.128C461.052 35.272 461.4 35.42 461.704 35.572C462.016 35.716 462.276 35.892 462.484 36.1C462.7 36.3 462.864 36.54 462.976 36.82C463.088 37.092 463.144 37.424 463.144 37.816C463.144 38.568 462.876 39.152 462.34 39.568C461.812 39.976 461.036 40.18 460.012 40.18C459.668 40.18 459.352 40.156 459.064 40.108C458.784 40.068 458.532 40.016 458.308 39.952C458.092 39.888 457.904 39.824 457.744 39.76C457.584 39.688 457.456 39.624 457.36 39.568L457.804 38.332C458.02 38.452 458.312 38.572 458.68 38.692C459.048 38.812 459.492 38.872 460.012 38.872ZM466.612 38.98C467.06 38.98 467.4 38.956 467.632 38.908V37.3C467.552 37.276 467.436 37.252 467.284 37.228C467.132 37.204 466.964 37.192 466.78 37.192C466.62 37.192 466.456 37.204 466.288 37.228C466.128 37.252 465.98 37.296 465.844 37.36C465.716 37.424 465.612 37.516 465.532 37.636C465.452 37.748 465.412 37.892 465.412 38.068C465.412 38.412 465.52 38.652 465.736 38.788C465.952 38.916 466.244 38.98 466.612 38.98ZM466.492 33.568C466.972 33.568 467.376 33.628 467.704 33.748C468.032 33.868 468.292 34.036 468.484 34.252C468.684 34.468 468.824 34.732 468.904 35.044C468.992 35.348 469.036 35.684 469.036 36.052V39.856C468.812 39.904 468.472 39.96 468.016 40.024C467.568 40.096 467.06 40.132 466.492 40.132C466.116 40.132 465.772 40.096 465.46 40.024C465.148 39.952 464.88 39.836 464.656 39.676C464.44 39.516 464.268 39.308 464.14 39.052C464.02 38.796 463.96 38.48 463.96 38.104C463.96 37.744 464.028 37.44 464.164 37.192C464.308 36.944 464.5 36.744 464.74 36.592C464.98 36.432 465.256 36.32 465.568 36.256C465.888 36.184 466.22 36.148 466.564 36.148C466.724 36.148 466.892 36.16 467.068 36.184C467.244 36.2 467.432 36.232 467.632 36.28V36.04C467.632 35.872 467.612 35.712 467.572 35.56C467.532 35.408 467.46 35.276 467.356 35.164C467.26 35.044 467.128 34.952 466.96 34.888C466.8 34.824 466.596 34.792 466.348 34.792C466.012 34.792 465.704 34.816 465.424 34.864C465.144 34.912 464.916 34.968 464.74 35.032L464.56 33.856C464.744 33.792 465.012 33.728 465.364 33.664C465.716 33.6 466.092 33.568 466.492 33.568ZM472.27 40C471.87 39.176 471.458 38.232 471.034 37.168C470.618 36.096 470.238 34.948 469.894 33.724H471.442C471.53 34.076 471.63 34.456 471.742 34.864C471.862 35.264 471.986 35.668 472.114 36.076C472.25 36.476 472.386 36.868 472.522 37.252C472.666 37.628 472.798 37.968 472.918 38.272C473.038 37.968 473.166 37.628 473.302 37.252C473.438 36.868 473.57 36.476 473.698 36.076C473.834 35.668 473.962 35.264 474.082 34.864C474.202 34.456 474.306 34.076 474.394 33.724H475.894C475.55 34.948 475.166 36.096 474.742 37.168C474.326 38.232 473.918 39.176 473.518 40H472.27ZM476.49 36.892C476.49 36.34 476.57 35.856 476.73 35.44C476.898 35.024 477.118 34.68 477.39 34.408C477.662 34.128 477.974 33.92 478.326 33.784C478.678 33.64 479.038 33.568 479.406 33.568C480.27 33.568 480.942 33.836 481.422 34.372C481.91 34.908 482.154 35.708 482.154 36.772C482.154 36.852 482.15 36.944 482.142 37.048C482.142 37.144 482.138 37.232 482.13 37.312H477.99C478.03 37.816 478.206 38.208 478.518 38.488C478.838 38.76 479.298 38.896 479.898 38.896C480.25 38.896 480.57 38.864 480.858 38.8C481.154 38.736 481.386 38.668 481.554 38.596L481.746 39.784C481.666 39.824 481.554 39.868 481.41 39.916C481.274 39.956 481.114 39.992 480.93 40.024C480.754 40.064 480.562 40.096 480.354 40.12C480.146 40.144 479.934 40.156 479.718 40.156C479.166 40.156 478.686 40.076 478.278 39.916C477.87 39.748 477.534 39.52 477.27 39.232C477.006 38.936 476.81 38.592 476.682 38.2C476.554 37.8 476.49 37.364 476.49 36.892ZM480.702 36.244C480.702 36.044 480.674 35.856 480.618 35.68C480.562 35.496 480.478 35.34 480.366 35.212C480.262 35.076 480.13 34.972 479.97 34.9C479.818 34.82 479.634 34.78 479.418 34.78C479.194 34.78 478.998 34.824 478.83 34.912C478.662 34.992 478.518 35.1 478.398 35.236C478.286 35.372 478.198 35.528 478.134 35.704C478.07 35.88 478.026 36.06 478.002 36.244H480.702Z" fill="#3D0072"/>
<rect x="515" y="24" width="91" height="24" rx="10" fill="white"/>
<path d="M530.22 37.264C530.22 37.672 530.176 38.052 530.088 38.404C530 38.756 529.844 39.064 529.62 39.328C529.404 39.592 529.108 39.8 528.732 39.952C528.364 40.104 527.896 40.18 527.328 40.18C526.8 40.18 526.34 40.108 525.948 39.964C525.564 39.812 525.268 39.652 525.06 39.484L525.6 38.296C525.8 38.432 526.044 38.564 526.332 38.692C526.628 38.812 526.928 38.872 527.232 38.872C527.744 38.872 528.116 38.744 528.348 38.488C528.58 38.232 528.696 37.792 528.696 37.168V31.684H530.22V37.264ZM534.284 38.98C534.732 38.98 535.072 38.956 535.304 38.908V37.3C535.224 37.276 535.108 37.252 534.956 37.228C534.804 37.204 534.636 37.192 534.452 37.192C534.292 37.192 534.128 37.204 533.96 37.228C533.8 37.252 533.652 37.296 533.516 37.36C533.388 37.424 533.284 37.516 533.204 37.636C533.124 37.748 533.084 37.892 533.084 38.068C533.084 38.412 533.192 38.652 533.408 38.788C533.624 38.916 533.916 38.98 534.284 38.98ZM534.164 33.568C534.644 33.568 535.048 33.628 535.376 33.748C535.704 33.868 535.964 34.036 536.156 34.252C536.356 34.468 536.496 34.732 536.576 35.044C536.664 35.348 536.708 35.684 536.708 36.052V39.856C536.484 39.904 536.144 39.96 535.688 40.024C535.24 40.096 534.732 40.132 534.164 40.132C533.788 40.132 533.444 40.096 533.132 40.024C532.82 39.952 532.552 39.836 532.328 39.676C532.112 39.516 531.94 39.308 531.812 39.052C531.692 38.796 531.632 38.48 531.632 38.104C531.632 37.744 531.7 37.44 531.836 37.192C531.98 36.944 532.172 36.744 532.412 36.592C532.652 36.432 532.928 36.32 533.24 36.256C533.56 36.184 533.892 36.148 534.236 36.148C534.396 36.148 534.564 36.16 534.74 36.184C534.916 36.2 535.104 36.232 535.304 36.28V36.04C535.304 35.872 535.284 35.712 535.244 35.56C535.204 35.408 535.132 35.276 535.028 35.164C534.932 35.044 534.8 34.952 534.632 34.888C534.472 34.824 534.268 34.792 534.02 34.792C533.684 34.792 533.376 34.816 533.096 34.864C532.816 34.912 532.588 34.968 532.412 35.032L532.232 33.856C532.416 33.792 532.684 33.728 533.036 33.664C533.388 33.6 533.764 33.568 534.164 33.568ZM538.487 33.928C538.767 33.848 539.131 33.772 539.579 33.7C540.027 33.628 540.523 33.592 541.067 33.592C541.579 33.592 542.007 33.664 542.351 33.808C542.695 33.944 542.967 34.14 543.167 34.396C543.375 34.644 543.519 34.948 543.599 35.308C543.687 35.66 543.73 36.048 543.73 36.472V40H542.279V36.7C542.279 36.364 542.255 36.08 542.207 35.848C542.167 35.608 542.095 35.416 541.991 35.272C541.895 35.12 541.759 35.012 541.583 34.948C541.415 34.876 541.207 34.84 540.959 34.84C540.775 34.84 540.583 34.852 540.383 34.876C540.183 34.9 540.035 34.92 539.939 34.936V40H538.487V33.928ZM553.155 33.844C553.155 34.132 553.095 34.416 552.975 34.696C552.855 34.968 552.699 35.236 552.507 35.5C552.323 35.756 552.111 36.008 551.871 36.256C551.631 36.496 551.391 36.732 551.151 36.964C551.023 37.084 550.879 37.228 550.719 37.396C550.559 37.564 550.407 37.732 550.263 37.9C550.119 38.068 549.995 38.232 549.891 38.392C549.787 38.544 549.731 38.672 549.723 38.776H553.419V40H548.127C548.119 39.936 548.115 39.86 548.115 39.772C548.115 39.676 548.115 39.604 548.115 39.556C548.115 39.172 548.175 38.82 548.295 38.5C548.423 38.172 548.587 37.868 548.787 37.588C548.987 37.308 549.211 37.044 549.459 36.796C549.707 36.548 549.955 36.304 550.203 36.064C550.395 35.88 550.579 35.7 550.755 35.524C550.931 35.348 551.083 35.176 551.211 35.008C551.347 34.832 551.455 34.656 551.535 34.48C551.615 34.296 551.655 34.108 551.655 33.916C551.655 33.5 551.535 33.204 551.295 33.028C551.055 32.852 550.763 32.764 550.419 32.764C550.195 32.764 549.987 32.796 549.795 32.86C549.603 32.924 549.431 33 549.279 33.088C549.135 33.176 549.007 33.268 548.895 33.364C548.783 33.452 548.699 33.524 548.643 33.58L547.923 32.56C548.259 32.24 548.651 31.984 549.099 31.792C549.555 31.592 550.043 31.492 550.563 31.492C551.451 31.492 552.103 31.704 552.519 32.128C552.943 32.544 553.155 33.116 553.155 33.844ZM560.503 35.836C560.503 37.236 560.247 38.312 559.735 39.064C559.223 39.808 558.515 40.18 557.611 40.18C556.707 40.18 555.999 39.808 555.487 39.064C554.975 38.312 554.719 37.236 554.719 35.836C554.719 35.14 554.783 34.524 554.911 33.988C555.047 33.444 555.239 32.988 555.487 32.62C555.743 32.252 556.047 31.972 556.399 31.78C556.759 31.588 557.163 31.492 557.611 31.492C558.515 31.492 559.223 31.868 559.735 32.62C560.247 33.364 560.503 34.436 560.503 35.836ZM559.003 35.836C559.003 35.404 558.979 35 558.931 34.624C558.883 34.248 558.803 33.924 558.691 33.652C558.587 33.372 558.447 33.152 558.271 32.992C558.095 32.832 557.875 32.752 557.611 32.752C557.347 32.752 557.123 32.832 556.939 32.992C556.763 33.152 556.619 33.372 556.507 33.652C556.403 33.924 556.327 34.248 556.279 34.624C556.239 35 556.219 35.404 556.219 35.836C556.219 36.268 556.239 36.672 556.279 37.048C556.327 37.424 556.403 37.752 556.507 38.032C556.619 38.304 556.763 38.52 556.939 38.68C557.123 38.84 557.347 38.92 557.611 38.92C557.875 38.92 558.095 38.84 558.271 38.68C558.447 38.52 558.587 38.304 558.691 38.032C558.803 37.752 558.883 37.424 558.931 37.048C558.979 36.672 559.003 36.268 559.003 35.836ZM566.795 33.844C566.795 34.132 566.735 34.416 566.615 34.696C566.495 34.968 566.339 35.236 566.147 35.5C565.963 35.756 565.751 36.008 565.511 36.256C565.271 36.496 565.031 36.732 564.791 36.964C564.663 37.084 564.519 37.228 564.359 37.396C564.199 37.564 564.047 37.732 563.903 37.9C563.759 38.068 563.635 38.232 563.531 38.392C563.427 38.544 563.371 38.672 563.363 38.776H567.059V40H561.767C561.759 39.936 561.755 39.86 561.755 39.772C561.755 39.676 561.755 39.604 561.755 39.556C561.755 39.172 561.815 38.82 561.935 38.5C562.063 38.172 562.227 37.868 562.427 37.588C562.627 37.308 562.851 37.044 563.099 36.796C563.347 36.548 563.595 36.304 563.843 36.064C564.035 35.88 564.219 35.7 564.395 35.524C564.571 35.348 564.723 35.176 564.851 35.008C564.987 34.832 565.095 34.656 565.175 34.48C565.255 34.296 565.295 34.108 565.295 33.916C565.295 33.5 565.175 33.204 564.935 33.028C564.695 32.852 564.403 32.764 564.059 32.764C563.835 32.764 563.627 32.796 563.435 32.86C563.243 32.924 563.071 33 562.919 33.088C562.775 33.176 562.647 33.268 562.535 33.364C562.423 33.452 562.339 33.524 562.283 33.58L561.563 32.56C561.899 32.24 562.291 31.984 562.739 31.792C563.195 31.592 563.683 31.492 564.203 31.492C565.091 31.492 565.743 31.704 566.159 32.128C566.583 32.544 566.795 33.116 566.795 33.844ZM573.616 33.844C573.616 34.132 573.556 34.416 573.436 34.696C573.316 34.968 573.16 35.236 572.968 35.5C572.784 35.756 572.572 36.008 572.332 36.256C572.092 36.496 571.852 36.732 571.612 36.964C571.484 37.084 571.34 37.228 571.18 37.396C571.02 37.564 570.868 37.732 570.724 37.9C570.58 38.068 570.456 38.232 570.352 38.392C570.248 38.544 570.192 38.672 570.184 38.776H573.88V40H568.588C568.58 39.936 568.576 39.86 568.576 39.772C568.576 39.676 568.576 39.604 568.576 39.556C568.576 39.172 568.636 38.82 568.756 38.5C568.884 38.172 569.048 37.868 569.248 37.588C569.448 37.308 569.672 37.044 569.92 36.796C570.168 36.548 570.416 36.304 570.664 36.064C570.856 35.88 571.04 35.7 571.216 35.524C571.392 35.348 571.544 35.176 571.672 35.008C571.808 34.832 571.916 34.656 571.996 34.48C572.076 34.296 572.116 34.108 572.116 33.916C572.116 33.5 571.996 33.204 571.756 33.028C571.516 32.852 571.224 32.764 570.88 32.764C570.656 32.764 570.448 32.796 570.256 32.86C570.064 32.924 569.892 33 569.74 33.088C569.596 33.176 569.468 33.268 569.356 33.364C569.244 33.452 569.16 33.524 569.104 33.58L568.384 32.56C568.72 32.24 569.112 31.984 569.56 31.792C570.016 31.592 570.504 31.492 571.024 31.492C571.912 31.492 572.564 31.704 572.98 32.128C573.404 32.544 573.616 33.116 573.616 33.844Z" fill="black"/>
<path d="M581.832 34.333L585.999 38.4997L590.165 34.333H581.832Z" fill="black"/>
<circle cx="353" cy="37" r="7" fill="#E8356D"/>
<path d="M351.829 37.4497L355.762 33.5163C355.884 33.3941 356.04 33.333 356.229 33.333C356.418 33.333 356.573 33.3941 356.695 33.5163C356.818 33.6386 356.879 33.7941 356.879 33.983C356.879 34.1719 356.818 34.3275 356.695 34.4497L352.295 38.8497C352.162 38.983 352.006 39.0497 351.829 39.0497C351.651 39.0497 351.495 38.983 351.362 38.8497L349.629 37.1163C349.506 36.9941 349.445 36.8386 349.445 36.6497C349.445 36.4608 349.506 36.3052 349.629 36.183C349.751 36.0608 349.906 35.9997 350.095 35.9997C350.284 35.9997 350.44 36.0608 350.562 36.183L351.829 37.4497Z" fill="white"/>
<path d="M370.012 39.872C370.556 39.872 370.952 39.78 371.2 39.596C371.448 39.412 371.572 39.152 371.572 38.816C371.572 38.616 371.528 38.444 371.44 38.3C371.36 38.156 371.24 38.028 371.08 37.916C370.928 37.796 370.74 37.688 370.516 37.592C370.292 37.488 370.036 37.388 369.748 37.292C369.46 37.188 369.18 37.076 368.908 36.956C368.644 36.828 368.408 36.672 368.2 36.488C368 36.304 367.836 36.084 367.708 35.828C367.588 35.572 367.528 35.264 367.528 34.904C367.528 34.152 367.788 33.564 368.308 33.14C368.828 32.708 369.536 32.492 370.432 32.492C370.952 32.492 371.412 32.552 371.812 32.672C372.22 32.784 372.54 32.908 372.772 33.044L372.304 34.268C372.032 34.116 371.732 34 371.404 33.92C371.084 33.84 370.752 33.8 370.408 33.8C370 33.8 369.68 33.884 369.448 34.052C369.224 34.22 369.112 34.456 369.112 34.76C369.112 34.944 369.148 35.104 369.22 35.24C369.3 35.368 369.408 35.484 369.544 35.588C369.688 35.692 369.852 35.788 370.036 35.876C370.228 35.964 370.436 36.048 370.66 36.128C371.052 36.272 371.4 36.42 371.704 36.572C372.016 36.716 372.276 36.892 372.484 37.1C372.7 37.3 372.864 37.54 372.976 37.82C373.088 38.092 373.144 38.424 373.144 38.816C373.144 39.568 372.876 40.152 372.34 40.568C371.812 40.976 371.036 41.18 370.012 41.18C369.668 41.18 369.352 41.156 369.064 41.108C368.784 41.068 368.532 41.016 368.308 40.952C368.092 40.888 367.904 40.824 367.744 40.76C367.584 40.688 367.456 40.624 367.36 40.568L367.804 39.332C368.02 39.452 368.312 39.572 368.68 39.692C369.048 39.812 369.492 39.872 370.012 39.872ZM378.568 37.892C378.568 37.244 378.42 36.74 378.124 36.38C377.836 36.02 377.368 35.84 376.72 35.84C376.584 35.84 376.44 35.848 376.288 35.864C376.144 35.872 376 35.896 375.856 35.936V39.524C375.984 39.612 376.152 39.696 376.36 39.776C376.576 39.848 376.804 39.884 377.044 39.884C377.572 39.884 377.956 39.704 378.196 39.344C378.444 38.984 378.568 38.5 378.568 37.892ZM380.056 37.868C380.056 38.348 379.992 38.788 379.864 39.188C379.744 39.588 379.568 39.932 379.336 40.22C379.104 40.508 378.812 40.732 378.46 40.892C378.116 41.052 377.724 41.132 377.284 41.132C376.988 41.132 376.716 41.096 376.468 41.024C376.22 40.952 376.016 40.872 375.856 40.784V43.22H374.404V34.928C374.7 34.848 375.064 34.772 375.496 34.7C375.928 34.628 376.384 34.592 376.864 34.592C377.36 34.592 377.804 34.668 378.196 34.82C378.588 34.972 378.92 35.192 379.192 35.48C379.472 35.76 379.684 36.104 379.828 36.512C379.98 36.912 380.056 37.364 380.056 37.868ZM381.205 37.892C381.205 37.34 381.285 36.856 381.445 36.44C381.613 36.024 381.833 35.68 382.105 35.408C382.377 35.128 382.689 34.92 383.041 34.784C383.393 34.64 383.753 34.568 384.121 34.568C384.985 34.568 385.657 34.836 386.137 35.372C386.625 35.908 386.869 36.708 386.869 37.772C386.869 37.852 386.865 37.944 386.857 38.048C386.857 38.144 386.853 38.232 386.845 38.312H382.705C382.745 38.816 382.921 39.208 383.233 39.488C383.553 39.76 384.013 39.896 384.613 39.896C384.965 39.896 385.285 39.864 385.573 39.8C385.869 39.736 386.101 39.668 386.269 39.596L386.461 40.784C386.381 40.824 386.269 40.868 386.125 40.916C385.989 40.956 385.829 40.992 385.645 41.024C385.469 41.064 385.277 41.096 385.069 41.12C384.861 41.144 384.649 41.156 384.433 41.156C383.881 41.156 383.401 41.076 382.993 40.916C382.585 40.748 382.249 40.52 381.985 40.232C381.721 39.936 381.525 39.592 381.397 39.2C381.269 38.8 381.205 38.364 381.205 37.892ZM385.417 37.244C385.417 37.044 385.389 36.856 385.333 36.68C385.277 36.496 385.193 36.34 385.081 36.212C384.977 36.076 384.845 35.972 384.685 35.9C384.533 35.82 384.349 35.78 384.133 35.78C383.909 35.78 383.713 35.824 383.545 35.912C383.377 35.992 383.233 36.1 383.113 36.236C383.001 36.372 382.913 36.528 382.849 36.704C382.785 36.88 382.741 37.06 382.717 37.244H385.417ZM388.408 34.928C388.688 34.848 389.052 34.772 389.5 34.7C389.948 34.628 390.444 34.592 390.988 34.592C391.5 34.592 391.928 34.664 392.272 34.808C392.616 34.944 392.888 35.14 393.088 35.396C393.296 35.644 393.44 35.948 393.52 36.308C393.608 36.66 393.652 37.048 393.652 37.472V41H392.2V37.7C392.2 37.364 392.176 37.08 392.128 36.848C392.088 36.608 392.016 36.416 391.912 36.272C391.816 36.12 391.68 36.012 391.504 35.948C391.336 35.876 391.128 35.84 390.88 35.84C390.696 35.84 390.504 35.852 390.304 35.876C390.104 35.9 389.956 35.92 389.86 35.936V41H388.408V34.928ZM396.568 37.844C396.568 38.484 396.72 38.988 397.024 39.356C397.328 39.716 397.748 39.896 398.284 39.896C398.516 39.896 398.712 39.888 398.872 39.872C399.04 39.848 399.176 39.824 399.28 39.8V36.2C399.152 36.112 398.98 36.032 398.764 35.96C398.556 35.88 398.332 35.84 398.092 35.84C397.564 35.84 397.176 36.02 396.928 36.38C396.688 36.74 396.568 37.228 396.568 37.844ZM400.732 40.808C400.444 40.896 400.08 40.976 399.64 41.048C399.208 41.12 398.752 41.156 398.272 41.156C397.776 41.156 397.332 41.08 396.94 40.928C396.548 40.776 396.212 40.56 395.932 40.28C395.66 39.992 395.448 39.648 395.296 39.248C395.152 38.84 395.08 38.384 395.08 37.88C395.08 37.384 395.14 36.936 395.26 36.536C395.388 36.128 395.572 35.78 395.812 35.492C396.052 35.204 396.344 34.984 396.688 34.832C397.032 34.672 397.428 34.592 397.876 34.592C398.18 34.592 398.448 34.628 398.68 34.7C398.912 34.772 399.112 34.852 399.28 34.94V31.928L400.732 31.688V40.808Z" fill="#3D0072"/>
<path d="M602 152.899C595.271 148.599 572.569 143.439 535.594 157.199C489.375 174.399 428.281 200.2 377.281 170.386C326.281 140.572 255.625 74.0642 24 181.853" stroke="#FF718B" stroke-width="2" stroke-linecap="round"/>
<path d="M537.249 157.408C574.416 143.713 597.236 148.848 604 153.128V280H23V181.945C255.827 74.6659 326.85 140.859 378.115 170.532C429.38 200.205 490.79 174.527 537.249 157.408Z" fill="url(#paint0_linear_1813_15122)"/>
<g filter="url(#filter0_d_1813_15122)">
<circle cx="279.732" cy="124.505" r="8.80203" fill="#FF718B"/>
<circle cx="279.732" cy="124.505" r="6.80203" stroke="white" stroke-width="4"/>
</g>
<path d="M22 149.714C25.5815 149.714 111.04 176.456 192.619 168.532C274.198 160.609 337.57 105.451 415.966 126.933C456.807 138.124 479.56 168.266 521.919 168.532C562.93 168.79 603 126.933 603 126.933" stroke="#FFC727" stroke-width="2" stroke-linecap="round"/>
<path d="M604 144.847C584.45 125.401 524.55 96.258 441.354 135.257C337.36 184.007 287.295 160.291 220.77 138.332C154.245 116.372 95.9499 139.649 65.7737 151.946C35.5974 164.243 41.5 161 22.5 166" stroke="#8807F7" stroke-width="2" stroke-linecap="round"/>
<g filter="url(#filter1_d_1813_15122)">
<rect x="243" y="63" width="78" height="36" rx="5" fill="white"/>
</g>
<g filter="url(#filter2_d_1813_15122)">
<path d="M280 113L288.66 98H271.34L280 113Z" fill="white"/>
</g>
<path d="M257.3 77C257.164 76.772 257.012 76.528 256.844 76.268C256.676 76.004 256.502 75.74 256.322 75.476C256.142 75.208 255.958 74.95 255.77 74.702C255.586 74.45 255.41 74.224 255.242 74.024V77H254.498V72.842H255.116C255.276 73.01 255.448 73.21 255.632 73.442C255.816 73.67 256 73.908 256.184 74.156C256.372 74.404 256.552 74.654 256.724 74.906C256.9 75.154 257.056 75.386 257.192 75.602V72.842H257.942V77H257.3ZM261.741 75.428C261.741 75.676 261.705 75.902 261.633 76.106C261.561 76.31 261.459 76.484 261.327 76.628C261.195 76.772 261.035 76.884 260.847 76.964C260.663 77.044 260.459 77.084 260.235 77.084C260.011 77.084 259.807 77.044 259.623 76.964C259.439 76.884 259.281 76.772 259.149 76.628C259.017 76.484 258.913 76.31 258.837 76.106C258.765 75.902 258.729 75.676 258.729 75.428C258.729 75.18 258.765 74.956 258.837 74.756C258.913 74.552 259.017 74.378 259.149 74.234C259.285 74.09 259.445 73.98 259.629 73.904C259.813 73.824 260.015 73.784 260.235 73.784C260.455 73.784 260.657 73.824 260.841 73.904C261.029 73.98 261.189 74.09 261.321 74.234C261.453 74.378 261.555 74.552 261.627 74.756C261.703 74.956 261.741 75.18 261.741 75.428ZM260.997 75.428C260.997 75.116 260.929 74.87 260.793 74.69C260.661 74.506 260.475 74.414 260.235 74.414C259.995 74.414 259.807 74.506 259.671 74.69C259.539 74.87 259.473 75.116 259.473 75.428C259.473 75.744 259.539 75.994 259.671 76.178C259.807 76.362 259.995 76.454 260.235 76.454C260.475 76.454 260.661 76.362 260.793 76.178C260.929 75.994 260.997 75.744 260.997 75.428ZM263.223 77C263.023 76.588 262.817 76.116 262.605 75.584C262.397 75.048 262.207 74.474 262.035 73.862H262.809C262.853 74.038 262.903 74.228 262.959 74.432C263.019 74.632 263.081 74.834 263.145 75.038C263.213 75.238 263.281 75.434 263.349 75.626C263.421 75.814 263.487 75.984 263.547 76.136C263.607 75.984 263.671 75.814 263.739 75.626C263.807 75.434 263.873 75.238 263.937 75.038C264.005 74.834 264.069 74.632 264.129 74.432C264.189 74.228 264.241 74.038 264.285 73.862H265.035C264.863 74.474 264.671 75.048 264.459 75.584C264.251 76.116 264.047 76.588 263.847 77H263.223ZM269.402 73.922C269.402 74.066 269.372 74.208 269.312 74.348C269.252 74.484 269.174 74.618 269.078 74.75C268.986 74.878 268.88 75.004 268.76 75.128C268.64 75.248 268.52 75.366 268.4 75.482C268.336 75.542 268.264 75.614 268.184 75.698C268.104 75.782 268.028 75.866 267.956 75.95C267.884 76.034 267.822 76.116 267.77 76.196C267.718 76.272 267.69 76.336 267.686 76.388H269.534V77H266.888C266.884 76.968 266.882 76.93 266.882 76.886C266.882 76.838 266.882 76.802 266.882 76.778C266.882 76.586 266.912 76.41 266.972 76.25C267.036 76.086 267.118 75.934 267.218 75.794C267.318 75.654 267.43 75.522 267.554 75.398C267.678 75.274 267.802 75.152 267.926 75.032C268.022 74.94 268.114 74.85 268.202 74.762C268.29 74.674 268.366 74.588 268.43 74.504C268.498 74.416 268.552 74.328 268.592 74.24C268.632 74.148 268.652 74.054 268.652 73.958C268.652 73.75 268.592 73.602 268.472 73.514C268.352 73.426 268.206 73.382 268.034 73.382C267.922 73.382 267.818 73.398 267.722 73.43C267.626 73.462 267.54 73.5 267.464 73.544C267.392 73.588 267.328 73.634 267.272 73.682C267.216 73.726 267.174 73.762 267.146 73.79L266.786 73.28C266.954 73.12 267.15 72.992 267.374 72.896C267.602 72.796 267.846 72.746 268.106 72.746C268.55 72.746 268.876 72.852 269.084 73.064C269.296 73.272 269.402 73.558 269.402 73.922ZM273.076 74.918C273.076 75.618 272.948 76.156 272.692 76.532C272.436 76.904 272.082 77.09 271.63 77.09C271.178 77.09 270.824 76.904 270.568 76.532C270.312 76.156 270.184 75.618 270.184 74.918C270.184 74.57 270.216 74.262 270.28 73.994C270.348 73.722 270.444 73.494 270.568 73.31C270.696 73.126 270.848 72.986 271.024 72.89C271.204 72.794 271.406 72.746 271.63 72.746C272.082 72.746 272.436 72.934 272.692 73.31C272.948 73.682 273.076 74.218 273.076 74.918ZM272.326 74.918C272.326 74.702 272.314 74.5 272.29 74.312C272.266 74.124 272.226 73.962 272.17 73.826C272.118 73.686 272.048 73.576 271.96 73.496C271.872 73.416 271.762 73.376 271.63 73.376C271.498 73.376 271.386 73.416 271.294 73.496C271.206 73.576 271.134 73.686 271.078 73.826C271.026 73.962 270.988 74.124 270.964 74.312C270.944 74.5 270.934 74.702 270.934 74.918C270.934 75.134 270.944 75.336 270.964 75.524C270.988 75.712 271.026 75.876 271.078 76.016C271.134 76.152 271.206 76.26 271.294 76.34C271.386 76.42 271.498 76.46 271.63 76.46C271.762 76.46 271.872 76.42 271.96 76.34C272.048 76.26 272.118 76.152 272.17 76.016C272.226 75.876 272.266 75.712 272.29 75.524C272.314 75.336 272.326 75.134 272.326 74.918ZM276.222 73.922C276.222 74.066 276.192 74.208 276.132 74.348C276.072 74.484 275.994 74.618 275.898 74.75C275.806 74.878 275.7 75.004 275.58 75.128C275.46 75.248 275.34 75.366 275.22 75.482C275.156 75.542 275.084 75.614 275.004 75.698C274.924 75.782 274.848 75.866 274.776 75.95C274.704 76.034 274.642 76.116 274.59 76.196C274.538 76.272 274.51 76.336 274.506 76.388H276.354V77H273.708C273.704 76.968 273.702 76.93 273.702 76.886C273.702 76.838 273.702 76.802 273.702 76.778C273.702 76.586 273.732 76.41 273.792 76.25C273.856 76.086 273.938 75.934 274.038 75.794C274.138 75.654 274.25 75.522 274.374 75.398C274.498 75.274 274.622 75.152 274.746 75.032C274.842 74.94 274.934 74.85 275.022 74.762C275.11 74.674 275.186 74.588 275.25 74.504C275.318 74.416 275.372 74.328 275.412 74.24C275.452 74.148 275.472 74.054 275.472 73.958C275.472 73.75 275.412 73.602 275.292 73.514C275.172 73.426 275.026 73.382 274.854 73.382C274.742 73.382 274.638 73.398 274.542 73.43C274.446 73.462 274.36 73.5 274.284 73.544C274.212 73.588 274.148 73.634 274.092 73.682C274.036 73.726 273.994 73.762 273.966 73.79L273.606 73.28C273.774 73.12 273.97 72.992 274.194 72.896C274.422 72.796 274.666 72.746 274.926 72.746C275.37 72.746 275.696 72.852 275.904 73.064C276.116 73.272 276.222 73.558 276.222 73.922ZM279.632 73.922C279.632 74.066 279.602 74.208 279.542 74.348C279.482 74.484 279.404 74.618 279.308 74.75C279.216 74.878 279.11 75.004 278.99 75.128C278.87 75.248 278.75 75.366 278.63 75.482C278.566 75.542 278.494 75.614 278.414 75.698C278.334 75.782 278.258 75.866 278.186 75.95C278.114 76.034 278.052 76.116 278 76.196C277.948 76.272 277.92 76.336 277.916 76.388H279.764V77H277.118C277.114 76.968 277.112 76.93 277.112 76.886C277.112 76.838 277.112 76.802 277.112 76.778C277.112 76.586 277.142 76.41 277.202 76.25C277.266 76.086 277.348 75.934 277.448 75.794C277.548 75.654 277.66 75.522 277.784 75.398C277.908 75.274 278.032 75.152 278.156 75.032C278.252 74.94 278.344 74.85 278.432 74.762C278.52 74.674 278.596 74.588 278.66 74.504C278.728 74.416 278.782 74.328 278.822 74.24C278.862 74.148 278.882 74.054 278.882 73.958C278.882 73.75 278.822 73.602 278.702 73.514C278.582 73.426 278.436 73.382 278.264 73.382C278.152 73.382 278.048 73.398 277.952 73.43C277.856 73.462 277.77 73.5 277.694 73.544C277.622 73.588 277.558 73.634 277.502 73.682C277.446 73.726 277.404 73.762 277.376 73.79L277.016 73.28C277.184 73.12 277.38 72.992 277.604 72.896C277.832 72.796 278.076 72.746 278.336 72.746C278.78 72.746 279.106 72.852 279.314 73.064C279.526 73.272 279.632 73.558 279.632 73.922Z" fill="#9CA3AF"/>
<path d="M258.45 88C258.003 87.2067 257.52 86.4233 257 85.65C256.48 84.8767 255.927 84.1467 255.34 83.46V88H253.8V81.07H255.07C255.29 81.29 255.533 81.56 255.8 81.88C256.067 82.2 256.337 82.5433 256.61 82.91C256.89 83.27 257.167 83.6467 257.44 84.04C257.713 84.4267 257.97 84.8 258.21 85.16V81.07H259.76V88H258.45ZM264.739 82.27C264.012 82.27 263.485 82.4733 263.159 82.88C262.839 83.28 262.679 83.83 262.679 84.53C262.679 84.87 262.719 85.18 262.799 85.46C262.879 85.7333 262.999 85.97 263.159 86.17C263.319 86.37 263.519 86.5267 263.759 86.64C263.999 86.7467 264.279 86.8 264.599 86.8C264.772 86.8 264.919 86.7967 265.039 86.79C265.165 86.7833 265.275 86.77 265.369 86.75V84.34H266.929V87.77C266.742 87.8433 266.442 87.92 266.029 88C265.615 88.0867 265.105 88.13 264.499 88.13C263.979 88.13 263.505 88.05 263.079 87.89C262.659 87.73 262.299 87.4967 261.999 87.19C261.699 86.8833 261.465 86.5067 261.299 86.06C261.139 85.6133 261.059 85.1033 261.059 84.53C261.059 83.95 261.149 83.4367 261.329 82.99C261.509 82.5433 261.755 82.1667 262.069 81.86C262.382 81.5467 262.749 81.31 263.169 81.15C263.595 80.99 264.049 80.91 264.529 80.91C264.855 80.91 265.149 80.9333 265.409 80.98C265.675 81.02 265.902 81.07 266.089 81.13C266.282 81.1833 266.439 81.24 266.559 81.3C266.685 81.36 266.775 81.4067 266.829 81.44L266.379 82.69C266.165 82.5767 265.919 82.48 265.639 82.4C265.365 82.3133 265.065 82.27 264.739 82.27ZM273.03 88C272.583 87.2067 272.1 86.4233 271.58 85.65C271.06 84.8767 270.507 84.1467 269.92 83.46V88H268.38V81.07H269.65C269.87 81.29 270.113 81.56 270.38 81.88C270.647 82.2 270.917 82.5433 271.19 82.91C271.47 83.27 271.747 83.6467 272.02 84.04C272.293 84.4267 272.55 84.8 272.79 85.16V81.07H274.34V88H273.03ZM280.281 84.74C280.134 84.74 279.978 84.7533 279.811 84.78C279.644 84.8067 279.514 84.8433 279.421 84.89C279.421 84.9167 279.418 84.9567 279.411 85.01C279.411 85.0633 279.411 85.11 279.411 85.15C279.411 85.39 279.428 85.6167 279.461 85.83C279.494 86.0433 279.551 86.23 279.631 86.39C279.711 86.55 279.818 86.6767 279.951 86.77C280.084 86.8567 280.251 86.9 280.451 86.9C280.618 86.9 280.758 86.8667 280.871 86.8C280.991 86.7267 281.088 86.6367 281.161 86.53C281.241 86.4233 281.298 86.3067 281.331 86.18C281.371 86.0467 281.391 85.92 281.391 85.8C281.391 85.46 281.304 85.2 281.131 85.02C280.964 84.8333 280.681 84.74 280.281 84.74ZM280.471 83.58C280.904 83.58 281.271 83.64 281.571 83.76C281.878 83.8733 282.128 84.03 282.321 84.23C282.514 84.43 282.654 84.6633 282.741 84.93C282.828 85.1967 282.871 85.48 282.871 85.78C282.871 86.0467 282.821 86.32 282.721 86.6C282.628 86.88 282.481 87.1333 282.281 87.36C282.088 87.5867 281.838 87.7733 281.531 87.92C281.231 88.0667 280.874 88.14 280.461 88.14C279.628 88.14 278.994 87.8767 278.561 87.35C278.128 86.8233 277.911 86.0967 277.911 85.17C277.911 84.5033 278.014 83.9133 278.221 83.4C278.428 82.8867 278.721 82.4567 279.101 82.11C279.488 81.7567 279.951 81.49 280.491 81.31C281.038 81.1233 281.651 81.0267 282.331 81.02C282.344 81.2267 282.358 81.43 282.371 81.63C282.384 81.8233 282.398 82.0267 282.411 82.24C282.071 82.2467 281.751 82.28 281.451 82.34C281.158 82.3933 280.888 82.48 280.641 82.6C280.401 82.72 280.191 82.8767 280.011 83.07C279.831 83.2567 279.691 83.4867 279.591 83.76C279.738 83.6933 279.888 83.6467 280.041 83.62C280.194 83.5933 280.338 83.58 280.471 83.58ZM288.565 84.52C288.565 85.6867 288.341 86.5833 287.895 87.21C287.455 87.83 286.845 88.14 286.065 88.14C285.285 88.14 284.671 87.83 284.225 87.21C283.785 86.5833 283.565 85.6867 283.565 84.52C283.565 83.94 283.621 83.4267 283.735 82.98C283.855 82.5333 284.025 82.1567 284.245 81.85C284.465 81.5433 284.728 81.31 285.035 81.15C285.341 80.99 285.685 80.91 286.065 80.91C286.845 80.91 287.455 81.2233 287.895 81.85C288.341 82.47 288.565 83.36 288.565 84.52ZM287.045 84.52C287.045 84.1733 287.028 83.86 286.995 83.58C286.961 83.2933 286.908 83.0467 286.835 82.84C286.761 82.6333 286.661 82.4733 286.535 82.36C286.408 82.2467 286.251 82.19 286.065 82.19C285.878 82.19 285.721 82.2467 285.595 82.36C285.475 82.4733 285.375 82.6333 285.295 82.84C285.221 83.0467 285.168 83.2933 285.135 83.58C285.101 83.86 285.085 84.1733 285.085 84.52C285.085 84.8667 285.101 85.1833 285.135 85.47C285.168 85.7567 285.221 86.0033 285.295 86.21C285.375 86.4167 285.475 86.5767 285.595 86.69C285.721 86.8033 285.878 86.86 286.065 86.86C286.251 86.86 286.408 86.8033 286.535 86.69C286.661 86.5767 286.761 86.4167 286.835 86.21C286.908 86.0033 286.961 85.7567 286.995 85.47C287.028 85.1833 287.045 84.8667 287.045 84.52ZM291.018 86.48C291.032 86.64 291.038 86.7533 291.038 86.82C291.045 86.8867 291.048 86.9433 291.048 86.99C291.048 87.19 291.028 87.4033 290.988 87.63C290.955 87.85 290.905 88.0733 290.838 88.3C290.772 88.5267 290.688 88.7533 290.588 88.98C290.488 89.2067 290.375 89.4233 290.248 89.63L289.078 89.34C289.232 88.9 289.338 88.4867 289.398 88.1C289.458 87.7133 289.488 87.3933 289.488 87.14C289.488 87.1 289.485 87.05 289.478 86.99C289.478 86.9233 289.475 86.8567 289.468 86.79C289.468 86.7233 289.465 86.66 289.458 86.6C289.458 86.54 289.458 86.5 289.458 86.48H291.018ZM296.709 84.52C296.709 85.6867 296.486 86.5833 296.039 87.21C295.599 87.83 294.989 88.14 294.209 88.14C293.429 88.14 292.816 87.83 292.369 87.21C291.929 86.5833 291.709 85.6867 291.709 84.52C291.709 83.94 291.766 83.4267 291.879 82.98C291.999 82.5333 292.169 82.1567 292.389 81.85C292.609 81.5433 292.872 81.31 293.179 81.15C293.486 80.99 293.829 80.91 294.209 80.91C294.989 80.91 295.599 81.2233 296.039 81.85C296.486 82.47 296.709 83.36 296.709 84.52ZM295.189 84.52C295.189 84.1733 295.172 83.86 295.139 83.58C295.106 83.2933 295.052 83.0467 294.979 82.84C294.906 82.6333 294.806 82.4733 294.679 82.36C294.552 82.2467 294.396 82.19 294.209 82.19C294.022 82.19 293.866 82.2467 293.739 82.36C293.619 82.4733 293.519 82.6333 293.439 82.84C293.366 83.0467 293.312 83.2933 293.279 83.58C293.246 83.86 293.229 84.1733 293.229 84.52C293.229 84.8667 293.246 85.1833 293.279 85.47C293.312 85.7567 293.366 86.0033 293.439 86.21C293.519 86.4167 293.619 86.5767 293.739 86.69C293.866 86.8033 294.022 86.86 294.209 86.86C294.396 86.86 294.552 86.8033 294.679 86.69C294.806 86.5767 294.906 86.4167 294.979 86.21C295.052 86.0033 295.106 85.7567 295.139 85.47C295.172 85.1833 295.189 84.8667 295.189 84.52ZM302.393 84.52C302.393 85.6867 302.169 86.5833 301.723 87.21C301.283 87.83 300.673 88.14 299.893 88.14C299.113 88.14 298.499 87.83 298.053 87.21C297.613 86.5833 297.393 85.6867 297.393 84.52C297.393 83.94 297.449 83.4267 297.563 82.98C297.683 82.5333 297.853 82.1567 298.073 81.85C298.293 81.5433 298.556 81.31 298.863 81.15C299.169 80.99 299.513 80.91 299.893 80.91C300.673 80.91 301.283 81.2233 301.723 81.85C302.169 82.47 302.393 83.36 302.393 84.52ZM300.873 84.52C300.873 84.1733 300.856 83.86 300.823 83.58C300.789 83.2933 300.736 83.0467 300.663 82.84C300.589 82.6333 300.489 82.4733 300.363 82.36C300.236 82.2467 300.079 82.19 299.893 82.19C299.706 82.19 299.549 82.2467 299.423 82.36C299.303 82.4733 299.203 82.6333 299.123 82.84C299.049 83.0467 298.996 83.2933 298.963 83.58C298.929 83.86 298.913 84.1733 298.913 84.52C298.913 84.8667 298.929 85.1833 298.963 85.47C298.996 85.7567 299.049 86.0033 299.123 86.21C299.203 86.4167 299.303 86.5767 299.423 86.69C299.549 86.8033 299.706 86.86 299.893 86.86C300.079 86.86 300.236 86.8033 300.363 86.69C300.489 86.5767 300.589 86.4167 300.663 86.21C300.736 86.0033 300.789 85.7567 300.823 85.47C300.856 85.1833 300.873 84.8667 300.873 84.52ZM308.076 84.52C308.076 85.6867 307.853 86.5833 307.406 87.21C306.966 87.83 306.356 88.14 305.576 88.14C304.796 88.14 304.183 87.83 303.736 87.21C303.296 86.5833 303.076 85.6867 303.076 84.52C303.076 83.94 303.133 83.4267 303.246 82.98C303.366 82.5333 303.536 82.1567 303.756 81.85C303.976 81.5433 304.24 81.31 304.546 81.15C304.853 80.99 305.196 80.91 305.576 80.91C306.356 80.91 306.966 81.2233 307.406 81.85C307.853 82.47 308.076 83.36 308.076 84.52ZM306.556 84.52C306.556 84.1733 306.54 83.86 306.506 83.58C306.473 83.2933 306.42 83.0467 306.346 82.84C306.273 82.6333 306.173 82.4733 306.046 82.36C305.92 82.2467 305.763 82.19 305.576 82.19C305.39 82.19 305.233 82.2467 305.106 82.36C304.986 82.4733 304.886 82.6333 304.806 82.84C304.733 83.0467 304.68 83.2933 304.646 83.58C304.613 83.86 304.596 84.1733 304.596 84.52C304.596 84.8667 304.613 85.1833 304.646 85.47C304.68 85.7567 304.733 86.0033 304.806 86.21C304.886 86.4167 304.986 86.5767 305.106 86.69C305.233 86.8033 305.39 86.86 305.576 86.86C305.763 86.86 305.92 86.8033 306.046 86.69C306.173 86.5767 306.273 86.4167 306.346 86.21C306.42 86.0033 306.473 85.7567 306.506 85.47C306.54 85.1833 306.556 84.8667 306.556 84.52Z" fill="#3D0072"/>
</g>
</g>
<defs>
<filter id="filter0_d_1813_15122" x="262.93" y="115.703" width="33.6055" height="33.604" filterUnits="userSpaceOnUse" color-interpolation-filters="sRGB">
<feFlood flood-opacity="0" result="BackgroundImageFix"/>
<feColorMatrix in="SourceAlpha" type="matrix" values="0 0 0 0 0 0 0 0 0 0 0 0 0 0 0 0 0 0 127 0" result="hardAlpha"/>
<feOffset dy="8"/>
<feGaussianBlur stdDeviation="4"/>
<feComposite in2="hardAlpha" operator="out"/>
<feColorMatrix type="matrix" values="0 0 0 0 0.0509804 0 0 0 0 0.0392157 0 0 0 0 0.172549 0 0 0 0.08 0"/>
<feBlend mode="normal" in2="BackgroundImageFix" result="effect1_dropShadow_1813_15122"/>
<feBlend mode="normal" in="SourceGraphic" in2="effect1_dropShadow_1813_15122" result="shape"/>
</filter>
<filter id="filter1_d_1813_15122" x="231" y="59" width="102" height="60" filterUnits="userSpaceOnUse" color-interpolation-filters="sRGB">
<feFlood flood-opacity="0" result="BackgroundImageFix"/>
<feColorMatrix in="SourceAlpha" type="matrix" values="0 0 0 0 0 0 0 0 0 0 0 0 0 0 0 0 0 0 127 0" result="hardAlpha"/>
<feOffset dy="8"/>
<feGaussianBlur stdDeviation="6"/>
<feComposite in2="hardAlpha" operator="out"/>
<feColorMatrix type="matrix" values="0 0 0 0 0.666875 0 0 0 0 0.663889 0 0 0 0 0.669444 0 0 0 0.15 0"/>
<feBlend mode="normal" in2="BackgroundImageFix" result="effect1_dropShadow_1813_15122"/>
<feBlend mode="normal" in="SourceGraphic" in2="effect1_dropShadow_1813_15122" result="shape"/>
</filter>
<filter id="filter2_d_1813_15122" x="259.34" y="94" width="41.3203" height="39" filterUnits="userSpaceOnUse" color-interpolation-filters="sRGB">
<feFlood flood-opacity="0" result="BackgroundImageFix"/>
<feColorMatrix in="SourceAlpha" type="matrix" values="0 0 0 0 0 0 0 0 0 0 0 0 0 0 0 0 0 0 127 0" result="hardAlpha"/>
<feOffset dy="8"/>
<feGaussianBlur stdDeviation="6"/>
<feComposite in2="hardAlpha" operator="out"/>
<feColorMatrix type="matrix" values="0 0 0 0 0.666875 0 0 0 0 0.663889 0 0 0 0 0.669444 0 0 0 0.15 0"/>
<feBlend mode="normal" in2="BackgroundImageFix" result="effect1_dropShadow_1813_15122"/>
<feBlend mode="normal" in="SourceGraphic" in2="effect1_dropShadow_1813_15122" result="shape"/>
</filter>
<linearGradient id="paint0_linear_1813_15122" x1="313.5" y1="123" x2="313.5" y2="280" gradientUnits="userSpaceOnUse">
<stop stop-color="#FF718B"/>
<stop offset="0.0001" stop-color="#FF718B" stop-opacity="0.2"/>
<stop offset="1" stop-color="#FFB3C1" stop-opacity="0"/>
</linearGradient>
<clipPath id="clip0_1813_15122">
<rect width="630" height="206" rx="10" fill="white"/>
</clipPath>
<clipPath id="clip1_1813_15122">
<rect width="630" height="206" fill="white"/>
</clipPath>
</defs>
</svg>
