<svg width="135" height="15" viewBox="0 0 135 15" fill="none" xmlns="http://www.w3.org/2000/svg">
<path d="M5.66 3.28C5.79333 3.16 5.96 3.03333 6.16 2.9C6.36 2.75333 6.56 2.61333 6.76 2.48C6.97333 2.33333 7.18667 2.20667 7.4 2.1C7.61333 1.98 7.8 1.89333 7.96 1.84L8.44 1.68L9.24 4.16L8.76 4.32C8.58667 4.37333 8.38667 4.41333 8.16 4.44C7.93333 4.46667 7.69333 4.48667 7.44 4.5C7.18667 4.5 6.94 4.5 6.7 4.5C6.46 4.5 6.24667 4.5 6.06 4.5C6.22 4.60667 6.39333 4.73333 6.58 4.88C6.78 5.01333 6.97333 5.16 7.16 5.32C7.36 5.46667 7.54667 5.62 7.72 5.78C7.89333 5.94 8.03333 6.09333 8.14 6.24L8.46 6.66L6.34 8.16L6.04 7.76C5.93333 7.62667 5.82667 7.45333 5.72 7.24C5.62667 7.02667 5.53333 6.80667 5.44 6.58C5.34667 6.34 5.26667 6.10667 5.2 5.88C5.13333 5.65333 5.07333 5.44667 5.02 5.26C4.96667 5.44667 4.90667 5.65333 4.84 5.88C4.77333 6.10667 4.69333 6.34 4.6 6.58C4.50667 6.80667 4.40667 7.02667 4.3 7.24C4.20667 7.45333 4.10667 7.62667 4 7.76L3.7 8.16L1.58 6.66L1.9 6.24C2.00667 6.09333 2.14667 5.94 2.32 5.78C2.49333 5.62 2.67333 5.46667 2.86 5.32C3.06 5.16 3.25333 5.01333 3.44 4.88C3.64 4.73333 3.82 4.60667 3.98 4.5C3.79333 4.5 3.58 4.5 3.34 4.5C3.1 4.5 2.85333 4.5 2.6 4.5C2.34667 4.48667 2.10667 4.46667 1.88 4.44C1.65333 4.41333 1.45333 4.37333 1.28 4.32L0.8 4.16L1.6 1.68L2.08 1.84C2.24 1.89333 2.42667 1.98 2.64 2.1C2.85333 2.20667 3.06 2.33333 3.26 2.48C3.47333 2.61333 3.67333 2.75333 3.86 2.9C4.06 3.03333 4.23333 3.16 4.38 3.28C4.31333 3.10667 4.24 2.90667 4.16 2.68C4.09333 2.44 4.02667 2.2 3.96 1.96C3.89333 1.72 3.83333 1.48667 3.78 1.26C3.74 1.02 3.72 0.813333 3.72 0.639999V0.14H6.32V0.639999C6.32 0.813333 6.29333 1.02 6.24 1.26C6.2 1.48667 6.14667 1.72 6.08 1.96C6.01333 2.2 5.94 2.44 5.86 2.68C5.79333 2.90667 5.72667 3.10667 5.66 3.28ZM15.6991 3.28C15.8324 3.16 15.9991 3.03333 16.1991 2.9C16.3991 2.75333 16.5991 2.61333 16.7991 2.48C17.0124 2.33333 17.2257 2.20667 17.4391 2.1C17.6524 1.98 17.8391 1.89333 17.9991 1.84L18.4791 1.68L19.2791 4.16L18.7991 4.32C18.6257 4.37333 18.4257 4.41333 18.1991 4.44C17.9724 4.46667 17.7324 4.48667 17.4791 4.5C17.2257 4.5 16.9791 4.5 16.7391 4.5C16.4991 4.5 16.2857 4.5 16.0991 4.5C16.2591 4.60667 16.4324 4.73333 16.6191 4.88C16.8191 5.01333 17.0124 5.16 17.1991 5.32C17.3991 5.46667 17.5857 5.62 17.7591 5.78C17.9324 5.94 18.0724 6.09333 18.1791 6.24L18.4991 6.66L16.3791 8.16L16.0791 7.76C15.9724 7.62667 15.8657 7.45333 15.7591 7.24C15.6657 7.02667 15.5724 6.80667 15.4791 6.58C15.3857 6.34 15.3057 6.10667 15.2391 5.88C15.1724 5.65333 15.1124 5.44667 15.0591 5.26C15.0057 5.44667 14.9457 5.65333 14.8791 5.88C14.8124 6.10667 14.7324 6.34 14.6391 6.58C14.5457 6.80667 14.4457 7.02667 14.3391 7.24C14.2457 7.45333 14.1457 7.62667 14.0391 7.76L13.7391 8.16L11.6191 6.66L11.9391 6.24C12.0457 6.09333 12.1857 5.94 12.3591 5.78C12.5324 5.62 12.7124 5.46667 12.8991 5.32C13.0991 5.16 13.2924 5.01333 13.4791 4.88C13.6791 4.73333 13.8591 4.60667 14.0191 4.5C13.8324 4.5 13.6191 4.5 13.3791 4.5C13.1391 4.5 12.8924 4.5 12.6391 4.5C12.3857 4.48667 12.1457 4.46667 11.9191 4.44C11.6924 4.41333 11.4924 4.37333 11.3191 4.32L10.8391 4.16L11.6391 1.68L12.1191 1.84C12.2791 1.89333 12.4657 1.98 12.6791 2.1C12.8924 2.20667 13.0991 2.33333 13.2991 2.48C13.5124 2.61333 13.7124 2.75333 13.8991 2.9C14.0991 3.03333 14.2724 3.16 14.4191 3.28C14.3524 3.10667 14.2791 2.90667 14.1991 2.68C14.1324 2.44 14.0657 2.2 13.9991 1.96C13.9324 1.72 13.8724 1.48667 13.8191 1.26C13.7791 1.02 13.7591 0.813333 13.7591 0.639999V0.14H16.3591V0.639999C16.3591 0.813333 16.3324 1.02 16.2791 1.26C16.2391 1.48667 16.1857 1.72 16.1191 1.96C16.0524 2.2 15.9791 2.44 15.8991 2.68C15.8324 2.90667 15.7657 3.10667 15.6991 3.28ZM25.7381 3.28C25.8715 3.16 26.0381 3.03333 26.2381 2.9C26.4381 2.75333 26.6381 2.61333 26.8381 2.48C27.0515 2.33333 27.2648 2.20667 27.4781 2.1C27.6915 1.98 27.8781 1.89333 28.0381 1.84L28.5181 1.68L29.3181 4.16L28.8381 4.32C28.6648 4.37333 28.4648 4.41333 28.2381 4.44C28.0115 4.46667 27.7715 4.48667 27.5181 4.5C27.2648 4.5 27.0181 4.5 26.7781 4.5C26.5381 4.5 26.3248 4.5 26.1381 4.5C26.2981 4.60667 26.4715 4.73333 26.6581 4.88C26.8581 5.01333 27.0515 5.16 27.2381 5.32C27.4381 5.46667 27.6248 5.62 27.7981 5.78C27.9715 5.94 28.1115 6.09333 28.2181 6.24L28.5381 6.66L26.4181 8.16L26.1181 7.76C26.0115 7.62667 25.9048 7.45333 25.7981 7.24C25.7048 7.02667 25.6115 6.80667 25.5181 6.58C25.4248 6.34 25.3448 6.10667 25.2781 5.88C25.2115 5.65333 25.1515 5.44667 25.0981 5.26C25.0448 5.44667 24.9848 5.65333 24.9181 5.88C24.8515 6.10667 24.7715 6.34 24.6781 6.58C24.5848 6.80667 24.4848 7.02667 24.3781 7.24C24.2848 7.45333 24.1848 7.62667 24.0781 7.76L23.7781 8.16L21.6581 6.66L21.9781 6.24C22.0848 6.09333 22.2248 5.94 22.3981 5.78C22.5715 5.62 22.7515 5.46667 22.9381 5.32C23.1381 5.16 23.3315 5.01333 23.5181 4.88C23.7181 4.73333 23.8981 4.60667 24.0581 4.5C23.8715 4.5 23.6581 4.5 23.4181 4.5C23.1781 4.5 22.9315 4.5 22.6781 4.5C22.4248 4.48667 22.1848 4.46667 21.9581 4.44C21.7315 4.41333 21.5315 4.37333 21.3581 4.32L20.8781 4.16L21.6781 1.68L22.1581 1.84C22.3181 1.89333 22.5048 1.98 22.7181 2.1C22.9315 2.20667 23.1381 2.33333 23.3381 2.48C23.5515 2.61333 23.7515 2.75333 23.9381 2.9C24.1381 3.03333 24.3115 3.16 24.4581 3.28C24.3915 3.10667 24.3181 2.90667 24.2381 2.68C24.1715 2.44 24.1048 2.2 24.0381 1.96C23.9715 1.72 23.9115 1.48667 23.8581 1.26C23.8181 1.02 23.7981 0.813333 23.7981 0.639999V0.14H26.3981V0.639999C26.3981 0.813333 26.3715 1.02 26.3181 1.26C26.2781 1.48667 26.2248 1.72 26.1581 1.96C26.0915 2.2 26.0181 2.44 25.9381 2.68C25.8715 2.90667 25.8048 3.10667 25.7381 3.28ZM35.7772 3.28C35.9105 3.16 36.0772 3.03333 36.2772 2.9C36.4772 2.75333 36.6772 2.61333 36.8772 2.48C37.0905 2.33333 37.3039 2.20667 37.5172 2.1C37.7305 1.98 37.9172 1.89333 38.0772 1.84L38.5572 1.68L39.3572 4.16L38.8772 4.32C38.7039 4.37333 38.5039 4.41333 38.2772 4.44C38.0505 4.46667 37.8105 4.48667 37.5572 4.5C37.3039 4.5 37.0572 4.5 36.8172 4.5C36.5772 4.5 36.3639 4.5 36.1772 4.5C36.3372 4.60667 36.5105 4.73333 36.6972 4.88C36.8972 5.01333 37.0905 5.16 37.2772 5.32C37.4772 5.46667 37.6639 5.62 37.8372 5.78C38.0105 5.94 38.1505 6.09333 38.2572 6.24L38.5772 6.66L36.4572 8.16L36.1572 7.76C36.0505 7.62667 35.9439 7.45333 35.8372 7.24C35.7439 7.02667 35.6505 6.80667 35.5572 6.58C35.4639 6.34 35.3839 6.10667 35.3172 5.88C35.2505 5.65333 35.1905 5.44667 35.1372 5.26C35.0839 5.44667 35.0239 5.65333 34.9572 5.88C34.8905 6.10667 34.8105 6.34 34.7172 6.58C34.6239 6.80667 34.5239 7.02667 34.4172 7.24C34.3239 7.45333 34.2239 7.62667 34.1172 7.76L33.8172 8.16L31.6972 6.66L32.0172 6.24C32.1239 6.09333 32.2639 5.94 32.4372 5.78C32.6105 5.62 32.7905 5.46667 32.9772 5.32C33.1772 5.16 33.3705 5.01333 33.5572 4.88C33.7572 4.73333 33.9372 4.60667 34.0972 4.5C33.9105 4.5 33.6972 4.5 33.4572 4.5C33.2172 4.5 32.9705 4.5 32.7172 4.5C32.4639 4.48667 32.2239 4.46667 31.9972 4.44C31.7705 4.41333 31.5705 4.37333 31.3972 4.32L30.9172 4.16L31.7172 1.68L32.1972 1.84C32.3572 1.89333 32.5439 1.98 32.7572 2.1C32.9705 2.20667 33.1772 2.33333 33.3772 2.48C33.5905 2.61333 33.7905 2.75333 33.9772 2.9C34.1772 3.03333 34.3505 3.16 34.4972 3.28C34.4305 3.10667 34.3572 2.90667 34.2772 2.68C34.2105 2.44 34.1439 2.2 34.0772 1.96C34.0105 1.72 33.9505 1.48667 33.8972 1.26C33.8572 1.02 33.8372 0.813333 33.8372 0.639999V0.14H36.4372V0.639999C36.4372 0.813333 36.4105 1.02 36.3572 1.26C36.3172 1.48667 36.2639 1.72 36.1972 1.96C36.1305 2.2 36.0572 2.44 35.9772 2.68C35.9105 2.90667 35.8439 3.10667 35.7772 3.28ZM50.6209 3.28C50.7543 3.16 50.9209 3.03333 51.1209 2.9C51.3209 2.75333 51.5209 2.61333 51.7209 2.48C51.9343 2.33333 52.1476 2.20667 52.3609 2.1C52.5743 1.98 52.7609 1.89333 52.9209 1.84L53.4009 1.68L54.2009 4.16L53.7209 4.32C53.5476 4.37333 53.3476 4.41333 53.1209 4.44C52.8943 4.46667 52.6543 4.48667 52.4009 4.5C52.1476 4.5 51.9009 4.5 51.6609 4.5C51.4209 4.5 51.2076 4.5 51.0209 4.5C51.1809 4.60667 51.3543 4.73333 51.5409 4.88C51.7409 5.01333 51.9343 5.16 52.1209 5.32C52.3209 5.46667 52.5076 5.62 52.6809 5.78C52.8543 5.94 52.9943 6.09333 53.1009 6.24L53.4209 6.66L51.3009 8.16L51.0009 7.76C50.8943 7.62667 50.7876 7.45333 50.6809 7.24C50.5876 7.02667 50.4943 6.80667 50.4009 6.58C50.3076 6.34 50.2276 6.10667 50.1609 5.88C50.0943 5.65333 50.0343 5.44667 49.9809 5.26C49.9276 5.44667 49.8676 5.65333 49.8009 5.88C49.7343 6.10667 49.6543 6.34 49.5609 6.58C49.4676 6.80667 49.3676 7.02667 49.2609 7.24C49.1676 7.45333 49.0676 7.62667 48.9609 7.76L48.6609 8.16L46.5409 6.66L46.8609 6.24C46.9676 6.09333 47.1076 5.94 47.2809 5.78C47.4543 5.62 47.6343 5.46667 47.8209 5.32C48.0209 5.16 48.2143 5.01333 48.4009 4.88C48.6009 4.73333 48.7809 4.60667 48.9409 4.5C48.7543 4.5 48.5409 4.5 48.3009 4.5C48.0609 4.5 47.8143 4.5 47.5609 4.5C47.3076 4.48667 47.0676 4.46667 46.8409 4.44C46.6143 4.41333 46.4143 4.37333 46.2409 4.32L45.7609 4.16L46.5609 1.68L47.0409 1.84C47.2009 1.89333 47.3876 1.98 47.6009 2.1C47.8143 2.20667 48.0209 2.33333 48.2209 2.48C48.4343 2.61333 48.6343 2.75333 48.8209 2.9C49.0209 3.03333 49.1943 3.16 49.3409 3.28C49.2743 3.10667 49.2009 2.90667 49.1209 2.68C49.0543 2.44 48.9876 2.2 48.9209 1.96C48.8543 1.72 48.7943 1.48667 48.7409 1.26C48.7009 1.02 48.6809 0.813333 48.6809 0.639999V0.14H51.2809V0.639999C51.2809 0.813333 51.2543 1.02 51.2009 1.26C51.1609 1.48667 51.1076 1.72 51.0409 1.96C50.9743 2.2 50.9009 2.44 50.8209 2.68C50.7543 2.90667 50.6876 3.10667 50.6209 3.28ZM60.66 3.28C60.7933 3.16 60.96 3.03333 61.16 2.9C61.36 2.75333 61.56 2.61333 61.76 2.48C61.9733 2.33333 62.1867 2.20667 62.4 2.1C62.6133 1.98 62.8 1.89333 62.96 1.84L63.44 1.68L64.24 4.16L63.76 4.32C63.5867 4.37333 63.3867 4.41333 63.16 4.44C62.9333 4.46667 62.6933 4.48667 62.44 4.5C62.1867 4.5 61.94 4.5 61.7 4.5C61.46 4.5 61.2467 4.5 61.06 4.5C61.22 4.60667 61.3933 4.73333 61.58 4.88C61.78 5.01333 61.9733 5.16 62.16 5.32C62.36 5.46667 62.5467 5.62 62.72 5.78C62.8933 5.94 63.0333 6.09333 63.14 6.24L63.46 6.66L61.34 8.16L61.04 7.76C60.9333 7.62667 60.8267 7.45333 60.72 7.24C60.6267 7.02667 60.5333 6.80667 60.44 6.58C60.3467 6.34 60.2667 6.10667 60.2 5.88C60.1333 5.65333 60.0733 5.44667 60.02 5.26C59.9667 5.44667 59.9067 5.65333 59.84 5.88C59.7733 6.10667 59.6933 6.34 59.6 6.58C59.5067 6.80667 59.4067 7.02667 59.3 7.24C59.2067 7.45333 59.1067 7.62667 59 7.76L58.7 8.16L56.58 6.66L56.9 6.24C57.0067 6.09333 57.1467 5.94 57.32 5.78C57.4933 5.62 57.6733 5.46667 57.86 5.32C58.06 5.16 58.2533 5.01333 58.44 4.88C58.64 4.73333 58.82 4.60667 58.98 4.5C58.7933 4.5 58.58 4.5 58.34 4.5C58.1 4.5 57.8533 4.5 57.6 4.5C57.3467 4.48667 57.1067 4.46667 56.88 4.44C56.6533 4.41333 56.4533 4.37333 56.28 4.32L55.8 4.16L56.6 1.68L57.08 1.84C57.24 1.89333 57.4267 1.98 57.64 2.1C57.8533 2.20667 58.06 2.33333 58.26 2.48C58.4733 2.61333 58.6733 2.75333 58.86 2.9C59.06 3.03333 59.2333 3.16 59.38 3.28C59.3133 3.10667 59.24 2.90667 59.16 2.68C59.0933 2.44 59.0267 2.2 58.96 1.96C58.8933 1.72 58.8333 1.48667 58.78 1.26C58.74 1.02 58.72 0.813333 58.72 0.639999V0.14H61.32V0.639999C61.32 0.813333 61.2933 1.02 61.24 1.26C61.2 1.48667 61.1467 1.72 61.08 1.96C61.0133 2.2 60.94 2.44 60.86 2.68C60.7933 2.90667 60.7267 3.10667 60.66 3.28ZM70.6991 3.28C70.8324 3.16 70.9991 3.03333 71.1991 2.9C71.3991 2.75333 71.5991 2.61333 71.7991 2.48C72.0124 2.33333 72.2257 2.20667 72.4391 2.1C72.6524 1.98 72.8391 1.89333 72.9991 1.84L73.4791 1.68L74.2791 4.16L73.7991 4.32C73.6257 4.37333 73.4257 4.41333 73.1991 4.44C72.9724 4.46667 72.7324 4.48667 72.4791 4.5C72.2257 4.5 71.9791 4.5 71.7391 4.5C71.4991 4.5 71.2857 4.5 71.0991 4.5C71.2591 4.60667 71.4324 4.73333 71.6191 4.88C71.8191 5.01333 72.0124 5.16 72.1991 5.32C72.3991 5.46667 72.5857 5.62 72.7591 5.78C72.9324 5.94 73.0724 6.09333 73.1791 6.24L73.4991 6.66L71.3791 8.16L71.0791 7.76C70.9724 7.62667 70.8657 7.45333 70.7591 7.24C70.6657 7.02667 70.5724 6.80667 70.4791 6.58C70.3857 6.34 70.3057 6.10667 70.2391 5.88C70.1724 5.65333 70.1124 5.44667 70.0591 5.26C70.0057 5.44667 69.9457 5.65333 69.8791 5.88C69.8124 6.10667 69.7324 6.34 69.6391 6.58C69.5457 6.80667 69.4457 7.02667 69.3391 7.24C69.2457 7.45333 69.1457 7.62667 69.0391 7.76L68.7391 8.16L66.6191 6.66L66.9391 6.24C67.0457 6.09333 67.1857 5.94 67.3591 5.78C67.5324 5.62 67.7124 5.46667 67.8991 5.32C68.0991 5.16 68.2924 5.01333 68.4791 4.88C68.6791 4.73333 68.8591 4.60667 69.0191 4.5C68.8324 4.5 68.6191 4.5 68.3791 4.5C68.1391 4.5 67.8924 4.5 67.6391 4.5C67.3857 4.48667 67.1457 4.46667 66.9191 4.44C66.6924 4.41333 66.4924 4.37333 66.3191 4.32L65.8391 4.16L66.6391 1.68L67.1191 1.84C67.2791 1.89333 67.4657 1.98 67.6791 2.1C67.8924 2.20667 68.0991 2.33333 68.2991 2.48C68.5124 2.61333 68.7124 2.75333 68.8991 2.9C69.0991 3.03333 69.2724 3.16 69.4191 3.28C69.3524 3.10667 69.2791 2.90667 69.1991 2.68C69.1324 2.44 69.0657 2.2 68.9991 1.96C68.9324 1.72 68.8724 1.48667 68.8191 1.26C68.7791 1.02 68.7591 0.813333 68.7591 0.639999V0.14H71.3591V0.639999C71.3591 0.813333 71.3324 1.02 71.2791 1.26C71.2391 1.48667 71.1857 1.72 71.1191 1.96C71.0524 2.2 70.9791 2.44 70.8991 2.68C70.8324 2.90667 70.7657 3.10667 70.6991 3.28ZM80.7381 3.28C80.8715 3.16 81.0381 3.03333 81.2381 2.9C81.4381 2.75333 81.6381 2.61333 81.8381 2.48C82.0515 2.33333 82.2648 2.20667 82.4781 2.1C82.6915 1.98 82.8781 1.89333 83.0381 1.84L83.5181 1.68L84.3181 4.16L83.8381 4.32C83.6648 4.37333 83.4648 4.41333 83.2381 4.44C83.0115 4.46667 82.7715 4.48667 82.5181 4.5C82.2648 4.5 82.0181 4.5 81.7781 4.5C81.5381 4.5 81.3248 4.5 81.1381 4.5C81.2981 4.60667 81.4715 4.73333 81.6581 4.88C81.8581 5.01333 82.0515 5.16 82.2381 5.32C82.4381 5.46667 82.6248 5.62 82.7981 5.78C82.9715 5.94 83.1115 6.09333 83.2181 6.24L83.5381 6.66L81.4181 8.16L81.1181 7.76C81.0115 7.62667 80.9048 7.45333 80.7981 7.24C80.7048 7.02667 80.6115 6.80667 80.5181 6.58C80.4248 6.34 80.3448 6.10667 80.2781 5.88C80.2115 5.65333 80.1515 5.44667 80.0981 5.26C80.0448 5.44667 79.9848 5.65333 79.9181 5.88C79.8515 6.10667 79.7715 6.34 79.6781 6.58C79.5848 6.80667 79.4848 7.02667 79.3781 7.24C79.2848 7.45333 79.1848 7.62667 79.0781 7.76L78.7781 8.16L76.6581 6.66L76.9781 6.24C77.0848 6.09333 77.2248 5.94 77.3981 5.78C77.5715 5.62 77.7515 5.46667 77.9381 5.32C78.1381 5.16 78.3315 5.01333 78.5181 4.88C78.7181 4.73333 78.8981 4.60667 79.0581 4.5C78.8715 4.5 78.6581 4.5 78.4181 4.5C78.1781 4.5 77.9315 4.5 77.6781 4.5C77.4248 4.48667 77.1848 4.46667 76.9581 4.44C76.7315 4.41333 76.5315 4.37333 76.3581 4.32L75.8781 4.16L76.6781 1.68L77.1581 1.84C77.3181 1.89333 77.5048 1.98 77.7181 2.1C77.9315 2.20667 78.1381 2.33333 78.3381 2.48C78.5515 2.61333 78.7515 2.75333 78.9381 2.9C79.1381 3.03333 79.3115 3.16 79.4581 3.28C79.3915 3.10667 79.3181 2.90667 79.2381 2.68C79.1715 2.44 79.1048 2.2 79.0381 1.96C78.9715 1.72 78.9115 1.48667 78.8581 1.26C78.8181 1.02 78.7981 0.813333 78.7981 0.639999V0.14H81.3981V0.639999C81.3981 0.813333 81.3715 1.02 81.3181 1.26C81.2781 1.48667 81.2248 1.72 81.1581 1.96C81.0915 2.2 81.0181 2.44 80.9381 2.68C80.8715 2.90667 80.8048 3.10667 80.7381 3.28ZM92.7619 14C92.8419 13.0267 93.0085 12.0133 93.2619 10.96C93.5152 9.90667 93.8219 8.87333 94.1819 7.86C94.5552 6.84667 94.9685 5.89333 95.4219 5C95.8752 4.09333 96.3352 3.31333 96.8019 2.66H90.7819V0.12H100.482V2.28C100.055 2.74667 99.5819 3.39333 99.0619 4.22C98.5552 5.04667 98.0685 5.98667 97.6019 7.04C97.1485 8.08 96.7485 9.2 96.4019 10.4C96.0685 11.6 95.8619 12.8 95.7819 14H92.7619ZM106.769 7.48C106.476 7.48 106.162 7.50667 105.829 7.56C105.496 7.61333 105.236 7.68667 105.049 7.78C105.049 7.83333 105.042 7.91333 105.029 8.02C105.029 8.12667 105.029 8.22 105.029 8.3C105.029 8.78 105.062 9.23333 105.129 9.66C105.196 10.0867 105.309 10.46 105.469 10.78C105.629 11.1 105.842 11.3533 106.109 11.54C106.376 11.7133 106.709 11.8 107.109 11.8C107.442 11.8 107.722 11.7333 107.949 11.6C108.189 11.4533 108.382 11.2733 108.529 11.06C108.689 10.8467 108.802 10.6133 108.869 10.36C108.949 10.0933 108.989 9.84 108.989 9.6C108.989 8.92 108.816 8.4 108.469 8.04C108.136 7.66667 107.569 7.48 106.769 7.48ZM107.149 5.16C108.016 5.16 108.749 5.28 109.349 5.52C109.962 5.74667 110.462 6.06 110.849 6.46C111.236 6.86 111.516 7.32667 111.689 7.86C111.862 8.39333 111.949 8.96 111.949 9.56C111.949 10.0933 111.849 10.64 111.649 11.2C111.462 11.76 111.169 12.2667 110.769 12.72C110.382 13.1733 109.882 13.5467 109.269 13.84C108.669 14.1333 107.956 14.28 107.129 14.28C105.462 14.28 104.196 13.7533 103.329 12.7C102.462 11.6467 102.029 10.1933 102.029 8.34C102.029 7.00667 102.236 5.82667 102.649 4.8C103.062 3.77333 103.649 2.91333 104.409 2.22C105.182 1.51333 106.109 0.98 107.189 0.619999C108.282 0.246666 109.509 0.0533329 110.869 0.0399997C110.896 0.453333 110.922 0.859999 110.949 1.26C110.976 1.64667 111.002 2.05333 111.029 2.48C110.349 2.49333 109.709 2.56 109.109 2.68C108.522 2.78667 107.982 2.96 107.489 3.2C107.009 3.44 106.589 3.75333 106.229 4.14C105.869 4.51333 105.589 4.97333 105.389 5.52C105.682 5.38667 105.982 5.29333 106.289 5.24C106.596 5.18667 106.882 5.16 107.149 5.16ZM119.856 9.92C119.856 9.53333 119.77 9.19333 119.596 8.9C119.423 8.59333 119.123 8.34 118.696 8.14C118.27 7.94 117.696 7.78667 116.976 7.68C116.256 7.57333 115.35 7.52 114.256 7.52C114.403 6.28 114.523 5.02 114.616 3.74C114.71 2.46 114.783 1.26 114.836 0.14H122.336V2.64H117.336C117.31 3.12 117.276 3.58667 117.236 4.04C117.21 4.48 117.176 4.86667 117.136 5.2C119.083 5.33333 120.516 5.79333 121.436 6.58C122.37 7.35333 122.836 8.43333 122.836 9.82C122.836 10.46 122.723 11.0533 122.496 11.6C122.27 12.1467 121.93 12.62 121.476 13.02C121.023 13.42 120.45 13.7333 119.756 13.96C119.076 14.1867 118.276 14.3 117.356 14.3C116.996 14.3 116.616 14.2733 116.216 14.22C115.83 14.18 115.45 14.12 115.076 14.04C114.716 13.9733 114.39 13.9 114.096 13.82C113.803 13.74 113.576 13.66 113.416 13.58L113.956 11.12C114.29 11.2667 114.73 11.4133 115.276 11.56C115.823 11.6933 116.476 11.76 117.236 11.76C118.156 11.76 118.823 11.58 119.236 11.22C119.65 10.8467 119.856 10.4133 119.856 9.92ZM130.403 3.78C129.883 4.46 129.33 5.2 128.743 6C128.157 6.8 127.663 7.62 127.263 8.46H130.403V3.78ZM133.323 0.14V8.46H134.803V10.9H133.323V14H130.403V10.9H124.423V8.72C124.717 8.13333 125.083 7.47333 125.523 6.74C125.963 5.99333 126.45 5.23333 126.983 4.46C127.53 3.67333 128.103 2.90667 128.703 2.16C129.303 1.41333 129.903 0.74 130.503 0.14H133.323Z" fill="#3D0072"/>
</svg>
