<svg width="42" height="46" viewBox="0 0 42 46" fill="none" xmlns="http://www.w3.org/2000/svg">
<ellipse cx="21" cy="23" rx="21" ry="23" fill="#F59E0B"/>
<path d="M21.1778 13.8633C16.0383 13.8633 11.8672 18.0344 11.8672 23.1738C11.8672 28.3133 16.0383 32.4844 21.1778 32.4844C26.3172 32.4844 30.4883 28.3133 30.4883 23.1738C30.4883 18.0344 26.3172 13.8633 21.1778 13.8633ZM21.1778 30.6223C17.0718 30.6223 13.7293 27.2798 13.7293 23.1738C13.7293 19.0679 17.0718 15.7254 21.1778 15.7254C25.2837 15.7254 28.6262 19.0679 28.6262 23.1738C28.6262 27.2798 25.2837 30.6223 21.1778 30.6223ZM16.0569 28.2947L23.0492 25.0453L26.2986 18.053L19.3063 21.3024L16.0569 28.2947ZM21.1778 22.1497C21.7457 22.1497 22.2019 22.6059 22.2019 23.1738C22.2019 23.7418 21.7457 24.198 21.1778 24.198C20.6098 24.198 20.1536 23.7418 20.1536 23.1738C20.1536 22.6059 20.6098 22.1497 21.1778 22.1497Z" fill="white"/>
</svg>
