<svg width="207" height="24" viewBox="0 0 207 24" fill="none" xmlns="http://www.w3.org/2000/svg">
<path d="M7 23C6.45 23 5.97933 22.8043 5.588 22.413C5.196 22.021 5 21.55 5 21V3C5 2.45 5.196 1.979 5.588 1.587C5.97933 1.19567 6.45 1 7 1H17C17.55 1 18.021 1.19567 18.413 1.587C18.8043 1.979 19 2.45 19 3V21C19 21.55 18.8043 22.021 18.413 22.413C18.021 22.8043 17.55 23 17 23H7ZM12 20.5C12.2833 20.5 12.521 20.404 12.713 20.212C12.9043 20.0207 13 19.7833 13 19.5C13 19.2167 12.9043 18.9793 12.713 18.788C12.521 18.596 12.2833 18.5 12 18.5C11.7167 18.5 11.4793 18.596 11.288 18.788C11.096 18.9793 11 19.2167 11 19.5C11 19.7833 11.096 20.0207 11.288 20.212C11.4793 20.404 11.7167 20.5 12 20.5ZM7 16H17V6H7V16Z" fill="#8807F7"/>
<path d="M39.256 18.24C38.424 18.24 37.6773 18.112 37.016 17.856C36.3547 17.6 35.7947 17.2267 35.336 16.736C34.8773 16.2347 34.5253 15.6267 34.28 14.912C34.0347 14.1973 33.912 13.376 33.912 12.448C33.912 11.52 34.0507 10.6987 34.328 9.984C34.616 9.26933 35.0053 8.66667 35.496 8.176C35.9867 7.67467 36.5627 7.296 37.224 7.04C37.8853 6.784 38.5947 6.656 39.352 6.656C39.8107 6.656 40.2267 6.69333 40.6 6.768C40.9733 6.832 41.2987 6.90667 41.576 6.992C41.8533 7.07733 42.0827 7.168 42.264 7.264C42.4453 7.36 42.5733 7.42933 42.648 7.472L42.056 9.12C41.8 8.96 41.432 8.81067 40.952 8.672C40.4827 8.52267 39.9707 8.448 39.416 8.448C38.936 8.448 38.488 8.53333 38.072 8.704C37.656 8.864 37.2933 9.10933 36.984 9.44C36.6853 9.77067 36.4507 10.1867 36.28 10.688C36.1093 11.1893 36.024 11.7707 36.024 12.432C36.024 13.0187 36.088 13.5573 36.216 14.048C36.3547 14.5387 36.5627 14.9653 36.84 15.328C37.1173 15.68 37.4693 15.9573 37.896 16.16C38.3227 16.352 38.8347 16.448 39.432 16.448C40.1467 16.448 40.728 16.3787 41.176 16.24C41.624 16.0907 41.9707 15.952 42.216 15.824L42.76 17.472C42.632 17.5573 42.456 17.6427 42.232 17.728C42.0187 17.8133 41.7627 17.8987 41.464 17.984C41.1653 18.0587 40.8293 18.1173 40.456 18.16C40.0827 18.2133 39.6827 18.24 39.256 18.24ZM44.4351 18V5.904L46.3711 5.584V9.728C46.5845 9.65333 46.8298 9.58933 47.1071 9.536C47.3951 9.48267 47.6778 9.456 47.9551 9.456C48.6271 9.456 49.1818 9.552 49.6191 9.744C50.0671 9.92533 50.4245 10.1867 50.6911 10.528C50.9578 10.8587 51.1445 11.2587 51.2511 11.728C51.3685 12.1973 51.4271 12.72 51.4271 13.296V18H49.4911V13.6C49.4911 13.152 49.4591 12.7733 49.3951 12.464C49.3418 12.144 49.2458 11.888 49.1071 11.696C48.9791 11.4933 48.8031 11.3493 48.5791 11.264C48.3551 11.168 48.0778 11.12 47.7471 11.12C47.4911 11.12 47.2298 11.1467 46.9631 11.2C46.6965 11.2533 46.4991 11.3013 46.3711 11.344V18H44.4351ZM56.6916 16.64C57.289 16.64 57.7423 16.608 58.0516 16.544V14.4C57.945 14.368 57.7903 14.336 57.5876 14.304C57.385 14.272 57.161 14.256 56.9156 14.256C56.7023 14.256 56.4836 14.272 56.2596 14.304C56.0463 14.336 55.849 14.3947 55.6676 14.48C55.497 14.5653 55.3583 14.688 55.2516 14.848C55.145 14.9973 55.0916 15.1893 55.0916 15.424C55.0916 15.8827 55.2356 16.2027 55.5236 16.384C55.8116 16.5547 56.201 16.64 56.6916 16.64ZM56.5316 9.424C57.1716 9.424 57.7103 9.504 58.1476 9.664C58.585 9.824 58.9316 10.048 59.1876 10.336C59.4543 10.624 59.641 10.976 59.7476 11.392C59.865 11.7973 59.9236 12.2453 59.9236 12.736V17.808C59.625 17.872 59.1716 17.9467 58.5636 18.032C57.9663 18.128 57.289 18.176 56.5316 18.176C56.0303 18.176 55.5716 18.128 55.1556 18.032C54.7396 17.936 54.3823 17.7813 54.0836 17.568C53.7956 17.3547 53.5663 17.0773 53.3956 16.736C53.2356 16.3947 53.1556 15.9733 53.1556 15.472C53.1556 14.992 53.2463 14.5867 53.4276 14.256C53.6196 13.9253 53.8756 13.6587 54.1956 13.456C54.5156 13.2427 54.8836 13.0933 55.2996 13.008C55.7263 12.912 56.169 12.864 56.6276 12.864C56.841 12.864 57.065 12.88 57.2996 12.912C57.5343 12.9333 57.785 12.976 58.0516 13.04V12.72C58.0516 12.496 58.025 12.2827 57.9716 12.08C57.9183 11.8773 57.8223 11.7013 57.6836 11.552C57.5556 11.392 57.3796 11.2693 57.1556 11.184C56.9423 11.0987 56.6703 11.056 56.3396 11.056C55.8916 11.056 55.481 11.088 55.1076 11.152C54.7343 11.216 54.4303 11.2907 54.1956 11.376L53.9556 9.808C54.201 9.72267 54.5583 9.63733 55.0276 9.552C55.497 9.46667 55.9983 9.424 56.5316 9.424ZM62.2945 9.904C62.6678 9.79733 63.1532 9.696 63.7505 9.6C64.3478 9.504 65.0092 9.456 65.7345 9.456C66.4172 9.456 66.9878 9.552 67.4465 9.744C67.9052 9.92533 68.2678 10.1867 68.5345 10.528C68.8118 10.8587 69.0038 11.264 69.1105 11.744C69.2278 12.2133 69.2865 12.7307 69.2865 13.296V18H67.3505V13.6C67.3505 13.152 67.3185 12.7733 67.2545 12.464C67.2012 12.144 67.1052 11.888 66.9665 11.696C66.8385 11.4933 66.6572 11.3493 66.4225 11.264C66.1985 11.168 65.9212 11.12 65.5905 11.12C65.3452 11.12 65.0892 11.136 64.8225 11.168C64.5558 11.2 64.3585 11.2267 64.2305 11.248V18H62.2945V9.904ZM73.1739 13.6C73.1739 14.4213 73.3499 15.024 73.7019 15.408C74.0645 15.7813 74.5285 15.968 75.0939 15.968C75.4032 15.968 75.6912 15.9253 75.9579 15.84C76.2352 15.7547 76.4592 15.6533 76.6299 15.536V11.2C76.4912 11.168 76.3205 11.1413 76.1179 11.12C75.9152 11.088 75.6592 11.072 75.3499 11.072C74.6459 11.072 74.1072 11.3067 73.7339 11.776C73.3605 12.2347 73.1739 12.8427 73.1739 13.6ZM78.5659 17.152C78.5659 18.4853 78.2245 19.4613 77.5419 20.08C76.8699 20.6987 75.8352 21.008 74.4379 21.008C73.9259 21.008 73.4245 20.9653 72.9339 20.88C72.4539 20.7947 72.0165 20.6827 71.6219 20.544L71.9739 18.896C72.3045 19.0347 72.6779 19.1467 73.0939 19.232C73.5205 19.3173 73.9792 19.36 74.4699 19.36C75.2485 19.36 75.8032 19.2 76.1339 18.88C76.4645 18.56 76.6299 18.0853 76.6299 17.456V17.136C76.4379 17.232 76.1819 17.328 75.8619 17.424C75.5525 17.52 75.1952 17.568 74.7899 17.568C74.2565 17.568 73.7659 17.4827 73.3179 17.312C72.8805 17.1413 72.5019 16.8907 72.1819 16.56C71.8725 16.2293 71.6272 15.8187 71.4459 15.328C71.2752 14.8267 71.1899 14.2507 71.1899 13.6C71.1899 12.992 71.2805 12.432 71.4619 11.92C71.6539 11.408 71.9259 10.9707 72.2779 10.608C72.6405 10.2453 73.0779 9.96267 73.5899 9.76C74.1019 9.55733 74.6832 9.456 75.3339 9.456C75.9632 9.456 76.5605 9.504 77.1259 9.6C77.6912 9.696 78.1712 9.79733 78.5659 9.904V17.152ZM80.5649 13.856C80.5649 13.12 80.6715 12.4747 80.8849 11.92C81.1089 11.3653 81.4022 10.9067 81.7649 10.544C82.1275 10.1707 82.5435 9.89333 83.0129 9.712C83.4822 9.52 83.9622 9.424 84.4529 9.424C85.6049 9.424 86.5009 9.78133 87.1409 10.496C87.7915 11.2107 88.1169 12.2773 88.1169 13.696C88.1169 13.8027 88.1115 13.9253 88.1009 14.064C88.1009 14.192 88.0955 14.3093 88.0849 14.416H82.5649C82.6182 15.088 82.8529 15.6107 83.2689 15.984C83.6955 16.3467 84.3089 16.528 85.1089 16.528C85.5782 16.528 86.0049 16.4853 86.3889 16.4C86.7835 16.3147 87.0929 16.224 87.3169 16.128L87.5729 17.712C87.4662 17.7653 87.3169 17.824 87.1249 17.888C86.9435 17.9413 86.7302 17.9893 86.4849 18.032C86.2502 18.0853 85.9942 18.128 85.7169 18.16C85.4395 18.192 85.1569 18.208 84.8689 18.208C84.1329 18.208 83.4929 18.1013 82.9489 17.888C82.4049 17.664 81.9569 17.36 81.6049 16.976C81.2529 16.5813 80.9915 16.1227 80.8209 15.6C80.6502 15.0667 80.5649 14.4853 80.5649 13.856ZM86.1809 12.992C86.1809 12.7253 86.1435 12.4747 86.0689 12.24C85.9942 11.9947 85.8822 11.7867 85.7329 11.616C85.5942 11.4347 85.4182 11.296 85.2049 11.2C85.0022 11.0933 84.7569 11.04 84.4689 11.04C84.1702 11.04 83.9089 11.0987 83.6849 11.216C83.4609 11.3227 83.2689 11.4667 83.1089 11.648C82.9595 11.8293 82.8422 12.0373 82.7569 12.272C82.6715 12.5067 82.6129 12.7467 82.5809 12.992H86.1809ZM97.1359 6.8C98.7465 6.8 99.9785 7.09333 100.832 7.68C101.696 8.26667 102.128 9.184 102.128 10.432C102.128 11.0827 102.011 11.6427 101.776 12.112C101.552 12.5707 101.221 12.9493 100.784 13.248C100.347 13.536 99.8132 13.7493 99.1839 13.888C98.5545 14.0267 97.8345 14.096 97.0239 14.096H96.0159V18H93.9999V7.072C94.4692 6.96533 94.9865 6.896 95.5519 6.864C96.1279 6.82133 96.6559 6.8 97.1359 6.8ZM97.2799 8.544C96.7679 8.544 96.3465 8.56 96.0159 8.592V12.368H96.9919C97.9625 12.368 98.7092 12.2347 99.2319 11.968C99.7545 11.6907 100.016 11.1733 100.016 10.416C100.016 10.0533 99.9465 9.74933 99.8079 9.504C99.6692 9.25867 99.4772 9.06667 99.2319 8.928C98.9865 8.78933 98.6932 8.69333 98.3519 8.64C98.0212 8.576 97.6639 8.544 97.2799 8.544ZM103.873 18V5.904L105.809 5.584V9.728C106.022 9.65333 106.267 9.58933 106.545 9.536C106.833 9.48267 107.115 9.456 107.393 9.456C108.065 9.456 108.619 9.552 109.057 9.744C109.505 9.92533 109.862 10.1867 110.129 10.528C110.395 10.8587 110.582 11.2587 110.689 11.728C110.806 12.1973 110.865 12.72 110.865 13.296V18H108.929V13.6C108.929 13.152 108.897 12.7733 108.833 12.464C108.779 12.144 108.683 11.888 108.545 11.696C108.417 11.4933 108.241 11.3493 108.017 11.264C107.793 11.168 107.515 11.12 107.185 11.12C106.929 11.12 106.667 11.1467 106.401 11.2C106.134 11.2533 105.937 11.3013 105.809 11.344V18H103.873ZM120.753 13.808C120.753 14.4693 120.657 15.072 120.465 15.616C120.273 16.16 120.001 16.624 119.649 17.008C119.297 17.392 118.87 17.6907 118.369 17.904C117.878 18.1173 117.334 18.224 116.737 18.224C116.14 18.224 115.596 18.1173 115.105 17.904C114.614 17.6907 114.193 17.392 113.841 17.008C113.489 16.624 113.212 16.16 113.009 15.616C112.817 15.072 112.721 14.4693 112.721 13.808C112.721 13.1467 112.817 12.5493 113.009 12.016C113.212 11.472 113.489 11.008 113.841 10.624C114.204 10.24 114.63 9.94667 115.121 9.744C115.612 9.53067 116.15 9.424 116.737 9.424C117.324 9.424 117.862 9.53067 118.353 9.744C118.854 9.94667 119.281 10.24 119.633 10.624C119.985 11.008 120.257 11.472 120.449 12.016C120.652 12.5493 120.753 13.1467 120.753 13.808ZM118.769 13.808C118.769 12.976 118.588 12.32 118.225 11.84C117.873 11.3493 117.377 11.104 116.737 11.104C116.097 11.104 115.596 11.3493 115.233 11.84C114.881 12.32 114.705 12.976 114.705 13.808C114.705 14.6507 114.881 15.3173 115.233 15.808C115.596 16.2987 116.097 16.544 116.737 16.544C117.377 16.544 117.873 16.2987 118.225 15.808C118.588 15.3173 118.769 14.6507 118.769 13.808ZM122.748 9.904C123.121 9.79733 123.606 9.696 124.204 9.6C124.801 9.504 125.462 9.456 126.188 9.456C126.87 9.456 127.441 9.552 127.9 9.744C128.358 9.92533 128.721 10.1867 128.988 10.528C129.265 10.8587 129.457 11.264 129.564 11.744C129.681 12.2133 129.74 12.7307 129.74 13.296V18H127.804V13.6C127.804 13.152 127.772 12.7733 127.708 12.464C127.654 12.144 127.558 11.888 127.42 11.696C127.292 11.4933 127.11 11.3493 126.876 11.264C126.652 11.168 126.374 11.12 126.044 11.12C125.798 11.12 125.542 11.136 125.276 11.168C125.009 11.2 124.812 11.2267 124.684 11.248V18H122.748V9.904ZM131.643 13.856C131.643 13.12 131.75 12.4747 131.963 11.92C132.187 11.3653 132.48 10.9067 132.843 10.544C133.206 10.1707 133.622 9.89333 134.091 9.712C134.56 9.52 135.04 9.424 135.531 9.424C136.683 9.424 137.579 9.78133 138.219 10.496C138.87 11.2107 139.195 12.2773 139.195 13.696C139.195 13.8027 139.19 13.9253 139.179 14.064C139.179 14.192 139.174 14.3093 139.163 14.416H133.643C133.696 15.088 133.931 15.6107 134.347 15.984C134.774 16.3467 135.387 16.528 136.187 16.528C136.656 16.528 137.083 16.4853 137.467 16.4C137.862 16.3147 138.171 16.224 138.395 16.128L138.651 17.712C138.544 17.7653 138.395 17.824 138.203 17.888C138.022 17.9413 137.808 17.9893 137.563 18.032C137.328 18.0853 137.072 18.128 136.795 18.16C136.518 18.192 136.235 18.208 135.947 18.208C135.211 18.208 134.571 18.1013 134.027 17.888C133.483 17.664 133.035 17.36 132.683 16.976C132.331 16.5813 132.07 16.1227 131.899 15.6C131.728 15.0667 131.643 14.4853 131.643 13.856ZM137.259 12.992C137.259 12.7253 137.222 12.4747 137.147 12.24C137.072 11.9947 136.96 11.7867 136.811 11.616C136.672 11.4347 136.496 11.296 136.283 11.2C136.08 11.0933 135.835 11.04 135.547 11.04C135.248 11.04 134.987 11.0987 134.763 11.216C134.539 11.3227 134.347 11.4667 134.187 11.648C134.038 11.8293 133.92 12.0373 133.835 12.272C133.75 12.5067 133.691 12.7467 133.659 12.992H137.259ZM152.55 18C152.187 17.392 151.782 16.7413 151.334 16.048C150.886 15.344 150.422 14.64 149.942 13.936C149.462 13.2213 148.971 12.5333 148.47 11.872C147.979 11.2 147.51 10.5973 147.062 10.064V18H145.078V6.912H146.726C147.153 7.36 147.611 7.89333 148.102 8.512C148.593 9.12 149.083 9.75467 149.574 10.416C150.075 11.0773 150.555 11.744 151.014 12.416C151.483 13.0773 151.899 13.696 152.262 14.272V6.912H154.262V18H152.55ZM163.69 17.744C163.316 17.84 162.831 17.936 162.234 18.032C161.636 18.1387 160.98 18.192 160.266 18.192C159.594 18.192 159.028 18.096 158.57 17.904C158.122 17.712 157.759 17.4453 157.482 17.104C157.215 16.7627 157.023 16.3573 156.906 15.888C156.788 15.408 156.73 14.8853 156.73 14.32V9.632H158.666V14.016C158.666 14.912 158.794 15.552 159.05 15.936C159.316 16.32 159.775 16.512 160.426 16.512C160.66 16.512 160.906 16.5013 161.162 16.48C161.428 16.4587 161.626 16.432 161.754 16.4V9.632H163.69V17.744ZM170.922 13.6C170.922 12.7253 170.81 12.096 170.586 11.712C170.373 11.3173 169.967 11.12 169.37 11.12C169.157 11.12 168.922 11.136 168.666 11.168C168.41 11.2 168.218 11.2267 168.09 11.248V18H166.154V9.904C166.527 9.79733 167.013 9.696 167.61 9.6C168.218 9.504 168.858 9.456 169.53 9.456C170.106 9.456 170.575 9.53067 170.938 9.68C171.311 9.82933 171.621 10.0267 171.866 10.272C171.983 10.1867 172.133 10.096 172.314 10C172.495 9.904 172.698 9.81867 172.922 9.744C173.146 9.65867 173.381 9.58933 173.626 9.536C173.882 9.48267 174.138 9.456 174.394 9.456C175.045 9.456 175.578 9.552 175.994 9.744C176.421 9.92533 176.751 10.1867 176.986 10.528C177.231 10.8587 177.397 11.264 177.482 11.744C177.578 12.2133 177.626 12.7307 177.626 13.296V18H175.69V13.6C175.69 12.7253 175.583 12.096 175.37 11.712C175.157 11.3173 174.746 11.12 174.138 11.12C173.829 11.12 173.535 11.1733 173.258 11.28C172.981 11.376 172.773 11.472 172.634 11.568C172.719 11.8347 172.778 12.1173 172.81 12.416C172.842 12.7147 172.858 13.0347 172.858 13.376V18H170.922V13.6ZM185.55 13.792C185.55 12.9707 185.384 12.32 185.054 11.84C184.734 11.36 184.222 11.12 183.518 11.12C183.198 11.12 182.894 11.168 182.606 11.264C182.328 11.36 182.104 11.4667 181.934 11.584V16.4C182.072 16.432 182.248 16.464 182.462 16.496C182.686 16.5173 182.952 16.528 183.262 16.528C183.976 16.528 184.536 16.288 184.942 15.808C185.347 15.3173 185.55 14.6453 185.55 13.792ZM187.534 13.824C187.534 14.496 187.432 15.104 187.23 15.648C187.038 16.1813 186.755 16.64 186.382 17.024C186.019 17.408 185.576 17.7013 185.054 17.904C184.531 18.1067 183.939 18.208 183.278 18.208C182.638 18.208 182.024 18.16 181.438 18.064C180.862 17.968 180.382 17.8613 179.998 17.744V5.904L181.934 5.584V9.92C182.158 9.80267 182.43 9.696 182.75 9.6C183.08 9.504 183.443 9.456 183.838 9.456C184.424 9.456 184.947 9.56267 185.406 9.776C185.875 9.97867 186.264 10.272 186.574 10.656C186.883 11.04 187.118 11.504 187.278 12.048C187.448 12.5813 187.534 13.1733 187.534 13.824ZM189.065 13.856C189.065 13.12 189.172 12.4747 189.385 11.92C189.609 11.3653 189.902 10.9067 190.265 10.544C190.628 10.1707 191.044 9.89333 191.513 9.712C191.982 9.52 192.462 9.424 192.953 9.424C194.105 9.424 195.001 9.78133 195.641 10.496C196.292 11.2107 196.617 12.2773 196.617 13.696C196.617 13.8027 196.612 13.9253 196.601 14.064C196.601 14.192 196.596 14.3093 196.585 14.416H191.065C191.118 15.088 191.353 15.6107 191.769 15.984C192.196 16.3467 192.809 16.528 193.609 16.528C194.078 16.528 194.505 16.4853 194.889 16.4C195.284 16.3147 195.593 16.224 195.817 16.128L196.073 17.712C195.966 17.7653 195.817 17.824 195.625 17.888C195.444 17.9413 195.23 17.9893 194.985 18.032C194.75 18.0853 194.494 18.128 194.217 18.16C193.94 18.192 193.657 18.208 193.369 18.208C192.633 18.208 191.993 18.1013 191.449 17.888C190.905 17.664 190.457 17.36 190.105 16.976C189.753 16.5813 189.492 16.1227 189.321 15.6C189.15 15.0667 189.065 14.4853 189.065 13.856ZM194.681 12.992C194.681 12.7253 194.644 12.4747 194.569 12.24C194.494 11.9947 194.382 11.7867 194.233 11.616C194.094 11.4347 193.918 11.296 193.705 11.2C193.502 11.0933 193.257 11.04 192.969 11.04C192.67 11.04 192.409 11.0987 192.185 11.216C191.961 11.3227 191.769 11.4667 191.609 11.648C191.46 11.8293 191.342 12.0373 191.257 12.272C191.172 12.5067 191.113 12.7467 191.081 12.992H194.681ZM203.438 11.376C203.278 11.3227 203.054 11.2693 202.766 11.216C202.488 11.152 202.163 11.12 201.79 11.12C201.576 11.12 201.347 11.1413 201.102 11.184C200.867 11.2267 200.702 11.264 200.606 11.296V18H198.67V10.032C199.043 9.89333 199.507 9.76533 200.062 9.648C200.627 9.52 201.251 9.456 201.934 9.456C202.062 9.456 202.211 9.46667 202.382 9.488C202.552 9.49867 202.723 9.52 202.894 9.552C203.064 9.57333 203.23 9.60533 203.39 9.648C203.55 9.68 203.678 9.712 203.774 9.744L203.438 11.376Z" fill="#8807F7"/>
</svg>
