<svg width="167" height="22" viewBox="0 0 167 22" fill="none" xmlns="http://www.w3.org/2000/svg">
<path d="M6.66946 0.000844076C5.79719 -0.00902469 4.93163 0.154256 4.1229 0.48123C3.31417 0.808205 2.57835 1.29238 1.95804 1.9057C1.33773 2.51903 0.845268 3.24933 0.509165 4.05431C0.173063 4.85929 0 5.72294 0 6.59527C0 7.4676 0.173063 8.33125 0.509165 9.13623C0.845268 9.94121 1.33773 10.6715 1.95804 11.2848C2.57835 11.8982 3.31417 12.3823 4.1229 12.7093C4.93163 13.0363 5.79719 13.1996 6.66946 13.1897C8.41852 13.1897 10.0959 12.4949 11.3327 11.2581C12.5695 10.0213 13.2643 8.34391 13.2643 6.59485C13.2643 4.84579 12.5695 3.16836 11.3327 1.93159C10.0959 0.694812 8.41852 3.68587e-08 6.66946 0V0.000844076ZM4.55924 2.29423C4.847 2.29367 5.13205 2.34995 5.398 2.45984C5.66396 2.56974 5.90559 2.73107 6.10903 2.93459C6.31247 3.13811 6.47372 3.37981 6.58351 3.64581C6.6933 3.9118 6.74947 4.19687 6.7488 4.48463C6.74958 4.77239 6.69348 5.05746 6.58372 5.32346C6.47396 5.58946 6.31271 5.83115 6.10923 6.03462C5.90576 6.2381 5.66407 6.39935 5.39807 6.50911C5.13207 6.61887 4.847 6.67497 4.55924 6.67419C4.27148 6.67497 3.98641 6.61887 3.72041 6.50911C3.45441 6.39935 3.21272 6.2381 3.00925 6.03462C2.80577 5.83115 2.64452 5.58946 2.53476 5.32346C2.425 5.05746 2.3689 4.77239 2.36968 4.48463C2.36912 4.19694 2.42538 3.91197 2.53522 3.64607C2.64506 3.38017 2.80632 3.13857 3.00975 2.93514C3.21318 2.73171 3.45477 2.57045 3.72067 2.46061C3.98658 2.35077 4.27155 2.29451 4.55924 2.29507V2.29423ZM13.9235 9.65382C13.6919 10.1952 13.3997 10.7086 13.0524 11.1841L19.6473 17.7782C19.786 17.9187 19.8637 18.1082 19.8637 18.3057C19.8637 18.5032 19.786 18.6927 19.6473 18.8333C19.5065 18.9715 19.3171 19.049 19.1197 19.049C18.9224 19.049 18.733 18.9715 18.5922 18.8333L12.0767 12.2916C11.2539 13.0711 10.2735 13.6652 9.20172 14.0338V15.1944C9.20172 15.5658 9.51487 15.8798 9.88796 15.8798H11.734V17.7267C11.734 18.0981 12.0471 18.4121 12.4202 18.4121H14.2662V20.2589C14.2662 20.6303 14.5802 20.9443 14.9525 20.9443H16.8247L17.2999 21.4195C17.5886 21.7074 20.4804 21.8517 21.2038 21.1292C21.9272 20.4049 21.7811 17.5131 21.4933 17.2253L13.9235 9.65466V9.65382Z" fill="#8807F7"/>
<path d="M38.9855 18.8943C38.1535 18.8943 37.4068 18.7663 36.7455 18.5103C36.0842 18.2543 35.5242 17.881 35.0655 17.3903C34.6068 16.889 34.2548 16.281 34.0095 15.5663C33.7642 14.8516 33.6415 14.0303 33.6415 13.1023C33.6415 12.1743 33.7802 11.353 34.0575 10.6383C34.3455 9.92363 34.7348 9.32096 35.2255 8.8303C35.7162 8.32896 36.2922 7.9503 36.9535 7.6943C37.6148 7.4383 38.3242 7.3103 39.0815 7.3103C39.5402 7.3103 39.9562 7.34763 40.3295 7.4223C40.7028 7.4863 41.0282 7.56096 41.3055 7.6463C41.5828 7.73163 41.8122 7.8223 41.9935 7.9183C42.1748 8.0143 42.3028 8.08363 42.3775 8.1263L41.7855 9.7743C41.5295 9.6143 41.1615 9.46496 40.6815 9.3263C40.2122 9.17696 39.7002 9.1023 39.1455 9.1023C38.6655 9.1023 38.2175 9.18763 37.8015 9.3583C37.3855 9.5183 37.0228 9.76363 36.7135 10.0943C36.4148 10.425 36.1802 10.841 36.0095 11.3423C35.8388 11.8436 35.7535 12.425 35.7535 13.0863C35.7535 13.673 35.8175 14.2116 35.9455 14.7023C36.0842 15.193 36.2922 15.6196 36.5695 15.9823C36.8468 16.3343 37.1988 16.6116 37.6255 16.8143C38.0522 17.0063 38.5642 17.1023 39.1615 17.1023C39.8762 17.1023 40.4575 17.033 40.9055 16.8943C41.3535 16.745 41.7002 16.6063 41.9455 16.4783L42.4895 18.1263C42.3615 18.2116 42.1855 18.297 41.9615 18.3823C41.7482 18.4676 41.4922 18.553 41.1935 18.6383C40.8948 18.713 40.5588 18.7716 40.1855 18.8143C39.8122 18.8676 39.4122 18.8943 38.9855 18.8943ZM44.1646 18.6543V6.5583L46.1006 6.2383V10.3823C46.314 10.3076 46.5593 10.2436 46.8366 10.1903C47.1246 10.137 47.4073 10.1103 47.6846 10.1103C48.3566 10.1103 48.9113 10.2063 49.3486 10.3983C49.7966 10.5796 50.154 10.841 50.4206 11.1823C50.6873 11.513 50.874 11.913 50.9806 12.3823C51.098 12.8516 51.1566 13.3743 51.1566 13.9503V18.6543H49.2206V14.2543C49.2206 13.8063 49.1886 13.4276 49.1246 13.1183C49.0713 12.7983 48.9753 12.5423 48.8366 12.3503C48.7086 12.1476 48.5326 12.0036 48.3086 11.9183C48.0846 11.8223 47.8073 11.7743 47.4766 11.7743C47.2206 11.7743 46.9593 11.801 46.6926 11.8543C46.426 11.9076 46.2286 11.9556 46.1006 11.9983V18.6543H44.1646ZM56.4211 17.2943C57.0185 17.2943 57.4718 17.2623 57.7811 17.1983V15.0543C57.6745 15.0223 57.5198 14.9903 57.3171 14.9583C57.1145 14.9263 56.8905 14.9103 56.6451 14.9103C56.4318 14.9103 56.2131 14.9263 55.9891 14.9583C55.7758 14.9903 55.5785 15.049 55.3971 15.1343C55.2265 15.2196 55.0878 15.3423 54.9811 15.5023C54.8745 15.6516 54.8211 15.8436 54.8211 16.0783C54.8211 16.537 54.9651 16.857 55.2531 17.0383C55.5411 17.209 55.9305 17.2943 56.4211 17.2943ZM56.2611 10.0783C56.9011 10.0783 57.4398 10.1583 57.8771 10.3183C58.3145 10.4783 58.6611 10.7023 58.9171 10.9903C59.1838 11.2783 59.3705 11.6303 59.4771 12.0463C59.5945 12.4516 59.6531 12.8996 59.6531 13.3903V18.4623C59.3545 18.5263 58.9011 18.601 58.2931 18.6863C57.6958 18.7823 57.0185 18.8303 56.2611 18.8303C55.7598 18.8303 55.3011 18.7823 54.8851 18.6863C54.4691 18.5903 54.1118 18.4356 53.8131 18.2223C53.5251 18.009 53.2958 17.7316 53.1251 17.3903C52.9651 17.049 52.8851 16.6276 52.8851 16.1263C52.8851 15.6463 52.9758 15.241 53.1571 14.9103C53.3491 14.5796 53.6051 14.313 53.9251 14.1103C54.2451 13.897 54.6131 13.7476 55.0291 13.6623C55.4558 13.5663 55.8985 13.5183 56.3571 13.5183C56.5705 13.5183 56.7945 13.5343 57.0291 13.5663C57.2638 13.5876 57.5145 13.6303 57.7811 13.6943V13.3743C57.7811 13.1503 57.7545 12.937 57.7011 12.7343C57.6478 12.5316 57.5518 12.3556 57.4131 12.2063C57.2851 12.0463 57.1091 11.9236 56.8851 11.8383C56.6718 11.753 56.3998 11.7103 56.0691 11.7103C55.6211 11.7103 55.2105 11.7423 54.8371 11.8063C54.4638 11.8703 54.1598 11.945 53.9251 12.0303L53.6851 10.4623C53.9305 10.377 54.2878 10.2916 54.7571 10.2063C55.2265 10.121 55.7278 10.0783 56.2611 10.0783ZM62.024 10.5583C62.3973 10.4516 62.8827 10.3503 63.48 10.2543C64.0773 10.1583 64.7387 10.1103 65.464 10.1103C66.1467 10.1103 66.7173 10.2063 67.176 10.3983C67.6347 10.5796 67.9973 10.841 68.264 11.1823C68.5413 11.513 68.7333 11.9183 68.84 12.3983C68.9573 12.8676 69.016 13.385 69.016 13.9503V18.6543H67.08V14.2543C67.08 13.8063 67.048 13.4276 66.984 13.1183C66.9307 12.7983 66.8347 12.5423 66.696 12.3503C66.568 12.1476 66.3867 12.0036 66.152 11.9183C65.928 11.8223 65.6507 11.7743 65.32 11.7743C65.0747 11.7743 64.8187 11.7903 64.552 11.8223C64.2853 11.8543 64.088 11.881 63.96 11.9023V18.6543H62.024V10.5583ZM72.9034 14.2543C72.9034 15.0756 73.0794 15.6783 73.4314 16.0623C73.794 16.4356 74.258 16.6223 74.8234 16.6223C75.1327 16.6223 75.4207 16.5796 75.6874 16.4943C75.9647 16.409 76.1887 16.3076 76.3594 16.1903V11.8543C76.2207 11.8223 76.05 11.7956 75.8474 11.7743C75.6447 11.7423 75.3887 11.7263 75.0794 11.7263C74.3754 11.7263 73.8367 11.961 73.4634 12.4303C73.09 12.889 72.9034 13.497 72.9034 14.2543ZM78.2954 17.8063C78.2954 19.1396 77.954 20.1156 77.2714 20.7343C76.5994 21.353 75.5647 21.6623 74.1674 21.6623C73.6554 21.6623 73.154 21.6196 72.6634 21.5343C72.1834 21.449 71.746 21.337 71.3514 21.1983L71.7034 19.5503C72.034 19.689 72.4074 19.801 72.8234 19.8863C73.25 19.9716 73.7087 20.0143 74.1994 20.0143C74.978 20.0143 75.5327 19.8543 75.8634 19.5343C76.194 19.2143 76.3594 18.7396 76.3594 18.1103V17.7903C76.1674 17.8863 75.9114 17.9823 75.5914 18.0783C75.282 18.1743 74.9247 18.2223 74.5194 18.2223C73.986 18.2223 73.4954 18.137 73.0474 17.9663C72.61 17.7956 72.2314 17.545 71.9114 17.2143C71.602 16.8836 71.3567 16.473 71.1754 15.9823C71.0047 15.481 70.9194 14.905 70.9194 14.2543C70.9194 13.6463 71.01 13.0863 71.1914 12.5743C71.3834 12.0623 71.6554 11.625 72.0074 11.2623C72.37 10.8996 72.8074 10.617 73.3194 10.4143C73.8314 10.2116 74.4127 10.1103 75.0634 10.1103C75.6927 10.1103 76.29 10.1583 76.8554 10.2543C77.4207 10.3503 77.9007 10.4516 78.2954 10.5583V17.8063ZM80.2944 14.5103C80.2944 13.7743 80.401 13.129 80.6144 12.5743C80.8384 12.0196 81.1317 11.561 81.4944 11.1983C81.857 10.825 82.273 10.5476 82.7424 10.3663C83.2117 10.1743 83.6917 10.0783 84.1824 10.0783C85.3344 10.0783 86.2304 10.4356 86.8704 11.1503C87.521 11.865 87.8464 12.9316 87.8464 14.3503C87.8464 14.457 87.841 14.5796 87.8304 14.7183C87.8304 14.8463 87.825 14.9636 87.8144 15.0703H82.2944C82.3477 15.7423 82.5824 16.265 82.9984 16.6383C83.425 17.001 84.0384 17.1823 84.8384 17.1823C85.3077 17.1823 85.7344 17.1396 86.1184 17.0543C86.513 16.969 86.8224 16.8783 87.0464 16.7823L87.3024 18.3663C87.1957 18.4196 87.0464 18.4783 86.8544 18.5423C86.673 18.5956 86.4597 18.6436 86.2144 18.6863C85.9797 18.7396 85.7237 18.7823 85.4464 18.8143C85.169 18.8463 84.8864 18.8623 84.5984 18.8623C83.8624 18.8623 83.2224 18.7556 82.6784 18.5423C82.1344 18.3183 81.6864 18.0143 81.3344 17.6303C80.9824 17.2356 80.721 16.777 80.5504 16.2543C80.3797 15.721 80.2944 15.1396 80.2944 14.5103ZM85.9104 13.6463C85.9104 13.3796 85.873 13.129 85.7984 12.8943C85.7237 12.649 85.6117 12.441 85.4624 12.2703C85.3237 12.089 85.1477 11.9503 84.9344 11.8543C84.7317 11.7476 84.4864 11.6943 84.1984 11.6943C83.8997 11.6943 83.6384 11.753 83.4144 11.8703C83.1904 11.977 82.9984 12.121 82.8384 12.3023C82.689 12.4836 82.5717 12.6916 82.4864 12.9263C82.401 13.161 82.3424 13.401 82.3104 13.6463H85.9104ZM96.8654 7.4543C98.476 7.4543 99.708 7.74763 100.561 8.3343C101.425 8.92096 101.857 9.8383 101.857 11.0863C101.857 11.737 101.74 12.297 101.505 12.7663C101.281 13.225 100.951 13.6036 100.513 13.9023C100.076 14.1903 99.5427 14.4036 98.9134 14.5423C98.284 14.681 97.564 14.7503 96.7534 14.7503H95.7454V18.6543H93.7294V7.7263C94.1987 7.61963 94.716 7.5503 95.2814 7.5183C95.8574 7.47563 96.3854 7.4543 96.8654 7.4543ZM97.0094 9.1983C96.4974 9.1983 96.076 9.2143 95.7454 9.2463V13.0223H96.7214C97.692 13.0223 98.4387 12.889 98.9614 12.6223C99.484 12.345 99.7454 11.8276 99.7454 11.0703C99.7454 10.7076 99.676 10.4036 99.5374 10.1583C99.3987 9.91296 99.2067 9.72096 98.9614 9.5823C98.716 9.44363 98.4227 9.34763 98.0814 9.2943C97.7507 9.2303 97.3934 9.1983 97.0094 9.1983ZM106.28 17.2943C106.878 17.2943 107.331 17.2623 107.64 17.1983V15.0543C107.534 15.0223 107.379 14.9903 107.176 14.9583C106.974 14.9263 106.75 14.9103 106.504 14.9103C106.291 14.9103 106.072 14.9263 105.848 14.9583C105.635 14.9903 105.438 15.049 105.256 15.1343C105.086 15.2196 104.947 15.3423 104.84 15.5023C104.734 15.6516 104.68 15.8436 104.68 16.0783C104.68 16.537 104.824 16.857 105.112 17.0383C105.4 17.209 105.79 17.2943 106.28 17.2943ZM106.12 10.0783C106.76 10.0783 107.299 10.1583 107.736 10.3183C108.174 10.4783 108.52 10.7023 108.776 10.9903C109.043 11.2783 109.23 11.6303 109.336 12.0463C109.454 12.4516 109.512 12.8996 109.512 13.3903V18.4623C109.214 18.5263 108.76 18.601 108.152 18.6863C107.555 18.7823 106.878 18.8303 106.12 18.8303C105.619 18.8303 105.16 18.7823 104.744 18.6863C104.328 18.5903 103.971 18.4356 103.672 18.2223C103.384 18.009 103.155 17.7316 102.984 17.3903C102.824 17.049 102.744 16.6276 102.744 16.1263C102.744 15.6463 102.835 15.241 103.016 14.9103C103.208 14.5796 103.464 14.313 103.784 14.1103C104.104 13.897 104.472 13.7476 104.888 13.6623C105.315 13.5663 105.758 13.5183 106.216 13.5183C106.43 13.5183 106.654 13.5343 106.888 13.5663C107.123 13.5876 107.374 13.6303 107.64 13.6943V13.3743C107.64 13.1503 107.614 12.937 107.56 12.7343C107.507 12.5316 107.411 12.3556 107.272 12.2063C107.144 12.0463 106.968 11.9236 106.744 11.8383C106.531 11.753 106.259 11.7103 105.928 11.7103C105.48 11.7103 105.07 11.7423 104.696 11.8063C104.323 11.8703 104.019 11.945 103.784 12.0303L103.544 10.4623C103.79 10.377 104.147 10.2916 104.616 10.2063C105.086 10.121 105.587 10.0783 106.12 10.0783ZM113.979 17.2623C114.491 17.2623 114.865 17.2036 115.099 17.0863C115.334 16.9583 115.451 16.745 115.451 16.4463C115.451 16.169 115.323 15.9396 115.067 15.7583C114.822 15.577 114.411 15.3796 113.835 15.1663C113.483 15.0383 113.158 14.905 112.859 14.7663C112.571 14.617 112.321 14.4463 112.107 14.2543C111.894 14.0623 111.723 13.833 111.595 13.5663C111.478 13.289 111.419 12.953 111.419 12.5583C111.419 11.7903 111.702 11.1876 112.267 10.7503C112.833 10.3023 113.601 10.0783 114.571 10.0783C115.062 10.0783 115.531 10.1263 115.979 10.2223C116.427 10.3076 116.763 10.393 116.987 10.4783L116.635 12.0463C116.422 11.9503 116.15 11.865 115.819 11.7903C115.489 11.705 115.105 11.6623 114.667 11.6623C114.273 11.6623 113.953 11.7316 113.707 11.8703C113.462 11.9983 113.339 12.201 113.339 12.4783C113.339 12.617 113.361 12.7396 113.403 12.8463C113.457 12.953 113.542 13.0543 113.659 13.1503C113.777 13.2356 113.931 13.3263 114.123 13.4223C114.315 13.5076 114.55 13.5983 114.827 13.6943C115.286 13.865 115.675 14.0356 115.995 14.2063C116.315 14.3663 116.577 14.553 116.779 14.7663C116.993 14.969 117.147 15.2036 117.243 15.4703C117.339 15.737 117.387 16.057 117.387 16.4303C117.387 17.2303 117.089 17.8383 116.491 18.2543C115.905 18.6596 115.062 18.8623 113.963 18.8623C113.227 18.8623 112.635 18.7983 112.187 18.6703C111.739 18.553 111.425 18.457 111.243 18.3823L111.579 16.7663C111.867 16.8836 112.209 16.9956 112.603 17.1023C113.009 17.209 113.467 17.2623 113.979 17.2623ZM121.292 17.2623C121.804 17.2623 122.177 17.2036 122.412 17.0863C122.647 16.9583 122.764 16.745 122.764 16.4463C122.764 16.169 122.636 15.9396 122.38 15.7583C122.135 15.577 121.724 15.3796 121.148 15.1663C120.796 15.0383 120.471 14.905 120.172 14.7663C119.884 14.617 119.633 14.4463 119.42 14.2543C119.207 14.0623 119.036 13.833 118.908 13.5663C118.791 13.289 118.732 12.953 118.732 12.5583C118.732 11.7903 119.015 11.1876 119.58 10.7503C120.145 10.3023 120.913 10.0783 121.884 10.0783C122.375 10.0783 122.844 10.1263 123.292 10.2223C123.74 10.3076 124.076 10.393 124.3 10.4783L123.948 12.0463C123.735 11.9503 123.463 11.865 123.132 11.7903C122.801 11.705 122.417 11.6623 121.98 11.6623C121.585 11.6623 121.265 11.7316 121.02 11.8703C120.775 11.9983 120.652 12.201 120.652 12.4783C120.652 12.617 120.673 12.7396 120.716 12.8463C120.769 12.953 120.855 13.0543 120.972 13.1503C121.089 13.2356 121.244 13.3263 121.436 13.4223C121.628 13.5076 121.863 13.5983 122.14 13.6943C122.599 13.865 122.988 14.0356 123.308 14.2063C123.628 14.3663 123.889 14.553 124.092 14.7663C124.305 14.969 124.46 15.2036 124.556 15.4703C124.652 15.737 124.7 16.057 124.7 16.4303C124.7 17.2303 124.401 17.8383 123.804 18.2543C123.217 18.6596 122.375 18.8623 121.276 18.8623C120.54 18.8623 119.948 18.7983 119.5 18.6703C119.052 18.553 118.737 18.457 118.556 18.3823L118.892 16.7663C119.18 16.8836 119.521 16.9956 119.916 17.1023C120.321 17.209 120.78 17.2623 121.292 17.2623ZM131.5 13.3903C131.255 14.329 130.988 15.2463 130.7 16.1423C130.423 17.0276 130.146 17.865 129.868 18.6543H128.284C128.071 18.1636 127.847 17.6036 127.612 16.9743C127.378 16.345 127.143 15.673 126.908 14.9583C126.674 14.2436 126.439 13.4916 126.204 12.7023C125.97 11.913 125.74 11.1076 125.516 10.2863H127.564C127.66 10.7343 127.772 11.2196 127.9 11.7423C128.028 12.2543 128.162 12.7823 128.3 13.3263C128.439 13.8596 128.583 14.3823 128.732 14.8943C128.882 15.4063 129.031 15.8756 129.18 16.3023C129.34 15.8116 129.495 15.305 129.644 14.7823C129.804 14.2596 129.954 13.737 130.092 13.2143C130.231 12.6916 130.359 12.185 130.476 11.6943C130.604 11.193 130.716 10.7236 130.812 10.2863H132.3C132.396 10.7236 132.503 11.193 132.62 11.6943C132.738 12.185 132.86 12.6916 132.988 13.2143C133.127 13.737 133.271 14.2596 133.42 14.7823C133.58 15.305 133.74 15.8116 133.9 16.3023C134.039 15.8756 134.183 15.4063 134.332 14.8943C134.482 14.3823 134.626 13.8596 134.764 13.3263C134.914 12.7823 135.052 12.2543 135.18 11.7423C135.308 11.2196 135.42 10.7343 135.516 10.2863H137.516C137.292 11.1076 137.063 11.913 136.828 12.7023C136.594 13.4916 136.359 14.2436 136.124 14.9583C135.89 15.673 135.655 16.345 135.42 16.9743C135.186 17.6036 134.956 18.1636 134.732 18.6543H133.164C132.887 17.865 132.599 17.0276 132.3 16.1423C132.012 15.2463 131.746 14.329 131.5 13.3903ZM146.404 14.4623C146.404 15.1236 146.308 15.7263 146.116 16.2703C145.924 16.8143 145.652 17.2783 145.3 17.6623C144.948 18.0463 144.522 18.345 144.02 18.5583C143.53 18.7716 142.986 18.8783 142.388 18.8783C141.791 18.8783 141.247 18.7716 140.756 18.5583C140.266 18.345 139.844 18.0463 139.492 17.6623C139.14 17.2783 138.863 16.8143 138.66 16.2703C138.468 15.7263 138.372 15.1236 138.372 14.4623C138.372 13.801 138.468 13.2036 138.66 12.6703C138.863 12.1263 139.14 11.6623 139.492 11.2783C139.855 10.8943 140.282 10.601 140.772 10.3983C141.263 10.185 141.802 10.0783 142.388 10.0783C142.975 10.0783 143.514 10.185 144.004 10.3983C144.506 10.601 144.932 10.8943 145.284 11.2783C145.636 11.6623 145.908 12.1263 146.1 12.6703C146.303 13.2036 146.404 13.801 146.404 14.4623ZM144.42 14.4623C144.42 13.6303 144.239 12.9743 143.876 12.4943C143.524 12.0036 143.028 11.7583 142.388 11.7583C141.748 11.7583 141.247 12.0036 140.884 12.4943C140.532 12.9743 140.356 13.6303 140.356 14.4623C140.356 15.305 140.532 15.9716 140.884 16.4623C141.247 16.953 141.748 17.1983 142.388 17.1983C143.028 17.1983 143.524 16.953 143.876 16.4623C144.239 15.9716 144.42 15.305 144.42 14.4623ZM153.167 12.0303C153.007 11.977 152.783 11.9236 152.495 11.8703C152.218 11.8063 151.892 11.7743 151.519 11.7743C151.306 11.7743 151.076 11.7956 150.831 11.8383C150.596 11.881 150.431 11.9183 150.335 11.9503V18.6543H148.399V10.6863C148.772 10.5476 149.236 10.4196 149.791 10.3023C150.356 10.1743 150.98 10.1103 151.663 10.1103C151.791 10.1103 151.94 10.121 152.111 10.1423C152.282 10.153 152.452 10.1743 152.623 10.2063C152.794 10.2276 152.959 10.2596 153.119 10.3023C153.279 10.3343 153.407 10.3663 153.503 10.3983L153.167 12.0303ZM156.372 14.4463C156.372 15.2996 156.575 15.9716 156.98 16.4623C157.385 16.9423 157.945 17.1823 158.66 17.1823C158.969 17.1823 159.231 17.1716 159.444 17.1503C159.668 17.1183 159.849 17.0863 159.988 17.0543V12.2543C159.817 12.137 159.588 12.0303 159.3 11.9343C159.023 11.8276 158.724 11.7743 158.404 11.7743C157.7 11.7743 157.183 12.0143 156.852 12.4943C156.532 12.9743 156.372 13.625 156.372 14.4463ZM161.924 18.3983C161.54 18.5156 161.055 18.6223 160.468 18.7183C159.892 18.8143 159.284 18.8623 158.644 18.8623C157.983 18.8623 157.391 18.761 156.868 18.5583C156.345 18.3556 155.897 18.0676 155.524 17.6943C155.161 17.3103 154.879 16.8516 154.676 16.3183C154.484 15.7743 154.388 15.1663 154.388 14.4943C154.388 13.833 154.468 13.2356 154.628 12.7023C154.799 12.1583 155.044 11.6943 155.364 11.3103C155.684 10.9263 156.073 10.633 156.532 10.4303C156.991 10.217 157.519 10.1103 158.116 10.1103C158.521 10.1103 158.879 10.1583 159.188 10.2543C159.497 10.3503 159.764 10.457 159.988 10.5743V6.5583L161.924 6.2383V18.3983Z" fill="#8807F7"/>
</svg>
