<svg width="130" height="24" viewBox="0 0 130 24" fill="none" xmlns="http://www.w3.org/2000/svg">
<path d="M3 19.0004C2.71667 19.0004 2.47933 18.9044 2.288 18.7124C2.096 18.5211 2 18.2837 2 18.0004C2 17.7171 2.096 17.4797 2.288 17.2884C2.47933 17.0964 2.71667 17.0004 3 17.0004H21C21.2833 17.0004 21.5207 17.0964 21.712 17.2884C21.904 17.4797 22 17.7171 22 18.0004C22 18.2837 21.904 18.5211 21.712 18.7124C21.5207 18.9044 21.2833 19.0004 21 19.0004H3ZM2.5 12.5754C2.31667 12.4754 2.2 12.3254 2.15 12.1254C2.1 11.9254 2.125 11.7337 2.225 11.5504L2.7 10.7004H1.75C1.53333 10.7004 1.354 10.6294 1.212 10.4874C1.07067 10.3461 1 10.1671 1 9.95039C1 9.73372 1.07067 9.55439 1.212 9.41239C1.354 9.27106 1.53333 9.20039 1.75 9.20039H2.7L2.225 8.40039C2.125 8.21706 2.1 8.02539 2.15 7.82539C2.2 7.62539 2.31667 7.47539 2.5 7.37539C2.68333 7.27539 2.875 7.25039 3.075 7.30039C3.275 7.35039 3.425 7.46706 3.525 7.65039L4 8.45039L4.475 7.65039C4.575 7.46706 4.725 7.35039 4.925 7.30039C5.125 7.25039 5.31667 7.27539 5.5 7.37539C5.68333 7.47539 5.8 7.62539 5.85 7.82539C5.9 8.02539 5.875 8.21706 5.775 8.40039L5.3 9.20039H6.25C6.46667 9.20039 6.64567 9.27106 6.787 9.41239C6.929 9.55439 7 9.73372 7 9.95039C7 10.1671 6.929 10.3461 6.787 10.4874C6.64567 10.6294 6.46667 10.7004 6.25 10.7004H5.3L5.775 11.5504C5.875 11.7337 5.9 11.9254 5.85 12.1254C5.8 12.3254 5.68333 12.4754 5.5 12.5754C5.31667 12.6754 5.125 12.7004 4.925 12.6504C4.725 12.6004 4.575 12.4837 4.475 12.3004L4 11.4504L3.525 12.3004C3.425 12.4837 3.275 12.6004 3.075 12.6504C2.875 12.7004 2.68333 12.6754 2.5 12.5754ZM10.5 12.5754C10.3167 12.4754 10.2 12.3254 10.15 12.1254C10.1 11.9254 10.125 11.7337 10.225 11.5504L10.7 10.7004H9.75C9.53333 10.7004 9.35433 10.6294 9.213 10.4874C9.071 10.3461 9 10.1671 9 9.95039C9 9.73372 9.071 9.55439 9.213 9.41239C9.35433 9.27106 9.53333 9.20039 9.75 9.20039H10.7L10.225 8.40039C10.125 8.21706 10.1 8.02539 10.15 7.82539C10.2 7.62539 10.3167 7.47539 10.5 7.37539C10.6833 7.27539 10.875 7.25039 11.075 7.30039C11.275 7.35039 11.425 7.46706 11.525 7.65039L12 8.45039L12.475 7.65039C12.575 7.46706 12.725 7.35039 12.925 7.30039C13.125 7.25039 13.3167 7.27539 13.5 7.37539C13.6833 7.47539 13.8 7.62539 13.85 7.82539C13.9 8.02539 13.875 8.21706 13.775 8.40039L13.3 9.20039H14.25C14.4667 9.20039 14.646 9.27106 14.788 9.41239C14.9293 9.55439 15 9.73372 15 9.95039C15 10.1671 14.9293 10.3461 14.788 10.4874C14.646 10.6294 14.4667 10.7004 14.25 10.7004H13.3L13.775 11.5504C13.875 11.7337 13.9 11.9254 13.85 12.1254C13.8 12.3254 13.6833 12.4754 13.5 12.5754C13.3167 12.6754 13.125 12.7004 12.925 12.6504C12.725 12.6004 12.575 12.4837 12.475 12.3004L12 11.4504L11.525 12.3004C11.425 12.4837 11.275 12.6004 11.075 12.6504C10.875 12.7004 10.6833 12.6754 10.5 12.5754ZM18.5 12.5754C18.3167 12.4754 18.2 12.3254 18.15 12.1254C18.1 11.9254 18.125 11.7337 18.225 11.5504L18.7 10.7004H17.75C17.5333 10.7004 17.354 10.6294 17.212 10.4874C17.0707 10.3461 17 10.1671 17 9.95039C17 9.73372 17.0707 9.55439 17.212 9.41239C17.354 9.27106 17.5333 9.20039 17.75 9.20039H18.7L18.225 8.40039C18.125 8.21706 18.1 8.02539 18.15 7.82539C18.2 7.62539 18.3167 7.47539 18.5 7.37539C18.6833 7.27539 18.875 7.25039 19.075 7.30039C19.275 7.35039 19.425 7.46706 19.525 7.65039L20 8.45039L20.475 7.65039C20.575 7.46706 20.725 7.35039 20.925 7.30039C21.125 7.25039 21.3167 7.27539 21.5 7.37539C21.6833 7.47539 21.8 7.62539 21.85 7.82539C21.9 8.02539 21.875 8.21706 21.775 8.40039L21.3 9.20039H22.25C22.4667 9.20039 22.646 9.27106 22.788 9.41239C22.9293 9.55439 23 9.73372 23 9.95039C23 10.1671 22.9293 10.3461 22.788 10.4874C22.646 10.6294 22.4667 10.7004 22.25 10.7004H21.3L21.775 11.5504C21.875 11.7337 21.9 11.9254 21.85 12.1254C21.8 12.3254 21.6833 12.4754 21.5 12.5754C21.3167 12.6754 21.125 12.7004 20.925 12.6504C20.725 12.6004 20.575 12.4837 20.475 12.3004L20 11.4504L19.525 12.3004C19.425 12.4837 19.275 12.6004 19.075 12.6504C18.875 12.7004 18.6833 12.6754 18.5 12.5754Z" fill="#8807F7"/>
<path d="M41.256 18.24C40.424 18.24 39.6773 18.112 39.016 17.856C38.3547 17.6 37.7947 17.2267 37.336 16.736C36.8773 16.2347 36.5253 15.6267 36.28 14.912C36.0347 14.1973 35.912 13.376 35.912 12.448C35.912 11.52 36.0507 10.6987 36.328 9.984C36.616 9.26933 37.0053 8.66667 37.496 8.176C37.9867 7.67467 38.5627 7.296 39.224 7.04C39.8853 6.784 40.5947 6.656 41.352 6.656C41.8107 6.656 42.2267 6.69333 42.6 6.768C42.9733 6.832 43.2987 6.90667 43.576 6.992C43.8533 7.07733 44.0827 7.168 44.264 7.264C44.4453 7.36 44.5733 7.42933 44.648 7.472L44.056 9.12C43.8 8.96 43.432 8.81067 42.952 8.672C42.4827 8.52267 41.9707 8.448 41.416 8.448C40.936 8.448 40.488 8.53333 40.072 8.704C39.656 8.864 39.2933 9.10933 38.984 9.44C38.6853 9.77067 38.4507 10.1867 38.28 10.688C38.1093 11.1893 38.024 11.7707 38.024 12.432C38.024 13.0187 38.088 13.5573 38.216 14.048C38.3547 14.5387 38.5627 14.9653 38.84 15.328C39.1173 15.68 39.4693 15.9573 39.896 16.16C40.3227 16.352 40.8347 16.448 41.432 16.448C42.1467 16.448 42.728 16.3787 43.176 16.24C43.624 16.0907 43.9707 15.952 44.216 15.824L44.76 17.472C44.632 17.5573 44.456 17.6427 44.232 17.728C44.0187 17.8133 43.7627 17.8987 43.464 17.984C43.1653 18.0587 42.8293 18.1173 42.456 18.16C42.0827 18.2133 41.6827 18.24 41.256 18.24ZM46.4351 18V5.904L48.3711 5.584V9.728C48.5845 9.65333 48.8298 9.58933 49.1071 9.536C49.3951 9.48267 49.6778 9.456 49.9551 9.456C50.6271 9.456 51.1818 9.552 51.6191 9.744C52.0671 9.92533 52.4245 10.1867 52.6911 10.528C52.9578 10.8587 53.1445 11.2587 53.2511 11.728C53.3685 12.1973 53.4271 12.72 53.4271 13.296V18H51.4911V13.6C51.4911 13.152 51.4591 12.7733 51.3951 12.464C51.3418 12.144 51.2458 11.888 51.1071 11.696C50.9791 11.4933 50.8031 11.3493 50.5791 11.264C50.3551 11.168 50.0778 11.12 49.7471 11.12C49.4911 11.12 49.2298 11.1467 48.9631 11.2C48.6965 11.2533 48.4991 11.3013 48.3711 11.344V18H46.4351ZM58.6916 16.64C59.289 16.64 59.7423 16.608 60.0516 16.544V14.4C59.945 14.368 59.7903 14.336 59.5876 14.304C59.385 14.272 59.161 14.256 58.9156 14.256C58.7023 14.256 58.4836 14.272 58.2596 14.304C58.0463 14.336 57.849 14.3947 57.6676 14.48C57.497 14.5653 57.3583 14.688 57.2516 14.848C57.145 14.9973 57.0916 15.1893 57.0916 15.424C57.0916 15.8827 57.2356 16.2027 57.5236 16.384C57.8116 16.5547 58.201 16.64 58.6916 16.64ZM58.5316 9.424C59.1716 9.424 59.7103 9.504 60.1476 9.664C60.585 9.824 60.9316 10.048 61.1876 10.336C61.4543 10.624 61.641 10.976 61.7476 11.392C61.865 11.7973 61.9236 12.2453 61.9236 12.736V17.808C61.625 17.872 61.1716 17.9467 60.5636 18.032C59.9663 18.128 59.289 18.176 58.5316 18.176C58.0303 18.176 57.5716 18.128 57.1556 18.032C56.7396 17.936 56.3823 17.7813 56.0836 17.568C55.7956 17.3547 55.5663 17.0773 55.3956 16.736C55.2356 16.3947 55.1556 15.9733 55.1556 15.472C55.1556 14.992 55.2463 14.5867 55.4276 14.256C55.6196 13.9253 55.8756 13.6587 56.1956 13.456C56.5156 13.2427 56.8836 13.0933 57.2996 13.008C57.7263 12.912 58.169 12.864 58.6276 12.864C58.841 12.864 59.065 12.88 59.2996 12.912C59.5343 12.9333 59.785 12.976 60.0516 13.04V12.72C60.0516 12.496 60.025 12.2827 59.9716 12.08C59.9183 11.8773 59.8223 11.7013 59.6836 11.552C59.5556 11.392 59.3796 11.2693 59.1556 11.184C58.9423 11.0987 58.6703 11.056 58.3396 11.056C57.8916 11.056 57.481 11.088 57.1076 11.152C56.7343 11.216 56.4303 11.2907 56.1956 11.376L55.9556 9.808C56.201 9.72267 56.5583 9.63733 57.0276 9.552C57.497 9.46667 57.9983 9.424 58.5316 9.424ZM64.2945 9.904C64.6678 9.79733 65.1532 9.696 65.7505 9.6C66.3478 9.504 67.0092 9.456 67.7345 9.456C68.4172 9.456 68.9878 9.552 69.4465 9.744C69.9052 9.92533 70.2678 10.1867 70.5345 10.528C70.8118 10.8587 71.0038 11.264 71.1105 11.744C71.2278 12.2133 71.2865 12.7307 71.2865 13.296V18H69.3505V13.6C69.3505 13.152 69.3185 12.7733 69.2545 12.464C69.2012 12.144 69.1052 11.888 68.9665 11.696C68.8385 11.4933 68.6572 11.3493 68.4225 11.264C68.1985 11.168 67.9212 11.12 67.5905 11.12C67.3452 11.12 67.0892 11.136 66.8225 11.168C66.5558 11.2 66.3585 11.2267 66.2305 11.248V18H64.2945V9.904ZM75.1739 13.6C75.1739 14.4213 75.3499 15.024 75.7019 15.408C76.0645 15.7813 76.5285 15.968 77.0939 15.968C77.4032 15.968 77.6912 15.9253 77.9579 15.84C78.2352 15.7547 78.4592 15.6533 78.6299 15.536V11.2C78.4912 11.168 78.3205 11.1413 78.1179 11.12C77.9152 11.088 77.6592 11.072 77.3499 11.072C76.6459 11.072 76.1072 11.3067 75.7339 11.776C75.3605 12.2347 75.1739 12.8427 75.1739 13.6ZM80.5659 17.152C80.5659 18.4853 80.2245 19.4613 79.5419 20.08C78.8699 20.6987 77.8352 21.008 76.4379 21.008C75.9259 21.008 75.4245 20.9653 74.9339 20.88C74.4539 20.7947 74.0165 20.6827 73.6219 20.544L73.9739 18.896C74.3045 19.0347 74.6779 19.1467 75.0939 19.232C75.5205 19.3173 75.9792 19.36 76.4699 19.36C77.2485 19.36 77.8032 19.2 78.1339 18.88C78.4645 18.56 78.6299 18.0853 78.6299 17.456V17.136C78.4379 17.232 78.1819 17.328 77.8619 17.424C77.5525 17.52 77.1952 17.568 76.7899 17.568C76.2565 17.568 75.7659 17.4827 75.3179 17.312C74.8805 17.1413 74.5019 16.8907 74.1819 16.56C73.8725 16.2293 73.6272 15.8187 73.4459 15.328C73.2752 14.8267 73.1899 14.2507 73.1899 13.6C73.1899 12.992 73.2805 12.432 73.4619 11.92C73.6539 11.408 73.9259 10.9707 74.2779 10.608C74.6405 10.2453 75.0779 9.96267 75.5899 9.76C76.1019 9.55733 76.6832 9.456 77.3339 9.456C77.9632 9.456 78.5605 9.504 79.1259 9.6C79.6912 9.696 80.1712 9.79733 80.5659 9.904V17.152ZM82.5649 13.856C82.5649 13.12 82.6715 12.4747 82.8849 11.92C83.1089 11.3653 83.4022 10.9067 83.7649 10.544C84.1275 10.1707 84.5435 9.89333 85.0129 9.712C85.4822 9.52 85.9622 9.424 86.4529 9.424C87.6049 9.424 88.5009 9.78133 89.1409 10.496C89.7915 11.2107 90.1169 12.2773 90.1169 13.696C90.1169 13.8027 90.1115 13.9253 90.1009 14.064C90.1009 14.192 90.0955 14.3093 90.0849 14.416H84.5649C84.6182 15.088 84.8529 15.6107 85.2689 15.984C85.6955 16.3467 86.3089 16.528 87.1089 16.528C87.5782 16.528 88.0049 16.4853 88.3889 16.4C88.7835 16.3147 89.0929 16.224 89.3169 16.128L89.5729 17.712C89.4662 17.7653 89.3169 17.824 89.1249 17.888C88.9435 17.9413 88.7302 17.9893 88.4849 18.032C88.2502 18.0853 87.9942 18.128 87.7169 18.16C87.4395 18.192 87.1569 18.208 86.8689 18.208C86.1329 18.208 85.4929 18.1013 84.9489 17.888C84.4049 17.664 83.9569 17.36 83.6049 16.976C83.2529 16.5813 82.9915 16.1227 82.8209 15.6C82.6502 15.0667 82.5649 14.4853 82.5649 13.856ZM88.1809 12.992C88.1809 12.7253 88.1435 12.4747 88.0689 12.24C87.9942 11.9947 87.8822 11.7867 87.7329 11.616C87.5942 11.4347 87.4182 11.296 87.2049 11.2C87.0022 11.0933 86.7569 11.04 86.4689 11.04C86.1702 11.04 85.9089 11.0987 85.6849 11.216C85.4609 11.3227 85.2689 11.4667 85.1089 11.648C84.9595 11.8293 84.8422 12.0373 84.7569 12.272C84.6715 12.5067 84.6129 12.7467 84.5809 12.992H88.1809ZM99.1359 6.8C100.747 6.8 101.979 7.09333 102.832 7.68C103.696 8.26667 104.128 9.184 104.128 10.432C104.128 11.0827 104.011 11.6427 103.776 12.112C103.552 12.5707 103.221 12.9493 102.784 13.248C102.347 13.536 101.813 13.7493 101.184 13.888C100.555 14.0267 99.8345 14.096 99.0239 14.096H98.0159V18H95.9999V7.072C96.4692 6.96533 96.9865 6.896 97.5519 6.864C98.1279 6.82133 98.6559 6.8 99.1359 6.8ZM99.2799 8.544C98.7679 8.544 98.3465 8.56 98.0159 8.592V12.368H98.9919C99.9625 12.368 100.709 12.2347 101.232 11.968C101.755 11.6907 102.016 11.1733 102.016 10.416C102.016 10.0533 101.947 9.74933 101.808 9.504C101.669 9.25867 101.477 9.06667 101.232 8.928C100.987 8.78933 100.693 8.69333 100.352 8.64C100.021 8.576 99.6639 8.544 99.2799 8.544ZM107.825 18H105.889V9.632H107.825V18ZM108.033 7.184C108.033 7.54667 107.915 7.83467 107.681 8.048C107.446 8.26133 107.169 8.368 106.849 8.368C106.518 8.368 106.235 8.26133 106.001 8.048C105.766 7.83467 105.649 7.54667 105.649 7.184C105.649 6.81067 105.766 6.51733 106.001 6.304C106.235 6.09067 106.518 5.984 106.849 5.984C107.169 5.984 107.446 6.09067 107.681 6.304C107.915 6.51733 108.033 6.81067 108.033 7.184ZM110.295 9.904C110.668 9.79733 111.153 9.696 111.751 9.6C112.348 9.504 113.009 9.456 113.735 9.456C114.417 9.456 114.988 9.552 115.447 9.744C115.905 9.92533 116.268 10.1867 116.535 10.528C116.812 10.8587 117.004 11.264 117.111 11.744C117.228 12.2133 117.286 12.7307 117.286 13.296V18H115.351V13.6C115.351 13.152 115.319 12.7733 115.255 12.464C115.201 12.144 115.105 11.888 114.967 11.696C114.839 11.4933 114.657 11.3493 114.423 11.264C114.199 11.168 113.921 11.12 113.591 11.12C113.345 11.12 113.089 11.136 112.823 11.168C112.556 11.2 112.359 11.2267 112.231 11.248V18H110.295V9.904Z" fill="#8807F7"/>
</svg>
