<svg width="238" height="24" viewBox="0 0 238 24" fill="none" xmlns="http://www.w3.org/2000/svg">
<path d="M12 1C10.6739 1 9.40215 1.52678 8.46447 2.46447C7.52678 3.40215 7 4.67392 7 6V8H6C5.46957 8 4.96086 8.21071 4.58579 8.58579C4.21071 8.96086 4 9.46957 4 10V20C4 20.5304 4.21071 21.0391 4.58579 21.4142C4.96086 21.7893 5.46957 22 6 22H18C18.5304 22 19.0391 21.7893 19.4142 21.4142C19.7893 21.0391 20 20.5304 20 20V10C20 9.46957 19.7893 8.96086 19.4142 8.58579C19.0391 8.21071 18.5304 8 18 8H17V6C17 5.34339 16.8707 4.69321 16.6194 4.08658C16.3681 3.47995 15.9998 2.92876 15.5355 2.46447C15.0712 2.00017 14.52 1.63188 13.9134 1.3806C13.3068 1.12933 12.6566 1 12 1ZM12 2.9C13.71 2.9 15.1 4.29 15.1 6V8H8.9V6C8.9 4.29 10.29 2.9 12 2.9ZM12.19 10.5C13.13 10.5 13.88 10.71 14.42 11.12C14.96 11.54 15.23 12.1 15.23 12.8C15.23 13.24 15.08 13.63 14.79 14C14.5 14.36 14.12 14.64 13.66 14.85C13.4 15 13.23 15.15 13.14 15.32C13.05 15.5 13 15.72 13 16H11C11 15.5 11.1 15.16 11.29 14.92C11.5 14.68 11.84 14.4 12.36 14.08C12.62 13.94 12.83 13.76 13 13.54C13.14 13.33 13.22 13.08 13.22 12.8C13.22 12.5 13.13 12.28 12.95 12.11C12.77 11.93 12.5 11.85 12.19 11.85C11.92 11.85 11.7 11.92 11.5 12.06C11.34 12.2 11.24 12.41 11.24 12.69H9.27C9.22 12 9.5 11.4 10.05 11.04C10.59 10.68 11.3 10.5 12.19 10.5ZM11 17H13V19H11V17Z" fill="#8807F7"/>
<path d="M41.6 18.24C40.8427 18.24 40.192 18.1333 39.648 17.92C39.104 17.696 38.6507 17.3867 38.288 16.992C37.936 16.5973 37.6747 16.1333 37.504 15.6C37.3333 15.0667 37.248 14.48 37.248 13.84V6.912H39.28V13.648C39.28 14.1493 39.3333 14.5813 39.44 14.944C39.5573 15.296 39.7173 15.584 39.92 15.808C40.1333 16.032 40.3787 16.1973 40.656 16.304C40.944 16.4107 41.264 16.464 41.616 16.464C41.968 16.464 42.288 16.4107 42.576 16.304C42.864 16.1973 43.1093 16.032 43.312 15.808C43.5253 15.584 43.6853 15.296 43.792 14.944C43.9093 14.5813 43.968 14.1493 43.968 13.648V6.912H46V13.84C46 14.48 45.9093 15.0667 45.728 15.6C45.5573 16.1333 45.2907 16.5973 44.928 16.992C44.576 17.3867 44.1227 17.696 43.568 17.92C43.0133 18.1333 42.3573 18.24 41.6 18.24ZM54.034 13.856C54.034 12.992 53.8367 12.32 53.442 11.84C53.058 11.36 52.434 11.12 51.57 11.12C51.3887 11.12 51.1967 11.1307 50.994 11.152C50.802 11.1627 50.61 11.1947 50.418 11.248V16.032C50.5887 16.1493 50.8127 16.2613 51.09 16.368C51.378 16.464 51.682 16.512 52.002 16.512C52.706 16.512 53.218 16.272 53.538 15.792C53.8687 15.312 54.034 14.6667 54.034 13.856ZM56.018 13.824C56.018 14.464 55.9327 15.0507 55.762 15.584C55.602 16.1173 55.3673 16.576 55.058 16.96C54.7487 17.344 54.3593 17.6427 53.89 17.856C53.4313 18.0693 52.9087 18.176 52.322 18.176C51.9273 18.176 51.5647 18.128 51.234 18.032C50.9033 17.936 50.6313 17.8293 50.418 17.712V20.96H48.482V9.904C48.8767 9.79733 49.362 9.696 49.938 9.6C50.514 9.504 51.122 9.456 51.762 9.456C52.4233 9.456 53.0153 9.55733 53.538 9.76C54.0607 9.96267 54.5033 10.256 54.866 10.64C55.2393 11.0133 55.522 11.472 55.714 12.016C55.9167 12.5493 56.018 13.152 56.018 13.824ZM59.5333 13.792C59.5333 14.6453 59.7359 15.3173 60.1413 15.808C60.5466 16.288 61.1066 16.528 61.8213 16.528C62.1306 16.528 62.3919 16.5173 62.6053 16.496C62.8293 16.464 63.0106 16.432 63.1493 16.4V11.6C62.9786 11.4827 62.7493 11.376 62.4613 11.28C62.1839 11.1733 61.8853 11.12 61.5653 11.12C60.8613 11.12 60.3439 11.36 60.0133 11.84C59.6933 12.32 59.5333 12.9707 59.5333 13.792ZM65.0853 17.744C64.7013 17.8613 64.2159 17.968 63.6293 18.064C63.0533 18.16 62.4453 18.208 61.8053 18.208C61.1439 18.208 60.5519 18.1067 60.0293 17.904C59.5066 17.7013 59.0586 17.4133 58.6853 17.04C58.3226 16.656 58.0399 16.1973 57.8372 15.664C57.6453 15.12 57.5493 14.512 57.5493 13.84C57.5493 13.1787 57.6293 12.5813 57.7893 12.048C57.9599 11.504 58.2053 11.04 58.5253 10.656C58.8453 10.272 59.2346 9.97867 59.6933 9.776C60.1519 9.56267 60.6799 9.456 61.2773 9.456C61.6826 9.456 62.0399 9.504 62.3493 9.6C62.6586 9.696 62.9253 9.80267 63.1493 9.92V5.904L65.0853 5.584V17.744ZM70.4885 16.64C71.0858 16.64 71.5392 16.608 71.8485 16.544V14.4C71.7418 14.368 71.5872 14.336 71.3845 14.304C71.1818 14.272 70.9578 14.256 70.7125 14.256C70.4992 14.256 70.2805 14.272 70.0565 14.304C69.8432 14.336 69.6458 14.3947 69.4645 14.48C69.2938 14.5653 69.1552 14.688 69.0485 14.848C68.9418 14.9973 68.8885 15.1893 68.8885 15.424C68.8885 15.8827 69.0325 16.2027 69.3205 16.384C69.6085 16.5547 69.9978 16.64 70.4885 16.64ZM70.3285 9.424C70.9685 9.424 71.5072 9.504 71.9445 9.664C72.3818 9.824 72.7285 10.048 72.9845 10.336C73.2512 10.624 73.4378 10.976 73.5445 11.392C73.6618 11.7973 73.7205 12.2453 73.7205 12.736V17.808C73.4218 17.872 72.9685 17.9467 72.3605 18.032C71.7632 18.128 71.0858 18.176 70.3285 18.176C69.8272 18.176 69.3685 18.128 68.9525 18.032C68.5365 17.936 68.1792 17.7813 67.8805 17.568C67.5925 17.3547 67.3632 17.0773 67.1925 16.736C67.0325 16.3947 66.9525 15.9733 66.9525 15.472C66.9525 14.992 67.0432 14.5867 67.2245 14.256C67.4165 13.9253 67.6725 13.6587 67.9925 13.456C68.3125 13.2427 68.6805 13.0933 69.0965 13.008C69.5232 12.912 69.9658 12.864 70.4245 12.864C70.6378 12.864 70.8618 12.88 71.0965 12.912C71.3312 12.9333 71.5818 12.976 71.8485 13.04V12.72C71.8485 12.496 71.8218 12.2827 71.7685 12.08C71.7152 11.8773 71.6192 11.7013 71.4805 11.552C71.3525 11.392 71.1765 11.2693 70.9525 11.184C70.7392 11.0987 70.4672 11.056 70.1365 11.056C69.6885 11.056 69.2778 11.088 68.9045 11.152C68.5312 11.216 68.2272 11.2907 67.9925 11.376L67.7525 9.808C67.9978 9.72267 68.3552 9.63733 68.8245 9.552C69.2938 9.46667 69.7952 9.424 70.3285 9.424ZM75.9954 7.424L77.9314 7.104V9.632H80.9074V11.248H77.9314V14.656C77.9314 15.328 78.038 15.808 78.2514 16.096C78.4647 16.384 78.8274 16.528 79.3394 16.528C79.6914 16.528 80.0007 16.4907 80.2674 16.416C80.5447 16.3413 80.7634 16.272 80.9234 16.208L81.2434 17.744C81.0194 17.84 80.726 17.936 80.3634 18.032C80.0007 18.1387 79.574 18.192 79.0834 18.192C78.486 18.192 77.9847 18.112 77.5794 17.952C77.1847 17.792 76.87 17.5627 76.6354 17.264C76.4007 16.9547 76.2354 16.5867 76.1394 16.16C76.0434 15.7227 75.9954 15.2267 75.9954 14.672V7.424ZM82.1743 13.856C82.1743 13.12 82.2809 12.4747 82.4943 11.92C82.7183 11.3653 83.0116 10.9067 83.3743 10.544C83.7369 10.1707 84.1529 9.89333 84.6223 9.712C85.0916 9.52 85.5716 9.424 86.0623 9.424C87.2143 9.424 88.1103 9.78133 88.7503 10.496C89.4009 11.2107 89.7263 12.2773 89.7263 13.696C89.7263 13.8027 89.7209 13.9253 89.7103 14.064C89.7103 14.192 89.7049 14.3093 89.6943 14.416H84.1743C84.2276 15.088 84.4623 15.6107 84.8783 15.984C85.3049 16.3467 85.9183 16.528 86.7183 16.528C87.1876 16.528 87.6143 16.4853 87.9983 16.4C88.3929 16.3147 88.7023 16.224 88.9263 16.128L89.1823 17.712C89.0756 17.7653 88.9263 17.824 88.7343 17.888C88.5529 17.9413 88.3396 17.9893 88.0943 18.032C87.8596 18.0853 87.6036 18.128 87.3263 18.16C87.0489 18.192 86.7663 18.208 86.4783 18.208C85.7423 18.208 85.1023 18.1013 84.5583 17.888C84.0143 17.664 83.5663 17.36 83.2143 16.976C82.8623 16.5813 82.6009 16.1227 82.4303 15.6C82.2596 15.0667 82.1743 14.4853 82.1743 13.856ZM87.7903 12.992C87.7903 12.7253 87.7529 12.4747 87.6783 12.24C87.6036 11.9947 87.4916 11.7867 87.3423 11.616C87.2036 11.4347 87.0276 11.296 86.8143 11.2C86.6116 11.0933 86.3663 11.04 86.0783 11.04C85.7796 11.04 85.5183 11.0987 85.2943 11.216C85.0703 11.3227 84.8783 11.4667 84.7183 11.648C84.5689 11.8293 84.4516 12.0373 84.3663 12.272C84.2809 12.5067 84.2223 12.7467 84.1903 12.992H87.7903ZM98.2973 16.496C99.0226 16.496 99.5506 16.3733 99.8813 16.128C100.212 15.8827 100.377 15.536 100.377 15.088C100.377 14.8213 100.319 14.592 100.201 14.4C100.095 14.208 99.9346 14.0373 99.7213 13.888C99.5186 13.728 99.2679 13.584 98.9693 13.456C98.6706 13.3173 98.3293 13.184 97.9453 13.056C97.5613 12.9173 97.1879 12.768 96.8253 12.608C96.4733 12.4373 96.1586 12.2293 95.8813 11.984C95.6146 11.7387 95.3959 11.4453 95.2253 11.104C95.0653 10.7627 94.9853 10.352 94.9853 9.872C94.9853 8.86933 95.3319 8.08533 96.0253 7.52C96.7186 6.944 97.6626 6.656 98.8573 6.656C99.5506 6.656 100.164 6.736 100.697 6.896C101.241 7.04533 101.668 7.21067 101.977 7.392L101.353 9.024C100.991 8.82133 100.591 8.66667 100.153 8.56C99.7266 8.45333 99.2839 8.4 98.8253 8.4C98.2813 8.4 97.8546 8.512 97.5453 8.736C97.2466 8.96 97.0973 9.27467 97.0973 9.68C97.0973 9.92533 97.1453 10.1387 97.2413 10.32C97.3479 10.4907 97.4919 10.6453 97.6733 10.784C97.8653 10.9227 98.0839 11.0507 98.3293 11.168C98.5853 11.2853 98.8626 11.3973 99.1613 11.504C99.6839 11.696 100.148 11.8933 100.553 12.096C100.969 12.288 101.316 12.5227 101.593 12.8C101.881 13.0667 102.1 13.3867 102.249 13.76C102.399 14.1227 102.473 14.5653 102.473 15.088C102.473 16.0907 102.116 16.8693 101.401 17.424C100.697 17.968 99.6626 18.24 98.2973 18.24C97.8386 18.24 97.4173 18.208 97.0333 18.144C96.6599 18.0907 96.3239 18.0213 96.0253 17.936C95.7373 17.8507 95.4866 17.7653 95.2733 17.68C95.0599 17.584 94.8893 17.4987 94.7613 17.424L95.3533 15.776C95.6413 15.936 96.0306 16.096 96.5213 16.256C97.0119 16.416 97.6039 16.496 98.2973 16.496ZM103.69 13.856C103.69 13.12 103.797 12.4747 104.01 11.92C104.234 11.3653 104.527 10.9067 104.89 10.544C105.253 10.1707 105.669 9.89333 106.138 9.712C106.607 9.52 107.087 9.424 107.578 9.424C108.73 9.424 109.626 9.78133 110.266 10.496C110.917 11.2107 111.242 12.2773 111.242 13.696C111.242 13.8027 111.237 13.9253 111.226 14.064C111.226 14.192 111.221 14.3093 111.21 14.416H105.69C105.743 15.088 105.978 15.6107 106.394 15.984C106.821 16.3467 107.434 16.528 108.234 16.528C108.703 16.528 109.13 16.4853 109.514 16.4C109.909 16.3147 110.218 16.224 110.442 16.128L110.698 17.712C110.591 17.7653 110.442 17.824 110.25 17.888C110.069 17.9413 109.855 17.9893 109.61 18.032C109.375 18.0853 109.119 18.128 108.842 18.16C108.565 18.192 108.282 18.208 107.994 18.208C107.258 18.208 106.618 18.1013 106.074 17.888C105.53 17.664 105.082 17.36 104.73 16.976C104.378 16.5813 104.117 16.1227 103.946 15.6C103.775 15.0667 103.69 14.4853 103.69 13.856ZM109.306 12.992C109.306 12.7253 109.269 12.4747 109.194 12.24C109.119 11.9947 109.007 11.7867 108.858 11.616C108.719 11.4347 108.543 11.296 108.33 11.2C108.127 11.0933 107.882 11.04 107.594 11.04C107.295 11.04 107.034 11.0987 106.81 11.216C106.586 11.3227 106.394 11.4667 106.234 11.648C106.085 11.8293 105.967 12.0373 105.882 12.272C105.797 12.5067 105.738 12.7467 105.706 12.992H109.306ZM112.831 13.824C112.831 13.2053 112.927 12.6293 113.118 12.096C113.311 11.552 113.583 11.0827 113.935 10.688C114.297 10.2933 114.735 9.984 115.247 9.76C115.759 9.536 116.335 9.424 116.975 9.424C117.764 9.424 118.511 9.568 119.215 9.856L118.799 11.44C118.575 11.344 118.319 11.264 118.031 11.2C117.753 11.136 117.455 11.104 117.135 11.104C116.377 11.104 115.801 11.344 115.407 11.824C115.012 12.2933 114.815 12.96 114.815 13.824C114.815 14.656 115.001 15.3173 115.375 15.808C115.748 16.288 116.377 16.528 117.263 16.528C117.593 16.528 117.919 16.496 118.239 16.432C118.559 16.368 118.836 16.288 119.071 16.192L119.343 17.792C119.129 17.8987 118.804 17.9947 118.367 18.08C117.94 18.1653 117.497 18.208 117.039 18.208C116.324 18.208 115.7 18.1013 115.167 17.888C114.644 17.664 114.207 17.36 113.855 16.976C113.513 16.5813 113.257 16.1173 113.087 15.584C112.916 15.04 112.831 14.4533 112.831 13.824ZM127.705 17.744C127.332 17.84 126.847 17.936 126.249 18.032C125.652 18.1387 124.996 18.192 124.281 18.192C123.609 18.192 123.044 18.096 122.585 17.904C122.137 17.712 121.775 17.4453 121.497 17.104C121.231 16.7627 121.039 16.3573 120.921 15.888C120.804 15.408 120.745 14.8853 120.745 14.32V9.632H122.681V14.016C122.681 14.912 122.809 15.552 123.065 15.936C123.332 16.32 123.791 16.512 124.441 16.512C124.676 16.512 124.921 16.5013 125.177 16.48C125.444 16.4587 125.641 16.432 125.769 16.4V9.632H127.705V17.744ZM134.938 11.376C134.778 11.3227 134.554 11.2693 134.266 11.216C133.988 11.152 133.663 11.12 133.29 11.12C133.076 11.12 132.847 11.1413 132.602 11.184C132.367 11.2267 132.202 11.264 132.106 11.296V18H130.17V10.032C130.543 9.89333 131.007 9.76533 131.562 9.648C132.127 9.52 132.751 9.456 133.434 9.456C133.562 9.456 133.711 9.46667 133.882 9.488C134.052 9.49867 134.223 9.52 134.394 9.552C134.564 9.57333 134.73 9.60533 134.89 9.648C135.05 9.68 135.178 9.712 135.274 9.744L134.938 11.376ZM138.575 18H136.639V9.632H138.575V18ZM138.783 7.184C138.783 7.54667 138.665 7.83467 138.431 8.048C138.196 8.26133 137.919 8.368 137.599 8.368C137.268 8.368 136.985 8.26133 136.751 8.048C136.516 7.83467 136.399 7.54667 136.399 7.184C136.399 6.81067 136.516 6.51733 136.751 6.304C136.985 6.09067 137.268 5.984 137.599 5.984C137.919 5.984 138.196 6.09067 138.431 6.304C138.665 6.51733 138.783 6.81067 138.783 7.184ZM140.949 7.424L142.885 7.104V9.632H145.861V11.248H142.885V14.656C142.885 15.328 142.991 15.808 143.205 16.096C143.418 16.384 143.781 16.528 144.293 16.528C144.645 16.528 144.954 16.4907 145.221 16.416C145.498 16.3413 145.717 16.272 145.877 16.208L146.197 17.744C145.973 17.84 145.679 17.936 145.317 18.032C144.954 18.1387 144.527 18.192 144.036 18.192C143.439 18.192 142.938 18.112 142.533 17.952C142.138 17.792 141.823 17.5627 141.589 17.264C141.354 16.9547 141.189 16.5867 141.093 16.16C140.997 15.7227 140.949 15.2267 140.949 14.672V7.424ZM154.564 9.632C153.7 12.8107 152.697 15.6907 151.556 18.272C151.343 18.752 151.124 19.1627 150.9 19.504C150.676 19.8453 150.425 20.128 150.148 20.352C149.871 20.576 149.561 20.736 149.22 20.832C148.879 20.9387 148.484 20.992 148.036 20.992C147.737 20.992 147.439 20.96 147.14 20.896C146.852 20.832 146.633 20.7627 146.484 20.688L146.836 19.136C147.22 19.2853 147.599 19.36 147.972 19.36C148.473 19.36 148.863 19.2373 149.14 18.992C149.428 18.7573 149.679 18.3893 149.892 17.888C149.284 16.7147 148.697 15.4347 148.132 14.048C147.577 12.6613 147.081 11.1893 146.644 9.632H148.708C148.815 10.08 148.943 10.5653 149.092 11.088C149.252 11.6107 149.423 12.144 149.604 12.688C149.785 13.2213 149.977 13.7547 150.18 14.288C150.383 14.8213 150.585 15.3173 150.788 15.776C151.129 14.8267 151.449 13.8187 151.748 12.752C152.047 11.6747 152.319 10.6347 152.564 9.632H154.564ZM161.507 12.448C161.507 13.056 161.582 13.6107 161.731 14.112C161.881 14.6027 162.094 15.024 162.371 15.376C162.659 15.7173 163.006 15.984 163.411 16.176C163.817 16.368 164.275 16.464 164.787 16.464C165.289 16.464 165.742 16.368 166.147 16.176C166.553 15.984 166.894 15.7173 167.171 15.376C167.459 15.024 167.678 14.6027 167.827 14.112C167.977 13.6107 168.051 13.056 168.051 12.448C168.051 11.84 167.977 11.2907 167.827 10.8C167.678 10.2987 167.459 9.87733 167.171 9.536C166.894 9.184 166.553 8.912 166.147 8.72C165.742 8.528 165.289 8.432 164.787 8.432C164.275 8.432 163.817 8.528 163.411 8.72C163.006 8.912 162.659 9.184 162.371 9.536C162.094 9.888 161.881 10.3093 161.731 10.8C161.582 11.2907 161.507 11.84 161.507 12.448ZM170.163 12.448C170.163 13.248 170.062 13.968 169.859 14.608C169.657 15.248 169.374 15.808 169.011 16.288C168.649 16.7573 168.222 17.1413 167.731 17.44C167.251 17.7387 166.723 17.952 166.147 18.08C166.179 18.304 166.291 18.496 166.483 18.656C166.675 18.816 166.915 18.9493 167.203 19.056C167.502 19.1627 167.838 19.248 168.211 19.312C168.595 19.3867 168.995 19.44 169.411 19.472L168.963 20.992C167.587 20.8853 166.494 20.6187 165.683 20.192C164.873 19.776 164.355 19.1093 164.131 18.192C163.47 18.128 162.851 17.9573 162.275 17.68C161.71 17.4027 161.214 17.024 160.787 16.544C160.361 16.064 160.025 15.4827 159.779 14.8C159.534 14.1173 159.411 13.3333 159.411 12.448C159.411 11.4987 159.555 10.6667 159.843 9.952C160.131 9.22667 160.521 8.61867 161.011 8.128C161.513 7.63733 162.089 7.26933 162.739 7.024C163.39 6.77867 164.078 6.656 164.803 6.656C165.529 6.656 166.217 6.77867 166.867 7.024C167.518 7.26933 168.083 7.63733 168.563 8.128C169.054 8.61867 169.443 9.22667 169.731 9.952C170.019 10.6667 170.163 11.4987 170.163 12.448ZM179.143 17.744C178.77 17.84 178.284 17.936 177.687 18.032C177.09 18.1387 176.434 18.192 175.719 18.192C175.047 18.192 174.482 18.096 174.023 17.904C173.575 17.712 173.212 17.4453 172.935 17.104C172.668 16.7627 172.476 16.3573 172.359 15.888C172.242 15.408 172.183 14.8853 172.183 14.32V9.632H174.119V14.016C174.119 14.912 174.247 15.552 174.503 15.936C174.77 16.32 175.228 16.512 175.879 16.512C176.114 16.512 176.359 16.5013 176.615 16.48C176.882 16.4587 177.079 16.432 177.207 16.4V9.632H179.143V17.744ZM181.143 13.856C181.143 13.12 181.25 12.4747 181.463 11.92C181.687 11.3653 181.98 10.9067 182.343 10.544C182.706 10.1707 183.122 9.89333 183.591 9.712C184.06 9.52 184.54 9.424 185.031 9.424C186.183 9.424 187.079 9.78133 187.719 10.496C188.37 11.2107 188.695 12.2773 188.695 13.696C188.695 13.8027 188.69 13.9253 188.679 14.064C188.679 14.192 188.674 14.3093 188.663 14.416H183.143C183.196 15.088 183.431 15.6107 183.847 15.984C184.274 16.3467 184.887 16.528 185.687 16.528C186.156 16.528 186.583 16.4853 186.967 16.4C187.362 16.3147 187.671 16.224 187.895 16.128L188.151 17.712C188.044 17.7653 187.895 17.824 187.703 17.888C187.522 17.9413 187.308 17.9893 187.063 18.032C186.828 18.0853 186.572 18.128 186.295 18.16C186.018 18.192 185.735 18.208 185.447 18.208C184.711 18.208 184.071 18.1013 183.527 17.888C182.983 17.664 182.535 17.36 182.183 16.976C181.831 16.5813 181.57 16.1227 181.399 15.6C181.228 15.0667 181.143 14.4853 181.143 13.856ZM186.759 12.992C186.759 12.7253 186.722 12.4747 186.647 12.24C186.572 11.9947 186.46 11.7867 186.311 11.616C186.172 11.4347 185.996 11.296 185.783 11.2C185.58 11.0933 185.335 11.04 185.047 11.04C184.748 11.04 184.487 11.0987 184.263 11.216C184.039 11.3227 183.847 11.4667 183.687 11.648C183.538 11.8293 183.42 12.0373 183.335 12.272C183.25 12.5067 183.191 12.7467 183.159 12.992H186.759ZM192.844 16.608C193.356 16.608 193.729 16.5493 193.964 16.432C194.198 16.304 194.316 16.0907 194.316 15.792C194.316 15.5147 194.188 15.2853 193.932 15.104C193.686 14.9227 193.276 14.7253 192.7 14.512C192.348 14.384 192.022 14.2507 191.724 14.112C191.436 13.9627 191.185 13.792 190.972 13.6C190.758 13.408 190.588 13.1787 190.46 12.912C190.342 12.6347 190.284 12.2987 190.284 11.904C190.284 11.136 190.566 10.5333 191.132 10.096C191.697 9.648 192.465 9.424 193.436 9.424C193.926 9.424 194.396 9.472 194.844 9.568C195.292 9.65333 195.628 9.73867 195.852 9.824L195.5 11.392C195.286 11.296 195.014 11.2107 194.684 11.136C194.353 11.0507 193.969 11.008 193.532 11.008C193.137 11.008 192.817 11.0773 192.572 11.216C192.326 11.344 192.204 11.5467 192.204 11.824C192.204 11.9627 192.225 12.0853 192.268 12.192C192.321 12.2987 192.406 12.4 192.524 12.496C192.641 12.5813 192.796 12.672 192.988 12.768C193.18 12.8533 193.414 12.944 193.692 13.04C194.15 13.2107 194.54 13.3813 194.86 13.552C195.18 13.712 195.441 13.8987 195.644 14.112C195.857 14.3147 196.012 14.5493 196.108 14.816C196.204 15.0827 196.252 15.4027 196.252 15.776C196.252 16.576 195.953 17.184 195.356 17.6C194.769 18.0053 193.926 18.208 192.828 18.208C192.092 18.208 191.5 18.144 191.052 18.016C190.604 17.8987 190.289 17.8027 190.108 17.728L190.444 16.112C190.732 16.2293 191.073 16.3413 191.468 16.448C191.873 16.5547 192.332 16.608 192.844 16.608ZM197.964 7.424L199.9 7.104V9.632H202.876V11.248H199.9V14.656C199.9 15.328 200.007 15.808 200.22 16.096C200.433 16.384 200.796 16.528 201.308 16.528C201.66 16.528 201.969 16.4907 202.236 16.416C202.513 16.3413 202.732 16.272 202.892 16.208L203.212 17.744C202.988 17.84 202.695 17.936 202.332 18.032C201.969 18.1387 201.543 18.192 201.052 18.192C200.455 18.192 199.953 18.112 199.548 17.952C199.153 17.792 198.839 17.5627 198.604 17.264C198.369 16.9547 198.204 16.5867 198.108 16.16C198.012 15.7227 197.964 15.2267 197.964 14.672V7.424ZM206.7 18H204.764V9.632H206.7V18ZM206.908 7.184C206.908 7.54667 206.79 7.83467 206.556 8.048C206.321 8.26133 206.044 8.368 205.724 8.368C205.393 8.368 205.11 8.26133 204.876 8.048C204.641 7.83467 204.524 7.54667 204.524 7.184C204.524 6.81067 204.641 6.51733 204.876 6.304C205.11 6.09067 205.393 5.984 205.724 5.984C206.044 5.984 206.321 6.09067 206.556 6.304C206.79 6.51733 206.908 6.81067 206.908 7.184ZM216.738 13.808C216.738 14.4693 216.642 15.072 216.45 15.616C216.258 16.16 215.986 16.624 215.634 17.008C215.282 17.392 214.855 17.6907 214.354 17.904C213.863 18.1173 213.319 18.224 212.722 18.224C212.124 18.224 211.58 18.1173 211.09 17.904C210.599 17.6907 210.178 17.392 209.826 17.008C209.474 16.624 209.196 16.16 208.993 15.616C208.802 15.072 208.706 14.4693 208.706 13.808C208.706 13.1467 208.802 12.5493 208.993 12.016C209.196 11.472 209.474 11.008 209.826 10.624C210.188 10.24 210.615 9.94667 211.106 9.744C211.596 9.53067 212.135 9.424 212.722 9.424C213.308 9.424 213.847 9.53067 214.338 9.744C214.839 9.94667 215.266 10.24 215.618 10.624C215.97 11.008 216.242 11.472 216.434 12.016C216.636 12.5493 216.738 13.1467 216.738 13.808ZM214.754 13.808C214.754 12.976 214.572 12.32 214.21 11.84C213.858 11.3493 213.362 11.104 212.722 11.104C212.082 11.104 211.58 11.3493 211.218 11.84C210.866 12.32 210.69 12.976 210.69 13.808C210.69 14.6507 210.866 15.3173 211.218 15.808C211.58 16.2987 212.082 16.544 212.722 16.544C213.362 16.544 213.858 16.2987 214.21 15.808C214.572 15.3173 214.754 14.6507 214.754 13.808ZM218.732 9.904C219.105 9.79733 219.591 9.696 220.188 9.6C220.785 9.504 221.447 9.456 222.172 9.456C222.855 9.456 223.425 9.552 223.884 9.744C224.343 9.92533 224.705 10.1867 224.972 10.528C225.249 10.8587 225.441 11.264 225.548 11.744C225.665 12.2133 225.724 12.7307 225.724 13.296V18H223.788V13.6C223.788 13.152 223.756 12.7733 223.692 12.464C223.639 12.144 223.543 11.888 223.404 11.696C223.276 11.4933 223.095 11.3493 222.86 11.264C222.636 11.168 222.359 11.12 222.028 11.12C221.783 11.12 221.527 11.136 221.26 11.168C220.993 11.2 220.796 11.2267 220.668 11.248V18H218.732V9.904Z" fill="#8807F7"/>
</svg>
