<svg width="53" height="53" viewBox="0 0 53 53" fill="none" xmlns="http://www.w3.org/2000/svg">
<ellipse cx="26.2897" cy="26.5" rx="26.2897" ry="26.5" fill="#E9D6FA"/>
<rect x="7.85742" y="20.3389" width="34.1871" height="24.975" rx="4.09427" transform="rotate(-19.5235 7.85742 20.3389)" fill="url(#paint0_linear_1985_14912)"/>
<g clip-path="url(#clip0_1985_14912)">
<path d="M9.20508 18.5134C9.20508 17.3868 9.65261 16.3064 10.4492 15.5098C11.2458 14.7132 12.3263 14.2656 13.4529 14.2656H38.9397C40.0663 14.2656 41.1467 14.7132 41.9433 15.5098C42.74 16.3064 43.1875 17.3868 43.1875 18.5134V20.6373H9.20508V18.5134ZM9.20508 24.8851V35.5046C9.20508 36.6312 9.65261 37.7117 10.4492 38.5083C11.2458 39.3049 12.3263 39.7524 13.4529 39.7524H38.9397C40.0663 39.7524 41.1467 39.3049 41.9433 38.5083C42.74 37.7117 43.1875 36.6312 43.1875 35.5046V24.8851H9.20508ZM15.5768 29.1329H17.7007C18.264 29.1329 18.8042 29.3567 19.2025 29.755C19.6008 30.1533 19.8246 30.6935 19.8246 31.2568V33.3807C19.8246 33.944 19.6008 34.4842 19.2025 34.8826C18.8042 35.2809 18.264 35.5046 17.7007 35.5046H15.5768C15.0135 35.5046 14.4733 35.2809 14.075 34.8826C13.6766 34.4842 13.4529 33.944 13.4529 33.3807V31.2568C13.4529 30.6935 13.6766 30.1533 14.075 29.755C14.4733 29.3567 15.0135 29.1329 15.5768 29.1329Z" fill="#8807F7"/>
<rect x="11.252" y="27.8271" width="9.62153" height="9.00739" fill="#8807F7"/>
</g>
<g clip-path="url(#clip1_1985_14912)">
<path opacity="0.5" d="M35.8376 34.1726C35.3723 34.1727 34.9173 34.0348 34.5304 33.7763C34.1434 33.5178 33.8418 33.1504 33.6636 32.7204C33.4855 32.2905 33.4388 31.8175 33.5295 31.361C33.6202 30.9046 33.8443 30.4853 34.1733 30.1562C34.5023 29.8271 34.9215 29.6029 35.3779 29.5121C35.8343 29.4212 36.3074 29.4677 36.7374 29.6458C37.1673 29.8238 37.5349 30.1253 37.7935 30.5122C38.0521 30.8991 38.1901 31.354 38.1902 31.8194V31.8197C38.1895 32.4435 37.9415 33.0415 37.5004 33.4826C37.0594 33.9237 36.4614 34.1719 35.8376 34.1726Z" fill="url(#paint1_linear_1985_14912)"/>
<path d="M33.5463 34.1726C33.0809 34.1726 32.626 34.0346 32.2391 33.7761C31.8521 33.5175 31.5506 33.1501 31.3725 32.7201C31.1944 32.2902 31.1478 31.8171 31.2386 31.3607C31.3294 30.9043 31.5535 30.485 31.8825 30.1559C32.2116 29.8269 32.6308 29.6028 33.0872 29.512C33.5437 29.4212 34.0167 29.4678 34.4467 29.6459C34.8766 29.824 35.2441 30.1256 35.5026 30.5125C35.7612 30.8994 35.8992 31.3543 35.8992 31.8197C35.8985 32.4435 35.6504 33.0416 35.2093 33.4827C34.7682 33.9239 34.1701 34.172 33.5463 34.1726Z" fill="url(#paint2_linear_1985_14912)"/>
</g>
<defs>
<linearGradient id="paint0_linear_1985_14912" x1="24.3141" y1="-15.8411" x2="27.7939" y2="47.2632" gradientUnits="userSpaceOnUse">
<stop stop-color="#8807F7"/>
<stop offset="1" stop-color="white"/>
</linearGradient>
<linearGradient id="paint1_linear_1985_14912" x1="35.7496" y1="22.6497" x2="36.6447" y2="34.5085" gradientUnits="userSpaceOnUse">
<stop stop-color="#8807F7"/>
<stop offset="1" stop-color="white"/>
</linearGradient>
<linearGradient id="paint2_linear_1985_14912" x1="33.4586" y1="22.6497" x2="34.3537" y2="34.5085" gradientUnits="userSpaceOnUse">
<stop stop-color="#8807F7"/>
<stop offset="1" stop-color="white"/>
</linearGradient>
<clipPath id="clip0_1985_14912">
<rect width="33.9824" height="33.9824" fill="white" transform="translate(9.20508 10.0176)"/>
</clipPath>
<clipPath id="clip1_1985_14912">
<rect width="8.39325" height="8.39325" fill="white" transform="translate(30.4961 27.623)"/>
</clipPath>
</defs>
</svg>
