<svg width="143" height="214" viewBox="0 0 143 214" fill="none" xmlns="http://www.w3.org/2000/svg">
<rect width="142.799" height="214" rx="71.3996" fill="#DBEAFE"/>
<rect x="46.1406" y="165.074" width="50.5167" height="16.9554" rx="8.4777" fill="#93C5FD"/>
<path d="M60.009 176.172C59.5953 176.172 59.2241 176.108 58.8952 175.981C58.5664 175.853 58.288 175.668 58.0599 175.424C57.8319 175.175 57.6569 174.872 57.5349 174.517C57.4129 174.162 57.3519 173.753 57.3519 173.292C57.3519 172.83 57.4208 172.422 57.5587 172.067C57.7019 171.711 57.8955 171.412 58.1395 171.168C58.3834 170.918 58.6698 170.73 58.9987 170.603C59.3275 170.476 59.6802 170.412 60.0567 170.412C60.2848 170.412 60.4916 170.43 60.6772 170.468C60.8629 170.499 61.0246 170.537 61.1625 170.579C61.3004 170.621 61.4144 170.666 61.5046 170.714C61.5948 170.762 61.6584 170.796 61.6955 170.818L61.4012 171.637C61.2739 171.557 61.0909 171.483 60.8523 171.414C60.6189 171.34 60.3643 171.303 60.0885 171.303C59.8499 171.303 59.6271 171.345 59.4203 171.43C59.2135 171.51 59.0331 171.632 58.8793 171.796C58.7308 171.961 58.6142 172.167 58.5293 172.417C58.4444 172.666 58.402 172.955 58.402 173.284C58.402 173.575 58.4338 173.843 58.4975 174.087C58.5664 174.331 58.6698 174.543 58.8077 174.724C58.9456 174.899 59.1206 175.037 59.3328 175.137C59.5449 175.233 59.7995 175.281 60.0965 175.281C60.4518 175.281 60.7409 175.246 60.9636 175.177C61.1864 175.103 61.3588 175.034 61.4807 174.97L61.7512 175.79C61.6876 175.832 61.6001 175.875 61.4887 175.917C61.3826 175.959 61.2553 176.002 61.1068 176.044C60.9583 176.081 60.7913 176.111 60.6056 176.132C60.42 176.158 60.2211 176.172 60.009 176.172ZM64.0479 175.376C64.3449 175.376 64.5703 175.36 64.7241 175.328V174.262C64.6711 174.246 64.5942 174.23 64.4934 174.215C64.3926 174.199 64.2813 174.191 64.1593 174.191C64.0532 174.191 63.9445 174.199 63.8331 174.215C63.727 174.23 63.6289 174.26 63.5388 174.302C63.4539 174.344 63.385 174.405 63.3319 174.485C63.2789 174.559 63.2524 174.655 63.2524 174.771C63.2524 174.999 63.324 175.159 63.4672 175.249C63.6104 175.334 63.8039 175.376 64.0479 175.376ZM63.9684 171.788C64.2866 171.788 64.5544 171.828 64.7718 171.907C64.9893 171.987 65.1617 172.098 65.289 172.242C65.4215 172.385 65.5144 172.56 65.5674 172.767C65.6257 172.968 65.6549 173.191 65.6549 173.435V175.957C65.5064 175.989 65.281 176.026 64.9787 176.068C64.6817 176.116 64.3449 176.14 63.9684 176.14C63.7191 176.14 63.491 176.116 63.2842 176.068C63.0774 176.02 62.8997 175.944 62.7512 175.837C62.608 175.731 62.494 175.593 62.4091 175.424C62.3295 175.254 62.2898 175.045 62.2898 174.795C62.2898 174.557 62.3348 174.355 62.425 174.191C62.5205 174.026 62.6478 173.894 62.8069 173.793C62.966 173.687 63.149 173.613 63.3558 173.57C63.5679 173.522 63.788 173.499 64.0161 173.499C64.1222 173.499 64.2335 173.507 64.3502 173.522C64.4669 173.533 64.5915 173.554 64.7241 173.586V173.427C64.7241 173.316 64.7109 173.21 64.6843 173.109C64.6578 173.008 64.6101 172.92 64.5411 172.846C64.4775 172.767 64.39 172.706 64.2786 172.663C64.1725 172.621 64.0373 172.6 63.8729 172.6C63.6501 172.6 63.446 172.616 63.2603 172.647C63.0747 172.679 62.9235 172.716 62.8069 172.759L62.6875 171.979C62.8095 171.937 62.9872 171.894 63.2205 171.852C63.4539 171.809 63.7032 171.788 63.9684 171.788ZM69.5942 173.992C69.5942 173.562 69.4961 173.228 69.2999 172.989C69.109 172.751 68.7987 172.631 68.3691 172.631C68.279 172.631 68.1835 172.637 68.0827 172.647C67.9873 172.653 67.8918 172.669 67.7963 172.695V175.074C67.8812 175.132 67.9926 175.188 68.1305 175.241C68.2737 175.289 68.4248 175.312 68.5839 175.312C68.9339 175.312 69.1885 175.193 69.3476 174.954C69.512 174.716 69.5942 174.395 69.5942 173.992ZM70.5807 173.976C70.5807 174.294 70.5383 174.586 70.4534 174.851C70.3739 175.116 70.2572 175.344 70.1034 175.535C69.9496 175.726 69.756 175.875 69.5226 175.981C69.2946 176.087 69.0347 176.14 68.743 176.14C68.5468 176.14 68.3665 176.116 68.2021 176.068C68.0376 176.02 67.9024 175.967 67.7963 175.909V177.524H66.8337V172.027C67.03 171.974 67.2713 171.923 67.5577 171.876C67.8441 171.828 68.1464 171.804 68.4646 171.804C68.7934 171.804 69.0878 171.854 69.3476 171.955C69.6075 172.056 69.8276 172.202 70.0079 172.393C70.1936 172.578 70.3341 172.806 70.4296 173.077C70.5303 173.342 70.5807 173.642 70.5807 173.976ZM71.525 170.794L72.4876 170.635V171.892H73.9673V172.695H72.4876V174.39C72.4876 174.724 72.5407 174.962 72.6468 175.106C72.7528 175.249 72.9331 175.32 73.1877 175.32C73.3627 175.32 73.5165 175.302 73.6491 175.265C73.787 175.228 73.8957 175.193 73.9753 175.161L74.1344 175.925C74.023 175.973 73.8772 176.02 73.6969 176.068C73.5165 176.121 73.3044 176.148 73.0604 176.148C72.7634 176.148 72.5142 176.108 72.3126 176.028C72.1164 175.949 71.9599 175.835 71.8433 175.686C71.7266 175.532 71.6444 175.35 71.5966 175.137C71.5489 174.92 71.525 174.673 71.525 174.398V170.794ZM76.3617 175.376C76.6587 175.376 76.8841 175.36 77.0379 175.328V174.262C76.9848 174.246 76.9079 174.23 76.8072 174.215C76.7064 174.199 76.595 174.191 76.473 174.191C76.367 174.191 76.2583 174.199 76.1469 174.215C76.0408 174.23 75.9427 174.26 75.8525 174.302C75.7677 174.344 75.6987 174.405 75.6457 174.485C75.5927 174.559 75.5661 174.655 75.5661 174.771C75.5661 174.999 75.6377 175.159 75.7809 175.249C75.9241 175.334 76.1177 175.376 76.3617 175.376ZM76.2821 171.788C76.6003 171.788 76.8682 171.828 77.0856 171.907C77.3031 171.987 77.4754 172.098 77.6027 172.242C77.7353 172.385 77.8281 172.56 77.8812 172.767C77.9395 172.968 77.9687 173.191 77.9687 173.435V175.957C77.8202 175.989 77.5948 176.026 77.2925 176.068C76.9955 176.116 76.6587 176.14 76.2821 176.14C76.0328 176.14 75.8048 176.116 75.598 176.068C75.3911 176.02 75.2134 175.944 75.0649 175.837C74.9217 175.731 74.8077 175.593 74.7229 175.424C74.6433 175.254 74.6035 175.045 74.6035 174.795C74.6035 174.557 74.6486 174.355 74.7388 174.191C74.8342 174.026 74.9615 173.894 75.1206 173.793C75.2797 173.687 75.4627 173.613 75.6696 173.57C75.8817 173.522 76.1018 173.499 76.3298 173.499C76.4359 173.499 76.5473 173.507 76.664 173.522C76.7807 173.533 76.9053 173.554 77.0379 173.586V173.427C77.0379 173.316 77.0246 173.21 76.9981 173.109C76.9716 173.008 76.9239 172.92 76.8549 172.846C76.7913 172.767 76.7038 172.706 76.5924 172.663C76.4863 172.621 76.3511 172.6 76.1867 172.6C75.9639 172.6 75.7597 172.616 75.5741 172.647C75.3885 172.679 75.2373 172.716 75.1206 172.759L75.0013 171.979C75.1233 171.937 75.301 171.894 75.5343 171.852C75.7677 171.809 76.0169 171.788 76.2821 171.788ZM80.118 176.052H79.1554V171.892H80.118V176.052ZM80.2215 170.674C80.2215 170.855 80.1631 170.998 80.0464 171.104C79.9298 171.21 79.7919 171.263 79.6328 171.263C79.4684 171.263 79.3278 171.21 79.2111 171.104C79.0945 170.998 79.0361 170.855 79.0361 170.674C79.0361 170.489 79.0945 170.343 79.2111 170.237C79.3278 170.131 79.4684 170.078 79.6328 170.078C79.7919 170.078 79.9298 170.131 80.0464 170.237C80.1631 170.343 80.2215 170.489 80.2215 170.674ZM81.3461 172.027C81.5317 171.974 81.773 171.923 82.07 171.876C82.367 171.828 82.6959 171.804 83.0565 171.804C83.3959 171.804 83.6797 171.852 83.9077 171.947C84.1358 172.037 84.3161 172.167 84.4487 172.337C84.5866 172.501 84.6821 172.703 84.7351 172.942C84.7934 173.175 84.8226 173.432 84.8226 173.713V176.052H83.86V173.865C83.86 173.642 83.8441 173.453 83.8123 173.3C83.7858 173.141 83.738 173.013 83.6691 172.918C83.6054 172.817 83.5153 172.745 83.3986 172.703C83.2872 172.655 83.1493 172.631 82.9849 172.631C82.8629 172.631 82.7356 172.639 82.603 172.655C82.4705 172.671 82.3723 172.684 82.3087 172.695V176.052H81.3461V172.027Z" fill="#2563EB"/>
<path d="M50.8008 25.7879C50.8008 24.2872 52.0174 23.0706 53.5182 23.0706H89.0199C90.5207 23.0706 91.7373 24.2872 91.7373 25.7879V31.2327C91.7373 32.7335 90.5207 33.9501 89.0199 33.9501H86.7618V28.2337H55.7763V33.9501H53.5182C52.0174 33.9501 50.8008 32.7335 50.8008 31.2327V25.7879Z" fill="#FFEEB0"/>
<path d="M51.3125 26.4732C51.3125 24.9725 52.5291 23.7559 54.0299 23.7559H89.5317C91.0324 23.7559 92.249 24.9725 92.249 26.4732V31.918C92.249 33.4188 91.0324 34.6354 89.5317 34.6354H87.2735V28.919H56.288V34.6354H54.0299C52.5291 34.6354 51.3125 33.4188 51.3125 31.918V26.4732Z" fill="#F4CC3F"/>
<g filter="url(#filter0_d_5036_90901)">
<path d="M122.513 80.3496C122.513 92.1289 118.428 103.544 110.956 112.649C103.483 121.755 93.084 127.988 81.531 130.286C69.978 132.584 57.9856 130.805 47.5972 125.252C37.2087 119.699 29.067 110.716 24.5592 99.8337C20.0515 88.951 19.4566 76.842 22.876 65.5699C26.2953 54.2977 33.5173 44.56 43.3115 38.0157C53.1057 31.4715 64.866 28.5256 76.5886 29.6802C88.3112 30.8348 99.2708 36.0183 107.6 44.3476L71.5981 80.3496H122.513Z" fill="#93C5FD"/>
</g>
<g filter="url(#filter1_d_5036_90901)">
<path d="M56.5469 28.8552H87.5259V50.7942L72.0364 61.6618L56.5469 50.7942V28.8552Z" fill="#2563EB"/>
<mask id="mask0_5036_90901" style="mask-type:alpha" maskUnits="userSpaceOnUse" x="56" y="28" width="32" height="34">
<path d="M56.6094 28.8552H87.5741V50.7978L72.0917 61.6618L56.6094 50.7978V28.8552Z" fill="#E8356D"/>
</mask>
<g mask="url(#mask0_5036_90901)">
<rect x="66.1602" y="15.833" width="11.8588" height="45.8288" fill="#3D0072"/>
</g>
<rect x="69.4531" y="55.9106" width="4.97877" height="8.48235" rx="2.48939" fill="#C09525"/>
<circle cx="71.5466" cy="84.2668" r="21.8513" fill="url(#paint0_linear_5036_90901)"/>
<circle cx="71.9436" cy="84.2671" r="17.0569" fill="#705100"/>
<path opacity="0.5" d="M87.6758 42.5969L56.5023 42.5969L56.5023 28.8943L87.6758 28.8943L87.6758 42.5969Z" fill="#2563EB"/>
</g>
<circle cx="70.4055" cy="83.9295" r="16.7063" fill="#6C570D"/>
<circle cx="71.5969" cy="84.3272" r="16.7063" fill="#FFDA55"/>
<circle opacity="0.8" cx="71.3428" cy="83.6794" r="11.9131" fill="url(#paint1_linear_5036_90901)"/>
<path d="M71.476 76.3718L73.8222 81.1451L78.5145 81.7417L75.2924 85.4171L76.1683 90.6915L71.476 88.3049L66.7837 90.6915L67.6674 85.4171L64.4375 81.7417L69.1298 81.1451L71.476 76.3718Z" fill="url(#paint2_linear_5036_90901)"/>
<path d="M71.6025 76.3097L71.476 76.0524L71.3495 76.3097L69.0368 81.0148L64.4197 81.6019L64.1565 81.6354L64.3317 81.8347L67.5174 85.4598L66.6447 90.6682L66.5985 90.9438L66.8475 90.8171L71.476 88.463L76.1044 90.8171L76.353 90.9436L76.3073 90.6684L75.4424 85.4598L78.6205 81.8346L78.7951 81.6354L78.5323 81.6019L73.9152 81.0148L71.6025 76.3097Z" stroke="#A36D1D" stroke-opacity="0.2" stroke-width="0.281818"/>
<g clip-path="url(#clip0_5036_90901)">
<path d="M75.3506 146.01H68.3549L68.1637 145.984L59.2617 144.78L70.931 159.274L71.7576 160.3V160.301L72.5852 159.274L84.2297 144.811L75.3506 146.01Z" fill="#4098F4"/>
<path d="M77.2502 138.424H75.3325H68.1837H66.2659L59.2617 144.78L68.3549 146.01H75.3506L84.2297 144.811L84.2545 144.78L77.2502 138.424Z" fill="#1399F4"/>
<g style="mix-blend-mode:screen">
<path d="M63.9667 145.417L59.2617 144.781L70.931 159.274L71.7576 160.3L63.9667 145.417Z" fill="#4098F4"/>
</g>
<g style="mix-blend-mode:multiply">
<path d="M72.5854 159.274L84.2299 144.811L75.3508 146.01C73.883 151.867 72.0546 159.157 71.7578 160.3L72.5845 159.273L72.5854 159.274Z" fill="#1582AD"/>
</g>
<g style="mix-blend-mode:screen">
<path d="M72.5854 159.274L84.2299 144.811L80.1223 145.366C80.1223 145.366 72.0546 159.157 71.7578 160.3L72.5845 159.273L72.5854 159.274Z" fill="#4098F4"/>
</g>
<g style="mix-blend-mode:multiply">
<path d="M71.7587 160.3L68.1648 145.984L67.1641 154.594L71.7587 160.3Z" fill="#50A3F3"/>
</g>
<g style="mix-blend-mode:multiply">
<path d="M71.7578 160.3L75.3508 146.01L76.5094 154.399L71.7578 160.3Z" fill="#3F81C0"/>
</g>
<g style="mix-blend-mode:multiply">
<path d="M59.2617 144.78L71.7015 149.027L84.2297 144.811L75.3506 146.01L68.1637 145.984L59.2617 144.78Z" fill="#1399F4"/>
</g>
<g style="mix-blend-mode:multiply">
<path d="M76.1411 142.784L75.3325 138.54H68.1837L67.0821 142.704L59.2617 144.896L68.3549 146.126H75.3506L84.2297 144.928L84.2545 144.896L76.1411 142.784Z" fill="#1078C0"/>
</g>
<g style="mix-blend-mode:color-dodge">
<path d="M66.4297 138.656L68.1658 145.984L75.3526 146.01L76.9764 138.656H66.4297Z" fill="#747BFC"/>
</g>
<g style="mix-blend-mode:screen">
<path d="M66.268 138.424L63.9688 145.416L71.4115 138.656L78.8533 145.416L77.2523 138.424H66.268Z" fill="#4098F4"/>
</g>
<g style="mix-blend-mode:multiply">
<path d="M66.2695 138.424L68.0332 145.417L71.4131 138.656L74.9099 145.416L77.2539 138.424H66.2695Z" fill="#4098F4"/>
</g>
<path d="M75.889 145.937L83.9691 144.847L75.9575 145.406L76.6272 140.228L75.03 145.984L68.0296 145.417L66.4276 138.656L67.553 145.416L59.2617 144.78L67.4693 146.175L71.7576 160.3L68.2408 146.262L75.0224 146.021L73.2463 154.399L75.889 145.937Z" fill="#F7F7F7"/>
<g style="mix-blend-mode:color-dodge">
<path d="M59.6797 144.78L66.1331 138.835C66.1331 138.835 64.1373 142.333 59.6797 144.78Z" fill="#A6C3F7"/>
</g>
<g style="mix-blend-mode:color-dodge">
<path d="M83.969 144.78L77.5156 138.835C77.5156 138.835 79.5114 142.333 83.969 144.78Z" fill="#A6C3F7"/>
</g>
</g>
<defs>
<filter id="filter0_d_5036_90901" x="11.8926" y="25.0396" width="119.41" height="119.411" filterUnits="userSpaceOnUse" color-interpolation-filters="sRGB">
<feFlood flood-opacity="0" result="BackgroundImageFix"/>
<feColorMatrix in="SourceAlpha" type="matrix" values="0 0 0 0 0 0 0 0 0 0 0 0 0 0 0 0 0 0 127 0" result="hardAlpha"/>
<feOffset dy="4.3955"/>
<feGaussianBlur stdDeviation="4.3955"/>
<feComposite in2="hardAlpha" operator="out"/>
<feColorMatrix type="matrix" values="0 0 0 0 0.0375308 0 0 0 0 0.0278819 0 0 0 0 0.0458333 0 0 0 0.15 0"/>
<feBlend mode="normal" in2="BackgroundImageFix" result="effect1_dropShadow_5036_90901"/>
<feBlend mode="normal" in="SourceGraphic" in2="effect1_dropShadow_5036_90901" result="shape"/>
</filter>
<filter id="filter1_d_5036_90901" x="49.3837" y="28.5436" width="48.6896" height="82.2494" filterUnits="userSpaceOnUse" color-interpolation-filters="sRGB">
<feFlood flood-opacity="0" result="BackgroundImageFix"/>
<feColorMatrix in="SourceAlpha" type="matrix" values="0 0 0 0 0 0 0 0 0 0 0 0 0 0 0 0 0 0 127 0" result="hardAlpha"/>
<feOffset dx="2.18156" dy="2.18156"/>
<feGaussianBlur stdDeviation="1.24661"/>
<feComposite in2="hardAlpha" operator="out"/>
<feColorMatrix type="matrix" values="0 0 0 0 0 0 0 0 0 0 0 0 0 0 0 0 0 0 0.3 0"/>
<feBlend mode="normal" in2="BackgroundImageFix" result="effect1_dropShadow_5036_90901"/>
<feBlend mode="normal" in="SourceGraphic" in2="effect1_dropShadow_5036_90901" result="shape"/>
</filter>
<linearGradient id="paint0_linear_5036_90901" x1="71.5466" y1="62.4155" x2="71.5466" y2="106.118" gradientUnits="userSpaceOnUse">
<stop stop-color="#FFE176"/>
<stop offset="1" stop-color="#FFD12D"/>
</linearGradient>
<linearGradient id="paint1_linear_5036_90901" x1="71.3428" y1="71.7664" x2="71.3428" y2="95.5925" gradientUnits="userSpaceOnUse">
<stop stop-color="#D79B00"/>
<stop offset="1" stop-color="#FFDD64"/>
</linearGradient>
<linearGradient id="paint2_linear_5036_90901" x1="71.476" y1="76.3718" x2="71.476" y2="90.6915" gradientUnits="userSpaceOnUse">
<stop stop-color="white"/>
<stop offset="0.0001" stop-color="#FFFFFD"/>
<stop offset="1" stop-color="#FFE86D"/>
</linearGradient>
<clipPath id="clip0_5036_90901">
<rect width="24.9927" height="21.8773" fill="white" transform="translate(59.2695 138.424)"/>
</clipPath>
</defs>
</svg>
