<svg width="349" height="202" viewBox="0 0 349 202" fill="none" xmlns="http://www.w3.org/2000/svg">
<rect width="349" height="202" rx="10" fill="#F1F5FE"/>
<path d="M109.43 75.8365C94.1623 64.1987 75.1757 58.5258 56.0261 59.8803C36.8765 61.2347 18.8774 69.5236 5.39976 83.1946C-8.07786 96.8656 -16.1095 114.981 -17.1911 134.148C-18.2726 153.315 -12.3298 172.219 -0.475649 187.319C11.3785 202.42 28.3309 212.681 47.2066 216.181C66.0822 219.681 85.5865 216.18 102.067 206.333C118.547 196.487 130.872 180.971 136.734 162.69C142.596 144.41 141.594 124.619 133.914 107.025L98.9098 122.304C102.873 131.383 103.39 141.595 100.365 151.027C97.3403 160.46 90.9806 168.466 82.4771 173.547C73.9736 178.627 63.9096 180.434 54.17 178.628C44.4304 176.822 35.6831 171.527 29.5665 163.735C23.4499 155.944 20.3835 146.19 20.9416 136.3C21.4996 126.41 25.6439 117.062 32.5982 110.008C39.5525 102.954 48.8398 98.6773 58.7208 97.9784C68.6018 97.2795 78.3986 100.207 86.2766 106.212L109.43 75.8365Z" fill="#E8EEFD"/>
<g opacity="0.2">
<path fill-rule="evenodd" clip-rule="evenodd" d="M192.454 89.1868C196.018 89.1868 198.907 86.2973 198.907 82.733C198.907 79.1687 196.018 76.2793 192.454 76.2793C188.889 76.2793 186 79.1687 186 82.733C186 86.2973 188.889 89.1868 192.454 89.1868ZM192.347 86.2243C194.216 86.2243 195.732 84.7085 195.732 82.8387C195.732 80.9689 194.216 79.4531 192.347 79.4531C190.477 79.4531 188.961 80.9689 188.961 82.8387C188.961 84.7085 190.477 86.2243 192.347 86.2243Z" fill="#2563EB"/>
<path fill-rule="evenodd" clip-rule="evenodd" d="M198.213 75.5816C199.754 75.5816 201.003 74.3321 201.003 72.7908C201.003 71.2495 199.754 70 198.213 70C196.671 70 195.422 71.2495 195.422 72.7908C195.422 74.3321 196.671 75.5816 198.213 75.5816ZM198.167 74.3006C198.976 74.3006 199.631 73.6452 199.631 72.8366C199.631 72.028 198.976 71.3726 198.167 71.3726C197.359 71.3726 196.703 72.028 196.703 72.8366C196.703 73.6452 197.359 74.3006 198.167 74.3006Z" fill="#2563EB"/>
</g>
<g opacity="0.2">
<path fill-rule="evenodd" clip-rule="evenodd" d="M319.454 173.187C323.018 173.187 325.907 170.297 325.907 166.733C325.907 163.169 323.018 160.279 319.454 160.279C315.889 160.279 313 163.169 313 166.733C313 170.297 315.889 173.187 319.454 173.187ZM319.347 170.224C321.216 170.224 322.732 168.708 322.732 166.839C322.732 164.969 321.216 163.453 319.347 163.453C317.477 163.453 315.961 164.969 315.961 166.839C315.961 168.708 317.477 170.224 319.347 170.224Z" fill="#2563EB"/>
<path fill-rule="evenodd" clip-rule="evenodd" d="M325.213 159.582C326.754 159.582 328.003 158.332 328.003 156.791C328.003 155.249 326.754 154 325.213 154C323.671 154 322.422 155.249 322.422 156.791C322.422 158.332 323.671 159.582 325.213 159.582ZM325.167 158.301C325.976 158.301 326.631 157.645 326.631 156.837C326.631 156.028 325.976 155.373 325.167 155.373C324.359 155.373 323.703 156.028 323.703 156.837C323.703 157.645 324.359 158.301 325.167 158.301Z" fill="#2563EB"/>
</g>
</svg>
