<svg width="240" height="160" viewBox="0 0 240 160" fill="none" xmlns="http://www.w3.org/2000/svg">
<mask id="mask0_4757_84924" style="mask-type:alpha" maskUnits="userSpaceOnUse" x="0" y="0" width="240" height="160">
<rect x="0.5" y="0.408203" width="239.065" height="158.807" rx="25.6141" fill="#D834DB"/>
</mask>
<g mask="url(#mask0_4757_84924)">
<rect x="0.5" y="0.408203" width="239.065" height="158.807" rx="16" fill="#8807F7"/>
<g filter="url(#filter0_f_4757_84924)">
<path d="M111.18 162.455C111.18 175.991 65.8728 162.455 52.2483 162.455C38.6239 162.455 30.3202 146.035 30.3202 132.499C30.3202 118.963 21.4925 98.459 35.1169 98.459C48.7414 98.459 111.18 148.919 111.18 162.455Z" fill="#EAA1B8"/>
</g>
<g filter="url(#filter1_f_4757_84924)">
<path d="M232.578 97.355C225.023 109.668 194.529 74.0061 183.087 66.9849C171.645 59.9636 173.837 40.7489 181.392 28.4364C188.948 16.1239 192.98 -7.07652 204.421 -0.0552704C215.863 6.96598 240.134 85.0425 232.578 97.355Z" fill="#FFECB8" fill-opacity="0.7"/>
</g>
<path d="M46.3859 78.6328C46.6501 78.4598 46.9369 78.2776 47.2466 78.0864C47.5653 77.8951 47.875 77.7494 48.1755 77.6492L48.3804 77.5809L48.8449 79.0016L48.6263 79.07C48.3349 79.161 48.0025 79.2248 47.6291 79.2612C47.2648 79.2885 46.9233 79.3067 46.6045 79.3158C46.8595 79.5162 47.1236 79.7348 47.3968 79.9716C47.6792 80.1992 47.916 80.4451 48.1072 80.7093L48.2438 80.9005L47.028 81.7611L46.8914 81.5835C46.7092 81.3194 46.5499 81.0189 46.4133 80.6819C46.2767 80.345 46.1446 80.0308 46.0171 79.7393C45.8987 80.0308 45.7667 80.345 45.6209 80.6819C45.4843 81.0189 45.3249 81.3194 45.1428 81.5835L45.0199 81.7611L43.7904 80.9005L43.9407 80.7093C44.1228 80.4451 44.3505 80.1992 44.6237 79.9716C44.906 79.7348 45.1792 79.5162 45.4433 79.3158C45.1246 79.3067 44.7785 79.2931 44.4051 79.2749C44.0408 79.2475 43.7084 79.1792 43.4079 79.07L43.1893 79.0016L43.6538 77.5809L43.8587 77.6492C44.1683 77.7494 44.478 77.8951 44.7876 78.0864C45.0973 78.2776 45.3841 78.4598 45.6483 78.6328C45.5663 78.3141 45.4798 77.9816 45.3887 77.6356C45.3067 77.2895 45.2658 76.9571 45.2658 76.6383V76.4061H46.7684V76.6383C46.7684 76.9571 46.7229 77.2895 46.6318 77.6356C46.5499 77.9816 46.4679 78.3141 46.3859 78.6328ZM54.3423 78.6328C54.6064 78.4598 54.8933 78.2776 55.2029 78.0864C55.5217 77.8951 55.8313 77.7494 56.1319 77.6492L56.3368 77.5809L56.8013 79.0016L56.5827 79.07C56.2913 79.161 55.9588 79.2248 55.5854 79.2612C55.2212 79.2885 54.8796 79.3067 54.5609 79.3158C54.8159 79.5162 55.08 79.7348 55.3532 79.9716C55.6355 80.1992 55.8723 80.4451 56.0636 80.7093L56.2002 80.9005L54.9844 81.7611L54.8478 81.5835C54.6656 81.3194 54.5062 81.0189 54.3696 80.6819C54.233 80.345 54.101 80.0308 53.9735 79.7393C53.8551 80.0308 53.723 80.345 53.5773 80.6819C53.4407 81.0189 53.2813 81.3194 53.0992 81.5835L52.9762 81.7611L51.7468 80.9005L51.897 80.7093C52.0792 80.4451 52.3068 80.1992 52.5801 79.9716C52.8624 79.7348 53.1356 79.5162 53.3997 79.3158C53.081 79.3067 52.7349 79.2931 52.3615 79.2749C51.9972 79.2475 51.6648 79.1792 51.3642 79.07L51.1457 79.0016L51.6101 77.5809L51.8151 77.6492C52.1247 77.7494 52.4343 77.8951 52.744 78.0864C53.0536 78.2776 53.3405 78.4598 53.6046 78.6328C53.5227 78.3141 53.4361 77.9816 53.3451 77.6356C53.2631 77.2895 53.2221 76.9571 53.2221 76.6383V76.4061H54.7248V76.6383C54.7248 76.9571 54.6793 77.2895 54.5882 77.6356C54.5062 77.9816 54.4243 78.3141 54.3423 78.6328ZM62.2987 78.6328C62.5628 78.4598 62.8497 78.2776 63.1593 78.0864C63.4781 77.8951 63.7877 77.7494 64.0882 77.6492L64.2932 77.5809L64.7576 79.0016L64.5391 79.07C64.2476 79.161 63.9152 79.2248 63.5418 79.2612C63.1775 79.2885 62.836 79.3067 62.5172 79.3158C62.7723 79.5162 63.0364 79.7348 63.3096 79.9716C63.5919 80.1992 63.8287 80.4451 64.0199 80.7093L64.1565 80.9005L62.9407 81.7611L62.8041 81.5835C62.622 81.3194 62.4626 81.0189 62.326 80.6819C62.1894 80.345 62.0573 80.0308 61.9298 79.7393C61.8114 80.0308 61.6794 80.345 61.5337 80.6819C61.3971 81.0189 61.2377 81.3194 61.0555 81.5835L60.9326 81.7611L59.7031 80.9005L59.8534 80.7093C60.0355 80.4451 60.2632 80.1992 60.5364 79.9716C60.8188 79.7348 61.092 79.5162 61.3561 79.3158C61.0373 79.3067 60.6913 79.2931 60.3179 79.2749C59.9536 79.2475 59.6212 79.1792 59.3206 79.07L59.102 79.0016L59.5665 77.5809L59.7714 77.6492C60.0811 77.7494 60.3907 77.8951 60.7004 78.0864C61.01 78.2776 61.2969 78.4598 61.561 78.6328C61.479 78.3141 61.3925 77.9816 61.3014 77.6356C61.2195 77.2895 61.1785 76.9571 61.1785 76.6383V76.4061H62.6812V76.6383C62.6812 76.9571 62.6356 77.2895 62.5446 77.6356C62.4626 77.9816 62.3806 78.3141 62.2987 78.6328ZM70.255 78.6328C70.5192 78.4598 70.806 78.2776 71.1157 78.0864C71.4344 77.8951 71.7441 77.7494 72.0446 77.6492L72.2495 77.5809L72.714 79.0016L72.4954 79.07C72.204 79.161 71.8716 79.2248 71.4982 79.2612C71.1339 79.2885 70.7924 79.3067 70.4736 79.3158C70.7286 79.5162 70.9927 79.7348 71.2659 79.9716C71.5483 80.1992 71.7851 80.4451 71.9763 80.7093L72.1129 80.9005L70.8971 81.7611L70.7605 81.5835C70.5783 81.3194 70.419 81.0189 70.2824 80.6819C70.1458 80.345 70.0137 80.0308 69.8862 79.7393C69.7678 80.0308 69.6358 80.345 69.49 80.6819C69.3534 81.0189 69.1941 81.3194 69.0119 81.5835L68.889 81.7611L67.6595 80.9005L67.8098 80.7093C67.9919 80.4451 68.2196 80.1992 68.4928 79.9716C68.7751 79.7348 69.0483 79.5162 69.3124 79.3158C68.9937 79.3067 68.6476 79.2931 68.2742 79.2749C67.9099 79.2475 67.5775 79.1792 67.277 79.07L67.0584 79.0016L67.5229 77.5809L67.7278 77.6492C68.0374 77.7494 68.3471 77.8951 68.6567 78.0864C68.9664 78.2776 69.2532 78.4598 69.5174 78.6328C69.4354 78.3141 69.3489 77.9816 69.2578 77.6356C69.1758 77.2895 69.1349 76.9571 69.1349 76.6383V76.4061H70.6375V76.6383C70.6375 76.9571 70.592 77.2895 70.5009 77.6356C70.419 77.9816 70.337 78.3141 70.255 78.6328ZM82.7659 78.6328C83.03 78.4598 83.3169 78.2776 83.6265 78.0864C83.9453 77.8951 84.2549 77.7494 84.5555 77.6492L84.7604 77.5809L85.2249 79.0016L85.0063 79.07C84.7149 79.161 84.3824 79.2248 84.009 79.2612C83.6448 79.2885 83.3032 79.3067 82.9845 79.3158C83.2395 79.5162 83.5036 79.7348 83.7768 79.9716C84.0591 80.1992 84.2959 80.4451 84.4872 80.7093L84.6238 80.9005L83.408 81.7611L83.2714 81.5835C83.0892 81.3194 82.9298 81.0189 82.7932 80.6819C82.6566 80.345 82.5246 80.0308 82.3971 79.7393C82.2787 80.0308 82.1466 80.345 82.0009 80.6819C81.8643 81.0189 81.7049 81.3194 81.5228 81.5835L81.3998 81.7611L80.1703 80.9005L80.3206 80.7093C80.5028 80.4451 80.7304 80.1992 81.0037 79.9716C81.286 79.7348 81.5592 79.5162 81.8233 79.3158C81.5046 79.3067 81.1585 79.2931 80.7851 79.2749C80.4208 79.2475 80.0884 79.1792 79.7878 79.07L79.5693 79.0016L80.0337 77.5809L80.2387 77.6492C80.5483 77.7494 80.8579 77.8951 81.1676 78.0864C81.4772 78.2776 81.7641 78.4598 82.0282 78.6328C81.9463 78.3141 81.8597 77.9816 81.7687 77.6356C81.6867 77.2895 81.6457 76.9571 81.6457 76.6383V76.4061H83.1484V76.6383C83.1484 76.9571 83.1029 77.2895 83.0118 77.6356C82.9298 77.9816 82.8479 78.3141 82.7659 78.6328ZM90.7223 78.6328C90.9864 78.4598 91.2733 78.2776 91.5829 78.0864C91.9017 77.8951 92.2113 77.7494 92.5118 77.6492L92.7168 77.5809L93.1812 79.0016L92.9627 79.07C92.6712 79.161 92.3388 79.2248 91.9654 79.2612C91.6011 79.2885 91.2596 79.3067 90.9408 79.3158C91.1959 79.5162 91.46 79.7348 91.7332 79.9716C92.0155 80.1992 92.2523 80.4451 92.4435 80.7093L92.5801 80.9005L91.3643 81.7611L91.2277 81.5835C91.0456 81.3194 90.8862 81.0189 90.7496 80.6819C90.613 80.345 90.4809 80.0308 90.3534 79.7393C90.235 80.0308 90.103 80.345 89.9573 80.6819C89.8207 81.0189 89.6613 81.3194 89.4791 81.5835L89.3562 81.7611L88.1267 80.9005L88.277 80.7093C88.4591 80.4451 88.6868 80.1992 88.96 79.9716C89.2424 79.7348 89.5156 79.5162 89.7797 79.3158C89.4609 79.3067 89.1149 79.2931 88.7415 79.2749C88.3772 79.2475 88.0448 79.1792 87.7442 79.07L87.5256 79.0016L87.9901 77.5809L88.195 77.6492C88.5047 77.7494 88.8143 77.8951 89.124 78.0864C89.4336 78.2776 89.7205 78.4598 89.9846 78.6328C89.9026 78.3141 89.8161 77.9816 89.725 77.6356C89.6431 77.2895 89.6021 76.9571 89.6021 76.6383V76.4061H91.1048V76.6383C91.1048 76.9571 91.0592 77.2895 90.9682 77.6356C90.8862 77.9816 90.8042 78.3141 90.7223 78.6328ZM98.6786 78.6328C98.9428 78.4598 99.2296 78.2776 99.5393 78.0864C99.858 77.8951 100.168 77.7494 100.468 77.6492L100.673 77.5809L101.138 79.0016L100.919 79.07C100.628 79.161 100.295 79.2248 99.9218 79.2612C99.5575 79.2885 99.216 79.3067 98.8972 79.3158C99.1522 79.5162 99.4163 79.7348 99.6895 79.9716C99.9719 80.1992 100.209 80.4451 100.4 80.7093L100.537 80.9005L99.3207 81.7611L99.1841 81.5835C99.0019 81.3194 98.8426 81.0189 98.706 80.6819C98.5694 80.345 98.4373 80.0308 98.3098 79.7393C98.1914 80.0308 98.0594 80.345 97.9136 80.6819C97.777 81.0189 97.6177 81.3194 97.4355 81.5835L97.3126 81.7611L96.0831 80.9005L96.2334 80.7093C96.4155 80.4451 96.6432 80.1992 96.9164 79.9716C97.1987 79.7348 97.4719 79.5162 97.736 79.3158C97.4173 79.3067 97.0712 79.2931 96.6978 79.2749C96.3335 79.2475 96.0011 79.1792 95.7006 79.07L95.482 79.0016L95.9465 77.5809L96.1514 77.6492C96.461 77.7494 96.7707 77.8951 97.0803 78.0864C97.39 78.2776 97.6768 78.4598 97.941 78.6328C97.859 78.3141 97.7725 77.9816 97.6814 77.6356C97.5994 77.2895 97.5585 76.9571 97.5585 76.6383V76.4061H99.0611V76.6383C99.0611 76.9571 99.0156 77.2895 98.9245 77.6356C98.8426 77.9816 98.7606 78.3141 98.6786 78.6328ZM106.635 78.6328C106.899 78.4598 107.186 78.2776 107.496 78.0864C107.814 77.8951 108.124 77.7494 108.425 77.6492L108.629 77.5809L109.094 79.0016L108.875 79.07C108.584 79.161 108.252 79.2248 107.878 79.2612C107.514 79.2885 107.172 79.3067 106.854 79.3158C107.109 79.5162 107.373 79.7348 107.646 79.9716C107.928 80.1992 108.165 80.4451 108.356 80.7093L108.493 80.9005L107.277 81.7611L107.14 81.5835C106.958 81.3194 106.799 81.0189 106.662 80.6819C106.526 80.345 106.394 80.0308 106.266 79.7393C106.148 80.0308 106.016 80.345 105.87 80.6819C105.733 81.0189 105.574 81.3194 105.392 81.5835L105.269 81.7611L104.039 80.9005L104.19 80.7093C104.372 80.4451 104.6 80.1992 104.873 79.9716C105.155 79.7348 105.428 79.5162 105.692 79.3158C105.374 79.3067 105.028 79.2931 104.654 79.2749C104.29 79.2475 103.957 79.1792 103.657 79.07L103.438 79.0016L103.903 77.5809L104.108 77.6492C104.417 77.7494 104.727 77.8951 105.037 78.0864C105.346 78.2776 105.633 78.4598 105.897 78.6328C105.815 78.3141 105.729 77.9816 105.638 77.6356C105.556 77.2895 105.515 76.9571 105.515 76.6383V76.4061H107.018V76.6383C107.018 76.9571 106.972 77.2895 106.881 77.6356C106.799 77.9816 106.717 78.3141 106.635 78.6328ZM114.591 78.6328C114.855 78.4598 115.142 78.2776 115.452 78.0864C115.771 77.8951 116.08 77.7494 116.381 77.6492L116.586 77.5809L117.05 79.0016L116.832 79.07C116.54 79.161 116.208 79.2248 115.835 79.2612C115.47 79.2885 115.129 79.3067 114.81 79.3158C115.065 79.5162 115.329 79.7348 115.602 79.9716C115.885 80.1992 116.121 80.4451 116.313 80.7093L116.449 80.9005L115.233 81.7611L115.097 81.5835C114.915 81.3194 114.755 81.0189 114.619 80.6819C114.482 80.345 114.35 80.0308 114.223 79.7393C114.104 80.0308 113.972 80.345 113.826 80.6819C113.69 81.0189 113.53 81.3194 113.348 81.5835L113.225 81.7611L111.996 80.9005L112.146 80.7093C112.328 80.4451 112.556 80.1992 112.829 79.9716C113.111 79.7348 113.385 79.5162 113.649 79.3158C113.33 79.3067 112.984 79.2931 112.611 79.2749C112.246 79.2475 111.914 79.1792 111.613 79.07L111.395 79.0016L111.859 77.5809L112.064 77.6492C112.374 77.7494 112.683 77.8951 112.993 78.0864C113.303 78.2776 113.59 78.4598 113.854 78.6328C113.772 78.3141 113.685 77.9816 113.594 77.6356C113.512 77.2895 113.471 76.9571 113.471 76.6383V76.4061H114.974V76.6383C114.974 76.9571 114.928 77.2895 114.837 77.6356C114.755 77.9816 114.673 78.3141 114.591 78.6328ZM122.548 78.6328C122.812 78.4598 123.099 78.2776 123.408 78.0864C123.727 77.8951 124.037 77.7494 124.337 77.6492L124.542 77.5809L125.007 79.0016L124.788 79.07C124.497 79.161 124.164 79.2248 123.791 79.2612C123.427 79.2885 123.085 79.3067 122.766 79.3158C123.021 79.5162 123.285 79.7348 123.559 79.9716C123.841 80.1992 124.078 80.4451 124.269 80.7093L124.406 80.9005L123.19 81.7611L123.053 81.5835C122.871 81.3194 122.712 81.0189 122.575 80.6819C122.438 80.345 122.306 80.0308 122.179 79.7393C122.061 80.0308 121.928 80.345 121.783 80.6819C121.646 81.0189 121.487 81.3194 121.305 81.5835L121.182 81.7611L119.952 80.9005L120.102 80.7093C120.285 80.4451 120.512 80.1992 120.785 79.9716C121.068 79.7348 121.341 79.5162 121.605 79.3158C121.286 79.3067 120.94 79.2931 120.567 79.2749C120.203 79.2475 119.87 79.1792 119.57 79.07L119.351 79.0016L119.816 77.5809L120.02 77.6492C120.33 77.7494 120.64 77.8951 120.949 78.0864C121.259 78.2776 121.546 78.4598 121.81 78.6328C121.728 78.3141 121.642 77.9816 121.551 77.6356C121.469 77.2895 121.428 76.9571 121.428 76.6383V76.4061H122.93V76.6383C122.93 76.9571 122.885 77.2895 122.794 77.6356C122.712 77.9816 122.63 78.3141 122.548 78.6328ZM135.059 78.6328C135.323 78.4598 135.61 78.2776 135.919 78.0864C136.238 77.8951 136.548 77.7494 136.848 77.6492L137.053 77.5809L137.518 79.0016L137.299 79.07C137.008 79.161 136.675 79.2248 136.302 79.2612C135.937 79.2885 135.596 79.3067 135.277 79.3158C135.532 79.5162 135.796 79.7348 136.07 79.9716C136.352 80.1992 136.589 80.4451 136.78 80.7093L136.916 80.9005L135.701 81.7611L135.564 81.5835C135.382 81.3194 135.223 81.0189 135.086 80.6819C134.949 80.345 134.817 80.0308 134.69 79.7393C134.571 80.0308 134.439 80.345 134.294 80.6819C134.157 81.0189 133.998 81.3194 133.815 81.5835L133.693 81.7611L132.463 80.9005L132.613 80.7093C132.795 80.4451 133.023 80.1992 133.296 79.9716C133.579 79.7348 133.852 79.5162 134.116 79.3158C133.797 79.3067 133.451 79.2931 133.078 79.2749C132.714 79.2475 132.381 79.1792 132.081 79.07L131.862 79.0016L132.326 77.5809L132.531 77.6492C132.841 77.7494 133.151 77.8951 133.46 78.0864C133.77 78.2776 134.057 78.4598 134.321 78.6328C134.239 78.3141 134.152 77.9816 134.061 77.6356C133.979 77.2895 133.938 76.9571 133.938 76.6383V76.4061H135.441V76.6383C135.441 76.9571 135.396 77.2895 135.305 77.6356C135.223 77.9816 135.141 78.3141 135.059 78.6328ZM143.015 78.6328C143.279 78.4598 143.566 78.2776 143.876 78.0864C144.194 77.8951 144.504 77.7494 144.805 77.6492L145.009 77.5809L145.474 79.0016L145.255 79.07C144.964 79.161 144.632 79.2248 144.258 79.2612C143.894 79.2885 143.552 79.3067 143.234 79.3158C143.489 79.5162 143.753 79.7348 144.026 79.9716C144.308 80.1992 144.545 80.4451 144.736 80.7093L144.873 80.9005L143.657 81.7611L143.52 81.5835C143.338 81.3194 143.179 81.0189 143.042 80.6819C142.906 80.345 142.774 80.0308 142.646 79.7393C142.528 80.0308 142.396 80.345 142.25 80.6819C142.113 81.0189 141.954 81.3194 141.772 81.5835L141.649 81.7611L140.419 80.9005L140.57 80.7093C140.752 80.4451 140.98 80.1992 141.253 79.9716C141.535 79.7348 141.808 79.5162 142.072 79.3158C141.754 79.3067 141.408 79.2931 141.034 79.2749C140.67 79.2475 140.337 79.1792 140.037 79.07L139.818 79.0016L140.283 77.5809L140.488 77.6492C140.797 77.7494 141.107 77.8951 141.417 78.0864C141.726 78.2776 142.013 78.4598 142.277 78.6328C142.195 78.3141 142.109 77.9816 142.018 77.6356C141.936 77.2895 141.895 76.9571 141.895 76.6383V76.4061H143.397V76.6383C143.397 76.9571 143.352 77.2895 143.261 77.6356C143.179 77.9816 143.097 78.3141 143.015 78.6328ZM150.971 78.6328C151.235 78.4598 151.522 78.2776 151.832 78.0864C152.151 77.8951 152.46 77.7494 152.761 77.6492L152.966 77.5809L153.43 79.0016L153.212 79.07C152.92 79.161 152.588 79.2248 152.214 79.2612C151.85 79.2885 151.509 79.3067 151.19 79.3158C151.445 79.5162 151.709 79.7348 151.982 79.9716C152.265 80.1992 152.501 80.4451 152.693 80.7093L152.829 80.9005L151.613 81.7611L151.477 81.5835C151.295 81.3194 151.135 81.0189 150.999 80.6819C150.862 80.345 150.73 80.0308 150.603 79.7393C150.484 80.0308 150.352 80.345 150.206 80.6819C150.07 81.0189 149.91 81.3194 149.728 81.5835L149.605 81.7611L148.376 80.9005L148.526 80.7093C148.708 80.4451 148.936 80.1992 149.209 79.9716C149.491 79.7348 149.765 79.5162 150.029 79.3158C149.71 79.3067 149.364 79.2931 148.991 79.2749C148.626 79.2475 148.294 79.1792 147.993 79.07L147.775 79.0016L148.239 77.5809L148.444 77.6492C148.754 77.7494 149.063 77.8951 149.373 78.0864C149.683 78.2776 149.97 78.4598 150.234 78.6328C150.152 78.3141 150.065 77.9816 149.974 77.6356C149.892 77.2895 149.851 76.9571 149.851 76.6383V76.4061H151.354V76.6383C151.354 76.9571 151.308 77.2895 151.217 77.6356C151.135 77.9816 151.053 78.3141 150.971 78.6328ZM158.928 78.6328C159.192 78.4598 159.479 78.2776 159.788 78.0864C160.107 77.8951 160.417 77.7494 160.717 77.6492L160.922 77.5809L161.387 79.0016L161.168 79.07C160.877 79.161 160.544 79.2248 160.171 79.2612C159.807 79.2885 159.465 79.3067 159.146 79.3158C159.401 79.5162 159.665 79.7348 159.939 79.9716C160.221 80.1992 160.458 80.4451 160.649 80.7093L160.786 80.9005L159.57 81.7611L159.433 81.5835C159.251 81.3194 159.092 81.0189 158.955 80.6819C158.818 80.345 158.686 80.0308 158.559 79.7393C158.44 80.0308 158.308 80.345 158.163 80.6819C158.026 81.0189 157.867 81.3194 157.685 81.5835L157.562 81.7611L156.332 80.9005L156.482 80.7093C156.665 80.4451 156.892 80.1992 157.165 79.9716C157.448 79.7348 157.721 79.5162 157.985 79.3158C157.666 79.3067 157.32 79.2931 156.947 79.2749C156.583 79.2475 156.25 79.1792 155.95 79.07L155.731 79.0016L156.196 77.5809L156.4 77.6492C156.71 77.7494 157.02 77.8951 157.329 78.0864C157.639 78.2776 157.926 78.4598 158.19 78.6328C158.108 78.3141 158.022 77.9816 157.93 77.6356C157.849 77.2895 157.808 76.9571 157.808 76.6383V76.4061H159.31V76.6383C159.31 76.9571 159.265 77.2895 159.174 77.6356C159.092 77.9816 159.01 78.3141 158.928 78.6328ZM167.075 81.2693C166.811 81.2693 166.556 81.2921 166.31 81.3377C166.064 81.3832 165.841 81.4515 165.641 81.5426C165.632 81.6154 165.623 81.6974 165.614 81.7885C165.614 81.8704 165.614 81.9524 165.614 82.0344C165.614 82.3986 165.636 82.7447 165.682 83.0726C165.737 83.3913 165.823 83.6737 165.941 83.9195C166.069 84.1563 166.237 84.3476 166.447 84.4933C166.666 84.6299 166.934 84.6982 167.253 84.6982C167.517 84.6982 167.74 84.6436 167.922 84.5343C168.114 84.425 168.268 84.2838 168.387 84.1108C168.505 83.9378 168.592 83.7511 168.646 83.5507C168.701 83.3412 168.728 83.1409 168.728 82.9496C168.728 82.4032 168.596 81.9888 168.332 81.7065C168.068 81.4151 167.649 81.2693 167.075 81.2693ZM167.28 79.9579C167.845 79.9579 168.323 80.0399 168.715 80.2038C169.115 80.3586 169.439 80.5726 169.685 80.8459C169.93 81.1191 170.108 81.4378 170.217 81.8021C170.336 82.1573 170.395 82.5307 170.395 82.9223C170.395 83.2775 170.331 83.6418 170.204 84.0152C170.085 84.3886 169.894 84.7301 169.63 85.0397C169.375 85.3403 169.052 85.5907 168.66 85.7911C168.268 85.9823 167.804 86.078 167.267 86.078C166.183 86.078 165.354 85.7228 164.78 85.0124C164.216 84.2929 163.933 83.3048 163.933 82.048C163.933 81.1373 164.065 80.3313 164.33 79.63C164.603 78.9197 164.985 78.3232 165.477 77.8405C165.978 77.3578 166.579 76.9935 167.28 76.7476C167.991 76.4926 168.787 76.3606 169.671 76.3514L169.767 77.7175C169.275 77.7266 168.815 77.7813 168.387 77.8815C167.959 77.9725 167.576 78.1182 167.239 78.3186C166.902 78.519 166.611 78.7785 166.365 79.0973C166.128 79.416 165.946 79.8076 165.819 80.2721C166.265 80.0626 166.752 79.9579 167.28 79.9579ZM174.457 85.873C174.512 85.1809 174.635 84.4523 174.826 83.6873C175.017 82.9223 175.249 82.1801 175.523 81.4606C175.805 80.732 176.11 80.0535 176.438 79.4251C176.775 78.7876 177.107 78.2549 177.435 77.8268H173.077V76.4061H179.402V77.6629C179.102 77.9999 178.774 78.4598 178.419 79.0426C178.064 79.6255 177.727 80.2858 177.408 81.0235C177.089 81.752 176.811 82.5353 176.575 83.3731C176.347 84.211 176.206 85.0443 176.151 85.873H174.457ZM184.708 86.078C184.462 86.078 184.207 86.0597 183.943 86.0233C183.688 85.996 183.442 85.955 183.205 85.9004C182.977 85.8548 182.768 85.8047 182.577 85.7501C182.385 85.6863 182.24 85.6272 182.139 85.5725L182.467 84.1654C182.659 84.2565 182.936 84.3612 183.301 84.4796C183.665 84.5889 184.116 84.6436 184.653 84.6436C185.372 84.6436 185.892 84.507 186.21 84.2337C186.529 83.9514 186.688 83.578 186.688 83.1136C186.688 82.813 186.625 82.5626 186.497 82.3622C186.379 82.1619 186.21 82.0025 185.992 81.8841C185.782 81.7566 185.536 81.6701 185.254 81.6245C184.981 81.5699 184.689 81.5426 184.38 81.5426H183.82V80.2038H184.503C184.712 80.2038 184.922 80.1856 185.131 80.1492C185.35 80.1036 185.545 80.0308 185.719 79.9306C185.892 79.8213 186.033 79.6801 186.142 79.5071C186.251 79.3341 186.306 79.1109 186.306 78.8377C186.306 78.6191 186.265 78.4324 186.183 78.2776C186.101 78.1228 185.992 77.9953 185.855 77.8951C185.728 77.7949 185.577 77.7221 185.404 77.6765C185.231 77.631 185.049 77.6082 184.858 77.6082C184.448 77.6082 184.084 77.672 183.765 77.7995C183.446 77.9179 183.164 78.0545 182.918 78.2093L182.317 76.9798C182.444 76.8979 182.599 76.8114 182.781 76.7203C182.964 76.6292 183.164 76.5427 183.383 76.4607C183.61 76.3788 183.852 76.315 184.107 76.2695C184.362 76.2148 184.63 76.1875 184.913 76.1875C185.441 76.1875 185.896 76.2513 186.279 76.3788C186.661 76.5063 186.975 76.6884 187.221 76.9252C187.476 77.1529 187.663 77.4261 187.781 77.7449C187.909 78.0545 187.973 78.396 187.973 78.7694C187.973 79.2066 187.85 79.5982 187.604 79.9442C187.367 80.2903 187.057 80.5544 186.675 80.7366C187.167 80.9096 187.572 81.1965 187.891 81.5972C188.218 81.9979 188.382 82.5125 188.382 83.1409C188.382 83.5598 188.31 83.9514 188.164 84.3157C188.018 84.6709 187.795 84.9805 187.494 85.2446C187.194 85.4997 186.811 85.7046 186.347 85.8594C185.892 86.0051 185.345 86.078 184.708 86.078ZM197.786 81.1327C197.786 82.7265 197.495 83.9514 196.912 84.8075C196.329 85.6545 195.523 86.078 194.494 86.078C193.465 86.078 192.659 85.6545 192.076 84.8075C191.493 83.9514 191.201 82.7265 191.201 81.1327C191.201 80.3404 191.274 79.6392 191.42 79.029C191.575 78.4097 191.793 77.8906 192.076 77.4716C192.367 77.0527 192.713 76.734 193.114 76.5154C193.524 76.2968 193.984 76.1875 194.494 76.1875C195.523 76.1875 196.329 76.6156 196.912 77.4716C197.495 78.3186 197.786 79.539 197.786 81.1327ZM196.078 81.1327C196.078 80.6409 196.051 80.181 195.996 79.753C195.942 79.325 195.851 78.9561 195.723 78.6465C195.605 78.3277 195.445 78.0773 195.245 77.8951C195.045 77.713 194.794 77.6219 194.494 77.6219C194.193 77.6219 193.938 77.713 193.729 77.8951C193.528 78.0773 193.364 78.3277 193.237 78.6465C193.118 78.9561 193.032 79.325 192.977 79.753C192.932 80.181 192.909 80.6409 192.909 81.1327C192.909 81.6245 192.932 82.0844 192.977 82.5125C193.032 82.9405 193.118 83.3139 193.237 83.6327C193.364 83.9423 193.528 84.1882 193.729 84.3704C193.938 84.5525 194.193 84.6436 194.494 84.6436C194.794 84.6436 195.045 84.5525 195.245 84.3704C195.445 84.1882 195.605 83.9423 195.723 83.6327C195.851 83.3139 195.942 82.9405 195.996 82.5125C196.051 82.0844 196.078 81.6245 196.078 81.1327Z" fill="#EEEEEE"/>
<path d="M38.2227 141.895C38.1238 141.605 38.0213 141.319 37.9153 141.036C37.8093 140.753 37.7068 140.464 37.6079 140.167H34.5127C34.4138 140.464 34.3113 140.757 34.2053 141.047C34.1064 141.329 34.0074 141.612 33.9085 141.895H32.5199C32.7955 141.11 33.057 140.386 33.3043 139.722C33.5516 139.057 33.7919 138.428 34.0251 137.835C34.2654 137.241 34.5021 136.676 34.7353 136.139C34.9685 135.602 35.2088 135.072 35.4561 134.549H36.7175C36.9648 135.072 37.2051 135.602 37.4383 136.139C37.6715 136.676 37.9047 137.241 38.1379 137.835C38.3782 138.428 38.622 139.057 38.8693 139.722C39.1237 140.386 39.3887 141.11 39.6643 141.895H38.2227ZM36.0603 135.969C35.8978 136.344 35.7105 136.799 35.4985 137.337C35.2936 137.874 35.078 138.457 34.8519 139.086H37.2687C37.0426 138.457 36.8235 137.87 36.6115 137.326C36.3995 136.782 36.2158 136.33 36.0603 135.969ZM40.5928 134.549H41.9284V141.895H40.5928V134.549ZM46.1577 137.803C46.4757 137.273 46.7867 136.736 47.0905 136.192C47.3944 135.648 47.67 135.1 47.9173 134.549H49.4013C49.0056 135.298 48.5922 136.043 48.1611 136.785C47.7371 137.52 47.2813 138.262 46.7937 139.011V141.895H45.4581V139.033C44.9705 138.276 44.5112 137.527 44.0801 136.785C43.6491 136.043 43.2357 135.298 42.8399 134.549H44.4087C44.6561 135.1 44.9281 135.648 45.2249 136.192C45.5217 136.736 45.8327 137.273 46.1577 137.803ZM50.3129 141.895V134.549H55.0299V135.683H51.6485V137.496H54.6589V138.609H51.6485V140.76H55.2843V141.895H50.3129ZM57.3465 138.216C57.3465 138.619 57.396 138.987 57.4949 139.319C57.5939 139.644 57.7352 139.923 57.9189 140.156C58.1097 140.382 58.3394 140.559 58.6079 140.686C58.8765 140.813 59.1803 140.877 59.5195 140.877C59.8517 140.877 60.152 140.813 60.4205 140.686C60.6891 140.559 60.9152 140.382 61.0989 140.156C61.2897 139.923 61.4346 139.644 61.5335 139.319C61.6325 138.987 61.6819 138.619 61.6819 138.216C61.6819 137.814 61.6325 137.45 61.5335 137.125C61.4346 136.792 61.2897 136.513 61.0989 136.287C60.9152 136.054 60.6891 135.874 60.4205 135.747C60.152 135.619 59.8517 135.556 59.5195 135.556C59.1803 135.556 58.8765 135.619 58.6079 135.747C58.3394 135.874 58.1097 136.054 57.9189 136.287C57.7352 136.52 57.5939 136.799 57.4949 137.125C57.396 137.45 57.3465 137.814 57.3465 138.216ZM63.0811 138.216C63.0811 138.845 62.9857 139.4 62.7949 139.881C62.6112 140.361 62.3568 140.764 62.0317 141.089C61.7137 141.407 61.3392 141.647 60.9081 141.81C60.4771 141.972 60.0177 142.054 59.5301 142.054C59.0425 142.054 58.5797 141.972 58.1415 141.81C57.7105 141.647 57.3324 141.407 57.0073 141.089C56.6893 140.764 56.4349 140.361 56.2441 139.881C56.0533 139.4 55.9579 138.845 55.9579 138.216C55.9579 137.587 56.0533 137.036 56.2441 136.563C56.4349 136.082 56.6929 135.679 57.0179 135.354C57.3501 135.029 57.7317 134.785 58.1627 134.623C58.5938 134.46 59.0496 134.379 59.5301 134.379C60.0107 134.379 60.4665 134.46 60.8975 134.623C61.3286 134.785 61.7031 135.029 62.0211 135.354C62.3462 135.679 62.6041 136.082 62.7949 136.563C62.9857 137.036 63.0811 137.587 63.0811 138.216ZM69.1891 140.739V141.895H64.5463V134.549H65.8819V140.739H69.1891ZM75.3538 141.895C75.2548 141.605 75.1524 141.319 75.0464 141.036C74.9404 140.753 74.8379 140.464 74.739 140.167H71.6438C71.5448 140.464 71.4424 140.757 71.3364 141.047C71.2374 141.329 71.1385 141.612 71.0396 141.895H69.651C69.9266 141.11 70.188 140.386 70.4354 139.722C70.6827 139.057 70.923 138.428 71.1562 137.835C71.3964 137.241 71.6332 136.676 71.8664 136.139C72.0996 135.602 72.3398 135.072 72.5872 134.549H73.8486C74.0959 135.072 74.3362 135.602 74.5694 136.139C74.8026 136.676 75.0358 137.241 75.269 137.835C75.5092 138.428 75.753 139.057 76.0004 139.722C76.2548 140.386 76.5198 141.11 76.7954 141.895H75.3538ZM73.1914 135.969C73.0288 136.344 72.8416 136.799 72.6296 137.337C72.4246 137.874 72.2091 138.457 71.983 139.086H74.3998C74.1736 138.457 73.9546 137.87 73.7426 137.326C73.5306 136.782 73.3468 136.33 73.1914 135.969ZM81.7985 134.549C81.954 134.817 82.1271 135.146 82.3179 135.535C82.5087 135.923 82.703 136.333 82.9009 136.764C83.0988 137.188 83.2931 137.623 83.4839 138.068C83.6818 138.506 83.862 138.912 84.0245 139.287C84.187 138.912 84.3637 138.506 84.5545 138.068C84.7453 137.623 84.9396 137.188 85.1375 136.764C85.3354 136.333 85.5297 135.923 85.7205 135.535C85.9113 135.146 86.0844 134.817 86.2399 134.549H87.4483C87.5119 135.086 87.572 135.658 87.6285 136.266C87.685 136.867 87.7345 137.485 87.7769 138.121C87.8264 138.75 87.8688 139.386 87.9041 140.029C87.9465 140.665 87.9818 141.287 88.0101 141.895H86.6957C86.6674 141.039 86.6321 140.16 86.5897 139.255C86.5544 138.351 86.4978 137.474 86.4201 136.626C86.3424 136.789 86.2505 136.983 86.1445 137.209C86.0385 137.435 85.9254 137.683 85.8053 137.951C85.6852 138.213 85.5615 138.485 85.4343 138.768C85.3142 139.05 85.194 139.326 85.0739 139.594C84.9608 139.856 84.8548 140.103 84.7559 140.336C84.657 140.562 84.5722 140.757 84.5015 140.919H83.5051C83.4344 140.757 83.3496 140.559 83.2507 140.326C83.1518 140.093 83.0422 139.845 82.9221 139.584C82.809 139.315 82.6889 139.04 82.5617 138.757C82.4416 138.474 82.3214 138.202 82.2013 137.941C82.0812 137.679 81.9681 137.435 81.8621 137.209C81.7561 136.976 81.6642 136.782 81.5865 136.626C81.5088 137.474 81.4487 138.351 81.4063 139.255C81.371 140.16 81.3392 141.039 81.3109 141.895H79.9965C80.0248 141.287 80.0566 140.658 80.0919 140.008C80.1343 139.358 80.1767 138.715 80.2191 138.079C80.2686 137.435 80.3216 136.814 80.3781 136.213C80.4346 135.612 80.4947 135.058 80.5583 134.549H81.7985ZM94.4421 141.895C94.3431 141.605 94.2407 141.319 94.1347 141.036C94.0287 140.753 93.9262 140.464 93.8273 140.167H90.7321C90.6331 140.464 90.5307 140.757 90.4247 141.047C90.3257 141.329 90.2268 141.612 90.1279 141.895H88.7393C89.0149 141.11 89.2763 140.386 89.5237 139.722C89.771 139.057 90.0113 138.428 90.2445 137.835C90.4847 137.241 90.7215 136.676 90.9547 136.139C91.1879 135.602 91.4281 135.072 91.6755 134.549H92.9369C93.1842 135.072 93.4245 135.602 93.6577 136.139C93.8909 136.676 94.1241 137.241 94.3573 137.835C94.5975 138.428 94.8413 139.057 95.0887 139.722C95.3431 140.386 95.6081 141.11 95.8837 141.895H94.4421ZM92.2797 135.969C92.1171 136.344 91.9299 136.799 91.7179 137.337C91.5129 137.874 91.2974 138.457 91.0713 139.086H93.4881C93.2619 138.457 93.0429 137.87 92.8309 137.326C92.6189 136.782 92.4351 136.33 92.2797 135.969ZM101.332 134.549V135.704H99.0738V141.895H97.7276V135.704H95.4698V134.549H101.332ZM106.876 134.549H108.212V141.895H106.876V138.64H103.686V141.895H102.35V134.549H103.686V137.485H106.876V134.549ZM109.969 141.895V134.549H114.686V135.683H111.305V137.496H114.315V138.609H111.305V140.76H114.94V141.895H109.969ZM120.886 135.376C120.999 135.757 121.12 136.156 121.247 136.573C121.374 136.983 121.505 137.397 121.639 137.814C121.78 138.223 121.918 138.63 122.052 139.033C122.194 139.428 122.328 139.803 122.455 140.156C122.561 139.775 122.664 139.361 122.763 138.916C122.861 138.464 122.96 137.997 123.059 137.517C123.158 137.029 123.254 136.534 123.346 136.033C123.444 135.531 123.536 135.036 123.621 134.549H124.999C124.752 135.877 124.476 137.156 124.172 138.386C123.868 139.608 123.529 140.778 123.155 141.895H121.883C121.332 140.467 120.798 138.909 120.282 137.22C120.021 138.075 119.756 138.888 119.487 139.658C119.219 140.428 118.95 141.174 118.682 141.895H117.41C117.028 140.778 116.685 139.608 116.381 138.386C116.085 137.156 115.812 135.877 115.565 134.549H116.996C117.081 135.029 117.169 135.52 117.261 136.022C117.36 136.524 117.459 137.019 117.558 137.506C117.664 137.987 117.77 138.453 117.876 138.905C117.982 139.358 118.088 139.775 118.194 140.156C118.328 139.796 118.462 139.418 118.597 139.022C118.738 138.619 118.876 138.213 119.01 137.803C119.144 137.386 119.272 136.973 119.392 136.563C119.519 136.153 119.636 135.757 119.742 135.376H120.886ZM133.722 134.549V135.704H131.464V141.895H130.118V135.704H127.86V134.549H133.722ZM135.363 141.195C135.363 141.442 135.278 141.644 135.108 141.799C134.946 141.955 134.748 142.032 134.515 142.032C134.274 142.032 134.073 141.955 133.91 141.799C133.748 141.644 133.667 141.442 133.667 141.195C133.667 140.948 133.748 140.746 133.91 140.591C134.073 140.428 134.274 140.347 134.515 140.347C134.748 140.347 134.946 140.428 135.108 140.591C135.278 140.746 135.363 140.948 135.363 141.195Z" fill="#EBEBEB"/>
<g filter="url(#filter2_b_4757_84924)">
<rect x="92.7109" y="106.383" width="54.8628" height="15.5783" rx="7.78917" fill="#D9D9D9" fill-opacity="0.6"/>
</g>
<path d="M113.008 116.229C112.582 116.229 112.198 116.122 111.855 115.906C111.517 115.691 111.25 115.379 111.056 114.969C110.861 114.554 110.764 114.052 110.764 113.463C110.764 112.874 110.861 112.374 111.056 111.964C111.25 111.549 111.517 111.234 111.855 111.019C112.198 110.804 112.582 110.697 113.008 110.697C113.438 110.697 113.822 110.804 114.16 111.019C114.498 111.234 114.765 111.549 114.959 111.964C115.159 112.374 115.259 112.874 115.259 113.463C115.259 114.052 115.159 114.554 114.959 114.969C114.765 115.379 114.498 115.691 114.16 115.906C113.822 116.122 113.438 116.229 113.008 116.229ZM113.008 115.361C113.259 115.361 113.476 115.294 113.661 115.161C113.845 115.023 113.989 114.813 114.091 114.531C114.199 114.249 114.252 113.893 114.252 113.463C114.252 113.027 114.199 112.671 114.091 112.395C113.989 112.113 113.845 111.906 113.661 111.772C113.476 111.634 113.259 111.565 113.008 111.565C112.767 111.565 112.552 111.634 112.362 111.772C112.178 111.906 112.032 112.113 111.924 112.395C111.822 112.671 111.77 113.027 111.77 113.463C111.77 113.893 111.822 114.249 111.924 114.531C112.032 114.813 112.178 115.023 112.362 115.161C112.552 115.294 112.767 115.361 113.008 115.361ZM116.787 116.152V111.158L117.225 111.611H115.65V110.773H117.786V116.152H116.787ZM118.285 116.921L120.82 109.682H121.681L119.145 116.921H118.285ZM121.636 116.152V115.484L123.772 113.455C123.951 113.286 124.084 113.138 124.171 113.009C124.258 112.881 124.315 112.764 124.34 112.656C124.371 112.543 124.387 112.438 124.387 112.341C124.387 112.095 124.302 111.906 124.133 111.772C123.964 111.634 123.715 111.565 123.388 111.565C123.126 111.565 122.888 111.611 122.673 111.703C122.463 111.795 122.281 111.936 122.127 112.126L121.428 111.588C121.638 111.306 121.92 111.088 122.273 110.935C122.632 110.776 123.032 110.697 123.472 110.697C123.861 110.697 124.2 110.761 124.486 110.889C124.778 111.012 125.001 111.188 125.155 111.419C125.314 111.649 125.393 111.923 125.393 112.241C125.393 112.415 125.37 112.589 125.324 112.764C125.278 112.933 125.191 113.112 125.063 113.301C124.935 113.491 124.748 113.704 124.502 113.939L122.665 115.684L122.458 115.307H125.601V116.152H121.636ZM125.988 114.931V114.239L128.639 110.773H129.707L127.094 114.239L126.595 114.085H130.86V114.931H125.988ZM128.939 116.152V114.931L128.969 114.085V113.002H129.907V116.152H128.939Z" fill="#FFFCFC"/>
<path d="M180.896 141.803V139.749C180.896 138.961 180.47 138.448 179.74 138.448C179.375 138.448 178.979 138.585 178.706 139.03C178.493 138.653 178.189 138.448 177.732 138.448C177.428 138.448 177.124 138.55 176.881 138.927V138.516H176.242V141.803H176.881V139.988C176.881 139.406 177.155 139.132 177.581 139.132C178.006 139.132 178.219 139.441 178.219 139.988V141.803H178.858V139.988C178.858 139.406 179.162 139.132 179.557 139.132C179.983 139.132 180.196 139.441 180.196 139.988V141.803H180.896ZM190.354 138.516H189.32V137.523H188.681V138.516H188.103V139.167H188.681V140.673C188.681 141.427 188.955 141.872 189.685 141.872C189.959 141.872 190.263 141.769 190.476 141.632L190.293 141.016C190.111 141.153 189.898 141.187 189.746 141.187C189.442 141.187 189.32 140.982 189.32 140.639V139.167H190.354V138.516ZM195.768 138.447C195.403 138.447 195.159 138.653 195.007 138.927V138.516H194.369V141.803H195.007V139.954C195.007 139.406 195.22 139.098 195.615 139.098C195.737 139.098 195.889 139.133 196.011 139.167L196.193 138.482C196.072 138.448 195.889 138.447 195.768 138.447ZM187.586 138.79C187.282 138.55 186.856 138.448 186.4 138.448C185.67 138.448 185.184 138.858 185.184 139.509C185.184 140.057 185.549 140.365 186.187 140.468L186.492 140.502C186.826 140.571 187.009 140.673 187.009 140.845C187.009 141.084 186.765 141.256 186.339 141.256C185.914 141.256 185.579 141.084 185.366 140.913L185.062 141.461C185.397 141.735 185.853 141.872 186.309 141.872C187.161 141.872 187.647 141.427 187.647 140.81C187.647 140.228 187.252 139.92 186.643 139.817L186.339 139.783C186.066 139.749 185.853 139.68 185.853 139.475C185.853 139.235 186.066 139.098 186.4 139.098C186.765 139.098 187.13 139.269 187.313 139.372L187.586 138.79ZM204.557 138.448C204.192 138.448 203.949 138.653 203.797 138.927V138.516H203.158V141.803H203.797V139.954C203.797 139.406 204.01 139.098 204.405 139.098C204.527 139.098 204.679 139.133 204.8 139.167L204.983 138.482C204.861 138.448 204.679 138.448 204.557 138.448ZM196.406 140.16C196.406 141.153 197.014 141.872 197.957 141.872C198.383 141.872 198.687 141.769 198.991 141.495L198.687 140.913C198.444 141.119 198.201 141.221 197.927 141.221C197.41 141.221 197.045 140.81 197.045 140.16C197.045 139.543 197.41 139.132 197.927 139.098C198.201 139.098 198.444 139.201 198.687 139.406L198.991 138.824C198.687 138.55 198.383 138.448 197.957 138.448C197.014 138.448 196.406 139.167 196.406 140.16ZM202.306 140.16V138.516H201.668V138.927C201.455 138.619 201.151 138.448 200.755 138.448C199.934 138.448 199.296 139.167 199.296 140.16C199.296 141.153 199.934 141.872 200.755 141.872C201.181 141.872 201.485 141.701 201.668 141.393V141.803H202.306V140.16ZM199.965 140.16C199.965 139.578 200.299 139.098 200.847 139.098C201.364 139.098 201.729 139.543 201.729 140.16C201.729 140.742 201.364 141.221 200.847 141.221C200.299 141.187 199.965 140.742 199.965 140.16ZM192.331 138.448C191.479 138.448 190.871 139.132 190.871 140.16C190.871 141.187 191.479 141.872 192.361 141.872C192.787 141.872 193.213 141.735 193.547 141.427L193.243 140.913C193 141.119 192.696 141.256 192.392 141.256C191.996 141.256 191.601 141.05 191.51 140.468H193.669V140.194C193.7 139.132 193.152 138.448 192.331 138.448ZM192.331 139.064C192.726 139.064 193 139.338 193.061 139.852H191.54C191.601 139.406 191.875 139.064 192.331 139.064ZM208.176 140.16V137.215H207.538V138.927C207.325 138.619 207.021 138.448 206.625 138.448C205.804 138.448 205.165 139.167 205.165 140.16C205.165 141.153 205.804 141.872 206.625 141.872C207.051 141.872 207.355 141.701 207.538 141.393V141.803H208.176V140.16ZM205.834 140.16C205.834 139.578 206.169 139.098 206.716 139.098C207.233 139.098 207.598 139.543 207.598 140.16C207.598 140.742 207.233 141.221 206.716 141.221C206.169 141.187 205.834 140.742 205.834 140.16ZM184.484 140.16V138.516H183.846V138.927C183.633 138.619 183.328 138.448 182.933 138.448C182.112 138.448 181.473 139.167 181.473 140.16C181.473 141.153 182.112 141.872 182.933 141.872C183.359 141.872 183.663 141.701 183.846 141.393V141.803H184.484V140.16ZM182.112 140.16C182.112 139.578 182.447 139.098 182.994 139.098C183.511 139.098 183.876 139.543 183.876 140.16C183.876 140.742 183.511 141.221 182.994 141.221C182.447 141.187 182.112 140.742 182.112 140.16Z" fill="#CEA3F3"/>
<path d="M187.625 117.047H197.604V134.344H187.625V117.047Z" fill="#FF5F00"/>
<path d="M188.156 124.907C188.156 121.4 189.761 118.29 192.227 116.278C190.414 114.814 188.126 113.93 185.629 113.93C179.715 113.93 174.93 118.839 174.93 124.907C174.93 130.975 179.715 135.884 185.629 135.884C188.126 135.884 190.414 135 192.227 133.536C189.761 131.554 188.156 128.414 188.156 124.907Z" fill="#EB001B"/>
<path d="M210.894 125.699C210.894 131.95 205.741 137.009 199.371 137.009C196.683 137.009 194.218 136.098 192.266 134.589C194.954 132.516 196.651 129.312 196.651 125.699C196.651 122.086 194.922 118.881 192.266 116.808C194.218 115.3 196.683 114.389 199.371 114.389C205.741 114.389 210.894 119.478 210.894 125.699H210.894Z" fill="#F79E1B"/>
<path d="M206.058 45.2116C208.178 42.7275 209.225 39.5028 208.968 36.2468C208.711 32.9908 207.172 29.9703 204.688 27.8496M202.545 42.2131C203.202 41.4444 203.7 40.5539 204.012 39.5925C204.324 38.6312 204.444 37.6178 204.365 36.6101C204.285 35.6025 204.008 34.6204 203.549 33.7199C203.09 32.8194 202.458 32.0181 201.689 31.3619M199.033 39.2146C199.563 38.5936 199.825 37.7874 199.761 36.9734C199.697 36.1594 199.312 35.4043 198.691 34.8741" stroke="white" stroke-width="1.7076" stroke-linecap="round" stroke-linejoin="round"/>
</g>
<g filter="url(#filter3_f_4757_84924)">
<path d="M162.731 56.5217C173.1 65.1142 134.157 91.0038 125.564 101.373C116.972 111.742 99.1566 107.639 88.7875 99.0462C78.4184 90.4537 57.1438 84.1562 65.7363 73.7871C74.3288 63.418 152.362 47.9292 162.731 56.5217Z" fill="white"/>
</g>
<g clip-path="url(#clip0_4757_84924)">
<path d="M39.3304 27.3164C35.9422 27.3164 33.1094 30.1503 33.1094 33.5374V44.6407C33.1094 48.0268 35.9432 50.8606 39.3304 50.8606H54.7144C58.1005 50.8606 60.9344 48.0268 60.9344 44.6396V33.5374C60.9344 30.1513 58.1005 27.3164 54.7133 27.3164H39.3304ZM39.3304 29.4568H54.7144C56.8923 29.4568 58.794 31.3585 58.794 33.5374V34.8078H52.3728C51.7789 34.8078 51.3026 34.3315 51.3026 33.7376C51.3026 33.1436 51.7789 32.6674 52.3728 32.6674C52.6567 32.6674 52.9289 32.5546 53.1296 32.3539C53.3303 32.1532 53.443 31.881 53.443 31.5972C53.443 31.3133 53.3303 31.0411 53.1296 30.8404C52.9289 30.6397 52.6567 30.527 52.3728 30.527C50.6124 30.527 49.1623 31.9771 49.1623 33.7376C49.1623 35.1202 50.0655 36.2996 51.3026 36.748V42.0647C50.0206 42.9359 49.1623 44.3977 49.1623 46.0448C49.1623 47.0326 49.4758 47.9508 49.9981 48.7203H44.0467C44.5877 47.9327 44.8786 47.0003 44.8815 46.0448C44.8815 44.3988 44.0232 42.9359 42.7411 42.0647V36.7469C43.9782 36.2996 44.8815 35.1202 44.8815 33.7376C44.8815 31.9771 43.4314 30.527 41.6709 30.527H39.5305C39.497 30.5254 39.4634 30.5254 39.4299 30.527C39.3968 30.5254 39.3636 30.5254 39.3304 30.527C39.0466 30.5535 38.7849 30.6917 38.603 30.9112C38.421 31.1307 38.3337 31.4134 38.3603 31.6972C38.3868 31.9811 38.525 32.2427 38.7445 32.4247C38.9639 32.6066 39.2467 32.6939 39.5305 32.6674H41.6709C42.2649 32.6674 42.7411 33.1436 42.7411 33.7376C42.7411 34.3315 42.2649 34.8078 41.6709 34.8078H35.2498V33.5364C35.2498 31.3585 37.1515 29.4568 39.3304 29.4568ZM35.2498 36.9481H40.6007V41.2289H35.2498V36.9481ZM53.443 36.9481H58.794V41.2289H53.443V36.9481ZM35.2498 43.3693H40.0656C41.4986 43.3693 42.7411 44.6118 42.7411 46.0448C42.7411 47.4778 41.4986 48.7203 40.0656 48.7203H39.3293C37.1515 48.7203 35.2498 46.8185 35.2498 44.6396V43.3693ZM53.9781 43.3693H58.794V44.6407C58.794 46.8185 56.8923 48.7203 54.7133 48.7203H53.9781C52.5451 48.7203 51.3026 47.4778 51.3026 46.0448C51.3026 44.6118 52.5451 43.3693 53.9781 43.3693Z" fill="white"/>
</g>
<defs>
<filter id="filter0_f_4757_84924" x="-23.7203" y="47.2309" width="186.128" height="172.468" filterUnits="userSpaceOnUse" color-interpolation-filters="sRGB">
<feFlood flood-opacity="0" result="BackgroundImageFix"/>
<feBlend mode="normal" in="SourceGraphic" in2="BackgroundImageFix" result="shape"/>
<feGaussianBlur stdDeviation="25.6141" result="effect1_foregroundBlur_4757_84924"/>
</filter>
<filter id="filter1_f_4757_84924" x="123.889" y="-52.5797" width="161.347" height="203.726" filterUnits="userSpaceOnUse" color-interpolation-filters="sRGB">
<feFlood flood-opacity="0" result="BackgroundImageFix"/>
<feBlend mode="normal" in="SourceGraphic" in2="BackgroundImageFix" result="shape"/>
<feGaussianBlur stdDeviation="25.6141" result="effect1_foregroundBlur_4757_84924"/>
</filter>
<filter id="filter2_b_4757_84924" x="75.6349" y="89.3068" width="89.0115" height="49.7302" filterUnits="userSpaceOnUse" color-interpolation-filters="sRGB">
<feFlood flood-opacity="0" result="BackgroundImageFix"/>
<feGaussianBlur in="BackgroundImageFix" stdDeviation="8.53802"/>
<feComposite in2="SourceAlpha" operator="in" result="effect1_backgroundBlur_4757_84924"/>
<feBlend mode="normal" in="SourceGraphic" in2="effect1_backgroundBlur_4757_84924" result="shape"/>
</filter>
<filter id="filter3_f_4757_84924" x="12.5141" y="2.79336" width="203.191" height="155.954" filterUnits="userSpaceOnUse" color-interpolation-filters="sRGB">
<feFlood flood-opacity="0" result="BackgroundImageFix"/>
<feBlend mode="normal" in="SourceGraphic" in2="BackgroundImageFix" result="shape"/>
<feGaussianBlur stdDeviation="25.6141" result="effect1_foregroundBlur_4757_84924"/>
</filter>
<clipPath id="clip0_4757_84924">
<rect width="27.825" height="27.825" fill="white" transform="translate(33.1094 25.1758)"/>
</clipPath>
</defs>
</svg>
