<svg width="67" height="22" viewBox="0 0 67 22" fill="none" xmlns="http://www.w3.org/2000/svg">
<path d="M38.256 17.24C37.424 17.24 36.6773 17.112 36.016 16.856C35.3547 16.6 34.7947 16.2267 34.336 15.736C33.8773 15.2347 33.5253 14.6267 33.28 13.912C33.0347 13.1973 32.912 12.376 32.912 11.448C32.912 10.52 33.0507 9.69867 33.328 8.984C33.616 8.26933 34.0053 7.66667 34.496 7.176C34.9867 6.67467 35.5627 6.296 36.224 6.04C36.8853 5.784 37.5947 5.656 38.352 5.656C38.8107 5.656 39.2267 5.69333 39.6 5.768C39.9733 5.832 40.2987 5.90667 40.576 5.992C40.8533 6.07733 41.0827 6.168 41.264 6.264C41.4453 6.36 41.5733 6.42933 41.648 6.472L41.056 8.12C40.8 7.96 40.432 7.81067 39.952 7.672C39.4827 7.52267 38.9707 7.448 38.416 7.448C37.936 7.448 37.488 7.53333 37.072 7.704C36.656 7.864 36.2933 8.10933 35.984 8.44C35.6853 8.77067 35.4507 9.18667 35.28 9.688C35.1093 10.1893 35.024 10.7707 35.024 11.432C35.024 12.0187 35.088 12.5573 35.216 13.048C35.3547 13.5387 35.5627 13.9653 35.84 14.328C36.1173 14.68 36.4693 14.9573 36.896 15.16C37.3227 15.352 37.8347 15.448 38.432 15.448C39.1467 15.448 39.728 15.3787 40.176 15.24C40.624 15.0907 40.9707 14.952 41.216 14.824L41.76 16.472C41.632 16.5573 41.456 16.6427 41.232 16.728C41.0187 16.8133 40.7627 16.8987 40.464 16.984C40.1653 17.0587 39.8293 17.1173 39.456 17.16C39.0827 17.2133 38.6827 17.24 38.256 17.24ZM46.3791 15.64C46.9765 15.64 47.4298 15.608 47.7391 15.544V13.4C47.6325 13.368 47.4778 13.336 47.2751 13.304C47.0725 13.272 46.8485 13.256 46.6031 13.256C46.3898 13.256 46.1711 13.272 45.9471 13.304C45.7338 13.336 45.5365 13.3947 45.3551 13.48C45.1845 13.5653 45.0458 13.688 44.9391 13.848C44.8325 13.9973 44.7791 14.1893 44.7791 14.424C44.7791 14.8827 44.9231 15.2027 45.2111 15.384C45.4991 15.5547 45.8885 15.64 46.3791 15.64ZM46.2191 8.424C46.8591 8.424 47.3978 8.504 47.8351 8.664C48.2725 8.824 48.6191 9.048 48.8751 9.336C49.1418 9.624 49.3285 9.976 49.4351 10.392C49.5525 10.7973 49.6111 11.2453 49.6111 11.736V16.808C49.3125 16.872 48.8591 16.9467 48.2511 17.032C47.6538 17.128 46.9765 17.176 46.2191 17.176C45.7178 17.176 45.2591 17.128 44.8431 17.032C44.4271 16.936 44.0698 16.7813 43.7711 16.568C43.4831 16.3547 43.2538 16.0773 43.0831 15.736C42.9231 15.3947 42.8431 14.9733 42.8431 14.472C42.8431 13.992 42.9338 13.5867 43.1151 13.256C43.3071 12.9253 43.5631 12.6587 43.8831 12.456C44.2031 12.2427 44.5711 12.0933 44.9871 12.008C45.4138 11.912 45.8565 11.864 46.3151 11.864C46.5285 11.864 46.7525 11.88 46.9871 11.912C47.2218 11.9333 47.4725 11.976 47.7391 12.04V11.72C47.7391 11.496 47.7125 11.2827 47.6591 11.08C47.6058 10.8773 47.5098 10.7013 47.3711 10.552C47.2431 10.392 47.0671 10.2693 46.8431 10.184C46.6298 10.0987 46.3578 10.056 46.0271 10.056C45.5791 10.056 45.1685 10.088 44.7951 10.152C44.4218 10.216 44.1178 10.2907 43.8831 10.376L43.6431 8.808C43.8885 8.72267 44.2458 8.63733 44.7151 8.552C45.1845 8.46667 45.6858 8.424 46.2191 8.424ZM56.75 10.376C56.59 10.3227 56.366 10.2693 56.078 10.216C55.8007 10.152 55.4753 10.12 55.102 10.12C54.8887 10.12 54.6593 10.1413 54.414 10.184C54.1793 10.2267 54.014 10.264 53.918 10.296V17H51.982V9.032C52.3553 8.89333 52.8193 8.76533 53.374 8.648C53.9393 8.52 54.5633 8.456 55.246 8.456C55.374 8.456 55.5233 8.46667 55.694 8.488C55.8647 8.49867 56.0353 8.52 56.206 8.552C56.3767 8.57333 56.542 8.60533 56.702 8.648C56.862 8.68 56.99 8.712 57.086 8.744L56.75 10.376ZM59.9551 12.792C59.9551 13.6453 60.1578 14.3173 60.5631 14.808C60.9685 15.288 61.5285 15.528 62.2431 15.528C62.5525 15.528 62.8138 15.5173 63.0271 15.496C63.2511 15.464 63.4325 15.432 63.5711 15.4V10.6C63.4005 10.4827 63.1711 10.376 62.8831 10.28C62.6058 10.1733 62.3071 10.12 61.9871 10.12C61.2831 10.12 60.7658 10.36 60.4351 10.84C60.1151 11.32 59.9551 11.9707 59.9551 12.792ZM65.5071 16.744C65.1231 16.8613 64.6378 16.968 64.0511 17.064C63.4751 17.16 62.8671 17.208 62.2271 17.208C61.5658 17.208 60.9738 17.1067 60.4511 16.904C59.9285 16.7013 59.4805 16.4133 59.1071 16.04C58.7445 15.656 58.4618 15.1973 58.2591 14.664C58.0671 14.12 57.9711 13.512 57.9711 12.84C57.9711 12.1787 58.0511 11.5813 58.2111 11.048C58.3818 10.504 58.6271 10.04 58.9471 9.656C59.2671 9.272 59.6565 8.97867 60.1151 8.776C60.5738 8.56267 61.1018 8.456 61.6991 8.456C62.1045 8.456 62.4618 8.504 62.7711 8.6C63.0805 8.696 63.3471 8.80267 63.5711 8.92V4.904L65.5071 4.584V16.744Z" fill="#3D0072"/>
<path d="M7.57414 4.63339C7.57792 6.07125 7.57792 7.50911 7.5817 8.94697C7.58547 10.1864 7.17925 11.3938 6.03047 12.0267C4.68519 12.7617 2.77875 12.5766 1.27854 12.4216C1.22186 12.4179 1.16895 12.4103 1.11605 12.4065C1.16517 11.3711 1.14628 10.3263 1.09715 9.29462C1.03291 7.89644 1.88127 6.22996 3.38148 5.99378C5.01206 5.73682 6.42914 5.56299 7.19814 4.66362C7.22459 4.63716 7.24727 4.61071 7.26994 4.58048C7.38331 4.42744 7.50423 4.27817 7.62515 4.12891C7.58736 4.2914 7.57414 4.46334 7.57414 4.63339Z" fill="#3D0072"/>
<path d="M2.64648 21.7869C3.76881 21.8587 4.89869 21.8417 6.0229 21.8605C7.33417 21.8832 8.67567 22.0457 9.94159 21.8152C11.7573 21.4846 13.7998 20.2999 14.4743 18.5446C15.0998 16.9197 14.805 14.9792 13.728 13.6151C13.6524 13.5206 13.5731 13.4299 13.4862 13.3392C12.3979 12.1489 10.7087 11.5272 9.10457 11.7407C7.10744 12.0053 5.34838 13.5754 4.83067 15.5196C4.50758 16.7326 4.7891 18.025 4.60016 19.2607C4.44523 20.2848 3.57231 21.3334 2.64648 21.7869Z" fill="#3D0072"/>
<path d="M13.8688 0C13.7687 0.304199 13.8896 0.63485 14.02 0.927712C15.6846 4.64234 20.1493 7.15529 19.9962 11.6162C19.9263 13.6342 18.9193 16.0054 17.2358 17.2014C17.113 17.2883 17.0015 17.3658 16.8579 17.4055C16.5367 16.8046 16.5027 15.9242 16.2287 15.261C15.8867 14.4296 15.4333 13.6115 14.8003 12.9672C14.1938 12.3512 13.4342 11.996 12.8277 11.3914C11.5543 10.1198 10.7512 8.37587 10.6454 6.57712C10.4905 4.01127 11.7734 1.4662 13.8688 0Z" fill="#3D0072"/>
<path d="M2.27785 8.95646C2.27785 8.95646 2.21927 7.83602 3.36616 7.89271C3.36805 7.89271 3.78562 9.11706 2.27785 8.95646Z" fill="white" stroke="#3D0072" stroke-width="0.315805" stroke-miterlimit="10"/>
<path d="M1.90077 18.4383C2.95054 18.4383 3.80154 17.5873 3.80154 16.5375C3.80154 15.4877 2.95054 14.6367 1.90077 14.6367C0.851004 14.6367 0 15.4877 0 16.5375C0 17.5873 0.851004 18.4383 1.90077 18.4383Z" fill="#3D0072"/>
</svg>
