<svg width="220" height="159" viewBox="0 0 220 159" fill="none" xmlns="http://www.w3.org/2000/svg">
<g filter="url(#filter0_d_2564_64931)">
<rect x="17.4062" y="4.30957" width="180.426" height="119.854" rx="19.3314" fill="#8807F7"/>
</g>
<mask id="mask0_2564_64931" style="mask-type:alpha" maskUnits="userSpaceOnUse" x="17" y="4" width="181" height="121">
<rect x="17.4062" y="4.30957" width="180.426" height="119.854" rx="19.3314" fill="#D834DB"/>
</mask>
<g mask="url(#mask0_2564_64931)">
<rect x="17.4062" y="4.30957" width="180.426" height="119.854" rx="19.3314" fill="#8807F7"/>
<g filter="url(#filter1_f_2564_64931)">
<path d="M100.93 126.608C100.93 136.824 66.7359 126.608 56.4533 126.608C46.1707 126.608 39.9038 114.216 39.9038 104C39.9038 93.7841 33.2414 78.3091 43.524 78.3091C53.8066 78.3091 100.93 116.392 100.93 126.608Z" fill="#EAA1B8"/>
</g>
<g filter="url(#filter2_f_2564_64931)">
<path d="M192.565 77.4767C186.863 86.7691 163.849 59.8549 155.214 54.5558C146.578 49.2567 148.232 34.7551 153.935 25.4626C159.637 16.1701 162.68 -1.33959 171.315 3.95947C179.95 9.25852 198.268 68.1842 192.565 77.4767Z" fill="#FFECB8" fill-opacity="0.7"/>
</g>
<path d="M52.026 63.5357C52.2253 63.4051 52.4418 63.2676 52.6755 63.1233C52.9161 62.9789 53.1498 62.869 53.3766 62.7933L53.5312 62.7418L53.8818 63.814L53.7168 63.8656C53.4969 63.9343 53.246 63.9824 52.9642 64.0099C52.6892 64.0306 52.4315 64.0443 52.1909 64.0512C52.3834 64.2024 52.5827 64.3673 52.7889 64.5461C53.002 64.7179 53.1807 64.9035 53.325 65.1028L53.4281 65.2471L52.5105 65.8967L52.4074 65.7626C52.27 65.5633 52.1497 65.3365 52.0466 65.0822C51.9435 64.8279 51.8438 64.5907 51.7476 64.3708C51.6582 64.5907 51.5586 64.8279 51.4486 65.0822C51.3455 65.3365 51.2252 65.5633 51.0877 65.7626L50.9949 65.8967L50.067 65.2471L50.1805 65.1028C50.3179 64.9035 50.4898 64.7179 50.696 64.5461C50.909 64.3673 51.1152 64.2024 51.3146 64.0512C51.074 64.0443 50.8128 64.034 50.531 64.0202C50.2561 63.9996 50.0052 63.9481 49.7784 63.8656L49.6134 63.814L49.9639 62.7418L50.1186 62.7933C50.3523 62.869 50.586 62.9789 50.8197 63.1233C51.0534 63.2676 51.2699 63.4051 51.4692 63.5357C51.4074 63.2951 51.3421 63.0442 51.2733 62.783C51.2115 62.5218 51.1805 62.271 51.1805 62.0304V61.8551H52.3146V62.0304C52.3146 62.271 52.2803 62.5218 52.2115 62.783C52.1497 63.0442 52.0878 63.2951 52.026 63.5357ZM58.0308 63.5357C58.2301 63.4051 58.4466 63.2676 58.6803 63.1233C58.9209 62.9789 59.1546 62.869 59.3814 62.7933L59.536 62.7418L59.8866 63.814L59.7216 63.8656C59.5017 63.9343 59.2508 63.9824 58.969 64.0099C58.694 64.0306 58.4363 64.0443 58.1957 64.0512C58.3882 64.2024 58.5875 64.3673 58.7937 64.5461C59.0068 64.7179 59.1855 64.9035 59.3298 65.1028L59.4329 65.2471L58.5153 65.8967L58.4122 65.7626C58.2748 65.5633 58.1545 65.3365 58.0514 65.0822C57.9483 64.8279 57.8486 64.5907 57.7524 64.3708C57.663 64.5907 57.5634 64.8279 57.4534 65.0822C57.3503 65.3365 57.23 65.5633 57.0925 65.7626L56.9998 65.8967L56.0718 65.2471L56.1853 65.1028C56.3227 64.9035 56.4946 64.7179 56.7008 64.5461C56.9138 64.3673 57.12 64.2024 57.3194 64.0512C57.0788 64.0443 56.8176 64.034 56.5358 64.0202C56.2609 63.9996 56.01 63.9481 55.7832 63.8656L55.6182 63.814L55.9687 62.7418L56.1234 62.7933C56.3571 62.869 56.5908 62.9789 56.8245 63.1233C57.0582 63.2676 57.2747 63.4051 57.474 63.5357C57.4122 63.2951 57.3469 63.0442 57.2781 62.783C57.2163 62.5218 57.1853 62.271 57.1853 62.0304V61.8551H58.3194V62.0304C58.3194 62.271 58.2851 62.5218 58.2163 62.783C58.1545 63.0442 58.0926 63.2951 58.0308 63.5357ZM64.0356 63.5357C64.2349 63.4051 64.4514 63.2676 64.6851 63.1233C64.9257 62.9789 65.1594 62.869 65.3862 62.7933L65.5408 62.7418L65.8914 63.814L65.7264 63.8656C65.5065 63.9343 65.2556 63.9824 64.9738 64.0099C64.6988 64.0306 64.4411 64.0443 64.2005 64.0512C64.393 64.2024 64.5923 64.3673 64.7985 64.5461C65.0116 64.7179 65.1903 64.9035 65.3346 65.1028L65.4377 65.2471L64.5201 65.8967L64.417 65.7626C64.2796 65.5633 64.1593 65.3365 64.0562 65.0822C63.9531 64.8279 63.8534 64.5907 63.7572 64.3708C63.6678 64.5907 63.5682 64.8279 63.4582 65.0822C63.3551 65.3365 63.2348 65.5633 63.0973 65.7626L63.0046 65.8967L62.0767 65.2471L62.1901 65.1028C62.3275 64.9035 62.4994 64.7179 62.7056 64.5461C62.9186 64.3673 63.1248 64.2024 63.3242 64.0512C63.0836 64.0443 62.8224 64.034 62.5406 64.0202C62.2657 63.9996 62.0148 63.9481 61.788 63.8656L61.623 63.814L61.9736 62.7418L62.1282 62.7933C62.3619 62.869 62.5956 62.9789 62.8293 63.1233C63.063 63.2676 63.2795 63.4051 63.4788 63.5357C63.417 63.2951 63.3517 63.0442 63.2829 62.783C63.2211 62.5218 63.1901 62.271 63.1901 62.0304V61.8551H64.3242V62.0304C64.3242 62.271 64.2899 62.5218 64.2211 62.783C64.1593 63.0442 64.0974 63.2951 64.0356 63.5357ZM70.0404 63.5357C70.2397 63.4051 70.4562 63.2676 70.6899 63.1233C70.9305 62.9789 71.1642 62.869 71.391 62.7933L71.5456 62.7418L71.8962 63.814L71.7312 63.8656C71.5113 63.9343 71.2604 63.9824 70.9786 64.0099C70.7037 64.0306 70.4459 64.0443 70.2053 64.0512C70.3978 64.2024 70.5971 64.3673 70.8033 64.5461C71.0164 64.7179 71.1951 64.9035 71.3394 65.1028L71.4425 65.2471L70.5249 65.8967L70.4218 65.7626C70.2844 65.5633 70.1641 65.3365 70.061 65.0822C69.9579 64.8279 69.8582 64.5907 69.762 64.3708C69.6726 64.5907 69.573 64.8279 69.463 65.0822C69.3599 65.3365 69.2396 65.5633 69.1022 65.7626L69.0094 65.8967L68.0815 65.2471L68.1949 65.1028C68.3323 64.9035 68.5042 64.7179 68.7104 64.5461C68.9234 64.3673 69.1296 64.2024 69.329 64.0512C69.0884 64.0443 68.8272 64.034 68.5454 64.0202C68.2705 63.9996 68.0196 63.9481 67.7928 63.8656L67.6278 63.814L67.9784 62.7418L68.133 62.7933C68.3667 62.869 68.6004 62.9789 68.8341 63.1233C69.0678 63.2676 69.2843 63.4051 69.4836 63.5357C69.4218 63.2951 69.3565 63.0442 69.2877 62.783C69.2259 62.5218 69.1949 62.271 69.1949 62.0304V61.8551H70.3291V62.0304C70.3291 62.271 70.2947 62.5218 70.226 62.783C70.1641 63.0442 70.1022 63.2951 70.0404 63.5357ZM79.4825 63.5357C79.6819 63.4051 79.8984 63.2676 80.1321 63.1233C80.3726 62.9789 80.6063 62.869 80.8332 62.7933L80.9878 62.7418L81.3383 63.814L81.1734 63.8656C80.9534 63.9343 80.7026 63.9824 80.4207 64.0099C80.1458 64.0306 79.8881 64.0443 79.6475 64.0512C79.8399 64.2024 80.0393 64.3673 80.2455 64.5461C80.4586 64.7179 80.6373 64.9035 80.7816 65.1028L80.8847 65.2471L79.9671 65.8967L79.864 65.7626C79.7265 65.5633 79.6063 65.3365 79.5032 65.0822C79.4001 64.8279 79.3004 64.5907 79.2042 64.3708C79.1148 64.5907 79.0151 64.8279 78.9052 65.0822C78.8021 65.3365 78.6818 65.5633 78.5443 65.7626L78.4515 65.8967L77.5236 65.2471L77.637 65.1028C77.7745 64.9035 77.9463 64.7179 78.1525 64.5461C78.3656 64.3673 78.5718 64.2024 78.7711 64.0512C78.5306 64.0443 78.2694 64.034 77.9876 64.0202C77.7126 63.9996 77.4618 63.9481 77.2349 63.8656L77.07 63.814L77.4205 62.7418L77.5752 62.7933C77.8089 62.869 78.0426 62.9789 78.2763 63.1233C78.51 63.2676 78.7265 63.4051 78.9258 63.5357C78.8639 63.2951 78.7986 63.0442 78.7299 62.783C78.668 62.5218 78.6371 62.271 78.6371 62.0304V61.8551H79.7712V62.0304C79.7712 62.271 79.7368 62.5218 79.6681 62.783C79.6063 63.0442 79.5444 63.2951 79.4825 63.5357ZM85.4873 63.5357C85.6867 63.4051 85.9032 63.2676 86.1369 63.1233C86.3774 62.9789 86.6111 62.869 86.838 62.7933L86.9926 62.7418L87.3432 63.814L87.1782 63.8656C86.9582 63.9343 86.7074 63.9824 86.4256 64.0099C86.1506 64.0306 85.8929 64.0443 85.6523 64.0512C85.8448 64.2024 86.0441 64.3673 86.2503 64.5461C86.4634 64.7179 86.6421 64.9035 86.7864 65.1028L86.8895 65.2471L85.9719 65.8967L85.8688 65.7626C85.7313 65.5633 85.6111 65.3365 85.508 65.0822C85.4049 64.8279 85.3052 64.5907 85.209 64.3708C85.1196 64.5907 85.02 64.8279 84.91 65.0822C84.8069 65.3365 84.6866 65.5633 84.5491 65.7626L84.4563 65.8967L83.5284 65.2471L83.6418 65.1028C83.7793 64.9035 83.9511 64.7179 84.1573 64.5461C84.3704 64.3673 84.5766 64.2024 84.7759 64.0512C84.5354 64.0443 84.2742 64.034 83.9924 64.0202C83.7174 63.9996 83.4666 63.9481 83.2397 63.8656L83.0748 63.814L83.4253 62.7418L83.58 62.7933C83.8137 62.869 84.0474 62.9789 84.2811 63.1233C84.5148 63.2676 84.7313 63.4051 84.9306 63.5357C84.8687 63.2951 84.8034 63.0442 84.7347 62.783C84.6728 62.5218 84.6419 62.271 84.6419 62.0304V61.8551H85.776V62.0304C85.776 62.271 85.7417 62.5218 85.6729 62.783C85.6111 63.0442 85.5492 63.2951 85.4873 63.5357ZM91.4921 63.5357C91.6915 63.4051 91.908 63.2676 92.1417 63.1233C92.3822 62.9789 92.6159 62.869 92.8428 62.7933L92.9974 62.7418L93.348 63.814L93.183 63.8656C92.963 63.9343 92.7122 63.9824 92.4304 64.0099C92.1554 64.0306 91.8977 64.0443 91.6571 64.0512C91.8496 64.2024 92.0489 64.3673 92.2551 64.5461C92.4682 64.7179 92.6469 64.9035 92.7912 65.1028L92.8943 65.2471L91.9767 65.8967L91.8736 65.7626C91.7361 65.5633 91.6159 65.3365 91.5128 65.0822C91.4097 64.8279 91.31 64.5907 91.2138 64.3708C91.1244 64.5907 91.0248 64.8279 90.9148 65.0822C90.8117 65.3365 90.6914 65.5633 90.5539 65.7626L90.4611 65.8967L89.5332 65.2471L89.6466 65.1028C89.7841 64.9035 89.9559 64.7179 90.1621 64.5461C90.3752 64.3673 90.5814 64.2024 90.7807 64.0512C90.5402 64.0443 90.279 64.034 89.9972 64.0202C89.7222 63.9996 89.4714 63.9481 89.2445 63.8656L89.0796 63.814L89.4301 62.7418L89.5848 62.7933C89.8185 62.869 90.0522 62.9789 90.2859 63.1233C90.5196 63.2676 90.7361 63.4051 90.9354 63.5357C90.8735 63.2951 90.8082 63.0442 90.7395 62.783C90.6776 62.5218 90.6467 62.271 90.6467 62.0304V61.8551H91.7808V62.0304C91.7808 62.271 91.7465 62.5218 91.6777 62.783C91.6159 63.0442 91.554 63.2951 91.4921 63.5357ZM97.4969 63.5357C97.6963 63.4051 97.9128 63.2676 98.1465 63.1233C98.3871 62.9789 98.6207 62.869 98.8476 62.7933L99.0022 62.7418L99.3528 63.814L99.1878 63.8656C98.9679 63.9343 98.717 63.9824 98.4352 64.0099C98.1602 64.0306 97.9025 64.0443 97.6619 64.0512C97.8544 64.2024 98.0537 64.3673 98.2599 64.5461C98.473 64.7179 98.6517 64.9035 98.796 65.1028L98.8991 65.2471L97.9815 65.8967L97.8784 65.7626C97.741 65.5633 97.6207 65.3365 97.5176 65.0822C97.4145 64.8279 97.3148 64.5907 97.2186 64.3708C97.1292 64.5907 97.0296 64.8279 96.9196 65.0822C96.8165 65.3365 96.6962 65.5633 96.5587 65.7626L96.4659 65.8967L95.538 65.2471L95.6514 65.1028C95.7889 64.9035 95.9607 64.7179 96.167 64.5461C96.38 64.3673 96.5862 64.2024 96.7856 64.0512C96.545 64.0443 96.2838 64.034 96.002 64.0202C95.7271 63.9996 95.4762 63.9481 95.2494 63.8656L95.0844 63.814L95.4349 62.7418L95.5896 62.7933C95.8233 62.869 96.057 62.9789 96.2907 63.1233C96.5244 63.2676 96.7409 63.4051 96.9402 63.5357C96.8783 63.2951 96.813 63.0442 96.7443 62.783C96.6825 62.5218 96.6515 62.271 96.6515 62.0304V61.8551H97.7856V62.0304C97.7856 62.271 97.7513 62.5218 97.6825 62.783C97.6207 63.0442 97.5588 63.2951 97.4969 63.5357ZM103.502 63.5357C103.701 63.4051 103.918 63.2676 104.151 63.1233C104.392 62.9789 104.626 62.869 104.852 62.7933L105.007 62.7418L105.358 63.814L105.193 63.8656C104.973 63.9343 104.722 63.9824 104.44 64.0099C104.165 64.0306 103.907 64.0443 103.667 64.0512C103.859 64.2024 104.058 64.3673 104.265 64.5461C104.478 64.7179 104.656 64.9035 104.801 65.1028L104.904 65.2471L103.986 65.8967L103.883 65.7626C103.746 65.5633 103.625 65.3365 103.522 65.0822C103.419 64.8279 103.32 64.5907 103.223 64.3708C103.134 64.5907 103.034 64.8279 102.924 65.0822C102.821 65.3365 102.701 65.5633 102.564 65.7626L102.471 65.8967L101.543 65.2471L101.656 65.1028C101.794 64.9035 101.966 64.7179 102.172 64.5461C102.385 64.3673 102.591 64.2024 102.79 64.0512C102.55 64.0443 102.289 64.034 102.007 64.0202C101.732 63.9996 101.481 63.9481 101.254 63.8656L101.089 63.814L101.44 62.7418L101.594 62.7933C101.828 62.869 102.062 62.9789 102.295 63.1233C102.529 63.2676 102.746 63.4051 102.945 63.5357C102.883 63.2951 102.818 63.0442 102.749 62.783C102.687 62.5218 102.656 62.271 102.656 62.0304V61.8551H103.79V62.0304C103.79 62.271 103.756 62.5218 103.687 62.783C103.625 63.0442 103.564 63.2951 103.502 63.5357ZM109.507 63.5357C109.706 63.4051 109.922 63.2676 110.156 63.1233C110.397 62.9789 110.63 62.869 110.857 62.7933L111.012 62.7418L111.362 63.814L111.197 63.8656C110.977 63.9343 110.727 63.9824 110.445 64.0099C110.17 64.0306 109.912 64.0443 109.672 64.0512C109.864 64.2024 110.063 64.3673 110.27 64.5461C110.483 64.7179 110.661 64.9035 110.806 65.1028L110.909 65.2471L109.991 65.8967L109.888 65.7626C109.751 65.5633 109.63 65.3365 109.527 65.0822C109.424 64.8279 109.324 64.5907 109.228 64.3708C109.139 64.5907 109.039 64.8279 108.929 65.0822C108.826 65.3365 108.706 65.5633 108.568 65.7626L108.476 65.8967L107.548 65.2471L107.661 65.1028C107.799 64.9035 107.97 64.7179 108.177 64.5461C108.39 64.3673 108.596 64.2024 108.795 64.0512C108.555 64.0443 108.293 64.034 108.012 64.0202C107.737 63.9996 107.486 63.9481 107.259 63.8656L107.094 63.814L107.445 62.7418L107.599 62.7933C107.833 62.869 108.067 62.9789 108.3 63.1233C108.534 63.2676 108.75 63.4051 108.95 63.5357C108.888 63.2951 108.823 63.0442 108.754 62.783C108.692 62.5218 108.661 62.271 108.661 62.0304V61.8551H109.795V62.0304C109.795 62.271 109.761 62.5218 109.692 62.783C109.63 63.0442 109.568 63.2951 109.507 63.5357ZM118.949 63.5357C119.148 63.4051 119.365 63.2676 119.598 63.1233C119.839 62.9789 120.073 62.869 120.299 62.7933L120.454 62.7418L120.805 63.814L120.64 63.8656C120.42 63.9343 120.169 63.9824 119.887 64.0099C119.612 64.0306 119.354 64.0443 119.114 64.0512C119.306 64.2024 119.505 64.3673 119.712 64.5461C119.925 64.7179 120.103 64.9035 120.248 65.1028L120.351 65.2471L119.433 65.8967L119.33 65.7626C119.193 65.5633 119.072 65.3365 118.969 65.0822C118.866 64.8279 118.767 64.5907 118.67 64.3708C118.581 64.5907 118.481 64.8279 118.371 65.0822C118.268 65.3365 118.148 65.5633 118.011 65.7626L117.918 65.8967L116.99 65.2471L117.103 65.1028C117.241 64.9035 117.413 64.7179 117.619 64.5461C117.832 64.3673 118.038 64.2024 118.237 64.0512C117.997 64.0443 117.736 64.034 117.454 64.0202C117.179 63.9996 116.928 63.9481 116.701 63.8656L116.536 63.814L116.887 62.7418L117.041 62.7933C117.275 62.869 117.509 62.9789 117.742 63.1233C117.976 63.2676 118.193 63.4051 118.392 63.5357C118.33 63.2951 118.265 63.0442 118.196 62.783C118.134 62.5218 118.103 62.271 118.103 62.0304V61.8551H119.237V62.0304C119.237 62.271 119.203 62.5218 119.134 62.783C119.072 63.0442 119.011 63.2951 118.949 63.5357ZM124.954 63.5357C125.153 63.4051 125.369 63.2676 125.603 63.1233C125.844 62.9789 126.077 62.869 126.304 62.7933L126.459 62.7418L126.809 63.814L126.644 63.8656C126.424 63.9343 126.174 63.9824 125.892 64.0099C125.617 64.0306 125.359 64.0443 125.118 64.0512C125.311 64.2024 125.51 64.3673 125.716 64.5461C125.93 64.7179 126.108 64.9035 126.253 65.1028L126.356 65.2471L125.438 65.8967L125.335 65.7626C125.198 65.5633 125.077 65.3365 124.974 65.0822C124.871 64.8279 124.771 64.5907 124.675 64.3708C124.586 64.5907 124.486 64.8279 124.376 65.0822C124.273 65.3365 124.153 65.5633 124.015 65.7626L123.923 65.8967L122.995 65.2471L123.108 65.1028C123.245 64.9035 123.417 64.7179 123.624 64.5461C123.837 64.3673 124.043 64.2024 124.242 64.0512C124.002 64.0443 123.74 64.034 123.459 64.0202C123.184 63.9996 122.933 63.9481 122.706 63.8656L122.541 63.814L122.892 62.7418L123.046 62.7933C123.28 62.869 123.514 62.9789 123.747 63.1233C123.981 63.2676 124.197 63.4051 124.397 63.5357C124.335 63.2951 124.27 63.0442 124.201 62.783C124.139 62.5218 124.108 62.271 124.108 62.0304V61.8551H125.242V62.0304C125.242 62.271 125.208 62.5218 125.139 62.783C125.077 63.0442 125.015 63.2951 124.954 63.5357ZM130.958 63.5357C131.158 63.4051 131.374 63.2676 131.608 63.1233C131.848 62.9789 132.082 62.869 132.309 62.7933L132.464 62.7418L132.814 63.814L132.649 63.8656C132.429 63.9343 132.178 63.9824 131.897 64.0099C131.622 64.0306 131.364 64.0443 131.123 64.0512C131.316 64.2024 131.515 64.3673 131.721 64.5461C131.934 64.7179 132.113 64.9035 132.257 65.1028L132.361 65.2471L131.443 65.8967L131.34 65.7626C131.202 65.5633 131.082 65.3365 130.979 65.0822C130.876 64.8279 130.776 64.5907 130.68 64.3708C130.591 64.5907 130.491 64.8279 130.381 65.0822C130.278 65.3365 130.158 65.5633 130.02 65.7626L129.927 65.8967L128.999 65.2471L129.113 65.1028C129.25 64.9035 129.422 64.7179 129.628 64.5461C129.841 64.3673 130.048 64.2024 130.247 64.0512C130.006 64.0443 129.745 64.034 129.463 64.0202C129.188 63.9996 128.938 63.9481 128.711 63.8656L128.546 63.814L128.896 62.7418L129.051 62.7933C129.285 62.869 129.518 62.9789 129.752 63.1233C129.986 63.2676 130.202 63.4051 130.402 63.5357C130.34 63.2951 130.274 63.0442 130.206 62.783C130.144 62.5218 130.113 62.271 130.113 62.0304V61.8551H131.247V62.0304C131.247 62.271 131.213 62.5218 131.144 62.783C131.082 63.0442 131.02 63.2951 130.958 63.5357ZM136.963 63.5357C137.162 63.4051 137.379 63.2676 137.613 63.1233C137.853 62.9789 138.087 62.869 138.314 62.7933L138.468 62.7418L138.819 63.814L138.654 63.8656C138.434 63.9343 138.183 63.9824 137.901 64.0099C137.626 64.0306 137.369 64.0443 137.128 64.0512C137.321 64.2024 137.52 64.3673 137.726 64.5461C137.939 64.7179 138.118 64.9035 138.262 65.1028L138.365 65.2471L137.448 65.8967L137.345 65.7626C137.207 65.5633 137.087 65.3365 136.984 65.0822C136.881 64.8279 136.781 64.5907 136.685 64.3708C136.595 64.5907 136.496 64.8279 136.386 65.0822C136.283 65.3365 136.162 65.5633 136.025 65.7626L135.932 65.8967L135.004 65.2471L135.118 65.1028C135.255 64.9035 135.427 64.7179 135.633 64.5461C135.846 64.3673 136.052 64.2024 136.252 64.0512C136.011 64.0443 135.75 64.034 135.468 64.0202C135.193 63.9996 134.942 63.9481 134.716 63.8656L134.551 63.814L134.901 62.7418L135.056 62.7933C135.289 62.869 135.523 62.9789 135.757 63.1233C135.991 63.2676 136.207 63.4051 136.406 63.5357C136.345 63.2951 136.279 63.0442 136.211 62.783C136.149 62.5218 136.118 62.271 136.118 62.0304V61.8551H137.252V62.0304C137.252 62.271 137.217 62.5218 137.149 62.783C137.087 63.0442 137.025 63.2951 136.963 63.5357ZM143.112 65.5255C142.913 65.5255 142.721 65.5427 142.535 65.5771C142.349 65.6114 142.181 65.663 142.03 65.7317C142.023 65.7867 142.016 65.8486 142.009 65.9173C142.009 65.9792 142.009 66.041 142.009 66.1029C142.009 66.3778 142.026 66.639 142.061 66.8864C142.102 67.127 142.167 67.3401 142.257 67.5257C142.353 67.7044 142.48 67.8487 142.638 67.9587C142.803 68.0618 143.006 68.1133 143.246 68.1133C143.446 68.1133 143.614 68.0721 143.752 67.9896C143.896 67.9071 144.013 67.8006 144.102 67.67C144.191 67.5394 144.257 67.3985 144.298 67.2473C144.339 67.0892 144.36 66.938 144.36 66.7936C144.36 66.3812 144.26 66.0685 144.061 65.8554C143.861 65.6355 143.545 65.5255 143.112 65.5255ZM143.267 64.5357C143.693 64.5357 144.054 64.5976 144.349 64.7213C144.652 64.8382 144.896 64.9997 145.082 65.2059C145.267 65.4121 145.401 65.6527 145.484 65.9276C145.573 66.1957 145.618 66.4775 145.618 66.773C145.618 67.0411 145.57 67.316 145.473 67.5978C145.384 67.8796 145.24 68.1374 145.04 68.3711C144.848 68.5979 144.604 68.7869 144.308 68.9381C144.013 69.0825 143.662 69.1547 143.257 69.1547C142.439 69.1547 141.813 68.8866 141.38 68.3505C140.954 67.8075 140.741 67.0617 140.741 66.1132C140.741 65.4258 140.841 64.8176 141.04 64.2883C141.246 63.7522 141.535 63.302 141.906 62.9377C142.284 62.5734 142.738 62.2985 143.267 62.1129C143.803 61.9204 144.404 61.8208 145.071 61.8139L145.143 62.8449C144.772 62.8518 144.425 62.893 144.102 62.9686C143.779 63.0373 143.49 63.1473 143.236 63.2985C142.982 63.4498 142.762 63.6456 142.576 63.8862C142.397 64.1268 142.26 64.4223 142.164 64.7729C142.501 64.6148 142.868 64.5357 143.267 64.5357ZM148.683 69C148.725 68.4776 148.817 67.9278 148.962 67.3504C149.106 66.773 149.281 66.2128 149.488 65.6699C149.701 65.12 149.931 64.6079 150.178 64.1337C150.433 63.6525 150.684 63.2504 150.931 62.9274H147.642V61.8551H152.416V62.8037C152.189 63.058 151.941 63.4051 151.673 63.845C151.405 64.2849 151.151 64.7832 150.91 65.3399C150.67 65.8898 150.46 66.4809 150.281 67.1133C150.11 67.7456 150.003 68.3745 149.962 69H148.683ZM156.42 69.1547C156.234 69.1547 156.042 69.1409 155.842 69.1134C155.65 69.0928 155.464 69.0619 155.286 69.0206C155.114 68.9863 154.956 68.9484 154.811 68.9072C154.667 68.8591 154.557 68.8144 154.481 68.7732L154.729 67.7112C154.873 67.78 155.083 67.859 155.358 67.9484C155.633 68.0309 155.973 68.0721 156.378 68.0721C156.921 68.0721 157.313 67.969 157.554 67.7628C157.794 67.5497 157.915 67.2679 157.915 66.9174C157.915 66.6905 157.867 66.5015 157.77 66.3503C157.681 66.1991 157.554 66.0788 157.389 65.9895C157.231 65.8932 157.045 65.8279 156.832 65.7936C156.626 65.7523 156.406 65.7317 156.172 65.7317H155.75V64.7213H156.265C156.423 64.7213 156.581 64.7076 156.739 64.6801C156.904 64.6457 157.052 64.5907 157.183 64.5151C157.313 64.4326 157.42 64.3261 157.502 64.1955C157.585 64.0649 157.626 63.8965 157.626 63.6903C157.626 63.5254 157.595 63.3845 157.533 63.2676C157.471 63.1508 157.389 63.0545 157.286 62.9789C157.189 62.9033 157.076 62.8483 156.945 62.814C156.815 62.7796 156.677 62.7624 156.533 62.7624C156.224 62.7624 155.949 62.8105 155.708 62.9068C155.468 62.9961 155.255 63.0992 155.069 63.2161L154.615 62.2882C154.712 62.2263 154.828 62.161 154.966 62.0923C155.103 62.0235 155.255 61.9582 155.42 61.8964C155.591 61.8345 155.774 61.7864 155.966 61.752C156.158 61.7108 156.361 61.6902 156.574 61.6902C156.973 61.6902 157.317 61.7383 157.605 61.8345C157.894 61.9307 158.131 62.0682 158.317 62.2469C158.509 62.4187 158.65 62.6249 158.739 62.8655C158.836 63.0992 158.884 63.357 158.884 63.6388C158.884 63.9687 158.791 64.2642 158.605 64.5254C158.427 64.7866 158.193 64.9859 157.904 65.1234C158.275 65.254 158.581 65.4705 158.822 65.773C159.069 66.0754 159.193 66.4637 159.193 66.938C159.193 67.2542 159.138 67.5497 159.028 67.8247C158.918 68.0927 158.75 68.3264 158.523 68.5257C158.296 68.7182 158.007 68.8728 157.657 68.9897C157.313 69.0997 156.901 69.1547 156.42 69.1547ZM166.29 65.4224C166.29 66.6252 166.07 67.5497 165.63 68.1958C165.19 68.835 164.582 69.1547 163.805 69.1547C163.029 69.1547 162.42 68.835 161.98 68.1958C161.541 67.5497 161.321 66.6252 161.321 65.4224C161.321 64.8244 161.376 64.2952 161.486 63.8347C161.602 63.3673 161.767 62.9755 161.98 62.6593C162.2 62.3431 162.462 62.1026 162.764 61.9376C163.073 61.7726 163.42 61.6902 163.805 61.6902C164.582 61.6902 165.19 62.0132 165.63 62.6593C166.07 63.2985 166.29 64.2196 166.29 65.4224ZM165.001 65.4224C165.001 65.0512 164.981 64.7041 164.939 64.3811C164.898 64.058 164.83 63.7797 164.733 63.546C164.644 63.3054 164.524 63.1164 164.372 62.9789C164.221 62.8415 164.032 62.7727 163.805 62.7727C163.579 62.7727 163.386 62.8415 163.228 62.9789C163.077 63.1164 162.953 63.3054 162.857 63.546C162.767 63.7797 162.702 64.058 162.661 64.3811C162.627 64.7041 162.609 65.0512 162.609 65.4224C162.609 65.7936 162.627 66.1407 162.661 66.4637C162.702 66.7868 162.767 67.0686 162.857 67.3092C162.953 67.5428 163.077 67.7284 163.228 67.8659C163.386 68.0034 163.579 68.0721 163.805 68.0721C164.032 68.0721 164.221 68.0034 164.372 67.8659C164.524 67.7284 164.644 67.5428 164.733 67.3092C164.83 67.0686 164.898 66.7868 164.939 66.4637C164.981 66.1407 165.001 65.7936 165.001 65.4224Z" fill="#EEEEEE"/>
<path d="M45.8665 110.544C45.7918 110.325 45.7145 110.109 45.6345 109.896C45.5545 109.683 45.4772 109.464 45.4025 109.24H43.0665C42.9918 109.464 42.9145 109.685 42.8345 109.904C42.7598 110.117 42.6852 110.331 42.6105 110.544H41.5625C41.7705 109.952 41.9678 109.405 42.1545 108.904C42.3412 108.403 42.5225 107.928 42.6985 107.48C42.8798 107.032 43.0585 106.605 43.2345 106.2C43.4105 105.795 43.5918 105.395 43.7785 105H44.7305C44.9172 105.395 45.0985 105.795 45.2745 106.2C45.4505 106.605 45.6265 107.032 45.8025 107.48C45.9838 107.928 46.1678 108.403 46.3545 108.904C46.5465 109.405 46.7465 109.952 46.9545 110.544H45.8665ZM44.2345 106.072C44.1118 106.355 43.9705 106.699 43.8105 107.104C43.6558 107.509 43.4932 107.949 43.3225 108.424H45.1465C44.9758 107.949 44.8105 107.507 44.6505 107.096C44.4905 106.685 44.3518 106.344 44.2345 106.072ZM47.6553 105H48.6633V110.544H47.6553V105ZM51.8552 107.456C52.0952 107.056 52.3299 106.651 52.5592 106.24C52.7885 105.829 52.9965 105.416 53.1832 105H54.3032C54.0045 105.565 53.6925 106.128 53.3672 106.688C53.0472 107.243 52.7032 107.803 52.3352 108.368V110.544H51.3272V108.384C50.9592 107.813 50.6125 107.248 50.2872 106.688C49.9619 106.128 49.6499 105.565 49.3512 105H50.5352C50.7219 105.416 50.9272 105.829 51.1512 106.24C51.3752 106.651 51.6099 107.056 51.8552 107.456ZM54.9912 110.544V105H58.5512V105.856H55.9992V107.224H58.2712V108.064H55.9992V109.688H58.7432V110.544H54.9912ZM60.2996 107.768C60.2996 108.072 60.3369 108.349 60.4116 108.6C60.4862 108.845 60.5929 109.056 60.7316 109.232C60.8756 109.403 61.0489 109.536 61.2516 109.632C61.4542 109.728 61.6836 109.776 61.9396 109.776C62.1902 109.776 62.4169 109.728 62.6196 109.632C62.8222 109.536 62.9929 109.403 63.1316 109.232C63.2756 109.056 63.3849 108.845 63.4596 108.6C63.5342 108.349 63.5716 108.072 63.5716 107.768C63.5716 107.464 63.5342 107.189 63.4596 106.944C63.3849 106.693 63.2756 106.483 63.1316 106.312C62.9929 106.136 62.8222 106 62.6196 105.904C62.4169 105.808 62.1902 105.76 61.9396 105.76C61.6836 105.76 61.4542 105.808 61.2516 105.904C61.0489 106 60.8756 106.136 60.7316 106.312C60.5929 106.488 60.4862 106.699 60.4116 106.944C60.3369 107.189 60.2996 107.464 60.2996 107.768ZM64.6276 107.768C64.6276 108.243 64.5556 108.661 64.4116 109.024C64.2729 109.387 64.0809 109.691 63.8356 109.936C63.5956 110.176 63.3129 110.357 62.9876 110.48C62.6622 110.603 62.3156 110.664 61.9476 110.664C61.5796 110.664 61.2302 110.603 60.8996 110.48C60.5742 110.357 60.2889 110.176 60.0436 109.936C59.8036 109.691 59.6116 109.387 59.4676 109.024C59.3236 108.661 59.2516 108.243 59.2516 107.768C59.2516 107.293 59.3236 106.877 59.4676 106.52C59.6116 106.157 59.8062 105.853 60.0516 105.608C60.3022 105.363 60.5902 105.179 60.9156 105.056C61.2409 104.933 61.5849 104.872 61.9476 104.872C62.3102 104.872 62.6542 104.933 62.9796 105.056C63.3049 105.179 63.5876 105.363 63.8276 105.608C64.0729 105.853 64.2676 106.157 64.4116 106.52C64.5556 106.877 64.6276 107.293 64.6276 107.768ZM69.2374 109.672V110.544H65.7334V105H66.7414V109.672H69.2374ZM73.8899 110.544C73.8153 110.325 73.7379 110.109 73.6579 109.896C73.5779 109.683 73.5006 109.464 73.4259 109.24H71.0899C71.0153 109.464 70.9379 109.685 70.8579 109.904C70.7833 110.117 70.7086 110.331 70.6339 110.544H69.5859C69.7939 109.952 69.9913 109.405 70.1779 108.904C70.3646 108.403 70.5459 107.928 70.7219 107.48C70.9033 107.032 71.0819 106.605 71.2579 106.2C71.4339 105.795 71.6153 105.395 71.8019 105H72.7539C72.9406 105.395 73.1219 105.795 73.2979 106.2C73.4739 106.605 73.6499 107.032 73.8259 107.48C74.0073 107.928 74.1913 108.403 74.3779 108.904C74.5699 109.405 74.7699 109.952 74.9779 110.544H73.8899ZM72.2579 106.072C72.1353 106.355 71.9939 106.699 71.8339 107.104C71.6793 107.509 71.5166 107.949 71.3459 108.424H73.1699C72.9993 107.949 72.8339 107.507 72.6739 107.096C72.5139 106.685 72.3753 106.344 72.2579 106.072ZM78.7539 105C78.8712 105.203 79.0019 105.451 79.1459 105.744C79.2899 106.037 79.4365 106.347 79.5859 106.672C79.7352 106.992 79.8819 107.32 80.0259 107.656C80.1752 107.987 80.3112 108.293 80.4339 108.576C80.5565 108.293 80.6899 107.987 80.8339 107.656C80.9779 107.32 81.1245 106.992 81.2739 106.672C81.4232 106.347 81.5699 106.037 81.7139 105.744C81.8579 105.451 81.9885 105.203 82.1059 105H83.0179C83.0659 105.405 83.1112 105.837 83.1539 106.296C83.1965 106.749 83.2339 107.216 83.2659 107.696C83.3032 108.171 83.3352 108.651 83.3619 109.136C83.3939 109.616 83.4205 110.085 83.4419 110.544H82.4499C82.4285 109.899 82.4019 109.235 82.3699 108.552C82.3432 107.869 82.3005 107.208 82.2419 106.568C82.1832 106.691 82.1139 106.837 82.0339 107.008C81.9539 107.179 81.8685 107.365 81.7779 107.568C81.6872 107.765 81.5939 107.971 81.4979 108.184C81.4072 108.397 81.3165 108.605 81.2259 108.808C81.1405 109.005 81.0605 109.192 80.9859 109.368C80.9112 109.539 80.8472 109.685 80.7939 109.808H80.0419C79.9885 109.685 79.9245 109.536 79.8499 109.36C79.7752 109.184 79.6925 108.997 79.6019 108.8C79.5165 108.597 79.4259 108.389 79.3299 108.176C79.2392 107.963 79.1485 107.757 79.0579 107.56C78.9672 107.363 78.8819 107.179 78.8019 107.008C78.7219 106.832 78.6525 106.685 78.5939 106.568C78.5352 107.208 78.4899 107.869 78.4579 108.552C78.4312 109.235 78.4072 109.899 78.3859 110.544H77.3939C77.4152 110.085 77.4392 109.611 77.4659 109.12C77.4979 108.629 77.5299 108.144 77.5619 107.664C77.5992 107.179 77.6392 106.709 77.6819 106.256C77.7245 105.803 77.7699 105.384 77.8179 105H78.7539ZM88.2962 110.544C88.2215 110.325 88.1442 110.109 88.0642 109.896C87.9842 109.683 87.9069 109.464 87.8322 109.24H85.4962C85.4215 109.464 85.3442 109.685 85.2642 109.904C85.1895 110.117 85.1149 110.331 85.0402 110.544H83.9922C84.2002 109.952 84.3975 109.405 84.5842 108.904C84.7709 108.403 84.9522 107.928 85.1282 107.48C85.3095 107.032 85.4882 106.605 85.6642 106.2C85.8402 105.795 86.0215 105.395 86.2082 105H87.1602C87.3469 105.395 87.5282 105.795 87.7042 106.2C87.8802 106.605 88.0562 107.032 88.2322 107.48C88.4135 107.928 88.5975 108.403 88.7842 108.904C88.9762 109.405 89.1762 109.952 89.3842 110.544H88.2962ZM86.6642 106.072C86.5415 106.355 86.4002 106.699 86.2402 107.104C86.0855 107.509 85.9229 107.949 85.7522 108.424H87.5762C87.4055 107.949 87.2402 107.507 87.0802 107.096C86.9202 106.685 86.7815 106.344 86.6642 106.072ZM93.4958 105V105.872H91.7918V110.544H90.7758V105.872H89.0718V105H93.4958ZM97.6806 105H98.6886V110.544H97.6806V108.088H95.2726V110.544H94.2646V105H95.2726V107.216H97.6806V105ZM100.015 110.544V105H103.575V105.856H101.023V107.224H103.295V108.064H101.023V109.688H103.767V110.544H100.015ZM108.254 105.624C108.339 105.912 108.43 106.213 108.526 106.528C108.622 106.837 108.721 107.149 108.822 107.464C108.929 107.773 109.033 108.08 109.134 108.384C109.241 108.683 109.342 108.965 109.438 109.232C109.518 108.944 109.595 108.632 109.67 108.296C109.745 107.955 109.819 107.603 109.894 107.24C109.969 106.872 110.041 106.499 110.11 106.12C110.185 105.741 110.254 105.368 110.318 105H111.358C111.171 106.003 110.963 106.968 110.734 107.896C110.505 108.819 110.249 109.701 109.966 110.544H109.006C108.59 109.467 108.187 108.291 107.798 107.016C107.601 107.661 107.401 108.275 107.198 108.856C106.995 109.437 106.793 110 106.59 110.544H105.63C105.342 109.701 105.083 108.819 104.854 107.896C104.63 106.968 104.425 106.003 104.238 105H105.318C105.382 105.363 105.449 105.733 105.518 106.112C105.593 106.491 105.667 106.864 105.742 107.232C105.822 107.595 105.902 107.947 105.982 108.288C106.062 108.629 106.142 108.944 106.222 109.232C106.323 108.96 106.425 108.675 106.526 108.376C106.633 108.072 106.737 107.765 106.838 107.456C106.939 107.141 107.035 106.829 107.126 106.52C107.222 106.211 107.31 105.912 107.39 105.624H108.254ZM117.941 105V105.872H116.237V110.544H115.221V105.872H113.517V105H117.941ZM119.18 110.016C119.18 110.203 119.116 110.355 118.988 110.472C118.865 110.589 118.716 110.648 118.54 110.648C118.358 110.648 118.206 110.589 118.084 110.472C117.961 110.355 117.9 110.203 117.9 110.016C117.9 109.829 117.961 109.677 118.084 109.56C118.206 109.437 118.358 109.376 118.54 109.376C118.716 109.376 118.865 109.437 118.988 109.56C119.116 109.677 119.18 109.829 119.18 110.016Z" fill="#EBEBEB"/>
<g filter="url(#filter3_b_2564_64931)">
<rect x="87" y="84.292" width="41.4059" height="11.7572" rx="5.87862" fill="#D9D9D9" fill-opacity="0.6"/>
</g>
<path d="M102.316 92.4398C101.995 92.4398 101.705 92.3586 101.446 92.1963C101.191 92.0339 100.99 91.798 100.843 91.4887C100.696 91.1756 100.623 90.7967 100.623 90.352C100.623 89.9074 100.696 89.5305 100.843 89.2212C100.99 88.908 101.191 88.6702 101.446 88.5078C101.705 88.3454 101.995 88.2643 102.316 88.2643C102.641 88.2643 102.931 88.3454 103.186 88.5078C103.441 88.6702 103.642 88.908 103.789 89.2212C103.94 89.5305 104.015 89.9074 104.015 90.352C104.015 90.7967 103.94 91.1756 103.789 91.4887C103.642 91.798 103.441 92.0339 103.186 92.1963C102.931 92.3586 102.641 92.4398 102.316 92.4398ZM102.316 91.7845C102.505 91.7845 102.67 91.7342 102.809 91.6337C102.948 91.5293 103.056 91.3708 103.134 91.1582C103.215 90.9455 103.255 90.6768 103.255 90.352C103.255 90.0234 103.215 89.7547 103.134 89.5459C103.056 89.3333 102.948 89.1767 102.809 89.0762C102.67 88.9718 102.505 88.9196 102.316 88.9196C102.134 88.9196 101.972 88.9718 101.829 89.0762C101.69 89.1767 101.579 89.3333 101.498 89.5459C101.421 89.7547 101.382 90.0234 101.382 90.352C101.382 90.6768 101.421 90.9455 101.498 91.1582C101.579 91.3708 101.69 91.5293 101.829 91.6337C101.972 91.7342 102.134 91.7845 102.316 91.7845ZM105.169 92.3818V88.6122L105.499 88.9544H104.31V88.3222H105.922V92.3818H105.169ZM106.299 92.9618L108.212 87.4987H108.862L106.948 92.9618H106.299ZM108.828 92.3818V91.8773L110.44 90.3462C110.575 90.2187 110.676 90.1065 110.742 90.0099C110.807 89.9132 110.85 89.8243 110.869 89.7431C110.892 89.658 110.904 89.5788 110.904 89.5053C110.904 89.3197 110.84 89.1767 110.713 89.0762C110.585 88.9718 110.397 88.9196 110.15 88.9196C109.953 88.9196 109.773 88.9544 109.611 89.024C109.452 89.0936 109.315 89.1999 109.199 89.3429L108.671 88.937C108.83 88.7243 109.042 88.56 109.309 88.444C109.58 88.3242 109.881 88.2643 110.214 88.2643C110.508 88.2643 110.763 88.3126 110.979 88.4092C111.2 88.502 111.368 88.6354 111.484 88.8094C111.604 88.9834 111.664 89.1902 111.664 89.4299C111.664 89.5614 111.646 89.6928 111.611 89.8243C111.577 89.9519 111.511 90.0872 111.414 90.2303C111.318 90.3733 111.176 90.5338 110.991 90.7116L109.605 92.0281L109.448 91.7439H111.82V92.3818H108.828ZM112.112 91.4597V90.9378L114.113 88.3222H114.919L112.948 90.9378L112.571 90.8218H115.789V91.4597H112.112ZM114.339 92.3818V91.4597L114.363 90.8218V90.0041H115.07V92.3818H114.339Z" fill="#FFFCFC"/>
<path d="M153.559 111.026V109.475C153.559 108.88 153.237 108.493 152.686 108.493C152.411 108.493 152.113 108.596 151.906 108.932C151.745 108.648 151.516 108.493 151.172 108.493C150.942 108.493 150.713 108.57 150.529 108.855V108.545H150.047V111.026H150.529V109.656C150.529 109.217 150.736 109.01 151.057 109.01C151.378 109.01 151.539 109.242 151.539 109.656V111.026H152.021V109.656C152.021 109.217 152.25 109.01 152.549 109.01C152.87 109.01 153.031 109.242 153.031 109.656V111.026H153.559ZM160.697 108.545H159.917V107.795H159.435V108.545H158.999V109.036H159.435V110.173C159.435 110.741 159.641 111.077 160.192 111.077C160.399 111.077 160.628 111 160.789 110.896L160.651 110.431C160.514 110.535 160.353 110.56 160.238 110.56C160.009 110.56 159.917 110.405 159.917 110.147V109.036H160.697V108.545ZM164.783 108.493C164.508 108.493 164.324 108.648 164.209 108.855V108.545H163.727V111.026H164.209V109.63C164.209 109.217 164.37 108.984 164.668 108.984C164.76 108.984 164.875 109.01 164.967 109.036L165.104 108.519C165.013 108.493 164.875 108.493 164.783 108.493ZM158.609 108.751C158.379 108.57 158.058 108.493 157.713 108.493C157.162 108.493 156.795 108.803 156.795 109.294C156.795 109.708 157.071 109.94 157.553 110.018L157.782 110.044C158.035 110.095 158.172 110.173 158.172 110.302C158.172 110.483 157.989 110.612 157.667 110.612C157.346 110.612 157.094 110.483 156.933 110.354L156.703 110.767C156.956 110.974 157.3 111.077 157.644 111.077C158.287 111.077 158.654 110.741 158.654 110.276C158.654 109.837 158.356 109.604 157.897 109.527L157.667 109.501C157.461 109.475 157.3 109.423 157.3 109.268C157.3 109.087 157.461 108.984 157.713 108.984C157.989 108.984 158.264 109.113 158.402 109.191L158.609 108.751ZM171.417 108.493C171.141 108.493 170.957 108.648 170.843 108.855V108.545H170.361V111.026H170.843V109.63C170.843 109.217 171.003 108.984 171.302 108.984C171.394 108.984 171.508 109.01 171.6 109.036L171.738 108.519C171.646 108.493 171.508 108.493 171.417 108.493ZM165.265 109.785C165.265 110.535 165.724 111.077 166.436 111.077C166.757 111.077 166.987 111 167.216 110.793L166.987 110.354C166.803 110.509 166.619 110.586 166.413 110.586C166.022 110.586 165.747 110.276 165.747 109.785C165.747 109.32 166.022 109.01 166.413 108.984C166.619 108.984 166.803 109.061 166.987 109.217L167.216 108.777C166.987 108.57 166.757 108.493 166.436 108.493C165.724 108.493 165.265 109.036 165.265 109.785ZM169.718 109.785V108.545H169.236V108.855C169.075 108.622 168.846 108.493 168.547 108.493C167.928 108.493 167.446 109.036 167.446 109.785C167.446 110.535 167.928 111.077 168.547 111.077C168.869 111.077 169.098 110.948 169.236 110.715V111.026H169.718V109.785ZM167.951 109.785C167.951 109.346 168.203 108.984 168.616 108.984C169.006 108.984 169.282 109.32 169.282 109.785C169.282 110.224 169.006 110.586 168.616 110.586C168.203 110.56 167.951 110.224 167.951 109.785ZM162.189 108.493C161.547 108.493 161.087 109.01 161.087 109.785C161.087 110.56 161.546 111.077 162.212 111.077C162.534 111.077 162.855 110.974 163.107 110.741L162.878 110.354C162.694 110.509 162.465 110.612 162.235 110.612C161.937 110.612 161.638 110.457 161.569 110.018H163.199V109.811C163.222 109.01 162.809 108.493 162.189 108.493ZM162.189 108.958C162.488 108.958 162.694 109.165 162.74 109.553H161.592C161.638 109.217 161.845 108.958 162.189 108.958ZM174.148 109.785V107.562H173.666V108.855C173.505 108.622 173.276 108.493 172.977 108.493C172.358 108.493 171.876 109.036 171.876 109.785C171.876 110.535 172.358 111.077 172.977 111.077C173.299 111.077 173.528 110.948 173.666 110.715V111.026H174.148V109.785ZM172.381 109.785C172.381 109.346 172.633 108.984 173.046 108.984C173.437 108.984 173.712 109.32 173.712 109.785C173.712 110.224 173.437 110.586 173.046 110.586C172.633 110.56 172.381 110.224 172.381 109.785ZM156.267 109.785V108.545H155.785V108.855C155.625 108.622 155.395 108.493 155.097 108.493C154.477 108.493 153.995 109.036 153.995 109.785C153.995 110.535 154.477 111.077 155.097 111.077C155.418 111.077 155.648 110.948 155.785 110.715V111.026H156.267V109.785ZM154.477 109.785C154.477 109.346 154.729 108.984 155.142 108.984C155.533 108.984 155.808 109.32 155.808 109.785C155.808 110.224 155.533 110.586 155.142 110.586C154.729 110.56 154.477 110.224 154.477 109.785Z" fill="#CEA3F3"/>
<path d="M158.625 92.3408H166.157V105.396H158.625V92.3408Z" fill="#FF5F00"/>
<path d="M159.021 98.274C159.021 95.6275 160.232 93.2801 162.094 91.7612C160.726 90.6566 158.999 89.9893 157.114 89.9893C152.65 89.9893 149.039 93.6943 149.039 98.274C149.039 102.854 152.65 106.559 157.114 106.559C158.998 106.559 160.726 105.891 162.094 104.787C160.232 103.291 159.021 100.921 159.021 98.274Z" fill="#EB001B"/>
<path d="M176.192 98.8698C176.192 103.588 172.303 107.406 167.495 107.406C165.466 107.406 163.606 106.718 162.133 105.58C164.162 104.015 165.442 101.596 165.442 98.8698C165.442 96.1431 164.138 93.7246 162.133 92.1597C163.606 91.0216 165.466 90.334 167.495 90.334C172.303 90.334 176.192 94.1751 176.192 98.8698H176.192Z" fill="#F79E1B"/>
<path d="M172.542 38.1268C174.142 36.2521 174.933 33.8183 174.739 31.361C174.545 28.9036 173.383 26.6239 171.508 25.0234M169.891 35.8638C170.386 35.2836 170.763 34.6116 170.998 33.886C171.234 33.1605 171.324 32.3956 171.264 31.6352C171.204 30.8747 170.995 30.1335 170.648 29.4538C170.302 28.7742 169.825 28.1695 169.245 27.6742M167.24 33.6008C167.64 33.1321 167.838 32.5237 167.79 31.9093C167.741 31.295 167.45 30.7251 166.982 30.325" stroke="white" stroke-width="1.28876" stroke-linecap="round" stroke-linejoin="round"/>
</g>
<g filter="url(#filter4_f_2564_64931)">
<path d="M139.825 46.6595C147.651 53.1444 118.26 72.6837 111.775 80.5095C105.29 88.3352 91.8446 85.2384 84.0189 78.7534C76.1931 72.2685 60.1368 67.5157 66.6218 59.69C73.1067 51.8642 131.999 40.1746 139.825 46.6595Z" fill="white"/>
</g>
<g clip-path="url(#clip0_2564_64931)">
<path d="M46.6951 24.6152C44.138 24.6152 42 26.754 42 29.3103V37.6902C42 40.2457 44.1388 42.3845 46.6951 42.3845H58.3057C60.8612 42.3845 63 40.2457 63 37.6894V29.3103C63 26.7548 60.8612 24.6152 58.3049 24.6152H46.6951ZM46.6951 26.2306H58.3057C59.9493 26.2306 61.3846 27.6659 61.3846 29.3103V30.2691H56.5385C56.0902 30.2691 55.7308 29.9097 55.7308 29.4614C55.7308 29.0131 56.0902 28.6537 56.5385 28.6537C56.7527 28.6537 56.9581 28.5686 57.1096 28.4171C57.2611 28.2657 57.3462 28.0602 57.3462 27.846C57.3462 27.6318 57.2611 27.4264 57.1096 27.2749C56.9581 27.1234 56.7527 27.0383 56.5385 27.0383C55.2098 27.0383 54.1154 28.1327 54.1154 29.4614C54.1154 30.5049 54.7971 31.395 55.7308 31.7334V35.746C54.7632 36.4035 54.1154 37.5068 54.1154 38.7498C54.1154 39.4953 54.352 40.1883 54.7462 40.7691H50.2546C50.6629 40.1747 50.8825 39.471 50.8846 38.7498C50.8846 37.5076 50.2368 36.4035 49.2692 35.746V31.7326C50.2029 31.395 50.8846 30.5049 50.8846 29.4614C50.8846 28.1327 49.7902 27.0383 48.4615 27.0383H46.8462C46.8209 27.0371 46.7955 27.0371 46.7702 27.0383C46.7452 27.0371 46.7201 27.0371 46.6951 27.0383C46.4809 27.0583 46.2834 27.1626 46.1461 27.3283C46.0088 27.4939 45.9429 27.7073 45.9629 27.9215C45.983 28.1357 46.0873 28.3332 46.2529 28.4705C46.4185 28.6078 46.6319 28.6737 46.8462 28.6537H48.4615C48.9098 28.6537 49.2692 29.0131 49.2692 29.4614C49.2692 29.9097 48.9098 30.2691 48.4615 30.2691H43.6154V29.3095C43.6154 27.6659 45.0507 26.2306 46.6951 26.2306ZM43.6154 31.8845H47.6538V35.1152H43.6154V31.8845ZM57.3462 31.8845H61.3846V35.1152H57.3462V31.8845ZM43.6154 36.7306H47.25C48.3315 36.7306 49.2692 37.6683 49.2692 38.7498C49.2692 39.8313 48.3315 40.7691 47.25 40.7691H46.6943C45.0507 40.7691 43.6154 39.3338 43.6154 37.6894V36.7306ZM57.75 36.7306H61.3846V37.6902C61.3846 39.3338 59.9493 40.7691 58.3049 40.7691H57.75C56.6685 40.7691 55.7308 39.8313 55.7308 38.7498C55.7308 37.6683 56.6685 36.7306 57.75 36.7306Z" fill="white"/>
</g>
<defs>
<filter id="filter0_d_2564_64931" x="0.652401" y="0.443298" width="219.092" height="158.517" filterUnits="userSpaceOnUse" color-interpolation-filters="sRGB">
<feFlood flood-opacity="0" result="BackgroundImageFix"/>
<feColorMatrix in="SourceAlpha" type="matrix" values="0 0 0 0 0 0 0 0 0 0 0 0 0 0 0 0 0 0 127 0" result="hardAlpha"/>
<feOffset dx="2.57752" dy="15.4651"/>
<feGaussianBlur stdDeviation="9.66568"/>
<feComposite in2="hardAlpha" operator="out"/>
<feColorMatrix type="matrix" values="0 0 0 0 0.907087 0 0 0 0 0.805512 0 0 0 0 0.994488 0 0 0 0.67 0"/>
<feBlend mode="normal" in2="BackgroundImageFix" result="effect1_dropShadow_2564_64931"/>
<feBlend mode="normal" in="SourceGraphic" in2="effect1_dropShadow_2564_64931" result="shape"/>
</filter>
<filter id="filter1_f_2564_64931" x="-0.881477" y="39.6464" width="140.474" height="130.164" filterUnits="userSpaceOnUse" color-interpolation-filters="sRGB">
<feFlood flood-opacity="0" result="BackgroundImageFix"/>
<feBlend mode="normal" in="SourceGraphic" in2="BackgroundImageFix" result="shape"/>
<feGaussianBlur stdDeviation="19.3314" result="effect1_foregroundBlur_2564_64931"/>
</filter>
<filter id="filter2_f_2564_64931" x="110.533" y="-35.6823" width="121.779" height="153.757" filterUnits="userSpaceOnUse" color-interpolation-filters="sRGB">
<feFlood flood-opacity="0" result="BackgroundImageFix"/>
<feBlend mode="normal" in="SourceGraphic" in2="BackgroundImageFix" result="shape"/>
<feGaussianBlur stdDeviation="19.3314" result="effect1_foregroundBlur_2564_64931"/>
</filter>
<filter id="filter3_b_2564_64931" x="74.1124" y="71.4044" width="67.1814" height="37.5325" filterUnits="userSpaceOnUse" color-interpolation-filters="sRGB">
<feFlood flood-opacity="0" result="BackgroundImageFix"/>
<feGaussianBlur in="BackgroundImageFix" stdDeviation="6.44379"/>
<feComposite in2="SourceAlpha" operator="in" result="effect1_backgroundBlur_2564_64931"/>
<feBlend mode="normal" in="SourceGraphic" in2="effect1_backgroundBlur_2564_64931" result="shape"/>
</filter>
<filter id="filter4_f_2564_64931" x="26.4545" y="6.10973" width="153.349" height="117.701" filterUnits="userSpaceOnUse" color-interpolation-filters="sRGB">
<feFlood flood-opacity="0" result="BackgroundImageFix"/>
<feBlend mode="normal" in="SourceGraphic" in2="BackgroundImageFix" result="shape"/>
<feGaussianBlur stdDeviation="19.3314" result="effect1_foregroundBlur_2564_64931"/>
</filter>
<clipPath id="clip0_2564_64931">
<rect width="21" height="21" fill="white" transform="translate(42 23)"/>
</clipPath>
</defs>
</svg>
