<svg width="166" height="80" viewBox="0 0 166 80" fill="none" xmlns="http://www.w3.org/2000/svg">
<path d="M10.0636 70.4729C10.0636 70.7897 10.171 71.0551 10.3857 71.269C10.5996 71.4837 10.865 71.5911 11.1818 71.5911C11.4986 71.5911 11.7644 71.4886 11.9791 71.2836C12.193 71.0786 12.3 70.8176 12.3 70.5008V67.1183H14.3127C14.5736 67.1183 14.7458 67.002 14.8293 66.7695C14.9136 66.5361 14.8718 66.3356 14.7041 66.1679L11.5732 63.037C11.4614 62.9251 11.3309 62.8692 11.1818 62.8692C11.0327 62.8692 10.9023 62.9251 10.7905 63.037L7.65955 66.1679C7.49182 66.3356 7.45007 66.5361 7.53431 66.7695C7.6178 67.002 7.79 67.1183 8.05091 67.1183H10.0636V70.4729ZM2.23636 74.9456C1.62136 74.9456 1.09507 74.7268 0.657491 74.2892C0.219164 73.8509 0 73.3242 0 72.7092V59.2911C0 58.6761 0.219164 58.1498 0.657491 57.7122C1.09507 57.2739 1.62136 57.0547 2.23636 57.0547H8.02295C8.32114 57.0547 8.60553 57.1106 8.87613 57.2224C9.14598 57.3342 9.38341 57.4926 9.58841 57.6976L11.1818 59.2911H20.1273C20.7423 59.2911 21.2689 59.5102 21.7073 59.9485C22.1448 60.3861 22.3636 60.9124 22.3636 61.5274V72.7092C22.3636 73.3242 22.1448 73.8509 21.7073 74.2892C21.2689 74.7268 20.7423 74.9456 20.1273 74.9456H2.23636Z" fill="#EAB308"/>
<path d="M40.9692 62.822C40.9692 63.2513 40.8797 63.6748 40.7008 64.0922C40.5219 64.4977 40.2893 64.8973 40.0031 65.2909C39.7287 65.6726 39.4127 66.0483 39.0548 66.418C38.697 66.7759 38.3392 67.1277 37.9814 67.4736C37.7906 67.6525 37.5759 67.8672 37.3373 68.1177C37.0988 68.3681 36.8722 68.6186 36.6575 68.8691C36.4428 69.1196 36.2579 69.3641 36.1028 69.6026C35.9478 69.8292 35.8643 70.0201 35.8524 70.1751H41.3628V72H33.4729C33.461 71.9046 33.455 71.7913 33.455 71.6601C33.455 71.5169 33.455 71.4096 33.455 71.338C33.455 70.7655 33.5444 70.2407 33.7234 69.7636C33.9142 69.2746 34.1587 68.8214 34.4569 68.4039C34.7551 67.9865 35.089 67.5929 35.4588 67.2231C35.8285 66.8534 36.1983 66.4896 36.568 66.1318C36.8543 65.8575 37.1286 65.5891 37.391 65.3267C37.6534 65.0643 37.88 64.8079 38.0708 64.5574C38.2736 64.295 38.4346 64.0326 38.5539 63.7702C38.6732 63.4959 38.7328 63.2156 38.7328 62.9293C38.7328 62.3091 38.5539 61.8678 38.1961 61.6054C37.8383 61.343 37.4029 61.2118 36.89 61.2118C36.5561 61.2118 36.246 61.2595 35.9597 61.3549C35.6735 61.4503 35.417 61.5636 35.1904 61.6948C34.9757 61.826 34.7849 61.9632 34.6179 62.1063C34.4509 62.2375 34.3257 62.3449 34.2422 62.4284L33.1687 60.9076C33.6697 60.4305 34.2541 60.0489 34.922 59.7626C35.6019 59.4644 36.3295 59.3153 37.1047 59.3153C38.4287 59.3153 39.4007 59.6314 40.021 60.2636C40.6531 60.8838 40.9692 61.7366 40.9692 62.822ZM51.1376 62.822C51.1376 63.2513 51.0482 63.6748 50.8693 64.0922C50.6904 64.4977 50.4578 64.8973 50.1715 65.2909C49.8972 65.6726 49.5811 66.0483 49.2233 66.418C48.8655 66.7759 48.5077 67.1277 48.1499 67.4736C47.959 67.6525 47.7443 67.8672 47.5058 68.1177C47.2672 68.3681 47.0406 68.6186 46.8259 68.8691C46.6112 69.1196 46.4264 69.3641 46.2713 69.6026C46.1163 69.8292 46.0328 70.0201 46.0208 70.1751H51.5312V72H43.6413C43.6294 71.9046 43.6235 71.7913 43.6235 71.6601C43.6235 71.5169 43.6235 71.4096 43.6235 71.338C43.6235 70.7655 43.7129 70.2407 43.8918 69.7636C44.0827 69.2746 44.3272 68.8214 44.6253 68.4039C44.9235 67.9865 45.2575 67.5929 45.6272 67.2231C45.997 66.8534 46.3667 66.4896 46.7365 66.1318C47.0227 65.8575 47.2971 65.5891 47.5595 65.3267C47.8219 65.0643 48.0485 64.8079 48.2393 64.5574C48.4421 64.295 48.6031 64.0326 48.7224 63.7702C48.8416 63.4959 48.9013 63.2156 48.9013 62.9293C48.9013 62.3091 48.7224 61.8678 48.3645 61.6054C48.0067 61.343 47.5714 61.2118 47.0585 61.2118C46.7245 61.2118 46.4144 61.2595 46.1282 61.3549C45.8419 61.4503 45.5855 61.5636 45.3589 61.6948C45.1442 61.826 44.9533 61.9632 44.7864 62.1063C44.6194 62.2375 44.4941 62.3449 44.4107 62.4284L43.3372 60.9076C43.8381 60.4305 44.4226 60.0489 45.0905 59.7626C45.7704 59.4644 46.4979 59.3153 47.2732 59.3153C48.5971 59.3153 49.5692 59.6314 50.1894 60.2636C50.8216 60.8838 51.1376 61.7366 51.1376 62.822ZM61.3061 62.822C61.3061 63.2513 61.2167 63.6748 61.0377 64.0922C60.8588 64.4977 60.6263 64.8973 60.34 65.2909C60.0657 65.6726 59.7496 66.0483 59.3918 66.418C59.034 66.7759 58.6761 67.1277 58.3183 67.4736C58.1275 67.6525 57.9128 67.8672 57.6743 68.1177C57.4357 68.3681 57.2091 68.6186 56.9944 68.8691C56.7797 69.1196 56.5948 69.3641 56.4398 69.6026C56.2847 69.8292 56.2012 70.0201 56.1893 70.1751H61.6997V72H53.8098C53.7979 71.9046 53.7919 71.7913 53.7919 71.6601C53.7919 71.5169 53.7919 71.4096 53.7919 71.338C53.7919 70.7655 53.8814 70.2407 54.0603 69.7636C54.2511 69.2746 54.4956 68.8214 54.7938 68.4039C55.092 67.9865 55.426 67.5929 55.7957 67.2231C56.1655 66.8534 56.5352 66.4896 56.9049 66.1318C57.1912 65.8575 57.4655 65.5891 57.7279 65.3267C57.9903 65.0643 58.2169 64.8079 58.4078 64.5574C58.6105 64.295 58.7716 64.0326 58.8908 63.7702C59.0101 63.4959 59.0697 63.2156 59.0697 62.9293C59.0697 62.3091 58.8908 61.8678 58.533 61.6054C58.1752 61.343 57.7399 61.2118 57.227 61.2118C56.893 61.2118 56.5829 61.2595 56.2967 61.3549C56.0104 61.4503 55.754 61.5636 55.5273 61.6948C55.3127 61.826 55.1218 61.9632 54.9548 62.1063C54.7879 62.2375 54.6626 62.3449 54.5791 62.4284L53.5057 60.9076C54.0066 60.4305 54.5911 60.0489 55.259 59.7626C55.9388 59.4644 56.6664 59.3153 57.4417 59.3153C58.7656 59.3153 59.7377 59.6314 60.3579 60.2636C60.99 60.8838 61.3061 61.7366 61.3061 62.822ZM68.8983 62.2673C68.612 62.6132 68.3138 62.983 68.0037 63.3766C67.7056 63.7702 67.4133 64.1817 67.1271 64.6111C66.8408 65.0404 66.5665 65.4817 66.3041 65.935C66.0417 66.3763 65.8032 66.8176 65.5885 67.2589H68.8983V62.2673ZM71.0094 59.6016V67.2589H72.4049V69.0301H71.0094V72H68.8983V69.0301H63.4594V67.4915C63.698 66.9667 64.0141 66.3644 64.4077 65.6845C64.8132 65.0047 65.2605 64.3069 65.7495 63.5913C66.2385 62.8756 66.7573 62.1719 67.306 61.4801C67.8546 60.7884 68.4033 60.1622 68.952 59.6016H71.0094ZM78.0827 65.9708C77.7369 65.9708 77.4029 66.0006 77.0809 66.0602C76.7588 66.1199 76.4666 66.2093 76.2042 66.3286C76.1923 66.424 76.1803 66.5313 76.1684 66.6506C76.1684 66.758 76.1684 66.8653 76.1684 66.9727C76.1684 67.4497 76.1982 67.903 76.2579 68.3324C76.3294 68.7498 76.4427 69.1196 76.5978 69.4416C76.7648 69.7517 76.9854 70.0022 77.2598 70.193C77.546 70.3719 77.8979 70.4614 78.3153 70.4614C78.6612 70.4614 78.9534 70.3898 79.192 70.2467C79.4425 70.1036 79.6452 69.9187 79.8003 69.6921C79.9553 69.4655 80.0686 69.2209 80.1402 68.9585C80.2118 68.6842 80.2475 68.4218 80.2475 68.1713C80.2475 67.4557 80.0746 66.913 79.7287 66.5433C79.3828 66.1616 78.8342 65.9708 78.0827 65.9708ZM78.3511 64.2532C79.0906 64.2532 79.7168 64.3606 80.2297 64.5753C80.7545 64.778 81.1779 65.0583 81.4999 65.4161C81.8219 65.774 82.0545 66.1914 82.1977 66.6685C82.3527 67.1337 82.4302 67.6227 82.4302 68.1356C82.4302 68.6007 82.3467 69.0778 82.1798 69.5668C82.0247 70.0559 81.7742 70.5031 81.4283 70.9087C81.0944 71.3023 80.671 71.6303 80.1581 71.8927C79.6452 72.1431 79.0369 72.2684 78.3332 72.2684C76.9139 72.2684 75.8285 71.8032 75.0771 70.8729C74.3376 69.9306 73.9678 68.6365 73.9678 66.9905C73.9678 65.7978 74.1408 64.7423 74.4867 63.8239C74.8445 62.8935 75.3454 62.1123 75.9895 61.4801C76.6455 60.848 77.4327 60.3709 78.3511 60.0489C79.2814 59.7149 80.3251 59.542 81.482 59.53L81.6073 61.3191C80.9632 61.3311 80.3609 61.4026 79.8003 61.5338C79.2397 61.6531 78.7387 61.8439 78.2974 62.1063C77.8561 62.3687 77.4745 62.7087 77.1524 63.1261C76.8423 63.5436 76.6038 64.0564 76.4368 64.6647C77.0212 64.3904 77.6593 64.2532 78.3511 64.2532ZM85.9612 72C86.0327 71.0935 86.1938 70.1393 86.4442 69.1375C86.6947 68.1356 86.9988 67.1635 87.3567 66.2212C87.7264 65.2671 88.126 64.3785 88.5554 63.5555C88.9967 62.7206 89.432 62.0228 89.8614 61.4623H84.1542V59.6016H92.4377V61.2476C92.0441 61.6889 91.6147 62.2912 91.1495 63.0545C90.6844 63.8179 90.2431 64.6826 89.8256 65.6487C89.4082 66.6029 89.0444 67.6287 88.7343 68.726C88.4361 69.8233 88.2512 70.9146 88.1796 72H85.9612ZM102.678 68.6723C102.678 69.1852 102.588 69.6623 102.409 70.1036C102.23 70.5449 101.962 70.9265 101.604 71.2486C101.246 71.5706 100.799 71.8211 100.262 72C99.7376 72.1789 99.1294 72.2684 98.4376 72.2684C97.6265 72.2684 96.9526 72.1551 96.4159 71.9284C95.8792 71.7018 95.4498 71.4156 95.1278 71.0697C94.8057 70.7238 94.5731 70.354 94.43 69.9604C94.2988 69.5549 94.2332 69.1732 94.2332 68.8154C94.2332 68.4576 94.2809 68.1296 94.3763 67.8314C94.4837 67.5213 94.6268 67.241 94.8057 66.9905C94.9846 66.7281 95.1874 66.4896 95.414 66.2749C95.6406 66.0602 95.8792 65.8694 96.1296 65.7024C95.581 65.3207 95.1695 64.9092 94.8952 64.4679C94.6328 64.0147 94.5016 63.466 94.5016 62.822C94.5016 62.3568 94.591 61.9155 94.7699 61.498C94.9608 61.0687 95.2291 60.6929 95.575 60.3709C95.9209 60.0489 96.3384 59.7924 96.8274 59.6016C97.3164 59.4108 97.8591 59.3153 98.4555 59.3153C99.1592 59.3153 99.7555 59.4167 100.245 59.6195C100.745 59.8223 101.151 60.0847 101.461 60.4067C101.783 60.7287 102.016 61.0865 102.159 61.4801C102.302 61.8737 102.374 62.2554 102.374 62.6252C102.374 63.2812 102.195 63.8656 101.837 64.3785C101.479 64.8794 101.068 65.279 100.602 65.5772C101.306 65.9588 101.825 66.4001 102.159 66.9011C102.505 67.402 102.678 67.9924 102.678 68.6723ZM96.3622 68.7796C96.3622 68.9585 96.398 69.1494 96.4696 69.3521C96.5411 69.5549 96.6604 69.7398 96.8274 69.9068C96.9944 70.0737 97.2091 70.2169 97.4715 70.3361C97.7339 70.4435 98.0619 70.4972 98.4555 70.4972C98.8133 70.4972 99.1234 70.4495 99.3858 70.354C99.6482 70.2586 99.8629 70.1334 100.03 69.9783C100.197 69.8113 100.322 69.6265 100.406 69.4237C100.489 69.209 100.531 68.9943 100.531 68.7796C100.531 68.4457 100.465 68.1535 100.334 67.903C100.203 67.6525 100.012 67.4378 99.7615 67.2589C99.523 67.0681 99.2367 66.9071 98.9027 66.7759C98.5688 66.6327 98.199 66.5075 97.7935 66.4001C97.3641 66.6745 97.0182 67.0084 96.7558 67.402C96.4934 67.7837 96.3622 68.2429 96.3622 68.7796ZM100.262 62.6609C100.262 62.5059 100.227 62.3389 100.155 62.16C100.095 61.9692 99.9881 61.7962 99.8331 61.6412C99.6899 61.4861 99.5051 61.3549 99.2784 61.2476C99.0518 61.1402 98.7775 61.0865 98.4555 61.0865C98.1334 61.0865 97.8531 61.1402 97.6146 61.2476C97.388 61.343 97.2031 61.4742 97.06 61.6412C96.9168 61.7962 96.8095 61.9692 96.7379 62.16C96.6664 62.3389 96.6306 62.5178 96.6306 62.6967C96.6306 63.15 96.7976 63.5793 97.1315 63.9849C97.4774 64.3904 98.0499 64.7124 98.8491 64.951C99.2904 64.6767 99.6363 64.3665 99.8867 64.0207C100.137 63.6628 100.262 63.2096 100.262 62.6609ZM108.678 65.5772C109.023 65.5772 109.363 65.5473 109.697 65.4877C110.031 65.4161 110.318 65.3148 110.556 65.1836C110.568 65.0524 110.574 64.9391 110.574 64.8436C110.574 64.7482 110.574 64.6647 110.574 64.5932C110.574 64.1161 110.538 63.6688 110.467 63.2513C110.407 62.822 110.294 62.4522 110.127 62.1421C109.972 61.8201 109.751 61.5696 109.465 61.3907C109.19 61.1999 108.845 61.1044 108.427 61.1044C108.081 61.1044 107.783 61.176 107.533 61.3191C107.294 61.4623 107.097 61.6471 106.942 61.8737C106.787 62.1004 106.674 62.3449 106.602 62.6073C106.531 62.8697 106.495 63.1261 106.495 63.3766C106.495 64.1041 106.668 64.6528 107.014 65.0225C107.372 65.3923 107.926 65.5772 108.678 65.5772ZM110.377 66.8832C110.091 67.0144 109.775 67.1158 109.429 67.1873C109.083 67.2589 108.749 67.2947 108.427 67.2947C107.688 67.2947 107.055 67.1993 106.531 67.0084C106.018 66.8057 105.594 66.5313 105.26 66.1855C104.938 65.8276 104.7 65.4161 104.545 64.951C104.39 64.4858 104.312 63.9849 104.312 63.4481C104.312 62.983 104.39 62.5119 104.545 62.0348C104.7 61.5457 104.944 61.0985 105.278 60.6929C105.612 60.2874 106.036 59.9594 106.549 59.7089C107.061 59.4465 107.67 59.3153 108.373 59.3153C109.829 59.3153 110.926 59.7865 111.665 60.7287C112.417 61.6591 112.793 62.977 112.793 64.6826C112.793 67.0919 112.172 68.9168 110.932 70.1572C109.691 71.3977 107.789 72.0239 105.225 72.0358L105.135 70.2288C105.851 70.2288 106.495 70.1692 107.067 70.0499C107.652 69.9306 108.159 69.7398 108.588 69.4774C109.029 69.215 109.399 68.8751 109.697 68.4576C109.996 68.0282 110.222 67.5034 110.377 66.8832ZM117.522 70.8192C117.522 71.2367 117.379 71.5766 117.093 71.839C116.818 72.1014 116.484 72.2326 116.091 72.2326C115.685 72.2326 115.345 72.1014 115.071 71.839C114.797 71.5766 114.66 71.2367 114.66 70.8192C114.66 70.4017 114.797 70.0618 115.071 69.7994C115.345 69.5251 115.685 69.3879 116.091 69.3879C116.484 69.3879 116.818 69.5251 117.093 69.7994C117.379 70.0618 117.522 70.4017 117.522 70.8192ZM118.643 75.3277C118.488 75.3277 118.273 75.3098 117.998 75.274C117.712 75.2502 117.462 75.1965 117.247 75.113L117.533 73.3418C117.796 73.4253 118.112 73.4671 118.482 73.4671C118.982 73.4671 119.334 73.318 119.537 73.0198C119.74 72.7335 119.841 72.2982 119.841 71.7137V62.6431H122.006V71.7495C122.006 72.9661 121.714 73.8666 121.129 74.4511C120.557 75.0355 119.728 75.3277 118.643 75.3277ZM122.239 59.9057C122.239 60.3113 122.107 60.6333 121.845 60.8719C121.583 61.1104 121.273 61.2297 120.915 61.2297C120.545 61.2297 120.229 61.1104 119.966 60.8719C119.704 60.6333 119.573 60.3113 119.573 59.9057C119.573 59.4883 119.704 59.1603 119.966 58.9217C120.229 58.6832 120.545 58.5639 120.915 58.5639C121.273 58.5639 121.583 58.6832 121.845 58.9217C122.107 59.1603 122.239 59.4883 122.239 59.9057ZM130.976 67.3663C130.976 66.4001 130.756 65.6487 130.314 65.112C129.885 64.5753 129.187 64.3069 128.221 64.3069C128.018 64.3069 127.804 64.3188 127.577 64.3427C127.362 64.3546 127.148 64.3904 126.933 64.45V69.7994C127.124 69.9306 127.374 70.0559 127.684 70.1751C128.006 70.2825 128.346 70.3361 128.704 70.3361C129.491 70.3361 130.064 70.0678 130.422 69.5311C130.792 68.9943 130.976 68.2727 130.976 67.3663ZM133.195 67.3305C133.195 68.0461 133.099 68.7021 132.909 69.2985C132.73 69.8948 132.467 70.4077 132.121 70.8371C131.776 71.2665 131.34 71.6004 130.815 71.839C130.302 72.0775 129.718 72.1968 129.062 72.1968C128.621 72.1968 128.215 72.1431 127.845 72.0358C127.476 71.9284 127.172 71.8092 126.933 71.678V75.3098H124.768V62.9472C125.21 62.8279 125.752 62.7146 126.396 62.6073C127.04 62.4999 127.72 62.4463 128.436 62.4463C129.175 62.4463 129.837 62.5596 130.422 62.7862C131.006 63.0128 131.501 63.3408 131.907 63.7702C132.324 64.1876 132.64 64.7005 132.855 65.3088C133.082 65.9052 133.195 66.5791 133.195 67.3305ZM137.126 67.08C137.126 67.9984 137.322 68.6723 137.716 69.1017C138.121 69.5191 138.64 69.7279 139.272 69.7279C139.618 69.7279 139.94 69.6801 140.239 69.5847C140.549 69.4893 140.799 69.376 140.99 69.2448V64.3964C140.835 64.3606 140.644 64.3308 140.417 64.3069C140.191 64.2711 139.905 64.2532 139.559 64.2532C138.772 64.2532 138.169 64.5156 137.752 65.0404C137.334 65.5533 137.126 66.2332 137.126 67.08ZM143.155 71.0518C143.155 72.5427 142.773 73.634 142.01 74.3258C141.258 75.0176 140.101 75.3635 138.539 75.3635C137.966 75.3635 137.406 75.3158 136.857 75.2204C136.32 75.1249 135.831 74.9997 135.39 74.8447L135.784 73.0019C136.153 73.1569 136.571 73.2822 137.036 73.3776C137.513 73.473 138.026 73.5207 138.575 73.5207C139.445 73.5207 140.066 73.3418 140.435 72.984C140.805 72.6262 140.99 72.0954 140.99 71.3917V71.0339C140.775 71.1412 140.489 71.2486 140.131 71.3559C139.785 71.4633 139.386 71.5169 138.933 71.5169C138.336 71.5169 137.788 71.4215 137.287 71.2307C136.798 71.0399 136.374 70.7596 136.016 70.3898C135.67 70.0201 135.396 69.5609 135.193 69.0122C135.002 68.4516 134.907 67.8076 134.907 67.08C134.907 66.4001 135.008 65.774 135.211 65.2015C135.426 64.6289 135.73 64.1399 136.124 63.7344C136.529 63.3289 137.018 63.0128 137.591 62.7862C138.163 62.5596 138.813 62.4463 139.541 62.4463C140.245 62.4463 140.912 62.4999 141.545 62.6073C142.177 62.7146 142.713 62.8279 143.155 62.9472V71.0518Z" fill="#EAB308"/>
<g opacity="0.740765">
<path d="M75 0C86.5899 0 96 9.4101 96 21C96 32.5899 86.5899 42 75 42C63.4101 42 54 32.5899 54 21C54 9.4101 63.4101 0 75 0Z" fill="#FFDA68"/>
<path d="M75 0C86.5899 0 96 9.4101 96 21C96 32.5899 86.5899 42 75 42C63.4101 42 54 32.5899 54 21C54 9.4101 63.4101 0 75 0Z" fill="#FFDA68"/>
</g>
<path d="M75 3.96484C84.4561 3.96484 92.1336 11.6424 92.1336 21.0984C92.1336 30.5545 84.4561 38.232 75 38.232C65.544 38.232 57.8665 30.5545 57.8665 21.0984C57.8665 11.6424 65.544 3.96484 75 3.96484Z" fill="#EAB308"/>
<path d="M67.0142 21.791L71.9994 26.6794L82.0665 16.2734" stroke="white" stroke-width="2.904" stroke-linecap="round" stroke-linejoin="round"/>
<path d="M154.56 69.44C154.707 69.5867 154.893 69.66 155.12 69.66C155.347 69.66 155.533 69.5867 155.68 69.44L158 67.12L160.34 69.46C160.487 69.6067 160.67 69.6765 160.89 69.6696C161.11 69.6632 161.293 69.5867 161.44 69.44C161.587 69.2933 161.66 69.1067 161.66 68.88C161.66 68.6533 161.587 68.4667 161.44 68.32L159.12 66L161.46 63.66C161.607 63.5133 161.677 63.3299 161.67 63.1096C161.663 62.8899 161.587 62.7067 161.44 62.56C161.293 62.4133 161.107 62.34 160.88 62.34C160.653 62.34 160.467 62.4133 160.32 62.56L158 64.88L155.66 62.54C155.513 62.3933 155.33 62.3232 155.11 62.3296C154.89 62.3365 154.707 62.4133 154.56 62.56C154.413 62.7067 154.34 62.8933 154.34 63.12C154.34 63.3467 154.413 63.5333 154.56 63.68L156.88 66L154.54 68.34C154.393 68.4867 154.323 68.6699 154.33 68.8896C154.337 69.1099 154.413 69.2933 154.56 69.44ZM158 74C156.893 74 155.853 73.7899 154.88 73.3696C153.907 72.9499 153.06 72.38 152.34 71.66C151.62 70.94 151.05 70.0933 150.63 69.12C150.21 68.1467 150 67.1067 150 66C150 64.8933 150.21 63.8533 150.63 62.88C151.05 61.9067 151.62 61.06 152.34 60.34C153.06 59.62 153.907 59.0499 154.88 58.6296C155.853 58.2099 156.893 58 158 58C159.107 58 160.147 58.2099 161.12 58.6296C162.093 59.0499 162.94 59.62 163.66 60.34C164.38 61.06 164.95 61.9067 165.37 62.88C165.79 63.8533 166 64.8933 166 66C166 67.1067 165.79 68.1467 165.37 69.12C164.95 70.0933 164.38 70.94 163.66 71.66C162.94 72.38 162.093 72.9499 161.12 73.3696C160.147 73.7899 159.107 74 158 74Z" fill="#EAB308"/>
</svg>
