<svg width="268" height="250" viewBox="0 0 268 250" fill="none" xmlns="http://www.w3.org/2000/svg">
<g opacity="0.5">
<path d="M23.0391 117.444L163.892 36.5151L23.0391 117.444Z" fill="white"/>
<path d="M23.0391 117.444L163.892 36.5151" stroke="#4ADE80" stroke-width="46.0002" stroke-linecap="round"/>
</g>
<g opacity="0.5">
<path d="M56.5469 170.523L197.4 89.5947L56.5469 170.523Z" fill="white"/>
<path d="M56.5469 170.523L197.4 89.5947" stroke="#4ADE80" stroke-width="46.0002" stroke-linecap="round"/>
</g>
<g opacity="0.5">
<path d="M233.477 69.2581L244.454 62.8677L233.477 69.2581Z" fill="white"/>
<path d="M233.477 69.2581L244.454 62.8677" stroke="#4ADE80" stroke-width="46.0002" stroke-linecap="round"/>
</g>
<g opacity="0.5">
<path d="M106.242 214.192L213.214 151.71L106.242 214.192Z" fill="white"/>
<path d="M106.242 214.192L213.214 151.71" stroke="#4ADE80" stroke-width="46.0002" stroke-linecap="round"/>
</g>
<path d="M239.417 157.683C241.13 157.861 242.377 159.396 242.199 161.109C242.021 162.823 240.485 164.069 238.772 163.891C237.059 163.714 235.812 162.178 235.99 160.465C236.168 158.751 237.704 157.505 239.417 157.683Z" stroke="#22C55E" stroke-width="2.14147"/>
<path d="M57.4096 221.45C60.2271 221.743 62.2771 224.268 61.9845 227.085C61.692 229.902 59.1669 231.952 56.3495 231.66C53.532 231.367 51.482 228.842 51.7746 226.025C52.0672 223.207 54.5922 221.157 57.4096 221.45Z" stroke="#22C55E" stroke-width="3.52149"/>
<path d="M129.113 10.9905C131.93 11.2831 133.98 13.8082 133.688 16.6256C133.395 19.443 130.87 21.493 128.053 21.2005C125.235 20.9079 123.185 18.3828 123.478 15.5654C123.77 12.748 126.295 10.698 129.113 10.9905Z" stroke="#22C55E" stroke-width="3.52149"/>
<path d="M10.3447 77.8237C11.6388 77.8237 12.6895 78.8744 12.6895 80.1685C12.6895 81.4625 11.6388 82.5132 10.3447 82.5132C9.05068 82.5132 8 81.4625 8 80.1685C8 78.8744 9.05068 77.8237 10.3447 77.8237Z" stroke="#22C55E" stroke-width="2.57407"/>
<path d="M192.454 230.729C193.748 230.729 194.799 231.779 194.799 233.073C194.799 234.367 193.748 235.418 192.454 235.418C191.16 235.418 190.109 234.367 190.109 233.073C190.109 231.779 191.16 230.729 192.454 230.729Z" stroke="#22C55E" stroke-width="2.57407"/>
<path d="M219.297 10.2827L221.806 1.21204" stroke="#22C55E" stroke-width="1.49978"/>
<path d="M216.164 4.55371L225.235 7.06272" stroke="#22C55E" stroke-width="1.49978"/>
<path d="M19.9375 163.919L22.1055 154.761" stroke="#22C55E" stroke-width="1.49978"/>
<path d="M16.6016 158.311L25.7597 160.479" stroke="#22C55E" stroke-width="1.49978"/>
<path d="M215.586 204.632L217.219 195.364" stroke="#22C55E" stroke-width="1.49978"/>
<path d="M211.922 199.228L221.19 200.861" stroke="#22C55E" stroke-width="1.49978"/>
<path d="M130.956 50.4863C168.302 50.4863 198.624 80.808 198.624 118.154C198.624 155.499 168.302 185.821 130.956 185.821C93.6108 185.821 63.2891 155.499 63.2891 118.154C63.2891 80.808 93.6108 50.4863 130.956 50.4863Z" fill="#22C55E"/>
<path d="M130.924 56.8857C164.737 56.8857 192.191 84.3396 192.191 118.153C192.191 151.967 164.737 179.42 130.924 179.42C97.1101 179.42 69.6562 151.967 69.6562 118.153C69.6562 84.3396 97.1101 56.8857 130.924 56.8857Z" fill="#22C55E"/>
<path d="M103.25 120.4L119.814 136.587L158.588 97.813" stroke="white" stroke-width="8.9987"/>
</svg>
