<svg width="13" height="13" viewBox="0 0 13 13" fill="none" xmlns="http://www.w3.org/2000/svg">
<g clip-path="url(#clip0_5036_90721)">
<path d="M11.9154 6.00176V6.50009C11.9147 7.66815 11.5365 8.80471 10.8371 9.74024C10.1377 10.6758 9.15464 11.3602 8.03452 11.6914C6.91439 12.0226 5.71721 11.9828 4.62154 11.578C3.52586 11.1732 2.59039 10.4251 1.95463 9.44517C1.31888 8.46527 1.01692 7.30612 1.09377 6.14059C1.17063 4.97506 1.62219 3.8656 2.3811 2.97767C3.14001 2.08974 4.16562 1.47092 5.30497 1.2135C6.44431 0.956082 7.63634 1.07386 8.70328 1.54926" stroke="#3D0072" stroke-width="1.08333" stroke-linecap="round" stroke-linejoin="round"/>
<path d="M11.9167 2.16675L6.5 7.58883L4.875 5.96383" stroke="#3D0072" stroke-width="1.08333" stroke-linecap="round" stroke-linejoin="round"/>
</g>
<defs>
<clipPath id="clip0_5036_90721">
<rect width="13" height="13" fill="white"/>
</clipPath>
</defs>
</svg>
