<svg width="42" height="46" viewBox="0 0 42 46" fill="none" xmlns="http://www.w3.org/2000/svg">
<ellipse cx="21" cy="23" rx="21" ry="23" fill="#E8356D"/>
<path d="M20.8841 34.1884L21.6628 16.4753M20.2134 21.3891L10.5159 14.5966M13.4884 16.5397V14.8903L10.1953 12.0547L10.5147 14.5972M20.8841 34.1884C20.8841 34.1884 26.7072 31.9384 28.6153 28.8566C30.5234 25.7747 30.4103 19.7503 30.4103 19.7503C30.3367 19.3891 30.1585 19.0576 29.8979 18.7969C29.6373 18.5362 29.3058 18.3579 28.9447 18.2841C27.7897 18.0841 26.0478 17.8191 26.0478 17.8191C25.9789 17.5164 25.8112 17.2453 25.5712 17.0484C25.3312 16.8515 25.0325 16.74 24.7222 16.7316C22.6245 16.4115 20.4966 16.3366 18.3816 16.5084C18.1311 16.5576 17.8981 16.6718 17.7058 16.8397C17.5136 17.0076 17.369 17.2231 17.2866 17.4647L16.0778 17.5647C15.1613 17.5643 14.2493 17.6937 13.3691 17.9491C13.1778 18.0784 13.0204 18.2519 12.9104 18.4549C12.8003 18.6579 12.7407 18.8844 12.7366 19.1153C12.6316 20.3928 12.5209 24.0328 12.5209 24.0328C12.5267 25.5143 12.9861 26.9584 13.8372 28.1709C15.2778 30.2897 16.6541 32.0209 20.8841 34.1884V34.1884Z" stroke="white" stroke-width="2" stroke-linecap="round" stroke-linejoin="round"/>
<path d="M13.4841 16.5388L11.3966 17.0981L7.58594 15.0256L10.5109 14.5963M23.3234 23.1487L18.0184 12.1881M19.6672 15.3337L20.4709 13.8931L18.9784 9.8125L18.0184 12.1881" stroke="white" stroke-width="2" stroke-linecap="round" stroke-linejoin="round"/>
<path d="M19.6703 15.3323L17.5753 14.8036L15.2578 11.1367L18.0216 12.1867" stroke="white" stroke-linecap="round" stroke-linejoin="round"/>
</svg>
