<svg width="46" height="42" viewBox="0 0 46 42" fill="none" xmlns="http://www.w3.org/2000/svg">
<rect x="0.101562" width="45.2656" height="41.2656" rx="4" fill="#EBEBEB"/>
<path d="M25.6673 14.1667C25.6673 13.288 26.3719 12.5834 27.2507 12.5834C28.1294 12.5834 28.834 13.288 28.834 14.1667C28.834 15.0455 28.1294 15.75 27.2507 15.75C26.3719 15.75 25.6673 15.0455 25.6673 14.1667ZM28.834 28.4167V23.6667H30.8132L28.8023 17.6263C28.6964 17.311 28.4944 17.0368 28.2246 16.8422C27.9548 16.6477 27.6308 16.5426 27.2982 16.5417H27.2032C26.8702 16.5414 26.5457 16.646 26.2757 16.8408C26.0056 17.0355 25.8039 17.3103 25.699 17.6263L25.0182 19.6688C25.8732 20.1438 26.459 21.0384 26.459 22.0834V28.4167H28.834ZM22.8965 20.1042C23.5536 20.1042 24.084 19.5738 24.084 18.9167C24.084 18.2596 23.5536 17.7292 22.8965 17.7292C22.2394 17.7292 21.709 18.2596 21.709 18.9167C21.709 19.5738 22.2394 20.1042 22.8965 20.1042ZM17.3548 15.75C18.2336 15.75 18.9382 15.0455 18.9382 14.1667C18.9382 13.288 18.2336 12.5834 17.3548 12.5834C16.4761 12.5834 15.7715 13.288 15.7715 14.1667C15.7715 15.0455 16.4761 15.75 17.3548 15.75ZM18.9382 28.4167V22.875H20.1257V18.125C20.1257 17.2542 19.4132 16.5417 18.5423 16.5417H16.1673C15.2965 16.5417 14.584 17.2542 14.584 18.125V22.875H15.7715V28.4167H18.9382ZM24.084 28.4167V25.25H24.8757V22.0834C24.8757 21.4342 24.3373 20.8959 23.6882 20.8959H22.1048C21.4557 20.8959 20.9173 21.4342 20.9173 22.0834V25.25H21.709V28.4167H24.084Z" fill="#3D0072"/>
</svg>
