<svg width="51" height="51" viewBox="0 0 51 51" fill="none" xmlns="http://www.w3.org/2000/svg">
<path d="M23.0066 42.0519H13.5959C10.4172 42.0519 7.70554 40.9575 5.46092 38.7687C3.2163 36.5659 2.09399 33.8821 2.09399 30.7173C2.09399 27.9987 2.90958 25.5728 4.54077 23.4397C6.18589 21.3066 8.33291 19.9473 10.9818 19.3618C11.8602 16.1552 13.6029 13.562 16.21 11.5823C18.831 9.58863 21.7936 8.5918 25.0978 8.5918C29.1828 8.5918 32.6403 10.0139 35.4705 12.858C38.3146 15.6881 39.7366 19.1457 39.7366 23.2306C42.1486 23.5094 44.1422 24.5551 45.7176 26.3675C47.307 28.152 48.1017 30.2433 48.1017 32.6413C48.1017 35.2623 47.1885 37.486 45.3621 39.3124C43.5358 41.1387 41.3121 42.0519 38.691 42.0519H27.1891V27.0994L30.5351 30.3409L33.4629 27.4131L25.0978 19.0481L16.7328 27.4131L19.6606 30.3409L23.0066 27.0994V42.0519Z" fill="#3D0072"/>
</svg>
