<svg width="58" height="66" viewBox="0 0 58 66" fill="none" xmlns="http://www.w3.org/2000/svg">
<path d="M42.5196 61.5679C40.0379 63.113 37.3243 64.2498 34.4824 64.935C27.6707 66.6 20.4816 65.6356 14.3495 62.2343C8.21745 58.833 3.59311 53.2449 1.39911 46.5847C-0.794896 39.9246 -0.397257 32.6821 2.51268 26.3021C5.42262 19.9222 10.6309 14.8739 17.0985 12.1643C23.5661 9.45479 30.8175 9.28325 37.406 11.6839C43.9945 14.0846 49.4357 18.8809 52.644 25.1161C55.8524 31.3513 56.5921 38.5669 54.7155 45.3234C52.8389 52.0798 48.484 57.8804 42.5196 61.5679Z" fill="#8807F7"/>
<path d="M36.3529 34.681C36.3555 36.3605 35.8598 38.0029 34.9286 39.4006C33.9974 40.7983 32.6725 41.8883 31.1216 42.5328C29.5707 43.1773 27.8635 43.3472 26.216 43.0211C24.5685 42.695 23.0547 41.8876 21.8662 40.7009C20.6778 39.5143 19.868 38.0017 19.5394 36.3547C19.2108 34.7077 19.3782 33.0002 20.0203 31.4484C20.6624 29.8965 21.7504 28.5699 23.1467 27.6366C24.5429 26.7033 26.1847 26.2051 27.8641 26.2051C30.1133 26.2051 32.2705 27.0977 33.8621 28.6868C35.4537 30.276 36.3495 32.4318 36.3529 34.681Z" fill="white"/>
<path d="M42.5196 58.0714V61.5676C40.0379 63.1127 37.3243 64.2495 34.4823 64.9347C30.8902 65.8191 27.1574 65.9757 23.5039 65.3952C19.8503 64.8147 16.3498 63.5089 13.2087 61.5547V58.0714C13.2087 54.1846 14.7528 50.4569 17.5012 47.7085C20.2496 44.96 23.9773 43.416 27.8642 43.416C31.751 43.416 35.4787 44.96 38.2271 47.7085C40.9755 50.4569 42.5196 54.1846 42.5196 58.0714Z" fill="white"/>
<path d="M44.3782 2.48828C42.24 2.48828 40.1498 3.12234 38.372 4.31027C36.5941 5.49819 35.2085 7.18662 34.3902 9.16206C33.5719 11.1375 33.3579 13.3112 33.775 15.4084C34.1921 17.5055 35.2218 19.4318 36.7337 20.9437C38.2457 22.4557 40.172 23.4853 42.2691 23.9025C44.3662 24.3196 46.54 24.1055 48.5154 23.2873C50.4908 22.469 52.1793 21.0833 53.3672 19.3055C54.5551 17.5276 55.1892 15.4374 55.1892 13.2992C55.1892 10.432 54.0502 7.68219 52.0227 5.65475C49.9953 3.6273 47.2454 2.48828 44.3782 2.48828ZM44.3782 18.3435C43.3769 18.3461 42.3974 18.0513 41.5638 17.4966C40.7301 16.9419 40.08 16.1522 39.6956 15.2276C39.3112 14.303 39.21 13.2851 39.4047 12.3029C39.5995 11.3207 40.0814 10.4184 40.7894 9.71041C41.4974 9.00238 42.3997 8.52047 43.3819 8.32576C44.3641 8.13103 45.382 8.23226 46.3066 8.61662C47.2312 9.00099 48.0209 9.65117 48.5756 10.4848C49.1303 11.3184 49.425 12.2979 49.4225 13.2992C49.4225 14.6371 48.891 15.9201 47.945 16.8661C46.9991 17.812 45.716 18.3435 44.3782 18.3435Z" fill="#8807F7"/>
<path d="M46.4552 2.9414H42.3011L42.5334 0H46.223L46.4552 2.9414Z" fill="#8807F7"/>
<path d="M38.547 4.3324L35.6056 7.2738L33.6833 5.02904L36.3022 2.41016L38.547 4.3324Z" fill="#8807F7"/>
<path d="M33.9414 10.9258V15.0799L31 14.8476V11.1451L33.9414 10.9258Z" fill="#8807F7"/>
<path d="M35.3475 18.834L38.276 21.7754L36.0442 23.6847L33.4253 21.0787L35.3475 18.834Z" fill="#8807F7"/>
<path d="M41.927 23.4395H46.0811L45.8489 26.3809H42.1592L41.927 23.4395Z" fill="#8807F7"/>
<path d="M49.8352 22.0332L52.7766 19.0918L54.6988 21.3365L52.0799 23.9554L49.8352 22.0332Z" fill="#8807F7"/>
<path d="M54.4409 15.4541V11.2871L57.3823 11.5193V15.2219L54.4409 15.4541Z" fill="#8807F7"/>
<path d="M53.0347 7.53237L50.1062 4.60386L52.351 2.68164L54.957 5.30052L53.0347 7.53237Z" fill="#8807F7"/>
</svg>
