<svg width="27" height="27" viewBox="0 0 27 27" fill="none" xmlns="http://www.w3.org/2000/svg">
<path d="M25.7422 13.5C25.7422 20.4036 20.1457 26 13.2422 26C6.33863 26 0.742188 20.4036 0.742188 13.5C0.742188 6.59644 6.33863 1 13.2422 1C20.1457 1 25.7422 6.59644 25.7422 13.5ZM4.77054 13.5C4.77054 18.1788 8.56342 21.9717 13.2422 21.9717C17.921 21.9717 21.7138 18.1788 21.7138 13.5C21.7138 8.82124 17.921 5.02835 13.2422 5.02835C8.56342 5.02835 4.77054 8.82124 4.77054 13.5Z" fill="#EDEDED"/>
<path d="M14.1815 23.7645C14.2679 24.8778 13.4309 25.8675 12.3183 25.7727C10.5559 25.6226 8.83765 25.0977 7.28183 24.2242C5.13541 23.0191 3.39455 21.2046 2.27938 19.0101C1.16421 16.8156 0.724828 14.3398 1.01679 11.8956C1.22841 10.1239 1.8174 8.42657 2.73509 6.91445C3.31443 5.95984 4.60732 5.86721 5.45565 6.59333C6.30398 7.31946 6.3765 8.58986 5.87348 9.58681C5.4351 10.4557 5.14865 11.3987 5.03201 12.3752C4.83491 14.0252 5.13153 15.6967 5.88438 17.1782C6.63722 18.6596 7.81246 19.8846 9.26149 20.6982C10.119 21.1796 11.0496 21.5042 12.0099 21.6623C13.1117 21.8437 14.0951 22.6512 14.1815 23.7645Z" fill="#EDEBEB"/>
</svg>
