<svg width="149" height="224" viewBox="0 0 149 224" fill="none" xmlns="http://www.w3.org/2000/svg">
<rect width="149" height="223.292" rx="74.5" fill="#E9D5FF"/>
<rect x="47.7305" y="172.242" width="53.5404" height="18.3008" rx="9.15042" fill="#D4B1F9"/>
<path d="M62.7456 184.517C62.314 184.517 61.9266 184.451 61.5835 184.318C61.2404 184.185 60.9499 183.992 60.7119 183.737C60.474 183.477 60.2913 183.162 60.1641 182.791C60.0368 182.42 59.9731 181.994 59.9731 181.512C59.9731 181.031 60.0451 180.605 60.189 180.234C60.3384 179.863 60.5404 179.551 60.7949 179.296C61.0495 179.036 61.3483 178.84 61.6914 178.707C62.0345 178.574 62.4025 178.508 62.7954 178.508C63.0334 178.508 63.2492 178.527 63.4429 178.566C63.6366 178.599 63.8054 178.638 63.9492 178.682C64.0931 178.726 64.2121 178.773 64.3062 178.823C64.4003 178.873 64.4667 178.909 64.5054 178.931L64.1983 179.786C64.0655 179.703 63.8745 179.625 63.6255 179.553C63.382 179.476 63.1164 179.437 62.8286 179.437C62.5796 179.437 62.3472 179.481 62.1314 179.57C61.9155 179.653 61.7274 179.78 61.5669 179.952C61.412 180.123 61.2902 180.339 61.2017 180.599C61.1131 180.859 61.0689 181.161 61.0689 181.504C61.0689 181.808 61.1021 182.088 61.1685 182.343C61.2404 182.597 61.3483 182.818 61.4922 183.007C61.6361 183.189 61.8187 183.333 62.0401 183.438C62.2614 183.538 62.527 183.588 62.8369 183.588C63.2077 183.588 63.5093 183.552 63.7417 183.48C63.9742 183.402 64.154 183.33 64.2813 183.264L64.5635 184.119C64.4971 184.163 64.4058 184.207 64.2896 184.252C64.1789 184.296 64.0461 184.34 63.8911 184.385C63.7362 184.423 63.5619 184.454 63.3682 184.476C63.1745 184.504 62.967 184.517 62.7456 184.517ZM69.2535 182.218C69.2535 182.561 69.2037 182.874 69.1041 183.156C69.0045 183.438 68.8633 183.679 68.6807 183.878C68.4981 184.077 68.2768 184.232 68.0167 184.343C67.7621 184.454 67.4799 184.509 67.17 184.509C66.8601 184.509 66.5778 184.454 66.3233 184.343C66.0687 184.232 65.8501 184.077 65.6675 183.878C65.4849 183.679 65.341 183.438 65.2359 183.156C65.1363 182.874 65.0865 182.561 65.0865 182.218C65.0865 181.875 65.1363 181.565 65.2359 181.288C65.341 181.006 65.4849 180.765 65.6675 180.566C65.8557 180.367 66.077 180.215 66.3316 180.11C66.5861 179.999 66.8656 179.944 67.17 179.944C67.4743 179.944 67.7538 179.999 68.0084 180.11C68.2685 180.215 68.4898 180.367 68.6724 180.566C68.855 180.765 68.9962 181.006 69.0958 181.288C69.2009 181.565 69.2535 181.875 69.2535 182.218ZM68.2242 182.218C68.2242 181.786 68.1301 181.446 67.942 181.197C67.7593 180.942 67.502 180.815 67.17 180.815C66.8379 180.815 66.5778 180.942 66.3897 181.197C66.2071 181.446 66.1158 181.786 66.1158 182.218C66.1158 182.655 66.2071 183.001 66.3897 183.256C66.5778 183.51 66.8379 183.637 67.17 183.637C67.502 183.637 67.7593 183.51 67.942 183.256C68.1301 183.001 68.2242 182.655 68.2242 182.218ZM71.799 184.476C71.5002 184.47 71.2511 184.437 71.0519 184.376C70.8582 184.315 70.7033 184.23 70.5871 184.119C70.4709 184.003 70.3878 183.862 70.338 183.696C70.2938 183.524 70.2716 183.33 70.2716 183.114V178.117L71.276 177.951V182.924C71.276 183.045 71.2843 183.148 71.3009 183.231C71.3231 183.314 71.359 183.386 71.4088 183.447C71.4587 183.502 71.5251 183.546 71.6081 183.579C71.6966 183.607 71.8073 183.629 71.9401 183.646L71.799 184.476ZM76.6788 182.218C76.6788 182.561 76.629 182.874 76.5294 183.156C76.4298 183.438 76.2887 183.679 76.1061 183.878C75.9235 184.077 75.7021 184.232 75.442 184.343C75.1875 184.454 74.9052 184.509 74.5953 184.509C74.2854 184.509 74.0032 184.454 73.7486 184.343C73.4941 184.232 73.2755 184.077 73.0929 183.878C72.9103 183.679 72.7664 183.438 72.6612 183.156C72.5616 182.874 72.5118 182.561 72.5118 182.218C72.5118 181.875 72.5616 181.565 72.6612 181.288C72.7664 181.006 72.9103 180.765 73.0929 180.566C73.281 180.367 73.5024 180.215 73.7569 180.11C74.0115 179.999 74.291 179.944 74.5953 179.944C74.8997 179.944 75.1792 179.999 75.4337 180.11C75.6938 180.215 75.9152 180.367 76.0978 180.566C76.2804 180.765 76.4215 181.006 76.5211 181.288C76.6263 181.565 76.6788 181.875 76.6788 182.218ZM75.6495 182.218C75.6495 181.786 75.5555 181.446 75.3673 181.197C75.1847 180.942 74.9274 180.815 74.5953 180.815C74.2633 180.815 74.0032 180.942 73.8151 181.197C73.6324 181.446 73.5411 181.786 73.5411 182.218C73.5411 182.655 73.6324 183.001 73.8151 183.256C74.0032 183.51 74.2633 183.637 74.5953 183.637C74.9274 183.637 75.1847 183.51 75.3673 183.256C75.5555 183.001 75.6495 182.655 75.6495 182.218ZM77.7136 180.193C77.9073 180.137 78.1591 180.085 78.469 180.035C78.7789 179.985 79.122 179.96 79.4983 179.96C79.8524 179.96 80.1485 180.01 80.3865 180.11C80.6244 180.204 80.8126 180.339 80.9509 180.516C81.0948 180.688 81.1944 180.898 81.2497 181.147C81.3106 181.391 81.3411 181.659 81.3411 181.952V184.393H80.3367V182.11C80.3367 181.878 80.3201 181.681 80.2869 181.521C80.2592 181.355 80.2094 181.222 80.1374 181.122C80.071 181.017 79.977 180.942 79.8552 180.898C79.739 180.848 79.5951 180.823 79.4236 180.823C79.2963 180.823 79.1635 180.832 79.0251 180.848C78.8868 180.865 78.7844 180.879 78.718 180.89V184.393H77.7136V180.193ZM82.3285 182.243C82.3285 181.861 82.3839 181.526 82.4945 181.239C82.6108 180.951 82.7629 180.713 82.9511 180.525C83.1392 180.331 83.3551 180.187 83.5986 180.093C83.8421 179.993 84.0911 179.944 84.3456 179.944C84.9433 179.944 85.4081 180.129 85.7402 180.5C86.0777 180.871 86.2465 181.424 86.2465 182.16C86.2465 182.215 86.2438 182.279 86.2382 182.351C86.2382 182.417 86.2355 182.478 86.2299 182.533H83.3661C83.3938 182.882 83.5156 183.153 83.7314 183.347C83.9527 183.535 84.2709 183.629 84.686 183.629C84.9295 183.629 85.1508 183.607 85.35 183.563C85.5548 183.518 85.7153 183.471 85.8315 183.422L85.9643 184.243C85.909 184.271 85.8315 184.302 85.7319 184.335C85.6378 184.362 85.5271 184.387 85.3998 184.409C85.2781 184.437 85.1453 184.459 85.0014 184.476C84.8575 184.492 84.7109 184.501 84.5615 184.501C84.1796 184.501 83.8476 184.445 83.5654 184.335C83.2831 184.219 83.0507 184.061 82.8681 183.862C82.6855 183.657 82.5499 183.419 82.4613 183.148C82.3728 182.871 82.3285 182.569 82.3285 182.243ZM85.2421 181.795C85.2421 181.656 85.2228 181.526 85.184 181.405C85.1453 181.277 85.0872 181.169 85.0097 181.081C84.9378 180.987 84.8465 180.915 84.7358 180.865C84.6306 180.81 84.5034 180.782 84.3539 180.782C84.199 180.782 84.0634 180.812 83.9472 180.873C83.831 180.929 83.7314 181.003 83.6484 181.097C83.5709 181.191 83.51 181.299 83.4657 181.421C83.4215 181.543 83.391 181.667 83.3744 181.795H85.2421ZM88.8222 184.476C88.5234 184.47 88.2743 184.437 88.0751 184.376C87.8814 184.315 87.7265 184.23 87.6103 184.119C87.4941 184.003 87.411 183.862 87.3612 183.696C87.317 183.524 87.2948 183.33 87.2948 183.114V178.117L88.2992 177.951V182.924C88.2992 183.045 88.3075 183.148 88.3241 183.231C88.3463 183.314 88.3822 183.386 88.432 183.447C88.4819 183.502 88.5483 183.546 88.6313 183.579C88.7198 183.607 88.8305 183.629 88.9633 183.646L88.8222 184.476Z" fill="#9333EA"/>
<path d="M53.0039 26.9079C53.0039 25.342 54.2733 24.0725 55.8393 24.0725H92.8827C94.4486 24.0725 95.718 25.342 95.718 26.9079V32.5891C95.718 34.155 94.4486 35.4245 92.8827 35.4245H90.5265V29.4599H58.1955V35.4245H55.8393C54.2733 35.4245 53.0039 34.155 53.0039 32.5891V26.9079Z" fill="#FFEEB0"/>
<path d="M53.5391 27.6227C53.5391 26.0568 54.8085 24.7874 56.3744 24.7874H93.4178C94.9837 24.7874 96.2532 26.0568 96.2532 27.6227V33.3039C96.2532 34.8699 94.9837 36.1393 93.4178 36.1393H91.0616V30.1747H58.7306V36.1393H56.3744C54.8085 36.1393 53.5391 34.8699 53.5391 33.3039V27.6227Z" fill="#F4CC3F"/>
<g filter="url(#filter0_d_5036_90784)">
<circle cx="74.7074" cy="83.8385" r="53.1253" fill="#D8B4FE"/>
</g>
<g filter="url(#filter1_d_5036_90784)">
<path d="M59.0039 30.1084H91.3281V53L75.166 64.3396L59.0039 53V30.1084Z" fill="#9333EA"/>
<mask id="mask0_5036_90784" style="mask-type:alpha" maskUnits="userSpaceOnUse" x="59" y="30" width="33" height="35">
<path d="M59.0742 30.1084H91.3835V53.0038L75.2288 64.3396L59.0742 53.0038V30.1084Z" fill="#E8356D"/>
</mask>
<g mask="url(#mask0_5036_90784)">
<rect x="69.043" y="16.5208" width="12.3738" height="47.8188" fill="#3D0072"/>
</g>
<rect x="72.4727" y="58.3386" width="5.19496" height="8.85068" rx="2.59748" fill="#C09525"/>
<circle cx="74.6556" cy="87.9261" r="22.8001" fill="url(#paint0_linear_5036_90784)"/>
<circle cx="75.071" cy="87.9265" r="17.7976" fill="#705100"/>
<path opacity="0.5" d="M91.4844 44.4465L58.9572 44.4465L58.9572 30.1489L91.4844 30.1489L91.4844 44.4465Z" fill="#9333EA"/>
</g>
<circle cx="73.463" cy="87.5738" r="17.4318" fill="#6C570D"/>
<circle cx="74.7091" cy="87.9889" r="17.4318" fill="#FFDA55"/>
<circle opacity="0.8" cx="74.4421" cy="87.313" r="12.4304" fill="url(#paint1_linear_5036_90784)"/>
<path d="M74.5824 79.688L77.0305 84.6685L81.9265 85.2911L78.5646 89.126L79.4785 94.6295L74.5824 92.1392L69.6863 94.6295L70.6084 89.126L67.2383 85.2911L72.1344 84.6685L74.5824 79.688Z" fill="url(#paint2_linear_5036_90784)"/>
<path d="M74.7144 79.6231L74.5824 79.3547L74.4505 79.6231L72.0373 84.5326L67.2197 85.1452L66.9451 85.1801L67.1278 85.3881L70.4519 89.1706L69.5413 94.6052L69.4931 94.8927L69.753 94.7605L74.5824 92.3042L79.4118 94.7605L79.6712 94.8925L79.6235 94.6054L78.721 89.1706L82.0371 85.388L82.2194 85.1801L81.9451 85.1452L77.1275 84.5326L74.7144 79.6231Z" stroke="#A36D1D" stroke-opacity="0.2" stroke-width="0.294056"/>
<defs>
<filter id="filter0_d_5036_90784" x="12.4093" y="26.1268" width="124.595" height="124.596" filterUnits="userSpaceOnUse" color-interpolation-filters="sRGB">
<feFlood flood-opacity="0" result="BackgroundImageFix"/>
<feColorMatrix in="SourceAlpha" type="matrix" values="0 0 0 0 0 0 0 0 0 0 0 0 0 0 0 0 0 0 127 0" result="hardAlpha"/>
<feOffset dy="4.58636"/>
<feGaussianBlur stdDeviation="4.58636"/>
<feComposite in2="hardAlpha" operator="out"/>
<feColorMatrix type="matrix" values="0 0 0 0 0.0375308 0 0 0 0 0.0278819 0 0 0 0 0.0458333 0 0 0 0.15 0"/>
<feBlend mode="normal" in2="BackgroundImageFix" result="effect1_dropShadow_5036_90784"/>
<feBlend mode="normal" in="SourceGraphic" in2="effect1_dropShadow_5036_90784" result="shape"/>
</filter>
<filter id="filter1_d_5036_90784" x="51.5303" y="29.7832" width="50.8045" height="85.8209" filterUnits="userSpaceOnUse" color-interpolation-filters="sRGB">
<feFlood flood-opacity="0" result="BackgroundImageFix"/>
<feColorMatrix in="SourceAlpha" type="matrix" values="0 0 0 0 0 0 0 0 0 0 0 0 0 0 0 0 0 0 127 0" result="hardAlpha"/>
<feOffset dx="2.27629" dy="2.27629"/>
<feGaussianBlur stdDeviation="1.30074"/>
<feComposite in2="hardAlpha" operator="out"/>
<feColorMatrix type="matrix" values="0 0 0 0 0 0 0 0 0 0 0 0 0 0 0 0 0 0 0.3 0"/>
<feBlend mode="normal" in2="BackgroundImageFix" result="effect1_dropShadow_5036_90784"/>
<feBlend mode="normal" in="SourceGraphic" in2="effect1_dropShadow_5036_90784" result="shape"/>
</filter>
<linearGradient id="paint0_linear_5036_90784" x1="74.6556" y1="65.126" x2="74.6556" y2="110.726" gradientUnits="userSpaceOnUse">
<stop stop-color="#FFE176"/>
<stop offset="1" stop-color="#FFD12D"/>
</linearGradient>
<linearGradient id="paint1_linear_5036_90784" x1="74.4421" y1="74.8826" x2="74.4421" y2="99.7433" gradientUnits="userSpaceOnUse">
<stop stop-color="#D79B00"/>
<stop offset="1" stop-color="#FFDD64"/>
</linearGradient>
<linearGradient id="paint2_linear_5036_90784" x1="74.5824" y1="79.688" x2="74.5824" y2="94.6295" gradientUnits="userSpaceOnUse">
<stop stop-color="white"/>
<stop offset="0.0001" stop-color="#FFFFFD"/>
<stop offset="1" stop-color="#FFE86D"/>
</linearGradient>
</defs>
</svg>
