<svg width="349" height="200" viewBox="0 0 349 200" fill="none" xmlns="http://www.w3.org/2000/svg">
<rect width="349" height="200" rx="10" fill="#F8F1FE"/>
<path d="M109.43 75.8365C94.1623 64.1987 75.1757 58.5258 56.0261 59.8803C36.8765 61.2347 18.8774 69.5236 5.39976 83.1946C-8.07786 96.8656 -16.1095 114.981 -17.1911 134.148C-18.2726 153.315 -12.3298 172.219 -0.475649 187.319C11.3785 202.42 28.3309 212.681 47.2066 216.181C66.0822 219.681 85.5865 216.18 102.067 206.333C118.547 196.487 130.872 180.971 136.734 162.69C142.596 144.41 141.594 124.619 133.914 107.025L98.9098 122.304C102.873 131.383 103.39 141.595 100.365 151.027C97.3403 160.46 90.9806 168.466 82.4771 173.547C73.9736 178.627 63.9096 180.434 54.17 178.628C44.4304 176.822 35.6831 171.527 29.5665 163.735C23.4499 155.944 20.3835 146.19 20.9416 136.3C21.4996 126.41 25.6439 117.062 32.5982 110.008C39.5525 102.954 48.8398 98.6773 58.7208 97.9784C68.6018 97.2795 78.3986 100.207 86.2766 106.212L109.43 75.8365Z" fill="#F3E8FD"/>
<g opacity="0.2">
<path fill-rule="evenodd" clip-rule="evenodd" d="M188.454 89.1868C192.018 89.1868 194.907 86.2973 194.907 82.733C194.907 79.1687 192.018 76.2793 188.454 76.2793C184.889 76.2793 182 79.1687 182 82.733C182 86.2973 184.889 89.1868 188.454 89.1868ZM188.347 86.2243C190.216 86.2243 191.732 84.7085 191.732 82.8387C191.732 80.9689 190.216 79.4531 188.347 79.4531C186.477 79.4531 184.961 80.9689 184.961 82.8387C184.961 84.7085 186.477 86.2243 188.347 86.2243Z" fill="#9333EA"/>
<path fill-rule="evenodd" clip-rule="evenodd" d="M194.213 75.5816C195.754 75.5816 197.003 74.3321 197.003 72.7908C197.003 71.2495 195.754 70 194.213 70C192.671 70 191.422 71.2495 191.422 72.7908C191.422 74.3321 192.671 75.5816 194.213 75.5816ZM194.167 74.3006C194.976 74.3006 195.631 73.6452 195.631 72.8366C195.631 72.028 194.976 71.3726 194.167 71.3726C193.359 71.3726 192.703 72.028 192.703 72.8366C192.703 73.6452 193.359 74.3006 194.167 74.3006Z" fill="#9333EA"/>
</g>
<g opacity="0.2">
<path fill-rule="evenodd" clip-rule="evenodd" d="M315.454 173.187C319.018 173.187 321.907 170.297 321.907 166.733C321.907 163.169 319.018 160.279 315.454 160.279C311.889 160.279 309 163.169 309 166.733C309 170.297 311.889 173.187 315.454 173.187ZM315.347 170.224C317.216 170.224 318.732 168.708 318.732 166.839C318.732 164.969 317.216 163.453 315.347 163.453C313.477 163.453 311.961 164.969 311.961 166.839C311.961 168.708 313.477 170.224 315.347 170.224Z" fill="#9333EA"/>
<path fill-rule="evenodd" clip-rule="evenodd" d="M321.213 159.582C322.754 159.582 324.003 158.332 324.003 156.791C324.003 155.249 322.754 154 321.213 154C319.671 154 318.422 155.249 318.422 156.791C318.422 158.332 319.671 159.582 321.213 159.582ZM321.167 158.301C321.976 158.301 322.631 157.645 322.631 156.837C322.631 156.028 321.976 155.373 321.167 155.373C320.359 155.373 319.703 156.028 319.703 156.837C319.703 157.645 320.359 158.301 321.167 158.301Z" fill="#9333EA"/>
</g>
</svg>
