<svg width="519" height="215" viewBox="0 0 519 215" fill="none" xmlns="http://www.w3.org/2000/svg">
<rect opacity="0.75" width="519" height="215" fill="#250144"/>
<path d="M193.712 116.308C191.233 116.308 189.341 115.619 188.036 114.24C186.745 112.861 186.1 110.903 186.1 108.366C186.1 107.105 186.298 105.983 186.694 105C187.09 104.003 187.633 103.167 188.322 102.492C189.011 101.803 189.833 101.282 190.786 100.93C191.739 100.578 192.773 100.402 193.888 100.402C194.533 100.402 195.12 100.453 195.648 100.556C196.176 100.644 196.638 100.754 197.034 100.886C197.43 101.003 197.76 101.128 198.024 101.26C198.288 101.392 198.479 101.495 198.596 101.568L197.606 104.34C197.137 104.091 196.587 103.878 195.956 103.702C195.34 103.526 194.636 103.438 193.844 103.438C193.316 103.438 192.795 103.526 192.282 103.702C191.783 103.878 191.336 104.164 190.94 104.56C190.559 104.941 190.251 105.44 190.016 106.056C189.781 106.672 189.664 107.42 189.664 108.3C189.664 109.004 189.737 109.664 189.884 110.28C190.045 110.881 190.295 111.402 190.632 111.842C190.984 112.282 191.439 112.634 191.996 112.898C192.553 113.147 193.228 113.272 194.02 113.272C194.519 113.272 194.966 113.243 195.362 113.184C195.758 113.125 196.11 113.059 196.418 112.986C196.726 112.898 196.997 112.803 197.232 112.7C197.467 112.597 197.679 112.502 197.87 112.414L198.816 115.164C198.332 115.457 197.65 115.721 196.77 115.956C195.89 116.191 194.871 116.308 193.712 116.308ZM211.372 110.192C211.372 111.101 211.24 111.937 210.976 112.7C210.712 113.448 210.33 114.093 209.832 114.636C209.333 115.164 208.732 115.575 208.028 115.868C207.338 116.161 206.561 116.308 205.696 116.308C204.845 116.308 204.068 116.161 203.364 115.868C202.674 115.575 202.08 115.164 201.582 114.636C201.083 114.093 200.694 113.448 200.416 112.7C200.137 111.937 199.998 111.101 199.998 110.192C199.998 109.283 200.137 108.454 200.416 107.706C200.709 106.958 201.105 106.32 201.604 105.792C202.117 105.264 202.718 104.853 203.408 104.56C204.112 104.267 204.874 104.12 205.696 104.12C206.532 104.12 207.294 104.267 207.984 104.56C208.688 104.853 209.289 105.264 209.788 105.792C210.286 106.32 210.675 106.958 210.954 107.706C211.232 108.454 211.372 109.283 211.372 110.192ZM208.028 110.192C208.028 109.18 207.822 108.388 207.412 107.816C207.016 107.229 206.444 106.936 205.696 106.936C204.948 106.936 204.368 107.229 203.958 107.816C203.547 108.388 203.342 109.18 203.342 110.192C203.342 111.204 203.547 112.011 203.958 112.612C204.368 113.199 204.948 113.492 205.696 113.492C206.444 113.492 207.016 113.199 207.412 112.612C207.822 112.011 208.028 111.204 208.028 110.192ZM220.269 109.862C220.269 108.806 220.13 108.058 219.851 107.618C219.587 107.178 219.125 106.958 218.465 106.958C218.26 106.958 218.047 106.973 217.827 107.002C217.607 107.017 217.394 107.039 217.189 107.068V116H213.911V104.824C214.19 104.751 214.512 104.677 214.879 104.604C215.26 104.516 215.656 104.443 216.067 104.384C216.492 104.311 216.925 104.259 217.365 104.23C217.805 104.186 218.238 104.164 218.663 104.164C219.499 104.164 220.174 104.274 220.687 104.494C221.215 104.699 221.648 104.949 221.985 105.242C222.454 104.905 222.99 104.641 223.591 104.45C224.207 104.259 224.772 104.164 225.285 104.164C226.209 104.164 226.964 104.296 227.551 104.56C228.152 104.809 228.629 105.169 228.981 105.638C229.333 106.107 229.575 106.665 229.707 107.31C229.839 107.955 229.905 108.674 229.905 109.466V116H226.627V109.862C226.627 108.806 226.488 108.058 226.209 107.618C225.945 107.178 225.483 106.958 224.823 106.958C224.647 106.958 224.398 107.002 224.075 107.09C223.767 107.178 223.51 107.288 223.305 107.42C223.408 107.757 223.474 108.117 223.503 108.498C223.532 108.865 223.547 109.261 223.547 109.686V116H220.269V109.862ZM236.16 116H232.882V104.428H236.16V116ZM236.468 101.084C236.468 101.685 236.27 102.162 235.874 102.514C235.492 102.851 235.038 103.02 234.51 103.02C233.982 103.02 233.52 102.851 233.124 102.514C232.742 102.162 232.552 101.685 232.552 101.084C232.552 100.483 232.742 100.013 233.124 99.676C233.52 99.324 233.982 99.148 234.51 99.148C235.038 99.148 235.492 99.324 235.874 99.676C236.27 100.013 236.468 100.483 236.468 101.084ZM239.241 104.824C239.799 104.663 240.517 104.516 241.397 104.384C242.277 104.237 243.201 104.164 244.169 104.164C245.152 104.164 245.966 104.296 246.611 104.56C247.271 104.809 247.792 105.169 248.173 105.638C248.555 106.107 248.826 106.665 248.987 107.31C249.149 107.955 249.229 108.674 249.229 109.466V116H245.951V109.862C245.951 108.806 245.812 108.058 245.533 107.618C245.255 107.178 244.734 106.958 243.971 106.958C243.737 106.958 243.487 106.973 243.223 107.002C242.959 107.017 242.725 107.039 242.519 107.068V116H239.241V104.824ZM254.99 109.84C254.99 111.673 255.731 112.59 257.212 112.59C257.55 112.59 257.865 112.546 258.158 112.458C258.452 112.37 258.701 112.267 258.906 112.15V106.914C258.745 106.885 258.554 106.863 258.334 106.848C258.114 106.819 257.858 106.804 257.564 106.804C256.699 106.804 256.054 107.09 255.628 107.662C255.203 108.234 254.99 108.96 254.99 109.84ZM262.184 114.548C262.184 116.44 261.7 117.841 260.732 118.75C259.779 119.674 258.298 120.136 256.288 120.136C255.584 120.136 254.88 120.07 254.176 119.938C253.472 119.821 252.82 119.659 252.218 119.454L252.79 116.704C253.304 116.909 253.839 117.071 254.396 117.188C254.968 117.305 255.614 117.364 256.332 117.364C257.271 117.364 257.931 117.159 258.312 116.748C258.708 116.337 258.906 115.809 258.906 115.164V114.746C258.554 114.907 258.188 115.032 257.806 115.12C257.44 115.193 257.036 115.23 256.596 115.23C254.998 115.23 253.773 114.761 252.922 113.822C252.072 112.869 251.646 111.541 251.646 109.84C251.646 108.989 251.778 108.219 252.042 107.53C252.306 106.826 252.688 106.225 253.186 105.726C253.7 105.227 254.323 104.846 255.056 104.582C255.79 104.303 256.618 104.164 257.542 104.164C257.938 104.164 258.342 104.186 258.752 104.23C259.178 104.259 259.596 104.303 260.006 104.362C260.417 104.421 260.806 104.494 261.172 104.582C261.554 104.655 261.891 104.736 262.184 104.824V114.548ZM274.922 113.382C275.406 113.382 275.802 113.345 276.11 113.272C276.433 113.184 276.689 113.074 276.88 112.942C277.071 112.795 277.203 112.627 277.276 112.436C277.349 112.245 277.386 112.033 277.386 111.798C277.386 111.299 277.151 110.889 276.682 110.566C276.213 110.229 275.406 109.869 274.262 109.488C273.763 109.312 273.265 109.114 272.766 108.894C272.267 108.659 271.82 108.373 271.424 108.036C271.028 107.684 270.705 107.266 270.456 106.782C270.207 106.283 270.082 105.682 270.082 104.978C270.082 104.274 270.214 103.643 270.478 103.086C270.742 102.514 271.116 102.03 271.6 101.634C272.084 101.238 272.671 100.937 273.36 100.732C274.049 100.512 274.827 100.402 275.692 100.402C276.719 100.402 277.606 100.512 278.354 100.732C279.102 100.952 279.718 101.194 280.202 101.458L279.212 104.164C278.787 103.944 278.31 103.753 277.782 103.592C277.269 103.416 276.645 103.328 275.912 103.328C275.091 103.328 274.497 103.445 274.13 103.68C273.778 103.9 273.602 104.245 273.602 104.714C273.602 104.993 273.668 105.227 273.8 105.418C273.932 105.609 274.115 105.785 274.35 105.946C274.599 106.093 274.878 106.232 275.186 106.364C275.509 106.481 275.861 106.606 276.242 106.738C277.034 107.031 277.723 107.325 278.31 107.618C278.897 107.897 279.381 108.227 279.762 108.608C280.158 108.989 280.451 109.437 280.642 109.95C280.833 110.463 280.928 111.087 280.928 111.82C280.928 113.243 280.429 114.35 279.432 115.142C278.435 115.919 276.931 116.308 274.922 116.308C274.247 116.308 273.639 116.264 273.096 116.176C272.553 116.103 272.069 116.007 271.644 115.89C271.233 115.773 270.874 115.648 270.566 115.516C270.273 115.384 270.023 115.259 269.818 115.142L270.786 112.414C271.241 112.663 271.798 112.891 272.458 113.096C273.133 113.287 273.954 113.382 274.922 113.382ZM294.173 110.192C294.173 111.101 294.041 111.937 293.777 112.7C293.513 113.448 293.131 114.093 292.633 114.636C292.134 115.164 291.533 115.575 290.829 115.868C290.139 116.161 289.362 116.308 288.497 116.308C287.646 116.308 286.869 116.161 286.165 115.868C285.475 115.575 284.881 115.164 284.383 114.636C283.884 114.093 283.495 113.448 283.217 112.7C282.938 111.937 282.799 111.101 282.799 110.192C282.799 109.283 282.938 108.454 283.217 107.706C283.51 106.958 283.906 106.32 284.405 105.792C284.918 105.264 285.519 104.853 286.209 104.56C286.913 104.267 287.675 104.12 288.497 104.12C289.333 104.12 290.095 104.267 290.785 104.56C291.489 104.853 292.09 105.264 292.589 105.792C293.087 106.32 293.476 106.958 293.755 107.706C294.033 108.454 294.173 109.283 294.173 110.192ZM290.829 110.192C290.829 109.18 290.623 108.388 290.213 107.816C289.817 107.229 289.245 106.936 288.497 106.936C287.749 106.936 287.169 107.229 286.759 107.816C286.348 108.388 286.143 109.18 286.143 110.192C286.143 111.204 286.348 112.011 286.759 112.612C287.169 113.199 287.749 113.492 288.497 113.492C289.245 113.492 289.817 113.199 290.213 112.612C290.623 112.011 290.829 111.204 290.829 110.192ZM307.536 110.192C307.536 111.101 307.404 111.937 307.14 112.7C306.876 113.448 306.495 114.093 305.996 114.636C305.497 115.164 304.896 115.575 304.192 115.868C303.503 116.161 302.725 116.308 301.86 116.308C301.009 116.308 300.232 116.161 299.528 115.868C298.839 115.575 298.245 115.164 297.746 114.636C297.247 114.093 296.859 113.448 296.58 112.7C296.301 111.937 296.162 111.101 296.162 110.192C296.162 109.283 296.301 108.454 296.58 107.706C296.873 106.958 297.269 106.32 297.768 105.792C298.281 105.264 298.883 104.853 299.572 104.56C300.276 104.267 301.039 104.12 301.86 104.12C302.696 104.12 303.459 104.267 304.148 104.56C304.852 104.853 305.453 105.264 305.952 105.792C306.451 106.32 306.839 106.958 307.118 107.706C307.397 108.454 307.536 109.283 307.536 110.192ZM304.192 110.192C304.192 109.18 303.987 108.388 303.576 107.816C303.18 107.229 302.608 106.936 301.86 106.936C301.112 106.936 300.533 107.229 300.122 107.816C299.711 108.388 299.506 109.18 299.506 110.192C299.506 111.204 299.711 112.011 300.122 112.612C300.533 113.199 301.112 113.492 301.86 113.492C302.608 113.492 303.18 113.199 303.576 112.612C303.987 112.011 304.192 111.204 304.192 110.192ZM310.075 104.824C310.632 104.663 311.351 104.516 312.231 104.384C313.111 104.237 314.035 104.164 315.003 104.164C315.986 104.164 316.8 104.296 317.445 104.56C318.105 104.809 318.626 105.169 319.007 105.638C319.388 106.107 319.66 106.665 319.821 107.31C319.982 107.955 320.063 108.674 320.063 109.466V116H316.785V109.862C316.785 108.806 316.646 108.058 316.367 107.618C316.088 107.178 315.568 106.958 314.805 106.958C314.57 106.958 314.321 106.973 314.057 107.002C313.793 107.017 313.558 107.039 313.353 107.068V116H310.075V104.824Z" fill="white"/>
</svg>
