<svg width="349" height="186" viewBox="0 0 349 186" fill="none" xmlns="http://www.w3.org/2000/svg">
<rect width="349" height="186" rx="10" fill="#FFFCF0"/>
<path d="M109.43 75.8365C94.1623 64.1987 75.1757 58.5258 56.0261 59.8803C36.8765 61.2347 18.8774 69.5236 5.39976 83.1946C-8.07786 96.8656 -16.1095 114.981 -17.1911 134.148C-18.2726 153.315 -12.3298 172.219 -0.475649 187.319C11.3785 202.42 28.3309 212.681 47.2066 216.181C66.0822 219.681 85.5865 216.18 102.067 206.333C118.547 196.487 130.872 180.971 136.734 162.69C142.596 144.41 141.594 124.619 133.914 107.025L98.9098 122.304C102.873 131.383 103.39 141.595 100.365 151.027C97.3403 160.46 90.9806 168.466 82.4771 173.547C73.9736 178.627 63.9096 180.434 54.17 178.628C44.4304 176.822 35.6831 171.527 29.5665 163.735C23.4499 155.944 20.3835 146.19 20.9416 136.3C21.4996 126.41 25.6439 117.062 32.5982 110.008C39.5525 102.954 48.8398 98.6773 58.7208 97.9784C68.6018 97.2795 78.3986 100.207 86.2766 106.212L109.43 75.8365Z" fill="#FFFBE6"/>
<g opacity="0.2">
<path fill-rule="evenodd" clip-rule="evenodd" d="M180.454 59.1868C184.018 59.1868 186.907 56.2973 186.907 52.733C186.907 49.1687 184.018 46.2793 180.454 46.2793C176.889 46.2793 174 49.1687 174 52.733C174 56.2973 176.889 59.1868 180.454 59.1868ZM180.347 56.2243C182.216 56.2243 183.732 54.7085 183.732 52.8387C183.732 50.9689 182.216 49.4531 180.347 49.4531C178.477 49.4531 176.961 50.9689 176.961 52.8387C176.961 54.7085 178.477 56.2243 180.347 56.2243Z" fill="#FDE047"/>
<path fill-rule="evenodd" clip-rule="evenodd" d="M186.213 45.5816C187.754 45.5816 189.003 44.3321 189.003 42.7908C189.003 41.2495 187.754 40 186.213 40C184.671 40 183.422 41.2495 183.422 42.7908C183.422 44.3321 184.671 45.5816 186.213 45.5816ZM186.167 44.3006C186.976 44.3006 187.631 43.6452 187.631 42.8366C187.631 42.028 186.976 41.3726 186.167 41.3726C185.359 41.3726 184.703 42.028 184.703 42.8366C184.703 43.6452 185.359 44.3006 186.167 44.3006Z" fill="#FDE047"/>
</g>
<g opacity="0.2">
<path fill-rule="evenodd" clip-rule="evenodd" d="M307.454 143.187C311.018 143.187 313.907 140.297 313.907 136.733C313.907 133.169 311.018 130.279 307.454 130.279C303.889 130.279 301 133.169 301 136.733C301 140.297 303.889 143.187 307.454 143.187ZM307.347 140.224C309.216 140.224 310.732 138.708 310.732 136.839C310.732 134.969 309.216 133.453 307.347 133.453C305.477 133.453 303.961 134.969 303.961 136.839C303.961 138.708 305.477 140.224 307.347 140.224Z" fill="#FDE047"/>
<path fill-rule="evenodd" clip-rule="evenodd" d="M313.213 129.582C314.754 129.582 316.003 128.332 316.003 126.791C316.003 125.249 314.754 124 313.213 124C311.671 124 310.422 125.249 310.422 126.791C310.422 128.332 311.671 129.582 313.213 129.582ZM313.167 128.301C313.976 128.301 314.631 127.645 314.631 126.837C314.631 126.028 313.976 125.373 313.167 125.373C312.359 125.373 311.703 126.028 311.703 126.837C311.703 127.645 312.359 128.301 313.167 128.301Z" fill="#FDE047"/>
</g>
</svg>
