<svg width="268" height="250" viewBox="0 0 268 250" fill="none" xmlns="http://www.w3.org/2000/svg">
<g opacity="0.5">
<path d="M23.041 117.443L163.894 36.5146L23.041 117.443Z" fill="white"/>
<path d="M23.041 117.443L163.894 36.5146" stroke="#B68EFC" stroke-width="46.0002" stroke-linecap="round"/>
</g>
<g opacity="0.5">
<path d="M56.5488 170.523L197.402 89.5947L56.5488 170.523Z" fill="white"/>
<path d="M56.5488 170.523L197.402 89.5947" stroke="#B68EFC" stroke-width="46.0002" stroke-linecap="round"/>
</g>
<g opacity="0.5">
<path d="M233.479 69.2576L244.456 62.8672L233.479 69.2576Z" fill="white"/>
<path d="M233.479 69.2576L244.456 62.8672" stroke="#B68EFC" stroke-width="46.0002" stroke-linecap="round"/>
</g>
<g opacity="0.5">
<path d="M106.24 214.192L213.212 151.71L106.24 214.192Z" fill="white"/>
<path d="M106.24 214.192L213.212 151.71" stroke="#B68EFC" stroke-width="46.0002" stroke-linecap="round"/>
</g>
<path d="M239.419 157.683C241.132 157.861 242.379 159.396 242.201 161.109C242.023 162.823 240.487 164.069 238.774 163.891C237.061 163.714 235.814 162.178 235.992 160.465C236.17 158.751 237.706 157.505 239.419 157.683Z" stroke="#8807F7" stroke-width="2.14147"/>
<path d="M57.4077 221.449C60.2251 221.742 62.2751 224.267 61.9826 227.084C61.69 229.902 59.1649 231.952 56.3475 231.659C53.5301 231.366 51.4801 228.841 51.7726 226.024C52.0652 223.206 54.5903 221.156 57.4077 221.449Z" stroke="#8807F7" stroke-width="3.52149"/>
<path d="M129.111 10.9901C131.928 11.2826 133.978 13.8077 133.686 16.6251C133.393 19.4425 130.868 21.4925 128.051 21.2C125.233 20.9074 123.183 18.3823 123.476 15.5649C123.768 12.7475 126.293 10.6975 129.111 10.9901Z" stroke="#8807F7" stroke-width="3.52149"/>
<path d="M10.3447 77.8242C11.6388 77.8242 12.6895 78.8749 12.6895 80.169C12.6895 81.463 11.6388 82.5137 10.3447 82.5137C9.05068 82.5137 8 81.463 8 80.169C8 78.8749 9.05068 77.8242 10.3447 77.8242Z" stroke="#8807F7" stroke-width="2.57407"/>
<path d="M192.458 230.729C193.752 230.729 194.803 231.779 194.803 233.073C194.803 234.367 193.752 235.418 192.458 235.418C191.164 235.418 190.113 234.367 190.113 233.073C190.113 231.779 191.164 230.729 192.458 230.729Z" stroke="#8807F7" stroke-width="2.57407"/>
<path d="M219.295 10.2822L221.804 1.21155" stroke="#8807F7" stroke-width="1.49978"/>
<path d="M216.162 4.55371L225.233 7.06272" stroke="#8807F7" stroke-width="1.49978"/>
<path d="M19.9434 163.919L22.1114 154.761" stroke="#8807F7" stroke-width="1.49978"/>
<path d="M16.6016 158.312L25.7597 160.48" stroke="#8807F7" stroke-width="1.49978"/>
<path d="M215.588 204.632L217.221 195.363" stroke="#8807F7" stroke-width="1.49978"/>
<path d="M211.926 199.228L221.194 200.861" stroke="#8807F7" stroke-width="1.49978"/>
<path d="M130.96 50.4863C168.306 50.4863 198.627 80.808 198.627 118.154C198.627 155.499 168.306 185.821 130.96 185.821C93.6147 185.821 63.293 155.499 63.293 118.154C63.293 80.808 93.6147 50.4863 130.96 50.4863Z" fill="#8807F7"/>
<path d="M130.92 56.8857C164.733 56.8857 192.187 84.3396 192.187 118.153C192.187 151.967 164.733 179.42 130.92 179.42C97.1062 179.42 69.6523 151.967 69.6523 118.153C69.6523 84.3396 97.1062 56.8857 130.92 56.8857Z" fill="#8807F7"/>
<path d="M103.25 120.401L119.814 136.588L158.588 97.8135" stroke="white" stroke-width="8.9987"/>
</svg>
