<svg width="56" height="56" viewBox="0 0 56 56" fill="none" xmlns="http://www.w3.org/2000/svg">
<g filter="url(#filter0_i_3154_65910)">
<path d="M10.3865 11.3126H45.1863C45.5928 11.3124 45.9989 11.3382 46.4021 11.3898C46.2654 10.4304 45.9359 9.50858 45.4333 8.67997C44.9308 7.85136 44.2656 7.1331 43.4779 6.5685C42.6903 6.00391 41.7965 5.60467 40.8503 5.39485C39.9042 5.18503 38.9254 5.16899 37.9729 5.34768L9.35336 10.2338H9.32073C7.52427 10.5773 5.92673 11.5937 4.85439 13.0754C6.46997 11.9263 8.40391 11.31 10.3865 11.3126ZM45.1863 13.9226H10.3865C8.5412 13.9246 6.77207 14.6585 5.46726 15.9633C4.16246 17.2681 3.42853 19.0373 3.42651 20.8825V41.7624C3.42853 43.6077 4.16246 45.3768 5.46726 46.6816C6.77207 47.9864 8.5412 48.7204 10.3865 48.7224H45.1863C47.0316 48.7204 48.8007 47.9864 50.1055 46.6816C51.4103 45.3768 52.1442 43.6077 52.1462 41.7624V20.8825C52.1442 19.0373 51.4103 17.2681 50.1055 15.9633C48.8007 14.6585 47.0316 13.9246 45.1863 13.9226ZM40.0207 34.8025C39.3324 34.8025 38.6596 34.5984 38.0873 34.216C37.515 33.8336 37.069 33.2901 36.8056 32.6542C36.5422 32.0183 36.4733 31.3186 36.6076 30.6436C36.7418 29.9685 37.0733 29.3484 37.56 28.8618C38.0467 28.3751 38.6667 28.0436 39.3418 27.9094C40.0168 27.7751 40.7165 27.844 41.3524 28.1074C41.9883 28.3708 42.5318 28.8168 42.9142 29.3891C43.2966 29.9614 43.5007 30.6342 43.5007 31.3225C43.5007 32.2454 43.134 33.1306 42.4814 33.7832C41.8288 34.4358 40.9436 34.8025 40.0207 34.8025Z" fill="#8807F7"/>
</g>
<path d="M3.48157 28.2225V17.4019C3.48157 15.0453 4.78656 11.0944 9.31597 10.2386C13.1603 9.51758 16.9665 9.51758 16.9665 9.51758C16.9665 9.51758 19.4677 11.2576 17.4015 11.2576C15.3352 11.2576 15.3896 13.9219 17.4015 13.9219C19.4134 13.9219 17.4015 16.4775 17.4015 16.4775L9.29966 25.6669L3.48157 28.2225Z" fill="#8807F7"/>
<rect x="36.012" y="26.3262" width="11.8017" height="10.5912" fill="url(#paint0_linear_3154_65910)"/>
<path d="M25.593 24.2789C25.5962 25.5192 25.5962 26.7595 25.5995 27.9999C25.6027 29.069 25.2523 30.1105 24.2614 30.6565C23.1009 31.2905 21.4564 31.1308 20.1623 30.9972C20.1134 30.9939 20.0678 30.9874 20.0222 30.9841C20.0645 30.091 20.0482 29.1897 20.0059 28.2998C19.9505 27.0937 20.6823 25.6561 21.9763 25.4524C23.3829 25.2308 24.6053 25.0808 25.2686 24.305C25.2914 24.2822 25.311 24.2594 25.3306 24.2333C25.4284 24.1013 25.5327 23.9725 25.637 23.8438C25.6044 23.9839 25.593 24.1322 25.593 24.2789Z" fill="#FEF5FC"/>
<path d="M21.3447 39.0748C22.3128 39.1367 23.2874 39.122 24.2572 39.1383C25.3883 39.1579 26.5455 39.2981 27.6375 39.0992C29.2038 38.814 30.9656 37.7921 31.5475 36.2779C32.087 34.8763 31.8327 33.2024 30.9037 32.0257C30.8385 31.9442 30.77 31.8659 30.6951 31.7877C29.7563 30.7609 28.2992 30.2247 26.9155 30.4089C25.1927 30.637 23.6753 31.9914 23.2288 33.6686C22.9501 34.7149 23.1929 35.8297 23.0299 36.8957C22.8963 37.779 22.1433 38.6836 21.3447 39.0748Z" fill="#FEF5FC"/>
<path d="M31.0217 20.2754C30.9354 20.5378 31.0397 20.823 31.1521 21.0756C32.588 24.2799 36.4393 26.4476 36.3073 30.2957C36.247 32.0364 35.3783 34.0818 33.9261 35.1135C33.8202 35.1885 33.724 35.2553 33.6002 35.2896C33.3231 34.7713 33.2937 34.0118 33.0574 33.4397C32.7624 32.7225 32.3713 32.0168 31.8253 31.461C31.3021 30.9297 30.6469 30.6233 30.1237 30.1017C29.0252 29.0049 28.3325 27.5005 28.2412 25.9489C28.1076 23.7356 29.2142 21.5402 31.0217 20.2754Z" fill="#FEF5FC"/>
<path d="M21.0269 28.0034C21.0269 28.0034 20.9763 27.0369 21.9657 27.0858C21.9673 27.0858 22.3275 28.1419 21.0269 28.0034Z" fill="#8807F7" stroke="#8807F7" stroke-width="0.151303" stroke-miterlimit="10"/>
<path d="M20.7016 36.1777C21.6071 36.1777 22.3412 35.4436 22.3412 34.5381C22.3412 33.6325 21.6071 32.8984 20.7016 32.8984C19.796 32.8984 19.062 33.6325 19.062 34.5381C19.062 35.4436 19.796 36.1777 20.7016 36.1777Z" fill="#FEF5FC"/>
<rect x="42.3652" y="29.957" width="7.26257" height="2.42086" rx="1.21043" fill="white"/>
<defs>
<filter id="filter0_i_3154_65910" x="3.42651" y="-9.54358" width="48.7197" height="58.2662" filterUnits="userSpaceOnUse" color-interpolation-filters="sRGB">
<feFlood flood-opacity="0" result="BackgroundImageFix"/>
<feBlend mode="normal" in="SourceGraphic" in2="BackgroundImageFix" result="shape"/>
<feColorMatrix in="SourceAlpha" type="matrix" values="0 0 0 0 0 0 0 0 0 0 0 0 0 0 0 0 0 0 127 0" result="hardAlpha"/>
<feOffset dy="-14.7682"/>
<feGaussianBlur stdDeviation="7.3841"/>
<feComposite in2="hardAlpha" operator="arithmetic" k2="-1" k3="1"/>
<feColorMatrix type="matrix" values="0 0 0 0 0.791667 0 0 0 0 0.791667 0 0 0 0 0.791667 0 0 0 0.25 0"/>
<feBlend mode="normal" in2="shape" result="effect1_innerShadow_3154_65910"/>
</filter>
<linearGradient id="paint0_linear_3154_65910" x1="41.9128" y1="26.3262" x2="40.0514" y2="41.4255" gradientUnits="userSpaceOnUse">
<stop stop-color="#8B0EF5"/>
<stop offset="1" stop-color="#9733ED"/>
</linearGradient>
</defs>
</svg>
