<svg width="53" height="53" viewBox="0 0 53 53" fill="none" xmlns="http://www.w3.org/2000/svg">
<ellipse cx="26.2897" cy="26.5" rx="26.2897" ry="26.5" fill="#E9D6FA"/>
<g filter="url(#filter0_i_1985_14911)">
<path d="M13.7574 13.9338H38.6772C38.9682 13.9336 39.2591 13.9521 39.5478 13.989C39.4499 13.302 39.2139 12.6419 38.854 12.0486C38.4942 11.4552 38.0179 10.9409 37.4538 10.5366C36.8898 10.1323 36.2497 9.84637 35.5722 9.69613C34.8947 9.54588 34.1938 9.53439 33.5118 9.66235L13.0176 13.1612H12.9942C11.7078 13.4072 10.5638 14.1351 9.79593 15.1961C10.9528 14.3732 12.3377 13.9319 13.7574 13.9338ZM38.6772 15.8027H13.7574C12.436 15.8042 11.1692 16.3297 10.2348 17.2641C9.30044 18.1985 8.77488 19.4653 8.77344 20.7867V35.7385C8.77488 37.0599 9.30044 38.3268 10.2348 39.2611C11.1692 40.1955 12.436 40.7211 13.7574 40.7225H38.6772C39.9985 40.7211 41.2654 40.1955 42.1997 39.2611C43.1341 38.3268 43.6597 37.0599 43.6611 35.7385V20.7867C43.6597 19.4653 43.1341 18.1985 42.1997 17.2641C41.2654 16.3297 39.9985 15.8042 38.6772 15.8027ZM34.9781 30.7546C34.4853 30.7546 34.0035 30.6084 33.5937 30.3346C33.1839 30.0608 32.8645 29.6716 32.6758 29.2163C32.4872 28.7609 32.4379 28.2599 32.534 27.7765C32.6302 27.2931 32.8675 26.849 33.216 26.5005C33.5645 26.152 34.0086 25.9147 34.492 25.8185C34.9754 25.7224 35.4764 25.7717 35.9318 25.9603C36.3871 26.1489 36.7763 26.4683 37.0501 26.8781C37.324 27.288 37.4701 27.7698 37.4701 28.2626C37.4701 28.9235 37.2076 29.5574 36.7402 30.0247C36.2729 30.492 35.639 30.7546 34.9781 30.7546Z" fill="#8807F7"/>
</g>
<path d="M8.8125 26.0438V18.2953C8.8125 16.6078 9.74699 13.7786 12.9905 13.1657C15.7433 12.6494 18.4689 12.6494 18.4689 12.6494C18.4689 12.6494 20.26 13.8954 18.7804 13.8954C17.3008 13.8954 17.3397 15.8033 18.7804 15.8033C20.2211 15.8033 18.7804 17.6334 18.7804 17.6334L12.9788 24.2137L8.8125 26.0438Z" fill="#8807F7"/>
<rect x="32.1074" y="24.6875" width="8.45105" height="7.58428" fill="url(#paint0_linear_1985_14911)"/>
<path d="M24.6475 23.2179C24.6498 24.106 24.6498 24.9942 24.6522 25.8824C24.6545 26.648 24.4036 27.3938 23.694 27.7848C22.863 28.2388 21.6854 28.1244 20.7587 28.0287C20.7237 28.0264 20.691 28.0217 20.6583 28.0194C20.6886 27.3798 20.677 26.7344 20.6466 26.0971C20.607 25.2335 21.131 24.2041 22.0577 24.0582C23.0649 23.8995 23.9402 23.7921 24.4152 23.2365C24.4316 23.2202 24.4456 23.2039 24.4596 23.1852C24.5296 23.0907 24.6043 22.9985 24.679 22.9062C24.6557 23.0066 24.6475 23.1128 24.6475 23.2179Z" fill="#FEF5FC"/>
<path d="M21.6055 33.8142C22.2987 33.8586 22.9967 33.8481 23.6911 33.8597C24.5011 33.8737 25.3297 33.9741 26.1117 33.8317C27.2333 33.6275 28.4949 32.8957 28.9116 31.8114C29.2979 30.8077 29.1158 29.6091 28.4506 28.7664C28.4039 28.7081 28.3549 28.6521 28.3012 28.596C27.6289 27.8607 26.5855 27.4768 25.5947 27.6087C24.361 27.772 23.2744 28.7419 22.9547 29.9429C22.7551 30.6922 22.929 31.4905 22.8123 32.2538C22.7166 32.8864 22.1774 33.5341 21.6055 33.8142Z" fill="#FEF5FC"/>
<path d="M28.534 20.3525C28.4722 20.5404 28.5469 20.7447 28.6274 20.9256C29.6556 23.2201 32.4135 24.7724 32.319 27.528C32.2758 28.7745 31.6537 30.2392 30.6138 30.978C30.538 31.0317 30.4691 31.0795 30.3804 31.104C30.182 30.7329 30.161 30.189 29.9918 29.7793C29.7805 29.2658 29.5004 28.7604 29.1094 28.3625C28.7348 27.982 28.2656 27.7626 27.891 27.3891C27.1043 26.6036 26.6083 25.5264 26.543 24.4153C26.4472 22.8303 27.2397 21.2582 28.534 20.3525Z" fill="#FEF5FC"/>
<path d="M21.3773 25.8869C21.3773 25.8869 21.3411 25.1948 22.0495 25.2298C22.0507 25.2298 22.3086 25.9861 21.3773 25.8869Z" fill="#8807F7" stroke="#8807F7" stroke-width="0.108347" stroke-miterlimit="10"/>
<path d="M21.1448 31.7389C21.7933 31.7389 22.3189 31.2132 22.3189 30.5647C22.3189 29.9163 21.7933 29.3906 21.1448 29.3906C20.4964 29.3906 19.9707 29.9163 19.9707 30.5647C19.9707 31.2132 20.4964 31.7389 21.1448 31.7389Z" fill="#FEF5FC"/>
<rect x="36.6582" y="27.2871" width="5.20065" height="1.73355" rx="0.866774" fill="white"/>
<defs>
<filter id="filter0_i_1985_14911" x="8.77344" y="-1.00112" width="34.8867" height="41.7238" filterUnits="userSpaceOnUse" color-interpolation-filters="sRGB">
<feFlood flood-opacity="0" result="BackgroundImageFix"/>
<feBlend mode="normal" in="SourceGraphic" in2="BackgroundImageFix" result="shape"/>
<feColorMatrix in="SourceAlpha" type="matrix" values="0 0 0 0 0 0 0 0 0 0 0 0 0 0 0 0 0 0 127 0" result="hardAlpha"/>
<feOffset dy="-10.5753"/>
<feGaussianBlur stdDeviation="5.28767"/>
<feComposite in2="hardAlpha" operator="arithmetic" k2="-1" k3="1"/>
<feColorMatrix type="matrix" values="0 0 0 0 0.791667 0 0 0 0 0.791667 0 0 0 0 0.791667 0 0 0 0.25 0"/>
<feBlend mode="normal" in2="shape" result="effect1_innerShadow_1985_14911"/>
</filter>
<linearGradient id="paint0_linear_1985_14911" x1="36.3329" y1="24.6875" x2="35" y2="35.5" gradientUnits="userSpaceOnUse">
<stop stop-color="#8B0EF5"/>
<stop offset="1" stop-color="#9733ED"/>
</linearGradient>
</defs>
</svg>
