<svg width="537" height="413" viewBox="0 0 537 413" fill="none" xmlns="http://www.w3.org/2000/svg">
<g clip-path="url(#clip0_7740_105883)">
<rect width="537" height="413" rx="10" fill="#8807F7"/>
<path d="M469.234 -53C468.016 -49.3181 469.488 -45.3336 471.062 -41.803C491.267 2.93475 545.382 33.197 543.504 86.963C542.641 111.274 530.457 139.821 509.999 154.246C508.527 155.305 507.156 156.213 505.43 156.718C501.521 149.455 501.115 138.863 497.815 130.894C493.652 120.857 488.17 111.021 480.504 103.254C473.143 95.8399 463.955 91.5527 456.594 84.2898C441.161 68.9569 431.415 47.9751 430.145 26.2871C428.318 -4.58037 443.852 -35.2461 469.285 -52.8991L469.234 -53Z" fill="url(#paint0_linear_7740_105883)" fill-opacity="0.15"/>
<path d="M495.683 -30.7175C494.465 -27.0356 495.937 -23.0511 497.511 -19.5205C517.715 25.2172 571.831 55.4795 569.952 109.245C569.089 133.556 556.906 162.104 536.447 176.529C534.975 177.588 533.605 178.496 531.879 179C527.97 171.737 527.563 161.145 524.264 153.176C520.101 143.139 514.618 133.304 506.953 125.537C499.592 118.122 490.403 113.835 483.043 106.572C467.61 91.2394 457.863 70.2576 456.594 48.5696C454.766 17.7021 470.301 -12.9636 495.734 -30.6166L495.683 -30.7175Z" fill="url(#paint1_linear_7740_105883)" fill-opacity="0.15"/>
</g>
<defs>
<linearGradient id="paint0_linear_7740_105883" x1="486.776" y1="-53" x2="486.776" y2="156.718" gradientUnits="userSpaceOnUse">
<stop stop-color="white"/>
<stop offset="1" stop-color="white" stop-opacity="0"/>
</linearGradient>
<linearGradient id="paint1_linear_7740_105883" x1="486.776" y1="-53" x2="486.776" y2="156.718" gradientUnits="userSpaceOnUse">
<stop stop-color="white"/>
<stop offset="1" stop-color="white" stop-opacity="0"/>
</linearGradient>
<clipPath id="clip0_7740_105883">
<rect width="537" height="413" rx="20" fill="white"/>
</clipPath>
</defs>
</svg>
