<svg width="455" height="73" viewBox="0 0 455 73" fill="none" xmlns="http://www.w3.org/2000/svg">
<path d="M431.8 11.21C431.8 11.64 431.725 12.04 431.575 12.41C431.425 12.78 431.2 13.1 430.9 13.37C430.6 13.64 430.225 13.85 429.775 14C429.335 14.15 428.825 14.225 428.245 14.225C427.565 14.225 427 14.13 426.55 13.94C426.1 13.75 425.74 13.51 425.47 13.22C425.2 12.93 425.005 12.62 424.885 12.29C424.775 11.95 424.72 11.63 424.72 11.33C424.72 11.03 424.76 10.755 424.84 10.505C424.93 10.245 425.05 10.01 425.2 9.8C425.35 9.58 425.52 9.38 425.71 9.2C425.9 9.02 426.1 8.86 426.31 8.72C425.85 8.4 425.505 8.055 425.275 7.685C425.055 7.305 424.945 6.845 424.945 6.305C424.945 5.915 425.02 5.545 425.17 5.195C425.33 4.835 425.555 4.52 425.845 4.25C426.135 3.98 426.485 3.765 426.895 3.605C427.305 3.445 427.76 3.365 428.26 3.365C428.85 3.365 429.35 3.45 429.76 3.62C430.18 3.79 430.52 4.01 430.78 4.28C431.05 4.55 431.245 4.85 431.365 5.18C431.485 5.51 431.545 5.83 431.545 6.14C431.545 6.69 431.395 7.18 431.095 7.61C430.795 8.03 430.45 8.365 430.06 8.615C430.65 8.935 431.085 9.305 431.365 9.725C431.655 10.145 431.8 10.64 431.8 11.21ZM426.505 11.3C426.505 11.45 426.535 11.61 426.595 11.78C426.655 11.95 426.755 12.105 426.895 12.245C427.035 12.385 427.215 12.505 427.435 12.605C427.655 12.695 427.93 12.74 428.26 12.74C428.56 12.74 428.82 12.7 429.04 12.62C429.26 12.54 429.44 12.435 429.58 12.305C429.72 12.165 429.825 12.01 429.895 11.84C429.965 11.66 430 11.48 430 11.3C430 11.02 429.945 10.775 429.835 10.565C429.725 10.355 429.565 10.175 429.355 10.025C429.155 9.865 428.915 9.73 428.635 9.62C428.355 9.5 428.045 9.395 427.705 9.305C427.345 9.535 427.055 9.815 426.835 10.145C426.615 10.465 426.505 10.85 426.505 11.3ZM429.775 6.17C429.775 6.04 429.745 5.9 429.685 5.75C429.635 5.59 429.545 5.445 429.415 5.315C429.295 5.185 429.14 5.075 428.95 4.985C428.76 4.895 428.53 4.85 428.26 4.85C427.99 4.85 427.755 4.895 427.555 4.985C427.365 5.065 427.21 5.175 427.09 5.315C426.97 5.445 426.88 5.59 426.82 5.75C426.76 5.9 426.73 6.05 426.73 6.2C426.73 6.58 426.87 6.94 427.15 7.28C427.44 7.62 427.92 7.89 428.59 8.09C428.96 7.86 429.25 7.6 429.46 7.31C429.67 7.01 429.775 6.63 429.775 6.17ZM440.4 8.795C440.4 10.545 440.08 11.89 439.44 12.83C438.8 13.76 437.915 14.225 436.785 14.225C435.655 14.225 434.77 13.76 434.13 12.83C433.49 11.89 433.17 10.545 433.17 8.795C433.17 7.925 433.25 7.155 433.41 6.485C433.58 5.805 433.82 5.235 434.13 4.775C434.45 4.315 434.83 3.965 435.27 3.725C435.72 3.485 436.225 3.365 436.785 3.365C437.915 3.365 438.8 3.835 439.44 4.775C440.08 5.705 440.4 7.045 440.4 8.795ZM438.525 8.795C438.525 8.255 438.495 7.75 438.435 7.28C438.375 6.81 438.275 6.405 438.135 6.065C438.005 5.715 437.83 5.44 437.61 5.24C437.39 5.04 437.115 4.94 436.785 4.94C436.455 4.94 436.175 5.04 435.945 5.24C435.725 5.44 435.545 5.715 435.405 6.065C435.275 6.405 435.18 6.81 435.12 7.28C435.07 7.75 435.045 8.255 435.045 8.795C435.045 9.335 435.07 9.84 435.12 10.31C435.18 10.78 435.275 11.19 435.405 11.54C435.545 11.88 435.725 12.15 435.945 12.35C436.175 12.55 436.455 12.65 436.785 12.65C437.115 12.65 437.39 12.55 437.61 12.35C437.83 12.15 438.005 11.88 438.135 11.54C438.275 11.19 438.375 10.78 438.435 10.31C438.495 9.84 438.525 9.335 438.525 8.795ZM446.796 6.215C446.796 7.125 446.561 7.825 446.091 8.315C445.631 8.805 445.026 9.05 444.276 9.05C443.906 9.05 443.566 8.99 443.256 8.87C442.946 8.74 442.681 8.555 442.461 8.315C442.241 8.075 442.066 7.78 441.936 7.43C441.816 7.07 441.756 6.665 441.756 6.215C441.756 5.295 441.986 4.595 442.446 4.115C442.916 3.625 443.526 3.38 444.276 3.38C445.026 3.38 445.631 3.625 446.091 4.115C446.561 4.595 446.796 5.295 446.796 6.215ZM445.371 6.215C445.371 5.685 445.271 5.29 445.071 5.03C444.881 4.76 444.616 4.625 444.276 4.625C443.936 4.625 443.671 4.76 443.481 5.03C443.291 5.29 443.196 5.685 443.196 6.215C443.196 6.745 443.291 7.145 443.481 7.415C443.671 7.675 443.936 7.805 444.276 7.805C444.616 7.805 444.881 7.675 445.071 7.415C445.271 7.145 445.371 6.745 445.371 6.215ZM449.841 3.605H451.566L445.701 14H443.976L449.841 3.605ZM453.801 11.405C453.801 12.315 453.566 13.015 453.096 13.505C452.636 13.995 452.031 14.24 451.281 14.24C450.911 14.24 450.571 14.175 450.261 14.045C449.951 13.925 449.686 13.745 449.466 13.505C449.246 13.265 449.071 12.97 448.941 12.62C448.821 12.26 448.761 11.855 448.761 11.405C448.761 10.485 448.991 9.785 449.451 9.305C449.921 8.815 450.531 8.57 451.281 8.57C452.031 8.57 452.636 8.815 453.096 9.305C453.566 9.785 453.801 10.485 453.801 11.405ZM452.376 11.405C452.376 10.875 452.276 10.48 452.076 10.22C451.886 9.95 451.621 9.815 451.281 9.815C450.941 9.815 450.676 9.95 450.486 10.22C450.296 10.48 450.201 10.875 450.201 11.405C450.201 11.935 450.296 12.335 450.486 12.605C450.676 12.865 450.941 12.995 451.281 12.995C451.621 12.995 451.886 12.865 452.076 12.605C452.276 12.335 452.376 11.935 452.376 11.405Z" fill="#3D0072"/>
<g filter="url(#filter0_d_3666_126050)">
<rect x="278" y="26" width="57" height="35" rx="10" fill="white"/>
</g>
<path d="M306.5 18L312.129 27.75H300.871L306.5 18Z" fill="white"/>
<path d="M291.056 48V44.916H290.12V44.148H291.056V43.164H290.12V42.396H291.056V39.432H292.304L293.444 42.396H294.86V39.432H295.808V42.396H296.744V43.164H295.808V44.148H296.744V44.916H295.808V48H294.548L293.408 44.916H291.992V48H291.056ZM291.992 44.148H293.12L292.76 43.164H291.968L291.992 44.148ZM294.86 46.308H294.908L294.872 44.916H294.368L294.86 46.308ZM291.968 42.396H292.472L291.968 40.908H291.92L291.968 42.396ZM294.08 44.148H294.884L294.86 43.164H293.72L294.08 44.148ZM301.463 45.624C301.463 45.36 301.411 45.124 301.307 44.916C301.203 44.708 301.019 44.532 300.755 44.388C300.499 44.244 300.151 44.136 299.711 44.064C299.279 43.992 298.731 43.956 298.067 43.956C298.155 43.188 298.223 42.46 298.271 41.772C298.319 41.076 298.359 40.38 298.391 39.684H302.639V40.908H299.627C299.619 41.044 299.607 41.2 299.591 41.376C299.583 41.544 299.571 41.716 299.555 41.892C299.547 42.068 299.535 42.236 299.519 42.396C299.503 42.556 299.487 42.692 299.471 42.804C300.655 42.868 301.527 43.14 302.087 43.62C302.655 44.092 302.939 44.74 302.939 45.564C302.939 45.94 302.875 46.288 302.747 46.608C302.619 46.928 302.423 47.204 302.159 47.436C301.895 47.668 301.563 47.852 301.163 47.988C300.763 48.116 300.295 48.18 299.759 48.18C299.543 48.18 299.323 48.164 299.099 48.132C298.875 48.1 298.659 48.06 298.451 48.012C298.251 47.972 298.071 47.928 297.911 47.88C297.751 47.832 297.631 47.788 297.551 47.748L297.827 46.524C297.995 46.604 298.235 46.692 298.547 46.788C298.867 46.876 299.255 46.92 299.711 46.92C300.023 46.92 300.291 46.888 300.515 46.824C300.739 46.752 300.919 46.656 301.055 46.536C301.199 46.416 301.303 46.28 301.367 46.128C301.431 45.968 301.463 45.8 301.463 45.624ZM309.988 43.836C309.988 45.236 309.732 46.312 309.22 47.064C308.708 47.808 308 48.18 307.096 48.18C306.192 48.18 305.484 47.808 304.972 47.064C304.46 46.312 304.204 45.236 304.204 43.836C304.204 43.14 304.268 42.524 304.396 41.988C304.532 41.444 304.724 40.988 304.972 40.62C305.228 40.252 305.532 39.972 305.884 39.78C306.244 39.588 306.648 39.492 307.096 39.492C308 39.492 308.708 39.868 309.22 40.62C309.732 41.364 309.988 42.436 309.988 43.836ZM308.488 43.836C308.488 43.404 308.464 43 308.416 42.624C308.368 42.248 308.288 41.924 308.176 41.652C308.072 41.372 307.932 41.152 307.756 40.992C307.58 40.832 307.36 40.752 307.096 40.752C306.832 40.752 306.608 40.832 306.424 40.992C306.248 41.152 306.104 41.372 305.992 41.652C305.888 41.924 305.812 42.248 305.764 42.624C305.724 43 305.704 43.404 305.704 43.836C305.704 44.268 305.724 44.672 305.764 45.048C305.812 45.424 305.888 45.752 305.992 46.032C306.104 46.304 306.248 46.52 306.424 46.68C306.608 46.84 306.832 46.92 307.096 46.92C307.36 46.92 307.58 46.84 307.756 46.68C307.932 46.52 308.072 46.304 308.176 46.032C308.288 45.752 308.368 45.424 308.416 45.048C308.464 44.672 308.488 44.268 308.488 43.836ZM316.808 43.836C316.808 45.236 316.552 46.312 316.04 47.064C315.528 47.808 314.82 48.18 313.916 48.18C313.012 48.18 312.304 47.808 311.792 47.064C311.28 46.312 311.024 45.236 311.024 43.836C311.024 43.14 311.088 42.524 311.216 41.988C311.352 41.444 311.544 40.988 311.792 40.62C312.048 40.252 312.352 39.972 312.704 39.78C313.064 39.588 313.468 39.492 313.916 39.492C314.82 39.492 315.528 39.868 316.04 40.62C316.552 41.364 316.808 42.436 316.808 43.836ZM315.308 43.836C315.308 43.404 315.284 43 315.236 42.624C315.188 42.248 315.108 41.924 314.996 41.652C314.892 41.372 314.752 41.152 314.576 40.992C314.4 40.832 314.18 40.752 313.916 40.752C313.652 40.752 313.428 40.832 313.244 40.992C313.068 41.152 312.924 41.372 312.812 41.652C312.708 41.924 312.632 42.248 312.584 42.624C312.544 43 312.524 43.404 312.524 43.836C312.524 44.268 312.544 44.672 312.584 45.048C312.632 45.424 312.708 45.752 312.812 46.032C312.924 46.304 313.068 46.52 313.244 46.68C313.428 46.84 313.652 46.92 313.916 46.92C314.18 46.92 314.4 46.84 314.576 46.68C314.752 46.52 314.892 46.304 314.996 46.032C315.108 45.752 315.188 45.424 315.236 45.048C315.284 44.672 315.308 44.268 315.308 43.836ZM319.704 44.172C319.888 43.98 320.084 43.776 320.292 43.56C320.5 43.336 320.704 43.116 320.904 42.9C321.104 42.676 321.292 42.464 321.468 42.264C321.652 42.056 321.808 41.876 321.936 41.724H323.652C323.252 42.172 322.828 42.636 322.38 43.116C321.94 43.596 321.496 44.064 321.048 44.52C321.288 44.72 321.54 44.964 321.804 45.252C322.068 45.532 322.324 45.832 322.572 46.152C322.82 46.472 323.052 46.792 323.268 47.112C323.484 47.432 323.664 47.728 323.808 48H322.128C321.984 47.752 321.816 47.492 321.624 47.22C321.44 46.948 321.24 46.684 321.024 46.428C320.808 46.172 320.588 45.932 320.364 45.708C320.14 45.476 319.92 45.28 319.704 45.12V48H318.252V38.928L319.704 38.688V44.172Z" fill="#3D0072"/>
<path d="M1.056 31V27.916H0.12V27.148H1.056V26.164H0.12V25.396H1.056V22.432H2.304L3.444 25.396H4.86V22.432H5.808V25.396H6.744V26.164H5.808V27.148H6.744V27.916H5.808V31H4.548L3.408 27.916H1.992V31H1.056ZM1.992 27.148H3.12L2.76 26.164H1.968L1.992 27.148ZM4.86 29.308H4.908L4.872 27.916H4.368L4.86 29.308ZM1.968 25.396H2.472L1.968 23.908H1.92L1.968 25.396ZM4.08 27.148H4.884L4.86 26.164H3.72L4.08 27.148ZM15.968 26.836C15.968 28.236 15.712 29.312 15.2 30.064C14.688 30.808 13.98 31.18 13.076 31.18C12.172 31.18 11.464 30.808 10.952 30.064C10.44 29.312 10.184 28.236 10.184 26.836C10.184 26.14 10.248 25.524 10.376 24.988C10.512 24.444 10.704 23.988 10.952 23.62C11.208 23.252 11.512 22.972 11.864 22.78C12.224 22.588 12.628 22.492 13.076 22.492C13.98 22.492 14.688 22.868 15.2 23.62C15.712 24.364 15.968 25.436 15.968 26.836ZM14.468 26.836C14.468 26.404 14.444 26 14.396 25.624C14.348 25.248 14.268 24.924 14.156 24.652C14.052 24.372 13.912 24.152 13.736 23.992C13.56 23.832 13.34 23.752 13.076 23.752C12.812 23.752 12.588 23.832 12.404 23.992C12.228 24.152 12.084 24.372 11.972 24.652C11.868 24.924 11.792 25.248 11.744 25.624C11.704 26 11.684 26.404 11.684 26.836C11.684 27.268 11.704 27.672 11.744 28.048C11.792 28.424 11.868 28.752 11.972 29.032C12.084 29.304 12.228 29.52 12.404 29.68C12.588 29.84 12.812 29.92 13.076 29.92C13.34 29.92 13.56 29.84 13.736 29.68C13.912 29.52 14.052 29.304 14.156 29.032C14.268 28.752 14.348 28.424 14.396 28.048C14.444 27.672 14.468 27.268 14.468 26.836Z" fill="#9CA3AF"/>
<path d="M373.056 31V27.916H372.12V27.148H373.056V26.164H372.12V25.396H373.056V22.432H374.304L375.444 25.396H376.86V22.432H377.808V25.396H378.744V26.164H377.808V27.148H378.744V27.916H377.808V31H376.548L375.408 27.916H373.992V31H373.056ZM373.992 27.148H375.12L374.76 26.164H373.968L373.992 27.148ZM376.86 29.308H376.908L376.872 27.916H376.368L376.86 29.308ZM373.968 25.396H374.472L373.968 23.908H373.92L373.968 25.396ZM376.08 27.148H376.884L376.86 26.164H375.72L376.08 27.148ZM380.715 31C380.763 30.392 380.871 29.752 381.039 29.08C381.207 28.408 381.411 27.756 381.651 27.124C381.899 26.484 382.167 25.888 382.455 25.336C382.751 24.776 383.043 24.308 383.331 23.932H379.503V22.684H385.059V23.788C384.795 24.084 384.507 24.488 384.195 25C383.883 25.512 383.587 26.092 383.307 26.74C383.027 27.38 382.783 28.068 382.575 28.804C382.375 29.54 382.251 30.272 382.203 31H380.715ZM390.284 28.624C390.284 28.36 390.232 28.124 390.128 27.916C390.024 27.708 389.84 27.532 389.576 27.388C389.32 27.244 388.972 27.136 388.532 27.064C388.1 26.992 387.552 26.956 386.888 26.956C386.976 26.188 387.044 25.46 387.092 24.772C387.14 24.076 387.18 23.38 387.212 22.684H391.46V23.908H388.448C388.44 24.044 388.428 24.2 388.412 24.376C388.404 24.544 388.392 24.716 388.376 24.892C388.368 25.068 388.356 25.236 388.34 25.396C388.324 25.556 388.308 25.692 388.292 25.804C389.476 25.868 390.348 26.14 390.908 26.62C391.476 27.092 391.76 27.74 391.76 28.564C391.76 28.94 391.696 29.288 391.568 29.608C391.44 29.928 391.244 30.204 390.98 30.436C390.716 30.668 390.384 30.852 389.984 30.988C389.584 31.116 389.116 31.18 388.58 31.18C388.364 31.18 388.144 31.164 387.92 31.132C387.696 31.1 387.48 31.06 387.271 31.012C387.072 30.972 386.892 30.928 386.732 30.88C386.572 30.832 386.452 30.788 386.372 30.748L386.648 29.524C386.816 29.604 387.056 29.692 387.368 29.788C387.688 29.876 388.076 29.92 388.532 29.92C388.844 29.92 389.112 29.888 389.336 29.824C389.56 29.752 389.74 29.656 389.876 29.536C390.02 29.416 390.124 29.28 390.188 29.128C390.252 28.968 390.284 28.8 390.284 28.624ZM398.808 26.836C398.808 28.236 398.552 29.312 398.04 30.064C397.528 30.808 396.82 31.18 395.916 31.18C395.012 31.18 394.304 30.808 393.792 30.064C393.28 29.312 393.024 28.236 393.024 26.836C393.024 26.14 393.088 25.524 393.216 24.988C393.352 24.444 393.544 23.988 393.792 23.62C394.048 23.252 394.352 22.972 394.704 22.78C395.064 22.588 395.468 22.492 395.916 22.492C396.82 22.492 397.528 22.868 398.04 23.62C398.552 24.364 398.808 25.436 398.808 26.836ZM397.308 26.836C397.308 26.404 397.284 26 397.236 25.624C397.188 25.248 397.108 24.924 396.996 24.652C396.892 24.372 396.752 24.152 396.576 23.992C396.4 23.832 396.18 23.752 395.916 23.752C395.652 23.752 395.428 23.832 395.244 23.992C395.068 24.152 394.924 24.372 394.812 24.652C394.708 24.924 394.632 25.248 394.584 25.624C394.544 26 394.524 26.404 394.524 26.836C394.524 27.268 394.544 27.672 394.584 28.048C394.632 28.424 394.708 28.752 394.812 29.032C394.924 29.304 395.068 29.52 395.244 29.68C395.428 29.84 395.652 29.92 395.916 29.92C396.18 29.92 396.4 29.84 396.576 29.68C396.752 29.52 396.892 29.304 396.996 29.032C397.108 28.752 397.188 28.424 397.236 28.048C397.284 27.672 397.308 27.268 397.308 26.836ZM401.704 27.172C401.888 26.98 402.084 26.776 402.292 26.56C402.5 26.336 402.704 26.116 402.904 25.9C403.104 25.676 403.292 25.464 403.468 25.264C403.652 25.056 403.808 24.876 403.936 24.724H405.652C405.252 25.172 404.828 25.636 404.38 26.116C403.94 26.596 403.496 27.064 403.048 27.52C403.288 27.72 403.54 27.964 403.804 28.252C404.068 28.532 404.324 28.832 404.572 29.152C404.82 29.472 405.052 29.792 405.268 30.112C405.484 30.432 405.664 30.728 405.808 31H404.128C403.984 30.752 403.816 30.492 403.624 30.22C403.44 29.948 403.24 29.684 403.024 29.428C402.808 29.172 402.588 28.932 402.364 28.708C402.14 28.476 401.92 28.28 401.704 28.12V31H400.252V21.928L401.704 21.688V27.172Z" fill="#9CA3AF"/>
<rect x="48" y="4" width="360" height="12" rx="6" fill="#E7E7E7"/>
<rect x="1" y="4" width="309" height="12" rx="6" fill="#8807F7"/>
<defs>
<filter id="filter0_d_3666_126050" x="270" y="22" width="73" height="51" filterUnits="userSpaceOnUse" color-interpolation-filters="sRGB">
<feFlood flood-opacity="0" result="BackgroundImageFix"/>
<feColorMatrix in="SourceAlpha" type="matrix" values="0 0 0 0 0 0 0 0 0 0 0 0 0 0 0 0 0 0 127 0" result="hardAlpha"/>
<feOffset dy="4"/>
<feGaussianBlur stdDeviation="4"/>
<feComposite in2="hardAlpha" operator="out"/>
<feColorMatrix type="matrix" values="0 0 0 0 0.533333 0 0 0 0 0.027451 0 0 0 0 0.968627 0 0 0 0.07 0"/>
<feBlend mode="normal" in2="BackgroundImageFix" result="effect1_dropShadow_3666_126050"/>
<feBlend mode="normal" in="SourceGraphic" in2="effect1_dropShadow_3666_126050" result="shape"/>
</filter>
</defs>
</svg>
