<svg width="46" height="42" viewBox="0 0 46 42" fill="none" xmlns="http://www.w3.org/2000/svg">
<rect x="0.101562" width="45.2656" height="41.2656" rx="4" fill="#FBBF24"/>
<path d="M18.498 29.4932C18.0855 29.4932 17.7325 29.3198 17.439 28.973C17.145 28.6257 16.998 28.2084 16.998 27.721V18.8603C16.998 18.373 17.145 17.9557 17.439 17.6083C17.7325 17.2616 18.0855 17.0882 18.498 17.0882H19.248V15.3161C19.248 14.0904 19.6138 13.0454 20.3453 12.1812C21.0763 11.3176 21.9605 10.8857 22.998 10.8857C24.0355 10.8857 24.92 11.3176 25.6515 12.1812C26.3825 13.0454 26.748 14.0904 26.748 15.3161V17.0882H27.498C27.9105 17.0882 28.2638 17.2616 28.5578 17.6083C28.8513 17.9557 28.998 18.373 28.998 18.8603V27.721C28.998 28.2084 28.8513 28.6257 28.5578 28.973C28.2638 29.3198 27.9105 29.4932 27.498 29.4932H18.498ZM22.998 25.0628C23.4105 25.0628 23.7638 24.8894 24.0578 24.5427C24.3513 24.1954 24.498 23.778 24.498 23.2907C24.498 22.8033 24.3513 22.386 24.0578 22.0387C23.7638 21.6919 23.4105 21.5186 22.998 21.5186C22.5855 21.5186 22.2325 21.6919 21.939 22.0387C21.645 22.386 21.498 22.8033 21.498 23.2907C21.498 23.778 21.645 24.1954 21.939 24.5427C22.2325 24.8894 22.5855 25.0628 22.998 25.0628ZM20.748 17.0882H25.248V15.3161C25.248 14.5777 25.0293 13.9501 24.5918 13.4332C24.1543 12.9163 23.623 12.6579 22.998 12.6579C22.373 12.6579 21.8418 12.9163 21.4043 13.4332C20.9668 13.9501 20.748 14.5777 20.748 15.3161V17.0882Z" fill="white"/>
</svg>
