<svg width="116" height="114" viewBox="0 0 116 114" fill="none" xmlns="http://www.w3.org/2000/svg">
<path d="M40.7813 14.501C63.3042 7.72252 87.0577 20.4859 93.8361 43.0088C100.615 65.5318 87.8511 89.2852 65.3282 96.0636C42.8053 102.842 19.0519 90.0787 12.2734 67.5558C5.49498 45.0328 18.2584 21.2794 40.7813 14.501ZM63.3005 89.3261C82.1024 83.6675 92.7571 63.8384 87.0985 45.0366C81.44 26.2347 61.6109 15.58 42.809 21.2385C24.0072 26.8971 13.3524 46.7262 19.011 65.528C24.6695 84.3299 44.4986 94.9846 63.3005 89.3261Z" fill="#E6E6FF"/>
<path d="M39.5736 96.454C38.9682 97.7302 39.506 99.2629 40.8113 99.8028C46.6427 102.215 52.9091 103.413 59.2282 103.312C66.3986 103.198 73.4412 101.414 79.8018 98.1029C86.1624 94.7912 91.6677 90.0415 95.8844 84.2272C100.101 78.413 102.914 71.6928 104.103 64.5955C105.291 57.4981 104.822 50.2172 102.733 43.3254C100.643 36.4336 96.9906 30.119 92.0619 24.8784C87.1331 19.6378 81.0628 15.614 74.3285 13.1237C68.3996 10.9313 62.0985 9.98009 55.8123 10.3178C54.3961 10.3939 53.3792 11.6706 53.5358 13.0802L55.4228 30.0682C55.5791 31.4752 56.8471 32.4753 58.2628 32.4709C61.1398 32.462 64.0037 32.9679 66.7181 33.9717C70.2368 35.2728 73.4086 37.3753 75.9839 40.1135C78.5591 42.8518 80.4677 46.1512 81.5594 49.7521C82.651 53.3531 82.8961 57.1574 82.2752 60.8658C81.6543 64.5742 80.1844 68.0855 77.9811 71.1235C75.7779 74.1614 72.9014 76.6432 69.5779 78.3735C66.2545 80.1038 62.5747 81.0355 58.8282 81.0953C55.9416 81.1413 53.076 80.6688 50.3649 79.707C49.0253 79.2317 47.4913 79.7619 46.8822 81.0462L39.5736 96.454Z" fill="#E6356D"/>
<path d="M50.3393 49.9799C50.3393 49.7793 50.2943 49.6029 50.2044 49.4507C50.1144 49.2915 49.9588 49.1601 49.7374 49.0563C49.516 48.9526 49.2186 48.873 48.845 48.8177C48.4714 48.7623 48.001 48.7346 47.4337 48.7346C47.5098 48.0913 47.572 47.4375 47.6205 46.7734C47.6689 46.1092 47.707 45.4866 47.7346 44.9055H51.626V46.2026H49.0318C49.0179 46.4517 49.0006 46.6938 48.9799 46.929C48.966 47.1573 48.9487 47.3579 48.928 47.5309C49.938 47.6001 50.6817 47.8387 51.1591 48.2469C51.6433 48.6482 51.8855 49.2085 51.8855 49.928C51.8855 50.2601 51.8267 50.5679 51.7091 50.8516C51.5915 51.1352 51.415 51.3808 51.1798 51.5884C50.9446 51.7959 50.6471 51.9585 50.2874 52.0761C49.9346 52.1937 49.5195 52.2525 49.0421 52.2525C48.8554 52.2525 48.6582 52.2387 48.4506 52.211C48.25 52.1902 48.0529 52.1591 47.8591 52.1176C47.6724 52.083 47.5029 52.0449 47.3507 52.0034C47.1985 51.9619 47.0809 51.9204 46.9978 51.8789L47.278 50.6025C47.451 50.6786 47.6793 50.7547 47.9629 50.8308C48.2466 50.9 48.5855 50.9346 48.9799 50.9346C49.4572 50.9346 49.8031 50.8412 50.0176 50.6544C50.2321 50.4607 50.3393 50.2359 50.3393 49.9799ZM58.0428 48.4856C58.0428 49.6963 57.8111 50.6267 57.3476 51.277C56.891 51.9204 56.258 52.2421 55.4486 52.2421C54.6391 52.2421 54.0027 51.9204 53.5392 51.277C53.0826 50.6267 52.8543 49.6963 52.8543 48.4856C52.8543 47.8837 52.9131 47.351 53.0307 46.8875C53.1552 46.424 53.3316 46.0331 53.5599 45.7149C53.7882 45.3967 54.0615 45.1545 54.3797 44.9885C54.698 44.8225 55.0542 44.7394 55.4486 44.7394C56.258 44.7394 56.891 45.0646 57.3476 45.7149C57.8111 46.3583 58.0428 47.2818 58.0428 48.4856ZM56.4655 48.4856C56.4655 48.1258 56.4482 47.8007 56.4136 47.5101C56.379 47.2127 56.3237 46.9567 56.2476 46.7422C56.1715 46.5278 56.0677 46.3617 55.9363 46.2441C55.8048 46.1265 55.6423 46.0677 55.4486 46.0677C55.2549 46.0677 55.0923 46.1265 54.9608 46.2441C54.8363 46.3617 54.7325 46.5278 54.6495 46.7422C54.5734 46.9567 54.5181 47.2127 54.4835 47.5101C54.4489 47.8007 54.4316 48.1258 54.4316 48.4856C54.4316 48.8453 54.4489 49.1739 54.4835 49.4714C54.5181 49.7689 54.5734 50.0249 54.6495 50.2393C54.7325 50.4538 54.8363 50.6198 54.9608 50.7374C55.0923 50.855 55.2549 50.9138 55.4486 50.9138C55.6423 50.9138 55.8048 50.855 55.9363 50.7374C56.0677 50.6198 56.1715 50.4538 56.2476 50.2393C56.3237 50.0249 56.379 49.7689 56.4136 49.4714C56.4482 49.1739 56.4655 48.8453 56.4655 48.4856ZM62.4361 46.7526C62.4361 47.4029 62.2701 47.901 61.938 48.2469C61.6059 48.5928 61.1597 48.7658 60.5994 48.7658C60.039 48.7658 59.5928 48.5928 59.2607 48.2469C58.9286 47.901 58.7626 47.4029 58.7626 46.7526C58.7626 46.1023 58.9286 45.6042 59.2607 45.2583C59.5928 44.9124 60.039 44.7394 60.5994 44.7394C61.1597 44.7394 61.6059 44.9124 61.938 45.2583C62.2701 45.6042 62.4361 46.1023 62.4361 46.7526ZM61.2635 46.7526C61.2635 46.3998 61.2012 46.1438 61.0767 45.9847C60.9522 45.8256 60.7931 45.746 60.5994 45.746C60.3987 45.746 60.2362 45.8256 60.1116 45.9847C59.994 46.1438 59.9352 46.3998 59.9352 46.7526C59.9352 47.1054 59.994 47.3649 60.1116 47.5309C60.2362 47.69 60.3987 47.7696 60.5994 47.7696C60.7931 47.7696 60.9522 47.69 61.0767 47.5309C61.2012 47.3649 61.2635 47.1054 61.2635 46.7526ZM64.4596 44.9055H65.9021L61.8446 52.0968H60.4022L64.4596 44.9055ZM67.5624 50.2497C67.5624 50.9 67.3964 51.3981 67.0643 51.744C66.7322 52.0899 66.286 52.2629 65.7257 52.2629C65.1653 52.2629 64.7191 52.0899 64.387 51.744C64.0549 51.3981 63.8889 50.9 63.8889 50.2497C63.8889 49.5994 64.0549 49.1013 64.387 48.7554C64.7191 48.4095 65.1653 48.2365 65.7257 48.2365C66.286 48.2365 66.7322 48.4095 67.0643 48.7554C67.3964 49.1013 67.5624 49.5994 67.5624 50.2497ZM66.3898 50.2497C66.3898 49.8969 66.3275 49.6409 66.203 49.4818C66.0785 49.3227 65.9194 49.2431 65.7257 49.2431C65.525 49.2431 65.3625 49.3227 65.2379 49.4818C65.1203 49.6409 65.0615 49.8969 65.0615 50.2497C65.0615 50.6025 65.1203 50.862 65.2379 51.028C65.3625 51.1871 65.525 51.2667 65.7257 51.2667C65.9194 51.2667 66.0785 51.1871 66.203 51.028C66.3275 50.862 66.3898 50.6025 66.3898 50.2497Z" fill="#3D0072"/>
<path d="M41.7914 65.3899C42.0197 65.3899 42.2065 65.3726 42.3518 65.3381C42.504 65.2965 42.6251 65.2447 42.715 65.1824C42.805 65.1132 42.8672 65.0337 42.9018 64.9437C42.9364 64.8538 42.9537 64.7535 42.9537 64.6428C42.9537 64.4076 42.843 64.2139 42.6216 64.0617C42.4002 63.9025 42.0197 63.7331 41.4801 63.5532C41.2449 63.4702 41.0097 63.3768 40.7745 63.273C40.5393 63.1623 40.3283 63.0274 40.1415 62.8683C39.9547 62.7023 39.8025 62.5051 39.6849 62.2768C39.5673 62.0416 39.5085 61.7579 39.5085 61.4259C39.5085 61.0938 39.5707 60.7963 39.6953 60.5334C39.8198 60.2636 39.9962 60.0353 40.2245 59.8485C40.4528 59.6618 40.7295 59.5199 41.0547 59.4231C41.3798 59.3193 41.7465 59.2674 42.1546 59.2674C42.6389 59.2674 43.0575 59.3193 43.4103 59.4231C43.7631 59.5269 44.0537 59.641 44.282 59.7655L43.815 61.0419C43.6144 60.9381 43.3895 60.8482 43.1405 60.7721C42.8983 60.6891 42.6043 60.6476 42.2584 60.6476C41.871 60.6476 41.5908 60.7029 41.4179 60.8136C41.2518 60.9174 41.1688 61.08 41.1688 61.3013C41.1688 61.4328 41.2 61.5435 41.2622 61.6334C41.3245 61.7233 41.411 61.8064 41.5216 61.8825C41.6393 61.9516 41.7707 62.0174 41.916 62.0796C42.0682 62.135 42.2342 62.1938 42.4141 62.256C42.7877 62.3944 43.1128 62.5328 43.3895 62.6711C43.6663 62.8026 43.8945 62.9582 44.0744 63.1381C44.2612 63.318 44.3996 63.529 44.4895 63.7711C44.5794 64.0132 44.6244 64.3073 44.6244 64.6532C44.6244 65.3242 44.3892 65.8465 43.9188 66.2201C43.4483 66.5868 42.7392 66.7701 41.7914 66.7701C41.4732 66.7701 41.1861 66.7493 40.9301 66.7078C40.6742 66.6732 40.4459 66.6283 40.2453 66.5729C40.0515 66.5176 39.8821 66.4588 39.7368 66.3965C39.5984 66.3343 39.4808 66.2755 39.384 66.2201L39.8405 64.9333C40.055 65.051 40.3179 65.1582 40.6292 65.255C40.9474 65.345 41.3349 65.3899 41.7914 65.3899ZM47.9736 65.5456C48.1258 65.5456 48.2711 65.5421 48.4095 65.5352C48.5478 65.5283 48.6585 65.5179 48.7415 65.5041V64.3315C48.6793 64.3176 48.5859 64.3038 48.4614 64.29C48.3368 64.2761 48.2227 64.2692 48.1189 64.2692C47.9736 64.2692 47.8353 64.2796 47.7038 64.3003C47.5793 64.3142 47.4686 64.3453 47.3718 64.3937C47.2749 64.4422 47.1988 64.5079 47.1435 64.5909C47.0881 64.6739 47.0604 64.7777 47.0604 64.9022C47.0604 65.1443 47.14 65.3138 47.2991 65.4107C47.4651 65.5006 47.69 65.5456 47.9736 65.5456ZM47.8491 61.0212C48.3057 61.0212 48.6862 61.073 48.9906 61.1768C49.295 61.2806 49.5371 61.4293 49.717 61.623C49.9038 61.8167 50.0352 62.052 50.1113 62.3287C50.1874 62.6054 50.2255 62.9133 50.2255 63.2522V66.4692C50.0041 66.5176 49.6962 66.5729 49.3019 66.6352C48.9076 66.7044 48.4302 66.739 47.8699 66.739C47.517 66.739 47.1953 66.7078 46.9048 66.6456C46.6211 66.5833 46.3755 66.483 46.168 66.3446C45.9605 66.1994 45.8013 66.0126 45.6907 65.7843C45.58 65.556 45.5246 65.2758 45.5246 64.9437C45.5246 64.6255 45.5869 64.3557 45.7114 64.1343C45.8429 63.9129 46.0158 63.7365 46.2303 63.6051C46.4447 63.4736 46.6903 63.3802 46.967 63.3249C47.2438 63.2626 47.5309 63.2315 47.8283 63.2315C48.029 63.2315 48.2054 63.2419 48.3576 63.2626C48.5167 63.2765 48.6447 63.2972 48.7415 63.3249V63.1796C48.7415 62.9167 48.662 62.7057 48.5029 62.5466C48.3437 62.3875 48.067 62.3079 47.6727 62.3079C47.4098 62.3079 47.1504 62.3287 46.8944 62.3702C46.6384 62.4048 46.4171 62.4567 46.2303 62.5258L46.0331 61.2806C46.123 61.2529 46.2337 61.2252 46.3652 61.1976C46.5035 61.163 46.6523 61.1353 46.8114 61.1146C46.9705 61.0869 47.1365 61.0661 47.3095 61.0523C47.4894 61.0315 47.6692 61.0212 47.8491 61.0212ZM52.9758 66.6248C52.623 65.933 52.2633 65.1236 51.8966 64.1966C51.5369 63.2695 51.1944 62.2595 50.8693 61.1664H52.5088C52.578 61.4362 52.6576 61.7303 52.7475 62.0485C52.8444 62.3598 52.9412 62.678 53.0381 63.0032C53.1418 63.3214 53.2422 63.6327 53.339 63.9371C53.4428 64.2415 53.5431 64.5183 53.64 64.7673C53.7299 64.5183 53.8267 64.2415 53.9305 63.9371C54.0343 63.6327 54.1346 63.3214 54.2314 63.0032C54.3352 62.678 54.4321 62.3598 54.522 62.0485C54.6189 61.7303 54.7019 61.4362 54.7711 61.1664H56.3691C56.044 62.2595 55.6981 63.2695 55.3314 64.1966C54.9717 65.1236 54.6154 65.933 54.2626 66.6248H52.9758ZM56.796 63.9371C56.796 63.4529 56.8686 63.0309 57.0139 62.6711C57.1661 62.3045 57.3633 62.0001 57.6054 61.7579C57.8475 61.5158 58.1243 61.3325 58.4356 61.208C58.7538 61.0834 59.0789 61.0212 59.411 61.0212C60.1858 61.0212 60.7981 61.2598 61.2478 61.7372C61.6974 62.2076 61.9223 62.9029 61.9223 63.823C61.9223 63.9129 61.9188 64.0132 61.9119 64.1239C61.905 64.2277 61.8981 64.3211 61.8912 64.4041H58.3837C58.4183 64.7223 58.567 64.9749 58.8299 65.1616C59.0928 65.3484 59.4456 65.4418 59.8884 65.4418C60.172 65.4418 60.4487 65.4176 60.7185 65.3692C60.9953 65.3138 61.2201 65.2481 61.393 65.172L61.6006 66.4277C61.5176 66.4692 61.4069 66.5107 61.2685 66.5522C61.1302 66.5937 60.9745 66.6283 60.8016 66.6559C60.6355 66.6905 60.4556 66.7182 60.2619 66.739C60.0682 66.7597 59.8745 66.7701 59.6808 66.7701C59.1896 66.7701 58.7607 66.6975 58.3941 66.5522C58.0343 66.4069 57.7334 66.2097 57.4912 65.9607C57.256 65.7047 57.0796 65.4038 56.962 65.0579C56.8513 64.712 56.796 64.3384 56.796 63.9371ZM60.428 63.3456C60.4211 63.2142 60.3968 63.0862 60.3553 62.9617C60.3207 62.8372 60.2619 62.7265 60.1789 62.6296C60.1028 62.5328 60.0025 62.4532 59.878 62.3909C59.7604 62.3287 59.6116 62.2976 59.4318 62.2976C59.2588 62.2976 59.1101 62.3287 58.9856 62.3909C58.861 62.4463 58.7573 62.5224 58.6742 62.6192C58.5912 62.7161 58.5255 62.8302 58.4771 62.9617C58.4356 63.0862 58.4044 63.2142 58.3837 63.3456H60.428ZM64.4334 63.8541C64.4334 64.3315 64.5406 64.7154 64.7551 65.006C64.9695 65.2965 65.2878 65.4418 65.7098 65.4418C65.8481 65.4418 65.9761 65.4384 66.0937 65.4314C66.2113 65.4176 66.3082 65.4038 66.3843 65.3899V62.5777C66.2874 62.5155 66.1595 62.4636 66.0003 62.4221C65.8481 62.3806 65.6925 62.3598 65.5334 62.3598C64.8 62.3598 64.4334 62.8579 64.4334 63.8541ZM67.9305 66.4484C67.7921 66.4899 67.633 66.5314 67.4531 66.5729C67.2733 66.6075 67.083 66.6387 66.8824 66.6663C66.6887 66.694 66.4881 66.7148 66.2805 66.7286C66.0799 66.7493 65.8862 66.7597 65.6994 66.7597C65.2497 66.7597 64.8485 66.694 64.4957 66.5626C64.1428 66.4311 63.8453 66.2443 63.6032 66.0022C63.3611 65.7531 63.1743 65.4557 63.0429 65.1098C62.9183 64.7569 62.8561 64.3626 62.8561 63.9268C62.8561 63.484 62.9114 63.0862 63.0221 62.7334C63.1328 62.3736 63.2919 62.0693 63.4994 61.8202C63.707 61.5712 63.9595 61.3809 64.257 61.2495C64.5614 61.118 64.9073 61.0523 65.2947 61.0523C65.5092 61.0523 65.6994 61.073 65.8654 61.1146C66.0384 61.1561 66.2113 61.2149 66.3843 61.291V58.8212L67.9305 58.5722V66.4484Z" fill="#3D0072"/>
</svg>
