<svg width="29" height="29" viewBox="0 0 29 29" fill="none" xmlns="http://www.w3.org/2000/svg">
<ellipse cx="14.5" cy="14.5" rx="14.5" ry="14.5" fill="#E9D6FA"/>
<g filter="url(#filter0_i_3111_65877)">
<path d="M8.35938 9.65561H19.6094C19.7408 9.65554 19.8721 9.66388 20.0024 9.68057C19.9582 9.37041 19.8517 9.07241 19.6892 8.80454C19.5268 8.53667 19.3117 8.30447 19.0571 8.12195C18.8025 7.93943 18.5135 7.81036 18.2077 7.74253C17.9018 7.67471 17.5854 7.66952 17.2775 7.72729L8.02539 9.30686H8.01484C7.43409 9.41791 6.91764 9.74649 6.57098 10.2255C7.09326 9.854 7.71846 9.65478 8.35938 9.65561ZM19.6094 10.4994H8.35938C7.76284 10.5 7.19092 10.7373 6.7691 11.1591C6.34729 11.5809 6.11003 12.1528 6.10938 12.7494V19.4994C6.11003 20.0959 6.34729 20.6678 6.7691 21.0896C7.19092 21.5114 7.76284 21.7487 8.35938 21.7494H19.6094C20.2059 21.7487 20.7778 21.5114 21.1996 21.0896C21.6215 20.6678 21.8587 20.0959 21.8594 19.4994V12.7494C21.8587 12.1528 21.6215 11.5809 21.1996 11.1591C20.7778 10.7373 20.2059 10.5 19.6094 10.4994ZM17.9395 17.2494C17.717 17.2494 17.4994 17.1834 17.3144 17.0598C17.1294 16.9361 16.9852 16.7604 16.9001 16.5549C16.8149 16.3493 16.7927 16.1231 16.8361 15.9049C16.8795 15.6867 16.9866 15.4862 17.144 15.3289C17.3013 15.1715 17.5017 15.0644 17.72 15.021C17.9382 14.9776 18.1644 14.9998 18.37 15.085C18.5755 15.1701 18.7512 15.3143 18.8749 15.4993C18.9985 15.6843 19.0645 15.9019 19.0645 16.1244C19.0645 16.4227 18.9459 16.7089 18.7349 16.9199C18.524 17.1308 18.2378 17.2494 17.9395 17.2494Z" fill="#8807F7"/>
</g>
<path d="M6.125 15.123V11.625C6.125 10.8632 6.54687 9.58594 8.01113 9.30926C9.25391 9.07617 10.4844 9.07617 10.4844 9.07617C10.4844 9.07617 11.293 9.63867 10.625 9.63867C9.95703 9.63867 9.97461 10.5 10.625 10.5C11.2754 10.5 10.625 11.3262 10.625 11.3262L8.00586 14.2969L6.125 15.123Z" fill="#8807F7"/>
<rect x="16.6406" y="14.5098" width="3.81522" height="3.42391" fill="url(#paint0_linear_3111_65877)"/>
<path d="M13.2759 13.8497C13.2769 14.2506 13.2769 14.6516 13.278 15.0526C13.279 15.3982 13.1658 15.7349 12.8454 15.9114C12.4703 16.1164 11.9386 16.0647 11.5203 16.0215C11.5045 16.0205 11.4897 16.0184 11.475 16.0173C11.4887 15.7286 11.4834 15.4372 11.4697 15.1495C11.4518 14.7596 11.6884 14.2949 12.1067 14.229C12.5614 14.1574 12.9566 14.1089 13.171 13.8581C13.1784 13.8507 13.1847 13.8433 13.1911 13.8349C13.2227 13.7922 13.2564 13.7506 13.2901 13.709C13.2796 13.7543 13.2759 13.8022 13.2759 13.8497Z" fill="#FEF5FC"/>
<path d="M11.9062 18.6314C12.2192 18.6515 12.5343 18.6467 12.8478 18.652C13.2135 18.6583 13.5876 18.7036 13.9406 18.6393C14.4469 18.5471 15.0165 18.2168 15.2046 17.7273C15.379 17.2742 15.2968 16.733 14.9965 16.3526C14.9754 16.3263 14.9533 16.301 14.929 16.2757C14.6255 15.9437 14.1545 15.7704 13.7072 15.8299C13.1502 15.9037 12.6597 16.3415 12.5153 16.8837C12.4252 17.222 12.5037 17.5824 12.4511 17.927C12.4079 18.2125 12.1644 18.505 11.9062 18.6314Z" fill="#FEF5FC"/>
<path d="M15.0274 12.5547C14.9995 12.6395 15.0332 12.7317 15.0695 12.8134C15.5337 13.8493 16.7788 14.55 16.7361 15.794C16.7166 16.3568 16.4358 17.018 15.9663 17.3515C15.9321 17.3758 15.901 17.3974 15.8609 17.4084C15.7714 17.2409 15.7619 16.9953 15.6855 16.8104C15.5901 16.5786 15.4637 16.3504 15.2872 16.1708C15.118 15.999 14.9062 15.8999 14.7371 15.7313C14.382 15.3767 14.158 14.8904 14.1285 14.3888C14.0853 13.6733 14.4431 12.9636 15.0274 12.5547Z" fill="#FEF5FC"/>
<path d="M11.797 15.0531C11.797 15.0531 11.7807 14.7406 12.1005 14.7564C12.101 14.7564 12.2175 15.0979 11.797 15.0531Z" fill="#8807F7" stroke="#8807F7" stroke-width="0.0592842" stroke-miterlimit="10"/>
<path d="M11.6941 17.6949C11.9869 17.6949 12.2242 17.4576 12.2242 17.1648C12.2242 16.8721 11.9869 16.6348 11.6941 16.6348C11.4014 16.6348 11.1641 16.8721 11.1641 17.1648C11.1641 17.4576 11.4014 17.6949 11.6941 17.6949Z" fill="#FEF5FC"/>
<rect x="18.6953" y="15.6836" width="2.34783" height="0.782609" rx="0.391304" fill="white"/>
<defs>
<filter id="filter0_i_3111_65877" x="6.10938" y="1.90098" width="15.75" height="19.849" filterUnits="userSpaceOnUse" color-interpolation-filters="sRGB">
<feFlood flood-opacity="0" result="BackgroundImageFix"/>
<feBlend mode="normal" in="SourceGraphic" in2="BackgroundImageFix" result="shape"/>
<feColorMatrix in="SourceAlpha" type="matrix" values="0 0 0 0 0 0 0 0 0 0 0 0 0 0 0 0 0 0 127 0" result="hardAlpha"/>
<feOffset dy="-5.78652"/>
<feGaussianBlur stdDeviation="2.89326"/>
<feComposite in2="hardAlpha" operator="arithmetic" k2="-1" k3="1"/>
<feColorMatrix type="matrix" values="0 0 0 0 0.791667 0 0 0 0 0.791667 0 0 0 0 0.791667 0 0 0 0.25 0"/>
<feBlend mode="normal" in2="shape" result="effect1_innerShadow_3111_65877"/>
</filter>
<linearGradient id="paint0_linear_3111_65877" x1="18.5482" y1="14.5098" x2="17.9465" y2="19.3911" gradientUnits="userSpaceOnUse">
<stop stop-color="#8B0EF5"/>
<stop offset="1" stop-color="#9733ED"/>
</linearGradient>
</defs>
</svg>
