<svg width="60" height="61" viewBox="0 0 60 61" fill="none" xmlns="http://www.w3.org/2000/svg">
<g clip-path="url(#clip0_3154_68645)">
<path d="M60 37C60 38.5 57 39.5 53.5 40C51.25 35.75 46.75 32.5 41.5 30.25C42 29.5 42.5 29 43 28.25H45C52.75 28 60 32.75 60 37ZM17 28H15C7.25 28 0 32.75 0 37C0 38.5 3 39.5 6.5 40C8.75 35.75 13.25 32.5 18.5 30.25L17 28ZM30 30.5C35.5 30.5 40 26 40 20.5C40 15 35.5 10.5 30 10.5C24.5 10.5 20 15 20 20.5C20 26 24.5 30.5 30 30.5ZM30 33C19.75 33 10 39.5 10 45.5C10 50.5 30 50.5 30 50.5C30 50.5 50 50.5 50 45.5C50 39.5 40.25 33 30 33ZM44.25 25.5H45C49.25 25.5 52.5 22.25 52.5 18C52.5 13.75 49.25 10.5 45 10.5C43.75 10.5 42.75 10.75 41.75 11.25C43.75 13.75 45 17 45 20.5C45 22.25 44.75 24 44.25 25.5ZM15 25.5H15.75C15.25 24 15 22.25 15 20.5C15 17 16.25 13.75 18.25 11.25C17.25 10.75 16.25 10.5 15 10.5C10.75 10.5 7.5 13.75 7.5 18C7.5 22.25 10.75 25.5 15 25.5Z" fill="#8807F7"/>
</g>
<defs>
<clipPath id="clip0_3154_68645">
<rect width="60" height="60" fill="white" transform="translate(0 0.5)"/>
</clipPath>
</defs>
</svg>
