<svg width="36" height="37" viewBox="0 0 36 37" fill="none" xmlns="http://www.w3.org/2000/svg">
<ellipse cx="18" cy="18.144" rx="18" ry="18.144" fill="#E9D6FA"/>
<path d="M18 9C19.0609 9 20.0783 9.42143 20.8284 10.1716C21.5786 10.9217 22 11.9391 22 13C22 14.0609 21.5786 15.0783 20.8284 15.8284C20.0783 16.5786 19.0609 17 18 17C16.9391 17 15.9217 16.5786 15.1716 15.8284C14.4214 15.0783 14 14.0609 14 13C14 11.9391 14.4214 10.9217 15.1716 10.1716C15.9217 9.42143 16.9391 9 18 9ZM18 19C22.42 19 26 20.79 26 23V25H10V23C10 20.79 13.58 19 18 19Z" fill="#8807F7"/>
</svg>
