<svg width="133" height="41" viewBox="0 0 133 41" fill="none" xmlns="http://www.w3.org/2000/svg">
<path d="M56.3726 24.1088C56.5395 24.124 56.7292 24.1392 56.9417 24.1544C57.1693 24.1544 57.4349 24.1544 57.7385 24.1544C59.5142 24.1544 60.8269 23.7066 61.6768 22.8112C62.5419 21.9158 62.9745 20.6789 62.9745 19.1005C62.9745 17.4462 62.5647 16.1942 61.7451 15.3443C60.9256 14.4944 59.628 14.0694 57.8523 14.0694C57.6095 14.0694 57.3591 14.077 57.1011 14.0922C56.843 14.0922 56.6002 14.1074 56.3726 14.1377V24.1088ZM66.6396 19.1005C66.6396 20.4664 66.4272 21.6578 66.0022 22.6746C65.5773 23.6915 64.9702 24.5338 64.181 25.2016C63.407 25.8693 62.4584 26.3702 61.3354 26.7041C60.2123 27.0379 58.9526 27.2049 57.5564 27.2049C56.9189 27.2049 56.1753 27.1745 55.3254 27.1138C54.4755 27.0683 53.6408 26.9621 52.8212 26.7951V11.4287C53.6408 11.2769 54.4907 11.1782 55.3709 11.1327C56.2663 11.072 57.0328 11.0416 57.6702 11.0416C59.0209 11.0416 60.2426 11.1934 61.3354 11.497C62.4433 11.8005 63.3918 12.2786 64.181 12.9312C64.9702 13.5838 65.5773 14.4185 66.0022 15.4353C66.4272 16.4522 66.6396 17.6739 66.6396 19.1005ZM72.7704 27H69.3784V15.0255H72.7704V27ZM73.0891 11.5652C73.0891 12.1875 72.8842 12.6807 72.4744 13.045C72.0798 13.394 71.6094 13.5686 71.063 13.5686C70.5166 13.5686 70.0386 13.394 69.6288 13.045C69.2342 12.6807 69.0369 12.1875 69.0369 11.5652C69.0369 10.943 69.2342 10.4573 69.6288 10.1083C70.0386 9.74404 70.5166 9.56192 71.063 9.56192C71.6094 9.56192 72.0798 9.74404 72.4744 10.1083C72.8842 10.4573 73.0891 10.943 73.0891 11.5652ZM80.7396 27.2277C79.7531 27.2125 78.9488 27.1062 78.3265 26.9089C77.7194 26.7116 77.2338 26.4385 76.8695 26.0894C76.5205 25.7252 76.2776 25.2926 76.1411 24.7918C76.0196 24.2758 75.9589 23.6991 75.9589 23.0616V9.88063L79.3509 9.33427V22.3787C79.3509 22.6822 79.3737 22.9554 79.4192 23.1982C79.4648 23.4411 79.5482 23.6459 79.6696 23.8129C79.8062 23.9798 79.9959 24.1164 80.2388 24.2227C80.4816 24.3289 80.8079 24.3972 81.2177 24.4275L80.7396 27.2277ZM87.9426 27.2277C86.9561 27.2125 86.1518 27.1062 85.5295 26.9089C84.9225 26.7116 84.4368 26.4385 84.0726 26.0894C83.7235 25.7252 83.4807 25.2926 83.3441 24.7918C83.2227 24.2758 83.162 23.6991 83.162 23.0616V9.88063L86.554 9.33427V22.3787C86.554 22.6822 86.5767 22.9554 86.6223 23.1982C86.6678 23.4411 86.7513 23.6459 86.8727 23.8129C87.0093 23.9798 87.199 24.1164 87.4418 24.2227C87.6846 24.3289 88.0109 24.3972 88.4207 24.4275L87.9426 27.2277ZM95.2742 24.6324C95.6081 24.6324 95.9268 24.6248 96.2304 24.6097C96.5339 24.5945 96.7767 24.5717 96.9589 24.5414V21.9689C96.8223 21.9386 96.6174 21.9082 96.3442 21.8778C96.071 21.8475 95.8206 21.8323 95.593 21.8323C95.2742 21.8323 94.9707 21.8551 94.6824 21.9006C94.4092 21.931 94.1663 21.9993 93.9539 22.1055C93.7414 22.2117 93.5745 22.3559 93.453 22.538C93.3316 22.7202 93.2709 22.9478 93.2709 23.221C93.2709 23.7522 93.4455 24.124 93.7945 24.3365C94.1588 24.5338 94.652 24.6324 95.2742 24.6324ZM95.0011 14.7068C96.0027 14.7068 96.8375 14.8207 97.5052 15.0483C98.173 15.276 98.7042 15.6023 99.0988 16.0272C99.5086 16.4522 99.7969 16.9682 99.9639 17.5752C100.131 18.1823 100.214 18.8577 100.214 19.6013V26.6585C99.7286 26.7648 99.0533 26.8862 98.1882 27.0228C97.3231 27.1745 96.2759 27.2504 95.0466 27.2504C94.2726 27.2504 93.5669 27.1821 92.9294 27.0455C92.3072 26.9089 91.7684 26.6889 91.3131 26.3853C90.8578 26.0666 90.5087 25.6569 90.2659 25.156C90.0231 24.6552 89.9017 24.0405 89.9017 23.3121C89.9017 22.6139 90.0383 22.022 90.3115 21.5364C90.5998 21.0507 90.9792 20.6637 91.4497 20.3753C91.9202 20.087 92.459 19.8821 93.066 19.7607C93.6731 19.6241 94.3029 19.5558 94.9555 19.5558C95.3957 19.5558 95.7827 19.5786 96.1166 19.6241C96.4656 19.6545 96.7464 19.7 96.9589 19.7607V19.442C96.9589 18.8653 96.7843 18.4024 96.4353 18.0533C96.0862 17.7042 95.4791 17.5297 94.6141 17.5297C94.0373 17.5297 93.4682 17.5752 92.9067 17.6663C92.3451 17.7422 91.8595 17.856 91.4497 18.0078L91.0172 15.276C91.2145 15.2153 91.4573 15.1545 91.7457 15.0938C92.0492 15.018 92.3755 14.9573 92.7246 14.9117C93.0736 14.851 93.4379 14.8055 93.8173 14.7751C94.2119 14.7296 94.6065 14.7068 95.0011 14.7068Z" fill="#3D0072"/>
<path d="M14.0594 8.60237C14.0664 11.2712 14.0664 13.9399 14.0734 16.6087C14.0804 18.9093 13.3264 21.1502 11.1942 22.325C8.69725 23.6892 5.15875 23.3456 2.37423 23.058C2.26902 23.051 2.17083 23.037 2.07264 23.0299C2.16382 21.1081 2.12875 19.1688 2.03757 17.254C1.91833 14.6589 3.49295 11.5657 6.27746 11.1274C9.30396 10.6504 11.9342 10.3278 13.3615 8.65848C13.4106 8.60938 13.4527 8.56029 13.4948 8.50418C13.7052 8.22012 13.9296 7.94306 14.1541 7.66602C14.0839 7.96761 14.0594 8.28675 14.0594 8.60237Z" fill="#8807F7"/>
<path d="M4.90625 40.4383C6.98938 40.5716 9.08653 40.54 11.1732 40.5751C13.607 40.6172 16.0969 40.9188 18.4466 40.4909C21.8167 39.8772 25.6077 37.6784 26.8597 34.4204C28.0205 31.4044 27.4734 27.8028 25.4745 25.2708C25.3342 25.0954 25.1869 24.9271 25.0256 24.7588C23.0056 22.5494 19.8704 21.3956 16.893 21.7919C13.1861 22.2829 9.92118 25.1971 8.96028 28.8058C8.36059 31.0572 8.88312 33.456 8.53243 35.7495C8.24486 37.6503 6.62465 39.5967 4.90625 40.4383Z" fill="#8807F7"/>
<path d="M25.7406 0C25.5548 0.564618 25.7792 1.17833 26.0212 1.72191C29.1108 8.61656 37.3977 13.2808 37.1137 21.5607C36.9839 25.3061 35.1147 29.7073 31.99 31.9272C31.7621 32.0885 31.5552 32.2323 31.2886 32.306C30.6925 31.1908 30.6293 29.5565 30.1208 28.3256C29.4861 26.7825 28.6444 25.264 27.4696 24.0682C26.3438 22.9249 24.9341 22.2656 23.8083 21.1434C21.4446 18.7832 19.9542 15.5463 19.7578 12.2077C19.4702 7.44524 21.8514 2.72139 25.7406 0Z" fill="#8807F7"/>
<path d="M4.2275 16.6262C4.2275 16.6262 4.11878 14.5466 6.2475 14.6518C6.251 14.6518 7.02604 16.9243 4.2275 16.6262Z" fill="white" stroke="#8807F7" stroke-width="0.5" stroke-miterlimit="10"/>
<path d="M3.52799 34.2205C5.47644 34.2205 7.05597 32.641 7.05597 30.6925C7.05597 28.7441 5.47644 27.1646 3.52799 27.1646C1.57953 27.1646 0 28.7441 0 30.6925C0 32.641 1.57953 34.2205 3.52799 34.2205Z" fill="#8807F7"/>
</svg>
