<svg width="85" height="41" viewBox="0 0 85 41" fill="none" xmlns="http://www.w3.org/2000/svg">
<path d="M53.344 24.336C53.4613 24.3467 53.616 24.3573 53.808 24.368C54 24.368 54.2613 24.368 54.592 24.368C55.9467 24.368 56.9547 24.0267 57.616 23.344C58.288 22.6507 58.624 21.6853 58.624 20.448C58.624 19.1893 58.2987 18.224 57.648 17.552C56.9973 16.88 55.9893 16.544 54.624 16.544C54.0267 16.544 53.6 16.56 53.344 16.592V24.336ZM60.736 20.448C60.736 21.408 60.5867 22.2453 60.288 22.96C59.9893 23.664 59.5627 24.256 59.008 24.736C58.464 25.2053 57.8027 25.5573 57.024 25.792C56.256 26.016 55.4027 26.128 54.464 26.128C54.016 26.128 53.5093 26.1067 52.944 26.064C52.3787 26.032 51.84 25.9573 51.328 25.84V15.072C51.84 14.9547 52.384 14.88 52.96 14.848C53.536 14.816 54.048 14.8 54.496 14.8C55.424 14.8 56.272 14.912 57.04 15.136C57.808 15.3493 58.464 15.6907 59.008 16.16C59.5627 16.6187 59.9893 17.2053 60.288 17.92C60.5867 18.624 60.736 19.4667 60.736 20.448ZM64.7934 26H62.8574V17.632H64.7934V26ZM65.0014 15.184C65.0014 15.5467 64.884 15.8347 64.6494 16.048C64.4147 16.2613 64.1374 16.368 63.8174 16.368C63.4867 16.368 63.204 16.2613 62.9694 16.048C62.7347 15.8347 62.6174 15.5467 62.6174 15.184C62.6174 14.8107 62.7347 14.5173 62.9694 14.304C63.204 14.0907 63.4867 13.984 63.8174 13.984C64.1374 13.984 64.4147 14.0907 64.6494 14.304C64.884 14.5173 65.0014 14.8107 65.0014 15.184ZM70.1753 26.16C69.5993 26.1493 69.1193 26.0853 68.7353 25.968C68.3619 25.8507 68.0633 25.6853 67.8393 25.472C67.6153 25.248 67.4553 24.976 67.3593 24.656C67.2739 24.3253 67.2313 23.952 67.2313 23.536V13.904L69.1673 13.584V23.168C69.1673 23.4027 69.1833 23.6 69.2153 23.76C69.2579 23.92 69.3273 24.0587 69.4233 24.176C69.5193 24.2827 69.6473 24.368 69.8073 24.432C69.9779 24.4853 70.1913 24.528 70.4473 24.56L70.1753 26.16ZM74.9253 26.16C74.3493 26.1493 73.8693 26.0853 73.4853 25.968C73.1119 25.8507 72.8133 25.6853 72.5893 25.472C72.3653 25.248 72.2053 24.976 72.1093 24.656C72.0239 24.3253 71.9813 23.952 71.9813 23.536V13.904L73.9173 13.584V23.168C73.9173 23.4027 73.9333 23.6 73.9653 23.76C74.0079 23.92 74.0773 24.0587 74.1733 24.176C74.2693 24.2827 74.3973 24.368 74.5573 24.432C74.7279 24.4853 74.9413 24.528 75.1973 24.56L74.9253 26.16ZM79.7073 24.64C80.3046 24.64 80.7579 24.608 81.0673 24.544V22.4C80.9606 22.368 80.8059 22.336 80.6033 22.304C80.4006 22.272 80.1766 22.256 79.9313 22.256C79.7179 22.256 79.4993 22.272 79.2753 22.304C79.0619 22.336 78.8646 22.3947 78.6833 22.48C78.5126 22.5653 78.3739 22.688 78.2673 22.848C78.1606 22.9973 78.1073 23.1893 78.1073 23.424C78.1073 23.8827 78.2513 24.2027 78.5393 24.384C78.8273 24.5547 79.2166 24.64 79.7073 24.64ZM79.5473 17.424C80.1873 17.424 80.7259 17.504 81.1633 17.664C81.6006 17.824 81.9473 18.048 82.2033 18.336C82.4699 18.624 82.6566 18.976 82.7633 19.392C82.8806 19.7973 82.9393 20.2453 82.9393 20.736V25.808C82.6406 25.872 82.1873 25.9467 81.5793 26.032C80.9819 26.128 80.3046 26.176 79.5473 26.176C79.0459 26.176 78.5873 26.128 78.1713 26.032C77.7553 25.936 77.3979 25.7813 77.0993 25.568C76.8113 25.3547 76.5819 25.0773 76.4113 24.736C76.2513 24.3947 76.1713 23.9733 76.1713 23.472C76.1713 22.992 76.2619 22.5867 76.4433 22.256C76.6353 21.9253 76.8913 21.6587 77.2113 21.456C77.5313 21.2427 77.8993 21.0933 78.3153 21.008C78.7419 20.912 79.1846 20.864 79.6432 20.864C79.8566 20.864 80.0806 20.88 80.3153 20.912C80.5499 20.9333 80.8006 20.976 81.0673 21.04V20.72C81.0673 20.496 81.0406 20.2827 80.9873 20.08C80.9339 19.8773 80.8379 19.7013 80.6993 19.552C80.5713 19.392 80.3953 19.2693 80.1713 19.184C79.9579 19.0987 79.6859 19.056 79.3553 19.056C78.9073 19.056 78.4966 19.088 78.1233 19.152C77.7499 19.216 77.4459 19.2907 77.2113 19.376L76.9713 17.808C77.2166 17.7227 77.5739 17.6373 78.0433 17.552C78.5126 17.4667 79.0139 17.424 79.5473 17.424Z" fill="#3D0072"/>
<ellipse cx="20.3373" cy="20.5" rx="20.3373" ry="20.5" fill="#E9D6FA"/>
<g filter="url(#filter0_i_2505_66820)">
<path d="M10.6446 10.7787H29.9221C30.1473 10.7786 30.3723 10.7929 30.5956 10.8215C30.5199 10.29 30.3374 9.77938 30.059 9.32037C29.7806 8.86135 29.4121 8.46347 28.9758 8.15071C28.5395 7.83795 28.0443 7.61679 27.5202 7.50056C26.9961 7.38433 26.4539 7.37544 25.9263 7.47443L10.0723 10.1811H10.0542C9.05904 10.3714 8.17407 10.9345 7.58005 11.7552C8.475 11.1187 9.54632 10.7773 10.6446 10.7787ZM29.9221 12.2245H10.6446C9.62237 12.2257 8.64236 12.6322 7.91955 13.355C7.19674 14.0778 6.79018 15.0578 6.78906 16.0801V27.6466C6.79018 28.6688 7.19674 29.6488 7.91955 30.3716C8.64236 31.0944 9.62237 31.501 10.6446 31.5021H29.9221C30.9443 31.501 31.9244 31.0944 32.6472 30.3716C33.37 29.6488 33.7765 28.6688 33.7777 27.6466V16.0801C33.7765 15.0578 33.37 14.0778 32.6472 13.355C31.9244 12.6322 30.9443 12.2257 29.9221 12.2245ZM27.0606 23.7911C26.6794 23.7911 26.3066 23.678 25.9896 23.4662C25.6726 23.2544 25.4255 22.9533 25.2796 22.601C25.1337 22.2488 25.0955 21.8612 25.1699 21.4872C25.2443 21.1133 25.4279 20.7698 25.6975 20.5002C25.9671 20.2306 26.3106 20.047 26.6845 19.9726C27.0585 19.8982 27.4461 19.9364 27.7983 20.0823C28.1506 20.2282 28.4517 20.4753 28.6635 20.7923C28.8753 21.1093 28.9884 21.482 28.9884 21.8633C28.9884 22.3746 28.7853 22.8649 28.4238 23.2264C28.0622 23.588 27.5719 23.7911 27.0606 23.7911Z" fill="#8807F7"/>
</g>
<path d="M6.82031 20.1468V14.1527C6.82031 12.8473 7.54322 10.6587 10.0523 10.1846C12.1819 9.78516 14.2904 9.78516 14.2904 9.78516C14.2904 9.78516 15.6759 10.749 14.5313 10.749C13.3867 10.749 13.4169 12.225 14.5313 12.225C15.6458 12.225 14.5313 13.6407 14.5313 13.6407L10.0433 18.7312L6.82031 20.1468Z" fill="#8807F7"/>
<rect x="24.8359" y="19.0977" width="6.53761" height="5.86708" fill="url(#paint0_linear_2505_66820)"/>
<path d="M19.0732 17.9618C19.075 18.6488 19.075 19.3359 19.0768 20.023C19.0786 20.6153 18.8845 21.1922 18.3356 21.4947C17.6927 21.8459 16.7817 21.7574 16.0649 21.6834C16.0378 21.6816 16.0125 21.678 15.9872 21.6762C16.0107 21.1814 16.0017 20.6821 15.9782 20.1891C15.9475 19.521 16.3529 18.7247 17.0697 18.6118C17.8489 18.489 18.5261 18.406 18.8935 17.9762C18.9062 17.9636 18.917 17.9509 18.9278 17.9365C18.982 17.8634 19.0398 17.792 19.0976 17.7207C19.0795 17.7983 19.0732 17.8805 19.0732 17.9618Z" fill="#FEF5FC"/>
<path d="M16.7188 26.1587C17.255 26.1931 17.795 26.1849 18.3322 26.194C18.9587 26.2048 19.5998 26.2824 20.2047 26.1723C21.0723 26.0143 22.0483 25.4482 22.3707 24.6094C22.6695 23.833 22.5287 22.9057 22.014 22.2539C21.9779 22.2087 21.94 22.1654 21.8985 22.122C21.3784 21.5532 20.5713 21.2562 19.8047 21.3582C18.8504 21.4846 18.0098 22.2349 17.7625 23.1639C17.6081 23.7436 17.7426 24.3611 17.6523 24.9516C17.5783 25.441 17.1612 25.9421 16.7188 26.1587Z" fill="#FEF5FC"/>
<path d="M22.0776 15.7451C22.0297 15.8905 22.0875 16.0485 22.1498 16.1884C22.9452 17.9635 25.0787 19.1643 25.0055 21.2959C24.9721 22.2602 24.4909 23.3933 23.6865 23.9648C23.6278 24.0063 23.5745 24.0433 23.5059 24.0623C23.3524 23.7752 23.3362 23.3545 23.2052 23.0376C23.0418 22.6403 22.8251 22.2494 22.5227 21.9415C22.2329 21.6471 21.8699 21.4774 21.5801 21.1885C20.9716 20.5809 20.5878 19.7475 20.5373 18.888C20.4632 17.6619 21.0763 16.4457 22.0776 15.7451Z" fill="#FEF5FC"/>
<path d="M16.5393 20.0264C16.5393 20.0264 16.5113 19.491 17.0594 19.5181C17.0603 19.5181 17.2598 20.1031 16.5393 20.0264Z" fill="#8807F7" stroke="#8807F7" stroke-width="0.0838155" stroke-miterlimit="10"/>
<path d="M16.3614 24.5534C16.863 24.5534 17.2697 24.1467 17.2697 23.6451C17.2697 23.1435 16.863 22.7368 16.3614 22.7368C15.8598 22.7368 15.4531 23.1435 15.4531 23.6451C15.4531 24.1467 15.8598 24.5534 16.3614 24.5534Z" fill="#FEF5FC"/>
<rect x="28.3594" y="21.1089" width="4.02314" height="1.34105" rx="0.670524" fill="white"/>
<defs>
<filter id="filter0_i_2505_66820" x="6.78906" y="-0.774679" width="26.9922" height="32.2766" filterUnits="userSpaceOnUse" color-interpolation-filters="sRGB">
<feFlood flood-opacity="0" result="BackgroundImageFix"/>
<feBlend mode="normal" in="SourceGraphic" in2="BackgroundImageFix" result="shape"/>
<feColorMatrix in="SourceAlpha" type="matrix" values="0 0 0 0 0 0 0 0 0 0 0 0 0 0 0 0 0 0 127 0" result="hardAlpha"/>
<feOffset dy="-8.18093"/>
<feGaussianBlur stdDeviation="4.09046"/>
<feComposite in2="hardAlpha" operator="arithmetic" k2="-1" k3="1"/>
<feColorMatrix type="matrix" values="0 0 0 0 0.791667 0 0 0 0 0.791667 0 0 0 0 0.791667 0 0 0 0.25 0"/>
<feBlend mode="normal" in2="shape" result="effect1_innerShadow_2505_66820"/>
</filter>
<linearGradient id="paint0_linear_2505_66820" x1="28.1047" y1="19.0977" x2="27.0736" y2="27.462" gradientUnits="userSpaceOnUse">
<stop stop-color="#8B0EF5"/>
<stop offset="1" stop-color="#9733ED"/>
</linearGradient>
</defs>
</svg>
