<svg width="46" height="42" viewBox="0 0 46 42" fill="none" xmlns="http://www.w3.org/2000/svg">
<rect x="0.101562" width="45.2656" height="41.2656" rx="4" fill="#EBEBEB"/>
<g clip-path="url(#clip0_13056_137728)">
<path d="M25.25 15.375H20.75L19.0836 12.8754C18.834 12.4992 19.1012 12 19.5512 12H26.4488C26.8988 12 27.166 12.4992 26.9164 12.8754L25.25 15.375ZM20.75 16.5H25.25C25.3836 16.5879 25.5348 16.6863 25.707 16.7953C27.7004 18.0715 32 20.8207 32 26.625C32 28.4883 30.4883 30 28.625 30H17.375C15.5117 30 14 28.4883 14 26.625C14 20.8207 18.2996 18.0715 20.293 16.7953C20.4617 16.6863 20.6164 16.5879 20.75 16.5ZM23.7031 19.5938C23.7031 19.207 23.3867 18.8906 23 18.8906C22.6133 18.8906 22.2969 19.207 22.2969 19.5938V20.0859C22.0297 20.1457 21.7625 20.2406 21.5164 20.3848C21.0277 20.6766 20.6059 21.1863 20.6094 21.9281C20.6129 22.6418 21.0312 23.0918 21.4777 23.359C21.8645 23.591 22.3461 23.7387 22.7293 23.8512L22.7891 23.8688C23.232 24.0023 23.5555 24.1078 23.7734 24.2449C23.9527 24.3574 23.9773 24.4348 23.9809 24.5332C23.9844 24.709 23.9176 24.8145 23.7734 24.9023C23.5977 25.0113 23.3199 25.0781 23.0211 25.0676C22.6309 25.0535 22.2652 24.9305 21.7871 24.7688C21.7063 24.7406 21.6219 24.7125 21.534 24.6844C21.1648 24.5613 20.7676 24.7617 20.6445 25.1273C20.5215 25.493 20.7219 25.8938 21.0875 26.0168C21.1543 26.0379 21.2281 26.0625 21.302 26.0906C21.5938 26.1926 21.9312 26.3086 22.2934 26.3859V26.9062C22.2934 27.293 22.6098 27.6094 22.9965 27.6094C23.3832 27.6094 23.6996 27.293 23.6996 26.9062V26.4211C23.9809 26.3613 24.2621 26.2629 24.5152 26.1047C25.018 25.7918 25.3977 25.2574 25.3871 24.5227C25.3766 23.809 24.9758 23.3484 24.5223 23.0602C24.118 22.807 23.6117 22.6523 23.218 22.5328L23.1934 22.5258C22.7434 22.3887 22.4234 22.2902 22.1984 22.1566C22.0156 22.0477 22.0121 21.9844 22.0121 21.9211C22.0121 21.791 22.0613 21.6926 22.2301 21.5941C22.4199 21.4816 22.7082 21.4148 22.9859 21.4184C23.3234 21.4219 23.6961 21.4957 24.0828 21.6012C24.459 21.6996 24.8422 21.4781 24.9441 21.102C25.0461 20.7258 24.8211 20.3426 24.4449 20.2406C24.2164 20.1809 23.9633 20.1211 23.7031 20.0754V19.5938Z" fill="#3D0072"/>
</g>
<defs>
<clipPath id="clip0_13056_137728">
<rect width="18" height="18" fill="white" transform="translate(14 12)"/>
</clipPath>
</defs>
</svg>
