<svg width="13" height="13" viewBox="0 0 13 13" fill="none" xmlns="http://www.w3.org/2000/svg">
<path d="M6.4987 3.79158C5.0037 3.79158 3.79036 5.00492 3.79036 6.49992C3.79036 7.99492 5.0037 9.20825 6.4987 9.20825C7.9937 9.20825 9.20703 7.99492 9.20703 6.49992C9.20703 5.00492 7.9937 3.79158 6.4987 3.79158ZM6.4987 1.08325C3.5087 1.08325 1.08203 3.50992 1.08203 6.49992C1.08203 9.48992 3.5087 11.9166 6.4987 11.9166C9.4887 11.9166 11.9154 9.48992 11.9154 6.49992C11.9154 3.50992 9.4887 1.08325 6.4987 1.08325ZM6.4987 10.8333C4.10453 10.8333 2.16536 8.89408 2.16536 6.49992C2.16536 4.10575 4.10453 2.16659 6.4987 2.16659C8.89286 2.16659 10.832 4.10575 10.832 6.49992C10.832 8.89408 8.89286 10.8333 6.4987 10.8333Z" fill="#3D0072"/>
</svg>
