<svg width="46" height="42" viewBox="0 0 46 42" fill="none" xmlns="http://www.w3.org/2000/svg">
<rect x="0.101562" width="45.2656" height="41.2656" rx="4" fill="#E8356D"/>
<path d="M24.6332 13.669C26.3207 14.044 27.7207 14.9065 28.8332 16.2565C29.9457 17.6065 30.502 19.1878 30.502 21.0003C30.502 22.1378 30.2737 23.1878 29.8172 24.1503C29.3612 25.1128 28.7395 25.9378 27.952 26.6253H29.002C29.2145 26.6253 29.3925 26.6973 29.536 26.8413C29.68 26.9848 29.752 27.1628 29.752 27.3753C29.752 27.5878 29.68 27.7658 29.536 27.9093C29.3925 28.0533 29.2145 28.1253 29.002 28.1253H26.002C25.7895 28.1253 25.6115 28.0533 25.468 27.9093C25.324 27.7658 25.252 27.5878 25.252 27.3753V24.3753C25.252 24.1628 25.324 23.9845 25.468 23.8405C25.6115 23.697 25.7895 23.6253 26.002 23.6253C26.2145 23.6253 26.3925 23.697 26.536 23.8405C26.68 23.9845 26.752 24.1628 26.752 24.3753V25.669C27.4395 25.1065 27.9865 24.4253 28.393 23.6253C28.799 22.8253 29.002 21.9503 29.002 21.0003C29.002 19.5628 28.5615 18.3095 27.6805 17.2405C26.799 16.172 25.6895 15.4815 24.352 15.169C24.177 15.1315 24.0332 15.044 23.9207 14.9065C23.8082 14.769 23.752 14.6128 23.752 14.4378C23.752 14.1878 23.8395 13.9815 24.0145 13.819C24.1895 13.6565 24.3957 13.6065 24.6332 13.669ZM21.3707 28.3315C19.6832 27.9565 18.2832 27.094 17.1707 25.744C16.0582 24.394 15.502 22.8128 15.502 21.0003C15.502 19.8628 15.7302 18.8128 16.1867 17.8503C16.6427 16.8878 17.2645 16.0628 18.052 15.3753H17.002C16.7895 15.3753 16.6115 15.3033 16.468 15.1593C16.324 15.0158 16.252 14.8378 16.252 14.6253C16.252 14.4128 16.324 14.2345 16.468 14.0905C16.6115 13.947 16.7895 13.8753 17.002 13.8753H20.002C20.2145 13.8753 20.3927 13.947 20.5367 14.0905C20.6802 14.2345 20.752 14.4128 20.752 14.6253V17.6253C20.752 17.8378 20.6802 18.016 20.5367 18.16C20.3927 18.3035 20.2145 18.3753 20.002 18.3753C19.7895 18.3753 19.6112 18.3035 19.4672 18.16C19.3237 18.016 19.252 17.8378 19.252 17.6253V16.3315C18.5645 16.8815 18.0175 17.5598 17.611 18.3663C17.205 19.1723 17.002 20.0503 17.002 21.0003C17.002 22.4378 17.4427 23.6908 18.3242 24.7593C19.2052 25.8283 20.3145 26.519 21.652 26.8315C21.827 26.869 21.9707 26.9565 22.0832 27.094C22.1957 27.2315 22.252 27.3878 22.252 27.5628C22.252 27.8128 22.1645 28.019 21.9895 28.1815C21.8145 28.344 21.6082 28.394 21.3707 28.3315ZM21.9332 24.1315C21.8332 24.1315 21.7395 24.116 21.652 24.085C21.5645 24.0535 21.4832 24.0003 21.4082 23.9253L19.2895 21.7878C19.152 21.6503 19.0802 21.4783 19.0742 21.2718C19.0677 21.0658 19.1395 20.8878 19.2895 20.7378C19.427 20.6003 19.602 20.5315 19.8145 20.5315C20.027 20.5315 20.202 20.6003 20.3395 20.7378L21.9332 22.3315L25.6645 18.6003C25.8145 18.4503 25.9895 18.3783 26.1895 18.3843C26.3895 18.3908 26.5645 18.469 26.7145 18.619C26.852 18.769 26.924 18.944 26.9305 19.144C26.9365 19.344 26.8645 19.519 26.7145 19.669L22.4582 23.9253C22.3832 24.0003 22.302 24.0535 22.2145 24.085C22.127 24.116 22.0332 24.1315 21.9332 24.1315Z" fill="white"/>
</svg>
