<svg width="135" height="41" viewBox="0 0 135 41" fill="none" xmlns="http://www.w3.org/2000/svg">
<path d="M52.8212 27V11.2238H63.4753V14.206H56.3726V17.3021H62.6785V20.216H56.3726V24.0178H63.9989V27H52.8212ZM71.6464 18.668L74.0139 15.0255H77.5198L73.422 20.7851C74.3326 21.9234 75.1598 23.0313 75.9034 24.1088C76.6471 25.1864 77.239 26.1501 77.6791 27H74.0367C73.9153 26.7723 73.7635 26.4916 73.5814 26.1577C73.3993 25.8086 73.1944 25.452 72.9667 25.0877C72.7391 24.7083 72.4963 24.3365 72.2383 23.9722C71.9954 23.5928 71.7526 23.2513 71.5098 22.9478C71.2821 23.2362 71.0469 23.5549 70.8041 23.9039C70.5764 24.253 70.3563 24.6097 70.1439 24.9739C69.9314 25.323 69.7189 25.672 69.5064 26.0211C69.3091 26.3702 69.1346 26.6965 68.9828 27H65.5225C65.7047 26.6206 65.9551 26.1729 66.2738 25.6569C66.5925 25.1408 66.934 24.6097 67.2982 24.0633C67.6776 23.5018 68.0722 22.9478 68.482 22.4014C68.8918 21.8399 69.294 21.3163 69.6886 20.8307C69.0056 19.8745 68.3227 18.9108 67.6397 17.9395C66.9567 16.953 66.2814 15.9817 65.6136 15.0255H69.2788L71.6464 18.668ZM87.1656 21.1038C87.1656 20.0566 86.9304 19.2219 86.4599 18.5997C85.9894 17.9622 85.2913 17.6435 84.3655 17.6435C84.062 17.6435 83.7812 17.6587 83.5232 17.6891C83.2652 17.7042 83.0527 17.727 82.8858 17.7574V23.8812C83.0982 24.0178 83.3714 24.1316 83.7053 24.2227C84.0544 24.3137 84.4034 24.3592 84.7525 24.3592C86.3612 24.3592 87.1656 23.2741 87.1656 21.1038ZM90.6259 21.0128C90.6259 21.9386 90.5121 22.7809 90.2844 23.5397C90.0568 24.2985 89.7229 24.9511 89.2828 25.4975C88.8426 26.0439 88.2963 26.4688 87.6437 26.7723C86.9911 27.0759 86.2398 27.2277 85.3899 27.2277C84.9194 27.2277 84.4793 27.1821 84.0695 27.0911C83.6598 27 83.2652 26.871 82.8858 26.7041V31.2115H79.4938V15.4353C79.7973 15.3443 80.1464 15.2608 80.5409 15.1849C80.9355 15.0938 81.3453 15.018 81.7703 14.9572C82.2104 14.8965 82.6505 14.851 83.0906 14.8207C83.5459 14.7751 83.9785 14.7524 84.3883 14.7524C85.3747 14.7524 86.255 14.9041 87.029 15.2077C87.803 15.496 88.4556 15.9134 88.9868 16.4597C89.518 16.9909 89.9202 17.6435 90.1934 18.4175C90.4817 19.1916 90.6259 20.0566 90.6259 21.0128ZM98.0135 27.2277C97.027 27.2125 96.2227 27.1062 95.6004 26.9089C94.9934 26.7116 94.5077 26.4385 94.1435 26.0894C93.7944 25.7252 93.5516 25.2926 93.415 24.7918C93.2936 24.2758 93.2329 23.6991 93.2329 23.0616V9.88063L96.6249 9.33427V22.3787C96.6249 22.6822 96.6476 22.9554 96.6932 23.1982C96.7387 23.4411 96.8222 23.6459 96.9436 23.8129C97.0802 23.9798 97.2699 24.1164 97.5127 24.2227C97.7555 24.3289 98.0818 24.3972 98.4916 24.4275L98.0135 27.2277ZM111.636 20.99C111.636 21.931 111.5 22.796 111.227 23.5852C110.953 24.3592 110.559 25.027 110.043 25.5886C109.527 26.1349 108.905 26.5599 108.176 26.8634C107.463 27.1669 106.658 27.3187 105.763 27.3187C104.883 27.3187 104.078 27.1669 103.35 26.8634C102.637 26.5599 102.022 26.1349 101.506 25.5886C100.99 25.027 100.588 24.3592 100.299 23.5852C100.011 22.796 99.8668 21.931 99.8668 20.99C99.8668 20.049 100.011 19.1916 100.299 18.4175C100.603 17.6435 101.013 16.9833 101.529 16.437C102.06 15.8906 102.682 15.4657 103.395 15.1621C104.124 14.8586 104.913 14.7068 105.763 14.7068C106.628 14.7068 107.417 14.8586 108.13 15.1621C108.859 15.4657 109.481 15.8906 109.997 16.437C110.513 16.9833 110.915 17.6435 111.204 18.4175C111.492 19.1916 111.636 20.049 111.636 20.99ZM108.176 20.99C108.176 19.9428 107.964 19.1233 107.539 18.5314C107.129 17.9243 106.537 17.6208 105.763 17.6208C104.989 17.6208 104.389 17.9243 103.964 18.5314C103.54 19.1233 103.327 19.9428 103.327 20.99C103.327 22.0372 103.54 22.8719 103.964 23.4942C104.389 24.1012 104.989 24.4048 105.763 24.4048C106.537 24.4048 107.129 24.1012 107.539 23.4942C107.964 22.8719 108.176 22.0372 108.176 20.99ZM121.48 18.0305C121.177 17.9547 120.82 17.8788 120.41 17.8029C120.001 17.7118 119.561 17.6663 119.09 17.6663C118.878 17.6663 118.62 17.6891 118.316 17.7346C118.028 17.7649 117.808 17.8029 117.656 17.8484V27H114.264V15.663C114.871 15.4505 115.584 15.2532 116.404 15.0711C117.239 14.8738 118.164 14.7751 119.181 14.7751C119.363 14.7751 119.583 14.7903 119.841 14.8207C120.099 14.8358 120.357 14.8662 120.615 14.9117C120.873 14.9421 121.131 14.9876 121.389 15.0483C121.647 15.0938 121.867 15.1545 122.05 15.2304L121.48 18.0305ZM123.077 21.1038C123.077 20.0415 123.236 19.1157 123.555 18.3265C123.888 17.5221 124.321 16.8543 124.852 16.3232C125.383 15.792 125.99 15.3898 126.673 15.1166C127.372 14.8434 128.085 14.7068 128.813 14.7068C130.513 14.7068 131.856 15.2304 132.843 16.2776C133.829 17.3096 134.322 18.8349 134.322 20.8534C134.322 21.0507 134.315 21.2708 134.3 21.5136C134.285 21.7413 134.269 21.9461 134.254 22.1283H126.56C126.635 22.8264 126.962 23.3803 127.538 23.7901C128.115 24.1999 128.889 24.4048 129.861 24.4048C130.483 24.4048 131.09 24.3517 131.682 24.2454C132.289 24.124 132.782 23.9798 133.161 23.8129L133.617 26.5675C133.435 26.6585 133.192 26.7496 132.888 26.8406C132.585 26.9317 132.243 27.0076 131.864 27.0683C131.5 27.1442 131.105 27.2049 130.68 27.2504C130.255 27.2959 129.83 27.3187 129.405 27.3187C128.328 27.3187 127.387 27.1594 126.582 26.8406C125.793 26.5219 125.133 26.0894 124.602 25.543C124.086 24.9815 123.699 24.3213 123.441 23.5625C123.198 22.8036 123.077 21.9841 123.077 21.1038ZM131.044 19.8062C131.029 19.5179 130.976 19.2371 130.885 18.9639C130.809 18.6907 130.68 18.4479 130.498 18.2354C130.331 18.023 130.111 17.8484 129.838 17.7118C129.58 17.5752 129.253 17.5069 128.859 17.5069C128.479 17.5069 128.153 17.5752 127.88 17.7118C127.607 17.8332 127.379 18.0002 127.197 18.2127C127.015 18.4251 126.871 18.6756 126.764 18.9639C126.673 19.2371 126.605 19.5179 126.56 19.8062H131.044Z" fill="#3D0072"/>
<path d="M14.0594 8.60432C14.0664 11.2731 14.0664 13.9419 14.0734 16.6107C14.0804 18.9112 13.3264 21.1522 11.1942 22.327C8.69725 23.6912 5.15875 23.3475 2.37423 23.0599C2.26902 23.0529 2.17083 23.0389 2.07264 23.0319C2.16382 21.1101 2.12875 19.1707 2.03757 17.256C1.91833 14.6608 3.49295 11.5677 6.27746 11.1293C9.30396 10.6524 11.9342 10.3297 13.3615 8.66043C13.4106 8.61134 13.4527 8.56224 13.4948 8.50613C13.7052 8.22207 13.9296 7.94502 14.1541 7.66797C14.0839 7.96957 14.0594 8.2887 14.0594 8.60432Z" fill="#8807F7"/>
<path d="M4.90625 40.4383C6.98938 40.5716 9.08653 40.54 11.1732 40.5751C13.607 40.6172 16.0969 40.9188 18.4466 40.4909C21.8167 39.8772 25.6077 37.6784 26.8597 34.4204C28.0205 31.4044 27.4734 27.8028 25.4745 25.2708C25.3342 25.0954 25.1869 24.9271 25.0256 24.7588C23.0056 22.5494 19.8704 21.3956 16.893 21.7919C13.1861 22.2829 9.92118 25.1971 8.96028 28.8058C8.36059 31.0572 8.88312 33.456 8.53243 35.7495C8.24486 37.6503 6.62465 39.5967 4.90625 40.4383Z" fill="#8807F7"/>
<path d="M25.7406 0C25.5548 0.564618 25.7792 1.17833 26.0212 1.72191C29.1108 8.61656 37.3977 13.2808 37.1137 21.5607C36.9839 25.3061 35.1147 29.7073 31.99 31.9272C31.7621 32.0885 31.5552 32.2323 31.2886 32.306C30.6925 31.1908 30.6293 29.5565 30.1208 28.3256C29.4861 26.7825 28.6444 25.264 27.4696 24.0682C26.3438 22.9249 24.9341 22.2656 23.8083 21.1434C21.4446 18.7832 19.9542 15.5463 19.7578 12.2077C19.4702 7.44524 21.8514 2.72139 25.7406 0Z" fill="#8807F7"/>
<path d="M4.2275 16.6267C4.2275 16.6267 4.11878 14.5471 6.2475 14.6523C6.251 14.6523 7.02604 16.9248 4.2275 16.6267Z" fill="white" stroke="#8807F7" stroke-width="0.5" stroke-miterlimit="10"/>
<path d="M3.52799 34.22C5.47644 34.22 7.05597 32.6405 7.05597 30.692C7.05597 28.7436 5.47644 27.1641 3.52799 27.1641C1.57953 27.1641 0 28.7436 0 30.692C0 32.6405 1.57953 34.22 3.52799 34.22Z" fill="#8807F7"/>
</svg>
