<svg width="182" height="149" viewBox="0 0 182 149" fill="none" xmlns="http://www.w3.org/2000/svg">
<path d="M119.654 43.4738L134.837 47.0165L101.607 189.423L86.4243 185.88C67.8416 181.188 51.8435 169.388 41.8729 153.02C31.9023 136.652 28.7562 117.024 33.1115 98.3593C37.4668 79.6948 48.9754 63.4862 65.1608 53.2215C81.3461 42.9567 100.914 39.4564 119.654 43.4738Z" fill="#8807F7"/>
<path opacity="0.1" d="M119.654 43.4738L134.837 47.0165L101.607 189.423L86.4243 185.88C67.8416 181.188 51.8435 169.388 41.8729 153.02C31.9023 136.652 28.7562 117.024 33.1115 98.3593C37.4668 79.6948 48.9754 63.4862 65.1608 53.2215C81.3461 42.9567 100.914 39.4564 119.654 43.4738Z" fill="#3D0072"/>
<path opacity="0.3" d="M113.897 136.835L112.394 143.276L30.5545 124.179C30.2266 121.882 30.0298 119.569 29.9648 117.25L113.897 136.835Z" fill="#263238"/>
<path opacity="0.3" d="M37.2539 146.531L107.794 162.992L101.626 189.427L86.4202 185.879C75.8047 183.413 65.8773 178.598 57.3686 171.789C48.8598 164.979 41.9863 156.348 37.2539 146.531Z" fill="#263238"/>
<path d="M162.177 187.033L160.87 184.963C174.585 176.241 185.267 163.492 191.452 148.461L193.685 149.399C187.327 164.9 176.319 178.049 162.177 187.033Z" fill="#8807F7"/>
<path d="M173.955 165.545C200.087 134.769 196.323 88.6352 165.546 62.5029C134.77 36.3705 88.6366 40.1352 62.5043 70.9114C36.3719 101.688 40.1366 147.821 70.9128 173.953C101.689 200.086 147.823 196.321 173.955 165.545Z" fill="#8807F7"/>
<path d="M116.986 143.463L115.402 123.775C110.1 122.987 105.166 120.595 101.263 116.92C98.0855 113.53 96.1809 109.144 95.8727 104.508C95.3423 99.7375 96.7061 94.9496 99.6704 91.1747C102.776 87.325 107.22 84.7896 112.114 84.0759L111.726 79.3275L118.573 78.6696L118.96 83.418C123.393 83.4068 127.708 84.8528 131.239 87.5335C134.552 90.3119 136.855 94.1071 137.79 98.3293L126.051 100.836C125.707 99.2215 124.951 97.7234 123.855 96.4882C122.76 95.2529 121.363 94.3227 119.801 93.7883L121.306 112.134C128.967 113.554 134.306 115.781 137.284 118.78C140.398 122.081 142.212 126.397 142.392 130.931C142.97 136.161 141.551 141.416 138.419 145.645C135.023 149.998 130.146 152.952 124.714 153.945L125.102 158.693L118.3 159.264L117.934 154.741C112.933 154.695 108.1 152.936 104.241 149.756C100.277 146.107 97.5949 141.277 96.5938 135.983L108.754 133.672C109.37 135.98 110.507 138.115 112.077 139.915C113.403 141.477 115.087 142.694 116.986 143.463ZM112.962 94.2029C111.246 94.9085 109.799 96.1422 108.831 97.7252C107.875 99.2501 107.455 101.05 107.637 102.84C107.741 104.496 108.368 106.076 109.428 107.352C110.723 108.812 112.404 109.876 114.277 110.421L112.962 94.2029ZM123.85 143.569C126.033 143.034 127.956 141.747 129.283 139.934C130.609 138.118 131.219 135.878 130.997 133.641C130.877 131.668 130.062 129.801 128.696 128.372C126.938 126.767 124.735 125.732 122.377 125.402L123.85 143.569Z" fill="#FFC727"/>
<path opacity="0.1" d="M70.5533 82.5203C81.0638 71.6147 95.334 65.1224 110.461 64.3641C125.588 63.6057 140.436 68.6383 151.985 78.4382C163.533 88.238 170.915 102.069 172.628 117.118C174.342 132.167 170.258 147.303 161.208 159.448C166.857 153.587 171.244 146.631 174.099 139.009C176.955 131.386 178.218 123.259 177.81 115.13C177.403 107 175.333 99.0405 171.73 91.7418C168.126 84.4431 163.065 77.9605 156.859 72.6939C150.653 67.4273 143.433 63.4886 135.645 61.1209C127.857 58.7532 119.667 58.0066 111.579 58.9275C103.492 59.8483 95.6789 62.4168 88.6227 66.4747C81.5665 70.5325 75.4169 75.9934 70.5533 82.5203Z" fill="#3D0072"/>
<path opacity="0.4" d="M71.8873 31.517C70.2303 31.5522 68.6133 32.0324 67.2057 32.9074C65.7981 33.7823 64.6518 35.0198 63.8869 36.4901C63.696 36.7917 63.416 37.0264 63.0857 37.1617C62.7554 37.297 62.3912 37.326 62.0436 37.2449C61.6961 37.1638 61.3823 36.9765 61.146 36.7091C60.9097 36.4416 60.7625 36.1072 60.7249 35.7522C60.691 34.0985 60.2138 32.4843 59.3431 31.0779C58.4724 29.6716 57.2402 28.5248 55.7751 27.7572C55.4692 27.572 55.2296 27.2947 55.0909 26.9651C54.9521 26.6354 54.9211 26.2704 55.0024 25.9221C55.0837 25.5738 55.273 25.2602 55.5433 25.026C55.8137 24.7919 56.1512 24.6492 56.5075 24.6185C58.1599 24.5737 59.7704 24.0886 61.1727 23.2134C62.575 22.3383 63.7184 21.1047 64.4847 19.64C64.6755 19.3384 64.9555 19.1036 65.2858 18.9684C65.6161 18.8331 65.9803 18.804 66.3279 18.8851C66.6755 18.9662 66.9892 19.1535 67.2255 19.421C67.4618 19.6885 67.609 20.0229 67.6466 20.3778C67.6843 22.0342 68.1656 23.6502 69.0403 25.0574C69.915 26.4645 71.1511 27.6113 72.6197 28.3783C72.9256 28.5635 73.1651 28.8408 73.3039 29.1704C73.4426 29.5 73.4736 29.8651 73.3924 30.2134C73.3111 30.5617 73.1217 30.8753 72.8514 31.1094C72.5811 31.3436 72.2436 31.4863 71.8873 31.517Z" fill="#8807F7"/>
</svg>
