<svg width="23" height="23" viewBox="0 0 23 23" fill="none" xmlns="http://www.w3.org/2000/svg">
<path d="M11.1738 2.14355C6.03441 2.14355 1.86328 6.31469 1.86328 11.4541C1.86328 16.5936 6.03441 20.7647 11.1738 20.7647C16.3133 20.7647 20.4844 16.5936 20.4844 11.4541C20.4844 6.31469 16.3133 2.14355 11.1738 2.14355ZM11.1738 18.9026C7.06789 18.9026 3.72539 15.5601 3.72539 11.4541C3.72539 7.34816 7.06789 4.00567 11.1738 4.00567C15.2798 4.00567 18.6223 7.34816 18.6223 11.4541C18.6223 15.5601 15.2798 18.9026 11.1738 18.9026ZM6.05304 16.5749L13.0453 13.3255L16.2947 6.33331L9.30242 9.5827L6.05304 16.5749ZM11.1738 10.43C11.7418 10.43 12.198 10.8862 12.198 11.4541C12.198 12.0221 11.7418 12.4783 11.1738 12.4783C10.6059 12.4783 10.1497 12.0221 10.1497 11.4541C10.1497 10.8862 10.6059 10.43 11.1738 10.43Z" fill="#3D0072"/>
</svg>
