<svg width="161" height="11" viewBox="0 0 161 11" fill="none" xmlns="http://www.w3.org/2000/svg">
<path d="M6.075 4.6C6.24167 4.45 6.45 4.29167 6.7 4.125C6.95 3.94167 7.2 3.76667 7.45 3.6C7.71667 3.41667 7.98333 3.25833 8.25 3.125C8.51667 2.975 8.75 2.86667 8.95 2.8L9.55 2.6L10.55 5.7L9.95 5.9C9.73333 5.96667 9.48333 6.01667 9.2 6.05C8.91667 6.08333 8.61667 6.10833 8.3 6.125C7.98333 6.125 7.675 6.125 7.375 6.125C7.075 6.125 6.80833 6.125 6.575 6.125C6.775 6.25833 6.99167 6.41667 7.225 6.6C7.475 6.76667 7.71667 6.95 7.95 7.15C8.2 7.33333 8.43333 7.525 8.65 7.725C8.86667 7.925 9.04167 8.11667 9.175 8.3L9.575 8.825L6.925 10.7L6.55 10.2C6.41667 10.0333 6.28333 9.81667 6.15 9.55C6.03333 9.28333 5.91667 9.00833 5.8 8.725C5.68333 8.425 5.58333 8.13333 5.5 7.85C5.41667 7.56667 5.34167 7.30833 5.275 7.075C5.20833 7.30833 5.13333 7.56667 5.05 7.85C4.96667 8.13333 4.86667 8.425 4.75 8.725C4.63333 9.00833 4.50833 9.28333 4.375 9.55C4.25833 9.81667 4.13333 10.0333 4 10.2L3.625 10.7L0.975 8.825L1.375 8.3C1.50833 8.11667 1.68333 7.925 1.9 7.725C2.11667 7.525 2.34167 7.33333 2.575 7.15C2.825 6.95 3.06667 6.76667 3.3 6.6C3.55 6.41667 3.775 6.25833 3.975 6.125C3.74167 6.125 3.475 6.125 3.175 6.125C2.875 6.125 2.56667 6.125 2.25 6.125C1.93333 6.10833 1.63333 6.08333 1.35 6.05C1.06667 6.01667 0.816667 5.96667 0.6 5.9L7.07805e-08 5.7L1 2.6L1.6 2.8C1.8 2.86667 2.03333 2.975 2.3 3.125C2.56667 3.25833 2.825 3.41667 3.075 3.6C3.34167 3.76667 3.59167 3.94167 3.825 4.125C4.075 4.29167 4.29167 4.45 4.475 4.6C4.39167 4.38333 4.3 4.13333 4.2 3.85C4.11667 3.55 4.03333 3.25 3.95 2.95C3.86667 2.65 3.79167 2.35833 3.725 2.075C3.675 1.775 3.65 1.51667 3.65 1.3V0.675H6.9V1.3C6.9 1.51667 6.86667 1.775 6.8 2.075C6.75 2.35833 6.68333 2.65 6.6 2.95C6.51667 3.25 6.425 3.55 6.325 3.85C6.24167 4.13333 6.15833 4.38333 6.075 4.6ZM18.6238 4.6C18.7905 4.45 18.9988 4.29167 19.2488 4.125C19.4988 3.94167 19.7488 3.76667 19.9988 3.6C20.2655 3.41667 20.5322 3.25833 20.7988 3.125C21.0655 2.975 21.2988 2.86667 21.4988 2.8L22.0988 2.6L23.0988 5.7L22.4988 5.9C22.2822 5.96667 22.0322 6.01667 21.7488 6.05C21.4655 6.08333 21.1655 6.10833 20.8488 6.125C20.5322 6.125 20.2238 6.125 19.9238 6.125C19.6238 6.125 19.3572 6.125 19.1238 6.125C19.3238 6.25833 19.5405 6.41667 19.7738 6.6C20.0238 6.76667 20.2655 6.95 20.4988 7.15C20.7488 7.33333 20.9822 7.525 21.1988 7.725C21.4155 7.925 21.5905 8.11667 21.7238 8.3L22.1238 8.825L19.4738 10.7L19.0988 10.2C18.9655 10.0333 18.8322 9.81667 18.6988 9.55C18.5822 9.28333 18.4655 9.00833 18.3488 8.725C18.2322 8.425 18.1322 8.13333 18.0488 7.85C17.9655 7.56667 17.8905 7.30833 17.8238 7.075C17.7572 7.30833 17.6822 7.56667 17.5988 7.85C17.5155 8.13333 17.4155 8.425 17.2988 8.725C17.1822 9.00833 17.0572 9.28333 16.9238 9.55C16.8072 9.81667 16.6822 10.0333 16.5488 10.2L16.1738 10.7L13.5238 8.825L13.9238 8.3C14.0572 8.11667 14.2322 7.925 14.4488 7.725C14.6655 7.525 14.8905 7.33333 15.1238 7.15C15.3738 6.95 15.6155 6.76667 15.8488 6.6C16.0988 6.41667 16.3238 6.25833 16.5238 6.125C16.2905 6.125 16.0238 6.125 15.7238 6.125C15.4238 6.125 15.1155 6.125 14.7988 6.125C14.4822 6.10833 14.1822 6.08333 13.8988 6.05C13.6155 6.01667 13.3655 5.96667 13.1488 5.9L12.5488 5.7L13.5488 2.6L14.1488 2.8C14.3488 2.86667 14.5822 2.975 14.8488 3.125C15.1155 3.25833 15.3738 3.41667 15.6238 3.6C15.8905 3.76667 16.1405 3.94167 16.3738 4.125C16.6238 4.29167 16.8405 4.45 17.0238 4.6C16.9405 4.38333 16.8488 4.13333 16.7488 3.85C16.6655 3.55 16.5822 3.25 16.4988 2.95C16.4155 2.65 16.3405 2.35833 16.2738 2.075C16.2238 1.775 16.1988 1.51667 16.1988 1.3V0.675H19.4488V1.3C19.4488 1.51667 19.4155 1.775 19.3488 2.075C19.2988 2.35833 19.2322 2.65 19.1488 2.95C19.0655 3.25 18.9738 3.55 18.8738 3.85C18.7905 4.13333 18.7072 4.38333 18.6238 4.6ZM31.1727 4.6C31.3393 4.45 31.5477 4.29167 31.7977 4.125C32.0477 3.94167 32.2977 3.76667 32.5477 3.6C32.8143 3.41667 33.081 3.25833 33.3477 3.125C33.6143 2.975 33.8477 2.86667 34.0477 2.8L34.6477 2.6L35.6477 5.7L35.0477 5.9C34.831 5.96667 34.581 6.01667 34.2977 6.05C34.0143 6.08333 33.7143 6.10833 33.3977 6.125C33.081 6.125 32.7727 6.125 32.4727 6.125C32.1727 6.125 31.906 6.125 31.6727 6.125C31.8727 6.25833 32.0893 6.41667 32.3227 6.6C32.5727 6.76667 32.8143 6.95 33.0477 7.15C33.2977 7.33333 33.531 7.525 33.7477 7.725C33.9643 7.925 34.1393 8.11667 34.2727 8.3L34.6727 8.825L32.0227 10.7L31.6477 10.2C31.5143 10.0333 31.381 9.81667 31.2477 9.55C31.131 9.28333 31.0143 9.00833 30.8977 8.725C30.781 8.425 30.681 8.13333 30.5977 7.85C30.5143 7.56667 30.4393 7.30833 30.3727 7.075C30.306 7.30833 30.231 7.56667 30.1477 7.85C30.0643 8.13333 29.9643 8.425 29.8477 8.725C29.731 9.00833 29.606 9.28333 29.4727 9.55C29.356 9.81667 29.231 10.0333 29.0977 10.2L28.7227 10.7L26.0727 8.825L26.4727 8.3C26.606 8.11667 26.781 7.925 26.9977 7.725C27.2143 7.525 27.4393 7.33333 27.6727 7.15C27.9227 6.95 28.1643 6.76667 28.3977 6.6C28.6477 6.41667 28.8727 6.25833 29.0727 6.125C28.8393 6.125 28.5727 6.125 28.2727 6.125C27.9727 6.125 27.6643 6.125 27.3477 6.125C27.031 6.10833 26.731 6.08333 26.4477 6.05C26.1643 6.01667 25.9143 5.96667 25.6977 5.9L25.0977 5.7L26.0977 2.6L26.6977 2.8C26.8977 2.86667 27.131 2.975 27.3977 3.125C27.6643 3.25833 27.9227 3.41667 28.1727 3.6C28.4393 3.76667 28.6893 3.94167 28.9227 4.125C29.1727 4.29167 29.3893 4.45 29.5727 4.6C29.4893 4.38333 29.3977 4.13333 29.2977 3.85C29.2143 3.55 29.131 3.25 29.0477 2.95C28.9643 2.65 28.8893 2.35833 28.8227 2.075C28.7727 1.775 28.7477 1.51667 28.7477 1.3V0.675H31.9977V1.3C31.9977 1.51667 31.9643 1.775 31.8977 2.075C31.8477 2.35833 31.781 2.65 31.6977 2.95C31.6143 3.25 31.5227 3.55 31.4227 3.85C31.3393 4.13333 31.256 4.38333 31.1727 4.6ZM43.7215 4.6C43.8882 4.45 44.0965 4.29167 44.3465 4.125C44.5965 3.94167 44.8465 3.76667 45.0965 3.6C45.3632 3.41667 45.6298 3.25833 45.8965 3.125C46.1632 2.975 46.3965 2.86667 46.5965 2.8L47.1965 2.6L48.1965 5.7L47.5965 5.9C47.3798 5.96667 47.1298 6.01667 46.8465 6.05C46.5632 6.08333 46.2632 6.10833 45.9465 6.125C45.6298 6.125 45.3215 6.125 45.0215 6.125C44.7215 6.125 44.4548 6.125 44.2215 6.125C44.4215 6.25833 44.6382 6.41667 44.8715 6.6C45.1215 6.76667 45.3632 6.95 45.5965 7.15C45.8465 7.33333 46.0798 7.525 46.2965 7.725C46.5132 7.925 46.6882 8.11667 46.8215 8.3L47.2215 8.825L44.5715 10.7L44.1965 10.2C44.0632 10.0333 43.9298 9.81667 43.7965 9.55C43.6798 9.28333 43.5632 9.00833 43.4465 8.725C43.3298 8.425 43.2298 8.13333 43.1465 7.85C43.0632 7.56667 42.9882 7.30833 42.9215 7.075C42.8548 7.30833 42.7798 7.56667 42.6965 7.85C42.6132 8.13333 42.5132 8.425 42.3965 8.725C42.2798 9.00833 42.1548 9.28333 42.0215 9.55C41.9048 9.81667 41.7798 10.0333 41.6465 10.2L41.2715 10.7L38.6215 8.825L39.0215 8.3C39.1548 8.11667 39.3298 7.925 39.5465 7.725C39.7632 7.525 39.9882 7.33333 40.2215 7.15C40.4715 6.95 40.7132 6.76667 40.9465 6.6C41.1965 6.41667 41.4215 6.25833 41.6215 6.125C41.3882 6.125 41.1215 6.125 40.8215 6.125C40.5215 6.125 40.2132 6.125 39.8965 6.125C39.5798 6.10833 39.2798 6.08333 38.9965 6.05C38.7132 6.01667 38.4632 5.96667 38.2465 5.9L37.6465 5.7L38.6465 2.6L39.2465 2.8C39.4465 2.86667 39.6798 2.975 39.9465 3.125C40.2132 3.25833 40.4715 3.41667 40.7215 3.6C40.9882 3.76667 41.2382 3.94167 41.4715 4.125C41.7215 4.29167 41.9382 4.45 42.1215 4.6C42.0382 4.38333 41.9465 4.13333 41.8465 3.85C41.7632 3.55 41.6798 3.25 41.5965 2.95C41.5132 2.65 41.4382 2.35833 41.3715 2.075C41.3215 1.775 41.2965 1.51667 41.2965 1.3V0.675H44.5465V1.3C44.5465 1.51667 44.5132 1.775 44.4465 2.075C44.3965 2.35833 44.3298 2.65 44.2465 2.95C44.1632 3.25 44.0715 3.55 43.9715 3.85C43.8882 4.13333 43.8048 4.38333 43.7215 4.6ZM62.2762 4.6C62.4428 4.45 62.6512 4.29167 62.9012 4.125C63.1512 3.94167 63.4012 3.76667 63.6512 3.6C63.9178 3.41667 64.1845 3.25833 64.4512 3.125C64.7178 2.975 64.9512 2.86667 65.1512 2.8L65.7512 2.6L66.7512 5.7L66.1512 5.9C65.9345 5.96667 65.6845 6.01667 65.4012 6.05C65.1178 6.08333 64.8178 6.10833 64.5012 6.125C64.1845 6.125 63.8762 6.125 63.5762 6.125C63.2762 6.125 63.0095 6.125 62.7762 6.125C62.9762 6.25833 63.1928 6.41667 63.4262 6.6C63.6762 6.76667 63.9178 6.95 64.1512 7.15C64.4012 7.33333 64.6345 7.525 64.8512 7.725C65.0678 7.925 65.2428 8.11667 65.3762 8.3L65.7762 8.825L63.1262 10.7L62.7512 10.2C62.6178 10.0333 62.4845 9.81667 62.3512 9.55C62.2345 9.28333 62.1178 9.00833 62.0012 8.725C61.8845 8.425 61.7845 8.13333 61.7012 7.85C61.6178 7.56667 61.5428 7.30833 61.4762 7.075C61.4095 7.30833 61.3345 7.56667 61.2512 7.85C61.1678 8.13333 61.0678 8.425 60.9512 8.725C60.8345 9.00833 60.7095 9.28333 60.5762 9.55C60.4595 9.81667 60.3345 10.0333 60.2012 10.2L59.8262 10.7L57.1762 8.825L57.5762 8.3C57.7095 8.11667 57.8845 7.925 58.1012 7.725C58.3178 7.525 58.5428 7.33333 58.7762 7.15C59.0262 6.95 59.2678 6.76667 59.5012 6.6C59.7512 6.41667 59.9762 6.25833 60.1762 6.125C59.9428 6.125 59.6762 6.125 59.3762 6.125C59.0762 6.125 58.7678 6.125 58.4512 6.125C58.1345 6.10833 57.8345 6.08333 57.5512 6.05C57.2678 6.01667 57.0178 5.96667 56.8012 5.9L56.2012 5.7L57.2012 2.6L57.8012 2.8C58.0012 2.86667 58.2345 2.975 58.5012 3.125C58.7678 3.25833 59.0262 3.41667 59.2762 3.6C59.5428 3.76667 59.7928 3.94167 60.0262 4.125C60.2762 4.29167 60.4928 4.45 60.6762 4.6C60.5928 4.38333 60.5012 4.13333 60.4012 3.85C60.3178 3.55 60.2345 3.25 60.1512 2.95C60.0678 2.65 59.9928 2.35833 59.9262 2.075C59.8762 1.775 59.8512 1.51667 59.8512 1.3V0.675H63.1012V1.3C63.1012 1.51667 63.0678 1.775 63.0012 2.075C62.9512 2.35833 62.8845 2.65 62.8012 2.95C62.7178 3.25 62.6262 3.55 62.5262 3.85C62.4428 4.13333 62.3595 4.38333 62.2762 4.6ZM74.825 4.6C74.9917 4.45 75.2 4.29167 75.45 4.125C75.7 3.94167 75.95 3.76667 76.2 3.6C76.4667 3.41667 76.7333 3.25833 77 3.125C77.2667 2.975 77.5 2.86667 77.7 2.8L78.3 2.6L79.3 5.7L78.7 5.9C78.4833 5.96667 78.2333 6.01667 77.95 6.05C77.6667 6.08333 77.3667 6.10833 77.05 6.125C76.7333 6.125 76.425 6.125 76.125 6.125C75.825 6.125 75.5583 6.125 75.325 6.125C75.525 6.25833 75.7417 6.41667 75.975 6.6C76.225 6.76667 76.4667 6.95 76.7 7.15C76.95 7.33333 77.1833 7.525 77.4 7.725C77.6167 7.925 77.7917 8.11667 77.925 8.3L78.325 8.825L75.675 10.7L75.3 10.2C75.1667 10.0333 75.0333 9.81667 74.9 9.55C74.7833 9.28333 74.6667 9.00833 74.55 8.725C74.4333 8.425 74.3333 8.13333 74.25 7.85C74.1667 7.56667 74.0917 7.30833 74.025 7.075C73.9583 7.30833 73.8833 7.56667 73.8 7.85C73.7167 8.13333 73.6167 8.425 73.5 8.725C73.3833 9.00833 73.2583 9.28333 73.125 9.55C73.0083 9.81667 72.8833 10.0333 72.75 10.2L72.375 10.7L69.725 8.825L70.125 8.3C70.2583 8.11667 70.4333 7.925 70.65 7.725C70.8667 7.525 71.0917 7.33333 71.325 7.15C71.575 6.95 71.8167 6.76667 72.05 6.6C72.3 6.41667 72.525 6.25833 72.725 6.125C72.4917 6.125 72.225 6.125 71.925 6.125C71.625 6.125 71.3167 6.125 71 6.125C70.6833 6.10833 70.3833 6.08333 70.1 6.05C69.8167 6.01667 69.5667 5.96667 69.35 5.9L68.75 5.7L69.75 2.6L70.35 2.8C70.55 2.86667 70.7833 2.975 71.05 3.125C71.3167 3.25833 71.575 3.41667 71.825 3.6C72.0917 3.76667 72.3417 3.94167 72.575 4.125C72.825 4.29167 73.0417 4.45 73.225 4.6C73.1417 4.38333 73.05 4.13333 72.95 3.85C72.8667 3.55 72.7833 3.25 72.7 2.95C72.6167 2.65 72.5417 2.35833 72.475 2.075C72.425 1.775 72.4 1.51667 72.4 1.3V0.675H75.65V1.3C75.65 1.51667 75.6167 1.775 75.55 2.075C75.5 2.35833 75.4333 2.65 75.35 2.95C75.2667 3.25 75.175 3.55 75.075 3.85C74.9917 4.13333 74.9083 4.38333 74.825 4.6ZM87.3738 4.6C87.5405 4.45 87.7488 4.29167 87.9988 4.125C88.2488 3.94167 88.4988 3.76667 88.7488 3.6C89.0155 3.41667 89.2822 3.25833 89.5488 3.125C89.8155 2.975 90.0488 2.86667 90.2488 2.8L90.8488 2.6L91.8488 5.7L91.2488 5.9C91.0322 5.96667 90.7822 6.01667 90.4988 6.05C90.2155 6.08333 89.9155 6.10833 89.5988 6.125C89.2822 6.125 88.9738 6.125 88.6738 6.125C88.3738 6.125 88.1072 6.125 87.8738 6.125C88.0738 6.25833 88.2905 6.41667 88.5238 6.6C88.7738 6.76667 89.0155 6.95 89.2488 7.15C89.4988 7.33333 89.7322 7.525 89.9488 7.725C90.1655 7.925 90.3405 8.11667 90.4738 8.3L90.8738 8.825L88.2238 10.7L87.8488 10.2C87.7155 10.0333 87.5822 9.81667 87.4488 9.55C87.3322 9.28333 87.2155 9.00833 87.0988 8.725C86.9822 8.425 86.8822 8.13333 86.7988 7.85C86.7155 7.56667 86.6405 7.30833 86.5738 7.075C86.5072 7.30833 86.4322 7.56667 86.3488 7.85C86.2655 8.13333 86.1655 8.425 86.0488 8.725C85.9322 9.00833 85.8072 9.28333 85.6738 9.55C85.5572 9.81667 85.4322 10.0333 85.2988 10.2L84.9238 10.7L82.2738 8.825L82.6738 8.3C82.8072 8.11667 82.9822 7.925 83.1988 7.725C83.4155 7.525 83.6405 7.33333 83.8738 7.15C84.1238 6.95 84.3655 6.76667 84.5988 6.6C84.8488 6.41667 85.0738 6.25833 85.2738 6.125C85.0405 6.125 84.7738 6.125 84.4738 6.125C84.1738 6.125 83.8655 6.125 83.5488 6.125C83.2322 6.10833 82.9322 6.08333 82.6488 6.05C82.3655 6.01667 82.1155 5.96667 81.8988 5.9L81.2988 5.7L82.2988 2.6L82.8988 2.8C83.0988 2.86667 83.3322 2.975 83.5988 3.125C83.8655 3.25833 84.1238 3.41667 84.3738 3.6C84.6405 3.76667 84.8905 3.94167 85.1238 4.125C85.3738 4.29167 85.5905 4.45 85.7738 4.6C85.6905 4.38333 85.5988 4.13333 85.4988 3.85C85.4155 3.55 85.3322 3.25 85.2488 2.95C85.1655 2.65 85.0905 2.35833 85.0238 2.075C84.9738 1.775 84.9488 1.51667 84.9488 1.3V0.675H88.1988V1.3C88.1988 1.51667 88.1655 1.775 88.0988 2.075C88.0488 2.35833 87.9822 2.65 87.8988 2.95C87.8155 3.25 87.7238 3.55 87.6238 3.85C87.5405 4.13333 87.4572 4.38333 87.3738 4.6ZM99.9227 4.6C100.089 4.45 100.298 4.29167 100.548 4.125C100.798 3.94167 101.048 3.76667 101.298 3.6C101.564 3.41667 101.831 3.25833 102.098 3.125C102.364 2.975 102.598 2.86667 102.798 2.8L103.398 2.6L104.398 5.7L103.798 5.9C103.581 5.96667 103.331 6.01667 103.048 6.05C102.764 6.08333 102.464 6.10833 102.148 6.125C101.831 6.125 101.523 6.125 101.223 6.125C100.923 6.125 100.656 6.125 100.423 6.125C100.623 6.25833 100.839 6.41667 101.073 6.6C101.323 6.76667 101.564 6.95 101.798 7.15C102.048 7.33333 102.281 7.525 102.498 7.725C102.714 7.925 102.889 8.11667 103.023 8.3L103.423 8.825L100.773 10.7L100.398 10.2C100.264 10.0333 100.131 9.81667 99.9977 9.55C99.881 9.28333 99.7643 9.00833 99.6477 8.725C99.531 8.425 99.431 8.13333 99.3477 7.85C99.2643 7.56667 99.1893 7.30833 99.1227 7.075C99.056 7.30833 98.981 7.56667 98.8977 7.85C98.8143 8.13333 98.7143 8.425 98.5977 8.725C98.481 9.00833 98.356 9.28333 98.2227 9.55C98.106 9.81667 97.981 10.0333 97.8477 10.2L97.4727 10.7L94.8227 8.825L95.2227 8.3C95.356 8.11667 95.531 7.925 95.7477 7.725C95.9643 7.525 96.1893 7.33333 96.4227 7.15C96.6727 6.95 96.9143 6.76667 97.1477 6.6C97.3977 6.41667 97.6227 6.25833 97.8227 6.125C97.5893 6.125 97.3227 6.125 97.0227 6.125C96.7227 6.125 96.4143 6.125 96.0977 6.125C95.781 6.10833 95.481 6.08333 95.1977 6.05C94.9143 6.01667 94.6643 5.96667 94.4477 5.9L93.8477 5.7L94.8477 2.6L95.4477 2.8C95.6477 2.86667 95.881 2.975 96.1477 3.125C96.4143 3.25833 96.6727 3.41667 96.9227 3.6C97.1893 3.76667 97.4393 3.94167 97.6727 4.125C97.9227 4.29167 98.1393 4.45 98.3227 4.6C98.2393 4.38333 98.1477 4.13333 98.0477 3.85C97.9643 3.55 97.881 3.25 97.7977 2.95C97.7143 2.65 97.6393 2.35833 97.5727 2.075C97.5227 1.775 97.4977 1.51667 97.4977 1.3V0.675H100.748V1.3C100.748 1.51667 100.714 1.775 100.648 2.075C100.598 2.35833 100.531 2.65 100.448 2.95C100.364 3.25 100.273 3.55 100.173 3.85C100.089 4.13333 100.006 4.38333 99.9227 4.6ZM118.477 4.6C118.644 4.45 118.852 4.29167 119.102 4.125C119.352 3.94167 119.602 3.76667 119.852 3.6C120.119 3.41667 120.386 3.25833 120.652 3.125C120.919 2.975 121.152 2.86667 121.352 2.8L121.952 2.6L122.952 5.7L122.352 5.9C122.136 5.96667 121.886 6.01667 121.602 6.05C121.319 6.08333 121.019 6.10833 120.702 6.125C120.386 6.125 120.077 6.125 119.777 6.125C119.477 6.125 119.211 6.125 118.977 6.125C119.177 6.25833 119.394 6.41667 119.627 6.6C119.877 6.76667 120.119 6.95 120.352 7.15C120.602 7.33333 120.836 7.525 121.052 7.725C121.269 7.925 121.444 8.11667 121.577 8.3L121.977 8.825L119.327 10.7L118.952 10.2C118.819 10.0333 118.686 9.81667 118.552 9.55C118.436 9.28333 118.319 9.00833 118.202 8.725C118.086 8.425 117.986 8.13333 117.902 7.85C117.819 7.56667 117.744 7.30833 117.677 7.075C117.611 7.30833 117.536 7.56667 117.452 7.85C117.369 8.13333 117.269 8.425 117.152 8.725C117.036 9.00833 116.911 9.28333 116.777 9.55C116.661 9.81667 116.536 10.0333 116.402 10.2L116.027 10.7L113.377 8.825L113.777 8.3C113.911 8.11667 114.086 7.925 114.302 7.725C114.519 7.525 114.744 7.33333 114.977 7.15C115.227 6.95 115.469 6.76667 115.702 6.6C115.952 6.41667 116.177 6.25833 116.377 6.125C116.144 6.125 115.877 6.125 115.577 6.125C115.277 6.125 114.969 6.125 114.652 6.125C114.336 6.10833 114.036 6.08333 113.752 6.05C113.469 6.01667 113.219 5.96667 113.002 5.9L112.402 5.7L113.402 2.6L114.002 2.8C114.202 2.86667 114.436 2.975 114.702 3.125C114.969 3.25833 115.227 3.41667 115.477 3.6C115.744 3.76667 115.994 3.94167 116.227 4.125C116.477 4.29167 116.694 4.45 116.877 4.6C116.794 4.38333 116.702 4.13333 116.602 3.85C116.519 3.55 116.436 3.25 116.352 2.95C116.269 2.65 116.194 2.35833 116.127 2.075C116.077 1.775 116.052 1.51667 116.052 1.3V0.675H119.302V1.3C119.302 1.51667 119.269 1.775 119.202 2.075C119.152 2.35833 119.086 2.65 119.002 2.95C118.919 3.25 118.827 3.55 118.727 3.85C118.644 4.13333 118.561 4.38333 118.477 4.6ZM131.026 4.6C131.193 4.45 131.401 4.29167 131.651 4.125C131.901 3.94167 132.151 3.76667 132.401 3.6C132.668 3.41667 132.935 3.25833 133.201 3.125C133.468 2.975 133.701 2.86667 133.901 2.8L134.501 2.6L135.501 5.7L134.901 5.9C134.685 5.96667 134.435 6.01667 134.151 6.05C133.868 6.08333 133.568 6.10833 133.251 6.125C132.935 6.125 132.626 6.125 132.326 6.125C132.026 6.125 131.76 6.125 131.526 6.125C131.726 6.25833 131.943 6.41667 132.176 6.6C132.426 6.76667 132.668 6.95 132.901 7.15C133.151 7.33333 133.385 7.525 133.601 7.725C133.818 7.925 133.993 8.11667 134.126 8.3L134.526 8.825L131.876 10.7L131.501 10.2C131.368 10.0333 131.235 9.81667 131.101 9.55C130.985 9.28333 130.868 9.00833 130.751 8.725C130.635 8.425 130.535 8.13333 130.451 7.85C130.368 7.56667 130.293 7.30833 130.226 7.075C130.16 7.30833 130.085 7.56667 130.001 7.85C129.918 8.13333 129.818 8.425 129.701 8.725C129.585 9.00833 129.46 9.28333 129.326 9.55C129.21 9.81667 129.085 10.0333 128.951 10.2L128.576 10.7L125.926 8.825L126.326 8.3C126.46 8.11667 126.635 7.925 126.851 7.725C127.068 7.525 127.293 7.33333 127.526 7.15C127.776 6.95 128.018 6.76667 128.251 6.6C128.501 6.41667 128.726 6.25833 128.926 6.125C128.693 6.125 128.426 6.125 128.126 6.125C127.826 6.125 127.518 6.125 127.201 6.125C126.885 6.10833 126.585 6.08333 126.301 6.05C126.018 6.01667 125.768 5.96667 125.551 5.9L124.951 5.7L125.951 2.6L126.551 2.8C126.751 2.86667 126.985 2.975 127.251 3.125C127.518 3.25833 127.776 3.41667 128.026 3.6C128.293 3.76667 128.543 3.94167 128.776 4.125C129.026 4.29167 129.243 4.45 129.426 4.6C129.343 4.38333 129.251 4.13333 129.151 3.85C129.068 3.55 128.985 3.25 128.901 2.95C128.818 2.65 128.743 2.35833 128.676 2.075C128.626 1.775 128.601 1.51667 128.601 1.3V0.675H131.851V1.3C131.851 1.51667 131.818 1.775 131.751 2.075C131.701 2.35833 131.635 2.65 131.551 2.95C131.468 3.25 131.376 3.55 131.276 3.85C131.193 4.13333 131.11 4.38333 131.026 4.6ZM143.575 4.6C143.742 4.45 143.95 4.29167 144.2 4.125C144.45 3.94167 144.7 3.76667 144.95 3.6C145.217 3.41667 145.483 3.25833 145.75 3.125C146.017 2.975 146.25 2.86667 146.45 2.8L147.05 2.6L148.05 5.7L147.45 5.9C147.233 5.96667 146.983 6.01667 146.7 6.05C146.417 6.08333 146.117 6.10833 145.8 6.125C145.483 6.125 145.175 6.125 144.875 6.125C144.575 6.125 144.308 6.125 144.075 6.125C144.275 6.25833 144.492 6.41667 144.725 6.6C144.975 6.76667 145.217 6.95 145.45 7.15C145.7 7.33333 145.933 7.525 146.15 7.725C146.367 7.925 146.542 8.11667 146.675 8.3L147.075 8.825L144.425 10.7L144.05 10.2C143.917 10.0333 143.783 9.81667 143.65 9.55C143.533 9.28333 143.417 9.00833 143.3 8.725C143.183 8.425 143.083 8.13333 143 7.85C142.917 7.56667 142.842 7.30833 142.775 7.075C142.708 7.30833 142.633 7.56667 142.55 7.85C142.467 8.13333 142.367 8.425 142.25 8.725C142.133 9.00833 142.008 9.28333 141.875 9.55C141.758 9.81667 141.633 10.0333 141.5 10.2L141.125 10.7L138.475 8.825L138.875 8.3C139.008 8.11667 139.183 7.925 139.4 7.725C139.617 7.525 139.842 7.33333 140.075 7.15C140.325 6.95 140.567 6.76667 140.8 6.6C141.05 6.41667 141.275 6.25833 141.475 6.125C141.242 6.125 140.975 6.125 140.675 6.125C140.375 6.125 140.067 6.125 139.75 6.125C139.433 6.10833 139.133 6.08333 138.85 6.05C138.567 6.01667 138.317 5.96667 138.1 5.9L137.5 5.7L138.5 2.6L139.1 2.8C139.3 2.86667 139.533 2.975 139.8 3.125C140.067 3.25833 140.325 3.41667 140.575 3.6C140.842 3.76667 141.092 3.94167 141.325 4.125C141.575 4.29167 141.792 4.45 141.975 4.6C141.892 4.38333 141.8 4.13333 141.7 3.85C141.617 3.55 141.533 3.25 141.45 2.95C141.367 2.65 141.292 2.35833 141.225 2.075C141.175 1.775 141.15 1.51667 141.15 1.3V0.675H144.4V1.3C144.4 1.51667 144.367 1.775 144.3 2.075C144.25 2.35833 144.183 2.65 144.1 2.95C144.017 3.25 143.925 3.55 143.825 3.85C143.742 4.13333 143.658 4.38333 143.575 4.6ZM156.124 4.6C156.29 4.45 156.499 4.29167 156.749 4.125C156.999 3.94167 157.249 3.76667 157.499 3.6C157.765 3.41667 158.032 3.25833 158.299 3.125C158.565 2.975 158.799 2.86667 158.999 2.8L159.599 2.6L160.599 5.7L159.999 5.9C159.782 5.96667 159.532 6.01667 159.249 6.05C158.965 6.08333 158.665 6.10833 158.349 6.125C158.032 6.125 157.724 6.125 157.424 6.125C157.124 6.125 156.857 6.125 156.624 6.125C156.824 6.25833 157.04 6.41667 157.274 6.6C157.524 6.76667 157.765 6.95 157.999 7.15C158.249 7.33333 158.482 7.525 158.699 7.725C158.915 7.925 159.09 8.11667 159.224 8.3L159.624 8.825L156.974 10.7L156.599 10.2C156.465 10.0333 156.332 9.81667 156.199 9.55C156.082 9.28333 155.965 9.00833 155.849 8.725C155.732 8.425 155.632 8.13333 155.549 7.85C155.465 7.56667 155.39 7.30833 155.324 7.075C155.257 7.30833 155.182 7.56667 155.099 7.85C155.015 8.13333 154.915 8.425 154.799 8.725C154.682 9.00833 154.557 9.28333 154.424 9.55C154.307 9.81667 154.182 10.0333 154.049 10.2L153.674 10.7L151.024 8.825L151.424 8.3C151.557 8.11667 151.732 7.925 151.949 7.725C152.165 7.525 152.39 7.33333 152.624 7.15C152.874 6.95 153.115 6.76667 153.349 6.6C153.599 6.41667 153.824 6.25833 154.024 6.125C153.79 6.125 153.524 6.125 153.224 6.125C152.924 6.125 152.615 6.125 152.299 6.125C151.982 6.10833 151.682 6.08333 151.399 6.05C151.115 6.01667 150.865 5.96667 150.649 5.9L150.049 5.7L151.049 2.6L151.649 2.8C151.849 2.86667 152.082 2.975 152.349 3.125C152.615 3.25833 152.874 3.41667 153.124 3.6C153.39 3.76667 153.64 3.94167 153.874 4.125C154.124 4.29167 154.34 4.45 154.524 4.6C154.44 4.38333 154.349 4.13333 154.249 3.85C154.165 3.55 154.082 3.25 153.999 2.95C153.915 2.65 153.84 2.35833 153.774 2.075C153.724 1.775 153.699 1.51667 153.699 1.3V0.675H156.949V1.3C156.949 1.51667 156.915 1.775 156.849 2.075C156.799 2.35833 156.732 2.65 156.649 2.95C156.565 3.25 156.474 3.55 156.374 3.85C156.29 4.13333 156.207 4.38333 156.124 4.6Z" fill="#3D0072"/>
</svg>
