<svg width="141" height="140" viewBox="0 0 141 140" fill="none" xmlns="http://www.w3.org/2000/svg">
<path d="M34.7313 140C-28.1704 78.2523 8.52224 19.6051 34.7313 -2H131V140H34.7313Z" fill="#FEE8EF"/>
<path d="M44.7313 142C-18.1704 80.2523 18.5222 21.6051 44.7313 0H141V142H44.7313Z" fill="#FFD4E2"/>
<g clip-path="url(#clip0_1903_14517)">
<path d="M109.449 83.4111L111.695 83.7805C111.874 83.8096 112.032 83.8854 112.157 83.9894C112.288 84.0993 112.382 84.2421 112.422 84.3986C112.435 84.4463 112.443 84.4949 112.443 84.5444C112.445 84.5891 112.443 84.6348 112.436 84.6805L107.268 116.003C107.201 116.406 106.781 116.679 106.322 116.625C106.307 116.623 106.292 116.621 106.277 116.618L104.031 116.248C104.016 116.246 104.002 116.244 103.986 116.241C103.534 116.145 103.223 115.753 103.29 115.348L108.458 84.0264C108.466 83.9807 108.478 83.9369 108.494 83.8951C108.512 83.8495 108.534 83.8048 108.561 83.7639C108.65 83.6288 108.784 83.5239 108.944 83.4616C109.096 83.4024 109.27 83.3819 109.449 83.4111Z" fill="#FFB93E"/>
<path d="M110.024 99.304L107.255 116.084C107.196 116.445 106.781 116.681 106.322 116.625C106.307 116.623 106.292 116.621 106.277 116.618L104.031 116.248C104.016 116.246 104.002 116.244 103.986 116.241C103.533 116.147 103.217 115.791 103.277 115.43L105.706 100.71C106.916 100.668 108.625 100.387 110.023 99.304H110.024Z" fill="#FFA412"/>
<path d="M107.949 87.0734L107.891 87.4292L111.868 88.0861L111.926 87.7304L107.949 87.0734Z" fill="#FFA412"/>
<path d="M107.76 88.2882L107.701 88.644L111.678 89.2996L111.737 88.9438L107.76 88.2882Z" fill="#FFA412"/>
<path d="M107.516 89.7248L107.457 90.0806L111.434 90.7368L111.493 90.381L107.516 89.7248Z" fill="#FFA412"/>
<path d="M107.154 91.9447L107.096 92.3005L111.073 92.9568L111.131 92.601L107.154 91.9447Z" fill="#FFA412"/>
<path d="M106.766 94.2854L106.707 94.6412L110.684 95.2975L110.743 94.9417L106.766 94.2854Z" fill="#FFA412"/>
<path d="M106.176 97.8803L106.117 98.2361L110.094 98.8916L110.153 98.5358L106.176 97.8803Z" fill="#FFA412"/>
<path d="M105.613 101.233L105.555 101.588L109.532 102.245L109.59 101.89L105.613 101.233Z" fill="#FFA412"/>
<path d="M105.125 104.242L105.066 104.598L109.043 105.255L109.102 104.899L105.125 104.242Z" fill="#FFA412"/>
<path d="M108.147 85.935L108.088 86.2908L112.065 86.9463L112.124 86.5905L108.147 85.935Z" fill="#FFA412"/>
<path d="M108.27 85.1735L108.211 85.5293L112.188 86.1855L112.247 85.8298L108.27 85.1735Z" fill="#FFA412"/>
<path d="M108.393 84.445L108.334 84.8008L112.311 85.4564L112.37 85.1006L108.393 84.445Z" fill="#FFA412"/>
<path d="M108.423 84.2491L112.4 84.9032L112.437 84.6806C112.445 84.6349 112.447 84.5893 112.445 84.5445L108.495 83.8953C108.478 83.9371 108.467 83.9808 108.459 84.0265L108.422 84.2491H108.423Z" fill="#FFA412"/>
<path d="M108.563 83.764L112.424 84.3987C112.384 84.2431 112.29 84.1003 112.159 83.9895L108.945 83.4607C108.786 83.5229 108.651 83.6279 108.562 83.763L108.563 83.764Z" fill="#FFA412"/>
<path d="M113.523 83.4111L115.769 83.7805C115.948 83.8096 116.107 83.8854 116.231 83.9894C116.362 84.0993 116.456 84.2421 116.496 84.3986C116.509 84.4463 116.516 84.4949 116.518 84.5444C116.52 84.5891 116.518 84.6348 116.51 84.6805L111.342 116.003C111.275 116.406 110.855 116.679 110.396 116.625C110.382 116.623 110.366 116.621 110.351 116.618L108.105 116.248C108.091 116.246 108.076 116.244 108.061 116.241C107.609 116.145 107.297 115.753 107.365 115.348L112.533 84.0264C112.54 83.9807 112.552 83.9369 112.569 83.8951C112.586 83.8495 112.608 83.8048 112.636 83.7639C112.724 83.6288 112.858 83.5239 113.019 83.4616C113.17 83.4024 113.344 83.3819 113.523 83.4111Z" fill="#FFB93E"/>
<path d="M114.098 99.3039L111.329 116.084C111.27 116.445 110.855 116.681 110.396 116.625C110.382 116.623 110.366 116.621 110.351 116.618L108.105 116.248C108.091 116.245 108.076 116.244 108.06 116.241C107.608 116.147 107.292 115.791 107.351 115.43L109.78 100.71C110.99 100.668 112.7 100.387 114.097 99.3039H114.098Z" fill="#FFA412"/>
<path d="M112.024 87.0732L111.965 87.429L115.942 88.086L116.001 87.7302L112.024 87.0732Z" fill="#FFA412"/>
<path d="M111.836 88.2898L111.777 88.6456L115.754 89.3011L115.813 88.9453L111.836 88.2898Z" fill="#FFA412"/>
<path d="M111.588 89.7256L111.529 90.0814L115.506 90.7376L115.565 90.3818L111.588 89.7256Z" fill="#FFA412"/>
<path d="M111.227 91.9438L111.168 92.2996L115.145 92.9559L115.204 92.6001L111.227 91.9438Z" fill="#FFA412"/>
<path d="M110.84 94.2853L110.781 94.6411L114.758 95.2974L114.817 94.9416L110.84 94.2853Z" fill="#FFA412"/>
<path d="M110.244 97.873L110.186 98.2288L114.163 98.8851L114.221 98.5293L110.244 97.873Z" fill="#FFA412"/>
<path d="M109.693 101.238L109.635 101.593L113.612 102.25L113.67 101.894L109.693 101.238Z" fill="#FFA412"/>
<path d="M109.197 104.24L109.139 104.596L113.116 105.252L113.174 104.896L109.197 104.24Z" fill="#FFA412"/>
<path d="M112.215 85.9277L112.156 86.2835L116.133 86.9398L116.192 86.584L112.215 85.9277Z" fill="#FFA412"/>
<path d="M112.35 85.1792L112.291 85.535L116.268 86.1905L116.327 85.8347L112.35 85.1792Z" fill="#FFA412"/>
<path d="M112.469 84.4448L112.41 84.8006L116.387 85.4562L116.446 85.1004L112.469 84.4448Z" fill="#FFA412"/>
<path d="M112.497 84.2489L116.474 84.903L116.511 84.6804C116.519 84.6348 116.521 84.5891 116.519 84.5444L112.569 83.8951C112.552 83.9369 112.541 83.9806 112.533 84.0263L112.496 84.2489H112.497Z" fill="#FFA412"/>
<path d="M112.638 83.7638L116.498 84.3985C116.459 84.243 116.364 84.1001 116.233 83.9893L113.02 83.4605C112.86 83.5227 112.725 83.6277 112.637 83.7628L112.638 83.7638Z" fill="#FFA412"/>
<path d="M98.6224 113.481L98.6185 115.758C98.6185 115.94 98.5699 116.108 98.4863 116.248C98.3988 116.394 98.2724 116.51 98.1257 116.575C98.081 116.596 98.0333 116.61 97.9847 116.62C97.941 116.629 97.8953 116.634 97.8496 116.634L66.1038 116.558C65.6946 116.558 65.3583 116.186 65.3379 115.724C65.3379 115.708 65.3379 115.694 65.3379 115.679L65.3418 113.403C65.3418 113.388 65.3418 113.373 65.3418 113.358C65.3632 112.896 65.7014 112.527 66.1106 112.528L97.8564 112.604C97.9021 112.604 97.9478 112.609 97.9915 112.618C98.0401 112.628 98.0868 112.644 98.1325 112.664C98.2792 112.729 98.4056 112.846 98.4921 112.994C98.5747 113.133 98.6233 113.303 98.6233 113.483L98.6224 113.481Z" fill="#FFB93E"/>
<path d="M83.0269 116.598L66.0192 116.557C65.6538 116.557 65.3534 116.184 65.3359 115.723C65.3359 115.707 65.3359 115.693 65.3359 115.678L65.3398 113.402C65.3398 113.387 65.3398 113.372 65.3398 113.357C65.3593 112.895 65.6606 112.526 66.026 112.527L80.945 112.562C81.1811 113.75 81.7332 115.391 83.026 116.598H83.0269Z" fill="#FFA412"/>
<path d="M94.4044 112.601L94.3945 116.631L94.7551 116.632L94.765 112.601L94.4044 112.601Z" fill="#FFA412"/>
<path d="M93.1837 112.597L93.1738 116.627L93.5344 116.628L93.5443 112.597L93.1837 112.597Z" fill="#FFA412"/>
<path d="M91.7137 112.586L91.7031 116.617L92.0637 116.618L92.0743 112.587L91.7137 112.586Z" fill="#FFA412"/>
<path d="M89.4642 112.576L89.4551 116.607L89.8157 116.608L89.8248 112.577L89.4642 112.576Z" fill="#FFA412"/>
<path d="M87.0997 112.583L87.0898 116.614L87.4504 116.615L87.4603 112.584L87.0997 112.583Z" fill="#FFA412"/>
<path d="M83.4591 112.574L83.4492 116.605L83.8098 116.606L83.8197 112.575L83.4591 112.574Z" fill="#FFA412"/>
<path d="M80.0528 112.566L80.043 116.597L80.4036 116.598L80.4134 112.567L80.0528 112.566Z" fill="#FFA412"/>
<path d="M77.0066 112.553L76.9961 116.583L77.3567 116.584L77.3673 112.554L77.0066 112.553Z" fill="#FFA412"/>
<path d="M95.5665 112.603L95.5566 116.634L95.9172 116.635L95.9271 112.604L95.5665 112.603Z" fill="#FFA412"/>
<path d="M96.3288 112.599L96.3203 116.629L96.6809 116.63L96.6894 112.599L96.3288 112.599Z" fill="#FFA412"/>
<path d="M97.0763 112.607L97.0664 116.638L97.427 116.639L97.4369 112.608L97.0763 112.607Z" fill="#FFA412"/>
<path d="M97.6289 112.602L97.6211 116.632H97.8466C97.8932 116.632 97.938 116.628 97.9817 116.619L97.9895 112.616C97.9457 112.606 97.9001 112.602 97.8544 112.602H97.6289Z" fill="#FFA412"/>
<path d="M98.1318 112.662L98.125 116.575C98.2727 116.511 98.3981 116.395 98.4856 116.247L98.4914 112.991C98.404 112.844 98.2786 112.728 98.1318 112.662Z" fill="#FFA412"/>
<path d="M95.2356 109.442L95.2317 111.718C95.2317 111.9 95.1832 112.068 95.0996 112.208C95.0121 112.355 94.8857 112.471 94.739 112.536C94.6942 112.556 94.6466 112.571 94.598 112.581C94.5543 112.589 94.5086 112.594 94.4629 112.594L62.7171 112.518C62.3079 112.518 61.9716 112.146 61.9512 111.684C61.9512 111.669 61.9512 111.654 61.9512 111.64L61.9551 109.363C61.9551 109.349 61.9551 109.333 61.9551 109.319C61.9764 108.857 62.3147 108.487 62.7239 108.488L94.4697 108.564C94.4901 108.564 94.5105 108.565 94.53 108.567C94.5387 108.567 94.5475 108.568 94.5562 108.57C94.5659 108.57 94.5757 108.573 94.5844 108.574C94.5912 108.574 94.598 108.577 94.6048 108.578C94.6534 108.588 94.7001 108.603 94.7448 108.624C94.7516 108.626 94.7584 108.629 94.7652 108.633C94.772 108.636 94.7788 108.639 94.7846 108.643C94.7973 108.65 94.8109 108.658 94.8235 108.664C94.8303 108.669 94.8381 108.674 94.8459 108.679C94.8527 108.684 94.8585 108.687 94.8653 108.693C94.8779 108.7 94.8896 108.709 94.9013 108.719C94.9149 108.73 94.9275 108.741 94.9411 108.753C94.9508 108.762 94.9606 108.771 94.9713 108.781C94.9713 108.781 94.9722 108.781 94.9732 108.783C94.98 108.79 94.9858 108.797 94.9926 108.803C95.0121 108.824 95.0305 108.846 95.048 108.869C95.0539 108.875 95.0587 108.882 95.0636 108.889C95.0685 108.896 95.0733 108.903 95.0782 108.91C95.0879 108.925 95.0976 108.939 95.1064 108.955C95.189 109.096 95.2376 109.264 95.2376 109.445L95.2356 109.442Z" fill="#FFB93E"/>
<path d="M79.6402 112.559L62.6325 112.518C62.2671 112.518 61.9667 112.146 61.9492 111.684C61.9492 111.669 61.9492 111.654 61.9492 111.639L61.9531 109.363C61.9531 109.349 61.9531 109.333 61.9531 109.318C61.9725 108.857 62.2739 108.487 62.6393 108.487L77.5573 108.523C77.5641 108.556 77.5709 108.589 77.5777 108.622C77.8246 109.801 78.3815 111.387 79.6383 112.559H79.6402Z" fill="#FFA412"/>
<path d="M91.0091 108.549L91 112.58L91.3606 112.581L91.3698 108.55L91.0091 108.549Z" fill="#FFA412"/>
<path d="M89.7884 108.546L89.7793 112.577L90.1399 112.578L90.149 108.547L89.7884 108.546Z" fill="#FFA412"/>
<path d="M88.3321 108.555L88.3223 112.586L88.6829 112.587L88.6927 108.556L88.3321 108.555Z" fill="#FFA412"/>
<path d="M86.086 108.548L86.0762 112.579L86.4368 112.58L86.4466 108.549L86.086 108.548Z" fill="#FFA412"/>
<path d="M83.7077 108.537L83.6992 112.568L84.0598 112.569L84.0683 108.538L83.7077 108.537Z" fill="#FFA412"/>
<path d="M80.0711 108.529L80.0605 112.56L80.4211 112.561L80.4317 108.53L80.0711 108.529Z" fill="#FFA412"/>
<path d="M76.6661 108.527L76.6562 112.558L77.0169 112.559L77.0267 108.528L76.6661 108.527Z" fill="#FFA412"/>
<path d="M73.6178 108.514L73.6094 112.544L73.97 112.545L73.9784 108.514L73.6178 108.514Z" fill="#FFA412"/>
<path d="M92.1713 108.552L92.1621 112.583L92.5227 112.584L92.5319 108.553L92.1713 108.552Z" fill="#FFA412"/>
<path d="M92.9473 108.565L92.9375 112.596L93.2981 112.597L93.3079 108.566L92.9473 108.565Z" fill="#FFA412"/>
<path d="M93.6895 108.567L93.6797 112.598L94.0403 112.599L94.0501 108.568L93.6895 108.567Z" fill="#FFA412"/>
<path d="M94.2421 108.562L94.2344 112.593H94.4599C94.5065 112.593 94.5512 112.589 94.595 112.58L94.6028 108.577C94.559 108.567 94.5133 108.562 94.4676 108.562H94.2421Z" fill="#FFA412"/>
<path d="M94.7431 108.623L94.7363 112.535C94.8841 112.471 95.0095 112.355 95.0969 112.207L95.1028 108.951C95.0153 108.803 94.8899 108.688 94.7431 108.622V108.623Z" fill="#FFA412"/>
<path d="M96.8821 105.514L96.8782 107.79C96.8782 107.972 96.8296 108.14 96.746 108.28C96.6586 108.427 96.5322 108.544 96.3854 108.608C96.3407 108.628 96.2931 108.643 96.2445 108.653C96.2008 108.661 96.1551 108.666 96.1094 108.666L64.3636 108.59C64.2362 108.59 64.1157 108.553 64.0098 108.49C63.7852 108.355 63.6249 108.097 63.6006 107.795C63.5996 107.783 63.5986 107.769 63.5977 107.756C63.5977 107.742 63.5977 107.726 63.5977 107.712L63.6015 105.435C63.6015 105.421 63.6015 105.405 63.6015 105.391C63.6229 104.929 63.9612 104.56 64.3704 104.561L96.1162 104.635C96.1628 104.635 96.2076 104.64 96.2513 104.65C96.2999 104.66 96.3466 104.675 96.3922 104.696C96.539 104.761 96.6644 104.877 96.7519 105.025C96.8345 105.165 96.8831 105.334 96.8821 105.515V105.514Z" fill="#FFB93E"/>
<path d="M81.2877 108.631L64.28 108.59C64.1663 108.59 64.0584 108.553 63.9641 108.49C63.7639 108.355 63.621 108.096 63.5986 107.796C63.5976 107.783 63.5967 107.77 63.5957 107.757C63.5957 107.743 63.5957 107.727 63.5957 107.712L63.5996 105.436C63.5996 105.421 63.5996 105.406 63.5996 105.391C63.619 104.93 63.9203 104.56 64.2858 104.561L79.2047 104.596C79.4341 105.751 79.9629 107.336 81.1817 108.533C81.2157 108.566 81.2507 108.6 81.2857 108.633L81.2877 108.631Z" fill="#FFA412"/>
<path d="M97.6497 101.485L97.6458 103.761C97.6458 103.943 97.5972 104.111 97.5136 104.251C97.4261 104.398 97.2998 104.515 97.153 104.579C97.1083 104.599 97.0607 104.614 97.0121 104.624C96.9674 104.632 96.9227 104.637 96.877 104.637L65.1312 104.561C64.722 104.561 64.3856 104.189 64.3652 103.727C64.3652 103.712 64.3652 103.697 64.3652 103.683L64.3691 101.406C64.3691 101.392 64.3691 101.376 64.3691 101.362C64.3886 100.934 64.6792 100.586 65.0466 100.537C65.0767 100.533 65.1069 100.531 65.138 100.531L96.8838 100.607C96.9304 100.607 96.9751 100.612 97.0189 100.622C97.0675 100.632 97.1141 100.647 97.1598 100.668C97.3066 100.733 97.4329 100.849 97.5194 100.997C97.6021 101.137 97.6507 101.306 97.6497 101.487V101.485Z" fill="#FFB93E"/>
<path d="M82.0543 104.601L65.0466 104.561C64.6811 104.561 64.3808 104.188 64.3633 103.727C64.3633 103.711 64.3633 103.697 64.3633 103.682L64.3672 101.406C64.3672 101.391 64.3672 101.375 64.3672 101.361C64.3847 100.934 64.6442 100.585 64.9727 100.537C64.999 100.533 65.0262 100.531 65.0534 100.531L79.9723 100.566C79.9723 100.566 79.9723 100.571 79.9733 100.573C80.2104 101.758 80.7625 103.398 82.0533 104.602L82.0543 104.601Z" fill="#FFA412"/>
<path d="M95.3225 97.4542L95.3187 99.7306C95.3187 99.9124 95.2701 100.081 95.1865 100.22C95.099 100.367 94.9726 100.483 94.8259 100.548C94.7811 100.568 94.7335 100.583 94.6849 100.593C94.6703 100.596 94.6548 100.599 94.6402 100.601C94.6324 100.601 94.6237 100.602 94.6149 100.603C94.6072 100.604 94.5984 100.605 94.5897 100.605C94.5761 100.605 94.5625 100.606 94.5488 100.606L62.803 100.531C62.3938 100.53 62.0575 100.158 62.0371 99.6966C62.0371 99.682 62.0371 99.6665 62.0371 99.6519L62.041 97.3755C62.041 97.36 62.041 97.3454 62.041 97.3308C62.041 97.3182 62.042 97.3065 62.0429 97.2939C62.074 96.9226 62.3112 96.6164 62.6203 96.527C62.6281 96.5241 62.6358 96.5231 62.6436 96.5202C62.6971 96.5066 62.7525 96.4998 62.8098 96.4998L94.5556 96.5756C94.579 96.5756 94.6023 96.5775 94.6247 96.5795C94.6354 96.5814 94.6451 96.5824 94.6558 96.5833C94.6674 96.5853 94.6791 96.5882 94.6917 96.5901C94.7403 96.5999 94.787 96.6154 94.8327 96.6358C94.9794 96.701 95.1058 96.8176 95.1923 96.9653C95.2749 97.1053 95.3235 97.2744 95.3235 97.4552L95.3225 97.4542Z" fill="#FFB93E"/>
<path d="M79.7281 100.571L62.7204 100.531C62.3549 100.531 62.0546 100.158 62.0371 99.6966C62.0371 99.682 62.0371 99.6665 62.0371 99.6519L62.041 97.3755C62.041 97.36 62.041 97.3454 62.041 97.3308C62.041 97.3182 62.042 97.3065 62.0429 97.2939C62.0711 96.9138 62.2918 96.6038 62.5766 96.5211C62.5863 96.5172 62.596 96.5153 62.6057 96.5134C62.6456 96.5046 62.6854 96.4998 62.7272 96.4998L77.6461 96.5347C77.6481 96.5445 77.65 96.5532 77.652 96.5639C77.8911 97.7468 78.4431 99.369 79.7203 100.566C79.7223 100.567 79.7252 100.569 79.7271 100.571H79.7281Z" fill="#FFA412"/>
<path d="M95.263 93.4518L95.2591 95.7282C95.2591 95.9099 95.2105 96.0781 95.1269 96.2181C95.0394 96.3658 94.9131 96.4805 94.7653 96.5456C94.7303 96.5612 94.6934 96.5738 94.6555 96.5835C94.6448 96.5864 94.6351 96.5884 94.6254 96.5903C94.5816 96.5991 94.5359 96.6039 94.4903 96.6039L62.7444 96.5291C62.7114 96.5291 62.6774 96.5262 62.6453 96.5213C62.6327 96.5203 62.62 96.5174 62.6074 96.5145C62.2623 96.4426 61.996 96.1043 61.9785 95.6951C61.9785 95.6796 61.9785 95.665 61.9785 95.6504L61.9824 93.3741C61.9824 93.3585 61.9824 93.3439 61.9824 93.3293C62.0038 92.8677 62.342 92.4983 62.7512 92.4993L94.4971 92.5751C94.5175 92.5751 94.5379 92.5761 94.5573 92.578C94.5661 92.578 94.5748 92.5799 94.5836 92.5809C94.5933 92.5819 94.603 92.5838 94.6118 92.5858C94.6186 92.5858 94.6254 92.5887 94.6322 92.5897C94.6808 92.5994 94.7274 92.6149 94.7731 92.6353C94.7799 92.6383 94.7857 92.6412 94.7935 92.6451C94.8003 92.648 94.8061 92.6509 94.8129 92.6548C94.8256 92.6616 94.8392 92.6694 94.8518 92.6762C94.8654 92.6849 94.88 92.6937 94.8936 92.7034C94.9063 92.7121 94.9179 92.7209 94.9296 92.7296C94.9432 92.7403 94.9558 92.752 94.9685 92.7637C94.9792 92.7724 94.9889 92.7811 94.9986 92.7918C94.9986 92.7918 94.9996 92.7918 95.0005 92.7938C95.0073 92.7996 95.0141 92.8074 95.02 92.8142C95.0394 92.8346 95.0579 92.857 95.0754 92.8793C95.0812 92.8861 95.0861 92.8929 95.0909 92.8997C95.0958 92.9075 95.1007 92.9133 95.1055 92.9211C95.1152 92.9357 95.125 92.9503 95.1337 92.9658C95.2163 93.1058 95.2649 93.2749 95.2639 93.4557L95.263 93.4518Z" fill="#FFB93E"/>
<path d="M79.6695 96.5689L62.6618 96.5281C62.6482 96.5281 62.6346 96.5281 62.621 96.5262C62.6064 96.5252 62.5918 96.5233 62.5773 96.5203C62.2507 96.4678 61.9941 96.1199 61.9785 95.6932C61.9785 95.6776 61.9785 95.663 61.9785 95.6485L61.9824 93.3721C61.9824 93.3565 61.9824 93.342 61.9824 93.3274C62.0018 92.8657 62.3032 92.4963 62.6686 92.4963L77.5866 92.5313C77.5934 92.5644 77.6002 92.5974 77.607 92.6305C77.8519 93.7988 78.4011 95.3685 79.6374 96.5388C79.6472 96.5485 79.6579 96.5573 79.6676 96.567L79.6695 96.5689Z" fill="#FFA412"/>
<path d="M96.9114 89.5239L96.9075 91.8003C96.9075 91.982 96.8589 92.1502 96.7753 92.2901C96.6879 92.4369 96.5615 92.5526 96.4147 92.6177C96.37 92.6381 96.3224 92.6527 96.2738 92.6624C96.2301 92.6712 96.1844 92.676 96.1387 92.676L64.3929 92.6002C64.2655 92.6002 64.145 92.5633 64.0391 92.5001C63.8145 92.365 63.6551 92.1064 63.6299 91.8051C63.6289 91.7925 63.6279 91.7789 63.627 91.7662C63.627 91.7517 63.627 91.7361 63.627 91.7215L63.6308 89.4452C63.6308 89.4306 63.6308 89.415 63.6308 89.4004C63.6522 88.9388 63.9905 88.5694 64.3997 88.5704L96.1455 88.6452C96.1921 88.6452 96.2369 88.6501 96.2806 88.6598C96.3292 88.6695 96.3759 88.6851 96.4215 88.7055C96.5683 88.7706 96.6947 88.8872 96.7812 89.035C96.8638 89.1749 96.9124 89.3441 96.9124 89.5249L96.9114 89.5239Z" fill="#FFB93E"/>
<path d="M81.317 92.6411L64.3093 92.6012C64.1956 92.6012 64.0886 92.5643 63.9934 92.5011C63.7932 92.366 63.6503 92.1084 63.6279 91.8071C63.6269 91.7945 63.626 91.7809 63.625 91.7683C63.625 91.7537 63.625 91.7381 63.625 91.7235L63.6289 89.4472C63.6289 89.4326 63.6289 89.417 63.6289 89.4025C63.6483 88.9408 63.9506 88.5714 64.3151 88.5714L79.234 88.6064C79.4634 89.7611 79.9922 91.3474 81.211 92.5429C81.245 92.576 81.28 92.61 81.315 92.6421L81.317 92.6411Z" fill="#FFA412"/>
<path d="M99.513 85.4989L99.5091 87.7753C99.5091 87.9571 99.4605 88.1252 99.3769 88.2652C99.2894 88.4119 99.1631 88.5276 99.0163 88.5927C98.9716 88.6131 98.924 88.6277 98.8754 88.6374C98.8316 88.6462 98.7859 88.6511 98.7403 88.6511L66.9944 88.5752C66.5852 88.5752 66.2489 88.203 66.2285 87.7413C66.2285 87.7267 66.2285 87.7111 66.2285 87.6966L66.2324 85.4202C66.2324 85.4056 66.2324 85.3901 66.2324 85.3755C66.2518 84.9488 66.5425 84.5998 66.9099 84.5512C66.94 84.5474 66.9701 84.5454 67.0003 84.5454L98.7461 84.6212C98.7927 84.6212 98.8375 84.6261 98.8812 84.6358C98.9298 84.6455 98.9764 84.6611 99.0212 84.6815C99.1679 84.7466 99.2943 84.8632 99.3808 85.011C99.4634 85.151 99.512 85.3201 99.511 85.5009L99.513 85.4989Z" fill="#FFB93E"/>
<path d="M83.9176 88.6161L66.9099 88.5752C66.5444 88.5752 66.2441 88.203 66.2266 87.7413C66.2266 87.7267 66.2266 87.7111 66.2266 87.6966L66.2305 85.4202C66.2305 85.4056 66.2305 85.3901 66.2305 85.3755C66.2479 84.9488 66.5075 84.5998 66.836 84.5512C66.8622 84.5474 66.8895 84.5454 66.9167 84.5454L81.8356 84.5804C81.8356 84.5804 81.8356 84.5843 81.8365 84.5872C82.0737 85.774 82.6258 87.4128 83.9166 88.617L83.9176 88.6161Z" fill="#FFA412"/>
<path d="M95.3528 81.4644L95.3489 83.7408C95.3489 83.9225 95.3003 84.0907 95.2167 84.2306C95.1293 84.3774 95.0029 84.4931 94.8561 84.5582C94.8114 84.5786 94.7638 84.5932 94.7152 84.6029C94.7006 84.6058 94.6851 84.6087 94.6705 84.6107C94.6588 84.6126 94.6462 84.6136 94.6345 84.6146C94.6287 84.6146 94.6229 84.6146 94.617 84.6165C94.6044 84.6165 94.5927 84.6165 94.5801 84.6165L62.8343 84.5407C62.4251 84.5407 62.0888 84.1684 62.0684 83.7067C62.0684 83.6922 62.0684 83.6766 62.0684 83.662L62.0722 81.3856C62.0722 81.3711 62.0722 81.3555 62.0722 81.3409C62.0936 80.8792 62.4319 80.5099 62.8411 80.5109L94.5869 80.5867C94.6005 80.5867 94.6141 80.5867 94.6277 80.5886C94.6598 80.5906 94.6919 80.5954 94.722 80.6013C94.7706 80.611 94.8173 80.6265 94.8629 80.6469C94.8863 80.6576 94.9086 80.6683 94.929 80.681C94.9426 80.6887 94.9563 80.6965 94.9689 80.7053C94.9699 80.7053 94.9718 80.7062 94.9728 80.7082C94.9854 80.7169 94.999 80.7266 95.0117 80.7364C95.0146 80.7373 95.0165 80.7393 95.0185 80.7412C95.0301 80.75 95.0418 80.7597 95.0525 80.7704C95.0797 80.7937 95.105 80.819 95.1293 80.8472C95.137 80.8549 95.1438 80.8637 95.1506 80.8724C95.1516 80.8734 95.1536 80.8754 95.1545 80.8773C95.1594 80.8822 95.1633 80.888 95.1681 80.8938C95.1681 80.8938 95.1701 80.8958 95.1711 80.8977C95.1788 80.9074 95.1866 80.9181 95.1934 80.9298C95.2041 80.9453 95.2138 80.9609 95.2235 80.9774C95.3062 81.1174 95.3548 81.2865 95.3538 81.4673L95.3528 81.4644Z" fill="#FFB93E"/>
<path d="M79.7574 84.5814L62.7497 84.5406C62.3842 84.5406 62.0839 84.1683 62.0664 83.7066C62.0664 83.692 62.0664 83.6765 62.0664 83.6619L62.0703 81.3855C62.0703 81.3709 62.0703 81.3554 62.0703 81.3408C62.0897 80.8791 62.392 80.5098 62.7565 80.5098L77.6754 80.5457C77.6813 80.5759 77.6881 80.607 77.6949 80.639C77.9398 81.8161 78.4948 83.4014 79.7496 84.5756C79.7516 84.5775 79.7545 84.5804 79.7564 84.5824L79.7574 84.5814Z" fill="#FFA412"/>
<path d="M97.6927 77.5316L97.6888 79.808C97.6888 79.9898 97.6402 80.1579 97.5566 80.2979C97.4691 80.4447 97.3428 80.5603 97.196 80.6254C97.1513 80.6459 97.1036 80.6604 97.055 80.6702C97.0103 80.6789 96.9656 80.6838 96.9199 80.6838L65.1741 80.6079C65.0507 80.6079 64.934 80.5739 64.831 80.5137C64.5997 80.3805 64.4344 80.1171 64.4101 79.809C64.4101 79.7973 64.4082 79.7857 64.4082 79.773C64.4082 79.7584 64.4082 79.7429 64.4082 79.7283L64.4121 77.4519C64.4121 77.4364 64.4121 77.4218 64.4121 77.4072C64.4315 76.9795 64.7222 76.6316 65.0896 76.583C65.1197 76.5791 65.1498 76.5771 65.1809 76.5771L96.9267 76.653C96.9734 76.653 97.0181 76.6578 97.0618 76.6675C97.1104 76.6773 97.1571 76.6928 97.2028 76.7132C97.3496 76.7783 97.4749 76.895 97.5624 77.0427C97.645 77.1827 97.6936 77.3518 97.6927 77.5326V77.5316Z" fill="#FFB93E"/>
<path d="M82.0992 80.6488L65.0915 80.608C64.9817 80.608 64.8777 80.5739 64.7853 80.5137C64.5793 80.3805 64.4315 80.1171 64.4101 79.81C64.4101 79.7983 64.4082 79.7866 64.4082 79.774C64.4082 79.7594 64.4082 79.7439 64.4082 79.7293L64.4121 77.4529C64.4121 77.4374 64.4121 77.4228 64.4121 77.4082C64.4296 76.9815 64.6891 76.6326 65.0176 76.584C65.0439 76.5801 65.0711 76.5781 65.0983 76.5781L80.0172 76.6131C80.0172 76.6131 80.0172 76.618 80.0182 76.6199C80.2486 77.7766 80.7793 79.3619 82.001 80.5564C82.0331 80.5885 82.0652 80.6186 82.0982 80.6497L82.0992 80.6488Z" fill="#FFA412"/>
<path d="M95.3655 73.5009L95.3616 75.7773C95.3616 75.959 95.313 76.1272 95.2294 76.2671C95.142 76.4149 95.0156 76.5296 94.8688 76.5947C94.8241 76.6151 94.7765 76.6297 94.7279 76.6394C94.7133 76.6423 94.6978 76.6452 94.6832 76.6472C94.6754 76.6472 94.6667 76.6491 94.6579 76.6501C94.6501 76.6501 94.6414 76.6511 94.6326 76.652C94.619 76.652 94.6054 76.653 94.5918 76.653L62.846 76.5772C62.4368 76.5772 62.1005 76.2049 62.0801 75.7432C62.0801 75.7277 62.0801 75.7131 62.0801 75.6985L62.084 73.4221C62.084 73.4076 62.084 73.392 62.084 73.3774C62.1054 72.9157 62.4436 72.5464 62.8528 72.5474L94.5986 72.6232C94.6453 72.6232 94.69 72.628 94.7337 72.6378C94.7823 72.6475 94.829 72.663 94.8747 72.6834C95.0214 72.7486 95.1478 72.8652 95.2343 73.0129C95.3169 73.1529 95.3655 73.322 95.3655 73.5028V73.5009Z" fill="#FFB93E"/>
<path d="M79.7711 76.618L62.7634 76.5782C62.3979 76.5782 62.0976 76.2059 62.0801 75.7442C62.0801 75.7287 62.0801 75.7141 62.0801 75.6995L62.084 73.4231C62.084 73.4085 62.084 73.393 62.084 73.3784C62.1034 72.9167 62.4047 72.5474 62.7702 72.5483L77.6891 72.5833C77.9243 73.7691 78.4754 75.4069 79.7633 76.6132C79.7652 76.6151 79.7682 76.617 79.7701 76.619L79.7711 76.618Z" fill="#FFA412"/>
<path d="M92.6661 104.632L92.6562 108.663L93.0169 108.664L93.0267 104.633L92.6661 104.632Z" fill="#FFA412"/>
<path d="M91.4401 104.623L91.4316 108.654L91.7922 108.655L91.8007 104.624L91.4401 104.623Z" fill="#FFA412"/>
<path d="M89.9733 104.618L89.9648 108.649L90.3254 108.65L90.3339 104.619L89.9733 104.618Z" fill="#FFA412"/>
<path d="M87.7345 104.62L87.7246 108.651L88.0852 108.652L88.0951 104.621L87.7345 104.62Z" fill="#FFA412"/>
<path d="M85.3634 104.616L85.3535 108.647L85.7141 108.647L85.724 104.617L85.3634 104.616Z" fill="#FFA412"/>
<path d="M81.7208 104.607L81.7109 108.638L82.0715 108.639L82.0814 104.608L81.7208 104.607Z" fill="#FFA412"/>
<path d="M78.3112 104.593L78.3027 108.624L78.6633 108.625L78.6718 104.594L78.3112 104.593Z" fill="#FFA412"/>
<path d="M75.2696 104.591L75.2598 108.622L75.6204 108.623L75.6302 104.592L75.2696 104.591Z" fill="#FFA412"/>
<path d="M93.8302 104.635L93.8203 108.666L94.1809 108.667L94.1908 104.636L93.8302 104.635Z" fill="#FFA412"/>
<path d="M94.5905 104.631L94.582 108.662L94.9426 108.663L94.9511 104.632L94.5905 104.631Z" fill="#FFA412"/>
<path d="M95.3399 104.639L95.3301 108.67L95.6907 108.671L95.7005 104.64L95.3399 104.639Z" fill="#FFA412"/>
<path d="M95.8916 104.634L95.8848 108.665H96.1103C96.1569 108.665 96.2016 108.661 96.2454 108.651L96.2531 104.649C96.2094 104.639 96.1637 104.634 96.118 104.634H95.8925H95.8916Z" fill="#FFA412"/>
<path d="M96.3935 104.694L96.3867 108.608C96.5345 108.542 96.6598 108.428 96.7473 108.28L96.7532 105.024C96.6657 104.876 96.5403 104.76 96.3935 104.694Z" fill="#FFA412"/>
<path d="M82.4884 100.577L82.4785 104.608L82.8391 104.609L82.849 100.578L82.4884 100.577Z" fill="#FFA412"/>
<path d="M79.0736 100.559L79.0645 104.589L79.4251 104.59L79.4342 100.559L79.0736 100.559Z" fill="#FFA412"/>
<path d="M76.0391 100.561L76.0293 104.592L76.3899 104.593L76.3998 100.562L76.0391 100.561Z" fill="#FFA412"/>
<path d="M94.9441 104.632L94.9518 100.602H94.635C94.6515 100.599 94.669 100.597 94.6855 100.593L94.6933 96.5903C94.6709 96.5854 94.6486 96.5825 94.6262 96.5796L94.633 92.6732H94.774L94.7672 96.5456C94.9149 96.4814 95.0403 96.3657 95.1278 96.218L95.1336 92.9619C95.0617 92.8404 94.9625 92.7412 94.8478 92.6732H94.9742L94.982 88.6424H94.6214L94.6146 92.5838C94.5767 92.577 94.5387 92.5731 94.4989 92.5731H94.2734L94.2656 96.6039H94.3327L94.3249 100.606H94.5504C94.564 100.606 94.5776 100.606 94.5912 100.606L94.5835 104.632H94.9441Z" fill="#FFA412"/>
<path d="M95.3653 100.607L95.3555 104.638L95.7161 104.639L95.7259 100.608L95.3653 100.607Z" fill="#FFA412"/>
<path d="M96.1023 100.604L96.0918 104.635L96.4524 104.636L96.463 100.605L96.1023 100.604Z" fill="#FFA412"/>
<path d="M96.6601 100.604L96.6523 104.635H96.8778C96.9245 104.635 96.9692 104.631 97.013 104.622L97.0198 100.619C96.976 100.609 96.9303 100.604 96.8846 100.604H96.6591H96.6601Z" fill="#FFA412"/>
<path d="M97.1591 100.665L97.1523 104.578C97.3001 104.513 97.4255 104.398 97.5129 104.25L97.5188 100.994C97.4313 100.846 97.3059 100.731 97.1591 100.665Z" fill="#FFA412"/>
<path d="M91.4566 100.598L91.4643 96.5676H91.3973L91.4051 92.565L91.0435 92.564L91.0367 96.5958H91.1037L91.096 100.592L90.7441 100.591L90.7363 104.621L91.0979 104.622L91.1047 100.597L91.4566 100.598Z" fill="#FFA412"/>
<path d="M88.7773 96.561H88.7102L88.717 92.5594L88.3564 92.5584L88.3496 96.5892H88.4157L88.4089 100.592H88.4973L88.4905 104.617L88.8511 104.618L88.8589 100.587L88.7695 100.586L88.7773 96.561Z" fill="#FFA412"/>
<path d="M94.8349 96.6348L94.8281 100.548C94.9759 100.484 95.1013 100.367 95.1887 100.22L95.1946 96.9643C95.1071 96.8166 94.9817 96.7009 94.8349 96.6348Z" fill="#FFA412"/>
<path d="M86.4739 92.5535L86.1123 92.5526L86.1055 96.5833L86.1725 96.5843L86.1648 100.58H86.1249L86.1171 104.611L86.4787 104.612L86.4855 100.587H86.5254L86.5331 96.5561H86.4661L86.4739 92.5535Z" fill="#FFA412"/>
<path d="M84.0979 92.5477L83.7373 92.5467L83.7305 96.5785H83.7966L83.7898 100.581H84.1504L84.1581 96.5503H84.0911L84.0979 92.5477Z" fill="#FFA412"/>
<path d="M80.4602 92.5389H80.0996L80.0918 96.5697H80.1589L80.1521 100.572L80.5127 100.573L80.5195 96.5415H80.4534L80.4602 92.5389Z" fill="#FFA412"/>
<path d="M77.051 92.5311L76.6904 92.5301L76.6836 96.5609L76.7497 96.5619L76.7429 100.564L77.1035 100.564L77.1113 96.5337H77.0442L77.051 92.5311Z" fill="#FFA412"/>
<path d="M74.009 92.5244L73.6484 92.5234L73.6406 96.5542H73.7077L73.6999 100.557L74.0615 100.558L74.0683 96.527L74.0012 96.5261L74.009 92.5244Z" fill="#FFA412"/>
<path d="M92.5656 92.5682L92.205 92.5672L92.1973 96.598H92.2643L92.2566 100.595H92.207L92.1992 104.626L92.5598 104.627L92.5676 100.602H92.6172L92.6249 96.5708H92.5579L92.5656 92.5682Z" fill="#FFA412"/>
<path d="M93.3348 92.5701L93.0442 92.5692L93.052 88.6375L92.6904 88.6365L92.6836 92.6683H92.9742L92.9664 96.6H93.0335L93.0257 100.603L93.3863 100.604L93.3941 96.5727H93.327L93.3348 92.5701Z" fill="#FFA412"/>
<path d="M91.4747 88.6382L91.4648 92.669L91.8254 92.6699L91.8353 88.6391L91.4747 88.6382Z" fill="#FFA412"/>
<path d="M89.9962 92.5621L89.8203 92.5611L89.8125 96.5929H89.8796L89.8718 100.595L90.2334 100.596L90.2402 96.5647H90.1741L90.1809 92.6612L90.3568 92.6622L90.3636 88.6314L90.003 88.6304L89.9962 92.5621Z" fill="#FFA412"/>
<path d="M87.7606 88.6231L87.75 92.6539L88.1106 92.6548L88.1212 88.624L87.7606 88.6231Z" fill="#FFA412"/>
<path d="M85.3907 88.6243L85.3809 92.6551L85.7415 92.656L85.7513 88.6252L85.3907 88.6243Z" fill="#FFA412"/>
<path d="M81.7435 88.6062L81.7344 92.637L82.095 92.6378L82.1041 88.6071L81.7435 88.6062Z" fill="#FFA412"/>
<path d="M78.3385 88.6016L78.3301 92.6324L78.6907 92.6331L78.6991 88.6024L78.3385 88.6016Z" fill="#FFA412"/>
<path d="M75.2989 88.5999L75.2891 92.6307L75.6497 92.6316L75.6595 88.6008L75.2989 88.5999Z" fill="#FFA412"/>
<path d="M93.8457 92.5709H93.7154L93.7076 96.6017H93.7747L93.7669 100.599L93.4287 100.598L93.4219 104.628L93.7825 104.629L93.7893 100.604L94.1285 100.605L94.1353 96.5736H94.0682L94.076 92.6711H94.2063L94.214 88.6403L93.8525 88.6393L93.8457 92.5709Z" fill="#FFA412"/>
<path d="M95.3673 88.6477L95.3574 92.6785L95.718 92.6794L95.7279 88.6486L95.3673 88.6477Z" fill="#FFA412"/>
<path d="M96.2727 92.6623L96.2805 88.6597C96.2367 88.6499 96.1911 88.6451 96.1454 88.6451H95.9199L95.9121 92.6759H96.1376C96.1843 92.6759 96.229 92.672 96.2727 92.6623Z" fill="#FFA412"/>
<path d="M96.7747 92.29L96.7805 89.0339C96.693 88.8862 96.5676 88.7705 96.4209 88.7044L96.4141 92.6176C96.5618 92.5525 96.6872 92.4378 96.7747 92.29Z" fill="#FFA412"/>
<path d="M95.2989 84.616L95.2891 88.6468L95.6497 88.6477L95.6595 84.6169L95.2989 84.616Z" fill="#FFA412"/>
<path d="M90.3673 84.6043L90.3574 88.6351L90.718 88.636L90.7279 84.6052L90.3673 84.6043Z" fill="#FFA412"/>
<path d="M87.9923 84.5984L87.9824 88.6292L88.343 88.6301L88.3529 84.5993L87.9923 84.5984Z" fill="#FFA412"/>
<path d="M84.3536 84.5896L84.3438 88.6204L84.7044 88.6213L84.7142 84.5905L84.3536 84.5896Z" fill="#FFA412"/>
<path d="M80.9454 84.5818L80.9355 88.6126L81.2962 88.6135L81.306 84.5827L80.9454 84.5818Z" fill="#FFA412"/>
<path d="M77.8971 84.5702L77.8887 88.601L78.2493 88.6017L78.2577 84.5709L77.8971 84.5702Z" fill="#FFA412"/>
<path d="M96.4591 84.6188L96.4492 88.6496L96.8098 88.6505L96.8197 84.6197L96.4591 84.6188Z" fill="#FFA412"/>
<path d="M97.2266 84.6206L97.2168 88.6514L97.5774 88.6523L97.5873 84.6215L97.2266 84.6206Z" fill="#FFA412"/>
<path d="M97.9603 84.6141L97.9512 88.6448L98.3118 88.6457L98.3209 84.6149L97.9603 84.6141Z" fill="#FFA412"/>
<path d="M98.5224 84.6192L98.5156 88.65H98.7411C98.7878 88.65 98.8325 88.6461 98.8762 88.6364L98.884 84.6338C98.8403 84.625 98.7946 84.6192 98.7489 84.6192H98.5234H98.5224Z" fill="#FFA412"/>
<path d="M99.0224 84.6795L99.0156 88.5927C99.1634 88.5276 99.2887 88.4119 99.3762 88.2651L99.3821 85.009C99.2946 84.8613 99.1692 84.7456 99.0224 84.6795Z" fill="#FFA412"/>
<path d="M91.1224 84.6076L91.483 84.6085L91.4908 80.5777L91.1389 80.5768L91.1457 76.6451L91.4976 76.6461L91.5054 72.6143H91.1438L91.137 76.6383L90.7851 76.6373L90.7773 80.6691L91.1292 80.6701L91.1224 84.6076Z" fill="#FFA412"/>
<path d="M89.9109 80.5735L89.9004 84.6043L90.261 84.6053L90.2715 80.5745L89.9109 80.5735Z" fill="#FFA412"/>
<path d="M83.8321 80.5635L83.8223 84.5943L84.1829 84.5952L84.1927 80.5644L83.8321 80.5635Z" fill="#FFA412"/>
<path d="M80.1849 80.5479L80.1758 84.5787L80.5364 84.5795L80.5455 80.5487L80.1849 80.5479Z" fill="#FFA412"/>
<path d="M76.7833 80.5469L76.7734 84.5777L77.134 84.5786L77.1439 80.5478L76.7833 80.5469Z" fill="#FFA412"/>
<path d="M73.7338 80.5321L73.7246 84.5629L74.0852 84.5637L74.0944 80.533L73.7338 80.5321Z" fill="#FFA412"/>
<path d="M92.2869 84.6106L92.6067 84.6115L92.5989 88.6365L92.9595 88.6375L92.9673 84.6057H92.6475L92.6553 80.5807H92.6047L92.6125 76.6481L92.6621 76.6491L92.6699 72.6173L92.3083 72.6163L92.3015 76.6413H92.2519L92.2441 80.6721L92.2937 80.6731L92.2869 84.6106Z" fill="#FFA412"/>
<path d="M93.0663 80.5862L93.0586 84.617L93.4192 84.6177L93.4269 80.5869L93.0663 80.5862Z" fill="#FFA412"/>
<path d="M94.9248 80.6788H94.9879L94.9957 76.648H94.6788C94.6954 76.6451 94.7129 76.6431 94.7294 76.6393L94.7372 72.6366C94.6934 72.6269 94.6477 72.6221 94.6021 72.6221H94.3766L94.3688 76.6529H94.5943C94.6079 76.6529 94.6215 76.6529 94.6351 76.6509L94.6283 80.5874C94.6147 80.5874 94.6011 80.5855 94.5875 80.5855H94.362L94.3542 84.6095H94.1569L94.1647 80.5845H93.8264L93.8332 76.6519H94.1715L94.1792 72.6221H93.8186L93.8109 76.6461H93.4726L93.4648 80.6759H93.8031L93.7963 84.6143H94.0704L94.0626 88.6403H94.4232L94.431 84.6163H94.5787C94.6254 84.6163 94.6701 84.6124 94.7138 84.6027L94.7206 80.6788H94.8616L94.8548 84.558C95.0025 84.4938 95.1279 84.3782 95.2154 84.2304L95.2212 80.9743C95.1464 80.8479 95.0433 80.7468 94.9238 80.6788H94.9248Z" fill="#FFA412"/>
<path d="M82.5299 76.6182L82.5215 80.649L82.8821 80.6497L82.8905 76.619L82.5299 76.6182Z" fill="#FFA412"/>
<path d="M79.1251 76.6143L79.1152 80.6451L79.4758 80.646L79.4857 76.6152L79.1251 76.6143Z" fill="#FFA412"/>
<path d="M76.0821 76.6067L76.0723 80.6375L76.4329 80.6384L76.4427 76.6076L76.0821 76.6067Z" fill="#FFA412"/>
<path d="M95.3998 76.6453L95.3906 80.6761L95.7512 80.6769L95.7604 76.6461L95.3998 76.6453Z" fill="#FFA412"/>
<path d="M96.1505 76.6534L96.1406 80.6841L96.5012 80.685L96.5111 76.6542L96.1505 76.6534Z" fill="#FFA412"/>
<path d="M96.7011 76.6519L96.6934 80.6827H96.9189C96.9655 80.6827 97.0102 80.6788 97.054 80.6691L97.0608 76.6665C97.017 76.6568 96.9713 76.6519 96.9257 76.6519H96.7002H96.7011Z" fill="#FFA412"/>
<path d="M97.5579 80.2979L97.5637 77.0417C97.4762 76.894 97.3508 76.7783 97.2041 76.7122L97.1973 80.6254C97.345 80.5603 97.4704 80.4456 97.5579 80.2979Z" fill="#FFA412"/>
<path d="M89.9298 72.6148L89.9199 76.6456L90.2805 76.6464L90.2904 72.6157L89.9298 72.6148Z" fill="#FFA412"/>
<path d="M88.8195 72.6085L88.4589 72.6075L88.4521 76.6383L88.5405 76.6393L88.5337 80.5709H88.4443L88.4375 84.6017L88.7981 84.6027L88.8049 80.6642H88.8943L88.9011 76.6334H88.8127L88.8195 72.6085Z" fill="#FFA412"/>
<path d="M86.2078 76.6267H86.1679L86.1602 80.6585H86.2L86.1932 84.596L86.5538 84.5969L86.5616 80.5661H86.5217L86.5285 76.6345H86.5684L86.5762 72.6027L86.2156 72.6017L86.2078 76.6267Z" fill="#FFA412"/>
<path d="M83.8458 72.6001L83.8359 76.6309L84.1965 76.6318L84.2064 72.601L83.8458 72.6001Z" fill="#FFA412"/>
<path d="M80.2052 72.5913L80.1953 76.6221L80.5559 76.623L80.5658 72.5922L80.2052 72.5913Z" fill="#FFA412"/>
<path d="M76.7977 72.5804L76.7871 76.6111L77.1477 76.6121L77.1583 72.5813L76.7977 72.5804Z" fill="#FFA412"/>
<path d="M73.7506 72.5721L73.7422 76.6028L74.1028 76.6036L74.1112 72.5728L73.7506 72.5721Z" fill="#FFA412"/>
<path d="M93.077 72.6175L93.0664 76.6483L93.427 76.6492L93.4376 72.6184L93.077 72.6175Z" fill="#FFA412"/>
<path d="M94.8779 72.6815L94.8711 76.5946C95.0188 76.5295 95.1442 76.4148 95.2317 76.2671L95.2375 73.011C95.1501 72.8632 95.0247 72.7476 94.8779 72.6815Z" fill="#FFA412"/>
<path d="M105.453 83.4295L107.694 83.827C107.873 83.8591 108.031 83.9359 108.153 84.0418C108.283 84.1536 108.375 84.2974 108.414 84.4539C108.425 84.5016 108.432 84.5511 108.433 84.5997C108.434 84.6444 108.431 84.6901 108.423 84.7358L102.855 115.989C102.783 116.392 102.359 116.659 101.901 116.598C101.887 116.596 101.871 116.594 101.857 116.591L99.6152 116.193C99.6006 116.19 99.586 116.187 99.5705 116.184C99.1195 116.083 98.8143 115.687 98.8852 115.283L104.454 84.0302C104.458 84.0097 104.461 83.9903 104.467 83.9709C104.469 83.9621 104.472 83.9543 104.475 83.9456C104.478 83.9368 104.481 83.9271 104.485 83.9184C104.487 83.9116 104.49 83.9057 104.493 83.8989C104.511 83.8533 104.533 83.8095 104.562 83.7687C104.565 83.7629 104.569 83.757 104.574 83.7502C104.578 83.7444 104.583 83.7386 104.587 83.7327C104.596 83.7211 104.605 83.7094 104.615 83.6987C104.621 83.6919 104.627 83.6861 104.633 83.6793C104.638 83.6734 104.643 83.6676 104.649 83.6627C104.66 83.6521 104.67 83.6423 104.681 83.6316C104.694 83.62 104.707 83.6093 104.721 83.5986C104.732 83.5898 104.742 83.5821 104.753 83.5743C104.753 83.5743 104.754 83.5733 104.755 83.5733C104.763 83.5685 104.771 83.5626 104.778 83.5578C104.802 83.5422 104.827 83.5276 104.852 83.514C104.86 83.5101 104.868 83.5063 104.875 83.5024C104.882 83.4985 104.89 83.4956 104.898 83.4917C104.913 83.4849 104.93 83.4781 104.947 83.4713C105.099 83.4139 105.273 83.3955 105.452 83.4275L105.453 83.4295Z" fill="#FFB93E"/>
<path d="M105.824 99.3272L102.841 116.071C102.777 116.43 102.36 116.661 101.901 116.599C101.887 116.597 101.871 116.595 101.857 116.592L99.6152 116.194C99.6006 116.191 99.586 116.188 99.5705 116.185C99.1195 116.086 98.8075 115.725 98.8716 115.365L101.488 100.678C101.522 100.678 101.555 100.676 101.59 100.675C102.794 100.635 104.452 100.362 105.824 99.3262V99.3272Z" fill="#FFA412"/>
<path d="M103.913 87.0759L103.85 87.4309L107.818 88.1392L107.881 87.7842L103.913 87.0759Z" fill="#FFA412"/>
<path d="M103.698 88.2783L103.635 88.6333L107.603 89.3395L107.666 88.9844L103.698 88.2783Z" fill="#FFA412"/>
<path d="M103.436 89.7165L103.373 90.0715L107.341 90.7784L107.405 90.4234L103.436 89.7165Z" fill="#FFA412"/>
<path d="M103.044 91.9262L102.98 92.2812L106.949 92.9881L107.012 92.6331L103.044 91.9262Z" fill="#FFA412"/>
<path d="M102.63 94.2674L102.566 94.6224L106.535 95.3286L106.598 94.9736L102.63 94.2674Z" fill="#FFA412"/>
<path d="M101.999 97.8582L101.936 98.2132L105.904 98.9208L105.967 98.5657L101.999 97.8582Z" fill="#FFA412"/>
<path d="M101.393 101.205L101.33 101.56L105.299 102.266L105.362 101.911L101.393 101.205Z" fill="#FFA412"/>
<path d="M100.864 104.204L100.801 104.559L104.769 105.267L104.832 104.912L100.864 104.204Z" fill="#FFA412"/>
<path d="M104.112 85.9277L104.049 86.2827L108.017 86.9896L108.08 86.6346L104.112 85.9277Z" fill="#FFA412"/>
<path d="M104.259 85.1816L104.195 85.5366L108.164 86.2442L108.227 85.8892L104.259 85.1816Z" fill="#FFA412"/>
<path d="M104.378 84.4416L104.314 84.7966L108.283 85.5035L108.346 85.1485L104.378 84.4416Z" fill="#FFA412"/>
<path d="M104.415 84.2537L108.384 84.9584L108.423 84.7368C108.431 84.6911 108.435 84.6464 108.433 84.6007L104.492 83.9009C104.475 83.9427 104.463 83.9864 104.454 84.0321L104.414 84.2537H104.415Z" fill="#FFA412"/>
<path d="M104.564 83.7706L108.417 84.4548C108.379 84.2984 108.287 84.1545 108.157 84.0427L104.951 83.4731C104.791 83.5334 104.655 83.6364 104.564 83.7706Z" fill="#FFA412"/>
<path d="M99.456 54.8564C104.913 49.3996 104.913 40.5522 99.456 35.0954C93.9992 29.6385 85.1518 29.6385 79.695 35.0954C74.2381 40.5522 74.2381 49.3996 79.695 54.8564C85.1518 60.3133 93.9992 60.3133 99.456 54.8564Z" fill="#E2810E"/>
<path d="M102.027 49.1165C103.988 41.6526 99.5268 34.0123 92.0629 32.0514C84.599 30.0905 76.9587 34.5516 74.9978 42.0155C73.0369 49.4794 77.4979 57.1197 84.9618 59.0806C92.4257 61.0415 100.066 56.5804 102.027 49.1165Z" fill="#FFB93E"/>
<path d="M88.6082 58.4382C84.1157 58.4382 79.7554 56.0598 77.4373 51.855C75.7956 48.8768 75.4117 45.438 76.3574 42.1712C77.3022 38.9043 79.4629 36.2013 82.441 34.5596C85.4191 32.9179 88.858 32.534 92.1248 33.4787C95.3917 34.4235 98.0947 36.5842 99.7364 39.5624C103.126 45.7101 100.881 53.4685 94.7336 56.8578C92.7906 57.9289 90.6853 58.4372 88.6092 58.4372L88.6082 58.4382ZM88.5693 33.7324C86.5748 33.7324 84.6017 34.2359 82.8074 35.2254C80.0072 36.7689 77.9757 39.3106 77.0864 42.383C76.198 45.4545 76.5586 48.6892 78.1021 51.4895C80.2813 55.4426 84.383 57.6801 88.6063 57.6801C90.559 57.6801 92.5379 57.2018 94.3653 56.1949C100.147 53.0078 102.257 45.7121 99.0696 39.9317C97.5261 37.1314 94.9844 35.1 91.912 34.2106C90.8088 33.8918 89.6852 33.7334 88.5684 33.7334L88.5693 33.7324Z" fill="#FFA412"/>
<path d="M91.9047 48.0992C91.8007 47.8426 91.6734 47.6327 91.5218 47.4665C91.3701 47.3003 91.1806 47.172 90.9522 47.0796C90.7238 46.9882 90.4526 46.927 90.1386 46.8988C89.8247 46.8697 89.4553 46.8677 89.0286 46.891C88.2938 46.927 87.6134 46.927 86.9875 46.894C86.3615 46.8599 85.7968 46.7579 85.2904 46.5858C84.785 46.4148 84.3408 46.1543 83.9578 45.8053C83.5749 45.4564 83.2629 44.9831 83.0199 44.3853C82.8089 43.8672 82.7088 43.3569 82.7195 42.8554C82.7302 42.3538 82.842 41.8756 83.0539 41.4198C83.2667 40.9639 83.571 40.5401 83.9666 40.1484C84.3622 39.7567 84.8443 39.4136 85.4129 39.1191L84.6178 37.1615L86.1934 36.522L86.9991 38.5068C87.593 38.3512 88.1665 38.2919 88.7176 38.3308C89.2687 38.3697 89.778 38.5038 90.2465 38.7332C90.714 38.9626 91.1349 39.2873 91.5082 39.7081C91.8814 40.129 92.1924 40.6441 92.4393 41.2536L89.5934 42.4093C89.2959 41.6774 88.911 41.1962 88.4386 40.9649C87.9663 40.7345 87.4579 40.7287 86.9126 40.9503C86.6172 41.0699 86.379 41.2147 86.1992 41.3838C86.0194 41.5529 85.8891 41.7366 85.8094 41.9359C85.7297 42.1352 85.6967 42.3461 85.7103 42.5677C85.7239 42.7893 85.7764 43.0129 85.8678 43.2393C85.9591 43.4648 86.0748 43.6563 86.2148 43.8118C86.3547 43.9683 86.5365 44.0917 86.761 44.1821C86.9846 44.2725 87.2577 44.3318 87.5794 44.361C87.9011 44.3901 88.289 44.3979 88.7419 44.3843C89.4748 44.3639 90.1542 44.3727 90.7772 44.4106C91.4003 44.4485 91.966 44.5554 92.4724 44.7294C92.9788 44.9034 93.4239 45.1658 93.8069 45.5147C94.1898 45.8637 94.5009 46.3341 94.741 46.926C94.9587 47.4626 95.0607 47.9826 95.0471 48.4851C95.0335 48.9886 94.9188 49.4648 94.704 49.9139C94.4892 50.3639 94.1782 50.7809 93.7729 51.1658C93.3676 51.5507 92.8796 51.8909 92.311 52.1854L93.0507 54.0059L91.4848 54.6416L90.749 52.8298C90.1814 52.996 89.607 53.0913 89.0238 53.1146C88.4406 53.138 87.8817 53.0583 87.3481 52.8736C86.8145 52.6889 86.3226 52.3827 85.8736 51.9541C85.4245 51.5254 85.0513 50.9452 84.7539 50.2133L87.6008 49.0576C87.7767 49.4901 87.9838 49.8274 88.2229 50.0675C88.462 50.3076 88.7186 50.4738 88.9927 50.5651C89.2668 50.6565 89.5477 50.6847 89.8354 50.6487C90.1231 50.6137 90.402 50.5408 90.6713 50.432C90.9794 50.3066 91.235 50.1569 91.4353 49.9829C91.6365 49.8089 91.7871 49.6194 91.8872 49.4153C91.9883 49.2112 92.0389 48.9973 92.0389 48.7728C92.0389 48.5483 91.9941 48.3237 91.9028 48.0982L91.9047 48.0992Z" fill="#FFA412"/>
<path opacity="0.2" d="M118.026 63.6779V112.005C118.026 114.823 115.72 117.131 112.901 117.131H63.2253C62.7947 117.131 62.3748 117.077 61.9734 116.978C61.1132 116.765 60.3346 116.339 59.698 115.758C59.2431 115.342 58.8621 114.849 58.5754 114.3C58.5598 114.27 58.5452 114.241 58.5306 114.211C58.2332 113.613 58.0466 112.951 57.999 112.254C57.9902 112.134 57.9863 112.014 57.9863 111.893V63.988C57.9863 61.2771 59.387 58.7704 61.6721 57.3114C61.6721 57.3114 61.674 57.3114 61.6779 57.3085C63.581 56.0906 64.8427 53.9562 64.8427 51.5291C64.8427 50.8089 64.7319 50.1159 64.5258 49.4637H111.486C111.28 50.1159 111.169 50.8089 111.169 51.5291C111.169 53.857 112.329 55.9137 114.102 57.153C114.102 57.153 114.102 57.153 114.104 57.153C114.222 57.2356 114.343 57.3144 114.466 57.3892C116.666 58.7296 118.026 61.1031 118.026 63.6789L118.026 63.6779Z" fill="#ED9F4A"/>
<path opacity="0.2" d="M118.027 63.6781V112.005C118.027 114.702 115.915 116.931 113.263 117.118C113.143 117.126 113.023 117.13 112.901 117.13H91.028C88.1461 117.13 85.7891 114.772 85.7891 111.891V63.9882C85.7891 61.2773 87.1897 58.7706 89.4748 57.3116C91.3818 56.0947 92.6464 53.9593 92.6464 51.5283C92.6464 50.8081 92.5356 50.1151 92.3295 49.4629H111.486C111.28 50.1151 111.169 50.8081 111.169 51.5283C111.169 53.4363 111.948 55.1616 113.206 56.4038C113.586 56.78 114.009 57.1114 114.467 57.3894C116.667 58.7288 118.027 61.1023 118.027 63.6781Z" fill="#ED9F4A"/>
<path opacity="0.6" d="M114.101 57.1512C112.568 56.2327 105.922 52.9776 89.0244 53.1156C69.6684 53.274 61.9149 57.1862 61.6777 57.3077C63.5809 56.0898 64.8425 53.9554 64.8425 51.5283C64.8425 50.8081 64.7317 50.1151 64.5256 49.4629H111.486C111.28 50.1151 111.169 50.8081 111.169 51.5283C111.169 53.8562 112.329 55.9129 114.101 57.1522V57.1512Z" fill="#ED9F4A"/>
<path d="M80.3252 59.9776C80.3252 59.9776 79.0801 61.7301 77.939 61.7544C76.7978 61.7787 75.0609 60.9418 75.0609 60.9418C75.0609 60.9418 74.0131 58.6061 74.7236 57.6925C74.7236 57.6925 75.4361 57.3795 76.1816 57.9325C76.3099 58.0278 76.4392 58.1474 76.5675 58.3019C76.7483 58.5196 76.9514 58.6431 77.1662 58.7082C77.9807 58.956 78.9479 58.3729 79.3094 58.9356C79.5204 59.2622 79.7497 59.5081 79.9393 59.6811C80.1628 59.8804 80.3252 59.9776 80.3252 59.9776Z" fill="#F9DDBF"/>
<path d="M64.0947 72.6201C64.0947 72.6201 68.4949 61.9575 76.4155 61.7543C76.4155 61.7543 83.7268 62.5669 84.133 72.6201H64.0938H64.0947Z" fill="#F9DDBF"/>
<path d="M74.246 62.0799C74.246 62.0799 77.4205 62.7855 78.4003 62.3705C78.4003 62.3705 78.548 61.0428 77.2115 61.2294C76.2969 61.3567 75.7001 60.9174 75.3492 60.7386C74.8535 60.4858 74.1138 61.5239 74.246 62.0799Z" fill="#F1A34F"/>
<path d="M77.0098 60.0787C76.8066 60.2313 76.1836 57.9316 76.1836 57.9316C76.3119 58.0269 76.4412 58.1464 76.5695 58.301C76.7503 58.5187 76.9534 58.6422 77.1682 58.7073C77.1702 58.7743 77.2071 59.93 77.0098 60.0778V60.0787Z" fill="#E5C1A1"/>
<path d="M79.9395 59.6811C79.8948 59.7073 78.4262 60.5869 78.2279 60.5869C78.0296 60.5869 79.3107 58.9355 79.3107 58.9355C79.5216 59.2621 79.751 59.508 79.9405 59.6811H79.9395Z" fill="#E5C1A1"/>
<path d="M68.3922 69.6411C68.3105 69.5721 71.5064 64.9357 72.386 64.9027C73.2657 64.8686 75.2436 65.9184 76.6754 66.0535C78.1071 66.1886 79.4951 65.7823 79.7653 66.6289C80.0365 67.4755 80.781 70.475 80.3242 70.9552C79.8674 71.4353 70.1495 71.1428 68.3922 69.6411Z" fill="#E5C1A1"/>
<path opacity="0.5" d="M64.833 113.479C64.5783 113.613 64.3217 113.74 64.0641 113.862C63.8182 114.004 63.5684 114.144 63.3137 114.277C62.1396 114.895 60.9295 115.386 59.698 115.758C59.2431 115.343 58.8621 114.849 58.5754 114.3C58.379 114.405 58.1836 114.505 57.9863 114.603V78.1392C58.8912 78.2597 59.7874 78.4405 60.6651 78.6776C65.5911 80.0092 69.9776 83.1429 72.6457 87.753C77.9459 96.912 74.4478 108.43 64.833 113.478V113.479Z" fill="#E2810E"/>
<path d="M68.166 86.3173C62.8658 76.7025 50.7754 73.2053 41.1605 78.5055C31.5457 83.8047 28.0485 95.8952 33.3487 105.51C38.6489 115.125 50.7394 118.622 60.3542 113.323C69.969 108.023 73.4662 95.9321 68.166 86.3173Z" fill="#E2810E"/>
<path d="M59.5817 113.726C59.3368 113.876 59.0879 114.02 58.8343 114.16C58.7487 114.207 58.6632 114.254 58.5767 114.299C58.3803 114.404 58.185 114.504 57.9877 114.602C48.5216 119.251 36.9744 115.683 31.8288 106.348C26.9203 97.4435 29.5582 86.4154 37.613 80.6244C38.2555 80.1627 38.931 79.734 39.6416 79.3423C39.8962 79.2014 40.1538 79.0673 40.4114 78.9399C40.6621 78.8146 40.9149 78.696 41.1685 78.5832C41.9461 78.2362 42.7373 77.9437 43.5363 77.7046C44.7231 77.3469 45.9283 77.1058 47.1355 76.9785C50.8806 76.5819 54.6479 77.2662 57.9877 78.9001C61.5325 80.6331 64.5971 83.4363 66.647 87.1541C71.8073 96.5162 68.6279 108.224 59.5817 113.726Z" fill="#FFB93E"/>
<path d="M49.3779 115.076C47.6876 115.076 45.9876 114.837 44.3187 114.355C39.6717 113.011 35.8256 109.937 33.4909 105.701C31.1552 101.464 30.6099 96.5708 31.9542 91.9237C33.2984 87.2767 36.3718 83.4306 40.6087 81.0959C44.8456 78.7602 49.7375 78.2149 54.3855 79.5592C59.0326 80.9034 62.8787 83.9768 65.2144 88.2137C67.55 92.4505 68.0953 97.3425 66.7511 101.991C65.4068 106.638 62.3334 110.484 58.0965 112.818C55.3808 114.315 52.3959 115.077 49.3789 115.077L49.3779 115.076ZM34.4366 105.179C36.6323 109.163 40.2491 112.052 44.6191 113.317C48.9891 114.582 53.5895 114.068 57.5736 111.872C61.5578 109.676 64.4475 106.059 65.712 101.689C66.9766 97.3192 66.4633 92.7188 64.2667 88.7347C62.071 84.7505 58.4542 81.8608 54.0842 80.5963C49.7142 79.3327 45.1138 79.8449 41.1297 82.0416C37.1455 84.2373 34.2558 87.854 32.9913 92.2241C31.7267 96.5941 32.24 101.194 34.4366 105.179Z" fill="#FFA412"/>
<path d="M58.1118 98.6865C58.0729 98.5884 58.0311 98.4941 57.9883 98.4008C57.6656 97.6922 57.2642 97.1178 56.7821 96.6784C56.2378 96.1818 55.605 95.8095 54.8838 95.5616C54.1626 95.3138 53.3588 95.1621 52.4723 95.1087C51.5849 95.0543 50.6197 95.0416 49.5758 95.0708C48.9304 95.0902 48.3793 95.0786 47.9215 95.0377C47.4647 94.9959 47.0759 94.9114 46.7571 94.7831C46.4383 94.6548 46.1788 94.4798 45.9795 94.2563C45.7802 94.0346 45.616 93.7625 45.4857 93.4417C45.3555 93.121 45.2807 92.8022 45.2612 92.4863C45.2418 92.1714 45.2894 91.872 45.4021 91.5872C45.5159 91.3044 45.7005 91.0419 45.9562 90.8018C46.2118 90.5608 46.5501 90.3557 46.97 90.1846C47.7456 89.8697 48.4697 89.8765 49.1414 90.2051C49.813 90.5336 50.3602 91.2188 50.783 92.2598L54.8333 90.6152C54.4804 89.7482 54.0392 89.0153 53.5075 88.4166C52.9768 87.8188 52.378 87.3572 51.7122 87.0306C51.0474 86.705 50.3223 86.5135 49.537 86.4581C48.7535 86.4027 47.938 86.4863 47.0924 86.7079L45.9455 83.8833L43.7041 84.7931L44.8345 87.5788C44.0258 87.9987 43.3396 88.4866 42.7768 89.0435C42.2141 89.6015 41.7815 90.2041 41.4792 90.8514C41.176 91.5007 41.0185 92.1811 41.003 92.8945C40.9884 93.608 41.1303 94.334 41.4297 95.0708C41.7747 95.9213 42.2199 96.5948 42.7642 97.0915C43.3085 97.5882 43.9403 97.9585 44.6596 98.2015C45.3788 98.4455 46.1826 98.5913 47.073 98.6389C47.9633 98.6875 48.9314 98.6865 49.9773 98.636C50.5838 98.602 51.1106 98.6049 51.5567 98.6467C52.0029 98.6875 52.3887 98.7731 52.7144 98.9043C53.039 99.0355 53.3092 99.2182 53.525 99.4544C53.7408 99.6906 53.9225 99.9909 54.0703 100.354C54.2005 100.676 54.2656 100.995 54.2637 101.315C54.2637 101.634 54.1908 101.939 54.0469 102.229C53.9041 102.52 53.6892 102.789 53.4035 103.037C53.1177 103.284 52.7552 103.497 52.3158 103.676C51.9329 103.831 51.5373 103.933 51.1271 103.984C50.7179 104.033 50.3184 103.994 49.9277 103.864C49.5379 103.734 49.1725 103.499 48.8332 103.157C48.493 102.816 48.1976 102.336 47.9478 101.72L43.8985 103.365C44.3203 104.406 44.852 105.232 45.4916 105.84C46.1311 106.45 46.83 106.887 47.5901 107.149C48.3502 107.411 49.1443 107.527 49.9743 107.493C50.8034 107.46 51.6228 107.325 52.4296 107.087L53.4754 109.665L55.7032 108.76L54.6515 106.171C55.4602 105.751 56.1532 105.267 56.7306 104.72C57.2652 104.212 57.6831 103.667 57.9854 103.081C58.0097 103.033 58.033 102.987 58.0563 102.938C58.3615 102.298 58.5248 101.621 58.5443 100.906C58.5637 100.19 58.4189 99.4505 58.1088 98.6875L58.1118 98.6865Z" fill="#FFA412"/>
</g>
<defs>
<clipPath id="clip0_1903_14517">
<rect width="88.6727" height="86.13" fill="white" transform="translate(29.3535 31)"/>
</clipPath>
</defs>
</svg>
