<svg width="79" height="80" viewBox="0 0 79 80" fill="none" xmlns="http://www.w3.org/2000/svg">
<g filter="url(#filter0_d_1537_42440)">
<rect x="9.10156" y="6.21436" width="60.3921" height="60.3921" rx="8.86067" fill="#FFD4E2" shape-rendering="crispEdges"/>
<path d="M42.9569 29.0902C42.9569 28.0745 43.7713 27.2601 44.787 27.2601C45.8027 27.2601 46.6171 28.0745 46.6171 29.0902C46.6171 30.1059 45.8027 30.9203 44.787 30.9203C43.7713 30.9203 42.9569 30.1059 42.9569 29.0902ZM46.6171 45.5608V40.0706H48.9047L46.5805 33.0889C46.4581 32.7244 46.2245 32.4075 45.9127 32.1827C45.6008 31.9578 45.2264 31.8363 44.8419 31.8353H44.7321C44.3473 31.8349 43.9722 31.9559 43.6601 32.1809C43.348 32.406 43.1147 32.7237 42.9935 33.0889L42.2066 35.4497C43.1948 35.9987 43.872 37.0327 43.872 38.2405V45.5608H46.6171ZM39.7543 35.9529C40.5138 35.9529 41.1269 35.3399 41.1269 34.5804C41.1269 33.8209 40.5138 33.2078 39.7543 33.2078C38.9948 33.2078 38.3818 33.8209 38.3818 34.5804C38.3818 35.3399 38.9948 35.9529 39.7543 35.9529ZM33.3491 30.9203C34.3648 30.9203 35.1792 30.1059 35.1792 29.0902C35.1792 28.0745 34.3648 27.2601 33.3491 27.2601C32.3334 27.2601 31.519 28.0745 31.519 29.0902C31.519 30.1059 32.3334 30.9203 33.3491 30.9203ZM35.1792 45.5608V39.1556H36.5517V33.6654C36.5517 32.6588 35.7282 31.8353 34.7216 31.8353H31.9765C30.97 31.8353 30.1465 32.6588 30.1465 33.6654V39.1556H31.519V45.5608H35.1792ZM41.1269 45.5608V41.9007H42.0419V38.2405C42.0419 37.4902 41.4197 36.868 40.6694 36.868H38.8393C38.089 36.868 37.4667 37.4902 37.4667 38.2405V41.9007H38.3818V45.5608H41.1269Z" fill="#E6346D"/>
</g>
<defs>
<filter id="filter0_d_1537_42440" x="0.240889" y="0.897951" width="78.1139" height="78.1135" filterUnits="userSpaceOnUse" color-interpolation-filters="sRGB">
<feFlood flood-opacity="0" result="BackgroundImageFix"/>
<feColorMatrix in="SourceAlpha" type="matrix" values="0 0 0 0 0 0 0 0 0 0 0 0 0 0 0 0 0 0 127 0" result="hardAlpha"/>
<feOffset dy="3.54427"/>
<feGaussianBlur stdDeviation="4.43034"/>
<feComposite in2="hardAlpha" operator="out"/>
<feColorMatrix type="matrix" values="0 0 0 0 0.533333 0 0 0 0 0.027451 0 0 0 0 0.968627 0 0 0 0.07 0"/>
<feBlend mode="normal" in2="BackgroundImageFix" result="effect1_dropShadow_1537_42440"/>
<feBlend mode="normal" in="SourceGraphic" in2="effect1_dropShadow_1537_42440" result="shape"/>
</filter>
</defs>
</svg>
