<svg width="51" height="718" viewBox="0 0 51 718" fill="none" xmlns="http://www.w3.org/2000/svg">
<rect width="691" height="8" rx="4" transform="matrix(0 1 1 0 21 0)" fill="#F8F0FF"/>
<rect width="691" height="8" rx="4" transform="matrix(0 1 1 0 21 0)" fill="#8807F7"/>
<g filter="url(#filter0_d_1756_14870)">
<circle r="15" transform="matrix(-1 0 0 1 25 689)" fill="white"/>
<circle r="14.5" transform="matrix(-1 0 0 1 25 689)" stroke="#8807F7"/>
</g>
<g clip-path="url(#clip0_1756_14870)">
<path d="M23.4831 684.777C23.2184 684.904 22.9878 685.093 22.8104 685.327C22.6768 685.499 22.5742 685.693 22.5068 685.899L22.2033 686.828C22.1826 686.891 22.1451 686.947 22.095 686.991C22.0448 687.034 21.9838 687.062 21.9185 687.074C21.8435 687.087 21.7662 687.076 21.6975 687.044C21.6288 687.011 21.5721 686.957 21.5354 686.89L21.5378 686.887C21.527 686.867 21.5178 686.847 21.5105 686.826L21.2082 685.898C21.1142 685.615 20.9556 685.358 20.745 685.148C20.5344 684.938 20.2776 684.779 19.9951 684.686L19.0662 684.384C18.9947 684.359 18.9329 684.312 18.8892 684.25C18.8454 684.188 18.822 684.114 18.822 684.038C18.822 683.962 18.8454 683.888 18.8892 683.826C18.9329 683.764 18.9947 683.717 19.0662 683.692L19.0844 683.687L20.0139 683.385C20.2964 683.291 20.5531 683.133 20.7637 682.923C20.9742 682.712 21.1329 682.456 21.227 682.173L21.5287 681.244C21.5539 681.173 21.6007 681.111 21.6627 681.067C21.7247 681.023 21.7988 680.999 21.8748 680.999C21.9508 680.999 22.0249 681.023 22.0869 681.067C22.1489 681.111 22.1957 681.173 22.2209 681.244L22.5232 682.173L22.5311 682.196C22.5962 682.387 22.6909 682.565 22.8116 682.726L22.8147 682.725C23.0443 683.028 23.3592 683.257 23.7193 683.381L24.6482 683.685C24.7155 683.707 24.7749 683.748 24.8192 683.803C24.8634 683.858 24.8907 683.925 24.8975 683.996C24.9043 684.066 24.8905 684.137 24.8576 684.2C24.8248 684.262 24.7744 684.314 24.7126 684.349C24.6919 684.361 24.6701 684.371 24.6476 684.379L23.7181 684.681C23.6373 684.708 23.559 684.74 23.4831 684.777ZM20.621 687.582C20.6087 687.556 20.5912 687.532 20.5696 687.513C20.548 687.494 20.5228 687.479 20.4954 687.469L19.9374 687.288C19.7701 687.23 19.6183 687.135 19.4941 687.008C19.3698 686.882 19.2763 686.729 19.221 686.561L19.0394 686.004C19.0242 685.961 18.996 685.924 18.9589 685.898C18.9217 685.871 18.8773 685.857 18.8318 685.857C18.7863 685.857 18.7419 685.871 18.7047 685.898C18.6676 685.924 18.6394 685.961 18.6242 686.004L18.4432 686.561C18.3868 686.731 18.2916 686.885 18.1652 687.011C18.0389 687.137 17.8848 687.232 17.7153 687.288L17.1579 687.469L17.1464 687.472C17.1032 687.487 17.0658 687.515 17.0393 687.552C17.0129 687.589 16.9986 687.634 16.9986 687.68C16.9986 687.725 17.0129 687.77 17.0393 687.807C17.0658 687.844 17.1032 687.872 17.1464 687.887L17.7043 688.069C17.9378 688.146 18.1402 688.297 18.2817 688.498V688.501C18.3455 688.592 18.3959 688.692 18.4311 688.798L18.6132 689.355C18.6285 689.398 18.6566 689.435 18.6938 689.461C18.731 689.488 18.7754 689.502 18.8209 689.502C18.8664 689.502 18.9108 689.488 18.9479 689.461C18.9851 689.435 19.0133 689.398 19.0285 689.355L19.2107 688.798C19.2668 688.628 19.3619 688.474 19.4884 688.347C19.6149 688.221 19.7693 688.125 19.9392 688.069L20.4972 687.887C20.5265 687.877 20.5533 687.86 20.5758 687.839C20.5983 687.817 20.616 687.791 20.6277 687.763C20.6394 687.734 20.6449 687.703 20.6437 687.672C20.6426 687.641 20.6348 687.61 20.621 687.582V687.582ZM25.4994 696.785C21.5943 696.785 18.4068 693.713 18.2222 689.853C18.3208 689.956 18.4444 690.032 18.5809 690.073C18.7175 690.114 18.8624 690.12 19.0015 690.088C19.1406 690.057 19.2693 689.99 19.375 689.894C19.4807 689.799 19.5598 689.677 19.6047 689.542L19.7868 688.987C19.8134 688.908 19.8577 688.836 19.9165 688.776C19.9752 688.717 20.0467 688.672 20.1256 688.644L20.6982 688.459C20.8594 688.401 20.999 688.296 21.0977 688.156C21.1965 688.016 21.2495 687.849 21.2494 687.678C21.2482 687.596 21.2347 687.514 21.2094 687.435C21.3299 687.541 21.475 687.616 21.6317 687.653C21.7883 687.689 21.9515 687.686 22.1068 687.644C22.262 687.602 22.4043 687.522 22.521 687.411C22.6376 687.301 22.725 687.163 22.7752 687.01L23.0788 686.083C23.1417 685.89 23.2497 685.715 23.3939 685.572C23.5365 685.428 23.7105 685.32 23.902 685.255L24.8462 684.952C24.9886 684.902 25.1175 684.82 25.2227 684.712C25.3279 684.604 25.4065 684.473 25.4522 684.329C25.4979 684.185 25.5095 684.033 25.4861 683.884C25.4627 683.735 25.4049 683.593 25.3173 683.47C25.1971 683.302 25.0271 683.176 24.8316 683.11L23.913 682.811C23.7308 682.748 23.5651 682.646 23.4273 682.513C24.1 682.314 24.7979 682.213 25.4994 682.214C29.523 682.214 32.7852 685.476 32.7852 689.5C32.7852 693.523 29.523 696.785 25.4994 696.785ZM23.3744 688.893C23.616 688.893 23.8476 688.797 24.0184 688.626C24.1892 688.455 24.2852 688.223 24.2852 687.982C24.2852 687.74 24.1892 687.509 24.0184 687.338C23.8476 687.167 23.616 687.071 23.3744 687.071C23.1329 687.071 22.9013 687.167 22.7305 687.338C22.5597 687.509 22.4637 687.74 22.4637 687.982C22.4637 688.223 22.5597 688.455 22.7305 688.626C22.9013 688.797 23.1329 688.893 23.3744 688.893ZM26.7137 687.982C26.7137 688.223 26.8097 688.455 26.9805 688.626C27.1513 688.797 27.3829 688.893 27.6244 688.893C27.866 688.893 28.0976 688.797 28.2684 688.626C28.4392 688.455 28.5352 688.223 28.5352 687.982C28.5352 687.74 28.4392 687.509 28.2684 687.338C28.0976 687.167 27.866 687.071 27.6244 687.071C27.3829 687.071 27.1513 687.167 26.9805 687.338C26.8097 687.509 26.7137 687.74 26.7137 687.982ZM28.9432 691.4C28.8436 691.332 28.7213 691.307 28.603 691.329C28.4847 691.351 28.3799 691.419 28.3117 691.519L28.3063 691.526L28.2795 691.562C28.254 691.594 28.2128 691.644 28.1563 691.706C28.0428 691.829 27.8697 691.998 27.6354 692.166C27.1691 692.501 26.4636 692.839 25.4994 692.839C24.5353 692.839 23.8298 692.501 23.3635 692.166C23.1292 691.998 22.9555 691.829 22.8426 691.706C22.7896 691.648 22.7393 691.588 22.692 691.526L22.6878 691.52C22.6197 691.42 22.5148 691.351 22.3961 691.329C22.2774 691.306 22.1547 691.332 22.0548 691.4C21.955 691.468 21.8863 691.573 21.8638 691.691C21.8413 691.81 21.8669 691.933 21.9349 692.033L21.9361 692.033V692.035L21.9379 692.036L21.9422 692.042L21.9477 692.05L21.9555 692.062C22.023 692.152 22.0949 692.239 22.1711 692.322C22.3709 692.538 22.5922 692.733 22.8317 692.905C23.4206 693.329 24.3082 693.75 25.4994 693.75C26.6907 693.75 27.5783 693.328 28.1672 692.905C28.4067 692.733 28.628 692.538 28.8278 692.321C28.9088 692.233 28.985 692.14 29.0561 692.043L29.0609 692.037L29.0622 692.035L29.0628 692.033L29.0634 692.033C29.1313 691.933 29.1568 691.81 29.1343 691.692C29.1117 691.573 29.043 691.468 28.9432 691.4Z" fill="#8807F7"/>
</g>
<g filter="url(#filter1_d_1756_14870)">
<circle r="15" transform="matrix(-1 0 0 1 25 155)" fill="white"/>
</g>
<g clip-path="url(#clip1_1756_14870)">
<path d="M25 163C22.7457 163 20.5837 162.104 18.9896 160.51C17.3955 158.916 16.5 156.754 16.5 154.5C16.5 152.246 17.3955 150.084 18.9896 148.49C20.5837 146.896 22.7457 146 25 146C27.2543 146 29.4163 146.896 31.0104 148.49C32.6045 150.084 33.5 152.246 33.5 154.5C33.5 156.754 32.6045 158.916 31.0104 160.51C29.4163 162.104 27.2543 163 25 163ZM26.0625 152.906C26.0625 153.786 26.5385 154.5 27.125 154.5C27.7115 154.5 28.1875 153.786 28.1875 152.906C28.1875 152.027 27.7115 151.312 27.125 151.312C26.5385 151.312 26.0625 152.027 26.0625 152.906ZM28.9472 159.21C29.0692 159.14 29.1582 159.024 29.1947 158.887C29.2312 158.751 29.2121 158.606 29.1416 158.484C28.7221 157.757 28.1184 157.153 27.3913 156.734C26.6643 156.314 25.8395 156.093 25 156.094C24.1606 156.094 23.3359 156.314 22.6088 156.734C21.8818 157.154 21.2781 157.757 20.8584 158.484C20.789 158.606 20.7708 158.751 20.8075 158.886C20.8443 159.022 20.9331 159.137 21.0546 159.207C21.1761 159.277 21.3204 159.296 21.456 159.261C21.5916 159.225 21.7076 159.137 21.7785 159.016C22.1048 158.45 22.5744 157.98 23.1399 157.654C23.7055 157.328 24.347 157.156 25 157.156C25.653 157.156 26.2945 157.328 26.8601 157.654C27.4256 157.98 27.8952 158.45 28.2215 159.016C28.292 159.138 28.408 159.227 28.5441 159.263C28.6802 159.3 28.8252 159.281 28.9472 159.21ZM22.875 154.5C23.4615 154.5 23.9375 153.786 23.9375 152.906C23.9375 152.027 23.4615 151.312 22.875 151.312C22.2885 151.312 21.8125 152.027 21.8125 152.906C21.8125 153.786 22.2885 154.5 22.875 154.5Z" fill="#8707F5"/>
</g>
<g filter="url(#filter2_d_1756_14870)">
<circle r="15" transform="matrix(-1 0 0 1 26 511)" fill="white"/>
</g>
<path d="M25.4992 502C20.8042 502 16.9983 505.806 16.9983 510.501C16.9983 515.195 20.8042 519 25.4992 519C30.1941 519.001 34 515.195 34 510.501C34 505.806 30.1941 502 25.4992 502ZM28.5061 512.866C28.6121 512.738 28.7642 512.656 28.9299 512.638C29.0955 512.62 29.2615 512.668 29.3924 512.771C29.5232 512.874 29.6085 513.024 29.63 513.19C29.6515 513.355 29.6075 513.522 29.5073 513.655C29.0305 514.262 28.4218 514.753 27.7274 515.09C27.0331 515.427 26.2711 515.602 25.4992 515.601C23.9183 515.601 22.4556 514.876 21.4944 513.66C21.4425 513.594 21.404 513.519 21.3812 513.438C21.3584 513.358 21.3516 513.274 21.3614 513.191C21.3711 513.107 21.3972 513.027 21.438 512.954C21.4788 512.881 21.5336 512.816 21.5993 512.765C21.665 512.713 21.7403 512.674 21.8208 512.651C21.9014 512.629 21.9856 512.622 22.0687 512.632C22.1519 512.641 22.2323 512.667 22.3054 512.708C22.3785 512.749 22.4428 512.804 22.4947 512.87C22.8524 513.324 23.3087 513.692 23.8292 513.944C24.3497 514.196 24.9207 514.327 25.4992 514.326C26.6873 514.326 27.7854 513.782 28.5061 512.866ZM28.0489 507.739C28.1909 507.735 28.3322 507.759 28.4646 507.811C28.5969 507.862 28.7176 507.94 28.8195 508.039C28.9213 508.138 29.0023 508.256 29.0576 508.387C29.1129 508.518 29.1413 508.659 29.1413 508.801C29.1413 508.943 29.1129 509.083 29.0576 509.214C29.0023 509.345 28.9213 509.463 28.8195 509.562C28.7176 509.661 28.5969 509.739 28.4646 509.791C28.3322 509.842 28.1909 509.867 28.0489 509.863C27.7724 509.855 27.5099 509.739 27.3172 509.541C27.1244 509.343 27.0165 509.077 27.0165 508.801C27.0165 508.524 27.1244 508.258 27.3172 508.06C27.5099 507.862 27.7724 507.746 28.0489 507.739ZM22.9494 507.739C23.0914 507.735 23.2327 507.759 23.3651 507.811C23.4975 507.862 23.6181 507.94 23.72 508.039C23.8218 508.138 23.9028 508.256 23.9581 508.387C24.0134 508.518 24.0418 508.659 24.0418 508.801C24.0418 508.943 24.0134 509.083 23.9581 509.214C23.9028 509.345 23.8218 509.463 23.72 509.562C23.6181 509.661 23.4975 509.739 23.3651 509.791C23.2327 509.842 23.0914 509.867 22.9494 509.863C22.673 509.855 22.4104 509.739 22.2177 509.541C22.0249 509.343 21.9171 509.077 21.9171 508.801C21.9171 508.524 22.0249 508.258 22.2177 508.06C22.4104 507.862 22.673 507.746 22.9494 507.739Z" fill="#8907F5"/>
<g filter="url(#filter3_d_1756_14870)">
<circle r="15" transform="matrix(-1 0 0 1 25 333)" fill="white"/>
</g>
<g clip-path="url(#clip2_1756_14870)">
<path d="M24.5 341C22.2457 341 20.0837 340.104 18.4896 338.51C16.8955 336.916 16 334.754 16 332.5C16 330.246 16.8955 328.084 18.4896 326.49C20.0837 324.896 22.2457 324 24.5 324C26.7543 324 28.9163 324.896 30.5104 326.49C32.1045 328.084 33 330.246 33 332.5C33 334.754 32.1045 336.916 30.5104 338.51C28.9163 340.104 26.7543 341 24.5 341ZM28.2188 330.375H26.0938C25.9529 330.375 25.8177 330.431 25.7181 330.531C25.6185 330.63 25.5625 330.765 25.5625 330.906C25.5625 331.047 25.6185 331.182 25.7181 331.282C25.8177 331.382 25.9529 331.438 26.0938 331.438H28.2188C28.3596 331.438 28.4948 331.382 28.5944 331.282C28.694 331.182 28.75 331.047 28.75 330.906C28.75 330.765 28.694 330.63 28.5944 330.531C28.4948 330.431 28.3596 330.375 28.2188 330.375ZM22.9062 330.375H20.7812C20.6404 330.375 20.5052 330.431 20.4056 330.531C20.306 330.63 20.25 330.765 20.25 330.906C20.25 331.047 20.306 331.182 20.4056 331.282C20.5052 331.382 20.6404 331.438 20.7812 331.438H22.9062C23.0471 331.438 23.1823 331.382 23.2819 331.282C23.3815 331.182 23.4375 331.047 23.4375 330.906C23.4375 330.765 23.3815 330.63 23.2819 330.531C23.1823 330.431 23.0471 330.375 22.9062 330.375ZM28.2188 334.625H20.7812C20.6404 334.625 20.5052 334.681 20.4056 334.781C20.306 334.88 20.25 335.015 20.25 335.156C20.25 335.297 20.306 335.432 20.4056 335.532C20.5052 335.632 20.6404 335.688 20.7812 335.688H28.2188C28.3596 335.688 28.4948 335.632 28.5944 335.532C28.694 335.432 28.75 335.297 28.75 335.156C28.75 335.015 28.694 334.88 28.5944 334.781C28.4948 334.681 28.3596 334.625 28.2188 334.625Z" fill="#8707F5"/>
</g>
<defs>
<filter id="filter0_d_1756_14870" x="0" y="668" width="50" height="50" filterUnits="userSpaceOnUse" color-interpolation-filters="sRGB">
<feFlood flood-opacity="0" result="BackgroundImageFix"/>
<feColorMatrix in="SourceAlpha" type="matrix" values="0 0 0 0 0 0 0 0 0 0 0 0 0 0 0 0 0 0 127 0" result="hardAlpha"/>
<feOffset dy="4"/>
<feGaussianBlur stdDeviation="5"/>
<feComposite in2="hardAlpha" operator="out"/>
<feColorMatrix type="matrix" values="0 0 0 0 0.533333 0 0 0 0 0.027451 0 0 0 0 0.968627 0 0 0 0.07 0"/>
<feBlend mode="normal" in2="BackgroundImageFix" result="effect1_dropShadow_1756_14870"/>
<feBlend mode="normal" in="SourceGraphic" in2="effect1_dropShadow_1756_14870" result="shape"/>
</filter>
<filter id="filter1_d_1756_14870" x="0" y="134" width="50" height="50" filterUnits="userSpaceOnUse" color-interpolation-filters="sRGB">
<feFlood flood-opacity="0" result="BackgroundImageFix"/>
<feColorMatrix in="SourceAlpha" type="matrix" values="0 0 0 0 0 0 0 0 0 0 0 0 0 0 0 0 0 0 127 0" result="hardAlpha"/>
<feOffset dy="4"/>
<feGaussianBlur stdDeviation="5"/>
<feComposite in2="hardAlpha" operator="out"/>
<feColorMatrix type="matrix" values="0 0 0 0 0.533333 0 0 0 0 0.027451 0 0 0 0 0.968627 0 0 0 0.07 0"/>
<feBlend mode="normal" in2="BackgroundImageFix" result="effect1_dropShadow_1756_14870"/>
<feBlend mode="normal" in="SourceGraphic" in2="effect1_dropShadow_1756_14870" result="shape"/>
</filter>
<filter id="filter2_d_1756_14870" x="1" y="490" width="50" height="50" filterUnits="userSpaceOnUse" color-interpolation-filters="sRGB">
<feFlood flood-opacity="0" result="BackgroundImageFix"/>
<feColorMatrix in="SourceAlpha" type="matrix" values="0 0 0 0 0 0 0 0 0 0 0 0 0 0 0 0 0 0 127 0" result="hardAlpha"/>
<feOffset dy="4"/>
<feGaussianBlur stdDeviation="5"/>
<feComposite in2="hardAlpha" operator="out"/>
<feColorMatrix type="matrix" values="0 0 0 0 0.533333 0 0 0 0 0.027451 0 0 0 0 0.968627 0 0 0 0.07 0"/>
<feBlend mode="normal" in2="BackgroundImageFix" result="effect1_dropShadow_1756_14870"/>
<feBlend mode="normal" in="SourceGraphic" in2="effect1_dropShadow_1756_14870" result="shape"/>
</filter>
<filter id="filter3_d_1756_14870" x="0" y="312" width="50" height="50" filterUnits="userSpaceOnUse" color-interpolation-filters="sRGB">
<feFlood flood-opacity="0" result="BackgroundImageFix"/>
<feColorMatrix in="SourceAlpha" type="matrix" values="0 0 0 0 0 0 0 0 0 0 0 0 0 0 0 0 0 0 127 0" result="hardAlpha"/>
<feOffset dy="4"/>
<feGaussianBlur stdDeviation="5"/>
<feComposite in2="hardAlpha" operator="out"/>
<feColorMatrix type="matrix" values="0 0 0 0 0.533333 0 0 0 0 0.027451 0 0 0 0 0.968627 0 0 0 0.07 0"/>
<feBlend mode="normal" in2="BackgroundImageFix" result="effect1_dropShadow_1756_14870"/>
<feBlend mode="normal" in="SourceGraphic" in2="effect1_dropShadow_1756_14870" result="shape"/>
</filter>
<clipPath id="clip0_1756_14870">
<rect width="17" height="17" fill="white" transform="matrix(-1 0 0 1 34 681)"/>
</clipPath>
<clipPath id="clip1_1756_14870">
<rect width="17" height="17" fill="white" transform="matrix(-1 0 0 1 33.5 146)"/>
</clipPath>
<clipPath id="clip2_1756_14870">
<rect width="17" height="17" fill="white" transform="matrix(-1 0 0 1 33 324)"/>
</clipPath>
</defs>
</svg>
