<svg width="220" height="41" viewBox="0 0 220 41" fill="none" xmlns="http://www.w3.org/2000/svg">
<path d="M14.0555 8.60262C14.0625 11.2714 14.0625 13.9402 14.0695 16.609C14.0765 18.9095 13.3225 21.1505 11.1903 22.3253C8.69335 23.6895 5.15484 23.3458 2.37033 23.0582C2.26512 23.0512 2.16692 23.0372 2.06873 23.0302C2.15991 21.1084 2.12484 19.169 2.03366 17.2542C1.91442 14.6591 3.48904 11.566 6.27356 11.1276C9.30005 10.6507 11.9303 10.328 13.3576 8.65873C13.4067 8.60963 13.4488 8.56053 13.4908 8.50442C13.7013 8.22036 13.9257 7.94331 14.1502 7.66626C14.08 7.96786 14.0555 8.28699 14.0555 8.60262Z" fill="#8807F7"/>
<path d="M4.91016 40.4383C6.99328 40.5716 9.09043 40.54 11.1771 40.5751C13.6109 40.6172 16.1008 40.9188 18.4505 40.4909C21.8206 39.8772 25.6116 37.6784 26.8636 34.4204C28.0244 31.4044 27.4773 27.8028 25.4784 25.2708C25.3381 25.0954 25.1908 24.9271 25.0295 24.7588C23.0095 22.5494 19.8743 21.3956 16.8969 21.7919C13.1901 22.2829 9.92509 25.1971 8.96418 28.8058C8.3645 31.0572 8.88703 33.456 8.53634 35.7495C8.24877 37.6503 6.62856 39.5967 4.91016 40.4383Z" fill="#8807F7"/>
<path d="M25.7406 0C25.5548 0.564618 25.7792 1.17833 26.0212 1.72191C29.1108 8.61656 37.3977 13.2808 37.1137 21.5607C36.9839 25.3061 35.1147 29.7073 31.99 31.9272C31.7621 32.0885 31.5552 32.2323 31.2886 32.306C30.6925 31.1908 30.6293 29.5565 30.1208 28.3256C29.4861 26.7825 28.6444 25.264 27.4696 24.0682C26.3438 22.9249 24.9341 22.2656 23.8083 21.1434C21.4446 18.7832 19.9542 15.5463 19.7578 12.2077C19.4702 7.44524 21.8514 2.72139 25.7406 0Z" fill="#8807F7"/>
<path d="M4.2275 16.6264C4.2275 16.6264 4.11878 14.5468 6.2475 14.652C6.251 14.652 7.02604 16.9245 4.2275 16.6264Z" fill="white" stroke="#8807F7" stroke-width="0.5" stroke-miterlimit="10"/>
<path d="M3.52799 34.2208C5.47644 34.2208 7.05597 32.6412 7.05597 30.6928C7.05597 28.7443 5.47644 27.1648 3.52799 27.1648C1.57953 27.1648 0 28.7443 0 30.6928C0 32.6412 1.57953 34.2208 3.52799 34.2208Z" fill="#8807F7"/>
<path d="M52.9423 28.3588V12.5825H63.5053V15.5648H56.4937V18.8657H62.7313V21.8479H56.4937V28.3588H52.9423ZM69.1788 28.3588H65.7868V16.3843H69.1788V28.3588ZM69.4975 12.924C69.4975 13.5463 69.2926 14.0395 68.8829 14.4037C68.4883 14.7528 68.0178 14.9273 67.4714 14.9273C66.9251 14.9273 66.447 14.7528 66.0372 14.4037C65.6426 14.0395 65.4453 13.5463 65.4453 12.924C65.4453 12.3018 65.6426 11.8161 66.0372 11.467C66.447 11.1028 66.9251 10.9207 67.4714 10.9207C68.0178 10.9207 68.4883 11.1028 68.8829 11.467C69.2926 11.8161 69.4975 12.3018 69.4975 12.924ZM72.3674 16.7941C72.9441 16.6271 73.6877 16.4754 74.5983 16.3388C75.5089 16.187 76.4651 16.1111 77.4667 16.1111C78.4836 16.1111 79.3259 16.2477 79.9937 16.5209C80.6766 16.7789 81.2154 17.1507 81.61 17.6364C82.0046 18.122 82.2854 18.6988 82.4523 19.3665C82.6192 20.0343 82.7027 20.778 82.7027 21.5975V28.3588H79.3107V22.0073C79.3107 20.9146 79.1665 20.1405 78.8782 19.6852C78.5898 19.2299 78.051 19.0023 77.2619 19.0023C77.019 19.0023 76.761 19.0175 76.4878 19.0478C76.2147 19.063 75.9718 19.0858 75.7594 19.1161V28.3588H72.3674V16.7941ZM90.3488 25.9912C90.6827 25.9912 91.0014 25.9836 91.3049 25.9684C91.6084 25.9532 91.8513 25.9305 92.0334 25.9001V23.3277C91.8968 23.2973 91.6919 23.267 91.4187 23.2366C91.1456 23.2063 90.8951 23.1911 90.6675 23.1911C90.3488 23.1911 90.0452 23.2138 89.7569 23.2594C89.4837 23.2897 89.2409 23.358 89.0284 23.4643C88.8159 23.5705 88.649 23.7147 88.5276 23.8968C88.4062 24.0789 88.3454 24.3066 88.3454 24.5797C88.3454 25.1109 88.52 25.4828 88.869 25.6952C89.2333 25.8925 89.7265 25.9912 90.3488 25.9912ZM90.0756 16.0656C91.0773 16.0656 91.912 16.1794 92.5798 16.4071C93.2475 16.6347 93.7787 16.961 94.1733 17.386C94.5831 17.8109 94.8714 18.3269 95.0384 18.934C95.2053 19.5411 95.2888 20.2164 95.2888 20.9601V28.0173C94.8032 28.1235 94.1278 28.2449 93.2627 28.3815C92.3976 28.5333 91.3504 28.6092 90.1211 28.6092C89.3471 28.6092 88.6414 28.5409 88.004 28.4043C87.3817 28.2677 86.8429 28.0476 86.3876 27.7441C85.9323 27.4254 85.5833 27.0156 85.3404 26.5148C85.0976 26.0139 84.9762 25.3993 84.9762 24.6708C84.9762 23.9727 85.1128 23.3808 85.386 22.8951C85.6743 22.4095 86.0538 22.0225 86.5242 21.7341C86.9947 21.4457 87.5335 21.2409 88.1406 21.1194C88.7476 20.9829 89.3775 20.9146 90.0301 20.9146C90.4702 20.9146 90.8572 20.9373 91.1911 20.9829C91.5402 21.0132 91.8209 21.0587 92.0334 21.1194V20.8007C92.0334 20.224 91.8589 19.7611 91.5098 19.4121C91.1607 19.063 90.5537 18.8885 89.6886 18.8885C89.1119 18.8885 88.5427 18.934 87.9812 19.0251C87.4197 19.1009 86.934 19.2148 86.5242 19.3665L86.0917 16.6347C86.289 16.574 86.5318 16.5133 86.8202 16.4526C87.1237 16.3767 87.45 16.316 87.7991 16.2705C88.1481 16.2098 88.5124 16.1642 88.8918 16.1339C89.2864 16.0884 89.681 16.0656 90.0756 16.0656ZM98.3561 16.7941C98.9328 16.6271 99.6764 16.4754 100.587 16.3388C101.498 16.187 102.454 16.1111 103.455 16.1111C104.472 16.1111 105.315 16.2477 105.982 16.5209C106.665 16.7789 107.204 17.1507 107.599 17.6364C107.993 18.122 108.274 18.6988 108.441 19.3665C108.608 20.0343 108.691 20.778 108.691 21.5975V28.3588H105.299V22.0073C105.299 20.9146 105.155 20.1405 104.867 19.6852C104.579 19.2299 104.04 19.0023 103.251 19.0023C103.008 19.0023 102.75 19.0175 102.477 19.0478C102.203 19.063 101.961 19.0858 101.748 19.1161V28.3588H98.3561V16.7941ZM111.193 22.3715C111.193 21.5065 111.329 20.6945 111.602 19.9357C111.891 19.1616 112.3 18.4939 112.832 17.9323C113.363 17.3556 114.008 16.9003 114.767 16.5664C115.526 16.2325 116.391 16.0656 117.362 16.0656C117.999 16.0656 118.584 16.1263 119.115 16.2477C119.646 16.3539 120.162 16.5133 120.663 16.7258L119.957 19.4348C119.638 19.3134 119.289 19.2072 118.91 19.1161C118.531 19.0251 118.106 18.9795 117.635 18.9795C116.633 18.9795 115.882 19.2906 115.381 19.9129C114.896 20.5351 114.653 21.3547 114.653 22.3715C114.653 23.4491 114.881 24.2838 115.336 24.8757C115.806 25.4676 116.618 25.7635 117.772 25.7635C118.181 25.7635 118.622 25.7256 119.092 25.6497C119.563 25.5738 119.995 25.4524 120.39 25.2855L120.868 28.0628C120.473 28.2298 119.98 28.3739 119.388 28.4953C118.796 28.6168 118.144 28.6775 117.43 28.6775C116.337 28.6775 115.397 28.5181 114.607 28.1994C113.818 27.8655 113.166 27.4178 112.65 26.8563C112.149 26.2947 111.777 25.6345 111.534 24.8757C111.306 24.1017 111.193 23.267 111.193 22.3715ZM126.536 28.3588H123.144V16.3843H126.536V28.3588ZM126.855 12.924C126.855 13.5463 126.65 14.0395 126.24 14.4037C125.846 14.7528 125.375 14.9273 124.829 14.9273C124.283 14.9273 123.804 14.7528 123.395 14.4037C123 14.0395 122.803 13.5463 122.803 12.924C122.803 12.3018 123 11.8161 123.395 11.467C123.804 11.1028 124.283 10.9207 124.829 10.9207C125.375 10.9207 125.846 11.1028 126.24 11.467C126.65 11.8161 126.855 12.3018 126.855 12.924ZM134.301 25.9912C134.634 25.9912 134.953 25.9836 135.257 25.9684C135.56 25.9532 135.803 25.9305 135.985 25.9001V23.3277C135.849 23.2973 135.644 23.267 135.371 23.2366C135.097 23.2063 134.847 23.1911 134.619 23.1911C134.301 23.1911 133.997 23.2138 133.709 23.2594C133.436 23.2897 133.193 23.358 132.98 23.4643C132.768 23.5705 132.601 23.7147 132.479 23.8968C132.358 24.0789 132.297 24.3066 132.297 24.5797C132.297 25.1109 132.472 25.4828 132.821 25.6952C133.185 25.8925 133.678 25.9912 134.301 25.9912ZM134.027 16.0656C135.029 16.0656 135.864 16.1794 136.532 16.4071C137.199 16.6347 137.731 16.961 138.125 17.386C138.535 17.8109 138.823 18.3269 138.99 18.934C139.157 19.5411 139.241 20.2164 139.241 20.9601V28.0173C138.755 28.1235 138.08 28.2449 137.215 28.3815C136.349 28.5333 135.302 28.6092 134.073 28.6092C133.299 28.6092 132.593 28.5409 131.956 28.4043C131.334 28.2677 130.795 28.0476 130.339 27.7441C129.884 27.4254 129.535 27.0156 129.292 26.5148C129.049 26.0139 128.928 25.3993 128.928 24.6708C128.928 23.9727 129.065 23.3808 129.338 22.8951C129.626 22.4095 130.006 22.0225 130.476 21.7341C130.947 21.4457 131.485 21.2409 132.092 21.1194C132.699 20.9829 133.329 20.9146 133.982 20.9146C134.422 20.9146 134.809 20.9373 135.143 20.9829C135.492 21.0132 135.773 21.0587 135.985 21.1194V20.8007C135.985 20.224 135.811 19.7611 135.462 19.4121C135.113 19.063 134.505 18.8885 133.64 18.8885C133.064 18.8885 132.495 18.934 131.933 19.0251C131.371 19.1009 130.886 19.2148 130.476 19.3665L130.044 16.6347C130.241 16.574 130.484 16.5133 130.772 16.4526C131.076 16.3767 131.402 16.316 131.751 16.2705C132.1 16.2098 132.464 16.1642 132.844 16.1339C133.238 16.0884 133.633 16.0656 134.027 16.0656ZM147.089 28.5864C146.102 28.5712 145.298 28.465 144.675 28.2677C144.068 28.0704 143.583 27.7972 143.218 27.4482C142.869 27.0839 142.627 26.6514 142.49 26.1505C142.369 25.6345 142.308 25.0578 142.308 24.4204V11.2394L145.7 10.693V23.7374C145.7 24.041 145.723 24.3142 145.768 24.557C145.814 24.7998 145.897 25.0047 146.019 25.1716C146.155 25.3386 146.345 25.4752 146.588 25.5814C146.831 25.6876 147.157 25.7559 147.567 25.7863L147.089 28.5864ZM162.401 28.6775C159.836 28.6775 157.879 27.9642 156.528 26.5375C155.192 25.1109 154.525 23.0848 154.525 20.4593C154.525 19.1541 154.729 17.993 155.139 16.9762C155.549 15.9442 156.111 15.0791 156.824 14.381C157.537 13.6677 158.387 13.1289 159.374 12.7646C160.36 12.4004 161.43 12.2183 162.583 12.2183C163.251 12.2183 163.858 12.2714 164.405 12.3776C164.951 12.4687 165.429 12.5825 165.839 12.7191C166.249 12.8405 166.59 12.9695 166.863 13.1061C167.136 13.2427 167.334 13.349 167.455 13.4248L166.431 16.2932C165.945 16.0352 165.376 15.8152 164.723 15.6331C164.086 15.4509 163.357 15.3599 162.538 15.3599C161.992 15.3599 161.453 15.4509 160.922 15.6331C160.406 15.8152 159.943 16.1111 159.533 16.5209C159.138 16.9155 158.82 17.4315 158.577 18.0689C158.334 18.7063 158.212 19.4804 158.212 20.391C158.212 21.1194 158.288 21.8024 158.44 22.4398C158.607 23.0621 158.865 23.6008 159.214 24.0561C159.578 24.5115 160.049 24.8757 160.626 25.1489C161.202 25.4069 161.9 25.5359 162.72 25.5359C163.236 25.5359 163.699 25.5055 164.109 25.4448C164.518 25.3841 164.883 25.3158 165.201 25.2399C165.52 25.1489 165.801 25.0502 166.044 24.944C166.287 24.8378 166.507 24.7391 166.704 24.648L167.683 27.4937C167.182 27.7972 166.476 28.0704 165.566 28.3132C164.655 28.5561 163.6 28.6775 162.401 28.6775ZM180.675 22.3488C180.675 23.2897 180.539 24.1548 180.265 24.944C179.992 25.718 179.598 26.3858 179.082 26.9473C178.566 27.4937 177.943 27.9186 177.215 28.2222C176.502 28.5257 175.697 28.6775 174.802 28.6775C173.922 28.6775 173.117 28.5257 172.389 28.2222C171.675 27.9186 171.061 27.4937 170.545 26.9473C170.029 26.3858 169.627 25.718 169.338 24.944C169.05 24.1548 168.906 23.2897 168.906 22.3488C168.906 21.4078 169.05 20.5503 169.338 19.7763C169.642 19.0023 170.052 18.3421 170.568 17.7957C171.099 17.2494 171.721 16.8244 172.434 16.5209C173.163 16.2174 173.952 16.0656 174.802 16.0656C175.667 16.0656 176.456 16.2174 177.169 16.5209C177.898 16.8244 178.52 17.2494 179.036 17.7957C179.552 18.3421 179.954 19.0023 180.243 19.7763C180.531 20.5503 180.675 21.4078 180.675 22.3488ZM177.215 22.3488C177.215 21.3016 177.002 20.482 176.578 19.8901C176.168 19.2831 175.576 18.9795 174.802 18.9795C174.028 18.9795 173.428 19.2831 173.003 19.8901C172.578 20.482 172.366 21.3016 172.366 22.3488C172.366 23.396 172.578 24.2307 173.003 24.8529C173.428 25.46 174.028 25.7635 174.802 25.7635C175.576 25.7635 176.168 25.46 176.578 24.8529C177.002 24.2307 177.215 23.396 177.215 22.3488ZM187.879 25.9912C188.213 25.9912 188.531 25.9836 188.835 25.9684C189.138 25.9532 189.381 25.9305 189.563 25.9001V23.3277C189.427 23.2973 189.222 23.267 188.949 23.2366C188.675 23.2063 188.425 23.1911 188.197 23.1911C187.879 23.1911 187.575 23.2138 187.287 23.2594C187.014 23.2897 186.771 23.358 186.558 23.4643C186.346 23.5705 186.179 23.7147 186.057 23.8968C185.936 24.0789 185.875 24.3066 185.875 24.5797C185.875 25.1109 186.05 25.4828 186.399 25.6952C186.763 25.8925 187.256 25.9912 187.879 25.9912ZM187.605 16.0656C188.607 16.0656 189.442 16.1794 190.11 16.4071C190.777 16.6347 191.309 16.961 191.703 17.386C192.113 17.8109 192.401 18.3269 192.568 18.934C192.735 19.5411 192.819 20.2164 192.819 20.9601V28.0173C192.333 28.1235 191.658 28.2449 190.793 28.3815C189.928 28.5333 188.88 28.6092 187.651 28.6092C186.877 28.6092 186.171 28.5409 185.534 28.4043C184.912 28.2677 184.373 28.0476 183.918 27.7441C183.462 27.4254 183.113 27.0156 182.87 26.5148C182.627 26.0139 182.506 25.3993 182.506 24.6708C182.506 23.9727 182.643 23.3808 182.916 22.8951C183.204 22.4095 183.584 22.0225 184.054 21.7341C184.525 21.4457 185.063 21.2409 185.67 21.1194C186.278 20.9829 186.907 20.9146 187.56 20.9146C188 20.9146 188.387 20.9373 188.721 20.9829C189.07 21.0132 189.351 21.0587 189.563 21.1194V20.8007C189.563 20.224 189.389 19.7611 189.04 19.4121C188.691 19.063 188.084 18.8885 187.218 18.8885C186.642 18.8885 186.073 18.934 185.511 19.0251C184.95 19.1009 184.464 19.2148 184.054 19.3665L183.622 16.6347C183.819 16.574 184.062 16.5133 184.35 16.4526C184.654 16.3767 184.98 16.316 185.329 16.2705C185.678 16.2098 186.042 16.1642 186.422 16.1339C186.816 16.0884 187.211 16.0656 187.605 16.0656ZM195.317 22.3715C195.317 21.5065 195.453 20.6945 195.727 19.9357C196.015 19.1616 196.425 18.4939 196.956 17.9323C197.487 17.3556 198.132 16.9003 198.891 16.5664C199.65 16.2325 200.515 16.0656 201.486 16.0656C202.124 16.0656 202.708 16.1263 203.239 16.2477C203.77 16.3539 204.286 16.5133 204.787 16.7258L204.081 19.4348C203.763 19.3134 203.414 19.2072 203.034 19.1161C202.655 19.0251 202.23 18.9795 201.759 18.9795C200.758 18.9795 200.006 19.2906 199.506 19.9129C199.02 20.5351 198.777 21.3547 198.777 22.3715C198.777 23.4491 199.005 24.2838 199.46 24.8757C199.931 25.4676 200.742 25.7635 201.896 25.7635C202.306 25.7635 202.746 25.7256 203.216 25.6497C203.687 25.5738 204.119 25.4524 204.514 25.2855L204.992 28.0628C204.597 28.2298 204.104 28.3739 203.512 28.4953C202.92 28.6168 202.268 28.6775 201.554 28.6775C200.462 28.6775 199.521 28.5181 198.732 28.1994C197.942 27.8655 197.29 27.4178 196.774 26.8563C196.273 26.2947 195.901 25.6345 195.658 24.8757C195.431 24.1017 195.317 23.267 195.317 22.3715ZM207.268 28.3588V11.2394L210.66 10.693V16.4298C210.888 16.3539 211.176 16.2857 211.526 16.2249C211.89 16.1491 212.239 16.1111 212.573 16.1111C213.544 16.1111 214.348 16.2477 214.986 16.5209C215.638 16.7789 216.154 17.1507 216.534 17.6364C216.928 18.122 217.202 18.6988 217.353 19.3665C217.52 20.0343 217.604 20.778 217.604 21.5975V28.3588H214.212V22.0073C214.212 20.9146 214.068 20.1405 213.779 19.6852C213.506 19.2299 212.99 19.0023 212.231 19.0023C211.928 19.0023 211.639 19.0326 211.366 19.0934C211.108 19.1389 210.873 19.192 210.66 19.2527V28.3588H207.268Z" fill="#3D0072"/>
</svg>
