<svg width="78" height="79" viewBox="0 0 78 79" fill="none" xmlns="http://www.w3.org/2000/svg">
<g filter="url(#filter0_d_1542_14503)">
<rect x="9.10156" y="6.21423" width="59.697" height="59.697" rx="8.86067" fill="#FFD4E2" shape-rendering="crispEdges"/>
<path d="M40.8777 27.4017C42.8714 27.8448 44.5254 28.8637 45.8397 30.4587C47.154 32.0536 47.8112 33.9217 47.8112 36.063C47.8112 37.4069 47.5415 38.6474 47.0022 39.7845C46.4635 40.9217 45.7289 41.8963 44.7986 42.7086H46.0391C46.2901 42.7086 46.5004 42.7936 46.6699 42.9637C46.8401 43.1333 46.9251 43.3436 46.9251 43.5946C46.9251 43.8457 46.8401 44.056 46.6699 44.2255C46.5004 44.3956 46.2901 44.4807 46.0391 44.4807H42.4948C42.2437 44.4807 42.0334 44.3956 41.8639 44.2255C41.6938 44.056 41.6087 43.8457 41.6087 43.5946V40.0504C41.6087 39.7993 41.6938 39.5887 41.8639 39.4186C42.0334 39.2491 42.2437 39.1643 42.4948 39.1643C42.7458 39.1643 42.9561 39.2491 43.1257 39.4186C43.2958 39.5887 43.3809 39.7993 43.3809 40.0504V41.5788C44.1931 40.9143 44.8393 40.1094 45.3196 39.1643C45.7992 38.2191 46.0391 37.1854 46.0391 36.063C46.0391 34.3648 45.5186 32.8841 44.4778 31.6212C43.4364 30.3588 42.1256 29.5431 40.5454 29.1739C40.3387 29.1296 40.1689 29.0262 40.036 28.8637C39.903 28.7013 39.8366 28.5167 39.8366 28.31C39.8366 28.0146 39.94 27.7709 40.1467 27.579C40.3535 27.387 40.5971 27.3279 40.8777 27.4017ZM37.0233 44.7244C35.0297 44.2813 33.3757 43.2623 32.0613 41.6674C30.747 40.0725 30.0898 38.2044 30.0898 36.063C30.0898 34.7192 30.3595 33.4787 30.8988 32.3416C31.4376 31.2044 32.1721 30.2298 33.1025 29.4175H31.862C31.6109 29.4175 31.4006 29.3325 31.2311 29.1624C31.061 28.9928 30.9759 28.7825 30.9759 28.5315C30.9759 28.2804 31.061 28.0698 31.2311 27.8997C31.4006 27.7302 31.6109 27.6454 31.862 27.6454H35.4062C35.6573 27.6454 35.8679 27.7302 36.038 27.8997C36.2076 28.0698 36.2923 28.2804 36.2923 28.5315V32.0757C36.2923 32.3268 36.2076 32.5374 36.038 32.7075C35.8679 32.877 35.6573 32.9618 35.4062 32.9618C35.1552 32.9618 34.9446 32.877 34.7745 32.7075C34.6049 32.5374 34.5202 32.3268 34.5202 32.0757V30.5473C33.708 31.1971 33.0617 31.9984 32.5815 32.9512C32.1018 33.9034 31.862 34.9407 31.862 36.063C31.862 37.7613 32.3827 39.2417 33.4241 40.504C34.465 41.767 35.7754 42.583 37.3556 42.9522C37.5623 42.9965 37.7322 43.0999 37.8651 43.2623C37.998 43.4248 38.0645 43.6094 38.0645 43.8161C38.0645 44.1115 37.9611 44.3552 37.7543 44.5471C37.5476 44.7391 37.3039 44.7982 37.0233 44.7244ZM37.6879 39.7624C37.5697 39.7624 37.459 39.7441 37.3556 39.7074C37.2522 39.6702 37.1562 39.6073 37.0676 39.5187L34.5645 36.9934C34.402 36.831 34.3173 36.6278 34.3102 36.3838C34.3025 36.1404 34.3873 35.9301 34.5645 35.7529C34.7269 35.5905 34.9337 35.5093 35.1847 35.5093C35.4358 35.5093 35.6425 35.5905 35.805 35.7529L37.6879 37.6358L42.0961 33.2276C42.2733 33.0504 42.48 32.9654 42.7163 32.9724C42.9526 32.9801 43.1593 33.0726 43.3366 33.2498C43.499 33.427 43.5841 33.6337 43.5917 33.87C43.5988 34.1063 43.5138 34.3131 43.3366 34.4903L38.3081 39.5187C38.2195 39.6073 38.1235 39.6702 38.0201 39.7074C37.9168 39.7441 37.806 39.7624 37.6879 39.7624Z" fill="#E8356D"/>
</g>
<defs>
<filter id="filter0_d_1542_14503" x="0.240889" y="0.897829" width="77.4186" height="77.4183" filterUnits="userSpaceOnUse" color-interpolation-filters="sRGB">
<feFlood flood-opacity="0" result="BackgroundImageFix"/>
<feColorMatrix in="SourceAlpha" type="matrix" values="0 0 0 0 0 0 0 0 0 0 0 0 0 0 0 0 0 0 127 0" result="hardAlpha"/>
<feOffset dy="3.54427"/>
<feGaussianBlur stdDeviation="4.43034"/>
<feComposite in2="hardAlpha" operator="out"/>
<feColorMatrix type="matrix" values="0 0 0 0 0.533333 0 0 0 0 0.027451 0 0 0 0 0.968627 0 0 0 0.07 0"/>
<feBlend mode="normal" in2="BackgroundImageFix" result="effect1_dropShadow_1542_14503"/>
<feBlend mode="normal" in="SourceGraphic" in2="effect1_dropShadow_1542_14503" result="shape"/>
</filter>
</defs>
</svg>
