<svg width="358" height="331" viewBox="0 0 358 331" fill="none" xmlns="http://www.w3.org/2000/svg">
<rect opacity="0.9" width="358" height="331" rx="20" fill="#250144"/>
<path d="M159.521 197.561C157.732 197.561 156.201 196.924 154.928 195.651C153.653 194.376 153.016 192.844 153.016 191.055V158.528C153.016 156.739 153.653 155.207 154.928 153.932C156.201 152.659 157.732 152.022 159.521 152.022H162.774V145.517C162.774 141.017 164.36 137.181 167.533 134.008C170.703 130.838 174.538 129.253 179.038 129.253C183.537 129.253 187.373 130.838 190.546 134.008C193.716 137.181 195.301 141.017 195.301 145.517V152.022H198.554C200.343 152.022 201.875 152.659 203.15 153.932C204.423 155.207 205.06 156.739 205.06 158.528V191.055C205.06 192.844 204.423 194.376 203.15 195.651C201.875 196.924 200.343 197.561 198.554 197.561H159.521ZM179.038 181.297C180.827 181.297 182.359 180.66 183.634 179.388C184.907 178.112 185.543 176.58 185.543 174.791C185.543 173.002 184.907 171.47 183.634 170.195C182.359 168.922 180.827 168.286 179.038 168.286C177.249 168.286 175.718 168.922 174.445 170.195C173.17 171.47 172.532 173.002 172.532 174.791C172.532 176.58 173.17 178.112 174.445 179.388C175.718 180.66 177.249 181.297 179.038 181.297ZM169.279 152.022H188.796V145.517C188.796 142.806 187.847 140.502 185.95 138.605C184.052 136.707 181.748 135.758 179.038 135.758C176.327 135.758 174.023 136.707 172.126 138.605C170.228 140.502 169.279 142.806 169.279 145.517V152.022Z" fill="white"/>
</svg>
