<svg width="468" height="31" viewBox="0 0 468 31" fill="none" xmlns="http://www.w3.org/2000/svg">
<rect y="10.3867" width="459.871" height="4.64516" rx="2.32258" fill="#F0FDF4"/>
<rect y="10" width="452" height="5" rx="2.5" fill="#22C55E"/>
<g filter="url(#filter0_d_7629_105662)">
<circle cx="452.905" cy="12.7097" r="8.70968" fill="white"/>
</g>
<g clip-path="url(#clip0_7629_105662)">
<path d="M453.784 10.26C453.938 10.334 454.072 10.4436 454.175 10.5797C454.252 10.6795 454.312 10.7919 454.351 10.9118L454.527 11.4512C454.539 11.4877 454.561 11.5203 454.59 11.5453C454.619 11.5704 454.655 11.5871 454.692 11.5936C454.736 11.6013 454.781 11.5952 454.821 11.5761C454.861 11.557 454.894 11.5259 454.915 11.4871L454.914 11.485C454.92 11.4737 454.925 11.462 454.929 11.4498L455.105 10.9107C455.159 10.7467 455.252 10.5977 455.374 10.4755C455.496 10.3534 455.645 10.2615 455.809 10.2071L456.349 10.0319C456.39 10.0171 456.426 9.98986 456.451 9.95388C456.477 9.9179 456.49 9.87495 456.49 9.83092C456.49 9.78688 456.477 9.74393 456.451 9.70795C456.426 9.67197 456.39 9.64473 456.349 9.62997L456.338 9.62715L455.798 9.45194C455.634 9.39746 455.485 9.3055 455.363 9.18335C455.241 9.06121 455.149 8.91224 455.094 8.74828L454.919 8.2089C454.904 8.16726 454.877 8.13117 454.841 8.10565C454.805 8.08012 454.762 8.06641 454.718 8.06641C454.674 8.06641 454.631 8.08012 454.595 8.10565C454.559 8.13117 454.532 8.16726 454.517 8.2089L454.341 8.74828L454.337 8.76168C454.299 8.87206 454.244 8.97581 454.174 9.06909L454.172 9.06838C454.039 9.2448 453.856 9.37748 453.647 9.44947L453.107 9.62574C453.068 9.63853 453.034 9.66242 453.008 9.6945C452.983 9.72658 452.967 9.76545 452.963 9.80636C452.959 9.84728 452.967 9.88846 452.986 9.92488C453.005 9.96129 453.034 9.99136 453.07 10.0114C453.082 10.0185 453.095 10.0245 453.108 10.029L453.648 10.2043C453.694 10.2198 453.74 10.2384 453.784 10.26ZM455.446 11.8887C455.453 11.8735 455.463 11.8598 455.476 11.8486C455.488 11.8374 455.503 11.8289 455.519 11.8234L455.843 11.718C455.94 11.6845 456.028 11.629 456.1 11.5558C456.172 11.4826 456.227 11.3937 456.259 11.296L456.364 10.9724C456.373 10.9475 456.389 10.926 456.411 10.9108C456.433 10.8955 456.458 10.8873 456.485 10.8873C456.511 10.8873 456.537 10.8955 456.559 10.9108C456.58 10.926 456.596 10.9475 456.605 10.9724L456.71 11.296C456.743 11.3944 456.798 11.4838 456.872 11.5571C456.945 11.6303 457.035 11.6854 457.133 11.718L457.457 11.8234L457.463 11.8249C457.488 11.8335 457.51 11.8498 457.526 11.8714C457.541 11.893 457.549 11.9189 457.549 11.9454C457.549 11.9719 457.541 11.9978 457.526 12.0194C457.51 12.041 457.488 12.0573 457.463 12.066L457.139 12.1714C457.004 12.2164 456.886 12.3038 456.804 12.4206V12.4224C456.767 12.4753 456.738 12.5331 456.717 12.5948L456.612 12.9184C456.603 12.9433 456.586 12.9648 456.565 12.9801C456.543 12.9953 456.518 13.0035 456.491 13.0035C456.465 13.0035 456.439 12.9953 456.417 12.9801C456.396 12.9648 456.379 12.9433 456.371 12.9184L456.265 12.5948C456.232 12.4961 456.177 12.4065 456.103 12.333C456.03 12.2596 455.94 12.2043 455.842 12.1717L455.518 12.066C455.501 12.06 455.485 12.0504 455.472 12.038C455.459 12.0255 455.449 12.0104 455.442 11.9937C455.435 11.977 455.432 11.959 455.433 11.9409C455.433 11.9229 455.438 11.9052 455.446 11.889V11.8887ZM452.613 17.2327C454.881 17.2327 456.732 15.4489 456.839 13.2075C456.781 13.2673 456.71 13.3113 456.63 13.3353C456.551 13.3592 456.467 13.3622 456.386 13.344C456.305 13.3258 456.231 13.287 456.169 13.2314C456.108 13.1758 456.062 13.1053 456.036 13.0266L455.93 12.7044C455.915 12.6585 455.889 12.6166 455.855 12.5822C455.821 12.5477 455.779 12.5215 455.734 12.5056L455.401 12.3977C455.307 12.3646 455.226 12.3032 455.169 12.2221C455.112 12.1409 455.081 12.044 455.081 11.9447C455.082 11.8967 455.09 11.8491 455.104 11.8033C455.034 11.8652 454.95 11.9086 454.859 11.9298C454.768 11.951 454.673 11.9493 454.583 11.9249C454.493 11.9004 454.41 11.8539 454.343 11.7897C454.275 11.7254 454.224 11.6453 454.195 11.5566L454.019 11.0186C453.982 10.9064 453.92 10.8046 453.836 10.7214C453.753 10.6382 453.652 10.5753 453.541 10.5377L452.993 10.3615C452.91 10.3327 452.835 10.285 452.774 10.2222C452.713 10.1594 452.667 10.0833 452.641 9.9998C452.614 9.91633 452.607 9.82783 452.621 9.7413C452.635 9.65477 452.668 9.5726 452.719 9.5013C452.789 9.40364 452.887 9.33032 453.001 9.29189L453.534 9.1188C453.64 9.08213 453.736 9.02291 453.816 8.94535C453.426 8.82992 453.021 8.77151 452.613 8.7719C450.277 8.7719 448.383 10.6661 448.383 13.0023C448.383 15.3386 450.277 17.2327 452.613 17.2327ZM453.847 12.6498C453.707 12.6498 453.572 12.5941 453.473 12.4949C453.374 12.3957 453.318 12.2612 453.318 12.121C453.318 11.9807 453.374 11.8462 453.473 11.7471C453.572 11.6479 453.707 11.5922 453.847 11.5922C453.987 11.5922 454.122 11.6479 454.221 11.7471C454.32 11.8462 454.376 11.9807 454.376 12.121C454.376 12.2612 454.32 12.3957 454.221 12.4949C454.122 12.5941 453.987 12.6498 453.847 12.6498ZM451.908 12.121C451.908 12.2612 451.852 12.3957 451.753 12.4949C451.654 12.5941 451.52 12.6498 451.379 12.6498C451.239 12.6498 451.105 12.5941 451.005 12.4949C450.906 12.3957 450.851 12.2612 450.851 12.121C450.851 11.9807 450.906 11.8462 451.005 11.7471C451.105 11.6479 451.239 11.5922 451.379 11.5922C451.52 11.5922 451.654 11.6479 451.753 11.7471C451.852 11.8462 451.908 11.9807 451.908 12.121ZM450.614 14.1057C450.671 14.0664 450.742 14.0516 450.811 14.0644C450.88 14.0773 450.941 14.1169 450.98 14.1745L450.983 14.1787L450.999 14.1995C451.014 14.2186 451.038 14.2475 451.071 14.2834C451.136 14.355 451.237 14.4526 451.373 14.5503C451.644 14.7452 452.053 14.9413 452.613 14.9413C453.173 14.9413 453.583 14.7452 453.853 14.5503C453.99 14.4526 454.09 14.355 454.156 14.2834C454.187 14.2499 454.216 14.215 454.243 14.1787L454.246 14.1752C454.285 14.1172 454.346 14.0773 454.415 14.0643C454.484 14.0512 454.555 14.0661 454.613 14.1056C454.671 14.1451 454.711 14.206 454.724 14.2749C454.737 14.3438 454.722 14.4151 454.683 14.4731L454.682 14.4734V14.4741L454.681 14.4752L454.679 14.4787L454.676 14.483L454.671 14.49C454.632 14.5424 454.59 14.5927 454.546 14.6409C454.43 14.7664 454.301 14.8798 454.162 14.9793C453.82 15.2258 453.305 15.4701 452.613 15.4701C451.922 15.4701 451.406 15.2254 451.064 14.9797C450.925 14.88 450.797 14.7663 450.681 14.6405C450.634 14.5891 450.589 14.5352 450.548 14.4791L450.545 14.4756L450.545 14.4741L450.544 14.4734L450.544 14.4731C450.504 14.4151 450.49 14.3439 450.503 14.275C450.516 14.2061 450.556 14.1452 450.614 14.1057Z" fill="#22C55E"/>
</g>
<g filter="url(#filter1_d_7629_105662)">
<circle cx="95.8034" cy="12.7097" r="8.70968" fill="white"/>
</g>
<g clip-path="url(#clip1_7629_105662)">
<path d="M95.8027 17.3553C97.1116 17.3553 98.367 16.8354 99.2926 15.9098C100.218 14.9842 100.738 13.7288 100.738 12.4199C100.738 11.1109 100.218 9.85553 99.2926 8.92994C98.367 8.00436 97.1116 7.48438 95.8027 7.48438C94.4937 7.48438 93.2383 8.00436 92.3128 8.92994C91.3872 9.85553 90.8672 11.1109 90.8672 12.4199C90.8672 13.7288 91.3872 14.9842 92.3128 15.9098C93.2383 16.8354 94.4937 17.3553 95.8027 17.3553ZM95.1857 11.4945C95.1857 12.0053 94.9093 12.4199 94.5688 12.4199C94.2283 12.4199 93.9519 12.0053 93.9519 11.4945C93.9519 10.9836 94.2283 10.5691 94.5688 10.5691C94.9093 10.5691 95.1857 10.9836 95.1857 11.4945ZM93.5108 15.1547C93.4399 15.1138 93.3882 15.0465 93.367 14.9674C93.3459 14.8884 93.357 14.8042 93.3979 14.7334C93.6415 14.3112 93.992 13.9606 94.4142 13.7169C94.8363 13.4732 95.3152 13.345 95.8027 13.3453C96.2901 13.3452 96.7689 13.4734 97.1911 13.7171C97.6132 13.9607 97.9638 14.3112 98.2075 14.7334C98.2477 14.8042 98.2584 14.888 98.237 14.9667C98.2157 15.0453 98.1641 15.1122 98.0936 15.153C98.023 15.1937 97.9392 15.2049 97.8605 15.1841C97.7817 15.1632 97.7144 15.1121 97.6732 15.0418C97.4838 14.7134 97.2111 14.4407 96.8827 14.2512C96.5543 14.0616 96.1818 13.962 95.8027 13.9622C95.4235 13.962 95.051 14.0616 94.7226 14.2512C94.3942 14.4407 94.1216 14.7134 93.9321 15.0418C93.8912 15.1127 93.8238 15.1644 93.7448 15.1855C93.6658 15.2067 93.5816 15.1956 93.5108 15.1547ZM97.0365 12.4199C96.696 12.4199 96.4196 12.0053 96.4196 11.4945C96.4196 10.9836 96.696 10.5691 97.0365 10.5691C97.3771 10.5691 97.6535 10.9836 97.6535 11.4945C97.6535 12.0053 97.3771 12.4199 97.0365 12.4199Z" fill="#22C55E"/>
</g>
<g filter="url(#filter2_d_7629_105662)">
<circle cx="333.874" cy="13.2917" r="8.70968" fill="white"/>
</g>
<path d="M334.163 8.06641C336.889 8.06641 339.099 10.2763 339.099 13.0024C339.099 15.728 336.889 17.9374 334.163 17.9374C331.436 17.9379 329.227 15.728 329.227 13.0024C329.227 10.2763 331.436 8.06641 334.163 8.06641ZM332.417 14.3758C332.355 14.3012 332.267 14.2536 332.171 14.2433C332.074 14.233 331.978 14.2607 331.902 14.3206C331.826 14.3804 331.776 14.4676 331.764 14.5635C331.751 14.6595 331.777 14.7565 331.835 14.8338C332.112 15.1862 332.465 15.4711 332.869 15.6669C333.272 15.8627 333.714 15.9642 334.163 15.9639C335.08 15.9639 335.93 15.5429 336.488 14.8367C336.518 14.7986 336.54 14.7549 336.554 14.7081C336.567 14.6613 336.571 14.6124 336.565 14.5641C336.559 14.5159 336.544 14.4692 336.521 14.4267C336.497 14.3843 336.465 14.347 336.427 14.3168C336.389 14.2867 336.345 14.2644 336.298 14.2511C336.252 14.2379 336.203 14.234 336.154 14.2396C336.106 14.2453 336.059 14.2604 336.017 14.2841C335.975 14.3078 335.937 14.3396 335.907 14.3778C335.699 14.6417 335.434 14.855 335.132 15.0016C334.83 15.1481 334.498 15.224 334.163 15.2236C333.473 15.2236 332.835 14.9078 332.417 14.3758ZM332.682 11.3985C332.6 11.3962 332.518 11.4104 332.441 11.4403C332.364 11.4703 332.294 11.5153 332.235 11.5728C332.175 11.6303 332.128 11.6991 332.096 11.775C332.064 11.851 332.048 11.9327 332.048 12.0151C332.048 12.0976 332.064 12.1793 332.096 12.2552C332.128 12.3312 332.175 12.4 332.235 12.4575C332.294 12.5149 332.364 12.56 332.441 12.5899C332.518 12.6199 332.6 12.6341 332.682 12.6318C332.843 12.6272 332.995 12.5603 333.107 12.4451C333.219 12.33 333.281 12.1757 333.281 12.0151C333.281 11.8546 333.219 11.7003 333.107 11.5852C332.995 11.47 332.843 11.4031 332.682 11.3985ZM335.643 11.3985C335.561 11.3962 335.479 11.4104 335.402 11.4403C335.325 11.4703 335.255 11.5153 335.196 11.5728C335.136 11.6303 335.089 11.6991 335.057 11.775C335.025 11.851 335.009 11.9327 335.009 12.0151C335.009 12.0976 335.025 12.1793 335.057 12.2552C335.089 12.3312 335.136 12.4 335.196 12.4575C335.255 12.5149 335.325 12.56 335.402 12.5899C335.479 12.6199 335.561 12.6341 335.643 12.6318C335.804 12.6272 335.956 12.5603 336.068 12.4451C336.18 12.33 336.242 12.1757 336.242 12.0151C336.242 11.8546 336.18 11.7003 336.068 11.5852C335.956 11.47 335.804 11.4031 335.643 11.3985Z" fill="#22C55E"/>
<g filter="url(#filter3_d_7629_105662)">
<circle cx="214.842" cy="12.7097" r="8.70968" fill="white"/>
<circle cx="214.842" cy="12.7097" r="8.41936" stroke="#22C55E" stroke-width="0.580645"/>
</g>
<g clip-path="url(#clip2_7629_105662)">
<path d="M215.131 17.3553C216.44 17.3553 217.695 16.8354 218.621 15.9098C219.546 14.9842 220.066 13.7288 220.066 12.4199C220.066 11.1109 219.546 9.85553 218.621 8.92994C217.695 8.00436 216.44 7.48438 215.131 7.48438C213.822 7.48438 212.566 8.00436 211.641 8.92994C210.715 9.85553 210.195 11.1109 210.195 12.4199C210.195 13.7288 210.715 14.9842 211.641 15.9098C212.566 16.8354 213.822 17.3553 215.131 17.3553ZM212.972 11.186H214.205C214.287 11.186 214.366 11.2185 214.424 11.2763C214.481 11.3342 214.514 11.4126 214.514 11.4945C214.514 11.5763 214.481 11.6547 214.424 11.7126C214.366 11.7704 214.287 11.8029 214.205 11.8029H212.972C212.89 11.8029 212.811 11.7704 212.753 11.7126C212.696 11.6547 212.663 11.5763 212.663 11.4945C212.663 11.4126 212.696 11.3342 212.753 11.2763C212.811 11.2185 212.89 11.186 212.972 11.186ZM216.056 11.186H217.29C217.372 11.186 217.45 11.2185 217.508 11.2763C217.566 11.3342 217.599 11.4126 217.599 11.4945C217.599 11.5763 217.566 11.6547 217.508 11.7126C217.45 11.7704 217.372 11.8029 217.29 11.8029H216.056C215.974 11.8029 215.896 11.7704 215.838 11.7126C215.78 11.6547 215.748 11.5763 215.748 11.4945C215.748 11.4126 215.78 11.3342 215.838 11.2763C215.896 11.2185 215.974 11.186 216.056 11.186ZM212.972 13.6537H217.29C217.372 13.6537 217.45 13.6862 217.508 13.7441C217.566 13.8019 217.599 13.8804 217.599 13.9622C217.599 14.044 217.566 14.1225 217.508 14.1803C217.45 14.2382 217.372 14.2707 217.29 14.2707H212.972C212.89 14.2707 212.811 14.2382 212.753 14.1803C212.696 14.1225 212.663 14.044 212.663 13.9622C212.663 13.8804 212.696 13.8019 212.753 13.7441C212.811 13.6862 212.89 13.6537 212.972 13.6537Z" fill="#22C55E"/>
</g>
<defs>
<filter id="filter0_d_7629_105662" x="438.389" y="0.516129" width="29.0348" height="29.0309" filterUnits="userSpaceOnUse" color-interpolation-filters="sRGB">
<feFlood flood-opacity="0" result="BackgroundImageFix"/>
<feColorMatrix in="SourceAlpha" type="matrix" values="0 0 0 0 0 0 0 0 0 0 0 0 0 0 0 0 0 0 127 0" result="hardAlpha"/>
<feOffset dy="2.32258"/>
<feGaussianBlur stdDeviation="2.90323"/>
<feComposite in2="hardAlpha" operator="out"/>
<feColorMatrix type="matrix" values="0 0 0 0 0.533333 0 0 0 0 0.027451 0 0 0 0 0.968627 0 0 0 0.07 0"/>
<feBlend mode="normal" in2="BackgroundImageFix" result="effect1_dropShadow_7629_105662"/>
<feBlend mode="normal" in="SourceGraphic" in2="effect1_dropShadow_7629_105662" result="shape"/>
</filter>
<filter id="filter1_d_7629_105662" x="81.2873" y="0.516129" width="29.0348" height="29.0309" filterUnits="userSpaceOnUse" color-interpolation-filters="sRGB">
<feFlood flood-opacity="0" result="BackgroundImageFix"/>
<feColorMatrix in="SourceAlpha" type="matrix" values="0 0 0 0 0 0 0 0 0 0 0 0 0 0 0 0 0 0 127 0" result="hardAlpha"/>
<feOffset dy="2.32258"/>
<feGaussianBlur stdDeviation="2.90323"/>
<feComposite in2="hardAlpha" operator="out"/>
<feColorMatrix type="matrix" values="0 0 0 0 0.533333 0 0 0 0 0.027451 0 0 0 0 0.968627 0 0 0 0.07 0"/>
<feBlend mode="normal" in2="BackgroundImageFix" result="effect1_dropShadow_7629_105662"/>
<feBlend mode="normal" in="SourceGraphic" in2="effect1_dropShadow_7629_105662" result="shape"/>
</filter>
<filter id="filter2_d_7629_105662" x="319.358" y="1.09816" width="29.0348" height="29.0309" filterUnits="userSpaceOnUse" color-interpolation-filters="sRGB">
<feFlood flood-opacity="0" result="BackgroundImageFix"/>
<feColorMatrix in="SourceAlpha" type="matrix" values="0 0 0 0 0 0 0 0 0 0 0 0 0 0 0 0 0 0 127 0" result="hardAlpha"/>
<feOffset dy="2.32258"/>
<feGaussianBlur stdDeviation="2.90323"/>
<feComposite in2="hardAlpha" operator="out"/>
<feColorMatrix type="matrix" values="0 0 0 0 0.533333 0 0 0 0 0.027451 0 0 0 0 0.968627 0 0 0 0.07 0"/>
<feBlend mode="normal" in2="BackgroundImageFix" result="effect1_dropShadow_7629_105662"/>
<feBlend mode="normal" in="SourceGraphic" in2="effect1_dropShadow_7629_105662" result="shape"/>
</filter>
<filter id="filter3_d_7629_105662" x="200.326" y="0.516129" width="29.0348" height="29.0309" filterUnits="userSpaceOnUse" color-interpolation-filters="sRGB">
<feFlood flood-opacity="0" result="BackgroundImageFix"/>
<feColorMatrix in="SourceAlpha" type="matrix" values="0 0 0 0 0 0 0 0 0 0 0 0 0 0 0 0 0 0 127 0" result="hardAlpha"/>
<feOffset dy="2.32258"/>
<feGaussianBlur stdDeviation="2.90323"/>
<feComposite in2="hardAlpha" operator="out"/>
<feColorMatrix type="matrix" values="0 0 0 0 0.533333 0 0 0 0 0.027451 0 0 0 0 0.968627 0 0 0 0.07 0"/>
<feBlend mode="normal" in2="BackgroundImageFix" result="effect1_dropShadow_7629_105662"/>
<feBlend mode="normal" in="SourceGraphic" in2="effect1_dropShadow_7629_105662" result="shape"/>
</filter>
<clipPath id="clip0_7629_105662">
<rect width="9.87097" height="9.87097" fill="white" transform="translate(447.68 8.06641)"/>
</clipPath>
<clipPath id="clip1_7629_105662">
<rect width="9.87097" height="9.87097" fill="white" transform="translate(90.8672 7.48438)"/>
</clipPath>
<clipPath id="clip2_7629_105662">
<rect width="9.87097" height="9.87097" fill="white" transform="translate(210.195 7.48438)"/>
</clipPath>
</defs>
</svg>
