<svg width="46" height="42" viewBox="0 0 46 42" fill="none" xmlns="http://www.w3.org/2000/svg">
<rect x="0.101562" width="45.2656" height="41.2656" rx="4" fill="#EBEBEB"/>
<path d="M24.6332 13.669C26.3207 14.044 27.7207 14.9065 28.8332 16.2565C29.9457 17.6065 30.502 19.1877 30.502 21.0002C30.502 22.1377 30.2737 23.1877 29.8172 24.1502C29.3612 25.1127 28.7395 25.9377 27.952 26.6252H29.002C29.2145 26.6252 29.3925 26.6972 29.536 26.8412C29.68 26.9847 29.752 27.1627 29.752 27.3752C29.752 27.5877 29.68 27.7657 29.536 27.9092C29.3925 28.0532 29.2145 28.1252 29.002 28.1252H26.002C25.7895 28.1252 25.6115 28.0532 25.468 27.9092C25.324 27.7657 25.252 27.5877 25.252 27.3752V24.3752C25.252 24.1627 25.324 23.9845 25.468 23.8405C25.6115 23.697 25.7895 23.6252 26.002 23.6252C26.2145 23.6252 26.3925 23.697 26.536 23.8405C26.68 23.9845 26.752 24.1627 26.752 24.3752V25.669C27.4395 25.1065 27.9865 24.4252 28.393 23.6252C28.799 22.8252 29.002 21.9502 29.002 21.0002C29.002 19.5627 28.5615 18.3095 27.6805 17.2405C26.799 16.172 25.6895 15.4815 24.352 15.169C24.177 15.1315 24.0332 15.044 23.9207 14.9065C23.8082 14.769 23.752 14.6127 23.752 14.4377C23.752 14.1877 23.8395 13.9815 24.0145 13.819C24.1895 13.6565 24.3957 13.6065 24.6332 13.669ZM21.3707 28.3315C19.6832 27.9565 18.2832 27.094 17.1707 25.744C16.0582 24.394 15.502 22.8127 15.502 21.0002C15.502 19.8627 15.7302 18.8127 16.1867 17.8502C16.6427 16.8877 17.2645 16.0627 18.052 15.3752H17.002C16.7895 15.3752 16.6115 15.3032 16.468 15.1592C16.324 15.0157 16.252 14.8377 16.252 14.6252C16.252 14.4127 16.324 14.2345 16.468 14.0905C16.6115 13.947 16.7895 13.8752 17.002 13.8752H20.002C20.2145 13.8752 20.3927 13.947 20.5367 14.0905C20.6802 14.2345 20.752 14.4127 20.752 14.6252V17.6252C20.752 17.8377 20.6802 18.016 20.5367 18.16C20.3927 18.3035 20.2145 18.3752 20.002 18.3752C19.7895 18.3752 19.6112 18.3035 19.4672 18.16C19.3237 18.016 19.252 17.8377 19.252 17.6252V16.3315C18.5645 16.8815 18.0175 17.5597 17.611 18.3662C17.205 19.1722 17.002 20.0502 17.002 21.0002C17.002 22.4377 17.4427 23.6907 18.3242 24.7592C19.2052 25.8282 20.3145 26.519 21.652 26.8315C21.827 26.869 21.9707 26.9565 22.0832 27.094C22.1957 27.2315 22.252 27.3877 22.252 27.5627C22.252 27.8127 22.1645 28.019 21.9895 28.1815C21.8145 28.344 21.6082 28.394 21.3707 28.3315ZM21.9332 24.1315C21.8332 24.1315 21.7395 24.116 21.652 24.085C21.5645 24.0535 21.4832 24.0002 21.4082 23.9252L19.2895 21.7877C19.152 21.6502 19.0802 21.4782 19.0742 21.2717C19.0677 21.0657 19.1395 20.8877 19.2895 20.7377C19.427 20.6002 19.602 20.5315 19.8145 20.5315C20.027 20.5315 20.202 20.6002 20.3395 20.7377L21.9332 22.3315L25.6645 18.6002C25.8145 18.4502 25.9895 18.3782 26.1895 18.3842C26.3895 18.3907 26.5645 18.469 26.7145 18.619C26.852 18.769 26.924 18.944 26.9305 19.144C26.9365 19.344 26.8645 19.519 26.7145 19.669L22.4582 23.9252C22.3832 24.0002 22.302 24.0535 22.2145 24.085C22.127 24.116 22.0332 24.1315 21.9332 24.1315Z" fill="#3D0072"/>
</svg>
