<svg width="42" height="46" viewBox="0 0 42 46" fill="none" xmlns="http://www.w3.org/2000/svg">
<ellipse cx="21" cy="23" rx="21" ry="23" fill="#8807F7"/>
<path d="M18.6899 23.164L17.7474 16.9998C19.862 16.3282 22.1328 16.3282 24.2474 16.9998L23.3049 23.164C23.2291 23.6948 22.7632 24.0848 22.2216 24.0848H19.7624C19.503 24.0852 19.2521 23.9924 19.0553 23.8234C18.8585 23.6545 18.7288 23.4205 18.6899 23.164ZM31.8307 27.3348C31.8307 26.479 31.3216 25.7098 30.5307 25.3523C30.0094 22.8475 28.5328 20.6442 26.4141 19.2098L24.5074 24.4532C24.3557 24.8865 23.9441 25.1682 23.4891 25.1682H18.5057C18.0507 25.1682 17.6391 24.8865 17.4874 24.4532L15.5807 19.2098C13.4648 20.642 11.9885 22.8408 11.4641 25.3415C10.6732 25.7098 10.1641 26.4682 10.1641 27.3348L17.1516 29.3282C17.5416 29.4365 17.9424 29.5015 18.3432 29.5015H23.6299C24.0307 29.5015 24.4316 29.4365 24.8216 29.3282L31.8307 27.3348Z" fill="white"/>
</svg>
