<svg width="48" height="48" viewBox="0 0 48 48" fill="none" xmlns="http://www.w3.org/2000/svg">
<circle cx="24" cy="24" r="24" fill="#DCFCE7"/>
<path d="M36.1878 12.825C35.9287 12.5629 35.62 12.355 35.2798 12.2133C34.9395 12.0717 34.5745 11.9992 34.2059 12H26.5228C26.0188 12.0009 25.5355 12.2006 25.1778 12.5556L9.81844 27.9119C9.29434 28.4371 9 29.1487 9 29.8906C9 30.6326 9.29434 31.3442 9.81844 31.8694L17.1309 39.1819C17.6562 39.7062 18.3681 40.0007 19.1103 40.0007C19.8525 40.0007 20.5644 39.7062 21.0897 39.1819L36.4428 23.8319C36.7986 23.4747 36.9989 22.9916 37.0003 22.4875V14.8C37.0026 14.4334 36.9319 14.07 36.7924 13.7309C36.6529 13.3918 36.4474 13.0839 36.1878 12.825ZM31.0003 20C30.6047 20 30.2181 19.8827 29.8892 19.6629C29.5603 19.4432 29.3039 19.1308 29.1526 18.7654C29.0012 18.3999 28.9616 17.9978 29.0387 17.6098C29.1159 17.2219 29.3064 16.8655 29.5861 16.5858C29.8658 16.3061 30.2222 16.1156 30.6101 16.0384C30.9981 15.9613 31.4002 16.0009 31.7657 16.1522C32.1311 16.3036 32.4435 16.56 32.6632 16.8889C32.883 17.2178 33.0003 17.6044 33.0003 18C33.0003 18.5304 32.7896 19.0391 32.4145 19.4142C32.0395 19.7893 31.5307 20 31.0003 20Z" fill="#22C55E"/>
</svg>
