<svg width="451" height="230" viewBox="0 0 451 230" fill="none" xmlns="http://www.w3.org/2000/svg">
<rect width="451" height="230" rx="10" fill="#F0FDF4"/>
<path d="M422.055 27C435.142 4.3333 467.858 4.33333 480.945 27L520.349 95.25C533.436 117.917 517.077 146.25 490.904 146.25H412.096C385.923 146.25 369.564 117.917 382.651 95.25L422.055 27Z" fill="url(#paint0_linear_8340_108119)"/>
<path d="M-46.9448 105C-33.8582 82.3333 -1.14174 82.3333 11.9449 105L51.349 173.25C64.4356 195.917 48.0774 224.25 21.9042 224.25H-56.9042C-83.0774 224.25 -99.4356 195.917 -86.349 173.25L-46.9448 105Z" fill="url(#paint1_linear_8340_108119)"/>
<defs>
<linearGradient id="paint0_linear_8340_108119" x1="451.5" y1="-24" x2="451.5" y2="203" gradientUnits="userSpaceOnUse">
<stop stop-color="white"/>
<stop offset="1" stop-color="white" stop-opacity="0"/>
</linearGradient>
<linearGradient id="paint1_linear_8340_108119" x1="-17.5" y1="54" x2="-17.5" y2="281" gradientUnits="userSpaceOnUse">
<stop stop-color="white"/>
<stop offset="1" stop-color="white" stop-opacity="0"/>
</linearGradient>
</defs>
</svg>
