<svg width="197" height="197" viewBox="0 0 197 197" fill="none" xmlns="http://www.w3.org/2000/svg">
<circle cx="98.5" cy="98.5" r="98.5" fill="#E7CDFE"/>
<path d="M132 94.75C132 85.7326 128.418 77.0846 122.042 70.7084C115.665 64.3321 107.017 60.75 98 60.75C88.9826 60.75 80.3346 64.3321 73.9584 70.7084C67.5821 77.0846 64 85.7326 64 94.75" stroke="#8807F7" stroke-width="6.375" stroke-linecap="round" stroke-linejoin="round"/>
<path d="M132 124.5V126.625C132 128.879 131.104 131.041 129.51 132.635C127.916 134.229 125.754 135.125 123.5 135.125H108.625M55.5 113.611V105.638C55.5003 103.743 56.1341 101.902 57.3007 100.408C58.4674 98.9142 60.0999 97.8531 61.9388 97.3934L69.3338 95.5404C69.7095 95.4468 70.1017 95.4401 70.4804 95.5206C70.8592 95.6012 71.2147 95.7669 71.5198 96.0053C71.825 96.2437 72.0719 96.5485 72.2417 96.8965C72.4115 97.2446 72.4999 97.6267 72.5 98.0139V121.232C72.5007 121.62 72.4128 122.003 72.243 122.352C72.0732 122.701 71.826 123.006 71.5202 123.245C71.2144 123.484 70.8582 123.65 70.4785 123.731C70.0989 123.811 69.7059 123.804 69.3295 123.709L61.9345 121.861C60.0964 121.4 58.4649 120.339 57.2991 118.845C56.1333 117.351 55.5 115.511 55.5 113.616V113.611ZM140.5 113.611V105.638C140.5 103.743 139.866 101.902 138.699 100.408C137.533 98.9142 135.9 97.8531 134.061 97.3934L126.666 95.5404C126.29 95.4468 125.898 95.4401 125.52 95.5206C125.141 95.6012 124.785 95.7669 124.48 96.0053C124.175 96.2437 123.928 96.5485 123.758 96.8965C123.588 97.2446 123.5 97.6267 123.5 98.0139V121.232C123.499 121.619 123.587 122.002 123.757 122.35C123.926 122.699 124.173 123.004 124.478 123.243C124.784 123.482 125.139 123.648 125.519 123.729C125.898 123.81 126.29 123.803 126.666 123.709L134.061 121.861C135.9 121.401 137.533 120.34 138.699 118.846C139.866 117.352 140.5 115.511 140.5 113.616V113.611Z" stroke="#8807F7" stroke-width="6.375"/>
<path d="M104.375 141.5H91.625C89.9342 141.5 88.3127 140.828 87.1172 139.633C85.9216 138.437 85.25 136.816 85.25 135.125C85.25 133.434 85.9216 131.813 87.1172 130.617C88.3127 129.422 89.9342 128.75 91.625 128.75H104.375C106.066 128.75 107.687 129.422 108.883 130.617C110.078 131.813 110.75 133.434 110.75 135.125C110.75 136.816 110.078 138.437 108.883 139.633C107.687 140.828 106.066 141.5 104.375 141.5Z" stroke="#8807F7" stroke-width="6.375"/>
</svg>
