<svg width="145" height="145" viewBox="0 0 145 145" fill="none" xmlns="http://www.w3.org/2000/svg">
<path d="M3.71731 93.2566C7.83104 106.925 15.9056 119.067 26.9201 128.147C37.9345 137.227 51.394 142.836 65.5966 144.267C79.7991 145.697 94.1069 142.883 106.71 136.182C119.314 129.481 129.647 119.193 136.404 106.618C143.16 94.0443 146.036 79.749 144.668 65.5403C143.3 51.3316 137.75 37.8476 128.718 26.7936C119.687 15.7395 107.58 7.61182 93.9297 3.43829C80.2791 -0.735248 65.6974 -0.767168 52.0286 3.34656L55.4649 14.7645C66.8754 11.3304 79.048 11.357 90.4434 14.841C101.839 18.3251 111.945 25.11 119.485 34.3378C127.024 43.5656 131.657 54.8218 132.799 66.683C133.942 78.5443 131.541 90.4778 125.9 100.975C120.26 111.471 111.634 120.06 101.113 125.654C90.5913 131.248 78.6474 133.597 66.7913 132.403C54.9351 131.209 43.6993 126.526 34.5046 118.946C25.3099 111.367 18.5693 101.231 15.1352 89.8203L3.71731 93.2566Z" fill="#3D0072" fill-opacity="0.26"/>
<path d="M145 72.4578C145 112.318 112.687 144.63 72.8275 144.63C32.9676 144.63 0.6548 112.318 0.6548 72.4578C0.6548 32.598 32.9676 0.285156 72.8275 0.285156C112.687 0.285156 145 32.598 145 72.4578ZM12.5786 72.4578C12.5786 105.732 39.5529 132.707 72.8275 132.707C106.102 132.707 133.076 105.732 133.076 72.4578C133.076 39.1833 106.102 12.2089 72.8275 12.2089C39.5529 12.2089 12.5786 39.1833 12.5786 72.4578Z" fill="#22C55E"/>
<path d="M40.8494 67.7352C41.8766 67.3279 42.9039 66.8054 43.9311 66.1678C44.9761 65.5302 45.897 64.7775 46.694 63.9096H48.9522V82.3203H45.7376V68.2134C45.2594 68.5854 44.6573 68.9484 43.9311 69.3027C43.2049 69.6569 42.5054 69.9491 41.8323 70.1794L40.8494 67.7352ZM67.5052 73.1017C67.5052 76.2011 66.9385 78.5833 65.805 80.2481C64.6715 81.8952 63.104 82.7188 61.1027 82.7188C59.1013 82.7188 57.5339 81.8952 56.4004 80.2481C55.2669 78.5833 54.7001 76.2011 54.7001 73.1017C54.7001 71.5608 54.8418 70.1971 55.1252 69.0104C55.4263 67.8061 55.8514 66.7965 56.4004 65.9818C56.9672 65.1671 57.6402 64.5472 58.4195 64.1222C59.2165 63.6971 60.1109 63.4846 61.1027 63.4846C63.104 63.4846 64.6715 64.317 65.805 65.9818C66.9385 67.629 67.5052 70.0023 67.5052 73.1017ZM64.1844 73.1017C64.1844 72.1453 64.1313 71.2509 64.025 70.4185C63.9188 69.586 63.7416 68.8687 63.4937 68.2666C63.2634 67.6467 62.9535 67.1596 62.5639 66.8054C62.1742 66.4512 61.6872 66.2741 61.1027 66.2741C60.5182 66.2741 60.0223 66.4512 59.615 66.8054C59.2253 67.1596 58.9065 67.6467 58.6586 68.2666C58.4283 68.8687 58.2601 69.586 58.1538 70.4185C58.0652 71.2509 58.021 72.1453 58.021 73.1017C58.021 74.0581 58.0652 74.9525 58.1538 75.7849C58.2601 76.6173 58.4283 77.3435 58.6586 77.9634C58.9065 78.5656 59.2253 79.0438 59.615 79.398C60.0223 79.7522 60.5182 79.9293 61.1027 79.9293C61.6872 79.9293 62.1742 79.7522 62.5639 79.398C62.9535 79.0438 63.2634 78.5656 63.4937 77.9634C63.7416 77.3435 63.9188 76.6173 64.025 75.7849C64.1313 74.9525 64.1844 74.0581 64.1844 73.1017ZM82.6046 73.1017C82.6046 76.2011 82.0379 78.5833 80.9044 80.2481C79.7709 81.8952 78.2034 82.7188 76.2021 82.7188C74.2007 82.7188 72.6333 81.8952 71.4998 80.2481C70.3663 78.5833 69.7995 76.2011 69.7995 73.1017C69.7995 71.5608 69.9412 70.1971 70.2246 69.0104C70.5257 67.8061 70.9507 66.7965 71.4998 65.9818C72.0665 65.1671 72.7396 64.5472 73.5189 64.1222C74.3159 63.6971 75.2103 63.4846 76.2021 63.4846C78.2034 63.4846 79.7709 64.317 80.9044 65.9818C82.0379 67.629 82.6046 70.0023 82.6046 73.1017ZM79.2838 73.1017C79.2838 72.1453 79.2307 71.2509 79.1244 70.4185C79.0181 69.586 78.841 68.8687 78.5931 68.2666C78.3628 67.6467 78.0529 67.1596 77.6632 66.8054C77.2736 66.4512 76.7865 66.2741 76.2021 66.2741C75.6176 66.2741 75.1217 66.4512 74.7144 66.8054C74.3247 67.1596 74.0059 67.6467 73.758 68.2666C73.5277 68.8687 73.3595 69.586 73.2532 70.4185C73.1646 71.2509 73.1204 72.1453 73.1204 73.1017C73.1204 74.0581 73.1646 74.9525 73.2532 75.7849C73.3595 76.6173 73.5277 77.3435 73.758 77.9634C74.0059 78.5656 74.3247 79.0438 74.7144 79.398C75.1217 79.7522 75.6176 79.9293 76.2021 79.9293C76.7865 79.9293 77.2736 79.7522 77.6632 79.398C78.0529 79.0438 78.3628 78.5656 78.5931 77.9634C78.841 77.3435 79.0181 76.6173 79.1244 75.7849C79.2307 74.9525 79.2838 74.0581 79.2838 73.1017ZM93.9316 68.5322C93.9316 70.1439 93.5154 71.3837 92.6829 72.2516C91.8682 73.1194 90.7967 73.5533 89.4684 73.5533C88.8131 73.5533 88.2109 73.4471 87.6618 73.2345C87.1128 73.0043 86.6435 72.6766 86.2538 72.2516C85.8642 71.8265 85.5542 71.304 85.324 70.6841C85.1115 70.0465 85.0052 69.3292 85.0052 68.5322C85.0052 66.9028 85.4125 65.663 86.2273 64.8129C87.0597 63.9451 88.14 63.5111 89.4684 63.5111C90.7967 63.5111 91.8682 63.9451 92.6829 64.8129C93.5154 65.663 93.9316 66.9028 93.9316 68.5322ZM91.4077 68.5322C91.4077 67.5935 91.2306 66.894 90.8764 66.4335C90.5399 65.9553 90.0706 65.7162 89.4684 65.7162C88.8662 65.7162 88.3969 65.9553 88.0603 66.4335C87.7238 66.894 87.5556 67.5935 87.5556 68.5322C87.5556 69.4709 87.7238 70.1794 88.0603 70.6576C88.3969 71.1181 88.8662 71.3483 89.4684 71.3483C90.0706 71.3483 90.5399 71.1181 90.8764 70.6576C91.2306 70.1794 91.4077 69.4709 91.4077 68.5322ZM99.3246 63.9096H102.38L91.9922 82.3203H88.937L99.3246 63.9096ZM106.338 77.7243C106.338 79.336 105.922 80.5758 105.09 81.4436C104.275 82.3115 103.203 82.7454 101.875 82.7454C101.22 82.7454 100.618 82.6303 100.068 82.4C99.5194 82.1875 99.0501 81.8687 98.6604 81.4436C98.2708 81.0185 97.9608 80.4961 97.7306 79.8762C97.5181 79.2386 97.4118 78.5213 97.4118 77.7243C97.4118 76.0949 97.8192 74.8551 98.6339 74.005C99.4663 73.1371 100.547 72.7032 101.875 72.7032C103.203 72.7032 104.275 73.1371 105.09 74.005C105.922 74.8551 106.338 76.0949 106.338 77.7243ZM103.814 77.7243C103.814 76.7856 103.637 76.086 103.283 75.6255C102.947 75.1473 102.477 74.9082 101.875 74.9082C101.273 74.9082 100.803 75.1473 100.467 75.6255C100.13 76.086 99.9622 76.7856 99.9622 77.7243C99.9622 78.663 100.13 79.3714 100.467 79.8496C100.803 80.3101 101.273 80.5403 101.875 80.5403C102.477 80.5403 102.947 80.3101 103.283 79.8496C103.637 79.3714 103.814 78.663 103.814 77.7243Z" fill="#16A34A"/>
</svg>
