<svg width="173" height="159" viewBox="0 0 173 159" fill="none" xmlns="http://www.w3.org/2000/svg">
<g clip-path="url(#clip0_7600_105472)">
<path d="M83.5 -6.66987C88.141 -9.34936 93.859 -9.34936 98.5 -6.66987L155.38 26.1699C160.021 28.8494 162.88 33.8013 162.88 39.1603V104.84C162.88 110.199 160.021 115.151 155.38 117.83L98.5 150.67C93.859 153.349 88.141 153.349 83.5 150.67L26.6199 117.83C21.9789 115.151 19.1199 110.199 19.1199 104.84V39.1603C19.1199 33.8013 21.9789 28.8494 26.6199 26.1699L83.5 -6.66987Z" fill="url(#paint0_linear_7600_105472)"/>
<mask id="mask0_7600_105472" style="mask-type:luminance" maskUnits="userSpaceOnUse" x="-21" y="-28" width="215" height="215">
<path d="M194 -28H-21V187H194V-28Z" fill="white"/>
</mask>
<g mask="url(#mask0_7600_105472)">
<path d="M136.661 50.8281V108.161H36.3281V50.8281H136.661Z" fill="#4ADE80"/>
<path d="M88.3594 57.6328L66.8594 116.399" stroke="#6EE7B7" stroke-width="6.31599"/>
<path d="M119.938 57.6328L98.4375 116.399" stroke="#6EE7B7" stroke-width="10.0035"/>
<path d="M59.8438 57.6328L38.3438 116.399" stroke="#6EE7B7" stroke-width="9.95421"/>
<path d="M130.921 95.2656V115.332H42.0547V95.2656H130.921Z" fill="#16A34A"/>
<path d="M144.951 38.8594L99.2474 12.4717C93.4581 9.12921 86.3244 9.12921 80.5352 12.4717L34.8305 38.8594C29.0427 42.202 25.4766 48.3782 25.4766 55.0633V107.837C25.4766 114.521 29.0427 120.697 34.8305 124.04L80.5352 150.427C86.3244 153.77 93.4581 153.77 99.2474 150.427L144.951 124.04C150.74 120.697 154.305 114.521 154.305 107.837V55.0633C154.305 48.3782 150.74 42.202 144.951 38.8594ZM127.372 77.4161L124.414 95.0919L123.611 99.9352L122.85 104.538C122.702 105.461 121.898 106.144 120.961 106.144H55.9091C54.9717 106.144 54.1805 105.461 54.02 104.538L53.7405 102.852L53.2589 99.9352L52.482 95.2396L52.4562 95.0919L49.4992 77.4161C45.5533 77.0678 42.5146 73.7496 42.5146 69.7893C42.5146 65.561 45.9388 62.1368 50.1672 62.1368C54.3955 62.1368 57.8226 65.561 57.8226 69.7893C57.8226 70.592 57.7022 71.3818 57.4471 72.1443L60.3352 73.9775L63.6276 76.0774L63.6563 76.0917C66.4527 77.8848 69.864 78.0324 72.7278 76.7467C72.7407 76.7467 72.7393 76.7467 72.7393 76.7338C74.0508 76.1447 75.229 75.2632 76.1922 74.085L82.2796 66.6446C81.302 65.3345 80.7832 63.755 80.7832 62.1368C80.7832 57.9084 84.206 54.4828 88.4343 54.4828C92.6626 54.4828 96.0897 57.9084 96.0897 62.1368C96.0897 63.755 95.568 65.3345 94.6048 66.6446C94.6048 66.6446 94.6048 66.6589 94.6163 66.6718L97.0644 69.656L100.678 74.085C102.497 76.3067 105.133 77.5093 107.822 77.5766C109.682 77.644 111.557 77.1481 113.23 76.0917L118.553 72.7205L119.409 72.1715C119.423 72.1586 119.437 72.1443 119.437 72.1443C119.317 71.7974 119.222 71.4362 119.158 71.0736C119.09 70.6465 119.049 70.2179 119.049 69.7893C119.049 67.4215 120.12 65.3073 121.805 63.9026C123.091 62.8319 124.736 62.1769 126.529 62.1497C126.582 62.1368 126.648 62.1368 126.701 62.1368C130.662 62.1368 133.956 65.1597 134.317 69.1071C134.691 73.3082 131.586 77.0277 127.372 77.4161Z" fill="#22C55E"/>
<path d="M92.6186 59.8008C91.8088 58.3187 90.235 57.3125 88.4261 57.3125C88.2125 57.3125 88.0033 57.3268 87.7969 57.3541" stroke="white" stroke-width="2.58" stroke-linecap="round" stroke-linejoin="round"/>
<path d="M131.168 71.1376C131.29 70.7148 131.356 70.2676 131.356 69.8046C131.356 67.1673 129.217 65.0273 126.58 65.0273C125.197 65.0273 123.951 65.615 123.078 66.5553" stroke="white" stroke-width="2.58" stroke-linecap="round" stroke-linejoin="round"/>
<path d="M54.4906 70.8065C54.5594 70.4826 54.5952 70.1486 54.5952 69.8046C54.5952 67.1673 52.4567 65.0273 49.8193 65.0273C48.5451 65.0273 47.3884 65.5261 46.5312 66.3388" stroke="white" stroke-width="2.58" stroke-linecap="round" stroke-linejoin="round"/>
<path d="M115.918 18.6986C116.124 17.6734 117.593 17.6734 117.8 18.6986L118.556 22.4358C119.229 25.764 121.091 28.359 123.479 29.2958L127.227 30.768C128.04 31.085 128.04 32.2384 127.227 32.5544L123.479 34.0275C121.091 34.9653 119.229 37.563 118.556 40.8876L117.8 44.6257C117.593 45.6537 116.124 45.6537 115.918 44.6257L115.161 40.8876C114.488 37.563 112.625 34.9653 110.24 34.0275L106.492 32.5544C105.68 32.2384 105.68 31.085 106.492 30.768L110.24 29.2958C112.625 28.359 114.488 25.764 115.161 22.4358L115.918 18.6986Z" fill="white"/>
<path d="M39.0712 103.385C39.4411 101.538 42.0871 101.538 42.4603 103.385L43.821 110.114C45.0327 116.108 48.3867 120.78 52.6863 122.467L59.4361 125.118C60.8989 125.689 60.8989 127.766 59.4361 128.335L52.6863 130.988C48.3867 132.677 45.0327 137.355 43.821 143.341L42.4603 150.073C42.0871 151.924 39.4411 151.924 39.0712 150.073L37.7072 143.341C36.4955 137.355 33.1415 132.677 28.8469 130.988L22.0971 128.335C20.6343 127.766 20.6343 125.689 22.0971 125.118L28.8469 122.467C33.1415 120.78 36.4955 116.108 37.7072 110.114L39.0712 103.385Z" fill="white"/>
<path d="M131.008 119.029C131.282 117.657 133.249 117.657 133.526 119.029L134.537 124.03C135.438 128.484 137.93 131.957 141.126 133.21L146.142 135.18C147.229 135.604 147.229 137.148 146.142 137.571L141.126 139.542C137.93 140.797 135.438 144.273 134.537 148.722L133.526 153.725C133.249 155.1 131.282 155.1 131.008 153.725L129.994 148.722C129.093 144.273 126.601 140.797 123.409 139.542L118.393 137.571C117.306 137.148 117.306 135.604 118.393 135.18L123.409 133.21C126.601 131.957 129.093 128.484 129.994 124.03L131.008 119.029Z" fill="white"/>
<path d="M67.1847 45.5805C67.3492 44.7544 68.5351 44.7544 68.7023 45.5805L69.3101 48.594C69.8519 51.2773 71.3559 53.369 73.2791 54.125L76.302 55.3124C76.9556 55.5671 76.9556 56.497 76.302 56.7517L73.2791 57.9391C71.3559 58.6938 69.8519 60.7895 69.3101 63.4687L68.7023 66.4836C68.5351 67.3124 67.3492 67.3124 67.1847 66.4836L66.5729 63.4687C66.0311 60.7895 64.5297 58.6938 62.6066 57.9391L59.585 56.7517C58.93 56.497 58.93 55.5671 59.585 55.3124L62.6066 54.125C64.5297 53.369 66.0311 51.2773 66.5729 48.594L67.1847 45.5805Z" fill="white"/>
</g>
</g>
<defs>
<linearGradient id="paint0_linear_7600_105472" x1="91" y1="-11" x2="91" y2="155" gradientUnits="userSpaceOnUse">
<stop stop-color="#94EBB4"/>
<stop offset="1" stop-color="#E8F4EC" stop-opacity="0"/>
</linearGradient>
<clipPath id="clip0_7600_105472">
<rect width="173" height="159" fill="white"/>
</clipPath>
</defs>
</svg>
