<svg width="27" height="27" viewBox="0 0 27 27" fill="none" xmlns="http://www.w3.org/2000/svg">
<path d="M25.7422 13.5C25.7422 20.4036 20.1457 26 13.2422 26C6.33863 26 0.742188 20.4036 0.742188 13.5C0.742188 6.59644 6.33863 1 13.2422 1C20.1457 1 25.7422 6.59644 25.7422 13.5ZM4.77054 13.5C4.77054 18.1788 8.56342 21.9717 13.2422 21.9717C17.921 21.9717 21.7138 18.1788 21.7138 13.5C21.7138 8.82124 17.921 5.02835 13.2422 5.02835C8.56342 5.02835 4.77054 8.82124 4.77054 13.5Z" fill="#EDEDED"/>
<path d="M14.1776 23.7645C14.264 24.8778 13.427 25.8675 12.3144 25.7727C10.552 25.6226 8.83374 25.0977 7.27792 24.2242C5.1315 23.0191 3.39064 21.2046 2.27548 19.0101C1.16031 16.8156 0.720922 14.3398 1.01288 11.8956C1.2245 10.1239 1.81349 8.42657 2.73118 6.91445C3.31053 5.95984 4.60341 5.86721 5.45174 6.59333C6.30007 7.31946 6.37259 8.58986 5.86958 9.58681C5.43119 10.4557 5.14474 11.3987 5.0281 12.3752C4.831 14.0252 5.12763 15.6967 5.88047 17.1782C6.63331 18.6596 7.80856 19.8846 9.25759 20.6982C10.1151 21.1796 11.0457 21.5042 12.006 21.6623C13.1078 21.8437 14.0912 22.6512 14.1776 23.7645Z" fill="#E8356D"/>
</svg>
