<svg width="42" height="46" viewBox="0 0 42 46" fill="none" xmlns="http://www.w3.org/2000/svg">
<ellipse cx="21" cy="23" rx="21" ry="23" fill="#14B8A6"/>
<path d="M25.5833 15.6654C25.3402 15.6654 25.1071 15.5688 24.9352 15.3969C24.7632 15.225 24.6667 14.9918 24.6667 14.7487C24.6667 14.5056 24.7632 14.2724 24.9352 14.1005C25.1071 13.9286 25.3402 13.832 25.5833 13.832H29.25C29.4931 13.832 29.7263 13.9286 29.8982 14.1005C30.0701 14.2724 30.1667 14.5056 30.1667 14.7487V18.4154C30.1667 18.6585 30.0701 18.8916 29.8982 19.0635C29.7263 19.2355 29.4931 19.332 29.25 19.332C29.0069 19.332 28.7737 19.2355 28.6018 19.0635C28.4299 18.8916 28.3333 18.6585 28.3333 18.4154V16.9615L23.0231 22.2718C22.8512 22.4436 22.6181 22.5402 22.375 22.5402C22.1319 22.5402 21.8988 22.4436 21.7269 22.2718L19.1667 19.7115L14.3147 24.5634C14.1419 24.7304 13.9103 24.8228 13.67 24.8207C13.4296 24.8186 13.1997 24.7222 13.0297 24.5523C12.8598 24.3823 12.7634 24.1524 12.7613 23.9121C12.7592 23.6717 12.8516 23.4402 13.0186 23.2673L18.5186 17.7673C18.6905 17.5954 18.9236 17.4989 19.1667 17.4989C19.4097 17.4989 19.6428 17.5954 19.8148 17.7673L22.375 20.3275L27.0372 15.6654H25.5833ZM14.5833 28.4987V31.2487C14.5833 31.4918 14.4868 31.725 14.3148 31.8969C14.1429 32.0688 13.9098 32.1654 13.6667 32.1654C13.4236 32.1654 13.1904 32.0688 13.0185 31.8969C12.8466 31.725 12.75 31.4918 12.75 31.2487V28.4987C12.75 28.2556 12.8466 28.0224 13.0185 27.8505C13.1904 27.6786 13.4236 27.582 13.6667 27.582C13.9098 27.582 14.1429 27.6786 14.3148 27.8505C14.4868 28.0224 14.5833 28.2556 14.5833 28.4987ZM19.1667 24.832C19.1667 24.5889 19.0701 24.3558 18.8982 24.1839C18.7263 24.0119 18.4931 23.9154 18.25 23.9154C18.0069 23.9154 17.7737 24.0119 17.6018 24.1839C17.4299 24.3558 17.3333 24.5889 17.3333 24.832V31.2487C17.3333 31.4918 17.4299 31.725 17.6018 31.8969C17.7737 32.0688 18.0069 32.1654 18.25 32.1654C18.4931 32.1654 18.7263 32.0688 18.8982 31.8969C19.0701 31.725 19.1667 31.4918 19.1667 31.2487V24.832ZM22.8333 25.7487C23.0764 25.7487 23.3096 25.8453 23.4815 26.0172C23.6534 26.1891 23.75 26.4223 23.75 26.6654V31.2487C23.75 31.4918 23.6534 31.725 23.4815 31.8969C23.3096 32.0688 23.0764 32.1654 22.8333 32.1654C22.5902 32.1654 22.3571 32.0688 22.1852 31.8969C22.0132 31.725 21.9167 31.4918 21.9167 31.2487V26.6654C21.9167 26.4223 22.0132 26.1891 22.1852 26.0172C22.3571 25.8453 22.5902 25.7487 22.8333 25.7487ZM28.3333 22.082C28.3333 21.8389 28.2368 21.6058 28.0648 21.4339C27.8929 21.2619 27.6598 21.1654 27.4167 21.1654C27.1736 21.1654 26.9404 21.2619 26.7685 21.4339C26.5966 21.6058 26.5 21.8389 26.5 22.082V31.2487C26.5 31.4918 26.5966 31.725 26.7685 31.8969C26.9404 32.0688 27.1736 32.1654 27.4167 32.1654C27.6598 32.1654 27.8929 32.0688 28.0648 31.8969C28.2368 31.725 28.3333 31.4918 28.3333 31.2487V22.082Z" fill="white"/>
</svg>
