<svg width="36" height="37" viewBox="0 0 36 37" fill="none" xmlns="http://www.w3.org/2000/svg">
<ellipse cx="18" cy="18.144" rx="18" ry="18.144" fill="#E9D6FA"/>
<path d="M21.5339 10.4202C21.3071 10.4202 21.0896 10.3301 20.9292 10.1697C20.7689 10.0093 20.6788 9.79185 20.6788 9.56506C20.6788 9.33827 20.7689 9.12078 20.9292 8.96041C21.0896 8.80005 21.3071 8.70996 21.5339 8.70996H24.9543C25.1811 8.70996 25.3986 8.80005 25.5589 8.96041C25.7193 9.12078 25.8094 9.33827 25.8094 9.56506V12.9855C25.8094 13.2122 25.7193 13.4297 25.5589 13.5901C25.3986 13.7505 25.1811 13.8406 24.9543 13.8406C24.7275 13.8406 24.51 13.7505 24.3496 13.5901C24.1893 13.4297 24.0992 13.2122 24.0992 12.9855V11.6293L19.1456 16.5829C18.9852 16.7432 18.7678 16.8332 18.541 16.8332C18.3143 16.8332 18.0968 16.7432 17.9365 16.5829L15.5482 14.1946L11.0222 18.7206C10.8609 18.8764 10.6449 18.9626 10.4207 18.9606C10.1965 18.9587 9.982 18.8687 9.82346 18.7102C9.66492 18.5517 9.57499 18.3372 9.57304 18.113C9.57109 17.8888 9.65728 17.6728 9.81304 17.5115L14.9436 12.3809C15.104 12.2206 15.3215 12.1305 15.5482 12.1305C15.7749 12.1305 15.9924 12.2206 16.1528 12.3809L18.541 14.7692L22.8901 10.4202H21.5339ZM11.2727 22.3916V24.9569C11.2727 25.1836 11.1826 25.4011 11.0222 25.5615C10.8619 25.7219 10.6444 25.812 10.4176 25.812C10.1908 25.812 9.97332 25.7219 9.81295 25.5615C9.65259 25.4011 9.5625 25.1836 9.5625 24.9569V22.3916C9.5625 22.1648 9.65259 21.9473 9.81295 21.7869C9.97332 21.6265 10.1908 21.5365 10.4176 21.5365C10.6444 21.5365 10.8619 21.6265 11.0222 21.7869C11.1826 21.9473 11.2727 22.1648 11.2727 22.3916ZM15.5482 18.9712C15.5482 18.7444 15.4581 18.5269 15.2977 18.3665C15.1374 18.2061 14.9199 18.1161 14.6931 18.1161C14.4663 18.1161 14.2488 18.2061 14.0885 18.3665C13.9281 18.5269 13.838 18.7444 13.838 18.9712V24.9569C13.838 25.1836 13.9281 25.4011 14.0885 25.5615C14.2488 25.7219 14.4663 25.812 14.6931 25.812C14.9199 25.812 15.1374 25.7219 15.2977 25.5615C15.4581 25.4011 15.5482 25.1836 15.5482 24.9569V18.9712ZM18.9686 19.8263C19.1954 19.8263 19.4129 19.9163 19.5732 20.0767C19.7336 20.2371 19.8237 20.4546 19.8237 20.6814V24.9569C19.8237 25.1836 19.7336 25.4011 19.5732 25.5615C19.4129 25.7219 19.1954 25.812 18.9686 25.812C18.7418 25.812 18.5243 25.7219 18.3639 25.5615C18.2036 25.4011 18.1135 25.1836 18.1135 24.9569V20.6814C18.1135 20.4546 18.2036 20.2371 18.3639 20.0767C18.5243 19.9163 18.7418 19.8263 18.9686 19.8263ZM24.0992 16.4059C24.0992 16.1791 24.0091 15.9616 23.8487 15.8012C23.6884 15.6408 23.4709 15.5508 23.2441 15.5508C23.0173 15.5508 22.7998 15.6408 22.6394 15.8012C22.4791 15.9616 22.389 16.1791 22.389 16.4059V24.9569C22.389 25.1836 22.4791 25.4011 22.6394 25.5615C22.7998 25.7219 23.0173 25.812 23.2441 25.812C23.4709 25.812 23.6884 25.7219 23.8487 25.5615C24.0091 25.4011 24.0992 25.1836 24.0992 24.9569V16.4059Z" fill="#8807F7"/>
</svg>
