<svg width="46" height="46" viewBox="0 0 46 46" fill="none" xmlns="http://www.w3.org/2000/svg">
<circle cx="23" cy="23" r="22" stroke="#8807F7" stroke-opacity="0.5" stroke-width="1.5"/>
<path d="M26.7493 17C26.5504 17 26.3596 16.921 26.2189 16.7803C26.0783 16.6397 25.9993 16.4489 25.9993 16.25C25.9993 16.0511 26.0783 15.8603 26.2189 15.7197C26.3596 15.579 26.5504 15.5 26.7493 15.5H29.7493C29.9482 15.5 30.1389 15.579 30.2796 15.7197C30.4203 15.8603 30.4993 16.0511 30.4993 16.25V19.25C30.4993 19.4489 30.4203 19.6397 30.2796 19.7803C30.1389 19.921 29.9482 20 29.7493 20C29.5504 20 29.3596 19.921 29.2189 19.7803C29.0783 19.6397 28.9993 19.4489 28.9993 19.25V18.0605L24.6545 22.4053C24.5139 22.5459 24.3231 22.6248 24.1243 22.6248C23.9254 22.6248 23.7347 22.5459 23.594 22.4053L21.4993 20.3105L17.5295 24.2803C17.3881 24.4169 17.1986 24.4925 17.002 24.4908C16.8053 24.489 16.6172 24.4102 16.4782 24.2711C16.3391 24.1321 16.2602 23.9439 16.2585 23.7473C16.2568 23.5507 16.3324 23.3612 16.469 23.2198L20.969 18.7198C21.1097 18.5791 21.3004 18.5002 21.4993 18.5002C21.6981 18.5002 21.8889 18.5791 22.0295 18.7198L24.1243 20.8145L27.9388 17H26.7493ZM17.7493 27.5V29.75C17.7493 29.9489 17.6703 30.1397 17.5296 30.2803C17.3889 30.421 17.1982 30.5 16.9993 30.5C16.8004 30.5 16.6096 30.421 16.4689 30.2803C16.3283 30.1397 16.2493 29.9489 16.2493 29.75V27.5C16.2493 27.3011 16.3283 27.1103 16.4689 26.9697C16.6096 26.829 16.8004 26.75 16.9993 26.75C17.1982 26.75 17.3889 26.829 17.5296 26.9697C17.6703 27.1103 17.7493 27.3011 17.7493 27.5ZM21.4993 24.5C21.4993 24.3011 21.4203 24.1103 21.2796 23.9697C21.1389 23.829 20.9482 23.75 20.7493 23.75C20.5504 23.75 20.3596 23.829 20.2189 23.9697C20.0783 24.1103 19.9993 24.3011 19.9993 24.5V29.75C19.9993 29.9489 20.0783 30.1397 20.2189 30.2803C20.3596 30.421 20.5504 30.5 20.7493 30.5C20.9482 30.5 21.1389 30.421 21.2796 30.2803C21.4203 30.1397 21.4993 29.9489 21.4993 29.75V24.5ZM24.4993 25.25C24.6982 25.25 24.8889 25.329 25.0296 25.4697C25.1703 25.6103 25.2493 25.8011 25.2493 26V29.75C25.2493 29.9489 25.1703 30.1397 25.0296 30.2803C24.8889 30.421 24.6982 30.5 24.4993 30.5C24.3004 30.5 24.1096 30.421 23.9689 30.2803C23.8283 30.1397 23.7493 29.9489 23.7493 29.75V26C23.7493 25.8011 23.8283 25.6103 23.9689 25.4697C24.1096 25.329 24.3004 25.25 24.4993 25.25ZM28.9993 22.25C28.9993 22.0511 28.9203 21.8603 28.7796 21.7197C28.6389 21.579 28.4482 21.5 28.2493 21.5C28.0504 21.5 27.8596 21.579 27.7189 21.7197C27.5783 21.8603 27.4993 22.0511 27.4993 22.25V29.75C27.4993 29.9489 27.5783 30.1397 27.7189 30.2803C27.8596 30.421 28.0504 30.5 28.2493 30.5C28.4482 30.5 28.6389 30.421 28.7796 30.2803C28.9203 30.1397 28.9993 29.9489 28.9993 29.75V22.25Z" fill="#8807F7"/>
</svg>
