<svg width="83" height="68" viewBox="0 0 83 68" fill="none" xmlns="http://www.w3.org/2000/svg">
<g clip-path="url(#clip0_3154_65909)">
<path d="M61.1014 63.5458L58.1188 60.3518C58.2223 59.0843 58.324 57.8127 58.4359 56.4201L53.2741 56.6562L53.5909 51.4807L48.4473 51.6698L48.8243 46.4874C47.3256 46.5774 46.0297 46.7196 44.755 46.6606C44.0595 46.6287 43.3939 46.3684 42.8612 45.9201C41.5251 44.661 40.324 43.2552 39.0383 41.867C38.6389 42.2144 38.3955 42.4133 38.1663 42.6279C36.7951 43.9134 36.7332 43.9163 35.4108 42.5442C34.0012 41.0839 32.5864 39.6284 31.2111 38.1409C30.6275 37.5072 30.0534 37.3503 29.1578 37.4801C22.3286 38.4364 16.6294 36.4076 12.6505 30.6272C8.88432 25.1498 8.59936 19.2658 11.7421 13.458C14.8848 7.65018 19.9854 4.80467 26.5393 4.90671C36.8715 5.06987 44.382 14.732 42.1613 24.8376C41.9802 25.6726 42.1036 26.2041 42.7049 26.784C43.9311 27.9698 45.1 29.2244 46.2851 30.4549C48.2769 32.518 48.274 32.5168 46.4955 34.7922C46.8801 35.2434 47.1767 35.6433 47.5349 36.0064C52.1495 40.7746 64.5089 53.3093 68.5694 57.4114L68.001 63.9046L61.1014 63.5458ZM15.2479 15.5385C15.2415 16.8811 15.6338 18.1955 16.375 19.3151C17.1161 20.4347 18.1729 21.3091 19.4114 21.8276C20.6499 22.3462 22.0145 22.4855 23.3322 22.2279C24.65 21.9704 25.8617 21.3275 26.8138 20.3808C27.766 19.4341 28.4157 18.2262 28.6808 16.9099C28.9459 15.5937 28.8144 14.2283 28.303 12.9869C27.7915 11.7454 26.9232 10.6836 25.8078 9.93607C24.6925 9.18849 23.3804 8.78873 22.0377 8.78741C21.1466 8.78068 20.2629 8.95068 19.4379 9.2876C18.6128 9.62451 17.8627 10.1217 17.231 10.7503C16.5993 11.3789 16.0985 12.1265 15.7575 12.9499C15.4165 13.7733 15.2421 14.6561 15.2445 15.5473L15.2479 15.5385Z" fill="#8807F7"/>
<path opacity="0.3" d="M44.197 38.7413L65.2493 59.6429C65.4189 59.8109 65.6483 59.9047 65.887 59.9036C66.1258 59.9025 66.3543 59.8066 66.5223 59.637C66.6904 59.4674 66.7841 59.238 66.7831 58.9993C66.782 58.7606 66.6861 58.532 66.5165 58.364L45.466 37.4665C45.3825 37.3829 45.2832 37.3166 45.174 37.2715C45.0648 37.2264 44.9477 37.2033 44.8295 37.2036C44.7113 37.2038 44.5943 37.2275 44.4853 37.2731C44.3762 37.3187 44.2773 37.3854 44.1941 37.4694C44.1105 37.5529 44.0443 37.6522 43.9992 37.7614C43.954 37.8707 43.9309 37.9878 43.9312 38.1059C43.9315 38.2241 43.9551 38.3411 44.0007 38.4501C44.0463 38.5592 44.1131 38.6581 44.197 38.7413Z" fill="black"/>
<path d="M42.7731 38.2864C42.7731 38.2864 42.7897 38.3131 42.8292 38.359L43.0125 38.5557L43.7327 39.3071L46.3843 42.0337C48.6171 44.3362 51.7081 47.4949 55.1356 50.9946C58.5631 54.4943 61.7018 57.6175 64.0075 59.8371C65.1532 60.961 66.0954 61.8532 66.7479 62.4666L67.4898 63.1622L67.6888 63.3448L67.7588 63.3992C67.7588 63.3992 67.741 63.3754 67.7004 63.3324L67.5118 63.1404L66.7814 62.4154L64.0747 59.7518C61.7921 57.5075 58.6737 54.3584 55.2347 50.888L46.451 41.9583L43.7856 39.2669L43.054 38.5449L42.8602 38.3576L42.7731 38.2864Z" fill="#263238"/>
<path d="M37.8075 42.7656C37.8387 42.7981 39.9038 40.922 42.4235 38.5748C44.9433 36.2275 46.9553 34.2969 46.9316 34.2539C46.9079 34.2108 44.8335 36.0934 42.3156 38.4447C39.7976 40.796 37.7694 42.7507 37.8075 42.7656Z" fill="#263238"/>
<path d="M11.6866 15.7167C11.6866 15.7167 11.7176 15.6375 11.7948 15.4919C11.872 15.3464 11.9684 15.1171 12.1035 14.8319C12.1623 14.6815 12.2365 14.5178 12.3259 14.341C12.4175 14.1672 12.5335 13.9828 12.646 13.7902C12.7585 13.5976 12.8917 13.3692 13.0261 13.1378C13.1775 12.8937 13.3419 12.6578 13.5186 12.4314C14.3723 11.2244 15.4049 10.1546 16.5808 9.25864C18.1272 8.05732 19.8916 7.16681 21.7766 6.63626L22.5681 6.41849C22.8412 6.35966 23.1203 6.32007 23.397 6.2694C23.6737 6.21873 23.9601 6.15161 24.2488 6.13942L25.1263 6.07354L25.5714 6.04143L26.0204 6.05137L26.9471 6.07571C27.2552 6.09143 27.5625 6.14397 27.8738 6.17778C28.188 6.2056 28.5001 6.25315 28.8084 6.32014C29.4453 6.44085 30.073 6.60608 30.6868 6.81461C30.9946 6.93496 31.3185 7.01427 31.6281 7.13869L32.5496 7.55646C32.7079 7.61835 32.8662 7.68025 33.0131 7.77146L33.4593 8.03043C33.7553 8.20699 34.06 8.37003 34.3543 8.55946C34.9409 8.9546 35.5008 9.38802 36.0303 9.8569L36.4346 10.2144C36.5023 10.2747 36.5712 10.332 36.6348 10.394L36.821 10.5919L37.5644 11.3963C37.7945 11.6721 38.0132 11.9773 38.2376 12.2678C38.3486 12.416 38.4631 12.5554 38.5696 12.7153L38.8632 13.1917C39.2666 13.8333 39.6265 14.5013 39.9403 15.1912L40.3497 16.2705L40.4535 16.541L40.534 16.8191L40.6886 17.3832L40.8578 17.936L40.9687 18.5167L41.0773 19.1033L41.1293 19.394C41.1411 19.4933 41.146 19.5932 41.155 19.6913L41.2437 20.8819C41.2363 21.2812 41.2289 21.6805 41.2192 22.0856C41.0592 25.375 39.8288 28.5219 37.7153 31.0475C37.4488 31.3488 37.1823 31.6502 36.9198 31.9497C36.6574 32.2493 36.336 32.4921 36.0441 32.7632L35.8265 32.9654L35.5911 33.1438L35.1135 33.5011L34.6381 33.8526L34.1389 34.1611L33.6427 34.4706L33.3978 34.6216L33.137 34.7528C32.7905 34.9215 32.4458 35.0943 32.1023 35.2642C31.4048 35.5586 30.6883 35.8058 29.9576 36.004L29.4157 36.1537C29.2367 36.2054 29.0503 36.2238 28.8614 36.275C28.4994 36.3362 28.1329 36.4092 27.7756 36.4588L26.6849 36.5427L26.4138 36.5618L26.1438 36.5609L25.6042 36.5494C24.8974 36.5338 24.1924 36.4715 23.4938 36.363C23.1478 36.3055 22.8116 36.2146 22.4773 36.1447L21.9737 36.0323C21.8074 35.9909 21.6491 35.9291 21.4874 35.876L20.5268 35.5579C20.2161 35.4364 19.9186 35.2896 19.6142 35.1605C19.0224 34.8961 18.4491 34.5919 17.8985 34.2497C17.6278 34.0875 17.3666 33.9098 17.1164 33.7175C16.853 33.5266 16.6033 33.3614 16.3651 33.1669L15.6794 32.5608L15.3398 32.2624L15.0345 31.9369L14.4373 31.2945C14.2346 31.0868 14.0766 30.8425 13.8984 30.6241C13.7202 30.4057 13.5524 30.1779 13.3905 29.9524L12.9548 29.2514C11.9226 27.5825 11.2227 25.7298 10.8939 23.7952C10.6446 22.3335 10.6202 20.8423 10.8214 19.3732C10.8452 19.0879 10.8839 18.8041 10.9375 18.523C10.9968 18.2589 11.0522 18.0135 11.1018 17.7828C11.1515 17.5522 11.1931 17.342 11.2402 17.161C11.2873 16.98 11.359 16.8053 11.4087 16.6523C11.5028 16.3511 11.5804 16.1179 11.6295 15.9579C11.6785 15.798 11.7024 15.7195 11.7024 15.7195C11.7024 15.7195 11.6726 15.7957 11.6119 15.9511C11.5511 16.1064 11.4764 16.3408 11.3735 16.6386C11.3139 16.791 11.2632 16.9638 11.198 17.1479C11.1328 17.3319 11.1036 17.5537 11.0538 17.7674C11.004 17.9812 10.9429 18.2412 10.8836 18.5053C10.8258 18.787 10.7833 19.0716 10.7564 19.3579C10.5563 20.8271 10.5807 22.3181 10.8289 23.7799C11.1422 25.7318 11.8309 27.6045 12.8569 29.2943L13.2944 29.9993C13.4552 30.2278 13.6323 30.4491 13.803 30.6781C13.9737 30.907 14.1398 31.1477 14.3425 31.3554L14.9461 32.0071L15.2544 32.3338L15.5929 32.6351L16.2844 33.2435C16.5233 33.445 16.7848 33.6149 17.0393 33.8023C17.2948 34 17.5625 34.1814 17.8408 34.3455C18.3964 34.6918 18.9747 35.0003 19.5718 35.269C19.865 35.3836 20.1732 35.5548 20.4892 35.6716L21.4573 35.996C21.6186 36.0591 21.7769 36.121 21.9496 36.1547L22.4561 36.2682C22.7962 36.3404 23.1354 36.4324 23.4813 36.4899C24.187 36.6006 24.8992 36.6646 25.6134 36.6814L26.16 36.6923C26.2506 36.694 26.343 36.6997 26.4318 36.6972L26.707 36.6764L27.8076 36.593C28.1649 36.5434 28.5326 36.4675 28.9103 36.409C29.0965 36.3737 29.2711 36.3507 29.4648 36.3047L30.0107 36.1532C30.7505 35.9539 31.4758 35.7046 32.1817 35.4068L33.2246 34.8918L33.4884 34.7618L33.7385 34.6061L34.2388 34.2947L34.742 33.9845L35.2196 33.6272L35.6996 33.2639L35.9391 33.0838L36.1607 32.8798L37.0428 32.0587C37.3094 31.7573 37.58 31.4542 37.8488 31.147C39.9866 28.5951 41.2305 25.4136 41.3905 22.0884C41.3973 21.6821 41.407 21.2769 41.4155 20.8747C41.4241 20.4725 41.3549 20.0703 41.3226 19.669C41.3136 19.5709 41.3087 19.4709 41.2968 19.3717L41.2472 19.0751L41.1397 18.4856L41.0311 17.899L40.8718 17.3297L40.7154 16.7616L40.6342 16.4764L40.5315 16.2031C40.3896 15.84 40.2517 15.4752 40.1145 15.1174C39.7958 14.4207 39.432 13.7457 39.0255 13.0964L38.7272 12.6147C38.6277 12.4542 38.5062 12.3154 38.3962 12.1473C38.173 11.8539 37.9543 11.5487 37.7107 11.2642L36.9585 10.4564L36.7705 10.2544C36.7069 10.1924 36.6351 10.1339 36.5674 10.0737L36.1572 9.71387C35.6224 9.24134 35.057 8.80464 34.4647 8.40662C34.1675 8.21605 33.857 8.05071 33.5581 7.87301L33.1077 7.61582C32.9574 7.5334 32.7962 7.47037 32.6395 7.3956L31.711 6.97848C31.3973 6.85583 31.0733 6.75957 30.7609 6.65095C30.1399 6.44353 29.5057 6.278 28.8626 6.15547C28.5465 6.08879 28.2269 6.04054 27.9052 6.01095C27.5811 5.97549 27.2826 5.92637 26.9715 5.90951L26.0507 5.88747L25.5976 5.87931L25.1495 5.91028L24.2639 5.97973C23.973 5.99778 23.6912 6.07012 23.4069 6.11443C23.1226 6.15873 22.8471 6.20647 22.574 6.2653L21.7732 6.48958C19.8781 7.03063 18.1061 7.93438 16.5554 9.1507C15.3798 10.0551 14.3494 11.1339 13.4999 12.3497C13.326 12.5787 13.1642 12.8166 13.015 13.0625C12.8795 13.2968 12.7555 13.5187 12.6385 13.723C12.5214 13.9273 12.4094 14.11 12.3242 14.2761C12.239 14.4422 12.172 14.6221 12.1077 14.7694C11.9931 15.0625 11.8831 15.2832 11.8154 15.4392C11.7476 15.5952 11.6866 15.7167 11.6866 15.7167Z" fill="#263238"/>
<path d="M15.0726 12.8577C15.0965 12.824 15.1165 12.7875 15.132 12.7491L15.2872 12.4212C15.3155 12.3489 15.3535 12.2691 15.4011 12.1818C15.4366 12.0909 15.5038 12.0056 15.5626 11.907C15.69 11.6734 15.835 11.4499 15.9964 11.2384C16.4204 10.6427 16.9323 10.1147 17.5145 9.6723C19.0524 8.49845 20.98 7.95516 22.9045 8.15313C24.829 8.35109 26.6057 9.27543 27.8724 10.7378C28.1082 11.0181 28.3229 11.3156 28.5147 11.6277C28.7134 11.9438 28.8908 12.2728 29.0456 12.6126C29.1934 12.9636 29.3165 13.3246 29.414 13.6928C29.6221 14.4489 29.7056 15.2338 29.6613 16.0167C29.5812 17.6391 28.9744 19.1911 27.9329 20.4375C27.4348 21.0412 26.8425 21.5606 26.179 21.9756C25.8556 22.1797 25.519 22.362 25.1714 22.5213C24.8272 22.6659 24.4738 22.7874 24.1134 22.8849C23.7604 22.9829 23.401 23.0558 23.0378 23.1031C22.6821 23.144 22.3239 23.1587 21.9661 23.1472C20.6204 23.1154 19.3077 22.7247 18.1637 22.0154C17.2558 21.449 16.4782 20.6969 15.8819 19.8084C15.2856 18.9199 14.8841 17.9153 14.704 16.8605C14.5762 16.1406 14.5583 15.4054 14.6508 14.6801C14.6756 14.4152 14.7207 14.1526 14.7855 13.8946C14.8103 13.7792 14.8276 13.6745 14.8532 13.5831L14.9319 13.33L15.0403 12.9837C15.0549 12.9449 15.065 12.9046 15.0703 12.8636C15.0515 12.9001 15.0366 12.9384 15.0256 12.9779C14.9924 13.0629 14.9488 13.1743 14.8938 13.3151C14.864 13.3913 14.8319 13.4734 14.7964 13.5642C14.7608 13.6551 14.7453 13.764 14.7199 13.8723C14.6497 14.1313 14.5996 14.3953 14.57 14.662C14.465 15.3937 14.4741 16.1372 14.5971 16.866C14.7716 17.9384 15.1718 18.9615 15.7713 19.8677C16.3707 20.7739 17.1558 21.5424 18.0745 22.1224C19.2368 22.8517 20.5729 23.2574 21.9445 23.2976C22.3089 23.3082 22.6736 23.2938 23.036 23.2546C23.4074 23.2083 23.7748 23.1351 24.1356 23.0355C24.5038 22.9355 24.865 22.8114 25.217 22.6641C25.5714 22.5038 25.9144 22.3195 26.2438 22.1125C26.9279 21.6876 27.539 21.155 28.0534 20.5354C29.1189 19.2623 29.7392 17.676 29.8197 16.0178C29.8621 15.2194 29.7768 14.4193 29.5668 13.6478C29.4646 13.2717 29.3379 12.9027 29.1876 12.5431C29.0285 12.197 28.8468 11.8618 28.6438 11.5396C28.4462 11.2218 28.2259 10.9187 27.9844 10.6329C27.7447 10.3582 27.4865 10.1002 27.2115 9.86088C26.1764 8.96004 24.9195 8.35196 23.5708 8.09946C22.5042 7.90139 21.4077 7.93247 20.354 8.19061C19.3004 8.44876 18.3137 8.92808 17.4595 9.59674C16.8748 10.0489 16.3638 10.5891 15.9446 11.1979C15.7855 11.414 15.6433 11.642 15.5192 11.8798C15.4767 11.9883 15.4055 12.0754 15.3664 12.1581C15.3273 12.2408 15.2988 12.3311 15.269 12.4073C15.214 12.548 15.1704 12.6594 15.1372 12.7444C15.1116 12.7797 15.09 12.8177 15.0726 12.8577Z" fill="#263238"/>
<path opacity="0.3" d="M38.0675 10.031L27.2612 37.6699C25.7692 37.7781 24.2696 37.6993 22.7971 37.4353L34.8823 7.38987C36.0589 8.12175 37.1305 9.01029 38.0675 10.031Z" fill="white"/>
<path d="M29.6632 37.4416C29.7072 37.4588 31.9584 31.7959 34.6955 24.7953C37.4326 17.7947 39.6194 12.1065 39.5755 12.0893C39.5315 12.0721 37.2802 17.7351 34.5431 24.7357C31.806 31.7363 29.6222 37.4255 29.6632 37.4416Z" fill="white"/>
<path d="M41.4345 16.2455C41.4486 16.3927 41.4766 16.5383 41.518 16.6803C41.5856 16.9569 41.6706 17.3619 41.7546 17.8645C41.8565 18.4513 41.9275 19.0431 41.9672 19.6375C42.0148 20.3644 42.0209 21.0935 41.9853 21.8211C41.9398 22.5488 41.8539 23.2735 41.7281 23.9917C41.6018 24.652 41.4631 25.24 41.3197 25.728C41.1762 26.216 41.0524 26.6104 40.954 26.8795C40.8959 27.0152 40.8519 27.1566 40.8228 27.3013C40.8982 27.1733 40.9621 27.0388 41.0137 26.8994C41.1169 26.6356 41.2682 26.2486 41.4316 25.7616C41.6113 25.1893 41.7598 24.6076 41.8762 24.0192C42.156 22.5727 42.238 21.0949 42.1202 19.6263C42.0698 19.0267 41.9871 18.4303 41.8725 17.8396C41.7686 17.336 41.6684 16.9352 41.5827 16.6617C41.5461 16.5187 41.4965 16.3794 41.4345 16.2455Z" fill="white"/>
<path d="M41.9793 27.5513C42.6329 28.3687 43.3285 29.1517 44.0633 29.8971C44.7584 30.6809 45.4942 31.4277 46.2674 32.1344C45.615 31.3154 44.9197 30.5314 44.1846 29.7857C43.4885 29.0034 42.7524 28.2576 41.9793 27.5513Z" fill="white"/>
<path d="M47.1376 36.7206C47.1376 36.7206 47.1494 36.7422 47.1813 36.7817L47.3217 36.9413L47.8794 37.5548C48.3658 38.083 49.0655 38.8432 49.9596 39.7808C51.7231 41.6499 54.1898 44.2096 56.9424 46.9891C59.695 49.7687 62.2524 52.2523 64.1122 54.0305C65.0415 54.9211 65.7965 55.6354 66.3334 56.1292L66.9428 56.6885L67.1029 56.8322L67.1605 56.875C67.1605 56.875 67.1486 56.8535 67.1145 56.8199L66.9659 56.6638L66.3711 56.0933L64.1964 53.9621C62.3575 52.165 59.8275 49.6718 57.0621 46.8906C54.2966 44.1093 51.8223 41.5602 50.0339 39.7119L47.9155 37.5317L47.3357 36.9401L47.1819 36.7887L47.1376 36.7206Z" fill="white"/>
<path d="M24.9504 7.82049C24.9389 7.84981 25.4862 7.9455 26.2897 8.29346C27.3385 8.74384 28.2689 9.43062 29.0083 10.3001C29.7477 11.1696 30.276 12.1983 30.552 13.3058C30.7679 14.1541 30.7716 14.7064 30.8037 14.7021C30.8217 14.575 30.8232 14.4461 30.8083 14.3186C30.7905 13.9684 30.7423 13.6205 30.664 13.2787C30.4111 12.1427 29.8837 11.0859 29.1281 10.2007C28.3725 9.31552 27.4116 8.62888 26.3293 8.20079C26.0036 8.07036 25.6679 7.96626 25.3256 7.88947C25.2038 7.85107 25.0778 7.8279 24.9504 7.82049Z" fill="white"/>
<path d="M23.2957 5.4245C23.4386 5.4314 23.5819 5.42402 23.7234 5.40246C23.9949 5.37345 24.3899 5.34874 24.8802 5.33089C25.3704 5.31304 25.9498 5.32664 26.5925 5.36839C27.2904 5.42621 27.9842 5.52482 28.6705 5.66374C29.3551 5.80945 30.0302 5.99665 30.6921 6.22432C31.2309 6.4141 31.7594 6.63201 32.2754 6.87716C32.7172 7.08706 33.0716 7.26959 33.31 7.40334C33.4294 7.48154 33.5572 7.54622 33.6909 7.59619C33.583 7.5021 33.4661 7.41901 33.3417 7.34816C33.1102 7.19681 32.7656 6.99784 32.3295 6.77328C31.8144 6.51104 31.284 6.27996 30.7412 6.08131C30.0748 5.84547 29.3943 5.65164 28.7037 5.50098C28.0106 5.36184 27.3094 5.26715 26.6042 5.21749C26.028 5.18214 25.4502 5.18197 24.874 5.21696C24.3821 5.24768 23.9861 5.29227 23.7147 5.33823C23.5725 5.35346 23.4322 5.38235 23.2957 5.4245Z" fill="white"/>
</g>
<defs>
<clipPath id="clip0_3154_65909">
<rect width="70.9681" height="45.1615" fill="white" transform="matrix(-0.931345 -0.364139 -0.364139 0.931345 82.9193 25.8418)"/>
</clipPath>
</defs>
</svg>
