<svg width="46" height="46" viewBox="0 0 46 46" fill="none" xmlns="http://www.w3.org/2000/svg">
<circle cx="23" cy="23" r="22" stroke="#8807F7" stroke-opacity="0.5"/>
<path d="M22.4999 29.625C21.6554 29.625 20.8572 29.4865 20.1051 29.2094C19.353 28.9323 18.6735 28.5497 18.0665 28.0615L17.0572 29.0708C16.8988 29.2292 16.7141 29.3049 16.503 29.298C16.2919 29.2917 16.1072 29.2094 15.9488 29.051C15.7905 28.8927 15.7113 28.7046 15.7113 28.4866C15.7113 28.2691 15.7905 28.0813 15.9488 27.9229L16.9384 26.9333C16.4502 26.3264 16.0676 25.6434 15.7905 24.8845C15.5134 24.1261 15.3749 23.3313 15.3749 22.5C15.3749 20.5208 16.071 18.8385 17.4633 17.4531C18.855 16.0677 20.5339 15.375 22.4999 15.375H28.0415C28.477 15.375 28.8498 15.5299 29.1602 15.8397C29.47 16.15 29.6249 16.5229 29.6249 16.9583V22.5C29.6249 24.466 28.9322 26.1451 27.5468 27.5374C26.1613 28.9291 24.479 29.625 22.4999 29.625ZM22.4999 28.0417C24.0436 28.0417 25.353 27.5007 26.4281 26.4188C27.5037 25.3368 28.0415 24.0306 28.0415 22.5V16.9583H22.4999C20.9693 16.9583 19.6631 17.4959 18.5811 18.571C17.4992 19.6466 16.9582 20.9563 16.9582 22.5C16.9582 24.0306 17.4992 25.3368 18.5811 26.4188C19.6631 27.5007 20.9693 28.0417 22.4999 28.0417ZM21.4509 26.3594L25.5478 22.6979C25.6797 22.5792 25.7193 22.4372 25.6665 22.272C25.6138 22.1073 25.495 22.0118 25.3103 21.9854L22.104 21.6688L24.0238 19.0365C24.0766 18.9705 24.0996 18.9011 24.0927 18.8283C24.0864 18.7559 24.0568 18.6868 24.004 18.6208C23.9381 18.5549 23.8623 18.5219 23.7768 18.5219C23.6908 18.5219 23.6148 18.5549 23.5488 18.6208L19.4718 22.2823C19.3398 22.401 19.3002 22.5428 19.353 22.7074C19.4058 22.8726 19.5245 22.9684 19.7093 22.9948L22.9155 23.3115L20.9759 25.9438C20.9363 26.0097 20.9165 26.0791 20.9165 26.152C20.9165 26.2243 20.9495 26.2934 21.0155 26.3594C21.0815 26.4253 21.154 26.4583 21.2332 26.4583C21.3124 26.4583 21.3849 26.4253 21.4509 26.3594Z" fill="#8807F7"/>
</svg>
