<svg width="133" height="41" viewBox="0 0 133 41" fill="none" xmlns="http://www.w3.org/2000/svg">
<path d="M63.3615 23.9495V27H52.8212V11.2238H56.3726V23.9495H63.3615ZM64.852 21.1038C64.852 20.0415 65.0114 19.1157 65.3301 18.3265C65.664 17.5221 66.0965 16.8543 66.6277 16.3232C67.1589 15.792 67.766 15.3898 68.4489 15.1166C69.1471 14.8434 69.8604 14.7068 70.5889 14.7068C72.2886 14.7068 73.6318 15.2304 74.6183 16.2776C75.6048 17.3096 76.098 18.8349 76.098 20.8534C76.098 21.0507 76.0904 21.2708 76.0752 21.5136C76.0601 21.7413 76.0449 21.9461 76.0297 22.1283H68.3351C68.411 22.8264 68.7373 23.3803 69.314 23.7901C69.8907 24.1999 70.6647 24.4048 71.636 24.4048C72.2583 24.4048 72.8654 24.3517 73.4573 24.2454C74.0643 24.124 74.5576 23.9798 74.937 23.8129L75.3923 26.5675C75.2102 26.6585 74.9673 26.7496 74.6638 26.8406C74.3603 26.9317 74.0188 27.0076 73.6394 27.0683C73.2751 27.1442 72.8805 27.2049 72.4556 27.2504C72.0306 27.2959 71.6057 27.3187 71.1807 27.3187C70.1032 27.3187 69.1622 27.1594 68.3579 26.8406C67.5687 26.5219 66.9085 26.0894 66.3773 25.543C65.8613 24.9815 65.4743 24.3213 65.2163 23.5625C64.9735 22.8036 64.852 21.9841 64.852 21.1038ZM72.8198 19.8062C72.8047 19.5179 72.7515 19.2371 72.6605 18.9639C72.5846 18.6907 72.4556 18.4479 72.2735 18.2354C72.1065 18.023 71.8865 17.8484 71.6133 17.7118C71.3553 17.5752 71.029 17.5069 70.6344 17.5069C70.255 17.5069 69.9287 17.5752 69.6555 17.7118C69.3823 17.8332 69.1547 18.0002 68.9725 18.2127C68.7904 18.4251 68.6462 18.6756 68.54 18.9639C68.4489 19.2371 68.3806 19.5179 68.3351 19.8062H72.8198ZM83.2914 24.6324C83.6253 24.6324 83.944 24.6248 84.2476 24.6097C84.5511 24.5945 84.7939 24.5717 84.9761 24.5414V21.9689C84.8395 21.9386 84.6346 21.9082 84.3614 21.8778C84.0882 21.8475 83.8378 21.8323 83.6101 21.8323C83.2914 21.8323 82.9879 21.8551 82.6995 21.9006C82.4264 21.931 82.1835 21.9993 81.9711 22.1055C81.7586 22.2117 81.5916 22.3559 81.4702 22.538C81.3488 22.7202 81.2881 22.9478 81.2881 23.221C81.2881 23.7522 81.4626 24.124 81.8117 24.3365C82.1759 24.5338 82.6692 24.6324 83.2914 24.6324ZM83.0183 14.7068C84.0199 14.7068 84.8546 14.8207 85.5224 15.0483C86.1902 15.276 86.7214 15.6023 87.116 16.0272C87.5257 16.4522 87.8141 16.9682 87.9811 17.5752C88.148 18.1823 88.2315 18.8577 88.2315 19.6013V26.6585C87.7458 26.7648 87.0704 26.8862 86.2054 27.0228C85.3403 27.1745 84.2931 27.2504 83.0638 27.2504C82.2898 27.2504 81.5841 27.1821 80.9466 27.0455C80.3244 26.9089 79.7856 26.6889 79.3303 26.3853C78.875 26.0666 78.5259 25.6569 78.2831 25.156C78.0403 24.6552 77.9189 24.0405 77.9189 23.3121C77.9189 22.6139 78.0555 22.022 78.3286 21.5364C78.617 21.0507 78.9964 20.6637 79.4669 20.3753C79.9374 20.087 80.4761 19.8821 81.0832 19.7607C81.6903 19.6241 82.3201 19.5558 82.9727 19.5558C83.4128 19.5558 83.7999 19.5786 84.1337 19.6241C84.4828 19.6545 84.7636 19.7 84.9761 19.7607V19.442C84.9761 18.8653 84.8015 18.4024 84.4525 18.0533C84.1034 17.7042 83.4963 17.5297 82.6312 17.5297C82.0545 17.5297 81.4854 17.5752 80.9239 17.6663C80.3623 17.7422 79.8767 17.856 79.4669 18.0078L79.0344 15.276C79.2317 15.2153 79.4745 15.1545 79.7628 15.0938C80.0664 15.018 80.3927 14.9573 80.7417 14.9117C81.0908 14.851 81.455 14.8055 81.8345 14.7751C82.2291 14.7296 82.6237 14.7068 83.0183 14.7068ZM98.5153 18.0305C98.2117 17.9547 97.8551 17.8788 97.4453 17.8029C97.0355 17.7118 96.5954 17.6663 96.1249 17.6663C95.9124 17.6663 95.6544 17.6891 95.3509 17.7346C95.0625 17.7649 94.8425 17.8029 94.6907 17.8484V27H91.2987V15.663C91.9058 15.4505 92.6191 15.2532 93.4386 15.0711C94.2734 14.8738 95.1991 14.7751 96.216 14.7751C96.3981 14.7751 96.6182 14.7903 96.8762 14.8207C97.1342 14.8358 97.3922 14.8662 97.6502 14.9117C97.9082 14.9421 98.1662 14.9876 98.4242 15.0483C98.6822 15.0938 98.9023 15.1545 99.0844 15.2304L98.5153 18.0305ZM100.903 15.4353C101.479 15.2684 102.223 15.1166 103.134 14.98C104.044 14.8282 105 14.7524 106.002 14.7524C107.019 14.7524 107.861 14.889 108.529 15.1621C109.212 15.4201 109.751 15.792 110.145 16.2776C110.54 16.7633 110.821 17.34 110.988 18.0078C111.155 18.6756 111.238 19.4192 111.238 20.2388V27H107.846V20.6485C107.846 19.5558 107.702 18.7818 107.414 18.3265C107.125 17.8712 106.586 17.6435 105.797 17.6435C105.554 17.6435 105.296 17.6587 105.023 17.6891C104.75 17.7042 104.507 17.727 104.295 17.7574V27H100.903V15.4353Z" fill="#3D0072"/>
<path d="M14.0555 8.60237C14.0625 11.2712 14.0625 13.9399 14.0695 16.6087C14.0765 18.9093 13.3225 21.1502 11.1903 22.325C8.69335 23.6892 5.15484 23.3456 2.37033 23.058C2.26512 23.051 2.16692 23.037 2.06873 23.0299C2.15991 21.1081 2.12484 19.1688 2.03366 17.254C1.91442 14.6589 3.48904 11.5657 6.27356 11.1274C9.30005 10.6504 11.9303 10.3278 13.3576 8.65848C13.4067 8.60938 13.4488 8.56029 13.4908 8.50418C13.7013 8.22012 13.9257 7.94306 14.1502 7.66602C14.08 7.96761 14.0555 8.28675 14.0555 8.60237Z" fill="#8807F7"/>
<path d="M4.91016 40.4383C6.99328 40.5716 9.09043 40.54 11.1771 40.5751C13.6109 40.6172 16.1008 40.9188 18.4505 40.4909C21.8206 39.8772 25.6116 37.6784 26.8636 34.4204C28.0244 31.4044 27.4773 27.8028 25.4784 25.2708C25.3381 25.0954 25.1908 24.9271 25.0295 24.7588C23.0095 22.5494 19.8743 21.3956 16.8969 21.7919C13.1901 22.2829 9.92509 25.1971 8.96418 28.8058C8.3645 31.0572 8.88703 33.456 8.53634 35.7495C8.24877 37.6503 6.62856 39.5967 4.91016 40.4383Z" fill="#8807F7"/>
<path d="M25.7406 0C25.5548 0.564618 25.7792 1.17833 26.0212 1.72191C29.1108 8.61656 37.3977 13.2808 37.1137 21.5607C36.9839 25.3061 35.1147 29.7073 31.99 31.9272C31.7621 32.0885 31.5552 32.2323 31.2886 32.306C30.6925 31.1908 30.6293 29.5565 30.1208 28.3256C29.4861 26.7825 28.6444 25.264 27.4696 24.0682C26.3438 22.9249 24.9341 22.2656 23.8083 21.1434C21.4446 18.7832 19.9542 15.5463 19.7578 12.2077C19.4702 7.44524 21.8514 2.72139 25.7406 0Z" fill="#8807F7"/>
<path d="M4.22945 16.6262C4.22945 16.6262 4.12073 14.5466 6.24945 14.6518C6.25296 14.6518 7.02799 16.9243 4.22945 16.6262Z" fill="white" stroke="#8807F7" stroke-width="0.5" stroke-miterlimit="10"/>
<path d="M3.52799 34.2205C5.47644 34.2205 7.05597 32.641 7.05597 30.6925C7.05597 28.7441 5.47644 27.1646 3.52799 27.1646C1.57953 27.1646 0 28.7441 0 30.6925C0 32.641 1.57953 34.2205 3.52799 34.2205Z" fill="#8807F7"/>
</svg>
