<svg width="594" height="352" viewBox="0 0 594 352" fill="none" xmlns="http://www.w3.org/2000/svg">
<path d="M36.0069 262.156C36.2758 262.045 36.554 261.92 36.8415 261.781C37.1383 261.632 37.4257 261.475 37.7039 261.308C37.9821 261.132 38.2464 260.951 38.4968 260.765C38.7565 260.57 38.9883 260.366 39.1923 260.153H40.639V269.793H38.5664V262.852C38.2882 263.037 37.9775 263.209 37.6344 263.366C37.2913 263.515 36.9574 263.645 36.6329 263.756L36.0069 262.156ZM46.6115 260.153C46.7784 260.459 46.9685 260.839 47.1818 261.294C47.4044 261.739 47.6316 262.226 47.8634 262.754C48.1045 263.274 48.341 263.807 48.5728 264.354C48.8047 264.901 49.0226 265.416 49.2266 265.898C49.4306 265.416 49.6485 264.901 49.8804 264.354C50.1122 263.807 50.3441 263.274 50.5759 262.754C50.817 262.226 51.0442 261.739 51.2575 261.294C51.4801 260.839 51.6748 260.459 51.8417 260.153H53.817C53.9097 260.793 53.9932 261.512 54.0674 262.309C54.1508 263.098 54.2204 263.923 54.276 264.785C54.3409 265.638 54.3966 266.496 54.4429 267.359C54.4986 268.221 54.5449 269.033 54.582 269.793H52.4677C52.4399 268.856 52.4028 267.836 52.3564 266.733C52.31 265.629 52.2405 264.516 52.1477 263.394C51.9808 263.784 51.7954 264.215 51.5913 264.688C51.3873 265.161 51.1833 265.634 50.9793 266.107C50.7845 266.58 50.5944 267.034 50.409 267.47C50.2235 267.897 50.0658 268.263 49.936 268.569H48.4198C48.29 268.263 48.1323 267.897 47.9469 267.47C47.7614 267.034 47.5666 266.58 47.3626 266.107C47.1679 265.634 46.9685 265.161 46.7645 264.688C46.5605 264.215 46.375 263.784 46.2081 263.394C46.1153 264.516 46.0458 265.629 45.9994 266.733C45.9531 267.836 45.916 268.856 45.8881 269.793H43.7738C43.8109 269.033 43.8526 268.221 43.899 267.359C43.9546 266.496 44.0103 265.638 44.0659 264.785C44.1308 263.923 44.2004 263.098 44.2746 262.309C44.358 261.512 44.4461 260.793 44.5389 260.153H46.6115Z" fill="#8807F7"/>
<path d="M160.585 270.002C160.335 270.002 160.075 269.983 159.806 269.946C159.546 269.918 159.296 269.876 159.055 269.821C158.823 269.774 158.61 269.723 158.415 269.668C158.22 269.603 158.072 269.543 157.97 269.487L158.304 268.054C158.498 268.147 158.781 268.254 159.152 268.374C159.523 268.485 159.982 268.541 160.529 268.541C161.262 268.541 161.791 268.402 162.115 268.124C162.44 267.836 162.602 267.456 162.602 266.983C162.602 266.677 162.537 266.422 162.407 266.218C162.287 266.014 162.115 265.852 161.893 265.731C161.679 265.601 161.429 265.513 161.141 265.467C160.863 265.411 160.566 265.383 160.251 265.383H159.681V264.02H160.376C160.59 264.02 160.803 264.002 161.016 263.965C161.239 263.918 161.438 263.844 161.614 263.742C161.791 263.631 161.934 263.487 162.046 263.311C162.157 263.135 162.212 262.907 162.212 262.629C162.212 262.407 162.171 262.217 162.087 262.059C162.004 261.901 161.893 261.771 161.753 261.669C161.624 261.567 161.471 261.493 161.294 261.447C161.118 261.4 160.933 261.377 160.738 261.377C160.321 261.377 159.95 261.442 159.625 261.572C159.301 261.693 159.013 261.832 158.763 261.989L158.151 260.737C158.281 260.654 158.438 260.566 158.624 260.473C158.809 260.38 159.013 260.292 159.236 260.209C159.468 260.125 159.713 260.06 159.973 260.014C160.233 259.958 160.506 259.931 160.794 259.931C161.331 259.931 161.795 259.996 162.185 260.125C162.574 260.255 162.894 260.441 163.144 260.682C163.404 260.914 163.594 261.192 163.715 261.516C163.845 261.832 163.91 262.179 163.91 262.56C163.91 263.005 163.784 263.404 163.534 263.756C163.293 264.108 162.978 264.377 162.588 264.563C163.089 264.739 163.501 265.031 163.826 265.439C164.16 265.847 164.327 266.371 164.327 267.011C164.327 267.438 164.253 267.836 164.104 268.207C163.956 268.569 163.729 268.884 163.423 269.153C163.117 269.413 162.727 269.621 162.254 269.779C161.791 269.927 161.234 270.002 160.585 270.002ZM168.463 260.153C168.667 260.506 168.894 260.937 169.145 261.447C169.395 261.957 169.65 262.495 169.91 263.06C170.169 263.617 170.424 264.187 170.675 264.771C170.935 265.346 171.171 265.88 171.384 266.371C171.598 265.88 171.829 265.346 172.08 264.771C172.33 264.187 172.585 263.617 172.845 263.06C173.105 262.495 173.36 261.957 173.61 261.447C173.86 260.937 174.088 260.506 174.292 260.153H175.877C175.961 260.858 176.04 261.609 176.114 262.407C176.188 263.195 176.253 264.006 176.309 264.841C176.373 265.666 176.429 266.501 176.475 267.345C176.531 268.179 176.577 268.995 176.615 269.793H174.89C174.853 268.671 174.806 267.516 174.751 266.329C174.704 265.142 174.63 263.992 174.528 262.88C174.426 263.093 174.305 263.348 174.166 263.645C174.027 263.941 173.879 264.266 173.721 264.618C173.564 264.961 173.401 265.319 173.234 265.689C173.077 266.06 172.919 266.422 172.761 266.774C172.613 267.118 172.474 267.442 172.344 267.748C172.214 268.045 172.103 268.3 172.01 268.513H170.703C170.61 268.3 170.499 268.04 170.369 267.734C170.239 267.428 170.095 267.104 169.938 266.761C169.789 266.408 169.632 266.046 169.465 265.676C169.307 265.305 169.149 264.948 168.992 264.604C168.834 264.261 168.686 263.941 168.547 263.645C168.408 263.339 168.287 263.084 168.185 262.88C168.083 263.992 168.004 265.142 167.948 266.329C167.902 267.516 167.86 268.671 167.823 269.793H166.098C166.136 268.995 166.177 268.17 166.224 267.317C166.279 266.464 166.335 265.62 166.391 264.785C166.455 263.941 166.525 263.125 166.599 262.337C166.673 261.549 166.752 260.821 166.836 260.153H168.463Z" fill="#9CA3AF"/>
<path d="M281.943 265.105C281.674 265.105 281.414 265.128 281.164 265.175C280.913 265.221 280.686 265.291 280.482 265.383C280.473 265.458 280.463 265.541 280.454 265.634C280.454 265.717 280.454 265.801 280.454 265.884C280.454 266.255 280.477 266.608 280.524 266.941C280.579 267.266 280.667 267.553 280.788 267.804C280.918 268.045 281.089 268.24 281.303 268.388C281.525 268.527 281.799 268.597 282.123 268.597C282.392 268.597 282.619 268.541 282.805 268.43C283 268.318 283.157 268.175 283.278 267.999C283.398 267.822 283.487 267.632 283.542 267.428C283.598 267.215 283.626 267.011 283.626 266.816C283.626 266.26 283.491 265.838 283.222 265.55C282.953 265.254 282.527 265.105 281.943 265.105ZM282.151 263.77C282.726 263.77 283.213 263.853 283.612 264.02C284.02 264.178 284.349 264.396 284.599 264.674C284.85 264.952 285.031 265.277 285.142 265.648C285.262 266.009 285.323 266.39 285.323 266.788C285.323 267.15 285.258 267.521 285.128 267.901C285.007 268.281 284.813 268.629 284.544 268.944C284.284 269.25 283.955 269.505 283.556 269.71C283.157 269.904 282.684 270.002 282.137 270.002C281.034 270.002 280.19 269.64 279.606 268.917C279.031 268.184 278.743 267.178 278.743 265.898C278.743 264.971 278.878 264.15 279.147 263.436C279.425 262.713 279.814 262.105 280.315 261.614C280.825 261.122 281.437 260.751 282.151 260.501C282.875 260.241 283.686 260.107 284.585 260.098L284.683 261.489C284.182 261.498 283.714 261.553 283.278 261.655C282.842 261.748 282.453 261.897 282.109 262.101C281.766 262.305 281.47 262.569 281.219 262.894C280.978 263.218 280.793 263.617 280.663 264.09C281.117 263.876 281.613 263.77 282.151 263.77ZM289.181 260.153C289.385 260.506 289.612 260.937 289.862 261.447C290.113 261.957 290.368 262.495 290.627 263.06C290.887 263.617 291.142 264.187 291.393 264.771C291.652 265.346 291.889 265.88 292.102 266.371C292.315 265.88 292.547 265.346 292.797 264.771C293.048 264.187 293.303 263.617 293.563 263.06C293.822 262.495 294.077 261.957 294.328 261.447C294.578 260.937 294.805 260.506 295.009 260.153H296.595C296.678 260.858 296.757 261.609 296.831 262.407C296.906 263.195 296.971 264.006 297.026 264.841C297.091 265.666 297.147 266.501 297.193 267.345C297.249 268.179 297.295 268.995 297.332 269.793H295.607C295.57 268.671 295.524 267.516 295.468 266.329C295.422 265.142 295.348 263.992 295.246 262.88C295.144 263.093 295.023 263.348 294.884 263.645C294.745 263.941 294.597 264.266 294.439 264.618C294.281 264.961 294.119 265.319 293.952 265.689C293.794 266.06 293.637 266.422 293.479 266.774C293.331 267.118 293.192 267.442 293.062 267.748C292.932 268.045 292.821 268.3 292.728 268.513H291.42C291.328 268.3 291.216 268.04 291.087 267.734C290.957 267.428 290.813 267.104 290.655 266.761C290.507 266.408 290.349 266.046 290.182 265.676C290.025 265.305 289.867 264.948 289.709 264.604C289.552 264.261 289.403 263.941 289.264 263.645C289.125 263.339 289.005 263.084 288.903 262.88C288.801 263.992 288.722 265.142 288.666 266.329C288.62 267.516 288.578 268.671 288.541 269.793H286.816C286.853 268.995 286.895 268.17 286.941 267.317C286.997 266.464 287.053 265.62 287.108 264.785C287.173 263.941 287.243 263.125 287.317 262.337C287.391 261.549 287.47 260.821 287.553 260.153H289.181Z" fill="#9CA3AF"/>
<path d="M399.509 262.156C400.047 261.943 400.585 261.669 401.123 261.336C401.67 261.002 402.152 260.608 402.569 260.153H403.752V269.793H402.068V262.407C401.818 262.601 401.503 262.791 401.123 262.977C400.742 263.162 400.376 263.315 400.024 263.436L399.509 262.156ZM410.559 264.424C410.976 263.728 411.384 263.023 411.783 262.309C412.182 261.595 412.543 260.877 412.868 260.153H414.815C414.296 261.136 413.753 262.115 413.188 263.088C412.631 264.053 412.033 265.026 411.393 266.009V269.793H409.641V266.037C409.001 265.045 408.398 264.062 407.832 263.088C407.267 262.115 406.724 261.136 406.205 260.153H408.264C408.588 260.877 408.945 261.595 409.335 262.309C409.724 263.023 410.132 263.728 410.559 264.424Z" fill="#9CA3AF"/>
<path d="M524.2 269.793C524.07 269.413 523.936 269.037 523.797 268.666C523.657 268.295 523.523 267.915 523.393 267.526H519.331C519.202 267.915 519.067 268.3 518.928 268.68C518.798 269.051 518.668 269.422 518.539 269.793H516.716C517.078 268.764 517.421 267.813 517.746 266.941C518.07 266.07 518.386 265.244 518.692 264.465C519.007 263.686 519.317 262.945 519.624 262.24C519.93 261.535 520.245 260.839 520.569 260.153H522.225C522.549 260.839 522.865 261.535 523.171 262.24C523.477 262.945 523.783 263.686 524.089 264.465C524.404 265.244 524.724 266.07 525.049 266.941C525.382 267.813 525.73 268.764 526.092 269.793H524.2ZM521.362 262.017C521.149 262.509 520.903 263.107 520.625 263.812C520.356 264.516 520.073 265.281 519.777 266.107H522.948C522.651 265.281 522.364 264.512 522.086 263.798C521.807 263.084 521.566 262.49 521.362 262.017ZM533.403 268.277V269.793H527.31V260.153H529.063V268.277H533.403ZM540.833 268.277V269.793H534.741V260.153H536.493V268.277H540.833Z" fill="#9CA3AF"/>
<path d="M3.25781 186.745C125.999 200.164 415.762 187.455 592.888 29.2734" stroke="#22C55E" stroke-width="2.36799"/>
<path d="M592.888 29.2734C415.762 187.455 125.999 200.164 3.25781 186.745V255.417H592.888V29.2734Z" fill="url(#paint0_linear_7239_109969)"/>
<path d="M4.04815 337.055C4.43247 336.415 4.80824 335.766 5.17548 335.108C5.54272 334.45 5.87579 333.788 6.17471 333.122H7.96819C7.48993 334.028 6.99032 334.929 6.46935 335.825C5.95693 336.713 5.40607 337.61 4.81678 338.516V342H3.20265V338.541C2.61336 337.627 2.05824 336.722 1.53727 335.825C1.01631 334.929 0.516694 334.028 0.0384318 333.122H1.9344C2.23331 333.788 2.56212 334.45 2.92082 335.108C3.27951 335.766 3.65529 336.415 4.04815 337.055ZM14.4019 338.644C14.4019 339.173 14.325 339.656 14.1713 340.091C14.0176 340.527 13.7998 340.898 13.518 341.206C13.2361 341.513 12.8945 341.752 12.4931 341.923C12.1003 342.094 11.6647 342.179 11.1865 342.179C10.7082 342.179 10.2726 342.094 9.87977 341.923C9.48691 341.752 9.14957 341.513 8.86774 341.206C8.5859 340.898 8.36385 340.527 8.20158 340.091C8.04786 339.656 7.97099 339.173 7.97099 338.644C7.97099 338.114 8.04786 337.636 8.20158 337.209C8.36385 336.773 8.5859 336.402 8.86774 336.094C9.15811 335.787 9.49972 335.552 9.89258 335.39C10.2854 335.219 10.7167 335.134 11.1865 335.134C11.6562 335.134 12.0875 335.219 12.4803 335.39C12.8817 335.552 13.2233 335.787 13.5052 336.094C13.787 336.402 14.0048 336.773 14.1585 337.209C14.3208 337.636 14.4019 338.114 14.4019 338.644ZM12.8134 338.644C12.8134 337.977 12.6682 337.452 12.3778 337.068C12.096 336.675 11.6989 336.479 11.1865 336.479C10.674 336.479 10.2726 336.675 9.98226 337.068C9.70042 337.452 9.55951 337.977 9.55951 338.644C9.55951 339.318 9.70042 339.852 9.98226 340.245C10.2726 340.638 10.674 340.834 11.1865 340.834C11.6989 340.834 12.096 340.638 12.3778 340.245C12.6682 339.852 12.8134 339.318 12.8134 338.644ZM21.4946 341.795C21.1957 341.872 20.8071 341.949 20.3288 342.026C19.8506 342.111 19.3253 342.154 18.7531 342.154C18.2151 342.154 17.7624 342.077 17.3952 341.923C17.0365 341.769 16.7461 341.556 16.5241 341.283C16.3106 341.009 16.1568 340.685 16.0629 340.309C15.9689 339.925 15.922 339.506 15.922 339.054V335.3H17.4721V338.81C17.4721 339.528 17.5745 340.04 17.7795 340.347C17.993 340.655 18.3603 340.809 18.8812 340.809C19.0691 340.809 19.2655 340.8 19.4705 340.783C19.684 340.766 19.842 340.745 19.9445 340.719V335.3H21.4946V341.795ZM27.2851 336.696C27.157 336.654 26.9776 336.611 26.747 336.568C26.525 336.517 26.2645 336.491 25.9656 336.491C25.7948 336.491 25.6112 336.509 25.4147 336.543C25.2268 336.577 25.0945 336.607 25.0176 336.632V342H23.4675V335.62C23.7664 335.509 24.1379 335.407 24.582 335.313C25.0347 335.21 25.5343 335.159 26.0809 335.159C26.1834 335.159 26.3029 335.168 26.4396 335.185C26.5762 335.193 26.7129 335.21 26.8495 335.236C26.9862 335.253 27.1185 335.279 27.2466 335.313C27.3747 335.338 27.4772 335.364 27.5541 335.39L27.2851 336.696ZM36.0695 338.682C36.0695 337.99 35.9115 337.452 35.5955 337.068C35.2881 336.684 34.7885 336.491 34.0967 336.491C33.9515 336.491 33.7978 336.5 33.6355 336.517C33.4818 336.526 33.3281 336.551 33.1743 336.594V340.424C33.311 340.518 33.4903 340.608 33.7124 340.693C33.943 340.77 34.1864 340.809 34.4426 340.809C35.0063 340.809 35.4162 340.616 35.6724 340.232C35.9372 339.848 36.0695 339.331 36.0695 338.682ZM37.658 338.656C37.658 339.169 37.5897 339.639 37.4531 340.066C37.325 340.493 37.1371 340.86 36.8894 341.167C36.6417 341.475 36.33 341.714 35.9542 341.885C35.587 342.056 35.1685 342.141 34.6988 342.141C34.3828 342.141 34.0924 342.102 33.8277 342.026C33.5629 341.949 33.3451 341.863 33.1743 341.769V344.37H31.6243V335.518C31.9403 335.432 32.3288 335.351 32.79 335.274C33.2512 335.198 33.738 335.159 34.2504 335.159C34.7799 335.159 35.2539 335.24 35.6724 335.403C36.0909 335.565 36.4453 335.8 36.7357 336.107C37.0346 336.406 37.2609 336.773 37.4146 337.209C37.5769 337.636 37.658 338.118 37.658 338.656ZM45.315 338.644C45.315 339.173 45.2381 339.656 45.0844 340.091C44.9307 340.527 44.7129 340.898 44.4311 341.206C44.1492 341.513 43.8076 341.752 43.4062 341.923C43.0133 342.094 42.5778 342.179 42.0995 342.179C41.6213 342.179 41.1857 342.094 40.7928 341.923C40.4 341.752 40.0626 341.513 39.7808 341.206C39.499 340.898 39.2769 340.527 39.1147 340.091C38.9609 339.656 38.8841 339.173 38.8841 338.644C38.8841 338.114 38.9609 337.636 39.1147 337.209C39.2769 336.773 39.499 336.402 39.7808 336.094C40.0712 335.787 40.4128 335.552 40.8057 335.39C41.1985 335.219 41.6298 335.134 42.0995 335.134C42.5692 335.134 43.0005 335.219 43.3934 335.39C43.7948 335.552 44.1364 335.787 44.4182 336.094C44.7001 336.402 44.9179 336.773 45.0716 337.209C45.2338 337.636 45.315 338.114 45.315 338.644ZM43.7265 338.644C43.7265 337.977 43.5813 337.452 43.2909 337.068C43.0091 336.675 42.6119 336.479 42.0995 336.479C41.5871 336.479 41.1857 336.675 40.8953 337.068C40.6135 337.452 40.4726 337.977 40.4726 338.644C40.4726 339.318 40.6135 339.852 40.8953 340.245C41.1857 340.638 41.5871 340.834 42.0995 340.834C42.6119 340.834 43.0091 340.638 43.2909 340.245C43.5813 339.852 43.7265 339.318 43.7265 338.644ZM50.7295 336.696C50.6014 336.654 50.422 336.611 50.1914 336.568C49.9694 336.517 49.7089 336.491 49.41 336.491C49.2392 336.491 49.0555 336.509 48.8591 336.543C48.6712 336.577 48.5388 336.607 48.462 336.632V342H46.9119V335.62C47.2108 335.509 47.5823 335.407 48.0264 335.313C48.4791 335.21 48.9787 335.159 49.5253 335.159C49.6278 335.159 49.7473 335.168 49.884 335.185C50.0206 335.193 50.1573 335.21 50.2939 335.236C50.4305 335.253 50.5629 335.279 50.691 335.313C50.8191 335.338 50.9216 335.364 50.9985 335.39L50.7295 336.696ZM52.0018 333.532L53.5519 333.276V335.3H55.9347V336.594H53.5519V339.323C53.5519 339.861 53.6373 340.245 53.8081 340.476C53.9789 340.706 54.2693 340.821 54.6792 340.821C54.9611 340.821 55.2087 340.792 55.4222 340.732C55.6443 340.672 55.8194 340.616 55.9475 340.565L56.2037 341.795C56.0243 341.872 55.7895 341.949 55.4991 342.026C55.2087 342.111 54.8671 342.154 54.4743 342.154C53.996 342.154 53.5946 342.09 53.2701 341.962C52.9541 341.833 52.7021 341.65 52.5142 341.411C52.3263 341.163 52.194 340.868 52.1171 340.527C52.0402 340.177 52.0018 339.779 52.0018 339.335V333.532ZM60.1618 332.059C60.5205 332.059 60.8365 332.093 61.1097 332.161C61.383 332.221 61.588 332.277 61.7247 332.328L61.43 333.609C61.2848 333.541 61.114 333.485 60.9176 333.443C60.7297 333.4 60.5247 333.378 60.3027 333.378C60.055 333.378 59.8458 333.417 59.675 333.494C59.5042 333.562 59.3675 333.66 59.265 333.788C59.1625 333.917 59.0899 334.075 59.0472 334.262C59.0045 334.442 58.9832 334.638 58.9832 334.852V335.3H61.4172V336.594H58.9832V342H57.4331V334.826C57.4331 333.963 57.6594 333.289 58.1121 332.802C58.5647 332.307 59.2479 332.059 60.1618 332.059ZM68.4967 338.644C68.4967 339.173 68.4198 339.656 68.2661 340.091C68.1123 340.527 67.8946 340.898 67.6127 341.206C67.3309 341.513 66.9893 341.752 66.5879 341.923C66.195 342.094 65.7595 342.179 65.2812 342.179C64.8029 342.179 64.3674 342.094 63.9745 341.923C63.5817 341.752 63.2443 341.513 62.9625 341.206C62.6806 340.898 62.4586 340.527 62.2963 340.091C62.1426 339.656 62.0657 339.173 62.0657 338.644C62.0657 338.114 62.1426 337.636 62.2963 337.209C62.4586 336.773 62.6806 336.402 62.9625 336.094C63.2529 335.787 63.5945 335.552 63.9873 335.39C64.3802 335.219 64.8115 335.134 65.2812 335.134C65.7509 335.134 66.1822 335.219 66.5751 335.39C66.9765 335.552 67.3181 335.787 67.5999 336.094C67.8817 336.402 68.0995 336.773 68.2533 337.209C68.4155 337.636 68.4967 338.114 68.4967 338.644ZM66.9081 338.644C66.9081 337.977 66.763 337.452 66.4726 337.068C66.1907 336.675 65.7936 336.479 65.2812 336.479C64.7688 336.479 64.3674 336.675 64.077 337.068C63.7952 337.452 63.6543 337.977 63.6543 338.644C63.6543 339.318 63.7952 339.852 64.077 340.245C64.3674 340.638 64.7688 340.834 65.2812 340.834C65.7936 340.834 66.1907 340.638 66.4726 340.245C66.763 339.852 66.9081 339.318 66.9081 338.644ZM72.4251 342.128C71.9639 342.12 71.5796 342.068 71.2722 341.974C70.9732 341.88 70.7341 341.748 70.5548 341.577C70.3754 341.398 70.2473 341.18 70.1704 340.924C70.1021 340.659 70.068 340.36 70.068 340.027V332.315L71.618 332.059V339.733C71.618 339.92 71.6309 340.078 71.6565 340.207C71.6906 340.335 71.7461 340.446 71.823 340.54C71.8999 340.625 72.0024 340.693 72.1305 340.745C72.2671 340.787 72.4379 340.821 72.6429 340.847L72.4251 342.128ZM75.4596 342H73.9095V335.3H75.4596V342ZM75.6262 333.34C75.6262 333.63 75.5322 333.861 75.3443 334.032C75.1564 334.203 74.9344 334.288 74.6782 334.288C74.4134 334.288 74.1871 334.203 73.9992 334.032C73.8113 333.861 73.7174 333.63 73.7174 333.34C73.7174 333.041 73.8113 332.806 73.9992 332.635C74.1871 332.465 74.4134 332.379 74.6782 332.379C74.9344 332.379 75.1564 332.465 75.3443 332.635C75.5322 332.806 75.6262 333.041 75.6262 333.34ZM83.4966 338.644C83.4966 339.173 83.4197 339.656 83.266 340.091C83.1122 340.527 82.8945 340.898 82.6126 341.206C82.3308 341.513 81.9892 341.752 81.5878 341.923C81.1949 342.094 80.7594 342.179 80.2811 342.179C79.8028 342.179 79.3673 342.094 78.9744 341.923C78.5816 341.752 78.2442 341.513 77.9624 341.206C77.6806 340.898 77.4585 340.527 77.2962 340.091C77.1425 339.656 77.0656 339.173 77.0656 338.644C77.0656 338.114 77.1425 337.636 77.2962 337.209C77.4585 336.773 77.6806 336.402 77.9624 336.094C78.2528 335.787 78.5944 335.552 78.9872 335.39C79.3801 335.219 79.8114 335.134 80.2811 335.134C80.7508 335.134 81.1821 335.219 81.575 335.39C81.9764 335.552 82.318 335.787 82.5998 336.094C82.8817 336.402 83.0994 336.773 83.2532 337.209C83.4154 337.636 83.4966 338.114 83.4966 338.644ZM81.9081 338.644C81.9081 337.977 81.7629 337.452 81.4725 337.068C81.1907 336.675 80.7935 336.479 80.2811 336.479C79.7687 336.479 79.3673 336.675 79.0769 337.068C78.7951 337.452 78.6542 337.977 78.6542 338.644C78.6542 339.318 78.7951 339.852 79.0769 340.245C79.3673 340.638 79.7687 340.834 80.2811 340.834C80.7935 340.834 81.1907 340.638 81.4725 340.245C81.7629 339.852 81.9081 339.318 81.9081 338.644ZM92.5287 338.682C92.5287 337.99 92.3707 337.452 92.0547 337.068C91.7473 336.684 91.2477 336.491 90.5559 336.491C90.4107 336.491 90.257 336.5 90.0947 336.517C89.941 336.526 89.7873 336.551 89.6335 336.594V340.424C89.7702 340.518 89.9495 340.608 90.1716 340.693C90.4022 340.77 90.6456 340.809 90.9018 340.809C91.4655 340.809 91.8754 340.616 92.1316 340.232C92.3964 339.848 92.5287 339.331 92.5287 338.682ZM94.1173 338.656C94.1173 339.169 94.0489 339.639 93.9123 340.066C93.7842 340.493 93.5963 340.86 93.3486 341.167C93.1009 341.475 92.7892 341.714 92.4134 341.885C92.0462 342.056 91.6277 342.141 91.158 342.141C90.842 342.141 90.5516 342.102 90.2869 342.026C90.0221 341.949 89.8044 341.863 89.6335 341.769V344.37H88.0835V335.518C88.3995 335.432 88.788 335.351 89.2492 335.274C89.7104 335.198 90.1972 335.159 90.7096 335.159C91.2391 335.159 91.7131 335.24 92.1316 335.403C92.5501 335.565 92.9045 335.8 93.1949 336.107C93.4938 336.406 93.7201 336.773 93.8739 337.209C94.0361 337.636 94.1173 338.118 94.1173 338.656ZM95.3433 338.682C95.3433 338.093 95.4287 337.576 95.5995 337.132C95.7788 336.688 96.0137 336.321 96.3041 336.03C96.5944 335.731 96.9275 335.509 97.3033 335.364C97.6791 335.21 98.0634 335.134 98.4562 335.134C99.3786 335.134 100.096 335.42 100.608 335.992C101.129 336.564 101.39 337.418 101.39 338.554C101.39 338.639 101.386 338.738 101.377 338.849C101.377 338.951 101.373 339.045 101.364 339.13H96.9446C96.9873 339.668 97.1752 340.087 97.5083 340.386C97.8499 340.676 98.3409 340.821 98.9815 340.821C99.3573 340.821 99.6989 340.787 100.006 340.719C100.322 340.651 100.57 340.578 100.749 340.501L100.954 341.769C100.869 341.812 100.749 341.859 100.596 341.91C100.45 341.953 100.28 341.991 100.083 342.026C99.8953 342.068 99.6903 342.102 99.4683 342.128C99.2462 342.154 99.0199 342.167 98.7893 342.167C98.2 342.167 97.6876 342.081 97.252 341.91C96.8165 341.731 96.4578 341.488 96.176 341.18C95.8941 340.864 95.6849 340.497 95.5482 340.078C95.4116 339.651 95.3433 339.186 95.3433 338.682ZM99.8398 337.99C99.8398 337.777 99.8099 337.576 99.7501 337.388C99.6903 337.192 99.6007 337.025 99.4811 336.889C99.3701 336.743 99.2291 336.632 99.0583 336.555C98.8961 336.47 98.6996 336.427 98.469 336.427C98.2299 336.427 98.0207 336.474 97.8413 336.568C97.662 336.654 97.5083 336.769 97.3801 336.914C97.2606 337.059 97.1666 337.226 97.0983 337.414C97.03 337.602 96.983 337.794 96.9574 337.99H99.8398ZM106.851 336.696C106.723 336.654 106.543 336.611 106.313 336.568C106.091 336.517 105.83 336.491 105.531 336.491C105.361 336.491 105.177 336.509 104.981 336.543C104.793 336.577 104.66 336.607 104.583 336.632V342H103.033V335.62C103.332 335.509 103.704 335.407 104.148 335.313C104.6 335.21 105.1 335.159 105.647 335.159C105.749 335.159 105.869 335.168 106.005 335.185C106.142 335.193 106.279 335.21 106.415 335.236C106.552 335.253 106.684 335.279 106.812 335.313C106.941 335.338 107.043 335.364 107.12 335.39L106.851 336.696ZM110.929 332.059C111.287 332.059 111.603 332.093 111.877 332.161C112.15 332.221 112.355 332.277 112.492 332.328L112.197 333.609C112.052 333.541 111.881 333.485 111.685 333.443C111.497 333.4 111.292 333.378 111.07 333.378C110.822 333.378 110.613 333.417 110.442 333.494C110.271 333.562 110.135 333.66 110.032 333.788C109.93 333.917 109.857 334.075 109.814 334.262C109.772 334.442 109.75 334.638 109.75 334.852V335.3H112.184V336.594H109.75V342H108.2V334.826C108.2 333.963 108.426 333.289 108.879 332.802C109.332 332.307 110.015 332.059 110.929 332.059ZM119.264 338.644C119.264 339.173 119.187 339.656 119.033 340.091C118.879 340.527 118.662 340.898 118.38 341.206C118.098 341.513 117.756 341.752 117.355 341.923C116.962 342.094 116.526 342.179 116.048 342.179C115.57 342.179 115.134 342.094 114.742 341.923C114.349 341.752 114.011 341.513 113.729 341.206C113.448 340.898 113.226 340.527 113.063 340.091C112.91 339.656 112.833 339.173 112.833 338.644C112.833 338.114 112.91 337.636 113.063 337.209C113.226 336.773 113.448 336.402 113.729 336.094C114.02 335.787 114.361 335.552 114.754 335.39C115.147 335.219 115.578 335.134 116.048 335.134C116.518 335.134 116.949 335.219 117.342 335.39C117.743 335.552 118.085 335.787 118.367 336.094C118.649 336.402 118.867 336.773 119.02 337.209C119.183 337.636 119.264 338.114 119.264 338.644ZM117.675 338.644C117.675 337.977 117.53 337.452 117.24 337.068C116.958 336.675 116.561 336.479 116.048 336.479C115.536 336.479 115.134 336.675 114.844 337.068C114.562 337.452 114.421 337.977 114.421 338.644C114.421 339.318 114.562 339.852 114.844 340.245C115.134 340.638 115.536 340.834 116.048 340.834C116.561 340.834 116.958 340.638 117.24 340.245C117.53 339.852 117.675 339.318 117.675 338.644ZM124.678 336.696C124.55 336.654 124.371 336.611 124.14 336.568C123.918 336.517 123.658 336.491 123.359 336.491C123.188 336.491 123.004 336.509 122.808 336.543C122.62 336.577 122.488 336.607 122.411 336.632V342H120.861V335.62C121.159 335.509 121.531 335.407 121.975 335.313C122.428 335.21 122.927 335.159 123.474 335.159C123.576 335.159 123.696 335.168 123.833 335.185C123.969 335.193 124.106 335.21 124.243 335.236C124.379 335.253 124.512 335.279 124.64 335.313C124.768 335.338 124.87 335.364 124.947 335.39L124.678 336.696ZM129.845 338.477C129.845 337.777 129.755 337.273 129.576 336.965C129.405 336.649 129.081 336.491 128.602 336.491C128.431 336.491 128.244 336.504 128.039 336.53C127.834 336.555 127.68 336.577 127.577 336.594V342H126.027V335.518C126.326 335.432 126.715 335.351 127.193 335.274C127.68 335.198 128.192 335.159 128.73 335.159C129.192 335.159 129.567 335.219 129.858 335.338C130.157 335.458 130.404 335.616 130.601 335.812C130.695 335.744 130.814 335.672 130.959 335.595C131.105 335.518 131.267 335.45 131.446 335.39C131.626 335.321 131.813 335.266 132.01 335.223C132.215 335.18 132.42 335.159 132.625 335.159C133.146 335.159 133.573 335.236 133.906 335.39C134.247 335.535 134.512 335.744 134.7 336.017C134.897 336.282 135.029 336.607 135.097 336.991C135.174 337.367 135.213 337.781 135.213 338.234V342H133.662V338.477C133.662 337.777 133.577 337.273 133.406 336.965C133.235 336.649 132.907 336.491 132.42 336.491C132.172 336.491 131.937 336.534 131.715 336.62C131.493 336.696 131.327 336.773 131.216 336.85C131.284 337.064 131.331 337.29 131.357 337.529C131.382 337.768 131.395 338.024 131.395 338.298V342H129.845V338.477ZM139.469 340.911C139.947 340.911 140.31 340.885 140.558 340.834V339.118C140.472 339.092 140.348 339.066 140.186 339.041C140.024 339.015 139.844 339.002 139.648 339.002C139.477 339.002 139.302 339.015 139.123 339.041C138.952 339.066 138.794 339.113 138.649 339.182C138.512 339.25 138.401 339.348 138.316 339.476C138.23 339.596 138.188 339.75 138.188 339.937C138.188 340.305 138.303 340.561 138.533 340.706C138.764 340.843 139.076 340.911 139.469 340.911ZM139.341 335.134C139.853 335.134 140.284 335.198 140.634 335.326C140.985 335.454 141.262 335.633 141.467 335.864C141.681 336.094 141.83 336.376 141.915 336.709C142.009 337.034 142.056 337.392 142.056 337.785V341.846C141.817 341.898 141.454 341.957 140.967 342.026C140.489 342.102 139.947 342.141 139.341 342.141C138.939 342.141 138.572 342.102 138.239 342.026C137.906 341.949 137.62 341.825 137.381 341.654C137.15 341.483 136.966 341.261 136.83 340.988C136.702 340.715 136.638 340.377 136.638 339.976C136.638 339.592 136.71 339.267 136.855 339.002C137.009 338.738 137.214 338.524 137.47 338.362C137.726 338.191 138.021 338.071 138.354 338.003C138.696 337.926 139.05 337.888 139.417 337.888C139.588 337.888 139.768 337.901 139.955 337.926C140.143 337.943 140.344 337.977 140.558 338.029V337.773C140.558 337.593 140.536 337.422 140.494 337.26C140.451 337.098 140.374 336.957 140.263 336.837C140.16 336.709 140.02 336.611 139.84 336.543C139.669 336.474 139.452 336.44 139.187 336.44C138.828 336.44 138.499 336.466 138.2 336.517C137.901 336.568 137.658 336.628 137.47 336.696L137.278 335.441C137.474 335.373 137.761 335.304 138.136 335.236C138.512 335.168 138.914 335.134 139.341 335.134ZM143.955 335.518C144.254 335.432 144.642 335.351 145.12 335.274C145.599 335.198 146.128 335.159 146.709 335.159C147.256 335.159 147.712 335.236 148.08 335.39C148.447 335.535 148.737 335.744 148.951 336.017C149.173 336.282 149.327 336.607 149.412 336.991C149.506 337.367 149.553 337.781 149.553 338.234V342H148.003V338.477C148.003 338.118 147.977 337.815 147.926 337.568C147.883 337.311 147.806 337.106 147.695 336.953C147.593 336.79 147.448 336.675 147.26 336.607C147.08 336.53 146.858 336.491 146.594 336.491C146.397 336.491 146.192 336.504 145.979 336.53C145.765 336.555 145.607 336.577 145.505 336.594V342H143.955V335.518ZM151.077 338.656C151.077 338.161 151.154 337.7 151.307 337.273C151.461 336.837 151.679 336.462 151.961 336.146C152.251 335.83 152.601 335.582 153.011 335.403C153.421 335.223 153.882 335.134 154.395 335.134C155.027 335.134 155.625 335.249 156.188 335.479L155.855 336.748C155.676 336.671 155.471 336.607 155.24 336.555C155.018 336.504 154.779 336.479 154.523 336.479C153.917 336.479 153.455 336.671 153.139 337.055C152.823 337.431 152.665 337.965 152.665 338.656C152.665 339.323 152.815 339.852 153.114 340.245C153.413 340.629 153.917 340.821 154.625 340.821C154.89 340.821 155.151 340.796 155.407 340.745C155.663 340.693 155.885 340.629 156.073 340.552L156.291 341.833C156.12 341.919 155.859 341.996 155.509 342.064C155.168 342.132 154.813 342.167 154.446 342.167C153.874 342.167 153.374 342.081 152.947 341.91C152.529 341.731 152.179 341.488 151.897 341.18C151.623 340.864 151.418 340.493 151.282 340.066C151.145 339.63 151.077 339.16 151.077 338.656ZM157.119 338.682C157.119 338.093 157.205 337.576 157.376 337.132C157.555 336.688 157.79 336.321 158.08 336.03C158.371 335.731 158.704 335.509 159.079 335.364C159.455 335.21 159.839 335.134 160.232 335.134C161.155 335.134 161.872 335.42 162.385 335.992C162.905 336.564 163.166 337.418 163.166 338.554C163.166 338.639 163.162 338.738 163.153 338.849C163.153 338.951 163.149 339.045 163.14 339.13H158.721C158.763 339.668 158.951 340.087 159.284 340.386C159.626 340.676 160.117 340.821 160.758 340.821C161.133 340.821 161.475 340.787 161.782 340.719C162.098 340.651 162.346 340.578 162.525 340.501L162.73 341.769C162.645 341.812 162.525 341.859 162.372 341.91C162.227 341.953 162.056 341.991 161.859 342.026C161.671 342.068 161.466 342.102 161.244 342.128C161.022 342.154 160.796 342.167 160.565 342.167C159.976 342.167 159.464 342.081 159.028 341.91C158.593 341.731 158.234 341.488 157.952 341.18C157.67 340.864 157.461 340.497 157.324 340.078C157.188 339.651 157.119 339.186 157.119 338.682ZM161.616 337.99C161.616 337.777 161.586 337.576 161.526 337.388C161.466 337.192 161.377 337.025 161.257 336.889C161.146 336.743 161.005 336.632 160.834 336.555C160.672 336.47 160.476 336.427 160.245 336.427C160.006 336.427 159.797 336.474 159.617 336.568C159.438 336.654 159.284 336.769 159.156 336.914C159.037 337.059 158.943 337.226 158.874 337.414C158.806 337.602 158.759 337.794 158.733 337.99H161.616ZM170.528 332.059C170.887 332.059 171.203 332.093 171.476 332.161C171.749 332.221 171.954 332.277 172.091 332.328L171.796 333.609C171.651 333.541 171.48 333.485 171.284 333.443C171.096 333.4 170.891 333.378 170.669 333.378C170.421 333.378 170.212 333.417 170.041 333.494C169.87 333.562 169.734 333.66 169.631 333.788C169.529 333.917 169.456 334.075 169.414 334.262C169.371 334.442 169.349 334.638 169.349 334.852V335.3H171.783V336.594H169.349V342H167.799V334.826C167.799 333.963 168.026 333.289 168.478 332.802C168.931 332.307 169.614 332.059 170.528 332.059ZM178.863 338.644C178.863 339.173 178.786 339.656 178.632 340.091C178.479 340.527 178.261 340.898 177.979 341.206C177.697 341.513 177.356 341.752 176.954 341.923C176.561 342.094 176.126 342.179 175.647 342.179C175.169 342.179 174.734 342.094 174.341 341.923C173.948 341.752 173.611 341.513 173.329 341.206C173.047 340.898 172.825 340.527 172.663 340.091C172.509 339.656 172.432 339.173 172.432 338.644C172.432 338.114 172.509 337.636 172.663 337.209C172.825 336.773 173.047 336.402 173.329 336.094C173.619 335.787 173.961 335.552 174.354 335.39C174.746 335.219 175.178 335.134 175.647 335.134C176.117 335.134 176.549 335.219 176.941 335.39C177.343 335.552 177.684 335.787 177.966 336.094C178.248 336.402 178.466 336.773 178.62 337.209C178.782 337.636 178.863 338.114 178.863 338.644ZM177.274 338.644C177.274 337.977 177.129 337.452 176.839 337.068C176.557 336.675 176.16 336.479 175.647 336.479C175.135 336.479 174.734 336.675 174.443 337.068C174.161 337.452 174.021 337.977 174.021 338.644C174.021 339.318 174.161 339.852 174.443 340.245C174.734 340.638 175.135 340.834 175.647 340.834C176.16 340.834 176.557 340.638 176.839 340.245C177.129 339.852 177.274 339.318 177.274 338.644ZM184.277 336.696C184.149 336.654 183.97 336.611 183.739 336.568C183.517 336.517 183.257 336.491 182.958 336.491C182.787 336.491 182.604 336.509 182.407 336.543C182.219 336.577 182.087 336.607 182.01 336.632V342H180.46V335.62C180.759 335.509 181.13 335.407 181.574 335.313C182.027 335.21 182.527 335.159 183.073 335.159C183.176 335.159 183.295 335.168 183.432 335.185C183.569 335.193 183.705 335.21 183.842 335.236C183.979 335.253 184.111 335.279 184.239 335.313C184.367 335.338 184.47 335.364 184.546 335.39L184.277 336.696ZM188.54 333.532L190.09 333.276V335.3H192.473V336.594H190.09V339.323C190.09 339.861 190.175 340.245 190.346 340.476C190.517 340.706 190.807 340.821 191.217 340.821C191.499 340.821 191.747 340.792 191.96 340.732C192.182 340.672 192.357 340.616 192.485 340.565L192.742 341.795C192.562 341.872 192.327 341.949 192.037 342.026C191.747 342.111 191.405 342.154 191.012 342.154C190.534 342.154 190.133 342.09 189.808 341.962C189.492 341.833 189.24 341.65 189.052 341.411C188.864 341.163 188.732 340.868 188.655 340.527C188.578 340.177 188.54 339.779 188.54 339.335V333.532ZM193.971 342V332.315L195.521 332.059V335.377C195.692 335.317 195.888 335.266 196.11 335.223C196.341 335.18 196.567 335.159 196.789 335.159C197.327 335.159 197.772 335.236 198.122 335.39C198.48 335.535 198.766 335.744 198.98 336.017C199.194 336.282 199.343 336.602 199.428 336.978C199.522 337.354 199.569 337.773 199.569 338.234V342H198.019V338.477C198.019 338.118 197.994 337.815 197.942 337.568C197.9 337.311 197.823 337.106 197.712 336.953C197.609 336.79 197.468 336.675 197.289 336.607C197.11 336.53 196.888 336.491 196.623 336.491C196.418 336.491 196.209 336.513 195.995 336.555C195.782 336.598 195.624 336.637 195.521 336.671V342H193.971ZM201.056 338.682C201.056 338.093 201.141 337.576 201.312 337.132C201.491 336.688 201.726 336.321 202.016 336.03C202.307 335.731 202.64 335.509 203.016 335.364C203.392 335.21 203.776 335.134 204.169 335.134C205.091 335.134 205.808 335.42 206.321 335.992C206.842 336.564 207.102 337.418 207.102 338.554C207.102 338.639 207.098 338.738 207.089 338.849C207.089 338.951 207.085 339.045 207.077 339.13H202.657C202.7 339.668 202.888 340.087 203.221 340.386C203.562 340.676 204.053 340.821 204.694 340.821C205.07 340.821 205.411 340.787 205.719 340.719C206.035 340.651 206.282 340.578 206.462 340.501L206.667 341.769C206.581 341.812 206.462 341.859 206.308 341.91C206.163 341.953 205.992 341.991 205.796 342.026C205.608 342.068 205.403 342.102 205.181 342.128C204.959 342.154 204.732 342.167 204.502 342.167C203.912 342.167 203.4 342.081 202.964 341.91C202.529 341.731 202.17 341.488 201.888 341.18C201.607 340.864 201.397 340.497 201.261 340.078C201.124 339.651 201.056 339.186 201.056 338.682ZM205.552 337.99C205.552 337.777 205.522 337.576 205.463 337.388C205.403 337.192 205.313 337.025 205.194 336.889C205.083 336.743 204.942 336.632 204.771 336.555C204.609 336.47 204.412 336.427 204.181 336.427C203.942 336.427 203.733 336.474 203.554 336.568C203.374 336.654 203.221 336.769 203.093 336.914C202.973 337.059 202.879 337.226 202.811 337.414C202.742 337.602 202.695 337.794 202.67 337.99H205.552ZM214.067 342.128C213.606 342.12 213.222 342.068 212.914 341.974C212.615 341.88 212.376 341.748 212.197 341.577C212.018 341.398 211.889 341.18 211.813 340.924C211.744 340.659 211.71 340.36 211.71 340.027V332.315L213.26 332.059V339.733C213.26 339.92 213.273 340.078 213.299 340.207C213.333 340.335 213.388 340.446 213.465 340.54C213.542 340.625 213.645 340.693 213.773 340.745C213.909 340.787 214.08 340.821 214.285 340.847L214.067 342.128ZM217.896 340.911C218.374 340.911 218.737 340.885 218.985 340.834V339.118C218.9 339.092 218.776 339.066 218.613 339.041C218.451 339.015 218.272 339.002 218.075 339.002C217.905 339.002 217.73 339.015 217.55 339.041C217.379 339.066 217.221 339.113 217.076 339.182C216.94 339.25 216.828 339.348 216.743 339.476C216.658 339.596 216.615 339.75 216.615 339.937C216.615 340.305 216.73 340.561 216.961 340.706C217.191 340.843 217.503 340.911 217.896 340.911ZM217.768 335.134C218.28 335.134 218.712 335.198 219.062 335.326C219.412 335.454 219.69 335.633 219.894 335.864C220.108 336.094 220.257 336.376 220.343 336.709C220.437 337.034 220.484 337.392 220.484 337.785V341.846C220.245 341.898 219.882 341.957 219.395 342.026C218.917 342.102 218.374 342.141 217.768 342.141C217.367 342.141 216.999 342.102 216.666 342.026C216.333 341.949 216.047 341.825 215.808 341.654C215.577 341.483 215.394 341.261 215.257 340.988C215.129 340.715 215.065 340.377 215.065 339.976C215.065 339.592 215.137 339.267 215.283 339.002C215.436 338.738 215.641 338.524 215.898 338.362C216.154 338.191 216.448 338.071 216.782 338.003C217.123 337.926 217.478 337.888 217.845 337.888C218.016 337.888 218.195 337.901 218.383 337.926C218.571 337.943 218.771 337.977 218.985 338.029V337.773C218.985 337.593 218.964 337.422 218.921 337.26C218.878 337.098 218.801 336.957 218.69 336.837C218.588 336.709 218.447 336.611 218.268 336.543C218.097 336.474 217.879 336.44 217.614 336.44C217.256 336.44 216.927 336.466 216.628 336.517C216.329 336.568 216.085 336.628 215.898 336.696L215.705 335.441C215.902 335.373 216.188 335.304 216.564 335.236C216.94 335.168 217.341 335.134 217.768 335.134ZM224.06 340.885C224.47 340.885 224.769 340.839 224.957 340.745C225.145 340.642 225.239 340.471 225.239 340.232C225.239 340.01 225.136 339.826 224.931 339.681C224.735 339.536 224.406 339.378 223.945 339.207C223.663 339.105 223.403 338.998 223.163 338.887C222.933 338.767 222.732 338.631 222.561 338.477C222.391 338.323 222.254 338.14 222.151 337.926C222.058 337.704 222.011 337.435 222.011 337.119C222.011 336.504 222.237 336.022 222.69 335.672C223.142 335.313 223.757 335.134 224.534 335.134C224.927 335.134 225.303 335.172 225.662 335.249C226.02 335.317 226.289 335.385 226.469 335.454L226.187 336.709C226.016 336.632 225.798 336.564 225.533 336.504C225.269 336.436 224.961 336.402 224.611 336.402C224.295 336.402 224.039 336.457 223.842 336.568C223.646 336.671 223.548 336.833 223.548 337.055C223.548 337.166 223.565 337.264 223.599 337.35C223.642 337.435 223.71 337.516 223.804 337.593C223.898 337.661 224.022 337.734 224.176 337.811C224.329 337.879 224.517 337.952 224.739 338.029C225.106 338.165 225.418 338.302 225.674 338.439C225.931 338.567 226.14 338.716 226.302 338.887C226.473 339.049 226.597 339.237 226.674 339.451C226.75 339.664 226.789 339.92 226.789 340.219C226.789 340.86 226.55 341.347 226.071 341.68C225.602 342.004 224.927 342.167 224.047 342.167C223.458 342.167 222.984 342.115 222.625 342.013C222.267 341.919 222.015 341.842 221.87 341.782L222.139 340.488C222.369 340.582 222.643 340.672 222.959 340.757C223.283 340.843 223.65 340.885 224.06 340.885ZM228.16 333.532L229.71 333.276V335.3H232.093V336.594H229.71V339.323C229.71 339.861 229.796 340.245 229.966 340.476C230.137 340.706 230.428 340.821 230.837 340.821C231.119 340.821 231.367 340.792 231.58 340.732C231.803 340.672 231.978 340.616 232.106 340.565L232.362 341.795C232.183 341.872 231.948 341.949 231.657 342.026C231.367 342.111 231.025 342.154 230.632 342.154C230.154 342.154 229.753 342.09 229.428 341.962C229.112 341.833 228.86 341.65 228.672 341.411C228.485 341.163 228.352 340.868 228.275 340.527C228.198 340.177 228.16 339.779 228.16 339.335V333.532ZM240.501 339.464C240.501 339.182 240.446 338.93 240.335 338.708C240.224 338.486 240.027 338.298 239.746 338.144C239.472 337.99 239.101 337.875 238.631 337.798C238.17 337.721 237.585 337.683 236.876 337.683C236.97 336.863 237.042 336.086 237.094 335.351C237.145 334.608 237.188 333.865 237.222 333.122H241.757V334.429H238.541C238.533 334.574 238.52 334.741 238.503 334.929C238.494 335.108 238.482 335.292 238.464 335.479C238.456 335.667 238.443 335.847 238.426 336.017C238.409 336.188 238.392 336.333 238.375 336.453C239.639 336.521 240.57 336.812 241.167 337.324C241.774 337.828 242.077 338.52 242.077 339.399C242.077 339.801 242.009 340.172 241.872 340.514C241.735 340.856 241.526 341.15 241.244 341.398C240.963 341.646 240.608 341.842 240.181 341.987C239.754 342.124 239.254 342.192 238.682 342.192C238.452 342.192 238.217 342.175 237.978 342.141C237.739 342.107 237.508 342.064 237.286 342.013C237.072 341.97 236.88 341.923 236.709 341.872C236.539 341.821 236.41 341.774 236.325 341.731L236.62 340.424C236.799 340.51 237.055 340.604 237.388 340.706C237.73 340.8 238.144 340.847 238.631 340.847C238.964 340.847 239.25 340.813 239.489 340.745C239.728 340.668 239.921 340.565 240.066 340.437C240.22 340.309 240.331 340.164 240.399 340.002C240.467 339.831 240.501 339.651 240.501 339.464ZM245.079 338.631C245.079 339.314 245.242 339.852 245.566 340.245C245.891 340.629 246.339 340.821 246.911 340.821C247.159 340.821 247.368 340.813 247.539 340.796C247.718 340.77 247.863 340.745 247.975 340.719V336.876C247.838 336.782 247.654 336.696 247.424 336.62C247.202 336.534 246.962 336.491 246.706 336.491C246.143 336.491 245.728 336.684 245.464 337.068C245.207 337.452 245.079 337.973 245.079 338.631ZM249.525 341.795C249.217 341.889 248.829 341.974 248.359 342.051C247.898 342.128 247.411 342.167 246.898 342.167C246.369 342.167 245.895 342.085 245.476 341.923C245.058 341.761 244.699 341.53 244.4 341.231C244.11 340.924 243.884 340.557 243.721 340.13C243.568 339.694 243.491 339.207 243.491 338.669C243.491 338.14 243.555 337.661 243.683 337.234C243.82 336.799 244.016 336.427 244.272 336.12C244.528 335.812 244.84 335.578 245.207 335.415C245.575 335.245 245.997 335.159 246.476 335.159C246.8 335.159 247.086 335.198 247.334 335.274C247.582 335.351 247.795 335.437 247.975 335.531V332.315L249.525 332.059V341.795ZM253.851 340.911C254.329 340.911 254.692 340.885 254.94 340.834V339.118C254.854 339.092 254.73 339.066 254.568 339.041C254.406 339.015 254.227 339.002 254.03 339.002C253.859 339.002 253.684 339.015 253.505 339.041C253.334 339.066 253.176 339.113 253.031 339.182C252.894 339.25 252.783 339.348 252.698 339.476C252.612 339.596 252.57 339.75 252.57 339.937C252.57 340.305 252.685 340.561 252.916 340.706C253.146 340.843 253.458 340.911 253.851 340.911ZM253.723 335.134C254.235 335.134 254.666 335.198 255.017 335.326C255.367 335.454 255.644 335.633 255.849 335.864C256.063 336.094 256.212 336.376 256.298 336.709C256.392 337.034 256.439 337.392 256.439 337.785V341.846C256.199 341.898 255.836 341.957 255.35 342.026C254.871 342.102 254.329 342.141 253.723 342.141C253.321 342.141 252.954 342.102 252.621 342.026C252.288 341.949 252.002 341.825 251.763 341.654C251.532 341.483 251.348 341.261 251.212 340.988C251.084 340.715 251.02 340.377 251.02 339.976C251.02 339.592 251.092 339.267 251.237 339.002C251.391 338.738 251.596 338.524 251.852 338.362C252.109 338.191 252.403 338.071 252.736 338.003C253.078 337.926 253.432 337.888 253.8 337.888C253.97 337.888 254.15 337.901 254.338 337.926C254.525 337.943 254.726 337.977 254.94 338.029V337.773C254.94 337.593 254.918 337.422 254.876 337.26C254.833 337.098 254.756 336.957 254.645 336.837C254.543 336.709 254.402 336.611 254.222 336.543C254.051 336.474 253.834 336.44 253.569 336.44C253.21 336.44 252.881 336.466 252.583 336.517C252.284 336.568 252.04 336.628 251.852 336.696L251.66 335.441C251.857 335.373 252.143 335.304 252.518 335.236C252.894 335.168 253.296 335.134 253.723 335.134ZM263.644 335.3C262.953 337.845 262.15 340.151 261.236 342.218C261.065 342.602 260.89 342.931 260.711 343.204C260.531 343.477 260.331 343.704 260.109 343.883C259.887 344.063 259.639 344.191 259.366 344.267C259.092 344.353 258.776 344.396 258.418 344.396C258.178 344.396 257.939 344.37 257.7 344.319C257.47 344.267 257.294 344.212 257.175 344.152L257.457 342.91C257.764 343.029 258.067 343.089 258.366 343.089C258.768 343.089 259.079 342.991 259.301 342.794C259.532 342.606 259.733 342.312 259.904 341.91C259.417 340.971 258.947 339.946 258.494 338.836C258.05 337.726 257.653 336.547 257.303 335.3H258.956C259.041 335.659 259.143 336.047 259.263 336.466C259.391 336.884 259.528 337.311 259.673 337.747C259.818 338.174 259.972 338.601 260.134 339.028C260.296 339.455 260.459 339.852 260.621 340.219C260.894 339.459 261.15 338.652 261.39 337.798C261.629 336.936 261.847 336.103 262.043 335.3H263.644ZM266.495 340.885C266.905 340.885 267.204 340.839 267.392 340.745C267.58 340.642 267.674 340.471 267.674 340.232C267.674 340.01 267.571 339.826 267.366 339.681C267.17 339.536 266.841 339.378 266.38 339.207C266.098 339.105 265.838 338.998 265.599 338.887C265.368 338.767 265.167 338.631 264.996 338.477C264.826 338.323 264.689 338.14 264.587 337.926C264.493 337.704 264.446 337.435 264.446 337.119C264.446 336.504 264.672 336.022 265.125 335.672C265.577 335.313 266.192 335.134 266.969 335.134C267.362 335.134 267.738 335.172 268.097 335.249C268.455 335.317 268.724 335.385 268.904 335.454L268.622 336.709C268.451 336.632 268.233 336.564 267.969 336.504C267.704 336.436 267.396 336.402 267.046 336.402C266.73 336.402 266.474 336.457 266.278 336.568C266.081 336.671 265.983 336.833 265.983 337.055C265.983 337.166 266 337.264 266.034 337.35C266.077 337.435 266.145 337.516 266.239 337.593C266.333 337.661 266.457 337.734 266.611 337.811C266.764 337.879 266.952 337.952 267.174 338.029C267.542 338.165 267.853 338.302 268.109 338.439C268.366 338.567 268.575 338.716 268.737 338.887C268.908 339.049 269.032 339.237 269.109 339.451C269.186 339.664 269.224 339.92 269.224 340.219C269.224 340.86 268.985 341.347 268.507 341.68C268.037 342.004 267.362 342.167 266.483 342.167C265.893 342.167 265.419 342.115 265.061 342.013C264.702 341.919 264.45 341.842 264.305 341.782L264.574 340.488C264.804 340.582 265.078 340.672 265.394 340.757C265.718 340.843 266.085 340.885 266.495 340.885Z" fill="#6B7280"/>
<path d="M291.178 336.102L286.436 340.844L281.693 336.102H291.178Z" fill="#3D0072"/>
<defs>
<linearGradient id="paint0_linear_7239_109969" x1="298.073" y1="29.2734" x2="298.073" y2="255.417" gradientUnits="userSpaceOnUse">
<stop stop-color="#22C55E" stop-opacity="0.31"/>
<stop offset="1" stop-color="#22C55E" stop-opacity="0"/>
</linearGradient>
</defs>
</svg>
