<svg width="349" height="202" viewBox="0 0 349 202" fill="none" xmlns="http://www.w3.org/2000/svg">
<rect width="349" height="202" rx="10" fill="#F0FCFE"/>
<path d="M109.43 75.8365C94.1623 64.1987 75.1757 58.5258 56.0261 59.8803C36.8765 61.2347 18.8774 69.5236 5.39976 83.1946C-8.07786 96.8656 -16.1095 114.981 -17.1911 134.148C-18.2726 153.315 -12.3298 172.219 -0.475649 187.319C11.3785 202.42 28.3309 212.681 47.2066 216.181C66.0822 219.681 85.5865 216.18 102.067 206.333C118.547 196.487 130.872 180.971 136.734 162.69C142.596 144.41 141.594 124.619 133.914 107.025L98.9098 122.304C102.873 131.383 103.39 141.595 100.365 151.027C97.3403 160.46 90.9806 168.466 82.4771 173.547C73.9736 178.627 63.9096 180.434 54.17 178.628C44.4304 176.822 35.6831 171.527 29.5665 163.735C23.4499 155.944 20.3835 146.19 20.9416 136.3C21.4996 126.41 25.6439 117.062 32.5982 110.008C39.5525 102.954 48.8398 98.6773 58.7208 97.9784C68.6018 97.2795 78.3986 100.207 86.2766 106.212L109.43 75.8365Z" fill="#E7F9FE"/>
<g opacity="0.2">
<path fill-rule="evenodd" clip-rule="evenodd" d="M186.454 89.1868C190.018 89.1868 192.907 86.2973 192.907 82.733C192.907 79.1687 190.018 76.2793 186.454 76.2793C182.889 76.2793 180 79.1687 180 82.733C180 86.2973 182.889 89.1868 186.454 89.1868ZM186.347 86.2243C188.216 86.2243 189.732 84.7085 189.732 82.8387C189.732 80.9689 188.216 79.4531 186.347 79.4531C184.477 79.4531 182.961 80.9689 182.961 82.8387C182.961 84.7085 184.477 86.2243 186.347 86.2243Z" fill="#0891B2"/>
<path fill-rule="evenodd" clip-rule="evenodd" d="M192.213 75.5816C193.754 75.5816 195.003 74.3321 195.003 72.7908C195.003 71.2495 193.754 70 192.213 70C190.671 70 189.422 71.2495 189.422 72.7908C189.422 74.3321 190.671 75.5816 192.213 75.5816ZM192.167 74.3006C192.976 74.3006 193.631 73.6452 193.631 72.8366C193.631 72.028 192.976 71.3726 192.167 71.3726C191.359 71.3726 190.703 72.028 190.703 72.8366C190.703 73.6452 191.359 74.3006 192.167 74.3006Z" fill="#0891B2"/>
</g>
<g opacity="0.2">
<path fill-rule="evenodd" clip-rule="evenodd" d="M313.454 173.187C317.018 173.187 319.907 170.297 319.907 166.733C319.907 163.169 317.018 160.279 313.454 160.279C309.889 160.279 307 163.169 307 166.733C307 170.297 309.889 173.187 313.454 173.187ZM313.347 170.224C315.216 170.224 316.732 168.708 316.732 166.839C316.732 164.969 315.216 163.453 313.347 163.453C311.477 163.453 309.961 164.969 309.961 166.839C309.961 168.708 311.477 170.224 313.347 170.224Z" fill="#0891B2"/>
<path fill-rule="evenodd" clip-rule="evenodd" d="M319.213 159.582C320.754 159.582 322.003 158.332 322.003 156.791C322.003 155.249 320.754 154 319.213 154C317.671 154 316.422 155.249 316.422 156.791C316.422 158.332 317.671 159.582 319.213 159.582ZM319.167 158.301C319.976 158.301 320.631 157.645 320.631 156.837C320.631 156.028 319.976 155.373 319.167 155.373C318.359 155.373 317.703 156.028 317.703 156.837C317.703 157.645 318.359 158.301 319.167 158.301Z" fill="#0891B2"/>
</g>
</svg>
