<svg width="27" height="27" viewBox="0 0 27 27" fill="none" xmlns="http://www.w3.org/2000/svg">
<path d="M25.0979 13.5C25.0979 20.4036 19.6911 26 13.0216 26C6.35204 26 0.945312 20.4036 0.945312 13.5C0.945312 6.59644 6.35204 1 13.0216 1C19.6911 1 25.0979 6.59644 25.0979 13.5ZM4.83711 13.5C4.83711 18.1788 8.50142 21.9717 13.0216 21.9717C17.5417 21.9717 21.2061 18.1788 21.2061 13.5C21.2061 8.82124 17.5417 5.02835 13.0216 5.02835C8.50142 5.02835 4.83711 8.82124 4.83711 13.5Z" fill="#EDEDED"/>
<path d="M13.925 23.7645C14.0085 24.8778 13.1687 25.8711 12.0581 25.7667C10.3789 25.6088 8.74259 25.0863 7.25916 24.2242C5.18551 23.0191 3.50366 21.2046 2.42629 19.0101C1.34893 16.8156 0.924435 14.3398 1.2065 11.8956C1.40852 10.1449 1.96651 8.46686 2.83512 6.96837C3.40009 5.9937 4.70653 5.89487 5.54543 6.63811C6.34487 7.3464 6.41102 8.5581 5.9321 9.51876C5.48963 10.4063 5.20124 11.3731 5.08561 12.3752C4.89519 14.0252 5.18176 15.6967 5.90908 17.1782C6.63641 18.6596 7.77181 19.8846 9.17172 20.6982C9.98071 21.1683 10.857 21.4888 11.7616 21.6509C12.8591 21.8474 13.8415 22.6512 13.925 23.7645Z" fill="#E8356D"/>
</svg>
