<svg width="821" height="384" viewBox="0 0 821 384" fill="none" xmlns="http://www.w3.org/2000/svg">
<g clip-path="url(#clip0_3927_77529)">
<path d="M3.82049 330.181C3.82049 331.788 4.06213 333.296 4.5454 334.707C5.02868 336.117 5.70135 337.404 6.56341 338.566L4.89806 339.664C3.84008 338.397 3.00415 336.96 2.39026 335.353C1.77636 333.734 1.46942 332.01 1.46942 330.181C1.46942 328.352 1.77636 326.635 2.39026 325.028C3.00415 323.409 3.84008 321.965 4.89806 320.698L6.56341 321.795C5.70135 322.971 5.02868 324.264 4.5454 325.675C4.06213 327.072 3.82049 328.574 3.82049 330.181ZM8.36329 336.039V331.004H6.8351V329.75H8.36329V328.143H6.8351V326.889H8.36329V322.05H10.4009L12.2622 326.889H14.574V322.05H16.1218V326.889H17.65V328.143H16.1218V329.75H17.65V331.004H16.1218V336.039H14.0646L12.2034 331.004H9.89149V336.039H8.36329ZM9.89149 329.75H11.7332L11.1454 328.143H9.8523L9.89149 329.75ZM14.574 333.277H14.6524L14.5936 331.004H13.7708L14.574 333.277ZM9.8523 326.889H10.6752L9.8523 324.46H9.77394L9.8523 326.889ZM13.3005 329.75H14.6132L14.574 328.143H12.7128L13.3005 329.75ZM25.355 332.16C25.355 331.729 25.2701 331.343 25.1003 331.004C24.9305 330.664 24.6301 330.377 24.199 330.142C23.7811 329.907 23.2129 329.73 22.4945 329.613C21.7892 329.495 20.8945 329.436 19.8104 329.436C19.9541 328.183 20.0651 326.994 20.1434 325.871C20.2218 324.734 20.2871 323.598 20.3394 322.462H27.275V324.46H22.3574C22.3443 324.682 22.3247 324.937 22.2986 325.224C22.2855 325.498 22.2659 325.779 22.2398 326.067C22.2268 326.354 22.2072 326.628 22.181 326.889C22.1549 327.151 22.1288 327.373 22.1027 327.556C24.0358 327.66 25.4595 328.104 26.3738 328.888C27.3012 329.659 27.7648 330.716 27.7648 332.062C27.7648 332.676 27.6603 333.244 27.4514 333.766C27.2424 334.289 26.9224 334.739 26.4913 335.118C26.0603 335.497 25.5183 335.797 24.8652 336.019C24.2121 336.228 23.448 336.333 22.5729 336.333C22.2202 336.333 21.861 336.307 21.4953 336.255C21.1296 336.202 20.7769 336.137 20.4373 336.059C20.1108 335.993 19.8169 335.922 19.5557 335.843C19.2944 335.765 19.0985 335.693 18.9679 335.628L19.4185 333.629C19.6928 333.76 20.0847 333.904 20.5941 334.06C21.1165 334.204 21.75 334.276 22.4945 334.276C23.0039 334.276 23.4415 334.224 23.8072 334.119C24.1729 334.001 24.4668 333.845 24.6888 333.649C24.924 333.453 25.0938 333.231 25.1982 332.983C25.3027 332.721 25.355 332.447 25.355 332.16ZM32.9442 333.433C32.9704 333.655 32.9834 333.819 32.9834 333.923C32.9834 334.028 32.9834 334.132 32.9834 334.237C32.9834 335.046 32.8528 335.882 32.5916 336.744C32.3434 337.606 31.9907 338.423 31.5336 339.193L29.6723 338.684C29.9858 337.926 30.1948 337.182 30.2993 336.45C30.4168 335.732 30.4756 335.099 30.4756 334.55C30.4756 334.393 30.4691 334.197 30.456 333.962C30.456 333.727 30.4495 333.551 30.4364 333.433H32.9442ZM44.515 329.241C44.515 331.526 44.097 333.283 43.2611 334.511C42.4251 335.726 41.2692 336.333 39.7933 336.333C38.3173 336.333 37.1614 335.726 36.3254 334.511C35.4895 333.283 35.0715 331.526 35.0715 329.241C35.0715 328.104 35.176 327.098 35.385 326.223C35.607 325.335 35.9205 324.591 36.3254 323.99C36.7434 323.389 37.2397 322.932 37.8144 322.618C38.4022 322.305 39.0618 322.148 39.7933 322.148C41.2692 322.148 42.4251 322.762 43.2611 323.99C44.097 325.205 44.515 326.955 44.515 329.241ZM42.066 329.241C42.066 328.535 42.0268 327.876 41.9484 327.262C41.87 326.648 41.7394 326.119 41.5566 325.675C41.3868 325.218 41.1582 324.858 40.8708 324.597C40.5835 324.336 40.2243 324.205 39.7933 324.205C39.3622 324.205 38.9965 324.336 38.6961 324.597C38.4087 324.858 38.1736 325.218 37.9908 325.675C37.821 326.119 37.6969 326.648 37.6185 327.262C37.5532 327.876 37.5206 328.535 37.5206 329.241C37.5206 329.946 37.5532 330.605 37.6185 331.219C37.6969 331.833 37.821 332.369 37.9908 332.826C38.1736 333.27 38.4087 333.623 38.6961 333.884C38.9965 334.145 39.3622 334.276 39.7933 334.276C40.2243 334.276 40.5835 334.145 40.8708 333.884C41.1582 333.623 41.3868 333.27 41.5566 332.826C41.7394 332.369 41.87 331.833 41.9484 331.219C42.0268 330.605 42.066 329.946 42.066 329.241ZM55.6504 329.241C55.6504 331.526 55.2325 333.283 54.3965 334.511C53.5606 335.726 52.4046 336.333 50.9287 336.333C49.4527 336.333 48.2968 335.726 47.4609 334.511C46.6249 333.283 46.207 331.526 46.207 329.241C46.207 328.104 46.3115 327.098 46.5204 326.223C46.7425 325.335 47.056 324.591 47.4609 323.99C47.8788 323.389 48.3752 322.932 48.9499 322.618C49.5376 322.305 50.1973 322.148 50.9287 322.148C52.4046 322.148 53.5606 322.762 54.3965 323.99C55.2325 325.205 55.6504 326.955 55.6504 329.241ZM53.2014 329.241C53.2014 328.535 53.1622 327.876 53.0838 327.262C53.0055 326.648 52.8749 326.119 52.692 325.675C52.5222 325.218 52.2936 324.858 52.0063 324.597C51.7189 324.336 51.3597 324.205 50.9287 324.205C50.4977 324.205 50.1319 324.336 49.8315 324.597C49.5442 324.858 49.3091 325.218 49.1262 325.675C48.9564 326.119 48.8323 326.648 48.754 327.262C48.6887 327.876 48.656 328.535 48.656 329.241C48.656 329.946 48.6887 330.605 48.754 331.219C48.8323 331.833 48.9564 332.369 49.1262 332.826C49.3091 333.27 49.5442 333.623 49.8315 333.884C50.1319 334.145 50.4977 334.276 50.9287 334.276C51.3597 334.276 51.7189 334.145 52.0063 333.884C52.2936 333.623 52.5222 333.27 52.692 332.826C52.8749 332.369 53.0055 331.833 53.0838 331.219C53.1622 330.605 53.2014 329.946 53.2014 329.241ZM66.7859 329.241C66.7859 331.526 66.3679 333.283 65.532 334.511C64.696 335.726 63.5401 336.333 62.0641 336.333C60.5882 336.333 59.4322 335.726 58.5963 334.511C57.7604 333.283 57.3424 331.526 57.3424 329.241C57.3424 328.104 57.4469 327.098 57.6559 326.223C57.8779 325.335 58.1914 324.591 58.5963 323.99C59.0143 323.389 59.5106 322.932 60.0853 322.618C60.6731 322.305 61.3327 322.148 62.0641 322.148C63.5401 322.148 64.696 322.762 65.532 323.99C66.3679 325.205 66.7859 326.955 66.7859 329.241ZM64.3368 329.241C64.3368 328.535 64.2977 327.876 64.2193 327.262C64.1409 326.648 64.0103 326.119 63.8274 325.675C63.6576 325.218 63.4291 324.858 63.1417 324.597C62.8544 324.336 62.4952 324.205 62.0641 324.205C61.6331 324.205 61.2674 324.336 60.967 324.597C60.6796 324.858 60.4445 325.218 60.2617 325.675C60.0919 326.119 59.9678 326.648 59.8894 327.262C59.8241 327.876 59.7914 328.535 59.7914 329.241C59.7914 329.946 59.8241 330.605 59.8894 331.219C59.9678 331.833 60.0919 332.369 60.2617 332.826C60.4445 333.27 60.6796 333.623 60.967 333.884C61.2674 334.145 61.6331 334.276 62.0641 334.276C62.4952 334.276 62.8544 334.145 63.1417 333.884C63.4291 333.623 63.6576 333.27 63.8274 332.826C64.0103 332.369 64.1409 331.833 64.2193 331.219C64.2977 330.605 64.3368 329.946 64.3368 329.241ZM71.8085 334.746C71.8085 335.203 71.6518 335.575 71.3383 335.863C71.0379 336.15 70.6722 336.294 70.2412 336.294C69.7971 336.294 69.4248 336.15 69.1244 335.863C68.824 335.575 68.6738 335.203 68.6738 334.746C68.6738 334.289 68.824 333.917 69.1244 333.629C69.4248 333.329 69.7971 333.179 70.2412 333.179C70.6722 333.179 71.0379 333.329 71.3383 333.629C71.6518 333.917 71.8085 334.289 71.8085 334.746ZM83.1255 329.241C83.1255 331.526 82.7075 333.283 81.8716 334.511C81.0357 335.726 79.8797 336.333 78.4038 336.333C76.9278 336.333 75.7719 335.726 74.9359 334.511C74.1 333.283 73.682 331.526 73.682 329.241C73.682 328.104 73.7865 327.098 73.9955 326.223C74.2176 325.335 74.531 324.591 74.9359 323.99C75.3539 323.389 75.8503 322.932 76.425 322.618C77.0127 322.305 77.6723 322.148 78.4038 322.148C79.8797 322.148 81.0357 322.762 81.8716 323.99C82.7075 325.205 83.1255 326.955 83.1255 329.241ZM80.6765 329.241C80.6765 328.535 80.6373 327.876 80.5589 327.262C80.4806 326.648 80.3499 326.119 80.1671 325.675C79.9973 325.218 79.7687 324.858 79.4814 324.597C79.194 324.336 78.8348 324.205 78.4038 324.205C77.9727 324.205 77.607 324.336 77.3066 324.597C77.0193 324.858 76.7842 325.218 76.6013 325.675C76.4315 326.119 76.3074 326.648 76.229 327.262C76.1637 327.876 76.1311 328.535 76.1311 329.241C76.1311 329.946 76.1637 330.605 76.229 331.219C76.3074 331.833 76.4315 332.369 76.6013 332.826C76.7842 333.27 77.0193 333.623 77.3066 333.884C77.607 334.145 77.9727 334.276 78.4038 334.276C78.8348 334.276 79.194 334.145 79.4814 333.884C79.7687 333.623 79.9973 333.27 80.1671 332.826C80.3499 332.369 80.4806 331.833 80.5589 331.219C80.6373 330.605 80.6765 329.946 80.6765 329.241ZM94.261 329.241C94.261 331.526 93.843 333.283 93.0071 334.511C92.1711 335.726 91.0152 336.333 89.5392 336.333C88.0633 336.333 86.9073 335.726 86.0714 334.511C85.2355 333.283 84.8175 331.526 84.8175 329.241C84.8175 328.104 84.922 327.098 85.131 326.223C85.353 325.335 85.6665 324.591 86.0714 323.99C86.4894 323.389 86.9857 322.932 87.5604 322.618C88.1482 322.305 88.8078 322.148 89.5392 322.148C91.0152 322.148 92.1711 322.762 93.0071 323.99C93.843 325.205 94.261 326.955 94.261 329.241ZM91.8119 329.241C91.8119 328.535 91.7727 327.876 91.6944 327.262C91.616 326.648 91.4854 326.119 91.3025 325.675C91.1327 325.218 90.9042 324.858 90.6168 324.597C90.3294 324.336 89.9703 324.205 89.5392 324.205C89.1082 324.205 88.7425 324.336 88.4421 324.597C88.1547 324.858 87.9196 325.218 87.7367 325.675C87.5669 326.119 87.4429 326.648 87.3645 327.262C87.2992 327.876 87.2665 328.535 87.2665 329.241C87.2665 329.946 87.2992 330.605 87.3645 331.219C87.4429 331.833 87.5669 332.369 87.7367 332.826C87.9196 333.27 88.1547 333.623 88.4421 333.884C88.7425 334.145 89.1082 334.276 89.5392 334.276C89.9703 334.276 90.3294 334.145 90.6168 333.884C90.9042 333.623 91.1327 333.27 91.3025 332.826C91.4854 332.369 91.616 331.833 91.6944 331.219C91.7727 330.605 91.8119 329.946 91.8119 329.241ZM97.9318 330.181C97.9318 328.574 97.6901 327.072 97.2068 325.675C96.7236 324.264 96.0509 322.971 95.1888 321.795L96.8542 320.698C97.9122 321.965 98.7481 323.409 99.362 325.028C99.9759 326.635 100.283 328.352 100.283 330.181C100.283 332.01 99.9759 333.734 99.362 335.353C98.7481 336.96 97.9122 338.397 96.8542 339.664L95.1888 338.566C96.0509 337.404 96.7236 336.117 97.2068 334.707C97.6901 333.296 97.9318 331.788 97.9318 330.181Z" fill="#9CA3AF"/>
<path d="M3.82049 226.876C3.82049 228.483 4.06213 229.991 4.5454 231.402C5.02868 232.813 5.70135 234.099 6.56341 235.262L4.89806 236.359C3.84008 235.092 3.00415 233.655 2.39026 232.049C1.77636 230.429 1.46942 228.705 1.46942 226.876C1.46942 225.048 1.77636 223.33 2.39026 221.724C3.00415 220.104 3.84008 218.661 4.89806 217.394L6.56341 218.491C5.70135 219.666 5.02868 220.959 4.5454 222.37C4.06213 223.768 3.82049 225.27 3.82049 226.876ZM8.36329 232.734V227.699H6.8351V226.445H8.36329V224.839H6.8351V223.585H8.36329V218.746H10.4009L12.2622 223.585H14.574V218.746H16.1218V223.585H17.65V224.839H16.1218V226.445H17.65V227.699H16.1218V232.734H14.0646L12.2034 227.699H9.89149V232.734H8.36329ZM9.89149 226.445H11.7332L11.1454 224.839H9.8523L9.89149 226.445ZM14.574 229.972H14.6524L14.5936 227.699H13.7708L14.574 229.972ZM9.8523 223.585H10.6752L9.8523 221.155H9.77394L9.8523 223.585ZM13.3005 226.445H14.6132L14.574 224.839H12.7128L13.3005 226.445ZM25.355 228.855C25.355 228.424 25.2701 228.039 25.1003 227.699C24.9305 227.36 24.6301 227.072 24.199 226.837C23.7811 226.602 23.2129 226.426 22.4945 226.308C21.7892 226.191 20.8945 226.132 19.8104 226.132C19.9541 224.878 20.0651 223.689 20.1434 222.566C20.2218 221.43 20.2871 220.293 20.3394 219.157H27.275V221.155H22.3574C22.3443 221.377 22.3247 221.632 22.2986 221.919C22.2855 222.194 22.2659 222.475 22.2398 222.762C22.2268 223.049 22.2072 223.324 22.181 223.585C22.1549 223.846 22.1288 224.068 22.1027 224.251C24.0358 224.355 25.4595 224.8 26.3738 225.583C27.3012 226.354 27.7648 227.412 27.7648 228.757C27.7648 229.371 27.6603 229.939 27.4514 230.462C27.2424 230.984 26.9224 231.435 26.4913 231.814C26.0603 232.192 25.5183 232.493 24.8652 232.715C24.2121 232.924 23.448 233.028 22.5729 233.028C22.2202 233.028 21.861 233.002 21.4953 232.95C21.1296 232.898 20.7769 232.832 20.4373 232.754C20.1108 232.689 19.8169 232.617 19.5557 232.538C19.2944 232.46 19.0985 232.388 18.9679 232.323L19.4185 230.325C19.6928 230.455 20.0847 230.599 20.5941 230.756C21.1165 230.899 21.75 230.971 22.4945 230.971C23.0039 230.971 23.4415 230.919 23.8072 230.814C24.1729 230.697 24.4668 230.54 24.6888 230.344C24.924 230.148 25.0938 229.926 25.1982 229.678C25.3027 229.417 25.355 229.142 25.355 228.855ZM32.9442 230.129C32.9704 230.351 32.9834 230.514 32.9834 230.618C32.9834 230.723 32.9834 230.827 32.9834 230.932C32.9834 231.742 32.8528 232.578 32.5916 233.44C32.3434 234.302 31.9907 235.118 31.5336 235.889L29.6723 235.379C29.9858 234.622 30.1948 233.877 30.2993 233.146C30.4168 232.427 30.4756 231.794 30.4756 231.245C30.4756 231.089 30.4691 230.893 30.456 230.658C30.456 230.422 30.4495 230.246 30.4364 230.129H32.9442ZM44.515 225.936C44.515 228.222 44.097 229.978 43.2611 231.206C42.4251 232.421 41.2692 233.028 39.7933 233.028C38.3173 233.028 37.1614 232.421 36.3254 231.206C35.4895 229.978 35.0715 228.222 35.0715 225.936C35.0715 224.8 35.176 223.794 35.385 222.919C35.607 222.03 35.9205 221.286 36.3254 220.685C36.7434 220.084 37.2397 219.627 37.8144 219.314C38.4022 219 39.0618 218.843 39.7933 218.843C41.2692 218.843 42.4251 219.457 43.2611 220.685C44.097 221.9 44.515 223.65 44.515 225.936ZM42.066 225.936C42.066 225.231 42.0268 224.571 41.9484 223.957C41.87 223.343 41.7394 222.814 41.5566 222.37C41.3868 221.913 41.1582 221.554 40.8708 221.292C40.5835 221.031 40.2243 220.901 39.7933 220.901C39.3622 220.901 38.9965 221.031 38.6961 221.292C38.4087 221.554 38.1736 221.913 37.9908 222.37C37.821 222.814 37.6969 223.343 37.6185 223.957C37.5532 224.571 37.5206 225.231 37.5206 225.936C37.5206 226.641 37.5532 227.301 37.6185 227.915C37.6969 228.529 37.821 229.064 37.9908 229.521C38.1736 229.965 38.4087 230.318 38.6961 230.579C38.9965 230.84 39.3622 230.971 39.7933 230.971C40.2243 230.971 40.5835 230.84 40.8708 230.579C41.1582 230.318 41.3868 229.965 41.5566 229.521C41.7394 229.064 41.87 228.529 41.9484 227.915C42.0268 227.301 42.066 226.641 42.066 225.936ZM55.6504 225.936C55.6504 228.222 55.2325 229.978 54.3965 231.206C53.5606 232.421 52.4046 233.028 50.9287 233.028C49.4527 233.028 48.2968 232.421 47.4609 231.206C46.6249 229.978 46.207 228.222 46.207 225.936C46.207 224.8 46.3115 223.794 46.5204 222.919C46.7425 222.03 47.056 221.286 47.4609 220.685C47.8788 220.084 48.3752 219.627 48.9499 219.314C49.5376 219 50.1973 218.843 50.9287 218.843C52.4046 218.843 53.5606 219.457 54.3965 220.685C55.2325 221.9 55.6504 223.65 55.6504 225.936ZM53.2014 225.936C53.2014 225.231 53.1622 224.571 53.0838 223.957C53.0055 223.343 52.8749 222.814 52.692 222.37C52.5222 221.913 52.2936 221.554 52.0063 221.292C51.7189 221.031 51.3597 220.901 50.9287 220.901C50.4977 220.901 50.1319 221.031 49.8315 221.292C49.5442 221.554 49.3091 221.913 49.1262 222.37C48.9564 222.814 48.8323 223.343 48.754 223.957C48.6887 224.571 48.656 225.231 48.656 225.936C48.656 226.641 48.6887 227.301 48.754 227.915C48.8323 228.529 48.9564 229.064 49.1262 229.521C49.3091 229.965 49.5442 230.318 49.8315 230.579C50.1319 230.84 50.4977 230.971 50.9287 230.971C51.3597 230.971 51.7189 230.84 52.0063 230.579C52.2936 230.318 52.5222 229.965 52.692 229.521C52.8749 229.064 53.0055 228.529 53.0838 227.915C53.1622 227.301 53.2014 226.641 53.2014 225.936ZM66.7859 225.936C66.7859 228.222 66.3679 229.978 65.532 231.206C64.696 232.421 63.5401 233.028 62.0641 233.028C60.5882 233.028 59.4322 232.421 58.5963 231.206C57.7604 229.978 57.3424 228.222 57.3424 225.936C57.3424 224.8 57.4469 223.794 57.6559 222.919C57.8779 222.03 58.1914 221.286 58.5963 220.685C59.0143 220.084 59.5106 219.627 60.0853 219.314C60.6731 219 61.3327 218.843 62.0641 218.843C63.5401 218.843 64.696 219.457 65.532 220.685C66.3679 221.9 66.7859 223.65 66.7859 225.936ZM64.3368 225.936C64.3368 225.231 64.2977 224.571 64.2193 223.957C64.1409 223.343 64.0103 222.814 63.8274 222.37C63.6576 221.913 63.4291 221.554 63.1417 221.292C62.8544 221.031 62.4952 220.901 62.0641 220.901C61.6331 220.901 61.2674 221.031 60.967 221.292C60.6796 221.554 60.4445 221.913 60.2617 222.37C60.0919 222.814 59.9678 223.343 59.8894 223.957C59.8241 224.571 59.7914 225.231 59.7914 225.936C59.7914 226.641 59.8241 227.301 59.8894 227.915C59.9678 228.529 60.0919 229.064 60.2617 229.521C60.4445 229.965 60.6796 230.318 60.967 230.579C61.2674 230.84 61.6331 230.971 62.0641 230.971C62.4952 230.971 62.8544 230.84 63.1417 230.579C63.4291 230.318 63.6576 229.965 63.8274 229.521C64.0103 229.064 64.1409 228.529 64.2193 227.915C64.2977 227.301 64.3368 226.641 64.3368 225.936ZM71.8085 231.441C71.8085 231.898 71.6518 232.271 71.3383 232.558C71.0379 232.845 70.6722 232.989 70.2412 232.989C69.7971 232.989 69.4248 232.845 69.1244 232.558C68.824 232.271 68.6738 231.898 68.6738 231.441C68.6738 230.984 68.824 230.612 69.1244 230.325C69.4248 230.024 69.7971 229.874 70.2412 229.874C70.6722 229.874 71.0379 230.024 71.3383 230.325C71.6518 230.612 71.8085 230.984 71.8085 231.441ZM83.1255 225.936C83.1255 228.222 82.7075 229.978 81.8716 231.206C81.0357 232.421 79.8797 233.028 78.4038 233.028C76.9278 233.028 75.7719 232.421 74.9359 231.206C74.1 229.978 73.682 228.222 73.682 225.936C73.682 224.8 73.7865 223.794 73.9955 222.919C74.2176 222.03 74.531 221.286 74.9359 220.685C75.3539 220.084 75.8503 219.627 76.425 219.314C77.0127 219 77.6723 218.843 78.4038 218.843C79.8797 218.843 81.0357 219.457 81.8716 220.685C82.7075 221.9 83.1255 223.65 83.1255 225.936ZM80.6765 225.936C80.6765 225.231 80.6373 224.571 80.5589 223.957C80.4806 223.343 80.3499 222.814 80.1671 222.37C79.9973 221.913 79.7687 221.554 79.4814 221.292C79.194 221.031 78.8348 220.901 78.4038 220.901C77.9727 220.901 77.607 221.031 77.3066 221.292C77.0193 221.554 76.7842 221.913 76.6013 222.37C76.4315 222.814 76.3074 223.343 76.229 223.957C76.1637 224.571 76.1311 225.231 76.1311 225.936C76.1311 226.641 76.1637 227.301 76.229 227.915C76.3074 228.529 76.4315 229.064 76.6013 229.521C76.7842 229.965 77.0193 230.318 77.3066 230.579C77.607 230.84 77.9727 230.971 78.4038 230.971C78.8348 230.971 79.194 230.84 79.4814 230.579C79.7687 230.318 79.9973 229.965 80.1671 229.521C80.3499 229.064 80.4806 228.529 80.5589 227.915C80.6373 227.301 80.6765 226.641 80.6765 225.936ZM94.261 225.936C94.261 228.222 93.843 229.978 93.0071 231.206C92.1711 232.421 91.0152 233.028 89.5392 233.028C88.0633 233.028 86.9073 232.421 86.0714 231.206C85.2355 229.978 84.8175 228.222 84.8175 225.936C84.8175 224.8 84.922 223.794 85.131 222.919C85.353 222.03 85.6665 221.286 86.0714 220.685C86.4894 220.084 86.9857 219.627 87.5604 219.314C88.1482 219 88.8078 218.843 89.5392 218.843C91.0152 218.843 92.1711 219.457 93.0071 220.685C93.843 221.9 94.261 223.65 94.261 225.936ZM91.8119 225.936C91.8119 225.231 91.7727 224.571 91.6944 223.957C91.616 223.343 91.4854 222.814 91.3025 222.37C91.1327 221.913 90.9042 221.554 90.6168 221.292C90.3294 221.031 89.9703 220.901 89.5392 220.901C89.1082 220.901 88.7425 221.031 88.4421 221.292C88.1547 221.554 87.9196 221.913 87.7367 222.37C87.5669 222.814 87.4429 223.343 87.3645 223.957C87.2992 224.571 87.2665 225.231 87.2665 225.936C87.2665 226.641 87.2992 227.301 87.3645 227.915C87.4429 228.529 87.5669 229.064 87.7367 229.521C87.9196 229.965 88.1547 230.318 88.4421 230.579C88.7425 230.84 89.1082 230.971 89.5392 230.971C89.9703 230.971 90.3294 230.84 90.6168 230.579C90.9042 230.318 91.1327 229.965 91.3025 229.521C91.4854 229.064 91.616 228.529 91.6944 227.915C91.7727 227.301 91.8119 226.641 91.8119 225.936ZM97.9318 226.876C97.9318 225.27 97.6901 223.768 97.2068 222.37C96.7236 220.959 96.0509 219.666 95.1888 218.491L96.8542 217.394C97.9122 218.661 98.7481 220.104 99.362 221.724C99.9759 223.33 100.283 225.048 100.283 226.876C100.283 228.705 99.9759 230.429 99.362 232.049C98.7481 233.655 97.9122 235.092 96.8542 236.359L95.1888 235.262C96.0509 234.099 96.7236 232.813 97.2068 231.402C97.6901 229.991 97.9318 228.483 97.9318 226.876Z" fill="#9CA3AF"/>
<path d="M3.82049 123.572C3.82049 125.178 4.06213 126.687 4.5454 128.097C5.02868 129.508 5.70135 130.795 6.56341 131.957L4.89806 133.054C3.84008 131.787 3.00415 130.351 2.39026 128.744C1.77636 127.124 1.46942 125.4 1.46942 123.572C1.46942 121.743 1.77636 120.025 2.39026 118.419C3.00415 116.799 3.84008 115.356 4.89806 114.089L6.56341 115.186C5.70135 116.362 5.02868 117.655 4.5454 119.065C4.06213 120.463 3.82049 121.965 3.82049 123.572ZM8.36329 129.43V124.394H6.8351V123.141H8.36329V121.534H6.8351V120.28H8.36329V115.441H10.4009L12.2622 120.28H14.574V115.441H16.1218V120.28H17.65V121.534H16.1218V123.141H17.65V124.394H16.1218V129.43H14.0646L12.2034 124.394H9.89149V129.43H8.36329ZM9.89149 123.141H11.7332L11.1454 121.534H9.8523L9.89149 123.141ZM14.574 126.667H14.6524L14.5936 124.394H13.7708L14.574 126.667ZM9.8523 120.28H10.6752L9.8523 117.851H9.77394L9.8523 120.28ZM13.3005 123.141H14.6132L14.574 121.534H12.7128L13.3005 123.141ZM25.355 125.55C25.355 125.119 25.2701 124.734 25.1003 124.394C24.9305 124.055 24.6301 123.768 24.199 123.532C23.7811 123.297 23.2129 123.121 22.4945 123.003C21.7892 122.886 20.8945 122.827 19.8104 122.827C19.9541 121.573 20.0651 120.385 20.1434 119.261C20.2218 118.125 20.2871 116.989 20.3394 115.852H27.275V117.851H22.3574C22.3443 118.073 22.3247 118.327 22.2986 118.615C22.2855 118.889 22.2659 119.17 22.2398 119.457C22.2268 119.745 22.2072 120.019 22.181 120.28C22.1549 120.541 22.1288 120.763 22.1027 120.946C24.0358 121.051 25.4595 121.495 26.3738 122.279C27.3012 123.049 27.7648 124.107 27.7648 125.452C27.7648 126.066 27.6603 126.635 27.4514 127.157C27.2424 127.679 26.9224 128.13 26.4913 128.509C26.0603 128.888 25.5183 129.188 24.8652 129.41C24.2121 129.619 23.448 129.724 22.5729 129.724C22.2202 129.724 21.861 129.697 21.4953 129.645C21.1296 129.593 20.7769 129.528 20.4373 129.449C20.1108 129.384 19.8169 129.312 19.5557 129.234C19.2944 129.155 19.0985 129.084 18.9679 129.018L19.4185 127.02C19.6928 127.15 20.0847 127.294 20.5941 127.451C21.1165 127.595 21.75 127.666 22.4945 127.666C23.0039 127.666 23.4415 127.614 23.8072 127.51C24.1729 127.392 24.4668 127.235 24.6888 127.039C24.924 126.844 25.0938 126.621 25.1982 126.373C25.3027 126.112 25.355 125.838 25.355 125.55ZM32.9442 126.824C32.9704 127.046 32.9834 127.209 32.9834 127.314C32.9834 127.418 32.9834 127.523 32.9834 127.627C32.9834 128.437 32.8528 129.273 32.5916 130.135C32.3434 130.997 31.9907 131.813 31.5336 132.584L29.6723 132.075C29.9858 131.317 30.1948 130.573 30.2993 129.841C30.4168 129.123 30.4756 128.489 30.4756 127.941C30.4756 127.784 30.4691 127.588 30.456 127.353C30.456 127.118 30.4495 126.941 30.4364 126.824H32.9442ZM44.515 122.631C44.515 124.917 44.097 126.674 43.2611 127.901C42.4251 129.116 41.2692 129.724 39.7933 129.724C38.3173 129.724 37.1614 129.116 36.3254 127.901C35.4895 126.674 35.0715 124.917 35.0715 122.631C35.0715 121.495 35.176 120.489 35.385 119.614C35.607 118.726 35.9205 117.981 36.3254 117.38C36.7434 116.78 37.2397 116.322 37.8144 116.009C38.4022 115.696 39.0618 115.539 39.7933 115.539C41.2692 115.539 42.4251 116.153 43.2611 117.38C44.097 118.595 44.515 120.345 44.515 122.631ZM42.066 122.631C42.066 121.926 42.0268 121.266 41.9484 120.652C41.87 120.038 41.7394 119.509 41.5566 119.065C41.3868 118.608 41.1582 118.249 40.8708 117.988C40.5835 117.727 40.2243 117.596 39.7933 117.596C39.3622 117.596 38.9965 117.727 38.6961 117.988C38.4087 118.249 38.1736 118.608 37.9908 119.065C37.821 119.509 37.6969 120.038 37.6185 120.652C37.5532 121.266 37.5206 121.926 37.5206 122.631C37.5206 123.336 37.5532 123.996 37.6185 124.61C37.6969 125.224 37.821 125.759 37.9908 126.217C38.1736 126.661 38.4087 127.013 38.6961 127.275C38.9965 127.536 39.3622 127.666 39.7933 127.666C40.2243 127.666 40.5835 127.536 40.8708 127.275C41.1582 127.013 41.3868 126.661 41.5566 126.217C41.7394 125.759 41.87 125.224 41.9484 124.61C42.0268 123.996 42.066 123.336 42.066 122.631ZM55.6504 122.631C55.6504 124.917 55.2325 126.674 54.3965 127.901C53.5606 129.116 52.4046 129.724 50.9287 129.724C49.4527 129.724 48.2968 129.116 47.4609 127.901C46.6249 126.674 46.207 124.917 46.207 122.631C46.207 121.495 46.3115 120.489 46.5204 119.614C46.7425 118.726 47.056 117.981 47.4609 117.38C47.8788 116.78 48.3752 116.322 48.9499 116.009C49.5376 115.696 50.1973 115.539 50.9287 115.539C52.4046 115.539 53.5606 116.153 54.3965 117.38C55.2325 118.595 55.6504 120.345 55.6504 122.631ZM53.2014 122.631C53.2014 121.926 53.1622 121.266 53.0838 120.652C53.0055 120.038 52.8749 119.509 52.692 119.065C52.5222 118.608 52.2936 118.249 52.0063 117.988C51.7189 117.727 51.3597 117.596 50.9287 117.596C50.4977 117.596 50.1319 117.727 49.8315 117.988C49.5442 118.249 49.3091 118.608 49.1262 119.065C48.9564 119.509 48.8323 120.038 48.754 120.652C48.6887 121.266 48.656 121.926 48.656 122.631C48.656 123.336 48.6887 123.996 48.754 124.61C48.8323 125.224 48.9564 125.759 49.1262 126.217C49.3091 126.661 49.5442 127.013 49.8315 127.275C50.1319 127.536 50.4977 127.666 50.9287 127.666C51.3597 127.666 51.7189 127.536 52.0063 127.275C52.2936 127.013 52.5222 126.661 52.692 126.217C52.8749 125.759 53.0055 125.224 53.0838 124.61C53.1622 123.996 53.2014 123.336 53.2014 122.631ZM66.7859 122.631C66.7859 124.917 66.3679 126.674 65.532 127.901C64.696 129.116 63.5401 129.724 62.0641 129.724C60.5882 129.724 59.4322 129.116 58.5963 127.901C57.7604 126.674 57.3424 124.917 57.3424 122.631C57.3424 121.495 57.4469 120.489 57.6559 119.614C57.8779 118.726 58.1914 117.981 58.5963 117.38C59.0143 116.78 59.5106 116.322 60.0853 116.009C60.6731 115.696 61.3327 115.539 62.0641 115.539C63.5401 115.539 64.696 116.153 65.532 117.38C66.3679 118.595 66.7859 120.345 66.7859 122.631ZM64.3368 122.631C64.3368 121.926 64.2977 121.266 64.2193 120.652C64.1409 120.038 64.0103 119.509 63.8274 119.065C63.6576 118.608 63.4291 118.249 63.1417 117.988C62.8544 117.727 62.4952 117.596 62.0641 117.596C61.6331 117.596 61.2674 117.727 60.967 117.988C60.6796 118.249 60.4445 118.608 60.2617 119.065C60.0919 119.509 59.9678 120.038 59.8894 120.652C59.8241 121.266 59.7914 121.926 59.7914 122.631C59.7914 123.336 59.8241 123.996 59.8894 124.61C59.9678 125.224 60.0919 125.759 60.2617 126.217C60.4445 126.661 60.6796 127.013 60.967 127.275C61.2674 127.536 61.6331 127.666 62.0641 127.666C62.4952 127.666 62.8544 127.536 63.1417 127.275C63.4291 127.013 63.6576 126.661 63.8274 126.217C64.0103 125.759 64.1409 125.224 64.2193 124.61C64.2977 123.996 64.3368 123.336 64.3368 122.631ZM71.8085 128.137C71.8085 128.594 71.6518 128.966 71.3383 129.253C71.0379 129.541 70.6722 129.684 70.2412 129.684C69.7971 129.684 69.4248 129.541 69.1244 129.253C68.824 128.966 68.6738 128.594 68.6738 128.137C68.6738 127.679 68.824 127.307 69.1244 127.02C69.4248 126.719 69.7971 126.569 70.2412 126.569C70.6722 126.569 71.0379 126.719 71.3383 127.02C71.6518 127.307 71.8085 127.679 71.8085 128.137ZM83.1255 122.631C83.1255 124.917 82.7075 126.674 81.8716 127.901C81.0357 129.116 79.8797 129.724 78.4038 129.724C76.9278 129.724 75.7719 129.116 74.9359 127.901C74.1 126.674 73.682 124.917 73.682 122.631C73.682 121.495 73.7865 120.489 73.9955 119.614C74.2176 118.726 74.531 117.981 74.9359 117.38C75.3539 116.78 75.8503 116.322 76.425 116.009C77.0127 115.696 77.6723 115.539 78.4038 115.539C79.8797 115.539 81.0357 116.153 81.8716 117.38C82.7075 118.595 83.1255 120.345 83.1255 122.631ZM80.6765 122.631C80.6765 121.926 80.6373 121.266 80.5589 120.652C80.4806 120.038 80.3499 119.509 80.1671 119.065C79.9973 118.608 79.7687 118.249 79.4814 117.988C79.194 117.727 78.8348 117.596 78.4038 117.596C77.9727 117.596 77.607 117.727 77.3066 117.988C77.0193 118.249 76.7842 118.608 76.6013 119.065C76.4315 119.509 76.3074 120.038 76.229 120.652C76.1637 121.266 76.1311 121.926 76.1311 122.631C76.1311 123.336 76.1637 123.996 76.229 124.61C76.3074 125.224 76.4315 125.759 76.6013 126.217C76.7842 126.661 77.0193 127.013 77.3066 127.275C77.607 127.536 77.9727 127.666 78.4038 127.666C78.8348 127.666 79.194 127.536 79.4814 127.275C79.7687 127.013 79.9973 126.661 80.1671 126.217C80.3499 125.759 80.4806 125.224 80.5589 124.61C80.6373 123.996 80.6765 123.336 80.6765 122.631ZM94.261 122.631C94.261 124.917 93.843 126.674 93.0071 127.901C92.1711 129.116 91.0152 129.724 89.5392 129.724C88.0633 129.724 86.9073 129.116 86.0714 127.901C85.2355 126.674 84.8175 124.917 84.8175 122.631C84.8175 121.495 84.922 120.489 85.131 119.614C85.353 118.726 85.6665 117.981 86.0714 117.38C86.4894 116.78 86.9857 116.322 87.5604 116.009C88.1482 115.696 88.8078 115.539 89.5392 115.539C91.0152 115.539 92.1711 116.153 93.0071 117.38C93.843 118.595 94.261 120.345 94.261 122.631ZM91.8119 122.631C91.8119 121.926 91.7727 121.266 91.6944 120.652C91.616 120.038 91.4854 119.509 91.3025 119.065C91.1327 118.608 90.9042 118.249 90.6168 117.988C90.3294 117.727 89.9703 117.596 89.5392 117.596C89.1082 117.596 88.7425 117.727 88.4421 117.988C88.1547 118.249 87.9196 118.608 87.7367 119.065C87.5669 119.509 87.4429 120.038 87.3645 120.652C87.2992 121.266 87.2665 121.926 87.2665 122.631C87.2665 123.336 87.2992 123.996 87.3645 124.61C87.4429 125.224 87.5669 125.759 87.7367 126.217C87.9196 126.661 88.1547 127.013 88.4421 127.275C88.7425 127.536 89.1082 127.666 89.5392 127.666C89.9703 127.666 90.3294 127.536 90.6168 127.275C90.9042 127.013 91.1327 126.661 91.3025 126.217C91.4854 125.759 91.616 125.224 91.6944 124.61C91.7727 123.996 91.8119 123.336 91.8119 122.631ZM97.9318 123.572C97.9318 121.965 97.6901 120.463 97.2068 119.065C96.7236 117.655 96.0509 116.362 95.1888 115.186L96.8542 114.089C97.9122 115.356 98.7481 116.799 99.362 118.419C99.9759 120.025 100.283 121.743 100.283 123.572C100.283 125.4 99.9759 127.124 99.362 128.744C98.7481 130.351 97.9122 131.787 96.8542 133.054L95.1888 131.957C96.0509 130.795 96.7236 129.508 97.2068 128.097C97.6901 126.687 97.9318 125.178 97.9318 123.572Z" fill="#9CA3AF"/>
<path d="M3.82049 25.6102C3.82049 27.2167 4.06213 28.7253 4.5454 30.136C5.02868 31.5466 5.70135 32.8332 6.56341 33.9957L4.89806 35.0928C3.84008 33.8259 3.00415 32.3891 2.39026 30.7825C1.77636 29.1629 1.46942 27.4388 1.46942 25.6102C1.46942 23.7816 1.77636 22.064 2.39026 20.4574C3.00415 18.8378 3.84008 17.3945 4.89806 16.1275L6.56341 17.2247C5.70135 18.4002 5.02868 19.6933 4.5454 21.104C4.06213 22.5015 3.82049 24.0036 3.82049 25.6102ZM8.36329 31.4683V26.4331H6.8351V25.1791H8.36329V23.5726H6.8351V22.3187H8.36329V17.4794H10.4009L12.2622 22.3187H14.574V17.4794H16.1218V22.3187H17.65V23.5726H16.1218V25.1791H17.65V26.4331H16.1218V31.4683H14.0646L12.2034 26.4331H9.89149V31.4683H8.36329ZM9.89149 25.1791H11.7332L11.1454 23.5726H9.8523L9.89149 25.1791ZM14.574 28.7058H14.6524L14.5936 26.4331H13.7708L14.574 28.7058ZM9.8523 22.3187H10.6752L9.8523 19.8892H9.77394L9.8523 22.3187ZM13.3005 25.1791H14.6132L14.574 23.5726H12.7128L13.3005 25.1791ZM25.355 27.589C25.355 27.158 25.2701 26.7727 25.1003 26.4331C24.9305 26.0935 24.6301 25.8061 24.199 25.571C23.7811 25.3359 23.2129 25.1596 22.4945 25.042C21.7892 24.9244 20.8945 24.8657 19.8104 24.8657C19.9541 23.6118 20.0651 22.4232 20.1434 21.2999C20.2218 20.1635 20.2871 19.0272 20.3394 17.8908H27.275V19.8892H22.3574C22.3443 20.1113 22.3247 20.366 22.2986 20.6533C22.2855 20.9276 22.2659 21.2084 22.2398 21.4958C22.2268 21.7832 22.2072 22.0574 22.181 22.3187C22.1549 22.5799 22.1288 22.802 22.1027 22.9848C24.0358 23.0893 25.4595 23.5334 26.3738 24.3171C27.3012 25.0877 27.7648 26.1457 27.7648 27.491C27.7648 28.1049 27.6603 28.6731 27.4514 29.1956C27.2424 29.718 26.9224 30.1686 26.4913 30.5474C26.0603 30.9262 25.5183 31.2266 24.8652 31.4487C24.2121 31.6577 23.448 31.7621 22.5729 31.7621C22.2202 31.7621 21.861 31.736 21.4953 31.6838C21.1296 31.6315 20.7769 31.5662 20.4373 31.4879C20.1108 31.4225 19.8169 31.3507 19.5557 31.2723C19.2944 31.194 19.0985 31.1221 18.9679 31.0568L19.4185 29.0584C19.6928 29.189 20.0847 29.3327 20.5941 29.4894C21.1165 29.6331 21.75 29.705 22.4945 29.705C23.0039 29.705 23.4415 29.6527 23.8072 29.5482C24.1729 29.4307 24.4668 29.2739 24.6888 29.078C24.924 28.8821 25.0938 28.66 25.1982 28.4119C25.3027 28.1506 25.355 27.8763 25.355 27.589ZM32.9442 28.8625C32.9704 29.0845 32.9834 29.2478 32.9834 29.3523C32.9834 29.4568 32.9834 29.5613 32.9834 29.6658C32.9834 30.4756 32.8528 31.3115 32.5916 32.1736C32.3434 33.0356 31.9907 33.852 31.5336 34.6226L29.6723 34.1132C29.9858 33.3556 30.1948 32.6111 30.2993 31.8797C30.4168 31.1613 30.4756 30.5278 30.4756 29.9792C30.4756 29.8225 30.4691 29.6266 30.456 29.3915C30.456 29.1564 30.4495 28.98 30.4364 28.8625H32.9442ZM44.515 24.6697C44.515 26.9555 44.097 28.7123 43.2611 29.9401C42.4251 31.1548 41.2692 31.7621 39.7933 31.7621C38.3173 31.7621 37.1614 31.1548 36.3254 29.9401C35.4895 28.7123 35.0715 26.9555 35.0715 24.6697C35.0715 23.5334 35.176 22.5277 35.385 21.6525C35.607 20.7644 35.9205 20.0199 36.3254 19.419C36.7434 18.8182 37.2397 18.361 37.8144 18.0476C38.4022 17.7341 39.0618 17.5773 39.7933 17.5773C41.2692 17.5773 42.4251 18.1912 43.2611 19.419C44.097 20.6337 44.515 22.384 44.515 24.6697ZM42.066 24.6697C42.066 23.9644 42.0268 23.3048 41.9484 22.6909C41.87 22.077 41.7394 21.548 41.5566 21.104C41.3868 20.6468 41.1582 20.2876 40.8708 20.0264C40.5835 19.7652 40.2243 19.6345 39.7933 19.6345C39.3622 19.6345 38.9965 19.7652 38.6961 20.0264C38.4087 20.2876 38.1736 20.6468 37.9908 21.104C37.821 21.548 37.6969 22.077 37.6185 22.6909C37.5532 23.3048 37.5206 23.9644 37.5206 24.6697C37.5206 25.3751 37.5532 26.0347 37.6185 26.6486C37.6969 27.2625 37.821 27.798 37.9908 28.2551C38.1736 28.6992 38.4087 29.0519 38.6961 29.3131C38.9965 29.5743 39.3622 29.705 39.7933 29.705C40.2243 29.705 40.5835 29.5743 40.8708 29.3131C41.1582 29.0519 41.3868 28.6992 41.5566 28.2551C41.7394 27.798 41.87 27.2625 41.9484 26.6486C42.0268 26.0347 42.066 25.3751 42.066 24.6697ZM55.6504 24.6697C55.6504 26.9555 55.2325 28.7123 54.3965 29.9401C53.5606 31.1548 52.4046 31.7621 50.9287 31.7621C49.4527 31.7621 48.2968 31.1548 47.4609 29.9401C46.6249 28.7123 46.207 26.9555 46.207 24.6697C46.207 23.5334 46.3115 22.5277 46.5204 21.6525C46.7425 20.7644 47.056 20.0199 47.4609 19.419C47.8788 18.8182 48.3752 18.361 48.9499 18.0476C49.5376 17.7341 50.1973 17.5773 50.9287 17.5773C52.4046 17.5773 53.5606 18.1912 54.3965 19.419C55.2325 20.6337 55.6504 22.384 55.6504 24.6697ZM53.2014 24.6697C53.2014 23.9644 53.1622 23.3048 53.0838 22.6909C53.0055 22.077 52.8749 21.548 52.692 21.104C52.5222 20.6468 52.2936 20.2876 52.0063 20.0264C51.7189 19.7652 51.3597 19.6345 50.9287 19.6345C50.4977 19.6345 50.1319 19.7652 49.8315 20.0264C49.5442 20.2876 49.3091 20.6468 49.1262 21.104C48.9564 21.548 48.8323 22.077 48.754 22.6909C48.6887 23.3048 48.656 23.9644 48.656 24.6697C48.656 25.3751 48.6887 26.0347 48.754 26.6486C48.8323 27.2625 48.9564 27.798 49.1262 28.2551C49.3091 28.6992 49.5442 29.0519 49.8315 29.3131C50.1319 29.5743 50.4977 29.705 50.9287 29.705C51.3597 29.705 51.7189 29.5743 52.0063 29.3131C52.2936 29.0519 52.5222 28.6992 52.692 28.2551C52.8749 27.798 53.0055 27.2625 53.0838 26.6486C53.1622 26.0347 53.2014 25.3751 53.2014 24.6697ZM66.7859 24.6697C66.7859 26.9555 66.3679 28.7123 65.532 29.9401C64.696 31.1548 63.5401 31.7621 62.0641 31.7621C60.5882 31.7621 59.4322 31.1548 58.5963 29.9401C57.7604 28.7123 57.3424 26.9555 57.3424 24.6697C57.3424 23.5334 57.4469 22.5277 57.6559 21.6525C57.8779 20.7644 58.1914 20.0199 58.5963 19.419C59.0143 18.8182 59.5106 18.361 60.0853 18.0476C60.6731 17.7341 61.3327 17.5773 62.0641 17.5773C63.5401 17.5773 64.696 18.1912 65.532 19.419C66.3679 20.6337 66.7859 22.384 66.7859 24.6697ZM64.3368 24.6697C64.3368 23.9644 64.2977 23.3048 64.2193 22.6909C64.1409 22.077 64.0103 21.548 63.8274 21.104C63.6576 20.6468 63.4291 20.2876 63.1417 20.0264C62.8544 19.7652 62.4952 19.6345 62.0641 19.6345C61.6331 19.6345 61.2674 19.7652 60.967 20.0264C60.6796 20.2876 60.4445 20.6468 60.2617 21.104C60.0919 21.548 59.9678 22.077 59.8894 22.6909C59.8241 23.3048 59.7914 23.9644 59.7914 24.6697C59.7914 25.3751 59.8241 26.0347 59.8894 26.6486C59.9678 27.2625 60.0919 27.798 60.2617 28.2551C60.4445 28.6992 60.6796 29.0519 60.967 29.3131C61.2674 29.5743 61.6331 29.705 62.0641 29.705C62.4952 29.705 62.8544 29.5743 63.1417 29.3131C63.4291 29.0519 63.6576 28.6992 63.8274 28.2551C64.0103 27.798 64.1409 27.2625 64.2193 26.6486C64.2977 26.0347 64.3368 25.3751 64.3368 24.6697ZM71.8085 30.1752C71.8085 30.6323 71.6518 31.0046 71.3383 31.2919C71.0379 31.5793 70.6722 31.723 70.2412 31.723C69.7971 31.723 69.4248 31.5793 69.1244 31.2919C68.824 31.0046 68.6738 30.6323 68.6738 30.1752C68.6738 29.718 68.824 29.3458 69.1244 29.0584C69.4248 28.758 69.7971 28.6078 70.2412 28.6078C70.6722 28.6078 71.0379 28.758 71.3383 29.0584C71.6518 29.3458 71.8085 29.718 71.8085 30.1752ZM83.1255 24.6697C83.1255 26.9555 82.7075 28.7123 81.8716 29.9401C81.0357 31.1548 79.8797 31.7621 78.4038 31.7621C76.9278 31.7621 75.7719 31.1548 74.9359 29.9401C74.1 28.7123 73.682 26.9555 73.682 24.6697C73.682 23.5334 73.7865 22.5277 73.9955 21.6525C74.2176 20.7644 74.531 20.0199 74.9359 19.419C75.3539 18.8182 75.8503 18.361 76.425 18.0476C77.0127 17.7341 77.6723 17.5773 78.4038 17.5773C79.8797 17.5773 81.0357 18.1912 81.8716 19.419C82.7075 20.6337 83.1255 22.384 83.1255 24.6697ZM80.6765 24.6697C80.6765 23.9644 80.6373 23.3048 80.5589 22.6909C80.4806 22.077 80.3499 21.548 80.1671 21.104C79.9973 20.6468 79.7687 20.2876 79.4814 20.0264C79.194 19.7652 78.8348 19.6345 78.4038 19.6345C77.9727 19.6345 77.607 19.7652 77.3066 20.0264C77.0193 20.2876 76.7842 20.6468 76.6013 21.104C76.4315 21.548 76.3074 22.077 76.229 22.6909C76.1637 23.3048 76.1311 23.9644 76.1311 24.6697C76.1311 25.3751 76.1637 26.0347 76.229 26.6486C76.3074 27.2625 76.4315 27.798 76.6013 28.2551C76.7842 28.6992 77.0193 29.0519 77.3066 29.3131C77.607 29.5743 77.9727 29.705 78.4038 29.705C78.8348 29.705 79.194 29.5743 79.4814 29.3131C79.7687 29.0519 79.9973 28.6992 80.1671 28.2551C80.3499 27.798 80.4806 27.2625 80.5589 26.6486C80.6373 26.0347 80.6765 25.3751 80.6765 24.6697ZM94.261 24.6697C94.261 26.9555 93.843 28.7123 93.0071 29.9401C92.1711 31.1548 91.0152 31.7621 89.5392 31.7621C88.0633 31.7621 86.9073 31.1548 86.0714 29.9401C85.2355 28.7123 84.8175 26.9555 84.8175 24.6697C84.8175 23.5334 84.922 22.5277 85.131 21.6525C85.353 20.7644 85.6665 20.0199 86.0714 19.419C86.4894 18.8182 86.9857 18.361 87.5604 18.0476C88.1482 17.7341 88.8078 17.5773 89.5392 17.5773C91.0152 17.5773 92.1711 18.1912 93.0071 19.419C93.843 20.6337 94.261 22.384 94.261 24.6697ZM91.8119 24.6697C91.8119 23.9644 91.7727 23.3048 91.6944 22.6909C91.616 22.077 91.4854 21.548 91.3025 21.104C91.1327 20.6468 90.9042 20.2876 90.6168 20.0264C90.3294 19.7652 89.9703 19.6345 89.5392 19.6345C89.1082 19.6345 88.7425 19.7652 88.4421 20.0264C88.1547 20.2876 87.9196 20.6468 87.7367 21.104C87.5669 21.548 87.4429 22.077 87.3645 22.6909C87.2992 23.3048 87.2665 23.9644 87.2665 24.6697C87.2665 25.3751 87.2992 26.0347 87.3645 26.6486C87.4429 27.2625 87.5669 27.798 87.7367 28.2551C87.9196 28.6992 88.1547 29.0519 88.4421 29.3131C88.7425 29.5743 89.1082 29.705 89.5392 29.705C89.9703 29.705 90.3294 29.5743 90.6168 29.3131C90.9042 29.0519 91.1327 28.6992 91.3025 28.2551C91.4854 27.798 91.616 27.2625 91.6944 26.6486C91.7727 26.0347 91.8119 25.3751 91.8119 24.6697ZM97.9318 25.6102C97.9318 24.0036 97.6901 22.5015 97.2068 21.104C96.7236 19.6933 96.0509 18.4002 95.1888 17.2247L96.8542 16.1275C97.9122 17.3945 98.7481 18.8378 99.362 20.4574C99.9759 22.064 100.283 23.7816 100.283 25.6102C100.283 27.4388 99.9759 29.1629 99.362 30.7825C98.7481 32.3891 97.9122 33.8259 96.8542 35.0928L95.1888 33.9957C96.0509 32.8332 96.7236 31.5466 97.2068 30.136C97.6901 28.7253 97.9318 27.2167 97.9318 25.6102Z" fill="#9CA3AF"/>
<path d="M114.226 357.343C114.983 357.042 115.741 356.657 116.498 356.187C117.269 355.717 117.948 355.161 118.536 354.521H120.201V368.099H117.831V357.695C117.478 357.97 117.034 358.237 116.498 358.499C115.963 358.76 115.447 358.975 114.951 359.145L114.226 357.343ZM128.182 354.521C128.47 355.018 128.79 355.625 129.142 356.344C129.495 357.062 129.854 357.819 130.22 358.616C130.586 359.4 130.945 360.203 131.298 361.026C131.663 361.836 131.996 362.587 132.297 363.279C132.597 362.587 132.924 361.836 133.276 361.026C133.629 360.203 133.988 359.4 134.354 358.616C134.72 357.819 135.079 357.062 135.431 356.344C135.784 355.625 136.104 355.018 136.391 354.521H138.625C138.743 355.514 138.854 356.572 138.958 357.695C139.063 358.806 139.154 359.948 139.232 361.124C139.324 362.287 139.402 363.462 139.467 364.651C139.546 365.826 139.611 366.976 139.663 368.099H137.234C137.182 366.518 137.116 364.892 137.038 363.22C136.973 361.549 136.868 359.929 136.725 358.362C136.581 358.662 136.411 359.021 136.215 359.439C136.019 359.857 135.81 360.314 135.588 360.811C135.366 361.294 135.138 361.797 134.902 362.319C134.68 362.842 134.458 363.351 134.236 363.847C134.027 364.331 133.831 364.788 133.649 365.219C133.466 365.637 133.309 365.996 133.178 366.296H131.337C131.206 365.996 131.049 365.63 130.866 365.199C130.684 364.768 130.481 364.311 130.259 363.828C130.05 363.331 129.828 362.822 129.593 362.3C129.371 361.777 129.149 361.274 128.927 360.791C128.705 360.308 128.496 359.857 128.3 359.439C128.104 359.008 127.934 358.649 127.79 358.362C127.647 359.929 127.536 361.549 127.457 363.22C127.392 364.892 127.333 366.518 127.281 368.099H124.852C124.904 366.976 124.963 365.813 125.028 364.611C125.106 363.41 125.185 362.221 125.263 361.046C125.355 359.857 125.452 358.708 125.557 357.597C125.661 356.487 125.772 355.462 125.89 354.521H128.182Z" fill="#9CA3AF"/>
<path d="M346.68 368.393C346.327 368.393 345.961 368.367 345.582 368.314C345.217 368.275 344.864 368.216 344.525 368.138C344.198 368.073 343.898 368.001 343.623 367.923C343.349 367.831 343.14 367.746 342.996 367.668L343.467 365.65C343.741 365.78 344.139 365.931 344.662 366.1C345.184 366.257 345.831 366.336 346.601 366.336C347.633 366.336 348.378 366.14 348.835 365.748C349.292 365.343 349.521 364.807 349.521 364.141C349.521 363.71 349.429 363.351 349.246 363.064C349.076 362.776 348.835 362.548 348.521 362.378C348.221 362.195 347.868 362.071 347.463 362.006C347.072 361.927 346.654 361.888 346.209 361.888H345.406V359.968H346.386C346.686 359.968 346.987 359.942 347.287 359.89C347.6 359.824 347.881 359.72 348.129 359.576C348.378 359.42 348.58 359.217 348.737 358.969C348.894 358.721 348.972 358.401 348.972 358.009C348.972 357.695 348.913 357.428 348.796 357.206C348.678 356.984 348.521 356.801 348.325 356.657C348.143 356.513 347.927 356.409 347.679 356.344C347.431 356.278 347.169 356.246 346.895 356.246C346.307 356.246 345.785 356.337 345.328 356.52C344.871 356.69 344.466 356.886 344.113 357.108L343.251 355.344C343.434 355.227 343.656 355.103 343.917 354.972C344.178 354.841 344.466 354.717 344.779 354.6C345.106 354.482 345.452 354.391 345.818 354.326C346.183 354.247 346.569 354.208 346.974 354.208C347.731 354.208 348.384 354.299 348.933 354.482C349.481 354.665 349.932 354.926 350.285 355.266C350.65 355.592 350.918 355.984 351.088 356.441C351.271 356.886 351.362 357.375 351.362 357.911C351.362 358.538 351.186 359.099 350.833 359.596C350.494 360.092 350.05 360.471 349.501 360.732C350.206 360.98 350.788 361.392 351.245 361.966C351.715 362.541 351.95 363.279 351.95 364.18C351.95 364.781 351.845 365.343 351.637 365.865C351.428 366.375 351.108 366.819 350.676 367.198C350.245 367.563 349.697 367.857 349.031 368.079C348.378 368.288 347.594 368.393 346.68 368.393ZM357.776 354.521C358.063 355.018 358.383 355.625 358.736 356.344C359.089 357.062 359.448 357.819 359.814 358.616C360.179 359.4 360.538 360.203 360.891 361.026C361.257 361.836 361.59 362.587 361.89 363.279C362.191 362.587 362.517 361.836 362.87 361.026C363.223 360.203 363.582 359.4 363.947 358.616C364.313 357.819 364.672 357.062 365.025 356.344C365.378 355.625 365.698 355.018 365.985 354.521H368.219C368.336 355.514 368.447 356.572 368.552 357.695C368.656 358.806 368.748 359.948 368.826 361.124C368.917 362.287 368.996 363.462 369.061 364.651C369.139 365.826 369.205 366.976 369.257 368.099H366.828C366.775 366.518 366.71 364.892 366.632 363.22C366.566 361.549 366.462 359.929 366.318 358.362C366.174 358.662 366.005 359.021 365.809 359.439C365.613 359.857 365.404 360.314 365.182 360.811C364.96 361.294 364.731 361.797 364.496 362.319C364.274 362.842 364.052 363.351 363.83 363.847C363.621 364.331 363.425 364.788 363.242 365.219C363.059 365.637 362.903 365.996 362.772 366.296H360.93C360.8 365.996 360.643 365.63 360.46 365.199C360.277 364.768 360.075 364.311 359.853 363.828C359.644 363.331 359.422 362.822 359.187 362.3C358.965 361.777 358.742 361.274 358.52 360.791C358.298 360.308 358.089 359.857 357.893 359.439C357.698 359.008 357.528 358.649 357.384 358.362C357.24 359.929 357.129 361.549 357.051 363.22C356.986 364.892 356.927 366.518 356.875 368.099H354.445C354.497 366.976 354.556 365.813 354.622 364.611C354.7 363.41 354.778 362.221 354.857 361.046C354.948 359.857 355.046 358.708 355.151 357.597C355.255 356.487 355.366 355.462 355.484 354.521H357.776Z" fill="#9CA3AF"/>
<path d="M575.26 361.496C574.882 361.496 574.516 361.529 574.163 361.594C573.811 361.66 573.491 361.758 573.203 361.888C573.19 361.993 573.177 362.11 573.164 362.241C573.164 362.358 573.164 362.476 573.164 362.593C573.164 363.116 573.197 363.612 573.262 364.082C573.34 364.54 573.464 364.945 573.634 365.297C573.817 365.637 574.059 365.911 574.359 366.12C574.673 366.316 575.058 366.414 575.515 366.414C575.894 366.414 576.214 366.336 576.475 366.179C576.749 366.022 576.972 365.82 577.141 365.571C577.311 365.323 577.435 365.056 577.514 364.768C577.592 364.468 577.631 364.18 577.631 363.906C577.631 363.122 577.442 362.528 577.063 362.123C576.684 361.705 576.083 361.496 575.26 361.496ZM575.554 359.615C576.364 359.615 577.05 359.733 577.612 359.968C578.186 360.19 578.65 360.497 579.003 360.889C579.355 361.281 579.61 361.738 579.767 362.26C579.936 362.77 580.021 363.305 580.021 363.867C580.021 364.376 579.93 364.899 579.747 365.434C579.577 365.97 579.303 366.46 578.924 366.904C578.558 367.335 578.095 367.694 577.533 367.981C576.972 368.256 576.305 368.393 575.535 368.393C573.98 368.393 572.792 367.883 571.969 366.865C571.159 365.833 570.754 364.416 570.754 362.613C570.754 361.307 570.944 360.151 571.322 359.145C571.714 358.126 572.263 357.271 572.968 356.579C573.687 355.886 574.549 355.364 575.554 355.011C576.573 354.646 577.716 354.456 578.983 354.443L579.12 356.402C578.415 356.415 577.755 356.494 577.141 356.637C576.527 356.768 575.979 356.977 575.496 357.264C575.012 357.552 574.594 357.924 574.242 358.381C573.902 358.838 573.641 359.4 573.458 360.066C574.098 359.766 574.797 359.615 575.554 359.615ZM585.455 354.521C585.743 355.018 586.063 355.625 586.415 356.344C586.768 357.062 587.127 357.819 587.493 358.616C587.859 359.4 588.218 360.203 588.571 361.026C588.936 361.836 589.269 362.587 589.57 363.279C589.87 362.587 590.197 361.836 590.549 361.026C590.902 360.203 591.261 359.4 591.627 358.616C591.993 357.819 592.352 357.062 592.705 356.344C593.057 355.625 593.377 355.018 593.665 354.521H595.898C596.016 355.514 596.127 356.572 596.231 357.695C596.336 358.806 596.427 359.948 596.505 361.124C596.597 362.287 596.675 363.462 596.741 364.651C596.819 365.826 596.884 366.976 596.937 368.099H594.507C594.455 366.518 594.39 364.892 594.311 363.22C594.246 361.549 594.141 359.929 593.998 358.362C593.854 358.662 593.684 359.021 593.488 359.439C593.292 359.857 593.083 360.314 592.861 360.811C592.639 361.294 592.411 361.797 592.176 362.319C591.954 362.842 591.732 363.351 591.509 363.847C591.3 364.331 591.105 364.788 590.922 365.219C590.739 365.637 590.582 365.996 590.451 366.296H588.61C588.479 365.996 588.322 365.63 588.14 365.199C587.957 364.768 587.754 364.311 587.532 363.828C587.323 363.331 587.101 362.822 586.866 362.3C586.644 361.777 586.422 361.274 586.2 360.791C585.978 360.308 585.769 359.857 585.573 359.439C585.377 359.008 585.207 358.649 585.064 358.362C584.92 359.929 584.809 361.549 584.731 363.22C584.665 364.892 584.606 366.518 584.554 368.099H582.125C582.177 366.976 582.236 365.813 582.301 364.611C582.379 363.41 582.458 362.221 582.536 361.046C582.628 359.857 582.726 358.708 582.83 357.597C582.935 356.487 583.046 355.462 583.163 354.521H585.455Z" fill="#9CA3AF"/>
<path d="M798.498 357.343C799.256 357.042 800.013 356.657 800.771 356.187C801.542 355.717 802.221 355.161 802.809 354.521H804.474V368.099H802.103V357.695C801.751 357.97 801.306 358.237 800.771 358.499C800.235 358.76 799.72 358.975 799.223 359.145L798.498 357.343ZM814.062 360.536C814.649 359.557 815.224 358.564 815.786 357.558C816.347 356.553 816.857 355.54 817.314 354.521H820.057C819.325 355.906 818.561 357.284 817.764 358.655C816.981 360.014 816.138 361.385 815.237 362.77V368.099H812.768V362.809C811.867 361.411 811.018 360.027 810.221 358.655C809.425 357.284 808.661 355.906 807.929 354.521H810.829C811.286 355.54 811.789 356.553 812.337 357.558C812.886 358.564 813.461 359.557 814.062 360.536Z" fill="#9CA3AF"/>
<path d="M821.001 333.069H116.781" stroke="#E5E7EB" stroke-width="1.78111"/>
<path d="M821.001 229.764H116.781" stroke="#E5E7EB" stroke-width="1.78111"/>
<path d="M821.001 126.46H116.781" stroke="#E5E7EB" stroke-width="1.78111"/>
<path d="M821.001 23.1553H116.781" stroke="#E5E7EB" stroke-width="1.78111"/>
<path d="M117.666 238.243L159.286 144.553C159.906 143.156 161.882 143.138 162.528 144.524L170.625 161.903C171.217 163.172 172.974 163.294 173.735 162.118L185.932 143.271C186.631 142.19 188.211 142.186 188.917 143.262L222.162 193.959C222.732 194.828 223.921 195.027 224.742 194.391L247.994 176.38C248.663 175.862 249.605 175.886 250.246 176.438L255.47 180.932C256.339 181.679 257.677 181.424 258.209 180.409L271.483 155.108C271.79 154.521 272.398 154.154 273.06 154.154H283.68C284.438 154.154 285.113 153.674 285.362 152.959L329.028 27.5802C329.573 26.0147 331.774 25.9777 332.372 27.524L336.973 39.4317C337.238 40.1182 337.899 40.5708 338.634 40.5708H361.154C362.05 40.5708 362.807 41.2365 362.921 42.1253L371.659 110.231C371.815 111.452 373.135 112.15 374.232 111.592L391.871 102.626C392.531 102.291 393.329 102.398 393.877 102.896L403.064 111.253C403.903 112.016 405.233 111.811 405.803 110.83L434.016 62.2463C434.522 61.3747 435.65 61.0964 436.503 61.6323L454.955 73.2183C455.547 73.5906 456.304 73.581 456.887 73.1938L485.29 54.3365C485.835 53.9745 486.535 53.9407 487.112 54.2482L498.543 60.3353C498.926 60.5393 499.37 60.5964 499.792 60.496L525.956 54.2709C527.075 54.0046 528.149 54.8532 528.149 56.0036V110.37C528.149 111.555 529.284 112.41 530.423 112.082L562.911 102.724C564.05 102.396 565.185 103.25 565.185 104.435V112.737V127.074C565.185 128.686 567.157 129.469 568.263 128.295L590.774 104.392C591.73 103.377 593.429 103.805 593.79 105.151L625.323 222.491C625.532 223.269 626.237 223.81 627.043 223.81H635.268C635.836 223.81 636.369 224.08 636.704 224.538L660.016 256.329C660.735 257.31 662.204 257.297 662.907 256.304L674.808 239.47C675.309 238.761 676.248 238.517 677.031 238.891L716.02 257.544C716.917 257.973 717.99 257.586 718.407 256.683L726.432 239.278C726.723 238.647 727.354 238.243 728.049 238.243H747.735C748.554 238.243 749.268 237.683 749.464 236.887L758.447 200.358C758.845 198.739 761.05 198.505 761.779 200.005L784.29 246.334C784.663 247.101 785.528 247.497 786.352 247.276L820.116 238.243" stroke="#0D9488" stroke-width="1.78111"/>
<path d="M160.875 140.976L117.666 238.243V333H820.116V238.243L784.932 247.656L759.624 195.571L749.131 238.243H726.909L717.65 258.324L675.676 238.243L661.479 258.324L636.171 223.81H625.677L592.962 102.069L565.185 131.563V112.737V102.069L528.149 112.737V53.749L499.137 60.6518L486.175 53.749L455.929 73.83L434.941 60.6518L404.695 112.737L392.967 102.069L371.98 112.737L362.721 40.5709H337.413L330.623 23L284.946 154.154H271.983L257.168 182.393L249.144 175.49L223.219 195.571L187.417 140.976L171.986 164.822L160.875 140.976Z" fill="url(#paint0_linear_3927_77529)" fill-opacity="0.2"/>
</g>
<defs>
<linearGradient id="paint0_linear_3927_77529" x1="468.891" y1="23" x2="468.891" y2="333" gradientUnits="userSpaceOnUse">
<stop stop-color="#059669"/>
<stop offset="1" stop-color="#059669" stop-opacity="0"/>
</linearGradient>
<clipPath id="clip0_3927_77529">
<rect width="821" height="383.703" fill="white"/>
</clipPath>
</defs>
</svg>
