<svg width="466" height="258" viewBox="0 0 466 258" fill="none" xmlns="http://www.w3.org/2000/svg">
<g clip-path="url(#clip0_4663_85187)">
<path d="M4.145 218.711C4.145 219.613 4.28067 220.46 4.552 221.252C4.82333 222.044 5.201 222.766 5.685 223.419L4.75 224.035C4.156 223.324 3.68667 222.517 3.342 221.615C2.99733 220.706 2.825 219.738 2.825 218.711C2.825 217.684 2.99733 216.72 3.342 215.818C3.68667 214.909 4.156 214.098 4.75 213.387L5.685 214.003C5.201 214.663 4.82333 215.389 4.552 216.181C4.28067 216.966 4.145 217.809 4.145 218.711ZM6.69554 222V219.173H5.83754V218.469H6.69554V217.567H5.83754V216.863H6.69554V214.146H7.83954L8.88454 216.863H10.1825V214.146H11.0515V216.863H11.9095V217.567H11.0515V218.469H11.9095V219.173H11.0515V222H9.89654L8.85154 219.173H7.55354V222H6.69554ZM7.55354 218.469H8.58754L8.25754 217.567H7.53154L7.55354 218.469ZM10.1825 220.449H10.2265L10.1935 219.173H9.73154L10.1825 220.449ZM7.53154 216.863H7.99354L7.53154 215.499H7.48754L7.53154 216.863ZM9.46754 218.469H10.2045L10.1825 217.567H9.13754L9.46754 218.469ZM16.2355 219.822C16.2355 219.58 16.1878 219.364 16.0925 219.173C15.9971 218.982 15.8285 218.821 15.5865 218.689C15.3518 218.557 15.0328 218.458 14.6295 218.392C14.2335 218.326 13.7311 218.293 13.1225 218.293C13.2031 217.589 13.2655 216.922 13.3095 216.291C13.3535 215.653 13.3901 215.015 13.4195 214.377H17.3135V215.499H14.5525C14.5451 215.624 14.5341 215.767 14.5195 215.928C14.5121 216.082 14.5011 216.24 14.4865 216.401C14.4791 216.562 14.4681 216.716 14.4535 216.863C14.4388 217.01 14.4241 217.134 14.4095 217.237C15.4948 217.296 16.2941 217.545 16.8075 217.985C17.3281 218.418 17.5885 219.012 17.5885 219.767C17.5885 220.112 17.5298 220.431 17.4125 220.724C17.2951 221.017 17.1155 221.27 16.8735 221.483C16.6315 221.696 16.3271 221.864 15.9605 221.989C15.5938 222.106 15.1648 222.165 14.6735 222.165C14.4755 222.165 14.2738 222.15 14.0685 222.121C13.8631 222.092 13.6651 222.055 13.4745 222.011C13.2911 221.974 13.1261 221.934 12.9795 221.89C12.8328 221.846 12.7228 221.806 12.6495 221.769L12.9025 220.647C13.0565 220.72 13.2765 220.801 13.5625 220.889C13.8558 220.97 14.2115 221.01 14.6295 221.01C14.9155 221.01 15.1611 220.981 15.3665 220.922C15.5718 220.856 15.7368 220.768 15.8615 220.658C15.9935 220.548 16.0888 220.423 16.1475 220.284C16.2061 220.137 16.2355 219.983 16.2355 219.822ZM20.4964 220.537C20.5111 220.662 20.5184 220.753 20.5184 220.812C20.5184 220.871 20.5184 220.929 20.5184 220.988C20.5184 221.443 20.4451 221.912 20.2984 222.396C20.1591 222.88 19.9611 223.338 19.7044 223.771L18.6594 223.485C18.8354 223.06 18.9527 222.642 19.0114 222.231C19.0774 221.828 19.1104 221.472 19.1104 221.164C19.1104 221.076 19.1067 220.966 19.0994 220.834C19.0994 220.702 19.0957 220.603 19.0884 220.537H20.4964ZM26.9928 218.183C26.9928 219.466 26.7581 220.453 26.2888 221.142C25.8194 221.824 25.1704 222.165 24.3418 222.165C23.5131 222.165 22.8641 221.824 22.3948 221.142C21.9254 220.453 21.6908 219.466 21.6908 218.183C21.6908 217.545 21.7494 216.98 21.8668 216.489C21.9914 215.99 22.1674 215.572 22.3948 215.235C22.6294 214.898 22.9081 214.641 23.2308 214.465C23.5608 214.289 23.9311 214.201 24.3418 214.201C25.1704 214.201 25.8194 214.546 26.2888 215.235C26.7581 215.917 26.9928 216.9 26.9928 218.183ZM25.6178 218.183C25.6178 217.787 25.5958 217.417 25.5518 217.072C25.5078 216.727 25.4344 216.43 25.3318 216.181C25.2364 215.924 25.1081 215.723 24.9468 215.576C24.7854 215.429 24.5838 215.356 24.3418 215.356C24.0998 215.356 23.8944 215.429 23.7258 215.576C23.5644 215.723 23.4324 215.924 23.3298 216.181C23.2344 216.43 23.1648 216.727 23.1208 217.072C23.0841 217.417 23.0658 217.787 23.0658 218.183C23.0658 218.579 23.0841 218.949 23.1208 219.294C23.1648 219.639 23.2344 219.939 23.3298 220.196C23.4324 220.445 23.5644 220.643 23.7258 220.79C23.8944 220.937 24.0998 221.01 24.3418 221.01C24.5838 221.01 24.7854 220.937 24.9468 220.79C25.1081 220.643 25.2364 220.445 25.3318 220.196C25.4344 219.939 25.5078 219.639 25.5518 219.294C25.5958 218.949 25.6178 218.579 25.6178 218.183ZM33.2447 218.183C33.2447 219.466 33.0101 220.453 32.5407 221.142C32.0714 221.824 31.4224 222.165 30.5937 222.165C29.7651 222.165 29.1161 221.824 28.6467 221.142C28.1774 220.453 27.9427 219.466 27.9427 218.183C27.9427 217.545 28.0014 216.98 28.1187 216.489C28.2434 215.99 28.4194 215.572 28.6467 215.235C28.8814 214.898 29.1601 214.641 29.4827 214.465C29.8127 214.289 30.1831 214.201 30.5937 214.201C31.4224 214.201 32.0714 214.546 32.5407 215.235C33.0101 215.917 33.2447 216.9 33.2447 218.183ZM31.8697 218.183C31.8697 217.787 31.8477 217.417 31.8037 217.072C31.7597 216.727 31.6864 216.43 31.5837 216.181C31.4884 215.924 31.3601 215.723 31.1987 215.576C31.0374 215.429 30.8357 215.356 30.5937 215.356C30.3517 215.356 30.1464 215.429 29.9777 215.576C29.8164 215.723 29.6844 215.924 29.5817 216.181C29.4864 216.43 29.4167 216.727 29.3727 217.072C29.3361 217.417 29.3177 217.787 29.3177 218.183C29.3177 218.579 29.3361 218.949 29.3727 219.294C29.4167 219.639 29.4864 219.939 29.5817 220.196C29.6844 220.445 29.8164 220.643 29.9777 220.79C30.1464 220.937 30.3517 221.01 30.5937 221.01C30.8357 221.01 31.0374 220.937 31.1987 220.79C31.3601 220.643 31.4884 220.445 31.5837 220.196C31.6864 219.939 31.7597 219.639 31.8037 219.294C31.8477 218.949 31.8697 218.579 31.8697 218.183ZM39.4967 218.183C39.4967 219.466 39.262 220.453 38.7927 221.142C38.3233 221.824 37.6743 222.165 36.8457 222.165C36.017 222.165 35.368 221.824 34.8987 221.142C34.4293 220.453 34.1947 219.466 34.1947 218.183C34.1947 217.545 34.2533 216.98 34.3707 216.489C34.4953 215.99 34.6713 215.572 34.8987 215.235C35.1333 214.898 35.412 214.641 35.7347 214.465C36.0647 214.289 36.435 214.201 36.8457 214.201C37.6743 214.201 38.3233 214.546 38.7927 215.235C39.262 215.917 39.4967 216.9 39.4967 218.183ZM38.1217 218.183C38.1217 217.787 38.0997 217.417 38.0557 217.072C38.0117 216.727 37.9383 216.43 37.8357 216.181C37.7403 215.924 37.612 215.723 37.4507 215.576C37.2893 215.429 37.0877 215.356 36.8457 215.356C36.6037 215.356 36.3983 215.429 36.2297 215.576C36.0683 215.723 35.9363 215.924 35.8337 216.181C35.7383 216.43 35.6687 216.727 35.6247 217.072C35.588 217.417 35.5697 217.787 35.5697 218.183C35.5697 218.579 35.588 218.949 35.6247 219.294C35.6687 219.639 35.7383 219.939 35.8337 220.196C35.9363 220.445 36.0683 220.643 36.2297 220.79C36.3983 220.937 36.6037 221.01 36.8457 221.01C37.0877 221.01 37.2893 220.937 37.4507 220.79C37.612 220.643 37.7403 220.445 37.8357 220.196C37.9383 219.939 38.0117 219.639 38.0557 219.294C38.0997 218.949 38.1217 218.579 38.1217 218.183ZM42.3166 221.274C42.3166 221.531 42.2286 221.74 42.0526 221.901C41.884 222.062 41.6786 222.143 41.4366 222.143C41.1873 222.143 40.9783 222.062 40.8096 221.901C40.641 221.74 40.5566 221.531 40.5566 221.274C40.5566 221.017 40.641 220.808 40.8096 220.647C40.9783 220.478 41.1873 220.394 41.4366 220.394C41.6786 220.394 41.884 220.478 42.0526 220.647C42.2286 220.808 42.3166 221.017 42.3166 221.274ZM48.6705 218.183C48.6705 219.466 48.4358 220.453 47.9665 221.142C47.4972 221.824 46.8482 222.165 46.0195 222.165C45.1908 222.165 44.5418 221.824 44.0725 221.142C43.6032 220.453 43.3685 219.466 43.3685 218.183C43.3685 217.545 43.4272 216.98 43.5445 216.489C43.6692 215.99 43.8452 215.572 44.0725 215.235C44.3072 214.898 44.5858 214.641 44.9085 214.465C45.2385 214.289 45.6088 214.201 46.0195 214.201C46.8482 214.201 47.4972 214.546 47.9665 215.235C48.4358 215.917 48.6705 216.9 48.6705 218.183ZM47.2955 218.183C47.2955 217.787 47.2735 217.417 47.2295 217.072C47.1855 216.727 47.1122 216.43 47.0095 216.181C46.9142 215.924 46.7858 215.723 46.6245 215.576C46.4632 215.429 46.2615 215.356 46.0195 215.356C45.7775 215.356 45.5722 215.429 45.4035 215.576C45.2422 215.723 45.1102 215.924 45.0075 216.181C44.9122 216.43 44.8425 216.727 44.7985 217.072C44.7618 217.417 44.7435 217.787 44.7435 218.183C44.7435 218.579 44.7618 218.949 44.7985 219.294C44.8425 219.639 44.9122 219.939 45.0075 220.196C45.1102 220.445 45.2422 220.643 45.4035 220.79C45.5722 220.937 45.7775 221.01 46.0195 221.01C46.2615 221.01 46.4632 220.937 46.6245 220.79C46.7858 220.643 46.9142 220.445 47.0095 220.196C47.1122 219.939 47.1855 219.639 47.2295 219.294C47.2735 218.949 47.2955 218.579 47.2955 218.183ZM54.9225 218.183C54.9225 219.466 54.6878 220.453 54.2185 221.142C53.7491 221.824 53.1001 222.165 52.2715 222.165C51.4428 222.165 50.7938 221.824 50.3245 221.142C49.8551 220.453 49.6205 219.466 49.6205 218.183C49.6205 217.545 49.6791 216.98 49.7965 216.489C49.9211 215.99 50.0971 215.572 50.3245 215.235C50.5591 214.898 50.8378 214.641 51.1605 214.465C51.4905 214.289 51.8608 214.201 52.2715 214.201C53.1001 214.201 53.7491 214.546 54.2185 215.235C54.6878 215.917 54.9225 216.9 54.9225 218.183ZM53.5475 218.183C53.5475 217.787 53.5255 217.417 53.4815 217.072C53.4375 216.727 53.3641 216.43 53.2615 216.181C53.1661 215.924 53.0378 215.723 52.8765 215.576C52.7151 215.429 52.5135 215.356 52.2715 215.356C52.0295 215.356 51.8241 215.429 51.6555 215.576C51.4941 215.723 51.3621 215.924 51.2595 216.181C51.1641 216.43 51.0945 216.727 51.0505 217.072C51.0138 217.417 50.9955 217.787 50.9955 218.183C50.9955 218.579 51.0138 218.949 51.0505 219.294C51.0945 219.639 51.1641 219.939 51.2595 220.196C51.3621 220.445 51.4941 220.643 51.6555 220.79C51.8241 220.937 52.0295 221.01 52.2715 221.01C52.5135 221.01 52.7151 220.937 52.8765 220.79C53.0378 220.643 53.1661 220.445 53.2615 220.196C53.3641 219.939 53.4375 219.639 53.4815 219.294C53.5255 218.949 53.5475 218.579 53.5475 218.183ZM56.9834 218.711C56.9834 217.809 56.8477 216.966 56.5764 216.181C56.3051 215.389 55.9274 214.663 55.4434 214.003L56.3784 213.387C56.9724 214.098 57.4417 214.909 57.7864 215.818C58.1311 216.72 58.3034 217.684 58.3034 218.711C58.3034 219.738 58.1311 220.706 57.7864 221.615C57.4417 222.517 56.9724 223.324 56.3784 224.035L55.4434 223.419C55.9274 222.766 56.3051 222.044 56.5764 221.252C56.8477 220.46 56.9834 219.613 56.9834 218.711Z" fill="#9CA3AF"/>
<path d="M4.145 160.711C4.145 161.613 4.28067 162.46 4.552 163.252C4.82333 164.044 5.201 164.766 5.685 165.419L4.75 166.035C4.156 165.324 3.68667 164.517 3.342 163.615C2.99733 162.706 2.825 161.738 2.825 160.711C2.825 159.684 2.99733 158.72 3.342 157.818C3.68667 156.909 4.156 156.098 4.75 155.387L5.685 156.003C5.201 156.663 4.82333 157.389 4.552 158.181C4.28067 158.966 4.145 159.809 4.145 160.711ZM6.69554 164V161.173H5.83754V160.469H6.69554V159.567H5.83754V158.863H6.69554V156.146H7.83954L8.88454 158.863H10.1825V156.146H11.0515V158.863H11.9095V159.567H11.0515V160.469H11.9095V161.173H11.0515V164H9.89654L8.85154 161.173H7.55354V164H6.69554ZM7.55354 160.469H8.58754L8.25754 159.567H7.53154L7.55354 160.469ZM10.1825 162.449H10.2265L10.1935 161.173H9.73154L10.1825 162.449ZM7.53154 158.863H7.99354L7.53154 157.499H7.48754L7.53154 158.863ZM9.46754 160.469H10.2045L10.1825 159.567H9.13754L9.46754 160.469ZM17.7425 161.954C17.7425 162.269 17.6875 162.563 17.5775 162.834C17.4675 163.105 17.3025 163.34 17.0825 163.538C16.8625 163.736 16.5875 163.89 16.2575 164C15.9348 164.11 15.5608 164.165 15.1355 164.165C14.6368 164.165 14.2225 164.095 13.8925 163.956C13.5625 163.817 13.2985 163.641 13.1005 163.428C12.9025 163.215 12.7595 162.988 12.6715 162.746C12.5908 162.497 12.5505 162.262 12.5505 162.042C12.5505 161.822 12.5798 161.62 12.6385 161.437C12.7045 161.246 12.7925 161.074 12.9025 160.92C13.0125 160.759 13.1371 160.612 13.2765 160.48C13.4158 160.348 13.5625 160.231 13.7165 160.128C13.3791 159.893 13.1261 159.64 12.9575 159.369C12.7961 159.09 12.7155 158.753 12.7155 158.357C12.7155 158.071 12.7705 157.8 12.8805 157.543C12.9978 157.279 13.1628 157.048 13.3755 156.85C13.5881 156.652 13.8448 156.494 14.1455 156.377C14.4461 156.26 14.7798 156.201 15.1465 156.201C15.5791 156.201 15.9458 156.263 16.2465 156.388C16.5545 156.513 16.8038 156.674 16.9945 156.872C17.1925 157.07 17.3355 157.29 17.4235 157.532C17.5115 157.774 17.5555 158.009 17.5555 158.236C17.5555 158.639 17.4455 158.999 17.2255 159.314C17.0055 159.622 16.7525 159.868 16.4665 160.051C16.8991 160.286 17.2181 160.557 17.4235 160.865C17.6361 161.173 17.7425 161.536 17.7425 161.954ZM13.8595 162.02C13.8595 162.13 13.8815 162.247 13.9255 162.372C13.9695 162.497 14.0428 162.61 14.1455 162.713C14.2481 162.816 14.3801 162.904 14.5415 162.977C14.7028 163.043 14.9045 163.076 15.1465 163.076C15.3665 163.076 15.5571 163.047 15.7185 162.988C15.8798 162.929 16.0118 162.852 16.1145 162.757C16.2171 162.654 16.2941 162.541 16.3455 162.416C16.3968 162.284 16.4225 162.152 16.4225 162.02C16.4225 161.815 16.3821 161.635 16.3015 161.481C16.2208 161.327 16.1035 161.195 15.9495 161.085C15.8028 160.968 15.6268 160.869 15.4215 160.788C15.2161 160.7 14.9888 160.623 14.7395 160.557C14.4755 160.726 14.2628 160.931 14.1015 161.173C13.9401 161.408 13.8595 161.69 13.8595 162.02ZM16.2575 158.258C16.2575 158.163 16.2355 158.06 16.1915 157.95C16.1548 157.833 16.0888 157.726 15.9935 157.631C15.9055 157.536 15.7918 157.455 15.6525 157.389C15.5131 157.323 15.3445 157.29 15.1465 157.29C14.9485 157.29 14.7761 157.323 14.6295 157.389C14.4901 157.448 14.3765 157.528 14.2885 157.631C14.2005 157.726 14.1345 157.833 14.0905 157.95C14.0465 158.06 14.0245 158.17 14.0245 158.28C14.0245 158.559 14.1271 158.823 14.3325 159.072C14.5451 159.321 14.8971 159.519 15.3885 159.666C15.6598 159.497 15.8725 159.307 16.0265 159.094C16.1805 158.874 16.2575 158.595 16.2575 158.258ZM20.4964 162.537C20.5111 162.662 20.5184 162.753 20.5184 162.812C20.5184 162.871 20.5184 162.929 20.5184 162.988C20.5184 163.443 20.4451 163.912 20.2984 164.396C20.1591 164.88 19.9611 165.338 19.7044 165.771L18.6594 165.485C18.8354 165.06 18.9527 164.642 19.0114 164.231C19.0774 163.828 19.1104 163.472 19.1104 163.164C19.1104 163.076 19.1067 162.966 19.0994 162.834C19.0994 162.702 19.0957 162.603 19.0884 162.537H20.4964ZM26.9928 160.183C26.9928 161.466 26.7581 162.453 26.2888 163.142C25.8194 163.824 25.1704 164.165 24.3418 164.165C23.5131 164.165 22.8641 163.824 22.3948 163.142C21.9254 162.453 21.6908 161.466 21.6908 160.183C21.6908 159.545 21.7494 158.98 21.8668 158.489C21.9914 157.99 22.1674 157.572 22.3948 157.235C22.6294 156.898 22.9081 156.641 23.2308 156.465C23.5608 156.289 23.9311 156.201 24.3418 156.201C25.1704 156.201 25.8194 156.546 26.2888 157.235C26.7581 157.917 26.9928 158.9 26.9928 160.183ZM25.6178 160.183C25.6178 159.787 25.5958 159.417 25.5518 159.072C25.5078 158.727 25.4344 158.43 25.3318 158.181C25.2364 157.924 25.1081 157.723 24.9468 157.576C24.7854 157.429 24.5838 157.356 24.3418 157.356C24.0998 157.356 23.8944 157.429 23.7258 157.576C23.5644 157.723 23.4324 157.924 23.3298 158.181C23.2344 158.43 23.1648 158.727 23.1208 159.072C23.0841 159.417 23.0658 159.787 23.0658 160.183C23.0658 160.579 23.0841 160.949 23.1208 161.294C23.1648 161.639 23.2344 161.939 23.3298 162.196C23.4324 162.445 23.5644 162.643 23.7258 162.79C23.8944 162.937 24.0998 163.01 24.3418 163.01C24.5838 163.01 24.7854 162.937 24.9468 162.79C25.1081 162.643 25.2364 162.445 25.3318 162.196C25.4344 161.939 25.5078 161.639 25.5518 161.294C25.5958 160.949 25.6178 160.579 25.6178 160.183ZM33.2447 160.183C33.2447 161.466 33.0101 162.453 32.5407 163.142C32.0714 163.824 31.4224 164.165 30.5937 164.165C29.7651 164.165 29.1161 163.824 28.6467 163.142C28.1774 162.453 27.9427 161.466 27.9427 160.183C27.9427 159.545 28.0014 158.98 28.1187 158.489C28.2434 157.99 28.4194 157.572 28.6467 157.235C28.8814 156.898 29.1601 156.641 29.4827 156.465C29.8127 156.289 30.1831 156.201 30.5937 156.201C31.4224 156.201 32.0714 156.546 32.5407 157.235C33.0101 157.917 33.2447 158.9 33.2447 160.183ZM31.8697 160.183C31.8697 159.787 31.8477 159.417 31.8037 159.072C31.7597 158.727 31.6864 158.43 31.5837 158.181C31.4884 157.924 31.3601 157.723 31.1987 157.576C31.0374 157.429 30.8357 157.356 30.5937 157.356C30.3517 157.356 30.1464 157.429 29.9777 157.576C29.8164 157.723 29.6844 157.924 29.5817 158.181C29.4864 158.43 29.4167 158.727 29.3727 159.072C29.3361 159.417 29.3177 159.787 29.3177 160.183C29.3177 160.579 29.3361 160.949 29.3727 161.294C29.4167 161.639 29.4864 161.939 29.5817 162.196C29.6844 162.445 29.8164 162.643 29.9777 162.79C30.1464 162.937 30.3517 163.01 30.5937 163.01C30.8357 163.01 31.0374 162.937 31.1987 162.79C31.3601 162.643 31.4884 162.445 31.5837 162.196C31.6864 161.939 31.7597 161.639 31.8037 161.294C31.8477 160.949 31.8697 160.579 31.8697 160.183ZM39.4967 160.183C39.4967 161.466 39.262 162.453 38.7927 163.142C38.3233 163.824 37.6743 164.165 36.8457 164.165C36.017 164.165 35.368 163.824 34.8987 163.142C34.4293 162.453 34.1947 161.466 34.1947 160.183C34.1947 159.545 34.2533 158.98 34.3707 158.489C34.4953 157.99 34.6713 157.572 34.8987 157.235C35.1333 156.898 35.412 156.641 35.7347 156.465C36.0647 156.289 36.435 156.201 36.8457 156.201C37.6743 156.201 38.3233 156.546 38.7927 157.235C39.262 157.917 39.4967 158.9 39.4967 160.183ZM38.1217 160.183C38.1217 159.787 38.0997 159.417 38.0557 159.072C38.0117 158.727 37.9383 158.43 37.8357 158.181C37.7403 157.924 37.612 157.723 37.4507 157.576C37.2893 157.429 37.0877 157.356 36.8457 157.356C36.6037 157.356 36.3983 157.429 36.2297 157.576C36.0683 157.723 35.9363 157.924 35.8337 158.181C35.7383 158.43 35.6687 158.727 35.6247 159.072C35.588 159.417 35.5697 159.787 35.5697 160.183C35.5697 160.579 35.588 160.949 35.6247 161.294C35.6687 161.639 35.7383 161.939 35.8337 162.196C35.9363 162.445 36.0683 162.643 36.2297 162.79C36.3983 162.937 36.6037 163.01 36.8457 163.01C37.0877 163.01 37.2893 162.937 37.4507 162.79C37.612 162.643 37.7403 162.445 37.8357 162.196C37.9383 161.939 38.0117 161.639 38.0557 161.294C38.0997 160.949 38.1217 160.579 38.1217 160.183ZM42.3166 163.274C42.3166 163.531 42.2286 163.74 42.0526 163.901C41.884 164.062 41.6786 164.143 41.4366 164.143C41.1873 164.143 40.9783 164.062 40.8096 163.901C40.641 163.74 40.5566 163.531 40.5566 163.274C40.5566 163.017 40.641 162.808 40.8096 162.647C40.9783 162.478 41.1873 162.394 41.4366 162.394C41.6786 162.394 41.884 162.478 42.0526 162.647C42.2286 162.808 42.3166 163.017 42.3166 163.274ZM48.6705 160.183C48.6705 161.466 48.4358 162.453 47.9665 163.142C47.4972 163.824 46.8482 164.165 46.0195 164.165C45.1908 164.165 44.5418 163.824 44.0725 163.142C43.6032 162.453 43.3685 161.466 43.3685 160.183C43.3685 159.545 43.4272 158.98 43.5445 158.489C43.6692 157.99 43.8452 157.572 44.0725 157.235C44.3072 156.898 44.5858 156.641 44.9085 156.465C45.2385 156.289 45.6088 156.201 46.0195 156.201C46.8482 156.201 47.4972 156.546 47.9665 157.235C48.4358 157.917 48.6705 158.9 48.6705 160.183ZM47.2955 160.183C47.2955 159.787 47.2735 159.417 47.2295 159.072C47.1855 158.727 47.1122 158.43 47.0095 158.181C46.9142 157.924 46.7858 157.723 46.6245 157.576C46.4632 157.429 46.2615 157.356 46.0195 157.356C45.7775 157.356 45.5722 157.429 45.4035 157.576C45.2422 157.723 45.1102 157.924 45.0075 158.181C44.9122 158.43 44.8425 158.727 44.7985 159.072C44.7618 159.417 44.7435 159.787 44.7435 160.183C44.7435 160.579 44.7618 160.949 44.7985 161.294C44.8425 161.639 44.9122 161.939 45.0075 162.196C45.1102 162.445 45.2422 162.643 45.4035 162.79C45.5722 162.937 45.7775 163.01 46.0195 163.01C46.2615 163.01 46.4632 162.937 46.6245 162.79C46.7858 162.643 46.9142 162.445 47.0095 162.196C47.1122 161.939 47.1855 161.639 47.2295 161.294C47.2735 160.949 47.2955 160.579 47.2955 160.183ZM54.9225 160.183C54.9225 161.466 54.6878 162.453 54.2185 163.142C53.7491 163.824 53.1001 164.165 52.2715 164.165C51.4428 164.165 50.7938 163.824 50.3245 163.142C49.8551 162.453 49.6205 161.466 49.6205 160.183C49.6205 159.545 49.6791 158.98 49.7965 158.489C49.9211 157.99 50.0971 157.572 50.3245 157.235C50.5591 156.898 50.8378 156.641 51.1605 156.465C51.4905 156.289 51.8608 156.201 52.2715 156.201C53.1001 156.201 53.7491 156.546 54.2185 157.235C54.6878 157.917 54.9225 158.9 54.9225 160.183ZM53.5475 160.183C53.5475 159.787 53.5255 159.417 53.4815 159.072C53.4375 158.727 53.3641 158.43 53.2615 158.181C53.1661 157.924 53.0378 157.723 52.8765 157.576C52.7151 157.429 52.5135 157.356 52.2715 157.356C52.0295 157.356 51.8241 157.429 51.6555 157.576C51.4941 157.723 51.3621 157.924 51.2595 158.181C51.1641 158.43 51.0945 158.727 51.0505 159.072C51.0138 159.417 50.9955 159.787 50.9955 160.183C50.9955 160.579 51.0138 160.949 51.0505 161.294C51.0945 161.639 51.1641 161.939 51.2595 162.196C51.3621 162.445 51.4941 162.643 51.6555 162.79C51.8241 162.937 52.0295 163.01 52.2715 163.01C52.5135 163.01 52.7151 162.937 52.8765 162.79C53.0378 162.643 53.1661 162.445 53.2615 162.196C53.3641 161.939 53.4375 161.639 53.4815 161.294C53.5255 160.949 53.5475 160.579 53.5475 160.183ZM56.9834 160.711C56.9834 159.809 56.8477 158.966 56.5764 158.181C56.3051 157.389 55.9274 156.663 55.4434 156.003L56.3784 155.387C56.9724 156.098 57.4417 156.909 57.7864 157.818C58.1311 158.72 58.3034 159.684 58.3034 160.711C58.3034 161.738 58.1311 162.706 57.7864 163.615C57.4417 164.517 56.9724 165.324 56.3784 166.035L55.4434 165.419C55.9274 164.766 56.3051 164.044 56.5764 163.252C56.8477 162.46 56.9834 161.613 56.9834 160.711Z" fill="#9CA3AF"/>
<path d="M4.145 102.711C4.145 103.613 4.28067 104.46 4.552 105.252C4.82333 106.044 5.201 106.766 5.685 107.419L4.75 108.035C4.156 107.324 3.68667 106.517 3.342 105.615C2.99733 104.706 2.825 103.738 2.825 102.711C2.825 101.684 2.99733 100.72 3.342 99.818C3.68667 98.9087 4.156 98.0983 4.75 97.387L5.685 98.003C5.201 98.663 4.82333 99.389 4.552 100.181C4.28067 100.966 4.145 101.809 4.145 102.711ZM6.69554 106V103.173H5.83754V102.469H6.69554V101.567H5.83754V100.863H6.69554V98.146H7.83954L8.88454 100.863H10.1825V98.146H11.0515V100.863H11.9095V101.567H11.0515V102.469H11.9095V103.173H11.0515V106H9.89654L8.85154 103.173H7.55354V106H6.69554ZM7.55354 102.469H8.58754L8.25754 101.567H7.53154L7.55354 102.469ZM10.1825 104.449H10.2265L10.1935 103.173H9.73154L10.1825 104.449ZM7.53154 100.863H7.99354L7.53154 99.499H7.48754L7.53154 100.863ZM9.46754 102.469H10.2045L10.1825 101.567H9.13754L9.46754 102.469ZM15.1795 102.051C15.3921 102.051 15.6011 102.033 15.8065 101.996C16.0118 101.952 16.1878 101.89 16.3345 101.809C16.3418 101.728 16.3455 101.659 16.3455 101.6C16.3455 101.541 16.3455 101.49 16.3455 101.446C16.3455 101.153 16.3235 100.878 16.2795 100.621C16.2428 100.357 16.1731 100.13 16.0705 99.939C15.9751 99.741 15.8395 99.587 15.6635 99.477C15.4948 99.3597 15.2821 99.301 15.0255 99.301C14.8128 99.301 14.6295 99.345 14.4755 99.433C14.3288 99.521 14.2078 99.6347 14.1125 99.774C14.0171 99.9133 13.9475 100.064 13.9035 100.225C13.8595 100.386 13.8375 100.544 13.8375 100.698C13.8375 101.145 13.9438 101.483 14.1565 101.71C14.3765 101.937 14.7175 102.051 15.1795 102.051ZM16.2245 102.854C16.0485 102.935 15.8541 102.997 15.6415 103.041C15.4288 103.085 15.2235 103.107 15.0255 103.107C14.5708 103.107 14.1821 103.048 13.8595 102.931C13.5441 102.806 13.2838 102.638 13.0785 102.425C12.8805 102.205 12.7338 101.952 12.6385 101.666C12.5431 101.38 12.4955 101.072 12.4955 100.742C12.4955 100.456 12.5431 100.166 12.6385 99.873C12.7338 99.5723 12.8841 99.2973 13.0895 99.048C13.2948 98.7987 13.5551 98.597 13.8705 98.443C14.1858 98.2817 14.5598 98.201 14.9925 98.201C15.8871 98.201 16.5618 98.4907 17.0165 99.07C17.4785 99.642 17.7095 100.452 17.7095 101.501C17.7095 102.982 17.3281 104.104 16.5655 104.867C15.8028 105.63 14.6331 106.015 13.0565 106.022L13.0015 104.911C13.4415 104.911 13.8375 104.874 14.1895 104.801C14.5488 104.728 14.8605 104.61 15.1245 104.449C15.3958 104.288 15.6231 104.079 15.8065 103.822C15.9898 103.558 16.1291 103.235 16.2245 102.854ZM20.4964 104.537C20.5111 104.662 20.5184 104.753 20.5184 104.812C20.5184 104.871 20.5184 104.929 20.5184 104.988C20.5184 105.443 20.4451 105.912 20.2984 106.396C20.1591 106.88 19.9611 107.338 19.7044 107.771L18.6594 107.485C18.8354 107.06 18.9527 106.642 19.0114 106.231C19.0774 105.828 19.1104 105.472 19.1104 105.164C19.1104 105.076 19.1067 104.966 19.0994 104.834C19.0994 104.702 19.0957 104.603 19.0884 104.537H20.4964ZM26.9928 102.183C26.9928 103.466 26.7581 104.453 26.2888 105.142C25.8194 105.824 25.1704 106.165 24.3418 106.165C23.5131 106.165 22.8641 105.824 22.3948 105.142C21.9254 104.453 21.6908 103.466 21.6908 102.183C21.6908 101.545 21.7494 100.98 21.8668 100.489C21.9914 99.9903 22.1674 99.5723 22.3948 99.235C22.6294 98.8977 22.9081 98.641 23.2308 98.465C23.5608 98.289 23.9311 98.201 24.3418 98.201C25.1704 98.201 25.8194 98.5457 26.2888 99.235C26.7581 99.917 26.9928 100.9 26.9928 102.183ZM25.6178 102.183C25.6178 101.787 25.5958 101.417 25.5518 101.072C25.5078 100.727 25.4344 100.43 25.3318 100.181C25.2364 99.9243 25.1081 99.7227 24.9468 99.576C24.7854 99.4293 24.5838 99.356 24.3418 99.356C24.0998 99.356 23.8944 99.4293 23.7258 99.576C23.5644 99.7227 23.4324 99.9243 23.3298 100.181C23.2344 100.43 23.1648 100.727 23.1208 101.072C23.0841 101.417 23.0658 101.787 23.0658 102.183C23.0658 102.579 23.0841 102.949 23.1208 103.294C23.1648 103.639 23.2344 103.939 23.3298 104.196C23.4324 104.445 23.5644 104.643 23.7258 104.79C23.8944 104.937 24.0998 105.01 24.3418 105.01C24.5838 105.01 24.7854 104.937 24.9468 104.79C25.1081 104.643 25.2364 104.445 25.3318 104.196C25.4344 103.939 25.5078 103.639 25.5518 103.294C25.5958 102.949 25.6178 102.579 25.6178 102.183ZM33.2447 102.183C33.2447 103.466 33.0101 104.453 32.5407 105.142C32.0714 105.824 31.4224 106.165 30.5937 106.165C29.7651 106.165 29.1161 105.824 28.6467 105.142C28.1774 104.453 27.9427 103.466 27.9427 102.183C27.9427 101.545 28.0014 100.98 28.1187 100.489C28.2434 99.9903 28.4194 99.5723 28.6467 99.235C28.8814 98.8977 29.1601 98.641 29.4827 98.465C29.8127 98.289 30.1831 98.201 30.5937 98.201C31.4224 98.201 32.0714 98.5457 32.5407 99.235C33.0101 99.917 33.2447 100.9 33.2447 102.183ZM31.8697 102.183C31.8697 101.787 31.8477 101.417 31.8037 101.072C31.7597 100.727 31.6864 100.43 31.5837 100.181C31.4884 99.9243 31.3601 99.7227 31.1987 99.576C31.0374 99.4293 30.8357 99.356 30.5937 99.356C30.3517 99.356 30.1464 99.4293 29.9777 99.576C29.8164 99.7227 29.6844 99.9243 29.5817 100.181C29.4864 100.43 29.4167 100.727 29.3727 101.072C29.3361 101.417 29.3177 101.787 29.3177 102.183C29.3177 102.579 29.3361 102.949 29.3727 103.294C29.4167 103.639 29.4864 103.939 29.5817 104.196C29.6844 104.445 29.8164 104.643 29.9777 104.79C30.1464 104.937 30.3517 105.01 30.5937 105.01C30.8357 105.01 31.0374 104.937 31.1987 104.79C31.3601 104.643 31.4884 104.445 31.5837 104.196C31.6864 103.939 31.7597 103.639 31.8037 103.294C31.8477 102.949 31.8697 102.579 31.8697 102.183ZM39.4967 102.183C39.4967 103.466 39.262 104.453 38.7927 105.142C38.3233 105.824 37.6743 106.165 36.8457 106.165C36.017 106.165 35.368 105.824 34.8987 105.142C34.4293 104.453 34.1947 103.466 34.1947 102.183C34.1947 101.545 34.2533 100.98 34.3707 100.489C34.4953 99.9903 34.6713 99.5723 34.8987 99.235C35.1333 98.8977 35.412 98.641 35.7347 98.465C36.0647 98.289 36.435 98.201 36.8457 98.201C37.6743 98.201 38.3233 98.5457 38.7927 99.235C39.262 99.917 39.4967 100.9 39.4967 102.183ZM38.1217 102.183C38.1217 101.787 38.0997 101.417 38.0557 101.072C38.0117 100.727 37.9383 100.43 37.8357 100.181C37.7403 99.9243 37.612 99.7227 37.4507 99.576C37.2893 99.4293 37.0877 99.356 36.8457 99.356C36.6037 99.356 36.3983 99.4293 36.2297 99.576C36.0683 99.7227 35.9363 99.9243 35.8337 100.181C35.7383 100.43 35.6687 100.727 35.6247 101.072C35.588 101.417 35.5697 101.787 35.5697 102.183C35.5697 102.579 35.588 102.949 35.6247 103.294C35.6687 103.639 35.7383 103.939 35.8337 104.196C35.9363 104.445 36.0683 104.643 36.2297 104.79C36.3983 104.937 36.6037 105.01 36.8457 105.01C37.0877 105.01 37.2893 104.937 37.4507 104.79C37.612 104.643 37.7403 104.445 37.8357 104.196C37.9383 103.939 38.0117 103.639 38.0557 103.294C38.0997 102.949 38.1217 102.579 38.1217 102.183ZM42.3166 105.274C42.3166 105.531 42.2286 105.74 42.0526 105.901C41.884 106.062 41.6786 106.143 41.4366 106.143C41.1873 106.143 40.9783 106.062 40.8096 105.901C40.641 105.74 40.5566 105.531 40.5566 105.274C40.5566 105.017 40.641 104.808 40.8096 104.647C40.9783 104.478 41.1873 104.394 41.4366 104.394C41.6786 104.394 41.884 104.478 42.0526 104.647C42.2286 104.808 42.3166 105.017 42.3166 105.274ZM48.6705 102.183C48.6705 103.466 48.4358 104.453 47.9665 105.142C47.4972 105.824 46.8482 106.165 46.0195 106.165C45.1908 106.165 44.5418 105.824 44.0725 105.142C43.6032 104.453 43.3685 103.466 43.3685 102.183C43.3685 101.545 43.4272 100.98 43.5445 100.489C43.6692 99.9903 43.8452 99.5723 44.0725 99.235C44.3072 98.8977 44.5858 98.641 44.9085 98.465C45.2385 98.289 45.6088 98.201 46.0195 98.201C46.8482 98.201 47.4972 98.5457 47.9665 99.235C48.4358 99.917 48.6705 100.9 48.6705 102.183ZM47.2955 102.183C47.2955 101.787 47.2735 101.417 47.2295 101.072C47.1855 100.727 47.1122 100.43 47.0095 100.181C46.9142 99.9243 46.7858 99.7227 46.6245 99.576C46.4632 99.4293 46.2615 99.356 46.0195 99.356C45.7775 99.356 45.5722 99.4293 45.4035 99.576C45.2422 99.7227 45.1102 99.9243 45.0075 100.181C44.9122 100.43 44.8425 100.727 44.7985 101.072C44.7618 101.417 44.7435 101.787 44.7435 102.183C44.7435 102.579 44.7618 102.949 44.7985 103.294C44.8425 103.639 44.9122 103.939 45.0075 104.196C45.1102 104.445 45.2422 104.643 45.4035 104.79C45.5722 104.937 45.7775 105.01 46.0195 105.01C46.2615 105.01 46.4632 104.937 46.6245 104.79C46.7858 104.643 46.9142 104.445 47.0095 104.196C47.1122 103.939 47.1855 103.639 47.2295 103.294C47.2735 102.949 47.2955 102.579 47.2955 102.183ZM54.9225 102.183C54.9225 103.466 54.6878 104.453 54.2185 105.142C53.7491 105.824 53.1001 106.165 52.2715 106.165C51.4428 106.165 50.7938 105.824 50.3245 105.142C49.8551 104.453 49.6205 103.466 49.6205 102.183C49.6205 101.545 49.6791 100.98 49.7965 100.489C49.9211 99.9903 50.0971 99.5723 50.3245 99.235C50.5591 98.8977 50.8378 98.641 51.1605 98.465C51.4905 98.289 51.8608 98.201 52.2715 98.201C53.1001 98.201 53.7491 98.5457 54.2185 99.235C54.6878 99.917 54.9225 100.9 54.9225 102.183ZM53.5475 102.183C53.5475 101.787 53.5255 101.417 53.4815 101.072C53.4375 100.727 53.3641 100.43 53.2615 100.181C53.1661 99.9243 53.0378 99.7227 52.8765 99.576C52.7151 99.4293 52.5135 99.356 52.2715 99.356C52.0295 99.356 51.8241 99.4293 51.6555 99.576C51.4941 99.7227 51.3621 99.9243 51.2595 100.181C51.1641 100.43 51.0945 100.727 51.0505 101.072C51.0138 101.417 50.9955 101.787 50.9955 102.183C50.9955 102.579 51.0138 102.949 51.0505 103.294C51.0945 103.639 51.1641 103.939 51.2595 104.196C51.3621 104.445 51.4941 104.643 51.6555 104.79C51.8241 104.937 52.0295 105.01 52.2715 105.01C52.5135 105.01 52.7151 104.937 52.8765 104.79C53.0378 104.643 53.1661 104.445 53.2615 104.196C53.3641 103.939 53.4375 103.639 53.4815 103.294C53.5255 102.949 53.5475 102.579 53.5475 102.183ZM56.9834 102.711C56.9834 101.809 56.8477 100.966 56.5764 100.181C56.3051 99.389 55.9274 98.663 55.4434 98.003L56.3784 97.387C56.9724 98.0983 57.4417 98.9087 57.7864 99.818C58.1311 100.72 58.3034 101.684 58.3034 102.711C58.3034 103.738 58.1311 104.706 57.7864 105.615C57.4417 106.517 56.9724 107.324 56.3784 108.035L55.4434 107.419C55.9274 106.766 56.3051 106.044 56.5764 105.252C56.8477 104.46 56.9834 103.613 56.9834 102.711Z" fill="#9CA3AF"/>
<path d="M4.145 47.711C4.145 48.613 4.28067 49.46 4.552 50.252C4.82333 51.044 5.201 51.7663 5.685 52.419L4.75 53.035C4.156 52.3237 3.68667 51.517 3.342 50.615C2.99733 49.7057 2.825 48.7377 2.825 47.711C2.825 46.6843 2.99733 45.72 3.342 44.818C3.68667 43.9087 4.156 43.0983 4.75 42.387L5.685 43.003C5.201 43.663 4.82333 44.389 4.552 45.181C4.28067 45.9657 4.145 46.809 4.145 47.711ZM6.69554 51V48.173H5.83754V47.469H6.69554V46.567H5.83754V45.863H6.69554V43.146H7.83954L8.88454 45.863H10.1825V43.146H11.0515V45.863H11.9095V46.567H11.0515V47.469H11.9095V48.173H11.0515V51H9.89654L8.85154 48.173H7.55354V51H6.69554ZM7.55354 47.469H8.58754L8.25754 46.567H7.53154L7.55354 47.469ZM10.1825 49.449H10.2265L10.1935 48.173H9.73154L10.1825 49.449ZM7.53154 45.863H7.99354L7.53154 44.499H7.48754L7.53154 45.863ZM9.46754 47.469H10.2045L10.1825 46.567H9.13754L9.46754 47.469ZM13.0125 44.961C13.4378 44.7923 13.8631 44.576 14.2885 44.312C14.7211 44.048 15.1025 43.7363 15.4325 43.377H16.3675V51H15.0365V45.159C14.8385 45.313 14.5891 45.4633 14.2885 45.61C13.9878 45.7567 13.6981 45.8777 13.4195 45.973L13.0125 44.961ZM24.0494 47.183C24.0494 48.4663 23.8147 49.4527 23.3454 50.142C22.8761 50.824 22.2271 51.165 21.3984 51.165C20.5697 51.165 19.9207 50.824 19.4514 50.142C18.9821 49.4527 18.7474 48.4663 18.7474 47.183C18.7474 46.545 18.8061 45.9803 18.9234 45.489C19.0481 44.9903 19.2241 44.5723 19.4514 44.235C19.6861 43.8977 19.9647 43.641 20.2874 43.465C20.6174 43.289 20.9877 43.201 21.3984 43.201C22.2271 43.201 22.8761 43.5457 23.3454 44.235C23.8147 44.917 24.0494 45.8997 24.0494 47.183ZM22.6744 47.183C22.6744 46.787 22.6524 46.4167 22.6084 46.072C22.5644 45.7273 22.4911 45.4303 22.3884 45.181C22.2931 44.9243 22.1647 44.7227 22.0034 44.576C21.8421 44.4293 21.6404 44.356 21.3984 44.356C21.1564 44.356 20.9511 44.4293 20.7824 44.576C20.6211 44.7227 20.4891 44.9243 20.3864 45.181C20.2911 45.4303 20.2214 45.7273 20.1774 46.072C20.1407 46.4167 20.1224 46.787 20.1224 47.183C20.1224 47.579 20.1407 47.9493 20.1774 48.294C20.2214 48.6387 20.2911 48.9393 20.3864 49.196C20.4891 49.4453 20.6211 49.6433 20.7824 49.79C20.9511 49.9367 21.1564 50.01 21.3984 50.01C21.6404 50.01 21.8421 49.9367 22.0034 49.79C22.1647 49.6433 22.2931 49.4453 22.3884 49.196C22.4911 48.9393 22.5644 48.6387 22.6084 48.294C22.6524 47.9493 22.6744 47.579 22.6744 47.183ZM26.7484 49.537C26.763 49.6617 26.7704 49.7533 26.7704 49.812C26.7704 49.8707 26.7704 49.9293 26.7704 49.988C26.7704 50.4427 26.697 50.912 26.5504 51.396C26.411 51.88 26.213 52.3383 25.9564 52.771L24.9114 52.485C25.0874 52.0597 25.2047 51.6417 25.2634 51.231C25.3294 50.8277 25.3624 50.472 25.3624 50.164C25.3624 50.076 25.3587 49.966 25.3514 49.834C25.3514 49.702 25.3477 49.603 25.3404 49.537H26.7484ZM33.2447 47.183C33.2447 48.4663 33.0101 49.4527 32.5407 50.142C32.0714 50.824 31.4224 51.165 30.5937 51.165C29.7651 51.165 29.1161 50.824 28.6467 50.142C28.1774 49.4527 27.9427 48.4663 27.9427 47.183C27.9427 46.545 28.0014 45.9803 28.1187 45.489C28.2434 44.9903 28.4194 44.5723 28.6467 44.235C28.8814 43.8977 29.1601 43.641 29.4827 43.465C29.8127 43.289 30.1831 43.201 30.5937 43.201C31.4224 43.201 32.0714 43.5457 32.5407 44.235C33.0101 44.917 33.2447 45.8997 33.2447 47.183ZM31.8697 47.183C31.8697 46.787 31.8477 46.4167 31.8037 46.072C31.7597 45.7273 31.6864 45.4303 31.5837 45.181C31.4884 44.9243 31.3601 44.7227 31.1987 44.576C31.0374 44.4293 30.8357 44.356 30.5937 44.356C30.3517 44.356 30.1464 44.4293 29.9777 44.576C29.8164 44.7227 29.6844 44.9243 29.5817 45.181C29.4864 45.4303 29.4167 45.7273 29.3727 46.072C29.3361 46.4167 29.3177 46.787 29.3177 47.183C29.3177 47.579 29.3361 47.9493 29.3727 48.294C29.4167 48.6387 29.4864 48.9393 29.5817 49.196C29.6844 49.4453 29.8164 49.6433 29.9777 49.79C30.1464 49.9367 30.3517 50.01 30.5937 50.01C30.8357 50.01 31.0374 49.9367 31.1987 49.79C31.3601 49.6433 31.4884 49.4453 31.5837 49.196C31.6864 48.9393 31.7597 48.6387 31.8037 48.294C31.8477 47.9493 31.8697 47.579 31.8697 47.183ZM39.4967 47.183C39.4967 48.4663 39.262 49.4527 38.7927 50.142C38.3233 50.824 37.6743 51.165 36.8457 51.165C36.017 51.165 35.368 50.824 34.8987 50.142C34.4293 49.4527 34.1947 48.4663 34.1947 47.183C34.1947 46.545 34.2533 45.9803 34.3707 45.489C34.4953 44.9903 34.6713 44.5723 34.8987 44.235C35.1333 43.8977 35.412 43.641 35.7347 43.465C36.0647 43.289 36.435 43.201 36.8457 43.201C37.6743 43.201 38.3233 43.5457 38.7927 44.235C39.262 44.917 39.4967 45.8997 39.4967 47.183ZM38.1217 47.183C38.1217 46.787 38.0997 46.4167 38.0557 46.072C38.0117 45.7273 37.9383 45.4303 37.8357 45.181C37.7403 44.9243 37.612 44.7227 37.4507 44.576C37.2893 44.4293 37.0877 44.356 36.8457 44.356C36.6037 44.356 36.3983 44.4293 36.2297 44.576C36.0683 44.7227 35.9363 44.9243 35.8337 45.181C35.7383 45.4303 35.6687 45.7273 35.6247 46.072C35.588 46.4167 35.5697 46.787 35.5697 47.183C35.5697 47.579 35.588 47.9493 35.6247 48.294C35.6687 48.6387 35.7383 48.9393 35.8337 49.196C35.9363 49.4453 36.0683 49.6433 36.2297 49.79C36.3983 49.9367 36.6037 50.01 36.8457 50.01C37.0877 50.01 37.2893 49.9367 37.4507 49.79C37.612 49.6433 37.7403 49.4453 37.8357 49.196C37.9383 48.9393 38.0117 48.6387 38.0557 48.294C38.0997 47.9493 38.1217 47.579 38.1217 47.183ZM45.7486 47.183C45.7486 48.4663 45.514 49.4527 45.0446 50.142C44.5753 50.824 43.9263 51.165 43.0976 51.165C42.269 51.165 41.62 50.824 41.1506 50.142C40.6813 49.4527 40.4466 48.4663 40.4466 47.183C40.4466 46.545 40.5053 45.9803 40.6226 45.489C40.7473 44.9903 40.9233 44.5723 41.1506 44.235C41.3853 43.8977 41.664 43.641 41.9866 43.465C42.3166 43.289 42.687 43.201 43.0976 43.201C43.9263 43.201 44.5753 43.5457 45.0446 44.235C45.514 44.917 45.7486 45.8997 45.7486 47.183ZM44.3736 47.183C44.3736 46.787 44.3516 46.4167 44.3076 46.072C44.2636 45.7273 44.1903 45.4303 44.0876 45.181C43.9923 44.9243 43.864 44.7227 43.7026 44.576C43.5413 44.4293 43.3396 44.356 43.0976 44.356C42.8556 44.356 42.6503 44.4293 42.4816 44.576C42.3203 44.7227 42.1883 44.9243 42.0856 45.181C41.9903 45.4303 41.9206 45.7273 41.8766 46.072C41.84 46.4167 41.8216 46.787 41.8216 47.183C41.8216 47.579 41.84 47.9493 41.8766 48.294C41.9206 48.6387 41.9903 48.9393 42.0856 49.196C42.1883 49.4453 42.3203 49.6433 42.4816 49.79C42.6503 49.9367 42.8556 50.01 43.0976 50.01C43.3396 50.01 43.5413 49.9367 43.7026 49.79C43.864 49.6433 43.9923 49.4453 44.0876 49.196C44.1903 48.9393 44.2636 48.6387 44.3076 48.294C44.3516 47.9493 44.3736 47.579 44.3736 47.183ZM48.5686 50.274C48.5686 50.5307 48.4806 50.7397 48.3046 50.901C48.1359 51.0623 47.9306 51.143 47.6886 51.143C47.4393 51.143 47.2303 51.0623 47.0616 50.901C46.8929 50.7397 46.8086 50.5307 46.8086 50.274C46.8086 50.0173 46.8929 49.8083 47.0616 49.647C47.2303 49.4783 47.4393 49.394 47.6886 49.394C47.9306 49.394 48.1359 49.4783 48.3046 49.647C48.4806 49.8083 48.5686 50.0173 48.5686 50.274ZM54.9225 47.183C54.9225 48.4663 54.6878 49.4527 54.2185 50.142C53.7491 50.824 53.1001 51.165 52.2715 51.165C51.4428 51.165 50.7938 50.824 50.3245 50.142C49.8551 49.4527 49.6205 48.4663 49.6205 47.183C49.6205 46.545 49.6791 45.9803 49.7965 45.489C49.9211 44.9903 50.0971 44.5723 50.3245 44.235C50.5591 43.8977 50.8378 43.641 51.1605 43.465C51.4905 43.289 51.8608 43.201 52.2715 43.201C53.1001 43.201 53.7491 43.5457 54.2185 44.235C54.6878 44.917 54.9225 45.8997 54.9225 47.183ZM53.5475 47.183C53.5475 46.787 53.5255 46.4167 53.4815 46.072C53.4375 45.7273 53.3641 45.4303 53.2615 45.181C53.1661 44.9243 53.0378 44.7227 52.8765 44.576C52.7151 44.4293 52.5135 44.356 52.2715 44.356C52.0295 44.356 51.8241 44.4293 51.6555 44.576C51.4941 44.7227 51.3621 44.9243 51.2595 45.181C51.1641 45.4303 51.0945 45.7273 51.0505 46.072C51.0138 46.4167 50.9955 46.787 50.9955 47.183C50.9955 47.579 51.0138 47.9493 51.0505 48.294C51.0945 48.6387 51.1641 48.9393 51.2595 49.196C51.3621 49.4453 51.4941 49.6433 51.6555 49.79C51.8241 49.9367 52.0295 50.01 52.2715 50.01C52.5135 50.01 52.7151 49.9367 52.8765 49.79C53.0378 49.6433 53.1661 49.4453 53.2615 49.196C53.3641 48.9393 53.4375 48.6387 53.4815 48.294C53.5255 47.9493 53.5475 47.579 53.5475 47.183ZM61.1744 47.183C61.1744 48.4663 60.9397 49.4527 60.4704 50.142C60.0011 50.824 59.3521 51.165 58.5234 51.165C57.6947 51.165 57.0457 50.824 56.5764 50.142C56.1071 49.4527 55.8724 48.4663 55.8724 47.183C55.8724 46.545 55.9311 45.9803 56.0484 45.489C56.1731 44.9903 56.3491 44.5723 56.5764 44.235C56.8111 43.8977 57.0897 43.641 57.4124 43.465C57.7424 43.289 58.1127 43.201 58.5234 43.201C59.3521 43.201 60.0011 43.5457 60.4704 44.235C60.9397 44.917 61.1744 45.8997 61.1744 47.183ZM59.7994 47.183C59.7994 46.787 59.7774 46.4167 59.7334 46.072C59.6894 45.7273 59.6161 45.4303 59.5134 45.181C59.4181 44.9243 59.2897 44.7227 59.1284 44.576C58.9671 44.4293 58.7654 44.356 58.5234 44.356C58.2814 44.356 58.0761 44.4293 57.9074 44.576C57.7461 44.7227 57.6141 44.9243 57.5114 45.181C57.4161 45.4303 57.3464 45.7273 57.3024 46.072C57.2657 46.4167 57.2474 46.787 57.2474 47.183C57.2474 47.579 57.2657 47.9493 57.3024 48.294C57.3464 48.6387 57.4161 48.9393 57.5114 49.196C57.6141 49.4453 57.7461 49.6433 57.9074 49.79C58.0761 49.9367 58.2814 50.01 58.5234 50.01C58.7654 50.01 58.9671 49.9367 59.1284 49.79C59.2897 49.6433 59.4181 49.4453 59.5134 49.196C59.6161 48.9393 59.6894 48.6387 59.7334 48.294C59.7774 47.9493 59.7994 47.579 59.7994 47.183ZM63.2354 47.711C63.2354 46.809 63.0997 45.9657 62.8284 45.181C62.557 44.389 62.1794 43.663 61.6954 43.003L62.6304 42.387C63.2244 43.0983 63.6937 43.9087 64.0384 44.818C64.383 45.72 64.5554 46.6843 64.5554 47.711C64.5554 48.7377 64.383 49.7057 64.0384 50.615C63.6937 51.517 63.2244 52.3237 62.6304 53.035L61.6954 52.419C62.1794 51.7663 62.557 51.044 62.8284 50.252C63.0997 49.46 63.2354 48.613 63.2354 47.711Z" fill="#9CA3AF"/>
<path d="M66.5164 233.961C66.9417 233.792 67.367 233.576 67.7924 233.312C68.225 233.048 68.6064 232.736 68.9364 232.377H69.8714V240H68.5404V234.159C68.3424 234.313 68.093 234.463 67.7924 234.61C67.4917 234.757 67.202 234.878 66.9234 234.973L66.5164 233.961ZM74.3523 232.377C74.5137 232.656 74.6933 232.997 74.8913 233.4C75.0893 233.803 75.291 234.229 75.4963 234.676C75.7017 235.116 75.9033 235.567 76.1013 236.029C76.3067 236.484 76.4937 236.905 76.6623 237.294C76.831 236.905 77.0143 236.484 77.2123 236.029C77.4103 235.567 77.612 235.116 77.8173 234.676C78.0227 234.229 78.2243 233.803 78.4223 233.4C78.6203 232.997 78.8 232.656 78.9613 232.377H80.2153C80.2813 232.934 80.3437 233.528 80.4023 234.159C80.461 234.782 80.5123 235.424 80.5563 236.084C80.6077 236.737 80.6517 237.397 80.6883 238.064C80.7323 238.724 80.769 239.369 80.7983 240H79.4343C79.405 239.113 79.3683 238.2 79.3243 237.261C79.2877 236.322 79.229 235.413 79.1483 234.533C79.0677 234.702 78.9723 234.903 78.8623 235.138C78.7523 235.373 78.635 235.629 78.5103 235.908C78.3857 236.179 78.2573 236.462 78.1253 236.755C78.0007 237.048 77.876 237.334 77.7513 237.613C77.634 237.884 77.524 238.141 77.4213 238.383C77.3187 238.618 77.2307 238.819 77.1573 238.988H76.1233C76.05 238.819 75.962 238.614 75.8593 238.372C75.7567 238.13 75.643 237.873 75.5183 237.602C75.401 237.323 75.2763 237.037 75.1443 236.744C75.0197 236.451 74.895 236.168 74.7703 235.897C74.6457 235.626 74.5283 235.373 74.4183 235.138C74.3083 234.896 74.213 234.694 74.1323 234.533C74.0517 235.413 73.9893 236.322 73.9453 237.261C73.9087 238.2 73.8757 239.113 73.8463 240H72.4823C72.5117 239.369 72.5447 238.717 72.5813 238.042C72.6253 237.367 72.6693 236.7 72.7133 236.04C72.7647 235.373 72.8197 234.727 72.8783 234.104C72.937 233.481 72.9993 232.905 73.0653 232.377H74.3523Z" fill="#9CA3AF"/>
<path d="M164.66 240.165C164.462 240.165 164.257 240.15 164.044 240.121C163.839 240.099 163.641 240.066 163.45 240.022C163.267 239.985 163.098 239.945 162.944 239.901C162.79 239.85 162.673 239.802 162.592 239.758L162.856 238.625C163.01 238.698 163.234 238.783 163.527 238.878C163.821 238.966 164.184 239.01 164.616 239.01C165.196 239.01 165.614 238.9 165.87 238.68C166.127 238.453 166.255 238.152 166.255 237.778C166.255 237.536 166.204 237.334 166.101 237.173C166.006 237.012 165.87 236.883 165.694 236.788C165.526 236.685 165.328 236.616 165.1 236.579C164.88 236.535 164.646 236.513 164.396 236.513H163.945V235.435H164.495C164.664 235.435 164.833 235.42 165.001 235.391C165.177 235.354 165.335 235.296 165.474 235.215C165.614 235.127 165.727 235.013 165.815 234.874C165.903 234.735 165.947 234.555 165.947 234.335C165.947 234.159 165.914 234.009 165.848 233.884C165.782 233.759 165.694 233.657 165.584 233.576C165.482 233.495 165.361 233.437 165.221 233.4C165.082 233.363 164.935 233.345 164.781 233.345C164.451 233.345 164.158 233.396 163.901 233.499C163.645 233.594 163.417 233.704 163.219 233.829L162.735 232.839C162.838 232.773 162.963 232.703 163.109 232.63C163.256 232.557 163.417 232.487 163.593 232.421C163.777 232.355 163.971 232.304 164.176 232.267C164.382 232.223 164.598 232.201 164.825 232.201C165.251 232.201 165.617 232.252 165.925 232.355C166.233 232.458 166.486 232.604 166.684 232.795C166.89 232.978 167.04 233.198 167.135 233.455C167.238 233.704 167.289 233.979 167.289 234.28C167.289 234.632 167.19 234.947 166.992 235.226C166.802 235.505 166.552 235.717 166.244 235.864C166.64 236.003 166.967 236.234 167.223 236.557C167.487 236.88 167.619 237.294 167.619 237.8C167.619 238.137 167.561 238.453 167.443 238.746C167.326 239.032 167.146 239.281 166.904 239.494C166.662 239.699 166.354 239.864 165.98 239.989C165.614 240.106 165.174 240.165 164.66 240.165ZM170.89 232.377C171.052 232.656 171.231 232.997 171.429 233.4C171.627 233.803 171.829 234.229 172.034 234.676C172.24 235.116 172.441 235.567 172.639 236.029C172.845 236.484 173.032 236.905 173.2 237.294C173.369 236.905 173.552 236.484 173.75 236.029C173.948 235.567 174.15 235.116 174.355 234.676C174.561 234.229 174.762 233.803 174.96 233.4C175.158 232.997 175.338 232.656 175.499 232.377H176.753C176.819 232.934 176.882 233.528 176.94 234.159C176.999 234.782 177.05 235.424 177.094 236.084C177.146 236.737 177.19 237.397 177.226 238.064C177.27 238.724 177.307 239.369 177.336 240H175.972C175.943 239.113 175.906 238.2 175.862 237.261C175.826 236.322 175.767 235.413 175.686 234.533C175.606 234.702 175.51 234.903 175.4 235.138C175.29 235.373 175.173 235.629 175.048 235.908C174.924 236.179 174.795 236.462 174.663 236.755C174.539 237.048 174.414 237.334 174.289 237.613C174.172 237.884 174.062 238.141 173.959 238.383C173.857 238.618 173.769 238.819 173.695 238.988H172.661C172.588 238.819 172.5 238.614 172.397 238.372C172.295 238.13 172.181 237.873 172.056 237.602C171.939 237.323 171.814 237.037 171.682 236.744C171.558 236.451 171.433 236.168 171.308 235.897C171.184 235.626 171.066 235.373 170.956 235.138C170.846 234.896 170.751 234.694 170.67 234.533C170.59 235.413 170.527 236.322 170.483 237.261C170.447 238.2 170.414 239.113 170.384 240H169.02C169.05 239.369 169.083 238.717 169.119 238.042C169.163 237.367 169.207 236.7 169.251 236.04C169.303 235.373 169.358 234.727 169.416 234.104C169.475 233.481 169.537 232.905 169.603 232.377H170.89Z" fill="#9CA3AF"/>
<path d="M260.628 236.293C260.415 236.293 260.21 236.311 260.012 236.348C259.814 236.385 259.634 236.44 259.473 236.513C259.465 236.572 259.458 236.638 259.451 236.711C259.451 236.777 259.451 236.843 259.451 236.909C259.451 237.202 259.469 237.481 259.506 237.745C259.55 238.002 259.619 238.229 259.715 238.427C259.817 238.618 259.953 238.772 260.122 238.889C260.298 238.999 260.514 239.054 260.771 239.054C260.983 239.054 261.163 239.01 261.31 238.922C261.464 238.834 261.588 238.72 261.684 238.581C261.779 238.442 261.849 238.291 261.893 238.13C261.937 237.961 261.959 237.8 261.959 237.646C261.959 237.206 261.852 236.872 261.64 236.645C261.427 236.41 261.09 236.293 260.628 236.293ZM260.793 235.237C261.247 235.237 261.632 235.303 261.948 235.435C262.27 235.56 262.531 235.732 262.729 235.952C262.927 236.172 263.07 236.429 263.158 236.722C263.253 237.008 263.301 237.309 263.301 237.624C263.301 237.91 263.249 238.203 263.147 238.504C263.051 238.805 262.897 239.08 262.685 239.329C262.479 239.571 262.219 239.773 261.904 239.934C261.588 240.088 261.214 240.165 260.782 240.165C259.909 240.165 259.242 239.879 258.78 239.307C258.325 238.728 258.098 237.932 258.098 236.92C258.098 236.187 258.204 235.538 258.417 234.973C258.637 234.401 258.945 233.921 259.341 233.532C259.744 233.143 260.228 232.85 260.793 232.652C261.365 232.447 262.006 232.34 262.718 232.333L262.795 233.433C262.399 233.44 262.028 233.484 261.684 233.565C261.339 233.638 261.031 233.756 260.76 233.917C260.488 234.078 260.254 234.287 260.056 234.544C259.865 234.801 259.718 235.116 259.616 235.49C259.975 235.321 260.367 235.237 260.793 235.237ZM266.351 232.377C266.513 232.656 266.692 232.997 266.89 233.4C267.088 233.803 267.29 234.229 267.495 234.676C267.701 235.116 267.902 235.567 268.1 236.029C268.306 236.484 268.493 236.905 268.661 237.294C268.83 236.905 269.013 236.484 269.211 236.029C269.409 235.567 269.611 235.116 269.816 234.676C270.022 234.229 270.223 233.803 270.421 233.4C270.619 232.997 270.799 232.656 270.96 232.377H272.214C272.28 232.934 272.343 233.528 272.401 234.159C272.46 234.782 272.511 235.424 272.555 236.084C272.607 236.737 272.651 237.397 272.687 238.064C272.731 238.724 272.768 239.369 272.797 240H271.433C271.404 239.113 271.367 238.2 271.323 237.261C271.287 236.322 271.228 235.413 271.147 234.533C271.067 234.702 270.971 234.903 270.861 235.138C270.751 235.373 270.634 235.629 270.509 235.908C270.385 236.179 270.256 236.462 270.124 236.755C270 237.048 269.875 237.334 269.75 237.613C269.633 237.884 269.523 238.141 269.42 238.383C269.318 238.618 269.23 238.819 269.156 238.988H268.122C268.049 238.819 267.961 238.614 267.858 238.372C267.756 238.13 267.642 237.873 267.517 237.602C267.4 237.323 267.275 237.037 267.143 236.744C267.019 236.451 266.894 236.168 266.769 235.897C266.645 235.626 266.527 235.373 266.417 235.138C266.307 234.896 266.212 234.694 266.131 234.533C266.051 235.413 265.988 236.322 265.944 237.261C265.908 238.2 265.875 239.113 265.845 240H264.481C264.511 239.369 264.544 238.717 264.58 238.042C264.624 237.367 264.668 236.7 264.712 236.04C264.764 235.373 264.819 234.727 264.877 234.104C264.936 233.481 264.998 232.905 265.064 232.377H266.351Z" fill="#9CA3AF"/>
<path d="M353.598 233.961C354.023 233.792 354.448 233.576 354.874 233.312C355.306 233.048 355.688 232.736 356.018 232.377H356.953V240H355.622V234.159C355.424 234.313 355.174 234.463 354.874 234.61C354.573 234.757 354.283 234.878 354.005 234.973L353.598 233.961ZM362.336 235.754C362.666 235.204 362.988 234.647 363.304 234.082C363.619 233.517 363.905 232.949 364.162 232.377H365.702C365.291 233.154 364.862 233.928 364.415 234.698C363.975 235.461 363.502 236.231 362.996 237.008V240H361.61V237.03C361.104 236.245 360.627 235.468 360.18 234.698C359.732 233.928 359.303 233.154 358.893 232.377H360.521C360.777 232.949 361.06 233.517 361.368 234.082C361.676 234.647 361.998 235.204 362.336 235.754Z" fill="#9CA3AF"/>
<path d="M452.201 240C452.099 239.699 451.992 239.402 451.882 239.109C451.772 238.816 451.666 238.515 451.563 238.207H448.351C448.249 238.515 448.142 238.819 448.032 239.12C447.93 239.413 447.827 239.707 447.724 240H446.283C446.569 239.186 446.841 238.434 447.097 237.745C447.354 237.056 447.603 236.403 447.845 235.787C448.095 235.171 448.34 234.584 448.582 234.027C448.824 233.47 449.074 232.92 449.33 232.377H450.639C450.896 232.92 451.145 233.47 451.387 234.027C451.629 234.584 451.871 235.171 452.113 235.787C452.363 236.403 452.616 237.056 452.872 237.745C453.136 238.434 453.411 239.186 453.697 240H452.201ZM449.957 233.851C449.789 234.24 449.594 234.713 449.374 235.27C449.162 235.827 448.938 236.432 448.703 237.085H451.211C450.977 236.432 450.749 235.824 450.529 235.259C450.309 234.694 450.119 234.225 449.957 233.851ZM459.479 238.801V240H454.661V232.377H456.047V238.801H459.479ZM465.355 238.801V240H460.537V232.377H461.923V238.801H465.355Z" fill="#9CA3AF"/>
<path d="M466 220H68" stroke="#E5E7EB"/>
<path d="M466 162H68" stroke="#E5E7EB"/>
<path d="M466 104H68" stroke="#E5E7EB"/>
<path d="M466 46H68" stroke="#E5E7EB"/>
<path d="M68.5 166.814L92.0289 114.211C92.3783 113.43 93.4836 113.42 93.847 114.195L98.4367 123.977C98.7696 124.687 99.7521 124.755 100.18 124.099L107.089 113.496C107.482 112.893 108.364 112.89 108.761 113.491L127.562 141.965C127.882 142.45 128.546 142.561 129.007 142.207L142.164 132.086C142.539 131.797 143.064 131.811 143.423 132.118L146.392 134.654C146.879 135.07 147.626 134.927 147.925 134.361L155.433 120.148C155.606 119.82 155.946 119.615 156.317 119.615H162.331C162.756 119.615 163.135 119.347 163.275 118.946L187.961 48.552C188.268 47.6758 189.5 47.655 189.837 48.5203L192.445 55.225C192.595 55.6092 192.965 55.8623 193.377 55.8623H206.117C206.62 55.8623 207.045 56.2356 207.109 56.7342L212.048 94.9671C212.137 95.6512 212.875 96.0425 213.491 95.7316L223.478 90.6896C223.847 90.5034 224.293 90.5632 224.599 90.8403L229.806 95.5439C230.277 95.9691 231.019 95.8542 231.34 95.3066L247.293 68.0218C247.578 67.5354 248.208 67.3799 248.686 67.6781L259.13 74.191C259.461 74.3978 259.883 74.3925 260.209 74.1773L276.274 63.5851C276.578 63.3841 276.969 63.3653 277.292 63.536L283.762 66.958C283.976 67.0712 284.224 67.1029 284.46 67.0472L299.26 63.5498C299.888 63.4014 300.49 63.8777 300.49 64.523V95.0422C300.49 95.7068 301.126 96.1864 301.765 96.0037L320.147 90.7453C320.786 90.5626 321.422 91.0422 321.422 91.7068V96.3684V104.427C321.422 105.331 322.526 105.771 323.147 105.116L335.895 91.6731C336.432 91.1067 337.382 91.3465 337.586 92.1L355.41 157.974C355.528 158.41 355.924 158.713 356.375 158.713H361.036C361.353 158.713 361.652 158.863 361.84 159.119L375.024 176.975C375.428 177.523 376.249 177.516 376.643 176.961L383.381 167.497C383.662 167.102 384.187 166.965 384.625 167.174L406.678 177.652C407.18 177.891 407.78 177.674 408.014 177.17L412.554 167.393C412.718 167.04 413.072 166.814 413.461 166.814H424.599C425.058 166.814 425.459 166.5 425.569 166.054L430.651 145.531C430.876 144.624 432.11 144.493 432.52 145.332L445.254 171.359C445.464 171.788 445.948 172.009 446.409 171.886L465.5 166.814" stroke="#0D9488"/>
<path d="M92.92 112.219L68.5 166.814V220H465.5V166.814L445.615 172.097L431.312 142.862L425.381 166.814H412.822L407.59 178.085L383.867 166.814L375.844 178.085L361.54 158.713H355.61L337.12 90.3806L321.422 106.935V96.3684V90.3806L300.49 96.3684V63.2591L284.094 67.1336L276.768 63.2591L259.674 74.5304L247.813 67.1336L230.719 96.3684L224.091 90.3806L212.229 96.3684L206.996 55.8623H192.693L188.856 46L163.04 119.615H155.714L147.342 135.466L142.807 131.591L128.155 142.862L107.921 112.219L99.1995 125.603L92.92 112.219Z" fill="url(#paint0_linear_4663_85187)" fill-opacity="0.2"/>
</g>
<path d="M3.16 11.14C3.46 10.64 3.75333 10.1333 4.04 9.62C4.32667 9.10667 4.58667 8.59 4.82 8.07H6.22C5.84667 8.77667 5.45667 9.48 5.05 10.18C4.65 10.8733 4.22 11.5733 3.76 12.28V15H2.5V12.3C2.04 11.5867 1.60667 10.88 1.2 10.18C0.793333 9.48 0.403333 8.77667 0.03 8.07H1.51C1.74333 8.59 2 9.10667 2.28 9.62C2.56 10.1333 2.85333 10.64 3.16 11.14ZM11.2422 12.38C11.2422 12.7933 11.1822 13.17 11.0622 13.51C10.9422 13.85 10.7722 14.14 10.5522 14.38C10.3322 14.62 10.0655 14.8067 9.75219 14.94C9.44552 15.0733 9.10552 15.14 8.73219 15.14C8.35885 15.14 8.01885 15.0733 7.71219 14.94C7.40552 14.8067 7.14219 14.62 6.92219 14.38C6.70219 14.14 6.52885 13.85 6.40219 13.51C6.28219 13.17 6.22219 12.7933 6.22219 12.38C6.22219 11.9667 6.28219 11.5933 6.40219 11.26C6.52885 10.92 6.70219 10.63 6.92219 10.39C7.14885 10.15 7.41552 9.96667 7.72219 9.84C8.02885 9.70667 8.36552 9.64 8.73219 9.64C9.09885 9.64 9.43552 9.70667 9.74219 9.84C10.0555 9.96667 10.3222 10.15 10.5422 10.39C10.7622 10.63 10.9322 10.92 11.0522 11.26C11.1789 11.5933 11.2422 11.9667 11.2422 12.38ZM10.0022 12.38C10.0022 11.86 9.88885 11.45 9.66219 11.15C9.44219 10.8433 9.13219 10.69 8.73219 10.69C8.33219 10.69 8.01885 10.8433 7.79219 11.15C7.57219 11.45 7.46219 11.86 7.46219 12.38C7.46219 12.9067 7.57219 13.3233 7.79219 13.63C8.01885 13.9367 8.33219 14.09 8.73219 14.09C9.13219 14.09 9.44219 13.9367 9.66219 13.63C9.88885 13.3233 10.0022 12.9067 10.0022 12.38ZM16.7788 14.84C16.5454 14.9 16.2421 14.96 15.8688 15.02C15.4954 15.0867 15.0854 15.12 14.6388 15.12C14.2188 15.12 13.8654 15.06 13.5788 14.94C13.2988 14.82 13.0721 14.6533 12.8988 14.44C12.7321 14.2267 12.6121 13.9733 12.5388 13.68C12.4654 13.38 12.4288 13.0533 12.4288 12.7V9.77H13.6388V12.51C13.6388 13.07 13.7188 13.47 13.8788 13.71C14.0454 13.95 14.3321 14.07 14.7388 14.07C14.8854 14.07 15.0388 14.0633 15.1988 14.05C15.3654 14.0367 15.4888 14.02 15.5688 14V9.77H16.7788V14.84ZM21.2988 10.86C21.1988 10.8267 21.0588 10.7933 20.8788 10.76C20.7055 10.72 20.5022 10.7 20.2688 10.7C20.1355 10.7 19.9922 10.7133 19.8388 10.74C19.6922 10.7667 19.5888 10.79 19.5288 10.81V15H18.3188V10.02C18.5522 9.93333 18.8422 9.85333 19.1888 9.78C19.5422 9.7 19.9322 9.66 20.3588 9.66C20.4388 9.66 20.5322 9.66667 20.6388 9.68C20.7455 9.68667 20.8522 9.7 20.9588 9.72C21.0655 9.73333 21.1688 9.75333 21.2688 9.78C21.3688 9.8 21.4488 9.82 21.5088 9.84L21.2988 10.86ZM28.156 12.41C28.156 11.87 28.0327 11.45 27.786 11.15C27.546 10.85 27.156 10.7 26.616 10.7C26.5027 10.7 26.3827 10.7067 26.256 10.72C26.136 10.7267 26.016 10.7467 25.896 10.78V13.77C26.0027 13.8433 26.1427 13.9133 26.316 13.98C26.496 14.04 26.686 14.07 26.886 14.07C27.326 14.07 27.646 13.92 27.846 13.62C28.0527 13.32 28.156 12.9167 28.156 12.41ZM29.396 12.39C29.396 12.79 29.3427 13.1567 29.236 13.49C29.136 13.8233 28.9893 14.11 28.796 14.35C28.6027 14.59 28.3593 14.7767 28.066 14.91C27.7793 15.0433 27.4527 15.11 27.086 15.11C26.8393 15.11 26.6127 15.08 26.406 15.02C26.1993 14.96 26.0293 14.8933 25.896 14.82V16.85H24.686V9.94C24.9327 9.87333 25.236 9.81 25.596 9.75C25.956 9.69 26.336 9.66 26.736 9.66C27.1493 9.66 27.5193 9.72333 27.846 9.85C28.1727 9.97667 28.4493 10.16 28.676 10.4C28.9093 10.6333 29.086 10.92 29.206 11.26C29.3327 11.5933 29.396 11.97 29.396 12.39ZM35.373 12.38C35.373 12.7933 35.313 13.17 35.193 13.51C35.073 13.85 34.903 14.14 34.683 14.38C34.463 14.62 34.1964 14.8067 33.883 14.94C33.5764 15.0733 33.2364 15.14 32.863 15.14C32.4897 15.14 32.1497 15.0733 31.843 14.94C31.5364 14.8067 31.273 14.62 31.053 14.38C30.833 14.14 30.6597 13.85 30.533 13.51C30.413 13.17 30.353 12.7933 30.353 12.38C30.353 11.9667 30.413 11.5933 30.533 11.26C30.6597 10.92 30.833 10.63 31.053 10.39C31.2797 10.15 31.5464 9.96667 31.853 9.84C32.1597 9.70667 32.4964 9.64 32.863 9.64C33.2297 9.64 33.5664 9.70667 33.873 9.84C34.1864 9.96667 34.453 10.15 34.673 10.39C34.893 10.63 35.063 10.92 35.183 11.26C35.3097 11.5933 35.373 11.9667 35.373 12.38ZM34.133 12.38C34.133 11.86 34.0197 11.45 33.793 11.15C33.573 10.8433 33.263 10.69 32.863 10.69C32.463 10.69 32.1497 10.8433 31.923 11.15C31.703 11.45 31.593 11.86 31.593 12.38C31.593 12.9067 31.703 13.3233 31.923 13.63C32.1497 13.9367 32.463 14.09 32.863 14.09C33.263 14.09 33.573 13.9367 33.793 13.63C34.0197 13.3233 34.133 12.9067 34.133 12.38ZM39.5996 10.86C39.4996 10.8267 39.3596 10.7933 39.1796 10.76C39.0063 10.72 38.8029 10.7 38.5696 10.7C38.4363 10.7 38.2929 10.7133 38.1396 10.74C37.9929 10.7667 37.8896 10.79 37.8296 10.81V15H36.6196V10.02C36.8529 9.93333 37.1429 9.85333 37.4896 9.78C37.8429 9.7 38.2329 9.66 38.6596 9.66C38.7396 9.66 38.8329 9.66667 38.9396 9.68C39.0463 9.68667 39.1529 9.7 39.2596 9.72C39.3663 9.73333 39.4696 9.75333 39.5696 9.78C39.6696 9.8 39.7496 9.82 39.8096 9.84L39.5996 10.86ZM40.5928 8.39L41.8028 8.19V9.77H43.6628V10.78H41.8028V12.91C41.8028 13.33 41.8695 13.63 42.0028 13.81C42.1361 13.99 42.3628 14.08 42.6828 14.08C42.9028 14.08 43.0961 14.0567 43.2628 14.01C43.4361 13.9633 43.5728 13.92 43.6728 13.88L43.8728 14.84C43.7328 14.9 43.5495 14.96 43.3228 15.02C43.0961 15.0867 42.8295 15.12 42.5228 15.12C42.1495 15.12 41.8361 15.07 41.5828 14.97C41.3361 14.87 41.1395 14.7267 40.9928 14.54C40.8461 14.3467 40.7428 14.1167 40.6828 13.85C40.6228 13.5767 40.5928 13.2667 40.5928 12.92V8.39ZM46.9625 7.24C47.2425 7.24 47.4892 7.26667 47.7025 7.32C47.9158 7.36667 48.0758 7.41 48.1825 7.45L47.9525 8.45C47.8392 8.39667 47.7058 8.35333 47.5525 8.32C47.4058 8.28667 47.2458 8.27 47.0725 8.27C46.8792 8.27 46.7158 8.3 46.5825 8.36C46.4492 8.41333 46.3425 8.49 46.2625 8.59C46.1825 8.69 46.1258 8.81333 46.0925 8.96C46.0592 9.1 46.0425 9.25333 46.0425 9.42V9.77H47.9425V10.78H46.0425V15H44.8325V9.4C44.8325 8.72667 45.0092 8.2 45.3625 7.82C45.7158 7.43333 46.2492 7.24 46.9625 7.24ZM53.4688 12.38C53.4688 12.7933 53.4088 13.17 53.2888 13.51C53.1688 13.85 52.9988 14.14 52.7788 14.38C52.5588 14.62 52.2921 14.8067 51.9788 14.94C51.6721 15.0733 51.3321 15.14 50.9588 15.14C50.5854 15.14 50.2454 15.0733 49.9388 14.94C49.6321 14.8067 49.3688 14.62 49.1488 14.38C48.9288 14.14 48.7554 13.85 48.6287 13.51C48.5088 13.17 48.4488 12.7933 48.4488 12.38C48.4488 11.9667 48.5088 11.5933 48.6287 11.26C48.7554 10.92 48.9288 10.63 49.1488 10.39C49.3754 10.15 49.6421 9.96667 49.9488 9.84C50.2554 9.70667 50.5921 9.64 50.9588 9.64C51.3254 9.64 51.6621 9.70667 51.9688 9.84C52.2821 9.96667 52.5488 10.15 52.7688 10.39C52.9888 10.63 53.1588 10.92 53.2788 11.26C53.4054 11.5933 53.4688 11.9667 53.4688 12.38ZM52.2288 12.38C52.2288 11.86 52.1154 11.45 51.8888 11.15C51.6688 10.8433 51.3588 10.69 50.9588 10.69C50.5588 10.69 50.2454 10.8433 50.0188 11.15C49.7988 11.45 49.6888 11.86 49.6888 12.38C49.6888 12.9067 49.7988 13.3233 50.0188 13.63C50.2454 13.9367 50.5588 14.09 50.9588 14.09C51.3588 14.09 51.6688 13.9367 51.8888 13.63C52.1154 13.3233 52.2288 12.9067 52.2288 12.38ZM56.5353 15.1C56.1753 15.0933 55.8753 15.0533 55.6353 14.98C55.402 14.9067 55.2153 14.8033 55.0753 14.67C54.9353 14.53 54.8353 14.36 54.7753 14.16C54.722 13.9533 54.6953 13.72 54.6953 13.46V7.44L55.9053 7.24V13.23C55.9053 13.3767 55.9153 13.5 55.9353 13.6C55.962 13.7 56.0053 13.7867 56.0653 13.86C56.1253 13.9267 56.2053 13.98 56.3053 14.02C56.412 14.0533 56.5453 14.08 56.7053 14.1L56.5353 15.1ZM58.9041 15H57.6941V9.77H58.9041V15ZM59.0341 8.24C59.0341 8.46667 58.9607 8.64667 58.8141 8.78C58.6674 8.91333 58.4941 8.98 58.2941 8.98C58.0874 8.98 57.9107 8.91333 57.7641 8.78C57.6174 8.64667 57.5441 8.46667 57.5441 8.24C57.5441 8.00667 57.6174 7.82333 57.7641 7.69C57.9107 7.55667 58.0874 7.49 58.2941 7.49C58.4941 7.49 58.6674 7.55667 58.8141 7.69C58.9607 7.82333 59.0341 8.00667 59.0341 8.24ZM65.1777 12.38C65.1777 12.7933 65.1177 13.17 64.9977 13.51C64.8777 13.85 64.7077 14.14 64.4877 14.38C64.2677 14.62 64.0011 14.8067 63.6877 14.94C63.3811 15.0733 63.0411 15.14 62.6677 15.14C62.2944 15.14 61.9544 15.0733 61.6477 14.94C61.3411 14.8067 61.0777 14.62 60.8577 14.38C60.6377 14.14 60.4644 13.85 60.3377 13.51C60.2177 13.17 60.1577 12.7933 60.1577 12.38C60.1577 11.9667 60.2177 11.5933 60.3377 11.26C60.4644 10.92 60.6377 10.63 60.8577 10.39C61.0844 10.15 61.3511 9.96667 61.6577 9.84C61.9644 9.70667 62.3011 9.64 62.6677 9.64C63.0344 9.64 63.3711 9.70667 63.6777 9.84C63.9911 9.96667 64.2577 10.15 64.4777 10.39C64.6977 10.63 64.8677 10.92 64.9877 11.26C65.1144 11.5933 65.1777 11.9667 65.1777 12.38ZM63.9377 12.38C63.9377 11.86 63.8244 11.45 63.5977 11.15C63.3777 10.8433 63.0677 10.69 62.6677 10.69C62.2677 10.69 61.9544 10.8433 61.7277 11.15C61.5077 11.45 61.3977 11.86 61.3977 12.38C61.3977 12.9067 61.5077 13.3233 61.7277 13.63C61.9544 13.9367 62.2677 14.09 62.6677 14.09C63.0677 14.09 63.3777 13.9367 63.5977 13.63C63.8244 13.3233 63.9377 12.9067 63.9377 12.38ZM72.2283 12.41C72.2283 11.87 72.1049 11.45 71.8583 11.15C71.6183 10.85 71.2283 10.7 70.6883 10.7C70.5749 10.7 70.4549 10.7067 70.3283 10.72C70.2083 10.7267 70.0883 10.7467 69.9683 10.78V13.77C70.0749 13.8433 70.2149 13.9133 70.3883 13.98C70.5683 14.04 70.7583 14.07 70.9583 14.07C71.3983 14.07 71.7183 13.92 71.9183 13.62C72.1249 13.32 72.2283 12.9167 72.2283 12.41ZM73.4683 12.39C73.4683 12.79 73.4149 13.1567 73.3083 13.49C73.2083 13.8233 73.0616 14.11 72.8683 14.35C72.6749 14.59 72.4316 14.7767 72.1383 14.91C71.8516 15.0433 71.5249 15.11 71.1583 15.11C70.9116 15.11 70.6849 15.08 70.4783 15.02C70.2716 14.96 70.1016 14.8933 69.9683 14.82V16.85H68.7583V9.94C69.0049 9.87333 69.3083 9.81 69.6683 9.75C70.0283 9.69 70.4083 9.66 70.8083 9.66C71.2216 9.66 71.5916 9.72333 71.9183 9.85C72.2449 9.97667 72.5216 10.16 72.7483 10.4C72.9816 10.6333 73.1583 10.92 73.2783 11.26C73.4049 11.5933 73.4683 11.97 73.4683 12.39ZM74.4253 12.41C74.4253 11.95 74.492 11.5467 74.6253 11.2C74.7653 10.8533 74.9486 10.5667 75.1753 10.34C75.402 10.1067 75.662 9.93333 75.9553 9.82C76.2486 9.7 76.5486 9.64 76.8553 9.64C77.5753 9.64 78.1353 9.86333 78.5353 10.31C78.942 10.7567 79.1453 11.4233 79.1453 12.31C79.1453 12.3767 79.142 12.4533 79.1353 12.54C79.1353 12.62 79.132 12.6933 79.1253 12.76H75.6753C75.7086 13.18 75.8553 13.5067 76.1153 13.74C76.382 13.9667 76.7653 14.08 77.2653 14.08C77.5586 14.08 77.8253 14.0533 78.0653 14C78.312 13.9467 78.5053 13.89 78.6453 13.83L78.8053 14.82C78.7386 14.8533 78.6453 14.89 78.5253 14.93C78.412 14.9633 78.2786 14.9933 78.1253 15.02C77.9786 15.0533 77.8186 15.08 77.6453 15.1C77.472 15.12 77.2953 15.13 77.1153 15.13C76.6553 15.13 76.2553 15.0633 75.9153 14.93C75.5753 14.79 75.2953 14.6 75.0753 14.36C74.8553 14.1133 74.692 13.8267 74.5853 13.5C74.4786 13.1667 74.4253 12.8033 74.4253 12.41ZM77.9353 11.87C77.9353 11.7033 77.912 11.5467 77.8653 11.4C77.8186 11.2467 77.7486 11.1167 77.6553 11.01C77.5686 10.8967 77.4586 10.81 77.3253 10.75C77.1986 10.6833 77.0453 10.65 76.8653 10.65C76.6786 10.65 76.5153 10.6867 76.3753 10.76C76.2353 10.8267 76.1153 10.9167 76.0153 11.03C75.922 11.1433 75.8486 11.2733 75.7953 11.42C75.742 11.5667 75.7053 11.7167 75.6853 11.87H77.9353ZM83.4082 10.86C83.3082 10.8267 83.1682 10.7933 82.9882 10.76C82.8149 10.72 82.6115 10.7 82.3782 10.7C82.2449 10.7 82.1015 10.7133 81.9482 10.74C81.8015 10.7667 81.6982 10.79 81.6382 10.81V15H80.4282V10.02C80.6615 9.93333 80.9515 9.85333 81.2982 9.78C81.6515 9.7 82.0415 9.66 82.4682 9.66C82.5482 9.66 82.6415 9.66667 82.7482 9.68C82.8549 9.68667 82.9615 9.7 83.0682 9.72C83.1749 9.73333 83.2782 9.75333 83.3782 9.78C83.4782 9.8 83.5582 9.82 83.6182 9.84L83.4082 10.86ZM86.5914 7.24C86.8714 7.24 87.1181 7.26667 87.3314 7.32C87.5447 7.36667 87.7047 7.41 87.8114 7.45L87.5814 8.45C87.4681 8.39667 87.3347 8.35333 87.1814 8.32C87.0347 8.28667 86.8747 8.27 86.7014 8.27C86.5081 8.27 86.3447 8.3 86.2114 8.36C86.0781 8.41333 85.9714 8.49 85.8914 8.59C85.8114 8.69 85.7547 8.81333 85.7214 8.96C85.6881 9.1 85.6714 9.25333 85.6714 9.42V9.77H87.5714V10.78H85.6714V15H84.4614V9.4C84.4614 8.72667 84.6381 8.2 84.9914 7.82C85.3447 7.43333 85.8781 7.24 86.5914 7.24ZM93.0977 12.38C93.0977 12.7933 93.0377 13.17 92.9177 13.51C92.7977 13.85 92.6277 14.14 92.4077 14.38C92.1877 14.62 91.921 14.8067 91.6077 14.94C91.301 15.0733 90.961 15.14 90.5877 15.14C90.2143 15.14 89.8743 15.0733 89.5677 14.94C89.261 14.8067 88.9977 14.62 88.7777 14.38C88.5577 14.14 88.3843 13.85 88.2577 13.51C88.1377 13.17 88.0777 12.7933 88.0777 12.38C88.0777 11.9667 88.1377 11.5933 88.2577 11.26C88.3843 10.92 88.5577 10.63 88.7777 10.39C89.0043 10.15 89.271 9.96667 89.5777 9.84C89.8843 9.70667 90.221 9.64 90.5877 9.64C90.9543 9.64 91.291 9.70667 91.5977 9.84C91.911 9.96667 92.1777 10.15 92.3977 10.39C92.6177 10.63 92.7877 10.92 92.9077 11.26C93.0343 11.5933 93.0977 11.9667 93.0977 12.38ZM91.8577 12.38C91.8577 11.86 91.7443 11.45 91.5177 11.15C91.2977 10.8433 90.9877 10.69 90.5877 10.69C90.1877 10.69 89.8743 10.8433 89.6477 11.15C89.4277 11.45 89.3177 11.86 89.3177 12.38C89.3177 12.9067 89.4277 13.3233 89.6477 13.63C89.8743 13.9367 90.1877 14.09 90.5877 14.09C90.9877 14.09 91.2977 13.9367 91.5177 13.63C91.7443 13.3233 91.8577 12.9067 91.8577 12.38ZM97.3242 10.86C97.2242 10.8267 97.0842 10.7933 96.9042 10.76C96.7309 10.72 96.5276 10.7 96.2942 10.7C96.1609 10.7 96.0176 10.7133 95.8642 10.74C95.7176 10.7667 95.6142 10.79 95.5542 10.81V15H94.3442V10.02C94.5776 9.93333 94.8676 9.85333 95.2142 9.78C95.5676 9.7 95.9576 9.66 96.3842 9.66C96.4642 9.66 96.5576 9.66667 96.6642 9.68C96.7709 9.68667 96.8776 9.7 96.9842 9.72C97.0909 9.73333 97.1942 9.75333 97.2942 9.78C97.3942 9.8 97.4742 9.82 97.5342 9.84L97.3242 10.86ZM101.357 12.25C101.357 11.7033 101.287 11.31 101.147 11.07C101.014 10.8233 100.761 10.7 100.387 10.7C100.254 10.7 100.107 10.71 99.9474 10.73C99.7874 10.75 99.6674 10.7667 99.5874 10.78V15H98.3774V9.94C98.6108 9.87333 98.9141 9.81 99.2874 9.75C99.6674 9.69 100.067 9.66 100.487 9.66C100.847 9.66 101.141 9.70667 101.367 9.8C101.601 9.89333 101.794 10.0167 101.947 10.17C102.021 10.1167 102.114 10.06 102.227 10C102.341 9.94 102.467 9.88667 102.607 9.84C102.747 9.78667 102.894 9.74333 103.047 9.71C103.207 9.67667 103.367 9.66 103.527 9.66C103.934 9.66 104.267 9.72 104.527 9.84C104.794 9.95333 105.001 10.1167 105.147 10.33C105.301 10.5367 105.404 10.79 105.457 11.09C105.517 11.3833 105.547 11.7067 105.547 12.06V15H104.337V12.25C104.337 11.7033 104.271 11.31 104.137 11.07C104.004 10.8233 103.747 10.7 103.367 10.7C103.174 10.7 102.991 10.7333 102.817 10.8C102.644 10.86 102.514 10.92 102.427 10.98C102.481 11.1467 102.517 11.3233 102.537 11.51C102.557 11.6967 102.567 11.8967 102.567 12.11V15H101.357V12.25ZM108.87 14.15C109.243 14.15 109.526 14.13 109.72 14.09V12.75C109.653 12.73 109.556 12.71 109.43 12.69C109.303 12.67 109.163 12.66 109.01 12.66C108.876 12.66 108.74 12.67 108.6 12.69C108.466 12.71 108.343 12.7467 108.23 12.8C108.123 12.8533 108.036 12.93 107.97 13.03C107.903 13.1233 107.87 13.2433 107.87 13.39C107.87 13.6767 107.96 13.8767 108.14 13.99C108.32 14.0967 108.563 14.15 108.87 14.15ZM108.77 9.64C109.17 9.64 109.506 9.69 109.78 9.79C110.053 9.89 110.27 10.03 110.43 10.21C110.596 10.39 110.713 10.61 110.78 10.87C110.853 11.1233 110.89 11.4033 110.89 11.71V14.88C110.703 14.92 110.42 14.9667 110.04 15.02C109.666 15.08 109.243 15.11 108.77 15.11C108.456 15.11 108.17 15.08 107.91 15.02C107.65 14.96 107.426 14.8633 107.24 14.73C107.06 14.5967 106.916 14.4233 106.81 14.21C106.71 13.9967 106.66 13.7333 106.66 13.42C106.66 13.12 106.716 12.8667 106.83 12.66C106.95 12.4533 107.11 12.2867 107.31 12.16C107.51 12.0267 107.74 11.9333 108 11.88C108.266 11.82 108.543 11.79 108.83 11.79C108.963 11.79 109.103 11.8 109.25 11.82C109.396 11.8333 109.553 11.86 109.72 11.9V11.7C109.72 11.56 109.703 11.4267 109.67 11.3C109.636 11.1733 109.576 11.0633 109.49 10.97C109.41 10.87 109.3 10.7933 109.16 10.74C109.026 10.6867 108.856 10.66 108.65 10.66C108.37 10.66 108.113 10.68 107.88 10.72C107.646 10.76 107.456 10.8067 107.31 10.86L107.16 9.88C107.313 9.82667 107.536 9.77333 107.83 9.72C108.123 9.66667 108.436 9.64 108.77 9.64ZM112.372 9.94C112.605 9.87333 112.908 9.81 113.282 9.75C113.655 9.69 114.068 9.66 114.522 9.66C114.948 9.66 115.305 9.72 115.592 9.84C115.878 9.95333 116.105 10.1167 116.272 10.33C116.445 10.5367 116.565 10.79 116.632 11.09C116.705 11.3833 116.742 11.7067 116.742 12.06V15H115.532V12.25C115.532 11.97 115.512 11.7333 115.472 11.54C115.438 11.34 115.378 11.18 115.292 11.06C115.212 10.9333 115.098 10.8433 114.952 10.79C114.812 10.73 114.638 10.7 114.432 10.7C114.278 10.7 114.118 10.71 113.952 10.73C113.785 10.75 113.662 10.7667 113.582 10.78V15H112.372V9.94ZM117.931 12.39C117.931 12.0033 117.991 11.6433 118.111 11.31C118.231 10.97 118.401 10.6767 118.621 10.43C118.848 10.1833 119.121 9.99 119.441 9.85C119.761 9.71 120.121 9.64 120.521 9.64C121.015 9.64 121.481 9.73 121.921 9.91L121.661 10.9C121.521 10.84 121.361 10.79 121.181 10.75C121.008 10.71 120.821 10.69 120.621 10.69C120.148 10.69 119.788 10.84 119.541 11.14C119.295 11.4333 119.171 11.85 119.171 12.39C119.171 12.91 119.288 13.3233 119.521 13.63C119.755 13.93 120.148 14.08 120.701 14.08C120.908 14.08 121.111 14.06 121.311 14.02C121.511 13.98 121.685 13.93 121.831 13.87L122.001 14.87C121.868 14.9367 121.665 14.9967 121.391 15.05C121.125 15.1033 120.848 15.13 120.561 15.13C120.115 15.13 119.725 15.0633 119.391 14.93C119.065 14.79 118.791 14.6 118.571 14.36C118.358 14.1133 118.198 13.8233 118.091 13.49C117.985 13.15 117.931 12.7833 117.931 12.39ZM122.648 12.41C122.648 11.95 122.715 11.5467 122.848 11.2C122.988 10.8533 123.171 10.5667 123.398 10.34C123.625 10.1067 123.885 9.93333 124.178 9.82C124.471 9.7 124.771 9.64 125.078 9.64C125.798 9.64 126.358 9.86333 126.758 10.31C127.165 10.7567 127.368 11.4233 127.368 12.31C127.368 12.3767 127.365 12.4533 127.358 12.54C127.358 12.62 127.355 12.6933 127.348 12.76H123.898C123.931 13.18 124.078 13.5067 124.338 13.74C124.605 13.9667 124.988 14.08 125.488 14.08C125.781 14.08 126.048 14.0533 126.288 14C126.535 13.9467 126.728 13.89 126.868 13.83L127.028 14.82C126.961 14.8533 126.868 14.89 126.748 14.93C126.635 14.9633 126.501 14.9933 126.348 15.02C126.201 15.0533 126.041 15.08 125.868 15.1C125.695 15.12 125.518 15.13 125.338 15.13C124.878 15.13 124.478 15.0633 124.138 14.93C123.798 14.79 123.518 14.6 123.298 14.36C123.078 14.1133 122.915 13.8267 122.808 13.5C122.701 13.1667 122.648 12.8033 122.648 12.41ZM126.158 11.87C126.158 11.7033 126.135 11.5467 126.088 11.4C126.041 11.2467 125.971 11.1167 125.878 11.01C125.791 10.8967 125.681 10.81 125.548 10.75C125.421 10.6833 125.268 10.65 125.088 10.65C124.901 10.65 124.738 10.6867 124.598 10.76C124.458 10.8267 124.338 10.9167 124.238 11.03C124.145 11.1433 124.071 11.2733 124.018 11.42C123.965 11.5667 123.928 11.7167 123.908 11.87H126.158ZM133.115 7.24C133.395 7.24 133.642 7.26667 133.855 7.32C134.068 7.36667 134.228 7.41 134.335 7.45L134.105 8.45C133.992 8.39667 133.858 8.35333 133.705 8.32C133.558 8.28667 133.398 8.27 133.225 8.27C133.032 8.27 132.868 8.3 132.735 8.36C132.602 8.41333 132.495 8.49 132.415 8.59C132.335 8.69 132.278 8.81333 132.245 8.96C132.212 9.1 132.195 9.25333 132.195 9.42V9.77H134.095V10.78H132.195V15H130.985V9.4C130.985 8.72667 131.162 8.2 131.515 7.82C131.868 7.43333 132.402 7.24 133.115 7.24ZM139.621 12.38C139.621 12.7933 139.561 13.17 139.441 13.51C139.321 13.85 139.151 14.14 138.931 14.38C138.711 14.62 138.444 14.8067 138.131 14.94C137.824 15.0733 137.484 15.14 137.111 15.14C136.738 15.14 136.398 15.0733 136.091 14.94C135.784 14.8067 135.521 14.62 135.301 14.38C135.081 14.14 134.908 13.85 134.781 13.51C134.661 13.17 134.601 12.7933 134.601 12.38C134.601 11.9667 134.661 11.5933 134.781 11.26C134.908 10.92 135.081 10.63 135.301 10.39C135.528 10.15 135.794 9.96667 136.101 9.84C136.408 9.70667 136.744 9.64 137.111 9.64C137.478 9.64 137.814 9.70667 138.121 9.84C138.434 9.96667 138.701 10.15 138.921 10.39C139.141 10.63 139.311 10.92 139.431 11.26C139.558 11.5933 139.621 11.9667 139.621 12.38ZM138.381 12.38C138.381 11.86 138.268 11.45 138.041 11.15C137.821 10.8433 137.511 10.69 137.111 10.69C136.711 10.69 136.398 10.8433 136.171 11.15C135.951 11.45 135.841 11.86 135.841 12.38C135.841 12.9067 135.951 13.3233 136.171 13.63C136.398 13.9367 136.711 14.09 137.111 14.09C137.511 14.09 137.821 13.9367 138.041 13.63C138.268 13.3233 138.381 12.9067 138.381 12.38ZM143.848 10.86C143.748 10.8267 143.608 10.7933 143.428 10.76C143.254 10.72 143.051 10.7 142.818 10.7C142.684 10.7 142.541 10.7133 142.388 10.74C142.241 10.7667 142.138 10.79 142.078 10.81V15H140.868V10.02C141.101 9.93333 141.391 9.85333 141.738 9.78C142.091 9.7 142.481 9.66 142.908 9.66C142.988 9.66 143.081 9.66667 143.188 9.68C143.294 9.68667 143.401 9.7 143.508 9.72C143.614 9.73333 143.718 9.75333 143.818 9.78C143.918 9.8 143.998 9.82 144.058 9.84L143.848 10.86ZM147.175 8.39L148.385 8.19V9.77H150.245V10.78H148.385V12.91C148.385 13.33 148.452 13.63 148.585 13.81C148.718 13.99 148.945 14.08 149.265 14.08C149.485 14.08 149.678 14.0567 149.845 14.01C150.018 13.9633 150.155 13.92 150.255 13.88L150.455 14.84C150.315 14.9 150.132 14.96 149.905 15.02C149.678 15.0867 149.412 15.12 149.105 15.12C148.732 15.12 148.418 15.07 148.165 14.97C147.918 14.87 147.722 14.7267 147.575 14.54C147.428 14.3467 147.325 14.1167 147.265 13.85C147.205 13.5767 147.175 13.2667 147.175 12.92V8.39ZM151.415 15V7.44L152.625 7.24V9.83C152.758 9.78333 152.911 9.74333 153.085 9.71C153.265 9.67667 153.441 9.66 153.615 9.66C154.035 9.66 154.381 9.72 154.655 9.84C154.935 9.95333 155.158 10.1167 155.325 10.33C155.491 10.5367 155.608 10.7867 155.675 11.08C155.748 11.3733 155.785 11.7 155.785 12.06V15H154.575V12.25C154.575 11.97 154.555 11.7333 154.515 11.54C154.481 11.34 154.421 11.18 154.335 11.06C154.255 10.9333 154.145 10.8433 154.005 10.79C153.865 10.73 153.691 10.7 153.485 10.7C153.325 10.7 153.161 10.7167 152.995 10.75C152.828 10.7833 152.705 10.8133 152.625 10.84V15H151.415ZM156.945 12.41C156.945 11.95 157.012 11.5467 157.145 11.2C157.285 10.8533 157.468 10.5667 157.695 10.34C157.922 10.1067 158.182 9.93333 158.475 9.82C158.768 9.7 159.068 9.64 159.375 9.64C160.095 9.64 160.655 9.86333 161.055 10.31C161.462 10.7567 161.665 11.4233 161.665 12.31C161.665 12.3767 161.662 12.4533 161.655 12.54C161.655 12.62 161.652 12.6933 161.645 12.76H158.195C158.228 13.18 158.375 13.5067 158.635 13.74C158.902 13.9667 159.285 14.08 159.785 14.08C160.078 14.08 160.345 14.0533 160.585 14C160.832 13.9467 161.025 13.89 161.165 13.83L161.325 14.82C161.258 14.8533 161.165 14.89 161.045 14.93C160.932 14.9633 160.798 14.9933 160.645 15.02C160.498 15.0533 160.338 15.08 160.165 15.1C159.992 15.12 159.815 15.13 159.635 15.13C159.175 15.13 158.775 15.0633 158.435 14.93C158.095 14.79 157.815 14.6 157.595 14.36C157.375 14.1133 157.212 13.8267 157.105 13.5C156.998 13.1667 156.945 12.8033 156.945 12.41ZM160.455 11.87C160.455 11.7033 160.432 11.5467 160.385 11.4C160.338 11.2467 160.268 11.1167 160.175 11.01C160.088 10.8967 159.978 10.81 159.845 10.75C159.718 10.6833 159.565 10.65 159.385 10.65C159.198 10.65 159.035 10.6867 158.895 10.76C158.755 10.8267 158.635 10.9167 158.535 11.03C158.442 11.1433 158.368 11.2733 158.315 11.42C158.262 11.5667 158.225 11.7167 158.205 11.87H160.455ZM167.102 15.1C166.742 15.0933 166.442 15.0533 166.202 14.98C165.968 14.9067 165.782 14.8033 165.642 14.67C165.502 14.53 165.402 14.36 165.342 14.16C165.288 13.9533 165.262 13.72 165.262 13.46V7.44L166.472 7.24V13.23C166.472 13.3767 166.482 13.5 166.502 13.6C166.528 13.7 166.572 13.7867 166.632 13.86C166.692 13.9267 166.772 13.98 166.872 14.02C166.978 14.0533 167.112 14.08 167.272 14.1L167.102 15.1ZM170.09 14.15C170.464 14.15 170.747 14.13 170.94 14.09V12.75C170.874 12.73 170.777 12.71 170.65 12.69C170.524 12.67 170.384 12.66 170.23 12.66C170.097 12.66 169.96 12.67 169.82 12.69C169.687 12.71 169.564 12.7467 169.45 12.8C169.344 12.8533 169.257 12.93 169.19 13.03C169.124 13.1233 169.09 13.2433 169.09 13.39C169.09 13.6767 169.18 13.8767 169.36 13.99C169.54 14.0967 169.784 14.15 170.09 14.15ZM169.99 9.64C170.39 9.64 170.727 9.69 171 9.79C171.274 9.89 171.49 10.03 171.65 10.21C171.817 10.39 171.934 10.61 172 10.87C172.074 11.1233 172.11 11.4033 172.11 11.71V14.88C171.924 14.92 171.64 14.9667 171.26 15.02C170.887 15.08 170.464 15.11 169.99 15.11C169.677 15.11 169.39 15.08 169.13 15.02C168.87 14.96 168.647 14.8633 168.46 14.73C168.28 14.5967 168.137 14.4233 168.03 14.21C167.93 13.9967 167.88 13.7333 167.88 13.42C167.88 13.12 167.937 12.8667 168.05 12.66C168.17 12.4533 168.33 12.2867 168.53 12.16C168.73 12.0267 168.96 11.9333 169.22 11.88C169.487 11.82 169.764 11.79 170.05 11.79C170.184 11.79 170.324 11.8 170.47 11.82C170.617 11.8333 170.774 11.86 170.94 11.9V11.7C170.94 11.56 170.924 11.4267 170.89 11.3C170.857 11.1733 170.797 11.0633 170.71 10.97C170.63 10.87 170.52 10.7933 170.38 10.74C170.247 10.6867 170.077 10.66 169.87 10.66C169.59 10.66 169.334 10.68 169.1 10.72C168.867 10.76 168.677 10.8067 168.53 10.86L168.38 9.88C168.534 9.82667 168.757 9.77333 169.05 9.72C169.344 9.66667 169.657 9.64 169.99 9.64ZM174.902 14.13C175.222 14.13 175.456 14.0933 175.602 14.02C175.749 13.94 175.822 13.8067 175.822 13.62C175.822 13.4467 175.742 13.3033 175.582 13.19C175.429 13.0767 175.172 12.9533 174.812 12.82C174.592 12.74 174.389 12.6567 174.202 12.57C174.022 12.4767 173.866 12.37 173.732 12.25C173.599 12.13 173.492 11.9867 173.412 11.82C173.339 11.6467 173.302 11.4367 173.302 11.19C173.302 10.71 173.479 10.3333 173.832 10.06C174.186 9.78 174.666 9.64 175.272 9.64C175.579 9.64 175.872 9.67 176.152 9.73C176.432 9.78333 176.642 9.83667 176.782 9.89L176.562 10.87C176.429 10.81 176.259 10.7567 176.052 10.71C175.846 10.6567 175.606 10.63 175.332 10.63C175.086 10.63 174.886 10.6733 174.732 10.76C174.579 10.84 174.502 10.9667 174.502 11.14C174.502 11.2267 174.516 11.3033 174.542 11.37C174.576 11.4367 174.629 11.5 174.702 11.56C174.776 11.6133 174.872 11.67 174.992 11.73C175.112 11.7833 175.259 11.84 175.432 11.9C175.719 12.0067 175.962 12.1133 176.162 12.22C176.362 12.32 176.526 12.4367 176.652 12.57C176.786 12.6967 176.882 12.8433 176.942 13.01C177.002 13.1767 177.032 13.3767 177.032 13.61C177.032 14.11 176.846 14.49 176.472 14.75C176.106 15.0033 175.579 15.13 174.892 15.13C174.432 15.13 174.062 15.09 173.782 15.01C173.502 14.9367 173.306 14.8767 173.192 14.83L173.402 13.82C173.582 13.8933 173.796 13.9633 174.042 14.03C174.296 14.0967 174.582 14.13 174.902 14.13ZM178.103 8.39L179.313 8.19V9.77H181.173V10.78H179.313V12.91C179.313 13.33 179.379 13.63 179.513 13.81C179.646 13.99 179.873 14.08 180.193 14.08C180.413 14.08 180.606 14.0567 180.773 14.01C180.946 13.9633 181.083 13.92 181.183 13.88L181.383 14.84C181.243 14.9 181.059 14.96 180.833 15.02C180.606 15.0867 180.339 15.12 180.033 15.12C179.659 15.12 179.346 15.07 179.093 14.97C178.846 14.87 178.649 14.7267 178.503 14.54C178.356 14.3467 178.253 14.1167 178.193 13.85C178.133 13.5767 178.103 13.2667 178.103 12.92V8.39ZM187.736 13.02C187.736 12.8 187.693 12.6033 187.606 12.43C187.52 12.2567 187.366 12.11 187.146 11.99C186.933 11.87 186.643 11.78 186.276 11.72C185.916 11.66 185.46 11.63 184.906 11.63C184.98 10.99 185.036 10.3833 185.076 9.81C185.116 9.23 185.15 8.65 185.176 8.07H188.716V9.09H186.206C186.2 9.20333 186.19 9.33333 186.176 9.48C186.17 9.62 186.16 9.76333 186.146 9.91C186.14 10.0567 186.13 10.1967 186.116 10.33C186.103 10.4633 186.09 10.5767 186.076 10.67C187.063 10.7233 187.79 10.95 188.256 11.35C188.73 11.7433 188.966 12.2833 188.966 12.97C188.966 13.2833 188.913 13.5733 188.806 13.84C188.7 14.1067 188.536 14.3367 188.316 14.53C188.096 14.7233 187.82 14.8767 187.486 14.99C187.153 15.0967 186.763 15.15 186.316 15.15C186.136 15.15 185.953 15.1367 185.766 15.11C185.58 15.0833 185.4 15.05 185.226 15.01C185.06 14.9767 184.91 14.94 184.776 14.9C184.643 14.86 184.543 14.8233 184.476 14.79L184.706 13.77C184.846 13.8367 185.046 13.91 185.306 13.99C185.573 14.0633 185.896 14.1 186.276 14.1C186.536 14.1 186.76 14.0733 186.946 14.02C187.133 13.96 187.283 13.88 187.396 13.78C187.516 13.68 187.603 13.5667 187.656 13.44C187.71 13.3067 187.736 13.1667 187.736 13.02ZM191.31 12.37C191.31 12.9033 191.437 13.3233 191.69 13.63C191.943 13.93 192.293 14.08 192.74 14.08C192.933 14.08 193.097 14.0733 193.23 14.06C193.37 14.04 193.483 14.02 193.57 14V11C193.463 10.9267 193.32 10.86 193.14 10.8C192.967 10.7333 192.78 10.7 192.58 10.7C192.14 10.7 191.817 10.85 191.61 11.15C191.41 11.45 191.31 11.8567 191.31 12.37ZM194.78 14.84C194.54 14.9133 194.237 14.98 193.87 15.04C193.51 15.1 193.13 15.13 192.73 15.13C192.317 15.13 191.947 15.0667 191.62 14.94C191.293 14.8133 191.013 14.6333 190.78 14.4C190.553 14.16 190.377 13.8733 190.25 13.54C190.13 13.2 190.07 12.82 190.07 12.4C190.07 11.9867 190.12 11.6133 190.22 11.28C190.327 10.94 190.48 10.65 190.68 10.41C190.88 10.17 191.123 9.98667 191.41 9.86C191.697 9.72667 192.027 9.66 192.4 9.66C192.653 9.66 192.877 9.69 193.07 9.75C193.263 9.81 193.43 9.87667 193.57 9.95V7.44L194.78 7.24V14.84ZM198.157 14.15C198.53 14.15 198.814 14.13 199.007 14.09V12.75C198.94 12.73 198.844 12.71 198.717 12.69C198.59 12.67 198.45 12.66 198.297 12.66C198.164 12.66 198.027 12.67 197.887 12.69C197.754 12.71 197.63 12.7467 197.517 12.8C197.41 12.8533 197.324 12.93 197.257 13.03C197.19 13.1233 197.157 13.2433 197.157 13.39C197.157 13.6767 197.247 13.8767 197.427 13.99C197.607 14.0967 197.85 14.15 198.157 14.15ZM198.057 9.64C198.457 9.64 198.794 9.69 199.067 9.79C199.34 9.89 199.557 10.03 199.717 10.21C199.884 10.39 200 10.61 200.067 10.87C200.14 11.1233 200.177 11.4033 200.177 11.71V14.88C199.99 14.92 199.707 14.9667 199.327 15.02C198.954 15.08 198.53 15.11 198.057 15.11C197.744 15.11 197.457 15.08 197.197 15.02C196.937 14.96 196.714 14.8633 196.527 14.73C196.347 14.5967 196.204 14.4233 196.097 14.21C195.997 13.9967 195.947 13.7333 195.947 13.42C195.947 13.12 196.004 12.8667 196.117 12.66C196.237 12.4533 196.397 12.2867 196.597 12.16C196.797 12.0267 197.027 11.9333 197.287 11.88C197.554 11.82 197.83 11.79 198.117 11.79C198.25 11.79 198.39 11.8 198.537 11.82C198.684 11.8333 198.84 11.86 199.007 11.9V11.7C199.007 11.56 198.99 11.4267 198.957 11.3C198.924 11.1733 198.864 11.0633 198.777 10.97C198.697 10.87 198.587 10.7933 198.447 10.74C198.314 10.6867 198.144 10.66 197.937 10.66C197.657 10.66 197.4 10.68 197.167 10.72C196.934 10.76 196.744 10.8067 196.597 10.86L196.447 9.88C196.6 9.82667 196.824 9.77333 197.117 9.72C197.41 9.66667 197.724 9.64 198.057 9.64ZM205.802 9.77C205.262 11.7567 204.635 13.5567 203.922 15.17C203.788 15.47 203.652 15.7267 203.512 15.94C203.372 16.1533 203.215 16.33 203.042 16.47C202.868 16.61 202.675 16.71 202.462 16.77C202.248 16.8367 202.002 16.87 201.722 16.87C201.535 16.87 201.348 16.85 201.162 16.81C200.982 16.77 200.845 16.7267 200.752 16.68L200.972 15.71C201.212 15.8033 201.448 15.85 201.682 15.85C201.995 15.85 202.238 15.7733 202.412 15.62C202.592 15.4733 202.748 15.2433 202.882 14.93C202.502 14.1967 202.135 13.3967 201.782 12.53C201.435 11.6633 201.125 10.7433 200.852 9.77H202.142C202.208 10.05 202.288 10.3533 202.382 10.68C202.482 11.0067 202.588 11.34 202.702 11.68C202.815 12.0133 202.935 12.3467 203.062 12.68C203.188 13.0133 203.315 13.3233 203.442 13.61C203.655 13.0167 203.855 12.3867 204.042 11.72C204.228 11.0467 204.398 10.3967 204.552 9.77H205.802ZM208.027 14.13C208.347 14.13 208.581 14.0933 208.727 14.02C208.874 13.94 208.947 13.8067 208.947 13.62C208.947 13.4467 208.867 13.3033 208.707 13.19C208.554 13.0767 208.297 12.9533 207.937 12.82C207.717 12.74 207.514 12.6567 207.327 12.57C207.147 12.4767 206.991 12.37 206.857 12.25C206.724 12.13 206.617 11.9867 206.537 11.82C206.464 11.6467 206.427 11.4367 206.427 11.19C206.427 10.71 206.604 10.3333 206.957 10.06C207.311 9.78 207.791 9.64 208.397 9.64C208.704 9.64 208.997 9.67 209.277 9.73C209.557 9.78333 209.767 9.83667 209.907 9.89L209.687 10.87C209.554 10.81 209.384 10.7567 209.177 10.71C208.971 10.6567 208.731 10.63 208.457 10.63C208.211 10.63 208.011 10.6733 207.857 10.76C207.704 10.84 207.627 10.9667 207.627 11.14C207.627 11.2267 207.641 11.3033 207.667 11.37C207.701 11.4367 207.754 11.5 207.827 11.56C207.901 11.6133 207.997 11.67 208.117 11.73C208.237 11.7833 208.384 11.84 208.557 11.9C208.844 12.0067 209.087 12.1133 209.287 12.22C209.487 12.32 209.651 12.4367 209.777 12.57C209.911 12.6967 210.007 12.8433 210.067 13.01C210.127 13.1767 210.157 13.3767 210.157 13.61C210.157 14.11 209.971 14.49 209.597 14.75C209.231 15.0033 208.704 15.13 208.017 15.13C207.557 15.13 207.187 15.09 206.907 15.01C206.627 14.9367 206.431 14.8767 206.317 14.83L206.527 13.82C206.707 13.8933 206.921 13.9633 207.167 14.03C207.421 14.0967 207.707 14.13 208.027 14.13Z" fill="#3D0072"/>
<path d="M227.748 9.50049L223.998 13.2505L220.248 9.50049H227.748Z" fill="#3D0072"/>
<defs>
<linearGradient id="paint0_linear_4663_85187" x1="267" y1="46" x2="267" y2="220" gradientUnits="userSpaceOnUse">
<stop stop-color="#059669"/>
<stop offset="1" stop-color="#059669" stop-opacity="0"/>
</linearGradient>
<clipPath id="clip0_4663_85187">
<rect width="464" height="225" fill="white" transform="translate(2 33)"/>
</clipPath>
</defs>
</svg>
