<svg width="83" height="83" viewBox="0 0 83 83" fill="none" xmlns="http://www.w3.org/2000/svg">
<g filter="url(#filter0_d_1537_42665)">
<rect x="9.10156" y="6.21429" width="64.0523" height="64.0523" rx="8.86067" fill="#FFD4E2" shape-rendering="crispEdges"/>
<path d="M41.1257 44.0585C40.9834 44.0585 40.8546 44.0361 40.7393 43.9912C40.6233 43.9471 40.5119 43.8806 40.4051 43.7916C39.6401 43.1155 39.0351 42.2746 38.5903 41.269C38.1455 40.2641 37.9231 39.2546 37.9231 38.2404C37.9231 37.2262 38.1455 36.2164 38.5903 35.2107C39.0351 34.2058 39.6312 33.3653 40.3785 32.6892C40.4852 32.6002 40.6009 32.5291 40.7254 32.4757C40.8499 32.4223 40.9834 32.3956 41.1257 32.3956C41.2681 32.3956 41.3972 32.4223 41.5132 32.4757C41.6285 32.5291 41.7396 32.6002 41.8463 32.6892C42.6114 33.3653 43.2163 34.2058 43.6611 35.2107C44.1059 36.2164 44.3283 37.2262 44.3283 38.2404C44.3283 39.2546 44.1059 40.2641 43.6611 41.269C43.2163 42.2746 42.6203 43.1155 41.873 43.7916C41.784 43.8806 41.673 43.9471 41.5399 43.9912C41.4061 44.0361 41.2681 44.0585 41.1257 44.0585ZM45.3959 45.7132C44.9155 45.7132 44.4486 45.6687 43.9953 45.5797C43.5412 45.4908 43.1007 45.3573 42.6737 45.1794C43.67 44.5211 44.4618 43.4891 45.0489 42.0835C45.6361 40.678 45.9297 39.3969 45.9297 38.2404C45.9297 37.0839 45.6361 35.8029 45.0489 34.3973C44.4618 32.9917 43.67 31.9597 42.6737 31.3014C43.1007 31.1235 43.5412 30.99 43.9953 30.9011C44.4486 30.8121 44.9155 30.7676 45.3959 30.7676C47.4776 30.7676 49.2433 31.4925 50.693 32.9422C52.1434 34.3926 52.8686 36.1587 52.8686 38.2404C52.8686 40.3221 52.1434 42.0878 50.693 43.5375C49.2433 44.988 47.4776 45.7132 45.3959 45.7132ZM36.8556 45.7132C34.7739 45.7132 33.0082 44.988 31.5585 43.5375C30.108 42.0878 29.3828 40.3221 29.3828 38.2404C29.3828 36.1587 30.108 34.3926 31.5585 32.9422C33.0082 31.4925 34.7739 30.7676 36.8556 30.7676C37.336 30.7676 37.8028 30.8121 38.2562 30.9011C38.7102 30.99 39.1508 31.1235 39.5778 31.3014C38.5814 31.9597 37.7897 32.9917 37.2025 34.3973C36.6154 35.8029 36.3218 37.0839 36.3218 38.2404C36.3218 39.3969 36.6154 40.678 37.2025 42.0835C37.7897 43.4891 38.5814 44.5211 39.5778 45.1794C39.1508 45.3573 38.7102 45.4908 38.2562 45.5797C37.8028 45.6687 37.336 45.7132 36.8556 45.7132Z" fill="#E6346D"/>
</g>
<defs>
<filter id="filter0_d_1537_42665" x="0.240889" y="0.89789" width="81.7741" height="81.7737" filterUnits="userSpaceOnUse" color-interpolation-filters="sRGB">
<feFlood flood-opacity="0" result="BackgroundImageFix"/>
<feColorMatrix in="SourceAlpha" type="matrix" values="0 0 0 0 0 0 0 0 0 0 0 0 0 0 0 0 0 0 127 0" result="hardAlpha"/>
<feOffset dy="3.54427"/>
<feGaussianBlur stdDeviation="4.43034"/>
<feComposite in2="hardAlpha" operator="out"/>
<feColorMatrix type="matrix" values="0 0 0 0 0.533333 0 0 0 0 0.027451 0 0 0 0 0.968627 0 0 0 0.07 0"/>
<feBlend mode="normal" in2="BackgroundImageFix" result="effect1_dropShadow_1537_42665"/>
<feBlend mode="normal" in="SourceGraphic" in2="effect1_dropShadow_1537_42665" result="shape"/>
</filter>
</defs>
</svg>
