<svg width="170" height="41" viewBox="0 0 170 41" fill="none" xmlns="http://www.w3.org/2000/svg">
<path d="M10.5534 10.8206C11.7195 10.4855 12.7689 10.0014 13.5569 9.18258C13.5595 10.3226 13.561 11.4627 13.5625 12.603L13.5625 12.6062L13.5625 12.6074C13.5642 13.9413 13.566 15.2756 13.5695 16.61L13.5695 16.6102C13.5762 18.8151 12.8572 20.8353 10.9497 21.8867C9.79967 22.5148 8.38074 22.7637 6.87241 22.8112C5.42577 22.8567 3.94011 22.7167 2.58822 22.5778C2.65416 20.7917 2.61725 18.9976 2.53311 17.2306C2.47826 16.0348 2.81569 14.7141 3.48762 13.6486C4.1574 12.5866 5.13457 11.8128 6.35132 11.6213L6.35139 11.6213C6.52276 11.5943 6.69357 11.5677 6.86358 11.5412C8.178 11.3365 9.44482 11.1392 10.5534 10.8206Z" fill="white" stroke="white"/>
<path d="M11.1857 40.0752L11.1855 40.0752C10.5744 40.0649 9.96666 40.0603 9.36139 40.0557C8.39306 40.0483 7.43093 40.041 6.47092 40.0107C6.90128 39.6545 7.30145 39.2446 7.65202 38.8012C8.34687 37.9224 8.87064 36.8818 9.03066 35.8247C9.19081 34.7769 9.1762 33.7084 9.16227 32.6895C9.16028 32.5442 9.15831 32.3999 9.15686 32.2568C9.14504 31.0902 9.16666 29.9883 9.44734 28.9345L9.44735 28.9344C10.3571 25.518 13.4597 22.7515 16.9625 22.2876L16.9629 22.2875C19.7769 21.913 22.75 23.0066 24.6605 25.0962L24.6604 25.0962L24.6685 25.1047C24.8191 25.2619 24.9563 25.4186 25.0868 25.5817C26.9756 27.9751 27.4942 31.39 26.397 34.2408L26.3969 34.241C25.2317 37.2733 21.6381 39.4022 18.3609 39.999C16.6875 40.3037 14.9609 40.2262 13.172 40.1458C12.5184 40.1165 11.8564 40.0868 11.1857 40.0752Z" fill="white" stroke="white"/>
<path d="M25.2389 1.00696C25.317 1.35242 25.4502 1.6687 25.5644 1.92525L25.5649 1.92638C26.3617 3.70447 27.4876 5.3259 28.7046 6.87494C29.3135 7.64988 29.9491 8.41157 30.5799 9.16637L30.6318 9.22849C31.2467 9.96411 31.8562 10.6934 32.4404 11.432C34.8467 14.4745 36.7496 17.5897 36.614 21.5434L25.2389 1.00696ZM25.2389 1.00696C21.9575 3.69287 20.0002 7.9257 20.2569 12.1775L20.2569 12.1783C20.4459 15.3912 21.8823 18.5136 24.1616 20.7896C24.6855 21.3117 25.2786 21.7309 25.9134 22.1796L25.9275 22.1896C26.5572 22.6346 27.2271 23.1092 27.8258 23.7173L27.8263 23.7178C29.0632 24.9769 29.9351 26.5599 30.5832 28.1354C30.8311 28.7358 30.9795 29.4198 31.1158 30.0478C31.1307 30.1166 31.1455 30.1848 31.1603 30.2521C31.2726 30.7647 31.3837 31.231 31.535 31.6342C31.5854 31.6005 31.64 31.5624 31.7009 31.5193C34.6686 29.4106 36.4882 25.1734 36.614 21.5436L25.2389 1.00696Z" fill="white" stroke="white"/>
<path d="M4.2275 16.6267C4.2275 16.6267 4.11878 14.5471 6.2475 14.6523C6.251 14.6523 7.02604 16.9248 4.2275 16.6267Z" fill="#8807F7" stroke="white" stroke-width="0.5" stroke-miterlimit="10"/>
<path d="M6.55597 30.692C6.55597 32.3644 5.2003 33.72 3.52799 33.72C1.85567 33.72 0.5 32.3644 0.5 30.692C0.5 29.0197 1.85567 27.6641 3.52799 27.6641C5.2003 27.6641 6.55597 29.0197 6.55597 30.692Z" fill="white" stroke="white"/>
<path d="M56.4937 25.4682C56.6606 25.4834 56.8503 25.4986 57.0628 25.5137C57.2904 25.5137 57.556 25.5137 57.8596 25.5137C59.6352 25.5137 60.948 25.066 61.7979 24.1706C62.663 23.2752 63.0955 22.0383 63.0955 20.4599C63.0955 18.8056 62.6858 17.5535 61.8662 16.7036C61.0467 15.8537 59.7491 15.4288 57.9734 15.4288C57.7306 15.4288 57.4802 15.4364 57.2221 15.4516C56.9641 15.4516 56.7213 15.4667 56.4937 15.4971V25.4682ZM66.7607 20.4599C66.7607 21.8258 66.5483 23.0172 66.1233 24.034C65.6984 25.0508 65.0913 25.8932 64.3021 26.5609C63.5281 27.2287 62.5795 27.7295 61.4565 28.0634C60.3334 28.3973 59.0737 28.5643 57.6774 28.5643C57.04 28.5643 56.2964 28.5339 55.4465 28.4732C54.5966 28.4277 53.7618 28.3214 52.9423 28.1545V12.788C53.7618 12.6363 54.6117 12.5376 55.492 12.4921C56.3874 12.4314 57.1539 12.401 57.7913 12.401C59.142 12.401 60.3637 12.5528 61.4565 12.8563C62.5644 13.1599 63.5129 13.6379 64.3021 14.2905C65.0913 14.9431 65.6984 15.7779 66.1233 16.7947C66.5483 17.8115 66.7607 19.0333 66.7607 20.4599ZM74.0753 25.9918C74.4092 25.9918 74.7279 25.9842 75.0314 25.969C75.3349 25.9539 75.5778 25.9311 75.7599 25.9007V23.3283C75.6233 23.2979 75.4184 23.2676 75.1452 23.2372C74.8721 23.2069 74.6216 23.1917 74.394 23.1917C74.0753 23.1917 73.7717 23.2145 73.4834 23.26C73.2102 23.2903 72.9674 23.3586 72.7549 23.4649C72.5424 23.5711 72.3755 23.7153 72.2541 23.8974C72.1326 24.0795 72.0719 24.3072 72.0719 24.5804C72.0719 25.1116 72.2465 25.4834 72.5955 25.6959C72.9598 25.8932 73.453 25.9918 74.0753 25.9918ZM73.8021 16.0662C74.8038 16.0662 75.6385 16.18 76.3063 16.4077C76.974 16.6353 77.5052 16.9616 77.8998 17.3866C78.3096 17.8115 78.5979 18.3275 78.7649 18.9346C78.9318 19.5417 79.0153 20.217 79.0153 20.9607V28.0179C78.5296 28.1241 77.8543 28.2455 76.9892 28.3821C76.1241 28.5339 75.0769 28.6098 73.8476 28.6098C73.0736 28.6098 72.3679 28.5415 71.7305 28.4049C71.1082 28.2683 70.5694 28.0483 70.1141 27.7447C69.6588 27.426 69.3098 27.0162 69.0669 26.5154C68.8241 26.0146 68.7027 25.3999 68.7027 24.6714C68.7027 23.9733 68.8393 23.3814 69.1125 22.8957C69.4008 22.4101 69.7803 22.0231 70.2507 21.7347C70.7212 21.4464 71.26 21.2415 71.8671 21.1201C72.4741 20.9835 73.104 20.9152 73.7566 20.9152C74.1967 20.9152 74.5837 20.9379 74.9176 20.9835C75.2666 21.0138 75.5474 21.0594 75.7599 21.1201V20.8014C75.7599 20.2246 75.5854 19.7617 75.2363 19.4127C74.8872 19.0636 74.2802 18.8891 73.4151 18.8891C72.8384 18.8891 72.2692 18.9346 71.7077 19.0257C71.1462 19.1016 70.6605 19.2154 70.2507 19.3672L69.8182 16.6353C70.0155 16.5746 70.2583 16.5139 70.5467 16.4532C70.8502 16.3773 71.1765 16.3166 71.5256 16.2711C71.8746 16.2104 72.2389 16.1649 72.6183 16.1345C73.0129 16.089 73.4075 16.0662 73.8021 16.0662ZM85.5201 25.9235C86.1423 25.9235 86.5825 25.8628 86.8405 25.7414C87.0985 25.62 87.2275 25.3847 87.2275 25.0357C87.2275 24.7625 87.0605 24.5272 86.7266 24.3299C86.3927 24.1175 85.8843 23.8822 85.2014 23.6242C84.6702 23.4269 84.1845 23.222 83.7444 23.0096C83.3195 22.7971 82.9552 22.5467 82.6517 22.2583C82.3481 21.9548 82.1129 21.5981 81.946 21.1884C81.779 20.7786 81.6955 20.2853 81.6955 19.7086C81.6955 18.5855 82.1129 17.6977 82.9476 17.0451C83.7823 16.3925 84.9282 16.0662 86.3852 16.0662C87.1136 16.0662 87.8118 16.1345 88.4795 16.2711C89.1473 16.3925 89.6785 16.5291 90.0731 16.6809L89.4812 19.3216C89.0866 19.185 88.6541 19.0636 88.1836 18.9574C87.7283 18.8511 87.2123 18.798 86.6356 18.798C85.5732 18.798 85.042 19.094 85.042 19.6859C85.042 19.8225 85.0648 19.9439 85.1103 20.0501C85.1558 20.1563 85.2469 20.2626 85.3835 20.3688C85.5201 20.4599 85.7022 20.5661 85.9299 20.6875C86.1727 20.7938 86.4762 20.9152 86.8405 21.0518C87.5841 21.325 88.1988 21.5981 88.6844 21.8713C89.1701 22.1293 89.5495 22.4177 89.8227 22.7364C90.111 23.0399 90.3083 23.3814 90.4146 23.7608C90.536 24.1402 90.5967 24.5804 90.5967 25.0812C90.5967 26.265 90.149 27.1604 89.2536 27.7675C88.3733 28.3746 87.1212 28.6781 85.4973 28.6781C84.4349 28.6781 83.5471 28.587 82.8338 28.4049C82.1357 28.2228 81.65 28.071 81.3768 27.9496L81.946 25.195C82.5227 25.4227 83.1146 25.6048 83.7216 25.7414C84.3287 25.8628 84.9282 25.9235 85.5201 25.9235ZM93.1316 28.3594V11.24L96.5236 10.6936V16.4305C96.7513 16.3546 97.0396 16.2863 97.3887 16.2256C97.753 16.1497 98.102 16.1117 98.4359 16.1117C99.4072 16.1117 100.212 16.2483 100.849 16.5215C101.502 16.7795 102.018 17.1513 102.397 17.637C102.792 18.1227 103.065 18.6994 103.217 19.3672C103.384 20.0349 103.467 20.7786 103.467 21.5981V28.3594H100.075V22.0079C100.075 20.9152 99.9308 20.1412 99.6425 19.6859C99.3693 19.2306 98.8533 19.0029 98.0944 19.0029C97.7909 19.0029 97.5025 19.0333 97.2294 19.094C96.9714 19.1395 96.7361 19.1926 96.5236 19.2533V28.3594H93.1316ZM114.209 22.2811C114.209 20.0956 113.405 19.0029 111.796 19.0029C111.447 19.0029 111.098 19.0484 110.749 19.1395C110.415 19.2306 110.142 19.3444 109.929 19.481V25.6503C110.096 25.6807 110.309 25.711 110.567 25.7414C110.825 25.7566 111.105 25.7642 111.409 25.7642C112.335 25.7642 113.033 25.4454 113.503 24.808C113.974 24.1706 114.209 23.3283 114.209 22.2811ZM117.669 22.3721C117.669 23.3283 117.525 24.1934 117.237 24.9674C116.964 25.7414 116.562 26.4016 116.03 26.9479C115.499 27.4943 114.847 27.9192 114.073 28.2228C113.299 28.5111 112.418 28.6553 111.432 28.6553C111.022 28.6553 110.589 28.6326 110.134 28.587C109.694 28.5567 109.254 28.5111 108.814 28.4504C108.389 28.3897 107.979 28.3214 107.584 28.2455C107.19 28.1545 106.841 28.0634 106.537 27.9724V11.24L109.929 10.6936V16.6581C110.309 16.4912 110.703 16.3622 111.113 16.2711C111.523 16.18 111.963 16.1345 112.433 16.1345C113.283 16.1345 114.035 16.2863 114.687 16.5898C115.34 16.8782 115.886 17.2955 116.326 17.8419C116.766 18.3883 117.1 19.0484 117.328 19.8225C117.556 20.5813 117.669 21.4312 117.669 22.3721ZM131.477 22.3494C131.477 23.2903 131.34 24.1554 131.067 24.9446C130.794 25.7186 130.399 26.3864 129.883 26.9479C129.367 27.4943 128.745 27.9192 128.017 28.2228C127.303 28.5263 126.499 28.6781 125.603 28.6781C124.723 28.6781 123.919 28.5263 123.19 28.2228C122.477 27.9192 121.862 27.4943 121.346 26.9479C120.83 26.3864 120.428 25.7186 120.14 24.9446C119.851 24.1554 119.707 23.2903 119.707 22.3494C119.707 21.4084 119.851 20.5509 120.14 19.7769C120.443 19.0029 120.853 18.3427 121.369 17.7964C121.9 17.25 122.523 16.825 123.236 16.5215C123.964 16.218 124.754 16.0662 125.603 16.0662C126.468 16.0662 127.258 16.218 127.971 16.5215C128.699 16.825 129.322 17.25 129.838 17.7964C130.354 18.3427 130.756 19.0029 131.044 19.7769C131.333 20.5509 131.477 21.4084 131.477 22.3494ZM128.017 22.3494C128.017 21.3022 127.804 20.4826 127.379 19.8907C126.969 19.2837 126.377 18.9801 125.603 18.9801C124.829 18.9801 124.23 19.2837 123.805 19.8907C123.38 20.4826 123.168 21.3022 123.168 22.3494C123.168 23.3966 123.38 24.2313 123.805 24.8535C124.23 25.4606 124.829 25.7642 125.603 25.7642C126.377 25.7642 126.969 25.4606 127.379 24.8535C127.804 24.2313 128.017 23.3966 128.017 22.3494ZM138.68 25.9918C139.014 25.9918 139.333 25.9842 139.636 25.969C139.94 25.9539 140.183 25.9311 140.365 25.9007V23.3283C140.228 23.2979 140.023 23.2676 139.75 23.2372C139.477 23.2069 139.227 23.1917 138.999 23.1917C138.68 23.1917 138.377 23.2145 138.088 23.26C137.815 23.2903 137.572 23.3586 137.36 23.4649C137.147 23.5711 136.98 23.7153 136.859 23.8974C136.738 24.0795 136.677 24.3072 136.677 24.5804C136.677 25.1116 136.851 25.4834 137.2 25.6959C137.565 25.8932 138.058 25.9918 138.68 25.9918ZM138.407 16.0662C139.409 16.0662 140.243 16.18 140.911 16.4077C141.579 16.6353 142.11 16.9616 142.505 17.3866C142.915 17.8115 143.203 18.3275 143.37 18.9346C143.537 19.5417 143.62 20.217 143.62 20.9607V28.0179C143.135 28.1241 142.459 28.2455 141.594 28.3821C140.729 28.5339 139.682 28.6098 138.453 28.6098C137.679 28.6098 136.973 28.5415 136.335 28.4049C135.713 28.2683 135.174 28.0483 134.719 27.7447C134.264 27.426 133.915 27.0162 133.672 26.5154C133.429 26.0146 133.308 25.3999 133.308 24.6714C133.308 23.9733 133.444 23.3814 133.717 22.8957C134.006 22.4101 134.385 22.0231 134.856 21.7347C135.326 21.4464 135.865 21.2415 136.472 21.1201C137.079 20.9835 137.709 20.9152 138.361 20.9152C138.802 20.9152 139.189 20.9379 139.523 20.9835C139.872 21.0138 140.152 21.0594 140.365 21.1201V20.8014C140.365 20.2246 140.19 19.7617 139.841 19.4127C139.492 19.0636 138.885 18.8891 138.02 18.8891C137.443 18.8891 136.874 18.9346 136.313 19.0257C135.751 19.1016 135.265 19.2154 134.856 19.3672L134.423 16.6353C134.62 16.5746 134.863 16.5139 135.152 16.4532C135.455 16.3773 135.781 16.3166 136.131 16.2711C136.48 16.2104 136.844 16.1649 137.223 16.1345C137.618 16.089 138.012 16.0662 138.407 16.0662ZM153.904 19.3899C153.6 19.314 153.244 19.2381 152.834 19.1623C152.424 19.0712 151.984 19.0257 151.514 19.0257C151.301 19.0257 151.043 19.0484 150.74 19.094C150.451 19.1243 150.231 19.1623 150.079 19.2078V28.3594H146.687V17.0223C147.295 16.8099 148.008 16.6126 148.827 16.4305C149.662 16.2332 150.588 16.1345 151.605 16.1345C151.787 16.1345 152.007 16.1497 152.265 16.18C152.523 16.1952 152.781 16.2256 153.039 16.2711C153.297 16.3014 153.555 16.347 153.813 16.4077C154.071 16.4532 154.291 16.5139 154.473 16.5898L153.904 19.3899ZM158.96 22.2811C158.96 23.3283 159.196 24.1706 159.666 24.808C160.137 25.4454 160.835 25.7642 161.76 25.7642C162.064 25.7642 162.345 25.7566 162.603 25.7414C162.861 25.711 163.073 25.6807 163.24 25.6503V19.481C163.028 19.3444 162.747 19.2306 162.398 19.1395C162.064 19.0484 161.723 19.0029 161.373 19.0029C159.765 19.0029 158.96 20.0956 158.96 22.2811ZM166.632 27.9724C166.329 28.0634 165.98 28.1545 165.585 28.2455C165.19 28.3214 164.773 28.3897 164.333 28.4504C163.908 28.5111 163.468 28.5567 163.013 28.587C162.572 28.6326 162.147 28.6553 161.738 28.6553C160.751 28.6553 159.871 28.5111 159.097 28.2228C158.323 27.9344 157.67 27.5247 157.139 26.9935C156.608 26.4471 156.198 25.7945 155.91 25.0357C155.637 24.2617 155.5 23.3966 155.5 22.4404C155.5 21.4691 155.621 20.5965 155.864 19.8225C156.107 19.0333 156.456 18.3655 156.911 17.8191C157.367 17.2728 157.921 16.8554 158.573 16.567C159.241 16.2787 160 16.1345 160.85 16.1345C161.32 16.1345 161.738 16.18 162.102 16.2711C162.481 16.3622 162.861 16.4912 163.24 16.6581V11.24L166.632 10.6936V27.9724Z" fill="white"/>
</svg>
