<svg width="93" height="141" viewBox="0 0 93 141" fill="none" xmlns="http://www.w3.org/2000/svg">
<g filter="url(#filter0_d_4591_1694)">
<path d="M56.3159 57.0372L27.2609 -18H16.1138C15.0092 -18 13.9887 -17.4109 13.4364 -16.4542L10.4142 -11.2196C9.94608 -10.4089 9.87079 -9.43002 10.2085 -8.55726L35.607 57.0372H56.3159Z" fill="#6812B2"/>
<path d="M43.3442 57.0372L17.9458 -8.55726C17.6078 -9.43002 17.6831 -10.4089 18.1512 -11.2196L21.1734 -16.4542C21.7257 -17.4109 22.7467 -18 23.8511 -18H16.1142C15.0093 -18 13.9886 -17.4109 13.4362 -16.4542L10.4143 -11.2196C9.94619 -10.4089 9.87065 -9.43002 10.2086 -8.55726L35.6068 57.0372H43.3442Z" fill="#460182"/>
<path d="M82.5853 -11.2196L79.5631 -16.4542C79.0108 -17.4109 77.9901 -18 76.8857 -18H65.7385L36.6836 57.0372H57.3923L82.7909 -8.55726C83.1287 -9.43002 83.0534 -10.4089 82.5853 -11.2196Z" fill="#3D0072" fill-opacity="0.88"/>
<path d="M44.5114 57.0372L73.5664 -18H65.7385L36.6836 57.0372H44.5114Z" fill="#6812B2"/>
<path d="M48.1139 73.5158C52.9786 73.5158 57.5843 75.6219 61.6869 77.6255V57.0184C61.6869 55.6525 60.5793 54.5452 59.2134 54.5452H37.0145C35.6486 54.5452 34.541 55.6525 34.541 57.0184V77.6255C38.6435 75.6219 43.2493 73.5158 48.1139 73.5158Z" fill="#FFD00D"/>
<path d="M45.022 57.0164C45.022 55.6505 46.1293 54.543 47.4952 54.543H37.014C35.6481 54.543 34.541 55.6505 34.541 57.0164V80.715C37.7631 79.1415 41.2972 78.1122 45.022 77.7417V57.0164Z" fill="#FFD00D"/>
<path d="M48.1021 61.8228C65.4141 61.8228 79.4484 75.8568 79.4484 93.169C79.4484 110.481 65.4141 124.515 48.1021 124.515C30.7902 124.515 16.7559 110.481 16.7559 93.169C16.7559 75.8568 30.7902 61.8228 48.1021 61.8228Z" fill="#FFC727"/>
<path d="M47.35 68.124C61.181 68.124 72.3933 79.3363 72.3933 93.1674C72.3933 106.998 61.181 118.211 47.35 118.211C33.5189 118.211 22.3066 106.998 22.3066 93.1674C22.3066 79.3363 33.5189 68.124 47.35 68.124Z" fill="#FFE166"/>
<path d="M45.254 84.169C45.2585 85.8247 45.2585 87.4804 45.263 89.136C45.2675 90.5632 44.7836 91.9535 43.4153 92.6823C41.8129 93.5286 39.5422 93.3154 37.7553 93.137C37.6877 93.1327 37.6247 93.124 37.5617 93.1196C37.6202 91.9274 37.5977 90.7242 37.5392 89.5363C37.4627 87.9264 38.4732 86.0074 40.2601 85.7355C42.2023 85.4396 43.8902 85.2394 44.8061 84.2038C44.8376 84.1734 44.8646 84.1429 44.8916 84.1081C45.0267 83.9319 45.1707 83.76 45.3147 83.5881C45.2697 83.7752 45.254 83.9732 45.254 84.169Z" fill="#FFD00D"/>
<path d="M39.377 103.918C40.7138 104.001 42.0596 103.981 43.3986 104.003C44.9605 104.029 46.5584 104.216 48.0662 103.951C50.2289 103.57 52.6617 102.206 53.4652 100.185C54.2101 98.314 53.859 96.0796 52.5762 94.5088C52.4862 94.4 52.3917 94.2956 52.2882 94.1911C50.9919 92.8205 48.9799 92.1047 47.0692 92.3505C44.6904 92.6551 42.5952 94.4631 41.9785 96.7018C41.5937 98.0986 41.929 99.5867 41.704 101.01C41.5194 102.189 40.4797 103.396 39.377 103.918Z" fill="#FFD00D"/>
<path d="M52.7411 78.8325C52.6219 79.1828 52.7659 79.5635 52.9212 79.9008C54.9039 84.1781 60.2219 87.0717 60.0396 92.2083C59.9563 94.5319 58.7568 97.2624 56.7516 98.6395C56.6053 98.7396 56.4725 98.8288 56.3015 98.8745C55.9189 98.1826 55.8784 97.1688 55.552 96.4052C55.1447 95.4479 54.6046 94.5058 53.8506 93.7639C53.1282 93.0547 52.2235 92.6456 51.5011 91.9494C49.9843 90.4852 49.0278 88.4771 48.9018 86.4059C48.7172 83.4514 50.2453 80.5208 52.7411 78.8325Z" fill="#FFD00D"/>
<path d="M38.9361 89.1492C38.9361 89.1492 38.8664 87.859 40.2324 87.9243C40.2347 87.9243 40.7321 89.3341 38.9361 89.1492Z" fill="#F5F2EC"/>
<path d="M38.4925 100.061C39.7429 100.061 40.7566 99.0811 40.7566 97.8723C40.7566 96.6635 39.7429 95.6836 38.4925 95.6836C37.2422 95.6836 36.2285 96.6635 36.2285 97.8723C36.2285 99.0811 37.2422 100.061 38.4925 100.061Z" fill="#FFD00D"/>
</g>
<defs>
<filter id="filter0_d_4591_1694" x="0.266648" y="-21.65" width="92.4667" height="161.982" filterUnits="userSpaceOnUse" color-interpolation-filters="sRGB">
<feFlood flood-opacity="0" result="BackgroundImageFix"/>
<feColorMatrix in="SourceAlpha" type="matrix" values="0 0 0 0 0 0 0 0 0 0 0 0 0 0 0 0 0 0 127 0" result="hardAlpha"/>
<feOffset dy="6.08334"/>
<feGaussianBlur stdDeviation="4.86668"/>
<feComposite in2="hardAlpha" operator="out"/>
<feColorMatrix type="matrix" values="0 0 0 0 0.2125 0 0 0 0 0.2125 0 0 0 0 0.2125 0 0 0 0.1 0"/>
<feBlend mode="normal" in2="BackgroundImageFix" result="effect1_dropShadow_4591_1694"/>
<feBlend mode="normal" in="SourceGraphic" in2="effect1_dropShadow_4591_1694" result="shape"/>
</filter>
</defs>
</svg>
