<svg width="37" height="38" viewBox="0 0 37 38" fill="none" xmlns="http://www.w3.org/2000/svg">
<ellipse cx="18.5" cy="18.647" rx="18.5" ry="18.648" fill="#E9D6FA"/>
<g filter="url(#filter0_i_2660_74519)">
<rect x="7.03906" y="10.5547" width="23.4566" height="15.4813" rx="2.11109" fill="#8807F7"/>
<g clip-path="url(#clip0_2660_74519)">
<path d="M15.7158 20.8168L14.8235 21.3544C14.7841 21.3795 14.7429 21.3902 14.6999 21.3866C14.6569 21.3831 14.6193 21.3687 14.587 21.3436C14.5547 21.3186 14.5297 21.2872 14.5117 21.2497C14.4938 21.212 14.4902 21.1698 14.501 21.1232L14.7375 20.1073L13.9473 19.4246C13.9115 19.3923 13.8891 19.3556 13.8802 19.3143C13.8712 19.2732 13.8739 19.2329 13.8882 19.1935C13.9025 19.154 13.924 19.1218 13.9527 19.0967C13.9814 19.0716 14.0208 19.0555 14.071 19.0483L15.1138 18.9569L15.517 18.0001C15.5349 17.9571 15.5627 17.9248 15.6004 17.9033C15.6379 17.8818 15.6764 17.8711 15.7158 17.8711C15.7553 17.8711 15.7938 17.8818 15.8315 17.9033C15.8691 17.9248 15.8968 17.9571 15.9147 18.0001L16.3179 18.9569L17.3607 19.0483C17.4109 19.0555 17.4503 19.0716 17.479 19.0967C17.5077 19.1218 17.5292 19.154 17.5435 19.1935C17.5578 19.2329 17.5606 19.2732 17.5517 19.3143C17.5426 19.3556 17.5202 19.3923 17.4844 19.4246L16.6942 20.1073L16.9307 21.1232C16.9415 21.1698 16.9379 21.212 16.92 21.2497C16.902 21.2872 16.8769 21.3186 16.8447 21.3436C16.8124 21.3687 16.7748 21.3831 16.7318 21.3866C16.6888 21.3902 16.6476 21.3795 16.6082 21.3544L15.7158 20.8168Z" fill="#FEF5FC"/>
</g>
<path d="M19.7076 17.6875L18.2474 18.5671C18.1829 18.6082 18.1155 18.6258 18.0451 18.6199C17.9748 18.614 17.9132 18.5906 17.8604 18.5495C17.8076 18.5085 17.7666 18.4572 17.7373 18.3958C17.7079 18.3341 17.7021 18.2651 17.7197 18.1889L18.1067 16.5264L16.8137 15.4093C16.755 15.3565 16.7184 15.2963 16.7039 15.2288C16.6891 15.1615 16.6934 15.0956 16.7169 15.0311C16.7404 14.9666 16.7755 14.9138 16.8225 14.8727C16.8694 14.8317 16.9339 14.8053 17.016 14.7936L18.7224 14.644L19.3822 13.0783C19.4115 13.0079 19.457 12.9551 19.5187 12.92C19.5801 12.8848 19.6431 12.8672 19.7076 12.8672C19.7721 12.8672 19.8352 12.8848 19.8969 12.92C19.9584 12.9551 20.0037 13.0079 20.0331 13.0783L20.6928 14.644L22.3993 14.7936C22.4813 14.8053 22.5459 14.8317 22.5928 14.8727C22.6397 14.9138 22.6749 14.9666 22.6983 15.0311C22.7218 15.0956 22.7262 15.1615 22.7117 15.2288C22.6969 15.2963 22.6602 15.3565 22.6016 15.4093L21.3085 16.5264L21.6956 18.1889C21.7131 18.2651 21.7073 18.3341 21.678 18.3958C21.6486 18.4572 21.6076 18.5085 21.5548 18.5495C21.502 18.5906 21.4405 18.614 21.3701 18.6199C21.2997 18.6258 21.2323 18.6082 21.1678 18.5671L19.7076 17.6875Z" fill="#FEF5FC"/>
<path d="M19.4658 22.2241L18.5735 22.7616C18.5341 22.7867 18.4929 22.7975 18.4499 22.7939C18.4069 22.7903 18.3693 22.776 18.337 22.7509C18.3047 22.7258 18.2797 22.6945 18.2617 22.6569C18.2438 22.6192 18.2402 22.5771 18.251 22.5305L18.4875 21.5145L17.6973 20.8318C17.6615 20.7996 17.6391 20.7628 17.6302 20.7215C17.6212 20.6804 17.6239 20.6401 17.6382 20.6007C17.6525 20.5613 17.674 20.529 17.7027 20.5039C17.7314 20.4788 17.7708 20.4627 17.821 20.4555L18.8638 20.3642L19.267 19.4073C19.2849 19.3643 19.3127 19.3321 19.3504 19.3106C19.3879 19.2891 19.4264 19.2783 19.4658 19.2783C19.5053 19.2783 19.5438 19.2891 19.5815 19.3106C19.6191 19.3321 19.6468 19.3643 19.6647 19.4073L20.0679 20.3642L21.1107 20.4555C21.1609 20.4627 21.2003 20.4788 21.229 20.5039C21.2577 20.529 21.2792 20.5613 21.2935 20.6007C21.3078 20.6401 21.3106 20.6804 21.3017 20.7215C21.2926 20.7628 21.2702 20.7996 21.2344 20.8318L20.4442 21.5145L20.6807 22.5305C20.6915 22.5771 20.6879 22.6192 20.67 22.6569C20.652 22.6945 20.6269 22.7258 20.5947 22.7509C20.5624 22.776 20.5248 22.7903 20.4818 22.7939C20.4388 22.7975 20.3976 22.7867 20.3582 22.7616L19.4658 22.2241Z" fill="#FEF5FC"/>
</g>
<defs>
<filter id="filter0_i_2660_74519" x="7.03906" y="3.11285" width="23.4531" height="22.9233" filterUnits="userSpaceOnUse" color-interpolation-filters="sRGB">
<feFlood flood-opacity="0" result="BackgroundImageFix"/>
<feBlend mode="normal" in="SourceGraphic" in2="BackgroundImageFix" result="shape"/>
<feColorMatrix in="SourceAlpha" type="matrix" values="0 0 0 0 0 0 0 0 0 0 0 0 0 0 0 0 0 0 127 0" result="hardAlpha"/>
<feOffset dy="-7.44184"/>
<feGaussianBlur stdDeviation="3.72092"/>
<feComposite in2="hardAlpha" operator="arithmetic" k2="-1" k3="1"/>
<feColorMatrix type="matrix" values="0 0 0 0 0.791667 0 0 0 0 0.791667 0 0 0 0 0.791667 0 0 0 0.25 0"/>
<feBlend mode="normal" in2="shape" result="effect1_innerShadow_2660_74519"/>
</filter>
<clipPath id="clip0_2660_74519">
<rect width="5.16044" height="5.16044" fill="white" transform="translate(13.1328 16.8867)"/>
</clipPath>
</defs>
</svg>
