<svg width="630" height="220" viewBox="0 0 630 220" fill="none" xmlns="http://www.w3.org/2000/svg">
<g clip-path="url(#clip0_3956_72701)">
<rect width="630" height="240" rx="10" fill="#F9F9F9"/>
<circle cx="560" cy="36" r="7" fill="#8807F7"/>
<path d="M578.012 38.872C578.556 38.872 578.952 38.78 579.2 38.596C579.448 38.412 579.572 38.152 579.572 37.816C579.572 37.616 579.528 37.444 579.44 37.3C579.36 37.156 579.24 37.028 579.08 36.916C578.928 36.796 578.74 36.688 578.516 36.592C578.292 36.488 578.036 36.388 577.748 36.292C577.46 36.188 577.18 36.076 576.908 35.956C576.644 35.828 576.408 35.672 576.2 35.488C576 35.304 575.836 35.084 575.708 34.828C575.588 34.572 575.528 34.264 575.528 33.904C575.528 33.152 575.788 32.564 576.308 32.14C576.828 31.708 577.536 31.492 578.432 31.492C578.952 31.492 579.412 31.552 579.812 31.672C580.22 31.784 580.54 31.908 580.772 32.044L580.304 33.268C580.032 33.116 579.732 33 579.404 32.92C579.084 32.84 578.752 32.8 578.408 32.8C578 32.8 577.68 32.884 577.448 33.052C577.224 33.22 577.112 33.456 577.112 33.76C577.112 33.944 577.148 34.104 577.22 34.24C577.3 34.368 577.408 34.484 577.544 34.588C577.688 34.692 577.852 34.788 578.036 34.876C578.228 34.964 578.436 35.048 578.66 35.128C579.052 35.272 579.4 35.42 579.704 35.572C580.016 35.716 580.276 35.892 580.484 36.1C580.7 36.3 580.864 36.54 580.976 36.82C581.088 37.092 581.144 37.424 581.144 37.816C581.144 38.568 580.876 39.152 580.34 39.568C579.812 39.976 579.036 40.18 578.012 40.18C577.668 40.18 577.352 40.156 577.064 40.108C576.784 40.068 576.532 40.016 576.308 39.952C576.092 39.888 575.904 39.824 575.744 39.76C575.584 39.688 575.456 39.624 575.36 39.568L575.804 38.332C576.02 38.452 576.312 38.572 576.68 38.692C577.048 38.812 577.492 38.872 578.012 38.872ZM584.612 38.98C585.06 38.98 585.4 38.956 585.632 38.908V37.3C585.552 37.276 585.436 37.252 585.284 37.228C585.132 37.204 584.964 37.192 584.78 37.192C584.62 37.192 584.456 37.204 584.288 37.228C584.128 37.252 583.98 37.296 583.844 37.36C583.716 37.424 583.612 37.516 583.532 37.636C583.452 37.748 583.412 37.892 583.412 38.068C583.412 38.412 583.52 38.652 583.736 38.788C583.952 38.916 584.244 38.98 584.612 38.98ZM584.492 33.568C584.972 33.568 585.376 33.628 585.704 33.748C586.032 33.868 586.292 34.036 586.484 34.252C586.684 34.468 586.824 34.732 586.904 35.044C586.992 35.348 587.036 35.684 587.036 36.052V39.856C586.812 39.904 586.472 39.96 586.016 40.024C585.568 40.096 585.06 40.132 584.492 40.132C584.116 40.132 583.772 40.096 583.46 40.024C583.148 39.952 582.88 39.836 582.656 39.676C582.44 39.516 582.268 39.308 582.14 39.052C582.02 38.796 581.96 38.48 581.96 38.104C581.96 37.744 582.028 37.44 582.164 37.192C582.308 36.944 582.5 36.744 582.74 36.592C582.98 36.432 583.256 36.32 583.568 36.256C583.888 36.184 584.22 36.148 584.564 36.148C584.724 36.148 584.892 36.16 585.068 36.184C585.244 36.2 585.432 36.232 585.632 36.28V36.04C585.632 35.872 585.612 35.712 585.572 35.56C585.532 35.408 585.46 35.276 585.356 35.164C585.26 35.044 585.128 34.952 584.96 34.888C584.8 34.824 584.596 34.792 584.348 34.792C584.012 34.792 583.704 34.816 583.424 34.864C583.144 34.912 582.916 34.968 582.74 35.032L582.56 33.856C582.744 33.792 583.012 33.728 583.364 33.664C583.716 33.6 584.092 33.568 584.492 33.568ZM590.27 40C589.87 39.176 589.458 38.232 589.034 37.168C588.618 36.096 588.238 34.948 587.894 33.724H589.442C589.53 34.076 589.63 34.456 589.742 34.864C589.862 35.264 589.986 35.668 590.114 36.076C590.25 36.476 590.386 36.868 590.522 37.252C590.666 37.628 590.798 37.968 590.918 38.272C591.038 37.968 591.166 37.628 591.302 37.252C591.438 36.868 591.57 36.476 591.698 36.076C591.834 35.668 591.962 35.264 592.082 34.864C592.202 34.456 592.306 34.076 592.394 33.724H593.894C593.55 34.948 593.166 36.096 592.742 37.168C592.326 38.232 591.918 39.176 591.518 40H590.27ZM594.49 36.892C594.49 36.34 594.57 35.856 594.73 35.44C594.898 35.024 595.118 34.68 595.39 34.408C595.662 34.128 595.974 33.92 596.326 33.784C596.678 33.64 597.038 33.568 597.406 33.568C598.27 33.568 598.942 33.836 599.422 34.372C599.91 34.908 600.154 35.708 600.154 36.772C600.154 36.852 600.15 36.944 600.142 37.048C600.142 37.144 600.138 37.232 600.13 37.312H595.99C596.03 37.816 596.206 38.208 596.518 38.488C596.838 38.76 597.298 38.896 597.898 38.896C598.25 38.896 598.57 38.864 598.858 38.8C599.154 38.736 599.386 38.668 599.554 38.596L599.746 39.784C599.666 39.824 599.554 39.868 599.41 39.916C599.274 39.956 599.114 39.992 598.93 40.024C598.754 40.064 598.562 40.096 598.354 40.12C598.146 40.144 597.934 40.156 597.718 40.156C597.166 40.156 596.686 40.076 596.278 39.916C595.87 39.748 595.534 39.52 595.27 39.232C595.006 38.936 594.81 38.592 594.682 38.2C594.554 37.8 594.49 37.364 594.49 36.892ZM598.702 36.244C598.702 36.044 598.674 35.856 598.618 35.68C598.562 35.496 598.478 35.34 598.366 35.212C598.262 35.076 598.13 34.972 597.97 34.9C597.818 34.82 597.634 34.78 597.418 34.78C597.194 34.78 596.998 34.824 596.83 34.912C596.662 34.992 596.518 35.1 596.398 35.236C596.286 35.372 596.198 35.528 596.134 35.704C596.07 35.88 596.026 36.06 596.002 36.244H598.702Z" fill="#3D0072"/>
<circle cx="471" cy="37" r="7" fill="#E8356D"/>
<path d="M469.829 37.4497L473.762 33.5163C473.884 33.3941 474.04 33.333 474.229 33.333C474.418 33.333 474.573 33.3941 474.695 33.5163C474.818 33.6386 474.879 33.7941 474.879 33.983C474.879 34.1719 474.818 34.3275 474.695 34.4497L470.295 38.8497C470.162 38.983 470.006 39.0497 469.829 39.0497C469.651 39.0497 469.495 38.983 469.362 38.8497L467.629 37.1163C467.506 36.9941 467.445 36.8386 467.445 36.6497C467.445 36.4608 467.506 36.3052 467.629 36.183C467.751 36.0608 467.906 35.9997 468.095 35.9997C468.284 35.9997 468.44 36.0608 468.562 36.183L469.829 37.4497Z" fill="white"/>
<path d="M488.012 39.872C488.556 39.872 488.952 39.78 489.2 39.596C489.448 39.412 489.572 39.152 489.572 38.816C489.572 38.616 489.528 38.444 489.44 38.3C489.36 38.156 489.24 38.028 489.08 37.916C488.928 37.796 488.74 37.688 488.516 37.592C488.292 37.488 488.036 37.388 487.748 37.292C487.46 37.188 487.18 37.076 486.908 36.956C486.644 36.828 486.408 36.672 486.2 36.488C486 36.304 485.836 36.084 485.708 35.828C485.588 35.572 485.528 35.264 485.528 34.904C485.528 34.152 485.788 33.564 486.308 33.14C486.828 32.708 487.536 32.492 488.432 32.492C488.952 32.492 489.412 32.552 489.812 32.672C490.22 32.784 490.54 32.908 490.772 33.044L490.304 34.268C490.032 34.116 489.732 34 489.404 33.92C489.084 33.84 488.752 33.8 488.408 33.8C488 33.8 487.68 33.884 487.448 34.052C487.224 34.22 487.112 34.456 487.112 34.76C487.112 34.944 487.148 35.104 487.22 35.24C487.3 35.368 487.408 35.484 487.544 35.588C487.688 35.692 487.852 35.788 488.036 35.876C488.228 35.964 488.436 36.048 488.66 36.128C489.052 36.272 489.4 36.42 489.704 36.572C490.016 36.716 490.276 36.892 490.484 37.1C490.7 37.3 490.864 37.54 490.976 37.82C491.088 38.092 491.144 38.424 491.144 38.816C491.144 39.568 490.876 40.152 490.34 40.568C489.812 40.976 489.036 41.18 488.012 41.18C487.668 41.18 487.352 41.156 487.064 41.108C486.784 41.068 486.532 41.016 486.308 40.952C486.092 40.888 485.904 40.824 485.744 40.76C485.584 40.688 485.456 40.624 485.36 40.568L485.804 39.332C486.02 39.452 486.312 39.572 486.68 39.692C487.048 39.812 487.492 39.872 488.012 39.872ZM496.568 37.892C496.568 37.244 496.42 36.74 496.124 36.38C495.836 36.02 495.368 35.84 494.72 35.84C494.584 35.84 494.44 35.848 494.288 35.864C494.144 35.872 494 35.896 493.856 35.936V39.524C493.984 39.612 494.152 39.696 494.36 39.776C494.576 39.848 494.804 39.884 495.044 39.884C495.572 39.884 495.956 39.704 496.196 39.344C496.444 38.984 496.568 38.5 496.568 37.892ZM498.056 37.868C498.056 38.348 497.992 38.788 497.864 39.188C497.744 39.588 497.568 39.932 497.336 40.22C497.104 40.508 496.812 40.732 496.46 40.892C496.116 41.052 495.724 41.132 495.284 41.132C494.988 41.132 494.716 41.096 494.468 41.024C494.22 40.952 494.016 40.872 493.856 40.784V43.22H492.404V34.928C492.7 34.848 493.064 34.772 493.496 34.7C493.928 34.628 494.384 34.592 494.864 34.592C495.36 34.592 495.804 34.668 496.196 34.82C496.588 34.972 496.92 35.192 497.192 35.48C497.472 35.76 497.684 36.104 497.828 36.512C497.98 36.912 498.056 37.364 498.056 37.868ZM499.205 37.892C499.205 37.34 499.285 36.856 499.445 36.44C499.613 36.024 499.833 35.68 500.105 35.408C500.377 35.128 500.689 34.92 501.041 34.784C501.393 34.64 501.753 34.568 502.121 34.568C502.985 34.568 503.657 34.836 504.137 35.372C504.625 35.908 504.869 36.708 504.869 37.772C504.869 37.852 504.865 37.944 504.857 38.048C504.857 38.144 504.853 38.232 504.845 38.312H500.705C500.745 38.816 500.921 39.208 501.233 39.488C501.553 39.76 502.013 39.896 502.613 39.896C502.965 39.896 503.285 39.864 503.573 39.8C503.869 39.736 504.101 39.668 504.269 39.596L504.461 40.784C504.381 40.824 504.269 40.868 504.125 40.916C503.989 40.956 503.829 40.992 503.645 41.024C503.469 41.064 503.277 41.096 503.069 41.12C502.861 41.144 502.649 41.156 502.433 41.156C501.881 41.156 501.401 41.076 500.993 40.916C500.585 40.748 500.249 40.52 499.985 40.232C499.721 39.936 499.525 39.592 499.397 39.2C499.269 38.8 499.205 38.364 499.205 37.892ZM503.417 37.244C503.417 37.044 503.389 36.856 503.333 36.68C503.277 36.496 503.193 36.34 503.081 36.212C502.977 36.076 502.845 35.972 502.685 35.9C502.533 35.82 502.349 35.78 502.133 35.78C501.909 35.78 501.713 35.824 501.545 35.912C501.377 35.992 501.233 36.1 501.113 36.236C501.001 36.372 500.913 36.528 500.849 36.704C500.785 36.88 500.741 37.06 500.717 37.244H503.417ZM506.408 34.928C506.688 34.848 507.052 34.772 507.5 34.7C507.948 34.628 508.444 34.592 508.988 34.592C509.5 34.592 509.928 34.664 510.272 34.808C510.616 34.944 510.888 35.14 511.088 35.396C511.296 35.644 511.44 35.948 511.52 36.308C511.608 36.66 511.652 37.048 511.652 37.472V41H510.2V37.7C510.2 37.364 510.176 37.08 510.128 36.848C510.088 36.608 510.016 36.416 509.912 36.272C509.816 36.12 509.68 36.012 509.504 35.948C509.336 35.876 509.128 35.84 508.88 35.84C508.696 35.84 508.504 35.852 508.304 35.876C508.104 35.9 507.956 35.92 507.86 35.936V41H506.408V34.928ZM514.568 37.844C514.568 38.484 514.72 38.988 515.024 39.356C515.328 39.716 515.748 39.896 516.284 39.896C516.516 39.896 516.712 39.888 516.872 39.872C517.04 39.848 517.176 39.824 517.28 39.8V36.2C517.152 36.112 516.98 36.032 516.764 35.96C516.556 35.88 516.332 35.84 516.092 35.84C515.564 35.84 515.176 36.02 514.928 36.38C514.688 36.74 514.568 37.228 514.568 37.844ZM518.732 40.808C518.444 40.896 518.08 40.976 517.64 41.048C517.208 41.12 516.752 41.156 516.272 41.156C515.776 41.156 515.332 41.08 514.94 40.928C514.548 40.776 514.212 40.56 513.932 40.28C513.66 39.992 513.448 39.648 513.296 39.248C513.152 38.84 513.08 38.384 513.08 37.88C513.08 37.384 513.14 36.936 513.26 36.536C513.388 36.128 513.572 35.78 513.812 35.492C514.052 35.204 514.344 34.984 514.688 34.832C515.032 34.672 515.428 34.592 515.876 34.592C516.18 34.592 516.448 34.628 516.68 34.7C516.912 34.772 517.112 34.852 517.28 34.94V31.928L518.732 31.688V40.808Z" fill="#3D0072"/>
<path d="M602 140.011C595.271 137.542 572.569 134.579 535.594 142.481C489.375 152.358 428.281 167.174 377.281 150.053C326.281 132.932 255.625 94.7399 24 156.638" stroke="#FF718B" stroke-width="2" stroke-linecap="round"/>
<path d="M537.249 142.6C574.416 134.736 597.236 137.685 604 140.143V213H23V156.691C255.827 95.0853 326.85 133.097 378.115 150.137C429.38 167.177 490.79 152.431 537.249 142.6Z" fill="url(#paint0_linear_3956_72701)"/>
<g filter="url(#filter0_d_3956_72701)">
<circle cx="279.732" cy="124.505" r="8.80203" fill="#FF718B"/>
<circle cx="279.732" cy="124.505" r="6.80203" stroke="white" stroke-width="4"/>
</g>
<path d="M604 144.847C584.45 125.401 524.55 96.258 441.354 135.257C337.36 184.007 287.295 160.291 220.77 138.332C154.245 116.372 95.9499 139.649 65.7737 151.946C35.5974 164.243 41.5 161 22.5 166" stroke="#8807F7" stroke-width="2" stroke-linecap="round"/>
<g filter="url(#filter1_d_3956_72701)">
<rect x="243" y="63" width="78" height="36" rx="5" fill="white"/>
</g>
<g filter="url(#filter2_d_3956_72701)">
<path d="M280 113L288.66 98H271.34L280 113Z" fill="white"/>
</g>
<path d="M257.3 77C257.164 76.772 257.012 76.528 256.844 76.268C256.676 76.004 256.502 75.74 256.322 75.476C256.142 75.208 255.958 74.95 255.77 74.702C255.586 74.45 255.41 74.224 255.242 74.024V77H254.498V72.842H255.116C255.276 73.01 255.448 73.21 255.632 73.442C255.816 73.67 256 73.908 256.184 74.156C256.372 74.404 256.552 74.654 256.724 74.906C256.9 75.154 257.056 75.386 257.192 75.602V72.842H257.942V77H257.3ZM261.741 75.428C261.741 75.676 261.705 75.902 261.633 76.106C261.561 76.31 261.459 76.484 261.327 76.628C261.195 76.772 261.035 76.884 260.847 76.964C260.663 77.044 260.459 77.084 260.235 77.084C260.011 77.084 259.807 77.044 259.623 76.964C259.439 76.884 259.281 76.772 259.149 76.628C259.017 76.484 258.913 76.31 258.837 76.106C258.765 75.902 258.729 75.676 258.729 75.428C258.729 75.18 258.765 74.956 258.837 74.756C258.913 74.552 259.017 74.378 259.149 74.234C259.285 74.09 259.445 73.98 259.629 73.904C259.813 73.824 260.015 73.784 260.235 73.784C260.455 73.784 260.657 73.824 260.841 73.904C261.029 73.98 261.189 74.09 261.321 74.234C261.453 74.378 261.555 74.552 261.627 74.756C261.703 74.956 261.741 75.18 261.741 75.428ZM260.997 75.428C260.997 75.116 260.929 74.87 260.793 74.69C260.661 74.506 260.475 74.414 260.235 74.414C259.995 74.414 259.807 74.506 259.671 74.69C259.539 74.87 259.473 75.116 259.473 75.428C259.473 75.744 259.539 75.994 259.671 76.178C259.807 76.362 259.995 76.454 260.235 76.454C260.475 76.454 260.661 76.362 260.793 76.178C260.929 75.994 260.997 75.744 260.997 75.428ZM263.223 77C263.023 76.588 262.817 76.116 262.605 75.584C262.397 75.048 262.207 74.474 262.035 73.862H262.809C262.853 74.038 262.903 74.228 262.959 74.432C263.019 74.632 263.081 74.834 263.145 75.038C263.213 75.238 263.281 75.434 263.349 75.626C263.421 75.814 263.487 75.984 263.547 76.136C263.607 75.984 263.671 75.814 263.739 75.626C263.807 75.434 263.873 75.238 263.937 75.038C264.005 74.834 264.069 74.632 264.129 74.432C264.189 74.228 264.241 74.038 264.285 73.862H265.035C264.863 74.474 264.671 75.048 264.459 75.584C264.251 76.116 264.047 76.588 263.847 77H263.223ZM269.402 73.922C269.402 74.066 269.372 74.208 269.312 74.348C269.252 74.484 269.174 74.618 269.078 74.75C268.986 74.878 268.88 75.004 268.76 75.128C268.64 75.248 268.52 75.366 268.4 75.482C268.336 75.542 268.264 75.614 268.184 75.698C268.104 75.782 268.028 75.866 267.956 75.95C267.884 76.034 267.822 76.116 267.77 76.196C267.718 76.272 267.69 76.336 267.686 76.388H269.534V77H266.888C266.884 76.968 266.882 76.93 266.882 76.886C266.882 76.838 266.882 76.802 266.882 76.778C266.882 76.586 266.912 76.41 266.972 76.25C267.036 76.086 267.118 75.934 267.218 75.794C267.318 75.654 267.43 75.522 267.554 75.398C267.678 75.274 267.802 75.152 267.926 75.032C268.022 74.94 268.114 74.85 268.202 74.762C268.29 74.674 268.366 74.588 268.43 74.504C268.498 74.416 268.552 74.328 268.592 74.24C268.632 74.148 268.652 74.054 268.652 73.958C268.652 73.75 268.592 73.602 268.472 73.514C268.352 73.426 268.206 73.382 268.034 73.382C267.922 73.382 267.818 73.398 267.722 73.43C267.626 73.462 267.54 73.5 267.464 73.544C267.392 73.588 267.328 73.634 267.272 73.682C267.216 73.726 267.174 73.762 267.146 73.79L266.786 73.28C266.954 73.12 267.15 72.992 267.374 72.896C267.602 72.796 267.846 72.746 268.106 72.746C268.55 72.746 268.876 72.852 269.084 73.064C269.296 73.272 269.402 73.558 269.402 73.922ZM273.076 74.918C273.076 75.618 272.948 76.156 272.692 76.532C272.436 76.904 272.082 77.09 271.63 77.09C271.178 77.09 270.824 76.904 270.568 76.532C270.312 76.156 270.184 75.618 270.184 74.918C270.184 74.57 270.216 74.262 270.28 73.994C270.348 73.722 270.444 73.494 270.568 73.31C270.696 73.126 270.848 72.986 271.024 72.89C271.204 72.794 271.406 72.746 271.63 72.746C272.082 72.746 272.436 72.934 272.692 73.31C272.948 73.682 273.076 74.218 273.076 74.918ZM272.326 74.918C272.326 74.702 272.314 74.5 272.29 74.312C272.266 74.124 272.226 73.962 272.17 73.826C272.118 73.686 272.048 73.576 271.96 73.496C271.872 73.416 271.762 73.376 271.63 73.376C271.498 73.376 271.386 73.416 271.294 73.496C271.206 73.576 271.134 73.686 271.078 73.826C271.026 73.962 270.988 74.124 270.964 74.312C270.944 74.5 270.934 74.702 270.934 74.918C270.934 75.134 270.944 75.336 270.964 75.524C270.988 75.712 271.026 75.876 271.078 76.016C271.134 76.152 271.206 76.26 271.294 76.34C271.386 76.42 271.498 76.46 271.63 76.46C271.762 76.46 271.872 76.42 271.96 76.34C272.048 76.26 272.118 76.152 272.17 76.016C272.226 75.876 272.266 75.712 272.29 75.524C272.314 75.336 272.326 75.134 272.326 74.918ZM276.222 73.922C276.222 74.066 276.192 74.208 276.132 74.348C276.072 74.484 275.994 74.618 275.898 74.75C275.806 74.878 275.7 75.004 275.58 75.128C275.46 75.248 275.34 75.366 275.22 75.482C275.156 75.542 275.084 75.614 275.004 75.698C274.924 75.782 274.848 75.866 274.776 75.95C274.704 76.034 274.642 76.116 274.59 76.196C274.538 76.272 274.51 76.336 274.506 76.388H276.354V77H273.708C273.704 76.968 273.702 76.93 273.702 76.886C273.702 76.838 273.702 76.802 273.702 76.778C273.702 76.586 273.732 76.41 273.792 76.25C273.856 76.086 273.938 75.934 274.038 75.794C274.138 75.654 274.25 75.522 274.374 75.398C274.498 75.274 274.622 75.152 274.746 75.032C274.842 74.94 274.934 74.85 275.022 74.762C275.11 74.674 275.186 74.588 275.25 74.504C275.318 74.416 275.372 74.328 275.412 74.24C275.452 74.148 275.472 74.054 275.472 73.958C275.472 73.75 275.412 73.602 275.292 73.514C275.172 73.426 275.026 73.382 274.854 73.382C274.742 73.382 274.638 73.398 274.542 73.43C274.446 73.462 274.36 73.5 274.284 73.544C274.212 73.588 274.148 73.634 274.092 73.682C274.036 73.726 273.994 73.762 273.966 73.79L273.606 73.28C273.774 73.12 273.97 72.992 274.194 72.896C274.422 72.796 274.666 72.746 274.926 72.746C275.37 72.746 275.696 72.852 275.904 73.064C276.116 73.272 276.222 73.558 276.222 73.922ZM279.632 73.922C279.632 74.066 279.602 74.208 279.542 74.348C279.482 74.484 279.404 74.618 279.308 74.75C279.216 74.878 279.11 75.004 278.99 75.128C278.87 75.248 278.75 75.366 278.63 75.482C278.566 75.542 278.494 75.614 278.414 75.698C278.334 75.782 278.258 75.866 278.186 75.95C278.114 76.034 278.052 76.116 278 76.196C277.948 76.272 277.92 76.336 277.916 76.388H279.764V77H277.118C277.114 76.968 277.112 76.93 277.112 76.886C277.112 76.838 277.112 76.802 277.112 76.778C277.112 76.586 277.142 76.41 277.202 76.25C277.266 76.086 277.348 75.934 277.448 75.794C277.548 75.654 277.66 75.522 277.784 75.398C277.908 75.274 278.032 75.152 278.156 75.032C278.252 74.94 278.344 74.85 278.432 74.762C278.52 74.674 278.596 74.588 278.66 74.504C278.728 74.416 278.782 74.328 278.822 74.24C278.862 74.148 278.882 74.054 278.882 73.958C278.882 73.75 278.822 73.602 278.702 73.514C278.582 73.426 278.436 73.382 278.264 73.382C278.152 73.382 278.048 73.398 277.952 73.43C277.856 73.462 277.77 73.5 277.694 73.544C277.622 73.588 277.558 73.634 277.502 73.682C277.446 73.726 277.404 73.762 277.376 73.79L277.016 73.28C277.184 73.12 277.38 72.992 277.604 72.896C277.832 72.796 278.076 72.746 278.336 72.746C278.78 72.746 279.106 72.852 279.314 73.064C279.526 73.272 279.632 73.558 279.632 73.922Z" fill="#9CA3AF"/>
<path d="M258.45 88C258.003 87.2067 257.52 86.4233 257 85.65C256.48 84.8767 255.927 84.1467 255.34 83.46V88H253.8V81.07H255.07C255.29 81.29 255.533 81.56 255.8 81.88C256.067 82.2 256.337 82.5433 256.61 82.91C256.89 83.27 257.167 83.6467 257.44 84.04C257.713 84.4267 257.97 84.8 258.21 85.16V81.07H259.76V88H258.45ZM264.739 82.27C264.012 82.27 263.485 82.4733 263.159 82.88C262.839 83.28 262.679 83.83 262.679 84.53C262.679 84.87 262.719 85.18 262.799 85.46C262.879 85.7333 262.999 85.97 263.159 86.17C263.319 86.37 263.519 86.5267 263.759 86.64C263.999 86.7467 264.279 86.8 264.599 86.8C264.772 86.8 264.919 86.7967 265.039 86.79C265.165 86.7833 265.275 86.77 265.369 86.75V84.34H266.929V87.77C266.742 87.8433 266.442 87.92 266.029 88C265.615 88.0867 265.105 88.13 264.499 88.13C263.979 88.13 263.505 88.05 263.079 87.89C262.659 87.73 262.299 87.4967 261.999 87.19C261.699 86.8833 261.465 86.5067 261.299 86.06C261.139 85.6133 261.059 85.1033 261.059 84.53C261.059 83.95 261.149 83.4367 261.329 82.99C261.509 82.5433 261.755 82.1667 262.069 81.86C262.382 81.5467 262.749 81.31 263.169 81.15C263.595 80.99 264.049 80.91 264.529 80.91C264.855 80.91 265.149 80.9333 265.409 80.98C265.675 81.02 265.902 81.07 266.089 81.13C266.282 81.1833 266.439 81.24 266.559 81.3C266.685 81.36 266.775 81.4067 266.829 81.44L266.379 82.69C266.165 82.5767 265.919 82.48 265.639 82.4C265.365 82.3133 265.065 82.27 264.739 82.27ZM273.03 88C272.583 87.2067 272.1 86.4233 271.58 85.65C271.06 84.8767 270.507 84.1467 269.92 83.46V88H268.38V81.07H269.65C269.87 81.29 270.113 81.56 270.38 81.88C270.647 82.2 270.917 82.5433 271.19 82.91C271.47 83.27 271.747 83.6467 272.02 84.04C272.293 84.4267 272.55 84.8 272.79 85.16V81.07H274.34V88H273.03ZM280.281 84.74C280.134 84.74 279.978 84.7533 279.811 84.78C279.644 84.8067 279.514 84.8433 279.421 84.89C279.421 84.9167 279.418 84.9567 279.411 85.01C279.411 85.0633 279.411 85.11 279.411 85.15C279.411 85.39 279.428 85.6167 279.461 85.83C279.494 86.0433 279.551 86.23 279.631 86.39C279.711 86.55 279.818 86.6767 279.951 86.77C280.084 86.8567 280.251 86.9 280.451 86.9C280.618 86.9 280.758 86.8667 280.871 86.8C280.991 86.7267 281.088 86.6367 281.161 86.53C281.241 86.4233 281.298 86.3067 281.331 86.18C281.371 86.0467 281.391 85.92 281.391 85.8C281.391 85.46 281.304 85.2 281.131 85.02C280.964 84.8333 280.681 84.74 280.281 84.74ZM280.471 83.58C280.904 83.58 281.271 83.64 281.571 83.76C281.878 83.8733 282.128 84.03 282.321 84.23C282.514 84.43 282.654 84.6633 282.741 84.93C282.828 85.1967 282.871 85.48 282.871 85.78C282.871 86.0467 282.821 86.32 282.721 86.6C282.628 86.88 282.481 87.1333 282.281 87.36C282.088 87.5867 281.838 87.7733 281.531 87.92C281.231 88.0667 280.874 88.14 280.461 88.14C279.628 88.14 278.994 87.8767 278.561 87.35C278.128 86.8233 277.911 86.0967 277.911 85.17C277.911 84.5033 278.014 83.9133 278.221 83.4C278.428 82.8867 278.721 82.4567 279.101 82.11C279.488 81.7567 279.951 81.49 280.491 81.31C281.038 81.1233 281.651 81.0267 282.331 81.02C282.344 81.2267 282.358 81.43 282.371 81.63C282.384 81.8233 282.398 82.0267 282.411 82.24C282.071 82.2467 281.751 82.28 281.451 82.34C281.158 82.3933 280.888 82.48 280.641 82.6C280.401 82.72 280.191 82.8767 280.011 83.07C279.831 83.2567 279.691 83.4867 279.591 83.76C279.738 83.6933 279.888 83.6467 280.041 83.62C280.194 83.5933 280.338 83.58 280.471 83.58ZM288.565 84.52C288.565 85.6867 288.341 86.5833 287.895 87.21C287.455 87.83 286.845 88.14 286.065 88.14C285.285 88.14 284.671 87.83 284.225 87.21C283.785 86.5833 283.565 85.6867 283.565 84.52C283.565 83.94 283.621 83.4267 283.735 82.98C283.855 82.5333 284.025 82.1567 284.245 81.85C284.465 81.5433 284.728 81.31 285.035 81.15C285.341 80.99 285.685 80.91 286.065 80.91C286.845 80.91 287.455 81.2233 287.895 81.85C288.341 82.47 288.565 83.36 288.565 84.52ZM287.045 84.52C287.045 84.1733 287.028 83.86 286.995 83.58C286.961 83.2933 286.908 83.0467 286.835 82.84C286.761 82.6333 286.661 82.4733 286.535 82.36C286.408 82.2467 286.251 82.19 286.065 82.19C285.878 82.19 285.721 82.2467 285.595 82.36C285.475 82.4733 285.375 82.6333 285.295 82.84C285.221 83.0467 285.168 83.2933 285.135 83.58C285.101 83.86 285.085 84.1733 285.085 84.52C285.085 84.8667 285.101 85.1833 285.135 85.47C285.168 85.7567 285.221 86.0033 285.295 86.21C285.375 86.4167 285.475 86.5767 285.595 86.69C285.721 86.8033 285.878 86.86 286.065 86.86C286.251 86.86 286.408 86.8033 286.535 86.69C286.661 86.5767 286.761 86.4167 286.835 86.21C286.908 86.0033 286.961 85.7567 286.995 85.47C287.028 85.1833 287.045 84.8667 287.045 84.52ZM291.018 86.48C291.032 86.64 291.038 86.7533 291.038 86.82C291.045 86.8867 291.048 86.9433 291.048 86.99C291.048 87.19 291.028 87.4033 290.988 87.63C290.955 87.85 290.905 88.0733 290.838 88.3C290.772 88.5267 290.688 88.7533 290.588 88.98C290.488 89.2067 290.375 89.4233 290.248 89.63L289.078 89.34C289.232 88.9 289.338 88.4867 289.398 88.1C289.458 87.7133 289.488 87.3933 289.488 87.14C289.488 87.1 289.485 87.05 289.478 86.99C289.478 86.9233 289.475 86.8567 289.468 86.79C289.468 86.7233 289.465 86.66 289.458 86.6C289.458 86.54 289.458 86.5 289.458 86.48H291.018ZM296.709 84.52C296.709 85.6867 296.486 86.5833 296.039 87.21C295.599 87.83 294.989 88.14 294.209 88.14C293.429 88.14 292.816 87.83 292.369 87.21C291.929 86.5833 291.709 85.6867 291.709 84.52C291.709 83.94 291.766 83.4267 291.879 82.98C291.999 82.5333 292.169 82.1567 292.389 81.85C292.609 81.5433 292.872 81.31 293.179 81.15C293.486 80.99 293.829 80.91 294.209 80.91C294.989 80.91 295.599 81.2233 296.039 81.85C296.486 82.47 296.709 83.36 296.709 84.52ZM295.189 84.52C295.189 84.1733 295.172 83.86 295.139 83.58C295.106 83.2933 295.052 83.0467 294.979 82.84C294.906 82.6333 294.806 82.4733 294.679 82.36C294.552 82.2467 294.396 82.19 294.209 82.19C294.022 82.19 293.866 82.2467 293.739 82.36C293.619 82.4733 293.519 82.6333 293.439 82.84C293.366 83.0467 293.312 83.2933 293.279 83.58C293.246 83.86 293.229 84.1733 293.229 84.52C293.229 84.8667 293.246 85.1833 293.279 85.47C293.312 85.7567 293.366 86.0033 293.439 86.21C293.519 86.4167 293.619 86.5767 293.739 86.69C293.866 86.8033 294.022 86.86 294.209 86.86C294.396 86.86 294.552 86.8033 294.679 86.69C294.806 86.5767 294.906 86.4167 294.979 86.21C295.052 86.0033 295.106 85.7567 295.139 85.47C295.172 85.1833 295.189 84.8667 295.189 84.52ZM302.393 84.52C302.393 85.6867 302.169 86.5833 301.723 87.21C301.283 87.83 300.673 88.14 299.893 88.14C299.113 88.14 298.499 87.83 298.053 87.21C297.613 86.5833 297.393 85.6867 297.393 84.52C297.393 83.94 297.449 83.4267 297.563 82.98C297.683 82.5333 297.853 82.1567 298.073 81.85C298.293 81.5433 298.556 81.31 298.863 81.15C299.169 80.99 299.513 80.91 299.893 80.91C300.673 80.91 301.283 81.2233 301.723 81.85C302.169 82.47 302.393 83.36 302.393 84.52ZM300.873 84.52C300.873 84.1733 300.856 83.86 300.823 83.58C300.789 83.2933 300.736 83.0467 300.663 82.84C300.589 82.6333 300.489 82.4733 300.363 82.36C300.236 82.2467 300.079 82.19 299.893 82.19C299.706 82.19 299.549 82.2467 299.423 82.36C299.303 82.4733 299.203 82.6333 299.123 82.84C299.049 83.0467 298.996 83.2933 298.963 83.58C298.929 83.86 298.913 84.1733 298.913 84.52C298.913 84.8667 298.929 85.1833 298.963 85.47C298.996 85.7567 299.049 86.0033 299.123 86.21C299.203 86.4167 299.303 86.5767 299.423 86.69C299.549 86.8033 299.706 86.86 299.893 86.86C300.079 86.86 300.236 86.8033 300.363 86.69C300.489 86.5767 300.589 86.4167 300.663 86.21C300.736 86.0033 300.789 85.7567 300.823 85.47C300.856 85.1833 300.873 84.8667 300.873 84.52ZM308.076 84.52C308.076 85.6867 307.853 86.5833 307.406 87.21C306.966 87.83 306.356 88.14 305.576 88.14C304.796 88.14 304.183 87.83 303.736 87.21C303.296 86.5833 303.076 85.6867 303.076 84.52C303.076 83.94 303.133 83.4267 303.246 82.98C303.366 82.5333 303.536 82.1567 303.756 81.85C303.976 81.5433 304.24 81.31 304.546 81.15C304.853 80.99 305.196 80.91 305.576 80.91C306.356 80.91 306.966 81.2233 307.406 81.85C307.853 82.47 308.076 83.36 308.076 84.52ZM306.556 84.52C306.556 84.1733 306.54 83.86 306.506 83.58C306.473 83.2933 306.42 83.0467 306.346 82.84C306.273 82.6333 306.173 82.4733 306.046 82.36C305.92 82.2467 305.763 82.19 305.576 82.19C305.39 82.19 305.233 82.2467 305.106 82.36C304.986 82.4733 304.886 82.6333 304.806 82.84C304.733 83.0467 304.68 83.2933 304.646 83.58C304.613 83.86 304.596 84.1733 304.596 84.52C304.596 84.8667 304.613 85.1833 304.646 85.47C304.68 85.7567 304.733 86.0033 304.806 86.21C304.886 86.4167 304.986 86.5767 305.106 86.69C305.233 86.8033 305.39 86.86 305.576 86.86C305.763 86.86 305.92 86.8033 306.046 86.69C306.173 86.5767 306.273 86.4167 306.346 86.21C306.42 86.0033 306.473 85.7567 306.506 85.47C306.54 85.1833 306.556 84.8667 306.556 84.52Z" fill="#3D0072"/>
<path d="M40.4238 39.6622L35.5929 44.4932L30.762 39.6622H40.4238Z" fill="#22C55E"/>
<path d="M53.2745 41.571C53.2745 42.9237 53.0271 43.9633 52.5324 44.6899C52.0378 45.4087 51.3537 45.7682 50.4803 45.7682C49.6068 45.7682 48.9228 45.4087 48.4281 44.6899C47.9334 43.9633 47.6861 42.9237 47.6861 41.571C47.6861 40.8986 47.7479 40.3034 47.8716 39.7855C48.003 39.2599 48.1885 38.8193 48.4281 38.4638C48.6754 38.1082 48.9691 37.8377 49.3092 37.6522C49.6571 37.4667 50.0474 37.3739 50.4803 37.3739C51.3537 37.3739 52.0378 37.7372 52.5324 38.4638C53.0271 39.1826 53.2745 40.2184 53.2745 41.571ZM51.8252 41.571C51.8252 41.1536 51.802 40.7633 51.7556 40.4C51.7093 40.0367 51.632 39.7237 51.5237 39.4609C51.4233 39.1904 51.288 38.9778 51.1179 38.8232C50.9479 38.6686 50.7353 38.5913 50.4803 38.5913C50.2252 38.5913 50.0088 38.6686 49.831 38.8232C49.6609 38.9778 49.5218 39.1904 49.4136 39.4609C49.3131 39.7237 49.2397 40.0367 49.1933 40.4C49.1547 40.7633 49.1353 41.1536 49.1353 41.571C49.1353 41.9884 49.1547 42.3788 49.1933 42.7421C49.2397 43.1053 49.3131 43.4223 49.4136 43.6928C49.5218 43.9556 49.6609 44.1643 49.831 44.3189C50.0088 44.4735 50.2252 44.5508 50.4803 44.5508C50.7353 44.5508 50.9479 44.4735 51.1179 44.3189C51.288 44.1643 51.4233 43.9556 51.5237 43.6928C51.632 43.4223 51.7093 43.1053 51.7556 42.7421C51.802 42.3788 51.8252 41.9884 51.8252 41.571ZM56.2468 44.829C56.2468 45.0996 56.154 45.3198 55.9685 45.4899C55.7907 45.6599 55.5743 45.745 55.3192 45.745C55.0564 45.745 54.8361 45.6599 54.6584 45.4899C54.4806 45.3198 54.3917 45.0996 54.3917 44.829C54.3917 44.5585 54.4806 44.3382 54.6584 44.1681C54.8361 43.9904 55.0564 43.9015 55.3192 43.9015C55.5743 43.9015 55.7907 43.9904 55.9685 44.1681C56.154 44.3382 56.2468 44.5585 56.2468 44.829ZM62.9439 41.571C62.9439 42.9237 62.6965 43.9633 62.2019 44.6899C61.7072 45.4087 61.0231 45.7682 60.1497 45.7682C59.2762 45.7682 58.5922 45.4087 58.0975 44.6899C57.6028 43.9633 57.3555 42.9237 57.3555 41.571C57.3555 40.8986 57.4173 40.3034 57.541 39.7855C57.6724 39.2599 57.8579 38.8193 58.0975 38.4638C58.3448 38.1082 58.6386 37.8377 58.9787 37.6522C59.3265 37.4667 59.7168 37.3739 60.1497 37.3739C61.0231 37.3739 61.7072 37.7372 62.2019 38.4638C62.6965 39.1826 62.9439 40.2184 62.9439 41.571ZM61.4946 41.571C61.4946 41.1536 61.4714 40.7633 61.425 40.4C61.3787 40.0367 61.3014 39.7237 61.1932 39.4609C61.0927 39.1904 60.9574 38.9778 60.7874 38.8232C60.6173 38.6686 60.4047 38.5913 60.1497 38.5913C59.8946 38.5913 59.6782 38.6686 59.5004 38.8232C59.3303 38.9778 59.1912 39.1904 59.083 39.4609C58.9825 39.7237 58.9091 40.0367 58.8627 40.4C58.8241 40.7633 58.8047 41.1536 58.8047 41.571C58.8047 41.9884 58.8241 42.3788 58.8627 42.7421C58.9091 43.1053 58.9825 43.4223 59.083 43.6928C59.1912 43.9556 59.3303 44.1643 59.5004 44.3189C59.6782 44.4735 59.8946 44.5508 60.1497 44.5508C60.4047 44.5508 60.6173 44.4735 60.7874 44.3189C60.9574 44.1643 61.0927 43.9556 61.1932 43.6928C61.3014 43.4223 61.3787 43.1053 61.425 42.7421C61.4714 42.3788 61.4946 41.9884 61.4946 41.571ZM69.5336 41.571C69.5336 42.9237 69.2862 43.9633 68.7915 44.6899C68.2969 45.4087 67.6128 45.7682 66.7394 45.7682C65.8659 45.7682 65.1819 45.4087 64.6872 44.6899C64.1925 43.9633 63.9452 42.9237 63.9452 41.571C63.9452 40.8986 64.007 40.3034 64.1307 39.7855C64.2621 39.2599 64.4476 38.8193 64.6872 38.4638C64.9345 38.1082 65.2282 37.8377 65.5683 37.6522C65.9162 37.4667 66.3065 37.3739 66.7394 37.3739C67.6128 37.3739 68.2969 37.7372 68.7915 38.4638C69.2862 39.1826 69.5336 40.2184 69.5336 41.571ZM68.0843 41.571C68.0843 41.1536 68.0611 40.7633 68.0147 40.4C67.9684 40.0367 67.8911 39.7237 67.7828 39.4609C67.6824 39.1904 67.5471 38.9778 67.377 38.8232C67.207 38.6686 66.9944 38.5913 66.7394 38.5913C66.4843 38.5913 66.2679 38.6686 66.0901 38.8232C65.92 38.9778 65.7809 39.1904 65.6727 39.4609C65.5722 39.7237 65.4988 40.0367 65.4524 40.4C65.4138 40.7633 65.3944 41.1536 65.3944 41.571C65.3944 41.9884 65.4138 42.3788 65.4524 42.7421C65.4988 43.1053 65.5722 43.4223 65.6727 43.6928C65.7809 43.9556 65.92 44.1643 66.0901 44.3189C66.2679 44.4735 66.4843 44.5508 66.7394 44.5508C66.9944 44.5508 67.207 44.4735 67.377 44.3189C67.5471 44.1643 67.6824 43.9556 67.7828 43.6928C67.8911 43.4223 67.9684 43.1053 68.0147 42.7421C68.0611 42.3788 68.0843 41.9884 68.0843 41.571ZM74.4769 39.5768C74.4769 40.2802 74.2952 40.8213 73.932 41.2C73.5764 41.5788 73.1088 41.7681 72.5291 41.7681C72.2431 41.7681 71.9803 41.7218 71.7406 41.629C71.501 41.5285 71.2962 41.3855 71.1262 41.2C70.9561 41.0145 70.8208 40.7865 70.7204 40.516C70.6276 40.2377 70.5812 39.9247 70.5812 39.5768C70.5812 38.8657 70.759 38.3247 71.1146 37.9536C71.4778 37.5749 71.9493 37.3855 72.5291 37.3855C73.1088 37.3855 73.5764 37.5749 73.932 37.9536C74.2952 38.3247 74.4769 38.8657 74.4769 39.5768ZM73.3754 39.5768C73.3754 39.1672 73.2981 38.8619 73.1435 38.6609C72.9967 38.4522 72.7919 38.3478 72.5291 38.3478C72.2663 38.3478 72.0614 38.4522 71.9146 38.6609C71.7677 38.8619 71.6943 39.1672 71.6943 39.5768C71.6943 39.9865 71.7677 40.2957 71.9146 40.5044C72.0614 40.7053 72.2663 40.8058 72.5291 40.8058C72.7919 40.8058 72.9967 40.7053 73.1435 40.5044C73.2981 40.2957 73.3754 39.9865 73.3754 39.5768ZM76.8305 37.5594H78.1639L73.6305 45.5942H72.2972L76.8305 37.5594ZM79.8914 43.5884C79.8914 44.2918 79.7097 44.8329 79.3465 45.2116C78.9909 45.5904 78.5233 45.7797 77.9436 45.7797C77.6576 45.7797 77.3948 45.7295 77.1552 45.629C76.9155 45.5363 76.7107 45.3971 76.5407 45.2116C76.3706 45.0261 76.2353 44.7981 76.1349 44.5276C76.0421 44.2493 75.9957 43.9363 75.9957 43.5884C75.9957 42.8773 76.1735 42.3363 76.5291 41.9652C76.8924 41.5865 77.3638 41.3971 77.9436 41.3971C78.5233 41.3971 78.9909 41.5865 79.3465 41.9652C79.7097 42.3363 79.8914 42.8773 79.8914 43.5884ZM78.7899 43.5884C78.7899 43.1788 78.7126 42.8735 78.5581 42.6725C78.4112 42.4638 78.2064 42.3594 77.9436 42.3594C77.6808 42.3594 77.4759 42.4638 77.3291 42.6725C77.1822 42.8735 77.1088 43.1788 77.1088 43.5884C77.1088 43.9981 77.1822 44.3073 77.3291 44.516C77.4759 44.7169 77.6808 44.8174 77.9436 44.8174C78.2064 44.8174 78.4112 44.7169 78.5581 44.516C78.7126 44.3073 78.7899 43.9981 78.7899 43.5884Z" fill="#22C55E"/>
<path d="M36.5353 68.8526C35.9324 68.8526 35.3913 68.7599 34.9121 68.5744C34.4329 68.3889 34.0271 68.1183 33.6947 67.7628C33.3623 67.3995 33.1073 66.9589 32.9295 66.441C32.7517 65.9231 32.6628 65.328 32.6628 64.6555C32.6628 63.983 32.7633 63.3879 32.9643 62.87C33.173 62.3521 33.4551 61.9154 33.8107 61.5599C34.1662 61.1966 34.5836 60.9222 35.0628 60.7367C35.5421 60.5512 36.0561 60.4584 36.6049 60.4584C36.9372 60.4584 37.2387 60.4855 37.5092 60.5396C37.7797 60.5859 38.0155 60.64 38.2165 60.7019C38.4174 60.7637 38.5836 60.8294 38.715 60.899C38.8464 60.9685 38.9392 61.0188 38.9933 61.0497L38.5643 62.2439C38.3788 62.128 38.1121 62.0198 37.7643 61.9193C37.4242 61.8111 37.0532 61.757 36.6512 61.757C36.3034 61.757 35.9788 61.8188 35.6773 61.9425C35.3759 62.0584 35.1131 62.2362 34.8889 62.4758C34.6725 62.7154 34.5024 63.0169 34.3788 63.3801C34.2551 63.7434 34.1933 64.1647 34.1933 64.6439C34.1933 65.069 34.2396 65.4594 34.3324 65.8149C34.4329 66.1705 34.5836 66.4797 34.7846 66.7425C34.9855 66.9975 35.2406 67.1985 35.5498 67.3454C35.859 67.4845 36.23 67.5541 36.6628 67.5541C37.1807 67.5541 37.602 67.5038 37.9266 67.4033C38.2512 67.2951 38.5025 67.1946 38.6802 67.1019L39.0744 68.2961C38.9817 68.3579 38.8541 68.4198 38.6918 68.4816C38.5372 68.5434 38.3517 68.6053 38.1353 68.6671C37.9189 68.7212 37.6754 68.7637 37.4049 68.7947C37.1343 68.8333 36.8445 68.8526 36.5353 68.8526ZM42.4216 67.6932C42.8545 67.6932 43.183 67.67 43.4071 67.6236V66.07C43.3299 66.0468 43.2178 66.0236 43.0709 66.0004C42.9241 65.9773 42.7617 65.9657 42.584 65.9657C42.4294 65.9657 42.2709 65.9773 42.1086 66.0004C41.954 66.0236 41.811 66.0661 41.6796 66.128C41.5559 66.1898 41.4555 66.2787 41.3782 66.3946C41.3009 66.5029 41.2622 66.642 41.2622 66.812C41.2622 67.1444 41.3666 67.3763 41.5753 67.5077C41.784 67.6314 42.0661 67.6932 42.4216 67.6932ZM42.3057 62.4642C42.7695 62.4642 43.1598 62.5222 43.4767 62.6381C43.7936 62.7541 44.0448 62.9164 44.2303 63.1251C44.4236 63.3338 44.5588 63.5888 44.6361 63.8903C44.7212 64.184 44.7637 64.5087 44.7637 64.8642V68.5396C44.5472 68.586 44.2187 68.6401 43.7782 68.7019C43.3453 68.7715 42.8545 68.8062 42.3057 68.8062C41.9424 68.8062 41.61 68.7715 41.3086 68.7019C41.0071 68.6323 40.7482 68.5203 40.5318 68.3657C40.3231 68.2111 40.1569 68.0101 40.0332 67.7628C39.9173 67.5154 39.8593 67.2101 39.8593 66.8468C39.8593 66.499 39.925 66.2053 40.0564 65.9657C40.1955 65.726 40.3811 65.5328 40.6129 65.3859C40.8448 65.2314 41.1115 65.1231 41.4129 65.0613C41.7221 64.9917 42.0429 64.957 42.3753 64.957C42.5299 64.957 42.6922 64.9686 42.8622 64.9917C43.0323 65.0072 43.2139 65.0381 43.4071 65.0845V64.8526C43.4071 64.6903 43.3878 64.5357 43.3492 64.3888C43.3105 64.242 43.241 64.1144 43.1405 64.0062C43.0477 63.8903 42.9202 63.8014 42.7579 63.7396C42.6033 63.6777 42.4062 63.6468 42.1666 63.6468C41.8419 63.6468 41.5443 63.67 41.2738 63.7164C41.0033 63.7628 40.783 63.8169 40.6129 63.8787L40.439 62.7425C40.6168 62.6806 40.8757 62.6188 41.2158 62.557C41.5559 62.4951 41.9192 62.4642 42.3057 62.4642ZM48.0005 67.67C48.3716 67.67 48.6421 67.6275 48.8121 67.5425C48.9822 67.4497 49.0672 67.2951 49.0672 67.0787C49.0672 66.8777 48.9745 66.7116 48.789 66.5802C48.6112 66.4488 48.3136 66.3058 47.8962 66.1512C47.6411 66.0584 47.4054 65.9618 47.189 65.8613C46.9803 65.7531 46.7986 65.6294 46.644 65.4903C46.4894 65.3512 46.3658 65.185 46.273 64.9917C46.188 64.7908 46.1455 64.5473 46.1455 64.2613C46.1455 63.7048 46.3503 63.2681 46.76 62.9512C47.1696 62.6265 47.7262 62.4642 48.4295 62.4642C48.7851 62.4642 49.1252 62.499 49.4498 62.5685C49.7745 62.6304 50.0179 62.6922 50.1803 62.7541L49.9252 63.8903C49.7706 63.8207 49.5735 63.7589 49.3339 63.7048C49.0943 63.6429 48.816 63.612 48.4991 63.612C48.2131 63.612 47.9812 63.6623 47.8034 63.7628C47.6257 63.8555 47.5368 64.0024 47.5368 64.2033C47.5368 64.3038 47.5522 64.3927 47.5832 64.47C47.6218 64.5473 47.6836 64.6207 47.7687 64.6903C47.8537 64.7521 47.9658 64.8178 48.1049 64.8874C48.244 64.9492 48.4141 65.0149 48.615 65.0845C48.9474 65.2082 49.2295 65.3318 49.4614 65.4555C49.6933 65.5715 49.8827 65.7067 50.0295 65.8613C50.1841 66.0082 50.2962 66.1782 50.3658 66.3715C50.4353 66.5647 50.4701 66.7966 50.4701 67.0671C50.4701 67.6468 50.2537 68.0874 49.8208 68.3889C49.3957 68.6826 48.7851 68.8294 47.989 68.8294C47.4556 68.8294 47.0266 68.7831 46.702 68.6903C46.3774 68.6053 46.1493 68.5357 46.0179 68.4816L46.2614 67.3106C46.4701 67.3956 46.7175 67.4768 47.0034 67.5541C47.2972 67.6314 47.6295 67.67 48.0005 67.67ZM51.7806 68.6787V59.9135L53.1835 59.6816V62.6845C53.3381 62.6304 53.5159 62.584 53.7169 62.5454C53.9256 62.5067 54.1304 62.4874 54.3314 62.4874C54.8183 62.4874 55.2203 62.557 55.5372 62.6961C55.8618 62.8275 56.1207 63.0169 56.314 63.2642C56.5072 63.5038 56.6425 63.7937 56.7198 64.1338C56.8048 64.4739 56.8473 64.8526 56.8473 65.27V68.6787H55.4444V65.4903C55.4444 65.1657 55.4212 64.8913 55.3748 64.6671C55.3362 64.4352 55.2666 64.2497 55.1661 64.1106C55.0734 63.9637 54.9459 63.8594 54.7835 63.7975C54.6212 63.728 54.4203 63.6932 54.1806 63.6932C53.9951 63.6932 53.8058 63.7125 53.6125 63.7512C53.4193 63.7898 53.2763 63.8246 53.1835 63.8555V68.6787H51.7806ZM61.0216 59.6816C61.3153 59.6816 61.5627 59.7048 61.7636 59.7511C61.9723 59.7975 62.1346 59.8439 62.2506 59.8903L62.0303 61.0265C61.9221 60.9879 61.7907 60.9531 61.6361 60.9222C61.4892 60.8912 61.3269 60.8758 61.1491 60.8758C60.6854 60.8758 60.3646 60.9995 60.1868 61.2468C60.0168 61.4941 59.9317 61.8149 59.9317 62.2091V62.6149H62.1578V63.7859H59.9317V68.6787H58.5288V62.1859C58.5288 61.3975 58.7337 60.783 59.1433 60.3425C59.553 59.9019 60.1791 59.6816 61.0216 59.6816ZM65.3462 68.7947C64.9289 68.7869 64.581 68.7405 64.3028 68.6555C64.0322 68.5705 63.8158 68.4507 63.6535 68.2961C63.4912 68.1338 63.3752 67.9367 63.3057 67.7048C63.2438 67.4652 63.2129 67.1946 63.2129 66.8932V59.9135L64.6158 59.6816V66.6265C64.6158 66.7966 64.6274 66.9396 64.6506 67.0555C64.6815 67.1715 64.7318 67.2719 64.8013 67.357C64.8709 67.4343 64.9636 67.4961 65.0796 67.5425C65.2033 67.5811 65.3578 67.612 65.5434 67.6352L65.3462 68.7947ZM72.1651 65.641C72.1651 66.1202 72.0955 66.557 71.9564 66.9512C71.8173 67.3454 71.6202 67.6816 71.3651 67.9599C71.11 68.2381 70.8009 68.4546 70.4376 68.6091C70.082 68.7637 69.6878 68.841 69.255 68.841C68.8221 68.841 68.4279 68.7637 68.0723 68.6091C67.7168 68.4546 67.4115 68.2381 67.1564 67.9599C66.9013 67.6816 66.7004 67.3454 66.5535 66.9512C66.4144 66.557 66.3448 66.1202 66.3448 65.641C66.3448 65.1618 66.4144 64.7289 66.5535 64.3425C66.7004 63.9483 66.9013 63.612 67.1564 63.3338C67.4192 63.0555 67.7284 62.8429 68.0839 62.6961C68.4395 62.5415 68.8298 62.4642 69.255 62.4642C69.6801 62.4642 70.0704 62.5415 70.426 62.6961C70.7893 62.8429 71.0984 63.0555 71.3535 63.3338C71.6086 63.612 71.8057 63.9483 71.9448 64.3425C72.0917 64.7289 72.1651 65.1618 72.1651 65.641ZM70.7274 65.641C70.7274 65.0381 70.596 64.5628 70.3332 64.2149C70.0781 63.8594 69.7187 63.6816 69.255 63.6816C68.7912 63.6816 68.4279 63.8594 68.1651 64.2149C67.91 64.5628 67.7825 65.0381 67.7825 65.641C67.7825 66.2517 67.91 66.7347 68.1651 67.0903C68.4279 67.4459 68.7912 67.6236 69.255 67.6236C69.7187 67.6236 70.0781 67.4459 70.3332 67.0903C70.596 66.7347 70.7274 66.2517 70.7274 65.641ZM77.1033 64.8642C76.9255 65.5444 76.7322 66.2091 76.5235 66.8584C76.3226 67.5 76.1216 68.1067 75.9206 68.6787H74.7728C74.6182 68.3232 74.4559 67.9174 74.2859 67.4613C74.1158 67.0053 73.9458 66.5183 73.7757 66.0004C73.6057 65.4826 73.4356 64.9376 73.2656 64.3657C73.0955 63.7937 72.9293 63.2101 72.767 62.6149H74.2511C74.3206 62.9396 74.4018 63.2913 74.4945 63.67C74.5873 64.041 74.6839 64.4236 74.7844 64.8178C74.8849 65.2043 74.9892 65.5831 75.0974 65.9541C75.2057 66.3251 75.3139 66.6652 75.4221 66.9744C75.538 66.6188 75.6501 66.2517 75.7583 65.8729C75.8743 65.4942 75.9825 65.1154 76.083 64.7367C76.1834 64.3579 76.2762 63.9908 76.3612 63.6352C76.454 63.2719 76.5351 62.9318 76.6047 62.6149H77.683C77.7525 62.9318 77.8298 63.2719 77.9148 63.6352C77.9999 63.9908 78.0888 64.3579 78.1815 64.7367C78.282 65.1154 78.3863 65.4942 78.4946 65.8729C78.6105 66.2517 78.7264 66.6188 78.8424 66.9744C78.9429 66.6652 79.0472 66.3251 79.1554 65.9541C79.2636 65.5831 79.368 65.2043 79.4685 64.8178C79.5767 64.4236 79.6772 64.041 79.7699 63.67C79.8627 63.2913 79.9438 62.9396 80.0134 62.6149H81.4627C81.3004 63.2101 81.1342 63.7937 80.9641 64.3657C80.7941 64.9376 80.624 65.4826 80.454 66.0004C80.2839 66.5183 80.1139 67.0053 79.9438 67.4613C79.7738 67.9174 79.6076 68.3232 79.4453 68.6787H78.3091C78.1081 68.1067 77.8994 67.5 77.683 66.8584C77.4743 66.2091 77.281 65.5444 77.1033 64.8642Z" fill="#3D0072"/>
</g>
<defs>
<filter id="filter0_d_3956_72701" x="262.93" y="115.703" width="33.6035" height="33.604" filterUnits="userSpaceOnUse" color-interpolation-filters="sRGB">
<feFlood flood-opacity="0" result="BackgroundImageFix"/>
<feColorMatrix in="SourceAlpha" type="matrix" values="0 0 0 0 0 0 0 0 0 0 0 0 0 0 0 0 0 0 127 0" result="hardAlpha"/>
<feOffset dy="8"/>
<feGaussianBlur stdDeviation="4"/>
<feComposite in2="hardAlpha" operator="out"/>
<feColorMatrix type="matrix" values="0 0 0 0 0.0509804 0 0 0 0 0.0392157 0 0 0 0 0.172549 0 0 0 0.08 0"/>
<feBlend mode="normal" in2="BackgroundImageFix" result="effect1_dropShadow_3956_72701"/>
<feBlend mode="normal" in="SourceGraphic" in2="effect1_dropShadow_3956_72701" result="shape"/>
</filter>
<filter id="filter1_d_3956_72701" x="231" y="59" width="102" height="60" filterUnits="userSpaceOnUse" color-interpolation-filters="sRGB">
<feFlood flood-opacity="0" result="BackgroundImageFix"/>
<feColorMatrix in="SourceAlpha" type="matrix" values="0 0 0 0 0 0 0 0 0 0 0 0 0 0 0 0 0 0 127 0" result="hardAlpha"/>
<feOffset dy="8"/>
<feGaussianBlur stdDeviation="6"/>
<feComposite in2="hardAlpha" operator="out"/>
<feColorMatrix type="matrix" values="0 0 0 0 0.666875 0 0 0 0 0.663889 0 0 0 0 0.669444 0 0 0 0.15 0"/>
<feBlend mode="normal" in2="BackgroundImageFix" result="effect1_dropShadow_3956_72701"/>
<feBlend mode="normal" in="SourceGraphic" in2="effect1_dropShadow_3956_72701" result="shape"/>
</filter>
<filter id="filter2_d_3956_72701" x="259.34" y="94" width="41.3203" height="39" filterUnits="userSpaceOnUse" color-interpolation-filters="sRGB">
<feFlood flood-opacity="0" result="BackgroundImageFix"/>
<feColorMatrix in="SourceAlpha" type="matrix" values="0 0 0 0 0 0 0 0 0 0 0 0 0 0 0 0 0 0 127 0" result="hardAlpha"/>
<feOffset dy="8"/>
<feGaussianBlur stdDeviation="6"/>
<feComposite in2="hardAlpha" operator="out"/>
<feColorMatrix type="matrix" values="0 0 0 0 0.666875 0 0 0 0 0.663889 0 0 0 0 0.669444 0 0 0 0.15 0"/>
<feBlend mode="normal" in2="BackgroundImageFix" result="effect1_dropShadow_3956_72701"/>
<feBlend mode="normal" in="SourceGraphic" in2="effect1_dropShadow_3956_72701" result="shape"/>
</filter>
<linearGradient id="paint0_linear_3956_72701" x1="313.5" y1="122.842" x2="313.5" y2="213" gradientUnits="userSpaceOnUse">
<stop stop-color="#FF718B"/>
<stop offset="0.0001" stop-color="#FF718B" stop-opacity="0.2"/>
<stop offset="1" stop-color="#FFB3C1" stop-opacity="0"/>
</linearGradient>
<clipPath id="clip0_3956_72701">
<rect width="630" height="222" fill="white"/>
</clipPath>
</defs>
</svg>
