<svg width="60" height="73" viewBox="0 0 60 73" fill="none" xmlns="http://www.w3.org/2000/svg">
<path d="M51.5625 12.1608L30.0316 4.93848L8.70754 12.0628C5.98624 13.2602 3.58605 13.9895 3.58605 16.3516V28.1403C3.56649 36.4852 6.0087 44.6505 10.607 51.6142C15.3528 58.8639 22.1841 64.5054 30.2003 67.795C38.9085 65.1499 45.4396 58.1018 49.3964 52.0714C53.9991 45.1115 56.4435 36.9471 56.4228 28.6029V17.9953C56.4609 14.6209 54.5451 12.9717 51.5625 12.1608Z" fill="#E6356D"/>
<path d="M30.193 63.1527L30.1059 63.1146C23.2665 60.3105 17.4143 55.5377 13.2921 49.4019C9.16994 43.2661 6.9636 36.0439 6.95312 28.652V18.4744C6.95312 16.4824 8.71108 15.7531 10.7629 14.8659L11.5249 14.5339L30.0297 8.3457L48.6815 14.6047C51.6586 15.4156 53.1063 17.1518 53.1063 19.9058V29.0548C53.1179 36.3065 50.994 43.4011 46.9997 49.4536C44.3492 53.4703 38.6508 60.5892 30.2855 63.1309L30.193 63.1527ZM30.0297 8.91718L11.7481 15.0347L10.9861 15.3667C9.02675 16.1667 7.49738 16.8416 7.49738 18.4744V28.652C7.50926 35.9233 9.67767 43.0277 13.7283 49.0663C17.7789 55.1049 23.5296 59.8063 30.2529 62.5757C38.4168 60.0613 43.9737 53.0893 46.5807 49.1489C50.5052 43.1816 52.5873 36.1915 52.5675 29.0493V19.9003C52.5675 17.3913 51.2831 15.8728 48.54 15.1217L30.0297 8.91718Z" fill="white"/>
<path d="M54.3766 9.18911C54.8743 9.29723 55.3622 9.44651 55.8352 9.6354C56.4119 9.85566 56.9601 10.1444 57.468 10.4953C58.1736 10.9727 58.7602 11.6058 59.1824 12.3458C59.6945 13.2891 59.9708 14.3423 59.9879 15.4154C59.9879 16.5856 59.9879 17.8483 59.9879 19.2253C59.9879 21.9466 60.0151 25.0815 59.9879 28.5647C59.8968 36.8777 57.634 45.0224 53.4241 52.1911C50.9031 56.4974 47.7884 60.4274 44.1717 63.8654C40.3619 67.4249 35.7303 70.5653 30.3094 72.2307H30.2604H30.2169C28.3027 71.4284 26.4348 70.5199 24.6219 69.5094C22.766 68.4497 20.9791 67.2736 19.2718 65.988C15.7389 63.3214 12.5922 60.1784 9.92146 56.6485C7.03032 52.8514 4.71245 48.6502 3.04202 44.1796C1.44749 39.9002 0.468933 35.4161 0.135672 30.8615C-0.0330486 28.6409 0.0159318 26.4476 0.0050466 24.2978C-0.00583859 22.1479 0.0050466 20.0253 0.0050466 17.9408V14.8276C-0.0108926 14.3115 0.0109375 13.7949 0.0703593 13.2819C0.15974 12.7604 0.3829 12.2709 0.71803 11.8614C1.40885 11.1187 2.24911 10.5307 3.18353 10.1361C4.08155 9.71704 4.98502 9.35238 5.86673 8.96596L29.9992 0.927246H30.0319L47.9271 6.97397L52.7057 8.60675L53.9357 9.03672C54.2133 9.12924 54.3494 9.18911 54.3494 9.18911C54.3494 9.18911 54.2079 9.15101 53.9303 9.05849L52.6894 8.65573L47.8945 7.07738L29.972 1.09052H30.0319L5.95925 9.19455C5.07211 9.58642 4.17408 9.95107 3.28693 10.3701C2.38684 10.7387 1.57592 11.2954 0.90852 12.0029C0.596798 12.3826 0.39368 12.8397 0.320718 13.3255C0.261132 13.8238 0.242929 14.3263 0.266293 14.8276V17.9245C0.266293 20.0072 0.266293 22.1262 0.266293 24.2814C0.266293 26.4585 0.228194 28.6355 0.396914 30.8125C0.722908 35.3472 1.69611 39.8118 3.28693 44.0707C4.95206 48.5131 7.26079 52.6868 10.1392 56.4581C12.7926 59.967 15.9192 63.0917 19.4297 65.7431C21.1272 67.0213 22.9032 68.192 24.7471 69.2482C26.5511 70.2543 28.4079 71.1628 30.3094 71.9695H30.255C35.6268 70.3367 40.2367 67.2126 44.0193 63.6749C47.6318 60.2596 50.7464 56.3535 53.2717 52.0713C55.5162 48.2516 57.2214 44.1398 58.3388 39.8527C59.2866 36.1608 59.798 32.3704 59.8627 28.5593C59.8627 25.0869 59.8627 21.9574 59.8954 19.2253C59.8954 17.8592 59.8954 16.591 59.8954 15.4154C59.8796 14.3642 59.6068 13.3327 59.1008 12.4111C58.6888 11.6804 58.1177 11.0517 57.4299 10.5715C56.9304 10.2183 56.3916 9.92427 55.8243 9.69527C55.4725 9.54676 55.1127 9.41776 54.7467 9.30884L54.3766 9.18911Z" fill="#E6356D"/>
<path d="M33.2032 41.3505C31.3661 43.3065 30.4476 44.2844 29.2572 44.356C28.0669 44.4275 27.0378 43.5666 24.9797 41.8448L19.2708 37.0686C18.1084 36.0962 17.9547 34.3655 18.9274 33.2033C19.9101 32.0291 21.6638 31.8865 22.8233 32.8866L28.6673 37.9268L39.4546 26.5914C40.5052 25.4874 42.2498 25.4379 43.3614 26.4805C44.4793 27.5289 44.5349 29.2853 43.4857 30.4025L33.2032 41.3505Z" fill="white"/>
</svg>
