<svg width="25" height="25" viewBox="0 0 25 25" fill="none" xmlns="http://www.w3.org/2000/svg">
<path d="M21.875 6.77149C21.875 8.78191 20.2396 10.4173 18.2292 10.4173C16.2188 10.4173 14.5833 8.78191 14.5833 6.77149C14.5833 4.76107 16.2188 3.12566 18.2292 3.12566C20.2396 3.12566 21.875 4.76107 21.875 6.77149ZM19.7917 12.2819C19.2708 12.4173 18.75 12.5007 18.2292 12.5007C16.7105 12.4979 15.2549 11.8934 14.1811 10.8196C13.1072 9.74575 12.5028 8.29011 12.5 6.77149C12.5 5.24024 13.1042 3.85482 14.0625 2.82357C13.8735 2.59184 13.6351 2.40521 13.3648 2.27726C13.0945 2.14932 12.7991 2.08329 12.5 2.08399C11.3542 2.08399 10.4167 3.02149 10.4167 4.16732V4.46941C7.32292 5.38607 5.20833 8.22982 5.20833 11.459V17.709L3.125 19.7923V20.834H21.875V19.7923L19.7917 17.709V12.2819ZM12.5 23.959C13.6562 23.959 14.5833 23.0319 14.5833 21.8757H10.4167C10.4167 22.4282 10.6362 22.9581 11.0269 23.3488C11.4176 23.7395 11.9475 23.959 12.5 23.959Z" fill="white"/>
</svg>
