<svg width="29" height="28" viewBox="0 0 29 28" fill="none" xmlns="http://www.w3.org/2000/svg">
<path d="M21 10.5C21 12.43 19.43 14 17.5 14C15.57 14 14 12.43 14 10.5C14 8.57001 15.57 7.00001 17.5 7.00001C19.43 7.00001 21 8.57001 21 10.5ZM19 15.79C18.5 15.92 18 16 17.5 16C16.0421 15.9974 14.6447 15.4171 13.6138 14.3862C12.583 13.3553 12.0026 11.9579 12 10.5C12 9.03001 12.58 7.70001 13.5 6.71001C13.3185 6.48755 13.0897 6.30838 12.8302 6.18555C12.5707 6.06272 12.2871 5.99934 12 6.00001C10.9 6.00001 10 6.90001 10 8.00001V8.29001C7.03 9.17001 5 11.9 5 15V21L3 23V24H21V23L19 21V15.79ZM12 27C13.11 27 14 26.11 14 25H10C10 25.5304 10.2107 26.0391 10.5858 26.4142C10.9609 26.7893 11.4696 27 12 27Z" fill="white"/>
<circle cx="20" cy="9" r="9" fill="#E8356D"/>
<path d="M22.874 13V12.153H19.827L18.925 12.219L19.717 11.548L20.861 10.47C21.532 9.832 22.687 8.732 22.687 7.522C22.687 6.389 22.038 5.52 20.597 5.52C18.903 5.52 17.748 6.686 17.902 8.138L18.793 8.699C18.606 7.236 19.299 6.444 20.531 6.444C21.367 6.444 21.697 6.994 21.697 7.588C21.697 8.402 21.07 9.084 20.267 9.876L17.858 12.252V13H22.874Z" fill="white"/>
</svg>
