<svg width="1090" height="341" viewBox="0 0 1090 341" fill="none" xmlns="http://www.w3.org/2000/svg">
<g clip-path="url(#clip0_3637_74447)">
<rect width="1090" height="341" rx="12" fill="#F5F5FF"/>
<path d="M409.859 349.253L344.825 181.081C344.143 179.279 343.099 177.637 341.757 176.254C340.415 174.872 338.805 173.779 337.024 173.043C335.244 172.307 333.332 171.943 331.406 171.974C329.479 172.005 327.58 172.431 325.824 173.224L4.93975 315.444C1.30163 317.109 -1.57176 320.089 -3.10331 323.786C-4.63488 327.482 -4.71121 331.621 -3.31695 335.371L61.717 503.544C62.3993 505.345 63.4434 506.987 64.785 508.369C66.1267 509.751 67.7372 510.843 69.5173 511.578C71.2974 512.313 73.2093 512.676 75.135 512.643C77.0606 512.611 78.9592 512.184 80.7135 511.389L401.603 369.181C405.241 367.515 408.114 364.535 409.646 360.839C411.177 357.143 411.254 353.004 409.859 349.253Z" fill="#3D0072"/>
<path d="M412.258 355.469L347.206 187.249C346.524 185.448 345.48 183.806 344.138 182.425C342.796 181.043 341.186 179.951 339.406 179.215C337.626 178.48 335.714 178.118 333.788 178.15C331.862 178.183 329.964 178.61 328.21 179.404L7.32029 321.613C3.68218 323.278 0.808783 326.258 -0.722762 329.954C-2.25434 333.651 -2.33066 337.79 -0.9364 341.54L64.0976 509.713C64.7798 511.514 65.824 513.156 67.1656 514.538C68.5072 515.92 70.1178 517.012 71.8979 517.747C73.678 518.482 75.5899 518.845 77.5155 518.812C79.4412 518.78 81.3398 518.353 83.0941 517.558L403.983 375.349C407.614 373.688 410.483 370.717 412.017 367.031C413.552 363.345 413.637 359.215 412.258 355.469Z" fill="#263238"/>
<path d="M8.14314 337.487C7.69541 336.236 7.72942 334.863 8.23847 333.636C8.74752 332.409 9.69516 331.415 10.8968 330.848L331.795 188.663C332.381 188.404 333.013 188.267 333.654 188.259C334.294 188.251 334.93 188.373 335.522 188.618C336.114 188.863 336.65 189.225 337.098 189.683C337.546 190.141 337.897 190.685 338.129 191.282L403.163 359.455C403.616 360.705 403.585 362.08 403.075 363.309C402.566 364.538 401.615 365.531 400.409 366.093L79.5197 508.302C78.9348 508.56 78.3035 508.698 77.664 508.706C77.0245 508.714 76.39 508.593 75.7987 508.349C75.2073 508.105 74.6713 507.745 74.2231 507.288C73.7749 506.832 73.4237 506.29 73.1905 505.694L8.14314 337.487Z" fill="#8807F7"/>
<path opacity="0.1" d="M10.4243 336.511C10.2058 335.884 10.2251 335.199 10.4785 334.586C10.732 333.973 11.2019 333.475 11.7989 333.186L332.688 190.977C332.981 190.851 333.296 190.785 333.615 190.783C333.934 190.781 334.25 190.842 334.545 190.963C334.839 191.085 335.107 191.264 335.332 191.49C335.556 191.716 335.733 191.985 335.853 192.281L400.887 360.454C401.108 361.08 401.09 361.766 400.836 362.379C400.583 362.993 400.111 363.491 399.512 363.779L78.6229 505.987C78.3299 506.113 78.0148 506.179 77.696 506.181C77.3773 506.183 77.0613 506.122 76.7665 506.001C76.4717 505.879 76.2042 505.7 75.9796 505.474C75.7549 505.248 75.5777 504.979 75.4583 504.683L10.4243 336.511Z" fill="#3D0072"/>
<g opacity="0.3">
<path d="M48.84 379.989L35.9567 346.674C35.6132 345.755 35.6312 344.74 36.0068 343.835C36.3825 342.929 37.0878 342.2 37.9805 341.794L87.621 319.804C88.0564 319.601 88.5291 319.49 89.0094 319.478C89.4897 319.466 89.9673 319.553 90.4122 319.735C90.8571 319.916 91.2597 320.188 91.5947 320.532C91.9297 320.876 92.1899 321.286 92.359 321.736L105.265 355.109C105.61 356.024 105.594 357.037 105.219 357.94C104.844 358.844 104.14 359.571 103.248 359.973L53.5824 381.933C53.1458 382.134 52.6723 382.244 52.1914 382.255C51.7105 382.265 51.2326 382.176 50.7876 381.994C50.3426 381.812 49.9399 381.539 49.6048 381.194C49.2697 380.849 49.0093 380.439 48.84 379.989ZM91.1608 322.146C91.0506 321.857 90.8834 321.593 90.669 321.37C90.4547 321.146 90.1976 320.968 89.9131 320.846C89.6243 320.732 89.3157 320.676 89.0051 320.682C88.6946 320.688 88.3883 320.755 88.104 320.881L38.4795 342.878C37.8727 343.15 37.392 343.642 37.1351 344.255C36.8781 344.869 36.8641 345.557 37.096 346.18L49.9971 379.541C50.1072 379.832 50.2759 380.097 50.4927 380.32C50.7095 380.543 50.9699 380.719 51.2576 380.838C51.5453 380.956 51.8542 381.014 52.1652 381.008C52.4762 381.002 52.7826 380.932 53.0655 380.802L102.702 358.801C103.308 358.532 103.79 358.042 104.048 357.431C104.306 356.819 104.321 356.132 104.09 355.51L91.1608 322.146Z" fill="#FAFAFA"/>
<path d="M92.1509 359.617L80.0373 328.292C79.9779 328.139 79.982 327.968 80.0485 327.818C80.115 327.667 80.2387 327.549 80.3921 327.49C80.5456 327.431 80.7163 327.435 80.8668 327.501C81.0172 327.568 81.1351 327.691 81.1944 327.845L93.3215 359.204C93.3808 359.358 93.3768 359.528 93.3102 359.679C93.2437 359.829 93.1201 359.947 92.9666 360.007C92.8132 360.066 92.6424 360.062 92.4919 359.995C92.3415 359.929 92.2236 359.805 92.1643 359.652L92.1509 359.617Z" fill="#FAFAFA"/>
<path d="M85.7391 362.473L73.6076 331.102C73.5516 330.948 73.5572 330.779 73.6234 330.629C73.6896 330.48 73.811 330.361 73.9624 330.299C74.1159 330.24 74.2866 330.244 74.4371 330.311C74.5876 330.377 74.7054 330.501 74.7648 330.654L86.8963 362.025C86.9556 362.179 86.9516 362.35 86.885 362.5C86.8185 362.651 86.6949 362.768 86.5414 362.828C86.3878 362.884 86.2184 362.878 86.0688 362.812C85.9192 362.746 85.801 362.624 85.7391 362.473Z" fill="#FAFAFA"/>
<path d="M79.325 365.321L67.1935 333.95C67.1375 333.796 67.1432 333.627 67.2093 333.477C67.2755 333.327 67.397 333.209 67.5484 333.147C67.7018 333.088 67.8725 333.092 68.023 333.159C68.1735 333.225 68.2914 333.349 68.3507 333.502L80.4822 364.873C80.5415 365.027 80.5375 365.197 80.4709 365.348C80.4044 365.498 80.2808 365.616 80.1274 365.676C79.9739 365.735 79.8032 365.731 79.6527 365.664C79.5022 365.598 79.3844 365.474 79.325 365.321Z" fill="#FAFAFA"/>
<path d="M72.9026 368.155L60.7756 336.796C60.7162 336.642 60.7203 336.472 60.7868 336.321C60.8534 336.171 60.9769 336.053 61.1304 335.994C61.2838 335.934 61.4546 335.938 61.605 336.005C61.7555 336.071 61.8734 336.195 61.9327 336.348L74.0598 367.708C74.1191 367.861 74.115 368.032 74.0485 368.183C73.982 368.333 73.8584 368.451 73.7049 368.51C73.5515 368.57 73.3807 368.566 73.2303 368.499C73.0798 368.432 72.9619 368.309 72.9026 368.155Z" fill="#FAFAFA"/>
<path d="M66.4846 370.996L54.3576 339.636C54.2982 339.483 54.3023 339.312 54.3688 339.162C54.4354 339.011 54.559 338.893 54.7124 338.834C54.8659 338.775 55.0366 338.779 55.1871 338.845C55.3375 338.912 55.4554 339.035 55.5148 339.189L67.6418 370.548C67.7011 370.702 67.6971 370.872 67.6305 371.023C67.564 371.173 67.4404 371.291 67.2869 371.351C67.1335 371.41 66.9628 371.406 66.8123 371.339C66.6618 371.273 66.544 371.149 66.4846 370.996Z" fill="#FAFAFA"/>
</g>
<g opacity="0.3">
<path d="M242.543 329.234L230.039 307.771C231.875 306.046 233.474 304.086 234.795 301.941C235.703 300.016 236.253 297.942 236.419 295.819L218.814 303.612C220.385 317.628 220.162 327.554 218.144 333.389C216.892 337.096 214.866 340.494 212.202 343.359C209.537 346.224 206.294 348.49 202.688 350.007C198.537 351.965 193.957 352.834 189.378 352.534C185.094 352.221 180.926 350.999 177.151 348.949C173.614 347.046 170.48 344.478 167.92 341.384C165.054 337.699 162.705 333.639 160.939 329.318L157.838 330.69C157.267 330.951 156.648 331.092 156.02 331.104C155.393 331.115 154.769 330.998 154.188 330.758C153.608 330.518 153.083 330.162 152.646 329.711C152.209 329.259 151.87 328.723 151.649 328.135C151.191 326.913 151.214 325.563 151.714 324.358C152.213 323.152 153.151 322.181 154.339 321.641L157.44 320.269C155.802 315.064 154.851 309.667 154.611 304.216C154.517 300.005 155.201 295.814 156.627 291.851C157.892 288.247 159.764 284.887 162.162 281.915C164.792 278.847 167.848 276.174 171.237 273.976L183.767 297.743C180.05 300.263 177.547 302.561 176.257 304.638C174.809 307.181 174.006 310.04 173.917 312.966L195.404 303.446C194.555 296.688 194.233 289.875 194.44 283.067C194.864 278.551 196.41 274.213 198.938 270.447C201.848 266.062 206.006 262.651 210.875 260.656C214.157 259.078 217.743 258.233 221.384 258.18C225.026 258.127 228.635 258.868 231.961 260.35C238.803 263.344 244.451 269.807 248.903 279.738L250.48 279.035C251.051 278.774 251.67 278.633 252.298 278.622C252.926 278.61 253.55 278.727 254.13 278.967C254.711 279.207 255.236 279.563 255.672 280.015C256.109 280.466 256.449 281.002 256.669 281.59C257.127 282.812 257.104 284.162 256.605 285.368C256.106 286.573 255.167 287.544 253.979 288.084L252.402 288.787C255.404 298.268 255.989 306.294 254.157 312.864C252.273 319.489 248.173 325.267 242.543 329.234ZM233.206 286.686C231.879 284.827 230.036 283.399 227.906 282.577C226.221 282.108 224.425 282.26 222.843 283.005C221.123 283.741 219.692 285.023 218.774 286.654C217.75 288.825 217.335 291.234 217.571 293.623L233.206 286.686ZM176.84 322.278C178.954 325.451 181.22 327.457 183.637 328.296C184.742 328.72 185.921 328.921 187.104 328.888C188.287 328.855 189.453 328.588 190.533 328.103C192.496 327.209 194.084 325.653 195.019 323.708C196.086 321.619 196.54 318.251 196.365 313.637L176.84 322.278Z" fill="#FAFAFA"/>
</g>
<path d="M286.096 402.873C302.922 410.073 322.688 401.596 330.245 383.938C337.801 366.281 330.287 346.129 313.46 338.929C296.634 331.728 276.868 340.205 269.312 357.863C261.756 375.52 269.27 395.672 286.096 402.873Z" fill="#8807F7"/>
<path d="M309.907 397.017C305.691 398.899 301.066 399.676 296.467 399.275C291.527 398.822 286.814 396.986 282.87 393.978C278.925 390.969 275.909 386.91 274.166 382.265C272.351 377.465 271.815 372.275 272.611 367.205C273.407 362.135 275.507 357.359 278.706 353.346C281.615 349.631 285.391 346.686 289.703 344.77C293.002 343.264 296.577 342.453 300.203 342.387C303.83 342.321 307.431 343.001 310.783 344.386C314.136 345.77 317.168 347.829 319.69 350.435C322.213 353.041 324.173 356.138 325.449 359.534C328.077 366.589 327.935 374.378 325.051 381.332C322.167 388.287 316.756 393.891 309.907 397.017Z" fill="white"/>
<rect x="929" y="120" width="177" height="101" fill="#3D0072"/>
</g>
<defs>
<clipPath id="clip0_3637_74447">
<rect width="1090" height="341" rx="12" fill="white"/>
</clipPath>
</defs>
</svg>
