<svg width="101" height="65" viewBox="0 0 101 65" fill="none" xmlns="http://www.w3.org/2000/svg">
<path d="M60.5639 0.652832H37.3594V61.7151H60.5639V0.652832Z" fill="#8807F7"/>
<path opacity="0.5" d="M60.6392 0.652832H43.3359V61.7151H60.6392V0.652832Z" fill="black"/>
<path d="M90.8804 21.4707H67.6758V61.7114H90.8804V21.4707Z" fill="#8807F7"/>
<path opacity="0.3" d="M90.8794 21.376H73.5762V61.7151H90.8794V21.376Z" fill="black"/>
<path d="M30.103 11.5415H6.89844V61.7115H30.103V11.5415Z" fill="#8807F7"/>
<path opacity="0.4" d="M30.104 11.4187H12.8008V61.7117H30.104V11.4187Z" fill="black"/>
<path d="M15.932 61.7779C15.9003 62.5266 18.2658 63.233 21.2041 63.3596C24.1425 63.4861 26.5712 62.98 26.6028 62.2313C26.6345 61.4827 24.269 60.7797 21.3307 60.6532C18.3923 60.5267 15.9636 61.0328 15.932 61.7779Z" fill="#8807F7"/>
<path d="M15.989 60.4215L15.9316 61.7734L26.614 62.2268L26.6714 60.8748L15.989 60.4215Z" fill="#8807F7"/>
<path d="M15.9886 60.4249C15.957 61.1735 18.3224 61.88 21.2608 62.0065C24.1991 62.1331 26.6278 61.6269 26.6595 60.8783C26.6911 60.1296 24.3257 59.4267 21.3873 59.3002C18.4489 59.1736 16.0202 59.6798 15.9886 60.4249Z" fill="#8807F7"/>
<path opacity="0.4" d="M15.9886 60.4249C15.957 61.1735 18.3224 61.88 21.2608 62.0065C24.1991 62.1331 26.6278 61.6269 26.6595 60.8783C26.6911 60.1296 24.3257 59.4267 21.3873 59.3002C18.4489 59.1736 16.0202 59.6798 15.9886 60.4249Z" fill="white"/>
<path d="M16.6699 60.4039C16.6699 60.4522 16.686 60.4992 16.7156 60.5374C17.0671 60.0981 19.0248 59.8345 21.3586 59.9364C23.6924 60.0383 25.6221 60.4601 25.9278 60.9276C25.9627 60.8931 25.9828 60.8465 25.9841 60.7975C26.0052 60.2914 23.9385 59.7853 21.3621 59.6763C18.7858 59.5674 16.691 59.8978 16.6699 60.4039Z" fill="#8807F7"/>
<path opacity="0.4" d="M16.6699 60.4039C16.6699 60.4522 16.686 60.4992 16.7156 60.5374C17.0671 60.0981 19.0248 59.8345 21.3586 59.9364C23.6924 60.0383 25.6221 60.4601 25.9278 60.9276C25.9627 60.8931 25.9828 60.8465 25.9841 60.7975C26.0052 60.2914 23.9385 59.7853 21.3621 59.6763C18.7858 59.5674 16.691 59.8978 16.6699 60.4039Z" fill="#8807F7"/>
<path opacity="0.4" d="M16.7148 60.5372C17.0347 61.0047 18.9573 61.4264 21.2841 61.5249C23.6108 61.6233 25.5756 61.3667 25.9271 60.9273C25.6143 60.4599 23.6917 60.0381 21.3579 59.9362C19.0241 59.8342 17.0734 60.0978 16.7148 60.5372Z" fill="#8807F7"/>
<path d="M14.7972 59.7286C14.7656 60.4772 17.131 61.1837 20.0694 61.3102C23.0077 61.4368 25.4364 60.9306 25.4681 60.1855C25.4997 59.4404 23.1342 58.7304 20.1959 58.6039C17.2575 58.4773 14.8429 58.9835 14.7972 59.7286Z" fill="#8807F7"/>
<path d="M14.8699 58.38L14.8125 59.7319L25.4948 60.1853L25.5522 58.8333L14.8699 58.38Z" fill="#8807F7"/>
<path d="M14.8675 58.3796C14.8359 59.1247 17.2013 59.8312 20.1397 59.9577C23.078 60.0842 25.5067 59.5781 25.5384 58.833C25.57 58.0878 23.2046 57.3779 20.2662 57.2513C17.3278 57.1248 14.8991 57.6309 14.8675 58.3796Z" fill="#8807F7"/>
<path opacity="0.4" d="M14.8675 58.3796C14.8359 59.1247 17.2013 59.8312 20.1397 59.9577C23.078 60.0842 25.5067 59.5781 25.5384 58.833C25.57 58.0878 23.2046 57.3779 20.2662 57.2513C17.3278 57.1248 14.8991 57.6309 14.8675 58.3796Z" fill="white"/>
<path d="M15.5509 58.3546C15.5494 58.4032 15.5656 58.4506 15.5966 58.4881C15.948 58.0488 17.9058 57.7852 20.2396 57.8906C22.5734 57.9961 24.503 58.4108 24.8088 58.8783C24.8408 58.8433 24.8605 58.7989 24.865 58.7517C24.8861 58.2456 22.8194 57.736 20.2431 57.627C17.6668 57.518 15.572 57.8484 15.5509 58.3546Z" fill="#8807F7"/>
<path opacity="0.4" d="M15.5509 58.3546C15.5494 58.4032 15.5656 58.4506 15.5966 58.4881C15.948 58.0488 17.9058 57.7852 20.2396 57.8906C22.5734 57.9961 24.503 58.4108 24.8088 58.8783C24.8408 58.8433 24.8605 58.7989 24.865 58.7517C24.8861 58.2456 22.8194 57.736 20.2431 57.627C17.6668 57.518 15.572 57.8484 15.5509 58.3546Z" fill="#8807F7"/>
<path opacity="0.4" d="M15.5957 58.4883C15.912 58.9558 17.8381 59.3776 20.1649 59.476C22.4917 59.5744 24.4565 59.3178 24.8079 58.8785C24.4951 58.411 22.5725 57.9892 20.2387 57.8908C17.9049 57.7924 15.9507 58.049 15.5957 58.4883Z" fill="#8807F7"/>
<path d="M14.9554 57.2616C14.9238 58.0102 17.2892 58.7167 20.2276 58.8432C23.1659 58.9697 25.5946 58.4636 25.6263 57.715C25.6579 56.9663 23.2924 56.2634 20.3541 56.1368C17.4157 56.0103 14.987 56.5164 14.9554 57.2616Z" fill="#8807F7"/>
<path d="M15.0144 55.9095L14.957 57.2615L25.6394 57.7148L25.6968 56.3628L15.0144 55.9095Z" fill="#8807F7"/>
<path d="M15.012 55.9085C14.9804 56.6572 17.3458 57.3636 20.2842 57.4902C23.2226 57.6167 25.6478 57.1106 25.6794 56.3654C25.711 55.6203 23.3456 54.9103 20.4072 54.7838C17.4689 54.6573 15.0437 55.1634 15.012 55.9085Z" fill="#8807F7"/>
<path opacity="0.4" d="M15.012 55.9085C14.9804 56.6572 17.3458 57.3636 20.2842 57.4902C23.2226 57.6167 25.6478 57.1106 25.6794 56.3654C25.711 55.6203 23.3456 54.9103 20.4072 54.7838C17.4689 54.6573 15.0437 55.1634 15.012 55.9085Z" fill="white"/>
<path d="M15.6934 55.8875C15.6933 55.9359 15.7094 55.9829 15.739 56.0211C16.0905 55.5817 18.0483 55.3181 20.3821 55.4236C22.7159 55.529 24.6455 55.9438 24.9513 56.4112C24.9859 56.3781 25.0061 56.3326 25.0075 56.2847C25.0286 55.7786 22.9619 55.2689 20.3856 55.16C17.8093 55.051 15.7144 55.3814 15.6934 55.8875Z" fill="#8807F7"/>
<path opacity="0.4" d="M15.6934 55.8875C15.6933 55.9359 15.7094 55.9829 15.739 56.0211C16.0905 55.5817 18.0483 55.3181 20.3821 55.4236C22.7159 55.529 24.6455 55.9438 24.9513 56.4112C24.9859 56.3781 25.0061 56.3326 25.0075 56.2847C25.0286 55.7786 22.9619 55.2689 20.3856 55.16C17.8093 55.051 15.7144 55.3814 15.6934 55.8875Z" fill="#8807F7"/>
<path opacity="0.4" d="M15.7402 56.0209C16.0601 56.4884 17.9827 56.9102 20.3094 57.0086C22.6362 57.107 24.601 56.8504 24.9525 56.4111C24.6397 55.9436 22.7171 55.5218 20.3833 55.4234C18.0494 55.325 16.0987 55.5886 15.7402 56.0209Z" fill="#8807F7"/>
<path d="M13.8343 55.2162C13.8027 55.9614 16.1681 56.6678 19.1065 56.7944C22.0448 56.9209 24.4735 56.4148 24.5052 55.6696C24.5368 54.9245 22.1714 54.2145 19.233 54.088C16.2946 53.9615 13.8659 54.4676 13.8343 55.2162Z" fill="#8807F7"/>
<path d="M13.8894 53.8536L13.832 55.2056L24.5144 55.6589L24.5717 54.3069L13.8894 53.8536Z" fill="#8807F7"/>
<path d="M13.889 53.8628C13.8574 54.6079 16.2228 55.3144 19.1612 55.4409C22.0995 55.5675 24.5282 55.0614 24.5599 54.3162C24.5915 53.5711 22.226 52.8611 19.2877 52.7346C16.3493 52.608 13.9206 53.1282 13.889 53.8628Z" fill="#8807F7"/>
<path opacity="0.4" d="M13.889 53.8628C13.8574 54.6079 16.2228 55.3144 19.1612 55.4409C22.0995 55.5675 24.5282 55.0614 24.5599 54.3162C24.5915 53.5711 22.226 52.8611 19.2877 52.7346C16.3493 52.608 13.9206 53.1282 13.889 53.8628Z" fill="white"/>
<path d="M14.5705 53.8311C14.5684 53.8798 14.5847 53.9275 14.6162 53.9646C14.9677 53.5253 16.9254 53.2617 19.2592 53.3671C21.593 53.4726 23.5226 53.8873 23.8284 54.3548C23.8604 54.3198 23.8802 54.2754 23.8847 54.2282C23.9058 53.7221 21.8391 53.2125 19.2627 53.1035C16.6864 52.9945 14.5916 53.332 14.5705 53.8311Z" fill="#8807F7"/>
<path opacity="0.4" d="M14.5705 53.8311C14.5684 53.8798 14.5847 53.9275 14.6162 53.9646C14.9677 53.5253 16.9254 53.2617 19.2592 53.3671C21.593 53.4726 23.5226 53.8873 23.8284 54.3548C23.8604 54.3198 23.8802 54.2754 23.8847 54.2282C23.9058 53.7221 21.8391 53.2125 19.2627 53.1035C16.6864 52.9945 14.5916 53.332 14.5705 53.8311Z" fill="#8807F7"/>
<path opacity="0.4" d="M14.6172 53.972C14.9335 54.4394 16.8596 54.8612 19.1864 54.9596C21.5132 55.058 23.4779 54.8015 23.8294 54.3621C23.5166 53.8946 21.594 53.4729 19.2602 53.3745C16.9264 53.276 14.9722 53.5326 14.6172 53.972Z" fill="#8807F7"/>
<path d="M15.5452 53.4797C15.5136 54.2248 17.879 54.9313 20.8174 55.0578C23.7558 55.1843 26.1845 54.6782 26.2161 53.9331C26.2477 53.1879 23.8823 52.478 20.9439 52.3514C18.0056 52.2249 15.5769 52.731 15.5452 53.4797Z" fill="#8807F7"/>
<path d="M15.6062 52.1261L15.5488 53.478L26.2312 53.9314L26.2885 52.5794L15.6062 52.1261Z" fill="#8807F7"/>
<path d="M15.6038 52.1263C15.5722 52.8715 17.9376 53.578 20.876 53.7045C23.8144 53.831 26.2431 53.3249 26.2747 52.5798C26.3063 51.8346 23.9409 51.1246 21.0025 50.9981C18.0642 50.8716 15.6355 51.3707 15.6038 52.1263Z" fill="#8807F7"/>
<path opacity="0.4" d="M15.6038 52.1263C15.5722 52.8715 17.9376 53.578 20.876 53.7045C23.8144 53.831 26.2431 53.3249 26.2747 52.5798C26.3063 51.8346 23.9409 51.1246 21.0025 50.9981C18.0642 50.8716 15.6355 51.3707 15.6038 52.1263Z" fill="white"/>
<path d="M16.2832 52.1019C16.2844 52.15 16.3004 52.1966 16.3289 52.2354C16.6804 51.7961 18.6416 51.5325 20.9719 51.6379C23.3022 51.7434 25.2389 52.1581 25.5411 52.6256C25.5754 52.5918 25.5965 52.5469 25.6009 52.499C25.622 51.9929 23.5553 51.4833 20.9789 51.3743C18.4026 51.2654 16.3078 51.5957 16.2832 52.1019Z" fill="#8807F7"/>
<path opacity="0.4" d="M16.2832 52.1019C16.2844 52.15 16.3004 52.1966 16.3289 52.2354C16.6804 51.7961 18.6416 51.5325 20.9719 51.6379C23.3022 51.7434 25.2389 52.1581 25.5411 52.6256C25.5754 52.5918 25.5965 52.5469 25.6009 52.499C25.622 51.9929 23.5553 51.4833 20.9789 51.3743C18.4026 51.2654 16.3078 51.5957 16.2832 52.1019Z" fill="#8807F7"/>
<path opacity="0.4" d="M16.3301 52.2354C16.6499 52.7029 18.5725 53.1246 20.8993 53.223C23.2261 53.3215 25.1944 53.0649 25.5423 52.6255C25.233 52.1581 23.3069 51.7363 20.9731 51.6379C18.6393 51.5395 16.6886 51.796 16.3301 52.2354Z" fill="#8807F7"/>
<path d="M14.4241 51.4305C14.3925 52.1757 16.758 52.8856 19.6963 53.0087C22.6347 53.1317 25.0634 52.6291 25.095 51.8839C25.1266 51.1388 22.7612 50.4288 19.8228 50.3023C16.8845 50.1757 14.4452 50.6678 14.4241 51.4305Z" fill="#8807F7"/>
<path d="M14.4792 50.0733L14.4219 51.4253L25.1042 51.8786L25.1616 50.5266L14.4792 50.0733Z" fill="#8807F7"/>
<path d="M14.4788 50.0773C14.4472 50.8225 16.8126 51.5324 19.751 51.6555C22.6894 51.7785 25.1181 51.2794 25.1497 50.5307C25.1813 49.7821 22.8159 49.0756 19.8775 48.9491C16.9392 48.8225 14.5105 49.3287 14.4788 50.0773Z" fill="#8807F7"/>
<path opacity="0.4" d="M14.4788 50.0773C14.4472 50.8225 16.8126 51.5324 19.751 51.6555C22.6894 51.7785 25.1181 51.2794 25.1497 50.5307C25.1813 49.7821 22.8159 49.0756 19.8775 48.9491C16.9392 48.8225 14.5105 49.3287 14.4788 50.0773Z" fill="white"/>
<path d="M15.1485 50.0531C15.1473 50.1017 15.1635 50.149 15.1942 50.1867C15.5457 49.7473 17.5034 49.4837 19.8372 49.5892C22.171 49.6946 24.1006 50.1093 24.4064 50.5803C24.4407 50.5455 24.4607 50.4991 24.4627 50.4503C24.4837 49.9442 22.4171 49.438 19.8407 49.3255C17.2644 49.2131 15.1836 49.547 15.1485 50.0531Z" fill="#8807F7"/>
<path opacity="0.4" d="M15.1485 50.0531C15.1473 50.1017 15.1635 50.149 15.1942 50.1867C15.5457 49.7473 17.5034 49.4837 19.8372 49.5892C22.171 49.6946 24.1006 50.1093 24.4064 50.5803C24.4407 50.5455 24.4607 50.4991 24.4627 50.4503C24.4837 49.9442 22.4171 49.438 19.8407 49.3255C17.2644 49.2131 15.1836 49.547 15.1485 50.0531Z" fill="#8807F7"/>
<path opacity="0.4" d="M15.207 50.1866C15.5269 50.654 17.4495 51.0758 19.7762 51.1777C22.103 51.2797 24.0678 51.0196 24.4193 50.5802C24.1065 50.1093 22.1839 49.6875 19.8501 49.5891C17.5162 49.4906 15.5655 49.7472 15.207 50.1866Z" fill="#8807F7"/>
<path d="M0.00429293 61.1246C-0.0308549 61.8732 2.33459 62.5797 5.27646 62.7027C8.21833 62.8257 10.64 62.3266 10.6716 61.578C10.7033 60.8293 8.34135 60.1228 5.39948 59.9998C2.45761 59.8768 0.0359259 60.3759 0.00429293 61.1246Z" fill="#8807F7"/>
<path d="M0.0573736 59.7642L0 61.1162L10.6823 61.5695L10.7397 60.2176L0.0573736 59.7642Z" fill="#8807F7"/>
<path d="M0.0589074 59.771C0.0272743 60.5197 2.39272 61.2261 5.33108 61.3527C8.26943 61.4792 10.6981 60.9731 10.7298 60.2244C10.7614 59.4758 8.39596 58.7693 5.45761 58.6463C2.51925 58.5233 0.0905404 59.0224 0.0589074 59.771Z" fill="#8807F7"/>
<path opacity="0.4" d="M0.0589074 59.771C0.0272743 60.5197 2.39272 61.2261 5.33108 61.3527C8.26943 61.4792 10.6981 60.9731 10.7298 60.2244C10.7614 59.4758 8.39596 58.7693 5.45761 58.6463C2.51925 58.5233 0.0905404 59.0224 0.0589074 59.771Z" fill="white"/>
<path d="M0.736652 59.7465C0.733772 59.7953 0.750181 59.8432 0.782343 59.88C1.13382 59.4407 3.09155 59.1771 5.42537 59.2825C7.75918 59.388 9.68879 59.8062 9.99458 60.2737C10.0266 60.2374 10.0463 60.1919 10.0508 60.1436C10.0719 59.6375 8.00522 59.1314 5.42888 59.0224C2.85255 58.9135 0.761256 59.2403 0.736652 59.7465Z" fill="#8807F7"/>
<path opacity="0.4" d="M0.736652 59.7465C0.733772 59.7953 0.750181 59.8432 0.782343 59.88C1.13382 59.4407 3.09155 59.1771 5.42537 59.2825C7.75918 59.388 9.68879 59.8062 9.99458 60.2737C10.0266 60.2374 10.0463 60.1919 10.0508 60.1436C10.0719 59.6375 8.00522 59.1314 5.42888 59.0224C2.85255 58.9135 0.761256 59.2403 0.736652 59.7465Z" fill="#8807F7"/>
<path opacity="0.4" d="M0.787109 59.8802C1.10344 60.3476 3.02954 60.7729 5.35632 60.8714C7.68311 60.9698 9.64787 60.7132 9.99935 60.2738C9.68653 59.8064 7.76395 59.3811 5.43013 59.2827C3.09632 59.1843 1.1421 59.4549 0.787109 59.8802Z" fill="#8807F7"/>
<path d="M4.65051 59.8062C4.47477 60.5337 6.66447 61.676 9.53605 62.3579C12.4076 63.0398 14.8785 63.0046 15.0507 62.2771C15.223 61.5495 13.0333 60.4072 10.1617 59.7253C7.2901 59.0435 4.82273 59.0786 4.65051 59.8062Z" fill="#8807F7"/>
<path d="M4.96158 58.4965L4.64844 59.813L15.0502 62.2872L15.3633 60.9707L4.96158 58.4965Z" fill="#8807F7"/>
<path d="M4.95519 58.4881C4.77945 59.2157 6.96916 60.358 9.84073 61.0434C12.7123 61.7287 15.1832 61.6901 15.3554 60.9625C15.5276 60.235 13.3485 59.1032 10.4734 58.4003C7.59831 57.6973 5.13445 57.7606 4.95519 58.4881Z" fill="#8807F7"/>
<path opacity="0.4" d="M4.95519 58.4881C4.77945 59.2157 6.96916 60.358 9.84073 61.0434C12.7123 61.7287 15.1832 61.6901 15.3554 60.9625C15.5276 60.235 13.3485 59.1032 10.4734 58.4003C7.59831 57.6973 5.13445 57.7606 4.95519 58.4881Z" fill="white"/>
<path d="M5.63347 58.5938C5.62308 58.6416 5.63058 58.6916 5.65456 58.7344C6.08687 58.3829 8.05515 58.4883 10.3257 59.0296C12.5962 59.5709 14.4134 60.3511 14.6313 60.8678C14.671 60.8398 14.6996 60.7988 14.7121 60.7518C14.8281 60.2598 12.895 59.3705 10.3854 58.773C7.8759 58.1755 5.75297 58.1017 5.63347 58.5938Z" fill="#8807F7"/>
<path opacity="0.4" d="M5.63347 58.5938C5.62308 58.6416 5.63058 58.6916 5.65456 58.7344C6.08687 58.3829 8.05515 58.4883 10.3257 59.0296C12.5962 59.5709 14.4134 60.3511 14.6313 60.8678C14.671 60.8398 14.6996 60.7988 14.7121 60.7518C14.8281 60.2598 12.895 59.3705 10.3854 58.773C7.8759 58.1755 5.75297 58.1017 5.63347 58.5938Z" fill="#8807F7"/>
<path opacity="0.4" d="M5.6582 58.7517C5.88315 59.2719 7.68975 60.0522 9.96381 60.59C12.2379 61.1277 14.2061 61.2507 14.6349 60.8852C14.417 60.3685 12.6069 59.5882 10.3293 59.047C8.05177 58.5057 6.08701 58.3686 5.6582 58.7517Z" fill="#8807F7"/>
<path d="M18.2059 50.9843C20.8653 50.9843 23.0211 48.8284 23.0211 46.169C23.0211 43.5096 20.8653 41.3538 18.2059 41.3538C15.5465 41.3538 13.3906 43.5096 13.3906 46.169C13.3906 48.8284 15.5465 50.9843 18.2059 50.9843Z" fill="#8807F7"/>
<path d="M18.782 50.9843C21.4414 50.9843 23.5973 48.8284 23.5973 46.169C23.5973 43.5096 21.4414 41.3538 18.782 41.3538C16.1227 41.3538 13.9668 43.5096 13.9668 46.169C13.9668 48.8284 16.1227 50.9843 18.782 50.9843Z" fill="#8807F7"/>
<path opacity="0.5" d="M18.782 50.9843C21.4414 50.9843 23.5973 48.8284 23.5973 46.169C23.5973 43.5096 21.4414 41.3538 18.782 41.3538C16.1227 41.3538 13.9668 43.5096 13.9668 46.169C13.9668 48.8284 16.1227 50.9843 18.782 50.9843Z" fill="white"/>
<path d="M21.3334 48.7189C22.7417 47.3106 22.7417 45.0273 21.3334 43.619C19.9251 42.2107 17.6418 42.2107 16.2335 43.619C14.8252 45.0273 14.8252 47.3106 16.2335 48.7189C17.6418 50.1272 19.9251 50.1272 21.3334 48.7189Z" fill="#8807F7"/>
<path d="M86.2418 62.4387C86.2136 63.1838 83.8025 63.704 80.8501 63.5986C77.8977 63.4931 75.5322 62.8007 75.5568 62.0556C75.5814 61.3104 77.9996 60.7867 80.9485 60.8922C83.8974 60.9976 86.2699 61.69 86.2418 62.4387Z" fill="#8807F7"/>
<path d="M75.6011 60.6911L75.5527 62.0435L86.2379 62.4259L86.2863 61.0736L75.6011 60.6911Z" fill="#8807F7"/>
<path d="M86.2925 61.0857C86.2644 61.8308 83.8533 62.351 80.9009 62.2455C77.9485 62.1401 75.583 61.4477 75.6076 60.7025C75.6322 59.9574 78.0469 59.4337 80.9993 59.5391C83.9517 59.6446 86.3207 60.337 86.2925 61.0857Z" fill="#8807F7"/>
<path opacity="0.4" d="M86.2925 61.0857C86.2644 61.8308 83.8533 62.351 80.9009 62.2455C77.9485 62.1401 75.583 61.4477 75.6076 60.7025C75.6322 59.9574 78.0469 59.4337 80.9993 59.5391C83.9517 59.6446 86.3207 60.337 86.2925 61.0857Z" fill="white"/>
<path d="M85.613 61.0082C85.611 61.057 85.591 61.1034 85.5568 61.1382C85.2369 60.6708 83.3108 60.2595 80.9875 60.1787C78.6643 60.0979 76.696 60.365 76.348 60.8043C76.3171 60.7679 76.2998 60.722 76.2988 60.6743C76.3199 60.1682 78.4077 59.8237 80.9946 59.9151C83.5814 60.0065 85.6306 60.5091 85.613 61.0082Z" fill="#8807F7"/>
<path opacity="0.4" d="M85.613 61.0082C85.611 61.057 85.591 61.1034 85.5568 61.1382C85.2369 60.6708 83.3108 60.2595 80.9875 60.1787C78.6643 60.0979 76.696 60.365 76.348 60.8043C76.3171 60.7679 76.2998 60.722 76.2988 60.6743C76.3199 60.1682 78.4077 59.8237 80.9946 59.9151C83.5814 60.0065 85.6306 60.5091 85.613 61.0082Z" fill="#8807F7"/>
<path opacity="0.4" d="M85.5583 61.1382C85.2069 61.5776 83.2526 61.8412 80.9188 61.7639C78.585 61.6865 76.6519 61.2718 76.3496 60.8043C76.7011 60.365 78.6483 60.1014 80.9891 60.1787C83.33 60.256 85.2385 60.6708 85.5583 61.1382Z" fill="#8807F7"/>
<path d="M87.5211 60.4845C87.4929 61.2296 85.0818 61.7498 82.1294 61.6444C79.177 61.5389 76.8115 60.8465 76.8361 60.0978C76.8607 59.3492 79.2789 58.8325 82.2278 58.938C85.1767 59.0434 87.5527 59.7358 87.5211 60.4845Z" fill="#8807F7"/>
<path d="M76.8924 58.7561L76.8438 60.1084L87.5288 60.4927L87.5774 59.1404L76.8924 58.7561Z" fill="#8807F7"/>
<path d="M87.5699 59.1314C87.5418 59.8766 85.1307 60.3968 82.1783 60.2913C79.2259 60.1859 76.8569 59.4935 76.885 58.7448C76.9131 57.9962 79.3243 57.4795 82.2767 57.5849C85.2291 57.6904 87.5945 58.4004 87.5699 59.1314Z" fill="#8807F7"/>
<path opacity="0.4" d="M87.5699 59.1314C87.5418 59.8766 85.1307 60.3968 82.1783 60.2913C79.2259 60.1859 76.8569 59.4935 76.885 58.7448C76.9131 57.9962 79.3243 57.4795 82.2767 57.5849C85.2291 57.6904 87.5945 58.4004 87.5699 59.1314Z" fill="white"/>
<path d="M86.8942 59.0543C86.8928 59.1022 86.8726 59.1477 86.838 59.1809C86.5182 58.7169 84.5921 58.3057 82.2688 58.2248C79.9455 58.144 77.9737 58.4111 77.6293 58.8505C77.5984 58.8141 77.581 58.7682 77.5801 58.7204C77.6012 58.2143 79.689 57.8699 82.2758 57.9612C84.8627 58.0526 86.9118 58.5482 86.8942 59.0543Z" fill="#8807F7"/>
<path opacity="0.4" d="M86.8942 59.0543C86.8928 59.1022 86.8726 59.1477 86.838 59.1809C86.5182 58.7169 84.5921 58.3057 82.2688 58.2248C79.9455 58.144 77.9737 58.4111 77.6293 58.8505C77.5984 58.8141 77.581 58.7682 77.5801 58.7204C77.6012 58.2143 79.689 57.8699 82.2758 57.9612C84.8627 58.0526 86.9118 58.5482 86.8942 59.0543Z" fill="#8807F7"/>
<path opacity="0.4" d="M86.8513 59.1806C86.4998 59.6235 84.5456 59.8836 82.2118 59.8098C79.878 59.7359 77.9448 59.3177 77.6426 58.8502C77.9941 58.4109 79.9412 58.1473 82.2821 58.2246C84.6229 58.3019 86.5174 58.7167 86.8513 59.1806Z" fill="#8807F7"/>
<path d="M87.5699 58.0103C87.5418 58.7589 85.1272 59.2791 82.1783 59.1736C79.2294 59.0682 76.8569 58.3758 76.885 57.6271C76.9131 56.8785 79.3243 56.3618 82.2767 56.4673C85.2291 56.5727 87.5945 57.2651 87.5699 58.0103Z" fill="#8807F7"/>
<path d="M76.9373 56.2839L76.8887 57.6362L87.5737 58.0206L87.6224 56.6682L76.9373 56.2839Z" fill="#8807F7"/>
<path d="M87.6188 56.6428C87.5906 57.3915 85.176 57.9117 82.2271 57.8062C79.2782 57.7008 76.9057 57.0084 76.9338 56.2597C76.962 55.5111 79.3731 54.9944 82.322 55.0998C85.2709 55.2053 87.6434 55.9118 87.6188 56.6428Z" fill="#8807F7"/>
<path opacity="0.4" d="M87.6188 56.6428C87.5906 57.3915 85.176 57.9117 82.2271 57.8062C79.2782 57.7008 76.9057 57.0084 76.9338 56.2597C76.962 55.5111 79.3731 54.9944 82.322 55.0998C85.2709 55.2053 87.6434 55.9118 87.6188 56.6428Z" fill="white"/>
<path d="M86.9416 56.5833C86.9371 56.6304 86.9173 56.6748 86.8853 56.7098C86.562 56.2458 84.6359 55.8346 82.3161 55.7503C79.9964 55.6659 78.0246 55.9365 77.6766 56.3794C77.646 56.3417 77.6298 56.2944 77.6309 56.2458C77.6309 55.7397 79.7398 55.3988 82.3267 55.4902C84.9135 55.5815 86.9591 56.0771 86.9416 56.5833Z" fill="#8807F7"/>
<path opacity="0.4" d="M86.9416 56.5833C86.9371 56.6304 86.9173 56.6748 86.8853 56.7098C86.562 56.2458 84.6359 55.8346 82.3161 55.7503C79.9964 55.6659 78.0246 55.9365 77.6766 56.3794C77.646 56.3417 77.6298 56.2944 77.6309 56.2458C77.6309 55.7397 79.7398 55.3988 82.3267 55.4902C84.9135 55.5815 86.9591 56.0771 86.9416 56.5833Z" fill="#8807F7"/>
<path opacity="0.4" d="M86.8845 56.71C86.533 57.1529 84.5788 57.413 82.245 57.3392C79.9112 57.2654 77.9781 56.8471 77.6758 56.3796C78.0273 55.9368 79.9745 55.6767 82.3153 55.7505C84.6561 55.8243 86.5611 56.2461 86.8845 56.71Z" fill="#8807F7"/>
<path d="M88.8492 56.0559C88.8211 56.8045 86.4065 57.3247 83.4576 57.2193C80.5087 57.1139 78.1362 56.4214 78.1643 55.6728C78.1924 54.9241 80.6036 54.4075 83.556 54.5129C86.5084 54.6184 88.8738 55.3108 88.8492 56.0559Z" fill="#8807F7"/>
<path d="M78.2047 54.3137L78.1562 55.666L88.8414 56.0485L88.8898 54.6962L78.2047 54.3137Z" fill="#8807F7"/>
<path d="M88.8965 54.7029C88.8719 55.4515 86.4572 55.9717 83.5083 55.8663C80.5594 55.7608 78.187 55.0684 78.2151 54.3198C78.2432 53.5711 80.6544 53.0544 83.6033 53.1599C86.5522 53.2653 88.9246 53.9578 88.8965 54.7029Z" fill="#8807F7"/>
<path opacity="0.4" d="M88.8965 54.7029C88.8719 55.4515 86.4572 55.9717 83.5083 55.8663C80.5594 55.7608 78.187 55.0684 78.2151 54.3198C78.2432 53.5711 80.6544 53.0544 83.6033 53.1599C86.5522 53.2653 88.9246 53.9578 88.8965 54.7029Z" fill="white"/>
<path d="M88.2209 54.6292C88.2164 54.6763 88.1966 54.7207 88.1646 54.7557C87.8413 54.2917 85.9152 53.8805 83.5954 53.7962C81.2757 53.7118 79.3039 53.9824 78.9559 54.4253C78.9253 54.3876 78.9091 54.3403 78.9102 54.2917C78.9278 53.7856 81.0191 53.4447 83.606 53.5361C86.1928 53.6274 88.256 54.123 88.2209 54.6292Z" fill="#8807F7"/>
<path opacity="0.4" d="M88.2209 54.6292C88.2164 54.6763 88.1966 54.7207 88.1646 54.7557C87.8413 54.2917 85.9152 53.8805 83.5954 53.7962C81.2757 53.7118 79.3039 53.9824 78.9559 54.4253C78.9253 54.3876 78.9091 54.3403 78.9102 54.2917C78.9278 53.7856 81.0191 53.4447 83.606 53.5361C86.1928 53.6274 88.256 54.123 88.2209 54.6292Z" fill="#8807F7"/>
<path opacity="0.4" d="M88.1657 54.7559C87.8143 55.1988 85.8601 55.4589 83.5262 55.3851C81.1924 55.3113 79.2593 54.893 78.957 54.4255C79.3085 53.9827 81.2557 53.7226 83.5965 53.7964C85.9374 53.8702 87.8424 54.292 88.1657 54.7559Z" fill="#8807F7"/>
<path d="M46.432 60.9348C46.4003 61.6834 48.7623 62.3899 51.7041 62.5164C54.646 62.6429 57.0677 62.1368 57.0993 61.3882C57.1309 60.6395 54.769 59.933 51.8271 59.81C48.8853 59.687 46.453 60.1896 46.432 60.9348Z" fill="#8807F7"/>
<path d="M46.4695 59.577L46.4121 60.929L57.0945 61.3823L57.1518 60.0303L46.4695 59.577Z" fill="#8807F7"/>
<path d="M46.4769 59.5812C46.4452 60.3299 48.8107 61.0364 51.749 61.1629C54.6874 61.2894 57.1161 60.7833 57.1477 60.0346C57.1794 59.286 54.8139 58.5795 51.8756 58.4565C48.9372 58.3335 46.5085 58.8361 46.4769 59.5812Z" fill="#8807F7"/>
<path opacity="0.4" d="M46.4769 59.5812C46.4452 60.3299 48.8107 61.0364 51.749 61.1629C54.6874 61.2894 57.1161 60.7833 57.1477 60.0346C57.1794 59.286 54.8139 58.5795 51.8756 58.4565C48.9372 58.3335 46.5085 58.8361 46.4769 59.5812Z" fill="white"/>
<path d="M47.1584 59.5601C47.1564 59.6077 47.1728 59.6543 47.204 59.6902C47.5555 59.2508 49.5133 58.9872 51.8471 59.0927C54.1809 59.1981 56.1105 59.6164 56.4163 60.0838C56.4483 60.0475 56.468 60.002 56.4725 59.9538C56.4936 59.4477 54.4269 58.9415 51.8506 58.8326C49.2743 58.7236 47.1794 59.054 47.1584 59.5601Z" fill="#8807F7"/>
<path opacity="0.4" d="M47.1584 59.5601C47.1564 59.6077 47.1728 59.6543 47.204 59.6902C47.5555 59.2508 49.5133 58.9872 51.8471 59.0927C54.1809 59.1981 56.1105 59.6164 56.4163 60.0838C56.4483 60.0475 56.468 60.002 56.4725 59.9538C56.4936 59.4477 54.4269 58.9415 51.8506 58.8326C49.2743 58.7236 47.1794 59.054 47.1584 59.5601Z" fill="#8807F7"/>
<path opacity="0.4" d="M47.2031 59.6901C47.5195 60.1611 49.4456 60.5829 51.7723 60.6813C54.0991 60.7797 56.0639 60.5231 56.4154 60.0838C56.1025 59.6163 54.18 59.1945 51.8462 59.0926C49.5123 58.9907 47.5581 59.2508 47.2031 59.6901Z" fill="#8807F7"/>
<path d="M45.2952 58.8854C45.2636 59.6341 47.629 60.3406 50.5674 60.4671C53.5058 60.5936 55.9345 60.0875 55.9661 59.3389C55.9977 58.5902 53.6323 57.8837 50.6939 57.7607C47.7556 57.6377 45.3269 58.1403 45.2952 58.8854Z" fill="#8807F7"/>
<path d="M45.3523 57.5384L45.2949 58.8904L55.9773 59.3437L56.0346 57.9917L45.3523 57.5384Z" fill="#8807F7"/>
<path d="M45.3538 57.5323C45.3222 58.281 47.6876 58.9874 50.626 59.114C53.5644 59.2405 55.9931 58.7344 56.0247 57.9857C56.0563 57.2371 53.6909 56.5341 50.7525 56.4076C47.8142 56.281 45.3749 56.7872 45.3538 57.5323Z" fill="#8807F7"/>
<path opacity="0.4" d="M45.3538 57.5323C45.3222 58.281 47.6876 58.9874 50.626 59.114C53.5644 59.2405 55.9931 58.7344 56.0247 57.9857C56.0563 57.2371 53.6909 56.5341 50.7525 56.4076C47.8142 56.281 45.3749 56.7872 45.3538 57.5323Z" fill="white"/>
<path d="M46.0332 57.511C46.0351 57.5591 46.0509 57.6055 46.0789 57.6446C46.4304 57.2053 48.3916 56.9416 50.7219 57.0436C53.0522 57.1455 54.9889 57.5673 55.2911 58.0347C55.3256 57.9997 55.3467 57.9537 55.3509 57.9047C55.372 57.3986 53.3053 56.8924 50.7289 56.7835C48.1526 56.6745 46.0578 56.9944 46.0332 57.511Z" fill="#8807F7"/>
<path opacity="0.4" d="M46.0332 57.511C46.0351 57.5591 46.0509 57.6055 46.0789 57.6446C46.4304 57.2053 48.3916 56.9416 50.7219 57.0436C53.0522 57.1455 54.9889 57.5673 55.2911 58.0347C55.3256 57.9997 55.3467 57.9537 55.3509 57.9047C55.372 57.3986 53.3053 56.8924 50.7289 56.7835C48.1526 56.6745 46.0578 56.9944 46.0332 57.511Z" fill="#8807F7"/>
<path opacity="0.4" d="M46.0781 57.6446C46.398 58.1121 48.3206 58.5339 50.6473 58.6323C52.9741 58.7307 54.9424 58.4741 55.2904 58.0347C54.9811 57.5673 53.055 57.1455 50.7212 57.0436C48.3873 56.9417 46.4296 57.2053 46.0781 57.6446Z" fill="#8807F7"/>
<path d="M45.4437 56.4181C45.412 57.1668 47.7775 57.8733 50.7158 57.9998C53.6542 58.1263 56.0829 57.6202 56.1145 56.8716C56.1462 56.1229 53.7807 55.4164 50.8424 55.2934C47.904 55.1704 45.4753 55.673 45.4437 56.4181Z" fill="#8807F7"/>
<path d="M45.4968 55.0645L45.4395 56.4165L56.1218 56.8698L56.1792 55.5178L45.4968 55.0645Z" fill="#8807F7"/>
<path d="M45.4984 55.0646C45.4667 55.8133 47.8322 56.5198 50.7705 56.6463C53.7089 56.7728 56.1376 56.2667 56.1692 55.518C56.2009 54.7694 53.8354 54.0629 50.8971 53.9399C47.9587 53.8169 45.53 54.3195 45.4984 55.0646Z" fill="#8807F7"/>
<path opacity="0.4" d="M45.4984 55.0646C45.4667 55.8133 47.8322 56.5198 50.7705 56.6463C53.7089 56.7728 56.1376 56.2667 56.1692 55.518C56.2009 54.7694 53.8354 54.0629 50.8971 53.9399C47.9587 53.8169 45.53 54.3195 45.4984 55.0646Z" fill="white"/>
<path d="M46.1798 55.0439C46.1779 55.0915 46.1942 55.1381 46.2255 55.174C46.577 54.7381 48.5348 54.471 50.8686 54.5765C53.2024 54.6819 55.132 55.1002 55.4378 55.5676C55.4698 55.5313 55.4895 55.4858 55.494 55.4376C55.5151 54.9315 53.4484 54.4253 50.8721 54.3164C48.2957 54.2074 46.2009 54.5343 46.1798 55.0439Z" fill="#8807F7"/>
<path opacity="0.4" d="M46.1798 55.0439C46.1779 55.0915 46.1942 55.1381 46.2255 55.174C46.577 54.7381 48.5348 54.471 50.8686 54.5765C53.2024 54.6819 55.132 55.1002 55.4378 55.5676C55.4698 55.5313 55.4895 55.4858 55.494 55.4376C55.5151 54.9315 53.4484 54.4253 50.8721 54.3164C48.2957 54.2074 46.2009 54.5343 46.1798 55.0439Z" fill="#8807F7"/>
<path opacity="0.4" d="M46.2246 55.1738C46.5409 55.6448 48.467 56.0666 50.7938 56.165C53.1206 56.2634 55.0854 56.0068 55.4368 55.5675C55.124 55.1 53.2014 54.6782 50.8676 54.5763C48.5338 54.4744 46.5796 54.738 46.2246 55.1738Z" fill="#8807F7"/>
<path d="M44.3206 54.369C44.289 55.1176 46.6544 55.8241 49.5928 55.9506C52.5312 56.0772 54.9599 55.571 54.9915 54.8224C55.0231 54.0737 52.6577 53.3708 49.7193 53.2442C46.781 53.1177 44.3487 53.6238 44.3206 54.369Z" fill="#8807F7"/>
<path d="M44.3718 53.012L44.3145 54.364L54.9968 54.8173L55.0542 53.4654L44.3718 53.012Z" fill="#8807F7"/>
<path d="M44.3773 53.0159C44.3456 53.7646 46.7111 54.4711 49.6494 54.5976C52.5878 54.7241 55.0165 54.218 55.0481 53.4694C55.0798 52.7207 52.7143 52.0178 49.776 51.8912C46.8376 51.7647 44.4089 52.2708 44.3773 53.0159Z" fill="#8807F7"/>
<path opacity="0.4" d="M44.3773 53.0159C44.3456 53.7646 46.7111 54.4711 49.6494 54.5976C52.5878 54.7241 55.0165 54.218 55.0481 53.4694C55.0798 52.7207 52.7143 52.0178 49.776 51.8912C46.8376 51.7647 44.4089 52.2708 44.3773 53.0159Z" fill="white"/>
<path d="M45.0587 52.9949C45.0574 53.0429 45.0722 53.09 45.1008 53.1285C45.4523 52.6892 47.4136 52.4255 49.7474 52.531C52.0812 52.6364 54.0108 53.0512 54.3166 53.5186C54.3493 53.4828 54.3691 53.437 54.3728 53.3886C54.3939 52.886 52.3272 52.3763 49.7509 52.2674C47.1746 52.1584 45.0798 52.4888 45.0587 52.9949Z" fill="#8807F7"/>
<path opacity="0.4" d="M45.0587 52.9949C45.0574 53.0429 45.0722 53.09 45.1008 53.1285C45.4523 52.6892 47.4136 52.4255 49.7474 52.531C52.0812 52.6364 54.0108 53.0512 54.3166 53.5186C54.3493 53.4828 54.3691 53.437 54.3728 53.3886C54.3939 52.886 52.3272 52.3763 49.7509 52.2674C47.1746 52.1584 45.0798 52.4888 45.0587 52.9949Z" fill="#8807F7"/>
<path opacity="0.4" d="M45.0996 53.1282C45.4195 53.5957 47.342 54.0175 49.6688 54.1159C51.9956 54.2143 53.9639 53.9577 54.3154 53.5184C54.0025 53.0509 52.0764 52.6291 49.7461 52.5307C47.4158 52.4323 45.4581 52.6889 45.0996 53.1282Z" fill="#8807F7"/>
<path d="M46.0335 52.6329C46.0019 53.3815 48.3673 54.088 51.3057 54.2145C54.244 54.3411 56.6728 53.8349 56.7044 53.0863C56.736 52.3376 54.3706 51.6347 51.4322 51.5082C48.4939 51.3816 46.0792 51.8878 46.0335 52.6329Z" fill="#8807F7"/>
<path d="M46.0925 51.2811L46.0352 52.6331L56.7175 53.0864L56.7749 51.7344L46.0925 51.2811Z" fill="#8807F7"/>
<path d="M46.0784 51.2794C46.0468 52.028 48.4123 52.7345 51.3506 52.861C54.289 52.9876 56.7177 52.4814 56.7493 51.7328C56.7809 50.9841 54.4155 50.2812 51.4771 50.1546C48.5388 50.0281 46.1206 50.5342 46.0784 51.2794Z" fill="#8807F7"/>
<path opacity="0.4" d="M46.0784 51.2794C46.0468 52.028 48.4123 52.7345 51.3506 52.861C54.289 52.9876 56.7177 52.4814 56.7493 51.7328C56.7809 50.9841 54.4155 50.2812 51.4771 50.1546C48.5388 50.0281 46.1206 50.5342 46.0784 51.2794Z" fill="white"/>
<path d="M46.7832 51.2584C46.7832 51.3067 46.7993 51.3537 46.8289 51.3919C47.1804 50.9526 49.1381 50.689 51.4719 50.7944C53.8057 50.8999 55.7353 51.3146 56.0411 51.7821C56.0587 51.7652 56.0727 51.7451 56.0824 51.7227C56.092 51.7004 56.0971 51.6764 56.0974 51.652C56.1185 51.1494 54.0518 50.6398 51.4754 50.5308C48.8991 50.4219 46.7832 50.7522 46.7832 51.2584Z" fill="#8807F7"/>
<path opacity="0.4" d="M46.7832 51.2584C46.7832 51.3067 46.7993 51.3537 46.8289 51.3919C47.1804 50.9526 49.1381 50.689 51.4719 50.7944C53.8057 50.8999 55.7353 51.3146 56.0411 51.7821C56.0587 51.7652 56.0727 51.7451 56.0824 51.7227C56.092 51.7004 56.0971 51.6764 56.0974 51.652C56.1185 51.1494 54.0518 50.6398 51.4754 50.5308C48.8991 50.4219 46.7832 50.7522 46.7832 51.2584Z" fill="#8807F7"/>
<path opacity="0.4" d="M46.8164 51.3921C47.1363 51.8596 49.0588 52.2814 51.3856 52.3798C53.7124 52.4782 55.6772 52.2216 56.0286 51.7823C55.7158 51.3148 53.7932 50.893 51.4594 50.7946C49.1256 50.6962 47.1749 50.9528 46.8164 51.3921Z" fill="#8807F7"/>
<path d="M44.9124 50.5871C44.8808 51.3322 47.2462 52.0387 50.1846 52.1652C53.1229 52.2918 55.5482 51.7856 55.5833 51.0405C55.6184 50.2954 53.2495 49.5854 50.3111 49.4588C47.3728 49.3323 44.9441 49.8384 44.9124 50.5871Z" fill="#8807F7"/>
<path d="M44.9636 49.2286L44.9062 50.5806L55.5886 51.0339L55.646 49.6819L44.9636 49.2286Z" fill="#8807F7"/>
<path d="M44.9671 49.2341C44.9355 49.9792 47.3009 50.6857 50.2393 50.8122C53.1776 50.9387 55.6064 50.4326 55.638 49.6875C55.6696 48.9423 53.3042 48.2323 50.3658 48.1058C47.4275 47.9793 44.9987 48.4854 44.9671 49.2341Z" fill="#8807F7"/>
<path opacity="0.4" d="M44.9671 49.2341C44.9355 49.9792 47.3009 50.6857 50.2393 50.8122C53.1776 50.9387 55.6064 50.4326 55.638 49.6875C55.6696 48.9423 53.3042 48.2323 50.3658 48.1058C47.4275 47.9793 44.9987 48.4854 44.9671 49.2341Z" fill="white"/>
<path d="M45.6486 49.2091C45.6465 49.2577 45.6628 49.3054 45.6943 49.3426C46.0458 48.9033 48.0035 48.6397 50.3373 48.7451C52.6712 48.8505 54.6008 49.2653 54.9066 49.7328C54.9386 49.6978 54.9583 49.6534 54.9628 49.6062C54.9839 49.1001 52.9172 48.5905 50.3409 48.4815C47.7645 48.3725 45.6697 48.7029 45.6486 49.2091Z" fill="#8807F7"/>
<path opacity="0.4" d="M45.6486 49.2091C45.6465 49.2577 45.6628 49.3054 45.6943 49.3426C46.0458 48.9033 48.0035 48.6397 50.3373 48.7451C52.6712 48.8505 54.6008 49.2653 54.9066 49.7328C54.9386 49.6978 54.9583 49.6534 54.9628 49.6062C54.9839 49.1001 52.9172 48.5905 50.3409 48.4815C47.7645 48.3725 45.6697 48.7029 45.6486 49.2091Z" fill="#8807F7"/>
<path opacity="0.4" d="M45.6953 49.3429C46.0116 49.8104 47.9377 50.2322 50.2645 50.3306C52.5913 50.429 54.5561 50.1724 54.9075 49.7331C54.5947 49.2656 52.6721 48.8438 50.3383 48.7454C48.0045 48.647 46.0503 48.9106 45.6953 49.3429Z" fill="#8807F7"/>
<path d="M56.7115 49.1318C56.7431 49.8769 54.3776 50.5869 51.4393 50.7099C48.5009 50.8329 46.0793 50.3162 46.03 49.5852C45.9808 48.8541 48.3603 48.1301 51.3022 48.0035C54.2441 47.877 56.6763 48.3831 56.7115 49.1318Z" fill="#8807F7"/>
<path d="M56.4146 48.1314L45.7227 48.5591L45.7768 49.9123L56.4687 49.4846L56.4146 48.1314Z" fill="#8807F7"/>
<path d="M56.6497 47.7787C56.6813 48.5239 54.3159 49.2338 51.3775 49.3569C48.4392 49.4799 46.0105 48.9808 45.9788 48.2321C45.9472 47.4835 48.3126 46.777 51.251 46.6505C54.1894 46.524 56.6216 47.0301 56.6497 47.7787Z" fill="#8807F7"/>
<path opacity="0.4" d="M56.6497 47.7787C56.6813 48.5239 54.3159 49.2338 51.3775 49.3569C48.4392 49.4799 46.0105 48.9808 45.9788 48.2321C45.9472 47.4835 48.3126 46.777 51.251 46.6505C54.1894 46.524 56.6216 47.0301 56.6497 47.7787Z" fill="white"/>
<path d="M55.9686 47.754C55.9715 47.8028 55.9551 47.8508 55.9229 47.8876C55.5715 47.4483 53.6137 47.1847 51.2799 47.2901C48.9461 47.3955 47.0165 47.8103 46.7107 48.2813C46.6792 48.2446 46.6596 48.1992 46.6545 48.1512C46.6334 47.6451 48.7001 47.139 51.2764 47.03C53.8527 46.921 55.9475 47.2479 55.9686 47.754Z" fill="#8807F7"/>
<path opacity="0.4" d="M55.9686 47.754C55.9715 47.8028 55.9551 47.8508 55.9229 47.8876C55.5715 47.4483 53.6137 47.1847 51.2799 47.2901C48.9461 47.3955 47.0165 47.8103 46.7107 48.2813C46.6792 48.2446 46.6596 48.1992 46.6545 48.1512C46.6334 47.6451 48.7001 47.139 51.2764 47.03C53.8527 46.921 55.9475 47.2479 55.9686 47.754Z" fill="#8807F7"/>
<path opacity="0.4" d="M55.9193 47.8875C55.6029 48.355 53.6768 48.7767 51.3501 48.8787C49.0233 48.9806 47.0585 48.7205 46.707 48.2811C47.0198 47.8102 48.9424 47.3884 51.2763 47.29C53.6101 47.1916 55.5678 47.4481 55.9193 47.8875Z" fill="#8807F7"/>
<path d="M57.8313 47.0828C57.863 47.8314 55.4975 48.5379 52.5592 48.6609C49.6208 48.784 47.1921 48.2849 47.1605 47.5362C47.1288 46.7876 49.4943 46.0811 52.4326 45.9581C55.371 45.8351 57.7997 46.3341 57.8313 47.0828Z" fill="#8807F7"/>
<path d="M57.7741 45.7264L47.0918 46.1797L47.1492 47.5317L57.8315 47.0783L57.7741 45.7264Z" fill="#8807F7"/>
<path d="M57.7712 45.7471C57.8028 46.4958 55.4409 47.2022 52.499 47.3288C49.5571 47.4553 47.1355 46.9492 47.1038 46.2005C47.0722 45.4519 49.4341 44.7454 52.376 44.6224C55.3179 44.4994 57.7395 44.9809 57.7712 45.7471Z" fill="#8807F7"/>
<path opacity="0.4" d="M57.7712 45.7471C57.8028 46.4958 55.4409 47.2022 52.499 47.3288C49.5571 47.4553 47.1355 46.9492 47.1038 46.2005C47.0722 45.4519 49.4341 44.7454 52.376 44.6224C55.3179 44.4994 57.7395 44.9809 57.7712 45.7471Z" fill="white"/>
<path d="M57.0937 45.7052C57.0929 45.7534 57.0769 45.8002 57.048 45.8388C56.6965 45.3994 54.7353 45.1358 52.405 45.2413C50.0747 45.3467 48.138 45.765 47.8358 46.2324C47.8009 46.198 47.7808 46.1514 47.7795 46.1024C47.7549 45.5963 49.8251 45.0901 52.3979 44.9812C54.9708 44.8722 57.0691 45.1991 57.0937 45.7052Z" fill="#8807F7"/>
<path opacity="0.4" d="M57.0937 45.7052C57.0929 45.7534 57.0769 45.8002 57.048 45.8388C56.6965 45.3994 54.7353 45.1358 52.405 45.2413C50.0747 45.3467 48.138 45.765 47.8358 46.2324C47.8009 46.198 47.7808 46.1514 47.7795 46.1024C47.7549 45.5963 49.8251 45.0901 52.3979 44.9812C54.9708 44.8722 57.0691 45.1991 57.0937 45.7052Z" fill="#8807F7"/>
<path opacity="0.4" d="M57.0482 45.8384C56.7283 46.3058 54.8057 46.7311 52.479 46.8295C50.1522 46.9279 48.1839 46.6714 47.8359 46.232C48.1452 45.7646 50.0713 45.3393 52.4051 45.2409C54.739 45.1424 56.6897 45.3955 57.0482 45.8384Z" fill="#8807F7"/>
<path d="M57.6774 44.6154C57.7091 45.3605 55.3471 46.0705 52.4053 46.1935C49.4634 46.3166 47.0417 45.8175 47.0101 45.0688C46.9784 44.3202 49.3404 43.6137 52.2822 43.4872C55.2241 43.3606 57.6528 43.8668 57.6774 44.6154Z" fill="#8807F7"/>
<path d="M57.6277 43.2637L46.9453 43.717L47.0027 45.069L57.685 44.6157L57.6277 43.2637Z" fill="#8807F7"/>
<path d="M57.6282 43.2625C57.6598 44.0111 55.2944 44.7176 52.356 44.8406C49.4177 44.9636 46.989 44.4645 46.9573 43.7159C46.9257 42.9672 49.2912 42.2608 52.2295 42.1378C55.1679 42.0147 57.5966 42.5138 57.6282 43.2625Z" fill="#8807F7"/>
<path opacity="0.4" d="M57.6282 43.2625C57.6598 44.0111 55.2944 44.7176 52.356 44.8406C49.4177 44.9636 46.989 44.4645 46.9573 43.7159C46.9257 42.9672 49.2912 42.2608 52.2295 42.1378C55.1679 42.0147 57.5966 42.5138 57.6282 43.2625Z" fill="white"/>
<path d="M56.9471 43.2377C56.95 43.2865 56.9336 43.3344 56.9014 43.3712C56.55 42.9319 54.5922 42.6683 52.2584 42.7737C49.9246 42.8792 47.995 43.2974 47.6892 43.7649C47.6578 43.7282 47.6381 43.6829 47.633 43.6349C47.6119 43.1287 49.6786 42.6226 52.2549 42.5136C54.8312 42.4047 56.9261 42.7316 56.9471 43.2377Z" fill="#8807F7"/>
<path opacity="0.4" d="M56.9471 43.2377C56.95 43.2865 56.9336 43.3344 56.9014 43.3712C56.55 42.9319 54.5922 42.6683 52.2584 42.7737C49.9246 42.8792 47.995 43.2974 47.6892 43.7649C47.6578 43.7282 47.6381 43.6829 47.633 43.6349C47.6119 43.1287 49.6786 42.6226 52.2549 42.5136C54.8312 42.4047 56.9261 42.7316 56.9471 43.2377Z" fill="#8807F7"/>
<path opacity="0.4" d="M56.8997 43.3714C56.5834 43.8389 54.6573 44.2642 52.3305 44.3626C50.0037 44.461 48.039 44.2044 47.6875 43.7651C48.0003 43.2976 49.9229 42.8723 52.2567 42.7739C54.5905 42.6755 56.5447 42.9356 56.8997 43.3714Z" fill="#8807F7"/>
<path d="M58.8099 42.5838C58.8415 43.3324 56.476 44.0389 53.5377 44.1655C50.5993 44.292 48.1706 43.7859 48.139 43.0372C48.1074 42.2886 50.4728 41.5821 53.4111 41.4591C56.3495 41.336 58.7782 41.8176 58.8099 42.5838Z" fill="#8807F7"/>
<path d="M58.7409 41.2181L48.0586 41.6714L48.116 43.0234L58.7983 42.57L58.7409 41.2181Z" fill="#8807F7"/>
<path d="M58.7493 41.2134C58.7809 41.962 56.4155 42.6685 53.4771 42.795C50.5388 42.9216 48.1101 42.4154 48.0784 41.6668C48.0468 40.9181 50.4123 40.2117 53.3506 40.0886C56.289 39.9656 58.7317 40.4753 58.7493 41.2134Z" fill="#8807F7"/>
<path opacity="0.4" d="M58.7493 41.2134C58.7809 41.962 56.4155 42.6685 53.4771 42.795C50.5388 42.9216 48.1101 42.4154 48.0784 41.6668C48.0468 40.9181 50.4123 40.2117 53.3506 40.0886C56.289 39.9656 58.7317 40.4753 58.7493 41.2134Z" fill="white"/>
<path d="M58.0717 41.1782C58.0705 41.2252 58.0545 41.2707 58.0261 41.3082C57.6746 40.8689 55.7133 40.6053 53.383 40.7107C51.0527 40.8162 49.1161 41.2344 48.8138 41.7019C48.7793 41.6668 48.7582 41.6208 48.7541 41.5718C48.733 41.0657 50.7997 40.5596 53.376 40.4506C55.9523 40.3417 58.0471 40.6861 58.0717 41.1782Z" fill="#8807F7"/>
<path opacity="0.4" d="M58.0717 41.1782C58.0705 41.2252 58.0545 41.2707 58.0261 41.3082C57.6746 40.8689 55.7133 40.6053 53.383 40.7107C51.0527 40.8162 49.1161 41.2344 48.8138 41.7019C48.7793 41.6668 48.7582 41.6208 48.7541 41.5718C48.733 41.0657 50.7997 40.5596 53.376 40.4506C55.9523 40.3417 58.0471 40.6861 58.0717 41.1782Z" fill="#8807F7"/>
<path opacity="0.4" d="M58.0286 41.3223C57.7088 41.7933 55.7862 42.2151 53.4594 42.3135C51.1326 42.4119 49.1644 42.1553 48.8164 41.716C49.1257 41.2485 51.0518 40.8232 53.3856 40.7248C55.7194 40.6264 57.6772 40.883 58.0286 41.3223Z" fill="#8807F7"/>
<path d="M57.0955 40.8268C57.1271 41.5754 54.7617 42.2819 51.8233 42.4084C48.885 42.5349 46.4316 42.0323 46.4316 41.2837C46.4316 40.535 48.7655 39.8286 51.7038 39.7055C54.6422 39.5825 57.0638 40.0851 57.0955 40.8268Z" fill="#8807F7"/>
<path d="M57.0398 39.4754L46.3574 39.9287L46.4148 41.2807L57.0971 40.8274L57.0398 39.4754Z" fill="#8807F7"/>
<path d="M57.0384 39.4767C57.07 40.2253 54.7046 40.9318 51.7662 41.0583C48.8278 41.1848 46.3991 40.6787 46.3675 39.9301C46.3359 39.1814 48.7013 38.4749 51.6397 38.3519C54.578 38.2289 57.0067 38.7175 57.0384 39.4767Z" fill="#8807F7"/>
<path opacity="0.4" d="M57.0384 39.4767C57.07 40.2253 54.7046 40.9318 51.7662 41.0583C48.8278 41.1848 46.3991 40.6787 46.3675 39.9301C46.3359 39.1814 48.7013 38.4749 51.6397 38.3519C54.578 38.2289 57.0067 38.7175 57.0384 39.4767Z" fill="white"/>
<path d="M56.3553 39.4556C56.3573 39.5032 56.3409 39.5498 56.3096 39.5857C55.9582 39.1463 54.0004 38.8827 51.6666 38.9882C49.3328 39.0936 47.4032 39.5119 47.0974 39.9793C47.064 39.9439 47.0441 39.8979 47.0412 39.8493C47.0201 39.3432 49.0868 38.837 51.6631 38.7281C54.2394 38.6191 56.3342 38.9495 56.3553 39.4556Z" fill="#8807F7"/>
<path opacity="0.4" d="M56.3553 39.4556C56.3573 39.5032 56.3409 39.5498 56.3096 39.5857C55.9582 39.1463 54.0004 38.8827 51.6666 38.9882C49.3328 39.0936 47.4032 39.5119 47.0974 39.9793C47.064 39.9439 47.0441 39.8979 47.0412 39.8493C47.0201 39.3432 49.0868 38.837 51.6631 38.7281C54.2394 38.6191 56.3342 38.9495 56.3553 39.4556Z" fill="#8807F7"/>
<path opacity="0.4" d="M56.3099 39.5856C55.99 40.0566 54.0675 40.4784 51.7407 40.5768C49.4139 40.6752 47.4491 40.4186 47.0977 39.9793C47.4105 39.5118 49.3331 39.0901 51.6669 38.9881C54.0007 38.8862 55.9514 39.1463 56.3099 39.5856Z" fill="#8807F7"/>
<path d="M58.2204 38.7809C58.252 39.5296 55.8866 40.2361 52.9482 40.3626C50.0099 40.4891 47.5847 39.983 47.553 39.2344C47.5214 38.4857 49.8833 37.7792 52.8252 37.6562C55.7671 37.5332 58.1853 38.0358 58.2204 38.7809Z" fill="#8807F7"/>
<path d="M58.157 37.4331L47.4746 37.8865L47.532 39.2384L58.2143 38.7851L58.157 37.4331Z" fill="#8807F7"/>
<path d="M58.1575 37.4278C58.1891 38.1765 55.8237 38.8829 52.8853 39.0095C49.947 39.136 47.5183 38.6299 47.4866 37.8812C47.455 37.1326 49.8205 36.4296 52.7588 36.3031C55.6972 36.1766 58.1259 36.6827 58.1575 37.4278Z" fill="#8807F7"/>
<path opacity="0.4" d="M58.1575 37.4278C58.1891 38.1765 55.8237 38.8829 52.8853 39.0095C49.947 39.136 47.5183 38.6299 47.4866 37.8812C47.455 37.1326 49.8205 36.4296 52.7588 36.3031C55.6972 36.1766 58.1259 36.6827 58.1575 37.4278Z" fill="white"/>
<path d="M57.4764 37.4068C57.4779 37.4554 57.4617 37.5029 57.4307 37.5404C57.0793 37.101 55.1215 36.8374 52.7877 36.9393C50.4539 37.0413 48.5243 37.463 48.2185 37.9305C48.1865 37.8942 48.1668 37.8487 48.1623 37.8005C48.1412 37.2943 50.2079 36.7882 52.7842 36.6792C55.3605 36.5703 57.4553 36.9007 57.4764 37.4068Z" fill="#8807F7"/>
<path opacity="0.4" d="M57.4764 37.4068C57.4779 37.4554 57.4617 37.5029 57.4307 37.5404C57.0793 37.101 55.1215 36.8374 52.7877 36.9393C50.4539 37.0413 48.5243 37.463 48.2185 37.9305C48.1865 37.8942 48.1668 37.8487 48.1623 37.8005C48.1412 37.2943 50.2079 36.7882 52.7842 36.6792C55.3605 36.5703 57.4553 36.9007 57.4764 37.4068Z" fill="#8807F7"/>
<path opacity="0.4" d="M57.431 37.5401C57.1147 38.0076 55.1886 38.4294 52.8618 38.5278C50.535 38.6262 48.5702 38.3696 48.2188 37.9303C48.5316 37.4628 50.4541 37.041 52.788 36.9391C55.1218 36.8372 57.076 37.1008 57.431 37.5401Z" fill="#8807F7"/>
<path d="M53.7663 37.2498C56.2565 36.3163 57.5184 33.5408 56.5849 31.0507C55.6514 28.5605 52.8759 27.2986 50.3858 28.2321C47.8956 29.1656 46.6337 31.941 47.5672 34.4312C48.5007 36.9214 51.2762 38.1833 53.7663 37.2498Z" fill="#8807F7"/>
<path d="M56.2752 36.0994C57.9988 34.0742 57.7542 31.0351 55.729 29.3115C53.7038 27.5879 50.6648 27.8324 48.9412 29.8577C47.2176 31.8829 47.4621 34.9219 49.4873 36.6455C51.5125 38.3691 54.5516 38.1246 56.2752 36.0994Z" fill="#8807F7"/>
<path opacity="0.4" d="M56.2752 36.0994C57.9988 34.0742 57.7542 31.0351 55.729 29.3115C53.7038 27.5879 50.6648 27.8324 48.9412 29.8577C47.2176 31.8829 47.4621 34.9219 49.4873 36.6455C51.5125 38.3691 54.5516 38.1246 56.2752 36.0994Z" fill="white"/>
<path d="M55.8873 34.4615C55.5921 35.1098 55.1113 35.6561 54.5057 36.0313C53.9001 36.4064 53.1968 36.5936 52.4849 36.5691C51.7729 36.5447 51.0842 36.3097 50.5057 35.8939C49.9273 35.4781 49.4851 34.9001 49.235 34.233C48.985 33.566 48.9384 32.8398 49.101 32.1462C49.2636 31.4526 49.6282 30.8228 50.1487 30.3364C50.6692 29.85 51.3222 29.5288 52.0252 29.4135C52.7282 29.2982 53.4496 29.3938 54.0983 29.6884C54.9681 30.0845 55.6452 30.8097 55.9806 31.7047C56.3161 32.5997 56.2825 33.5912 55.8873 34.4615Z" fill="#8807F7"/>
<path d="M97.9904 60.2353C97.8814 60.6746 96.3911 60.6781 94.6619 60.2353C92.9326 59.7924 91.6181 59.093 91.727 58.6572C91.836 58.2213 93.3297 58.2143 95.059 58.6572C96.7883 59.1 98.0958 59.8065 97.9904 60.2353Z" fill="#8807F7"/>
<path d="M91.9314 57.8762L91.7324 58.6707L97.9956 60.2392L98.1946 59.4448L91.9314 57.8762Z" fill="#8807F7"/>
<path d="M98.1915 59.4549C98.0791 59.8942 96.5888 59.8977 94.8595 59.4549C93.1303 59.012 91.8192 58.3161 91.9282 57.8767C92.0372 57.4374 93.5274 57.4339 95.2567 57.8767C96.986 58.3196 98.3005 59.005 98.1915 59.4549Z" fill="#8807F7"/>
<path opacity="0.4" d="M98.1915 59.4549C98.0791 59.8942 96.5888 59.8977 94.8595 59.4549C93.1303 59.012 91.8192 58.3161 91.9282 57.8767C92.0372 57.4374 93.5274 57.4339 95.2567 57.8767C96.986 58.3196 98.3005 59.005 98.1915 59.4549Z" fill="white"/>
<path d="M97.7991 59.3109C97.7961 59.3253 97.7902 59.339 97.7817 59.3511C97.7733 59.3632 97.7625 59.3734 97.7499 59.3812C97.6199 59.0649 96.5338 58.5798 95.1666 58.2389C93.7993 57.898 92.6078 57.8101 92.3547 58.028C92.3479 58.0003 92.3479 57.9713 92.3547 57.9436C92.4321 57.6449 93.715 57.7082 95.2263 58.0842C96.7377 58.4603 97.8765 59.0157 97.7991 59.3109Z" fill="#8807F7"/>
<path opacity="0.4" d="M97.7991 59.3109C97.7961 59.3253 97.7902 59.339 97.7817 59.3511C97.7733 59.3632 97.7625 59.3734 97.7499 59.3812C97.6199 59.0649 96.5338 58.5798 95.1666 58.2389C93.7993 57.898 92.6078 57.8101 92.3547 58.028C92.3479 58.0003 92.3479 57.9713 92.3547 57.9436C92.4321 57.6449 93.715 57.7082 95.2263 58.0842C96.7377 58.4603 97.8765 59.0157 97.7991 59.3109Z" fill="#8807F7"/>
<path opacity="0.4" d="M97.7464 59.381C97.4827 59.5954 96.2983 59.5111 94.9345 59.1701C93.5708 58.8292 92.4742 58.3407 92.3477 58.0278C92.6113 57.8099 93.7957 57.8943 95.1595 58.2387C96.5232 58.5832 97.6198 59.0647 97.7464 59.381Z" fill="#8807F7"/>
<path d="M100.999 61.6758C101.02 62.1257 99.5927 62.5545 97.8072 62.6283C96.0217 62.7021 94.5666 62.3999 94.549 61.95C94.5314 61.5001 95.9549 61.0713 97.7404 60.994C99.5259 60.9166 100.981 61.2119 100.999 61.6758Z" fill="#8807F7"/>
<path d="M100.959 60.8654L94.5078 61.1392L94.5425 61.9574L100.993 61.6836L100.959 60.8654Z" fill="#8807F7"/>
<path d="M100.965 60.8607C100.987 61.3141 99.5596 61.7394 97.7776 61.8167C95.9956 61.894 94.5369 61.5882 94.5159 61.1348C94.4948 60.6814 95.9218 60.2561 97.7073 60.1823C99.4928 60.1085 100.948 60.4073 100.965 60.8607Z" fill="#8807F7"/>
<path opacity="0.4" d="M100.965 60.8607C100.987 61.3141 99.5596 61.7394 97.7776 61.8167C95.9956 61.894 94.5369 61.5882 94.5159 61.1348C94.4948 60.6814 95.9218 60.2561 97.7073 60.1823C99.4928 60.1085 100.948 60.4073 100.965 60.8607Z" fill="white"/>
<path d="M100.556 60.8608C100.557 60.8755 100.555 60.8903 100.551 60.9043C100.546 60.9182 100.538 60.931 100.528 60.9416C100.313 60.678 99.1217 60.5198 97.7157 60.5901C96.3098 60.6604 95.1394 60.9065 94.9496 61.1876C94.9301 61.1665 94.9189 61.1391 94.918 61.1103C94.918 60.8045 96.1517 60.4987 97.7087 60.432C99.2658 60.3652 100.556 60.5374 100.556 60.8608Z" fill="#8807F7"/>
<path opacity="0.4" d="M100.556 60.8608C100.557 60.8755 100.555 60.8903 100.551 60.9043C100.546 60.9182 100.538 60.931 100.528 60.9416C100.313 60.678 99.1217 60.5198 97.7157 60.5901C96.3098 60.6604 95.1394 60.9065 94.9496 61.1876C94.9301 61.1665 94.9189 61.1391 94.918 61.1103C94.918 60.8045 96.1517 60.4987 97.7087 60.432C99.2658 60.3652 100.556 60.5374 100.556 60.8608Z" fill="#8807F7"/>
<path opacity="0.4" d="M100.526 60.9242C100.336 61.2054 99.1724 61.462 97.763 61.5218C96.3536 61.5815 95.1726 61.4269 94.9512 61.1703C95.141 60.8891 96.3044 60.6325 97.7173 60.5728C99.1303 60.513 100.311 60.6606 100.526 60.9242Z" fill="#8807F7"/>
<path d="M97.6074 60.0654C99.0667 57.8422 98.4474 54.8569 96.2241 53.3976C94.0009 51.9383 91.0156 52.5576 89.5563 54.7809C88.0971 57.0041 88.7164 59.9894 90.9396 61.4487C93.1628 62.908 96.1481 62.2886 97.6074 60.0654Z" fill="#8807F7"/>
<path d="M97.6113 61.0294C96.9776 61.7405 96.1473 62.2476 95.2254 62.4867C94.3035 62.7259 93.3314 62.6863 92.432 62.3729C91.5326 62.0595 90.7463 61.4864 90.1727 60.7261C89.599 59.9658 89.2637 59.0525 89.2091 58.1017C89.1545 57.1508 89.3831 56.2051 89.8661 55.3842C90.349 54.5633 91.0645 53.904 91.9221 53.4898C92.7798 53.0755 93.741 52.9249 94.6842 53.057C95.6274 53.1891 96.5103 53.598 97.2212 54.2318C98.1741 55.0816 98.7506 56.2751 98.8238 57.5498C98.8969 58.8246 98.4608 60.0762 97.6113 61.0294Z" fill="#8807F7"/>
<path opacity="0.4" d="M97.6113 61.0294C96.9776 61.7405 96.1473 62.2476 95.2254 62.4867C94.3035 62.7259 93.3314 62.6863 92.432 62.3729C91.5326 62.0595 90.7463 61.4864 90.1727 60.7261C89.599 59.9658 89.2637 59.0525 89.2091 58.1017C89.1545 57.1508 89.3831 56.2051 89.8661 55.3842C90.349 54.5633 91.0645 53.904 91.9221 53.4898C92.7798 53.0755 93.741 52.9249 94.6842 53.057C95.6274 53.1891 96.5103 53.598 97.2212 54.2318C98.1741 55.0816 98.7506 56.2751 98.8238 57.5498C98.8969 58.8246 98.4608 60.0762 97.6113 61.0294Z" fill="white"/>
<path d="M96.6914 60.2246C96.2169 60.7573 95.5951 61.1372 94.9046 61.3164C94.2141 61.4956 93.486 61.466 92.8124 61.2313C92.1387 60.9966 91.5498 60.5674 91.1201 59.998C90.6904 59.4285 90.4393 58.7444 90.3985 58.0323C90.3577 57.3201 90.529 56.6118 90.8908 55.997C91.2526 55.3822 91.7886 54.8885 92.431 54.5783C93.0734 54.2682 93.7934 54.1556 94.4998 54.2547C95.2063 54.3538 95.8674 54.6602 96.3997 55.1352C96.7533 55.4501 97.0413 55.8315 97.2473 56.2578C97.4534 56.6841 97.5734 57.1468 97.6005 57.6194C97.6275 58.0921 97.5612 58.5655 97.4052 59.0125C97.2493 59.4595 97.0067 59.8714 96.6914 60.2246Z" fill="#8807F7"/>
<path d="M34.4006 62.1225C34.383 62.5724 35.8065 63.0012 37.592 63.075C39.3775 63.1489 40.8326 62.8466 40.8502 62.3967C40.8677 61.9468 39.4443 61.518 37.6623 61.4407C35.8803 61.3633 34.4216 61.6691 34.4006 62.1225Z" fill="#8807F7"/>
<path d="M34.439 61.3073L34.4043 62.1255L40.8551 62.3992L40.8899 61.581L34.439 61.3073Z" fill="#8807F7"/>
<path d="M34.4377 61.3035C34.4166 61.7569 35.8436 62.1822 37.6292 62.2595C39.4147 62.3369 40.8698 62.0311 40.8873 61.5777C40.9049 61.1243 39.4814 60.699 37.6959 60.6252C35.9104 60.5513 34.4553 60.8607 34.4377 61.3035Z" fill="#8807F7"/>
<path opacity="0.4" d="M34.4377 61.3035C34.4166 61.7569 35.8436 62.1822 37.6292 62.2595C39.4147 62.3369 40.8698 62.0311 40.8873 61.5777C40.9049 61.1243 39.4814 60.699 37.6959 60.6252C35.9104 60.5513 34.4553 60.8607 34.4377 61.3035Z" fill="white"/>
<path d="M34.8496 61.2896C34.8499 61.3189 34.8597 61.3473 34.8777 61.3704C35.0921 61.1068 36.2836 60.9486 37.6896 61.0189C39.0955 61.0892 40.2624 61.3353 40.4522 61.62C40.4722 61.5975 40.4846 61.5691 40.4873 61.5391C40.4873 61.2333 39.2501 60.9275 37.6966 60.8643C36.143 60.801 34.8637 60.9838 34.8496 61.2896Z" fill="#8807F7"/>
<path opacity="0.4" d="M34.8496 61.2896C34.8499 61.3189 34.8597 61.3473 34.8777 61.3704C35.0921 61.1068 36.2836 60.9486 37.6896 61.0189C39.0955 61.0892 40.2624 61.3353 40.4522 61.62C40.4722 61.5975 40.4846 61.5691 40.4873 61.5391C40.4873 61.2333 39.2501 60.9275 37.6966 60.8643C36.143 60.801 34.8637 60.9838 34.8496 61.2896Z" fill="#8807F7"/>
<path opacity="0.4" d="M34.877 61.3706C35.0703 61.6553 36.2301 61.9083 37.6396 61.9681C39.049 62.0278 40.2335 61.8732 40.4514 61.6166C40.2616 61.3319 39.1017 61.0789 37.6888 61.0156C36.2758 60.9523 35.0914 61.107 34.877 61.3706Z" fill="#8807F7"/>
<path d="M33.7227 60.8856C33.7227 61.3355 35.1286 61.7643 36.9141 61.8381C38.6996 61.9119 40.1547 61.6097 40.1723 61.1598C40.1898 60.7099 38.7664 60.2811 36.9844 60.2038C35.2024 60.1264 33.7437 60.4357 33.7227 60.8856Z" fill="#8807F7"/>
<path d="M33.7554 60.0592L33.7207 60.8774L40.1716 61.1512L40.2063 60.333L33.7554 60.0592Z" fill="#8807F7"/>
<path d="M33.7773 60.0666C33.7773 60.52 35.1833 60.9453 36.9688 61.0227C38.7543 61.1 40.2094 60.7942 40.227 60.3408C40.2445 59.8874 38.8211 59.4621 37.0391 59.3883C35.2571 59.3145 33.7773 59.6167 33.7773 60.0666Z" fill="#8807F7"/>
<path opacity="0.4" d="M33.7773 60.0666C33.7773 60.52 35.1833 60.9453 36.9688 61.0227C38.7543 61.1 40.2094 60.7942 40.227 60.3408C40.2445 59.8874 38.8211 59.4621 37.0391 59.3883C35.2571 59.3145 33.7773 59.6167 33.7773 60.0666Z" fill="white"/>
<path d="M34.1699 60.0524C34.1702 60.0817 34.1801 60.1101 34.198 60.1333C34.4124 59.8697 35.604 59.715 37.0099 59.7818C38.4158 59.8486 39.5827 60.0946 39.7725 60.3793C39.7926 60.3568 39.8049 60.3285 39.8076 60.2985C39.8076 59.9962 38.5704 59.6869 37.0169 59.6236C35.4634 59.5604 34.184 59.7467 34.1699 60.0524Z" fill="#8807F7"/>
<path opacity="0.4" d="M34.1699 60.0524C34.1702 60.0817 34.1801 60.1101 34.198 60.1333C34.4124 59.8697 35.604 59.715 37.0099 59.7818C38.4158 59.8486 39.5827 60.0946 39.7725 60.3793C39.7926 60.3568 39.8049 60.3285 39.8076 60.2985C39.8076 59.9962 38.5704 59.6869 37.0169 59.6236C35.4634 59.5604 34.184 59.7467 34.1699 60.0524Z" fill="#8807F7"/>
<path opacity="0.4" d="M34.1992 60.1332C34.3925 60.4179 35.5524 60.671 36.9618 60.7307C38.3713 60.7905 39.5557 60.6358 39.7737 60.3793C39.5839 60.0946 38.424 59.8415 37.011 59.7818C35.5981 59.722 34.4136 59.8696 34.1992 60.1332Z" fill="#8807F7"/>
<path d="M33.8105 59.3954C33.8105 59.8453 35.2165 60.2741 37.002 60.3479C38.7875 60.4217 40.2426 60.1194 40.2602 59.6695C40.2777 59.2196 38.8543 58.7908 37.0723 58.7135C35.2903 58.6362 33.8316 58.9455 33.8105 59.3954Z" fill="#8807F7"/>
<path d="M33.8394 58.569L33.8047 59.3872L40.2555 59.661L40.2903 58.8428L33.8394 58.569Z" fill="#8807F7"/>
<path d="M33.8477 58.5759C33.8477 59.0293 35.2536 59.4546 37.0391 59.5319C38.8246 59.6093 40.2797 59.3035 40.2973 58.8501C40.3149 58.3967 38.8914 57.9714 37.1094 57.8976C35.3274 57.8238 33.8687 58.126 33.8477 58.5759Z" fill="#8807F7"/>
<path opacity="0.4" d="M33.8477 58.5759C33.8477 59.0293 35.2536 59.4546 37.0391 59.5319C38.8246 59.6093 40.2797 59.3035 40.2973 58.8501C40.3149 58.3967 38.8914 57.9714 37.1094 57.8976C35.3274 57.8238 33.8687 58.126 33.8477 58.5759Z" fill="white"/>
<path d="M34.2578 58.562C34.2581 58.5914 34.2679 58.6198 34.2859 58.6429C34.5003 58.3793 35.6918 58.2246 37.0978 58.2914C38.5037 58.3582 39.6706 58.6042 39.8604 58.8889C39.8805 58.8665 39.8928 58.8381 39.8955 58.8081C39.8955 58.5058 38.6583 58.1965 37.1048 58.1332C35.5513 58.07 34.2719 58.2598 34.2578 58.562Z" fill="#8807F7"/>
<path opacity="0.4" d="M34.2578 58.562C34.2581 58.5914 34.2679 58.6198 34.2859 58.6429C34.5003 58.3793 35.6918 58.2246 37.0978 58.2914C38.5037 58.3582 39.6706 58.6042 39.8604 58.8889C39.8805 58.8665 39.8928 58.8381 39.8955 58.8081C39.8955 58.5058 38.6583 58.1965 37.1048 58.1332C35.5513 58.07 34.2719 58.2598 34.2578 58.562Z" fill="#8807F7"/>
<path opacity="0.4" d="M34.2871 58.643C34.4804 58.9277 35.6403 59.1808 37.0497 59.2405C38.4592 59.3003 39.6436 59.1456 39.8615 58.889C39.6718 58.6043 38.5119 58.3513 37.0989 58.2915C35.686 58.2318 34.5015 58.3794 34.2871 58.643Z" fill="#8807F7"/>
<path d="M33.1328 58.1577C33.1328 58.6076 34.5387 59.0364 36.3242 59.1102C38.1097 59.184 39.5649 58.8817 39.5859 58.4318C39.607 57.9819 38.18 57.5531 36.3945 57.4758C34.609 57.3985 33.1539 57.6972 33.1328 58.1577Z" fill="#8807F7"/>
<path d="M33.1656 57.3351L33.1309 58.1533L39.5817 58.4271L39.6164 57.6089L33.1656 57.3351Z" fill="#8807F7"/>
<path d="M33.1701 57.346C33.1525 57.7994 34.576 58.2247 36.3615 58.3021C38.147 58.3794 39.6021 58.0736 39.6197 57.6202C39.6373 57.1668 38.2138 56.745 36.4318 56.6677C34.6498 56.5904 33.1912 56.8891 33.1701 57.346Z" fill="#8807F7"/>
<path opacity="0.4" d="M33.1701 57.346C33.1525 57.7994 34.576 58.2247 36.3615 58.3021C38.147 58.3794 39.6021 58.0736 39.6197 57.6202C39.6373 57.1668 38.2138 56.745 36.4318 56.6677C34.6498 56.5904 33.1912 56.8891 33.1701 57.346Z" fill="white"/>
<path d="M33.5801 57.325C33.5803 57.3543 33.5902 57.3827 33.6082 57.4058C33.8261 57.1422 35.0141 56.9876 36.42 57.0544C37.8259 57.1211 38.9964 57.3672 39.1826 57.6519C39.2034 57.6313 39.2159 57.6037 39.2178 57.5745C39.2178 57.2687 37.9806 56.9595 36.427 56.8962C34.8735 56.8329 33.5941 57.0227 33.5801 57.325Z" fill="#8807F7"/>
<path opacity="0.4" d="M33.5801 57.325C33.5803 57.3543 33.5902 57.3827 33.6082 57.4058C33.8261 57.1422 35.0141 56.9876 36.42 57.0544C37.8259 57.1211 38.9964 57.3672 39.1826 57.6519C39.2034 57.6313 39.2159 57.6037 39.2178 57.5745C39.2178 57.2687 37.9806 56.9595 36.427 56.8962C34.8735 56.8329 33.5941 57.0227 33.5801 57.325Z" fill="#8807F7"/>
<path opacity="0.4" d="M33.6074 57.4057C33.8007 57.6904 34.9606 57.9434 36.37 58.0032C37.7795 58.063 38.9639 57.9083 39.1819 57.6517C38.9956 57.367 37.8322 57.114 36.4192 57.0542C35.0063 56.9945 33.8253 57.1421 33.6074 57.4057Z" fill="#8807F7"/>
<path d="M34.1702 57.1107C34.1491 57.5606 35.5761 57.9894 37.3616 58.0633C39.1471 58.1371 40.6022 57.8348 40.6198 57.3849C40.6373 56.935 39.2139 56.5062 37.4284 56.4289C35.6428 56.3516 34.1877 56.6433 34.1702 57.1107Z" fill="#8807F7"/>
<path d="M34.1968 56.2829L34.1621 57.1011L40.613 57.3748L40.6477 56.5566L34.1968 56.2829Z" fill="#8807F7"/>
<path d="M34.2034 56.2912C34.1823 56.7447 35.6093 57.1699 37.3913 57.2473C39.1732 57.3246 40.6319 57.0188 40.653 56.5654C40.6741 56.112 39.2471 55.6867 37.4616 55.6129C35.676 55.5391 34.2209 55.8414 34.2034 56.2912Z" fill="#8807F7"/>
<path opacity="0.4" d="M34.2034 56.2912C34.1823 56.7447 35.6093 57.1699 37.3913 57.2473C39.1732 57.3246 40.6319 57.0188 40.653 56.5654C40.6741 56.112 39.2471 55.6867 37.4616 55.6129C35.676 55.5391 34.2209 55.8414 34.2034 56.2912Z" fill="white"/>
<path d="M34.6177 56.2913C34.6162 56.306 34.618 56.3208 34.6228 56.3348C34.6277 56.3487 34.6355 56.3615 34.6458 56.3721C34.8602 56.1085 36.0517 55.9503 37.4576 56.0206C38.8635 56.0909 40.034 56.3369 40.2238 56.6181C40.2433 56.597 40.2545 56.5695 40.2554 56.5408C40.2554 56.235 39.0217 55.9292 37.4647 55.8624C35.9076 55.7957 34.6282 55.9714 34.6177 56.2913Z" fill="#8807F7"/>
<path opacity="0.4" d="M34.6177 56.2913C34.6162 56.306 34.618 56.3208 34.6228 56.3348C34.6277 56.3487 34.6355 56.3615 34.6458 56.3721C34.8602 56.1085 36.0517 55.9503 37.4576 56.0206C38.8635 56.0909 40.034 56.3369 40.2238 56.6181C40.2433 56.597 40.2545 56.5695 40.2554 56.5408C40.2554 56.235 39.0217 55.9292 37.4647 55.8624C35.9076 55.7957 34.6282 55.9714 34.6177 56.2913Z" fill="#8807F7"/>
<path opacity="0.4" d="M34.6445 56.3583C34.8343 56.6395 35.9977 56.8961 37.4071 56.9558C38.8166 57.0156 39.9975 56.8609 40.219 56.6044C40.0292 56.3232 38.8658 56.0666 37.4528 56.0069C36.0399 55.9471 34.8589 56.0947 34.6445 56.3583Z" fill="#8807F7"/>
<path d="M29.6215 62.0489C29.7305 62.4882 31.2243 62.4917 32.9536 62.0489C34.6828 61.606 35.9938 60.9101 35.8849 60.4707C35.7759 60.0314 34.2857 60.0279 32.5564 60.4707C30.8271 60.9136 29.5126 61.613 29.6215 62.0489Z" fill="#8807F7"/>
<path d="M35.689 59.6863L29.4258 61.2549L29.6247 62.0493L35.888 60.4807L35.689 59.6863Z" fill="#8807F7"/>
<path d="M29.4247 61.2581C29.5336 61.694 31.0239 61.701 32.7532 61.2581C34.4824 60.8153 35.797 60.1194 35.6845 59.6835C35.572 59.2477 34.0853 59.2407 32.356 59.6835C30.6267 60.1264 29.3122 60.8188 29.4247 61.2581Z" fill="#8807F7"/>
<path opacity="0.4" d="M29.4247 61.2581C29.5336 61.694 31.0239 61.701 32.7532 61.2581C34.4824 60.8153 35.797 60.1194 35.6845 59.6835C35.572 59.2477 34.0853 59.2407 32.356 59.6835C30.6267 60.1264 29.3122 60.8188 29.4247 61.2581Z" fill="white"/>
<path d="M29.8159 61.1281C29.8235 61.1557 29.841 61.1794 29.8651 61.1949C29.9951 60.8821 31.0812 60.397 32.452 60.0526C33.8227 59.7081 35.0072 59.6238 35.2638 59.8417C35.2744 59.8146 35.2744 59.7844 35.2638 59.7573C35.19 59.4621 33.9036 59.5218 32.3957 59.9014C30.8879 60.281 29.7421 60.8293 29.8159 61.1281Z" fill="#8807F7"/>
<path opacity="0.4" d="M29.8159 61.1281C29.8235 61.1557 29.841 61.1794 29.8651 61.1949C29.9951 60.8821 31.0812 60.397 32.452 60.0526C33.8227 59.7081 35.0072 59.6238 35.2638 59.8417C35.2744 59.8146 35.2744 59.7844 35.2638 59.7573C35.19 59.4621 33.9036 59.5218 32.3957 59.9014C30.8879 60.281 29.7421 60.8293 29.8159 61.1281Z" fill="#8807F7"/>
<path opacity="0.4" d="M29.8652 61.2122C30.1288 61.4301 31.3168 61.3457 32.6771 61.0013C34.0373 60.6568 35.1374 60.1753 35.2639 59.859C35.0003 59.641 33.8158 59.7289 32.4521 60.0699C31.0884 60.4108 29.9953 60.8818 29.8652 61.2122Z" fill="#8807F7"/>
<path d="M26.6309 62.1225C26.6309 62.5724 28.0368 63.0012 29.8223 63.075C31.6078 63.1489 33.0629 62.8466 33.0805 62.3967C33.0981 61.9468 31.6746 61.518 29.8926 61.4407C28.1106 61.3633 26.6519 61.6691 26.6309 62.1225Z" fill="#8807F7"/>
<path d="M26.6617 61.2965L26.627 62.1147L33.0778 62.3885L33.1125 61.5703L26.6617 61.2965Z" fill="#8807F7"/>
<path d="M26.6662 61.3035C26.6486 61.7569 28.0721 62.1822 29.8576 62.2595C31.6431 62.3369 33.0982 62.0311 33.1158 61.5777C33.1334 61.1243 31.7099 60.699 29.9279 60.6252C28.1459 60.5513 26.6873 60.8607 26.6662 61.3035Z" fill="#8807F7"/>
<path opacity="0.4" d="M26.6662 61.3035C26.6486 61.7569 28.0721 62.1822 29.8576 62.2595C31.6431 62.3369 33.0982 62.0311 33.1158 61.5777C33.1334 61.1243 31.7099 60.699 29.9279 60.6252C28.1459 60.5513 26.6873 60.8607 26.6662 61.3035Z" fill="white"/>
<path d="M27.0801 61.2896C27.0803 61.3189 27.0902 61.3473 27.1082 61.3704C27.3226 61.1068 28.5141 60.9486 29.92 61.0189C31.3259 61.0892 32.4928 61.3353 32.6826 61.62C32.7027 61.5975 32.715 61.5691 32.7178 61.5391C32.7178 61.2333 31.4806 60.9275 29.927 60.8643C28.3735 60.801 27.1012 60.9838 27.0801 61.2896Z" fill="#8807F7"/>
<path opacity="0.4" d="M27.0801 61.2896C27.0803 61.3189 27.0902 61.3473 27.1082 61.3704C27.3226 61.1068 28.5141 60.9486 29.92 61.0189C31.3259 61.0892 32.4928 61.3353 32.6826 61.62C32.7027 61.5975 32.715 61.5691 32.7178 61.5391C32.7178 61.2333 31.4806 60.9275 29.927 60.8643C28.3735 60.801 27.1012 60.9838 27.0801 61.2896Z" fill="#8807F7"/>
<path opacity="0.4" d="M27.0996 61.3706C27.2929 61.6553 28.4528 61.9083 29.8622 61.9681C31.2717 62.0278 32.4561 61.8732 32.674 61.6166C32.4843 61.3319 31.3244 61.0789 29.9114 61.0156C28.4985 60.9523 27.321 61.107 27.0996 61.3706Z" fill="#8807F7"/>
<path d="M59.9475 62.0841C59.9264 62.5481 61.3956 62.9874 63.2268 63.0647C65.058 63.1421 66.5588 62.8292 66.5799 62.3618C66.601 61.8943 65.1283 61.462 63.2971 61.3812C61.4659 61.3003 59.9651 61.6202 59.9475 62.0841Z" fill="#8807F7"/>
<path d="M59.9751 61.2332L59.9395 62.0725L66.5729 62.354L66.6085 61.5147L59.9751 61.2332Z" fill="#8807F7"/>
<path d="M59.9826 61.244C59.9616 61.708 61.4307 62.1473 63.2619 62.2247C65.0931 62.302 66.5939 61.9892 66.615 61.5217C66.6361 61.0542 65.1669 60.6219 63.3322 60.5411C61.4975 60.4602 60.0002 60.7801 59.9826 61.244Z" fill="#8807F7"/>
<path opacity="0.4" d="M59.9826 61.244C59.9616 61.708 61.4307 62.1473 63.2619 62.2247C65.0931 62.302 66.5939 61.9892 66.615 61.5217C66.6361 61.0542 65.1669 60.6219 63.3322 60.5411C61.4975 60.4602 60.0002 60.7801 59.9826 61.244Z" fill="white"/>
<path d="M60.4043 61.2299C60.405 61.2602 60.4148 61.2896 60.4324 61.3143C60.6538 61.0401 61.8664 60.8819 63.318 60.9417C64.7696 61.0014 65.9647 61.2651 66.158 61.5568C66.1796 61.5353 66.1922 61.5064 66.1931 61.4759C66.1931 61.1631 64.9243 60.8468 63.3251 60.773C61.7259 60.6992 60.4184 60.9171 60.4043 61.2299Z" fill="#8807F7"/>
<path opacity="0.4" d="M60.4043 61.2299C60.405 61.2602 60.4148 61.2896 60.4324 61.3143C60.6538 61.0401 61.8664 60.8819 63.318 60.9417C64.7696 61.0014 65.9647 61.2651 66.158 61.5568C66.1796 61.5353 66.1922 61.5064 66.1931 61.4759C66.1931 61.1631 64.9243 60.8468 63.3251 60.773C61.7259 60.6992 60.4184 60.9171 60.4043 61.2299Z" fill="#8807F7"/>
<path opacity="0.4" d="M60.4336 61.3142C60.6339 61.6024 61.8395 61.866 63.277 61.9293C64.7146 61.9926 65.9413 61.8309 66.1592 61.5567C65.9659 61.265 64.7708 61.0049 63.3192 60.9417C61.8676 60.8784 60.655 61.0401 60.4336 61.3142Z" fill="#8807F7"/>
<path d="M59.2482 60.8119C59.2306 61.2759 60.6998 61.7152 62.531 61.796C64.3622 61.8769 65.863 61.5606 65.8806 61.0931C65.8982 60.6256 64.4325 60.1898 62.6013 60.1089C60.7701 60.0281 59.2693 60.3479 59.2482 60.8119Z" fill="#8807F7"/>
<path d="M59.2837 59.9696L59.248 60.8088L65.8815 61.0903L65.9171 60.2511L59.2837 59.9696Z" fill="#8807F7"/>
<path d="M59.2854 59.9716C59.2643 60.4355 60.7335 60.8749 62.5647 60.9557C64.3959 61.0365 65.8967 60.7202 65.9178 60.2527C65.9389 59.7853 64.4662 59.3495 62.635 59.2686C60.8038 59.1878 59.303 59.5076 59.2854 59.9716Z" fill="#8807F7"/>
<path opacity="0.4" d="M59.2854 59.9716C59.2643 60.4355 60.7335 60.8749 62.5647 60.9557C64.3959 61.0365 65.8967 60.7202 65.9178 60.2527C65.9389 59.7853 64.4662 59.3495 62.635 59.2686C60.8038 59.1878 59.303 59.5076 59.2854 59.9716Z" fill="white"/>
<path d="M59.709 59.9574C59.7097 59.9877 59.7195 60.0171 59.7371 60.0418C59.9585 59.7676 61.1711 59.6095 62.6192 59.6692C64.0673 59.729 65.2694 59.9926 65.4627 60.2843C65.4828 60.2618 65.4951 60.2335 65.4978 60.2035C65.4978 59.8907 64.2255 59.5743 62.6262 59.5005C61.027 59.4267 59.723 59.6446 59.709 59.9574Z" fill="#8807F7"/>
<path opacity="0.4" d="M59.709 59.9574C59.7097 59.9877 59.7195 60.0171 59.7371 60.0418C59.9585 59.7676 61.1711 59.6095 62.6192 59.6692C64.0673 59.729 65.2694 59.9926 65.4627 60.2843C65.4828 60.2618 65.4951 60.2335 65.4978 60.2035C65.4978 59.8907 64.2255 59.5743 62.6262 59.5005C61.027 59.4267 59.723 59.6446 59.709 59.9574Z" fill="#8807F7"/>
<path opacity="0.4" d="M59.7383 60.0418C59.9351 60.33 61.1442 60.5936 62.5782 60.6569C64.0123 60.7201 65.2459 60.5584 65.4639 60.2843C65.2705 59.9926 64.0755 59.7325 62.6204 59.6692C61.1653 59.6059 59.9597 59.7676 59.7383 60.0418Z" fill="#8807F7"/>
<path d="M60.7463 59.873C60.7252 60.3335 62.1944 60.7728 64.0256 60.8537C65.8568 60.9345 67.3576 60.6182 67.3787 60.1507C67.3998 59.6832 65.9271 59.2474 64.0959 59.1701C62.2647 59.0928 60.7639 59.4091 60.7463 59.873Z" fill="#8807F7"/>
<path d="M60.7759 59.024L60.7402 59.8633L67.3737 60.1448L67.4093 59.3055L60.7759 59.024Z" fill="#8807F7"/>
<path d="M60.7815 59.0297C60.7604 59.4936 62.2296 59.933 64.0608 60.0138C65.892 60.0947 67.3928 59.7783 67.4139 59.3109C67.435 58.8434 65.9623 58.4076 64.1311 58.3302C62.2999 58.2529 60.799 58.5693 60.7815 59.0297Z" fill="#8807F7"/>
<path opacity="0.4" d="M60.7815 59.0297C60.7604 59.4936 62.2296 59.933 64.0608 60.0138C65.892 60.0947 67.3928 59.7783 67.4139 59.3109C67.435 58.8434 65.9623 58.4076 64.1311 58.3302C62.2999 58.2529 60.799 58.5693 60.7815 59.0297Z" fill="white"/>
<path d="M61.1914 59.0155C61.1921 59.0458 61.2019 59.0752 61.2195 59.0999C61.441 58.8257 62.6536 58.6676 64.1016 58.7273C65.5497 58.7871 66.7518 59.0507 66.9451 59.3424C66.9652 59.3199 66.9775 59.2916 66.9802 59.2616C66.9802 58.9488 65.7079 58.6324 64.1087 58.5586C62.5094 58.4848 61.216 58.7027 61.1914 59.0155Z" fill="#8807F7"/>
<path opacity="0.4" d="M61.1914 59.0155C61.1921 59.0458 61.2019 59.0752 61.2195 59.0999C61.441 58.8257 62.6536 58.6676 64.1016 58.7273C65.5497 58.7871 66.7518 59.0507 66.9451 59.3424C66.9652 59.3199 66.9775 59.2916 66.9802 59.2616C66.9802 58.9488 65.7079 58.6324 64.1087 58.5586C62.5094 58.4848 61.216 58.7027 61.1914 59.0155Z" fill="#8807F7"/>
<path opacity="0.4" d="M61.2285 59.1032C61.4253 59.395 62.6344 59.6551 64.0685 59.7183C65.5025 59.7816 66.7362 59.6199 66.9541 59.3458C66.7608 59.054 65.5658 58.7939 64.1106 58.7307C62.6555 58.6674 61.4499 58.8256 61.2285 59.1032Z" fill="#8807F7"/>
<path d="M60.7639 58.6006C60.7428 59.0645 62.212 59.5039 64.0432 59.5812C65.8744 59.6585 67.3752 59.3457 67.3963 58.8782C67.4174 58.4108 65.9447 57.9749 64.1135 57.8976C62.2823 57.8203 60.7815 58.1366 60.7639 58.6006Z" fill="#8807F7"/>
<path d="M60.6703 57.3262L60.6367 58.1663L67.2761 58.4318L67.3097 57.5918L60.6703 57.3262Z" fill="#8807F7"/>
<path d="M60.7971 57.761C60.776 58.2249 62.2452 58.6643 64.0764 58.7416C65.9076 58.8189 67.4084 58.5061 67.4295 58.0386C67.4506 57.5712 65.9779 57.1353 64.1467 57.058C62.3155 56.9807 60.8147 57.297 60.7971 57.761Z" fill="#8807F7"/>
<path opacity="0.4" d="M60.7971 57.761C60.776 58.2249 62.2452 58.6643 64.0764 58.7416C65.9076 58.8189 67.4084 58.5061 67.4295 58.0386C67.4506 57.5712 65.9779 57.1353 64.1467 57.058C62.3155 56.9807 60.8147 57.297 60.7971 57.761Z" fill="white"/>
<path d="M61.2207 57.7468C61.2214 57.7761 61.2313 57.8043 61.2488 57.8277C61.4703 57.5535 62.6829 57.3954 64.1309 57.4551C65.579 57.5149 66.7811 57.782 66.9744 58.0702C66.996 58.0487 67.0086 58.0198 67.0095 57.9894C67.0095 57.6765 65.7407 57.3602 64.138 57.2864C62.5352 57.2126 61.2348 57.4305 61.2207 57.7468Z" fill="#8807F7"/>
<path opacity="0.4" d="M61.2207 57.7468C61.2214 57.7761 61.2313 57.8043 61.2488 57.8277C61.4703 57.5535 62.6829 57.3954 64.1309 57.4551C65.579 57.5149 66.7811 57.782 66.9744 58.0702C66.996 58.0487 67.0086 58.0198 67.0095 57.9894C67.0095 57.6765 65.7407 57.3602 64.138 57.2864C62.5352 57.2126 61.2348 57.4305 61.2207 57.7468Z" fill="#8807F7"/>
<path opacity="0.4" d="M61.248 57.8276C61.4449 58.1194 62.654 58.3795 64.0915 58.4427C65.529 58.506 66.7557 58.3443 66.9736 58.0702C66.7803 57.782 65.5853 57.5183 64.1302 57.4551C62.675 57.3918 61.4695 57.5535 61.248 57.8276Z" fill="#8807F7"/>
<path d="M59.3987 57.5605C59.3776 58.0245 60.8468 58.4638 62.678 58.5412C64.5092 58.6185 66.01 58.3057 66.031 57.8382C66.0521 57.3707 64.583 56.9349 62.7518 56.8576C60.9206 56.7803 59.4338 57.0966 59.3987 57.5605Z" fill="#8807F7"/>
<path d="M59.4401 56.7286L59.4043 57.5679L66.0377 57.8505L66.0735 57.0113L59.4401 56.7286Z" fill="#8807F7"/>
<path d="M59.4338 56.7205C59.4127 57.1844 60.8819 57.6238 62.7131 57.7011C64.5443 57.7784 66.0451 57.4656 66.0662 56.9981C66.0873 56.5307 64.6181 56.0948 62.7869 56.0175C60.9557 55.9402 59.4549 56.2565 59.4338 56.7205Z" fill="#8807F7"/>
<path opacity="0.4" d="M59.4338 56.7205C59.4127 57.1844 60.8819 57.6238 62.7131 57.7011C64.5443 57.7784 66.0451 57.4656 66.0662 56.9981C66.0873 56.5307 64.6181 56.0948 62.7869 56.0175C60.9557 55.9402 59.4549 56.2565 59.4338 56.7205Z" fill="white"/>
<path d="M59.8555 56.7064C59.8562 56.7356 59.866 56.7638 59.8836 56.7872C60.1085 56.5166 61.3211 56.3549 62.7692 56.4182C64.2173 56.4814 65.4158 56.7415 65.6092 57.0297C65.6305 57.0095 65.6432 56.9818 65.6443 56.9524C65.6443 56.6361 64.3755 56.3233 62.7762 56.2495C61.177 56.1756 59.8695 56.39 59.8555 56.7064Z" fill="#8807F7"/>
<path opacity="0.4" d="M59.8555 56.7064C59.8562 56.7356 59.866 56.7638 59.8836 56.7872C60.1085 56.5166 61.3211 56.3549 62.7692 56.4182C64.2173 56.4814 65.4158 56.7415 65.6092 57.0297C65.6305 57.0095 65.6432 56.9818 65.6443 56.9524C65.6443 56.6361 64.3755 56.3233 62.7762 56.2495C61.177 56.1756 59.8695 56.39 59.8555 56.7064Z" fill="#8807F7"/>
<path opacity="0.4" d="M59.8848 56.7874C60.0851 57.0791 61.2907 57.3427 62.7282 57.4025C64.1658 57.4622 65.3924 57.3041 65.6103 57.0299C65.417 56.7417 64.222 56.4781 62.7704 56.4183C61.3188 56.3586 60.1097 56.5168 59.8848 56.7874Z" fill="#8807F7"/>
<path d="M67.9606 60.0909C67.7673 60.5022 68.9201 61.4476 70.5334 62.1998C72.1467 62.952 73.6124 63.2542 73.8022 62.8325C73.992 62.4107 72.8426 61.4793 71.2294 60.7236C69.6161 59.9679 68.1504 59.6832 67.9606 60.0909Z" fill="#8807F7"/>
<path d="M68.3092 59.3633L67.9609 60.1045L73.8045 62.8505L74.1528 62.1093L68.3092 59.3633Z" fill="#8807F7"/>
<path d="M68.3083 59.353C68.115 59.7607 69.2678 60.7062 70.8811 61.4619C72.4944 62.2176 73.96 62.5163 74.1498 62.0946C74.3396 61.6728 73.1903 60.7379 71.577 59.9857C69.9637 59.2335 68.4981 58.9418 68.3083 59.353Z" fill="#8807F7"/>
<path opacity="0.4" d="M68.3083 59.353C68.115 59.7607 69.2678 60.7062 70.8811 61.4619C72.4944 62.2176 73.96 62.5163 74.1498 62.0946C74.3396 61.6728 73.1903 60.7379 71.577 59.9857C69.9637 59.2335 68.4981 58.9418 68.3083 59.353Z" fill="white"/>
<path d="M68.6915 59.4971C68.6809 59.5243 68.6809 59.5544 68.6915 59.5815C68.9903 59.4233 70.1396 59.7326 71.4155 60.3337C72.6914 60.9347 73.6685 61.6201 73.7352 61.954C73.7616 61.9417 73.7828 61.9206 73.795 61.8942C73.925 61.6166 72.8917 60.8398 71.4823 60.1895C70.0728 59.5393 68.8216 59.223 68.6915 59.4971Z" fill="#8807F7"/>
<path opacity="0.4" d="M68.6915 59.4971C68.6809 59.5243 68.6809 59.5544 68.6915 59.5815C68.9903 59.4233 70.1396 59.7326 71.4155 60.3337C72.6914 60.9347 73.6685 61.6201 73.7352 61.954C73.7616 61.9417 73.7828 61.9206 73.795 61.8942C73.925 61.6166 72.8917 60.8398 71.4823 60.1895C70.0728 59.5393 68.8216 59.223 68.6915 59.4971Z" fill="#8807F7"/>
<path opacity="0.4" d="M68.6895 59.5816C68.7562 59.933 69.7439 60.6008 71.0057 61.2019C72.2675 61.8029 73.4344 62.1157 73.7332 61.954C73.6664 61.6201 72.6787 60.9348 71.4134 60.3337C70.1481 59.7327 68.9882 59.4234 68.6895 59.5816Z" fill="#8807F7"/>
<path d="M64.5705 61.5429C64.5529 61.9928 65.9764 62.4181 67.7619 62.4955C69.5474 62.5728 71.0025 62.267 71.0236 61.8171C71.0447 61.3672 69.6177 60.9384 67.8322 60.8611C66.0467 60.7838 64.5916 61.0895 64.5705 61.5429Z" fill="#8807F7"/>
<path d="M64.5992 60.7123L64.5645 61.5305L71.0153 61.8043L71.05 60.9861L64.5992 60.7123Z" fill="#8807F7"/>
<path d="M64.6055 60.7239C64.6055 61.1738 66.0114 61.6026 67.7969 61.6799C69.5824 61.7572 71.0375 61.4479 71.0551 60.998C71.0727 60.5481 69.6492 60.1193 67.8672 60.0455C66.0852 59.9717 64.6266 60.274 64.6055 60.7239Z" fill="#8807F7"/>
<path opacity="0.4" d="M64.6055 60.7239C64.6055 61.1738 66.0114 61.6026 67.7969 61.6799C69.5824 61.7572 71.0375 61.4479 71.0551 60.998C71.0727 60.5481 69.6492 60.1193 67.8672 60.0455C66.0852 59.9717 64.6266 60.274 64.6055 60.7239Z" fill="white"/>
<path d="M65.0176 60.7097C65.0178 60.739 65.0277 60.7674 65.0457 60.7906C65.2636 60.5235 66.4516 60.3688 67.8575 60.4391C69.2634 60.5094 70.4339 60.7554 70.6201 61.0366C70.6415 61.0164 70.6541 60.9887 70.6553 60.9593C70.6553 60.6535 69.4181 60.3477 67.8646 60.2809C66.311 60.2142 65.0316 60.404 65.0176 60.7097Z" fill="#8807F7"/>
<path opacity="0.4" d="M65.0176 60.7097C65.0178 60.739 65.0277 60.7674 65.0457 60.7906C65.2636 60.5235 66.4516 60.3688 67.8575 60.4391C69.2634 60.5094 70.4339 60.7554 70.6201 61.0366C70.6415 61.0164 70.6541 60.9887 70.6553 60.9593C70.6553 60.6535 69.4181 60.3477 67.8646 60.2809C66.311 60.2142 65.0316 60.404 65.0176 60.7097Z" fill="#8807F7"/>
<path opacity="0.4" d="M65.0586 60.7903C65.2519 61.0715 66.4118 61.3281 67.8212 61.3878C69.2306 61.4476 70.4151 61.2929 70.633 61.0363C70.4467 60.7552 69.2834 60.4986 67.8704 60.4388C66.4575 60.3791 65.2625 60.5091 65.0586 60.7903Z" fill="#8807F7"/>
<path d="M18.4373 44.6441C18.438 44.9448 18.438 45.2455 18.4388 45.5462C18.4396 45.8054 18.3547 46.0579 18.1144 46.1902C17.8331 46.3439 17.4344 46.3052 17.1207 46.2728C17.1088 46.272 17.0978 46.2704 17.0867 46.2696C17.097 46.0531 17.093 45.8346 17.0827 45.6189C17.0693 45.3265 17.2467 44.978 17.5605 44.9286C17.9015 44.8748 18.1978 44.8385 18.3586 44.6504C18.3642 44.6449 18.3689 44.6393 18.3736 44.633C18.3973 44.601 18.4226 44.5698 18.4479 44.5386C18.44 44.5726 18.4373 44.6085 18.4373 44.6441Z" fill="#B86AFA"/>
<path d="M17.4062 48.2307C17.641 48.2457 17.8772 48.2421 18.1123 48.2461C18.3866 48.2508 18.6671 48.2848 18.9319 48.2366C19.3116 48.1675 19.7387 47.9197 19.8798 47.5526C20.0106 47.2128 19.9489 46.807 19.7237 46.5217C19.7079 46.502 19.6913 46.483 19.6731 46.4641C19.4455 46.2151 19.0923 46.0851 18.7568 46.1298C18.3392 46.1851 17.9713 46.5134 17.863 46.92C17.7955 47.1737 17.8543 47.444 17.8148 47.7024C17.7824 47.9166 17.5999 48.1359 17.4062 48.2307Z" fill="#B86AFA"/>
<path d="M19.7549 43.6746C19.7339 43.7382 19.7592 43.8073 19.7865 43.8686C20.1346 44.6454 21.0683 45.1709 21.0363 46.1038C21.0216 46.5258 20.811 47.0217 20.459 47.2718C20.4333 47.29 20.41 47.3062 20.38 47.3145C20.3128 47.1889 20.3057 47.0047 20.2484 46.866C20.1769 46.6922 20.082 46.5211 19.9497 46.3863C19.8228 46.2575 19.664 46.1832 19.5371 46.0568C19.2708 45.7909 19.1029 45.4262 19.0808 45.05C19.0484 44.5134 19.3167 43.9812 19.7549 43.6746Z" fill="#B86AFA"/>
<path d="M17.3302 45.5478C17.3302 45.5478 17.3179 45.3135 17.5578 45.3254C17.5582 45.3254 17.6455 45.5814 17.3302 45.5478Z" fill="#8807F7" stroke="#B86AFA" stroke-width="0.078533" stroke-miterlimit="10"/>
<path d="M17.251 47.5304C17.4706 47.5304 17.6485 47.3524 17.6485 47.1329C17.6485 46.9133 17.4706 46.7354 17.251 46.7354C17.0315 46.7354 16.8535 46.9133 16.8535 47.1329C16.8535 47.3524 17.0315 47.5304 17.251 47.5304Z" fill="#B86AFA"/>
<path d="M52.154 31.6226C52.1548 31.9233 52.1548 32.224 52.1556 32.5247C52.1564 32.7839 52.0715 33.0364 51.8312 33.1687C51.5499 33.3224 51.1512 33.2837 50.8375 33.2513C50.8256 33.2505 50.8146 33.2489 50.8035 33.2482C50.8138 33.0316 50.8098 32.8131 50.7995 32.5974C50.7861 32.305 50.9635 31.9565 51.2773 31.9071C51.6183 31.8533 51.9146 31.817 52.0754 31.6289C52.0809 31.6234 52.0857 31.6178 52.0904 31.6115C52.1141 31.5795 52.1394 31.5483 52.1647 31.5171C52.1568 31.5511 52.154 31.587 52.154 31.6226Z" fill="#B86AFA"/>
<path d="M51.123 35.2092C51.3578 35.2242 51.594 35.2207 51.8291 35.2246C52.1034 35.2294 52.3839 35.2633 52.6486 35.2151C53.0284 35.146 53.4555 34.8982 53.5966 34.5312C53.7274 34.1913 53.6657 33.7855 53.4405 33.5003C53.4247 33.4805 53.4081 33.4615 53.3899 33.4426C53.1623 33.1936 52.8091 33.0636 52.4736 33.1083C52.056 33.1636 51.6881 33.492 51.5798 33.8986C51.5123 34.1522 51.5711 34.4225 51.5316 34.6809C51.4992 34.8951 51.3167 35.1144 51.123 35.2092Z" fill="#B86AFA"/>
<path d="M53.4717 30.6531C53.4507 30.7167 53.476 30.7858 53.5033 30.8471C53.8514 31.6239 54.7851 32.1494 54.7531 33.0823C54.7384 33.5043 54.5278 34.0002 54.1758 34.2503C54.1501 34.2685 54.1268 34.2847 54.0968 34.293C54.0296 34.1674 54.0225 33.9832 53.9652 33.8445C53.8937 33.6707 53.7988 33.4996 53.6665 33.3649C53.5396 33.236 53.3808 33.1618 53.2539 33.0353C52.9876 32.7694 52.8197 32.4047 52.7976 32.0285C52.7652 31.4919 53.0335 30.9597 53.4717 30.6531Z" fill="#B86AFA"/>
<path d="M51.047 32.5264C51.047 32.5264 51.0347 32.292 51.2746 32.3039C51.275 32.3039 51.3623 32.5599 51.047 32.5264Z" fill="#8807F7" stroke="#B86AFA" stroke-width="0.078533" stroke-miterlimit="10"/>
<path d="M50.9678 34.5089C51.1873 34.5089 51.3653 34.3309 51.3653 34.1114C51.3653 33.8918 51.1873 33.7139 50.9678 33.7139C50.7483 33.7139 50.5703 33.8918 50.5703 34.1114C50.5703 34.3309 50.7483 34.5089 50.9678 34.5089Z" fill="#B86AFA"/>
<path d="M93.5369 56.2398C93.5377 56.5405 93.5377 56.8412 93.5384 57.1419C93.5392 57.4011 93.4543 57.6536 93.214 57.7859C92.9327 57.9396 92.534 57.9009 92.2203 57.8685C92.2084 57.8677 92.1974 57.8661 92.1863 57.8653C92.1966 57.6488 92.1926 57.4303 92.1824 57.2146C92.1689 56.9222 92.3463 56.5737 92.6601 56.5243C93.0011 56.4705 93.2974 56.4342 93.4582 56.2461C93.4638 56.2406 93.4685 56.235 93.4732 56.2287C93.497 56.1967 93.5222 56.1655 93.5475 56.1343C93.5396 56.1683 93.5369 56.2042 93.5369 56.2398Z" fill="#B86AFA"/>
<path d="M92.5059 59.8264C92.7406 59.8414 92.9769 59.8378 93.212 59.8418C93.4862 59.8465 93.7667 59.8805 94.0315 59.8323C94.4112 59.7632 94.8383 59.5154 94.9794 59.1483C95.1102 58.8085 95.0485 58.4027 94.8233 58.1174C94.8075 58.0977 94.7909 58.0787 94.7727 58.0598C94.5451 57.8108 94.1919 57.6808 93.8564 57.7255C93.4388 57.7808 93.0709 58.1092 92.9626 58.5157C92.8951 58.7694 92.9539 59.0397 92.9144 59.2981C92.882 59.5123 92.6995 59.7316 92.5059 59.8264Z" fill="#B86AFA"/>
<path d="M94.8545 55.2703C94.8335 55.3339 94.8588 55.403 94.8861 55.4643C95.2342 56.2411 96.1679 56.7666 96.1359 57.6995C96.1213 58.1215 95.9107 58.6174 95.5586 58.8675C95.5329 58.8857 95.5096 58.9019 95.4796 58.9102C95.4124 58.7846 95.4053 58.6004 95.348 58.4617C95.2765 58.2879 95.1816 58.1168 95.0493 57.982C94.9224 57.8532 94.7636 57.779 94.6368 57.6525C94.3704 57.3866 94.2025 57.0219 94.1804 56.6457C94.148 56.1091 94.4163 55.5769 94.8545 55.2703Z" fill="#B86AFA"/>
<path d="M92.4298 57.1435C92.4298 57.1435 92.4175 56.9092 92.6574 56.9211C92.6578 56.9211 92.7451 57.1771 92.4298 57.1435Z" fill="#8807F7" stroke="#B86AFA" stroke-width="0.078533" stroke-miterlimit="10"/>
<path d="M92.3506 59.1261C92.5702 59.1261 92.7481 58.9481 92.7481 58.7286C92.7481 58.509 92.5702 58.3311 92.3506 58.3311C92.1311 58.3311 91.9531 58.509 91.9531 58.7286C91.9531 58.9481 92.1311 59.1261 92.3506 59.1261Z" fill="#B86AFA"/>
</svg>
