<svg width="37" height="33" viewBox="0 0 37 33" fill="none" xmlns="http://www.w3.org/2000/svg">
<rect x="0.136719" width="36.8029" height="32.8026" rx="6.40051" fill="#FBBF24"/>
<path d="M18.8663 22.2624C18.1361 22.2624 17.4458 22.1426 16.7954 21.903C16.1451 21.6634 15.5575 21.3325 15.0326 20.9103L14.1598 21.7832C14.0229 21.9201 13.8632 21.9856 13.6806 21.9796C13.498 21.9741 13.3383 21.903 13.2014 21.766C13.0645 21.6291 12.996 21.4664 12.996 21.2779C12.996 21.0899 13.0645 20.9274 13.2014 20.7905L14.0571 19.9348C13.635 19.4099 13.3041 18.8194 13.0645 18.1631C12.8249 17.5073 12.7051 16.82 12.7051 16.1011C12.7051 14.3897 13.3071 12.935 14.511 11.737C15.7145 10.5389 17.1662 9.93994 18.8663 9.93994H23.6583C24.0349 9.93994 24.3573 10.0739 24.6256 10.3418C24.8935 10.6101 25.0275 10.9326 25.0275 11.3091V16.1011C25.0275 17.8012 24.4285 19.2532 23.2305 20.4571C22.0325 21.6606 20.5777 22.2624 18.8663 22.2624ZM18.8663 20.8932C20.2012 20.8932 21.3335 20.4254 22.2632 19.4898C23.1933 18.5542 23.6583 17.4247 23.6583 16.1011V11.3091H18.8663C17.5428 11.3091 16.4132 11.7739 15.4776 12.7036C14.542 13.6337 14.0742 14.7662 14.0742 16.1011C14.0742 17.4247 14.542 18.5542 15.4776 19.4898C16.4132 20.4254 17.5428 20.8932 18.8663 20.8932ZM17.9592 19.4385L21.5019 16.2723C21.616 16.1696 21.6502 16.0468 21.6046 15.904C21.559 15.7616 21.4563 15.679 21.2965 15.6562L18.524 15.3823L20.1841 13.1061C20.2297 13.0491 20.2496 12.9891 20.2437 12.9261C20.2382 12.8635 20.2126 12.8038 20.167 12.7467C20.1099 12.6897 20.0444 12.6611 19.9705 12.6611C19.8961 12.6611 19.8304 12.6897 19.7734 12.7467L16.2478 15.9129C16.1337 16.0156 16.0994 16.1381 16.1451 16.2805C16.1907 16.4234 16.2934 16.5062 16.4531 16.529L19.2257 16.8028L17.5485 19.0791C17.5142 19.1361 17.4971 19.1961 17.4971 19.2591C17.4971 19.3216 17.5257 19.3814 17.5827 19.4385C17.6397 19.4955 17.7025 19.524 17.771 19.524C17.8394 19.524 17.9022 19.4955 17.9592 19.4385Z" fill="white"/>
</svg>
