<svg width="37" height="33" viewBox="0 0 37 33" fill="none" xmlns="http://www.w3.org/2000/svg">
<rect x="0.136719" width="36.8029" height="32.8026" rx="6.40051" fill="#E8356D"/>
<path d="M13.238 21.7017L11.7726 22.5845C11.7078 22.6257 11.6402 22.6434 11.5695 22.6375C11.4989 22.6316 11.4371 22.6081 11.3841 22.5669C11.3312 22.5257 11.29 22.4742 11.2606 22.4126C11.2311 22.3506 11.2252 22.2814 11.2429 22.2049L11.6313 20.5364L10.3336 19.4153C10.2748 19.3623 10.238 19.3019 10.2234 19.2341C10.2086 19.1666 10.213 19.1004 10.2365 19.0357C10.26 18.971 10.2954 18.918 10.3424 18.8768C10.3895 18.8356 10.4543 18.8091 10.5367 18.7973L12.2493 18.6473L12.9114 17.0759C12.9408 17.0053 12.9865 16.9523 13.0484 16.917C13.1101 16.8817 13.1733 16.864 13.238 16.864C13.3028 16.864 13.3661 16.8817 13.428 16.917C13.4897 16.9523 13.5352 17.0053 13.5646 17.0759L14.2267 18.6473L15.9394 18.7973C16.0218 18.8091 16.0865 18.8356 16.1336 18.8768C16.1807 18.918 16.216 18.971 16.2395 19.0357C16.2631 19.1004 16.2675 19.1666 16.2529 19.2341C16.2381 19.3019 16.2013 19.3623 16.1424 19.4153L14.8447 20.5364L15.2331 22.2049C15.2508 22.2814 15.2449 22.3506 15.2155 22.4126C15.186 22.4742 15.1449 22.5257 15.0919 22.5669C15.0389 22.6081 14.9771 22.6316 14.9065 22.6375C14.8359 22.6434 14.7682 22.6257 14.7035 22.5845L13.238 21.7017Z" fill="white"/>
<path d="M19.7947 16.561L17.3967 18.0056C17.2907 18.073 17.18 18.1019 17.0644 18.0923C16.9488 18.0827 16.8477 18.0441 16.7611 17.9767C16.6744 17.9093 16.607 17.8251 16.5588 17.7242C16.5107 17.6229 16.501 17.5096 16.5299 17.3845L17.1655 14.6542L15.042 12.8196C14.9457 12.7329 14.8856 12.6341 14.8617 12.5232C14.8375 12.4126 14.8446 12.3044 14.8831 12.1984C14.9216 12.0925 14.9794 12.0058 15.0565 11.9384C15.1335 11.871 15.2394 11.8277 15.3743 11.8084L18.1767 11.5628L19.2602 8.99147C19.3083 8.87591 19.3831 8.78923 19.4844 8.73145C19.5853 8.67367 19.6887 8.64478 19.7947 8.64478C19.9006 8.64478 20.0042 8.67367 20.1055 8.73145C20.2065 8.78923 20.281 8.87591 20.3292 8.99147L21.4126 11.5628L24.2151 11.8084C24.3499 11.8277 24.4558 11.871 24.5329 11.9384C24.6099 12.0058 24.6677 12.0925 24.7062 12.1984C24.7447 12.3044 24.7521 12.4126 24.7282 12.5232C24.7039 12.6341 24.6436 12.7329 24.5473 12.8196L22.4238 14.6542L23.0594 17.3845C23.0883 17.5096 23.0787 17.6229 23.0305 17.7242C22.9824 17.8251 22.9149 17.9093 22.8283 17.9767C22.7416 18.0441 22.6405 18.0827 22.5249 18.0923C22.4093 18.1019 22.2986 18.073 22.1927 18.0056L19.7947 16.561Z" fill="white"/>
<path d="M19.3962 24.0125L17.9308 24.8953C17.866 24.9365 17.7984 24.9542 17.7277 24.9483C17.6571 24.9424 17.5953 24.9189 17.5423 24.8777C17.4894 24.8365 17.4482 24.785 17.4188 24.7234C17.3893 24.6614 17.3834 24.5922 17.4011 24.5157L17.7895 22.8472L16.4918 21.7261C16.433 21.6731 16.3962 21.6127 16.3816 21.5449C16.3668 21.4774 16.3712 21.4112 16.3947 21.3465C16.4183 21.2817 16.4536 21.2288 16.5006 21.1876C16.5477 21.1464 16.6125 21.1199 16.6949 21.1081L18.4075 20.9581L19.0696 19.3867C19.099 19.3161 19.1447 19.2631 19.2066 19.2278C19.2683 19.1925 19.3315 19.1748 19.3962 19.1748C19.461 19.1748 19.5243 19.1925 19.5862 19.2278C19.6479 19.2631 19.6934 19.3161 19.7228 19.3867L20.3849 20.9581L22.0976 21.1081C22.18 21.1199 22.2447 21.1464 22.2918 21.1876C22.3389 21.2288 22.3742 21.2817 22.3977 21.3465C22.4213 21.4112 22.4257 21.4774 22.4111 21.5449C22.3963 21.6127 22.3595 21.6731 22.3006 21.7261L21.0029 22.8472L21.3913 24.5157C21.409 24.5922 21.4031 24.6614 21.3737 24.7234C21.3443 24.785 21.3031 24.8365 21.2501 24.8777C21.1971 24.9189 21.1353 24.9424 21.0647 24.9483C20.9941 24.9542 20.9264 24.9365 20.8617 24.8953L19.3962 24.0125Z" fill="white"/>
</svg>
