<svg width="48" height="62" viewBox="0 0 48 62" fill="none" xmlns="http://www.w3.org/2000/svg">
<path d="M41.5649 34.7939H35.9482V17.565C35.9482 14.3961 34.6894 11.357 32.4486 9.11623C30.2079 6.87549 27.1688 5.61665 23.9999 5.61665C20.831 5.61665 17.7919 6.87549 15.5512 9.11623C13.3104 11.357 12.0516 14.3961 12.0516 17.565V34.7939H6.43494V17.565C6.43494 12.9064 8.28551 8.43872 11.5796 5.14466C14.8736 1.85059 19.3414 0 23.9999 0C28.6584 0 33.1261 1.85059 36.4202 5.14466C39.7143 8.43872 41.5649 12.9064 41.5649 17.565V34.7939Z" fill="#8807F7"/>
<g opacity="0.3">
<path d="M41.5649 34.7939H35.9482V17.565C35.9482 14.3961 34.6894 11.357 32.4486 9.11623C30.2079 6.87549 27.1688 5.61665 23.9999 5.61665C20.831 5.61665 17.7919 6.87549 15.5512 9.11623C13.3104 11.357 12.0516 14.3961 12.0516 17.565V34.7939H6.43494V17.565C6.43494 12.9064 8.28551 8.43872 11.5796 5.14466C14.8736 1.85059 19.3414 0 23.9999 0C28.6584 0 33.1261 1.85059 36.4202 5.14466C39.7143 8.43872 41.5649 12.9064 41.5649 17.565V34.7939Z" fill="white"/>
</g>
<path d="M48 30.4084V58.6036C48 59.0335 47.9153 59.4592 47.7508 59.8563C47.5863 60.2535 47.3452 60.6143 47.0412 60.9183C46.7372 61.2223 46.3764 61.4634 45.9792 61.6279C45.582 61.7924 45.1564 61.8771 44.7265 61.8771H3.25629C2.82754 61.876 2.4032 61.7904 2.00752 61.6253C1.61184 61.4602 1.25256 61.2187 0.950188 60.9148C0.647814 60.6108 0.408269 60.2502 0.245239 59.8537C0.0822079 59.4571 -0.00112137 59.0323 1.13955e-05 58.6036V30.4084C-0.00112137 29.9796 0.0822079 29.5548 0.245239 29.1583C0.408269 28.7617 0.647814 28.4012 0.950188 28.0972C1.25256 27.7932 1.61184 27.5518 2.00752 27.3867C2.4032 27.2215 2.82754 27.136 3.25629 27.1348H44.7265C45.2689 27.131 45.803 27.2675 46.2771 27.5311C46.7989 27.8086 47.2351 28.2231 47.5387 28.7301C47.8423 29.2371 48.0018 29.8174 48 30.4084Z" fill="#8807F7"/>
<path opacity="0.2" d="M46.2771 27.5311V55.1578C46.2771 55.5873 46.1923 56.0125 46.0277 56.4092C45.8631 56.8059 45.6219 57.1662 45.3178 57.4695C45.0137 57.7728 44.6528 58.0131 44.2556 58.1766C43.8585 58.3402 43.4331 58.4238 43.0036 58.4227H1.53339C0.997813 58.4244 0.470451 58.291 1.13955e-05 58.035V30.4083C-0.00112137 29.9796 0.0822079 29.5548 0.245239 29.1583C0.408269 28.7617 0.647814 28.4012 0.950188 28.0972C1.25256 27.7932 1.61184 27.5518 2.00752 27.3867C2.4032 27.2215 2.82754 27.136 3.25629 27.1348H44.7265C45.2689 27.131 45.803 27.2675 46.2771 27.5311Z" fill="white"/>
<path opacity="0.5" d="M30.1766 40.9711C30.1608 39.8468 29.8385 38.7482 29.2444 37.7936C28.6502 36.839 27.8067 36.0647 26.8049 35.5542C25.8031 35.0437 24.6809 34.8163 23.5594 34.8966C22.4379 34.977 21.3595 35.3619 20.4407 36.0099C19.5218 36.658 18.7973 37.5446 18.3452 38.5741C17.8931 39.6036 17.7307 40.737 17.8753 41.852C18.0199 42.9671 18.4662 44.0215 19.166 44.9016C19.8658 45.7817 20.7925 46.454 21.8463 46.8462L21.5621 54.358H26.4982L25.7659 46.9926C27.05 46.5952 28.172 45.7951 28.9663 44.7107C29.7606 43.6264 30.1849 42.3152 30.1766 40.9711Z" fill="#3D0072"/>
</svg>
