<svg width="133" height="41" viewBox="0 0 133 41" fill="none" xmlns="http://www.w3.org/2000/svg">
<path d="M52.0449 26.4203H54.9572C54.9794 27.0206 55.2351 27.5393 55.7242 27.9765C56.2133 28.4137 56.8617 28.6323 57.6695 28.6323C58.4328 28.6323 59.0478 28.4545 59.5147 28.0988C59.9816 27.7431 60.2335 27.291 60.2706 26.7427C60.3002 26.2239 60.1372 25.7904 59.7815 25.4421C59.4258 25.0938 58.8663 24.8159 58.103 24.6084L56.1688 24.0971C53.5307 23.3264 52.2116 21.8702 52.2116 19.7286C52.2116 18.8319 52.4488 18.0316 52.923 17.3276C53.4047 16.6236 54.0457 16.0826 54.8461 15.7047C55.6464 15.3267 56.5282 15.1378 57.4916 15.1378C59.0034 15.1378 60.2483 15.5676 61.2265 16.4272C62.2121 17.2868 62.7049 18.4355 62.7049 19.8731H59.7926C59.7926 19.2506 59.5814 18.7541 59.159 18.3836C58.7366 18.0057 58.166 17.8167 57.4472 17.8167C56.7802 17.8167 56.2207 17.9871 55.7687 18.328C55.324 18.6689 55.1017 19.1135 55.1017 19.6619C55.1017 20.5289 55.7242 21.1292 56.9692 21.4627L58.9033 22.0296C59.7481 22.2593 60.4669 22.5557 61.0598 22.9188C61.6526 23.2745 62.101 23.6673 62.4048 24.0971C62.716 24.5269 62.9309 24.9641 63.0495 25.4088C63.1755 25.8534 63.2199 26.3203 63.1829 26.8094C63.1384 27.7208 62.8568 28.5212 62.3381 29.2104C61.8194 29.8921 61.1524 30.4035 60.3373 30.7443C59.5295 31.0852 58.6402 31.2557 57.6695 31.2557C56.0243 31.2557 54.6756 30.7925 53.6233 29.8662C52.571 28.9325 52.0449 27.7838 52.0449 26.4203ZM65.0503 25.6755C65.0503 24.8456 65.1986 24.0786 65.495 23.3746C65.7988 22.6706 66.2027 22.0851 66.7066 21.6183C67.2105 21.1514 67.7848 20.7883 68.4295 20.5289C69.0817 20.2696 69.7597 20.1399 70.4637 20.1399C71.0492 20.1399 71.6568 20.2659 72.2867 20.5178C72.9166 20.7624 73.4094 21.1514 73.7651 21.685V20.3733H76.5441V31H73.7651V29.6328C73.4539 30.1367 72.9722 30.5257 72.3201 30.7999C71.6754 31.0667 71.0566 31.2001 70.4637 31.2001C69.5226 31.2001 68.6407 30.9815 67.8182 30.5443C67.003 30.0996 66.3361 29.4512 65.8173 28.599C65.306 27.7394 65.0503 26.7649 65.0503 25.6755ZM67.9182 25.6755C67.9182 26.5055 68.2109 27.191 68.7964 27.732C69.3818 28.2729 70.0673 28.5434 70.8528 28.5434C71.6457 28.5434 72.3275 28.284 72.8981 27.7653C73.4761 27.2466 73.7651 26.55 73.7651 25.6755C73.7651 24.8011 73.4724 24.1045 72.887 23.5858C72.309 23.067 71.6309 22.8077 70.8528 22.8077C70.0599 22.8077 69.3707 23.0782 68.7853 23.6191C68.2072 24.1527 67.9182 24.8382 67.9182 25.6755ZM78.3226 20.3733H81.2905L84.0139 27.4541L86.7484 20.3733H89.7274L85.2477 31H82.7911L78.3226 20.3733ZM91.0613 16.2494C91.0613 15.7825 91.2391 15.3897 91.5948 15.0711C91.9505 14.745 92.3729 14.582 92.862 14.582C93.3437 14.582 93.755 14.745 94.0959 15.0711C94.4442 15.3897 94.6183 15.7825 94.6183 16.2494C94.6183 16.7236 94.4442 17.1238 94.0959 17.4499C93.755 17.7685 93.3437 17.9278 92.862 17.9278C92.3655 17.9278 91.9394 17.7685 91.5837 17.4499C91.2354 17.1238 91.0613 16.7236 91.0613 16.2494ZM91.4726 31V20.3733H94.2293V31H91.4726ZM97.3639 31V20.3733H100.143V21.9406C100.432 21.3923 100.873 20.955 101.466 20.629C102.058 20.3029 102.674 20.1399 103.311 20.1399C104.563 20.1399 105.534 20.5326 106.223 21.3182C106.92 22.1037 107.268 23.2375 107.268 24.7196V31H104.489V25.2198C104.489 24.4639 104.308 23.8822 103.944 23.4746C103.581 23.0596 103.089 22.8521 102.466 22.8521C101.777 22.8521 101.217 23.0485 100.788 23.4413C100.358 23.834 100.143 24.4639 100.143 25.331V31H97.3639ZM109.625 25.72C109.625 24.6232 109.877 23.6451 110.381 22.7854C110.884 21.9184 111.537 21.2626 112.337 20.8179C113.145 20.3659 114.015 20.1399 114.949 20.1399C115.668 20.1399 116.339 20.2881 116.961 20.5845C117.591 20.8809 118.05 21.2885 118.339 21.8072V20.3733H121.052V29.4771C121.052 31.7818 120.537 33.4936 119.507 34.6126C118.477 35.739 117.009 36.3022 115.105 36.3022C114.001 36.3022 112.996 36.0206 112.092 35.4574C111.188 34.9016 110.503 34.1384 110.036 33.1676C110.243 33.0638 110.621 32.8712 111.17 32.5896C111.718 32.308 112.092 32.119 112.292 32.0227C112.515 32.534 112.896 32.9527 113.437 33.2787C113.978 33.6122 114.534 33.7789 115.105 33.7789C115.631 33.7789 116.09 33.7011 116.483 33.5455C116.883 33.3973 117.206 33.1935 117.45 32.9341C117.695 32.6748 117.891 32.3598 118.039 31.9893C118.187 31.6262 118.28 31.2445 118.317 30.8444C118.362 30.4442 118.369 30.0107 118.339 29.5438C118.073 30.0626 117.621 30.4739 116.983 30.7777C116.346 31.0741 115.668 31.2223 114.949 31.2223C114.015 31.2223 113.145 31 112.337 30.5554C111.537 30.1107 110.884 29.466 110.381 28.6212C109.877 27.769 109.625 26.8019 109.625 25.72ZM112.515 25.6755C112.515 26.5426 112.793 27.2466 113.348 27.7875C113.904 28.3211 114.582 28.5879 115.383 28.5879C116.138 28.5879 116.809 28.3174 117.395 27.7764C117.98 27.2355 118.273 26.5352 118.273 25.6755C118.273 24.7937 117.991 24.0971 117.428 23.5858C116.865 23.067 116.183 22.8077 115.383 22.8077C114.59 22.8077 113.912 23.0782 113.348 23.6191C112.793 24.1527 112.515 24.8382 112.515 25.6755ZM123.453 27.6541H126.043C126.08 28.0395 126.287 28.3656 126.665 28.6323C127.05 28.8991 127.495 29.0214 127.999 28.9992C128.392 28.9843 128.722 28.8806 128.988 28.6879C129.255 28.4878 129.388 28.2359 129.388 27.932C129.411 27.4355 129.025 27.0984 128.232 26.9205L126.776 26.5648C126.243 26.4166 125.783 26.2462 125.398 26.0535C125.02 25.8534 124.727 25.657 124.52 25.4643C124.312 25.2643 124.149 25.0345 124.031 24.7752C123.912 24.5158 123.838 24.2787 123.808 24.0638C123.779 23.8488 123.764 23.5969 123.764 23.3079C123.764 22.4557 124.153 21.7146 124.931 21.0847C125.709 20.4548 126.628 20.1399 127.688 20.1399C128.214 20.1399 128.707 20.2029 129.166 20.3288C129.633 20.4548 130.067 20.6438 130.467 20.8958C130.867 21.1477 131.186 21.496 131.423 21.9406C131.667 22.3853 131.801 22.9003 131.823 23.4857H129.188C129.166 23.1226 129.011 22.8521 128.722 22.6743C128.433 22.489 128.11 22.3964 127.754 22.3964C127.369 22.3964 127.047 22.4779 126.787 22.6409C126.535 22.804 126.409 23.0707 126.409 23.4413C126.409 23.6488 126.513 23.8303 126.721 23.9859C126.928 24.1342 127.195 24.249 127.521 24.3305L129.3 24.764C129.766 24.8826 130.174 25.0494 130.522 25.2643C130.878 25.4718 131.152 25.6904 131.345 25.9201C131.538 26.1424 131.689 26.387 131.801 26.6537C131.919 26.9205 131.993 27.1539 132.023 27.354C132.06 27.5541 132.079 27.7542 132.079 27.9543C132.079 28.6435 131.867 29.2437 131.445 29.755C131.023 30.2589 130.489 30.6295 129.844 30.8666C129.2 31.1037 128.496 31.2223 127.732 31.2223C126.613 31.2223 125.624 30.9 124.764 30.2552C123.912 29.6105 123.475 28.7435 123.453 27.6541Z" fill="#3D0072"/>
<path d="M14.0555 8.60262C14.0625 11.2714 14.0625 13.9402 14.0695 16.609C14.0765 18.9095 13.3225 21.1505 11.1903 22.3253C8.69335 23.6895 5.15484 23.3458 2.37033 23.0582C2.26512 23.0512 2.16692 23.0372 2.06873 23.0302C2.15991 21.1084 2.12484 19.169 2.03366 17.2542C1.91442 14.6591 3.48904 11.566 6.27356 11.1276C9.30005 10.6507 11.9303 10.328 13.3576 8.65873C13.4067 8.60963 13.4488 8.56053 13.4908 8.50442C13.7013 8.22036 13.9257 7.94331 14.1502 7.66626C14.08 7.96786 14.0555 8.28699 14.0555 8.60262Z" fill="#8807F7"/>
<path d="M4.91016 40.4386C6.99328 40.5718 9.09043 40.5403 11.1771 40.5753C13.6109 40.6174 16.1008 40.919 18.4505 40.4912C21.8206 39.8775 25.6116 37.6786 26.8636 34.4206C28.0244 31.4047 27.4773 27.803 25.4784 25.271C25.3381 25.0957 25.1908 24.9273 25.0295 24.759C23.0095 22.5496 19.8743 21.3959 16.8969 21.7921C13.1901 22.2831 9.92509 25.1974 8.96418 28.806C8.3645 31.0575 8.88703 33.4562 8.53634 35.7498C8.24877 37.6505 6.62856 39.5969 4.91016 40.4386Z" fill="#8807F7"/>
<path d="M25.7406 0C25.5548 0.564618 25.7792 1.17833 26.0212 1.72191C29.1108 8.61656 37.3977 13.2808 37.1137 21.5607C36.9839 25.3061 35.1147 29.7073 31.99 31.9272C31.7621 32.0885 31.5552 32.2323 31.2886 32.306C30.6925 31.1908 30.6293 29.5565 30.1208 28.3256C29.4861 26.7825 28.6444 25.264 27.4696 24.0682C26.3438 22.9249 24.9341 22.2656 23.8083 21.1434C21.4446 18.7832 19.9542 15.5463 19.7578 12.2077C19.4702 7.44524 21.8514 2.72139 25.7406 0Z" fill="#8807F7"/>
<path d="M4.22945 16.6264C4.22945 16.6264 4.12073 14.5468 6.24945 14.652C6.25296 14.652 7.02799 16.9245 4.22945 16.6264Z" fill="white" stroke="#8807F7" stroke-width="0.5" stroke-miterlimit="10"/>
<path d="M3.52799 34.2208C5.47644 34.2208 7.05597 32.6412 7.05597 30.6928C7.05597 28.7443 5.47644 27.1648 3.52799 27.1648C1.57953 27.1648 0 28.7443 0 30.6928C0 32.6412 1.57953 34.2208 3.52799 34.2208Z" fill="#8807F7"/>
</svg>
