<svg width="151" height="150" viewBox="0 0 151 150" fill="none" xmlns="http://www.w3.org/2000/svg">
<g opacity="0.2">
<path d="M141.498 74.9999C141.498 111.451 111.949 141 75.4981 141C39.0475 141 9.49805 111.451 9.49805 74.9999C9.49805 38.549 39.0475 9 75.4981 9C111.949 9 141.498 38.549 141.498 74.9999Z" fill="#8807F7"/>
</g>
<path d="M150.5 74.9999C150.5 116.421 116.922 150 75.5001 150C34.0789 150 0.5 116.421 0.5 74.9999C0.5 33.5784 34.0789 0 75.5001 0C116.922 0 150.5 33.5784 150.5 74.9999Z" fill="#E3FDFA"/>
<path d="M42.3906 75.1265L64.3777 97.1137L108.607 52.8848" stroke="#0D9488" stroke-width="12.9948" stroke-linecap="round" stroke-linejoin="round"/>
</svg>
