<svg width="376" height="46" viewBox="0 0 376 46" fill="none" xmlns="http://www.w3.org/2000/svg">
<path d="M4.044 36.472C3.852 36.704 3.652 36.952 3.444 37.216C3.244 37.48 3.048 37.756 2.856 38.044C2.664 38.332 2.48 38.628 2.304 38.932C2.128 39.228 1.968 39.524 1.824 39.82H4.044V36.472ZM5.46 34.684V39.82H6.396V41.008H5.46V43H4.044V41.008H0.396V39.976C0.556 39.624 0.768 39.22 1.032 38.764C1.304 38.308 1.604 37.84 1.932 37.36C2.26 36.88 2.608 36.408 2.976 35.944C3.344 35.48 3.712 35.06 4.08 34.684H5.46ZM7.98431 45.22H6.49631L10.5523 33.604H12.0163L7.98431 45.22ZM12.8925 36.412C13.3565 36.228 13.8205 35.992 14.2845 35.704C14.7565 35.416 15.1725 35.076 15.5325 34.684H16.5525V43H15.1005V36.628C14.8845 36.796 14.6125 36.96 14.2845 37.12C13.9565 37.28 13.6405 37.412 13.3365 37.516L12.8925 36.412ZM24.9328 38.836C24.9328 40.236 24.6768 41.312 24.1648 42.064C23.6528 42.808 22.9448 43.18 22.0408 43.18C21.1368 43.18 20.4288 42.808 19.9168 42.064C19.4048 41.312 19.1488 40.236 19.1488 38.836C19.1488 38.14 19.2128 37.524 19.3408 36.988C19.4768 36.444 19.6688 35.988 19.9168 35.62C20.1728 35.252 20.4768 34.972 20.8288 34.78C21.1888 34.588 21.5928 34.492 22.0408 34.492C22.9448 34.492 23.6528 34.868 24.1648 35.62C24.6768 36.364 24.9328 37.436 24.9328 38.836ZM23.4328 38.836C23.4328 38.404 23.4088 38 23.3608 37.624C23.3128 37.248 23.2328 36.924 23.1208 36.652C23.0168 36.372 22.8768 36.152 22.7008 35.992C22.5248 35.832 22.3048 35.752 22.0408 35.752C21.7768 35.752 21.5528 35.832 21.3688 35.992C21.1928 36.152 21.0488 36.372 20.9368 36.652C20.8328 36.924 20.7568 37.248 20.7088 37.624C20.6688 38 20.6488 38.404 20.6488 38.836C20.6488 39.268 20.6688 39.672 20.7088 40.048C20.7568 40.424 20.8328 40.752 20.9368 41.032C21.0488 41.304 21.1928 41.52 21.3688 41.68C21.5528 41.84 21.7768 41.92 22.0408 41.92C22.3048 41.92 22.5248 41.84 22.7008 41.68C22.8768 41.52 23.0168 41.304 23.1208 41.032C23.2328 40.752 23.3128 40.424 23.3608 40.048C23.4088 39.672 23.4328 39.268 23.4328 38.836Z" fill="#9CA3AF"/>
<rect x="36.957" y="9.87109" width="298.043" height="14.306" rx="7.15302" fill="#E7E7E7"/>
<rect y="9.87109" width="127.562" height="14.306" rx="7.15302" fill="#E8356D"/>
<circle cx="129.928" cy="17.4272" r="10.4781" fill="white" stroke="#E8356D" stroke-width="4.19122"/>
<path d="M361 10V26.25M352.25 15H369.75M352.25 15C351.587 15 350.951 14.7366 350.482 14.2678C350.013 13.7989 349.75 13.163 349.75 12.5C349.75 11.837 350.013 11.2011 350.482 10.7322C350.951 10.2634 351.587 10 352.25 10H369.75C370.413 10 371.049 10.2634 371.518 10.7322C371.987 11.2011 372.25 11.837 372.25 12.5C372.25 13.163 371.987 13.7989 371.518 14.2678C371.049 14.7366 370.413 15 369.75 15M352.25 15V23.75C352.25 24.413 352.513 25.0489 352.982 25.5178C353.451 25.9866 354.087 26.25 354.75 26.25H367.25C367.913 26.25 368.549 25.9866 369.018 25.5178C369.487 25.0489 369.75 24.413 369.75 23.75V15M361 10V7.5C361 7.00555 361.147 6.5222 361.421 6.11108C361.696 5.69995 362.086 5.37952 362.543 5.1903C363 5.00108 363.503 4.95157 363.988 5.04804C364.473 5.1445 364.918 5.3826 365.268 5.73223C365.617 6.08187 365.856 6.52732 365.952 7.01228C366.048 7.49723 365.999 7.99989 365.81 8.45671C365.62 8.91353 365.3 9.30397 364.889 9.57868C364.478 9.85338 363.994 10 363.5 10H361ZM361 10V6.875C361 6.25693 360.817 5.65275 360.473 5.13884C360.13 4.62494 359.642 4.2244 359.071 3.98788C358.5 3.75135 357.872 3.68947 357.265 3.81005C356.659 3.93063 356.102 4.22825 355.665 4.66529C355.228 5.10233 354.931 5.65915 354.81 6.26534C354.689 6.87153 354.751 7.49987 354.988 8.07089C355.224 8.64191 355.625 9.12996 356.139 9.47334C356.653 9.81672 357.257 10 357.875 10H361Z" stroke="#9CA3AF" stroke-width="2.5" stroke-linecap="round" stroke-linejoin="round"/>
</svg>
