<svg width="70" height="70" viewBox="0 0 70 70" fill="none" xmlns="http://www.w3.org/2000/svg">
<g filter="url(#filter0_d_1542_17122)">
<circle cx="35" cy="31" r="25" fill="#FBF3FA"/>
<path d="M20.12 26.216C20.4293 26.088 20.7493 25.944 21.08 25.784C21.4213 25.6133 21.752 25.432 22.072 25.24C22.392 25.0373 22.696 24.8293 22.984 24.616C23.2827 24.392 23.5493 24.1573 23.784 23.912H25.448V35H23.064V27.016C22.744 27.2293 22.3867 27.4267 21.992 27.608C21.5973 27.7787 21.2133 27.928 20.84 28.056L20.12 26.216ZM36.0298 26.824C36.0298 27.2293 35.9498 27.6187 35.7898 27.992C35.6298 28.3653 35.4218 28.728 35.1658 29.08C34.9098 29.4213 34.6218 29.752 34.3018 30.072C33.9818 30.392 33.6671 30.696 33.3578 30.984C33.1978 31.1333 33.0218 31.304 32.8298 31.496C32.6484 31.6773 32.4724 31.864 32.3018 32.056C32.1311 32.248 31.9764 32.4293 31.8378 32.6C31.7098 32.76 31.6298 32.8933 31.5978 33H36.3658V35H28.9738C28.9524 34.8827 28.9418 34.7333 28.9418 34.552C28.9418 34.3707 28.9418 34.2427 28.9418 34.168C28.9418 33.656 29.0218 33.1867 29.1818 32.76C29.3524 32.3333 29.5711 31.9387 29.8378 31.576C30.1044 31.2027 30.4031 30.856 30.7338 30.536C31.0751 30.216 31.4111 29.896 31.7418 29.576C31.9978 29.3307 32.2378 29.1013 32.4618 28.888C32.6858 28.664 32.8831 28.4507 33.0538 28.248C33.2244 28.0347 33.3578 27.8267 33.4538 27.624C33.5498 27.4107 33.5978 27.1973 33.5978 26.984C33.5978 26.5147 33.4644 26.184 33.1978 25.992C32.9311 25.8 32.6004 25.704 32.2057 25.704C31.9178 25.704 31.6458 25.752 31.3898 25.848C31.1444 25.9333 30.9151 26.04 30.7018 26.168C30.4991 26.2853 30.3231 26.408 30.1738 26.536C30.0244 26.6533 29.9124 26.7493 29.8378 26.824L28.6538 25.16C29.1231 24.7227 29.6671 24.3653 30.2858 24.088C30.9151 23.8 31.5871 23.656 32.3018 23.656C32.9524 23.656 33.5124 23.7307 33.9818 23.88C34.4511 24.0293 34.8351 24.2427 35.1338 24.52C35.4431 24.7867 35.6671 25.1173 35.8058 25.512C35.9551 25.896 36.0298 26.3333 36.0298 26.824ZM43.4115 26.76C43.4115 27.7627 43.1555 28.5307 42.6435 29.064C42.1315 29.5973 41.4435 29.864 40.5795 29.864C39.7155 29.864 39.0275 29.5973 38.5155 29.064C38.0035 28.5307 37.7475 27.7627 37.7475 26.76C37.7475 25.7573 38.0035 24.9893 38.5155 24.456C39.0275 23.9227 39.7155 23.656 40.5795 23.656C41.4435 23.656 42.1315 23.9227 42.6435 24.456C43.1555 24.9893 43.4115 25.7573 43.4115 26.76ZM41.6035 26.76C41.6035 26.216 41.5075 25.8213 41.3155 25.576C41.1235 25.3307 40.8782 25.208 40.5795 25.208C40.2702 25.208 40.0195 25.3307 39.8275 25.576C39.6462 25.8213 39.5555 26.216 39.5555 26.76C39.5555 27.304 39.6462 27.704 39.8275 27.96C40.0195 28.2053 40.2702 28.328 40.5795 28.328C40.8782 28.328 41.1235 28.2053 41.3155 27.96C41.5075 27.704 41.6035 27.304 41.6035 26.76ZM46.5315 23.912H48.7555L42.4995 35H40.2755L46.5315 23.912ZM51.3155 32.152C51.3155 33.1547 51.0595 33.9227 50.5475 34.456C50.0355 34.9893 49.3475 35.256 48.4835 35.256C47.6195 35.256 46.9315 34.9893 46.4195 34.456C45.9075 33.9227 45.6515 33.1547 45.6515 32.152C45.6515 31.1493 45.9075 30.3813 46.4195 29.848C46.9315 29.3147 47.6195 29.048 48.4835 29.048C49.3475 29.048 50.0355 29.3147 50.5475 29.848C51.0595 30.3813 51.3155 31.1493 51.3155 32.152ZM49.5075 32.152C49.5075 31.608 49.4115 31.2133 49.2195 30.968C49.0275 30.7227 48.7822 30.6 48.4835 30.6C48.1742 30.6 47.9235 30.7227 47.7315 30.968C47.5502 31.2133 47.4595 31.608 47.4595 32.152C47.4595 32.696 47.5502 33.096 47.7315 33.352C47.9235 33.5973 48.1742 33.72 48.4835 33.72C48.7822 33.72 49.0275 33.5973 49.2195 33.352C49.4115 33.096 49.5075 32.696 49.5075 32.152Z" fill="#E8356D"/>
<path d="M42.969 39.669C42.969 39.123 42.834 38.703 42.564 38.409C42.294 38.115 41.934 37.968 41.484 37.968C41.232 37.968 41.034 37.977 40.89 37.995C40.752 38.013 40.641 38.034 40.557 38.058V41.01C40.659 41.094 40.806 41.175 40.998 41.253C41.19 41.331 41.4 41.37 41.628 41.37C41.868 41.37 42.072 41.328 42.24 41.244C42.414 41.154 42.555 41.034 42.663 40.884C42.771 40.728 42.849 40.548 42.897 40.344C42.945 40.134 42.969 39.909 42.969 39.669ZM43.842 39.669C43.842 40.023 43.794 40.35 43.698 40.65C43.608 40.95 43.473 41.208 43.293 41.424C43.113 41.64 42.891 41.808 42.627 41.928C42.369 42.048 42.072 42.108 41.736 42.108C41.466 42.108 41.226 42.072 41.016 42C40.812 41.928 40.659 41.859 40.557 41.793V43.665H39.72V37.464C39.918 37.416 40.164 37.365 40.458 37.311C40.758 37.251 41.103 37.221 41.493 37.221C41.853 37.221 42.177 37.278 42.465 37.392C42.753 37.506 42.999 37.668 43.203 37.878C43.407 38.088 43.563 38.346 43.671 38.652C43.785 38.952 43.842 39.291 43.842 39.669ZM46.0098 41.514C46.0098 41.676 45.9558 41.817 45.8478 41.937C45.7398 42.057 45.5928 42.117 45.4068 42.117C45.2208 42.117 45.0738 42.057 44.9658 41.937C44.8578 41.817 44.8038 41.676 44.8038 41.514C44.8038 41.352 44.8578 41.211 44.9658 41.091C45.0738 40.971 45.2208 40.911 45.4068 40.911C45.5928 40.911 45.7398 40.971 45.8478 41.091C45.9558 41.211 46.0098 41.352 46.0098 41.514ZM48.8186 41.397C49.0166 41.397 49.1906 41.394 49.3406 41.388C49.4966 41.376 49.6256 41.358 49.7276 41.334V39.939C49.6676 39.909 49.5686 39.885 49.4306 39.867C49.2986 39.843 49.1366 39.831 48.9446 39.831C48.8186 39.831 48.6836 39.84 48.5396 39.858C48.4016 39.876 48.2726 39.915 48.1526 39.975C48.0386 40.029 47.9426 40.107 47.8646 40.209C47.7866 40.305 47.7476 40.434 47.7476 40.596C47.7476 40.896 47.8436 41.106 48.0356 41.226C48.2276 41.34 48.4886 41.397 48.8186 41.397ZM48.7466 37.203C49.0826 37.203 49.3646 37.248 49.5926 37.338C49.8266 37.422 50.0126 37.545 50.1506 37.707C50.2946 37.863 50.3966 38.052 50.4566 38.274C50.5166 38.49 50.5466 38.73 50.5466 38.994V41.919C50.4746 41.931 50.3726 41.949 50.2406 41.973C50.1146 41.991 49.9706 42.009 49.8086 42.027C49.6466 42.045 49.4696 42.06 49.2776 42.072C49.0916 42.09 48.9056 42.099 48.7196 42.099C48.4556 42.099 48.2126 42.072 47.9906 42.018C47.7686 41.964 47.5766 41.88 47.4146 41.766C47.2526 41.646 47.1266 41.49 47.0366 41.298C46.9466 41.106 46.9016 40.875 46.9016 40.605C46.9016 40.347 46.9526 40.125 47.0546 39.939C47.1626 39.753 47.3066 39.603 47.4866 39.489C47.6666 39.375 47.8766 39.291 48.1166 39.237C48.3566 39.183 48.6086 39.156 48.8726 39.156C48.9566 39.156 49.0436 39.162 49.1336 39.174C49.2236 39.18 49.3076 39.192 49.3856 39.21C49.4696 39.222 49.5416 39.234 49.6016 39.246C49.6616 39.258 49.7036 39.267 49.7276 39.273V39.039C49.7276 38.901 49.7126 38.766 49.6826 38.634C49.6526 38.496 49.5986 38.376 49.5206 38.274C49.4426 38.166 49.3346 38.082 49.1966 38.022C49.0646 37.956 48.8906 37.923 48.6746 37.923C48.3986 37.923 48.1556 37.944 47.9456 37.986C47.7416 38.022 47.5886 38.061 47.4866 38.103L47.3876 37.41C47.4956 37.362 47.6756 37.317 47.9276 37.275C48.1796 37.227 48.4526 37.203 48.7466 37.203Z" fill="#E8356D"/>
</g>
<defs>
<filter id="filter0_d_1542_17122" x="0" y="0" width="70" height="70" filterUnits="userSpaceOnUse" color-interpolation-filters="sRGB">
<feFlood flood-opacity="0" result="BackgroundImageFix"/>
<feColorMatrix in="SourceAlpha" type="matrix" values="0 0 0 0 0 0 0 0 0 0 0 0 0 0 0 0 0 0 127 0" result="hardAlpha"/>
<feOffset dy="4"/>
<feGaussianBlur stdDeviation="5"/>
<feComposite in2="hardAlpha" operator="out"/>
<feColorMatrix type="matrix" values="0 0 0 0 0.533333 0 0 0 0 0.027451 0 0 0 0 0.968627 0 0 0 0.07 0"/>
<feBlend mode="normal" in2="BackgroundImageFix" result="effect1_dropShadow_1542_17122"/>
<feBlend mode="normal" in="SourceGraphic" in2="effect1_dropShadow_1542_17122" result="shape"/>
</filter>
</defs>
</svg>
