<svg width="182" height="185" viewBox="0 0 182 185" fill="none" xmlns="http://www.w3.org/2000/svg">
<path d="M69.1952 19.135C104.31 8.56702 141.343 28.4659 151.911 63.5804C162.479 98.6949 142.58 135.728 107.465 146.296C72.3507 156.864 35.3177 136.965 24.7497 101.85C14.1818 66.736 34.0807 29.703 69.1952 19.135ZM104.304 135.792C133.617 126.97 150.228 96.0549 141.406 66.7418C132.584 37.4286 101.67 20.8172 72.3565 29.6392C43.0433 38.4613 26.432 69.376 35.254 98.6891C44.076 128.002 74.9907 144.614 104.304 135.792Z" fill="#F0F2F4"/>
<path d="M139.022 138.91C140.377 140.655 142.899 140.979 144.559 139.522C150.866 133.982 156.075 127.287 159.898 119.786C164.328 111.096 166.788 101.536 167.104 91.7866C167.42 82.0374 165.584 72.3382 161.727 63.3789C158.398 55.6461 153.634 48.6284 147.698 42.6916C146.136 41.1293 143.599 41.2897 142.133 42.9428L126.409 60.681C124.943 62.3341 125.116 64.8483 126.589 66.4942C129.085 69.2823 131.12 72.4628 132.607 75.9162C134.622 80.5974 135.581 85.6653 135.416 90.7593C135.251 95.8533 133.966 100.848 131.651 105.389C129.944 108.739 127.707 111.781 125.036 114.402C123.459 115.949 123.124 118.446 124.479 120.191L139.022 138.91Z" fill="#E6356D"/>
<path d="M43.1485 138.859C41.5383 140.372 41.4512 142.913 43.0578 144.429C53.7719 154.541 67.5795 160.83 82.3205 162.237C97.0615 163.644 111.81 160.081 124.243 152.179C126.108 150.994 126.503 148.482 125.208 146.692L111.312 127.488C110.017 125.698 107.525 125.32 105.599 126.4C99.4642 129.84 92.3971 131.35 85.3332 130.676C78.2692 130.002 71.6155 127.182 66.2427 122.643C64.5551 121.218 62.037 121.118 60.4267 122.63L43.1485 138.859Z" fill="#8807F7"/>
<path d="M76.1609 85.9944C76.1609 85.6496 76.0836 85.3464 75.929 85.0848C75.7745 84.8114 75.5069 84.5855 75.1265 84.4071C74.746 84.2288 74.2347 84.092 73.5926 83.9969C72.9506 83.9018 72.142 83.8542 71.167 83.8542C71.2978 82.7484 71.4049 81.6248 71.4881 80.4834C71.5713 79.3419 71.6367 78.2718 71.6843 77.273H78.3725V79.5024H73.9137C73.8899 79.9305 73.8602 80.3466 73.8245 80.7509C73.8007 81.1433 73.771 81.4881 73.7353 81.7853C75.4713 81.9042 76.7495 82.3144 77.5699 83.016C78.4022 83.7056 78.8183 84.6687 78.8183 85.9053C78.8183 86.476 78.7173 87.0051 78.5151 87.4926C78.313 87.9801 78.0098 88.4022 77.6055 88.7589C77.2013 89.1156 76.69 89.395 76.0717 89.5971C75.4653 89.7993 74.7519 89.9003 73.9315 89.9003C73.6105 89.9003 73.2716 89.8766 72.9149 89.829C72.5701 89.7933 72.2312 89.7398 71.8983 89.6685C71.5773 89.609 71.2859 89.5436 71.0244 89.4723C70.7628 89.401 70.5607 89.3296 70.418 89.2583L70.8995 87.0645C71.1968 87.1953 71.5891 87.3261 72.0766 87.4569C72.5641 87.5758 73.1468 87.6353 73.8245 87.6353C74.6449 87.6353 75.2394 87.4748 75.608 87.1537C75.9766 86.8208 76.1609 86.4344 76.1609 85.9944ZM89.401 83.4262C89.401 85.5069 89.0027 87.1062 88.206 88.2238C87.4213 89.3296 86.3333 89.8825 84.9422 89.8825C83.5511 89.8825 82.4572 89.3296 81.6605 88.2238C80.8758 87.1062 80.4834 85.5069 80.4834 83.4262C80.4834 82.3917 80.5845 81.4762 80.7866 80.6796C81.0006 79.8829 81.3038 79.2111 81.6962 78.6642C82.0886 78.1172 82.5582 77.7011 83.1052 77.4157C83.6521 77.1304 84.2645 76.9877 84.9422 76.9877C86.3333 76.9877 87.4213 77.5465 88.206 78.6642C89.0027 79.77 89.401 81.3573 89.401 83.4262ZM86.6901 83.4262C86.6901 82.8079 86.6603 82.2491 86.6009 81.7497C86.5414 81.2384 86.4463 80.7985 86.3155 80.4299C86.1847 80.0613 86.0064 79.7759 85.7805 79.5738C85.5545 79.3716 85.2751 79.2706 84.9422 79.2706C84.6093 79.2706 84.3299 79.3716 84.104 79.5738C83.8899 79.7759 83.7116 80.0613 83.5689 80.4299C83.4381 80.7985 83.343 81.2384 83.2835 81.7497C83.2241 82.2491 83.1944 82.8079 83.1944 83.4262C83.1944 84.0445 83.2241 84.6092 83.2835 85.1205C83.343 85.6318 83.4381 86.0717 83.5689 86.4403C83.7116 86.8089 83.8899 87.0943 84.104 87.2964C84.3299 87.4985 84.6093 87.5996 84.9422 87.5996C85.2751 87.5996 85.5545 87.4985 85.7805 87.2964C86.0064 87.0943 86.1847 86.8089 86.3155 86.4403C86.4463 86.0717 86.5414 85.6318 86.6009 85.1205C86.6603 84.6092 86.6901 84.0445 86.6901 83.4262ZM96.9517 80.4477C96.9517 81.5654 96.6663 82.4215 96.0956 83.016C95.5249 83.6105 94.758 83.9077 93.7949 83.9077C92.8318 83.9077 92.0648 83.6105 91.4941 83.016C90.9234 82.4215 90.638 81.5654 90.638 80.4477C90.638 79.33 90.9234 78.4739 91.4941 77.8794C92.0648 77.2849 92.8318 76.9877 93.7949 76.9877C94.758 76.9877 95.5249 77.2849 96.0956 77.8794C96.6663 78.4739 96.9517 79.33 96.9517 80.4477ZM94.9363 80.4477C94.9363 79.8413 94.8293 79.4014 94.6153 79.1279C94.4013 78.8544 94.1278 78.7177 93.7949 78.7177C93.45 78.7177 93.1706 78.8544 92.9566 79.1279C92.7545 79.4014 92.6534 79.8413 92.6534 80.4477C92.6534 81.0541 92.7545 81.5 92.9566 81.7853C93.1706 82.0588 93.45 82.1955 93.7949 82.1955C94.1278 82.1955 94.4013 82.0588 94.6153 81.7853C94.8293 81.5 94.9363 81.0541 94.9363 80.4477ZM100.43 77.273H102.909L95.9351 89.6328H93.456L100.43 77.273ZM105.762 86.4582C105.762 87.5758 105.477 88.4319 104.906 89.0264C104.335 89.6209 103.569 89.9182 102.605 89.9182C101.642 89.9182 100.875 89.6209 100.305 89.0264C99.734 88.4319 99.4486 87.5758 99.4486 86.4582C99.4486 85.3405 99.734 84.4844 100.305 83.8899C100.875 83.2954 101.642 82.9981 102.605 82.9981C103.569 82.9981 104.335 83.2954 104.906 83.8899C105.477 84.4844 105.762 85.3405 105.762 86.4582ZM103.747 86.4582C103.747 85.8518 103.64 85.4118 103.426 85.1384C103.212 84.8649 102.938 84.7281 102.605 84.7281C102.261 84.7281 101.981 84.8649 101.767 85.1384C101.565 85.4118 101.464 85.8518 101.464 86.4582C101.464 87.0645 101.565 87.5104 101.767 87.7958C101.981 88.0693 102.261 88.206 102.605 88.206C102.938 88.206 103.212 88.0693 103.426 87.7958C103.64 87.5104 103.747 87.0645 103.747 86.4582Z" fill="#3D0072"/>
</svg>
