<svg width="37" height="33" viewBox="0 0 37 33" fill="none" xmlns="http://www.w3.org/2000/svg">
<rect x="0.136719" width="36.8029" height="32.8026" rx="6.40051" fill="#069669"/>
<path d="M22.0417 10.8334C21.8538 10.8334 21.6736 10.7588 21.5408 10.6259C21.408 10.4931 21.3333 10.3129 21.3333 10.1251C21.3333 9.93722 21.408 9.75705 21.5408 9.62421C21.6736 9.49138 21.8538 9.41675 22.0417 9.41675H24.875C25.0629 9.41675 25.243 9.49138 25.3759 9.62421C25.5087 9.75705 25.5833 9.93722 25.5833 10.1251V12.9584C25.5833 13.1463 25.5087 13.3264 25.3759 13.4593C25.243 13.5921 25.0629 13.6667 24.875 13.6667C24.6871 13.6667 24.507 13.5921 24.3741 13.4593C24.2413 13.3264 24.1667 13.1463 24.1667 12.9584V11.835L20.0633 15.9384C19.9305 16.0712 19.7503 16.1458 19.5625 16.1458C19.3747 16.1458 19.1945 16.0712 19.0617 15.9384L17.0833 13.96L13.3341 17.7092C13.2005 17.8382 13.0216 17.9096 12.8359 17.908C12.6502 17.9064 12.4725 17.8319 12.3412 17.7006C12.2098 17.5692 12.1353 17.3916 12.1337 17.2059C12.1321 17.0201 12.2035 16.8412 12.3325 16.7076L16.5825 12.4576C16.7154 12.3248 16.8955 12.2502 17.0833 12.2502C17.2712 12.2502 17.4513 12.3248 17.5841 12.4576L19.5625 14.436L23.1651 10.8334H22.0417ZM13.5417 20.7501V22.8751C13.5417 23.0629 13.467 23.2431 13.3342 23.376C13.2014 23.5088 13.0212 23.5834 12.8333 23.5834C12.6455 23.5834 12.4653 23.5088 12.3325 23.376C12.1996 23.2431 12.125 23.0629 12.125 22.8751V20.7501C12.125 20.5622 12.1996 20.3821 12.3325 20.2492C12.4653 20.1164 12.6455 20.0417 12.8333 20.0417C13.0212 20.0417 13.2014 20.1164 13.3342 20.2492C13.467 20.3821 13.5417 20.5622 13.5417 20.7501ZM17.0833 17.9167C17.0833 17.7289 17.0087 17.5487 16.8759 17.4159C16.743 17.283 16.5629 17.2084 16.375 17.2084C16.1871 17.2084 16.007 17.283 15.8741 17.4159C15.7413 17.5487 15.6667 17.7289 15.6667 17.9167V22.8751C15.6667 23.0629 15.7413 23.2431 15.8741 23.376C16.007 23.5088 16.1871 23.5834 16.375 23.5834C16.5629 23.5834 16.743 23.5088 16.8759 23.376C17.0087 23.2431 17.0833 23.0629 17.0833 22.8751V17.9167ZM19.9167 18.6251C20.1045 18.6251 20.2847 18.6997 20.4175 18.8325C20.5504 18.9654 20.625 19.1456 20.625 19.3334V22.8751C20.625 23.0629 20.5504 23.2431 20.4175 23.376C20.2847 23.5088 20.1045 23.5834 19.9167 23.5834C19.7288 23.5834 19.5486 23.5088 19.4158 23.376C19.283 23.2431 19.2083 23.0629 19.2083 22.8751V19.3334C19.2083 19.1456 19.283 18.9654 19.4158 18.8325C19.5486 18.6997 19.7288 18.6251 19.9167 18.6251ZM24.1667 15.7917C24.1667 15.6039 24.092 15.4237 23.9592 15.2909C23.8264 15.158 23.6462 15.0834 23.4583 15.0834C23.2705 15.0834 23.0903 15.158 22.9575 15.2909C22.8246 15.4237 22.75 15.6039 22.75 15.7917V22.8751C22.75 23.0629 22.8246 23.2431 22.9575 23.376C23.0903 23.5088 23.2705 23.5834 23.4583 23.5834C23.6462 23.5834 23.8264 23.5088 23.9592 23.376C24.092 23.2431 24.1667 23.0629 24.1667 22.8751V15.7917Z" fill="white"/>
</svg>
