<svg width="249" height="249" viewBox="0 0 249 249" fill="none" xmlns="http://www.w3.org/2000/svg">
<circle cx="124.5" cy="124.5" r="124.5" fill="#F3F4F6"/>
<path d="M117.521 137.063L137.063 124.5L117.521 111.938V137.063ZM124.501 152.417C120.639 152.417 117.01 151.684 113.613 150.217C110.217 148.752 107.262 146.764 104.75 144.251C102.237 141.739 100.249 138.784 98.7838 135.388C97.3173 131.991 96.584 128.362 96.584 124.5C96.584 120.638 97.3173 117.009 98.7838 113.613C100.249 110.216 102.237 107.262 104.75 104.749C107.262 102.237 110.217 100.247 113.613 98.7805C117.01 97.3158 120.639 96.5835 124.501 96.5835C128.362 96.5835 131.992 97.3158 135.388 98.7805C138.785 100.247 141.739 102.237 144.252 104.749C146.764 107.262 148.753 110.216 150.217 113.613C151.684 117.009 152.417 120.638 152.417 124.5C152.417 128.362 151.684 131.991 150.217 135.388C148.753 138.784 146.764 141.739 144.252 144.251C141.739 146.764 138.785 148.752 135.388 150.217C131.992 151.684 128.362 152.417 124.501 152.417Z" fill="#E8356D"/>
</svg>
