<svg width="714" height="51" viewBox="0 0 714 51" fill="none" xmlns="http://www.w3.org/2000/svg">
<rect width="691" height="8" rx="4" transform="matrix(1 0 0 -1 0 26)" fill="#F8F0FF"/>
<rect width="691" height="8" rx="4" transform="matrix(1 0 0 -1 0 26)" fill="#8807F7"/>
<g filter="url(#filter0_d_1705_17488)">
<circle r="15" transform="matrix(0 1 1 0 689 22)" fill="white"/>
<circle r="14.5" transform="matrix(0 1 1 0 689 22)" stroke="#8807F7"/>
</g>
<g clip-path="url(#clip0_1705_17488)">
<path d="M687.483 16.7768C687.218 16.9044 686.988 17.0931 686.81 17.3275C686.677 17.4993 686.574 17.693 686.507 17.8994L686.203 18.8283C686.183 18.8912 686.145 18.9473 686.095 18.9905C686.045 19.0337 685.984 19.0625 685.919 19.0736C685.844 19.087 685.766 19.0764 685.697 19.0435C685.629 19.0107 685.572 18.957 685.535 18.8903L685.538 18.8866C685.527 18.8672 685.518 18.8469 685.511 18.8259L685.208 17.8976C685.114 17.6151 684.956 17.3585 684.745 17.1481C684.534 16.9377 684.278 16.7794 683.995 16.6857L683.066 16.384C682.995 16.3586 682.933 16.3116 682.889 16.2497C682.845 16.1877 682.822 16.1137 682.822 16.0379C682.822 15.9621 682.845 15.8881 682.889 15.8261C682.933 15.7642 682.995 15.7172 683.066 15.6918L683.084 15.687L684.014 15.3852C684.296 15.2914 684.553 15.133 684.764 14.9227C684.974 14.7123 685.133 14.4557 685.227 14.1734L685.529 13.2444C685.554 13.1727 685.601 13.1106 685.663 13.0666C685.725 13.0226 685.799 12.999 685.875 12.999C685.951 12.999 686.025 13.0226 686.087 13.0666C686.149 13.1106 686.196 13.1727 686.221 13.2444L686.523 14.1734L686.531 14.1964C686.596 14.3865 686.691 14.5652 686.812 14.7259L686.815 14.7247C687.044 15.0285 687.359 15.257 687.719 15.381L688.648 15.6845C688.716 15.7066 688.775 15.7477 688.819 15.803C688.863 15.8582 688.891 15.9252 688.897 15.9956C688.904 16.0661 688.89 16.137 688.858 16.1997C688.825 16.2624 688.774 16.3142 688.713 16.3488C688.692 16.3609 688.67 16.3712 688.648 16.3791L687.718 16.6809C687.637 16.7076 687.559 16.7398 687.483 16.7768ZM684.621 19.5818C684.609 19.5556 684.591 19.5322 684.57 19.5129C684.548 19.4936 684.523 19.4788 684.495 19.4695L683.937 19.2879C683.77 19.2302 683.618 19.1346 683.494 19.0085C683.37 18.8824 683.276 18.7293 683.221 18.5612L683.039 18.0038C683.024 17.961 682.996 17.9239 682.959 17.8976C682.922 17.8714 682.877 17.8573 682.832 17.8573C682.786 17.8573 682.742 17.8714 682.705 17.8976C682.668 17.9239 682.639 17.961 682.624 18.0038L682.443 18.5612C682.387 18.7306 682.292 18.8845 682.165 19.0107C682.039 19.1369 681.885 19.2318 681.715 19.2879L681.158 19.4695L681.146 19.4719C681.103 19.4869 681.066 19.5149 681.039 19.5521C681.013 19.5893 680.999 19.6339 680.999 19.6795C680.999 19.7252 681.013 19.7698 681.039 19.807C681.066 19.8442 681.103 19.8722 681.146 19.8872L681.704 20.0687C681.938 20.1463 682.14 20.2968 682.282 20.498V20.501C682.345 20.5921 682.396 20.6917 682.431 20.7979L682.613 21.3553C682.628 21.3981 682.657 21.4352 682.694 21.4615C682.731 21.4877 682.775 21.5018 682.821 21.5018C682.866 21.5018 682.911 21.4877 682.948 21.4615C682.985 21.4352 683.013 21.3981 683.029 21.3553L683.211 20.7979C683.267 20.628 683.362 20.4736 683.488 20.3471C683.615 20.2206 683.769 20.1254 683.939 20.0693L684.497 19.8872C684.527 19.8768 684.553 19.8604 684.576 19.8389C684.598 19.8175 684.616 19.7915 684.628 19.7627C684.639 19.7339 684.645 19.7029 684.644 19.6718C684.643 19.6407 684.635 19.6103 684.621 19.5824V19.5818ZM689.499 28.7855C685.594 28.7855 682.407 25.7133 682.222 21.8531C682.321 21.9562 682.444 22.032 682.581 22.0732C682.717 22.1144 682.862 22.1195 683.002 22.0882C683.141 22.0568 683.269 21.99 683.375 21.8943C683.481 21.7985 683.56 21.677 683.605 21.5417L683.787 20.9867C683.813 20.9076 683.858 20.8355 683.916 20.7762C683.975 20.7168 684.047 20.6717 684.126 20.6443L684.698 20.4585C684.859 20.4014 684.999 20.2957 685.098 20.156C685.196 20.0163 685.249 19.8494 685.249 19.6783C685.248 19.5956 685.235 19.5136 685.209 19.4349C685.33 19.5413 685.475 19.6162 685.632 19.6527C685.788 19.6892 685.952 19.6863 686.107 19.6441C686.262 19.602 686.404 19.522 686.521 19.4113C686.638 19.3006 686.725 19.1627 686.775 19.0099L687.079 18.0834C687.142 17.8902 687.25 17.7147 687.394 17.5715C687.537 17.4283 687.71 17.32 687.902 17.2552L688.846 16.9517C688.989 16.902 689.118 16.8199 689.223 16.7118C689.328 16.6036 689.406 16.4725 689.452 16.3288C689.498 16.185 689.51 16.0326 689.486 15.8836C689.463 15.7345 689.405 15.593 689.317 15.4702C689.197 15.302 689.027 15.1758 688.832 15.1096L687.913 14.8115C687.731 14.7483 687.565 14.6463 687.427 14.5128C688.1 14.314 688.798 14.2134 689.499 14.214C693.523 14.214 696.785 17.4762 696.785 21.4998C696.785 25.5233 693.523 28.7855 689.499 28.7855ZM687.374 20.8926C687.616 20.8926 687.848 20.7967 688.018 20.6259C688.189 20.4551 688.285 20.2234 688.285 19.9819C688.285 19.7404 688.189 19.5087 688.018 19.3379C687.848 19.1671 687.616 19.0712 687.374 19.0712C687.133 19.0712 686.901 19.1671 686.73 19.3379C686.56 19.5087 686.464 19.7404 686.464 19.9819C686.464 20.2234 686.56 20.4551 686.73 20.6259C686.901 20.7967 687.133 20.8926 687.374 20.8926ZM690.714 19.9819C690.714 20.2234 690.81 20.4551 690.98 20.6259C691.151 20.7967 691.383 20.8926 691.624 20.8926C691.866 20.8926 692.098 20.7967 692.268 20.6259C692.439 20.4551 692.535 20.2234 692.535 19.9819C692.535 19.7404 692.439 19.5087 692.268 19.3379C692.098 19.1671 691.866 19.0712 691.624 19.0712C691.383 19.0712 691.151 19.1671 690.98 19.3379C690.81 19.5087 690.714 19.7404 690.714 19.9819ZM692.943 23.4001C692.844 23.3324 692.721 23.3068 692.603 23.329C692.485 23.3512 692.38 23.4193 692.312 23.5185L692.306 23.5258L692.28 23.5616C692.254 23.5944 692.213 23.6442 692.156 23.7061C692.043 23.8294 691.87 23.9975 691.635 24.1657C691.169 24.5015 690.464 24.839 689.499 24.839C688.535 24.839 687.83 24.5015 687.364 24.1657C687.129 23.9975 686.956 23.8294 686.843 23.7061C686.79 23.6484 686.739 23.5883 686.692 23.5258L686.688 23.5197C686.62 23.4199 686.515 23.3512 686.396 23.3287C686.277 23.3062 686.155 23.3318 686.055 23.3998C685.955 23.4678 685.886 23.5727 685.864 23.6915C685.841 23.8102 685.867 23.9329 685.935 24.0328L685.936 24.0334V24.0346L685.938 24.0364L685.942 24.0425L685.948 24.0498L685.956 24.0619C686.023 24.1521 686.095 24.2388 686.171 24.3218C686.371 24.538 686.592 24.7333 686.832 24.9046C687.421 25.329 688.308 25.7498 689.499 25.7498C690.691 25.7498 691.578 25.3284 692.167 24.9052C692.407 24.7335 692.628 24.5378 692.828 24.3211C692.909 24.2326 692.985 24.1398 693.056 24.0431L693.061 24.037L693.062 24.0346L693.063 24.0334L693.063 24.0328C693.131 23.9329 693.157 23.8102 693.134 23.6915C693.112 23.5729 693.043 23.4681 692.943 23.4001Z" fill="#8807F7"/>
</g>
<g filter="url(#filter1_d_1705_17488)">
<circle r="15" transform="matrix(0 1 1 0 155 22)" fill="white"/>
</g>
<g clip-path="url(#clip1_1705_17488)">
<path d="M154.5 30.5C152.246 30.5 150.084 29.6045 148.49 28.0104C146.896 26.4163 146 24.2543 146 22C146 19.7457 146.896 17.5837 148.49 15.9896C150.084 14.3955 152.246 13.5 154.5 13.5C156.754 13.5 158.916 14.3955 160.51 15.9896C162.104 17.5837 163 19.7457 163 22C163 24.2543 162.104 26.4163 160.51 28.0104C158.916 29.6045 156.754 30.5 154.5 30.5ZM155.562 20.4062C155.562 21.286 156.038 22 156.625 22C157.212 22 157.688 21.286 157.688 20.4062C157.688 19.5265 157.212 18.8125 156.625 18.8125C156.038 18.8125 155.562 19.5265 155.562 20.4062ZM158.447 26.7101C158.569 26.6396 158.658 26.5236 158.695 26.3875C158.731 26.2514 158.712 26.1064 158.642 25.9844C158.222 25.2572 157.618 24.6535 156.891 24.2338C156.164 23.8141 155.339 23.5934 154.5 23.5938C153.661 23.5936 152.836 23.8144 152.109 24.2341C151.382 24.6537 150.778 25.2574 150.358 25.9844C150.289 26.1063 150.271 26.2508 150.308 26.3861C150.344 26.5215 150.433 26.6369 150.555 26.707C150.676 26.7772 150.82 26.7964 150.956 26.7606C151.092 26.7247 151.208 26.6366 151.279 26.5156C151.605 25.95 152.074 25.4804 152.64 25.1539C153.205 24.8275 153.847 24.6559 154.5 24.6562C155.153 24.6559 155.795 24.8275 156.36 25.1539C156.926 25.4804 157.395 25.95 157.721 26.5156C157.792 26.6376 157.908 26.7267 158.044 26.7631C158.18 26.7996 158.325 26.7805 158.447 26.7101ZM152.375 22C152.962 22 153.438 21.286 153.438 20.4062C153.438 19.5265 152.962 18.8125 152.375 18.8125C151.788 18.8125 151.312 19.5265 151.312 20.4062C151.312 21.286 151.788 22 152.375 22Z" fill="#8707F5"/>
</g>
<g filter="url(#filter2_d_1705_17488)">
<circle r="15" transform="matrix(0 1 1 0 511 21)" fill="white"/>
</g>
<path d="M510.499 13.001C505.804 13.001 501.998 16.8069 501.998 21.5018C501.998 26.1959 505.804 30.001 510.499 30.001C515.194 30.0018 519 26.1959 519 21.5018C519 16.8069 515.194 13.001 510.499 13.001ZM513.506 23.8671C513.612 23.7386 513.764 23.6567 513.93 23.6389C514.095 23.6212 514.262 23.6689 514.392 23.772C514.523 23.8751 514.609 24.0253 514.63 24.1905C514.652 24.3557 514.607 24.5227 514.507 24.6559C514.03 25.2629 513.422 25.7535 512.727 26.0907C512.033 26.4279 511.271 26.6028 510.499 26.6022C508.918 26.6022 507.456 25.8772 506.494 24.661C506.442 24.5953 506.404 24.52 506.381 24.4395C506.358 24.3589 506.352 24.2747 506.361 24.1915C506.371 24.1084 506.397 24.028 506.438 23.9549C506.479 23.8818 506.534 23.8175 506.599 23.7656C506.665 23.7137 506.74 23.6752 506.821 23.6524C506.901 23.6296 506.986 23.6229 507.069 23.6326C507.152 23.6424 507.232 23.6684 507.305 23.7092C507.378 23.75 507.443 23.8049 507.495 23.8705C507.852 24.3251 508.309 24.6925 508.829 24.9449C509.35 25.1972 509.921 25.328 510.499 25.3273C511.687 25.3273 512.785 24.7833 513.506 23.8671ZM513.049 18.7396C513.191 18.7356 513.332 18.7601 513.465 18.8116C513.597 18.8632 513.718 18.9408 513.819 19.0398C513.921 19.1388 514.002 19.2572 514.058 19.3881C514.113 19.5189 514.141 19.6595 514.141 19.8016C514.141 19.9436 514.113 20.0842 514.058 20.2151C514.002 20.3459 513.921 20.4643 513.819 20.5633C513.718 20.6624 513.597 20.7399 513.465 20.7915C513.332 20.8431 513.191 20.8676 513.049 20.8635C512.772 20.8557 512.51 20.7404 512.317 20.5421C512.124 20.3438 512.017 20.0781 512.017 19.8016C512.017 19.525 512.124 19.2593 512.317 19.061C512.51 18.8627 512.772 18.7474 513.049 18.7396ZM507.949 18.7396C508.091 18.7356 508.233 18.7601 508.365 18.8116C508.497 18.8632 508.618 18.9408 508.72 19.0398C508.822 19.1388 508.903 19.2572 508.958 19.3881C509.013 19.5189 509.042 19.6595 509.042 19.8016C509.042 19.9436 509.013 20.0842 508.958 20.2151C508.903 20.3459 508.822 20.4643 508.72 20.5633C508.618 20.6624 508.497 20.7399 508.365 20.7915C508.233 20.8431 508.091 20.8676 507.949 20.8635C507.673 20.8557 507.41 20.7404 507.218 20.5421C507.025 20.3438 506.917 20.0781 506.917 19.8016C506.917 19.525 507.025 19.2593 507.218 19.061C507.41 18.8627 507.673 18.7474 507.949 18.7396Z" fill="#8907F5"/>
<g filter="url(#filter3_d_1705_17488)">
<circle r="15" transform="matrix(0 1 1 0 333 22)" fill="white"/>
</g>
<g clip-path="url(#clip2_1705_17488)">
<path d="M332.5 31C330.246 31 328.084 30.1045 326.49 28.5104C324.896 26.9163 324 24.7543 324 22.5C324 20.2457 324.896 18.0837 326.49 16.4896C328.084 14.8955 330.246 14 332.5 14C334.754 14 336.916 14.8955 338.51 16.4896C340.104 18.0837 341 20.2457 341 22.5C341 24.7543 340.104 26.9163 338.51 28.5104C336.916 30.1045 334.754 31 332.5 31ZM336.219 20.375H334.094C333.953 20.375 333.818 20.431 333.718 20.5306C333.618 20.6302 333.562 20.7654 333.562 20.9062C333.562 21.0471 333.618 21.1823 333.718 21.2819C333.818 21.3815 333.953 21.4375 334.094 21.4375H336.219C336.36 21.4375 336.495 21.3815 336.594 21.2819C336.694 21.1823 336.75 21.0471 336.75 20.9062C336.75 20.7654 336.694 20.6302 336.594 20.5306C336.495 20.431 336.36 20.375 336.219 20.375ZM330.906 20.375H328.781C328.64 20.375 328.505 20.431 328.406 20.5306C328.306 20.6302 328.25 20.7654 328.25 20.9062C328.25 21.0471 328.306 21.1823 328.406 21.2819C328.505 21.3815 328.64 21.4375 328.781 21.4375H330.906C331.047 21.4375 331.182 21.3815 331.282 21.2819C331.382 21.1823 331.438 21.0471 331.438 20.9062C331.438 20.7654 331.382 20.6302 331.282 20.5306C331.182 20.431 331.047 20.375 330.906 20.375ZM336.219 24.625H328.781C328.64 24.625 328.505 24.681 328.406 24.7806C328.306 24.8802 328.25 25.0154 328.25 25.1562C328.25 25.2971 328.306 25.4323 328.406 25.5319C328.505 25.6315 328.64 25.6875 328.781 25.6875H336.219C336.36 25.6875 336.495 25.6315 336.594 25.5319C336.694 25.4323 336.75 25.2971 336.75 25.1562C336.75 25.0154 336.694 24.8802 336.594 24.7806C336.495 24.681 336.36 24.625 336.219 24.625Z" fill="#8707F5"/>
</g>
<defs>
<filter id="filter0_d_1705_17488" x="664" y="1" width="50" height="50" filterUnits="userSpaceOnUse" color-interpolation-filters="sRGB">
<feFlood flood-opacity="0" result="BackgroundImageFix"/>
<feColorMatrix in="SourceAlpha" type="matrix" values="0 0 0 0 0 0 0 0 0 0 0 0 0 0 0 0 0 0 127 0" result="hardAlpha"/>
<feOffset dy="4"/>
<feGaussianBlur stdDeviation="5"/>
<feComposite in2="hardAlpha" operator="out"/>
<feColorMatrix type="matrix" values="0 0 0 0 0.533333 0 0 0 0 0.027451 0 0 0 0 0.968627 0 0 0 0.07 0"/>
<feBlend mode="normal" in2="BackgroundImageFix" result="effect1_dropShadow_1705_17488"/>
<feBlend mode="normal" in="SourceGraphic" in2="effect1_dropShadow_1705_17488" result="shape"/>
</filter>
<filter id="filter1_d_1705_17488" x="130" y="1" width="50" height="50" filterUnits="userSpaceOnUse" color-interpolation-filters="sRGB">
<feFlood flood-opacity="0" result="BackgroundImageFix"/>
<feColorMatrix in="SourceAlpha" type="matrix" values="0 0 0 0 0 0 0 0 0 0 0 0 0 0 0 0 0 0 127 0" result="hardAlpha"/>
<feOffset dy="4"/>
<feGaussianBlur stdDeviation="5"/>
<feComposite in2="hardAlpha" operator="out"/>
<feColorMatrix type="matrix" values="0 0 0 0 0.533333 0 0 0 0 0.027451 0 0 0 0 0.968627 0 0 0 0.07 0"/>
<feBlend mode="normal" in2="BackgroundImageFix" result="effect1_dropShadow_1705_17488"/>
<feBlend mode="normal" in="SourceGraphic" in2="effect1_dropShadow_1705_17488" result="shape"/>
</filter>
<filter id="filter2_d_1705_17488" x="486" y="0" width="50" height="50" filterUnits="userSpaceOnUse" color-interpolation-filters="sRGB">
<feFlood flood-opacity="0" result="BackgroundImageFix"/>
<feColorMatrix in="SourceAlpha" type="matrix" values="0 0 0 0 0 0 0 0 0 0 0 0 0 0 0 0 0 0 127 0" result="hardAlpha"/>
<feOffset dy="4"/>
<feGaussianBlur stdDeviation="5"/>
<feComposite in2="hardAlpha" operator="out"/>
<feColorMatrix type="matrix" values="0 0 0 0 0.533333 0 0 0 0 0.027451 0 0 0 0 0.968627 0 0 0 0.07 0"/>
<feBlend mode="normal" in2="BackgroundImageFix" result="effect1_dropShadow_1705_17488"/>
<feBlend mode="normal" in="SourceGraphic" in2="effect1_dropShadow_1705_17488" result="shape"/>
</filter>
<filter id="filter3_d_1705_17488" x="308" y="1" width="50" height="50" filterUnits="userSpaceOnUse" color-interpolation-filters="sRGB">
<feFlood flood-opacity="0" result="BackgroundImageFix"/>
<feColorMatrix in="SourceAlpha" type="matrix" values="0 0 0 0 0 0 0 0 0 0 0 0 0 0 0 0 0 0 127 0" result="hardAlpha"/>
<feOffset dy="4"/>
<feGaussianBlur stdDeviation="5"/>
<feComposite in2="hardAlpha" operator="out"/>
<feColorMatrix type="matrix" values="0 0 0 0 0.533333 0 0 0 0 0.027451 0 0 0 0 0.968627 0 0 0 0.07 0"/>
<feBlend mode="normal" in2="BackgroundImageFix" result="effect1_dropShadow_1705_17488"/>
<feBlend mode="normal" in="SourceGraphic" in2="effect1_dropShadow_1705_17488" result="shape"/>
</filter>
<clipPath id="clip0_1705_17488">
<rect width="17" height="17" fill="white" transform="matrix(-1 0 0 1 698 13)"/>
</clipPath>
<clipPath id="clip1_1705_17488">
<rect width="17" height="17" fill="white" transform="matrix(-1 0 0 1 163 13.5)"/>
</clipPath>
<clipPath id="clip2_1705_17488">
<rect width="17" height="17" fill="white" transform="matrix(-1 0 0 1 341 14)"/>
</clipPath>
</defs>
</svg>
