<svg width="349" height="186" viewBox="0 0 349 186" fill="none" xmlns="http://www.w3.org/2000/svg">
<g clip-path="url(#clip0_5319_99934)">
<rect width="349" height="186" rx="10" fill="#FEF5F0"/>
<g opacity="0.2">
<path fill-rule="evenodd" clip-rule="evenodd" d="M187.454 62.1868C191.018 62.1868 193.907 59.2973 193.907 55.733C193.907 52.1687 191.018 49.2793 187.454 49.2793C183.889 49.2793 181 52.1687 181 55.733C181 59.2973 183.889 62.1868 187.454 62.1868ZM187.347 59.2243C189.216 59.2243 190.732 57.7085 190.732 55.8387C190.732 53.9689 189.216 52.4531 187.347 52.4531C185.477 52.4531 183.961 53.9689 183.961 55.8387C183.961 57.7085 185.477 59.2243 187.347 59.2243Z" fill="#EA580C"/>
<path fill-rule="evenodd" clip-rule="evenodd" d="M193.213 48.5816C194.754 48.5816 196.003 47.3321 196.003 45.7908C196.003 44.2495 194.754 43 193.213 43C191.671 43 190.422 44.2495 190.422 45.7908C190.422 47.3321 191.671 48.5816 193.213 48.5816ZM193.167 47.3006C193.976 47.3006 194.631 46.6452 194.631 45.8366C194.631 45.028 193.976 44.3726 193.167 44.3726C192.359 44.3726 191.703 45.028 191.703 45.8366C191.703 46.6452 192.359 47.3006 193.167 47.3006Z" fill="#EA580C"/>
</g>
<g opacity="0.2">
<path fill-rule="evenodd" clip-rule="evenodd" d="M316.454 112.187C320.018 112.187 322.907 109.297 322.907 105.733C322.907 102.169 320.018 99.2793 316.454 99.2793C312.889 99.2793 310 102.169 310 105.733C310 109.297 312.889 112.187 316.454 112.187ZM316.347 109.224C318.216 109.224 319.732 107.708 319.732 105.839C319.732 103.969 318.216 102.453 316.347 102.453C314.477 102.453 312.961 103.969 312.961 105.839C312.961 107.708 314.477 109.224 316.347 109.224Z" fill="#EA580C"/>
<path fill-rule="evenodd" clip-rule="evenodd" d="M322.213 98.5816C323.754 98.5816 325.003 97.3321 325.003 95.7908C325.003 94.2495 323.754 93 322.213 93C320.671 93 319.422 94.2495 319.422 95.7908C319.422 97.3321 320.671 98.5816 322.213 98.5816ZM322.167 97.3006C322.976 97.3006 323.631 96.6452 323.631 95.8366C323.631 95.028 322.976 94.3726 322.167 94.3726C321.359 94.3726 320.703 95.028 320.703 95.8366C320.703 96.6452 321.359 97.3006 322.167 97.3006Z" fill="#EA580C"/>
</g>
<path d="M109.43 75.8365C94.1623 64.1987 75.1757 58.5258 56.0261 59.8803C36.8765 61.2347 18.8774 69.5236 5.39976 83.1946C-8.07786 96.8656 -16.1095 114.981 -17.1911 134.148C-18.2726 153.315 -12.3298 172.219 -0.475649 187.319C11.3785 202.42 28.3309 212.681 47.2066 216.181C66.0822 219.681 85.5865 216.18 102.067 206.333C118.547 196.487 130.872 180.971 136.734 162.69C142.596 144.41 141.594 124.619 133.914 107.025L98.9098 122.304C102.873 131.383 103.39 141.595 100.365 151.027C97.3403 160.46 90.9806 168.466 82.4771 173.547C73.9736 178.627 63.9096 180.434 54.17 178.628C44.4304 176.822 35.6831 171.527 29.5665 163.735C23.4499 155.944 20.3835 146.19 20.9416 136.3C21.4996 126.41 25.6439 117.062 32.5982 110.008C39.5525 102.954 48.8398 98.6773 58.7208 97.9784C68.6018 97.2795 78.3986 100.207 86.2766 106.212L109.43 75.8365Z" fill="#FEEFE7"/>
</g>
<defs>
<clipPath id="clip0_5319_99934">
<rect width="349" height="186" fill="white"/>
</clipPath>
</defs>
</svg>
