<svg width="197" height="197" viewBox="0 0 197 197" fill="none" xmlns="http://www.w3.org/2000/svg">
<circle cx="98.5" cy="98.5" r="98.5" fill="#E7CDFE"/>
<g clip-path="url(#clip0_3008_64065)">
<path d="M67.375 65.3125C67.375 61.2514 68.9883 57.3566 71.8599 54.4849C74.7316 51.6133 78.6264 50 82.6875 50C86.7486 50 90.6434 51.6133 93.5151 54.4849C96.3867 57.3566 98 61.2514 98 65.3125C98 61.2514 99.6133 57.3566 102.485 54.4849C105.357 51.6133 109.251 50 113.312 50C117.374 50 121.268 51.6133 124.14 54.4849C127.012 57.3566 128.625 61.2514 128.625 65.3125V65.3492C128.625 65.778 128.625 67.003 128.392 68.375H140.875C142.499 68.375 144.057 69.0203 145.206 70.169C146.355 71.3176 147 72.8755 147 74.5V80.625C147 82.2495 146.355 83.8074 145.206 84.956C144.057 86.1047 142.499 86.75 140.875 86.75H55.125C53.5005 86.75 51.9426 86.1047 50.794 84.956C49.6453 83.8074 49 82.2495 49 80.625V74.5C49 72.8755 49.6453 71.3176 50.794 70.169C51.9426 69.0203 53.5005 68.375 55.125 68.375H67.6077C67.446 67.3747 67.3681 66.3626 67.375 65.3492V65.3125ZM73.9165 68.375H91.875V65.3125C91.875 64.106 91.6374 62.9113 91.1756 61.7966C90.7139 60.6819 90.0372 59.6691 89.184 58.816C88.3309 57.9628 87.3181 57.2861 86.2034 56.8244C85.0887 56.3626 83.894 56.125 82.6875 56.125C81.481 56.125 80.2863 56.3626 79.1716 56.8244C78.0569 57.2861 77.0441 57.9628 76.191 58.816C75.3378 59.6691 74.6611 60.6819 74.1994 61.7966C73.7376 62.9113 73.5 64.106 73.5 65.3125C73.5 65.8331 73.5123 66.9908 73.7756 67.9463C73.8124 68.0923 73.8595 68.2356 73.9165 68.375ZM104.125 68.375H122.084C122.14 68.2353 122.187 68.0921 122.224 67.9463C122.488 66.9908 122.5 65.8331 122.5 65.3125C122.5 62.8758 121.532 60.5389 119.809 58.816C118.086 57.093 115.749 56.125 113.312 56.125C110.876 56.125 108.539 57.093 106.816 58.816C105.093 60.5389 104.125 62.8758 104.125 65.3125V68.375ZM140.875 92.875V138.812C140.875 141.249 139.907 143.586 138.184 145.309C136.461 147.032 134.124 148 131.688 148H104.125V92.875H140.875ZM64.3125 148C61.8758 148 59.5389 147.032 57.816 145.309C56.093 143.586 55.125 141.249 55.125 138.812V92.875H91.875V148H64.3125Z" fill="#8807F7"/>
</g>
<defs>
<clipPath id="clip0_3008_64065">
<rect width="98" height="98" fill="white" transform="translate(49 50)"/>
</clipPath>
</defs>
</svg>
