<svg width="287" height="285" viewBox="0 0 287 285" fill="none" xmlns="http://www.w3.org/2000/svg">
<path d="M97.4404 33.3846C157.943 15.1758 221.752 49.4619 239.961 109.965C258.169 170.468 223.883 234.276 163.38 252.485C102.877 270.694 39.0689 236.408 20.8601 175.905C2.65128 115.402 36.9374 51.5934 97.4404 33.3846ZM157.933 234.386C208.44 219.186 237.062 165.919 221.862 115.412C206.661 64.9048 153.395 36.2831 102.887 51.4836C52.3803 66.6841 23.7586 119.951 38.9591 170.458C54.1596 220.965 107.426 249.587 157.933 234.386Z" fill="#F0F2F4"/>
<path d="M215.937 233.421C218.147 236.521 222.465 237.257 225.434 234.875C243.942 220.034 257.757 200.076 265.109 177.416C273.172 152.566 273.036 125.783 264.72 101.017C256.404 76.2501 240.35 54.8116 218.924 39.8628C199.387 26.2316 176.326 18.6547 152.613 17.9895C148.808 17.8828 145.809 21.0755 145.917 24.8804L147.183 69.2679C147.291 73.0728 150.472 76.0304 154.266 76.3336C165.492 77.2306 176.325 81.0942 185.628 87.5852C196.823 95.396 205.212 106.598 209.557 119.538C213.902 132.479 213.973 146.473 209.76 159.457C206.259 170.248 199.953 179.865 191.543 187.356C188.7 189.887 187.949 194.165 190.159 197.264L215.937 233.421Z" fill="#FBBF24"/>
<path d="M24.0887 181.562C20.4689 182.74 18.4718 186.636 19.8355 190.19C26.4306 207.377 36.5414 223.028 49.5476 236.127C64.1749 250.859 82.0559 261.951 101.752 268.512C121.448 275.073 142.409 276.919 162.949 273.902C181.212 271.219 198.688 264.758 214.273 254.959C217.495 252.933 218.234 248.617 216.043 245.504L187.525 204.983C185.334 201.87 181.049 201.156 177.734 203.027C170.328 207.207 162.197 209.998 153.744 211.24C143.012 212.816 132.059 211.852 121.768 208.423C111.477 204.995 102.134 199.199 94.4912 191.502C88.4712 185.439 83.6384 178.33 80.218 170.543C78.6872 167.058 74.8299 165.06 71.2101 166.237L24.0887 181.562Z" fill="#E8356D"/>
<path d="M122.138 18.7806C121.486 15.0305 117.912 12.5008 114.201 13.3465C99.4932 16.6981 85.4479 22.5382 72.6774 30.6302C57.964 39.9534 45.2311 52.0832 35.2055 66.3272C25.1799 80.5712 18.0581 96.6505 14.2466 113.647C10.9384 128.399 10.1803 143.591 11.9882 158.567C12.4444 162.346 16.0317 164.857 19.7818 164.205L68.6008 155.719C72.3509 155.067 74.8263 151.498 74.5501 147.701C74.0583 140.945 74.559 134.14 76.0468 127.506C78.0383 118.625 81.7595 110.224 86.9979 102.781C92.2363 95.3385 98.8893 89.0006 106.577 84.1292C112.32 80.49 118.557 77.7225 125.083 75.9055C128.75 74.8846 131.275 71.3498 130.623 67.5996L122.138 18.7806Z" fill="#22C55E"/>
<path d="M230.26 110.32C230.26 109.876 230.16 109.486 229.961 109.149C229.762 108.798 229.418 108.507 228.929 108.278C228.439 108.048 227.782 107.872 226.956 107.75C226.13 107.628 225.09 107.566 223.835 107.566C224.004 106.144 224.141 104.698 224.248 103.23C224.356 101.762 224.44 100.385 224.501 99.1003H233.105V101.968H227.369C227.338 102.519 227.3 103.054 227.254 103.574C227.223 104.079 227.185 104.523 227.139 104.905C229.372 105.058 231.017 105.586 232.072 106.488C233.143 107.375 233.678 108.614 233.678 110.205C233.678 110.939 233.548 111.62 233.288 112.247C233.028 112.874 232.638 113.417 232.118 113.876C231.598 114.335 230.94 114.694 230.145 114.954C229.365 115.214 228.447 115.344 227.392 115.344C226.979 115.344 226.543 115.314 226.084 115.252C225.64 115.206 225.204 115.138 224.776 115.046C224.363 114.969 223.988 114.885 223.652 114.794C223.315 114.702 223.055 114.61 222.872 114.518L223.491 111.696C223.874 111.864 224.378 112.033 225.006 112.201C225.633 112.354 226.382 112.43 227.254 112.43C228.309 112.43 229.074 112.224 229.548 111.811C230.023 111.383 230.26 110.885 230.26 110.32ZM247.292 107.016C247.292 109.692 246.779 111.75 245.755 113.187C244.745 114.61 243.346 115.321 241.556 115.321C239.766 115.321 238.359 114.61 237.334 113.187C236.325 111.75 235.82 109.692 235.82 107.016C235.82 105.685 235.95 104.507 236.21 103.482C236.485 102.458 236.876 101.593 237.38 100.89C237.885 100.186 238.489 99.6509 239.193 99.2838C239.896 98.9167 240.684 98.7332 241.556 98.7332C243.346 98.7332 244.745 99.4521 245.755 100.89C246.779 102.312 247.292 104.354 247.292 107.016ZM243.804 107.016C243.804 106.22 243.766 105.501 243.69 104.859C243.613 104.201 243.491 103.635 243.323 103.161C243.154 102.687 242.925 102.32 242.634 102.06C242.344 101.8 241.984 101.67 241.556 101.67C241.128 101.67 240.768 101.8 240.478 102.06C240.202 102.32 239.973 102.687 239.789 103.161C239.621 103.635 239.499 104.201 239.422 104.859C239.346 105.501 239.308 106.22 239.308 107.016C239.308 107.811 239.346 108.538 239.422 109.195C239.499 109.853 239.621 110.419 239.789 110.893C239.973 111.367 240.202 111.734 240.478 111.994C240.768 112.254 241.128 112.384 241.556 112.384C241.984 112.384 242.344 112.254 242.634 111.994C242.925 111.734 243.154 111.367 243.323 110.893C243.491 110.419 243.613 109.853 243.69 109.195C243.766 108.538 243.804 107.811 243.804 107.016ZM252.962 108.537C252.962 109.324 252.761 109.926 252.359 110.344C251.958 110.763 251.418 110.972 250.741 110.972C250.063 110.972 249.523 110.763 249.122 110.344C248.72 109.926 248.519 109.324 248.519 108.537C248.519 107.751 248.72 107.148 249.122 106.73C249.523 106.312 250.063 106.103 250.741 106.103C251.418 106.103 251.958 106.312 252.359 106.73C252.761 107.148 252.962 107.751 252.962 108.537ZM251.544 108.537C251.544 108.111 251.468 107.801 251.318 107.609C251.167 107.416 250.975 107.32 250.741 107.32C250.498 107.32 250.301 107.416 250.151 107.609C250.008 107.801 249.937 108.111 249.937 108.537C249.937 108.964 250.008 109.278 250.151 109.478C250.301 109.671 250.498 109.767 250.741 109.767C250.975 109.767 251.167 109.671 251.318 109.478C251.468 109.278 251.544 108.964 251.544 108.537ZM255.409 106.304H257.153L252.246 115H250.502L255.409 106.304ZM259.161 112.766C259.161 113.553 258.96 114.155 258.559 114.573C258.157 114.992 257.617 115.201 256.94 115.201C256.262 115.201 255.722 114.992 255.321 114.573C254.919 114.155 254.719 113.553 254.719 112.766C254.719 111.98 254.919 111.378 255.321 110.959C255.722 110.541 256.262 110.332 256.94 110.332C257.617 110.332 258.157 110.541 258.559 110.959C258.96 111.378 259.161 111.98 259.161 112.766ZM257.743 112.766C257.743 112.34 257.668 112.03 257.517 111.838C257.366 111.645 257.174 111.549 256.94 111.549C256.697 111.549 256.501 111.645 256.35 111.838C256.208 112.03 256.137 112.34 256.137 112.766C256.137 113.193 256.208 113.507 256.35 113.707C256.501 113.9 256.697 113.996 256.94 113.996C257.174 113.996 257.366 113.9 257.517 113.707C257.668 113.507 257.743 113.193 257.743 112.766Z" fill="white"/>
<path d="M53.3799 86.276C53.3799 86.8572 53.2652 87.4155 53.0357 87.9508C52.8063 88.4862 52.508 89.0062 52.141 89.511C51.7739 90.0004 51.3609 90.4746 50.902 90.9335C50.4431 91.3923 49.9919 91.8282 49.5484 92.2412C49.3189 92.4554 49.0665 92.7001 48.7912 92.9754C48.5312 93.2354 48.2788 93.5031 48.0341 93.7784C47.7894 94.0537 47.5676 94.3138 47.3687 94.5585C47.1852 94.7879 47.0705 94.9791 47.0246 95.1321H53.8617V98H43.2619C43.2313 97.8317 43.216 97.6176 43.216 97.3576C43.216 97.0976 43.216 96.914 43.216 96.8069C43.216 96.0728 43.3307 95.3998 43.5601 94.7879C43.8049 94.1761 44.1184 93.6102 44.5008 93.0901C44.8832 92.5548 45.3115 92.0577 45.7856 91.5988C46.2751 91.1399 46.7569 90.6811 47.2311 90.2222C47.5982 89.8704 47.9423 89.5416 48.2635 89.2356C48.5847 88.9144 48.8677 88.6085 49.1124 88.3179C49.3572 88.012 49.5484 87.7137 49.686 87.4231C49.8237 87.1172 49.8925 86.8113 49.8925 86.5054C49.8925 85.8324 49.7013 85.3582 49.3189 85.0829C48.9365 84.8076 48.4624 84.6699 47.8964 84.6699C47.4835 84.6699 47.0934 84.7388 46.7263 84.8764C46.3745 84.9988 46.0457 85.1517 45.7398 85.3353C45.4491 85.5035 45.1968 85.6794 44.9826 85.863C44.7685 86.0312 44.6079 86.1689 44.5008 86.276L42.803 83.8899C43.476 83.2627 44.2561 82.7503 45.1432 82.3526C46.0457 81.9397 47.0093 81.7332 48.0341 81.7332C48.9671 81.7332 49.7701 81.8402 50.4431 82.0544C51.1162 82.2685 51.6668 82.5744 52.0951 82.9721C52.5386 83.3545 52.8598 83.8287 53.0587 84.3946C53.2728 84.9452 53.3799 85.5724 53.3799 86.276ZM67.2918 90.0157C67.2918 92.6924 66.7794 94.7497 65.7546 96.1875C64.7451 97.61 63.3455 98.3212 61.556 98.3212C59.7664 98.3212 58.3592 97.61 57.3344 96.1875C56.3249 94.7497 55.8201 92.6924 55.8201 90.0157C55.8201 88.685 55.9501 87.5073 56.2102 86.4824C56.4855 85.4576 56.8755 84.5934 57.3803 83.8899C57.885 83.1863 58.4892 82.6509 59.1928 82.2838C59.8964 81.9167 60.6841 81.7332 61.556 81.7332C63.3455 81.7332 64.7451 82.4521 65.7546 83.8899C66.7794 85.3123 67.2918 87.3543 67.2918 90.0157ZM63.8044 90.0157C63.8044 89.2204 63.7662 88.5015 63.6897 87.859C63.6132 87.2013 63.4908 86.6354 63.3226 86.1612C63.1543 85.6871 62.9249 85.32 62.6343 85.06C62.3437 84.7999 61.9842 84.6699 61.556 84.6699C61.1277 84.6699 60.7682 84.7999 60.4776 85.06C60.2023 85.32 59.9729 85.6871 59.7893 86.1612C59.6211 86.6354 59.4987 87.2013 59.4222 87.859C59.3458 88.5015 59.3075 89.2204 59.3075 90.0157C59.3075 90.8111 59.3458 91.5376 59.4222 92.1953C59.4987 92.853 59.6211 93.419 59.7893 93.8931C59.9729 94.3673 60.2023 94.7344 60.4776 94.9944C60.7682 95.2544 61.1277 95.3845 61.556 95.3845C61.9842 95.3845 62.3437 95.2544 62.6343 94.9944C62.9249 94.7344 63.1543 94.3673 63.3226 93.8931C63.4908 93.419 63.6132 92.853 63.6897 92.1953C63.7662 91.5376 63.8044 90.8111 63.8044 90.0157ZM72.9617 91.5373C72.9617 92.3237 72.7609 92.926 72.3593 93.3443C71.9578 93.7626 71.4182 93.9718 70.7405 93.9718C70.0629 93.9718 69.5232 93.7626 69.1217 93.3443C68.7201 92.926 68.5193 92.3237 68.5193 91.5373C68.5193 90.7508 68.7201 90.1485 69.1217 89.7302C69.5232 89.3119 70.0629 89.1027 70.7405 89.1027C71.4182 89.1027 71.9578 89.3119 72.3593 89.7302C72.7609 90.1485 72.9617 90.7508 72.9617 91.5373ZM71.5436 91.5373C71.5436 91.1106 71.4683 90.801 71.3178 90.6086C71.1672 90.4162 70.9748 90.32 70.7405 90.32C70.4979 90.32 70.3013 90.4162 70.1507 90.6086C70.0085 90.801 69.9374 91.1106 69.9374 91.5373C69.9374 91.9639 70.0085 92.2776 70.1507 92.4784C70.3013 92.6708 70.4979 92.7671 70.7405 92.7671C70.9748 92.7671 71.1672 92.6708 71.3178 92.4784C71.4683 92.2776 71.5436 91.9639 71.5436 91.5373ZM75.4087 89.3035H77.1531L72.2464 98H70.5021L75.4087 89.3035ZM79.1609 95.7663C79.1609 96.5527 78.9601 97.155 78.5585 97.5733C78.157 97.9916 77.6174 98.2008 76.9397 98.2008C76.2621 98.2008 75.7225 97.9916 75.3209 97.5733C74.9193 97.155 74.7185 96.5527 74.7185 95.7663C74.7185 94.9799 74.9193 94.3775 75.3209 93.9592C75.7225 93.5409 76.2621 93.3318 76.9397 93.3318C77.6174 93.3318 78.157 93.5409 78.5585 93.9592C78.9601 94.3775 79.1609 94.9799 79.1609 95.7663ZM77.7429 95.7663C77.7429 95.3396 77.6676 95.0301 77.517 94.8376C77.3664 94.6452 77.174 94.549 76.9397 94.549C76.6971 94.549 76.5005 94.6452 76.3499 94.8376C76.2077 95.0301 76.1366 95.3396 76.1366 95.7663C76.1366 96.1929 76.2077 96.5067 76.3499 96.7075C76.5005 96.8999 76.6971 96.9961 76.9397 96.9961C77.174 96.9961 77.3664 96.8999 77.517 96.7075C77.6676 96.5067 77.7429 96.1929 77.7429 95.7663Z" fill="white"/>
<path d="M110.231 242.344C109.818 242.344 109.382 242.314 108.923 242.252C108.464 242.206 108.021 242.138 107.593 242.046C107.164 241.954 106.774 241.855 106.422 241.748C106.071 241.641 105.795 241.541 105.597 241.449L106.262 238.604C106.66 238.773 107.164 238.956 107.776 239.155C108.403 239.339 109.176 239.43 110.093 239.43C111.149 239.43 111.921 239.232 112.411 238.834C112.9 238.436 113.145 237.901 113.145 237.228C113.145 236.815 113.053 236.471 112.87 236.195C112.701 235.905 112.464 235.675 112.158 235.507C111.852 235.323 111.485 235.201 111.057 235.14C110.644 235.063 110.2 235.025 109.726 235.025H108.396V232.272H109.91C110.246 232.272 110.568 232.241 110.873 232.18C111.195 232.119 111.478 232.02 111.722 231.882C111.967 231.729 112.158 231.53 112.296 231.285C112.449 231.025 112.525 230.704 112.525 230.322C112.525 230.031 112.464 229.779 112.342 229.565C112.22 229.351 112.059 229.175 111.86 229.037C111.677 228.899 111.455 228.8 111.195 228.739C110.95 228.662 110.698 228.624 110.438 228.624C109.78 228.624 109.168 228.723 108.602 228.922C108.051 229.121 107.547 229.366 107.088 229.656L105.872 227.156C106.117 227.003 106.4 226.842 106.721 226.674C107.057 226.506 107.424 226.353 107.822 226.215C108.22 226.077 108.64 225.963 109.084 225.871C109.543 225.779 110.025 225.733 110.529 225.733C111.462 225.733 112.265 225.848 112.938 226.077C113.627 226.291 114.193 226.605 114.636 227.018C115.08 227.416 115.409 227.89 115.623 228.44C115.837 228.976 115.944 229.565 115.944 230.207C115.944 230.834 115.768 231.446 115.416 232.043C115.064 232.624 114.59 233.067 113.994 233.373C114.82 233.71 115.455 234.215 115.898 234.888C116.357 235.545 116.586 236.341 116.586 237.274C116.586 238.008 116.464 238.689 116.219 239.316C115.975 239.927 115.592 240.463 115.072 240.922C114.552 241.365 113.887 241.717 113.076 241.977C112.281 242.222 111.332 242.344 110.231 242.344ZM130.292 234.016C130.292 236.692 129.779 238.75 128.755 240.187C127.745 241.61 126.346 242.321 124.556 242.321C122.766 242.321 121.359 241.61 120.334 240.187C119.325 238.75 118.82 236.692 118.82 234.016C118.82 232.685 118.95 231.507 119.21 230.482C119.485 229.458 119.876 228.593 120.38 227.89C120.885 227.186 121.489 226.651 122.193 226.284C122.896 225.917 123.684 225.733 124.556 225.733C126.346 225.733 127.745 226.452 128.755 227.89C129.779 229.312 130.292 231.354 130.292 234.016ZM126.804 234.016C126.804 233.22 126.766 232.501 126.69 231.859C126.613 231.201 126.491 230.635 126.323 230.161C126.154 229.687 125.925 229.32 125.634 229.06C125.344 228.8 124.984 228.67 124.556 228.67C124.128 228.67 123.768 228.8 123.478 229.06C123.202 229.32 122.973 229.687 122.789 230.161C122.621 230.635 122.499 231.201 122.422 231.859C122.346 232.501 122.308 233.22 122.308 234.016C122.308 234.811 122.346 235.538 122.422 236.195C122.499 236.853 122.621 237.419 122.789 237.893C122.973 238.367 123.202 238.734 123.478 238.994C123.768 239.254 124.128 239.384 124.556 239.384C124.984 239.384 125.344 239.254 125.634 238.994C125.925 238.734 126.154 238.367 126.323 237.893C126.491 237.419 126.613 236.853 126.69 236.195C126.766 235.538 126.804 234.811 126.804 234.016ZM135.962 235.537C135.962 236.324 135.761 236.926 135.359 237.344C134.958 237.763 134.418 237.972 133.741 237.972C133.063 237.972 132.523 237.763 132.122 237.344C131.72 236.926 131.519 236.324 131.519 235.537C131.519 234.751 131.72 234.148 132.122 233.73C132.523 233.312 133.063 233.103 133.741 233.103C134.418 233.103 134.958 233.312 135.359 233.73C135.761 234.148 135.962 234.751 135.962 235.537ZM134.544 235.537C134.544 235.111 134.468 234.801 134.318 234.609C134.167 234.416 133.975 234.32 133.741 234.32C133.498 234.32 133.301 234.416 133.151 234.609C133.008 234.801 132.937 235.111 132.937 235.537C132.937 235.964 133.008 236.278 133.151 236.478C133.301 236.671 133.498 236.767 133.741 236.767C133.975 236.767 134.167 236.671 134.318 236.478C134.468 236.278 134.544 235.964 134.544 235.537ZM138.409 233.304H140.153L135.246 242H133.502L138.409 233.304ZM142.161 239.766C142.161 240.553 141.96 241.155 141.559 241.573C141.157 241.992 140.617 242.201 139.94 242.201C139.262 242.201 138.722 241.992 138.321 241.573C137.919 241.155 137.719 240.553 137.719 239.766C137.719 238.98 137.919 238.378 138.321 237.959C138.722 237.541 139.262 237.332 139.94 237.332C140.617 237.332 141.157 237.541 141.559 237.959C141.96 238.378 142.161 238.98 142.161 239.766ZM140.743 239.766C140.743 239.34 140.668 239.03 140.517 238.838C140.366 238.645 140.174 238.549 139.94 238.549C139.697 238.549 139.501 238.645 139.35 238.838C139.208 239.03 139.137 239.34 139.137 239.766C139.137 240.193 139.208 240.507 139.35 240.707C139.501 240.9 139.697 240.996 139.94 240.996C140.174 240.996 140.366 240.9 140.517 240.707C140.668 240.507 140.743 240.193 140.743 239.766Z" fill="white"/>
</svg>
