<svg width="53" height="53" viewBox="0 0 53 53" fill="none" xmlns="http://www.w3.org/2000/svg">
<ellipse cx="26.2897" cy="26.5" rx="26.2897" ry="26.5" fill="#E9D6FA"/>
<g filter="url(#filter0_i_1988_14736)">
<rect x="10" y="15" width="33.3333" height="22" rx="3" fill="#8807F7"/>
<path d="M22.3328 29.5836L21.0647 30.3475C21.0087 30.3831 20.9501 30.3984 20.889 30.3933C20.8279 30.3882 20.7744 30.3678 20.7286 30.3322C20.6828 30.2965 20.6471 30.252 20.6217 30.1987C20.5962 30.1451 20.5911 30.0852 20.6064 30.019L20.9425 28.5752L19.8196 27.6051C19.7686 27.5593 19.7369 27.507 19.7242 27.4483C19.7114 27.3899 19.7152 27.3326 19.7355 27.2766C19.7559 27.2206 19.7865 27.1748 19.8272 27.1391C19.8679 27.1035 19.924 27.0806 19.9953 27.0704L21.4772 26.9405L22.0501 25.5808C22.0756 25.5197 22.1151 25.4738 22.1687 25.4433C22.2221 25.4127 22.2767 25.3975 22.3328 25.3975C22.3888 25.3975 22.4436 25.4127 22.4972 25.4433C22.5505 25.4738 22.5899 25.5197 22.6154 25.5808L23.1883 26.9405L24.6703 27.0704C24.7416 27.0806 24.7976 27.1035 24.8383 27.1391C24.8791 27.1748 24.9096 27.2206 24.93 27.2766C24.9504 27.3326 24.9542 27.3899 24.9416 27.4483C24.9288 27.507 24.8969 27.5593 24.846 27.6051L23.723 28.5752L24.0592 30.019C24.0744 30.0852 24.0693 30.1451 24.0439 30.1987C24.0184 30.252 23.9828 30.2965 23.9369 30.3322C23.8911 30.3678 23.8376 30.3882 23.7765 30.3933C23.7154 30.3984 23.6568 30.3831 23.6008 30.3475L22.3328 29.5836Z" fill="#FEF5FC"/>
<path d="M27.9994 25.1371L25.9244 26.3871C25.8328 26.4454 25.7369 26.4704 25.6369 26.4621C25.5369 26.4538 25.4494 26.4204 25.3744 26.3621C25.2994 26.3038 25.2411 26.2309 25.1994 26.1436C25.1578 26.0559 25.1494 25.9579 25.1744 25.8496L25.7244 23.4871L23.8869 21.8996C23.8036 21.8246 23.7516 21.7391 23.7309 21.6431C23.7099 21.5474 23.7161 21.4538 23.7494 21.3621C23.7828 21.2704 23.8328 21.1954 23.8994 21.1371C23.9661 21.0788 24.0578 21.0413 24.1744 21.0246L26.5994 20.8121L27.5369 18.5871C27.5786 18.4871 27.6433 18.4121 27.7309 18.3621C27.8183 18.3121 27.9078 18.2871 27.9994 18.2871C28.0911 18.2871 28.1808 18.3121 28.2684 18.3621C28.3558 18.4121 28.4203 18.4871 28.4619 18.5871L29.3994 20.8121L31.8244 21.0246C31.9411 21.0413 32.0328 21.0788 32.0994 21.1371C32.1661 21.1954 32.2161 21.2704 32.2494 21.3621C32.2828 21.4538 32.2891 21.5474 32.2684 21.6431C32.2474 21.7391 32.1953 21.8246 32.1119 21.8996L30.2744 23.4871L30.8244 25.8496C30.8494 25.9579 30.8411 26.0559 30.7994 26.1436C30.7578 26.2309 30.6994 26.3038 30.6244 26.3621C30.5494 26.4204 30.4619 26.4538 30.3619 26.4621C30.2619 26.4704 30.1661 26.4454 30.0744 26.3871L27.9994 25.1371Z" fill="#FEF5FC"/>
<path d="M27.6667 31.5836L26.3987 32.3475C26.3427 32.3831 26.2841 32.3984 26.223 32.3933C26.1619 32.3882 26.1084 32.3678 26.0626 32.3322C26.0167 32.2965 25.9811 32.252 25.9556 32.1987C25.9302 32.1451 25.9251 32.0852 25.9404 32.019L26.2765 30.5752L25.1536 29.6051C25.1026 29.5593 25.0709 29.507 25.0582 29.4483C25.0454 29.3899 25.0492 29.3326 25.0695 29.2766C25.0899 29.2206 25.1205 29.1748 25.1612 29.1391C25.2019 29.1035 25.258 29.0806 25.3292 29.0704L26.8112 28.9405L27.3841 27.5808C27.4096 27.5197 27.4491 27.4738 27.5027 27.4433C27.556 27.4127 27.6107 27.3975 27.6667 27.3975C27.7228 27.3975 27.7776 27.4127 27.8311 27.4433C27.8845 27.4738 27.9239 27.5197 27.9494 27.5808L28.5223 28.9405L30.0042 29.0704C30.0755 29.0806 30.1316 29.1035 30.1723 29.1391C30.213 29.1748 30.2436 29.2206 30.264 29.2766C30.2843 29.3326 30.2882 29.3899 30.2756 29.4483C30.2627 29.507 30.2309 29.5593 30.1799 29.6051L29.057 30.5752L29.3931 32.019C29.4084 32.0852 29.4033 32.1451 29.3779 32.1987C29.3524 32.252 29.3167 32.2965 29.2709 32.3322C29.2251 32.3678 29.1716 32.3882 29.1105 32.3933C29.0494 32.3984 28.9908 32.3831 28.9348 32.3475L27.6667 31.5836Z" fill="#FEF5FC"/>
</g>
<defs>
<filter id="filter0_i_1988_14736" x="10" y="4.42466" width="33.334" height="32.5753" filterUnits="userSpaceOnUse" color-interpolation-filters="sRGB">
<feFlood flood-opacity="0" result="BackgroundImageFix"/>
<feBlend mode="normal" in="SourceGraphic" in2="BackgroundImageFix" result="shape"/>
<feColorMatrix in="SourceAlpha" type="matrix" values="0 0 0 0 0 0 0 0 0 0 0 0 0 0 0 0 0 0 127 0" result="hardAlpha"/>
<feOffset dy="-10.5753"/>
<feGaussianBlur stdDeviation="5.28767"/>
<feComposite in2="hardAlpha" operator="arithmetic" k2="-1" k3="1"/>
<feColorMatrix type="matrix" values="0 0 0 0 0.791667 0 0 0 0 0.791667 0 0 0 0 0.791667 0 0 0 0.25 0"/>
<feBlend mode="normal" in2="shape" result="effect1_innerShadow_1988_14736"/>
</filter>
</defs>
</svg>
