<svg width="143" height="143" viewBox="0 0 143 143" fill="none" xmlns="http://www.w3.org/2000/svg">
<path d="M34.7313 143C-28.1704 81.2523 8.52224 22.6051 34.7313 1H38.7643H131V143H34.7313Z" fill="#EDDFF9"/>
<path d="M43.8125 139.064C-12.9699 80.5037 18.5597 25.228 44.0167 2.33917C45.7427 0.787313 48.0006 0 50.3217 0H50.7643H133C138.523 0 143 4.47715 143 10V132C143 137.523 138.523 142 133 142H50.8193C48.1992 142 45.6364 140.945 43.8125 139.064Z" fill="#EAD4FD"/>
<path d="M114.8 32H57.0016C54.2393 32 52 34.2402 52 37.0037V112.851C52 115.615 54.2393 117.855 57.0016 117.855H114.8C117.562 117.855 119.801 115.615 119.801 112.851V37.0037C119.801 34.2402 117.562 32 114.8 32Z" fill="#263238"/>
<path d="M118.692 32H60.8942C58.1319 32 55.8926 34.2402 55.8926 37.0037V112.851C55.8926 115.615 58.1319 117.855 60.8942 117.855H118.692C121.454 117.855 123.694 115.615 123.694 112.851V37.0037C123.694 34.2402 121.454 32 118.692 32Z" fill="#E8356D"/>
<path d="M67.7402 117.859H62.1134C61.9407 117.859 61.8008 117.999 61.8008 118.172V119.077C61.8008 119.25 61.9407 119.39 62.1134 119.39H67.7402C67.9129 119.39 68.0528 119.25 68.0528 119.077V118.172C68.0528 117.999 67.9129 117.859 67.7402 117.859Z" fill="#263238"/>
<path d="M117.469 117.859H111.842C111.669 117.859 111.529 117.999 111.529 118.172V119.077C111.529 119.25 111.669 119.39 111.842 119.39H117.469C117.641 119.39 117.781 119.25 117.781 119.077V118.172C117.781 117.999 117.641 117.859 117.469 117.859Z" fill="#263238"/>
<path opacity="0.2" d="M118.692 32H60.8942C58.1319 32 55.8926 34.2402 55.8926 37.0037V112.851C55.8926 115.615 58.1319 117.855 60.8942 117.855H118.692C121.454 117.855 123.694 115.615 123.694 112.851V37.0037C123.694 34.2402 121.454 32 118.692 32Z" fill="#DE8888"/>
<g style="mix-blend-mode:color-dodge" opacity="0.4">
<path d="M111.883 107.956H67.7019C67.196 107.955 66.7111 107.754 66.3533 107.396C65.9955 107.038 65.7941 106.553 65.793 106.047V43.8172C65.793 43.3104 65.994 42.8242 66.3518 42.4654C66.7097 42.1066 67.1953 41.9044 67.7019 41.9033H111.883C112.39 41.9044 112.875 42.1066 113.233 42.4654C113.591 42.8242 113.792 43.3104 113.792 43.8172V106.047C113.791 106.553 113.589 107.038 113.232 107.396C112.874 107.754 112.389 107.955 111.883 107.956ZM67.7019 42.1118C67.2505 42.1129 66.818 42.2931 66.4992 42.6128C66.1804 42.9325 66.0014 43.3656 66.0014 43.8172V106.047C66.0014 106.27 66.0454 106.491 66.1308 106.698C66.2163 106.904 66.3415 107.092 66.4995 107.25C66.6574 107.408 66.8448 107.533 67.0512 107.618C67.2575 107.704 67.4786 107.748 67.7019 107.748H111.883C112.334 107.748 112.766 107.569 113.085 107.25C113.404 106.931 113.583 106.498 113.583 106.047V43.8172C113.583 43.3656 113.404 42.9325 113.086 42.6128C112.767 42.2931 112.334 42.1129 111.883 42.1118H67.7019Z" fill="#E6E6E6"/>
</g>
<path d="M112.859 106.046V43.8126C112.859 43.276 112.425 42.8411 111.888 42.8411H67.703C67.1667 42.8411 66.7319 43.276 66.7319 43.8126V106.046C66.7319 106.583 67.1667 107.018 67.703 107.018H111.888C112.425 107.018 112.859 106.583 112.859 106.046Z" fill="#E8356D"/>
<path opacity="0.1" d="M112.859 106.046V43.8126C112.859 43.276 112.425 42.8411 111.888 42.8411H67.703C67.1667 42.8411 66.7319 43.276 66.7319 43.8126V106.046C66.7319 106.583 67.1667 107.018 67.703 107.018H111.888C112.425 107.018 112.859 106.583 112.859 106.046Z" fill="white"/>
<path opacity="0.1" d="M89.795 90.3642C97.6446 90.3642 104.008 83.9982 104.008 76.1454C104.008 68.2925 97.6446 61.9265 89.795 61.9265C81.9454 61.9265 75.582 68.2925 75.582 76.1454C75.582 83.9982 81.9454 90.3642 89.795 90.3642Z" fill="#DE8888"/>
<path d="M89.7942 55.0298C91.7117 55.0298 93.2662 53.4747 93.2662 51.5564C93.2662 49.6381 91.7117 48.083 89.7942 48.083C87.8767 48.083 86.3223 49.6381 86.3223 51.5564C86.3223 53.4747 87.8767 55.0298 89.7942 55.0298Z" fill="#E8356D"/>
<path opacity="0.6" d="M89.7727 55.021C91.6902 55.021 93.2447 53.4659 93.2447 51.5476C93.2447 49.6293 91.6902 48.0742 89.7727 48.0742C87.8552 48.0742 86.3008 49.6293 86.3008 51.5476C86.3008 53.4659 87.8552 55.021 89.7727 55.021Z" fill="white"/>
<path d="M89.7894 54.2999C89.247 54.2999 88.7168 54.139 88.2657 53.8375C87.8147 53.536 87.4632 53.1075 87.2556 52.6062C87.0481 52.1048 86.9938 51.5532 87.0996 51.0209C87.2054 50.4887 87.4666 49.9998 87.8502 49.6161C88.2337 49.2324 88.7224 48.9711 89.2544 48.8652C89.7864 48.7594 90.3378 48.8137 90.839 49.0214C91.3401 49.229 91.7684 49.5807 92.0698 50.0319C92.3711 50.4831 92.532 51.0135 92.532 51.5562C92.5309 52.2835 92.2416 52.9808 91.7275 53.4951C91.2134 54.0094 90.5165 54.2988 89.7894 54.2999ZM89.7894 49.021C89.2882 49.021 88.7983 49.1697 88.3815 49.4483C87.9648 49.7268 87.64 50.1228 87.4482 50.586C87.2564 51.0493 87.2062 51.559 87.304 52.0508C87.4017 52.5426 87.6431 52.9943 87.9975 53.3489C88.3519 53.7034 88.8035 53.9449 89.295 54.0427C89.7866 54.1405 90.2962 54.0903 90.7592 53.8984C91.2223 53.7065 91.6181 53.3816 91.8965 52.9647C92.175 52.5478 92.3236 52.0576 92.3236 51.5562C92.3225 50.8842 92.0551 50.24 91.5801 49.7648C91.1051 49.2895 90.4612 49.0221 89.7894 49.021Z" fill="#E8356D"/>
<path d="M66.6758 51.0142H65.1288C64.788 51.0142 64.5117 51.2905 64.5117 51.6313V60.0959C64.5117 60.4367 64.788 60.713 65.1288 60.713H66.6758C67.0166 60.713 67.2929 60.4367 67.2929 60.0959V51.6313C67.2929 51.2905 67.0166 51.0142 66.6758 51.0142Z" fill="#E8356D"/>
<path opacity="0.6" d="M66.6758 51.0142H65.1288C64.788 51.0142 64.5117 51.2905 64.5117 51.6313V60.0959C64.5117 60.4367 64.788 60.713 65.1288 60.713H66.6758C67.0166 60.713 67.2929 60.4367 67.2929 60.0959V51.6313C67.2929 51.2905 67.0166 51.0142 66.6758 51.0142Z" fill="white"/>
<path d="M66.6758 89.1462H65.1288C64.788 89.1462 64.5117 89.4225 64.5117 89.7634V98.228C64.5117 98.5688 64.788 98.8451 65.1288 98.8451H66.6758C67.0166 98.8451 67.2929 98.5688 67.2929 98.228V89.7634C67.2929 89.4225 67.0166 89.1462 66.6758 89.1462Z" fill="#E8356D"/>
<path opacity="0.6" d="M66.6758 89.1462H65.1288C64.788 89.1462 64.5117 89.4225 64.5117 89.7634V98.228C64.5117 98.5688 64.788 98.8451 65.1288 98.8451H66.6758C67.0166 98.8451 67.2929 98.5688 67.2929 98.228V89.7634C67.2929 89.4225 67.0166 89.1462 66.6758 89.1462Z" fill="white"/>
<path d="M89.795 89.1506C97.6446 89.1506 104.008 82.7846 104.008 74.9317C104.008 67.0789 97.6446 60.7129 89.795 60.7129C81.9454 60.7129 75.582 67.0789 75.582 74.9317C75.582 82.7846 81.9454 89.1506 89.795 89.1506Z" fill="#E8356D"/>
<path opacity="0.6" d="M89.795 89.1506C97.6446 89.1506 104.008 82.7846 104.008 74.9317C104.008 67.0789 97.6446 60.7129 89.795 60.7129C81.9454 60.7129 75.582 67.0789 75.582 74.9317C75.582 82.7846 81.9454 89.1506 89.795 89.1506Z" fill="white"/>
<path d="M82.7594 67.3024L82.1699 67.8921L96.8295 82.5577L97.4189 81.968L82.7594 67.3024Z" fill="#E8356D"/>
<path d="M96.8295 67.3021L82.1699 81.9678L82.7594 82.5575L97.4189 67.8918L96.8295 67.3021Z" fill="#E8356D"/>
<path opacity="0.2" d="M96.7806 67.2546L82.1211 81.9202L82.7105 82.5099L97.3701 67.8443L96.7806 67.2546Z" fill="#DE8888"/>
<path opacity="0.2" d="M82.7144 67.2575L82.125 67.8472L96.7845 82.5128L97.374 81.9231L82.7144 67.2575Z" fill="#DE8888"/>
<path d="M89.7483 85.6774C87.6139 85.6782 85.5271 85.0458 83.752 83.8601C81.9769 82.6743 80.5931 80.9886 79.7757 79.0161C78.9584 77.0435 78.7441 74.8728 79.16 72.7784C79.5759 70.684 80.6033 68.76 82.1123 67.2498C83.6213 65.7396 85.544 64.7111 87.6374 64.2942C89.7307 63.8773 91.9007 64.0908 93.8727 64.9078C95.8447 65.7248 97.5303 67.1084 98.7162 68.8838C99.9022 70.6592 100.535 72.7466 100.535 74.8819C100.533 77.7437 99.3959 80.4876 97.3736 82.5116C95.3512 84.5355 92.6089 85.6741 89.7483 85.6774ZM89.7483 64.9204C87.7787 64.9196 85.8532 65.5031 84.2151 66.5972C82.5771 67.6913 81.3002 69.2467 80.5459 71.0669C79.7916 72.8871 79.5938 74.8901 79.9776 76.8228C80.3613 78.7554 81.3093 80.5307 82.7017 81.9243C84.0941 83.3179 85.8683 84.267 87.8 84.6517C89.7317 85.0364 91.734 84.8394 93.5537 84.0856C95.3734 83.3317 96.9288 82.0549 98.0231 80.4167C99.1174 78.7784 99.7015 76.8523 99.7015 74.8819C99.6993 72.2414 98.6501 69.7095 96.7841 67.842C94.9181 65.9744 92.3878 64.9237 89.7483 64.9204Z" fill="#E8356D"/>
<path d="M92.9389 78.0764C94.7021 76.3125 94.7021 73.4526 92.9389 71.6887C91.1757 69.9248 88.317 69.9248 86.5539 71.6887C84.7907 73.4526 84.7907 76.3125 86.5539 78.0764C88.317 79.8403 91.1757 79.8403 92.9389 78.0764Z" fill="#E8356D"/>
<path opacity="0.2" d="M89.7483 85.6774C87.6139 85.6782 85.5271 85.0458 83.752 83.8601C81.9769 82.6743 80.5931 80.9886 79.7757 79.0161C78.9584 77.0435 78.7441 74.8728 79.16 72.7784C79.5759 70.684 80.6033 68.76 82.1123 67.2498C83.6213 65.7396 85.544 64.7111 87.6374 64.2942C89.7307 63.8773 91.9007 64.0908 93.8727 64.9078C95.8447 65.7248 97.5303 67.1084 98.7162 68.8838C99.9022 70.6592 100.535 72.7466 100.535 74.8819C100.533 77.7437 99.3959 80.4876 97.3736 82.5116C95.3512 84.5355 92.6089 85.6741 89.7483 85.6774ZM89.7483 64.9204C87.7787 64.9196 85.8532 65.5031 84.2151 66.5972C82.5771 67.6913 81.3002 69.2467 80.5459 71.0669C79.7916 72.8871 79.5938 74.8901 79.9776 76.8228C80.3613 78.7554 81.3093 80.5307 82.7017 81.9243C84.0941 83.3179 85.8683 84.267 87.8 84.6517C89.7317 85.0364 91.734 84.8394 93.5537 84.0856C95.3734 83.3317 96.9288 82.0549 98.0231 80.4167C99.1174 78.7784 99.7015 76.8523 99.7015 74.8819C99.6993 72.2414 98.6501 69.7095 96.7841 67.842C94.9181 65.9744 92.3878 64.9237 89.7483 64.9204Z" fill="#DE8888"/>
<path opacity="0.2" d="M92.9389 78.0764C94.7021 76.3125 94.7021 73.4526 92.9389 71.6887C91.1757 69.9248 88.317 69.9248 86.5539 71.6887C84.7907 73.4526 84.7907 76.3125 86.5539 78.0764C88.317 79.8403 91.1757 79.8403 92.9389 78.0764Z" fill="#DE8888"/>
</svg>
