<svg width="82" height="41" viewBox="0 0 82 41" fill="none" xmlns="http://www.w3.org/2000/svg">
<path d="M54.016 24.496C54.7413 24.496 55.2693 24.3733 55.6 24.128C55.9307 23.8827 56.096 23.536 56.096 23.088C56.096 22.8213 56.0373 22.592 55.92 22.4C55.8133 22.208 55.6533 22.0373 55.44 21.888C55.2373 21.728 54.9867 21.584 54.688 21.456C54.3893 21.3173 54.048 21.184 53.664 21.056C53.28 20.9173 52.9067 20.768 52.544 20.608C52.192 20.4373 51.8773 20.2293 51.6 19.984C51.3333 19.7387 51.1147 19.4453 50.944 19.104C50.784 18.7627 50.704 18.352 50.704 17.872C50.704 16.8693 51.0507 16.0853 51.744 15.52C52.4373 14.944 53.3813 14.656 54.576 14.656C55.2693 14.656 55.8827 14.736 56.416 14.896C56.96 15.0453 57.3867 15.2107 57.696 15.392L57.072 17.024C56.7093 16.8213 56.3093 16.6667 55.872 16.56C55.4453 16.4533 55.0027 16.4 54.544 16.4C54 16.4 53.5733 16.512 53.264 16.736C52.9653 16.96 52.816 17.2747 52.816 17.68C52.816 17.9253 52.864 18.1387 52.96 18.32C53.0667 18.4907 53.2107 18.6453 53.392 18.784C53.584 18.9227 53.8027 19.0507 54.048 19.168C54.304 19.2853 54.5813 19.3973 54.88 19.504C55.4027 19.696 55.8667 19.8933 56.272 20.096C56.688 20.288 57.0347 20.5227 57.312 20.8C57.6 21.0667 57.8187 21.3867 57.968 21.76C58.1173 22.1227 58.192 22.5653 58.192 23.088C58.192 24.0907 57.8347 24.8693 57.12 25.424C56.416 25.968 55.3813 26.24 54.016 26.24C53.5573 26.24 53.136 26.208 52.752 26.144C52.3787 26.0907 52.0427 26.0213 51.744 25.936C51.456 25.8507 51.2053 25.7653 50.992 25.68C50.7787 25.584 50.608 25.4987 50.48 25.424L51.072 23.776C51.36 23.936 51.7493 24.096 52.24 24.256C52.7307 24.416 53.3227 24.496 54.016 24.496ZM67.3286 26C67.1793 25.5627 67.0246 25.1307 66.8646 24.704C66.7046 24.2773 66.55 23.84 66.4006 23.392H61.7286C61.5793 23.84 61.4246 24.2827 61.2646 24.72C61.1153 25.1467 60.966 25.5733 60.8166 26H58.7206C59.1366 24.816 59.5313 23.7227 59.9046 22.72C60.278 21.7173 60.6406 20.768 60.9926 19.872C61.3553 18.976 61.7126 18.1227 62.0646 17.312C62.4166 16.5013 62.7793 15.7013 63.1526 14.912H65.0566C65.43 15.7013 65.7926 16.5013 66.1446 17.312C66.4966 18.1227 66.8486 18.976 67.2006 19.872C67.5633 20.768 67.9313 21.7173 68.3046 22.72C68.6886 23.7227 69.0886 24.816 69.5046 26H67.3286ZM64.0646 17.056C63.8193 17.6213 63.5366 18.3093 63.2166 19.12C62.9073 19.9307 62.582 20.8107 62.2406 21.76H65.8886C65.5473 20.8107 65.2166 19.9253 64.8966 19.104C64.5766 18.2827 64.2993 17.6 64.0646 17.056ZM78.3781 26C78.0155 25.392 77.6101 24.7413 77.1621 24.048C76.7141 23.344 76.2501 22.64 75.7701 21.936C75.2901 21.2213 74.7995 20.5333 74.2981 19.872C73.8075 19.2 73.3381 18.5973 72.8901 18.064V26H70.9061V14.912H72.5541C72.9808 15.36 73.4395 15.8933 73.9301 16.512C74.4208 17.12 74.9115 17.7547 75.4021 18.416C75.9035 19.0773 76.3835 19.744 76.8421 20.416C77.3115 21.0773 77.7275 21.696 78.0901 22.272V14.912H80.0901V26H78.3781Z" fill="#3D0072"/>
<ellipse cx="20.3373" cy="20.5" rx="20.3373" ry="20.5" fill="#E9D6FA"/>
<g filter="url(#filter0_i_3002_63874)">
<rect x="6" y="12" width="28" height="18.48" rx="2.52" fill="#8807F7"/>
<path d="M16.3537 24.2507L15.2885 24.8924C15.2414 24.9223 15.1922 24.9352 15.1409 24.9309C15.0896 24.9266 15.0447 24.9095 15.0062 24.8795C14.9677 24.8496 14.9377 24.8122 14.9163 24.7674C14.8949 24.7224 14.8907 24.6721 14.9035 24.6165L15.1858 23.4037L14.2426 22.5888C14.1998 22.5503 14.1731 22.5064 14.1625 22.4571C14.1517 22.408 14.1549 22.3599 14.172 22.3129C14.1891 22.2658 14.2148 22.2273 14.249 22.1974C14.2832 22.1674 14.3303 22.1482 14.3902 22.1396L15.635 22.0305L16.1162 20.8884C16.1376 20.837 16.1708 20.7985 16.2158 20.7729C16.2607 20.7472 16.3066 20.7344 16.3537 20.7344C16.4007 20.7344 16.4467 20.7472 16.4917 20.7729C16.5366 20.7985 16.5697 20.837 16.5911 20.8884L17.0723 22.0305L18.3172 22.1396C18.3771 22.1482 18.4241 22.1674 18.4583 22.1974C18.4926 22.2273 18.5182 22.2658 18.5353 22.3129C18.5524 22.3599 18.5557 22.408 18.5451 22.4571C18.5343 22.5064 18.5075 22.5503 18.4647 22.5888L17.5215 23.4037L17.8038 24.6165C17.8167 24.6721 17.8124 24.7224 17.791 24.7674C17.7696 24.8122 17.7397 24.8496 17.7012 24.8795C17.6627 24.9095 17.6177 24.9266 17.5664 24.9309C17.5151 24.9352 17.4659 24.9223 17.4188 24.8924L16.3537 24.2507Z" fill="#FEF5FC"/>
<path d="M21.1192 20.5118L19.3762 21.5618C19.2992 21.6108 19.2187 21.6318 19.1347 21.6248C19.0507 21.6178 18.9772 21.5898 18.9142 21.5408C18.8512 21.4918 18.8022 21.4306 18.7672 21.3573C18.7322 21.2836 18.7252 21.2013 18.7462 21.1103L19.2082 19.1258L17.6647 17.7923C17.5947 17.7293 17.551 17.6575 17.5337 17.5769C17.516 17.4965 17.5212 17.4178 17.5492 17.3408C17.5772 17.2638 17.6192 17.2008 17.6752 17.1518C17.7312 17.1028 17.8082 17.0713 17.9062 17.0573L19.9432 16.8788L20.7307 15.0098C20.7657 14.9258 20.82 14.8628 20.8937 14.8208C20.967 14.7788 21.0422 14.7578 21.1192 14.7578C21.1962 14.7578 21.2715 14.7788 21.3452 14.8208C21.4185 14.8628 21.4727 14.9258 21.5077 15.0098L22.2952 16.8788L24.3322 17.0573C24.4302 17.0713 24.5072 17.1028 24.5632 17.1518C24.6192 17.2008 24.6612 17.2638 24.6892 17.3408C24.7172 17.4178 24.7225 17.4965 24.7052 17.5769C24.6875 17.6575 24.6437 17.7293 24.5737 17.7923L23.0302 19.1258L23.4922 21.1103C23.5132 21.2013 23.5062 21.2836 23.4712 21.3573C23.4362 21.4306 23.3872 21.4918 23.3242 21.5408C23.2612 21.5898 23.1877 21.6178 23.1037 21.6248C23.0197 21.6318 22.9392 21.6108 22.8622 21.5618L21.1192 20.5118Z" fill="#FEF5FC"/>
<g clip-path="url(#clip0_3002_63874)">
<path d="M20.8302 25.9304L19.7651 26.5721C19.718 26.602 19.6688 26.6148 19.6175 26.6106C19.5661 26.6063 19.5212 26.5892 19.4827 26.5592C19.4442 26.5293 19.4143 26.4919 19.3929 26.4471C19.3715 26.4021 19.3672 26.3518 19.3801 26.2961L19.6624 25.0834L18.7191 24.2685C18.6764 24.23 18.6497 24.1861 18.6391 24.1368C18.6283 24.0877 18.6314 24.0396 18.6486 23.9926C18.6657 23.9455 18.6913 23.907 18.7256 23.8771C18.7598 23.8471 18.8068 23.8279 18.8667 23.8193L20.1116 23.7102L20.5928 22.5681C20.6142 22.5167 20.6474 22.4782 20.6924 22.4526C20.7372 22.4269 20.7832 22.4141 20.8302 22.4141C20.8773 22.4141 20.9233 22.4269 20.9683 22.4526C21.0131 22.4782 21.0463 22.5167 21.0676 22.5681L21.5489 23.7102L22.7937 23.8193C22.8536 23.8279 22.9007 23.8471 22.9349 23.8771C22.9691 23.907 22.9948 23.9455 23.0119 23.9926C23.029 24.0396 23.0323 24.0877 23.0216 24.1368C23.0109 24.1861 22.9841 24.23 22.9413 24.2685L21.9981 25.0834L22.2804 26.2961C22.2932 26.3518 22.2889 26.4021 22.2676 26.4471C22.2462 26.4919 22.2162 26.5293 22.1777 26.5592C22.1392 26.5892 22.0943 26.6063 22.043 26.6106C21.9916 26.6148 21.9424 26.602 21.8954 26.5721L20.8302 25.9304Z" fill="#FEF5FC"/>
</g>
</g>
<defs>
<filter id="filter0_i_3002_63874" x="6" y="3.11671" width="28" height="27.3638" filterUnits="userSpaceOnUse" color-interpolation-filters="sRGB">
<feFlood flood-opacity="0" result="BackgroundImageFix"/>
<feBlend mode="normal" in="SourceGraphic" in2="BackgroundImageFix" result="shape"/>
<feColorMatrix in="SourceAlpha" type="matrix" values="0 0 0 0 0 0 0 0 0 0 0 0 0 0 0 0 0 0 127 0" result="hardAlpha"/>
<feOffset dy="-8.88329"/>
<feGaussianBlur stdDeviation="4.44164"/>
<feComposite in2="hardAlpha" operator="arithmetic" k2="-1" k3="1"/>
<feColorMatrix type="matrix" values="0 0 0 0 0.791667 0 0 0 0 0.791667 0 0 0 0 0.791667 0 0 0 0.25 0"/>
<feBlend mode="normal" in2="shape" result="effect1_innerShadow_3002_63874"/>
</filter>
<clipPath id="clip0_3002_63874">
<rect width="6.16" height="6.16" fill="white" transform="translate(17.7578 21.2383)"/>
</clipPath>
</defs>
</svg>
