<svg width="64" height="22" viewBox="0 0 64 22" fill="none" xmlns="http://www.w3.org/2000/svg">
<path d="M36.016 15.496C36.7413 15.496 37.2693 15.3733 37.6 15.128C37.9307 14.8827 38.096 14.536 38.096 14.088C38.096 13.8213 38.0373 13.592 37.92 13.4C37.8133 13.208 37.6533 13.0373 37.44 12.888C37.2373 12.728 36.9867 12.584 36.688 12.456C36.3893 12.3173 36.048 12.184 35.664 12.056C35.28 11.9173 34.9067 11.768 34.544 11.608C34.192 11.4373 33.8773 11.2293 33.6 10.984C33.3333 10.7387 33.1147 10.4453 32.944 10.104C32.784 9.76267 32.704 9.352 32.704 8.872C32.704 7.86933 33.0507 7.08533 33.744 6.52C34.4373 5.944 35.3813 5.656 36.576 5.656C37.2693 5.656 37.8827 5.736 38.416 5.896C38.96 6.04533 39.3867 6.21067 39.696 6.392L39.072 8.024C38.7093 7.82133 38.3093 7.66667 37.872 7.56C37.4453 7.45333 37.0027 7.4 36.544 7.4C36 7.4 35.5733 7.512 35.264 7.736C34.9653 7.96 34.816 8.27467 34.816 8.68C34.816 8.92533 34.864 9.13867 34.96 9.32C35.0667 9.49067 35.2107 9.64533 35.392 9.784C35.584 9.92267 35.8027 10.0507 36.048 10.168C36.304 10.2853 36.5813 10.3973 36.88 10.504C37.4027 10.696 37.8667 10.8933 38.272 11.096C38.688 11.288 39.0347 11.5227 39.312 11.8C39.6 12.0667 39.8187 12.3867 39.968 12.76C40.1173 13.1227 40.192 13.5653 40.192 14.088C40.192 15.0907 39.8347 15.8693 39.12 16.424C38.416 16.968 37.3813 17.24 36.016 17.24C35.5573 17.24 35.136 17.208 34.752 17.144C34.3787 17.0907 34.0427 17.0213 33.744 16.936C33.456 16.8507 33.2053 16.7653 32.992 16.68C32.7787 16.584 32.608 16.4987 32.48 16.424L33.072 14.776C33.36 14.936 33.7493 15.096 34.24 15.256C34.7307 15.416 35.3227 15.496 36.016 15.496ZM49.3286 17C49.1793 16.5627 49.0246 16.1307 48.8646 15.704C48.7046 15.2773 48.55 14.84 48.4006 14.392H43.7286C43.5793 14.84 43.4246 15.2827 43.2646 15.72C43.1153 16.1467 42.966 16.5733 42.8166 17H40.7206C41.1366 15.816 41.5313 14.7227 41.9046 13.72C42.278 12.7173 42.6406 11.768 42.9926 10.872C43.3553 9.976 43.7126 9.12267 44.0646 8.312C44.4166 7.50133 44.7793 6.70133 45.1526 5.912H47.0566C47.43 6.70133 47.7926 7.50133 48.1446 8.312C48.4966 9.12267 48.8486 9.976 49.2006 10.872C49.5633 11.768 49.9313 12.7173 50.3046 13.72C50.6886 14.7227 51.0886 15.816 51.5046 17H49.3286ZM46.0646 8.056C45.8193 8.62133 45.5366 9.30933 45.2166 10.12C44.9073 10.9307 44.582 11.8107 44.2406 12.76H47.8886C47.5473 11.8107 47.2166 10.9253 46.8966 10.104C46.5766 9.28267 46.2993 8.6 46.0646 8.056ZM60.3781 17C60.0155 16.392 59.6101 15.7413 59.1621 15.048C58.7141 14.344 58.2501 13.64 57.7701 12.936C57.2901 12.2213 56.7995 11.5333 56.2981 10.872C55.8075 10.2 55.3381 9.59733 54.8901 9.064V17H52.9061V5.912H54.5541C54.9808 6.36 55.4395 6.89333 55.9301 7.512C56.4208 8.12 56.9115 8.75467 57.4021 9.416C57.9035 10.0773 58.3835 10.744 58.8421 11.416C59.3115 12.0773 59.7275 12.696 60.0901 13.272V5.912H62.0901V17H60.3781Z" fill="#3D0072"/>
<path d="M7.57414 4.63339C7.57792 6.07125 7.57792 7.50911 7.5817 8.94697C7.58547 10.1864 7.17925 11.3938 6.03047 12.0267C4.68519 12.7617 2.77875 12.5766 1.27854 12.4216C1.22186 12.4179 1.16895 12.4103 1.11605 12.4065C1.16517 11.3711 1.14628 10.3263 1.09715 9.29462C1.03291 7.89644 1.88127 6.22996 3.38148 5.99378C5.01206 5.73682 6.42914 5.56299 7.19814 4.66362C7.22459 4.63716 7.24727 4.61071 7.26994 4.58048C7.38331 4.42744 7.50423 4.27817 7.62515 4.12891C7.58736 4.2914 7.57414 4.46334 7.57414 4.63339Z" fill="#3D0072"/>
<path d="M2.64648 21.7869C3.76881 21.8587 4.89869 21.8417 6.0229 21.8605C7.33417 21.8832 8.67567 22.0457 9.94159 21.8152C11.7573 21.4846 13.7998 20.2999 14.4743 18.5446C15.0998 16.9197 14.805 14.9792 13.728 13.6151C13.6524 13.5206 13.5731 13.4299 13.4862 13.3392C12.3979 12.1489 10.7087 11.5272 9.10457 11.7407C7.10744 12.0053 5.34838 13.5754 4.83067 15.5196C4.50758 16.7326 4.7891 18.025 4.60016 19.2607C4.44523 20.2848 3.57231 21.3334 2.64648 21.7869Z" fill="#3D0072"/>
<path d="M13.8688 0C13.7687 0.304199 13.8896 0.63485 14.02 0.927712C15.6846 4.64234 20.1493 7.15529 19.9962 11.6162C19.9263 13.6342 18.9193 16.0054 17.2358 17.2014C17.113 17.2883 17.0015 17.3658 16.8579 17.4055C16.5367 16.8046 16.5027 15.9242 16.2287 15.261C15.8867 14.4296 15.4333 13.6115 14.8003 12.9672C14.1938 12.3512 13.4342 11.996 12.8277 11.3914C11.5543 10.1198 10.7512 8.37587 10.6454 6.57712C10.4905 4.01127 11.7734 1.4662 13.8688 0Z" fill="#3D0072"/>
<path d="M2.27785 8.95646C2.27785 8.95646 2.21927 7.83602 3.36616 7.89271C3.36805 7.89271 3.78562 9.11706 2.27785 8.95646Z" fill="white" stroke="#3D0072" stroke-width="0.315805" stroke-miterlimit="10"/>
<path d="M1.90077 18.4383C2.95054 18.4383 3.80154 17.5873 3.80154 16.5375C3.80154 15.4877 2.95054 14.6367 1.90077 14.6367C0.851004 14.6367 0 15.4877 0 16.5375C0 17.5873 0.851004 18.4383 1.90077 18.4383Z" fill="#3D0072"/>
</svg>
