<svg width="133" height="41" viewBox="0 0 133 41" fill="none" xmlns="http://www.w3.org/2000/svg">
<path d="M57.1238 24.291C57.6247 24.291 58.0344 24.253 58.3531 24.1771C58.687 24.0861 58.9526 23.9722 59.1499 23.8356C59.3472 23.6839 59.4838 23.5093 59.5597 23.3121C59.6356 23.1148 59.6735 22.8947 59.6735 22.6519C59.6735 22.1359 59.4307 21.7109 58.945 21.377C58.4594 21.0279 57.6247 20.6561 56.4409 20.2615C55.9249 20.0794 55.4088 19.8745 54.8928 19.6469C54.3768 19.404 53.9139 19.1081 53.5042 18.759C53.0944 18.3948 52.7605 17.9622 52.5025 17.4614C52.2445 16.9454 52.1155 16.3232 52.1155 15.5947C52.1155 14.8662 52.2521 14.2136 52.5253 13.6369C52.7984 13.045 53.1855 12.5441 53.6863 12.1344C54.1871 11.7246 54.7942 11.4135 55.5075 11.201C56.2208 10.9734 57.0252 10.8595 57.9206 10.8595C58.983 10.8595 59.9012 10.9734 60.6752 11.201C61.4492 11.4287 62.0866 11.6791 62.5874 11.9523L61.563 14.7524C61.1229 14.5247 60.6296 14.3274 60.0833 14.1605C59.5521 13.9783 58.9071 13.8873 58.1482 13.8873C57.2984 13.8873 56.6837 14.0087 56.3043 14.2515C55.94 14.4792 55.7579 14.8358 55.7579 15.3215C55.7579 15.6099 55.8262 15.8527 55.9628 16.05C56.0994 16.2473 56.2891 16.4294 56.5319 16.5963C56.7899 16.7481 57.0783 16.8923 57.397 17.0289C57.7309 17.1503 58.0951 17.2793 58.4897 17.4159C59.3093 17.7194 60.0226 18.023 60.6296 18.3265C61.2367 18.6148 61.7375 18.9563 62.1321 19.3509C62.5419 19.7455 62.8455 20.2084 63.0428 20.7396C63.24 21.2708 63.3387 21.9158 63.3387 22.6746C63.3387 24.1468 62.8227 25.2926 61.7907 26.1122C60.7586 26.9165 59.203 27.3187 57.1238 27.3187C56.4257 27.3187 55.7959 27.2732 55.2343 27.1821C54.6728 27.1062 54.1719 27.0076 53.7318 26.8862C53.3069 26.7648 52.935 26.6358 52.6163 26.4992C52.3128 26.3626 52.0548 26.2336 51.8423 26.1122L52.844 23.2893C53.3145 23.5473 53.8912 23.7825 54.5741 23.995C55.2723 24.1923 56.1222 24.291 57.1238 24.291ZM76.6342 27C76.4673 26.4536 76.2776 25.8921 76.0651 25.3154C75.8678 24.7387 75.6705 24.1619 75.4732 23.5852H69.3266C69.1293 24.1619 68.9245 24.7387 68.712 25.3154C68.5147 25.8921 68.3326 26.4536 68.1656 27H64.4777C65.0696 25.3002 65.6311 23.7294 66.1623 22.2876C66.6935 20.8458 67.2095 19.4875 67.7103 18.2127C68.2263 16.9378 68.7272 15.7313 69.2128 14.593C69.7136 13.4396 70.2297 12.3165 70.7608 11.2238H74.1528C74.6689 12.3165 75.1773 13.4396 75.6781 14.593C76.1789 15.7313 76.6798 16.9378 77.1806 18.2127C77.6966 19.4875 78.2202 20.8458 78.7514 22.2876C79.2826 23.7294 79.8441 25.3002 80.436 27H76.6342ZM72.3772 14.7979C72.3013 15.0255 72.1875 15.3367 72.0357 15.7313C71.8839 16.1259 71.7094 16.5812 71.5121 17.0972C71.3148 17.6132 71.0947 18.1823 70.8519 18.8046C70.6242 19.4268 70.389 20.0794 70.1462 20.7624H74.6309C74.3881 20.0794 74.1528 19.4268 73.9252 18.8046C73.6975 18.1823 73.4775 17.6132 73.265 17.0972C73.0677 16.5812 72.8932 16.1259 72.7414 15.7313C72.5896 15.3367 72.4682 15.0255 72.3772 14.7979ZM93.0639 27C92.0471 25.194 90.9467 23.4107 89.763 21.6502C88.5792 19.8897 87.3195 18.2278 85.9839 16.6646V27H82.4781V11.2238H85.3693C85.8701 11.7246 86.4241 12.3393 87.0311 13.0677C87.6382 13.7962 88.2529 14.5778 88.8751 15.4126C89.5125 16.2321 90.1424 17.0896 90.7646 17.985C91.3869 18.8653 91.9712 19.7152 92.5175 20.5347V11.2238H96.0461V27H93.0639Z" fill="#3D0072"/>
<path d="M14.0594 8.60237C14.0664 11.2712 14.0664 13.9399 14.0734 16.6087C14.0804 18.9093 13.3264 21.1502 11.1942 22.325C8.69725 23.6892 5.15875 23.3456 2.37423 23.058C2.26902 23.051 2.17083 23.037 2.07264 23.0299C2.16382 21.1081 2.12875 19.1688 2.03757 17.254C1.91833 14.6589 3.49295 11.5657 6.27746 11.1274C9.30396 10.6504 11.9342 10.3278 13.3615 8.65848C13.4106 8.60938 13.4527 8.56029 13.4948 8.50418C13.7052 8.22012 13.9296 7.94306 14.1541 7.66602C14.0839 7.96761 14.0594 8.28675 14.0594 8.60237Z" fill="#8807F7"/>
<path d="M4.90625 40.4383C6.98938 40.5716 9.08653 40.54 11.1732 40.5751C13.607 40.6172 16.0969 40.9188 18.4466 40.4909C21.8167 39.8772 25.6077 37.6784 26.8597 34.4204C28.0205 31.4044 27.4734 27.8028 25.4745 25.2708C25.3342 25.0954 25.1869 24.9271 25.0256 24.7588C23.0056 22.5494 19.8704 21.3956 16.893 21.7919C13.1861 22.2829 9.92118 25.1971 8.96028 28.8058C8.36059 31.0572 8.88312 33.456 8.53243 35.7495C8.24486 37.6503 6.62465 39.5967 4.90625 40.4383Z" fill="#8807F7"/>
<path d="M25.7406 0C25.5548 0.564618 25.7792 1.17833 26.0212 1.72191C29.1108 8.61656 37.3977 13.2808 37.1137 21.5607C36.9839 25.3061 35.1147 29.7073 31.99 31.9272C31.7621 32.0885 31.5552 32.2323 31.2886 32.306C30.6925 31.1908 30.6293 29.5565 30.1208 28.3256C29.4861 26.7825 28.6444 25.264 27.4696 24.0682C26.3438 22.9249 24.9341 22.2656 23.8083 21.1434C21.4446 18.7832 19.9542 15.5463 19.7578 12.2077C19.4702 7.44524 21.8514 2.72139 25.7406 0Z" fill="#8807F7"/>
<path d="M4.2275 16.6267C4.2275 16.6267 4.11878 14.5471 6.2475 14.6523C6.251 14.6523 7.02604 16.9248 4.2275 16.6267Z" fill="white" stroke="#8807F7" stroke-width="0.5" stroke-miterlimit="10"/>
<path d="M3.52799 34.22C5.47644 34.22 7.05597 32.6405 7.05597 30.692C7.05597 28.7436 5.47644 27.1641 3.52799 27.1641C1.57953 27.1641 0 28.7436 0 30.692C0 32.6405 1.57953 34.22 3.52799 34.22Z" fill="#8807F7"/>
</svg>
