<svg width="805" height="51" viewBox="0 0 805 51" fill="none" xmlns="http://www.w3.org/2000/svg">
<rect y="17" width="792" height="8" rx="4" fill="#F8F0FF"/>
<rect y="17" width="567" height="8" rx="4" fill="#8807F7"/>
<g opacity="0.5">
<g filter="url(#filter0_d_2339_68169)">
<circle cx="780" cy="21" r="15" fill="white"/>
</g>
<g clip-path="url(#clip0_2339_68169)">
<path d="M781.521 16.7778C781.786 16.9053 782.016 17.0941 782.194 17.3284C782.327 17.5003 782.43 17.6939 782.497 17.9004L782.801 18.8293C782.821 18.8922 782.859 18.9483 782.909 18.9915C782.959 19.0347 783.02 19.0634 783.085 19.0746C783.16 19.0879 783.238 19.0774 783.306 19.0445C783.375 19.0116 783.432 18.958 783.469 18.8912L783.466 18.8876C783.477 18.8682 783.486 18.8479 783.493 18.8269L783.796 17.8986C783.89 17.6161 784.048 17.3594 784.259 17.1491C784.469 16.9387 784.726 16.7804 785.009 16.6867L785.938 16.3849C786.009 16.3595 786.071 16.3126 786.115 16.2507C786.158 16.1887 786.182 16.1147 786.182 16.0389C786.182 15.963 786.158 15.8891 786.115 15.8271C786.071 15.7651 786.009 15.7182 785.938 15.6928L785.92 15.6879L784.99 15.3862C784.708 15.2924 784.451 15.134 784.24 14.9236C784.03 14.7133 783.871 14.4567 783.777 14.1743L783.475 13.2454C783.45 13.1737 783.403 13.1115 783.341 13.0676C783.279 13.0236 783.205 13 783.129 13C783.053 13 782.979 13.0236 782.917 13.0676C782.855 13.1115 782.808 13.1737 782.783 13.2454L782.481 14.1743L782.473 14.1974C782.408 14.3875 782.313 14.5662 782.192 14.7268L782.189 14.7256C781.96 15.0295 781.645 15.258 781.285 15.3819L780.356 15.6855C780.288 15.7075 780.229 15.7487 780.185 15.8039C780.14 15.8592 780.113 15.9261 780.106 15.9966C780.1 16.0671 780.113 16.138 780.146 16.2007C780.179 16.2634 780.23 16.3152 780.291 16.3497C780.312 16.3619 780.334 16.3722 780.356 16.3801L781.286 16.6818C781.367 16.7086 781.445 16.7407 781.521 16.7778ZM784.383 19.5828C784.395 19.5566 784.413 19.5331 784.434 19.5139C784.456 19.4946 784.481 19.4798 784.509 19.4704L785.066 19.2889C785.234 19.2312 785.386 19.1355 785.51 19.0095C785.634 18.8834 785.728 18.7303 785.783 18.5622L785.964 18.0048C785.98 17.9619 786.008 17.9248 786.045 17.8986C786.082 17.8724 786.127 17.8583 786.172 17.8583C786.218 17.8583 786.262 17.8724 786.299 17.8986C786.336 17.9248 786.364 17.9619 786.38 18.0048L786.561 18.5622C786.617 18.7316 786.712 18.8855 786.839 19.0117C786.965 19.1378 787.119 19.2328 787.289 19.2889L787.846 19.4704L787.858 19.4729C787.901 19.4878 787.938 19.5159 787.965 19.5531C787.991 19.5903 788.005 19.6348 788.005 19.6805C788.005 19.7262 787.991 19.7707 787.965 19.8079C787.938 19.8452 787.901 19.8732 787.858 19.8882L787.3 20.0697C787.066 20.1473 786.864 20.2977 786.722 20.4989V20.502C786.658 20.5931 786.608 20.6926 786.573 20.7989L786.391 21.3562C786.375 21.3991 786.347 21.4362 786.31 21.4624C786.273 21.4887 786.229 21.5028 786.183 21.5028C786.138 21.5028 786.093 21.4887 786.056 21.4624C786.019 21.4362 785.991 21.3991 785.975 21.3562L785.793 20.7989C785.737 20.629 785.642 20.4746 785.515 20.3481C785.389 20.2215 785.235 20.1264 785.065 20.0703L784.507 19.8882C784.477 19.8778 784.451 19.8614 784.428 19.8399C784.406 19.8184 784.388 19.7924 784.376 19.7636C784.365 19.7348 784.359 19.7039 784.36 19.6728C784.361 19.6417 784.369 19.6112 784.383 19.5834V19.5828ZM779.504 28.7864C783.41 28.7864 786.597 25.7143 786.782 21.8541C786.683 21.9572 786.56 22.033 786.423 22.0741C786.286 22.1153 786.142 22.1205 786.002 22.0892C785.863 22.0578 785.735 21.991 785.629 21.8952C785.523 21.7995 785.444 21.678 785.399 21.5426L785.217 20.9877C785.191 20.9085 785.146 20.8365 785.087 20.7771C785.029 20.7178 784.957 20.6727 784.878 20.6453L784.306 20.4595C784.144 20.4024 784.005 20.2967 783.906 20.157C783.807 20.0173 783.754 19.8504 783.754 19.6793C783.756 19.5966 783.769 19.5146 783.795 19.4358C783.674 19.5423 783.529 19.6171 783.372 19.6537C783.216 19.6902 783.052 19.6873 782.897 19.6451C782.742 19.603 782.6 19.523 782.483 19.4123C782.366 19.3016 782.279 19.1636 782.229 19.0108L781.925 18.0843C781.862 17.8911 781.754 17.7157 781.61 17.5725C781.467 17.4292 781.293 17.321 781.102 17.2562L780.158 16.9526C780.015 16.903 779.886 16.8208 779.781 16.7127C779.676 16.6046 779.597 16.4735 779.552 16.3297C779.506 16.186 779.494 16.0336 779.518 15.8845C779.541 15.7355 779.599 15.594 779.687 15.4712C779.807 15.303 779.977 15.1767 780.172 15.1106L781.091 14.8124C781.273 14.7493 781.439 14.6473 781.577 14.5137C780.904 14.3149 780.206 14.2143 779.504 14.215C775.481 14.215 772.219 17.4772 772.219 21.5007C772.219 25.5243 775.481 28.7864 779.504 28.7864ZM781.629 20.8936C781.388 20.8936 781.156 20.7976 780.985 20.6269C780.815 20.4561 780.719 20.2244 780.719 19.9829C780.719 19.7413 780.815 19.5097 780.985 19.3389C781.156 19.1681 781.388 19.0722 781.629 19.0722C781.871 19.0722 782.103 19.1681 782.273 19.3389C782.444 19.5097 782.54 19.7413 782.54 19.9829C782.54 20.2244 782.444 20.4561 782.273 20.6269C782.103 20.7976 781.871 20.8936 781.629 20.8936ZM778.29 19.9829C778.29 20.2244 778.194 20.4561 778.023 20.6269C777.853 20.7976 777.621 20.8936 777.379 20.8936C777.138 20.8936 776.906 20.7976 776.735 20.6269C776.565 20.4561 776.469 20.2244 776.469 19.9829C776.469 19.7413 776.565 19.5097 776.735 19.3389C776.906 19.1681 777.138 19.0722 777.379 19.0722C777.621 19.0722 777.853 19.1681 778.023 19.3389C778.194 19.5097 778.29 19.7413 778.29 19.9829ZM776.061 23.4011C776.16 23.3333 776.283 23.3078 776.401 23.33C776.519 23.3521 776.624 23.4203 776.692 23.5195L776.698 23.5268L776.724 23.5626C776.75 23.5954 776.791 23.6452 776.848 23.7071C776.961 23.8303 777.134 23.9985 777.369 24.1667C777.835 24.5024 778.54 24.84 779.504 24.84C780.469 24.84 781.174 24.5024 781.64 24.1667C781.875 23.9985 782.048 23.8303 782.161 23.7071C782.214 23.6494 782.265 23.5892 782.312 23.5268L782.316 23.5207C782.384 23.4209 782.489 23.3521 782.608 23.3297C782.726 23.3072 782.849 23.3328 782.949 23.4008C783.049 23.4688 783.118 23.5737 783.14 23.6924C783.163 23.8111 783.137 23.9339 783.069 24.0337L783.068 24.0343V24.0356L783.066 24.0374L783.062 24.0434L783.056 24.0507L783.048 24.0629C782.981 24.1531 782.909 24.2398 782.833 24.3227C782.633 24.539 782.412 24.7343 782.172 24.9056C781.583 25.33 780.696 25.7507 779.504 25.7507C778.313 25.7507 777.426 25.3294 776.837 24.9062C776.597 24.7345 776.376 24.5388 776.176 24.3221C776.095 24.2336 776.019 24.1408 775.948 24.0441L775.943 24.038L775.942 24.0356L775.941 24.0343L775.941 24.0337C775.873 23.9339 775.847 23.8112 775.87 23.6925C775.892 23.5739 775.961 23.469 776.061 23.4011Z" fill="#8807F7"/>
</g>
</g>
<g filter="url(#filter1_d_2339_68169)">
<circle cx="165" cy="21" r="15" fill="white"/>
</g>
<g clip-path="url(#clip1_2339_68169)">
<path d="M165 29C167.254 29 169.416 28.1045 171.01 26.5104C172.604 24.9163 173.5 22.7543 173.5 20.5C173.5 18.2457 172.604 16.0837 171.01 14.4896C169.416 12.8955 167.254 12 165 12C162.746 12 160.584 12.8955 158.99 14.4896C157.396 16.0837 156.5 18.2457 156.5 20.5C156.5 22.7543 157.396 24.9163 158.99 26.5104C160.584 28.1045 162.746 29 165 29ZM163.938 18.9062C163.938 19.786 163.462 20.5 162.875 20.5C162.288 20.5 161.812 19.786 161.812 18.9062C161.812 18.0265 162.288 17.3125 162.875 17.3125C163.462 17.3125 163.938 18.0265 163.938 18.9062ZM161.053 25.2101C160.931 25.1396 160.842 25.0236 160.805 24.8875C160.769 24.7514 160.788 24.6064 160.858 24.4844C161.278 23.7572 161.882 23.1535 162.609 22.7338C163.336 22.3141 164.161 22.0934 165 22.0938C165.839 22.0936 166.664 22.3144 167.391 22.7341C168.118 23.1537 168.722 23.7574 169.142 24.4844C169.211 24.6063 169.229 24.7508 169.192 24.8861C169.156 25.0215 169.067 25.1369 168.945 25.207C168.824 25.2772 168.68 25.2964 168.544 25.2606C168.408 25.2247 168.292 25.1366 168.221 25.0156C167.895 24.45 167.426 23.9804 166.86 23.6539C166.295 23.3275 165.653 23.1559 165 23.1562C164.347 23.1559 163.705 23.3275 163.14 23.6539C162.574 23.9804 162.105 24.45 161.779 25.0156C161.708 25.1376 161.592 25.2267 161.456 25.2631C161.32 25.2996 161.175 25.2805 161.053 25.2101ZM167.125 20.5C166.538 20.5 166.062 19.786 166.062 18.9062C166.062 18.0265 166.538 17.3125 167.125 17.3125C167.712 17.3125 168.188 18.0265 168.188 18.9062C168.188 19.786 167.712 20.5 167.125 20.5Z" fill="#8707F5"/>
</g>
<g filter="url(#filter2_d_2339_68169)">
<circle cx="575" cy="22" r="15" fill="white"/>
<circle cx="575" cy="22" r="14.5" stroke="#8807F7"/>
</g>
<path d="M575.501 13C580.196 13 584.002 16.8059 584.002 21.5008C584.002 26.1949 580.196 30 575.501 30C570.806 30.0009 567 26.1949 567 21.5008C567 16.8059 570.806 13 575.501 13ZM572.494 23.8662C572.388 23.7377 572.236 23.6557 572.07 23.638C571.905 23.6202 571.738 23.6679 571.608 23.771C571.477 23.8741 571.391 24.0243 571.37 24.1895C571.348 24.3547 571.393 24.5217 571.493 24.6549C571.97 25.2619 572.578 25.7526 573.273 26.0897C573.967 26.4269 574.729 26.6018 575.501 26.6012C577.082 26.6012 578.544 25.8762 579.506 24.66C579.558 24.5943 579.596 24.519 579.619 24.4385C579.642 24.3579 579.648 24.2737 579.639 24.1906C579.629 24.1074 579.603 24.027 579.562 23.9539C579.521 23.8808 579.466 23.8165 579.401 23.7646C579.335 23.7127 579.26 23.6742 579.179 23.6514C579.099 23.6286 579.014 23.6219 578.931 23.6316C578.848 23.6414 578.768 23.6674 578.695 23.7082C578.622 23.7491 578.557 23.8039 578.505 23.8696C578.148 24.3242 577.691 24.6915 577.171 24.9439C576.65 25.1963 576.079 25.327 575.501 25.3263C574.313 25.3263 573.215 24.7824 572.494 23.8662ZM572.951 18.7386C572.809 18.7346 572.668 18.7591 572.535 18.8107C572.403 18.8622 572.282 18.9398 572.181 19.0388C572.079 19.1378 571.998 19.2563 571.942 19.3871C571.887 19.5179 571.859 19.6586 571.859 19.8006C571.859 19.9426 571.887 20.0832 571.942 20.2141C571.998 20.3449 572.079 20.4634 572.181 20.5624C572.282 20.6614 572.403 20.739 572.535 20.7905C572.668 20.8421 572.809 20.8666 572.951 20.8626C573.228 20.8547 573.49 20.7394 573.683 20.5411C573.876 20.3428 573.983 20.0772 573.983 19.8006C573.983 19.524 573.876 19.2584 573.683 19.0601C573.49 18.8618 573.228 18.7464 572.951 18.7386ZM578.051 18.7386C577.909 18.7346 577.767 18.7591 577.635 18.8107C577.503 18.8622 577.382 18.9398 577.28 19.0388C577.178 19.1378 577.097 19.2563 577.042 19.3871C576.987 19.5179 576.958 19.6586 576.958 19.8006C576.958 19.9426 576.987 20.0832 577.042 20.2141C577.097 20.3449 577.178 20.4634 577.28 20.5624C577.382 20.6614 577.503 20.739 577.635 20.7905C577.767 20.8421 577.909 20.8666 578.051 20.8626C578.327 20.8547 578.59 20.7394 578.782 20.5411C578.975 20.3428 579.083 20.0772 579.083 19.8006C579.083 19.524 578.975 19.2584 578.782 19.0601C578.59 18.8618 578.327 18.7464 578.051 18.7386Z" fill="#8907F5"/>
<g filter="url(#filter3_d_2339_68169)">
<circle cx="370" cy="21" r="15" fill="white"/>
</g>
<g clip-path="url(#clip2_2339_68169)">
<path d="M370.5 29C372.754 29 374.916 28.1045 376.51 26.5104C378.104 24.9163 379 22.7543 379 20.5C379 18.2457 378.104 16.0837 376.51 14.4896C374.916 12.8955 372.754 12 370.5 12C368.246 12 366.084 12.8955 364.49 14.4896C362.896 16.0837 362 18.2457 362 20.5C362 22.7543 362.896 24.9163 364.49 26.5104C366.084 28.1045 368.246 29 370.5 29ZM366.781 18.375H368.906C369.047 18.375 369.182 18.431 369.282 18.5306C369.382 18.6302 369.438 18.7654 369.438 18.9062C369.438 19.0471 369.382 19.1823 369.282 19.2819C369.182 19.3815 369.047 19.4375 368.906 19.4375H366.781C366.64 19.4375 366.505 19.3815 366.406 19.2819C366.306 19.1823 366.25 19.0471 366.25 18.9062C366.25 18.7654 366.306 18.6302 366.406 18.5306C366.505 18.431 366.64 18.375 366.781 18.375ZM372.094 18.375H374.219C374.36 18.375 374.495 18.431 374.594 18.5306C374.694 18.6302 374.75 18.7654 374.75 18.9062C374.75 19.0471 374.694 19.1823 374.594 19.2819C374.495 19.3815 374.36 19.4375 374.219 19.4375H372.094C371.953 19.4375 371.818 19.3815 371.718 19.2819C371.618 19.1823 371.562 19.0471 371.562 18.9062C371.562 18.7654 371.618 18.6302 371.718 18.5306C371.818 18.431 371.953 18.375 372.094 18.375ZM366.781 22.625H374.219C374.36 22.625 374.495 22.681 374.594 22.7806C374.694 22.8802 374.75 23.0154 374.75 23.1562C374.75 23.2971 374.694 23.4323 374.594 23.5319C374.495 23.6315 374.36 23.6875 374.219 23.6875H366.781C366.64 23.6875 366.505 23.6315 366.406 23.5319C366.306 23.4323 366.25 23.2971 366.25 23.1562C366.25 23.0154 366.306 22.8802 366.406 22.7806C366.505 22.681 366.64 22.625 366.781 22.625Z" fill="#8707F5"/>
</g>
<defs>
<filter id="filter0_d_2339_68169" x="755" y="0" width="50" height="50" filterUnits="userSpaceOnUse" color-interpolation-filters="sRGB">
<feFlood flood-opacity="0" result="BackgroundImageFix"/>
<feColorMatrix in="SourceAlpha" type="matrix" values="0 0 0 0 0 0 0 0 0 0 0 0 0 0 0 0 0 0 127 0" result="hardAlpha"/>
<feOffset dy="4"/>
<feGaussianBlur stdDeviation="5"/>
<feComposite in2="hardAlpha" operator="out"/>
<feColorMatrix type="matrix" values="0 0 0 0 0.533333 0 0 0 0 0.027451 0 0 0 0 0.968627 0 0 0 0.07 0"/>
<feBlend mode="normal" in2="BackgroundImageFix" result="effect1_dropShadow_2339_68169"/>
<feBlend mode="normal" in="SourceGraphic" in2="effect1_dropShadow_2339_68169" result="shape"/>
</filter>
<filter id="filter1_d_2339_68169" x="140" y="0" width="50" height="50" filterUnits="userSpaceOnUse" color-interpolation-filters="sRGB">
<feFlood flood-opacity="0" result="BackgroundImageFix"/>
<feColorMatrix in="SourceAlpha" type="matrix" values="0 0 0 0 0 0 0 0 0 0 0 0 0 0 0 0 0 0 127 0" result="hardAlpha"/>
<feOffset dy="4"/>
<feGaussianBlur stdDeviation="5"/>
<feComposite in2="hardAlpha" operator="out"/>
<feColorMatrix type="matrix" values="0 0 0 0 0.533333 0 0 0 0 0.027451 0 0 0 0 0.968627 0 0 0 0.07 0"/>
<feBlend mode="normal" in2="BackgroundImageFix" result="effect1_dropShadow_2339_68169"/>
<feBlend mode="normal" in="SourceGraphic" in2="effect1_dropShadow_2339_68169" result="shape"/>
</filter>
<filter id="filter2_d_2339_68169" x="550" y="1" width="50" height="50" filterUnits="userSpaceOnUse" color-interpolation-filters="sRGB">
<feFlood flood-opacity="0" result="BackgroundImageFix"/>
<feColorMatrix in="SourceAlpha" type="matrix" values="0 0 0 0 0 0 0 0 0 0 0 0 0 0 0 0 0 0 127 0" result="hardAlpha"/>
<feOffset dy="4"/>
<feGaussianBlur stdDeviation="5"/>
<feComposite in2="hardAlpha" operator="out"/>
<feColorMatrix type="matrix" values="0 0 0 0 0.533333 0 0 0 0 0.027451 0 0 0 0 0.968627 0 0 0 0.07 0"/>
<feBlend mode="normal" in2="BackgroundImageFix" result="effect1_dropShadow_2339_68169"/>
<feBlend mode="normal" in="SourceGraphic" in2="effect1_dropShadow_2339_68169" result="shape"/>
</filter>
<filter id="filter3_d_2339_68169" x="345" y="0" width="50" height="50" filterUnits="userSpaceOnUse" color-interpolation-filters="sRGB">
<feFlood flood-opacity="0" result="BackgroundImageFix"/>
<feColorMatrix in="SourceAlpha" type="matrix" values="0 0 0 0 0 0 0 0 0 0 0 0 0 0 0 0 0 0 127 0" result="hardAlpha"/>
<feOffset dy="4"/>
<feGaussianBlur stdDeviation="5"/>
<feComposite in2="hardAlpha" operator="out"/>
<feColorMatrix type="matrix" values="0 0 0 0 0.533333 0 0 0 0 0.027451 0 0 0 0 0.968627 0 0 0 0.07 0"/>
<feBlend mode="normal" in2="BackgroundImageFix" result="effect1_dropShadow_2339_68169"/>
<feBlend mode="normal" in="SourceGraphic" in2="effect1_dropShadow_2339_68169" result="shape"/>
</filter>
<clipPath id="clip0_2339_68169">
<rect width="17" height="17" fill="white" transform="translate(771 13)"/>
</clipPath>
<clipPath id="clip1_2339_68169">
<rect width="17" height="17" fill="white" transform="translate(156.5 12)"/>
</clipPath>
<clipPath id="clip2_2339_68169">
<rect width="17" height="17" fill="white" transform="translate(362 12)"/>
</clipPath>
</defs>
</svg>
