<svg width="26" height="26" viewBox="0 0 26 26" fill="none" xmlns="http://www.w3.org/2000/svg">
<circle cx="13" cy="13" r="13" fill="#E7CCFF"/>
<path d="M12.0198 9.45885C12.0198 9.56969 11.979 9.68052 11.8915 9.76802L8.65984 12.9997L11.8915 16.2314C12.0607 16.4005 12.0607 16.6805 11.8915 16.8497C11.7223 17.0189 11.4423 17.0189 11.2732 16.8497L7.73234 13.3089C7.56318 13.1397 7.56318 12.8597 7.73234 12.6905L11.2732 9.14969C11.4423 8.98052 11.7223 8.98052 11.8915 9.14969C11.979 9.23135 12.0198 9.34802 12.0198 9.45885Z" fill="#8807F7"/>
<path d="M18.3956 13C18.3956 13.2392 18.1973 13.4375 17.9581 13.4375H8.14062C7.90146 13.4375 7.70312 13.2392 7.70312 13C7.70312 12.7608 7.90146 12.5625 8.14062 12.5625H17.9581C18.1973 12.5625 18.3956 12.7608 18.3956 13Z" fill="#8807F7"/>
</svg>
