<svg width="335" height="191" viewBox="0 0 335 191" fill="none" xmlns="http://www.w3.org/2000/svg">
<g clip-path="url(#clip0_4598_81546)">
<rect width="335" height="191" rx="7" fill="#F9F9F9"/>
<path d="M290.311 176.844C290.319 176.822 286.538 173.975 286.499 173.889C286.46 173.802 286.816 169.082 286.794 169.074C286.772 169.065 283.925 172.847 283.838 172.886C283.752 172.925 279.032 172.568 279.024 172.59C279.015 172.612 282.796 175.46 282.836 175.546C282.875 175.633 282.518 180.353 282.54 180.361C282.562 180.369 285.41 176.588 285.496 176.549C285.582 176.51 290.302 176.867 290.311 176.844Z" fill="#E8356D"/>
<path d="M290.311 176.844C290.319 176.822 286.538 173.975 286.499 173.889C286.46 173.802 286.816 169.082 286.794 169.074C286.772 169.065 283.925 172.847 283.838 172.886C283.752 172.925 279.032 172.568 279.024 172.59C279.015 172.612 282.796 175.46 282.836 175.546C282.875 175.633 282.518 180.353 282.54 180.361C282.562 180.369 285.41 176.588 285.496 176.549C285.582 176.51 290.302 176.867 290.311 176.844Z" fill="#E8356D" stroke="#E8356D" stroke-width="0.574323"/>
<path d="M331.31 60.7418C331.326 60.7123 326.595 55.9167 326.558 55.787C326.521 55.6574 328.005 49.0864 327.976 49.07C327.946 49.0536 323.151 53.7847 323.021 53.8218C322.891 53.8588 316.32 52.3744 316.304 52.4039C316.288 52.4333 321.019 57.229 321.056 57.3586C321.093 57.4883 319.608 64.0593 319.638 64.0757C319.667 64.092 324.463 59.3609 324.593 59.3239C324.722 59.2869 331.293 60.7713 331.31 60.7418Z" fill="#6812B2"/>
<path d="M331.31 60.7418C331.326 60.7123 326.595 55.9167 326.558 55.787C326.521 55.6574 328.005 49.0864 327.976 49.07C327.946 49.0536 323.151 53.7847 323.021 53.8218C322.891 53.8588 316.32 52.3744 316.304 52.4039C316.288 52.4333 321.019 57.229 321.056 57.3586C321.093 57.4883 319.608 64.0593 319.638 64.0757C319.667 64.092 324.463 59.3609 324.593 59.3239C324.722 59.2869 331.293 60.7713 331.31 60.7418Z" stroke="#6812B2" stroke-width="0.689187"/>
<path d="M174.093 52.5877C174.104 52.5724 171.763 49.6714 171.75 49.598C171.737 49.5246 172.916 45.9884 172.901 45.9778C172.885 45.9672 169.984 48.3079 169.911 48.3212C169.837 48.3344 166.301 47.1553 166.291 47.1706C166.28 47.1859 168.621 50.0869 168.634 50.1603C168.647 50.2337 167.468 53.7698 167.483 53.7805C167.499 53.7911 170.4 51.4503 170.473 51.4371C170.547 51.4238 174.083 52.603 174.093 52.5877Z" fill="#FFD00D"/>
<path d="M174.093 52.5877C174.104 52.5724 171.763 49.6714 171.75 49.598C171.737 49.5246 172.916 45.9884 172.901 45.9778C172.885 45.9672 169.984 48.3079 169.911 48.3212C169.837 48.3344 166.301 47.1553 166.291 47.1706C166.28 47.1859 168.621 50.0869 168.634 50.1603C168.647 50.2337 167.468 53.7698 167.483 53.7805C167.499 53.7911 170.4 51.4503 170.473 51.4371C170.547 51.4238 174.083 52.603 174.093 52.5877Z" stroke="#FFD00D" stroke-width="0.263855"/>
<path d="M204.855 112.567C204.866 112.552 202.525 109.651 202.512 109.578C202.498 109.504 203.678 105.968 203.662 105.958C203.647 105.947 200.746 108.288 200.673 108.301C200.599 108.314 197.063 107.135 197.052 107.15C197.042 107.166 199.382 110.067 199.396 110.14C199.409 110.213 198.23 113.75 198.245 113.76C198.26 113.771 201.161 111.43 201.235 111.417C201.308 111.404 204.844 112.583 204.855 112.567Z" fill="#FFD00D"/>
<path d="M204.855 112.567C204.866 112.552 202.525 109.651 202.512 109.578C202.498 109.504 203.678 105.968 203.662 105.958C203.647 105.947 200.746 108.288 200.673 108.301C200.599 108.314 197.063 107.135 197.052 107.15C197.042 107.166 199.382 110.067 199.396 110.14C199.409 110.213 198.23 113.75 198.245 113.76C198.26 113.771 201.161 111.43 201.235 111.417C201.308 111.404 204.844 112.583 204.855 112.567Z" stroke="#FFD00D" stroke-width="0.263855"/>
<path d="M126.336 168.112C126.343 168.093 123.163 165.699 123.13 165.626C123.097 165.554 123.397 161.585 123.379 161.578C123.36 161.571 120.966 164.75 120.893 164.783C120.82 164.816 116.851 164.516 116.844 164.535C116.837 164.553 120.017 166.948 120.05 167.02C120.083 167.093 119.783 171.062 119.801 171.069C119.82 171.076 122.214 167.896 122.287 167.864C122.359 167.831 126.328 168.131 126.336 168.112Z" fill="#6812B2"/>
<path d="M73.4125 7.28163C73.4291 7.25179 68.6366 2.39388 68.5991 2.26256C68.5616 2.13123 70.0653 -4.52506 70.0354 -4.54165C70.0056 -4.55823 65.1477 0.234269 65.0163 0.27178C64.885 0.30929 58.2287 -1.19437 58.2121 -1.16452C58.1955 -1.13468 62.988 3.72323 63.0256 3.85455C63.0631 3.98587 61.5594 10.6422 61.5893 10.6588C61.6191 10.6753 66.477 5.88284 66.6083 5.84533C66.7396 5.80782 73.3959 7.31148 73.4125 7.28163Z" fill="#8807F7"/>
<path d="M73.4125 7.28163C73.4291 7.25179 68.6366 2.39388 68.5991 2.26256C68.5616 2.13123 70.0653 -4.52506 70.0354 -4.54165C70.0056 -4.55823 65.1477 0.234269 65.0163 0.27178C64.885 0.30929 58.2287 -1.19437 58.2121 -1.16452C58.1955 -1.13468 62.988 3.72323 63.0256 3.85455C63.0631 3.98587 61.5594 10.6422 61.5893 10.6588C61.6191 10.6753 66.477 5.88284 66.6083 5.84533C66.7396 5.80782 73.3959 7.31148 73.4125 7.28163Z" fill="#8807F7" stroke="#8807F7" stroke-width="0.689187"/>
<path d="M92.1715 68.8598C92.1817 68.8452 89.9472 66.0759 89.9345 66.0058C89.9219 65.9357 91.0475 62.5601 91.0329 62.55C91.0183 62.5398 88.249 64.7743 88.1789 64.787C88.1089 64.7996 84.7333 63.674 84.7231 63.6886C84.713 63.7032 86.9474 66.4725 86.9601 66.5426C86.9727 66.6127 85.8471 69.9883 85.8617 69.9984C85.8764 70.0086 88.6456 67.7741 88.7157 67.7614C88.7858 67.7488 92.1614 68.8744 92.1715 68.8598Z" fill="white"/>
<path d="M92.1715 68.8598C92.1817 68.8452 89.9472 66.0759 89.9345 66.0058C89.9219 65.9357 91.0475 62.5601 91.0329 62.55C91.0183 62.5398 88.249 64.7743 88.1789 64.787C88.1089 64.7996 84.7333 63.674 84.7231 63.6886C84.713 63.7032 86.9474 66.4725 86.9601 66.5426C86.9727 66.6127 85.8471 69.9883 85.8617 69.9984C85.8764 70.0086 88.6456 67.7741 88.7157 67.7614C88.7858 67.7488 92.1614 68.8744 92.1715 68.8598Z" fill="white" stroke="white" stroke-width="0.12129"/>
<circle cx="45.9993" cy="145.236" r="17.2356" fill="#3D0072"/>
<path d="M34.8799 148.064C34.8706 147.992 34.9079 147.923 34.9727 147.891C35.8793 147.448 36.0878 147.178 36.285 146.189C36.2991 146.118 36.3568 146.064 36.4284 146.055C36.4999 146.045 36.5693 146.083 36.601 146.148C37.0436 147.054 37.3142 147.263 38.3035 147.46C38.3742 147.474 38.428 147.532 38.4373 147.603C38.4466 147.675 38.4092 147.744 38.3444 147.776C37.4379 148.218 37.2293 148.489 37.0321 149.478C37.018 149.549 36.9605 149.603 36.8889 149.612C36.8174 149.621 36.7479 149.584 36.7162 149.519C36.2736 148.613 36.003 148.404 35.0136 148.207C34.9429 148.193 34.8891 148.135 34.8799 148.064Z" fill="#8807F7"/>
<path d="M55.1123 144.365C55.103 144.293 55.1404 144.223 55.2052 144.192C56.1117 143.749 56.3203 143.479 56.5174 142.489C56.5316 142.419 56.5892 142.365 56.6608 142.356C56.7323 142.346 56.8018 142.384 56.8334 142.448C57.276 143.355 57.5466 143.563 58.5359 143.761C58.6067 143.775 58.6605 143.832 58.6697 143.904C58.679 143.975 58.6416 144.045 58.5768 144.077C57.6703 144.519 57.4618 144.79 57.2646 145.779C57.2504 145.85 57.1929 145.904 57.1213 145.913C57.0498 145.922 56.9803 145.885 56.9486 145.82C56.506 144.913 56.2355 144.705 55.2461 144.508C55.1754 144.494 55.1215 144.436 55.1123 144.365Z" fill="#D09CFC"/>
<path d="M38.8712 135.01C38.8669 134.977 38.8841 134.945 38.914 134.931C39.3317 134.727 39.4278 134.602 39.5187 134.146C39.5252 134.113 39.5517 134.089 39.5847 134.084C39.6177 134.08 39.6497 134.097 39.6642 134.127C39.8682 134.545 39.9929 134.641 40.4488 134.732C40.4813 134.738 40.5061 134.765 40.5104 134.798C40.5147 134.831 40.4975 134.863 40.4676 134.877C40.0499 135.081 39.9538 135.206 39.8629 135.662C39.8564 135.694 39.8299 135.719 39.7969 135.724C39.764 135.728 39.7319 135.711 39.7173 135.681C39.5134 135.263 39.3887 135.167 38.9328 135.076C38.9002 135.07 38.8755 135.043 38.8712 135.01Z" fill="#F0EEF2"/>
<path d="M53.9754 135.231C53.9735 135.217 53.9809 135.203 53.9935 135.197C54.1711 135.111 54.2119 135.058 54.2505 134.864C54.2533 134.85 54.2646 134.839 54.2786 134.838C54.2926 134.836 54.3062 134.843 54.3124 134.856C54.3991 135.033 54.4521 135.074 54.6458 135.113C54.6597 135.116 54.6702 135.127 54.672 135.141C54.6739 135.155 54.6665 135.168 54.6539 135.175C54.4763 135.261 54.4355 135.314 54.3969 135.508C54.3941 135.522 54.3828 135.532 54.3688 135.534C54.3548 135.536 54.3412 135.529 54.335 135.516C54.2483 135.339 54.1953 135.298 54.0016 135.259C53.9877 135.256 53.9772 135.245 53.9754 135.231Z" fill="#F0EEF2"/>
<path d="M46.8017 151.862V149.774C46.7139 149.793 46.6223 149.804 46.5279 149.804H45.5882C45.4939 149.804 45.4022 149.793 45.3145 149.774V151.862H46.8017Z" fill="#FFAE10"/>
<path d="M46.0816 151.878V149.834H45.6231C45.5106 149.834 45.4014 149.824 45.2969 149.804V151.878H46.0816Z" fill="#EE9513"/>
<path d="M46.063 148.765C45.4971 148.765 44.9552 148.66 44.4551 148.469V148.678C44.4551 149.313 44.966 149.827 45.5962 149.827H46.5298C47.16 149.827 47.6709 149.313 47.6709 148.678V148.469C47.1707 148.66 46.6288 148.765 46.063 148.765Z" fill="#FFD00D"/>
<path d="M47.7128 152.732V152.01C47.7128 151.893 47.6172 151.797 47.5003 151.797H44.6109C44.494 151.797 44.3984 151.893 44.3984 152.01V152.732H47.7128Z" fill="#EE8317"/>
<path d="M45.6732 152.732V152.01C45.6732 151.893 45.7688 151.797 45.8857 151.797H44.6109C44.494 151.797 44.3984 151.893 44.3984 152.01V152.732H45.6732Z" fill="#DB712C"/>
<path d="M50.0681 154.662V152.777C50.0681 152.714 49.9725 152.662 49.8556 152.662H42.2496C42.1327 152.662 42.0371 152.714 42.0371 152.777V154.662H50.0681Z" fill="#9F5F33"/>
<path d="M42.6957 154.662V152.777C42.6957 152.714 42.7913 152.662 42.9082 152.662H42.2496C42.1327 152.662 42.0371 152.714 42.0371 152.777V154.662H42.6957Z" fill="#86502A"/>
<path d="M50.9636 154.62H41.148C41.0312 154.62 40.9355 154.716 40.9355 154.833V155.23C42.4475 156.086 44.1945 156.575 46.0558 156.575C47.9172 156.575 49.6642 156.086 51.1761 155.23V154.833C51.1761 154.716 51.0805 154.62 50.9636 154.62Z" fill="#BE7D52"/>
<path d="M42.2316 154.833C42.2316 154.716 42.3272 154.62 42.444 154.62H41.148C41.0312 154.62 40.9355 154.716 40.9355 154.833V155.23C41.3507 155.465 41.7835 155.672 42.2316 155.849V154.833Z" fill="#AA6B3E"/>
<path d="M53.2043 137.722H51.5575V138.079C51.5575 138.173 51.4813 138.249 51.3875 138.249H50.6745C50.651 138.249 50.632 138.268 50.632 138.292V138.784H52.8594C52.7684 140.645 51.9269 142.313 50.632 143.489V144.168C50.632 144.415 50.612 144.657 50.5742 144.893C52.6021 143.467 53.9299 141.11 53.9299 138.448C53.9299 138.047 53.6044 137.722 53.2043 137.722Z" fill="#FFAE10"/>
<path d="M41.4777 144.178V143.5C40.1828 142.323 39.3412 140.656 39.2502 138.795H41.4777V138.302C41.4777 138.279 41.4587 138.26 41.4352 138.26H40.7221C40.6283 138.26 40.5521 138.183 40.5521 138.09V137.732H38.9053C38.5052 137.732 38.1797 138.058 38.1797 138.458C38.1797 141.12 39.5076 143.477 41.5354 144.904C41.4976 144.667 41.4777 144.425 41.4777 144.178Z" fill="#FFD00D"/>
<path d="M41.4375 138.281V144.2C41.4375 146.751 43.5058 148.819 46.0571 148.819C48.6084 148.819 50.6768 146.751 50.6768 144.2V138.281H41.4375Z" fill="#EE8317"/>
<path d="M42.3603 144.2V138.239H41.4375V144.2C41.4375 146.751 43.5058 148.82 46.0571 148.82C46.2119 148.82 46.3645 148.811 46.5153 148.796C44.1821 148.563 42.3603 146.594 42.3603 144.2Z" fill="#DB712C"/>
<path d="M46.0546 140.124C47.7912 140.124 49.199 141.532 49.199 143.268C49.199 145.005 47.7912 146.413 46.0546 146.413C44.318 146.413 42.9102 145.005 42.9102 143.268C42.9102 141.532 44.318 140.124 46.0546 140.124Z" fill="#DB712C"/>
<path d="M43.7175 143.268C43.7175 141.668 44.9124 140.349 46.4582 140.15C46.326 140.134 46.1915 140.124 46.0546 140.124C44.318 140.124 42.9102 141.532 42.9102 143.268C42.9102 145.005 44.318 146.413 46.0546 146.413C46.1915 146.413 46.326 146.403 46.4582 146.386C44.9124 146.188 43.7175 144.868 43.7175 143.268Z" fill="#C85E22"/>
<path d="M51.5982 138.092C51.5982 138.209 51.5026 138.305 51.3857 138.305H40.7203C40.6034 138.305 40.5078 138.209 40.5078 138.092V136.86C40.5078 136.743 40.6034 136.648 40.7203 136.648H51.3857C51.5026 136.648 51.5982 136.743 51.5982 136.86V138.092Z" fill="#FFD00D"/>
<path d="M41.8038 138.076V136.844C41.8038 136.727 41.8994 136.632 42.0163 136.632H40.7203C40.6034 136.632 40.5078 136.727 40.5078 136.844V138.076C40.5078 138.193 40.6034 138.289 40.7203 138.289H42.0163C41.8994 138.289 41.8038 138.193 41.8038 138.076Z" fill="#FFAE10"/>
<g filter="url(#filter0_d_4598_81546)">
<path d="M45.7544 142.107C45.755 142.344 45.755 142.582 45.7557 142.82C45.7563 143.025 45.6869 143.224 45.4905 143.329C45.2605 143.45 44.9345 143.42 44.6781 143.394C44.6684 143.393 44.6593 143.392 44.6503 143.391C44.6587 143.22 44.6555 143.048 44.6471 142.877C44.6361 142.646 44.7811 142.371 45.0376 142.332C45.3164 142.289 45.5586 142.26 45.6901 142.112C45.6946 142.107 45.6985 142.103 45.7024 142.098C45.7217 142.073 45.7424 142.048 45.7631 142.023C45.7566 142.05 45.7544 142.079 45.7544 142.107Z" fill="#FFD00D"/>
<path d="M44.9121 144.942C45.104 144.953 45.2971 144.951 45.4893 144.954C45.7135 144.958 45.9429 144.984 46.1593 144.946C46.4697 144.892 46.8189 144.696 46.9342 144.406C47.0411 144.137 46.9907 143.817 46.8066 143.591C46.7937 143.575 46.7801 143.56 46.7652 143.545C46.5792 143.349 46.2904 143.246 46.0162 143.281C45.6747 143.325 45.374 143.584 45.2855 143.906C45.2303 144.106 45.2784 144.32 45.2461 144.524C45.2196 144.693 45.0704 144.867 44.9121 144.942Z" fill="#FFD00D"/>
<path d="M46.8286 141.341C46.8115 141.391 46.8322 141.446 46.8545 141.494C47.139 142.108 47.9023 142.523 47.8762 143.261C47.8642 143.594 47.692 143.986 47.4042 144.184C47.3832 144.198 47.3642 144.211 47.3396 144.217C47.2847 144.118 47.2789 143.973 47.2321 143.863C47.1736 143.726 47.0961 143.59 46.9879 143.484C46.8842 143.382 46.7543 143.323 46.6506 143.223C46.4329 143.013 46.2956 142.725 46.2775 142.428C46.2511 142.004 46.4704 141.583 46.8286 141.341Z" fill="#FFD00D"/>
<path d="M44.8477 142.821C44.8477 142.821 44.8377 142.636 45.0338 142.646C45.0341 142.646 45.1055 142.848 44.8477 142.821Z" fill="white"/>
<path d="M44.7839 144.388C44.9634 144.388 45.1089 144.247 45.1089 144.074C45.1089 143.9 44.9634 143.76 44.7839 143.76C44.6045 143.76 44.459 143.9 44.459 144.074C44.459 144.247 44.6045 144.388 44.7839 144.388Z" fill="#FFD00D"/>
</g>
<path d="M50.6797 157.932L50.3516 158.237L50.7201 158.733L51.0483 158.435L50.6797 157.932Z" fill="#30D6AF"/>
<path d="M44.4676 157.417C44.4058 157.539 44.3385 157.657 44.2793 157.773C44.4515 157.964 44.8468 158.031 45.0782 157.969C45.0809 157.84 45.0863 157.711 45.089 157.565C44.8845 157.592 44.6452 157.547 44.4676 157.417Z" fill="#FFD700"/>
<g opacity="0.301471">
<path d="M49.2418 159.389C49.1019 159.529 48.8841 159.733 48.7227 159.892C48.7307 160.11 48.9163 160.314 49.2418 160.325C49.3871 160.183 49.6077 159.951 49.7691 159.779C49.4328 159.852 49.2418 159.677 49.2418 159.389Z" fill="#FF8164"/>
</g>
<path d="M41.3575 156.971L40.7227 157.536L41.0643 157.956L41.6992 157.405L41.3575 156.971Z" fill="#3F67F2"/>
<path d="M37.6759 155.898C37.5629 156.014 37.3962 156.186 37.2832 156.293C37.3236 156.522 37.5898 156.737 37.8105 156.772C37.9369 156.67 38.101 156.498 38.2005 156.404C37.9557 156.328 37.7431 156.162 37.6759 155.898Z" fill="#30D6AF"/>
<g opacity="0.801471">
<path d="M37.9656 156.985L37.3711 157.932L38.127 158.255L38.708 157.319L37.9656 156.985Z" fill="#FFD700"/>
</g>
<path d="M39.5804 156.194L39.5293 156.654L40.1776 156.758L40.1964 156.304L39.5804 156.194Z" fill="#FA7697"/>
<path d="M57.0207 155.746C57.086 155.746 57.1391 155.799 57.1391 155.864C57.1391 155.929 57.086 155.982 57.0207 155.982C56.9554 155.982 56.9023 155.929 56.9023 155.864C56.9023 155.799 56.9554 155.746 57.0207 155.746Z" fill="#FA7697"/>
<path d="M54.7327 154.651C54.8158 154.651 54.8833 154.719 54.8833 154.802C54.8833 154.885 54.8158 154.952 54.7327 154.952C54.6495 154.952 54.582 154.885 54.582 154.802C54.582 154.719 54.6495 154.651 54.7327 154.651Z" stroke="#7DDCFF" stroke-width="0.129123"/>
<path d="M49.1555 156.478C49.2208 156.478 49.2738 156.531 49.2738 156.596C49.2738 156.661 49.2208 156.714 49.1555 156.714C49.0901 156.714 49.0371 156.661 49.0371 156.596C49.0371 156.531 49.0901 156.478 49.1555 156.478Z" fill="#3568F9"/>
<path d="M54.7182 157.651C54.8429 157.651 54.9441 157.753 54.9441 157.877C54.9441 158.002 54.8429 158.103 54.7182 158.103C54.5934 158.103 54.4922 158.002 54.4922 157.877C54.4922 157.753 54.5934 157.651 54.7182 157.651Z" stroke="#7DFFAE" stroke-width="0.193685"/>
<path d="M45.6836 159.389L45.3555 159.694L45.724 160.191L46.0522 159.892L45.6836 159.389Z" fill="#30D6AF"/>
<path d="M50.9852 159.558C50.9233 159.679 50.8561 159.797 50.7969 159.913C50.969 160.104 51.3644 160.171 51.5958 160.109C51.5985 159.98 51.6039 159.851 51.6066 159.706C51.4021 159.732 51.1628 159.687 50.9852 159.558Z" fill="#FFD700"/>
<g opacity="0.301471">
<path d="M46.6403 157.206C46.5004 157.346 46.2825 157.55 46.1211 157.709C46.1292 157.927 46.3148 158.131 46.6403 158.142C46.7856 157.999 47.0061 157.768 47.1675 157.596C46.8313 157.669 46.6403 157.494 46.6403 157.206Z" fill="#FF8164"/>
</g>
<path d="M39.7696 157.988L39.1348 158.553L39.4764 158.973L40.1113 158.421L39.7696 157.988Z" fill="#3F67F2"/>
<path d="M53.0372 157.371C52.9242 157.487 52.7576 157.659 52.6445 157.767C52.6849 157.995 52.9512 158.21 53.1718 158.245C53.2982 158.143 53.4623 157.971 53.5618 157.877C53.317 157.802 53.1045 157.635 53.0372 157.371Z" fill="#30D6AF"/>
<g opacity="0.801471">
<path d="M43.5417 158.548L42.9473 159.495L43.7032 159.818L44.2842 158.881L43.5417 158.548Z" fill="#FFD700"/>
</g>
<path d="M52.3714 156.036L52.3203 156.496L52.9686 156.601L52.9875 156.146L52.3714 156.036Z" fill="#FA7697"/>
<path d="M26.008 173.719C26.3707 173.719 26.6347 173.658 26.8 173.535C26.9653 173.413 27.048 173.239 27.048 173.015C27.048 172.882 27.0187 172.767 26.96 172.671C26.9067 172.575 26.8267 172.49 26.72 172.415C26.6187 172.335 26.4933 172.263 26.344 172.199C26.1947 172.13 26.024 172.063 25.832 171.999C25.64 171.93 25.4533 171.855 25.272 171.775C25.096 171.69 24.9387 171.586 24.8 171.463C24.6667 171.341 24.5573 171.194 24.472 171.023C24.392 170.853 24.352 170.647 24.352 170.407C24.352 169.906 24.5253 169.514 24.872 169.231C25.2187 168.943 25.6907 168.799 26.288 168.799C26.6347 168.799 26.9413 168.839 27.208 168.919C27.48 168.994 27.6933 169.077 27.848 169.167L27.536 169.983C27.3547 169.882 27.1547 169.805 26.936 169.751C26.7227 169.698 26.5013 169.671 26.272 169.671C26 169.671 25.7867 169.727 25.632 169.839C25.4827 169.951 25.408 170.109 25.408 170.311C25.408 170.434 25.432 170.541 25.48 170.631C25.5333 170.717 25.6053 170.794 25.696 170.863C25.792 170.933 25.9013 170.997 26.024 171.055C26.152 171.114 26.2907 171.17 26.44 171.223C26.7013 171.319 26.9333 171.418 27.136 171.519C27.344 171.615 27.5173 171.733 27.656 171.871C27.8 172.005 27.9093 172.165 27.984 172.351C28.0587 172.533 28.096 172.754 28.096 173.015C28.096 173.517 27.9173 173.906 27.56 174.183C27.208 174.455 26.6907 174.591 26.008 174.591C25.7787 174.591 25.568 174.575 25.376 174.543C25.1893 174.517 25.0213 174.482 24.872 174.439C24.728 174.397 24.6027 174.354 24.496 174.311C24.3893 174.263 24.304 174.221 24.24 174.183L24.536 173.359C24.68 173.439 24.8747 173.519 25.12 173.599C25.3653 173.679 25.6613 173.719 26.008 173.719ZM32.3683 174.343C32.1816 174.391 31.939 174.439 31.6403 174.487C31.3416 174.541 31.0136 174.567 30.6563 174.567C30.3203 174.567 30.0376 174.519 29.8083 174.423C29.5843 174.327 29.403 174.194 29.2643 174.023C29.131 173.853 29.035 173.65 28.9763 173.415C28.9176 173.175 28.8883 172.914 28.8883 172.631V170.287H29.8563V172.479C29.8563 172.927 29.9203 173.247 30.0483 173.439C30.1816 173.631 30.411 173.727 30.7363 173.727C30.8536 173.727 30.9763 173.722 31.1043 173.711C31.2376 173.701 31.3363 173.687 31.4003 173.671V170.287H32.3683V174.343ZM36.3764 172.399C36.3764 171.967 36.2777 171.631 36.0804 171.391C35.8884 171.151 35.5764 171.031 35.1444 171.031C35.0537 171.031 34.9577 171.037 34.8564 171.047C34.7604 171.053 34.6644 171.069 34.5684 171.095V173.487C34.6537 173.546 34.7657 173.602 34.9044 173.655C35.0484 173.703 35.2004 173.727 35.3604 173.727C35.7124 173.727 35.9684 173.607 36.1284 173.367C36.2937 173.127 36.3764 172.805 36.3764 172.399ZM37.3684 172.383C37.3684 172.703 37.3257 172.997 37.2404 173.263C37.1604 173.53 37.043 173.759 36.8884 173.951C36.7337 174.143 36.539 174.293 36.3044 174.399C36.075 174.506 35.8137 174.559 35.5204 174.559C35.323 174.559 35.1417 174.535 34.9764 174.487C34.811 174.439 34.675 174.386 34.5684 174.327V175.951H33.6004V170.423C33.7977 170.37 34.0404 170.319 34.3284 170.271C34.6164 170.223 34.9204 170.199 35.2404 170.199C35.571 170.199 35.867 170.25 36.1284 170.351C36.3897 170.453 36.611 170.599 36.7924 170.791C36.979 170.978 37.1204 171.207 37.2164 171.479C37.3177 171.746 37.3684 172.047 37.3684 172.383ZM38.134 172.399C38.134 172.031 38.1873 171.709 38.294 171.431C38.406 171.154 38.5527 170.925 38.734 170.743C38.9153 170.557 39.1233 170.418 39.358 170.327C39.5927 170.231 39.8327 170.183 40.078 170.183C40.654 170.183 41.102 170.362 41.422 170.719C41.7473 171.077 41.91 171.61 41.91 172.319C41.91 172.373 41.9073 172.434 41.902 172.503C41.902 172.567 41.8993 172.626 41.894 172.679H39.134C39.1607 173.015 39.278 173.277 39.486 173.463C39.6993 173.645 40.006 173.735 40.406 173.735C40.6407 173.735 40.854 173.714 41.046 173.671C41.2433 173.629 41.398 173.583 41.51 173.535L41.638 174.327C41.5847 174.354 41.51 174.383 41.414 174.415C41.3233 174.442 41.2167 174.466 41.094 174.487C40.9767 174.514 40.8487 174.535 40.71 174.551C40.5713 174.567 40.43 174.575 40.286 174.575C39.918 174.575 39.598 174.522 39.326 174.415C39.054 174.303 38.83 174.151 38.654 173.959C38.478 173.762 38.3473 173.533 38.262 173.271C38.1767 173.005 38.134 172.714 38.134 172.399ZM40.942 171.967C40.942 171.834 40.9233 171.709 40.886 171.591C40.8487 171.469 40.7927 171.365 40.718 171.279C40.6487 171.189 40.5607 171.119 40.454 171.071C40.3527 171.018 40.23 170.991 40.086 170.991C39.9367 170.991 39.806 171.021 39.694 171.079C39.582 171.133 39.486 171.205 39.406 171.295C39.3313 171.386 39.2727 171.49 39.23 171.607C39.1873 171.725 39.158 171.845 39.142 171.967H40.942ZM45.3203 171.159C45.2403 171.133 45.1283 171.106 44.9843 171.079C44.8456 171.047 44.683 171.031 44.4963 171.031C44.3896 171.031 44.275 171.042 44.1523 171.063C44.035 171.085 43.9523 171.103 43.9043 171.119V174.471H42.9363V170.487C43.123 170.418 43.355 170.354 43.6323 170.295C43.915 170.231 44.227 170.199 44.5683 170.199C44.6323 170.199 44.707 170.205 44.7923 170.215C44.8776 170.221 44.963 170.231 45.0483 170.247C45.1336 170.258 45.2163 170.274 45.2963 170.295C45.3763 170.311 45.4403 170.327 45.4883 170.343L45.3203 171.159ZM49.4221 173.719C49.7847 173.719 50.0487 173.658 50.2141 173.535C50.3794 173.413 50.4621 173.239 50.4621 173.015C50.4621 172.882 50.4327 172.767 50.3741 172.671C50.3207 172.575 50.2407 172.49 50.1341 172.415C50.0327 172.335 49.9074 172.263 49.7581 172.199C49.6087 172.13 49.4381 172.063 49.2461 171.999C49.0541 171.93 48.8674 171.855 48.6861 171.775C48.5101 171.69 48.3527 171.586 48.2141 171.463C48.0807 171.341 47.9714 171.194 47.8861 171.023C47.8061 170.853 47.7661 170.647 47.7661 170.407C47.7661 169.906 47.9394 169.514 48.2861 169.231C48.6327 168.943 49.1047 168.799 49.7021 168.799C50.0487 168.799 50.3554 168.839 50.6221 168.919C50.8941 168.994 51.1074 169.077 51.2621 169.167L50.9501 169.983C50.7687 169.882 50.5687 169.805 50.3501 169.751C50.1367 169.698 49.9154 169.671 49.6861 169.671C49.4141 169.671 49.2007 169.727 49.0461 169.839C48.8967 169.951 48.8221 170.109 48.8221 170.311C48.8221 170.434 48.8461 170.541 48.8941 170.631C48.9474 170.717 49.0194 170.794 49.1101 170.863C49.2061 170.933 49.3154 170.997 49.4381 171.055C49.5661 171.114 49.7047 171.17 49.8541 171.223C50.1154 171.319 50.3474 171.418 50.5501 171.519C50.7581 171.615 50.9314 171.733 51.0701 171.871C51.2141 172.005 51.3234 172.165 51.3981 172.351C51.4727 172.533 51.5101 172.754 51.5101 173.015C51.5101 173.517 51.3314 173.906 50.9741 174.183C50.6221 174.455 50.1047 174.591 49.4221 174.591C49.1927 174.591 48.9821 174.575 48.7901 174.543C48.6034 174.517 48.4354 174.482 48.2861 174.439C48.1421 174.397 48.0167 174.354 47.9101 174.311C47.8034 174.263 47.7181 174.221 47.6541 174.183L47.9501 173.359C48.0941 173.439 48.2887 173.519 48.5341 173.599C48.7794 173.679 49.0754 173.719 49.4221 173.719ZM53.8224 173.791C54.121 173.791 54.3477 173.775 54.5024 173.743V172.671C54.449 172.655 54.3717 172.639 54.2704 172.623C54.169 172.607 54.057 172.599 53.9344 172.599C53.8277 172.599 53.7184 172.607 53.6064 172.623C53.4997 172.639 53.401 172.669 53.3104 172.711C53.225 172.754 53.1557 172.815 53.1024 172.895C53.049 172.97 53.0224 173.066 53.0224 173.183C53.0224 173.413 53.0944 173.573 53.2384 173.663C53.3824 173.749 53.577 173.791 53.8224 173.791ZM53.7424 170.183C54.0624 170.183 54.3317 170.223 54.5504 170.303C54.769 170.383 54.9424 170.495 55.0704 170.639C55.2037 170.783 55.297 170.959 55.3504 171.167C55.409 171.37 55.4384 171.594 55.4384 171.839V174.375C55.289 174.407 55.0624 174.445 54.7584 174.487C54.4597 174.535 54.121 174.559 53.7424 174.559C53.4917 174.559 53.2624 174.535 53.0544 174.487C52.8464 174.439 52.6677 174.362 52.5184 174.255C52.3744 174.149 52.2597 174.01 52.1744 173.839C52.0944 173.669 52.0544 173.458 52.0544 173.207C52.0544 172.967 52.0997 172.765 52.1904 172.599C52.2864 172.434 52.4144 172.301 52.5744 172.199C52.7344 172.093 52.9184 172.018 53.1264 171.975C53.3397 171.927 53.561 171.903 53.7904 171.903C53.897 171.903 54.009 171.911 54.1264 171.927C54.2437 171.938 54.369 171.959 54.5024 171.991V171.831C54.5024 171.719 54.489 171.613 54.4624 171.511C54.4357 171.41 54.3877 171.322 54.3184 171.247C54.2544 171.167 54.1664 171.106 54.0544 171.063C53.9477 171.021 53.8117 170.999 53.6464 170.999C53.4224 170.999 53.217 171.015 53.0304 171.047C52.8437 171.079 52.6917 171.117 52.5744 171.159L52.4544 170.375C52.577 170.333 52.7557 170.29 52.9904 170.247C53.225 170.205 53.4757 170.183 53.7424 170.183ZM57.5943 174.471C57.3276 173.922 57.0529 173.293 56.7703 172.583C56.4929 171.869 56.2396 171.103 56.0103 170.287H57.0423C57.1009 170.522 57.1676 170.775 57.2423 171.047C57.3223 171.314 57.4049 171.583 57.4903 171.855C57.5809 172.122 57.6716 172.383 57.7623 172.639C57.8583 172.89 57.9463 173.117 58.0263 173.319C58.1063 173.117 58.1916 172.89 58.2823 172.639C58.3729 172.383 58.4609 172.122 58.5463 171.855C58.6369 171.583 58.7223 171.314 58.8023 171.047C58.8823 170.775 58.9516 170.522 59.0103 170.287H60.0103C59.7809 171.103 59.5249 171.869 59.2423 172.583C58.9649 173.293 58.6929 173.922 58.4263 174.471H57.5943ZM60.4074 172.399C60.4074 172.031 60.4608 171.709 60.5674 171.431C60.6794 171.154 60.8261 170.925 61.0074 170.743C61.1888 170.557 61.3968 170.418 61.6314 170.327C61.8661 170.231 62.1061 170.183 62.3514 170.183C62.9274 170.183 63.3754 170.362 63.6954 170.719C64.0208 171.077 64.1834 171.61 64.1834 172.319C64.1834 172.373 64.1808 172.434 64.1754 172.503C64.1754 172.567 64.1728 172.626 64.1674 172.679H61.4074C61.4341 173.015 61.5514 173.277 61.7594 173.463C61.9728 173.645 62.2794 173.735 62.6794 173.735C62.9141 173.735 63.1274 173.714 63.3194 173.671C63.5168 173.629 63.6714 173.583 63.7834 173.535L63.9114 174.327C63.8581 174.354 63.7834 174.383 63.6874 174.415C63.5968 174.442 63.4901 174.466 63.3674 174.487C63.2501 174.514 63.1221 174.535 62.9834 174.551C62.8448 174.567 62.7034 174.575 62.5594 174.575C62.1914 174.575 61.8714 174.522 61.5994 174.415C61.3274 174.303 61.1034 174.151 60.9274 173.959C60.7514 173.762 60.6208 173.533 60.5354 173.271C60.4501 173.005 60.4074 172.714 60.4074 172.399ZM63.2154 171.967C63.2154 171.834 63.1968 171.709 63.1594 171.591C63.1221 171.469 63.0661 171.365 62.9914 171.279C62.9221 171.189 62.8341 171.119 62.7274 171.071C62.6261 171.018 62.5034 170.991 62.3594 170.991C62.2101 170.991 62.0794 171.021 61.9674 171.079C61.8554 171.133 61.7594 171.205 61.6794 171.295C61.6048 171.386 61.5461 171.49 61.5034 171.607C61.4608 171.725 61.4314 171.845 61.4154 171.967H63.2154ZM67.5938 171.159C67.5138 171.133 67.4018 171.106 67.2578 171.079C67.1191 171.047 66.9564 171.031 66.7698 171.031C66.6631 171.031 66.5484 171.042 66.4258 171.063C66.3084 171.085 66.2258 171.103 66.1778 171.119V174.471H65.2098V170.487C65.3964 170.418 65.6284 170.354 65.9058 170.295C66.1884 170.231 66.5004 170.199 66.8418 170.199C66.9058 170.199 66.9804 170.205 67.0658 170.215C67.1511 170.221 67.2364 170.231 67.3218 170.247C67.4071 170.258 67.4898 170.274 67.5698 170.295C67.6498 170.311 67.7138 170.327 67.7618 170.343L67.5938 171.159Z" fill="#3D0072"/>
</g>
<defs>
<filter id="filter0_d_4598_81546" x="43.8985" y="141.117" width="4.53898" height="4.74675" filterUnits="userSpaceOnUse" color-interpolation-filters="sRGB">
<feFlood flood-opacity="0" result="BackgroundImageFix"/>
<feColorMatrix in="SourceAlpha" type="matrix" values="0 0 0 0 0 0 0 0 0 0 0 0 0 0 0 0 0 0 127 0" result="hardAlpha"/>
<feOffset dy="0.336305"/>
<feGaussianBlur stdDeviation="0.280254"/>
<feComposite in2="hardAlpha" operator="out"/>
<feColorMatrix type="matrix" values="0 0 0 0 0.316667 0 0 0 0 0.255165 0 0 0 0 0 0 0 0 0.1 0"/>
<feBlend mode="normal" in2="BackgroundImageFix" result="effect1_dropShadow_4598_81546"/>
<feBlend mode="normal" in="SourceGraphic" in2="effect1_dropShadow_4598_81546" result="shape"/>
</filter>
<clipPath id="clip0_4598_81546">
<rect width="335" height="191" rx="12" fill="white"/>
</clipPath>
</defs>
</svg>
