<svg width="36" height="37" viewBox="0 0 36 37" fill="none" xmlns="http://www.w3.org/2000/svg">
<ellipse cx="18" cy="18.144" rx="18" ry="18.144" fill="#E9D6FA"/>
<path d="M18 27C16.9333 27 15.925 26.825 14.975 26.475C14.025 26.125 13.1667 25.6417 12.4 25.025L11.125 26.3C10.925 26.5 10.6917 26.5957 10.425 26.587C10.1583 26.579 9.925 26.475 9.725 26.275C9.525 26.075 9.425 25.8373 9.425 25.562C9.425 25.2873 9.525 25.05 9.725 24.85L10.975 23.6C10.3583 22.8333 9.875 21.9707 9.525 21.012C9.175 20.054 9 19.05 9 18C9 15.5 9.87933 13.375 11.638 11.625C13.396 9.875 15.5167 9 18 9H25C25.55 9 26.021 9.19567 26.413 9.587C26.8043 9.979 27 10.45 27 11V18C27 20.4833 26.125 22.6043 24.375 24.363C22.625 26.121 20.5 27 18 27ZM16.675 22.875L21.85 18.25C22.0167 18.1 22.0667 17.9207 22 17.712C21.9333 17.504 21.7833 17.3833 21.55 17.35L17.5 16.95L19.925 13.625C19.9917 13.5417 20.0207 13.454 20.012 13.362C20.004 13.2707 19.9667 13.1833 19.9 13.1C19.8167 13.0167 19.721 12.975 19.613 12.975C19.5043 12.975 19.4083 13.0167 19.325 13.1L14.175 17.725C14.0083 17.875 13.9583 18.054 14.025 18.262C14.0917 18.4707 14.2417 18.5917 14.475 18.625L18.525 19.025L16.075 22.35C16.025 22.4333 16 22.521 16 22.613C16 22.7043 16.0417 22.7917 16.125 22.875C16.2083 22.9583 16.3 23 16.4 23C16.5 23 16.5917 22.9583 16.675 22.875Z" fill="#8807F7"/>
</svg>
