<svg width="57" height="57" viewBox="0 0 57 57" fill="none" xmlns="http://www.w3.org/2000/svg">
<circle cx="28.5" cy="28.5" r="27.5" stroke="#9CA3AF" stroke-width="1.23134"/>
<path d="M38.7526 30.0384H31.0443V37.7467C31.0443 38.1556 30.8818 38.5477 30.5927 38.8369C30.3036 39.126 29.9115 39.2884 29.5026 39.2884C29.0937 39.2884 28.7016 39.126 28.4125 38.8369C28.1234 38.5477 27.9609 38.1556 27.9609 37.7467V30.0384H20.2526C19.8437 30.0384 19.4516 29.876 19.1625 29.5869C18.8734 29.2977 18.7109 28.9056 18.7109 28.4967C18.7109 28.0879 18.8734 27.6957 19.1625 27.4066C19.4516 27.1175 19.8437 26.9551 20.2526 26.9551H27.9609V19.2467C27.9609 18.8379 28.1234 18.4457 28.4125 18.1566C28.7016 17.8675 29.0937 17.7051 29.5026 17.7051C29.9115 17.7051 30.3036 17.8675 30.5927 18.1566C30.8818 18.4457 31.0443 18.8379 31.0443 19.2467V26.9551H38.7526C39.1615 26.9551 39.5536 27.1175 39.8427 27.4066C40.1318 27.6957 40.2943 28.0879 40.2943 28.4967C40.2943 28.9056 40.1318 29.2977 39.8427 29.5869C39.5536 29.876 39.1615 30.0384 38.7526 30.0384Z" fill="#9CA3AF"/>
</svg>
