<svg width="197" height="197" viewBox="0 0 197 197" fill="none" xmlns="http://www.w3.org/2000/svg">
<circle cx="98.5" cy="98.5" r="98.5" fill="url(#paint0_radial_3008_64049)"/>
<path d="M137.189 55.1253L98.0605 42L59.3076 54.9473C54.3621 57.1233 50.0002 58.4487 50.0002 62.7414V84.1653C49.9647 99.3307 54.403 114.17 62.7596 126.825C71.3843 140 83.799 150.253 98.3672 156.231C114.193 151.424 126.062 138.615 133.253 127.656C141.617 115.008 146.06 100.17 146.022 85.006V65.7285C146.091 59.5961 142.61 56.5991 137.189 55.1253Z" fill="#8807F7"/>
<path d="M98.3576 147.794L98.1993 147.724C85.7698 142.629 75.1345 133.955 67.6431 122.804C60.1517 111.653 56.1421 98.5282 56.123 85.0947V66.5985C56.123 62.9784 59.3178 61.653 63.0467 60.0408L64.4315 59.4375L98.0608 48.1914L131.957 59.566C137.368 61.0398 139.999 64.195 139.999 69.1999V85.8266C140.02 99.0054 136.16 111.899 128.901 122.898C124.084 130.198 113.728 143.135 98.5257 147.754L98.3576 147.794ZM98.0608 49.23L64.837 60.3474L63.4523 60.9508C59.8915 62.4048 57.1121 63.6312 57.1121 66.5985V85.0947C57.1337 98.309 61.0744 111.22 68.4357 122.194C75.797 133.168 86.248 141.712 98.4664 146.745C113.303 142.176 123.402 129.505 128.139 122.344C135.272 111.5 139.055 98.7963 139.019 85.8167V69.19C139.019 64.6302 136.685 61.8706 131.7 60.5057L98.0608 49.23Z" fill="white"/>
<path d="M96.7742 115.68L74.6777 97.194L81.1267 89.4889L95.9434 101.882L118.633 77.7285L125.963 84.6028L96.7742 115.68Z" fill="white"/>
<defs>
<radialGradient id="paint0_radial_3008_64049" cx="0" cy="0" r="1" gradientUnits="userSpaceOnUse" gradientTransform="translate(147.75 120) rotate(-60.5434) scale(252.662)">
<stop stop-color="#E7CDFE"/>
<stop offset="1" stop-color="#E7CDFE" stop-opacity="0.09"/>
</radialGradient>
</defs>
</svg>
