<svg width="143" height="215" viewBox="0 0 143 215" fill="none" xmlns="http://www.w3.org/2000/svg">
<rect width="143" height="214.301" rx="71.5" fill="#BBF7D0"/>
<rect x="46.6055" y="165.306" width="50.1894" height="17.1281" rx="8.56407" fill="#86EFAC"/>
<path d="M58.6988 175.622C59.06 175.622 59.3229 175.56 59.4875 175.438C59.6522 175.316 59.7345 175.144 59.7345 174.92C59.7345 174.788 59.7053 174.673 59.6469 174.578C59.5937 174.482 59.5141 174.397 59.4079 174.323C59.3069 174.243 59.1821 174.172 59.0334 174.108C58.8847 174.039 58.7148 173.972 58.5236 173.909C58.3324 173.84 58.1465 173.765 57.9659 173.686C57.7906 173.601 57.634 173.497 57.4959 173.375C57.3631 173.253 57.2542 173.107 57.1692 172.937C57.0896 172.767 57.0497 172.562 57.0497 172.323C57.0497 171.824 57.2224 171.434 57.5676 171.152C57.9128 170.865 58.3828 170.722 58.9777 170.722C59.3229 170.722 59.6283 170.762 59.8938 170.842C60.1647 170.916 60.3771 170.998 60.5311 171.089L60.2204 171.901C60.0399 171.8 59.8407 171.723 59.623 171.67C59.4105 171.617 59.1901 171.59 58.9617 171.59C58.6909 171.59 58.4784 171.646 58.3244 171.758C58.1757 171.869 58.1013 172.026 58.1013 172.228C58.1013 172.35 58.1252 172.456 58.173 172.546C58.2261 172.631 58.2978 172.708 58.3881 172.777C58.4837 172.846 58.5926 172.91 58.7148 172.969C58.8422 173.027 58.9803 173.083 59.129 173.136C59.3893 173.232 59.6203 173.33 59.8221 173.431C60.0292 173.526 60.2019 173.643 60.3399 173.781C60.4833 173.914 60.5922 174.073 60.6666 174.259C60.7409 174.44 60.7781 174.66 60.7781 174.92C60.7781 175.42 60.6002 175.807 60.2443 176.084C59.8938 176.354 59.3786 176.49 58.6988 176.49C58.4705 176.49 58.2607 176.474 58.0695 176.442C57.8836 176.416 57.7163 176.381 57.5676 176.338C57.4242 176.296 57.2994 176.254 57.1931 176.211C57.0869 176.163 57.0019 176.121 56.9382 176.084L57.233 175.263C57.3764 175.343 57.5702 175.422 57.8145 175.502C58.0588 175.582 58.3536 175.622 58.6988 175.622ZM61.3839 174.307C61.3839 173.941 61.437 173.619 61.5432 173.343C61.6547 173.067 61.8008 172.839 61.9814 172.658C62.1619 172.472 62.3691 172.334 62.6028 172.244C62.8364 172.148 63.0754 172.1 63.3198 172.1C63.8933 172.1 64.3395 172.278 64.6581 172.634C64.9821 172.99 65.1441 173.521 65.1441 174.227C65.1441 174.28 65.1414 174.342 65.1361 174.411C65.1361 174.474 65.1335 174.533 65.1282 174.586H62.3797C62.4063 174.92 62.5231 175.181 62.7302 175.367C62.9427 175.547 63.2481 175.637 63.6464 175.637C63.8801 175.637 64.0925 175.616 64.2837 175.574C64.4802 175.531 64.6342 175.486 64.7458 175.438L64.8732 176.227C64.8201 176.254 64.7458 176.283 64.6502 176.315C64.5599 176.341 64.4537 176.365 64.3315 176.386C64.2147 176.413 64.0872 176.434 63.9491 176.45C63.811 176.466 63.6703 176.474 63.5269 176.474C63.1604 176.474 62.8418 176.421 62.5709 176.315C62.3 176.203 62.077 176.052 61.9017 175.861C61.7264 175.664 61.5963 175.436 61.5113 175.175C61.4264 174.91 61.3839 174.62 61.3839 174.307ZM64.1801 173.877C64.1801 173.744 64.1616 173.619 64.1244 173.502C64.0872 173.38 64.0314 173.277 63.9571 173.192C63.888 173.101 63.8004 173.032 63.6942 172.985C63.5933 172.931 63.4711 172.905 63.3277 172.905C63.179 172.905 63.0489 172.934 62.9374 172.993C62.8258 173.046 62.7302 173.117 62.6506 173.208C62.5762 173.298 62.5178 173.401 62.4753 173.518C62.4328 173.635 62.4036 173.755 62.3877 173.877H64.1801ZM68.5402 173.072C68.4605 173.046 68.349 173.019 68.2056 172.993C68.0675 172.961 67.9055 172.945 67.7196 172.945C67.6134 172.945 67.4992 172.955 67.377 172.977C67.2602 172.998 67.1779 173.016 67.1301 173.032V176.37H66.1661V172.403C66.352 172.334 66.583 172.27 66.8592 172.212C67.1407 172.148 67.4514 172.116 67.7913 172.116C67.855 172.116 67.9294 172.122 68.0144 172.132C68.0993 172.137 68.1843 172.148 68.2693 172.164C68.3543 172.175 68.4366 172.191 68.5163 172.212C68.5959 172.228 68.6597 172.244 68.7075 172.26L68.5402 173.072ZM70.136 174.18C70.136 174.589 70.2237 174.889 70.3989 175.08C70.5795 175.266 70.8105 175.359 71.092 175.359C71.246 175.359 71.3894 175.337 71.5222 175.295C71.6603 175.252 71.7718 175.202 71.8568 175.144V172.985C71.7878 172.969 71.7028 172.955 71.6019 172.945C71.501 172.929 71.3735 172.921 71.2195 172.921C70.869 172.921 70.6007 173.038 70.4149 173.271C70.229 173.5 70.136 173.802 70.136 174.18ZM72.8208 175.948C72.8208 176.612 72.6508 177.098 72.3109 177.406C71.9763 177.714 71.4611 177.868 70.7654 177.868C70.5105 177.868 70.2608 177.847 70.0165 177.804C69.7775 177.762 69.5598 177.706 69.3633 177.637L69.5385 176.816C69.7032 176.886 69.8891 176.941 70.0962 176.984C70.3086 177.026 70.537 177.048 70.7813 177.048C71.169 177.048 71.4452 176.968 71.6098 176.809C71.7745 176.649 71.8568 176.413 71.8568 176.099V175.94C71.7612 175.988 71.6337 176.036 71.4744 176.084C71.3204 176.131 71.1425 176.155 70.9407 176.155C70.6751 176.155 70.4308 176.113 70.2077 176.028C69.99 175.943 69.8014 175.818 69.6421 175.653C69.4881 175.489 69.3659 175.284 69.2756 175.04C69.1907 174.79 69.1482 174.504 69.1482 174.18C69.1482 173.877 69.1933 173.598 69.2836 173.343C69.3792 173.088 69.5146 172.87 69.6899 172.69C69.8705 172.509 70.0882 172.368 70.3432 172.268C70.5981 172.167 70.8875 172.116 71.2115 172.116C71.5249 172.116 71.8223 172.14 72.1038 172.188C72.3853 172.236 72.6243 172.286 72.8208 172.339V175.948ZM73.8161 174.307C73.8161 173.941 73.8692 173.619 73.9754 173.343C74.087 173.067 74.233 172.839 74.4136 172.658C74.5942 172.472 74.8013 172.334 75.035 172.244C75.2687 172.148 75.5077 172.1 75.752 172.1C76.3256 172.1 76.7717 172.278 77.0904 172.634C77.4143 172.99 77.5763 173.521 77.5763 174.227C77.5763 174.28 77.5737 174.342 77.5683 174.411C77.5683 174.474 77.5657 174.533 77.5604 174.586H74.8119C74.8385 174.92 74.9553 175.181 75.1624 175.367C75.3749 175.547 75.6803 175.637 76.0786 175.637C76.3123 175.637 76.5247 175.616 76.7159 175.574C76.9124 175.531 77.0665 175.486 77.178 175.438L77.3054 176.227C77.2523 176.254 77.178 176.283 77.0824 176.315C76.9921 176.341 76.8859 176.365 76.7637 176.386C76.6469 176.413 76.5194 176.434 76.3813 176.45C76.2432 176.466 76.1025 176.474 75.9591 176.474C75.5926 176.474 75.274 176.421 75.0031 176.315C74.7322 176.203 74.5092 176.052 74.3339 175.861C74.1587 175.664 74.0285 175.436 73.9436 175.175C73.8586 174.91 73.8161 174.62 73.8161 174.307ZM76.6124 173.877C76.6124 173.744 76.5938 173.619 76.5566 173.502C76.5194 173.38 76.4636 173.277 76.3893 173.192C76.3202 173.101 76.2326 173.032 76.1264 172.985C76.0255 172.931 75.9033 172.905 75.7599 172.905C75.6112 172.905 75.4811 172.934 75.3696 172.993C75.258 173.046 75.1624 173.117 75.0828 173.208C75.0084 173.298 74.95 173.401 74.9075 173.518C74.865 173.635 74.8358 173.755 74.8199 173.877H76.6124ZM78.5983 172.339C78.7842 172.286 79.0259 172.236 79.3233 172.188C79.6207 172.14 79.95 172.116 80.3111 172.116C80.6511 172.116 80.9352 172.164 81.1636 172.26C81.3919 172.35 81.5725 172.48 81.7053 172.65C81.8434 172.815 81.939 173.016 81.9921 173.255C82.0505 173.489 82.0797 173.747 82.0797 174.028V176.37H81.1158V174.18C81.1158 173.956 81.0998 173.768 81.068 173.614C81.0414 173.455 80.9936 173.327 80.9246 173.232C80.8608 173.131 80.7706 173.059 80.6537 173.016C80.5422 172.969 80.4041 172.945 80.2394 172.945C80.1173 172.945 79.9898 172.953 79.8571 172.969C79.7243 172.985 79.626 172.998 79.5623 173.008V176.37H78.5983V172.339ZM83.2107 171.104L84.1746 170.945V172.204H85.6564V173.008H84.1746V174.705C84.1746 175.04 84.2277 175.279 84.334 175.422C84.4402 175.566 84.6208 175.637 84.8757 175.637C85.0509 175.637 85.205 175.619 85.3377 175.582C85.4758 175.544 85.5847 175.51 85.6644 175.478L85.8237 176.243C85.7122 176.291 85.5661 176.338 85.3855 176.386C85.205 176.439 84.9925 176.466 84.7482 176.466C84.4508 176.466 84.2012 176.426 83.9994 176.346C83.8029 176.267 83.6462 176.153 83.5293 176.004C83.4125 175.85 83.3302 175.667 83.2824 175.454C83.2346 175.236 83.2107 174.989 83.2107 174.713V171.104Z" fill="#16A34A"/>
<path d="M50.875 25.8245C50.875 24.3216 52.0933 23.1033 53.5962 23.1033H89.1479C90.6508 23.1033 91.8691 24.3216 91.8691 25.8245V31.2769C91.8691 32.7798 90.6508 33.9981 89.1479 33.9981H86.8866V28.2737H55.8575V33.9981H53.5962C52.0933 33.9981 50.875 32.7798 50.875 31.2769V25.8245Z" fill="#FFEEB0"/>
<path d="M51.3867 26.5105C51.3867 25.0076 52.605 23.7893 54.1079 23.7893H89.6596C91.1625 23.7893 92.3808 25.0076 92.3808 26.5105V31.9629C92.3808 33.4658 91.1625 34.6841 89.6596 34.6841H87.3983V28.9597H56.3692V34.6841H54.1079C52.605 34.6841 51.3867 33.4658 51.3867 31.9629V26.5105Z" fill="#F4CC3F"/>
<g filter="url(#filter0_d_5036_90732)">
<path d="M122.687 80.4624C122.687 88.8471 120.619 97.1024 116.667 104.497C112.714 111.892 106.999 118.197 100.027 122.856C93.0556 127.514 85.0428 130.381 76.6984 131.203C68.3541 132.025 59.9359 130.776 52.1894 127.567C44.4429 124.359 37.6074 119.289 32.2882 112.808C26.9689 106.326 23.3303 98.6329 21.6945 90.4093C20.0588 82.1857 20.4763 73.6856 22.9103 65.6619C25.3442 57.6383 29.7194 50.3387 35.6483 44.4098L71.7009 80.4624H122.687Z" fill="#86EFAC"/>
</g>
<g filter="url(#filter1_d_5036_90732)">
<path d="M56.6328 28.8958H87.6554V50.8656L72.1441 61.7485L56.6328 50.8656V28.8958Z" fill="#22C55E"/>
<mask id="mask0_5036_90732" style="mask-type:alpha" maskUnits="userSpaceOnUse" x="56" y="28" width="32" height="34">
<path d="M56.6992 28.8958H87.7074V50.8692L72.2033 61.7485L56.6992 50.8692V28.8958Z" fill="#E8356D"/>
</mask>
<g mask="url(#mask0_5036_90732)">
<rect x="66.2656" y="15.8552" width="11.8755" height="45.8932" fill="#3D0072"/>
</g>
<rect x="69.5625" y="55.9893" width="4.98577" height="8.49427" rx="2.49289" fill="#C09525"/>
<circle cx="71.6554" cy="84.3852" r="21.882" fill="url(#paint0_linear_5036_90732)"/>
<circle cx="72.0496" cy="84.3856" r="17.0809" fill="#705100"/>
<path opacity="0.5" d="M87.8086 42.6565L56.5913 42.6565L56.5913 28.9346L87.8086 28.9346L87.8086 42.6565Z" fill="#22C55E"/>
</g>
<circle cx="70.5032" cy="84.0474" r="16.7298" fill="#6C570D"/>
<circle cx="71.6986" cy="84.4456" r="16.7298" fill="#FFDA55"/>
<circle opacity="0.8" cx="71.4455" cy="83.797" r="11.9298" fill="url(#paint1_linear_5036_90732)"/>
<path d="M71.5757 76.4792L73.9252 81.2592L78.6241 81.8567L75.3975 85.5372L76.2747 90.8191L71.5757 88.4291L66.8768 90.8191L67.7618 85.5372L64.5273 81.8567L69.2263 81.2592L71.5757 76.4792Z" fill="url(#paint2_linear_5036_90732)"/>
<path d="M71.7024 76.417L71.5757 76.1594L71.4491 76.417L69.1331 81.1288L64.5095 81.7167L64.2459 81.7502L64.4213 81.9498L67.6115 85.58L66.7376 90.7958L66.6914 91.0717L66.9408 90.9449L71.5757 88.5874L76.2107 90.9449L76.4596 91.0715L76.4139 90.796L75.5477 85.58L78.7302 81.9497L78.9052 81.7502L78.6419 81.7167L74.0183 81.1288L71.7024 76.417Z" stroke="#A36D1D" stroke-opacity="0.2" stroke-width="0.282215"/>
<g filter="url(#filter2_d_5036_90732)">
<path d="M72.4973 138.275L75.8167 145.028L82.4555 145.872L77.8968 151.072L79.1361 158.534L72.4973 155.158L65.8585 158.534L67.1088 151.072L62.5391 145.872L69.1779 145.028L72.4973 138.275Z" fill="url(#paint3_linear_5036_90732)"/>
<path d="M72.6762 138.187L72.4973 137.823L72.3184 138.187L69.0463 144.844L62.5139 145.674L62.1415 145.722L62.3893 146.004L66.8965 151.133L65.6618 158.502L65.5965 158.891L65.9488 158.712L72.4973 155.382L79.0457 158.712L79.3974 158.891L79.3328 158.502L78.109 151.133L82.6054 146.004L82.8525 145.722L82.4806 145.674L75.9483 144.844L72.6762 138.187Z" stroke="#FFC727" stroke-width="0.398723"/>
</g>
<defs>
<filter id="filter0_d_5036_90732" x="11.9115" y="40.0082" width="119.579" height="104.645" filterUnits="userSpaceOnUse" color-interpolation-filters="sRGB">
<feFlood flood-opacity="0" result="BackgroundImageFix"/>
<feColorMatrix in="SourceAlpha" type="matrix" values="0 0 0 0 0 0 0 0 0 0 0 0 0 0 0 0 0 0 127 0" result="hardAlpha"/>
<feOffset dy="4.40168"/>
<feGaussianBlur stdDeviation="4.40168"/>
<feComposite in2="hardAlpha" operator="out"/>
<feColorMatrix type="matrix" values="0 0 0 0 0.0375308 0 0 0 0 0.0278819 0 0 0 0 0.0458333 0 0 0 0.15 0"/>
<feBlend mode="normal" in2="BackgroundImageFix" result="effect1_dropShadow_5036_90732"/>
<feBlend mode="normal" in="SourceGraphic" in2="effect1_dropShadow_5036_90732" result="shape"/>
</filter>
<filter id="filter1_d_5036_90732" x="49.4613" y="28.5837" width="48.7591" height="82.3648" filterUnits="userSpaceOnUse" color-interpolation-filters="sRGB">
<feFlood flood-opacity="0" result="BackgroundImageFix"/>
<feColorMatrix in="SourceAlpha" type="matrix" values="0 0 0 0 0 0 0 0 0 0 0 0 0 0 0 0 0 0 127 0" result="hardAlpha"/>
<feOffset dx="2.18463" dy="2.18463"/>
<feGaussianBlur stdDeviation="1.24836"/>
<feComposite in2="hardAlpha" operator="out"/>
<feColorMatrix type="matrix" values="0 0 0 0 0 0 0 0 0 0 0 0 0 0 0 0 0 0 0.3 0"/>
<feBlend mode="normal" in2="BackgroundImageFix" result="effect1_dropShadow_5036_90732"/>
<feBlend mode="normal" in="SourceGraphic" in2="effect1_dropShadow_5036_90732" result="shape"/>
</filter>
<filter id="filter2_d_5036_90732" x="56.9622" y="134.981" width="31.0677" height="31.4373" filterUnits="userSpaceOnUse" color-interpolation-filters="sRGB">
<feFlood flood-opacity="0" result="BackgroundImageFix"/>
<feColorMatrix in="SourceAlpha" type="matrix" values="0 0 0 0 0 0 0 0 0 0 0 0 0 0 0 0 0 0 127 0" result="hardAlpha"/>
<feOffset dy="2.38997"/>
<feGaussianBlur stdDeviation="2.38997"/>
<feComposite in2="hardAlpha" operator="out"/>
<feColorMatrix type="matrix" values="0 0 0 0 0.525 0 0 0 0 0.520625 0 0 0 0 0.520625 0 0 0 0.06 0"/>
<feBlend mode="normal" in2="BackgroundImageFix" result="effect1_dropShadow_5036_90732"/>
<feBlend mode="normal" in="SourceGraphic" in2="effect1_dropShadow_5036_90732" result="shape"/>
</filter>
<linearGradient id="paint0_linear_5036_90732" x1="71.6554" y1="62.5032" x2="71.6554" y2="106.267" gradientUnits="userSpaceOnUse">
<stop stop-color="#FFE176"/>
<stop offset="1" stop-color="#FFD12D"/>
</linearGradient>
<linearGradient id="paint1_linear_5036_90732" x1="71.4455" y1="71.8672" x2="71.4455" y2="95.7268" gradientUnits="userSpaceOnUse">
<stop stop-color="#D79B00"/>
<stop offset="1" stop-color="#FFDD64"/>
</linearGradient>
<linearGradient id="paint2_linear_5036_90732" x1="71.5757" y1="76.4792" x2="71.5757" y2="90.8191" gradientUnits="userSpaceOnUse">
<stop stop-color="white"/>
<stop offset="0.0001" stop-color="#FFFFFD"/>
<stop offset="1" stop-color="#FFE86D"/>
</linearGradient>
<linearGradient id="paint3_linear_5036_90732" x1="72.4973" y1="138.275" x2="72.4973" y2="158.534" gradientUnits="userSpaceOnUse">
<stop stop-color="white"/>
<stop offset="0.0001" stop-color="#FFFFFD"/>
<stop offset="1" stop-color="#FFE86D"/>
</linearGradient>
</defs>
</svg>
