<svg width="349" height="186" viewBox="0 0 349 186" fill="none" xmlns="http://www.w3.org/2000/svg">
<g clip-path="url(#clip0_5438_84476)">
<rect width="349" height="186" rx="10" fill="#F2FDF6"/>
<path d="M109.43 75.8365C94.1623 64.1987 75.1757 58.5258 56.0261 59.8803C36.8765 61.2347 18.8774 69.5236 5.39976 83.1946C-8.07786 96.8656 -16.1095 114.981 -17.1911 134.148C-18.2726 153.315 -12.3298 172.219 -0.475649 187.319C11.3785 202.42 28.3309 212.681 47.2066 216.181C66.0822 219.681 85.5865 216.18 102.067 206.333C118.547 196.487 130.872 180.971 136.734 162.69C142.596 144.41 141.594 124.619 133.914 107.025L98.9098 122.304C102.873 131.383 103.39 141.595 100.365 151.027C97.3403 160.46 90.9806 168.466 82.4771 173.547C73.9736 178.627 63.9096 180.434 54.17 178.628C44.4304 176.822 35.6831 171.527 29.5665 163.735C23.4499 155.944 20.3835 146.19 20.9416 136.3C21.4996 126.41 25.6439 117.062 32.5982 110.008C39.5525 102.954 48.8398 98.6773 58.7208 97.9784C68.6018 97.2795 78.3986 100.207 86.2766 106.212L109.43 75.8365Z" fill="#E9FBF0"/>
<g opacity="0.2">
<path fill-rule="evenodd" clip-rule="evenodd" d="M176.454 86.1868C180.018 86.1868 182.907 83.2973 182.907 79.733C182.907 76.1687 180.018 73.2793 176.454 73.2793C172.889 73.2793 170 76.1687 170 79.733C170 83.2973 172.889 86.1868 176.454 86.1868ZM176.347 83.2243C178.216 83.2243 179.732 81.7085 179.732 79.8387C179.732 77.9689 178.216 76.4531 176.347 76.4531C174.477 76.4531 172.961 77.9689 172.961 79.8387C172.961 81.7085 174.477 83.2243 176.347 83.2243Z" fill="#22C55E"/>
<path fill-rule="evenodd" clip-rule="evenodd" d="M182.213 72.5816C183.754 72.5816 185.003 71.3321 185.003 69.7908C185.003 68.2495 183.754 67 182.213 67C180.671 67 179.422 68.2495 179.422 69.7908C179.422 71.3321 180.671 72.5816 182.213 72.5816ZM182.167 71.3006C182.976 71.3006 183.631 70.6452 183.631 69.8366C183.631 69.028 182.976 68.3726 182.167 68.3726C181.359 68.3726 180.703 69.028 180.703 69.8366C180.703 70.6452 181.359 71.3006 182.167 71.3006Z" fill="#22C55E"/>
</g>
<g opacity="0.2">
<path fill-rule="evenodd" clip-rule="evenodd" d="M263.454 170.187C267.018 170.187 269.907 167.297 269.907 163.733C269.907 160.169 267.018 157.279 263.454 157.279C259.889 157.279 257 160.169 257 163.733C257 167.297 259.889 170.187 263.454 170.187ZM263.347 167.224C265.216 167.224 266.732 165.708 266.732 163.839C266.732 161.969 265.216 160.453 263.347 160.453C261.477 160.453 259.961 161.969 259.961 163.839C259.961 165.708 261.477 167.224 263.347 167.224Z" fill="#22C55E"/>
<path fill-rule="evenodd" clip-rule="evenodd" d="M269.213 156.582C270.754 156.582 272.003 155.332 272.003 153.791C272.003 152.249 270.754 151 269.213 151C267.671 151 266.422 152.249 266.422 153.791C266.422 155.332 267.671 156.582 269.213 156.582ZM269.167 155.301C269.976 155.301 270.631 154.645 270.631 153.837C270.631 153.028 269.976 152.373 269.167 152.373C268.359 152.373 267.703 153.028 267.703 153.837C267.703 154.645 268.359 155.301 269.167 155.301Z" fill="#22C55E"/>
</g>
</g>
<defs>
<clipPath id="clip0_5438_84476">
<rect width="349" height="186" fill="white"/>
</clipPath>
</defs>
</svg>
