<svg width="805" height="51" viewBox="0 0 805 51" fill="none" xmlns="http://www.w3.org/2000/svg">
<rect y="17" width="792" height="8" rx="4" fill="#F8F0FF"/>
<rect y="17" width="576" height="8" rx="4" fill="#8807F7"/>
<g opacity="0.5">
<g filter="url(#filter0_d_1756_15038)">
<circle cx="780" cy="21" r="15" fill="white"/>
</g>
<g clip-path="url(#clip0_1756_15038)">
<path d="M781.517 16.7768C781.782 16.9044 782.012 17.0931 782.19 17.3275C782.323 17.4993 782.426 17.693 782.493 17.8994L782.797 18.8283C782.817 18.8912 782.855 18.9473 782.905 18.9905C782.955 19.0337 783.016 19.0625 783.081 19.0736C783.156 19.087 783.234 19.0764 783.303 19.0435C783.371 19.0107 783.428 18.957 783.465 18.8903L783.462 18.8866C783.473 18.8672 783.482 18.8469 783.489 18.8259L783.792 17.8976C783.886 17.6151 784.044 17.3585 784.255 17.1481C784.466 16.9377 784.722 16.7794 785.005 16.6857L785.934 16.384C786.005 16.3586 786.067 16.3116 786.111 16.2497C786.155 16.1877 786.178 16.1137 786.178 16.0379C786.178 15.9621 786.155 15.8881 786.111 15.8261C786.067 15.7642 786.005 15.7172 785.934 15.6918L785.916 15.687L784.986 15.3852C784.704 15.2914 784.447 15.133 784.236 14.9227C784.026 14.7123 783.867 14.4557 783.773 14.1734L783.471 13.2444C783.446 13.1727 783.399 13.1106 783.337 13.0666C783.275 13.0226 783.201 12.999 783.125 12.999C783.049 12.999 782.975 13.0226 782.913 13.0666C782.851 13.1106 782.804 13.1727 782.779 13.2444L782.477 14.1734L782.469 14.1964C782.404 14.3865 782.309 14.5652 782.188 14.7259L782.185 14.7247C781.956 15.0285 781.641 15.257 781.281 15.381L780.352 15.6845C780.284 15.7066 780.225 15.7477 780.181 15.803C780.137 15.8582 780.109 15.9252 780.103 15.9956C780.096 16.0661 780.11 16.137 780.142 16.1997C780.175 16.2624 780.226 16.3142 780.287 16.3488C780.308 16.3609 780.33 16.3712 780.352 16.3791L781.282 16.6809C781.363 16.7076 781.441 16.7398 781.517 16.7768ZM784.379 19.5818C784.391 19.5556 784.409 19.5322 784.43 19.5129C784.452 19.4936 784.477 19.4788 784.505 19.4695L785.063 19.2879C785.23 19.2302 785.382 19.1346 785.506 19.0085C785.63 18.8824 785.724 18.7293 785.779 18.5612L785.961 18.0038C785.976 17.961 786.004 17.9239 786.041 17.8976C786.078 17.8714 786.123 17.8573 786.168 17.8573C786.214 17.8573 786.258 17.8714 786.295 17.8976C786.332 17.9239 786.361 17.961 786.376 18.0038L786.557 18.5612C786.613 18.7306 786.708 18.8845 786.835 19.0107C786.961 19.1369 787.115 19.2318 787.285 19.2879L787.842 19.4695L787.854 19.4719C787.897 19.4869 787.934 19.5149 787.961 19.5521C787.987 19.5893 788.001 19.6339 788.001 19.6795C788.001 19.7252 787.987 19.7698 787.961 19.807C787.934 19.8442 787.897 19.8722 787.854 19.8872L787.296 20.0687C787.062 20.1463 786.86 20.2968 786.718 20.498V20.501C786.655 20.5921 786.604 20.6917 786.569 20.7979L786.387 21.3553C786.372 21.3981 786.343 21.4352 786.306 21.4615C786.269 21.4877 786.225 21.5018 786.179 21.5018C786.134 21.5018 786.089 21.4877 786.052 21.4615C786.015 21.4352 785.987 21.3981 785.971 21.3553L785.789 20.7979C785.733 20.628 785.638 20.4736 785.512 20.3471C785.385 20.2206 785.231 20.1254 785.061 20.0693L784.503 19.8872C784.473 19.8768 784.447 19.8604 784.424 19.8389C784.402 19.8175 784.384 19.7915 784.372 19.7627C784.361 19.7339 784.355 19.7029 784.356 19.6718C784.357 19.6407 784.365 19.6103 784.379 19.5824V19.5818ZM779.501 28.7855C783.406 28.7855 786.593 25.7133 786.778 21.8531C786.679 21.9562 786.556 22.032 786.419 22.0732C786.283 22.1144 786.138 22.1195 785.998 22.0882C785.859 22.0568 785.731 21.99 785.625 21.8943C785.519 21.7985 785.44 21.677 785.395 21.5417L785.213 20.9867C785.187 20.9076 785.142 20.8355 785.084 20.7762C785.025 20.7168 784.953 20.6717 784.874 20.6443L784.302 20.4585C784.141 20.4014 784.001 20.2957 783.902 20.156C783.804 20.0163 783.751 19.8494 783.751 19.6783C783.752 19.5956 783.765 19.5136 783.791 19.4349C783.67 19.5413 783.525 19.6162 783.368 19.6527C783.212 19.6892 783.048 19.6863 782.893 19.6441C782.738 19.602 782.596 19.522 782.479 19.4113C782.362 19.3006 782.275 19.1627 782.225 19.0099L781.921 18.0834C781.858 17.8902 781.75 17.7147 781.606 17.5715C781.463 17.4283 781.29 17.32 781.098 17.2552L780.154 16.9517C780.011 16.902 779.882 16.8199 779.777 16.7118C779.672 16.6036 779.594 16.4725 779.548 16.3288C779.502 16.185 779.49 16.0326 779.514 15.8836C779.537 15.7345 779.595 15.593 779.683 15.4702C779.803 15.302 779.973 15.1758 780.168 15.1096L781.087 14.8115C781.269 14.7483 781.435 14.6463 781.573 14.5128C780.9 14.314 780.202 14.2134 779.501 14.214C775.477 14.214 772.215 17.4762 772.215 21.4998C772.215 25.5233 775.477 28.7855 779.501 28.7855ZM781.626 20.8926C781.384 20.8926 781.152 20.7967 780.982 20.6259C780.811 20.4551 780.715 20.2234 780.715 19.9819C780.715 19.7404 780.811 19.5087 780.982 19.3379C781.152 19.1671 781.384 19.0712 781.626 19.0712C781.867 19.0712 782.099 19.1671 782.27 19.3379C782.44 19.5087 782.536 19.7404 782.536 19.9819C782.536 20.2234 782.44 20.4551 782.27 20.6259C782.099 20.7967 781.867 20.8926 781.626 20.8926ZM778.286 19.9819C778.286 20.2234 778.19 20.4551 778.02 20.6259C777.849 20.7967 777.617 20.8926 777.376 20.8926C777.134 20.8926 776.902 20.7967 776.732 20.6259C776.561 20.4551 776.465 20.2234 776.465 19.9819C776.465 19.7404 776.561 19.5087 776.732 19.3379C776.902 19.1671 777.134 19.0712 777.376 19.0712C777.617 19.0712 777.849 19.1671 778.02 19.3379C778.19 19.5087 778.286 19.7404 778.286 19.9819ZM776.057 23.4001C776.156 23.3324 776.279 23.3068 776.397 23.329C776.515 23.3512 776.62 23.4193 776.688 23.5185L776.694 23.5258L776.72 23.5616C776.746 23.5944 776.787 23.6442 776.844 23.7061C776.957 23.8294 777.13 23.9975 777.365 24.1657C777.831 24.5015 778.536 24.839 779.501 24.839C780.465 24.839 781.17 24.5015 781.636 24.1657C781.871 23.9975 782.044 23.8294 782.157 23.7061C782.21 23.6484 782.261 23.5883 782.308 23.5258L782.312 23.5197C782.38 23.4199 782.485 23.3512 782.604 23.3287C782.723 23.3062 782.845 23.3318 782.945 23.3998C783.045 23.4678 783.114 23.5727 783.136 23.6915C783.159 23.8102 783.133 23.9329 783.065 24.0328L783.064 24.0334V24.0346L783.062 24.0364L783.058 24.0425L783.052 24.0498L783.044 24.0619C782.977 24.1521 782.905 24.2388 782.829 24.3218C782.629 24.538 782.408 24.7333 782.168 24.9046C781.579 25.329 780.692 25.7498 779.501 25.7498C778.309 25.7498 777.422 25.3284 776.833 24.9052C776.593 24.7335 776.372 24.5378 776.172 24.3211C776.091 24.2326 776.015 24.1398 775.944 24.0431L775.939 24.037L775.938 24.0346L775.937 24.0334L775.937 24.0328C775.869 23.9329 775.843 23.8102 775.866 23.6915C775.888 23.5729 775.957 23.4681 776.057 23.4001Z" fill="#8807F7"/>
</g>
</g>
<g filter="url(#filter1_d_1756_15038)">
<circle cx="165" cy="21" r="15" fill="white"/>
</g>
<g clip-path="url(#clip1_1756_15038)">
<path d="M165 29C167.254 29 169.416 28.1045 171.01 26.5104C172.604 24.9163 173.5 22.7543 173.5 20.5C173.5 18.2457 172.604 16.0837 171.01 14.4896C169.416 12.8955 167.254 12 165 12C162.746 12 160.584 12.8955 158.99 14.4896C157.396 16.0837 156.5 18.2457 156.5 20.5C156.5 22.7543 157.396 24.9163 158.99 26.5104C160.584 28.1045 162.746 29 165 29ZM163.938 18.9062C163.938 19.786 163.462 20.5 162.875 20.5C162.288 20.5 161.812 19.786 161.812 18.9062C161.812 18.0265 162.288 17.3125 162.875 17.3125C163.462 17.3125 163.938 18.0265 163.938 18.9062ZM161.053 25.2101C160.931 25.1396 160.842 25.0236 160.805 24.8875C160.769 24.7514 160.788 24.6064 160.858 24.4844C161.278 23.7572 161.882 23.1535 162.609 22.7338C163.336 22.3141 164.161 22.0934 165 22.0938C165.839 22.0936 166.664 22.3144 167.391 22.7341C168.118 23.1537 168.722 23.7574 169.142 24.4844C169.211 24.6063 169.229 24.7508 169.192 24.8861C169.156 25.0215 169.067 25.1369 168.945 25.207C168.824 25.2772 168.68 25.2964 168.544 25.2606C168.408 25.2247 168.292 25.1366 168.221 25.0156C167.895 24.45 167.426 23.9804 166.86 23.6539C166.295 23.3275 165.653 23.1559 165 23.1562C164.347 23.1559 163.705 23.3275 163.14 23.6539C162.574 23.9804 162.105 24.45 161.779 25.0156C161.708 25.1376 161.592 25.2267 161.456 25.2631C161.32 25.2996 161.175 25.2805 161.053 25.2101ZM167.125 20.5C166.538 20.5 166.062 19.786 166.062 18.9062C166.062 18.0265 166.538 17.3125 167.125 17.3125C167.712 17.3125 168.188 18.0265 168.188 18.9062C168.188 19.786 167.712 20.5 167.125 20.5Z" fill="#8707F5"/>
</g>
<g filter="url(#filter2_d_1756_15038)">
<circle cx="575" cy="22" r="15" fill="white"/>
<circle cx="575" cy="22" r="14.5" stroke="#8807F7"/>
</g>
<path d="M575.501 13C580.196 13 584.002 16.8059 584.002 21.5008C584.002 26.1949 580.196 30 575.501 30C570.806 30.0009 567 26.1949 567 21.5008C567 16.8059 570.806 13 575.501 13ZM572.494 23.8662C572.388 23.7377 572.236 23.6557 572.07 23.638C571.905 23.6202 571.738 23.6679 571.608 23.771C571.477 23.8741 571.391 24.0243 571.37 24.1895C571.348 24.3547 571.393 24.5217 571.493 24.6549C571.97 25.2619 572.578 25.7526 573.273 26.0897C573.967 26.4269 574.729 26.6018 575.501 26.6012C577.082 26.6012 578.544 25.8762 579.506 24.66C579.558 24.5943 579.596 24.519 579.619 24.4385C579.642 24.3579 579.648 24.2737 579.639 24.1906C579.629 24.1074 579.603 24.027 579.562 23.9539C579.521 23.8808 579.466 23.8165 579.401 23.7646C579.335 23.7127 579.26 23.6742 579.179 23.6514C579.099 23.6286 579.014 23.6219 578.931 23.6316C578.848 23.6414 578.768 23.6674 578.695 23.7082C578.622 23.7491 578.557 23.8039 578.505 23.8696C578.148 24.3242 577.691 24.6915 577.171 24.9439C576.65 25.1963 576.079 25.327 575.501 25.3263C574.313 25.3263 573.215 24.7824 572.494 23.8662ZM572.951 18.7386C572.809 18.7346 572.668 18.7591 572.535 18.8107C572.403 18.8622 572.282 18.9398 572.181 19.0388C572.079 19.1378 571.998 19.2563 571.942 19.3871C571.887 19.5179 571.859 19.6586 571.859 19.8006C571.859 19.9426 571.887 20.0832 571.942 20.2141C571.998 20.3449 572.079 20.4634 572.181 20.5624C572.282 20.6614 572.403 20.739 572.535 20.7905C572.668 20.8421 572.809 20.8666 572.951 20.8626C573.228 20.8547 573.49 20.7394 573.683 20.5411C573.876 20.3428 573.983 20.0772 573.983 19.8006C573.983 19.524 573.876 19.2584 573.683 19.0601C573.49 18.8618 573.228 18.7464 572.951 18.7386ZM578.051 18.7386C577.909 18.7346 577.767 18.7591 577.635 18.8107C577.503 18.8622 577.382 18.9398 577.28 19.0388C577.178 19.1378 577.097 19.2563 577.042 19.3871C576.987 19.5179 576.958 19.6586 576.958 19.8006C576.958 19.9426 576.987 20.0832 577.042 20.2141C577.097 20.3449 577.178 20.4634 577.28 20.5624C577.382 20.6614 577.503 20.739 577.635 20.7905C577.767 20.8421 577.909 20.8666 578.051 20.8626C578.327 20.8547 578.59 20.7394 578.782 20.5411C578.975 20.3428 579.083 20.0772 579.083 19.8006C579.083 19.524 578.975 19.2584 578.782 19.0601C578.59 18.8618 578.327 18.7464 578.051 18.7386Z" fill="#8907F5"/>
<g filter="url(#filter3_d_1756_15038)">
<circle cx="370" cy="21" r="15" fill="white"/>
</g>
<g clip-path="url(#clip2_1756_15038)">
<path d="M370.5 29C372.754 29 374.916 28.1045 376.51 26.5104C378.104 24.9163 379 22.7543 379 20.5C379 18.2457 378.104 16.0837 376.51 14.4896C374.916 12.8955 372.754 12 370.5 12C368.246 12 366.084 12.8955 364.49 14.4896C362.896 16.0837 362 18.2457 362 20.5C362 22.7543 362.896 24.9163 364.49 26.5104C366.084 28.1045 368.246 29 370.5 29ZM366.781 18.375H368.906C369.047 18.375 369.182 18.431 369.282 18.5306C369.382 18.6302 369.438 18.7654 369.438 18.9062C369.438 19.0471 369.382 19.1823 369.282 19.2819C369.182 19.3815 369.047 19.4375 368.906 19.4375H366.781C366.64 19.4375 366.505 19.3815 366.406 19.2819C366.306 19.1823 366.25 19.0471 366.25 18.9062C366.25 18.7654 366.306 18.6302 366.406 18.5306C366.505 18.431 366.64 18.375 366.781 18.375ZM372.094 18.375H374.219C374.36 18.375 374.495 18.431 374.594 18.5306C374.694 18.6302 374.75 18.7654 374.75 18.9062C374.75 19.0471 374.694 19.1823 374.594 19.2819C374.495 19.3815 374.36 19.4375 374.219 19.4375H372.094C371.953 19.4375 371.818 19.3815 371.718 19.2819C371.618 19.1823 371.562 19.0471 371.562 18.9062C371.562 18.7654 371.618 18.6302 371.718 18.5306C371.818 18.431 371.953 18.375 372.094 18.375ZM366.781 22.625H374.219C374.36 22.625 374.495 22.681 374.594 22.7806C374.694 22.8802 374.75 23.0154 374.75 23.1562C374.75 23.2971 374.694 23.4323 374.594 23.5319C374.495 23.6315 374.36 23.6875 374.219 23.6875H366.781C366.64 23.6875 366.505 23.6315 366.406 23.5319C366.306 23.4323 366.25 23.2971 366.25 23.1562C366.25 23.0154 366.306 22.8802 366.406 22.7806C366.505 22.681 366.64 22.625 366.781 22.625Z" fill="#8707F5"/>
</g>
<defs>
<filter id="filter0_d_1756_15038" x="755" y="0" width="50" height="50" filterUnits="userSpaceOnUse" color-interpolation-filters="sRGB">
<feFlood flood-opacity="0" result="BackgroundImageFix"/>
<feColorMatrix in="SourceAlpha" type="matrix" values="0 0 0 0 0 0 0 0 0 0 0 0 0 0 0 0 0 0 127 0" result="hardAlpha"/>
<feOffset dy="4"/>
<feGaussianBlur stdDeviation="5"/>
<feComposite in2="hardAlpha" operator="out"/>
<feColorMatrix type="matrix" values="0 0 0 0 0.533333 0 0 0 0 0.027451 0 0 0 0 0.968627 0 0 0 0.07 0"/>
<feBlend mode="normal" in2="BackgroundImageFix" result="effect1_dropShadow_1756_15038"/>
<feBlend mode="normal" in="SourceGraphic" in2="effect1_dropShadow_1756_15038" result="shape"/>
</filter>
<filter id="filter1_d_1756_15038" x="140" y="0" width="50" height="50" filterUnits="userSpaceOnUse" color-interpolation-filters="sRGB">
<feFlood flood-opacity="0" result="BackgroundImageFix"/>
<feColorMatrix in="SourceAlpha" type="matrix" values="0 0 0 0 0 0 0 0 0 0 0 0 0 0 0 0 0 0 127 0" result="hardAlpha"/>
<feOffset dy="4"/>
<feGaussianBlur stdDeviation="5"/>
<feComposite in2="hardAlpha" operator="out"/>
<feColorMatrix type="matrix" values="0 0 0 0 0.533333 0 0 0 0 0.027451 0 0 0 0 0.968627 0 0 0 0.07 0"/>
<feBlend mode="normal" in2="BackgroundImageFix" result="effect1_dropShadow_1756_15038"/>
<feBlend mode="normal" in="SourceGraphic" in2="effect1_dropShadow_1756_15038" result="shape"/>
</filter>
<filter id="filter2_d_1756_15038" x="550" y="1" width="50" height="50" filterUnits="userSpaceOnUse" color-interpolation-filters="sRGB">
<feFlood flood-opacity="0" result="BackgroundImageFix"/>
<feColorMatrix in="SourceAlpha" type="matrix" values="0 0 0 0 0 0 0 0 0 0 0 0 0 0 0 0 0 0 127 0" result="hardAlpha"/>
<feOffset dy="4"/>
<feGaussianBlur stdDeviation="5"/>
<feComposite in2="hardAlpha" operator="out"/>
<feColorMatrix type="matrix" values="0 0 0 0 0.533333 0 0 0 0 0.027451 0 0 0 0 0.968627 0 0 0 0.07 0"/>
<feBlend mode="normal" in2="BackgroundImageFix" result="effect1_dropShadow_1756_15038"/>
<feBlend mode="normal" in="SourceGraphic" in2="effect1_dropShadow_1756_15038" result="shape"/>
</filter>
<filter id="filter3_d_1756_15038" x="345" y="0" width="50" height="50" filterUnits="userSpaceOnUse" color-interpolation-filters="sRGB">
<feFlood flood-opacity="0" result="BackgroundImageFix"/>
<feColorMatrix in="SourceAlpha" type="matrix" values="0 0 0 0 0 0 0 0 0 0 0 0 0 0 0 0 0 0 127 0" result="hardAlpha"/>
<feOffset dy="4"/>
<feGaussianBlur stdDeviation="5"/>
<feComposite in2="hardAlpha" operator="out"/>
<feColorMatrix type="matrix" values="0 0 0 0 0.533333 0 0 0 0 0.027451 0 0 0 0 0.968627 0 0 0 0.07 0"/>
<feBlend mode="normal" in2="BackgroundImageFix" result="effect1_dropShadow_1756_15038"/>
<feBlend mode="normal" in="SourceGraphic" in2="effect1_dropShadow_1756_15038" result="shape"/>
</filter>
<clipPath id="clip0_1756_15038">
<rect width="17" height="17" fill="white" transform="translate(771 13)"/>
</clipPath>
<clipPath id="clip1_1756_15038">
<rect width="17" height="17" fill="white" transform="translate(156.5 12)"/>
</clipPath>
<clipPath id="clip2_1756_15038">
<rect width="17" height="17" fill="white" transform="translate(362 12)"/>
</clipPath>
</defs>
</svg>
