<svg width="455" height="73" viewBox="0 0 455 73" fill="none" xmlns="http://www.w3.org/2000/svg">
<path d="M428.53 14.15C431.02 14.15 432.22 13.04 432.22 11.42C432.22 10.4 431.59 9.305 429.94 8.9C431.23 8.69 431.92 7.715 431.92 6.545C431.92 5.045 430.72 3.8 428.53 3.8C426.325 3.8 425.14 5.045 425.14 6.56C425.14 7.715 425.74 8.69 427.045 8.9C425.395 9.305 424.84 10.4 424.84 11.42C424.84 13.04 426.025 14.15 428.53 14.15ZM428.53 8.375C427.075 8.375 426.52 7.67 426.52 6.71C426.52 5.84 427.09 5.03 428.53 5.03C429.97 5.03 430.555 5.84 430.555 6.71C430.555 7.67 429.835 8.375 428.53 8.375ZM428.53 12.92C426.775 12.92 426.355 12.095 426.355 11.195C426.355 10.19 427.075 9.425 428.53 9.425C429.985 9.425 430.705 10.19 430.705 11.195C430.705 12.095 430.285 12.92 428.53 12.92ZM437.721 14.15C440.466 14.15 441.756 11.885 441.756 8.96C441.756 6.065 440.466 3.8 437.721 3.8C434.961 3.8 433.671 6.065 433.671 8.96C433.671 11.885 434.961 14.15 437.721 14.15ZM437.736 12.905C435.741 12.905 435.051 11.27 435.051 8.96C435.051 6.68 435.741 5.03 437.736 5.03C439.716 5.03 440.391 6.68 440.391 8.96C440.391 11.27 439.716 12.905 437.736 12.905ZM445.096 8.345C446.341 8.345 447.271 7.46 447.271 6.08C447.271 4.7 446.341 3.815 445.096 3.815C443.836 3.815 442.906 4.7 442.906 6.08C442.906 7.46 443.836 8.345 445.096 8.345ZM444.781 14L451.861 3.95H450.496L443.416 14H444.781ZM445.096 7.385C444.391 7.385 443.971 6.875 443.971 6.08C443.971 5.27 444.391 4.76 445.096 4.76C445.801 4.76 446.236 5.27 446.236 6.08C446.236 6.875 445.801 7.385 445.096 7.385ZM450.226 14C451.471 14 452.401 13.115 452.401 11.735C452.401 10.355 451.471 9.47 450.226 9.47C448.966 9.47 448.036 10.355 448.036 11.735C448.036 13.115 448.966 14 450.226 14ZM450.226 13.04C449.521 13.04 449.101 12.53 449.101 11.735C449.101 10.925 449.521 10.415 450.226 10.415C450.931 10.415 451.366 10.925 451.366 11.735C451.366 12.53 450.931 13.04 450.226 13.04Z" fill="#3D0072"/>
<g filter="url(#filter0_d_13624_83767)">
<rect x="278" y="26" width="57" height="35" rx="10" fill="white"/>
</g>
<path d="M306.5 18L312.129 27.75H300.871L306.5 18Z" fill="white"/>
<path d="M289.056 47V43.916H288.12V43.148H289.056V42.164H288.12V41.396H289.056V38.432H290.304L291.444 41.396H292.86V38.432H293.808V41.396H294.744V42.164H293.808V43.148H294.744V43.916H293.808V47H292.548L291.408 43.916H289.992V47H289.056ZM289.992 43.148H291.12L290.76 42.164H289.968L289.992 43.148ZM292.86 45.308H292.908L292.872 43.916H292.368L292.86 45.308ZM289.968 41.396H290.472L289.968 39.908H289.92L289.968 41.396ZM292.08 43.148H292.884L292.86 42.164H291.72L292.08 43.148ZM298.851 47.12C300.603 47.12 301.647 46.052 301.647 44.42C301.647 42.872 300.819 41.756 299.223 41.756C298.167 41.756 297.531 42.32 297.279 43.028L297.495 39.944H301.035V38.96H296.463L296.211 43.568L297.243 43.676L297.255 43.544C297.303 43.004 297.903 42.62 298.779 42.62C299.655 42.62 300.543 43.112 300.543 44.42C300.543 45.464 299.991 46.124 298.887 46.124C297.759 46.124 297.039 45.452 296.751 44.408L295.911 45.296C296.319 46.316 297.411 47.12 298.851 47.12ZM305.973 47.12C308.169 47.12 309.201 45.308 309.201 42.968C309.201 40.652 308.169 38.84 305.973 38.84C303.765 38.84 302.733 40.652 302.733 42.968C302.733 45.308 303.765 47.12 305.973 47.12ZM305.985 46.124C304.389 46.124 303.837 44.816 303.837 42.968C303.837 41.144 304.389 39.824 305.985 39.824C307.569 39.824 308.109 41.144 308.109 42.968C308.109 44.816 307.569 46.124 305.985 46.124ZM313.613 47.12C315.809 47.12 316.841 45.308 316.841 42.968C316.841 40.652 315.809 38.84 313.613 38.84C311.405 38.84 310.373 40.652 310.373 42.968C310.373 45.308 311.405 47.12 313.613 47.12ZM313.625 46.124C312.029 46.124 311.477 44.816 311.477 42.968C311.477 41.144 312.029 39.824 313.625 39.824C315.209 39.824 315.749 41.144 315.749 42.968C315.749 44.816 315.209 46.124 313.625 46.124ZM319.285 47V44.972L320.209 44.096L322.093 47H323.353L320.929 43.448L323.317 41.192H322.009L320.101 43.016L319.249 43.856L319.285 43.04V38.96H318.241V47H319.285Z" fill="#3D0072"/>
<path d="M1.056 31V27.916H0.12V27.148H1.056V26.164H0.12V25.396H1.056V22.432H2.304L3.444 25.396H4.86V22.432H5.808V25.396H6.744V26.164H5.808V27.148H6.744V27.916H5.808V31H4.548L3.408 27.916H1.992V31H1.056ZM1.992 27.148H3.12L2.76 26.164H1.968L1.992 27.148ZM4.86 29.308H4.908L4.872 27.916H4.368L4.86 29.308ZM1.968 25.396H2.472L1.968 23.908H1.92L1.968 25.396ZM4.08 27.148H4.884L4.86 26.164H3.72L4.08 27.148ZM13.3439 31.12C15.5399 31.12 16.5719 29.308 16.5719 26.968C16.5719 24.652 15.5399 22.84 13.3439 22.84C11.1359 22.84 10.1039 24.652 10.1039 26.968C10.1039 29.308 11.1359 31.12 13.3439 31.12ZM13.3559 30.124C11.7599 30.124 11.2079 28.816 11.2079 26.968C11.2079 25.144 11.7599 23.824 13.3559 23.824C14.9399 23.824 15.4799 25.144 15.4799 26.968C15.4799 28.816 14.9399 30.124 13.3559 30.124Z" fill="#3D0072"/>
<path d="M373.056 31V27.916H372.12V27.148H373.056V26.164H372.12V25.396H373.056V22.432H374.304L375.444 25.396H376.86V22.432H377.808V25.396H378.744V26.164H377.808V27.148H378.744V27.916H377.808V31H376.548L375.408 27.916H373.992V31H373.056ZM373.992 27.148H375.12L374.76 26.164H373.968L373.992 27.148ZM376.86 29.308H376.908L376.872 27.916H376.368L376.86 29.308ZM373.968 25.396H374.472L373.968 23.908H373.92L373.968 25.396ZM376.08 27.148H376.884L376.86 26.164H375.72L376.08 27.148ZM381.651 31C381.651 27.58 382.719 25.84 384.495 24.148V22.96H379.227V23.944H383.547C382.227 25.216 380.511 27.004 380.511 31H381.651ZM388.3 31.12C390.052 31.12 391.096 30.052 391.096 28.42C391.096 26.872 390.268 25.756 388.672 25.756C387.616 25.756 386.98 26.32 386.728 27.028L386.944 23.944H390.484V22.96H385.912L385.66 27.568L386.692 27.676L386.704 27.544C386.752 27.004 387.352 26.62 388.228 26.62C389.104 26.62 389.992 27.112 389.992 28.42C389.992 29.464 389.44 30.124 388.336 30.124C387.208 30.124 386.488 29.452 386.2 28.408L385.36 29.296C385.768 30.316 386.86 31.12 388.3 31.12ZM395.422 31.12C397.618 31.12 398.65 29.308 398.65 26.968C398.65 24.652 397.618 22.84 395.422 22.84C393.214 22.84 392.182 24.652 392.182 26.968C392.182 29.308 393.214 31.12 395.422 31.12ZM395.434 30.124C393.838 30.124 393.286 28.816 393.286 26.968C393.286 25.144 393.838 23.824 395.434 23.824C397.018 23.824 397.558 25.144 397.558 26.968C397.558 28.816 397.018 30.124 395.434 30.124ZM401.094 31V28.972L402.018 28.096L403.902 31H405.162L402.738 27.448L405.126 25.192H403.818L401.91 27.016L401.058 27.856L401.094 27.04V22.96H400.05V31H401.094Z" fill="#3D0072"/>
<rect x="48" y="4" width="360" height="12" rx="6" fill="#E7CDFE"/>
<rect x="1" y="4" width="309" height="12" rx="6" fill="#3D0072"/>
<circle cx="305" cy="10" r="4.33333" fill="white" stroke="#8807F7" stroke-width="3.33333"/>
<defs>
<filter id="filter0_d_13624_83767" x="270" y="22" width="73" height="51" filterUnits="userSpaceOnUse" color-interpolation-filters="sRGB">
<feFlood flood-opacity="0" result="BackgroundImageFix"/>
<feColorMatrix in="SourceAlpha" type="matrix" values="0 0 0 0 0 0 0 0 0 0 0 0 0 0 0 0 0 0 127 0" result="hardAlpha"/>
<feOffset dy="4"/>
<feGaussianBlur stdDeviation="4"/>
<feComposite in2="hardAlpha" operator="out"/>
<feColorMatrix type="matrix" values="0 0 0 0 0.533333 0 0 0 0 0.027451 0 0 0 0 0.968627 0 0 0 0.07 0"/>
<feBlend mode="normal" in2="BackgroundImageFix" result="effect1_dropShadow_13624_83767"/>
<feBlend mode="normal" in="SourceGraphic" in2="effect1_dropShadow_13624_83767" result="shape"/>
</filter>
</defs>
</svg>
