<svg width="1057" height="189" viewBox="0 0 1057 189" fill="none" xmlns="http://www.w3.org/2000/svg">
<g clip-path="url(#clip0_4095_81255)">
<rect width="1057" height="189" rx="16" fill="#F9FAFB"/>
<path d="M569.619 71.351C569.619 71.0954 569.569 70.8669 569.468 70.6656C569.368 70.4642 569.19 70.2938 568.934 70.1544C568.686 70.015 568.349 69.9104 567.923 69.8407C567.505 69.771 566.974 69.7361 566.332 69.7361C566.417 68.9926 566.483 68.2878 566.529 67.6217C566.576 66.9478 566.614 66.274 566.645 65.6001H570.758V66.7852H567.842C567.834 66.9168 567.823 67.0679 567.807 67.2383C567.799 67.4009 567.788 67.5674 567.772 67.7378C567.764 67.9082 567.753 68.0709 567.737 68.2258C567.722 68.3807 567.706 68.5124 567.691 68.6208C568.837 68.6828 569.681 68.9461 570.224 69.4108C570.773 69.8678 571.048 70.4952 571.048 71.2929C571.048 71.657 570.986 71.9939 570.863 72.3037C570.739 72.6135 570.549 72.8807 570.293 73.1053C570.038 73.3299 569.716 73.5081 569.329 73.6397C568.942 73.7637 568.489 73.8256 567.97 73.8256C567.761 73.8256 567.548 73.8101 567.331 73.7792C567.114 73.7482 566.905 73.7095 566.703 73.663C566.51 73.6243 566.335 73.5817 566.181 73.5352C566.026 73.4887 565.909 73.4461 565.832 73.4074L566.099 72.2224C566.262 72.2998 566.494 72.385 566.796 72.478C567.106 72.5632 567.482 72.6058 567.923 72.6058C568.225 72.6058 568.485 72.5748 568.702 72.5128C568.919 72.4431 569.093 72.3502 569.224 72.234C569.364 72.1178 569.465 71.9861 569.527 71.839C569.588 71.6841 569.619 71.5214 569.619 71.351ZM577.872 69.6199C577.872 70.9754 577.625 72.0171 577.129 72.7452C576.633 73.4655 575.948 73.8256 575.072 73.8256C574.197 73.8256 573.512 73.4655 573.016 72.7452C572.52 72.0171 572.273 70.9754 572.273 69.6199C572.273 68.9461 572.334 68.3497 572.458 67.8308C572.59 67.3041 572.776 66.8626 573.016 66.5063C573.264 66.1501 573.558 65.879 573.899 65.6931C574.248 65.5072 574.639 65.4143 575.072 65.4143C575.948 65.4143 576.633 65.7783 577.129 66.5063C577.625 67.2267 577.872 68.2645 577.872 69.6199ZM576.42 69.6199C576.42 69.2017 576.397 68.8106 576.35 68.4465C576.304 68.0825 576.226 67.7688 576.118 67.5055C576.017 67.2344 575.882 67.0214 575.711 66.8665C575.541 66.7116 575.328 66.6341 575.072 66.6341C574.817 66.6341 574.6 66.7116 574.422 66.8665C574.251 67.0214 574.112 67.2344 574.004 67.5055C573.903 67.7688 573.829 68.0825 573.783 68.4465C573.744 68.8106 573.725 69.2017 573.725 69.6199C573.725 70.0382 573.744 70.4293 573.783 70.7934C573.829 71.1574 573.903 71.4749 574.004 71.746C574.112 72.0094 574.251 72.2185 574.422 72.3734C574.6 72.5283 574.817 72.6058 575.072 72.6058C575.328 72.6058 575.541 72.5283 575.711 72.3734C575.882 72.2185 576.017 72.0094 576.118 71.746C576.226 71.4749 576.304 71.1574 576.35 70.7934C576.397 70.4293 576.42 70.0382 576.42 69.6199ZM582.826 67.6217C582.826 68.3265 582.644 68.8687 582.28 69.2482C581.923 69.6277 581.455 69.8175 580.874 69.8175C580.587 69.8175 580.324 69.771 580.084 69.678C579.844 69.5773 579.639 69.4341 579.468 69.2482C579.298 69.0623 579.162 68.8338 579.062 68.5627C578.969 68.2839 578.922 67.9702 578.922 67.6217C578.922 66.9091 579.1 66.3669 579.457 65.9952C579.821 65.6156 580.293 65.4259 580.874 65.4259C581.455 65.4259 581.923 65.6156 582.28 65.9952C582.644 66.3669 582.826 66.9091 582.826 67.6217ZM581.722 67.6217C581.722 67.2112 581.645 66.9052 581.49 66.7038C581.343 66.4947 581.137 66.3902 580.874 66.3902C580.611 66.3902 580.405 66.4947 580.258 66.7038C580.111 66.9052 580.037 67.2112 580.037 67.6217C580.037 68.0322 580.111 68.342 580.258 68.5511C580.405 68.7525 580.611 68.8532 580.874 68.8532C581.137 68.8532 581.343 68.7525 581.49 68.5511C581.645 68.342 581.722 68.0322 581.722 67.6217ZM585.184 65.6001H586.52L581.978 73.6514H580.642L585.184 65.6001ZM588.251 71.6415C588.251 72.3463 588.069 72.8885 587.705 73.268C587.349 73.6475 586.88 73.8373 586.3 73.8373C586.013 73.8373 585.75 73.7869 585.51 73.6862C585.269 73.5933 585.064 73.4539 584.894 73.268C584.723 73.0821 584.588 72.8536 584.487 72.5825C584.394 72.3037 584.348 71.99 584.348 71.6415C584.348 70.9289 584.526 70.3867 584.882 70.015C585.246 69.6354 585.719 69.4457 586.3 69.4457C586.88 69.4457 587.349 69.6354 587.705 70.015C588.069 70.3867 588.251 70.9289 588.251 71.6415ZM587.148 71.6415C587.148 71.231 587.07 70.925 586.915 70.7236C586.768 70.5145 586.563 70.41 586.3 70.41C586.036 70.41 585.831 70.5145 585.684 70.7236C585.537 70.925 585.463 71.231 585.463 71.6415C585.463 72.052 585.537 72.3618 585.684 72.5709C585.831 72.7723 586.036 72.873 586.3 72.873C586.563 72.873 586.768 72.7723 586.915 72.5709C587.07 72.3618 587.148 72.052 587.148 71.6415Z" fill="#9291A5"/>
<path d="M453.211 73.103C454.528 73.103 455.187 72.6523 455.187 71.751C455.187 71.4737 455.126 71.2397 455.005 71.049C454.892 70.8497 454.736 70.6807 454.537 70.542C454.338 70.3947 454.108 70.269 453.848 70.165C453.597 70.061 453.328 69.957 453.042 69.853C452.713 69.7403 452.401 69.6147 452.106 69.476C451.811 69.3287 451.556 69.1597 451.339 68.969C451.122 68.7697 450.949 68.5357 450.819 68.267C450.698 67.9983 450.637 67.6733 450.637 67.292C450.637 66.5033 450.906 65.888 451.443 65.446C451.98 65.004 452.721 64.783 453.666 64.783C454.212 64.783 454.706 64.8437 455.148 64.965C455.599 65.0777 455.928 65.2033 456.136 65.342L455.733 66.369C455.551 66.2563 455.278 66.148 454.914 66.044C454.559 65.9313 454.143 65.875 453.666 65.875C453.423 65.875 453.198 65.901 452.99 65.953C452.782 66.005 452.6 66.083 452.444 66.187C452.288 66.291 452.162 66.4253 452.067 66.59C451.98 66.746 451.937 66.9323 451.937 67.149C451.937 67.3917 451.985 67.5953 452.08 67.76C452.175 67.9247 452.31 68.072 452.483 68.202C452.656 68.3233 452.856 68.436 453.081 68.54C453.315 68.644 453.571 68.748 453.848 68.852C454.238 69.008 454.593 69.164 454.914 69.32C455.243 69.476 455.525 69.6623 455.759 69.879C456.002 70.0957 456.188 70.3557 456.318 70.659C456.448 70.9537 456.513 71.3133 456.513 71.738C456.513 72.5267 456.223 73.1333 455.642 73.558C455.07 73.9827 454.26 74.195 453.211 74.195C452.856 74.195 452.526 74.169 452.223 74.117C451.928 74.0737 451.664 74.0217 451.43 73.961C451.196 73.8917 450.992 73.8223 450.819 73.753C450.654 73.675 450.524 73.61 450.429 73.558L450.806 72.518C451.005 72.6307 451.309 72.7563 451.716 72.895C452.123 73.0337 452.622 73.103 453.211 73.103ZM460.247 73.129C460.533 73.129 460.784 73.1247 461.001 73.116C461.226 73.0987 461.413 73.0727 461.56 73.038V71.023C461.473 70.9797 461.33 70.945 461.131 70.919C460.94 70.8843 460.706 70.867 460.429 70.867C460.247 70.867 460.052 70.88 459.844 70.906C459.645 70.932 459.458 70.9883 459.285 71.075C459.12 71.153 458.982 71.2657 458.869 71.413C458.756 71.5517 458.7 71.738 458.7 71.972C458.7 72.4053 458.839 72.7087 459.116 72.882C459.393 73.0467 459.77 73.129 460.247 73.129ZM460.143 67.071C460.628 67.071 461.036 67.136 461.365 67.266C461.703 67.3873 461.972 67.565 462.171 67.799C462.379 68.0243 462.526 68.2973 462.613 68.618C462.7 68.93 462.743 69.2767 462.743 69.658V73.883C462.639 73.9003 462.492 73.9263 462.301 73.961C462.119 73.987 461.911 74.013 461.677 74.039C461.443 74.065 461.187 74.0867 460.91 74.104C460.641 74.13 460.373 74.143 460.104 74.143C459.723 74.143 459.372 74.104 459.051 74.026C458.73 73.948 458.453 73.8267 458.219 73.662C457.985 73.4887 457.803 73.2633 457.673 72.986C457.543 72.7087 457.478 72.375 457.478 71.985C457.478 71.6123 457.552 71.2917 457.699 71.023C457.855 70.7543 458.063 70.5377 458.323 70.373C458.583 70.2083 458.886 70.087 459.233 70.009C459.58 69.931 459.944 69.892 460.325 69.892C460.446 69.892 460.572 69.9007 460.702 69.918C460.832 69.9267 460.953 69.944 461.066 69.97C461.187 69.9873 461.291 70.0047 461.378 70.022C461.465 70.0393 461.525 70.0523 461.56 70.061V69.723C461.56 69.5237 461.538 69.3287 461.495 69.138C461.452 68.9387 461.374 68.7653 461.261 68.618C461.148 68.462 460.992 68.3407 460.793 68.254C460.602 68.1587 460.351 68.111 460.039 68.111C459.64 68.111 459.289 68.1413 458.986 68.202C458.691 68.254 458.47 68.3103 458.323 68.371L458.18 67.37C458.336 67.3007 458.596 67.2357 458.96 67.175C459.324 67.1057 459.718 67.071 460.143 67.071ZM469.839 67.24C469.501 68.5053 469.102 69.7187 468.643 70.88C468.192 72.0413 467.754 73.0813 467.33 74H466.238C465.813 73.0813 465.371 72.0413 464.912 70.88C464.461 69.7187 464.067 68.5053 463.729 67.24H465.029C465.133 67.6647 465.254 68.1197 465.393 68.605C465.54 69.0817 465.692 69.5583 465.848 70.035C466.012 70.503 466.177 70.958 466.342 71.4C466.506 71.842 466.662 72.2363 466.81 72.583C466.957 72.2363 467.113 71.842 467.278 71.4C467.442 70.958 467.603 70.503 467.759 70.035C467.923 69.5583 468.075 69.0817 468.214 68.605C468.361 68.1197 468.487 67.6647 468.591 67.24H469.839ZM472.295 74H471.086V67.24H472.295V74ZM471.684 66.018C471.467 66.018 471.281 65.9487 471.125 65.81C470.978 65.6627 470.904 65.4677 470.904 65.225C470.904 64.9823 470.978 64.7917 471.125 64.653C471.281 64.5057 471.467 64.432 471.684 64.432C471.901 64.432 472.083 64.5057 472.23 64.653C472.386 64.7917 472.464 64.9823 472.464 65.225C472.464 65.4677 472.386 65.6627 472.23 65.81C472.083 65.9487 471.901 66.018 471.684 66.018ZM474.374 67.435C474.651 67.3657 475.02 67.292 475.479 67.214C475.938 67.136 476.467 67.097 477.065 67.097C477.602 67.097 478.049 67.175 478.404 67.331C478.759 67.4783 479.041 67.6907 479.249 67.968C479.466 68.2367 479.617 68.5617 479.704 68.943C479.791 69.3243 479.834 69.7447 479.834 70.204V74H478.625V70.464C478.625 70.048 478.595 69.6927 478.534 69.398C478.482 69.1033 478.391 68.865 478.261 68.683C478.131 68.501 477.958 68.371 477.741 68.293C477.524 68.2063 477.256 68.163 476.935 68.163C476.805 68.163 476.671 68.1673 476.532 68.176C476.393 68.1847 476.259 68.1977 476.129 68.215C476.008 68.2237 475.895 68.2367 475.791 68.254C475.696 68.2713 475.626 68.2843 475.583 68.293V74H474.374V67.435ZM486.077 73.324C485.973 73.3933 485.769 73.4843 485.466 73.597C485.171 73.701 484.824 73.753 484.426 73.753C484.018 73.753 483.633 73.688 483.269 73.558C482.913 73.428 482.601 73.2287 482.333 72.96C482.064 72.6827 481.852 72.3403 481.696 71.933C481.54 71.5257 481.462 71.0403 481.462 70.477C481.462 69.983 481.535 69.5323 481.683 69.125C481.83 68.709 482.042 68.3537 482.32 68.059C482.606 67.7557 482.952 67.5217 483.36 67.357C483.767 67.1837 484.226 67.097 484.738 67.097C485.301 67.097 485.791 67.1403 486.207 67.227C486.631 67.305 486.987 67.3787 487.273 67.448V73.48C487.273 74.52 487.004 75.274 486.467 75.742C485.929 76.21 485.115 76.444 484.023 76.444C483.598 76.444 483.195 76.4093 482.814 76.34C482.441 76.2707 482.116 76.1883 481.839 76.093L482.06 75.04C482.302 75.1353 482.597 75.2177 482.944 75.287C483.299 75.365 483.667 75.404 484.049 75.404C484.768 75.404 485.284 75.261 485.596 74.975C485.916 74.689 486.077 74.234 486.077 73.61V73.324ZM486.064 68.306C485.942 68.2713 485.778 68.241 485.57 68.215C485.37 68.1803 485.097 68.163 484.751 68.163C484.101 68.163 483.598 68.3753 483.243 68.8C482.896 69.2247 482.723 69.788 482.723 70.49C482.723 70.88 482.77 71.2137 482.866 71.491C482.97 71.7683 483.104 71.998 483.269 72.18C483.442 72.362 483.637 72.4963 483.854 72.583C484.079 72.6697 484.309 72.713 484.543 72.713C484.863 72.713 485.158 72.6697 485.427 72.583C485.695 72.4877 485.908 72.3793 486.064 72.258V68.306ZM490.927 73.129C491.421 73.129 491.785 73.064 492.019 72.934C492.262 72.804 492.383 72.596 492.383 72.31C492.383 72.0153 492.266 71.7813 492.032 71.608C491.798 71.4347 491.413 71.2397 490.875 71.023C490.615 70.919 490.364 70.815 490.121 70.711C489.887 70.5983 489.684 70.4683 489.51 70.321C489.337 70.1737 489.198 69.996 489.094 69.788C488.99 69.58 488.938 69.3243 488.938 69.021C488.938 68.423 489.159 67.9507 489.601 67.604C490.043 67.2487 490.646 67.071 491.408 67.071C491.599 67.071 491.79 67.084 491.98 67.11C492.171 67.1273 492.349 67.1533 492.513 67.188C492.678 67.214 492.821 67.2443 492.942 67.279C493.072 67.3137 493.172 67.344 493.241 67.37L493.02 68.41C492.89 68.3407 492.687 68.2713 492.409 68.202C492.132 68.124 491.798 68.085 491.408 68.085C491.07 68.085 490.776 68.1543 490.524 68.293C490.273 68.423 490.147 68.631 490.147 68.917C490.147 69.0643 490.173 69.1943 490.225 69.307C490.286 69.4197 490.373 69.5237 490.485 69.619C490.607 69.7057 490.754 69.788 490.927 69.866C491.101 69.944 491.309 70.0263 491.551 70.113C491.872 70.2343 492.158 70.3557 492.409 70.477C492.661 70.5897 492.873 70.724 493.046 70.88C493.228 71.036 493.367 71.2267 493.462 71.452C493.558 71.6687 493.605 71.9373 493.605 72.258C493.605 72.882 493.371 73.3543 492.903 73.675C492.444 73.9957 491.785 74.156 490.927 74.156C490.329 74.156 489.861 74.104 489.523 74C489.185 73.9047 488.956 73.831 488.834 73.779L489.055 72.739C489.194 72.791 489.415 72.869 489.718 72.973C490.022 73.077 490.425 73.129 490.927 73.129Z" fill="#3D0072"/>
<circle cx="434" cy="70" r="7" fill="#FBBF24"/>
<path d="M432.829 70.4497L436.762 66.5163C436.884 66.3941 437.04 66.333 437.229 66.333C437.418 66.333 437.573 66.3941 437.695 66.5163C437.818 66.6386 437.879 66.7941 437.879 66.983C437.879 67.1719 437.818 67.3275 437.695 67.4497L433.295 71.8497C433.162 71.983 433.006 72.0497 432.829 72.0497C432.651 72.0497 432.495 71.983 432.362 71.8497L430.629 70.1163C430.506 69.9941 430.445 69.8386 430.445 69.6497C430.445 69.4608 430.506 69.3052 430.629 69.183C430.751 69.0608 430.906 68.9997 431.095 68.9997C431.284 68.9997 431.44 69.0608 431.562 69.183L432.829 70.4497Z" fill="white"/>
<path d="M566.215 116.913C566.665 116.735 567.114 116.506 567.563 116.227C568.02 115.948 568.423 115.619 568.771 115.24H569.759V123.291H568.353V117.122C568.144 117.285 567.881 117.443 567.563 117.598C567.246 117.753 566.94 117.881 566.645 117.982L566.215 116.913ZM577.872 119.26C577.872 120.615 577.625 121.657 577.129 122.385C576.633 123.105 575.948 123.465 575.072 123.465C574.197 123.465 573.512 123.105 573.016 122.385C572.52 121.657 572.273 120.615 572.273 119.26C572.273 118.586 572.334 117.989 572.458 117.47C572.59 116.944 572.776 116.502 573.016 116.146C573.264 115.79 573.558 115.519 573.899 115.333C574.248 115.147 574.639 115.054 575.072 115.054C575.948 115.054 576.633 115.418 577.129 116.146C577.625 116.866 577.872 117.904 577.872 119.26ZM576.42 119.26C576.42 118.841 576.397 118.45 576.35 118.086C576.304 117.722 576.226 117.408 576.118 117.145C576.017 116.874 575.882 116.661 575.711 116.506C575.541 116.351 575.328 116.274 575.072 116.274C574.817 116.274 574.6 116.351 574.422 116.506C574.251 116.661 574.112 116.874 574.004 117.145C573.903 117.408 573.829 117.722 573.783 118.086C573.744 118.45 573.725 118.841 573.725 119.26C573.725 119.678 573.744 120.069 573.783 120.433C573.829 120.797 573.903 121.115 574.004 121.386C574.112 121.649 574.251 121.858 574.422 122.013C574.6 122.168 574.817 122.245 575.072 122.245C575.328 122.245 575.541 122.168 575.711 122.013C575.882 121.858 576.017 121.649 576.118 121.386C576.226 121.115 576.304 120.797 576.35 120.433C576.397 120.069 576.42 119.678 576.42 119.26ZM582.826 117.261C582.826 117.966 582.644 118.508 582.28 118.888C581.923 119.267 581.455 119.457 580.874 119.457C580.587 119.457 580.324 119.411 580.084 119.318C579.844 119.217 579.639 119.074 579.468 118.888C579.298 118.702 579.162 118.473 579.062 118.202C578.969 117.924 578.922 117.61 578.922 117.261C578.922 116.549 579.1 116.007 579.457 115.635C579.821 115.255 580.293 115.066 580.874 115.066C581.455 115.066 581.923 115.255 582.28 115.635C582.644 116.007 582.826 116.549 582.826 117.261ZM581.722 117.261C581.722 116.851 581.645 116.545 581.49 116.343C581.343 116.134 581.137 116.03 580.874 116.03C580.611 116.03 580.405 116.134 580.258 116.343C580.111 116.545 580.037 116.851 580.037 117.261C580.037 117.672 580.111 117.982 580.258 118.191C580.405 118.392 580.611 118.493 580.874 118.493C581.137 118.493 581.343 118.392 581.49 118.191C581.645 117.982 581.722 117.672 581.722 117.261ZM585.184 115.24H586.52L581.978 123.291H580.642L585.184 115.24ZM588.251 121.281C588.251 121.986 588.069 122.528 587.705 122.908C587.349 123.287 586.88 123.477 586.3 123.477C586.013 123.477 585.75 123.427 585.51 123.326C585.269 123.233 585.064 123.094 584.894 122.908C584.723 122.722 584.588 122.493 584.487 122.222C584.394 121.943 584.348 121.63 584.348 121.281C584.348 120.569 584.526 120.026 584.882 119.655C585.246 119.275 585.719 119.085 586.3 119.085C586.88 119.085 587.349 119.275 587.705 119.655C588.069 120.026 588.251 120.569 588.251 121.281ZM587.148 121.281C587.148 120.871 587.07 120.565 586.915 120.363C586.768 120.154 586.563 120.05 586.3 120.05C586.036 120.05 585.831 120.154 585.684 120.363C585.537 120.565 585.463 120.871 585.463 121.281C585.463 121.692 585.537 122.001 585.684 122.211C585.831 122.412 586.036 122.513 586.3 122.513C586.563 122.513 586.768 122.412 586.915 122.211C587.07 122.001 587.148 121.692 587.148 121.281Z" fill="#9291A5"/>
<path d="M452.249 125H451.04V118.24H452.249V125ZM451.638 117.018C451.421 117.018 451.235 116.949 451.079 116.81C450.932 116.663 450.858 116.468 450.858 116.225C450.858 115.982 450.932 115.792 451.079 115.653C451.235 115.506 451.421 115.432 451.638 115.432C451.855 115.432 452.037 115.506 452.184 115.653C452.34 115.792 452.418 115.982 452.418 116.225C452.418 116.468 452.34 116.663 452.184 116.81C452.037 116.949 451.855 117.018 451.638 117.018ZM454.328 118.435C454.605 118.366 454.974 118.292 455.433 118.214C455.892 118.136 456.421 118.097 457.019 118.097C457.556 118.097 458.003 118.175 458.358 118.331C458.713 118.478 458.995 118.691 459.203 118.968C459.42 119.237 459.571 119.562 459.658 119.943C459.745 120.324 459.788 120.745 459.788 121.204V125H458.579V121.464C458.579 121.048 458.549 120.693 458.488 120.398C458.436 120.103 458.345 119.865 458.215 119.683C458.085 119.501 457.912 119.371 457.695 119.293C457.478 119.206 457.21 119.163 456.889 119.163C456.759 119.163 456.625 119.167 456.486 119.176C456.347 119.185 456.213 119.198 456.083 119.215C455.962 119.224 455.849 119.237 455.745 119.254C455.65 119.271 455.58 119.284 455.537 119.293V125H454.328V118.435ZM466.868 118.24C466.53 119.505 466.131 120.719 465.672 121.88C465.221 123.041 464.783 124.081 464.359 125H463.267C462.842 124.081 462.4 123.041 461.941 121.88C461.49 120.719 461.096 119.505 460.758 118.24H462.058C462.162 118.665 462.283 119.12 462.422 119.605C462.569 120.082 462.721 120.558 462.877 121.035C463.041 121.503 463.206 121.958 463.371 122.4C463.535 122.842 463.691 123.236 463.839 123.583C463.986 123.236 464.142 122.842 464.307 122.4C464.471 121.958 464.632 121.503 464.788 121.035C464.952 120.558 465.104 120.082 465.243 119.605C465.39 119.12 465.516 118.665 465.62 118.24H466.868ZM467.56 121.633C467.56 121.035 467.647 120.515 467.82 120.073C467.994 119.622 468.223 119.25 468.509 118.955C468.795 118.66 469.125 118.439 469.497 118.292C469.87 118.145 470.251 118.071 470.641 118.071C471.551 118.071 472.249 118.357 472.734 118.929C473.22 119.492 473.462 120.355 473.462 121.516C473.462 121.568 473.462 121.637 473.462 121.724C473.462 121.802 473.458 121.876 473.449 121.945H468.821C468.873 122.647 469.077 123.18 469.432 123.544C469.788 123.908 470.342 124.09 471.096 124.09C471.521 124.09 471.876 124.055 472.162 123.986C472.457 123.908 472.678 123.834 472.825 123.765L472.994 124.779C472.847 124.857 472.587 124.939 472.214 125.026C471.85 125.113 471.434 125.156 470.966 125.156C470.377 125.156 469.866 125.069 469.432 124.896C469.008 124.714 468.657 124.467 468.379 124.155C468.102 123.843 467.894 123.475 467.755 123.05C467.625 122.617 467.56 122.144 467.56 121.633ZM472.201 120.97C472.21 120.424 472.071 119.978 471.785 119.631C471.508 119.276 471.122 119.098 470.628 119.098C470.351 119.098 470.104 119.154 469.887 119.267C469.679 119.371 469.502 119.51 469.354 119.683C469.207 119.856 469.09 120.056 469.003 120.281C468.925 120.506 468.873 120.736 468.847 120.97H472.201ZM476.772 124.129C477.266 124.129 477.63 124.064 477.864 123.934C478.107 123.804 478.228 123.596 478.228 123.31C478.228 123.015 478.111 122.781 477.877 122.608C477.643 122.435 477.258 122.24 476.72 122.023C476.46 121.919 476.209 121.815 475.966 121.711C475.732 121.598 475.529 121.468 475.355 121.321C475.182 121.174 475.043 120.996 474.939 120.788C474.835 120.58 474.783 120.324 474.783 120.021C474.783 119.423 475.004 118.951 475.446 118.604C475.888 118.249 476.491 118.071 477.253 118.071C477.444 118.071 477.635 118.084 477.825 118.11C478.016 118.127 478.194 118.153 478.358 118.188C478.523 118.214 478.666 118.244 478.787 118.279C478.917 118.314 479.017 118.344 479.086 118.37L478.865 119.41C478.735 119.341 478.532 119.271 478.254 119.202C477.977 119.124 477.643 119.085 477.253 119.085C476.915 119.085 476.621 119.154 476.369 119.293C476.118 119.423 475.992 119.631 475.992 119.917C475.992 120.064 476.018 120.194 476.07 120.307C476.131 120.42 476.218 120.524 476.33 120.619C476.452 120.706 476.599 120.788 476.772 120.866C476.946 120.944 477.154 121.026 477.396 121.113C477.717 121.234 478.003 121.356 478.254 121.477C478.506 121.59 478.718 121.724 478.891 121.88C479.073 122.036 479.212 122.227 479.307 122.452C479.403 122.669 479.45 122.937 479.45 123.258C479.45 123.882 479.216 124.354 478.748 124.675C478.289 124.996 477.63 125.156 476.772 125.156C476.174 125.156 475.706 125.104 475.368 125C475.03 124.905 474.801 124.831 474.679 124.779L474.9 123.739C475.039 123.791 475.26 123.869 475.563 123.973C475.867 124.077 476.27 124.129 476.772 124.129ZM482.132 118.24H484.693V119.254H482.132V122.374C482.132 122.712 482.158 122.994 482.21 123.219C482.262 123.436 482.34 123.609 482.444 123.739C482.548 123.86 482.678 123.947 482.834 123.999C482.99 124.051 483.172 124.077 483.38 124.077C483.744 124.077 484.034 124.038 484.251 123.96C484.476 123.873 484.632 123.813 484.719 123.778L484.953 124.779C484.832 124.84 484.619 124.913 484.316 125C484.013 125.095 483.666 125.143 483.276 125.143C482.817 125.143 482.435 125.087 482.132 124.974C481.837 124.853 481.599 124.675 481.417 124.441C481.235 124.207 481.105 123.921 481.027 123.583C480.958 123.236 480.923 122.838 480.923 122.387V116.355L482.132 116.147V118.24ZM486.231 118.435C486.509 118.366 486.873 118.292 487.323 118.214C487.783 118.136 488.311 118.097 488.909 118.097C489.343 118.097 489.707 118.158 490.001 118.279C490.296 118.392 490.543 118.561 490.742 118.786C490.803 118.743 490.898 118.682 491.028 118.604C491.158 118.526 491.319 118.452 491.509 118.383C491.7 118.305 491.912 118.24 492.146 118.188C492.38 118.127 492.632 118.097 492.9 118.097C493.42 118.097 493.845 118.175 494.174 118.331C494.504 118.478 494.759 118.691 494.941 118.968C495.132 119.245 495.258 119.575 495.318 119.956C495.388 120.337 495.422 120.753 495.422 121.204V125H494.213V121.464C494.213 121.065 494.192 120.723 494.148 120.437C494.114 120.151 494.04 119.913 493.927 119.722C493.823 119.531 493.676 119.393 493.485 119.306C493.303 119.211 493.065 119.163 492.77 119.163C492.363 119.163 492.025 119.219 491.756 119.332C491.496 119.436 491.319 119.531 491.223 119.618C491.293 119.843 491.345 120.09 491.379 120.359C491.414 120.628 491.431 120.909 491.431 121.204V125H490.222V121.464C490.222 121.065 490.201 120.723 490.157 120.437C490.114 120.151 490.036 119.913 489.923 119.722C489.819 119.531 489.672 119.393 489.481 119.306C489.299 119.211 489.065 119.163 488.779 119.163C488.658 119.163 488.528 119.167 488.389 119.176C488.251 119.185 488.116 119.198 487.986 119.215C487.865 119.224 487.752 119.237 487.648 119.254C487.544 119.271 487.475 119.284 487.44 119.293V125H486.231V118.435ZM497.052 121.633C497.052 121.035 497.138 120.515 497.312 120.073C497.485 119.622 497.715 119.25 498.001 118.955C498.287 118.66 498.616 118.439 498.989 118.292C499.361 118.145 499.743 118.071 500.133 118.071C501.043 118.071 501.74 118.357 502.226 118.929C502.711 119.492 502.954 120.355 502.954 121.516C502.954 121.568 502.954 121.637 502.954 121.724C502.954 121.802 502.949 121.876 502.941 121.945H498.313C498.365 122.647 498.568 123.18 498.924 123.544C499.279 123.908 499.834 124.09 500.588 124.09C501.012 124.09 501.368 124.055 501.654 123.986C501.948 123.908 502.169 123.834 502.317 123.765L502.486 124.779C502.338 124.857 502.078 124.939 501.706 125.026C501.342 125.113 500.926 125.156 500.458 125.156C499.868 125.156 499.357 125.069 498.924 124.896C498.499 124.714 498.148 124.467 497.871 124.155C497.593 123.843 497.385 123.475 497.247 123.05C497.117 122.617 497.052 122.144 497.052 121.633ZM501.693 120.97C501.701 120.424 501.563 119.978 501.277 119.631C500.999 119.276 500.614 119.098 500.12 119.098C499.842 119.098 499.595 119.154 499.379 119.267C499.171 119.371 498.993 119.51 498.846 119.683C498.698 119.856 498.581 120.056 498.495 120.281C498.417 120.506 498.365 120.736 498.339 120.97H501.693ZM504.69 118.435C504.968 118.366 505.336 118.292 505.795 118.214C506.255 118.136 506.783 118.097 507.381 118.097C507.919 118.097 508.365 118.175 508.72 118.331C509.076 118.478 509.357 118.691 509.565 118.968C509.782 119.237 509.934 119.562 510.02 119.943C510.107 120.324 510.15 120.745 510.15 121.204V125H508.941V121.464C508.941 121.048 508.911 120.693 508.85 120.398C508.798 120.103 508.707 119.865 508.577 119.683C508.447 119.501 508.274 119.371 508.057 119.293C507.841 119.206 507.572 119.163 507.251 119.163C507.121 119.163 506.987 119.167 506.848 119.176C506.71 119.185 506.575 119.198 506.445 119.215C506.324 119.224 506.211 119.237 506.107 119.254C506.012 119.271 505.943 119.284 505.899 119.293V125H504.69V118.435ZM513.286 118.24H515.847V119.254H513.286V122.374C513.286 122.712 513.312 122.994 513.364 123.219C513.416 123.436 513.494 123.609 513.598 123.739C513.702 123.86 513.832 123.947 513.988 123.999C514.144 124.051 514.326 124.077 514.534 124.077C514.898 124.077 515.189 124.038 515.405 123.96C515.631 123.873 515.787 123.813 515.873 123.778L516.107 124.779C515.986 124.84 515.774 124.913 515.47 125C515.167 125.095 514.82 125.143 514.43 125.143C513.971 125.143 513.59 125.087 513.286 124.974C512.992 124.853 512.753 124.675 512.571 124.441C512.389 124.207 512.259 123.921 512.181 123.583C512.112 123.236 512.077 122.838 512.077 122.387V116.355L513.286 116.147V118.24Z" fill="#3D0072"/>
<circle cx="434" cy="121" r="7" fill="#069669"/>
<path d="M798.401 68.2666C798.401 68.5454 798.342 68.8204 798.226 69.0914C798.11 69.3548 797.959 69.6142 797.773 69.8698C797.595 70.1177 797.39 70.3617 797.157 70.6018C796.925 70.8341 796.693 71.0626 796.46 71.2872C796.336 71.4034 796.197 71.5428 796.042 71.7055C795.887 71.8681 795.74 72.0308 795.601 72.1934C795.461 72.3561 795.341 72.5149 795.241 72.6698C795.14 72.8169 795.086 72.9408 795.078 73.0415H798.656V74.2266H793.533C793.525 74.1646 793.521 74.091 793.521 74.0058C793.521 73.9129 793.521 73.8432 793.521 73.7967C793.521 73.4249 793.579 73.0841 793.695 72.7743C793.819 72.4568 793.978 72.1624 794.172 71.8914C794.365 71.6203 794.582 71.3647 794.822 71.1246C795.062 70.8845 795.302 70.6482 795.543 70.4159C795.728 70.2377 795.907 70.0635 796.077 69.8931C796.247 69.7227 796.395 69.5562 796.518 69.3935C796.65 69.2231 796.755 69.0527 796.832 68.8823C796.91 68.7042 796.948 68.5222 796.948 68.3363C796.948 67.9335 796.832 67.6469 796.6 67.4765C796.367 67.3062 796.085 67.221 795.752 67.221C795.535 67.221 795.333 67.2519 795.148 67.3139C794.962 67.3759 794.795 67.4494 794.648 67.5346C794.509 67.6198 794.385 67.7089 794.276 67.8018C794.168 67.887 794.086 67.9568 794.032 68.011L793.335 67.0234C793.66 66.7136 794.04 66.4658 794.474 66.2799C794.915 66.0863 795.388 65.9895 795.891 65.9895C796.751 65.9895 797.382 66.1947 797.785 66.6052C798.195 67.008 798.401 67.5617 798.401 68.2666ZM805.515 70.1951C805.515 71.5506 805.267 72.5923 804.771 73.3204C804.276 74.0407 803.59 74.4008 802.715 74.4008C801.84 74.4008 801.154 74.0407 800.659 73.3204C800.163 72.5923 799.915 71.5506 799.915 70.1951C799.915 69.5213 799.977 68.9249 800.101 68.406C800.233 67.8793 800.419 67.4378 800.659 67.0815C800.906 66.7253 801.201 66.4542 801.542 66.2683C801.89 66.0824 802.281 65.9895 802.715 65.9895C803.59 65.9895 804.276 66.3535 804.771 67.0815C805.267 67.8018 805.515 68.8397 805.515 70.1951ZM804.063 70.1951C804.063 69.7769 804.039 69.3858 803.993 69.0217C803.947 68.6577 803.869 68.344 803.761 68.0807C803.66 67.8096 803.524 67.5966 803.354 67.4417C803.184 67.2868 802.971 67.2093 802.715 67.2093C802.459 67.2093 802.243 67.2868 802.064 67.4417C801.894 67.5966 801.755 67.8096 801.646 68.0807C801.545 68.344 801.472 68.6577 801.425 69.0217C801.387 69.3858 801.367 69.7769 801.367 70.1951C801.367 70.6134 801.387 71.0045 801.425 71.3686C801.472 71.7326 801.545 72.0501 801.646 72.3212C801.755 72.5846 801.894 72.7937 802.064 72.9486C802.243 73.1035 802.459 73.1809 802.715 73.1809C802.971 73.1809 803.184 73.1035 803.354 72.9486C803.524 72.7937 803.66 72.5846 803.761 72.3212C803.869 72.0501 803.947 71.7326 803.993 71.3686C804.039 71.0045 804.063 70.6134 804.063 70.1951ZM810.468 68.1969C810.468 68.9017 810.286 69.4438 809.922 69.8234C809.566 70.2029 809.097 70.3926 808.517 70.3926C808.23 70.3926 807.967 70.3462 807.727 70.2532C807.486 70.1525 807.281 70.0093 807.111 69.8234C806.94 69.6375 806.805 69.409 806.704 69.1379C806.611 68.8591 806.565 68.5454 806.565 68.1969C806.565 67.4843 806.743 66.9421 807.099 66.5703C807.463 66.1908 807.936 66.0011 808.517 66.0011C809.097 66.0011 809.566 66.1908 809.922 66.5703C810.286 66.9421 810.468 67.4843 810.468 68.1969ZM809.365 68.1969C809.365 67.7864 809.287 67.4804 809.132 67.279C808.985 67.0699 808.78 66.9654 808.517 66.9654C808.253 66.9654 808.048 67.0699 807.901 67.279C807.754 67.4804 807.68 67.7864 807.68 68.1969C807.68 68.6074 807.754 68.9172 807.901 69.1263C808.048 69.3277 808.253 69.4284 808.517 69.4284C808.78 69.4284 808.985 69.3277 809.132 69.1263C809.287 68.9172 809.365 68.6074 809.365 68.1969ZM812.827 66.1753H814.163L809.62 74.2266H808.284L812.827 66.1753ZM815.894 72.2167C815.894 72.9215 815.712 73.4637 815.348 73.8432C814.992 74.2227 814.523 74.4124 813.942 74.4124C813.656 74.4124 813.392 74.3621 813.152 74.2614C812.912 74.1685 812.707 74.0291 812.536 73.8432C812.366 73.6573 812.23 73.4288 812.13 73.1577C812.037 72.8789 811.99 72.5652 811.99 72.2167C811.99 71.5041 812.168 70.9619 812.525 70.5902C812.889 70.2106 813.361 70.0209 813.942 70.0209C814.523 70.0209 814.992 70.2106 815.348 70.5902C815.712 70.9619 815.894 71.5041 815.894 72.2167ZM814.79 72.2167C814.79 71.8062 814.713 71.5002 814.558 71.2988C814.411 71.0897 814.205 70.9852 813.942 70.9852C813.679 70.9852 813.474 71.0897 813.326 71.2988C813.179 71.5002 813.106 71.8062 813.106 72.2167C813.106 72.6272 813.179 72.937 813.326 73.1461C813.474 73.3475 813.679 73.4482 813.942 73.4482C814.205 73.4482 814.411 73.3475 814.558 73.1461C814.713 72.937 814.79 72.6272 814.79 72.2167Z" fill="#9291A5"/>
<path d="M678.118 64.991H679.379V74H678.118V64.991ZM681.531 67.435C681.809 67.3657 682.177 67.292 682.636 67.214C683.096 67.136 683.624 67.097 684.222 67.097C684.76 67.097 685.206 67.175 685.561 67.331C685.917 67.4783 686.198 67.6907 686.406 67.968C686.623 68.2367 686.775 68.5617 686.861 68.943C686.948 69.3243 686.991 69.7447 686.991 70.204V74H685.782V70.464C685.782 70.048 685.752 69.6927 685.691 69.398C685.639 69.1033 685.548 68.865 685.418 68.683C685.288 68.501 685.115 68.371 684.898 68.293C684.682 68.2063 684.413 68.163 684.092 68.163C683.962 68.163 683.828 68.1673 683.689 68.176C683.551 68.1847 683.416 68.1977 683.286 68.215C683.165 68.2237 683.052 68.2367 682.948 68.254C682.853 68.2713 682.784 68.2843 682.74 68.293V74H681.531V67.435ZM690.569 73.129C691.063 73.129 691.427 73.064 691.661 72.934C691.904 72.804 692.025 72.596 692.025 72.31C692.025 72.0153 691.908 71.7813 691.674 71.608C691.44 71.4347 691.054 71.2397 690.517 71.023C690.257 70.919 690.006 70.815 689.763 70.711C689.529 70.5983 689.325 70.4683 689.152 70.321C688.979 70.1737 688.84 69.996 688.736 69.788C688.632 69.58 688.58 69.3243 688.58 69.021C688.58 68.423 688.801 67.9507 689.243 67.604C689.685 67.2487 690.287 67.071 691.05 67.071C691.241 67.071 691.431 67.084 691.622 67.11C691.813 67.1273 691.99 67.1533 692.155 67.188C692.32 67.214 692.463 67.2443 692.584 67.279C692.714 67.3137 692.814 67.344 692.883 67.37L692.662 68.41C692.532 68.3407 692.328 68.2713 692.051 68.202C691.774 68.124 691.44 68.085 691.05 68.085C690.712 68.085 690.417 68.1543 690.166 68.293C689.915 68.423 689.789 68.631 689.789 68.917C689.789 69.0643 689.815 69.1943 689.867 69.307C689.928 69.4197 690.014 69.5237 690.127 69.619C690.248 69.7057 690.396 69.788 690.569 69.866C690.742 69.944 690.95 70.0263 691.193 70.113C691.514 70.2343 691.8 70.3557 692.051 70.477C692.302 70.5897 692.515 70.724 692.688 70.88C692.87 71.036 693.009 71.2267 693.104 71.452C693.199 71.6687 693.247 71.9373 693.247 72.258C693.247 72.882 693.013 73.3543 692.545 73.675C692.086 73.9957 691.427 74.156 690.569 74.156C689.971 74.156 689.503 74.104 689.165 74C688.827 73.9047 688.597 73.831 688.476 73.779L688.697 72.739C688.836 72.791 689.057 72.869 689.36 72.973C689.663 73.077 690.066 73.129 690.569 73.129ZM700.18 73.805C699.902 73.8743 699.534 73.948 699.075 74.026C698.624 74.104 698.1 74.143 697.502 74.143C696.982 74.143 696.544 74.0693 696.189 73.922C695.833 73.766 695.547 73.5493 695.331 73.272C695.114 72.9947 694.958 72.6697 694.863 72.297C694.767 71.9157 694.72 71.4953 694.72 71.036V67.24H695.929V70.776C695.929 71.5993 696.059 72.1887 696.319 72.544C696.579 72.8993 697.016 73.077 697.632 73.077C697.762 73.077 697.896 73.0727 698.035 73.064C698.173 73.0553 698.303 73.0467 698.425 73.038C698.546 73.0207 698.654 73.0077 698.75 72.999C698.854 72.9817 698.927 72.9643 698.971 72.947V67.24H700.18V73.805ZM704.759 67.097C704.863 67.097 704.98 67.1057 705.11 67.123C705.248 67.1317 705.383 67.149 705.513 67.175C705.643 67.1923 705.76 67.214 705.864 67.24C705.976 67.2573 706.059 67.2747 706.111 67.292L705.903 68.345C705.807 68.3103 705.647 68.2713 705.422 68.228C705.205 68.176 704.923 68.15 704.577 68.15C704.351 68.15 704.126 68.176 703.901 68.228C703.684 68.2713 703.541 68.3017 703.472 68.319V74H702.263V67.526C702.549 67.422 702.904 67.3267 703.329 67.24C703.753 67.1447 704.23 67.097 704.759 67.097ZM709.565 73.129C709.851 73.129 710.103 73.1247 710.319 73.116C710.545 73.0987 710.731 73.0727 710.878 73.038V71.023C710.792 70.9797 710.649 70.945 710.449 70.919C710.259 70.8843 710.025 70.867 709.747 70.867C709.565 70.867 709.37 70.88 709.162 70.906C708.963 70.932 708.777 70.9883 708.603 71.075C708.439 71.153 708.3 71.2657 708.187 71.413C708.075 71.5517 708.018 71.738 708.018 71.972C708.018 72.4053 708.157 72.7087 708.434 72.882C708.712 73.0467 709.089 73.129 709.565 73.129ZM709.461 67.071C709.947 67.071 710.354 67.136 710.683 67.266C711.021 67.3873 711.29 67.565 711.489 67.799C711.697 68.0243 711.845 68.2973 711.931 68.618C712.018 68.93 712.061 69.2767 712.061 69.658V73.883C711.957 73.9003 711.81 73.9263 711.619 73.961C711.437 73.987 711.229 74.013 710.995 74.039C710.761 74.065 710.506 74.0867 710.228 74.104C709.96 74.13 709.691 74.143 709.422 74.143C709.041 74.143 708.69 74.104 708.369 74.026C708.049 73.948 707.771 73.8267 707.537 73.662C707.303 73.4887 707.121 73.2633 706.991 72.986C706.861 72.7087 706.796 72.375 706.796 71.985C706.796 71.6123 706.87 71.2917 707.017 71.023C707.173 70.7543 707.381 70.5377 707.641 70.373C707.901 70.2083 708.205 70.087 708.551 70.009C708.898 69.931 709.262 69.892 709.643 69.892C709.765 69.892 709.89 69.9007 710.02 69.918C710.15 69.9267 710.272 69.944 710.384 69.97C710.506 69.9873 710.61 70.0047 710.696 70.022C710.783 70.0393 710.844 70.0523 710.878 70.061V69.723C710.878 69.5237 710.857 69.3287 710.813 69.138C710.77 68.9387 710.692 68.7653 710.579 68.618C710.467 68.462 710.311 68.3407 710.111 68.254C709.921 68.1587 709.669 68.111 709.357 68.111C708.959 68.111 708.608 68.1413 708.304 68.202C708.01 68.254 707.789 68.3103 707.641 68.371L707.498 67.37C707.654 67.3007 707.914 67.2357 708.278 67.175C708.642 67.1057 709.037 67.071 709.461 67.071ZM714.069 67.435C714.347 67.3657 714.715 67.292 715.174 67.214C715.634 67.136 716.162 67.097 716.76 67.097C717.298 67.097 717.744 67.175 718.099 67.331C718.455 67.4783 718.736 67.6907 718.944 67.968C719.161 68.2367 719.313 68.5617 719.399 68.943C719.486 69.3243 719.529 69.7447 719.529 70.204V74H718.32V70.464C718.32 70.048 718.29 69.6927 718.229 69.398C718.177 69.1033 718.086 68.865 717.956 68.683C717.826 68.501 717.653 68.371 717.436 68.293C717.22 68.2063 716.951 68.163 716.63 68.163C716.5 68.163 716.366 68.1673 716.227 68.176C716.089 68.1847 715.954 68.1977 715.824 68.215C715.703 68.2237 715.59 68.2367 715.486 68.254C715.391 68.2713 715.322 68.2843 715.278 68.293V74H714.069V67.435ZM724.472 74.156C723.926 74.156 723.445 74.0693 723.029 73.896C722.622 73.7227 722.275 73.48 721.989 73.168C721.712 72.856 721.504 72.4877 721.365 72.063C721.226 71.6297 721.157 71.153 721.157 70.633C721.157 70.113 721.231 69.6363 721.378 69.203C721.534 68.7697 721.751 68.397 722.028 68.085C722.305 67.7643 722.643 67.5173 723.042 67.344C723.449 67.162 723.9 67.071 724.394 67.071C724.697 67.071 725.001 67.097 725.304 67.149C725.607 67.201 725.898 67.2833 726.175 67.396L725.902 68.423C725.72 68.3363 725.508 68.267 725.265 68.215C725.031 68.163 724.78 68.137 724.511 68.137C723.835 68.137 723.315 68.3493 722.951 68.774C722.596 69.1987 722.418 69.8183 722.418 70.633C722.418 70.997 722.457 71.3307 722.535 71.634C722.622 71.9373 722.752 72.1973 722.925 72.414C723.107 72.6307 723.337 72.7997 723.614 72.921C723.891 73.0337 724.229 73.09 724.628 73.09C724.949 73.09 725.239 73.0597 725.499 72.999C725.759 72.9383 725.963 72.8733 726.11 72.804L726.279 73.818C726.21 73.8613 726.11 73.9047 725.98 73.948C725.85 73.9827 725.703 74.013 725.538 74.039C725.373 74.0737 725.196 74.0997 725.005 74.117C724.823 74.143 724.645 74.156 724.472 74.156ZM727.2 70.633C727.2 70.035 727.287 69.515 727.46 69.073C727.633 68.6223 727.863 68.2497 728.149 67.955C728.435 67.6603 728.764 67.4393 729.137 67.292C729.51 67.1447 729.891 67.071 730.281 67.071C731.191 67.071 731.889 67.357 732.374 67.929C732.859 68.4923 733.102 69.3547 733.102 70.516C733.102 70.568 733.102 70.6373 733.102 70.724C733.102 70.802 733.098 70.8757 733.089 70.945H728.461C728.513 71.647 728.717 72.18 729.072 72.544C729.427 72.908 729.982 73.09 730.736 73.09C731.161 73.09 731.516 73.0553 731.802 72.986C732.097 72.908 732.318 72.8343 732.465 72.765L732.634 73.779C732.487 73.857 732.227 73.9393 731.854 74.026C731.49 74.1127 731.074 74.156 730.606 74.156C730.017 74.156 729.505 74.0693 729.072 73.896C728.647 73.714 728.296 73.467 728.019 73.155C727.742 72.843 727.534 72.4747 727.395 72.05C727.265 71.6167 727.2 71.1443 727.2 70.633ZM731.841 69.97C731.85 69.424 731.711 68.9777 731.425 68.631C731.148 68.2757 730.762 68.098 730.268 68.098C729.991 68.098 729.744 68.1543 729.527 68.267C729.319 68.371 729.141 68.5097 728.994 68.683C728.847 68.8563 728.73 69.0557 728.643 69.281C728.565 69.5063 728.513 69.736 728.487 69.97H731.841Z" fill="#3D0072"/>
<circle cx="660" cy="69" r="7" fill="#8807F7"/>
<path d="M798.238 119.267C798.238 119.545 798.18 119.82 798.064 120.091C797.948 120.355 797.797 120.614 797.611 120.87C797.433 121.118 797.228 121.362 796.995 121.602C796.763 121.834 796.531 122.063 796.298 122.287C796.174 122.403 796.035 122.543 795.88 122.705C795.725 122.868 795.578 123.031 795.439 123.193C795.299 123.356 795.179 123.515 795.078 123.67C794.978 123.817 794.923 123.941 794.916 124.042H798.494V125.227H793.371C793.363 125.165 793.359 125.091 793.359 125.006C793.359 124.913 793.359 124.843 793.359 124.797C793.359 124.425 793.417 124.084 793.533 123.774C793.657 123.457 793.816 123.162 794.01 122.891C794.203 122.62 794.42 122.365 794.66 122.125C794.9 121.884 795.14 121.648 795.38 121.416C795.566 121.238 795.744 121.063 795.915 120.893C796.085 120.723 796.232 120.556 796.356 120.394C796.488 120.223 796.593 120.053 796.67 119.882C796.748 119.704 796.786 119.522 796.786 119.336C796.786 118.934 796.67 118.647 796.438 118.477C796.205 118.306 795.923 118.221 795.59 118.221C795.373 118.221 795.171 118.252 794.985 118.314C794.8 118.376 794.633 118.449 794.486 118.535C794.346 118.62 794.223 118.709 794.114 118.802C794.006 118.887 793.924 118.957 793.87 119.011L793.173 118.023C793.498 117.714 793.878 117.466 794.312 117.28C794.753 117.086 795.226 116.989 795.729 116.989C796.589 116.989 797.22 117.195 797.623 117.605C798.033 118.008 798.238 118.562 798.238 119.267ZM805.353 121.195C805.353 122.551 805.105 123.592 804.609 124.32C804.114 125.041 803.428 125.401 802.553 125.401C801.678 125.401 800.992 125.041 800.497 124.32C800.001 123.592 799.753 122.551 799.753 121.195C799.753 120.521 799.815 119.925 799.939 119.406C800.071 118.879 800.256 118.438 800.497 118.082C800.744 117.725 801.039 117.454 801.379 117.268C801.728 117.082 802.119 116.989 802.553 116.989C803.428 116.989 804.114 117.353 804.609 118.082C805.105 118.802 805.353 119.84 805.353 121.195ZM803.901 121.195C803.901 120.777 803.877 120.386 803.831 120.022C803.784 119.658 803.707 119.344 803.599 119.081C803.498 118.81 803.362 118.597 803.192 118.442C803.021 118.287 802.808 118.209 802.553 118.209C802.297 118.209 802.08 118.287 801.902 118.442C801.732 118.597 801.592 118.81 801.484 119.081C801.383 119.344 801.31 119.658 801.263 120.022C801.225 120.386 801.205 120.777 801.205 121.195C801.205 121.613 801.225 122.005 801.263 122.369C801.31 122.733 801.383 123.05 801.484 123.321C801.592 123.585 801.732 123.794 801.902 123.949C802.08 124.103 802.297 124.181 802.553 124.181C802.808 124.181 803.021 124.103 803.192 123.949C803.362 123.794 803.498 123.585 803.599 123.321C803.707 123.05 803.784 122.733 803.831 122.369C803.877 122.005 803.901 121.613 803.901 121.195ZM810.306 119.197C810.306 119.902 810.124 120.444 809.76 120.823C809.404 121.203 808.935 121.393 808.354 121.393C808.068 121.393 807.805 121.346 807.564 121.253C807.324 121.153 807.119 121.009 806.949 120.823C806.778 120.637 806.643 120.409 806.542 120.138C806.449 119.859 806.403 119.545 806.403 119.197C806.403 118.484 806.581 117.942 806.937 117.57C807.301 117.191 807.774 117.001 808.354 117.001C808.935 117.001 809.404 117.191 809.76 117.57C810.124 117.942 810.306 118.484 810.306 119.197ZM809.203 119.197C809.203 118.786 809.125 118.48 808.97 118.279C808.823 118.07 808.618 117.965 808.354 117.965C808.091 117.965 807.886 118.07 807.739 118.279C807.592 118.48 807.518 118.786 807.518 119.197C807.518 119.607 807.592 119.917 807.739 120.126C807.886 120.328 808.091 120.428 808.354 120.428C808.618 120.428 808.823 120.328 808.97 120.126C809.125 119.917 809.203 119.607 809.203 119.197ZM812.665 117.175H814.001L809.458 125.227H808.122L812.665 117.175ZM815.732 123.217C815.732 123.921 815.55 124.464 815.186 124.843C814.829 125.223 814.361 125.412 813.78 125.412C813.493 125.412 813.23 125.362 812.99 125.261C812.75 125.168 812.545 125.029 812.374 124.843C812.204 124.657 812.068 124.429 811.968 124.158C811.875 123.879 811.828 123.565 811.828 123.217C811.828 122.504 812.006 121.962 812.363 121.59C812.727 121.211 813.199 121.021 813.78 121.021C814.361 121.021 814.829 121.211 815.186 121.59C815.55 121.962 815.732 122.504 815.732 123.217ZM814.628 123.217C814.628 122.806 814.551 122.5 814.396 122.299C814.249 122.09 814.043 121.985 813.78 121.985C813.517 121.985 813.311 122.09 813.164 122.299C813.017 122.5 812.944 122.806 812.944 123.217C812.944 123.627 813.017 123.937 813.164 124.146C813.311 124.347 813.517 124.448 813.78 124.448C814.043 124.448 814.249 124.347 814.396 124.146C814.551 123.937 814.628 123.627 814.628 123.217Z" fill="#9291A5"/>
<path d="M680.549 125.078C680.367 125.078 680.168 125.074 679.951 125.065C679.743 125.056 679.531 125.043 679.314 125.026C679.106 125.009 678.898 124.987 678.69 124.961C678.482 124.935 678.291 124.9 678.118 124.857V116.121C678.291 116.078 678.482 116.043 678.69 116.017C678.898 115.991 679.106 115.969 679.314 115.952C679.531 115.935 679.743 115.922 679.951 115.913C680.159 115.904 680.354 115.9 680.536 115.9C681.056 115.9 681.541 115.939 681.992 116.017C682.451 116.095 682.846 116.229 683.175 116.42C683.513 116.602 683.777 116.845 683.968 117.148C684.159 117.451 684.254 117.824 684.254 118.266C684.254 118.76 684.137 119.167 683.903 119.488C683.669 119.8 683.357 120.034 682.967 120.19C683.496 120.346 683.916 120.593 684.228 120.931C684.54 121.269 684.696 121.746 684.696 122.361C684.696 123.262 684.362 123.943 683.695 124.402C683.036 124.853 681.988 125.078 680.549 125.078ZM679.366 120.801V123.973C679.461 123.982 679.574 123.99 679.704 123.999C679.817 124.008 679.947 124.016 680.094 124.025C680.25 124.025 680.428 124.025 680.627 124.025C681 124.025 681.351 124.003 681.68 123.96C682.018 123.908 682.313 123.821 682.564 123.7C682.815 123.579 683.015 123.41 683.162 123.193C683.318 122.976 683.396 122.703 683.396 122.374C683.396 122.079 683.34 121.832 683.227 121.633C683.114 121.425 682.95 121.26 682.733 121.139C682.525 121.018 682.274 120.931 681.979 120.879C681.684 120.827 681.355 120.801 680.991 120.801H679.366ZM679.366 119.787H680.692C681.004 119.787 681.299 119.765 681.576 119.722C681.853 119.679 682.092 119.601 682.291 119.488C682.499 119.375 682.659 119.228 682.772 119.046C682.893 118.864 682.954 118.634 682.954 118.357C682.954 118.097 682.893 117.88 682.772 117.707C682.651 117.525 682.482 117.382 682.265 117.278C682.057 117.165 681.81 117.083 681.524 117.031C681.238 116.979 680.935 116.953 680.614 116.953C680.293 116.953 680.042 116.957 679.86 116.966C679.678 116.975 679.513 116.988 679.366 117.005V119.787ZM691.776 124.805C691.498 124.874 691.13 124.948 690.671 125.026C690.22 125.104 689.696 125.143 689.098 125.143C688.578 125.143 688.14 125.069 687.785 124.922C687.429 124.766 687.143 124.549 686.927 124.272C686.71 123.995 686.554 123.67 686.459 123.297C686.363 122.916 686.316 122.495 686.316 122.036V118.24H687.525V121.776C687.525 122.599 687.655 123.189 687.915 123.544C688.175 123.899 688.612 124.077 689.228 124.077C689.358 124.077 689.492 124.073 689.631 124.064C689.769 124.055 689.899 124.047 690.021 124.038C690.142 124.021 690.25 124.008 690.346 123.999C690.45 123.982 690.523 123.964 690.567 123.947V118.24H691.776V124.805ZM698.226 119.67C698.079 119.549 697.867 119.432 697.589 119.319C697.312 119.206 697.009 119.15 696.679 119.15C696.333 119.15 696.034 119.215 695.782 119.345C695.54 119.466 695.34 119.64 695.184 119.865C695.028 120.082 694.916 120.342 694.846 120.645C694.777 120.948 694.742 121.273 694.742 121.62C694.742 122.409 694.937 123.02 695.327 123.453C695.717 123.878 696.237 124.09 696.887 124.09C697.217 124.09 697.49 124.077 697.706 124.051C697.932 124.016 698.105 123.982 698.226 123.947V119.67ZM698.226 115.12L699.435 114.912V124.805C699.158 124.883 698.803 124.961 698.369 125.039C697.936 125.117 697.438 125.156 696.874 125.156C696.354 125.156 695.886 125.074 695.47 124.909C695.054 124.744 694.699 124.51 694.404 124.207C694.11 123.904 693.88 123.535 693.715 123.102C693.559 122.66 693.481 122.166 693.481 121.62C693.481 121.1 693.546 120.623 693.676 120.19C693.815 119.757 694.014 119.384 694.274 119.072C694.534 118.76 694.851 118.517 695.223 118.344C695.605 118.171 696.038 118.084 696.523 118.084C696.913 118.084 697.256 118.136 697.55 118.24C697.854 118.344 698.079 118.444 698.226 118.539V115.12ZM705.752 124.324C705.648 124.393 705.444 124.484 705.141 124.597C704.846 124.701 704.499 124.753 704.101 124.753C703.693 124.753 703.308 124.688 702.944 124.558C702.588 124.428 702.276 124.229 702.008 123.96C701.739 123.683 701.527 123.34 701.371 122.933C701.215 122.526 701.137 122.04 701.137 121.477C701.137 120.983 701.21 120.532 701.358 120.125C701.505 119.709 701.717 119.354 701.995 119.059C702.281 118.756 702.627 118.522 703.035 118.357C703.442 118.184 703.901 118.097 704.413 118.097C704.976 118.097 705.466 118.14 705.882 118.227C706.306 118.305 706.662 118.379 706.948 118.448V124.48C706.948 125.52 706.679 126.274 706.142 126.742C705.604 127.21 704.79 127.444 703.698 127.444C703.273 127.444 702.87 127.409 702.489 127.34C702.116 127.271 701.791 127.188 701.514 127.093L701.735 126.04C701.977 126.135 702.272 126.218 702.619 126.287C702.974 126.365 703.342 126.404 703.724 126.404C704.443 126.404 704.959 126.261 705.271 125.975C705.591 125.689 705.752 125.234 705.752 124.61V124.324ZM705.739 119.306C705.617 119.271 705.453 119.241 705.245 119.215C705.045 119.18 704.772 119.163 704.426 119.163C703.776 119.163 703.273 119.375 702.918 119.8C702.571 120.225 702.398 120.788 702.398 121.49C702.398 121.88 702.445 122.214 702.541 122.491C702.645 122.768 702.779 122.998 702.944 123.18C703.117 123.362 703.312 123.496 703.529 123.583C703.754 123.67 703.984 123.713 704.218 123.713C704.538 123.713 704.833 123.67 705.102 123.583C705.37 123.488 705.583 123.379 705.739 123.258V119.306ZM708.652 121.633C708.652 121.035 708.739 120.515 708.912 120.073C709.086 119.622 709.315 119.25 709.601 118.955C709.887 118.66 710.217 118.439 710.589 118.292C710.962 118.145 711.343 118.071 711.733 118.071C712.643 118.071 713.341 118.357 713.826 118.929C714.312 119.492 714.554 120.355 714.554 121.516C714.554 121.568 714.554 121.637 714.554 121.724C714.554 121.802 714.55 121.876 714.541 121.945H709.913C709.965 122.647 710.169 123.18 710.524 123.544C710.88 123.908 711.434 124.09 712.188 124.09C712.613 124.09 712.968 124.055 713.254 123.986C713.549 123.908 713.77 123.834 713.917 123.765L714.086 124.779C713.939 124.857 713.679 124.939 713.306 125.026C712.942 125.113 712.526 125.156 712.058 125.156C711.469 125.156 710.958 125.069 710.524 124.896C710.1 124.714 709.749 124.467 709.471 124.155C709.194 123.843 708.986 123.475 708.847 123.05C708.717 122.617 708.652 122.144 708.652 121.633ZM713.293 120.97C713.302 120.424 713.163 119.978 712.877 119.631C712.6 119.276 712.214 119.098 711.72 119.098C711.443 119.098 711.196 119.154 710.979 119.267C710.771 119.371 710.594 119.51 710.446 119.683C710.299 119.856 710.182 120.056 710.095 120.281C710.017 120.506 709.965 120.736 709.939 120.97H713.293ZM717.422 118.24H719.983V119.254H717.422V122.374C717.422 122.712 717.448 122.994 717.5 123.219C717.552 123.436 717.63 123.609 717.734 123.739C717.838 123.86 717.968 123.947 718.124 123.999C718.28 124.051 718.462 124.077 718.67 124.077C719.034 124.077 719.324 124.038 719.541 123.96C719.766 123.873 719.922 123.813 720.009 123.778L720.243 124.779C720.122 124.84 719.909 124.913 719.606 125C719.303 125.095 718.956 125.143 718.566 125.143C718.107 125.143 717.725 125.087 717.422 124.974C717.127 124.853 716.889 124.675 716.707 124.441C716.525 124.207 716.395 123.921 716.317 123.583C716.248 123.236 716.213 122.838 716.213 122.387V116.355L717.422 116.147V118.24ZM722.652 118.24H725.213V119.254H722.652V122.374C722.652 122.712 722.678 122.994 722.73 123.219C722.782 123.436 722.86 123.609 722.964 123.739C723.068 123.86 723.198 123.947 723.354 123.999C723.51 124.051 723.692 124.077 723.9 124.077C724.264 124.077 724.555 124.038 724.771 123.96C724.997 123.873 725.153 123.813 725.239 123.778L725.473 124.779C725.352 124.84 725.14 124.913 724.836 125C724.533 125.095 724.186 125.143 723.796 125.143C723.337 125.143 722.956 125.087 722.652 124.974C722.358 124.853 722.119 124.675 721.937 124.441C721.755 124.207 721.625 123.921 721.547 123.583C721.478 123.236 721.443 122.838 721.443 122.387V116.355L722.652 116.147V118.24ZM727.961 125H726.752V118.24H727.961V125ZM727.35 117.018C727.133 117.018 726.947 116.949 726.791 116.81C726.644 116.663 726.57 116.468 726.57 116.225C726.57 115.982 726.644 115.792 726.791 115.653C726.947 115.506 727.133 115.432 727.35 115.432C727.567 115.432 727.749 115.506 727.896 115.653C728.052 115.792 728.13 115.982 728.13 116.225C728.13 116.468 728.052 116.663 727.896 116.81C727.749 116.949 727.567 117.018 727.35 117.018ZM730.04 118.435C730.317 118.366 730.686 118.292 731.145 118.214C731.604 118.136 732.133 118.097 732.731 118.097C733.268 118.097 733.715 118.175 734.07 118.331C734.425 118.478 734.707 118.691 734.915 118.968C735.132 119.237 735.283 119.562 735.37 119.943C735.457 120.324 735.5 120.745 735.5 121.204V125H734.291V121.464C734.291 121.048 734.261 120.693 734.2 120.398C734.148 120.103 734.057 119.865 733.927 119.683C733.797 119.501 733.624 119.371 733.407 119.293C733.19 119.206 732.922 119.163 732.601 119.163C732.471 119.163 732.337 119.167 732.198 119.176C732.059 119.185 731.925 119.198 731.795 119.215C731.674 119.224 731.561 119.237 731.457 119.254C731.362 119.271 731.292 119.284 731.249 119.293V125H730.04V118.435ZM741.743 124.324C741.639 124.393 741.435 124.484 741.132 124.597C740.837 124.701 740.491 124.753 740.092 124.753C739.685 124.753 739.299 124.688 738.935 124.558C738.58 124.428 738.268 124.229 737.999 123.96C737.73 123.683 737.518 123.34 737.362 122.933C737.206 122.526 737.128 122.04 737.128 121.477C737.128 120.983 737.202 120.532 737.349 120.125C737.496 119.709 737.709 119.354 737.986 119.059C738.272 118.756 738.619 118.522 739.026 118.357C739.433 118.184 739.893 118.097 740.404 118.097C740.967 118.097 741.457 118.14 741.873 118.227C742.298 118.305 742.653 118.379 742.939 118.448V124.48C742.939 125.52 742.67 126.274 742.133 126.742C741.596 127.21 740.781 127.444 739.689 127.444C739.264 127.444 738.861 127.409 738.48 127.34C738.107 127.271 737.782 127.188 737.505 127.093L737.726 126.04C737.969 126.135 738.263 126.218 738.61 126.287C738.965 126.365 739.334 126.404 739.715 126.404C740.434 126.404 740.95 126.261 741.262 125.975C741.583 125.689 741.743 125.234 741.743 124.61V124.324ZM741.73 119.306C741.609 119.271 741.444 119.241 741.236 119.215C741.037 119.18 740.764 119.163 740.417 119.163C739.767 119.163 739.264 119.375 738.909 119.8C738.562 120.225 738.389 120.788 738.389 121.49C738.389 121.88 738.437 122.214 738.532 122.491C738.636 122.768 738.77 122.998 738.935 123.18C739.108 123.362 739.303 123.496 739.52 123.583C739.745 123.67 739.975 123.713 740.209 123.713C740.53 123.713 740.824 123.67 741.093 123.583C741.362 123.488 741.574 123.379 741.73 123.258V119.306Z" fill="#3D0072"/>
<circle cx="660" cy="120" r="7" fill="#E8356D"/>
<path d="M295.742 30.6428C326.283 21.4513 358.493 38.7584 367.684 69.2993C376.876 99.8402 359.569 132.05 329.028 141.241C298.487 150.433 266.277 133.126 257.086 102.585C247.894 72.0438 265.201 39.8343 295.742 30.6428ZM326.278 132.105C351.773 124.432 366.221 97.5441 358.548 72.0489C350.875 46.5537 323.987 32.1059 298.492 39.7789C272.997 47.4519 258.549 74.34 266.222 99.8352C273.895 125.33 300.783 139.778 326.278 132.105Z" fill="#F0F2F4"/>
<path d="M311.724 141.505C311.388 143.397 312.649 145.213 314.557 145.442C322.586 146.403 330.737 145.773 338.542 143.575C347.465 141.062 355.704 136.565 362.645 130.42C369.586 124.275 375.048 116.641 378.623 108.088C382.198 99.5357 383.794 90.2855 383.292 81.0291C382.79 71.7728 380.202 62.7497 375.722 54.6341C371.242 46.5185 364.986 39.5203 357.421 34.1626C349.856 28.8049 341.178 25.2261 332.036 23.6938C324.039 22.3534 315.867 22.6092 307.99 24.4333C306.118 24.8668 305.061 26.8087 305.6 28.6531L311.883 50.1698C312.421 52.0141 314.352 53.0527 316.244 52.7166C319.851 52.0755 323.55 52.0545 327.181 52.663C331.957 53.4636 336.492 55.3335 340.444 58.133C344.397 60.9324 347.666 64.5889 350.007 68.8294C352.347 73.0698 353.7 77.7844 353.962 82.6209C354.225 87.4573 353.391 92.2906 351.522 96.7594C349.654 101.228 346.8 105.217 343.174 108.428C339.547 111.639 335.242 113.988 330.58 115.301C327.037 116.299 323.357 116.678 319.702 116.431C317.785 116.302 315.978 117.543 315.642 119.435L311.724 141.505Z" fill="#FBBF24"/>
<path d="M301.801 89.2689C301.801 88.969 301.734 88.7053 301.6 88.4777C301.465 88.2399 301.232 88.0434 300.901 87.8883C300.571 87.7332 300.126 87.6142 299.567 87.5315C299.009 87.4488 298.306 87.4074 297.458 87.4074C297.572 86.4456 297.665 85.4684 297.737 84.4756C297.809 83.4828 297.866 82.5521 297.908 81.6834H303.725V83.6224H299.847C299.826 83.9947 299.8 84.3567 299.769 84.7083C299.748 85.0495 299.723 85.3495 299.692 85.608C301.201 85.7114 302.313 86.0682 303.027 86.6783C303.751 87.2781 304.112 88.1158 304.112 89.1913C304.112 89.6877 304.025 90.1479 303.849 90.5719C303.673 90.9959 303.409 91.363 303.058 91.6733C302.706 91.9835 302.261 92.2265 301.724 92.4023C301.196 92.5781 300.576 92.666 299.862 92.666C299.583 92.666 299.288 92.6453 298.978 92.604C298.678 92.573 298.383 92.5264 298.094 92.4644C297.815 92.4127 297.561 92.3558 297.334 92.2937C297.106 92.2317 296.93 92.1696 296.806 92.1076L297.225 90.1996C297.484 90.3134 297.825 90.4271 298.249 90.5409C298.673 90.6443 299.18 90.696 299.769 90.696C300.483 90.696 301 90.5564 301.32 90.2772C301.641 89.9876 301.801 89.6515 301.801 89.2689ZM313.317 87.0351C313.317 88.8449 312.97 90.2358 312.277 91.2079C311.595 92.1696 310.649 92.6505 309.439 92.6505C308.229 92.6505 307.277 92.1696 306.585 91.2079C305.902 90.2358 305.561 88.8449 305.561 87.0351C305.561 86.1354 305.649 85.3391 305.824 84.6462C306.011 83.9534 306.274 83.3691 306.616 82.8934C306.957 82.4176 307.365 82.0557 307.841 81.8075C308.317 81.5593 308.849 81.4352 309.439 81.4352C310.649 81.4352 311.595 81.9213 312.277 82.8934C312.97 83.8551 313.317 85.2357 313.317 87.0351ZM310.959 87.0351C310.959 86.4974 310.933 86.0113 310.881 85.577C310.83 85.1323 310.747 84.7496 310.633 84.4291C310.519 84.1085 310.364 83.8603 310.168 83.6845C309.971 83.5087 309.728 83.4208 309.439 83.4208C309.149 83.4208 308.906 83.5087 308.71 83.6845C308.524 83.8603 308.368 84.1085 308.244 84.4291C308.131 84.7496 308.048 85.1323 307.996 85.577C307.944 86.0113 307.919 86.4974 307.919 87.0351C307.919 87.5729 307.944 88.0641 307.996 88.5088C308.048 88.9534 308.131 89.3361 308.244 89.6567C308.368 89.9773 308.524 90.2254 308.71 90.4013C308.906 90.5771 309.149 90.665 309.439 90.665C309.728 90.665 309.971 90.5771 310.168 90.4013C310.364 90.2254 310.519 89.9773 310.633 89.6567C310.747 89.3361 310.83 88.9534 310.881 88.5088C310.933 88.0641 310.959 87.5729 310.959 87.0351ZM319.884 84.4446C319.884 85.4167 319.636 86.1613 319.139 86.6783C318.643 87.1954 317.976 87.4539 317.138 87.4539C316.301 87.4539 315.634 87.1954 315.137 86.6783C314.641 86.1613 314.393 85.4167 314.393 84.4446C314.393 83.4725 314.641 82.7279 315.137 82.2108C315.634 81.6937 316.301 81.4352 317.138 81.4352C317.976 81.4352 318.643 81.6937 319.139 82.2108C319.636 82.7279 319.884 83.4725 319.884 84.4446ZM318.131 84.4446C318.131 83.9172 318.038 83.5345 317.852 83.2967C317.666 83.0588 317.428 82.9399 317.138 82.9399C316.838 82.9399 316.595 83.0588 316.409 83.2967C316.233 83.5345 316.146 83.9172 316.146 84.4446C316.146 84.972 316.233 85.3598 316.409 85.608C316.595 85.8458 316.838 85.9648 317.138 85.9648C317.428 85.9648 317.666 85.8458 317.852 85.608C318.038 85.3598 318.131 84.972 318.131 84.4446ZM322.909 81.6834H325.065L319 92.4333H316.844L322.909 81.6834ZM327.547 89.6722C327.547 90.6443 327.299 91.3889 326.802 91.9059C326.306 92.423 325.639 92.6815 324.801 92.6815C323.964 92.6815 323.297 92.423 322.8 91.9059C322.304 91.3889 322.056 90.6443 322.056 89.6722C322.056 88.7001 322.304 87.9555 322.8 87.4384C323.297 86.9214 323.964 86.6628 324.801 86.6628C325.639 86.6628 326.306 86.9214 326.802 87.4384C327.299 87.9555 327.547 88.7001 327.547 89.6722ZM325.794 89.6722C325.794 89.1448 325.701 88.7621 325.515 88.5243C325.329 88.2864 325.091 88.1675 324.801 88.1675C324.501 88.1675 324.258 88.2864 324.072 88.5243C323.897 88.7621 323.809 89.1448 323.809 89.6722C323.809 90.1996 323.897 90.5874 324.072 90.8356C324.258 91.0734 324.501 91.1924 324.801 91.1924C325.091 91.1924 325.329 91.0734 325.515 90.8356C325.701 90.5874 325.794 90.1996 325.794 89.6722Z" fill="#3D0072"/>
<path d="M56.0409 97.0906C56.2246 97.4273 56.4338 97.8457 56.6685 98.3457C56.9134 98.8355 57.1634 99.3712 57.4185 99.9529C57.6838 100.524 57.944 101.111 58.1991 101.713C58.4543 102.315 58.6941 102.882 58.9185 103.412C59.143 102.882 59.3828 102.315 59.638 101.713C59.8931 101.111 60.1482 100.524 60.4033 99.9529C60.6686 99.3712 60.9186 98.8355 61.1533 98.3457C61.3982 97.8457 61.6125 97.4273 61.7962 97.0906H63.9697C64.0717 97.7947 64.1636 98.5855 64.2452 99.4631C64.3371 100.33 64.4136 101.239 64.4748 102.188C64.5462 103.126 64.6075 104.07 64.6585 105.019C64.7197 105.968 64.7707 106.861 64.8116 107.698H62.485C62.4544 106.667 62.4135 105.545 62.3625 104.331C62.3115 103.116 62.235 101.892 62.1329 100.657C61.9492 101.086 61.7452 101.56 61.5207 102.081C61.2962 102.601 61.0717 103.121 60.8472 103.642C60.6329 104.162 60.4237 104.662 60.2196 105.142C60.0155 105.611 59.842 106.014 59.6992 106.351H58.0308C57.8879 106.014 57.7144 105.611 57.5103 105.142C57.3063 104.662 57.092 104.162 56.8675 103.642C56.6532 103.121 56.4338 102.601 56.2093 102.081C55.9848 101.56 55.7807 101.086 55.597 100.657C55.495 101.892 55.4185 103.116 55.3674 104.331C55.3164 105.545 55.2756 106.667 55.245 107.698H52.9184C52.9592 106.861 53.0051 105.968 53.0562 105.019C53.1174 104.07 53.1786 103.126 53.2398 102.188C53.3113 101.239 53.3878 100.33 53.4694 99.4631C53.5613 98.5855 53.6582 97.7947 53.7602 97.0906H56.0409ZM74.3393 103.657C74.3393 104.29 74.2474 104.871 74.0638 105.402C73.8801 105.922 73.6148 106.371 73.2678 106.749C72.9209 107.116 72.5025 107.402 72.0127 107.606C71.5331 107.81 70.9922 107.912 70.3902 107.912C69.7983 107.912 69.2575 107.81 68.7677 107.606C68.2881 107.402 67.8748 107.116 67.5279 106.749C67.1809 106.371 66.9105 105.922 66.7166 105.402C66.5227 104.871 66.4258 104.29 66.4258 103.657C66.4258 103.024 66.5227 102.448 66.7166 101.927C66.9207 101.407 67.1962 100.963 67.5432 100.596C67.9003 100.228 68.3187 99.9427 68.7983 99.7386C69.2881 99.5345 69.8187 99.4325 70.3902 99.4325C70.9718 99.4325 71.5025 99.5345 71.9821 99.7386C72.4719 99.9427 72.8903 100.228 73.2372 100.596C73.5841 100.963 73.8546 101.407 74.0484 101.927C74.2423 102.448 74.3393 103.024 74.3393 103.657ZM72.0127 103.657C72.0127 102.953 71.8698 102.402 71.5841 102.004C71.3086 101.596 70.9106 101.392 70.3902 101.392C69.8698 101.392 69.4667 101.596 69.181 102.004C68.8953 102.402 68.7524 102.953 68.7524 103.657C68.7524 104.361 68.8953 104.922 69.181 105.341C69.4667 105.749 69.8698 105.953 70.3902 105.953C70.9106 105.953 71.3086 105.749 71.5841 105.341C71.8698 104.922 72.0127 104.361 72.0127 103.657ZM76.106 99.9223C76.4937 99.81 76.9938 99.708 77.606 99.6162C78.2183 99.5141 78.8612 99.4631 79.5346 99.4631C80.2183 99.4631 80.7847 99.5549 81.2337 99.7386C81.6929 99.9121 82.0551 100.162 82.3204 100.489C82.5857 100.815 82.7745 101.203 82.8868 101.652C82.999 102.101 83.0551 102.601 83.0551 103.152V107.698H80.7745V103.427C80.7745 102.693 80.6775 102.172 80.4836 101.866C80.2898 101.56 79.9275 101.407 79.3969 101.407C79.2336 101.407 79.0601 101.417 78.8765 101.438C78.6928 101.448 78.5295 101.463 78.3866 101.484V107.698H76.106V99.9223ZM85.043 97.6416L87.3236 97.2743V99.6468H90.0635V101.545H87.3236V104.376C87.3236 104.856 87.4053 105.239 87.5685 105.524C87.742 105.81 88.0838 105.953 88.5941 105.953C88.839 105.953 89.089 105.933 89.3441 105.892C89.6094 105.841 89.8492 105.774 90.0635 105.693L90.3849 107.468C90.1094 107.581 89.8033 107.678 89.4665 107.759C89.1298 107.841 88.7165 107.882 88.2267 107.882C87.6042 107.882 87.0889 107.8 86.6807 107.637C86.2726 107.463 85.946 107.229 85.7011 106.933C85.4562 106.627 85.2828 106.259 85.1807 105.831C85.0889 105.402 85.043 104.928 85.043 104.407V97.6416ZM91.9207 107.698V96.1875L94.2014 95.8201V99.6774C94.3545 99.6264 94.5483 99.5804 94.783 99.5396C95.0279 99.4886 95.2626 99.4631 95.4871 99.4631C96.1402 99.4631 96.6811 99.5549 97.1096 99.7386C97.5484 99.9121 97.8954 100.162 98.1505 100.489C98.4158 100.815 98.5995 101.203 98.7015 101.652C98.8138 102.101 98.8699 102.601 98.8699 103.152V107.698H96.5892V103.427C96.5892 102.693 96.4923 102.172 96.2984 101.866C96.1147 101.56 95.7678 101.407 95.2575 101.407C95.0535 101.407 94.8596 101.427 94.6759 101.468C94.5024 101.499 94.3443 101.535 94.2014 101.575V107.698H91.9207ZM104.149 107.851C103.485 107.841 102.944 107.769 102.526 107.637C102.118 107.504 101.791 107.32 101.546 107.086C101.312 106.841 101.149 106.55 101.057 106.213C100.975 105.866 100.934 105.479 100.934 105.05V96.1875L103.215 95.8201V104.591C103.215 104.795 103.23 104.979 103.261 105.142C103.291 105.305 103.348 105.443 103.429 105.555C103.521 105.667 103.649 105.759 103.812 105.831C103.975 105.902 104.195 105.948 104.47 105.968L104.149 107.851ZM112.761 99.6468C112.302 101.198 111.822 102.652 111.322 104.009C110.822 105.366 110.276 106.683 109.684 107.958C109.47 108.417 109.256 108.805 109.042 109.122C108.827 109.448 108.593 109.713 108.337 109.917C108.082 110.132 107.792 110.285 107.465 110.377C107.149 110.479 106.776 110.53 106.348 110.53C105.99 110.53 105.659 110.494 105.353 110.423C105.057 110.361 104.812 110.29 104.618 110.208L105.016 108.387C105.251 108.468 105.46 108.525 105.643 108.555C105.827 108.586 106.021 108.601 106.225 108.601C106.633 108.601 106.945 108.489 107.159 108.264C107.383 108.05 107.572 107.749 107.725 107.361C107.205 106.341 106.684 105.198 106.164 103.933C105.643 102.657 105.154 101.228 104.694 99.6468H107.113C107.215 100.045 107.332 100.478 107.465 100.948C107.608 101.407 107.756 101.876 107.909 102.356C108.062 102.825 108.215 103.285 108.368 103.734C108.531 104.183 108.684 104.591 108.827 104.958C108.96 104.591 109.098 104.183 109.241 103.734C109.383 103.285 109.521 102.825 109.654 102.356C109.797 101.876 109.929 101.407 110.052 100.948C110.184 100.478 110.302 100.045 110.404 99.6468H112.761ZM120.737 106.106C120.962 106.106 121.176 106.101 121.38 106.091C121.584 106.081 121.748 106.065 121.87 106.045V104.315C121.778 104.295 121.64 104.274 121.457 104.254C121.273 104.234 121.105 104.223 120.952 104.223C120.737 104.223 120.533 104.239 120.339 104.269C120.156 104.29 119.992 104.336 119.85 104.407C119.707 104.479 119.595 104.575 119.513 104.698C119.431 104.82 119.39 104.973 119.39 105.157C119.39 105.514 119.508 105.764 119.742 105.907C119.987 106.04 120.319 106.106 120.737 106.106ZM120.554 99.4325C121.227 99.4325 121.788 99.509 122.237 99.6621C122.686 99.8151 123.044 100.035 123.309 100.32C123.584 100.606 123.778 100.953 123.891 101.361C124.003 101.769 124.059 102.223 124.059 102.723V107.468C123.732 107.54 123.278 107.621 122.697 107.713C122.115 107.815 121.411 107.866 120.584 107.866C120.064 107.866 119.589 107.82 119.161 107.729C118.742 107.637 118.38 107.489 118.074 107.285C117.768 107.07 117.533 106.795 117.37 106.458C117.207 106.121 117.125 105.708 117.125 105.218C117.125 104.749 117.217 104.351 117.401 104.024C117.594 103.698 117.85 103.438 118.166 103.244C118.482 103.05 118.844 102.912 119.253 102.831C119.661 102.739 120.084 102.693 120.523 102.693C120.819 102.693 121.079 102.708 121.304 102.739C121.538 102.759 121.727 102.79 121.87 102.831V102.616C121.87 102.228 121.753 101.917 121.518 101.683C121.283 101.448 120.875 101.33 120.294 101.33C119.906 101.33 119.523 101.361 119.146 101.422C118.768 101.473 118.441 101.55 118.166 101.652L117.875 99.8151C118.008 99.7743 118.171 99.7335 118.365 99.6927C118.569 99.6417 118.788 99.6008 119.023 99.5702C119.258 99.5294 119.503 99.4988 119.758 99.4784C120.023 99.4478 120.288 99.4325 120.554 99.4325ZM125.739 103.672C125.739 103.091 125.83 102.545 126.014 102.035C126.208 101.514 126.483 101.065 126.841 100.688C127.198 100.3 127.631 99.9937 128.142 99.7692C128.652 99.5447 129.234 99.4325 129.887 99.4325C130.315 99.4325 130.708 99.4733 131.065 99.5549C131.422 99.6264 131.769 99.7335 132.106 99.8764L131.632 101.698C131.417 101.616 131.183 101.545 130.927 101.484C130.672 101.422 130.387 101.392 130.07 101.392C129.397 101.392 128.892 101.601 128.555 102.019C128.228 102.438 128.065 102.989 128.065 103.672C128.065 104.397 128.218 104.958 128.524 105.356C128.841 105.754 129.387 105.953 130.162 105.953C130.438 105.953 130.734 105.928 131.05 105.877C131.366 105.826 131.657 105.744 131.922 105.632L132.244 107.499C131.979 107.611 131.647 107.708 131.249 107.79C130.851 107.871 130.412 107.912 129.933 107.912C129.198 107.912 128.565 107.805 128.035 107.591C127.504 107.366 127.065 107.065 126.718 106.688C126.381 106.31 126.131 105.866 125.968 105.356C125.815 104.836 125.739 104.274 125.739 103.672ZM133.698 97.6416L135.979 97.2743V99.6468H138.718V101.545H135.979V104.376C135.979 104.856 136.06 105.239 136.224 105.524C136.397 105.81 136.739 105.953 137.249 105.953C137.494 105.953 137.744 105.933 137.999 105.892C138.264 105.841 138.504 105.774 138.718 105.693L139.04 107.468C138.764 107.581 138.458 107.678 138.122 107.759C137.785 107.841 137.372 107.882 136.882 107.882C136.259 107.882 135.744 107.8 135.336 107.637C134.928 107.463 134.601 107.229 134.356 106.933C134.111 106.627 133.938 106.259 133.836 105.831C133.744 105.402 133.698 104.928 133.698 104.407V97.6416ZM142.856 107.698H140.576V99.6468H142.856V107.698ZM143.071 97.3202C143.071 97.7386 142.933 98.0702 142.657 98.3151C142.392 98.5498 142.076 98.6671 141.708 98.6671C141.341 98.6671 141.02 98.5498 140.744 98.3151C140.479 98.0702 140.346 97.7386 140.346 97.3202C140.346 96.9018 140.479 96.5753 140.744 96.3406C141.02 96.0957 141.341 95.9732 141.708 95.9732C142.076 95.9732 142.392 96.0957 142.657 96.3406C142.933 96.5753 143.071 96.9018 143.071 97.3202ZM146.95 107.698C146.43 106.678 145.899 105.484 145.358 104.116C144.827 102.749 144.322 101.259 143.843 99.6468H146.261C146.363 100.045 146.481 100.478 146.613 100.948C146.756 101.407 146.899 101.876 147.042 102.356C147.195 102.825 147.343 103.285 147.486 103.734C147.639 104.183 147.787 104.591 147.93 104.958C148.062 104.591 148.205 104.183 148.358 103.734C148.511 103.285 148.659 102.825 148.802 102.356C148.955 101.876 149.098 101.407 149.231 100.948C149.373 100.478 149.496 100.045 149.598 99.6468H151.955C151.476 101.259 150.965 102.749 150.425 104.116C149.894 105.484 149.368 106.678 148.848 107.698H146.95ZM155.457 107.698H153.177V99.6468H155.457V107.698ZM155.672 97.3202C155.672 97.7386 155.534 98.0702 155.258 98.3151C154.993 98.5498 154.677 98.6671 154.309 98.6671C153.942 98.6671 153.621 98.5498 153.345 98.3151C153.08 98.0702 152.947 97.7386 152.947 97.3202C152.947 96.9018 153.08 96.5753 153.345 96.3406C153.621 96.0957 153.942 95.9732 154.309 95.9732C154.677 95.9732 154.993 96.0957 155.258 96.3406C155.534 96.5753 155.672 96.9018 155.672 97.3202ZM157.525 97.6416L159.805 97.2743V99.6468H162.545V101.545H159.805V104.376C159.805 104.856 159.887 105.239 160.05 105.524C160.224 105.81 160.566 105.953 161.076 105.953C161.321 105.953 161.571 105.933 161.826 105.892C162.091 105.841 162.331 105.774 162.545 105.693L162.867 107.468C162.591 107.581 162.285 107.678 161.948 107.759C161.612 107.841 161.198 107.882 160.708 107.882C160.086 107.882 159.571 107.8 159.163 107.637C158.754 107.463 158.428 107.229 158.183 106.933C157.938 106.627 157.765 106.259 157.662 105.831C157.571 105.402 157.525 104.928 157.525 104.407V97.6416ZM171.7 99.6468C171.241 101.198 170.761 102.652 170.261 104.009C169.761 105.366 169.215 106.683 168.623 107.958C168.409 108.417 168.195 108.805 167.981 109.122C167.766 109.448 167.532 109.713 167.277 109.917C167.021 110.132 166.731 110.285 166.404 110.377C166.088 110.479 165.715 110.53 165.287 110.53C164.93 110.53 164.598 110.494 164.292 110.423C163.996 110.361 163.751 110.29 163.557 110.208L163.955 108.387C164.19 108.468 164.399 108.525 164.583 108.555C164.766 108.586 164.96 108.601 165.164 108.601C165.572 108.601 165.884 108.489 166.098 108.264C166.322 108.05 166.511 107.749 166.664 107.361C166.144 106.341 165.623 105.198 165.103 103.933C164.583 102.657 164.093 101.228 163.634 99.6468H166.052C166.154 100.045 166.271 100.478 166.404 100.948C166.547 101.407 166.695 101.876 166.848 102.356C167.001 102.825 167.154 103.285 167.307 103.734C167.47 104.183 167.623 104.591 167.766 104.958C167.899 104.591 168.037 104.183 168.18 103.734C168.322 103.285 168.46 102.825 168.593 102.356C168.736 101.876 168.868 101.407 168.991 100.948C169.124 100.478 169.241 100.045 169.343 99.6468H171.7Z" fill="#3D0072"/>
<path d="M55.0933 87.1359C56.3624 87.1359 56.9969 86.7017 56.9969 85.8334C56.9969 85.5663 56.9384 85.3408 56.8216 85.1572C56.713 84.9651 56.5627 84.8023 56.3707 84.6687C56.1787 84.5268 55.9574 84.4058 55.707 84.3056C55.4648 84.2054 55.206 84.1052 54.9305 84.005C54.6132 83.8965 54.3127 83.7754 54.0288 83.6418C53.7449 83.4999 53.4986 83.3371 53.2899 83.1534C53.0812 82.9614 52.9142 82.7359 52.789 82.4771C52.6721 82.2183 52.6137 81.9052 52.6137 81.5379C52.6137 80.7781 52.8725 80.1853 53.3901 79.7595C53.9077 79.3337 54.6216 79.1208 55.5316 79.1208C56.0576 79.1208 56.5335 79.1793 56.9593 79.2962C57.3935 79.4047 57.7107 79.5258 57.9111 79.6593L57.5229 80.6487C57.3475 80.5402 57.0845 80.4358 56.7339 80.3356C56.3916 80.2271 55.9908 80.1728 55.5316 80.1728C55.2979 80.1728 55.0808 80.1978 54.8804 80.2479C54.68 80.298 54.5047 80.3732 54.3544 80.4734C54.2041 80.5736 54.0831 80.703 53.9912 80.8616C53.9077 81.0119 53.866 81.1914 53.866 81.4001C53.866 81.6339 53.9119 81.8301 54.0038 81.9887C54.0956 82.1473 54.225 82.2893 54.392 82.4145C54.559 82.5314 54.751 82.6399 54.9681 82.7401C55.1935 82.8403 55.4398 82.9405 55.707 83.0407C56.0827 83.191 56.425 83.3413 56.7339 83.4915C57.0512 83.6418 57.3225 83.8213 57.5479 84.03C57.7817 84.2388 57.9612 84.4892 58.0864 84.7815C58.2117 85.0653 58.2743 85.4118 58.2743 85.8209C58.2743 86.5807 57.9946 87.1651 57.4352 87.5742C56.8842 87.9833 56.1035 88.1879 55.0933 88.1879C54.751 88.1879 54.4337 88.1628 54.1415 88.1127C53.8577 88.071 53.603 88.0209 53.3776 87.9624C53.1522 87.8956 52.956 87.8288 52.789 87.7621C52.6304 87.6869 52.5051 87.6243 52.4133 87.5742L52.7765 86.5723C52.9685 86.6809 53.2607 86.8019 53.6531 86.9355C54.0455 87.0691 54.5256 87.1359 55.0933 87.1359ZM60.7568 81.4878H63.2239V82.4646H60.7568V85.4702C60.7568 85.7959 60.7818 86.0672 60.8319 86.2843C60.882 86.493 60.9572 86.66 61.0573 86.7852C61.1575 86.9021 61.2828 86.9856 61.433 87.0357C61.5833 87.0858 61.7587 87.1108 61.959 87.1108C62.3097 87.1108 62.5894 87.0733 62.7981 86.9981C63.0152 86.9146 63.1655 86.8562 63.249 86.8228L63.4744 87.7871C63.3575 87.8455 63.1529 87.9165 62.8607 88C62.5685 88.0918 62.2346 88.1378 61.8588 88.1378C61.4163 88.1378 61.049 88.0835 60.7568 87.975C60.4729 87.8581 60.2433 87.6869 60.068 87.4615C59.8927 87.2361 59.7674 86.9605 59.6923 86.6349C59.6255 86.301 59.5921 85.9169 59.5921 85.4828V79.6719L60.7568 79.4715V81.4878ZM66.9101 87.1609C67.1856 87.1609 67.4278 87.1567 67.6365 87.1484C67.8536 87.1317 68.0331 87.1067 68.175 87.0733V85.1321C68.0915 85.0904 67.9538 85.057 67.7617 85.0319C67.578 84.9985 67.3526 84.9818 67.0855 84.9818C66.9101 84.9818 66.7223 84.9944 66.5219 85.0194C66.3299 85.0444 66.1504 85.0987 65.9834 85.1822C65.8248 85.2573 65.6912 85.3659 65.5826 85.5078C65.4741 85.6414 65.4198 85.8209 65.4198 86.0463C65.4198 86.4638 65.5534 86.756 65.8206 86.923C66.0878 87.0816 66.4509 87.1609 66.9101 87.1609ZM66.8099 81.325C67.2775 81.325 67.6699 81.3876 67.9872 81.5128C68.3128 81.6297 68.5716 81.8009 68.7636 82.0263C68.964 82.2434 69.1059 82.5064 69.1894 82.8153C69.2729 83.1158 69.3146 83.4498 69.3146 83.8171V87.8873C69.2145 87.904 69.0725 87.929 68.8888 87.9624C68.7135 87.9875 68.5131 88.0125 68.2877 88.0376C68.0623 88.0626 67.816 88.0835 67.5488 88.1002C67.29 88.1252 67.0312 88.1378 66.7724 88.1378C66.405 88.1378 66.0669 88.1002 65.758 88.025C65.4491 87.9499 65.1819 87.833 64.9565 87.6744C64.731 87.5074 64.5557 87.2903 64.4305 87.0232C64.3052 86.756 64.2426 86.4346 64.2426 86.0589C64.2426 85.6998 64.3136 85.3909 64.4555 85.1321C64.6058 84.8733 64.8062 84.6646 65.0566 84.5059C65.3071 84.3473 65.5993 84.2304 65.9333 84.1553C66.2673 84.0801 66.6179 84.0426 66.9853 84.0426C67.1022 84.0426 67.2232 84.0509 67.3485 84.0676C67.4737 84.076 67.5906 84.0927 67.6991 84.1177C67.816 84.1344 67.9162 84.1511 67.9997 84.1678C68.0832 84.1845 68.1416 84.197 68.175 84.2054V83.8798C68.175 83.6877 68.1541 83.4999 68.1124 83.3162C68.0706 83.1242 67.9955 82.9572 67.887 82.8153C67.7784 82.665 67.6281 82.5481 67.4361 82.4646C67.2524 82.3728 67.0103 82.3268 66.7098 82.3268C66.3257 82.3268 65.9876 82.3561 65.6953 82.4145C65.4115 82.4646 65.1986 82.5189 65.0566 82.5773L64.9189 81.613C65.0692 81.5462 65.3196 81.4836 65.6703 81.4252C66.021 81.3584 66.4008 81.325 66.8099 81.325ZM72.3386 81.4878H74.8057V82.4646H72.3386V85.4702C72.3386 85.7959 72.3636 86.0672 72.4137 86.2843C72.4638 86.493 72.539 86.66 72.6391 86.7852C72.7393 86.9021 72.8646 86.9856 73.0149 87.0357C73.1651 87.0858 73.3405 87.1108 73.5408 87.1108C73.8915 87.1108 74.1712 87.0733 74.3799 86.9981C74.597 86.9146 74.7473 86.8562 74.8308 86.8228L75.0562 87.7871C74.9393 87.8455 74.7347 87.9165 74.4425 88C74.1503 88.0918 73.8164 88.1378 73.4407 88.1378C72.9982 88.1378 72.6308 88.0835 72.3386 87.975C72.0547 87.8581 71.8251 87.6869 71.6498 87.4615C71.4745 87.2361 71.3492 86.9605 71.2741 86.6349C71.2073 86.301 71.1739 85.9169 71.1739 85.4828V79.6719L72.3386 79.4715V81.4878ZM77.4525 88H76.2878V81.4878H77.4525V88ZM76.8639 80.3106C76.6552 80.3106 76.4756 80.2438 76.3254 80.1102C76.1834 79.9683 76.1125 79.7804 76.1125 79.5466C76.1125 79.3129 76.1834 79.1292 76.3254 78.9956C76.4756 78.8537 76.6552 78.7827 76.8639 78.7827C77.0726 78.7827 77.2479 78.8537 77.3899 78.9956C77.5401 79.1292 77.6153 79.3129 77.6153 79.5466C77.6153 79.7804 77.5401 79.9683 77.3899 80.1102C77.2479 80.2438 77.0726 80.3106 76.8639 80.3106ZM80.9707 87.1609C81.4466 87.1609 81.7973 87.0983 82.0227 86.9731C82.2565 86.8478 82.3733 86.6475 82.3733 86.3719C82.3733 86.0881 82.2606 85.8627 82.0352 85.6957C81.8098 85.5287 81.4383 85.3408 80.9206 85.1321C80.6701 85.0319 80.428 84.9317 80.1943 84.8316C79.9688 84.723 79.7726 84.5978 79.6056 84.4558C79.4387 84.3139 79.3051 84.1428 79.2049 83.9424C79.1047 83.742 79.0546 83.4957 79.0546 83.2035C79.0546 82.6274 79.2675 82.1724 79.6933 81.8384C80.1191 81.4961 80.6994 81.325 81.4341 81.325C81.6178 81.325 81.8014 81.3375 81.9851 81.3625C82.1688 81.3792 82.3399 81.4043 82.4986 81.4377C82.6572 81.4627 82.795 81.4919 82.9119 81.5253C83.0371 81.5587 83.1331 81.588 83.1999 81.613L82.987 82.6149C82.8618 82.5481 82.6656 82.4813 82.3984 82.4145C82.1312 82.3394 81.8098 82.3018 81.4341 82.3018C81.1085 82.3018 80.8246 82.3686 80.5825 82.5022C80.3404 82.6274 80.2193 82.8278 80.2193 83.1033C80.2193 83.2452 80.2443 83.3705 80.2944 83.479C80.3529 83.5875 80.4364 83.6877 80.5449 83.7796C80.6618 83.8631 80.8037 83.9424 80.9707 84.0175C81.1377 84.0927 81.3381 84.172 81.5718 84.2555C81.8808 84.3724 82.1563 84.4892 82.3984 84.6061C82.6405 84.7147 82.8451 84.8441 83.012 84.9944C83.1874 85.1446 83.321 85.3283 83.4128 85.5454C83.5046 85.7541 83.5506 86.0129 83.5506 86.3218C83.5506 86.923 83.3251 87.378 82.8743 87.6869C82.4318 87.9958 81.7973 88.1503 80.9707 88.1503C80.3946 88.1503 79.9438 88.1002 79.6182 88C79.2926 87.9082 79.0713 87.8372 78.9544 87.7871L79.1673 86.7852C79.3009 86.8353 79.5138 86.9105 79.806 87.0106C80.0982 87.1108 80.4865 87.1609 80.9707 87.1609ZM86.134 81.4878H88.6012V82.4646H86.134V85.4702C86.134 85.7959 86.1591 86.0672 86.2092 86.2843C86.2593 86.493 86.3344 86.66 86.4346 86.7852C86.5348 86.9021 86.66 86.9856 86.8103 87.0357C86.9606 87.0858 87.1359 87.1108 87.3363 87.1108C87.6869 87.1108 87.9666 87.0733 88.1754 86.9981C88.3924 86.9146 88.5427 86.8562 88.6262 86.8228L88.8516 87.7871C88.7347 87.8455 88.5302 87.9165 88.238 88C87.9458 88.0918 87.6118 88.1378 87.2361 88.1378C86.7936 88.1378 86.4262 88.0835 86.134 87.975C85.8502 87.8581 85.6206 87.6869 85.4452 87.4615C85.2699 87.2361 85.1447 86.9605 85.0695 86.6349C85.0027 86.301 84.9693 85.9169 84.9693 85.4828V79.6719L86.134 79.4715V81.4878ZM91.2479 88H90.0832V81.4878H91.2479V88ZM90.6593 80.3106C90.4506 80.3106 90.2711 80.2438 90.1208 80.1102C89.9789 79.9683 89.9079 79.7804 89.9079 79.5466C89.9079 79.3129 89.9789 79.1292 90.1208 78.9956C90.2711 78.8537 90.4506 78.7827 90.6593 78.7827C90.868 78.7827 91.0434 78.8537 91.1853 78.9956C91.3356 79.1292 91.4107 79.3129 91.4107 79.5466C91.4107 79.7804 91.3356 79.9683 91.1853 80.1102C91.0434 80.2438 90.868 80.3106 90.6593 80.3106ZM96.0811 88.1503C95.5551 88.1503 95.0918 88.0668 94.691 87.8998C94.2986 87.7328 93.9646 87.4991 93.6891 87.1985C93.422 86.8979 93.2216 86.5431 93.088 86.134C92.9544 85.7165 92.8876 85.2573 92.8876 84.7564C92.8876 84.2555 92.9586 83.7963 93.1005 83.3788C93.2508 82.9614 93.4595 82.6024 93.7267 82.3018C93.9939 81.9929 94.3195 81.7549 94.7035 81.588C95.0959 81.4126 95.5301 81.325 96.006 81.325C96.2982 81.325 96.5904 81.35 96.8826 81.4001C97.1748 81.4502 97.4545 81.5295 97.7217 81.6381L97.4587 82.6274C97.2834 82.5439 97.0788 82.4771 96.8451 82.427C96.6196 82.3769 96.3775 82.3519 96.1187 82.3519C95.4675 82.3519 94.9665 82.5564 94.6159 82.9655C94.2736 83.3746 94.1024 83.9716 94.1024 84.7564C94.1024 85.1071 94.14 85.4285 94.2151 85.7207C94.2986 86.0129 94.4238 86.2634 94.5908 86.4721C94.7661 86.6809 94.9874 86.8437 95.2546 86.9605C95.5217 87.0691 95.8473 87.1234 96.2314 87.1234C96.5403 87.1234 96.82 87.0941 97.0705 87.0357C97.3209 86.9772 97.5171 86.9146 97.6591 86.8478L97.8219 87.8247C97.7551 87.8664 97.6591 87.9082 97.5338 87.9499C97.4086 87.9833 97.2667 88.0125 97.108 88.0376C96.9494 88.071 96.7783 88.096 96.5946 88.1127C96.4193 88.1378 96.2481 88.1503 96.0811 88.1503ZM100.588 87.1609C101.064 87.1609 101.414 87.0983 101.64 86.9731C101.873 86.8478 101.99 86.6475 101.99 86.3719C101.99 86.0881 101.878 85.8627 101.652 85.6957C101.427 85.5287 101.055 85.3408 100.538 85.1321C100.287 85.0319 100.045 84.9317 99.8112 84.8316C99.5857 84.723 99.3895 84.5978 99.2226 84.4558C99.0556 84.3139 98.922 84.1428 98.8218 83.9424C98.7216 83.742 98.6715 83.4957 98.6715 83.2035C98.6715 82.6274 98.8844 82.1724 99.3102 81.8384C99.736 81.4961 100.316 81.325 101.051 81.325C101.235 81.325 101.418 81.3375 101.602 81.3625C101.786 81.3792 101.957 81.4043 102.115 81.4377C102.274 81.4627 102.412 81.4919 102.529 81.5253C102.654 81.5587 102.75 81.588 102.817 81.613L102.604 82.6149C102.479 82.5481 102.282 82.4813 102.015 82.4145C101.748 82.3394 101.427 82.3018 101.051 82.3018C100.725 82.3018 100.442 82.3686 100.199 82.5022C99.9573 82.6274 99.8362 82.8278 99.8362 83.1033C99.8362 83.2452 99.8613 83.3705 99.9114 83.479C99.9698 83.5875 100.053 83.6877 100.162 83.7796C100.279 83.8631 100.421 83.9424 100.588 84.0175C100.755 84.0927 100.955 84.172 101.189 84.2555C101.498 84.3724 101.773 84.4892 102.015 84.6061C102.257 84.7147 102.462 84.8441 102.629 84.9944C102.804 85.1446 102.938 85.3283 103.03 85.5454C103.122 85.7541 103.167 86.0129 103.167 86.3218C103.167 86.923 102.942 87.378 102.491 87.6869C102.049 87.9958 101.414 88.1503 100.588 88.1503C100.012 88.1503 99.5607 88.1002 99.2351 88C98.9095 87.9082 98.6882 87.8372 98.5713 87.7871L98.7842 86.7852C98.9178 86.8353 99.1307 86.9105 99.4229 87.0106C99.7152 87.1108 100.103 87.1609 100.588 87.1609Z" fill="#9CA3AF"/>
</g>
<defs>
<clipPath id="clip0_4095_81255">
<rect width="1057" height="189" rx="16" fill="white"/>
</clipPath>
</defs>
</svg>
