<svg width="519" height="231" viewBox="0 0 519 231" fill="none" xmlns="http://www.w3.org/2000/svg">
<rect width="519" height="231" rx="10" fill="#F9F9F9"/>
<circle cx="280.195" cy="50.1949" r="5.19493" fill="#E8356D"/>
<circle cx="280.195" cy="81.3644" r="5.19493" fill="#FDD752"/>
<circle cx="280.195" cy="112.534" r="5.19493" fill="#4A3AFF"/>
<circle cx="280.195" cy="143.703" r="5.19493" fill="#8807F7"/>
<path d="M309.09 52.96C309.163 52.9667 309.26 52.9733 309.38 52.98C309.5 52.98 309.663 52.98 309.87 52.98C310.717 52.98 311.347 52.7667 311.76 52.34C312.18 51.9067 312.39 51.3033 312.39 50.53C312.39 49.7433 312.187 49.14 311.78 48.72C311.373 48.3 310.743 48.09 309.89 48.09C309.517 48.09 309.25 48.1 309.09 48.12V52.96ZM313.71 50.53C313.71 51.13 313.617 51.6533 313.43 52.1C313.243 52.54 312.977 52.91 312.63 53.21C312.29 53.5033 311.877 53.7233 311.39 53.87C310.91 54.01 310.377 54.08 309.79 54.08C309.51 54.08 309.193 54.0667 308.84 54.04C308.487 54.02 308.15 53.9733 307.83 53.9V47.17C308.15 47.0967 308.49 47.05 308.85 47.03C309.21 47.01 309.53 47 309.81 47C310.39 47 310.92 47.07 311.4 47.21C311.88 47.3433 312.29 47.5567 312.63 47.85C312.977 48.1367 313.243 48.5033 313.43 48.95C313.617 49.39 313.71 49.9167 313.71 50.53ZM315.086 47.07H316.346V54H315.086V47.07ZM320.096 54.08C319.729 54.08 319.359 54.0667 318.986 54.04C318.612 54.02 318.286 53.9733 318.006 53.9V47.17C318.152 47.1433 318.309 47.12 318.476 47.1C318.642 47.0733 318.812 47.0533 318.986 47.04C319.159 47.0267 319.329 47.0167 319.496 47.01C319.669 47.0033 319.832 47 319.986 47C320.406 47 320.796 47.0333 321.156 47.1C321.516 47.16 321.826 47.2633 322.086 47.41C322.352 47.5567 322.559 47.75 322.706 47.99C322.852 48.23 322.926 48.5267 322.926 48.88C322.926 49.2067 322.846 49.4867 322.686 49.72C322.532 49.9533 322.316 50.14 322.036 50.28C322.456 50.42 322.766 50.6267 322.966 50.9C323.166 51.1733 323.266 51.52 323.266 51.94C323.266 52.6533 323.006 53.19 322.486 53.55C321.966 53.9033 321.169 54.08 320.096 54.08ZM319.246 50.88V52.99C319.386 53.0033 319.536 53.0133 319.696 53.02C319.856 53.0267 320.002 53.03 320.136 53.03C320.396 53.03 320.636 53.0133 320.856 52.98C321.082 52.9467 321.276 52.89 321.436 52.81C321.602 52.7233 321.732 52.61 321.826 52.47C321.926 52.33 321.976 52.15 321.976 51.93C321.976 51.5367 321.832 51.2633 321.546 51.11C321.259 50.9567 320.862 50.88 320.356 50.88H319.246ZM319.246 49.89H320.136C320.616 49.89 320.992 49.8233 321.266 49.69C321.539 49.55 321.676 49.3033 321.676 48.95C321.676 48.6167 321.532 48.38 321.246 48.24C320.966 48.1 320.599 48.03 320.146 48.03C319.952 48.03 319.779 48.0333 319.626 48.04C319.479 48.0467 319.352 48.0567 319.246 48.07V49.89ZM328.872 47C329.879 47 330.649 47.1833 331.182 47.55C331.722 47.9167 331.992 48.49 331.992 49.27C331.992 49.6767 331.919 50.0267 331.772 50.32C331.632 50.6067 331.425 50.8433 331.152 51.03C330.879 51.21 330.545 51.3433 330.152 51.43C329.759 51.5167 329.309 51.56 328.802 51.56H328.172V54H326.912V47.17C327.205 47.1033 327.529 47.06 327.882 47.04C328.242 47.0133 328.572 47 328.872 47ZM328.962 48.09C328.642 48.09 328.379 48.1 328.172 48.12V50.48H328.782C329.389 50.48 329.855 50.3967 330.182 50.23C330.509 50.0567 330.672 49.7333 330.672 49.26C330.672 49.0333 330.629 48.8433 330.542 48.69C330.455 48.5367 330.335 48.4167 330.182 48.33C330.029 48.2433 329.845 48.1833 329.632 48.15C329.425 48.11 329.202 48.09 328.962 48.09ZM334.903 54.1C334.543 54.0933 334.243 54.0533 334.003 53.98C333.769 53.9067 333.583 53.8033 333.443 53.67C333.303 53.53 333.203 53.36 333.143 53.16C333.089 52.9533 333.063 52.72 333.063 52.46V46.44L334.273 46.24V52.23C334.273 52.3767 334.283 52.5 334.303 52.6C334.329 52.7 334.373 52.7867 334.433 52.86C334.493 52.9267 334.573 52.98 334.673 53.02C334.779 53.0533 334.913 53.08 335.073 53.1L334.903 54.1ZM337.891 53.15C338.265 53.15 338.548 53.13 338.741 53.09V51.75C338.675 51.73 338.578 51.71 338.451 51.69C338.325 51.67 338.185 51.66 338.031 51.66C337.898 51.66 337.761 51.67 337.621 51.69C337.488 51.71 337.365 51.7467 337.251 51.8C337.145 51.8533 337.058 51.93 336.991 52.03C336.925 52.1233 336.891 52.2433 336.891 52.39C336.891 52.6767 336.981 52.8767 337.161 52.99C337.341 53.0967 337.585 53.15 337.891 53.15ZM337.791 48.64C338.191 48.64 338.528 48.69 338.801 48.79C339.075 48.89 339.291 49.03 339.451 49.21C339.618 49.39 339.735 49.61 339.801 49.87C339.875 50.1233 339.911 50.4033 339.911 50.71V53.88C339.725 53.92 339.441 53.9667 339.061 54.02C338.688 54.08 338.265 54.11 337.791 54.11C337.478 54.11 337.191 54.08 336.931 54.02C336.671 53.96 336.448 53.8633 336.261 53.73C336.081 53.5967 335.938 53.4233 335.831 53.21C335.731 52.9967 335.681 52.7333 335.681 52.42C335.681 52.12 335.738 51.8667 335.851 51.66C335.971 51.4533 336.131 51.2867 336.331 51.16C336.531 51.0267 336.761 50.9333 337.021 50.88C337.288 50.82 337.565 50.79 337.851 50.79C337.985 50.79 338.125 50.8 338.271 50.82C338.418 50.8333 338.575 50.86 338.741 50.9V50.7C338.741 50.56 338.725 50.4267 338.691 50.3C338.658 50.1733 338.598 50.0633 338.511 49.97C338.431 49.87 338.321 49.7933 338.181 49.74C338.048 49.6867 337.878 49.66 337.671 49.66C337.391 49.66 337.135 49.68 336.901 49.72C336.668 49.76 336.478 49.8067 336.331 49.86L336.181 48.88C336.335 48.8267 336.558 48.7733 336.851 48.72C337.145 48.6667 337.458 48.64 337.791 48.64ZM341.393 48.94C341.626 48.8733 341.93 48.81 342.303 48.75C342.676 48.69 343.09 48.66 343.543 48.66C343.97 48.66 344.326 48.72 344.613 48.84C344.9 48.9533 345.126 49.1167 345.293 49.33C345.466 49.5367 345.586 49.79 345.653 50.09C345.726 50.3833 345.763 50.7067 345.763 51.06V54H344.553V51.25C344.553 50.97 344.533 50.7333 344.493 50.54C344.46 50.34 344.4 50.18 344.313 50.06C344.233 49.9333 344.12 49.8433 343.973 49.79C343.833 49.73 343.66 49.7 343.453 49.7C343.3 49.7 343.14 49.71 342.973 49.73C342.806 49.75 342.683 49.7667 342.603 49.78V54H341.393V48.94Z" fill="#4B5563"/>
<path d="M448.81 48.87C448.81 49.11 448.76 49.3467 448.66 49.58C448.56 49.8067 448.43 50.03 448.27 50.25C448.117 50.4633 447.94 50.6733 447.74 50.88C447.54 51.08 447.34 51.2767 447.14 51.47C447.033 51.57 446.913 51.69 446.78 51.83C446.647 51.97 446.52 52.11 446.4 52.25C446.28 52.39 446.177 52.5267 446.09 52.66C446.003 52.7867 445.957 52.8933 445.95 52.98H449.03V54H444.62C444.613 53.9467 444.61 53.8833 444.61 53.81C444.61 53.73 444.61 53.67 444.61 53.63C444.61 53.31 444.66 53.0167 444.76 52.75C444.867 52.4767 445.003 52.2233 445.17 51.99C445.337 51.7567 445.523 51.5367 445.73 51.33C445.937 51.1233 446.143 50.92 446.35 50.72C446.51 50.5667 446.663 50.4167 446.81 50.27C446.957 50.1233 447.083 49.98 447.19 49.84C447.303 49.6933 447.393 49.5467 447.46 49.4C447.527 49.2467 447.56 49.09 447.56 48.93C447.56 48.5833 447.46 48.3367 447.26 48.19C447.06 48.0433 446.817 47.97 446.53 47.97C446.343 47.97 446.17 47.9967 446.01 48.05C445.85 48.1033 445.707 48.1667 445.58 48.24C445.46 48.3133 445.353 48.39 445.26 48.47C445.167 48.5433 445.097 48.6033 445.05 48.65L444.45 47.8C444.73 47.5333 445.057 47.32 445.43 47.16C445.81 46.9933 446.217 46.91 446.65 46.91C447.39 46.91 447.933 47.0867 448.28 47.44C448.633 47.7867 448.81 48.2633 448.81 48.87ZM454.934 50.53C454.934 51.6967 454.72 52.5933 454.294 53.22C453.867 53.84 453.277 54.15 452.524 54.15C451.77 54.15 451.18 53.84 450.754 53.22C450.327 52.5933 450.114 51.6967 450.114 50.53C450.114 49.95 450.167 49.4367 450.274 48.99C450.387 48.5367 450.547 48.1567 450.754 47.85C450.967 47.5433 451.22 47.31 451.514 47.15C451.814 46.99 452.15 46.91 452.524 46.91C453.277 46.91 453.867 47.2233 454.294 47.85C454.72 48.47 454.934 49.3633 454.934 50.53ZM453.684 50.53C453.684 50.17 453.664 49.8333 453.624 49.52C453.584 49.2067 453.517 48.9367 453.424 48.71C453.337 48.4767 453.22 48.2933 453.074 48.16C452.927 48.0267 452.744 47.96 452.524 47.96C452.304 47.96 452.117 48.0267 451.964 48.16C451.817 48.2933 451.697 48.4767 451.604 48.71C451.517 48.9367 451.454 49.2067 451.414 49.52C451.38 49.8333 451.364 50.17 451.364 50.53C451.364 50.89 451.38 51.2267 451.414 51.54C451.454 51.8533 451.517 52.1267 451.604 52.36C451.697 52.5867 451.817 52.7667 451.964 52.9C452.117 53.0333 452.304 53.1 452.524 53.1C452.744 53.1 452.927 53.0333 453.074 52.9C453.22 52.7667 453.337 52.5867 453.424 52.36C453.517 52.1267 453.584 51.8533 453.624 51.54C453.664 51.2267 453.684 50.89 453.684 50.53ZM459.197 48.81C459.197 49.4167 459.041 49.8833 458.727 50.21C458.421 50.5367 458.017 50.7 457.517 50.7C457.271 50.7 457.044 50.66 456.837 50.58C456.631 50.4933 456.454 50.37 456.307 50.21C456.161 50.05 456.044 49.8533 455.957 49.62C455.877 49.38 455.837 49.11 455.837 48.81C455.837 48.1967 455.991 47.73 456.297 47.41C456.611 47.0833 457.017 46.92 457.517 46.92C458.017 46.92 458.421 47.0833 458.727 47.41C459.041 47.73 459.197 48.1967 459.197 48.81ZM458.247 48.81C458.247 48.4567 458.181 48.1933 458.047 48.02C457.921 47.84 457.744 47.75 457.517 47.75C457.291 47.75 457.114 47.84 456.987 48.02C456.861 48.1933 456.797 48.4567 456.797 48.81C456.797 49.1633 456.861 49.43 456.987 49.61C457.114 49.7833 457.291 49.87 457.517 49.87C457.744 49.87 457.921 49.7833 458.047 49.61C458.181 49.43 458.247 49.1633 458.247 48.81ZM461.227 47.07H462.377L458.467 54H457.317L461.227 47.07ZM463.867 52.27C463.867 52.8767 463.711 53.3433 463.397 53.67C463.091 53.9967 462.687 54.16 462.187 54.16C461.941 54.16 461.714 54.1167 461.507 54.03C461.301 53.95 461.124 53.83 460.977 53.67C460.831 53.51 460.714 53.3133 460.627 53.08C460.547 52.84 460.507 52.57 460.507 52.27C460.507 51.6567 460.661 51.19 460.967 50.87C461.281 50.5433 461.687 50.38 462.187 50.38C462.687 50.38 463.091 50.5433 463.397 50.87C463.711 51.19 463.867 51.6567 463.867 52.27ZM462.917 52.27C462.917 51.9167 462.851 51.6533 462.717 51.48C462.591 51.3 462.414 51.21 462.187 51.21C461.961 51.21 461.784 51.3 461.657 51.48C461.531 51.6533 461.467 51.9167 461.467 52.27C461.467 52.6233 461.531 52.89 461.657 53.07C461.784 53.2433 461.961 53.33 462.187 53.33C462.414 53.33 462.591 53.2433 462.717 53.07C462.851 52.89 462.917 52.6233 462.917 52.27Z" fill="#9CA3AF"/>
<path d="M447.37 79.56C447.21 79.7533 447.043 79.96 446.87 80.18C446.703 80.4 446.54 80.63 446.38 80.87C446.22 81.11 446.067 81.3567 445.92 81.61C445.773 81.8567 445.64 82.1033 445.52 82.35H447.37V79.56ZM448.55 78.07V82.35H449.33V83.34H448.55V85H447.37V83.34H444.33V82.48C444.463 82.1867 444.64 81.85 444.86 81.47C445.087 81.09 445.337 80.7 445.61 80.3C445.883 79.9 446.173 79.5067 446.48 79.12C446.787 78.7333 447.093 78.3833 447.4 78.07H448.55ZM454.934 81.53C454.934 82.6967 454.72 83.5933 454.294 84.22C453.867 84.84 453.277 85.15 452.524 85.15C451.77 85.15 451.18 84.84 450.754 84.22C450.327 83.5933 450.114 82.6967 450.114 81.53C450.114 80.95 450.167 80.4367 450.274 79.99C450.387 79.5367 450.547 79.1567 450.754 78.85C450.967 78.5433 451.22 78.31 451.514 78.15C451.814 77.99 452.15 77.91 452.524 77.91C453.277 77.91 453.867 78.2233 454.294 78.85C454.72 79.47 454.934 80.3633 454.934 81.53ZM453.684 81.53C453.684 81.17 453.664 80.8333 453.624 80.52C453.584 80.2067 453.517 79.9367 453.424 79.71C453.337 79.4767 453.22 79.2933 453.074 79.16C452.927 79.0267 452.744 78.96 452.524 78.96C452.304 78.96 452.117 79.0267 451.964 79.16C451.817 79.2933 451.697 79.4767 451.604 79.71C451.517 79.9367 451.454 80.2067 451.414 80.52C451.38 80.8333 451.364 81.17 451.364 81.53C451.364 81.89 451.38 82.2267 451.414 82.54C451.454 82.8533 451.517 83.1267 451.604 83.36C451.697 83.5867 451.817 83.7667 451.964 83.9C452.117 84.0333 452.304 84.1 452.524 84.1C452.744 84.1 452.927 84.0333 453.074 83.9C453.22 83.7667 453.337 83.5867 453.424 83.36C453.517 83.1267 453.584 82.8533 453.624 82.54C453.664 82.2267 453.684 81.89 453.684 81.53ZM459.197 79.81C459.197 80.4167 459.041 80.8833 458.727 81.21C458.421 81.5367 458.017 81.7 457.517 81.7C457.271 81.7 457.044 81.66 456.837 81.58C456.631 81.4933 456.454 81.37 456.307 81.21C456.161 81.05 456.044 80.8533 455.957 80.62C455.877 80.38 455.837 80.11 455.837 79.81C455.837 79.1967 455.991 78.73 456.297 78.41C456.611 78.0833 457.017 77.92 457.517 77.92C458.017 77.92 458.421 78.0833 458.727 78.41C459.041 78.73 459.197 79.1967 459.197 79.81ZM458.247 79.81C458.247 79.4567 458.181 79.1933 458.047 79.02C457.921 78.84 457.744 78.75 457.517 78.75C457.291 78.75 457.114 78.84 456.987 79.02C456.861 79.1933 456.797 79.4567 456.797 79.81C456.797 80.1633 456.861 80.43 456.987 80.61C457.114 80.7833 457.291 80.87 457.517 80.87C457.744 80.87 457.921 80.7833 458.047 80.61C458.181 80.43 458.247 80.1633 458.247 79.81ZM461.227 78.07H462.377L458.467 85H457.317L461.227 78.07ZM463.867 83.27C463.867 83.8767 463.711 84.3433 463.397 84.67C463.091 84.9967 462.687 85.16 462.187 85.16C461.941 85.16 461.714 85.1167 461.507 85.03C461.301 84.95 461.124 84.83 460.977 84.67C460.831 84.51 460.714 84.3133 460.627 84.08C460.547 83.84 460.507 83.57 460.507 83.27C460.507 82.6567 460.661 82.19 460.967 81.87C461.281 81.5433 461.687 81.38 462.187 81.38C462.687 81.38 463.091 81.5433 463.397 81.87C463.711 82.19 463.867 82.6567 463.867 83.27ZM462.917 83.27C462.917 82.9167 462.851 82.6533 462.717 82.48C462.591 82.3 462.414 82.21 462.187 82.21C461.961 82.21 461.784 82.3 461.657 82.48C461.531 82.6533 461.467 82.9167 461.467 83.27C461.467 83.6233 461.531 83.89 461.657 84.07C461.784 84.2433 461.961 84.33 462.187 84.33C462.414 84.33 462.591 84.2433 462.717 84.07C462.851 83.89 462.917 83.6233 462.917 83.27Z" fill="#9CA3AF"/>
<path d="M446.82 112.63C446.627 112.63 446.44 112.647 446.26 112.68C446.08 112.713 445.917 112.763 445.77 112.83C445.763 112.883 445.757 112.943 445.75 113.01C445.75 113.07 445.75 113.13 445.75 113.19C445.75 113.457 445.767 113.71 445.8 113.95C445.84 114.183 445.903 114.39 445.99 114.57C446.083 114.743 446.207 114.883 446.36 114.99C446.52 115.09 446.717 115.14 446.95 115.14C447.143 115.14 447.307 115.1 447.44 115.02C447.58 114.94 447.693 114.837 447.78 114.71C447.867 114.583 447.93 114.447 447.97 114.3C448.01 114.147 448.03 114 448.03 113.86C448.03 113.46 447.933 113.157 447.74 112.95C447.547 112.737 447.24 112.63 446.82 112.63ZM446.97 111.67C447.383 111.67 447.733 111.73 448.02 111.85C448.313 111.963 448.55 112.12 448.73 112.32C448.91 112.52 449.04 112.753 449.12 113.02C449.207 113.28 449.25 113.553 449.25 113.84C449.25 114.1 449.203 114.367 449.11 114.64C449.023 114.913 448.883 115.163 448.69 115.39C448.503 115.61 448.267 115.793 447.98 115.94C447.693 116.08 447.353 116.15 446.96 116.15C446.167 116.15 445.56 115.89 445.14 115.37C444.727 114.843 444.52 114.12 444.52 113.2C444.52 112.533 444.617 111.943 444.81 111.43C445.01 110.91 445.29 110.473 445.65 110.12C446.017 109.767 446.457 109.5 446.97 109.32C447.49 109.133 448.073 109.037 448.72 109.03L448.79 110.03C448.43 110.037 448.093 110.077 447.78 110.15C447.467 110.217 447.187 110.323 446.94 110.47C446.693 110.617 446.48 110.807 446.3 111.04C446.127 111.273 445.993 111.56 445.9 111.9C446.227 111.747 446.583 111.67 446.97 111.67ZM454.934 112.53C454.934 113.697 454.72 114.593 454.294 115.22C453.867 115.84 453.277 116.15 452.524 116.15C451.77 116.15 451.18 115.84 450.754 115.22C450.327 114.593 450.114 113.697 450.114 112.53C450.114 111.95 450.167 111.437 450.274 110.99C450.387 110.537 450.547 110.157 450.754 109.85C450.967 109.543 451.22 109.31 451.514 109.15C451.814 108.99 452.15 108.91 452.524 108.91C453.277 108.91 453.867 109.223 454.294 109.85C454.72 110.47 454.934 111.363 454.934 112.53ZM453.684 112.53C453.684 112.17 453.664 111.833 453.624 111.52C453.584 111.207 453.517 110.937 453.424 110.71C453.337 110.477 453.22 110.293 453.074 110.16C452.927 110.027 452.744 109.96 452.524 109.96C452.304 109.96 452.117 110.027 451.964 110.16C451.817 110.293 451.697 110.477 451.604 110.71C451.517 110.937 451.454 111.207 451.414 111.52C451.38 111.833 451.364 112.17 451.364 112.53C451.364 112.89 451.38 113.227 451.414 113.54C451.454 113.853 451.517 114.127 451.604 114.36C451.697 114.587 451.817 114.767 451.964 114.9C452.117 115.033 452.304 115.1 452.524 115.1C452.744 115.1 452.927 115.033 453.074 114.9C453.22 114.767 453.337 114.587 453.424 114.36C453.517 114.127 453.584 113.853 453.624 113.54C453.664 113.227 453.684 112.89 453.684 112.53ZM459.197 110.81C459.197 111.417 459.041 111.883 458.727 112.21C458.421 112.537 458.017 112.7 457.517 112.7C457.271 112.7 457.044 112.66 456.837 112.58C456.631 112.493 456.454 112.37 456.307 112.21C456.161 112.05 456.044 111.853 455.957 111.62C455.877 111.38 455.837 111.11 455.837 110.81C455.837 110.197 455.991 109.73 456.297 109.41C456.611 109.083 457.017 108.92 457.517 108.92C458.017 108.92 458.421 109.083 458.727 109.41C459.041 109.73 459.197 110.197 459.197 110.81ZM458.247 110.81C458.247 110.457 458.181 110.193 458.047 110.02C457.921 109.84 457.744 109.75 457.517 109.75C457.291 109.75 457.114 109.84 456.987 110.02C456.861 110.193 456.797 110.457 456.797 110.81C456.797 111.163 456.861 111.43 456.987 111.61C457.114 111.783 457.291 111.87 457.517 111.87C457.744 111.87 457.921 111.783 458.047 111.61C458.181 111.43 458.247 111.163 458.247 110.81ZM461.227 109.07H462.377L458.467 116H457.317L461.227 109.07ZM463.867 114.27C463.867 114.877 463.711 115.343 463.397 115.67C463.091 115.997 462.687 116.16 462.187 116.16C461.941 116.16 461.714 116.117 461.507 116.03C461.301 115.95 461.124 115.83 460.977 115.67C460.831 115.51 460.714 115.313 460.627 115.08C460.547 114.84 460.507 114.57 460.507 114.27C460.507 113.657 460.661 113.19 460.967 112.87C461.281 112.543 461.687 112.38 462.187 112.38C462.687 112.38 463.091 112.543 463.397 112.87C463.711 113.19 463.867 113.657 463.867 114.27ZM462.917 114.27C462.917 113.917 462.851 113.653 462.717 113.48C462.591 113.3 462.414 113.21 462.187 113.21C461.961 113.21 461.784 113.3 461.657 113.48C461.531 113.653 461.467 113.917 461.467 114.27C461.467 114.623 461.531 114.89 461.657 115.07C461.784 115.243 461.961 115.33 462.187 115.33C462.414 115.33 462.591 115.243 462.717 115.07C462.851 114.89 462.917 114.623 462.917 114.27Z" fill="#9CA3AF"/>
<path d="M445.54 148C445.58 147.493 445.67 146.96 445.81 146.4C445.95 145.84 446.12 145.297 446.32 144.77C446.527 144.237 446.75 143.74 446.99 143.28C447.237 142.813 447.48 142.423 447.72 142.11H444.53V141.07H449.16V141.99C448.94 142.237 448.7 142.573 448.44 143C448.18 143.427 447.933 143.91 447.7 144.45C447.467 144.983 447.263 145.557 447.09 146.17C446.923 146.783 446.82 147.393 446.78 148H445.54ZM454.934 144.53C454.934 145.697 454.72 146.593 454.294 147.22C453.867 147.84 453.277 148.15 452.524 148.15C451.77 148.15 451.18 147.84 450.754 147.22C450.327 146.593 450.114 145.697 450.114 144.53C450.114 143.95 450.167 143.437 450.274 142.99C450.387 142.537 450.547 142.157 450.754 141.85C450.967 141.543 451.22 141.31 451.514 141.15C451.814 140.99 452.15 140.91 452.524 140.91C453.277 140.91 453.867 141.223 454.294 141.85C454.72 142.47 454.934 143.363 454.934 144.53ZM453.684 144.53C453.684 144.17 453.664 143.833 453.624 143.52C453.584 143.207 453.517 142.937 453.424 142.71C453.337 142.477 453.22 142.293 453.074 142.16C452.927 142.027 452.744 141.96 452.524 141.96C452.304 141.96 452.117 142.027 451.964 142.16C451.817 142.293 451.697 142.477 451.604 142.71C451.517 142.937 451.454 143.207 451.414 143.52C451.38 143.833 451.364 144.17 451.364 144.53C451.364 144.89 451.38 145.227 451.414 145.54C451.454 145.853 451.517 146.127 451.604 146.36C451.697 146.587 451.817 146.767 451.964 146.9C452.117 147.033 452.304 147.1 452.524 147.1C452.744 147.1 452.927 147.033 453.074 146.9C453.22 146.767 453.337 146.587 453.424 146.36C453.517 146.127 453.584 145.853 453.624 145.54C453.664 145.227 453.684 144.89 453.684 144.53ZM459.197 142.81C459.197 143.417 459.041 143.883 458.727 144.21C458.421 144.537 458.017 144.7 457.517 144.7C457.271 144.7 457.044 144.66 456.837 144.58C456.631 144.493 456.454 144.37 456.307 144.21C456.161 144.05 456.044 143.853 455.957 143.62C455.877 143.38 455.837 143.11 455.837 142.81C455.837 142.197 455.991 141.73 456.297 141.41C456.611 141.083 457.017 140.92 457.517 140.92C458.017 140.92 458.421 141.083 458.727 141.41C459.041 141.73 459.197 142.197 459.197 142.81ZM458.247 142.81C458.247 142.457 458.181 142.193 458.047 142.02C457.921 141.84 457.744 141.75 457.517 141.75C457.291 141.75 457.114 141.84 456.987 142.02C456.861 142.193 456.797 142.457 456.797 142.81C456.797 143.163 456.861 143.43 456.987 143.61C457.114 143.783 457.291 143.87 457.517 143.87C457.744 143.87 457.921 143.783 458.047 143.61C458.181 143.43 458.247 143.163 458.247 142.81ZM461.227 141.07H462.377L458.467 148H457.317L461.227 141.07ZM463.867 146.27C463.867 146.877 463.711 147.343 463.397 147.67C463.091 147.997 462.687 148.16 462.187 148.16C461.941 148.16 461.714 148.117 461.507 148.03C461.301 147.95 461.124 147.83 460.977 147.67C460.831 147.51 460.714 147.313 460.627 147.08C460.547 146.84 460.507 146.57 460.507 146.27C460.507 145.657 460.661 145.19 460.967 144.87C461.281 144.543 461.687 144.38 462.187 144.38C462.687 144.38 463.091 144.543 463.397 144.87C463.711 145.19 463.867 145.657 463.867 146.27ZM462.917 146.27C462.917 145.917 462.851 145.653 462.717 145.48C462.591 145.3 462.414 145.21 462.187 145.21C461.961 145.21 461.784 145.3 461.657 145.48C461.531 145.653 461.467 145.917 461.467 146.27C461.467 146.623 461.531 146.89 461.657 147.07C461.784 147.243 461.961 147.33 462.187 147.33C462.414 147.33 462.591 147.243 462.717 147.07C462.851 146.89 462.917 146.623 462.917 146.27Z" fill="#9CA3AF"/>
<path d="M309.09 83.96C309.163 83.9667 309.26 83.9733 309.38 83.98C309.5 83.98 309.663 83.98 309.87 83.98C310.717 83.98 311.347 83.7667 311.76 83.34C312.18 82.9067 312.39 82.3033 312.39 81.53C312.39 80.7433 312.187 80.14 311.78 79.72C311.373 79.3 310.743 79.09 309.89 79.09C309.517 79.09 309.25 79.1 309.09 79.12V83.96ZM313.71 81.53C313.71 82.13 313.617 82.6533 313.43 83.1C313.243 83.54 312.977 83.91 312.63 84.21C312.29 84.5033 311.877 84.7233 311.39 84.87C310.91 85.01 310.377 85.08 309.79 85.08C309.51 85.08 309.193 85.0667 308.84 85.04C308.487 85.02 308.15 84.9733 307.83 84.9V78.17C308.15 78.0967 308.49 78.05 308.85 78.03C309.21 78.01 309.53 78 309.81 78C310.39 78 310.92 78.07 311.4 78.21C311.88 78.3433 312.29 78.5567 312.63 78.85C312.977 79.1367 313.243 79.5033 313.43 79.95C313.617 80.39 313.71 80.9167 313.71 81.53ZM318.006 80.86C317.906 80.8267 317.766 80.7933 317.586 80.76C317.413 80.72 317.209 80.7 316.976 80.7C316.843 80.7 316.699 80.7133 316.546 80.74C316.399 80.7667 316.296 80.79 316.236 80.81V85H315.026V80.02C315.259 79.9333 315.549 79.8533 315.896 79.78C316.249 79.7 316.639 79.66 317.066 79.66C317.146 79.66 317.239 79.6667 317.346 79.68C317.453 79.6867 317.559 79.7 317.666 79.72C317.773 79.7333 317.876 79.7533 317.976 79.78C318.076 79.8 318.156 79.82 318.216 79.84L318.006 80.86ZM318.769 82.41C318.769 81.95 318.836 81.5467 318.969 81.2C319.109 80.8533 319.292 80.5667 319.519 80.34C319.746 80.1067 320.006 79.9333 320.299 79.82C320.592 79.7 320.892 79.64 321.199 79.64C321.919 79.64 322.479 79.8633 322.879 80.31C323.286 80.7567 323.489 81.4233 323.489 82.31C323.489 82.3767 323.486 82.4533 323.479 82.54C323.479 82.62 323.476 82.6933 323.469 82.76H320.019C320.052 83.18 320.199 83.5067 320.459 83.74C320.726 83.9667 321.109 84.08 321.609 84.08C321.902 84.08 322.169 84.0533 322.409 84C322.656 83.9467 322.849 83.89 322.989 83.83L323.149 84.82C323.082 84.8533 322.989 84.89 322.869 84.93C322.756 84.9633 322.622 84.9933 322.469 85.02C322.322 85.0533 322.162 85.08 321.989 85.1C321.816 85.12 321.639 85.13 321.459 85.13C320.999 85.13 320.599 85.0633 320.259 84.93C319.919 84.79 319.639 84.6 319.419 84.36C319.199 84.1133 319.036 83.8267 318.929 83.5C318.822 83.1667 318.769 82.8033 318.769 82.41ZM322.279 81.87C322.279 81.7033 322.256 81.5467 322.209 81.4C322.162 81.2467 322.092 81.1167 321.999 81.01C321.912 80.8967 321.802 80.81 321.669 80.75C321.542 80.6833 321.389 80.65 321.209 80.65C321.022 80.65 320.859 80.6867 320.719 80.76C320.579 80.8267 320.459 80.9167 320.359 81.03C320.266 81.1433 320.192 81.2733 320.139 81.42C320.086 81.5667 320.049 81.7167 320.029 81.87H322.279ZM326.612 84.15C326.985 84.15 327.269 84.13 327.462 84.09V82.75C327.395 82.73 327.299 82.71 327.172 82.69C327.045 82.67 326.905 82.66 326.752 82.66C326.619 82.66 326.482 82.67 326.342 82.69C326.209 82.71 326.085 82.7467 325.972 82.8C325.865 82.8533 325.779 82.93 325.712 83.03C325.645 83.1233 325.612 83.2433 325.612 83.39C325.612 83.6767 325.702 83.8767 325.882 83.99C326.062 84.0967 326.305 84.15 326.612 84.15ZM326.512 79.64C326.912 79.64 327.249 79.69 327.522 79.79C327.795 79.89 328.012 80.03 328.172 80.21C328.339 80.39 328.455 80.61 328.522 80.87C328.595 81.1233 328.632 81.4033 328.632 81.71V84.88C328.445 84.92 328.162 84.9667 327.782 85.02C327.409 85.08 326.985 85.11 326.512 85.11C326.199 85.11 325.912 85.08 325.652 85.02C325.392 84.96 325.169 84.8633 324.982 84.73C324.802 84.5967 324.659 84.4233 324.552 84.21C324.452 83.9967 324.402 83.7333 324.402 83.42C324.402 83.12 324.459 82.8667 324.572 82.66C324.692 82.4533 324.852 82.2867 325.052 82.16C325.252 82.0267 325.482 81.9333 325.742 81.88C326.009 81.82 326.285 81.79 326.572 81.79C326.705 81.79 326.845 81.8 326.992 81.82C327.139 81.8333 327.295 81.86 327.462 81.9V81.7C327.462 81.56 327.445 81.4267 327.412 81.3C327.379 81.1733 327.319 81.0633 327.232 80.97C327.152 80.87 327.042 80.7933 326.902 80.74C326.769 80.6867 326.599 80.66 326.392 80.66C326.112 80.66 325.855 80.68 325.622 80.72C325.389 80.76 325.199 80.8067 325.052 80.86L324.902 79.88C325.055 79.8267 325.279 79.7733 325.572 79.72C325.865 79.6667 326.179 79.64 326.512 79.64ZM333.094 82.25C333.094 81.7033 333.024 81.31 332.884 81.07C332.75 80.8233 332.497 80.7 332.124 80.7C331.99 80.7 331.844 80.71 331.684 80.73C331.524 80.75 331.404 80.7667 331.324 80.78V85H330.114V79.94C330.347 79.8733 330.65 79.81 331.024 79.75C331.404 79.69 331.804 79.66 332.224 79.66C332.584 79.66 332.877 79.7067 333.104 79.8C333.337 79.8933 333.53 80.0167 333.684 80.17C333.757 80.1167 333.85 80.06 333.964 80C334.077 79.94 334.204 79.8867 334.344 79.84C334.484 79.7867 334.63 79.7433 334.784 79.71C334.944 79.6767 335.104 79.66 335.264 79.66C335.67 79.66 336.004 79.72 336.264 79.84C336.53 79.9533 336.737 80.1167 336.884 80.33C337.037 80.5367 337.14 80.79 337.194 81.09C337.254 81.3833 337.284 81.7067 337.284 82.06V85H336.074V82.25C336.074 81.7033 336.007 81.31 335.874 81.07C335.74 80.8233 335.484 80.7 335.104 80.7C334.91 80.7 334.727 80.7333 334.554 80.8C334.38 80.86 334.25 80.92 334.164 80.98C334.217 81.1467 334.254 81.3233 334.274 81.51C334.294 81.6967 334.304 81.8967 334.304 82.11V85H333.094V82.25ZM340.076 84.13C340.396 84.13 340.629 84.0933 340.776 84.02C340.923 83.94 340.996 83.8067 340.996 83.62C340.996 83.4467 340.916 83.3033 340.756 83.19C340.603 83.0767 340.346 82.9533 339.986 82.82C339.766 82.74 339.563 82.6567 339.376 82.57C339.196 82.4767 339.039 82.37 338.906 82.25C338.773 82.13 338.666 81.9867 338.586 81.82C338.513 81.6467 338.476 81.4367 338.476 81.19C338.476 80.71 338.653 80.3333 339.006 80.06C339.359 79.78 339.839 79.64 340.446 79.64C340.753 79.64 341.046 79.67 341.326 79.73C341.606 79.7833 341.816 79.8367 341.956 79.89L341.736 80.87C341.603 80.81 341.433 80.7567 341.226 80.71C341.019 80.6567 340.779 80.63 340.506 80.63C340.259 80.63 340.059 80.6733 339.906 80.76C339.753 80.84 339.676 80.9667 339.676 81.14C339.676 81.2267 339.689 81.3033 339.716 81.37C339.749 81.4367 339.803 81.5 339.876 81.56C339.949 81.6133 340.046 81.67 340.166 81.73C340.286 81.7833 340.433 81.84 340.606 81.9C340.893 82.0067 341.136 82.1133 341.336 82.22C341.536 82.32 341.699 82.4367 341.826 82.57C341.959 82.6967 342.056 82.8433 342.116 83.01C342.176 83.1767 342.206 83.3767 342.206 83.61C342.206 84.11 342.019 84.49 341.646 84.75C341.279 85.0033 340.753 85.13 340.066 85.13C339.606 85.13 339.236 85.09 338.956 85.01C338.676 84.9367 338.479 84.8767 338.366 84.83L338.576 83.82C338.756 83.8933 338.969 83.9633 339.216 84.03C339.469 84.0967 339.756 84.13 340.076 84.13ZM347.69 78C348.697 78 349.467 78.1833 350 78.55C350.54 78.9167 350.81 79.49 350.81 80.27C350.81 80.6767 350.737 81.0267 350.59 81.32C350.45 81.6067 350.244 81.8433 349.97 82.03C349.697 82.21 349.364 82.3433 348.97 82.43C348.577 82.5167 348.127 82.56 347.62 82.56H346.99V85H345.73V78.17C346.024 78.1033 346.347 78.06 346.7 78.04C347.06 78.0133 347.39 78 347.69 78ZM347.78 79.09C347.46 79.09 347.197 79.1 346.99 79.12V81.48H347.6C348.207 81.48 348.674 81.3967 349 81.23C349.327 81.0567 349.49 80.7333 349.49 80.26C349.49 80.0333 349.447 79.8433 349.36 79.69C349.274 79.5367 349.154 79.4167 349 79.33C348.847 79.2433 348.664 79.1833 348.45 79.15C348.244 79.11 348.02 79.09 347.78 79.09ZM353.721 85.1C353.361 85.0933 353.061 85.0533 352.821 84.98C352.588 84.9067 352.401 84.8033 352.261 84.67C352.121 84.53 352.021 84.36 351.961 84.16C351.908 83.9533 351.881 83.72 351.881 83.46V77.44L353.091 77.24V83.23C353.091 83.3767 353.101 83.5 353.121 83.6C353.148 83.7 353.191 83.7867 353.251 83.86C353.311 83.9267 353.391 83.98 353.491 84.02C353.598 84.0533 353.731 84.08 353.891 84.1L353.721 85.1ZM356.71 84.15C357.083 84.15 357.366 84.13 357.56 84.09V82.75C357.493 82.73 357.396 82.71 357.27 82.69C357.143 82.67 357.003 82.66 356.85 82.66C356.716 82.66 356.58 82.67 356.44 82.69C356.306 82.71 356.183 82.7467 356.07 82.8C355.963 82.8533 355.876 82.93 355.81 83.03C355.743 83.1233 355.71 83.2433 355.71 83.39C355.71 83.6767 355.8 83.8767 355.98 83.99C356.16 84.0967 356.403 84.15 356.71 84.15ZM356.61 79.64C357.01 79.64 357.346 79.69 357.62 79.79C357.893 79.89 358.11 80.03 358.27 80.21C358.436 80.39 358.553 80.61 358.62 80.87C358.693 81.1233 358.73 81.4033 358.73 81.71V84.88C358.543 84.92 358.26 84.9667 357.88 85.02C357.506 85.08 357.083 85.11 356.61 85.11C356.296 85.11 356.01 85.08 355.75 85.02C355.49 84.96 355.266 84.8633 355.08 84.73C354.9 84.5967 354.756 84.4233 354.65 84.21C354.55 83.9967 354.5 83.7333 354.5 83.42C354.5 83.12 354.556 82.8667 354.67 82.66C354.79 82.4533 354.95 82.2867 355.15 82.16C355.35 82.0267 355.58 81.9333 355.84 81.88C356.106 81.82 356.383 81.79 356.67 81.79C356.803 81.79 356.943 81.8 357.09 81.82C357.236 81.8333 357.393 81.86 357.56 81.9V81.7C357.56 81.56 357.543 81.4267 357.51 81.3C357.476 81.1733 357.416 81.0633 357.33 80.97C357.25 80.87 357.14 80.7933 357 80.74C356.866 80.6867 356.696 80.66 356.49 80.66C356.21 80.66 355.953 80.68 355.72 80.72C355.486 80.76 355.296 80.8067 355.15 80.86L355 79.88C355.153 79.8267 355.376 79.7733 355.67 79.72C355.963 79.6667 356.276 79.64 356.61 79.64ZM360.211 79.94C360.445 79.8733 360.748 79.81 361.121 79.75C361.495 79.69 361.908 79.66 362.361 79.66C362.788 79.66 363.145 79.72 363.431 79.84C363.718 79.9533 363.945 80.1167 364.111 80.33C364.285 80.5367 364.405 80.79 364.471 81.09C364.545 81.3833 364.581 81.7067 364.581 82.06V85H363.371V82.25C363.371 81.97 363.351 81.7333 363.311 81.54C363.278 81.34 363.218 81.18 363.131 81.06C363.051 80.9333 362.938 80.8433 362.791 80.79C362.651 80.73 362.478 80.7 362.271 80.7C362.118 80.7 361.958 80.71 361.791 80.73C361.625 80.75 361.501 80.7667 361.421 80.78V85H360.211V79.94Z" fill="#4B5563"/>
<path d="M307.83 116V109.07H312.21V110.14H309.09V111.91H311.86V112.98H309.09V116H307.83ZM314.669 115.15C315.042 115.15 315.325 115.13 315.519 115.09V113.75C315.452 113.73 315.355 113.71 315.229 113.69C315.102 113.67 314.962 113.66 314.809 113.66C314.675 113.66 314.539 113.67 314.399 113.69C314.265 113.71 314.142 113.747 314.029 113.8C313.922 113.853 313.835 113.93 313.769 114.03C313.702 114.123 313.669 114.243 313.669 114.39C313.669 114.677 313.759 114.877 313.939 114.99C314.119 115.097 314.362 115.15 314.669 115.15ZM314.569 110.64C314.969 110.64 315.305 110.69 315.579 110.79C315.852 110.89 316.069 111.03 316.229 111.21C316.395 111.39 316.512 111.61 316.579 111.87C316.652 112.123 316.689 112.403 316.689 112.71V115.88C316.502 115.92 316.219 115.967 315.839 116.02C315.465 116.08 315.042 116.11 314.569 116.11C314.255 116.11 313.969 116.08 313.709 116.02C313.449 115.96 313.225 115.863 313.039 115.73C312.859 115.597 312.715 115.423 312.609 115.21C312.509 114.997 312.459 114.733 312.459 114.42C312.459 114.12 312.515 113.867 312.629 113.66C312.749 113.453 312.909 113.287 313.109 113.16C313.309 113.027 313.539 112.933 313.799 112.88C314.065 112.82 314.342 112.79 314.629 112.79C314.762 112.79 314.902 112.8 315.049 112.82C315.195 112.833 315.352 112.86 315.519 112.9V112.7C315.519 112.56 315.502 112.427 315.469 112.3C315.435 112.173 315.375 112.063 315.289 111.97C315.209 111.87 315.099 111.793 314.959 111.74C314.825 111.687 314.655 111.66 314.449 111.66C314.169 111.66 313.912 111.68 313.679 111.72C313.445 111.76 313.255 111.807 313.109 111.86L312.959 110.88C313.112 110.827 313.335 110.773 313.629 110.72C313.922 110.667 314.235 110.64 314.569 110.64ZM321.15 113.25C321.15 112.703 321.08 112.31 320.94 112.07C320.807 111.823 320.554 111.7 320.18 111.7C320.047 111.7 319.9 111.71 319.74 111.73C319.58 111.75 319.46 111.767 319.38 111.78V116H318.17V110.94C318.404 110.873 318.707 110.81 319.08 110.75C319.46 110.69 319.86 110.66 320.28 110.66C320.64 110.66 320.934 110.707 321.16 110.8C321.394 110.893 321.587 111.017 321.74 111.17C321.814 111.117 321.907 111.06 322.02 111C322.134 110.94 322.26 110.887 322.4 110.84C322.54 110.787 322.687 110.743 322.84 110.71C323 110.677 323.16 110.66 323.32 110.66C323.727 110.66 324.06 110.72 324.32 110.84C324.587 110.953 324.794 111.117 324.94 111.33C325.094 111.537 325.197 111.79 325.25 112.09C325.31 112.383 325.34 112.707 325.34 113.06V116H324.13V113.25C324.13 112.703 324.064 112.31 323.93 112.07C323.797 111.823 323.54 111.7 323.16 111.7C322.967 111.7 322.784 111.733 322.61 111.8C322.437 111.86 322.307 111.92 322.22 111.98C322.274 112.147 322.31 112.323 322.33 112.51C322.35 112.697 322.36 112.897 322.36 113.11V116H321.15V113.25ZM328.043 116H326.833V110.77H328.043V116ZM328.173 109.24C328.173 109.467 328.099 109.647 327.953 109.78C327.806 109.913 327.633 109.98 327.433 109.98C327.226 109.98 327.049 109.913 326.903 109.78C326.756 109.647 326.683 109.467 326.683 109.24C326.683 109.007 326.756 108.823 326.903 108.69C327.049 108.557 327.226 108.49 327.433 108.49C327.633 108.49 327.806 108.557 327.953 108.69C328.099 108.823 328.173 109.007 328.173 109.24ZM331.406 116.1C331.046 116.093 330.746 116.053 330.506 115.98C330.273 115.907 330.086 115.803 329.946 115.67C329.806 115.53 329.706 115.36 329.646 115.16C329.593 114.953 329.566 114.72 329.566 114.46V108.44L330.776 108.24V114.23C330.776 114.377 330.786 114.5 330.806 114.6C330.833 114.7 330.876 114.787 330.936 114.86C330.996 114.927 331.076 114.98 331.176 115.02C331.283 115.053 331.416 115.08 331.576 115.1L331.406 116.1ZM336.825 110.77C336.285 112.757 335.658 114.557 334.945 116.17C334.812 116.47 334.675 116.727 334.535 116.94C334.395 117.153 334.238 117.33 334.065 117.47C333.892 117.61 333.698 117.71 333.485 117.77C333.272 117.837 333.025 117.87 332.745 117.87C332.558 117.87 332.372 117.85 332.185 117.81C332.005 117.77 331.868 117.727 331.775 117.68L331.995 116.71C332.235 116.803 332.472 116.85 332.705 116.85C333.018 116.85 333.262 116.773 333.435 116.62C333.615 116.473 333.772 116.243 333.905 115.93C333.525 115.197 333.158 114.397 332.805 113.53C332.458 112.663 332.148 111.743 331.875 110.77H333.165C333.232 111.05 333.312 111.353 333.405 111.68C333.505 112.007 333.612 112.34 333.725 112.68C333.838 113.013 333.958 113.347 334.085 113.68C334.212 114.013 334.338 114.323 334.465 114.61C334.678 114.017 334.878 113.387 335.065 112.72C335.252 112.047 335.422 111.397 335.575 110.77H336.825ZM339.735 114.16C339.735 113.907 339.771 113.677 339.845 113.47C339.925 113.263 340.028 113.077 340.155 112.91C340.288 112.743 340.438 112.597 340.605 112.47C340.778 112.343 340.958 112.23 341.145 112.13C340.945 111.917 340.781 111.69 340.655 111.45C340.535 111.21 340.475 110.957 340.475 110.69C340.475 110.13 340.645 109.693 340.985 109.38C341.331 109.067 341.785 108.91 342.345 108.91C342.631 108.91 342.885 108.95 343.105 109.03C343.331 109.11 343.518 109.22 343.665 109.36C343.811 109.5 343.921 109.667 343.995 109.86C344.075 110.047 344.115 110.247 344.115 110.46C344.115 110.673 344.078 110.873 344.005 111.06C343.938 111.247 343.845 111.42 343.725 111.58C343.605 111.733 343.465 111.877 343.305 112.01C343.151 112.137 342.985 112.25 342.805 112.35L344.175 113.73C344.268 113.557 344.345 113.363 344.405 113.15C344.465 112.93 344.511 112.717 344.545 112.51L345.555 112.64C345.521 112.907 345.451 113.203 345.345 113.53C345.238 113.85 345.098 114.157 344.925 114.45C345.145 114.697 345.355 114.953 345.555 115.22C345.761 115.48 345.931 115.74 346.065 116H344.805C344.738 115.887 344.651 115.763 344.545 115.63C344.445 115.497 344.338 115.373 344.225 115.26C343.951 115.507 343.638 115.707 343.285 115.86C342.931 116.013 342.531 116.09 342.085 116.09C341.638 116.09 341.265 116.03 340.965 115.91C340.665 115.79 340.421 115.637 340.235 115.45C340.055 115.263 339.925 115.057 339.845 114.83C339.771 114.603 339.735 114.38 339.735 114.16ZM340.895 114.08C340.895 114.193 340.915 114.31 340.955 114.43C341.001 114.55 341.071 114.663 341.165 114.77C341.265 114.87 341.391 114.953 341.545 115.02C341.705 115.087 341.895 115.12 342.115 115.12C342.415 115.12 342.685 115.073 342.925 114.98C343.171 114.887 343.381 114.753 343.555 114.58L341.795 112.79C341.695 112.843 341.591 112.907 341.485 112.98C341.378 113.053 341.281 113.143 341.195 113.25C341.108 113.35 341.035 113.47 340.975 113.61C340.921 113.743 340.895 113.9 340.895 114.08ZM343.065 110.51C343.065 110.317 343.001 110.153 342.875 110.02C342.748 109.88 342.565 109.81 342.325 109.81C342.071 109.81 341.878 109.887 341.745 110.04C341.611 110.193 341.545 110.387 341.545 110.62C341.545 110.813 341.598 111.007 341.705 111.2C341.811 111.387 341.958 111.567 342.145 111.74C342.271 111.673 342.388 111.6 342.495 111.52C342.608 111.44 342.705 111.35 342.785 111.25C342.871 111.15 342.938 111.04 342.985 110.92C343.038 110.8 343.065 110.663 343.065 110.51ZM349.305 109.07H350.565V116H349.305V109.07Z" fill="#4B5563"/>
<path d="M309.81 147.509C309.31 146.429 308.827 145.299 308.36 144.119C307.9 142.939 307.47 141.759 307.07 140.579H308.46C308.62 141.045 308.783 141.522 308.95 142.009C309.117 142.495 309.283 142.975 309.45 143.449C309.617 143.915 309.783 144.369 309.95 144.809C310.117 145.249 310.28 145.652 310.44 146.019C310.593 145.652 310.753 145.252 310.92 144.819C311.087 144.379 311.253 143.922 311.42 143.449C311.593 142.975 311.763 142.495 311.93 142.009C312.097 141.522 312.257 141.045 312.41 140.579H313.76C313.353 141.759 312.92 142.939 312.46 144.119C312 145.299 311.52 146.429 311.02 147.509H309.81ZM316.212 146.659C316.585 146.659 316.868 146.639 317.062 146.599V145.259C316.995 145.239 316.898 145.219 316.772 145.199C316.645 145.179 316.505 145.169 316.352 145.169C316.218 145.169 316.082 145.179 315.942 145.199C315.808 145.219 315.685 145.255 315.572 145.309C315.465 145.362 315.378 145.439 315.312 145.539C315.245 145.632 315.212 145.752 315.212 145.899C315.212 146.185 315.302 146.385 315.482 146.499C315.662 146.605 315.905 146.659 316.212 146.659ZM316.112 142.149C316.512 142.149 316.848 142.199 317.122 142.299C317.395 142.399 317.612 142.539 317.772 142.719C317.938 142.899 318.055 143.119 318.122 143.379C318.195 143.632 318.232 143.912 318.232 144.219V147.389C318.045 147.429 317.762 147.475 317.382 147.529C317.008 147.589 316.585 147.619 316.112 147.619C315.798 147.619 315.512 147.589 315.252 147.529C314.992 147.469 314.768 147.372 314.582 147.239C314.402 147.105 314.258 146.932 314.152 146.719C314.052 146.505 314.002 146.242 314.002 145.929C314.002 145.629 314.058 145.375 314.172 145.169C314.292 144.962 314.452 144.795 314.652 144.669C314.852 144.535 315.082 144.442 315.342 144.389C315.608 144.329 315.885 144.299 316.172 144.299C316.305 144.299 316.445 144.309 316.592 144.329C316.738 144.342 316.895 144.369 317.062 144.409V144.209C317.062 144.069 317.045 143.935 317.012 143.809C316.978 143.682 316.918 143.572 316.832 143.479C316.752 143.379 316.642 143.302 316.502 143.249C316.368 143.195 316.198 143.169 315.992 143.169C315.712 143.169 315.455 143.189 315.222 143.229C314.988 143.269 314.798 143.315 314.652 143.369L314.502 142.389C314.655 142.335 314.878 142.282 315.172 142.229C315.465 142.175 315.778 142.149 316.112 142.149ZM324.003 147.349C323.77 147.409 323.467 147.469 323.093 147.529C322.72 147.595 322.31 147.629 321.863 147.629C321.443 147.629 321.09 147.569 320.803 147.449C320.523 147.329 320.297 147.162 320.123 146.949C319.957 146.735 319.837 146.482 319.763 146.189C319.69 145.889 319.653 145.562 319.653 145.209V142.279H320.863V145.019C320.863 145.579 320.943 145.979 321.103 146.219C321.27 146.459 321.557 146.579 321.963 146.579C322.11 146.579 322.263 146.572 322.423 146.559C322.59 146.545 322.713 146.529 322.793 146.509V142.279H324.003V147.349ZM327.363 147.609C327.003 147.602 326.703 147.562 326.463 147.489C326.23 147.415 326.043 147.312 325.903 147.179C325.763 147.039 325.663 146.869 325.603 146.669C325.55 146.462 325.523 146.229 325.523 145.969V139.949L326.733 139.749V145.739C326.733 145.885 326.743 146.009 326.763 146.109C326.79 146.209 326.833 146.295 326.893 146.369C326.953 146.435 327.033 146.489 327.133 146.529C327.24 146.562 327.373 146.589 327.533 146.609L327.363 147.609ZM328.452 140.899L329.662 140.699V142.279H331.522V143.289H329.662V145.419C329.662 145.839 329.729 146.139 329.862 146.319C329.996 146.499 330.222 146.589 330.542 146.589C330.762 146.589 330.956 146.565 331.122 146.519C331.296 146.472 331.432 146.429 331.532 146.389L331.732 147.349C331.592 147.409 331.409 147.469 331.182 147.529C330.956 147.595 330.689 147.629 330.382 147.629C330.009 147.629 329.696 147.579 329.442 147.479C329.196 147.379 328.999 147.235 328.852 147.049C328.706 146.855 328.602 146.625 328.542 146.359C328.482 146.085 328.452 145.775 328.452 145.429V140.899Z" fill="#4B5563"/>
<path d="M278.83 182.02C278.83 181.8 278.787 181.603 278.7 181.43C278.613 181.257 278.46 181.11 278.24 180.99C278.027 180.87 277.737 180.78 277.37 180.72C277.01 180.66 276.553 180.63 276 180.63C276.073 179.99 276.13 179.383 276.17 178.81C276.21 178.23 276.243 177.65 276.27 177.07H279.81V178.09H277.3C277.293 178.203 277.283 178.333 277.27 178.48C277.263 178.62 277.253 178.763 277.24 178.91C277.233 179.057 277.223 179.197 277.21 179.33C277.197 179.463 277.183 179.577 277.17 179.67C278.157 179.723 278.883 179.95 279.35 180.35C279.823 180.743 280.06 181.283 280.06 181.97C280.06 182.283 280.007 182.573 279.9 182.84C279.793 183.107 279.63 183.337 279.41 183.53C279.19 183.723 278.913 183.877 278.58 183.99C278.247 184.097 277.857 184.15 277.41 184.15C277.23 184.15 277.047 184.137 276.86 184.11C276.673 184.083 276.493 184.05 276.32 184.01C276.153 183.977 276.003 183.94 275.87 183.9C275.737 183.86 275.637 183.823 275.57 183.79L275.8 182.77C275.94 182.837 276.14 182.91 276.4 182.99C276.667 183.063 276.99 183.1 277.37 183.1C277.63 183.1 277.853 183.073 278.04 183.02C278.227 182.96 278.377 182.88 278.49 182.78C278.61 182.68 278.697 182.567 278.75 182.44C278.803 182.307 278.83 182.167 278.83 182.02ZM284.514 178.81C284.514 179.417 284.357 179.883 284.044 180.21C283.737 180.537 283.334 180.7 282.834 180.7C282.587 180.7 282.36 180.66 282.154 180.58C281.947 180.493 281.77 180.37 281.624 180.21C281.477 180.05 281.36 179.853 281.274 179.62C281.194 179.38 281.154 179.11 281.154 178.81C281.154 178.197 281.307 177.73 281.614 177.41C281.927 177.083 282.334 176.92 282.834 176.92C283.334 176.92 283.737 177.083 284.044 177.41C284.357 177.73 284.514 178.197 284.514 178.81ZM283.564 178.81C283.564 178.457 283.497 178.193 283.364 178.02C283.237 177.84 283.06 177.75 282.834 177.75C282.607 177.75 282.43 177.84 282.304 178.02C282.177 178.193 282.114 178.457 282.114 178.81C282.114 179.163 282.177 179.43 282.304 179.61C282.43 179.783 282.607 179.87 282.834 179.87C283.06 179.87 283.237 179.783 283.364 179.61C283.497 179.43 283.564 179.163 283.564 178.81ZM286.544 177.07H287.694L283.784 184H282.634L286.544 177.07ZM289.184 182.27C289.184 182.877 289.027 183.343 288.714 183.67C288.407 183.997 288.004 184.16 287.504 184.16C287.257 184.16 287.03 184.117 286.824 184.03C286.617 183.95 286.44 183.83 286.294 183.67C286.147 183.51 286.03 183.313 285.944 183.08C285.864 182.84 285.824 182.57 285.824 182.27C285.824 181.657 285.977 181.19 286.284 180.87C286.597 180.543 287.004 180.38 287.504 180.38C288.004 180.38 288.407 180.543 288.714 180.87C289.027 181.19 289.184 181.657 289.184 182.27ZM288.234 182.27C288.234 181.917 288.167 181.653 288.034 181.48C287.907 181.3 287.73 181.21 287.504 181.21C287.277 181.21 287.1 181.3 286.974 181.48C286.847 181.653 286.784 181.917 286.784 182.27C286.784 182.623 286.847 182.89 286.974 183.07C287.1 183.243 287.277 183.33 287.504 183.33C287.73 183.33 287.907 183.243 288.034 183.07C288.167 182.89 288.234 182.623 288.234 182.27ZM294.332 177.07C294.479 177.323 294.642 177.633 294.822 178C295.002 178.367 295.186 178.753 295.372 179.16C295.559 179.56 295.742 179.97 295.922 180.39C296.109 180.803 296.279 181.187 296.432 181.54C296.586 181.187 296.752 180.803 296.932 180.39C297.112 179.97 297.296 179.56 297.482 179.16C297.669 178.753 297.852 178.367 298.032 178C298.212 177.633 298.376 177.323 298.522 177.07H299.662C299.722 177.577 299.779 178.117 299.832 178.69C299.886 179.257 299.932 179.84 299.972 180.44C300.019 181.033 300.059 181.633 300.092 182.24C300.132 182.84 300.166 183.427 300.192 184H298.952C298.926 183.193 298.892 182.363 298.852 181.51C298.819 180.657 298.766 179.83 298.692 179.03C298.619 179.183 298.532 179.367 298.432 179.58C298.332 179.793 298.226 180.027 298.112 180.28C297.999 180.527 297.882 180.783 297.762 181.05C297.649 181.317 297.536 181.577 297.422 181.83C297.316 182.077 297.216 182.31 297.122 182.53C297.029 182.743 296.949 182.927 296.882 183.08H295.942C295.876 182.927 295.796 182.74 295.702 182.52C295.609 182.3 295.506 182.067 295.392 181.82C295.286 181.567 295.172 181.307 295.052 181.04C294.939 180.773 294.826 180.517 294.712 180.27C294.599 180.023 294.492 179.793 294.392 179.58C294.292 179.36 294.206 179.177 294.132 179.03C294.059 179.83 294.002 180.657 293.962 181.51C293.929 182.363 293.899 183.193 293.872 184H292.632C292.659 183.427 292.689 182.833 292.722 182.22C292.762 181.607 292.802 181 292.842 180.4C292.889 179.793 292.939 179.207 292.992 178.64C293.046 178.073 293.102 177.55 293.162 177.07H294.332ZM306.33 181.38C306.33 181.793 306.27 182.17 306.15 182.51C306.03 182.85 305.86 183.14 305.64 183.38C305.42 183.62 305.153 183.807 304.84 183.94C304.533 184.073 304.193 184.14 303.82 184.14C303.447 184.14 303.107 184.073 302.8 183.94C302.493 183.807 302.23 183.62 302.01 183.38C301.79 183.14 301.617 182.85 301.49 182.51C301.37 182.17 301.31 181.793 301.31 181.38C301.31 180.967 301.37 180.593 301.49 180.26C301.617 179.92 301.79 179.63 302.01 179.39C302.237 179.15 302.503 178.967 302.81 178.84C303.117 178.707 303.453 178.64 303.82 178.64C304.187 178.64 304.523 178.707 304.83 178.84C305.143 178.967 305.41 179.15 305.63 179.39C305.85 179.63 306.02 179.92 306.14 180.26C306.267 180.593 306.33 180.967 306.33 181.38ZM305.09 181.38C305.09 180.86 304.977 180.45 304.75 180.15C304.53 179.843 304.22 179.69 303.82 179.69C303.42 179.69 303.107 179.843 302.88 180.15C302.66 180.45 302.55 180.86 302.55 181.38C302.55 181.907 302.66 182.323 302.88 182.63C303.107 182.937 303.42 183.09 303.82 183.09C304.22 183.09 304.53 182.937 304.75 182.63C304.977 182.323 305.09 181.907 305.09 181.38ZM307.577 178.94C307.81 178.873 308.113 178.81 308.487 178.75C308.86 178.69 309.273 178.66 309.727 178.66C310.153 178.66 310.51 178.72 310.797 178.84C311.083 178.953 311.31 179.117 311.477 179.33C311.65 179.537 311.77 179.79 311.837 180.09C311.91 180.383 311.947 180.707 311.947 181.06V184H310.737V181.25C310.737 180.97 310.717 180.733 310.677 180.54C310.643 180.34 310.583 180.18 310.497 180.06C310.417 179.933 310.303 179.843 310.157 179.79C310.017 179.73 309.843 179.7 309.637 179.7C309.483 179.7 309.323 179.71 309.157 179.73C308.99 179.75 308.867 179.767 308.787 179.78V184H307.577V178.94ZM313.136 181.41C313.136 180.95 313.203 180.547 313.336 180.2C313.476 179.853 313.66 179.567 313.886 179.34C314.113 179.107 314.373 178.933 314.666 178.82C314.96 178.7 315.26 178.64 315.566 178.64C316.286 178.64 316.846 178.863 317.246 179.31C317.653 179.757 317.856 180.423 317.856 181.31C317.856 181.377 317.853 181.453 317.846 181.54C317.846 181.62 317.843 181.693 317.836 181.76H314.386C314.42 182.18 314.566 182.507 314.826 182.74C315.093 182.967 315.476 183.08 315.976 183.08C316.27 183.08 316.536 183.053 316.776 183C317.023 182.947 317.216 182.89 317.356 182.83L317.516 183.82C317.45 183.853 317.356 183.89 317.236 183.93C317.123 183.963 316.99 183.993 316.836 184.02C316.69 184.053 316.53 184.08 316.356 184.1C316.183 184.12 316.006 184.13 315.826 184.13C315.366 184.13 314.966 184.063 314.626 183.93C314.286 183.79 314.006 183.6 313.786 183.36C313.566 183.113 313.403 182.827 313.296 182.5C313.19 182.167 313.136 181.803 313.136 181.41ZM316.646 180.87C316.646 180.703 316.623 180.547 316.576 180.4C316.53 180.247 316.46 180.117 316.366 180.01C316.28 179.897 316.17 179.81 316.036 179.75C315.91 179.683 315.756 179.65 315.576 179.65C315.39 179.65 315.226 179.687 315.086 179.76C314.946 179.827 314.826 179.917 314.726 180.03C314.633 180.143 314.56 180.273 314.506 180.42C314.453 180.567 314.416 180.717 314.396 180.87H316.646ZM323.409 178.77C322.869 180.757 322.242 182.557 321.529 184.17C321.396 184.47 321.259 184.727 321.119 184.94C320.979 185.153 320.822 185.33 320.649 185.47C320.476 185.61 320.282 185.71 320.069 185.77C319.856 185.837 319.609 185.87 319.329 185.87C319.142 185.87 318.956 185.85 318.769 185.81C318.589 185.77 318.452 185.727 318.359 185.68L318.579 184.71C318.819 184.803 319.056 184.85 319.289 184.85C319.602 184.85 319.846 184.773 320.019 184.62C320.199 184.473 320.356 184.243 320.489 183.93C320.109 183.197 319.742 182.397 319.389 181.53C319.042 180.663 318.732 179.743 318.459 178.77H319.749C319.816 179.05 319.896 179.353 319.989 179.68C320.089 180.007 320.196 180.34 320.309 180.68C320.422 181.013 320.542 181.347 320.669 181.68C320.796 182.013 320.922 182.323 321.049 182.61C321.262 182.017 321.462 181.387 321.649 180.72C321.836 180.047 322.006 179.397 322.159 178.77H323.409ZM328.789 176.24C329.069 176.24 329.315 176.267 329.529 176.32C329.742 176.367 329.902 176.41 330.009 176.45L329.779 177.45C329.665 177.397 329.532 177.353 329.379 177.32C329.232 177.287 329.072 177.27 328.899 177.27C328.705 177.27 328.542 177.3 328.409 177.36C328.275 177.413 328.169 177.49 328.089 177.59C328.009 177.69 327.952 177.813 327.919 177.96C327.885 178.1 327.869 178.253 327.869 178.42V178.77H329.769V179.78H327.869V184H326.659V178.4C326.659 177.727 326.835 177.2 327.189 176.82C327.542 176.433 328.075 176.24 328.789 176.24ZM332.483 184.1C332.123 184.093 331.823 184.053 331.583 183.98C331.349 183.907 331.163 183.803 331.023 183.67C330.883 183.53 330.783 183.36 330.723 183.16C330.669 182.953 330.643 182.72 330.643 182.46V176.44L331.853 176.24V182.23C331.853 182.377 331.863 182.5 331.883 182.6C331.909 182.7 331.953 182.787 332.013 182.86C332.073 182.927 332.153 182.98 332.253 183.02C332.359 183.053 332.493 183.08 332.653 183.1L332.483 184.1ZM338.361 181.38C338.361 181.793 338.301 182.17 338.181 182.51C338.061 182.85 337.891 183.14 337.671 183.38C337.451 183.62 337.185 183.807 336.871 183.94C336.565 184.073 336.225 184.14 335.851 184.14C335.478 184.14 335.138 184.073 334.831 183.94C334.525 183.807 334.261 183.62 334.041 183.38C333.821 183.14 333.648 182.85 333.521 182.51C333.401 182.17 333.341 181.793 333.341 181.38C333.341 180.967 333.401 180.593 333.521 180.26C333.648 179.92 333.821 179.63 334.041 179.39C334.268 179.15 334.535 178.967 334.841 178.84C335.148 178.707 335.485 178.64 335.851 178.64C336.218 178.64 336.555 178.707 336.861 178.84C337.175 178.967 337.441 179.15 337.661 179.39C337.881 179.63 338.051 179.92 338.171 180.26C338.298 180.593 338.361 180.967 338.361 181.38ZM337.121 181.38C337.121 180.86 337.008 180.45 336.781 180.15C336.561 179.843 336.251 179.69 335.851 179.69C335.451 179.69 335.138 179.843 334.911 180.15C334.691 180.45 334.581 180.86 334.581 181.38C334.581 181.907 334.691 182.323 334.911 182.63C335.138 182.937 335.451 183.09 335.851 183.09C336.251 183.09 336.561 182.937 336.781 182.63C337.008 182.323 337.121 181.907 337.121 181.38ZM342.62 180.71C342.467 181.297 342.3 181.87 342.12 182.43C341.947 182.983 341.774 183.507 341.6 184H340.61C340.477 183.693 340.337 183.343 340.19 182.95C340.044 182.557 339.897 182.137 339.75 181.69C339.604 181.243 339.457 180.773 339.31 180.28C339.164 179.787 339.02 179.283 338.88 178.77H340.16C340.22 179.05 340.29 179.353 340.37 179.68C340.45 180 340.534 180.33 340.62 180.67C340.707 181.003 340.797 181.33 340.89 181.65C340.984 181.97 341.077 182.263 341.17 182.53C341.27 182.223 341.367 181.907 341.46 181.58C341.56 181.253 341.654 180.927 341.74 180.6C341.827 180.273 341.907 179.957 341.98 179.65C342.06 179.337 342.13 179.043 342.19 178.77H343.12C343.18 179.043 343.247 179.337 343.32 179.65C343.394 179.957 343.47 180.273 343.55 180.6C343.637 180.927 343.727 181.253 343.82 181.58C343.92 181.907 344.02 182.223 344.12 182.53C344.207 182.263 344.297 181.97 344.39 181.65C344.484 181.33 344.574 181.003 344.66 180.67C344.754 180.33 344.84 180 344.92 179.68C345 179.353 345.07 179.05 345.13 178.77H346.38C346.24 179.283 346.097 179.787 345.95 180.28C345.804 180.773 345.657 181.243 345.51 181.69C345.364 182.137 345.217 182.557 345.07 182.95C344.924 183.343 344.78 183.693 344.64 184H343.66C343.487 183.507 343.307 182.983 343.12 182.43C342.94 181.87 342.774 181.297 342.62 180.71ZM350.857 184H349.647V178.77H350.857V184ZM350.987 177.24C350.987 177.467 350.914 177.647 350.767 177.78C350.621 177.913 350.447 177.98 350.247 177.98C350.041 177.98 349.864 177.913 349.717 177.78C349.571 177.647 349.497 177.467 349.497 177.24C349.497 177.007 349.571 176.823 349.717 176.69C349.864 176.557 350.041 176.49 350.247 176.49C350.447 176.49 350.621 176.557 350.767 176.69C350.914 176.823 350.987 177.007 350.987 177.24ZM352.401 178.94C352.634 178.873 352.938 178.81 353.311 178.75C353.684 178.69 354.098 178.66 354.551 178.66C354.978 178.66 355.334 178.72 355.621 178.84C355.908 178.953 356.134 179.117 356.301 179.33C356.474 179.537 356.594 179.79 356.661 180.09C356.734 180.383 356.771 180.707 356.771 181.06V184H355.561V181.25C355.561 180.97 355.541 180.733 355.501 180.54C355.468 180.34 355.408 180.18 355.321 180.06C355.241 179.933 355.128 179.843 354.981 179.79C354.841 179.73 354.668 179.7 354.461 179.7C354.308 179.7 354.148 179.71 353.981 179.73C353.814 179.75 353.691 179.767 353.611 179.78V184H352.401V178.94ZM357.96 181.39C357.96 181.003 358.02 180.643 358.14 180.31C358.26 179.97 358.43 179.677 358.65 179.43C358.877 179.183 359.15 178.99 359.47 178.85C359.79 178.71 360.15 178.64 360.55 178.64C361.044 178.64 361.51 178.73 361.95 178.91L361.69 179.9C361.55 179.84 361.39 179.79 361.21 179.75C361.037 179.71 360.85 179.69 360.65 179.69C360.177 179.69 359.817 179.84 359.57 180.14C359.324 180.433 359.2 180.85 359.2 181.39C359.2 181.91 359.317 182.323 359.55 182.63C359.784 182.93 360.177 183.08 360.73 183.08C360.937 183.08 361.14 183.06 361.34 183.02C361.54 182.98 361.714 182.93 361.86 182.87L362.03 183.87C361.897 183.937 361.694 183.997 361.42 184.05C361.154 184.103 360.877 184.13 360.59 184.13C360.144 184.13 359.754 184.063 359.42 183.93C359.094 183.79 358.82 183.6 358.6 183.36C358.387 183.113 358.227 182.823 358.12 182.49C358.014 182.15 357.96 181.783 357.96 181.39ZM365.947 179.86C365.847 179.827 365.707 179.793 365.527 179.76C365.354 179.72 365.151 179.7 364.917 179.7C364.784 179.7 364.641 179.713 364.487 179.74C364.341 179.767 364.237 179.79 364.177 179.81V184H362.967V179.02C363.201 178.933 363.491 178.853 363.837 178.78C364.191 178.7 364.581 178.66 365.007 178.66C365.087 178.66 365.181 178.667 365.287 178.68C365.394 178.687 365.501 178.7 365.607 178.72C365.714 178.733 365.817 178.753 365.917 178.78C366.017 178.8 366.097 178.82 366.157 178.84L365.947 179.86ZM366.71 181.41C366.71 180.95 366.777 180.547 366.91 180.2C367.05 179.853 367.234 179.567 367.46 179.34C367.687 179.107 367.947 178.933 368.24 178.82C368.534 178.7 368.834 178.64 369.14 178.64C369.86 178.64 370.42 178.863 370.82 179.31C371.227 179.757 371.43 180.423 371.43 181.31C371.43 181.377 371.427 181.453 371.42 181.54C371.42 181.62 371.417 181.693 371.41 181.76H367.96C367.994 182.18 368.14 182.507 368.4 182.74C368.667 182.967 369.05 183.08 369.55 183.08C369.844 183.08 370.11 183.053 370.35 183C370.597 182.947 370.79 182.89 370.93 182.83L371.09 183.82C371.024 183.853 370.93 183.89 370.81 183.93C370.697 183.963 370.564 183.993 370.41 184.02C370.264 184.053 370.104 184.08 369.93 184.1C369.757 184.12 369.58 184.13 369.4 184.13C368.94 184.13 368.54 184.063 368.2 183.93C367.86 183.79 367.58 183.6 367.36 183.36C367.14 183.113 366.977 182.827 366.87 182.5C366.764 182.167 366.71 181.803 366.71 181.41ZM370.22 180.87C370.22 180.703 370.197 180.547 370.15 180.4C370.104 180.247 370.034 180.117 369.94 180.01C369.854 179.897 369.744 179.81 369.61 179.75C369.484 179.683 369.33 179.65 369.15 179.65C368.964 179.65 368.8 179.687 368.66 179.76C368.52 179.827 368.4 179.917 368.3 180.03C368.207 180.143 368.134 180.273 368.08 180.42C368.027 180.567 367.99 180.717 367.97 180.87H370.22ZM374.553 183.15C374.927 183.15 375.21 183.13 375.403 183.09V181.75C375.337 181.73 375.24 181.71 375.113 181.69C374.987 181.67 374.847 181.66 374.693 181.66C374.56 181.66 374.423 181.67 374.283 181.69C374.15 181.71 374.027 181.747 373.913 181.8C373.807 181.853 373.72 181.93 373.653 182.03C373.587 182.123 373.553 182.243 373.553 182.39C373.553 182.677 373.643 182.877 373.823 182.99C374.003 183.097 374.247 183.15 374.553 183.15ZM374.453 178.64C374.853 178.64 375.19 178.69 375.463 178.79C375.737 178.89 375.953 179.03 376.113 179.21C376.28 179.39 376.397 179.61 376.463 179.87C376.537 180.123 376.573 180.403 376.573 180.71V183.88C376.387 183.92 376.103 183.967 375.723 184.02C375.35 184.08 374.927 184.11 374.453 184.11C374.14 184.11 373.853 184.08 373.593 184.02C373.333 183.96 373.11 183.863 372.923 183.73C372.743 183.597 372.6 183.423 372.493 183.21C372.393 182.997 372.343 182.733 372.343 182.42C372.343 182.12 372.4 181.867 372.513 181.66C372.633 181.453 372.793 181.287 372.993 181.16C373.193 181.027 373.423 180.933 373.683 180.88C373.95 180.82 374.227 180.79 374.513 180.79C374.647 180.79 374.787 180.8 374.933 180.82C375.08 180.833 375.237 180.86 375.403 180.9V180.7C375.403 180.56 375.387 180.427 375.353 180.3C375.32 180.173 375.26 180.063 375.173 179.97C375.093 179.87 374.983 179.793 374.843 179.74C374.71 179.687 374.54 179.66 374.333 179.66C374.053 179.66 373.797 179.68 373.563 179.72C373.33 179.76 373.14 179.807 372.993 179.86L372.843 178.88C372.997 178.827 373.22 178.773 373.513 178.72C373.807 178.667 374.12 178.64 374.453 178.64ZM379.365 183.13C379.685 183.13 379.918 183.093 380.065 183.02C380.212 182.94 380.285 182.807 380.285 182.62C380.285 182.447 380.205 182.303 380.045 182.19C379.892 182.077 379.635 181.953 379.275 181.82C379.055 181.74 378.852 181.657 378.665 181.57C378.485 181.477 378.328 181.37 378.195 181.25C378.062 181.13 377.955 180.987 377.875 180.82C377.802 180.647 377.765 180.437 377.765 180.19C377.765 179.71 377.942 179.333 378.295 179.06C378.648 178.78 379.128 178.64 379.735 178.64C380.042 178.64 380.335 178.67 380.615 178.73C380.895 178.783 381.105 178.837 381.245 178.89L381.025 179.87C380.892 179.81 380.722 179.757 380.515 179.71C380.308 179.657 380.068 179.63 379.795 179.63C379.548 179.63 379.348 179.673 379.195 179.76C379.042 179.84 378.965 179.967 378.965 180.14C378.965 180.227 378.978 180.303 379.005 180.37C379.038 180.437 379.092 180.5 379.165 180.56C379.238 180.613 379.335 180.67 379.455 180.73C379.575 180.783 379.722 180.84 379.895 180.9C380.182 181.007 380.425 181.113 380.625 181.22C380.825 181.32 380.988 181.437 381.115 181.57C381.248 181.697 381.345 181.843 381.405 182.01C381.465 182.177 381.495 182.377 381.495 182.61C381.495 183.11 381.308 183.49 380.935 183.75C380.568 184.003 380.042 184.13 379.355 184.13C378.895 184.13 378.525 184.09 378.245 184.01C377.965 183.937 377.768 183.877 377.655 183.83L377.865 182.82C378.045 182.893 378.258 182.963 378.505 183.03C378.758 183.097 379.045 183.13 379.365 183.13ZM382.335 181.41C382.335 180.95 382.402 180.547 382.535 180.2C382.675 179.853 382.859 179.567 383.085 179.34C383.312 179.107 383.572 178.933 383.865 178.82C384.159 178.7 384.459 178.64 384.765 178.64C385.485 178.64 386.045 178.863 386.445 179.31C386.852 179.757 387.055 180.423 387.055 181.31C387.055 181.377 387.052 181.453 387.045 181.54C387.045 181.62 387.042 181.693 387.035 181.76H383.585C383.619 182.18 383.765 182.507 384.025 182.74C384.292 182.967 384.675 183.08 385.175 183.08C385.469 183.08 385.735 183.053 385.975 183C386.222 182.947 386.415 182.89 386.555 182.83L386.715 183.82C386.649 183.853 386.555 183.89 386.435 183.93C386.322 183.963 386.189 183.993 386.035 184.02C385.889 184.053 385.729 184.08 385.555 184.1C385.382 184.12 385.205 184.13 385.025 184.13C384.565 184.13 384.165 184.063 383.825 183.93C383.485 183.79 383.205 183.6 382.985 183.36C382.765 183.113 382.602 182.827 382.495 182.5C382.389 182.167 382.335 181.803 382.335 181.41ZM385.845 180.87C385.845 180.703 385.822 180.547 385.775 180.4C385.729 180.247 385.659 180.117 385.565 180.01C385.479 179.897 385.369 179.81 385.235 179.75C385.109 179.683 384.955 179.65 384.775 179.65C384.589 179.65 384.425 179.687 384.285 179.76C384.145 179.827 384.025 179.917 383.925 180.03C383.832 180.143 383.759 180.273 383.705 180.42C383.652 180.567 383.615 180.717 383.595 180.87H385.845Z" fill="#0D9488"/>
<circle cx="102.003" cy="131.269" r="51.5886" stroke="#E5E5EF" stroke-width="3.39152"/>
<mask id="path-16-inside-1_3742_101099" fill="white">
<path d="M102 79.281C102 78.0212 103.022 76.995 104.28 77.0482C112.373 77.3902 120.295 79.549 127.455 83.3763C135.287 87.5624 141.966 93.6155 146.899 100.999C151.833 108.383 154.87 116.869 155.74 125.707C156.61 134.545 155.288 143.461 151.889 151.665C148.491 159.869 143.122 167.109 136.257 172.743C129.393 178.376 121.245 182.23 112.535 183.962C103.825 185.695 94.8226 185.253 86.3246 182.675C78.5552 180.318 71.4268 176.243 65.4628 170.762C64.5352 169.91 64.5384 168.462 65.4292 167.571C66.32 166.68 67.7607 166.684 68.6917 167.533C74.1228 172.485 80.5975 176.17 87.6489 178.309C95.429 180.669 103.671 181.074 111.645 179.488C119.619 177.902 127.078 174.374 133.363 169.216C139.648 164.058 144.563 157.43 147.675 149.919C150.786 142.408 151.997 134.245 151.2 126.154C150.403 118.063 147.623 110.294 143.106 103.534C138.589 96.7738 132.475 91.2321 125.305 87.3996C118.806 83.926 111.622 81.9536 104.28 81.6146C103.022 81.5565 102 80.5408 102 79.281Z"/>
</mask>
<path d="M102 79.281C102 78.0212 103.022 76.995 104.28 77.0482C112.373 77.3902 120.295 79.549 127.455 83.3763C135.287 87.5624 141.966 93.6155 146.899 100.999C151.833 108.383 154.87 116.869 155.74 125.707C156.61 134.545 155.288 143.461 151.889 151.665C148.491 159.869 143.122 167.109 136.257 172.743C129.393 178.376 121.245 182.23 112.535 183.962C103.825 185.695 94.8226 185.253 86.3246 182.675C78.5552 180.318 71.4268 176.243 65.4628 170.762C64.5352 169.91 64.5384 168.462 65.4292 167.571C66.32 166.68 67.7607 166.684 68.6917 167.533C74.1228 172.485 80.5975 176.17 87.6489 178.309C95.429 180.669 103.671 181.074 111.645 179.488C119.619 177.902 127.078 174.374 133.363 169.216C139.648 164.058 144.563 157.43 147.675 149.919C150.786 142.408 151.997 134.245 151.2 126.154C150.403 118.063 147.623 110.294 143.106 103.534C138.589 96.7738 132.475 91.2321 125.305 87.3996C118.806 83.926 111.622 81.9536 104.28 81.6146C103.022 81.5565 102 80.5408 102 79.281Z" stroke="#8807F7" stroke-width="6.78304" stroke-linecap="round" stroke-linejoin="round" mask="url(#path-16-inside-1_3742_101099)"/>
<circle cx="102.198" cy="131.406" r="39.9856" stroke="#E5E5EF" stroke-width="2.62872"/>
<mask id="path-18-inside-2_3742_101099" fill="white">
<path d="M102.196 91.111C102.196 90.1345 102.988 89.3391 103.964 89.3803C109.439 89.6117 114.822 90.9166 119.804 93.227C125.322 95.7855 130.215 99.5158 134.144 104.158C138.073 108.8 140.944 114.243 142.555 120.107C144.166 125.972 144.481 132.117 143.475 138.115C142.47 144.113 140.17 149.82 136.735 154.839C133.299 159.858 128.812 164.067 123.584 167.175C118.356 170.283 112.514 172.214 106.464 172.834C101 173.394 95.4864 172.873 90.2346 171.306C89.2989 171.027 88.8096 170.017 89.1279 169.094C89.4462 168.171 90.4516 167.685 91.3884 167.96C96.1535 169.361 101.151 169.824 106.103 169.317C111.642 168.749 116.991 166.981 121.777 164.136C126.563 161.29 130.672 157.436 133.817 152.842C136.962 148.247 139.068 143.022 139.988 137.531C140.908 132.039 140.621 126.413 139.145 121.044C137.67 115.675 135.042 110.692 131.445 106.442C127.848 102.192 123.368 98.7772 118.317 96.4348C113.801 94.3406 108.925 93.1488 103.964 92.9197C102.988 92.8747 102.196 92.0874 102.196 91.111Z"/>
</mask>
<path d="M102.196 91.111C102.196 90.1345 102.988 89.3391 103.964 89.3803C109.439 89.6117 114.822 90.9166 119.804 93.227C125.322 95.7855 130.215 99.5158 134.144 104.158C138.073 108.8 140.944 114.243 142.555 120.107C144.166 125.972 144.481 132.117 143.475 138.115C142.47 144.113 140.17 149.82 136.735 154.839C133.299 159.858 128.812 164.067 123.584 167.175C118.356 170.283 112.514 172.214 106.464 172.834C101 173.394 95.4864 172.873 90.2346 171.306C89.2989 171.027 88.8096 170.017 89.1279 169.094C89.4462 168.171 90.4516 167.685 91.3884 167.96C96.1535 169.361 101.151 169.824 106.103 169.317C111.642 168.749 116.991 166.981 121.777 164.136C126.563 161.29 130.672 157.436 133.817 152.842C136.962 148.247 139.068 143.022 139.988 137.531C140.908 132.039 140.621 126.413 139.145 121.044C137.67 115.675 135.042 110.692 131.445 106.442C127.848 102.192 123.368 98.7772 118.317 96.4348C113.801 94.3406 108.925 93.1488 103.964 92.9197C102.988 92.8747 102.196 92.0874 102.196 91.111Z" stroke="#4A3AFF" stroke-width="5.25743" stroke-linecap="round" stroke-linejoin="round" mask="url(#path-18-inside-2_3742_101099)"/>
<circle cx="102.2" cy="131.406" r="29.9463" stroke="#E5E5EF" stroke-width="2.62872"/>
<mask id="path-20-inside-3_3742_101099" fill="white">
<path d="M102.198 101.692C102.198 100.743 102.967 99.9702 103.914 100.02C107.527 100.211 111.085 101.002 114.435 102.364C118.315 103.942 121.84 106.254 124.809 109.169C127.779 112.084 130.134 115.545 131.741 119.354C133.348 123.162 134.175 127.244 134.175 131.367C134.175 135.489 133.348 139.571 131.741 143.38C130.134 147.188 127.779 150.649 124.809 153.564C121.84 156.479 118.315 158.791 114.435 160.369C111.085 161.731 107.527 162.523 103.914 162.713C102.967 162.763 102.198 161.99 102.198 161.042C102.198 160.094 102.967 159.331 103.914 159.274C107.067 159.088 110.171 158.387 113.097 157.197C116.552 155.792 119.692 153.733 122.336 151.136C124.981 148.54 127.079 145.458 128.51 142.066C129.941 138.674 130.678 135.038 130.678 131.367C130.678 127.695 129.941 124.06 128.51 120.667C127.079 117.275 124.981 114.193 122.336 111.597C119.692 109.001 116.552 106.941 113.097 105.536C110.171 104.347 107.067 103.646 103.914 103.459C102.967 103.403 102.198 102.64 102.198 101.692Z"/>
</mask>
<path d="M102.198 101.692C102.198 100.743 102.967 99.9702 103.914 100.02C107.527 100.211 111.085 101.002 114.435 102.364C118.315 103.942 121.84 106.254 124.809 109.169C127.779 112.084 130.134 115.545 131.741 119.354C133.348 123.162 134.175 127.244 134.175 131.367C134.175 135.489 133.348 139.571 131.741 143.38C130.134 147.188 127.779 150.649 124.809 153.564C121.84 156.479 118.315 158.791 114.435 160.369C111.085 161.731 107.527 162.523 103.914 162.713C102.967 162.763 102.198 161.99 102.198 161.042C102.198 160.094 102.967 159.331 103.914 159.274C107.067 159.088 110.171 158.387 113.097 157.197C116.552 155.792 119.692 153.733 122.336 151.136C124.981 148.54 127.079 145.458 128.51 142.066C129.941 138.674 130.678 135.038 130.678 131.367C130.678 127.695 129.941 124.06 128.51 120.667C127.079 117.275 124.981 114.193 122.336 111.597C119.692 109.001 116.552 106.941 113.097 105.536C110.171 104.347 107.067 103.646 103.914 103.459C102.967 103.403 102.198 102.64 102.198 101.692Z" stroke="#FDD752" stroke-width="8.76239" stroke-linecap="round" stroke-linejoin="round" mask="url(#path-20-inside-3_3742_101099)"/>
<circle cx="102.197" cy="131.406" r="19.6759" stroke="#E5E5EF" stroke-width="2.62872"/>
<mask id="path-22-inside-4_3742_101099" fill="white">
<path d="M102.197 111.737C102.197 110.945 102.84 110.298 103.63 110.351C106.493 110.541 109.292 111.299 111.856 112.584C114.847 114.083 117.434 116.256 119.403 118.926C121.373 121.597 122.67 124.687 123.187 127.944C123.629 130.726 123.492 133.563 122.79 136.282C122.59 137.056 121.768 137.468 121.008 137.222C120.236 136.974 119.822 136.143 120.014 135.355C120.571 133.077 120.67 130.71 120.301 128.386C119.855 125.577 118.736 122.911 117.037 120.608C115.339 118.305 113.108 116.431 110.528 115.138C108.375 114.059 106.03 113.411 103.629 113.226C102.84 113.165 102.197 112.529 102.197 111.737Z"/>
</mask>
<path d="M102.197 111.737C102.197 110.945 102.84 110.298 103.63 110.351C106.493 110.541 109.292 111.299 111.856 112.584C114.847 114.083 117.434 116.256 119.403 118.926C121.373 121.597 122.67 124.687 123.187 127.944C123.629 130.726 123.492 133.563 122.79 136.282C122.59 137.056 121.768 137.468 121.008 137.222C120.236 136.974 119.822 136.143 120.014 135.355C120.571 133.077 120.67 130.71 120.301 128.386C119.855 125.577 118.736 122.911 117.037 120.608C115.339 118.305 113.108 116.431 110.528 115.138C108.375 114.059 106.03 113.411 103.629 113.226C102.84 113.165 102.197 112.529 102.197 111.737Z" stroke="#E8356D" stroke-width="8.76239" stroke-linecap="round" stroke-linejoin="round" mask="url(#path-22-inside-4_3742_101099)"/>
<path d="M52.514 57.684C53.1487 57.684 53.6107 57.5767 53.9 57.362C54.1893 57.1473 54.334 56.844 54.334 56.452C54.334 56.2187 54.2827 56.018 54.18 55.85C54.0867 55.682 53.9467 55.5327 53.76 55.402C53.5827 55.262 53.3633 55.136 53.102 55.024C52.8407 54.9027 52.542 54.786 52.206 54.674C51.87 54.5527 51.5433 54.422 51.226 54.282C50.918 54.1327 50.6427 53.9507 50.4 53.736C50.1667 53.5213 49.9753 53.2647 49.826 52.966C49.686 52.6673 49.616 52.308 49.616 51.888C49.616 51.0107 49.9193 50.3247 50.526 49.83C51.1327 49.326 51.9587 49.074 53.004 49.074C53.6107 49.074 54.1473 49.144 54.614 49.284C55.09 49.4147 55.4633 49.5593 55.734 49.718L55.188 51.146C54.8707 50.9687 54.5207 50.8333 54.138 50.74C53.7647 50.6467 53.3773 50.6 52.976 50.6C52.5 50.6 52.1267 50.698 51.856 50.894C51.5947 51.09 51.464 51.3653 51.464 51.72C51.464 51.9347 51.506 52.1213 51.59 52.28C51.6833 52.4293 51.8093 52.5647 51.968 52.686C52.136 52.8073 52.3273 52.9193 52.542 53.022C52.766 53.1247 53.0087 53.2227 53.27 53.316C53.7273 53.484 54.1333 53.6567 54.488 53.834C54.852 54.002 55.1553 54.2073 55.398 54.45C55.65 54.6833 55.8413 54.9633 55.972 55.29C56.1027 55.6073 56.168 55.9947 56.168 56.452C56.168 57.3293 55.8553 58.0107 55.23 58.496C54.614 58.972 53.7087 59.21 52.514 59.21C52.1127 59.21 51.744 59.182 51.408 59.126C51.0813 59.0793 50.7873 59.0187 50.526 58.944C50.274 58.8693 50.0547 58.7947 49.868 58.72C49.6813 58.636 49.532 58.5613 49.42 58.496L49.938 57.054C50.19 57.194 50.5307 57.334 50.96 57.474C51.3893 57.614 51.9073 57.684 52.514 57.684ZM60.2145 57.81C60.7372 57.81 61.1339 57.782 61.4045 57.726V55.85C61.3112 55.822 61.1759 55.794 60.9985 55.766C60.8212 55.738 60.6252 55.724 60.4105 55.724C60.2239 55.724 60.0325 55.738 59.8365 55.766C59.6499 55.794 59.4772 55.8453 59.3185 55.92C59.1692 55.9947 59.0479 56.102 58.9545 56.242C58.8612 56.3727 58.8145 56.5407 58.8145 56.746C58.8145 57.1473 58.9405 57.4273 59.1925 57.586C59.4445 57.7353 59.7852 57.81 60.2145 57.81ZM60.0745 51.496C60.6345 51.496 61.1059 51.566 61.4885 51.706C61.8712 51.846 62.1745 52.042 62.3985 52.294C62.6319 52.546 62.7952 52.854 62.8885 53.218C62.9912 53.5727 63.0425 53.9647 63.0425 54.394V58.832C62.7812 58.888 62.3845 58.9533 61.8525 59.028C61.3299 59.112 60.7372 59.154 60.0745 59.154C59.6359 59.154 59.2345 59.112 58.8705 59.028C58.5065 58.944 58.1939 58.8087 57.9325 58.622C57.6805 58.4353 57.4799 58.1927 57.3305 57.894C57.1905 57.5953 57.1205 57.2267 57.1205 56.788C57.1205 56.368 57.1999 56.0133 57.3585 55.724C57.5265 55.4347 57.7505 55.2013 58.0305 55.024C58.3105 54.8373 58.6325 54.7067 58.9965 54.632C59.3699 54.548 59.7572 54.506 60.1585 54.506C60.3452 54.506 60.5412 54.52 60.7465 54.548C60.9519 54.5667 61.1712 54.604 61.4045 54.66V54.38C61.4045 54.184 61.3812 53.9973 61.3345 53.82C61.2879 53.6427 61.2039 53.4887 61.0825 53.358C60.9705 53.218 60.8165 53.1107 60.6205 53.036C60.4339 52.9613 60.1959 52.924 59.9065 52.924C59.5145 52.924 59.1552 52.952 58.8285 53.008C58.5019 53.064 58.2359 53.1293 58.0305 53.204L57.8205 51.832C58.0352 51.7573 58.3479 51.6827 58.7585 51.608C59.1692 51.5333 59.6079 51.496 60.0745 51.496ZM66.8153 59C66.3487 58.0387 65.868 56.9373 65.3733 55.696C64.888 54.4453 64.4447 53.106 64.0433 51.678H65.8493C65.952 52.0887 66.0687 52.532 66.1993 53.008C66.3393 53.4747 66.484 53.946 66.6333 54.422C66.792 54.8887 66.9507 55.346 67.1093 55.794C67.2773 56.2327 67.4313 56.6293 67.5713 56.984C67.7113 56.6293 67.8607 56.2327 68.0193 55.794C68.178 55.346 68.332 54.8887 68.4813 54.422C68.64 53.946 68.7893 53.4747 68.9293 53.008C69.0693 52.532 69.1907 52.0887 69.2933 51.678H71.0433C70.642 53.106 70.194 54.4453 69.6993 55.696C69.214 56.9373 68.738 58.0387 68.2713 59H66.8153ZM74.0165 59H72.3225V51.678H74.0165V59ZM74.1985 49.536C74.1985 49.8533 74.0958 50.1053 73.8905 50.292C73.6851 50.4787 73.4425 50.572 73.1625 50.572C72.8731 50.572 72.6258 50.4787 72.4205 50.292C72.2151 50.1053 72.1125 49.8533 72.1125 49.536C72.1125 49.2093 72.2151 48.9527 72.4205 48.766C72.6258 48.5793 72.8731 48.486 73.1625 48.486C73.4425 48.486 73.6851 48.5793 73.8905 48.766C74.0958 48.9527 74.1985 49.2093 74.1985 49.536ZM76.1776 51.916C76.5043 51.8227 76.9289 51.734 77.4516 51.65C77.9743 51.566 78.5529 51.524 79.1876 51.524C79.7849 51.524 80.2843 51.608 80.6856 51.776C81.0869 51.9347 81.4043 52.1633 81.6376 52.462C81.8803 52.7513 82.0483 53.106 82.1416 53.526C82.2443 53.9367 82.2956 54.3893 82.2956 54.884V59H80.6016V55.15C80.6016 54.758 80.5736 54.4267 80.5176 54.156C80.4709 53.876 80.3869 53.652 80.2656 53.484C80.1536 53.3067 79.9949 53.1807 79.7896 53.106C79.5936 53.022 79.3509 52.98 79.0616 52.98C78.8469 52.98 78.6229 52.994 78.3896 53.022C78.1563 53.05 77.9836 53.0733 77.8716 53.092V59H76.1776V51.916ZM85.6971 55.15C85.6971 55.8687 85.8511 56.396 86.1591 56.732C86.4764 57.0587 86.8824 57.222 87.3771 57.222C87.6477 57.222 87.8997 57.1847 88.1331 57.11C88.3757 57.0353 88.5717 56.9467 88.7211 56.844V53.05C88.5997 53.022 88.4504 52.9987 88.2731 52.98C88.0957 52.952 87.8717 52.938 87.6011 52.938C86.9851 52.938 86.5137 53.1433 86.1871 53.554C85.8604 53.9553 85.6971 54.4873 85.6971 55.15ZM90.4151 58.258C90.4151 59.4247 90.1164 60.2787 89.5191 60.82C88.9311 61.3613 88.0257 61.632 86.8031 61.632C86.3551 61.632 85.9164 61.5947 85.4871 61.52C85.0671 61.4453 84.6844 61.3473 84.3391 61.226L84.6471 59.784C84.9364 59.9053 85.2631 60.0033 85.6271 60.078C86.0004 60.1527 86.4017 60.19 86.8311 60.19C87.5124 60.19 87.9977 60.05 88.2871 59.77C88.5764 59.49 88.7211 59.0747 88.7211 58.524V58.244C88.5531 58.328 88.3291 58.412 88.0491 58.496C87.7784 58.58 87.4657 58.622 87.1111 58.622C86.6444 58.622 86.2151 58.5473 85.8231 58.398C85.4404 58.2487 85.1091 58.0293 84.8291 57.74C84.5584 57.4507 84.3437 57.0913 84.1851 56.662C84.0357 56.2233 83.9611 55.7193 83.9611 55.15C83.9611 54.618 84.0404 54.128 84.1991 53.68C84.3671 53.232 84.6051 52.8493 84.9131 52.532C85.2304 52.2147 85.6131 51.9673 86.0611 51.79C86.5091 51.6127 87.0177 51.524 87.5871 51.524C88.1377 51.524 88.6604 51.566 89.1551 51.65C89.6497 51.734 90.0697 51.8227 90.4151 51.916V58.258ZM98.2738 57.684C98.9084 57.684 99.3704 57.5767 99.6598 57.362C99.9491 57.1473 100.094 56.844 100.094 56.452C100.094 56.2187 100.042 56.018 99.9398 55.85C99.8464 55.682 99.7064 55.5327 99.5198 55.402C99.3424 55.262 99.1231 55.136 98.8618 55.024C98.6004 54.9027 98.3018 54.786 97.9658 54.674C97.6298 54.5527 97.3031 54.422 96.9858 54.282C96.6778 54.1327 96.4024 53.9507 96.1598 53.736C95.9264 53.5213 95.7351 53.2647 95.5858 52.966C95.4458 52.6673 95.3758 52.308 95.3758 51.888C95.3758 51.0107 95.6791 50.3247 96.2858 49.83C96.8924 49.326 97.7184 49.074 98.7638 49.074C99.3704 49.074 99.9071 49.144 100.374 49.284C100.85 49.4147 101.223 49.5593 101.494 49.718L100.948 51.146C100.63 50.9687 100.28 50.8333 99.8978 50.74C99.5244 50.6467 99.1371 50.6 98.7358 50.6C98.2598 50.6 97.8864 50.698 97.6158 50.894C97.3544 51.09 97.2238 51.3653 97.2238 51.72C97.2238 51.9347 97.2658 52.1213 97.3498 52.28C97.4431 52.4293 97.5691 52.5647 97.7278 52.686C97.8958 52.8073 98.0871 52.9193 98.3018 53.022C98.5258 53.1247 98.7684 53.2227 99.0298 53.316C99.4871 53.484 99.8931 53.6567 100.248 53.834C100.612 54.002 100.915 54.2073 101.158 54.45C101.41 54.6833 101.601 54.9633 101.732 55.29C101.862 55.6073 101.928 55.9947 101.928 56.452C101.928 57.3293 101.615 58.0107 100.99 58.496C100.374 58.972 99.4684 59.21 98.2738 59.21C97.8724 59.21 97.5038 59.182 97.1678 59.126C96.8411 59.0793 96.5471 59.0187 96.2858 58.944C96.0338 58.8693 95.8144 58.7947 95.6278 58.72C95.4411 58.636 95.2918 58.5613 95.1798 58.496L95.6978 57.054C95.9498 57.194 96.2904 57.334 96.7198 57.474C97.1491 57.614 97.6671 57.684 98.2738 57.684ZM103.314 49.746L105.008 49.466V51.678H107.612V53.092H105.008V56.074C105.008 56.662 105.102 57.082 105.288 57.334C105.475 57.586 105.792 57.712 106.24 57.712C106.548 57.712 106.819 57.6793 107.052 57.614C107.295 57.5487 107.486 57.488 107.626 57.432L107.906 58.776C107.71 58.86 107.454 58.944 107.136 59.028C106.819 59.1213 106.446 59.168 106.016 59.168C105.494 59.168 105.055 59.098 104.7 58.958C104.355 58.818 104.08 58.6173 103.874 58.356C103.669 58.0853 103.524 57.7633 103.44 57.39C103.356 57.0073 103.314 56.5733 103.314 56.088V49.746ZM111.826 57.81C112.349 57.81 112.745 57.782 113.016 57.726V55.85C112.923 55.822 112.787 55.794 112.61 55.766C112.433 55.738 112.237 55.724 112.022 55.724C111.835 55.724 111.644 55.738 111.448 55.766C111.261 55.794 111.089 55.8453 110.93 55.92C110.781 55.9947 110.659 56.102 110.566 56.242C110.473 56.3727 110.426 56.5407 110.426 56.746C110.426 57.1473 110.552 57.4273 110.804 57.586C111.056 57.7353 111.397 57.81 111.826 57.81ZM111.686 51.496C112.246 51.496 112.717 51.566 113.1 51.706C113.483 51.846 113.786 52.042 114.01 52.294C114.243 52.546 114.407 52.854 114.5 53.218C114.603 53.5727 114.654 53.9647 114.654 54.394V58.832C114.393 58.888 113.996 58.9533 113.464 59.028C112.941 59.112 112.349 59.154 111.686 59.154C111.247 59.154 110.846 59.112 110.482 59.028C110.118 58.944 109.805 58.8087 109.544 58.622C109.292 58.4353 109.091 58.1927 108.942 57.894C108.802 57.5953 108.732 57.2267 108.732 56.788C108.732 56.368 108.811 56.0133 108.97 55.724C109.138 55.4347 109.362 55.2013 109.642 55.024C109.922 54.8373 110.244 54.7067 110.608 54.632C110.981 54.548 111.369 54.506 111.77 54.506C111.957 54.506 112.153 54.52 112.358 54.548C112.563 54.5667 112.783 54.604 113.016 54.66V54.38C113.016 54.184 112.993 53.9973 112.946 53.82C112.899 53.6427 112.815 53.4887 112.694 53.358C112.582 53.218 112.428 53.1107 112.232 53.036C112.045 52.9613 111.807 52.924 111.518 52.924C111.126 52.924 110.767 52.952 110.44 53.008C110.113 53.064 109.847 53.1293 109.642 53.204L109.432 51.832C109.647 51.7573 109.959 51.6827 110.37 51.608C110.781 51.5333 111.219 51.496 111.686 51.496ZM116.644 49.746L118.338 49.466V51.678H120.942V53.092H118.338V56.074C118.338 56.662 118.432 57.082 118.618 57.334C118.805 57.586 119.122 57.712 119.57 57.712C119.878 57.712 120.149 57.6793 120.382 57.614C120.625 57.5487 120.816 57.488 120.956 57.432L121.236 58.776C121.04 58.86 120.784 58.944 120.466 59.028C120.149 59.1213 119.776 59.168 119.346 59.168C118.824 59.168 118.385 59.098 118.03 58.958C117.685 58.818 117.41 58.6173 117.204 58.356C116.999 58.0853 116.854 57.7633 116.77 57.39C116.686 57.0073 116.644 56.5733 116.644 56.088V49.746ZM124.288 59H122.594V51.678H124.288V59ZM124.47 49.536C124.47 49.8533 124.367 50.1053 124.162 50.292C123.957 50.4787 123.714 50.572 123.434 50.572C123.145 50.572 122.897 50.4787 122.692 50.292C122.487 50.1053 122.384 49.8533 122.384 49.536C122.384 49.2093 122.487 48.9527 122.692 48.766C122.897 48.5793 123.145 48.486 123.434 48.486C123.714 48.486 123.957 48.5793 124.162 48.766C124.367 48.9527 124.47 49.2093 124.47 49.536ZM128.283 57.782C128.731 57.782 129.058 57.7307 129.263 57.628C129.468 57.516 129.571 57.3293 129.571 57.068C129.571 56.8253 129.459 56.6247 129.235 56.466C129.02 56.3073 128.661 56.1347 128.157 55.948C127.849 55.836 127.564 55.7193 127.303 55.598C127.051 55.4673 126.832 55.318 126.645 55.15C126.458 54.982 126.309 54.7813 126.197 54.548C126.094 54.3053 126.043 54.0113 126.043 53.666C126.043 52.994 126.29 52.4667 126.785 52.084C127.28 51.692 127.952 51.496 128.801 51.496C129.23 51.496 129.641 51.538 130.033 51.622C130.425 51.6967 130.719 51.7713 130.915 51.846L130.607 53.218C130.42 53.134 130.182 53.0593 129.893 52.994C129.604 52.9193 129.268 52.882 128.885 52.882C128.54 52.882 128.26 52.9427 128.045 53.064C127.83 53.176 127.723 53.3533 127.723 53.596C127.723 53.7173 127.742 53.8247 127.779 53.918C127.826 54.0113 127.9 54.1 128.003 54.184C128.106 54.2587 128.241 54.338 128.409 54.422C128.577 54.4967 128.782 54.576 129.025 54.66C129.426 54.8093 129.767 54.9587 130.047 55.108C130.327 55.248 130.556 55.4113 130.733 55.598C130.92 55.7753 131.055 55.9807 131.139 56.214C131.223 56.4473 131.265 56.7273 131.265 57.054C131.265 57.754 131.004 58.286 130.481 58.65C129.968 59.0047 129.23 59.182 128.269 59.182C127.625 59.182 127.107 59.126 126.715 59.014C126.323 58.9113 126.048 58.8273 125.889 58.762L126.183 57.348C126.435 57.4507 126.734 57.5487 127.079 57.642C127.434 57.7353 127.835 57.782 128.283 57.782ZM132.764 49.746L134.458 49.466V51.678H137.062V53.092H134.458V56.074C134.458 56.662 134.551 57.082 134.738 57.334C134.924 57.586 135.242 57.712 135.69 57.712C135.998 57.712 136.268 57.6793 136.502 57.614C136.744 57.5487 136.936 57.488 137.076 57.432L137.356 58.776C137.16 58.86 136.903 58.944 136.586 59.028C136.268 59.1213 135.895 59.168 135.466 59.168C134.943 59.168 134.504 59.098 134.15 58.958C133.804 58.818 133.529 58.6173 133.324 58.356C133.118 58.0853 132.974 57.7633 132.89 57.39C132.806 57.0073 132.764 56.5733 132.764 56.088V49.746ZM140.407 59H138.713V51.678H140.407V59ZM140.589 49.536C140.589 49.8533 140.486 50.1053 140.281 50.292C140.076 50.4787 139.833 50.572 139.553 50.572C139.264 50.572 139.016 50.4787 138.811 50.292C138.606 50.1053 138.503 49.8533 138.503 49.536C138.503 49.2093 138.606 48.9527 138.811 48.766C139.016 48.5793 139.264 48.486 139.553 48.486C139.833 48.486 140.076 48.5793 140.281 48.766C140.486 48.9527 140.589 49.2093 140.589 49.536ZM142.162 55.346C142.162 54.8047 142.246 54.3007 142.414 53.834C142.582 53.358 142.82 52.9473 143.128 52.602C143.446 52.2567 143.828 51.986 144.276 51.79C144.724 51.594 145.228 51.496 145.788 51.496C146.479 51.496 147.132 51.622 147.748 51.874L147.384 53.26C147.188 53.176 146.964 53.106 146.712 53.05C146.47 52.994 146.208 52.966 145.928 52.966C145.266 52.966 144.762 53.176 144.416 53.596C144.071 54.0067 143.898 54.59 143.898 55.346C143.898 56.074 144.062 56.6527 144.388 57.082C144.715 57.502 145.266 57.712 146.04 57.712C146.33 57.712 146.614 57.684 146.894 57.628C147.174 57.572 147.417 57.502 147.622 57.418L147.86 58.818C147.674 58.9113 147.389 58.9953 147.006 59.07C146.633 59.1447 146.246 59.182 145.844 59.182C145.219 59.182 144.673 59.0887 144.206 58.902C143.749 58.706 143.366 58.44 143.058 58.104C142.76 57.7587 142.536 57.3527 142.386 56.886C142.237 56.41 142.162 55.8967 142.162 55.346ZM151.006 57.782C151.454 57.782 151.78 57.7307 151.986 57.628C152.191 57.516 152.294 57.3293 152.294 57.068C152.294 56.8253 152.182 56.6247 151.958 56.466C151.743 56.3073 151.384 56.1347 150.88 55.948C150.572 55.836 150.287 55.7193 150.026 55.598C149.774 55.4673 149.554 55.318 149.368 55.15C149.181 54.982 149.032 54.7813 148.92 54.548C148.817 54.3053 148.766 54.0113 148.766 53.666C148.766 52.994 149.013 52.4667 149.508 52.084C150.002 51.692 150.674 51.496 151.524 51.496C151.953 51.496 152.364 51.538 152.756 51.622C153.148 51.6967 153.442 51.7713 153.638 51.846L153.33 53.218C153.143 53.134 152.905 53.0593 152.616 52.994C152.326 52.9193 151.99 52.882 151.608 52.882C151.262 52.882 150.982 52.9427 150.768 53.064C150.553 53.176 150.446 53.3533 150.446 53.596C150.446 53.7173 150.464 53.8247 150.502 53.918C150.548 54.0113 150.623 54.1 150.726 54.184C150.828 54.2587 150.964 54.338 151.132 54.422C151.3 54.4967 151.505 54.576 151.748 54.66C152.149 54.8093 152.49 54.9587 152.77 55.108C153.05 55.248 153.278 55.4113 153.456 55.598C153.642 55.7753 153.778 55.9807 153.862 56.214C153.946 56.4473 153.988 56.7273 153.988 57.054C153.988 57.754 153.726 58.286 153.204 58.65C152.69 59.0047 151.953 59.182 150.992 59.182C150.348 59.182 149.83 59.126 149.438 59.014C149.046 58.9113 148.77 58.8273 148.612 58.762L148.906 57.348C149.158 57.4507 149.456 57.5487 149.802 57.642C150.156 57.7353 150.558 57.782 151.006 57.782Z" fill="#3D0072"/>
</svg>
