<svg width="151" height="151" viewBox="0 0 151 151" fill="none" xmlns="http://www.w3.org/2000/svg">
<circle cx="75.5014" cy="75.8767" r="72.1286" stroke="#E5E5EF" stroke-width="4.74185"/>
<mask id="path-2-inside-1_1537_39533" fill="white">
<path d="M75.5 3.1892C75.5 1.42785 76.9286 -0.00703114 78.6884 0.067344C90.0027 0.545532 101.079 3.56383 111.09 8.91494C122.04 14.7678 131.378 23.2309 138.276 33.5544C145.174 43.878 149.419 55.7434 150.636 68.0997C151.853 80.456 150.004 92.9217 145.253 104.393C140.501 115.864 132.994 125.986 123.397 133.862C113.799 141.739 102.407 147.127 90.2293 149.549C78.0519 151.972 65.4649 151.353 53.5835 147.749C42.7207 144.454 32.7541 138.756 24.4156 131.093C23.1187 129.902 23.1231 127.877 24.3686 126.631C25.614 125.386 27.6284 125.392 28.93 126.579C36.5235 133.502 45.5761 138.655 55.4351 141.645C66.3127 144.945 77.8363 145.511 88.985 143.293C100.134 141.076 110.563 136.143 119.35 128.932C128.137 121.72 135.01 112.454 139.36 101.952C143.71 91.4498 145.403 80.0373 144.289 68.7249C143.175 57.4125 139.288 46.5495 132.973 37.0981C126.657 27.6467 118.109 19.8986 108.084 14.5402C98.9976 9.68358 88.953 6.92587 78.6881 6.45196C76.9286 6.37072 75.5 4.95055 75.5 3.1892Z"/>
</mask>
<path d="M75.5 3.1892C75.5 1.42785 76.9286 -0.00703114 78.6884 0.067344C90.0027 0.545532 101.079 3.56383 111.09 8.91494C122.04 14.7678 131.378 23.2309 138.276 33.5544C145.174 43.878 149.419 55.7434 150.636 68.0997C151.853 80.456 150.004 92.9217 145.253 104.393C140.501 115.864 132.994 125.986 123.397 133.862C113.799 141.739 102.407 147.127 90.2293 149.549C78.0519 151.972 65.4649 151.353 53.5835 147.749C42.7207 144.454 32.7541 138.756 24.4156 131.093C23.1187 129.902 23.1231 127.877 24.3686 126.631C25.614 125.386 27.6284 125.392 28.93 126.579C36.5235 133.502 45.5761 138.655 55.4351 141.645C66.3127 144.945 77.8363 145.511 88.985 143.293C100.134 141.076 110.563 136.143 119.35 128.932C128.137 121.72 135.01 112.454 139.36 101.952C143.71 91.4498 145.403 80.0373 144.289 68.7249C143.175 57.4125 139.288 46.5495 132.973 37.0981C126.657 27.6467 118.109 19.8986 108.084 14.5402C98.9976 9.68358 88.953 6.92587 78.6881 6.45196C76.9286 6.37072 75.5 4.95055 75.5 3.1892Z" stroke="#8807F7" stroke-width="9.4837" stroke-linecap="round" stroke-linejoin="round" mask="url(#path-2-inside-1_1537_39533)"/>
<circle cx="75.7766" cy="76.0682" r="55.9058" stroke="#E5E5EF" stroke-width="3.67534"/>
<mask id="path-4-inside-2_1537_39533" fill="white">
<path d="M75.7748 19.7292C75.7748 18.364 76.882 17.2519 78.246 17.3095C85.9015 17.6331 93.4274 19.4575 100.393 22.6877C108.107 26.2649 114.949 31.4804 120.443 37.9709C125.936 44.4615 129.949 52.0713 132.202 60.2706C134.455 68.4699 134.894 77.0618 133.489 85.448C132.084 93.8343 128.867 101.814 124.064 108.83C119.261 115.847 112.987 121.733 105.678 126.078C98.3684 130.423 90.2 133.123 81.7411 133.99C74.1027 134.773 66.3932 134.044 59.0504 131.854C57.7422 131.464 57.058 130.052 57.5031 128.761C57.9481 127.471 59.3539 126.791 60.6636 127.176C67.3259 129.135 74.3134 129.782 81.237 129.072C88.9813 128.278 96.4596 125.807 103.151 121.829C109.843 117.851 115.588 112.462 119.985 106.038C124.382 99.6139 127.326 92.3087 128.613 84.631C129.9 76.9532 129.498 69.0872 127.435 61.5806C125.372 54.074 121.698 47.1071 116.669 41.1648C111.64 35.2226 105.376 30.4478 98.3134 27.1727C91.9994 24.2447 85.1827 22.5784 78.2459 22.2581C76.8821 22.1952 75.7748 21.0944 75.7748 19.7292Z"/>
</mask>
<path d="M75.7748 19.7292C75.7748 18.364 76.882 17.2519 78.246 17.3095C85.9015 17.6331 93.4274 19.4575 100.393 22.6877C108.107 26.2649 114.949 31.4804 120.443 37.9709C125.936 44.4615 129.949 52.0713 132.202 60.2706C134.455 68.4699 134.894 77.0618 133.489 85.448C132.084 93.8343 128.867 101.814 124.064 108.83C119.261 115.847 112.987 121.733 105.678 126.078C98.3684 130.423 90.2 133.123 81.7411 133.99C74.1027 134.773 66.3932 134.044 59.0504 131.854C57.7422 131.464 57.058 130.052 57.5031 128.761C57.9481 127.471 59.3539 126.791 60.6636 127.176C67.3259 129.135 74.3134 129.782 81.237 129.072C88.9813 128.278 96.4596 125.807 103.151 121.829C109.843 117.851 115.588 112.462 119.985 106.038C124.382 99.6139 127.326 92.3087 128.613 84.631C129.9 76.9532 129.498 69.0872 127.435 61.5806C125.372 54.074 121.698 47.1071 116.669 41.1648C111.64 35.2226 105.376 30.4478 98.3134 27.1727C91.9994 24.2447 85.1827 22.5784 78.2459 22.2581C76.8821 22.1952 75.7748 21.0944 75.7748 19.7292Z" stroke="#4A3AFF" stroke-width="7.35067" stroke-linecap="round" stroke-linejoin="round" mask="url(#path-4-inside-2_1537_39533)"/>
<circle cx="75.7773" cy="76.0679" r="41.8693" stroke="#E5E5EF" stroke-width="3.67534"/>
<mask id="path-6-inside-3_1537_39533" fill="white">
<path d="M75.7773 34.5225C75.7773 33.1969 76.8527 32.1157 78.1764 32.1855C83.2278 32.452 88.2025 33.5585 92.8867 35.4633C98.3111 37.669 103.24 40.9019 107.391 44.9775C111.543 49.0531 114.836 53.8916 117.083 59.2166C119.33 64.5416 120.486 70.2489 120.486 76.0127C120.486 81.7765 119.33 87.4838 117.083 92.8088C114.836 98.1339 111.543 102.972 107.391 107.048C103.24 111.124 98.3111 114.356 92.8867 116.562C88.2024 118.467 83.2277 119.573 78.1764 119.84C76.8527 119.91 75.7773 118.829 75.7773 117.503C75.7773 116.177 76.8529 115.11 78.1761 115.032C82.5849 114.771 86.9245 113.791 91.0155 112.127C95.8466 110.163 100.236 107.283 103.934 103.654C107.631 100.024 110.564 95.7145 112.565 90.9719C114.567 86.2292 115.597 81.1461 115.597 76.0127C115.597 70.8793 114.567 65.7962 112.565 61.0536C110.564 56.3109 107.631 52.0017 103.934 48.3718C100.236 44.742 95.8466 41.8626 91.0155 39.8982C86.9246 38.2347 82.5849 37.2548 78.1761 36.9936C76.8529 36.9152 75.7773 35.848 75.7773 34.5225Z"/>
</mask>
<path d="M75.7773 34.5225C75.7773 33.1969 76.8527 32.1157 78.1764 32.1855C83.2278 32.452 88.2025 33.5585 92.8867 35.4633C98.3111 37.669 103.24 40.9019 107.391 44.9775C111.543 49.0531 114.836 53.8916 117.083 59.2166C119.33 64.5416 120.486 70.2489 120.486 76.0127C120.486 81.7765 119.33 87.4838 117.083 92.8088C114.836 98.1339 111.543 102.972 107.391 107.048C103.24 111.124 98.3111 114.356 92.8867 116.562C88.2024 118.467 83.2277 119.573 78.1764 119.84C76.8527 119.91 75.7773 118.829 75.7773 117.503C75.7773 116.177 76.8529 115.11 78.1761 115.032C82.5849 114.771 86.9245 113.791 91.0155 112.127C95.8466 110.163 100.236 107.283 103.934 103.654C107.631 100.024 110.564 95.7145 112.565 90.9719C114.567 86.2292 115.597 81.1461 115.597 76.0127C115.597 70.8793 114.567 65.7962 112.565 61.0536C110.564 56.3109 107.631 52.0017 103.934 48.3718C100.236 44.742 95.8466 41.8626 91.0155 39.8982C86.9246 38.2347 82.5849 37.2548 78.1761 36.9936C76.8529 36.9152 75.7773 35.848 75.7773 34.5225Z" stroke="#FDD752" stroke-width="12.2511" stroke-linecap="round" stroke-linejoin="round" mask="url(#path-6-inside-3_1537_39533)"/>
<circle cx="75.7753" cy="76.0678" r="27.5099" stroke="#E5E5EF" stroke-width="3.67534"/>
<mask id="path-8-inside-4_1537_39533" fill="white">
<path d="M75.7763 48.5675C75.7763 47.4603 76.6749 46.5559 77.7796 46.6292C81.7823 46.8948 85.6961 47.9543 89.2816 49.7513C93.4633 51.847 97.0794 54.8861 99.8332 58.6193C102.587 62.3525 104.4 66.6734 105.124 71.2275C105.742 75.1174 105.55 79.0827 104.568 82.8856C104.289 83.9671 103.14 84.5426 102.077 84.1999C100.997 83.8518 100.418 82.6903 100.687 81.5882C101.466 78.4038 101.604 75.0941 101.088 71.8454C100.464 67.9175 98.9004 64.1907 96.5253 60.9709C94.1501 57.751 91.0313 55.1298 87.4245 53.3222C84.4142 51.8136 81.1356 50.9076 77.7791 50.6492C76.6752 50.5642 75.7763 49.6747 75.7763 48.5675Z"/>
</mask>
<path d="M75.7763 48.5675C75.7763 47.4603 76.6749 46.5559 77.7796 46.6292C81.7823 46.8948 85.6961 47.9543 89.2816 49.7513C93.4633 51.847 97.0794 54.8861 99.8332 58.6193C102.587 62.3525 104.4 66.6734 105.124 71.2275C105.742 75.1174 105.55 79.0827 104.568 82.8856C104.289 83.9671 103.14 84.5426 102.077 84.1999C100.997 83.8518 100.418 82.6903 100.687 81.5882C101.466 78.4038 101.604 75.0941 101.088 71.8454C100.464 67.9175 98.9004 64.1907 96.5253 60.9709C94.1501 57.751 91.0313 55.1298 87.4245 53.3222C84.4142 51.8136 81.1356 50.9076 77.7791 50.6492C76.6752 50.5642 75.7763 49.6747 75.7763 48.5675Z" stroke="#E8356D" stroke-width="12.2511" stroke-linecap="round" stroke-linejoin="round" mask="url(#path-8-inside-4_1537_39533)"/>
</svg>
