<svg width="52" height="718" viewBox="0 0 52 718" fill="none" xmlns="http://www.w3.org/2000/svg">
<rect width="691" height="8" rx="4" transform="matrix(0 1 1 0 22 0)" fill="#F8F0FF"/>
<rect width="327" height="8" rx="4" transform="matrix(0 1 1 0 22 0)" fill="#8807F7"/>
<g opacity="0.5">
<g filter="url(#filter0_d_1571_16622)">
<circle r="15" transform="matrix(-1 0 0 1 26 689)" fill="white"/>
</g>
<g clip-path="url(#clip0_1571_16622)">
<path d="M24.4831 684.777C24.2184 684.904 23.9878 685.093 23.8104 685.327C23.6768 685.499 23.5742 685.693 23.5068 685.899L23.2033 686.828C23.1826 686.891 23.1451 686.947 23.095 686.991C23.0448 687.034 22.9838 687.062 22.9185 687.074C22.8435 687.087 22.7662 687.076 22.6975 687.044C22.6288 687.011 22.5721 686.957 22.5354 686.89L22.5378 686.887C22.527 686.867 22.5178 686.847 22.5105 686.826L22.2082 685.898C22.1142 685.615 21.9556 685.358 21.745 685.148C21.5344 684.938 21.2776 684.779 20.9951 684.686L20.0662 684.384C19.9947 684.359 19.9329 684.312 19.8892 684.25C19.8454 684.188 19.822 684.114 19.822 684.038C19.822 683.962 19.8454 683.888 19.8892 683.826C19.9329 683.764 19.9947 683.717 20.0662 683.692L20.0844 683.687L21.0139 683.385C21.2964 683.291 21.5531 683.133 21.7637 682.923C21.9742 682.712 22.1329 682.456 22.227 682.173L22.5287 681.244C22.5539 681.173 22.6007 681.111 22.6627 681.067C22.7247 681.023 22.7988 680.999 22.8748 680.999C22.9508 680.999 23.0249 681.023 23.0869 681.067C23.1489 681.111 23.1957 681.173 23.2209 681.244L23.5232 682.173L23.5311 682.196C23.5962 682.387 23.6909 682.565 23.8116 682.726L23.8147 682.725C24.0443 683.028 24.3592 683.257 24.7193 683.381L25.6482 683.685C25.7155 683.707 25.7749 683.748 25.8192 683.803C25.8634 683.858 25.8907 683.925 25.8975 683.996C25.9043 684.066 25.8905 684.137 25.8576 684.2C25.8248 684.262 25.7744 684.314 25.7126 684.349C25.6919 684.361 25.6701 684.371 25.6476 684.379L24.7181 684.681C24.6373 684.708 24.559 684.74 24.4831 684.777ZM21.621 687.582C21.6087 687.556 21.5912 687.532 21.5696 687.513C21.548 687.494 21.5228 687.479 21.4954 687.469L20.9374 687.288C20.7701 687.23 20.6183 687.135 20.4941 687.008C20.3698 686.882 20.2763 686.729 20.221 686.561L20.0394 686.004C20.0242 685.961 19.996 685.924 19.9589 685.898C19.9217 685.871 19.8773 685.857 19.8318 685.857C19.7863 685.857 19.7419 685.871 19.7047 685.898C19.6676 685.924 19.6394 685.961 19.6242 686.004L19.4432 686.561C19.3868 686.731 19.2916 686.885 19.1652 687.011C19.0389 687.137 18.8848 687.232 18.7153 687.288L18.1579 687.469L18.1464 687.472C18.1032 687.487 18.0658 687.515 18.0393 687.552C18.0129 687.589 17.9986 687.634 17.9986 687.68C17.9986 687.725 18.0129 687.77 18.0393 687.807C18.0658 687.844 18.1032 687.872 18.1464 687.887L18.7043 688.069C18.9378 688.146 19.1402 688.297 19.2817 688.498V688.501C19.3455 688.592 19.3959 688.692 19.4311 688.798L19.6132 689.355C19.6285 689.398 19.6566 689.435 19.6938 689.461C19.731 689.488 19.7754 689.502 19.8209 689.502C19.8664 689.502 19.9108 689.488 19.9479 689.461C19.9851 689.435 20.0133 689.398 20.0285 689.355L20.2107 688.798C20.2668 688.628 20.3619 688.474 20.4884 688.347C20.6149 688.221 20.7693 688.125 20.9392 688.069L21.4972 687.887C21.5265 687.877 21.5533 687.86 21.5758 687.839C21.5983 687.817 21.616 687.791 21.6277 687.763C21.6394 687.734 21.6449 687.703 21.6437 687.672C21.6426 687.641 21.6348 687.61 21.621 687.582V687.582ZM26.4994 696.785C22.5943 696.785 19.4068 693.713 19.2222 689.853C19.3208 689.956 19.4444 690.032 19.5809 690.073C19.7175 690.114 19.8624 690.12 20.0015 690.088C20.1406 690.057 20.2693 689.99 20.375 689.894C20.4807 689.799 20.5598 689.677 20.6047 689.542L20.7868 688.987C20.8134 688.908 20.8577 688.836 20.9165 688.776C20.9752 688.717 21.0467 688.672 21.1256 688.644L21.6982 688.459C21.8594 688.401 21.999 688.296 22.0977 688.156C22.1965 688.016 22.2495 687.849 22.2494 687.678C22.2482 687.596 22.2347 687.514 22.2094 687.435C22.3299 687.541 22.475 687.616 22.6317 687.653C22.7883 687.689 22.9515 687.686 23.1068 687.644C23.262 687.602 23.4043 687.522 23.521 687.411C23.6376 687.301 23.725 687.163 23.7752 687.01L24.0788 686.083C24.1417 685.89 24.2497 685.715 24.3939 685.572C24.5365 685.428 24.7105 685.32 24.902 685.255L25.8462 684.952C25.9886 684.902 26.1175 684.82 26.2227 684.712C26.3279 684.604 26.4065 684.473 26.4522 684.329C26.4979 684.185 26.5095 684.033 26.4861 683.884C26.4627 683.735 26.4049 683.593 26.3173 683.47C26.1971 683.302 26.0271 683.176 25.8316 683.11L24.913 682.811C24.7308 682.748 24.5651 682.646 24.4273 682.513C25.1 682.314 25.7979 682.213 26.4994 682.214C30.523 682.214 33.7852 685.476 33.7852 689.5C33.7852 693.523 30.523 696.785 26.4994 696.785ZM24.3744 688.893C24.616 688.893 24.8476 688.797 25.0184 688.626C25.1892 688.455 25.2852 688.223 25.2852 687.982C25.2852 687.74 25.1892 687.509 25.0184 687.338C24.8476 687.167 24.616 687.071 24.3744 687.071C24.1329 687.071 23.9013 687.167 23.7305 687.338C23.5597 687.509 23.4637 687.74 23.4637 687.982C23.4637 688.223 23.5597 688.455 23.7305 688.626C23.9013 688.797 24.1329 688.893 24.3744 688.893ZM27.7137 687.982C27.7137 688.223 27.8097 688.455 27.9805 688.626C28.1513 688.797 28.3829 688.893 28.6244 688.893C28.866 688.893 29.0976 688.797 29.2684 688.626C29.4392 688.455 29.5352 688.223 29.5352 687.982C29.5352 687.74 29.4392 687.509 29.2684 687.338C29.0976 687.167 28.866 687.071 28.6244 687.071C28.3829 687.071 28.1513 687.167 27.9805 687.338C27.8097 687.509 27.7137 687.74 27.7137 687.982ZM29.9432 691.4C29.8436 691.332 29.7213 691.307 29.603 691.329C29.4847 691.351 29.3799 691.419 29.3117 691.519L29.3063 691.526L29.2795 691.562C29.254 691.594 29.2128 691.644 29.1563 691.706C29.0428 691.829 28.8697 691.998 28.6354 692.166C28.1691 692.501 27.4636 692.839 26.4994 692.839C25.5353 692.839 24.8298 692.501 24.3635 692.166C24.1292 691.998 23.9555 691.829 23.8426 691.706C23.7896 691.648 23.7393 691.588 23.692 691.526L23.6878 691.52C23.6197 691.42 23.5148 691.351 23.3961 691.329C23.2774 691.306 23.1547 691.332 23.0548 691.4C22.955 691.468 22.8863 691.573 22.8638 691.691C22.8413 691.81 22.8669 691.933 22.9349 692.033L22.9361 692.033V692.035L22.9379 692.036L22.9422 692.042L22.9477 692.05L22.9555 692.062C23.023 692.152 23.0949 692.239 23.1711 692.322C23.3709 692.538 23.5922 692.733 23.8317 692.905C24.4206 693.329 25.3082 693.75 26.4994 693.75C27.6907 693.75 28.5783 693.328 29.1672 692.905C29.4067 692.733 29.628 692.538 29.8278 692.321C29.9088 692.233 29.985 692.14 30.0561 692.043L30.0609 692.037L30.0622 692.035L30.0628 692.033L30.0634 692.033C30.1313 691.933 30.1568 691.81 30.1343 691.692C30.1117 691.573 30.043 691.468 29.9432 691.4Z" fill="#8807F7"/>
</g>
</g>
<g filter="url(#filter1_d_1571_16622)">
<circle r="15" transform="matrix(-1 0 0 1 26 155)" fill="white"/>
</g>
<g clip-path="url(#clip1_1571_16622)">
<path d="M26 163C23.7457 163 21.5837 162.104 19.9896 160.51C18.3955 158.916 17.5 156.754 17.5 154.5C17.5 152.246 18.3955 150.084 19.9896 148.49C21.5837 146.896 23.7457 146 26 146C28.2543 146 30.4163 146.896 32.0104 148.49C33.6045 150.084 34.5 152.246 34.5 154.5C34.5 156.754 33.6045 158.916 32.0104 160.51C30.4163 162.104 28.2543 163 26 163ZM27.0625 152.906C27.0625 153.786 27.5385 154.5 28.125 154.5C28.7115 154.5 29.1875 153.786 29.1875 152.906C29.1875 152.027 28.7115 151.312 28.125 151.312C27.5385 151.312 27.0625 152.027 27.0625 152.906ZM29.9472 159.21C30.0692 159.14 30.1582 159.024 30.1947 158.887C30.2312 158.751 30.2121 158.606 30.1416 158.484C29.7221 157.757 29.1184 157.153 28.3913 156.734C27.6643 156.314 26.8395 156.093 26 156.094C25.1606 156.094 24.3359 156.314 23.6088 156.734C22.8818 157.154 22.2781 157.757 21.8584 158.484C21.789 158.606 21.7708 158.751 21.8075 158.886C21.8443 159.022 21.9331 159.137 22.0546 159.207C22.1761 159.277 22.3204 159.296 22.456 159.261C22.5916 159.225 22.7076 159.137 22.7785 159.016C23.1048 158.45 23.5744 157.98 24.1399 157.654C24.7055 157.328 25.347 157.156 26 157.156C26.653 157.156 27.2945 157.328 27.8601 157.654C28.4256 157.98 28.8952 158.45 29.2215 159.016C29.292 159.138 29.408 159.227 29.5441 159.263C29.6802 159.3 29.8252 159.281 29.9472 159.21ZM23.875 154.5C24.4615 154.5 24.9375 153.786 24.9375 152.906C24.9375 152.027 24.4615 151.312 23.875 151.312C23.2885 151.312 22.8125 152.027 22.8125 152.906C22.8125 153.786 23.2885 154.5 23.875 154.5Z" fill="#8707F5"/>
</g>
<g opacity="0.5">
<g filter="url(#filter2_d_1571_16622)">
<circle r="15" transform="matrix(-1 0 0 1 27 511)" fill="white"/>
</g>
<path d="M26.4992 502C21.8042 502 17.9983 505.806 17.9983 510.501C17.9983 515.195 21.8042 519 26.4992 519C31.1941 519.001 35 515.195 35 510.501C35 505.806 31.1941 502 26.4992 502ZM29.5061 512.866C29.6121 512.738 29.7642 512.656 29.9299 512.638C30.0955 512.62 30.2615 512.668 30.3924 512.771C30.5232 512.874 30.6085 513.024 30.63 513.19C30.6515 513.355 30.6075 513.522 30.5073 513.655C30.0305 514.262 29.4218 514.753 28.7274 515.09C28.0331 515.427 27.2711 515.602 26.4992 515.601C24.9183 515.601 23.4556 514.876 22.4944 513.66C22.4425 513.594 22.404 513.519 22.3812 513.438C22.3584 513.358 22.3516 513.274 22.3614 513.191C22.3711 513.107 22.3972 513.027 22.438 512.954C22.4788 512.881 22.5336 512.816 22.5993 512.765C22.665 512.713 22.7403 512.674 22.8208 512.651C22.9014 512.629 22.9856 512.622 23.0687 512.632C23.1519 512.641 23.2323 512.667 23.3054 512.708C23.3785 512.749 23.4428 512.804 23.4947 512.87C23.8524 513.324 24.3087 513.692 24.8292 513.944C25.3497 514.196 25.9207 514.327 26.4992 514.326C27.6873 514.326 28.7854 513.782 29.5061 512.866ZM29.0489 507.739C29.1909 507.735 29.3322 507.759 29.4646 507.811C29.5969 507.862 29.7176 507.94 29.8195 508.039C29.9213 508.138 30.0023 508.256 30.0576 508.387C30.1129 508.518 30.1413 508.659 30.1413 508.801C30.1413 508.943 30.1129 509.083 30.0576 509.214C30.0023 509.345 29.9213 509.463 29.8195 509.562C29.7176 509.661 29.5969 509.739 29.4646 509.791C29.3322 509.842 29.1909 509.867 29.0489 509.863C28.7724 509.855 28.5099 509.739 28.3172 509.541C28.1244 509.343 28.0165 509.077 28.0165 508.801C28.0165 508.524 28.1244 508.258 28.3172 508.06C28.5099 507.862 28.7724 507.746 29.0489 507.739ZM23.9494 507.739C24.0914 507.735 24.2327 507.759 24.3651 507.811C24.4975 507.862 24.6181 507.94 24.72 508.039C24.8218 508.138 24.9028 508.256 24.9581 508.387C25.0134 508.518 25.0418 508.659 25.0418 508.801C25.0418 508.943 25.0134 509.083 24.9581 509.214C24.9028 509.345 24.8218 509.463 24.72 509.562C24.6181 509.661 24.4975 509.739 24.3651 509.791C24.2327 509.842 24.0914 509.867 23.9494 509.863C23.673 509.855 23.4104 509.739 23.2177 509.541C23.0249 509.343 22.9171 509.077 22.9171 508.801C22.9171 508.524 23.0249 508.258 23.2177 508.06C23.4104 507.862 23.673 507.746 23.9494 507.739Z" fill="#8907F5"/>
</g>
<g filter="url(#filter3_d_1571_16622)">
<circle r="15" transform="matrix(-1 0 0 1 26 333)" fill="white"/>
<circle r="15" transform="matrix(-1 0 0 1 26 333)" stroke="#8807F7" stroke-width="2"/>
</g>
<g clip-path="url(#clip2_1571_16622)">
<path d="M25.5 341C23.2457 341 21.0837 340.104 19.4896 338.51C17.8955 336.916 17 334.754 17 332.5C17 330.246 17.8955 328.084 19.4896 326.49C21.0837 324.896 23.2457 324 25.5 324C27.7543 324 29.9163 324.896 31.5104 326.49C33.1045 328.084 34 330.246 34 332.5C34 334.754 33.1045 336.916 31.5104 338.51C29.9163 340.104 27.7543 341 25.5 341ZM29.2188 330.375H27.0938C26.9529 330.375 26.8177 330.431 26.7181 330.531C26.6185 330.63 26.5625 330.765 26.5625 330.906C26.5625 331.047 26.6185 331.182 26.7181 331.282C26.8177 331.382 26.9529 331.438 27.0938 331.438H29.2188C29.3596 331.438 29.4948 331.382 29.5944 331.282C29.694 331.182 29.75 331.047 29.75 330.906C29.75 330.765 29.694 330.63 29.5944 330.531C29.4948 330.431 29.3596 330.375 29.2188 330.375ZM23.9062 330.375H21.7812C21.6404 330.375 21.5052 330.431 21.4056 330.531C21.306 330.63 21.25 330.765 21.25 330.906C21.25 331.047 21.306 331.182 21.4056 331.282C21.5052 331.382 21.6404 331.438 21.7812 331.438H23.9062C24.0471 331.438 24.1823 331.382 24.2819 331.282C24.3815 331.182 24.4375 331.047 24.4375 330.906C24.4375 330.765 24.3815 330.63 24.2819 330.531C24.1823 330.431 24.0471 330.375 23.9062 330.375ZM29.2188 334.625H21.7812C21.6404 334.625 21.5052 334.681 21.4056 334.781C21.306 334.88 21.25 335.015 21.25 335.156C21.25 335.297 21.306 335.432 21.4056 335.532C21.5052 335.632 21.6404 335.688 21.7812 335.688H29.2188C29.3596 335.688 29.4948 335.632 29.5944 335.532C29.694 335.432 29.75 335.297 29.75 335.156C29.75 335.015 29.694 334.88 29.5944 334.781C29.4948 334.681 29.3596 334.625 29.2188 334.625Z" fill="#8707F5"/>
</g>
<defs>
<filter id="filter0_d_1571_16622" x="1" y="668" width="50" height="50" filterUnits="userSpaceOnUse" color-interpolation-filters="sRGB">
<feFlood flood-opacity="0" result="BackgroundImageFix"/>
<feColorMatrix in="SourceAlpha" type="matrix" values="0 0 0 0 0 0 0 0 0 0 0 0 0 0 0 0 0 0 127 0" result="hardAlpha"/>
<feOffset dy="4"/>
<feGaussianBlur stdDeviation="5"/>
<feComposite in2="hardAlpha" operator="out"/>
<feColorMatrix type="matrix" values="0 0 0 0 0.533333 0 0 0 0 0.027451 0 0 0 0 0.968627 0 0 0 0.07 0"/>
<feBlend mode="normal" in2="BackgroundImageFix" result="effect1_dropShadow_1571_16622"/>
<feBlend mode="normal" in="SourceGraphic" in2="effect1_dropShadow_1571_16622" result="shape"/>
</filter>
<filter id="filter1_d_1571_16622" x="1" y="134" width="50" height="50" filterUnits="userSpaceOnUse" color-interpolation-filters="sRGB">
<feFlood flood-opacity="0" result="BackgroundImageFix"/>
<feColorMatrix in="SourceAlpha" type="matrix" values="0 0 0 0 0 0 0 0 0 0 0 0 0 0 0 0 0 0 127 0" result="hardAlpha"/>
<feOffset dy="4"/>
<feGaussianBlur stdDeviation="5"/>
<feComposite in2="hardAlpha" operator="out"/>
<feColorMatrix type="matrix" values="0 0 0 0 0.533333 0 0 0 0 0.027451 0 0 0 0 0.968627 0 0 0 0.07 0"/>
<feBlend mode="normal" in2="BackgroundImageFix" result="effect1_dropShadow_1571_16622"/>
<feBlend mode="normal" in="SourceGraphic" in2="effect1_dropShadow_1571_16622" result="shape"/>
</filter>
<filter id="filter2_d_1571_16622" x="2" y="490" width="50" height="50" filterUnits="userSpaceOnUse" color-interpolation-filters="sRGB">
<feFlood flood-opacity="0" result="BackgroundImageFix"/>
<feColorMatrix in="SourceAlpha" type="matrix" values="0 0 0 0 0 0 0 0 0 0 0 0 0 0 0 0 0 0 127 0" result="hardAlpha"/>
<feOffset dy="4"/>
<feGaussianBlur stdDeviation="5"/>
<feComposite in2="hardAlpha" operator="out"/>
<feColorMatrix type="matrix" values="0 0 0 0 0.533333 0 0 0 0 0.027451 0 0 0 0 0.968627 0 0 0 0.07 0"/>
<feBlend mode="normal" in2="BackgroundImageFix" result="effect1_dropShadow_1571_16622"/>
<feBlend mode="normal" in="SourceGraphic" in2="effect1_dropShadow_1571_16622" result="shape"/>
</filter>
<filter id="filter3_d_1571_16622" x="0" y="311" width="52" height="52" filterUnits="userSpaceOnUse" color-interpolation-filters="sRGB">
<feFlood flood-opacity="0" result="BackgroundImageFix"/>
<feColorMatrix in="SourceAlpha" type="matrix" values="0 0 0 0 0 0 0 0 0 0 0 0 0 0 0 0 0 0 127 0" result="hardAlpha"/>
<feOffset dy="4"/>
<feGaussianBlur stdDeviation="5"/>
<feComposite in2="hardAlpha" operator="out"/>
<feColorMatrix type="matrix" values="0 0 0 0 0.533333 0 0 0 0 0.027451 0 0 0 0 0.968627 0 0 0 0.07 0"/>
<feBlend mode="normal" in2="BackgroundImageFix" result="effect1_dropShadow_1571_16622"/>
<feBlend mode="normal" in="SourceGraphic" in2="effect1_dropShadow_1571_16622" result="shape"/>
</filter>
<clipPath id="clip0_1571_16622">
<rect width="17" height="17" fill="white" transform="matrix(-1 0 0 1 35 681)"/>
</clipPath>
<clipPath id="clip1_1571_16622">
<rect width="17" height="17" fill="white" transform="matrix(-1 0 0 1 34.5 146)"/>
</clipPath>
<clipPath id="clip2_1571_16622">
<rect width="17" height="17" fill="white" transform="matrix(-1 0 0 1 34 324)"/>
</clipPath>
</defs>
</svg>
