<svg width="249" height="249" viewBox="0 0 249 249" fill="none" xmlns="http://www.w3.org/2000/svg">
<circle cx="124.5" cy="124.5" r="124.5" fill="#F8F0FF"/>
<g clip-path="url(#clip0_1534_32060)">
<path d="M125.641 59.1525C86.8849 59.0137 55.3544 90.3192 55.2156 129.075C55.0768 167.831 86.3823 199.362 125.138 199.501C163.894 199.639 195.425 168.334 195.564 129.578C195.703 90.8218 164.397 59.2913 125.641 59.1525Z" fill="#E8356D"/>
<g opacity="0.3">
<path d="M126.559 57.2492C87.8029 57.1104 56.2724 88.4159 56.1336 127.172C55.9948 165.928 87.3003 197.459 126.056 197.597C164.812 197.736 196.343 166.431 196.482 127.675C196.621 88.9185 165.315 57.388 126.559 57.2492Z" fill="#3D0072"/>
</g>
<path d="M195.717 120.326C191.031 81.8543 156.044 54.4655 117.572 59.1517C79.1004 63.8378 51.7116 98.8244 56.3978 137.296C61.0839 175.768 96.0705 203.157 134.542 198.471C173.014 193.785 200.403 158.798 195.717 120.326Z" fill="#E8356D"/>
<path d="M128.062 74.2564C97.9318 73.1489 72.609 96.676 71.5015 126.806C70.394 156.935 93.9211 182.258 124.051 183.366C154.181 184.473 179.503 160.946 180.611 130.816C181.718 100.687 158.191 75.3639 128.062 74.2564Z" fill="white"/>
<path d="M146.175 126.36C144.821 115.248 134.716 107.338 123.605 108.691C112.493 110.045 104.583 120.15 105.936 131.261C107.29 142.373 117.394 150.284 128.506 148.93C139.618 147.577 147.528 137.472 146.175 126.36Z" fill="white"/>
<path d="M63.1452 76.2769L48.5137 79.9806L30.4854 66.8235L46.3918 63.7853L63.1452 76.2769Z" fill="#3E0071"/>
<path d="M95.5 149.483C100.227 149.786 104.985 149.714 109.72 149.794C115.242 149.889 120.891 150.574 126.223 149.603C133.87 148.21 142.471 143.221 145.312 135.829C147.946 128.986 146.705 120.814 142.169 115.068C141.851 114.671 141.517 114.289 141.151 113.907C136.567 108.894 129.453 106.276 122.698 107.175C114.287 108.289 106.879 114.901 104.699 123.089C103.338 128.198 104.523 133.641 103.728 138.845C103.075 143.157 99.399 147.574 95.5 149.483Z" fill="#8807F7"/>
<path d="M47.3614 45.2557L47.9903 60.756L64.661 74.3303L64.4229 58.7451L47.3614 45.2557Z" fill="#3C0072"/>
<g opacity="0.3">
<path d="M122.014 128.084L74.0932 75.8951C71.193 78.4772 68.4872 81.2697 65.9979 84.2499L119.335 127.459L122.014 128.084Z" fill="#3D0072"/>
</g>
<path d="M48.0105 63.2591L55.0788 69.7433L72.0566 85.3099C78.8658 91.5589 85.6808 97.8077 92.5015 104.056L110.24 120.346C113.117 122.986 115.921 125.75 118.89 128.283L119.015 128.391C120.686 129.927 123.09 127.389 121.418 125.827L114.35 119.343L97.372 103.776L76.9271 85.0298L59.1629 68.7408C56.2855 66.1006 53.4818 63.3373 50.5129 60.8036L50.3881 60.696C48.717 59.1599 46.3126 61.6981 47.9846 63.26L48.0105 63.2591Z" fill="#3D0173"/>
</g>
<defs>
<clipPath id="clip0_1534_32060">
<rect width="167.733" height="169.532" fill="white" transform="translate(45.5 218) rotate(-96.9448)"/>
</clipPath>
</defs>
</svg>
