<svg width="78" height="79" viewBox="0 0 78 79" fill="none" xmlns="http://www.w3.org/2000/svg">
<g filter="url(#filter0_d_1537_42375)">
<rect x="9.10156" y="6.21442" width="59.697" height="59.697" rx="8.86067" fill="#FFD4E2" shape-rendering="crispEdges"/>
<path d="M33.6315 44.9233C33.1442 44.9233 32.7271 44.7499 32.3804 44.4032C32.033 44.0558 31.8594 43.6385 31.8594 43.1511V34.2905C31.8594 33.8031 32.033 33.3858 32.3804 33.0385C32.7271 32.6917 33.1442 32.5183 33.6315 32.5183H34.5176V30.7462C34.5176 29.5205 34.9497 28.4755 35.8139 27.6113C36.6775 26.7477 37.7222 26.3159 38.9479 26.3159C40.1736 26.3159 41.2186 26.7477 42.0828 27.6113C42.9464 28.4755 43.3783 29.5205 43.3783 30.7462V32.5183H44.2643C44.7517 32.5183 45.169 32.6917 45.5163 33.0385C45.8631 33.3858 46.0365 33.8031 46.0365 34.2905V43.1511C46.0365 43.6385 45.8631 44.0558 45.5163 44.4032C45.169 44.7499 44.7517 44.9233 44.2643 44.9233H33.6315ZM38.9479 40.4929C39.4353 40.4929 39.8526 40.3196 40.1999 39.9728C40.5467 39.6255 40.72 39.2081 40.72 38.7208C40.72 38.2335 40.5467 37.8161 40.1999 37.4688C39.8526 37.122 39.4353 36.9487 38.9479 36.9487C38.4606 36.9487 38.0435 37.122 37.6968 37.4688C37.3494 37.8161 37.1758 38.2335 37.1758 38.7208C37.1758 39.2081 37.3494 39.6255 37.6968 39.9728C38.0435 40.3196 38.4606 40.4929 38.9479 40.4929ZM36.2897 32.5183H41.6061V30.7462C41.6061 30.0078 41.3477 29.3802 40.8308 28.8633C40.3139 28.3464 39.6863 28.088 38.9479 28.088C38.2095 28.088 37.5819 28.3464 37.065 28.8633C36.5481 29.3802 36.2897 30.0078 36.2897 30.7462V32.5183Z" fill="#E8356D"/>
</g>
<defs>
<filter id="filter0_d_1537_42375" x="0.240889" y="0.898012" width="77.4186" height="77.4183" filterUnits="userSpaceOnUse" color-interpolation-filters="sRGB">
<feFlood flood-opacity="0" result="BackgroundImageFix"/>
<feColorMatrix in="SourceAlpha" type="matrix" values="0 0 0 0 0 0 0 0 0 0 0 0 0 0 0 0 0 0 127 0" result="hardAlpha"/>
<feOffset dy="3.54427"/>
<feGaussianBlur stdDeviation="4.43034"/>
<feComposite in2="hardAlpha" operator="out"/>
<feColorMatrix type="matrix" values="0 0 0 0 0.533333 0 0 0 0 0.027451 0 0 0 0 0.968627 0 0 0 0.07 0"/>
<feBlend mode="normal" in2="BackgroundImageFix" result="effect1_dropShadow_1537_42375"/>
<feBlend mode="normal" in="SourceGraphic" in2="effect1_dropShadow_1537_42375" result="shape"/>
</filter>
</defs>
</svg>
