<svg width="67" height="22" viewBox="0 0 67 22" fill="none" xmlns="http://www.w3.org/2000/svg">
<path d="M35.344 15.336C35.4613 15.3467 35.616 15.3573 35.808 15.368C36 15.368 36.2613 15.368 36.592 15.368C37.9467 15.368 38.9547 15.0267 39.616 14.344C40.288 13.6507 40.624 12.6853 40.624 11.448C40.624 10.1893 40.2987 9.224 39.648 8.552C38.9973 7.88 37.9893 7.544 36.624 7.544C36.0267 7.544 35.6 7.56 35.344 7.592V15.336ZM42.736 11.448C42.736 12.408 42.5867 13.2453 42.288 13.96C41.9893 14.664 41.5627 15.256 41.008 15.736C40.464 16.2053 39.8027 16.5573 39.024 16.792C38.256 17.016 37.4027 17.128 36.464 17.128C36.016 17.128 35.5093 17.1067 34.944 17.064C34.3787 17.032 33.84 16.9573 33.328 16.84V6.072C33.84 5.95467 34.384 5.88 34.96 5.848C35.536 5.816 36.048 5.8 36.496 5.8C37.424 5.8 38.272 5.912 39.04 6.136C39.808 6.34933 40.464 6.69067 41.008 7.16C41.5627 7.61867 41.9893 8.20533 42.288 8.92C42.5867 9.624 42.736 10.4667 42.736 11.448ZM46.7934 17H44.8574V8.632H46.7934V17ZM47.0014 6.184C47.0014 6.54667 46.884 6.83467 46.6494 7.048C46.4147 7.26133 46.1374 7.368 45.8174 7.368C45.4867 7.368 45.204 7.26133 44.9694 7.048C44.7347 6.83467 44.6174 6.54667 44.6174 6.184C44.6174 5.81067 44.7347 5.51733 44.9694 5.304C45.204 5.09067 45.4867 4.984 45.8174 4.984C46.1374 4.984 46.4147 5.09067 46.6494 5.304C46.884 5.51733 47.0014 5.81067 47.0014 6.184ZM52.1753 17.16C51.5993 17.1493 51.1193 17.0853 50.7353 16.968C50.3619 16.8507 50.0633 16.6853 49.8393 16.472C49.6153 16.248 49.4553 15.976 49.3593 15.656C49.2739 15.3253 49.2313 14.952 49.2313 14.536V4.904L51.1673 4.584V14.168C51.1673 14.4027 51.1833 14.6 51.2153 14.76C51.2579 14.92 51.3273 15.0587 51.4233 15.176C51.5193 15.2827 51.6473 15.368 51.8073 15.432C51.9779 15.4853 52.1913 15.528 52.4473 15.56L52.1753 17.16ZM56.9253 17.16C56.3493 17.1493 55.8693 17.0853 55.4853 16.968C55.1119 16.8507 54.8133 16.6853 54.5893 16.472C54.3653 16.248 54.2053 15.976 54.1093 15.656C54.0239 15.3253 53.9813 14.952 53.9813 14.536V4.904L55.9173 4.584V14.168C55.9173 14.4027 55.9333 14.6 55.9653 14.76C56.0079 14.92 56.0773 15.0587 56.1733 15.176C56.2693 15.2827 56.3973 15.368 56.5573 15.432C56.7279 15.4853 56.9413 15.528 57.1973 15.56L56.9253 17.16ZM61.7073 15.64C62.3046 15.64 62.7579 15.608 63.0673 15.544V13.4C62.9606 13.368 62.8059 13.336 62.6033 13.304C62.4006 13.272 62.1766 13.256 61.9313 13.256C61.7179 13.256 61.4993 13.272 61.2753 13.304C61.0619 13.336 60.8646 13.3947 60.6833 13.48C60.5126 13.5653 60.3739 13.688 60.2673 13.848C60.1606 13.9973 60.1073 14.1893 60.1073 14.424C60.1073 14.8827 60.2513 15.2027 60.5393 15.384C60.8273 15.5547 61.2166 15.64 61.7073 15.64ZM61.5473 8.424C62.1873 8.424 62.7259 8.504 63.1633 8.664C63.6006 8.824 63.9473 9.048 64.2033 9.336C64.4699 9.624 64.6566 9.976 64.7633 10.392C64.8806 10.7973 64.9393 11.2453 64.9393 11.736V16.808C64.6406 16.872 64.1873 16.9467 63.5793 17.032C62.9819 17.128 62.3046 17.176 61.5473 17.176C61.0459 17.176 60.5873 17.128 60.1713 17.032C59.7553 16.936 59.3979 16.7813 59.0993 16.568C58.8113 16.3547 58.5819 16.0773 58.4113 15.736C58.2513 15.3947 58.1713 14.9733 58.1713 14.472C58.1713 13.992 58.2619 13.5867 58.4433 13.256C58.6353 12.9253 58.8913 12.6587 59.2113 12.456C59.5313 12.2427 59.8993 12.0933 60.3153 12.008C60.7419 11.912 61.1846 11.864 61.6432 11.864C61.8566 11.864 62.0806 11.88 62.3153 11.912C62.5499 11.9333 62.8006 11.976 63.0673 12.04V11.72C63.0673 11.496 63.0406 11.2827 62.9873 11.08C62.9339 10.8773 62.8379 10.7013 62.6993 10.552C62.5713 10.392 62.3953 10.2693 62.1713 10.184C61.9579 10.0987 61.6859 10.056 61.3553 10.056C60.9073 10.056 60.4966 10.088 60.1233 10.152C59.7499 10.216 59.4459 10.2907 59.2113 10.376L58.9713 8.808C59.2166 8.72267 59.5739 8.63733 60.0433 8.552C60.5126 8.46667 61.0139 8.424 61.5473 8.424Z" fill="#3D0072"/>
<path d="M7.57414 4.63436C7.57792 6.07222 7.57792 7.51008 7.5817 8.94794C7.58547 10.1874 7.17925 11.3948 6.03047 12.0277C4.68519 12.7627 2.77875 12.5775 1.27854 12.4226C1.22186 12.4188 1.16895 12.4113 1.11605 12.4075C1.16517 11.3721 1.14628 10.3272 1.09715 9.2956C1.03291 7.89742 1.88127 6.23094 3.38148 5.99476C5.01206 5.73779 6.42914 5.56396 7.19814 4.66459C7.22459 4.63814 7.24727 4.61169 7.26994 4.58146C7.38331 4.42841 7.50423 4.27915 7.62515 4.12988C7.58736 4.29237 7.57414 4.46431 7.57414 4.63436Z" fill="#3D0072"/>
<path d="M2.64648 21.7869C3.76881 21.8587 4.89869 21.8417 6.0229 21.8605C7.33417 21.8832 8.67567 22.0457 9.94159 21.8152C11.7573 21.4846 13.7998 20.2999 14.4743 18.5446C15.0998 16.9197 14.805 14.9792 13.728 13.6151C13.6524 13.5206 13.5731 13.4299 13.4862 13.3392C12.3979 12.1489 10.7087 11.5272 9.10457 11.7407C7.10744 12.0053 5.34838 13.5754 4.83067 15.5196C4.50758 16.7326 4.7891 18.025 4.60016 19.2607C4.44523 20.2848 3.57231 21.3334 2.64648 21.7869Z" fill="#3D0072"/>
<path d="M13.8688 0C13.7687 0.304199 13.8896 0.63485 14.02 0.927712C15.6846 4.64234 20.1493 7.15529 19.9962 11.6162C19.9263 13.6342 18.9193 16.0054 17.2358 17.2014C17.113 17.2883 17.0015 17.3658 16.8579 17.4055C16.5367 16.8046 16.5027 15.9242 16.2287 15.261C15.8867 14.4296 15.4333 13.6115 14.8003 12.9672C14.1938 12.3512 13.4342 11.996 12.8277 11.3914C11.5543 10.1198 10.7512 8.37587 10.6454 6.57712C10.4905 4.01127 11.7734 1.4662 13.8688 0Z" fill="#3D0072"/>
<path d="M2.27785 8.95744C2.27785 8.95744 2.21927 7.837 3.36616 7.89368C3.36805 7.89368 3.78562 9.11804 2.27785 8.95744Z" fill="white" stroke="#3D0072" stroke-width="0.315805" stroke-miterlimit="10"/>
<path d="M1.90077 18.4373C2.95054 18.4373 3.80154 17.5863 3.80154 16.5365C3.80154 15.4867 2.95054 14.6357 1.90077 14.6357C0.851004 14.6357 0 15.4867 0 16.5365C0 17.5863 0.851004 18.4373 1.90077 18.4373Z" fill="#3D0072"/>
</svg>
