<svg width="50" height="50" viewBox="0 0 50 50" fill="none" xmlns="http://www.w3.org/2000/svg">
<path d="M22.751 32.8275C22.751 33.4028 22.9459 33.8847 23.3358 34.2732C23.7243 34.663 24.2061 34.8579 24.7814 34.8579C25.3567 34.8579 25.8393 34.6718 26.2291 34.2996C26.6176 33.9273 26.8118 33.4536 26.8118 32.8783V26.7364H30.4665C30.9403 26.7364 31.2529 26.5252 31.4045 26.1029C31.5575 25.6792 31.4817 25.3151 31.1771 25.0106L25.4921 19.3255C25.289 19.1224 25.0521 19.0209 24.7814 19.0209C24.5107 19.0209 24.2738 19.1224 24.0708 19.3255L18.3857 25.0106C18.0811 25.3151 18.0053 25.6792 18.1583 26.1029C18.3099 26.5252 18.6226 26.7364 19.0963 26.7364H22.751V32.8275ZM8.53832 40.9491C7.4216 40.9491 6.46597 40.5518 5.67141 39.7573C4.8755 38.9614 4.47754 38.005 4.47754 36.8883V12.5237C4.47754 11.407 4.8755 10.4513 5.67141 9.65676C6.46597 8.86085 7.4216 8.46289 8.53832 8.46289H19.0456C19.587 8.46289 20.1034 8.56441 20.5948 8.76745C21.0848 8.97049 21.5159 9.25813 21.8881 9.63036L24.7814 12.5237H41.0245C42.1412 12.5237 43.0976 12.9216 43.8935 13.7175C44.688 14.5121 45.0853 15.4677 45.0853 16.5844V36.8883C45.0853 38.005 44.688 38.9614 43.8935 39.7573C43.0976 40.5518 42.1412 40.9491 41.0245 40.9491H8.53832Z" fill="#3D0072"/>
</svg>
