<svg width="60" height="74" viewBox="0 0 60 74" fill="none" xmlns="http://www.w3.org/2000/svg">
<path d="M52.5566 0H4.18583C1.87406 0 0 1.87484 0 4.18757V67.6642C0 69.9769 1.87406 71.8517 4.18583 71.8517H52.5566C54.8684 71.8517 56.7424 69.9769 56.7424 67.6642V4.18757C56.7424 1.87484 54.8684 0 52.5566 0Z" fill="#263238"/>
<path d="M55.8144 0H7.44364C5.13187 0 3.25781 1.87484 3.25781 4.18757V67.6642C3.25781 69.9769 5.13187 71.8517 7.44364 71.8517H55.8144C58.1262 71.8517 60.0003 69.9769 60.0003 67.6642V4.18757C60.0003 1.87484 58.1262 0 55.8144 0Z" fill="#E8356D"/>
<path d="M13.166 71.8555H8.45693C8.31244 71.8555 8.19531 71.9726 8.19531 72.1172V72.8744C8.19531 73.019 8.31244 73.1362 8.45693 73.1362H13.166C13.3105 73.1362 13.4276 73.019 13.4276 72.8744V72.1172C13.4276 71.9726 13.3105 71.8555 13.166 71.8555Z" fill="#263238"/>
<path d="M54.791 71.8555H50.0819C49.9374 71.8555 49.8203 71.9726 49.8203 72.1172V72.8744C49.8203 73.019 49.9374 73.1362 50.0819 73.1362H54.791C54.9355 73.1362 55.0526 73.019 55.0526 72.8744V72.1172C55.0526 71.9726 54.9355 71.8555 54.791 71.8555Z" fill="#263238"/>
<path opacity="0.2" d="M55.8144 0H7.44364C5.13187 0 3.25781 1.87484 3.25781 4.18757V67.6642C3.25781 69.9769 5.13187 71.8517 7.44364 71.8517H55.8144C58.1262 71.8517 60.0003 69.9769 60.0003 67.6642V4.18757C60.0003 1.87484 58.1262 0 55.8144 0Z" fill="#DE8888"/>
<g style="mix-blend-mode:color-dodge" opacity="0.4">
<path d="M50.1193 63.5685H13.1445C12.721 63.5676 12.3152 63.3989 12.0158 63.0993C11.7164 62.7998 11.5478 62.3938 11.5469 61.9702V9.89081C11.5469 9.4666 11.7151 9.05972 12.0146 8.75944C12.3141 8.45915 12.7204 8.28999 13.1445 8.28906H50.1193C50.5434 8.28999 50.9497 8.45915 51.2492 8.75944C51.5487 9.05972 51.7169 9.4666 51.7169 9.89081V61.9702C51.716 62.3938 51.5474 62.7998 51.248 63.0993C50.9486 63.3989 50.5427 63.5676 50.1193 63.5685ZM13.1445 8.46354C12.7667 8.46447 12.4047 8.61525 12.1379 8.88281C11.8711 9.15038 11.7213 9.51288 11.7213 9.89081V61.9702C11.7213 62.1572 11.7581 62.3423 11.8296 62.5151C11.9011 62.6878 12.006 62.8448 12.1381 62.977C12.2703 63.1092 12.4272 63.2141 12.5998 63.2856C12.7725 63.3572 12.9576 63.394 13.1445 63.394H50.1193C50.4968 63.394 50.8588 63.244 51.1257 62.977C51.3926 62.71 51.5425 62.3478 51.5425 61.9702V9.89081C51.5425 9.51288 51.3927 9.15038 51.1259 8.88281C50.8591 8.61525 50.4971 8.46447 50.1193 8.46354H13.1445Z" fill="#E6E6E6"/>
</g>
<path d="M50.9297 61.9663V9.8834C50.9297 9.43434 50.5658 9.07031 50.1169 9.07031L13.1386 9.07031C12.6897 9.07031 12.3259 9.43434 12.3259 9.8834V61.9663C12.3259 62.4153 12.6897 62.7794 13.1386 62.7794H50.1169C50.5658 62.7794 50.9297 62.4153 50.9297 61.9663Z" fill="#E8356D"/>
<path opacity="0.1" d="M50.9297 61.9663V9.8834C50.9297 9.43434 50.5658 9.07031 50.1169 9.07031L13.1386 9.07031C12.6897 9.07031 12.3259 9.43434 12.3259 9.8834V61.9663C12.3259 62.4153 12.6897 62.7794 13.1386 62.7794H50.1169C50.5658 62.7794 50.9297 62.4153 50.9297 61.9663Z" fill="white"/>
<path opacity="0.1" d="M31.6291 48.8423C38.1984 48.8423 43.5238 43.5147 43.5238 36.9426C43.5238 30.3706 38.1984 25.043 31.6291 25.043C25.0598 25.043 19.7344 30.3706 19.7344 36.9426C19.7344 43.5147 25.0598 48.8423 31.6291 48.8423Z" fill="#DE8888"/>
<path d="M31.6244 19.2708C33.2292 19.2708 34.5301 17.9693 34.5301 16.3639C34.5301 14.7585 33.2292 13.457 31.6244 13.457C30.0197 13.457 28.7188 14.7585 28.7188 16.3639C28.7188 17.9693 30.0197 19.2708 31.6244 19.2708Z" fill="#E8356D"/>
<path opacity="0.6" d="M31.6088 19.2669C33.2135 19.2669 34.5145 17.9654 34.5145 16.36C34.5145 14.7546 33.2135 13.4531 31.6088 13.4531C30.004 13.4531 28.7031 14.7546 28.7031 16.36C28.7031 17.9654 30.004 19.2669 31.6088 19.2669Z" fill="white"/>
<path d="M31.6234 18.6627C31.1694 18.6627 30.7256 18.528 30.3482 18.2757C29.9707 18.0234 29.6766 17.6648 29.5028 17.2452C29.3291 16.8256 29.2837 16.364 29.3722 15.9185C29.4608 15.4731 29.6794 15.064 30.0004 14.7429C30.3214 14.4217 30.7303 14.203 31.1756 14.1144C31.6208 14.0258 32.0823 14.0713 32.5017 14.2451C32.9211 14.4189 33.2796 14.7132 33.5318 15.0908C33.784 15.4684 33.9186 15.9124 33.9186 16.3665C33.9177 16.9752 33.6756 17.5587 33.2453 17.9891C32.8151 18.4195 32.2318 18.6618 31.6234 18.6627ZM31.6234 14.2448C31.2039 14.2448 30.7939 14.3692 30.4451 14.6024C30.0963 14.8355 29.8245 15.1669 29.664 15.5546C29.5035 15.9423 29.4615 16.3689 29.5433 16.7804C29.6251 17.192 29.8271 17.57 30.1237 17.8668C30.4203 18.1635 30.7982 18.3656 31.2096 18.4474C31.621 18.5293 32.0474 18.4873 32.435 18.3267C32.8225 18.1661 33.1537 17.8942 33.3868 17.5453C33.6198 17.1963 33.7442 16.7861 33.7442 16.3665C33.7433 15.8041 33.5195 15.2649 33.122 14.8672C32.7245 14.4696 32.1856 14.2457 31.6234 14.2448Z" fill="#E8356D"/>
<path d="M12.2877 15.9141H10.993C10.7078 15.9141 10.4766 16.1453 10.4766 16.4305V23.5145C10.4766 23.7997 10.7078 24.031 10.993 24.031H12.2877C12.5729 24.031 12.8042 23.7997 12.8042 23.5145V16.4305C12.8042 16.1453 12.5729 15.9141 12.2877 15.9141Z" fill="#E8356D"/>
<path opacity="0.6" d="M12.2877 15.9141H10.993C10.7078 15.9141 10.4766 16.1453 10.4766 16.4305V23.5145C10.4766 23.7997 10.7078 24.031 10.993 24.031H12.2877C12.5729 24.031 12.8042 23.7997 12.8042 23.5145V16.4305C12.8042 16.1453 12.5729 15.9141 12.2877 15.9141Z" fill="white"/>
<path d="M12.2877 47.8242H10.993C10.7078 47.8242 10.4766 48.0554 10.4766 48.3407V55.4247C10.4766 55.7099 10.7078 55.9411 10.993 55.9411H12.2877C12.5729 55.9411 12.8042 55.7099 12.8042 55.4247V48.3407C12.8042 48.0554 12.5729 47.8242 12.2877 47.8242Z" fill="#E8356D"/>
<path opacity="0.6" d="M12.2877 47.8242H10.993C10.7078 47.8242 10.4766 48.0554 10.4766 48.3407V55.4247C10.4766 55.7099 10.7078 55.9411 10.993 55.9411H12.2877C12.5729 55.9411 12.8042 55.7099 12.8042 55.4247V48.3407C12.8042 48.0554 12.5729 47.8242 12.2877 47.8242Z" fill="white"/>
<path d="M31.6291 47.8267C38.1984 47.8267 43.5238 42.499 43.5238 35.927C43.5238 29.355 38.1984 24.0273 31.6291 24.0273C25.0598 24.0273 19.7344 29.355 19.7344 35.927C19.7344 42.499 25.0598 47.8267 31.6291 47.8267Z" fill="#E8356D"/>
<path opacity="0.6" d="M31.6291 47.8267C38.1984 47.8267 43.5238 42.499 43.5238 35.927C43.5238 29.355 38.1984 24.0273 31.6291 24.0273C25.0598 24.0273 19.7344 29.355 19.7344 35.927C19.7344 42.499 25.0598 47.8267 31.6291 47.8267Z" fill="white"/>
<path d="M25.7433 29.5416L25.25 30.0352L37.5185 42.3087L38.0118 41.8152L25.7433 29.5416Z" fill="#E8356D"/>
<path d="M37.5185 29.5467L25.25 41.8203L25.7433 42.3138L38.0118 30.0402L37.5185 29.5467Z" fill="#E8356D"/>
<path opacity="0.2" d="M37.4716 29.5077L25.2031 41.7812L25.6964 42.2748L37.9649 30.0012L37.4716 29.5077Z" fill="#DE8888"/>
<path opacity="0.2" d="M25.7042 29.5065L25.2109 30L37.4794 42.2736L37.9727 41.7801L25.7042 29.5065Z" fill="#DE8888"/>
<path d="M31.5891 44.9209C29.8028 44.9216 28.0564 44.3923 26.5708 43.4C25.0853 42.4077 23.9272 40.9969 23.2431 39.3461C22.5591 37.6953 22.3797 35.8786 22.7278 34.1258C23.0759 32.373 23.9357 30.7629 25.1986 29.499C26.4614 28.2351 28.0706 27.3743 29.8225 27.0254C31.5744 26.6765 33.3904 26.8553 35.0408 27.539C36.6912 28.2227 38.1018 29.3807 39.0943 30.8665C40.0868 32.3523 40.6166 34.0992 40.6166 35.8863C40.6147 38.2812 39.6631 40.5776 37.9707 42.2715C36.2782 43.9653 33.9831 44.9182 31.5891 44.9209ZM31.5891 27.5495C29.9408 27.5488 28.3293 28.0372 26.9584 28.9528C25.5876 29.8684 24.5189 31.1702 23.8877 32.6935C23.2564 34.2168 23.0909 35.8931 23.412 37.5105C23.7332 39.1279 24.5266 40.6137 25.6919 41.78C26.8572 42.9463 28.342 43.7406 29.9586 44.0626C31.5752 44.3845 33.2509 44.2196 34.7738 43.5887C36.2967 42.9578 37.5984 41.8893 38.5143 40.5183C39.4301 39.1472 39.9189 37.5353 39.9189 35.8863C39.9171 33.6764 39.039 31.5575 37.4773 29.9945C35.9157 28.4316 33.7981 27.5523 31.5891 27.5495Z" fill="#E8356D"/>
<path d="M34.2576 38.5596C35.7332 37.0834 35.7332 34.69 34.2576 33.2138C32.782 31.7376 30.3896 31.7376 28.914 33.2138C27.4384 34.69 27.4384 37.0834 28.914 38.5596C30.3896 40.0358 32.782 40.0358 34.2576 38.5596Z" fill="#E8356D"/>
<path opacity="0.2" d="M31.5891 44.9209C29.8028 44.9216 28.0564 44.3923 26.5708 43.4C25.0853 42.4077 23.9272 40.9969 23.2431 39.3461C22.5591 37.6953 22.3797 35.8786 22.7278 34.1258C23.0759 32.373 23.9357 30.7629 25.1986 29.499C26.4614 28.2351 28.0706 27.3743 29.8225 27.0254C31.5744 26.6765 33.3904 26.8553 35.0408 27.539C36.6912 28.2227 38.1018 29.3807 39.0943 30.8665C40.0868 32.3523 40.6166 34.0992 40.6166 35.8863C40.6147 38.2812 39.6631 40.5776 37.9707 42.2715C36.2782 43.9653 33.9831 44.9182 31.5891 44.9209ZM31.5891 27.5495C29.9408 27.5488 28.3293 28.0372 26.9584 28.9528C25.5876 29.8684 24.5189 31.1702 23.8877 32.6935C23.2564 34.2168 23.0909 35.8931 23.412 37.5105C23.7332 39.1279 24.5266 40.6137 25.6919 41.78C26.8572 42.9463 28.342 43.7406 29.9586 44.0626C31.5752 44.3845 33.2509 44.2196 34.7738 43.5887C36.2967 42.9578 37.5984 41.8893 38.5143 40.5183C39.4301 39.1472 39.9189 37.5353 39.9189 35.8863C39.9171 33.6764 39.039 31.5575 37.4773 29.9945C35.9157 28.4316 33.7981 27.5523 31.5891 27.5495Z" fill="#DE8888"/>
<path opacity="0.2" d="M34.2576 38.5596C35.7332 37.0834 35.7332 34.69 34.2576 33.2138C32.782 31.7376 30.3896 31.7376 28.914 33.2138C27.4384 34.69 27.4384 37.0834 28.914 38.5596C30.3896 40.0358 32.782 40.0358 34.2576 38.5596Z" fill="#DE8888"/>
</svg>
