<svg width="143" height="143" viewBox="0 0 143 143" fill="none" xmlns="http://www.w3.org/2000/svg">
<path d="M34.7313 143C-28.1704 81.2523 8.52224 22.6051 34.7313 1H38.7643H131V143H34.7313Z" fill="#FEE8EF"/>
<path d="M43.8125 139.064C-12.9699 80.5037 18.5597 25.228 44.0167 2.33917C45.7427 0.787313 48.0006 0 50.3217 0H50.7643H133C138.523 0 143 4.47715 143 10V132C143 137.523 138.523 142 133 142H50.8193C48.1992 142 45.6364 140.945 43.8125 139.064Z" fill="#FFD4E2"/>
<path d="M118.062 68.3683C117.418 68.367 116.786 68.1966 116.229 67.8741L114.602 66.9406C113.759 66.4525 113.143 65.6497 112.891 64.7084C112.639 63.767 112.77 62.7641 113.257 61.9197C113.744 61.0764 114.546 60.461 115.487 60.2088C116.428 59.9565 117.43 60.088 118.274 60.5743L119.904 61.5147C120.608 61.9183 121.159 62.5434 121.47 63.2925C121.781 64.0416 121.836 64.8727 121.625 65.6561C121.415 66.4396 120.951 67.1315 120.307 67.6239C119.662 68.1163 118.873 68.3817 118.062 68.3786V68.3683ZM116.442 61.9197C116.12 61.919 115.803 62.0034 115.524 62.1643C115.245 62.3252 115.013 62.5569 114.853 62.836C114.733 63.0453 114.656 63.2761 114.626 63.5151C114.596 63.7542 114.613 63.9969 114.677 64.2293C114.741 64.4617 114.85 64.6792 114.998 64.8694C115.146 65.0597 115.33 65.2188 115.539 65.3379L117.169 66.2782C117.588 66.4993 118.077 66.5495 118.532 66.4183C118.987 66.2871 119.374 65.9846 119.611 65.5744C119.848 65.1641 119.917 64.678 119.804 64.218C119.69 63.758 119.403 63.3598 119.002 63.1071L117.368 62.1668C117.088 62.0015 116.767 61.9161 116.442 61.9197Z" fill="#263238"/>
<g opacity="0.4">
<path d="M118.063 68.3683C117.42 68.367 116.788 68.1966 116.231 67.8741L114.604 66.9406C113.761 66.4525 113.145 65.6497 112.893 64.7084C112.641 63.767 112.772 62.7641 113.259 61.9197C113.746 61.0764 114.548 60.461 115.489 60.2088C116.43 59.9565 117.432 60.088 118.276 60.5743L119.906 61.5147C120.61 61.9183 121.16 62.5434 121.472 63.2925C121.783 64.0416 121.838 64.8727 121.627 65.6561C121.417 66.4396 120.953 67.1315 120.309 67.6239C119.664 68.1163 118.875 68.3817 118.063 68.3786V68.3683ZM116.444 61.9197C116.122 61.919 115.805 62.0034 115.526 62.1643C115.247 62.3252 115.015 62.5569 114.855 62.836C114.735 63.0453 114.658 63.2761 114.628 63.5151C114.598 63.7542 114.615 63.9969 114.679 64.2293C114.743 64.4617 114.852 64.6792 115 64.8694C115.148 65.0597 115.331 65.2188 115.541 65.3379L117.171 66.2782C117.59 66.4993 118.079 66.5495 118.534 66.4183C118.989 66.2871 119.376 65.9846 119.613 65.5744C119.85 65.1641 119.919 64.678 119.806 64.218C119.692 63.758 119.405 63.3598 119.004 63.1071L117.37 62.1668C117.09 62.0015 116.769 61.9161 116.444 61.9197Z" fill="white"/>
</g>
<path d="M119.052 73.0667C118.869 73.0666 118.686 73.0528 118.506 73.0255C117.543 72.8814 116.677 72.3609 116.097 71.5783C115.518 70.7958 115.274 69.8152 115.417 68.8522L115.695 66.9921C115.838 66.0287 116.358 65.1614 117.14 64.5812C117.922 64.001 118.903 63.7553 119.867 63.8982C120.83 64.0411 121.697 64.5609 122.278 65.3432C122.858 66.1255 123.103 67.1063 122.961 68.0698L122.686 69.9333C122.557 70.8035 122.12 71.5984 121.454 72.1735C120.788 72.7486 119.938 73.0655 119.058 73.0667H119.052ZM119.316 65.7017C118.878 65.7035 118.455 65.8619 118.124 66.1483C117.793 66.4347 117.575 66.8302 117.511 67.2632L117.233 69.1234C117.197 69.3611 117.209 69.6035 117.267 69.8368C117.325 70.07 117.429 70.2895 117.572 70.4826C117.715 70.6758 117.895 70.8388 118.101 70.9625C118.307 71.0861 118.536 71.1679 118.774 71.2031C119.011 71.2386 119.254 71.227 119.487 71.1687C119.72 71.1105 119.94 71.0068 120.133 70.8637C120.326 70.7206 120.489 70.5408 120.613 70.3347C120.736 70.1285 120.818 69.9 120.853 69.6622L121.128 67.8021C121.2 67.3215 121.078 66.8321 120.789 66.4414C120.5 66.0508 120.067 65.7909 119.587 65.7189C119.497 65.7082 119.406 65.7024 119.316 65.7017Z" fill="#263238"/>
<g opacity="0.6">
<path d="M119.052 73.0667C118.869 73.0666 118.686 73.0528 118.506 73.0255C117.543 72.8814 116.677 72.3609 116.097 71.5783C115.518 70.7958 115.274 69.8152 115.417 68.8522L115.695 66.9921C115.838 66.0287 116.358 65.1614 117.14 64.5812C117.922 64.001 118.903 63.7553 119.867 63.8982C120.83 64.0411 121.697 64.5609 122.278 65.3432C122.858 66.1255 123.103 67.1063 122.961 68.0698L122.686 69.9333C122.557 70.8035 122.12 71.5984 121.454 72.1735C120.788 72.7486 119.938 73.0655 119.058 73.0667H119.052ZM119.316 65.7017C118.878 65.7035 118.455 65.8619 118.124 66.1483C117.793 66.4347 117.575 66.8302 117.511 67.2632L117.233 69.1234C117.197 69.3611 117.209 69.6035 117.267 69.8368C117.325 70.07 117.429 70.2895 117.572 70.4826C117.715 70.6758 117.895 70.8388 118.101 70.9625C118.307 71.0861 118.536 71.1679 118.774 71.2031C119.011 71.2386 119.254 71.227 119.487 71.1687C119.72 71.1105 119.94 71.0068 120.133 70.8637C120.326 70.7206 120.489 70.5408 120.613 70.3347C120.736 70.1285 120.818 69.9 120.853 69.6622L121.128 67.8021C121.2 67.3215 121.078 66.8321 120.789 66.4414C120.5 66.0508 120.067 65.7909 119.587 65.7189C119.497 65.7082 119.406 65.7024 119.316 65.7017Z" fill="white"/>
</g>
<path d="M57.0942 70.2216C56.1964 70.2224 55.3295 69.8939 54.6576 69.2984C54.2965 68.978 54.0022 68.5896 53.7913 68.1554C53.5804 67.7212 53.4571 67.2497 53.4284 66.7678C53.3997 66.2859 53.4662 65.8032 53.6241 65.347C53.782 64.8909 54.0282 64.4703 54.3487 64.1093L55.5979 62.7022C55.9167 62.3367 56.3048 62.0381 56.7397 61.8234C57.1745 61.6087 57.6476 61.4823 58.1316 61.4515C58.6156 61.4207 59.1009 61.486 59.5595 61.6438C60.0181 61.8015 60.4409 62.0486 60.8036 62.3706C61.1662 62.6927 61.4614 63.0833 61.6722 63.5201C61.883 63.9569 62.0052 64.4311 62.0317 64.9153C62.0583 65.3995 61.9886 65.8843 61.8268 66.3414C61.665 66.7986 61.4143 67.2192 61.089 67.579L59.8432 68.9998C59.4978 69.3867 59.0741 69.6957 58.6001 69.9063C58.1262 70.117 57.6129 70.2244 57.0942 70.2216ZM58.3469 63.3096C58.0873 63.3089 57.8305 63.3636 57.5937 63.4701C57.357 63.5767 57.1457 63.7326 56.9741 63.9274L55.7249 65.3345C55.565 65.514 55.442 65.7233 55.363 65.9504C55.2841 66.1775 55.2506 66.4179 55.2647 66.6579C55.2787 66.8979 55.3399 67.1328 55.4448 67.3492C55.5497 67.5655 55.6962 67.7591 55.8759 67.9187C56.2393 68.2404 56.7155 68.4048 57.2 68.3759C57.6844 68.3469 58.1376 68.127 58.4602 67.7643L59.7094 66.3572C59.9434 66.0929 60.0962 65.7666 60.1492 65.4175C60.2022 65.0685 60.1533 64.7115 60.0083 64.3896C59.8632 64.0677 59.6283 63.7945 59.3318 63.6029C59.0352 63.4114 58.6897 63.3095 58.3366 63.3096H58.3469Z" fill="#263238"/>
<g opacity="0.6">
<path d="M57.0923 70.2216C56.1945 70.2224 55.3275 69.8939 54.6556 69.2984C54.2946 68.978 54.0002 68.5896 53.7893 68.1554C53.5784 67.7212 53.4551 67.2497 53.4264 66.7678C53.3977 66.2859 53.4642 65.8032 53.6222 65.347C53.7801 64.8909 54.0263 64.4703 54.3467 64.1093L55.596 62.7022C55.9148 62.3367 56.3028 62.0381 56.7377 61.8234C57.1726 61.6087 57.6457 61.4823 58.1297 61.4515C58.6137 61.4207 59.099 61.486 59.5576 61.6438C60.0162 61.8015 60.439 62.0486 60.8016 62.3706C61.1642 62.6927 61.4594 63.0833 61.6702 63.5201C61.881 63.9569 62.0032 64.4311 62.0298 64.9153C62.0563 65.3995 61.9867 65.8843 61.8249 66.3414C61.6631 66.7986 61.4123 67.2192 61.0871 67.579L59.8413 68.9998C59.4959 69.3867 59.0721 69.6957 58.5982 69.9063C58.1242 70.117 57.6109 70.2244 57.0923 70.2216ZM58.3449 63.3096C58.0853 63.3089 57.8285 63.3636 57.5918 63.4701C57.355 63.5767 57.1438 63.7326 56.9722 63.9274L55.7229 65.3345C55.563 65.514 55.4401 65.7233 55.3611 65.9504C55.2821 66.1775 55.2487 66.4179 55.2627 66.6579C55.2767 66.8979 55.3379 67.1328 55.4428 67.3492C55.5477 67.5655 55.6942 67.7591 55.8739 67.9187C56.2374 68.2404 56.7135 68.4048 57.198 68.3759C57.6825 68.3469 58.1357 68.127 58.4582 67.7643L59.7074 66.3572C59.9415 66.0929 60.0942 65.7666 60.1472 65.4175C60.2002 65.0685 60.1513 64.7115 60.0063 64.3896C59.8613 64.0677 59.6264 63.7945 59.3298 63.6029C59.0333 63.4114 58.6877 63.3095 58.3347 63.3096H58.3449Z" fill="white"/>
</g>
<path d="M110.458 32H58.6628C57.7132 32 56.9434 32.7698 56.9434 33.7194V118.156C56.9434 119.105 57.7132 119.875 58.6628 119.875H110.458C111.407 119.875 112.177 119.105 112.177 118.156V33.7194C112.177 32.7698 111.407 32 110.458 32Z" fill="#E8356D"/>
<path d="M113.187 33.6233H59V118.07H113.187V33.6233Z" fill="white"/>
<path d="M115.989 32H64.194C63.2444 32 62.4746 32.7698 62.4746 33.7194V118.156C62.4746 119.105 63.2444 119.875 64.194 119.875H115.989C116.939 119.875 117.708 119.105 117.708 118.156V33.7194C117.708 32.7698 116.939 32 115.989 32Z" fill="#E8356D"/>
<path opacity="0.2" d="M115.989 32H64.194C63.2444 32 62.4746 32.7698 62.4746 33.7194V118.156C62.4746 119.105 63.2444 119.875 64.194 119.875H115.989C116.939 119.875 117.708 119.105 117.708 118.156V33.7194C117.708 32.7698 116.939 32 115.989 32Z" fill="white"/>
<path opacity="0.2" d="M60.793 33.6233L60.6077 97.4506L60.4258 33.6233H60.793Z" fill="#FCFCFC"/>
<path opacity="0.2" d="M61.3477 118.07L61.533 41.0603L61.7183 118.07H61.3477Z" fill="#FCFCFC"/>
<path d="M57.8322 59.689L53 57.4719V41.0604L57.8322 38.8433V59.689Z" fill="#E8356D"/>
<path opacity="0.2" d="M59.5039 118.07L59.6892 63.1895L59.8746 118.07H59.5039Z" fill="#FCFCFC"/>
<path d="M57.8601 74.6076C57.6668 74.6074 57.4743 74.5832 57.287 74.5356C56.9943 74.4608 56.7194 74.3288 56.4779 74.1474C56.2365 73.966 56.0332 73.7387 55.8799 73.4785L53.5187 69.4906C53.2101 68.9655 53.1221 68.3396 53.2739 67.7498C53.4256 67.16 53.8049 66.6544 54.3286 66.3435C54.853 66.0337 55.4789 65.9446 56.069 66.0959C56.659 66.2471 57.1649 66.6262 57.4757 67.15L59.8335 71.1379C60.0397 71.4867 60.1501 71.8837 60.1535 72.2889C60.1569 72.694 60.0532 73.0928 59.8529 73.445C59.6526 73.7972 59.3628 74.0902 59.0129 74.2944C58.6629 74.4985 58.2652 74.6066 57.8601 74.6076ZM55.4955 67.8639C55.4144 67.8651 55.3352 67.8876 55.2655 67.9291C55.214 67.9592 55.169 67.9992 55.1331 68.0468C55.0972 68.0945 55.0712 68.1488 55.0565 68.2066C55.0418 68.2644 55.0387 68.3246 55.0475 68.3836C55.0563 68.4426 55.0768 68.4992 55.1077 68.5503L57.4654 72.5416C57.5268 72.6454 57.6267 72.7206 57.7434 72.751C57.8602 72.7785 57.9831 72.7601 58.0866 72.6995C58.1382 72.6694 58.1833 72.6293 58.2193 72.5816C58.2552 72.5338 58.2813 72.4794 58.2959 72.4215C58.3109 72.3638 58.3141 72.3036 58.3052 72.2446C58.2964 72.1857 58.2757 72.1291 58.2445 72.0783L55.8799 68.0904C55.8496 68.0389 55.8095 67.9939 55.7618 67.9579C55.7141 67.922 55.6597 67.8959 55.6019 67.881C55.5675 67.8701 55.5316 67.8643 55.4955 67.8639Z" fill="#263238"/>
<path d="M66.6692 80.8435C66.2573 80.8427 65.8531 80.7313 65.4989 80.5209L61.5144 78.1529C60.9906 77.8416 60.6119 77.3349 60.4616 76.7444C60.3113 76.1539 60.4018 75.5279 60.7131 75.004C61.0244 74.4802 61.531 74.1015 62.1215 73.9512C62.712 73.8009 63.338 73.8914 63.8619 74.2027L67.8464 76.5707C68.2779 76.8289 68.613 77.2213 68.8002 77.6881C68.9874 78.1548 69.0165 78.67 68.8829 79.1548C68.7493 79.6397 68.4605 80.0673 68.0607 80.3723C67.6609 80.6773 67.1721 80.8428 66.6692 80.8435ZM62.6882 75.723C62.6505 75.7186 62.6125 75.7186 62.5749 75.723C62.517 75.7377 62.4626 75.7638 62.4148 75.7997C62.3671 75.8357 62.327 75.8808 62.2969 75.9324C62.2657 75.9832 62.245 76.0398 62.2361 76.0987C62.2273 76.1577 62.2305 76.2179 62.2454 76.2756C62.2601 76.3335 62.2862 76.3879 62.3221 76.4357C62.3581 76.4834 62.4032 76.5235 62.4548 76.5536L66.4393 78.9216C66.4906 78.952 66.5475 78.972 66.6066 78.9805C66.6657 78.9889 66.7259 78.9856 66.7838 78.9708C66.8416 78.956 66.896 78.9299 66.9437 78.8941C66.9915 78.8583 67.0317 78.8134 67.0622 78.762C67.0926 78.7107 67.1126 78.6538 67.121 78.5947C67.1295 78.5356 67.1262 78.4754 67.1114 78.4175C67.0966 78.3597 67.0705 78.3053 67.0347 78.2576C66.9988 78.2098 66.954 78.1696 66.9026 78.1391L62.9181 75.7711C62.8471 75.7348 62.7677 75.7182 62.6882 75.723Z" fill="#263238"/>
<path d="M77.1092 84.0009C76.9183 84.0018 76.728 83.9787 76.5429 83.9323L72.0505 82.7963C71.46 82.6465 70.9532 82.2686 70.6411 81.7455C70.329 81.2224 70.2373 80.5968 70.386 80.0061C70.4597 79.7135 70.5904 79.4383 70.7706 79.1963C70.9508 78.9542 71.1769 78.7501 71.4361 78.5955C71.6952 78.4409 71.9823 78.3389 72.2808 78.2954C72.5794 78.2518 72.8837 78.2675 73.1762 78.3416L77.6686 79.4776C78.1086 79.5896 78.5055 79.8295 78.8094 80.1668C79.1133 80.5041 79.3106 80.9239 79.3763 81.3731C79.442 81.8224 79.3732 82.281 79.1786 82.6913C78.984 83.1015 78.6724 83.4449 78.2829 83.6783C77.9277 83.8893 77.5223 84.0007 77.1092 84.0009ZM72.6133 80.1125C72.512 80.113 72.4137 80.1468 72.3337 80.2089C72.2536 80.271 72.1963 80.3577 72.1706 80.4557C72.1564 80.5145 72.154 80.5756 72.1636 80.6354C72.1732 80.6951 72.1946 80.7524 72.2265 80.8038C72.2585 80.8552 72.3003 80.8998 72.3496 80.9349C72.3989 80.97 72.4547 80.9949 72.5138 81.0082L77.0096 82.1442C77.0685 82.1589 77.1297 82.1617 77.1896 82.1523C77.2496 82.1429 77.307 82.1215 77.3585 82.0895C77.4101 82.0575 77.4547 82.0155 77.4896 81.9659C77.5246 81.9164 77.5493 81.8603 77.5622 81.801C77.5768 81.7432 77.5797 81.6832 77.5709 81.6242C77.5621 81.5653 77.5416 81.5088 77.5107 81.4578C77.4493 81.3541 77.3494 81.2788 77.2327 81.2485L72.7369 80.1125C72.6959 80.1064 72.6543 80.1064 72.6133 80.1125Z" fill="#263238"/>
<path d="M87.729 85.329H87.5093L82.8968 84.8966C82.5961 84.8702 82.3038 84.784 82.0368 84.6432C81.7698 84.5023 81.5337 84.3096 81.3421 84.0764C81.1487 83.8444 81.0031 83.5764 80.9136 83.2879C80.824 82.9995 80.7924 82.6962 80.8205 82.3954C80.8485 82.0947 80.9357 81.8025 81.0771 81.5355C81.2185 81.2686 81.4112 81.0322 81.6442 80.84C81.8774 80.6455 82.1474 80.4997 82.438 80.4112C82.7286 80.3228 83.034 80.2936 83.3361 80.3252L87.9521 80.7577C88.5557 80.8176 89.1112 81.114 89.497 81.5822C89.8828 82.0503 90.0677 82.6521 90.0112 83.2561C89.9576 83.8251 89.6943 84.3538 89.2725 84.7395C88.8506 85.1251 88.3005 85.3402 87.729 85.3427V85.329ZM83.1096 82.1442C83.003 82.145 82.9 82.1826 82.8179 82.2506C82.7259 82.3271 82.6679 82.4369 82.6566 82.556C82.646 82.6764 82.6833 82.7962 82.7604 82.8893C82.8375 82.9824 82.9481 83.0415 83.0684 83.0536L87.6809 83.4826C87.7422 83.4906 87.8044 83.4855 87.8635 83.4677C87.9226 83.45 87.9774 83.42 88.0241 83.3797C88.0706 83.3416 88.109 83.2947 88.1373 83.2417C88.1656 83.1886 88.1831 83.1306 88.1889 83.0708C88.1985 82.9509 88.1607 82.8321 88.0837 82.7397C88.0068 82.6473 87.8967 82.5888 87.777 82.5766L83.1611 82.1476L83.1096 82.1442Z" fill="#263238"/>
<g opacity="0.4">
<path d="M57.8581 74.6076C57.6648 74.6073 57.4723 74.5831 57.285 74.5355C56.9924 74.4607 56.7175 74.3288 56.476 74.1474C56.2345 73.966 56.0313 73.7387 55.8779 73.4785L53.5167 69.4905C53.2081 68.9655 53.1201 68.3396 53.2719 67.7498C53.4237 67.16 53.8029 66.6543 54.3267 66.3435C54.8511 66.0337 55.477 65.9446 56.067 66.0958C56.657 66.247 57.163 66.6261 57.4738 67.15L59.8315 71.1379C60.0377 71.4866 60.1481 71.8837 60.1515 72.2888C60.1549 72.6939 60.0512 73.0928 59.8509 73.445C59.6506 73.7971 59.3609 74.0901 59.0109 74.2943C58.661 74.4985 58.2633 74.6065 57.8581 74.6076ZM55.4935 67.8638C55.4125 67.8651 55.3332 67.8875 55.2636 67.929C55.2121 67.9591 55.1671 67.9991 55.1312 68.0468C55.0953 68.0944 55.0692 68.1487 55.0545 68.2065C55.0398 68.2643 55.0368 68.3245 55.0456 68.3835C55.0544 68.4425 55.0748 68.4992 55.1057 68.5502L57.4635 72.5416C57.5248 72.6453 57.6248 72.7206 57.7414 72.7509C57.8582 72.7785 57.9811 72.7601 58.0846 72.6994C58.1363 72.6693 58.1814 72.6292 58.2173 72.5815C58.2532 72.5338 58.2793 72.4794 58.294 72.4214C58.309 72.3637 58.3121 72.3036 58.3033 72.2446C58.2944 72.1856 58.2738 72.129 58.2425 72.0782L55.8779 68.0903C55.8477 68.0388 55.8075 67.9938 55.7598 67.9579C55.7121 67.922 55.6578 67.8958 55.5999 67.881C55.5655 67.87 55.5296 67.8642 55.4935 67.8638Z" fill="white"/>
<path d="M66.6673 80.8434C66.2553 80.8427 65.8511 80.7313 65.497 80.5208L61.5125 78.1528C60.9886 77.8415 60.6099 77.3349 60.4597 76.7444C60.3094 76.1538 60.3998 75.5278 60.7111 75.004C61.0224 74.4802 61.529 74.1015 62.1196 73.9512C62.7101 73.8009 63.3361 73.8913 63.8599 74.2026L67.8444 76.5707C68.276 76.8288 68.611 77.2213 68.7983 77.688C68.9855 78.1547 69.0145 78.67 68.8809 79.1548C68.7474 79.6396 68.4586 80.0672 68.0587 80.3722C67.6589 80.6772 67.1701 80.8428 66.6673 80.8434ZM62.6862 75.723C62.6486 75.7185 62.6106 75.7185 62.5729 75.723C62.515 75.7376 62.4606 75.7637 62.4129 75.7997C62.3651 75.8356 62.3251 75.8807 62.295 75.9323C62.2637 75.9831 62.243 76.0397 62.2342 76.0987C62.2253 76.1576 62.2285 76.2178 62.2435 76.2755C62.2581 76.3334 62.2842 76.3879 62.3202 76.4356C62.3561 76.4833 62.4012 76.5234 62.4528 76.5535L66.4373 78.9216C66.4887 78.952 66.5456 78.972 66.6047 78.9804C66.6638 78.9889 66.724 78.9856 66.7818 78.9708C66.8397 78.956 66.894 78.9299 66.9418 78.8941C66.9896 78.8582 67.0298 78.8133 67.0602 78.762C67.0906 78.7106 67.1106 78.6537 67.1191 78.5946C67.1275 78.5355 67.1242 78.4753 67.1094 78.4175C67.0946 78.3596 67.0685 78.3053 67.0327 78.2575C66.9969 78.2097 66.952 78.1695 66.9006 78.1391L62.9161 75.771C62.8452 75.7348 62.7658 75.7182 62.6862 75.723Z" fill="white"/>
<path d="M77.1072 84.0008C76.9163 84.0017 76.7261 83.9787 76.5409 83.9322L72.0485 82.7962C71.4581 82.6465 70.9512 82.2685 70.6391 81.7454C70.3271 81.2223 70.2353 80.5967 70.384 80.006C70.4578 79.7135 70.5885 79.4383 70.7687 79.1962C70.9488 78.9542 71.175 78.75 71.4341 78.5954C71.6932 78.4409 71.9803 78.3389 72.2789 78.2953C72.5775 78.2517 72.8817 78.2674 73.1742 78.3415L77.6666 79.4775C78.1066 79.5896 78.5036 79.8294 78.8075 80.1667C79.1114 80.5041 79.3086 80.9238 79.3743 81.3731C79.44 81.8223 79.3712 82.281 79.1767 82.6912C78.9821 83.1014 78.6704 83.4449 78.2809 83.6782C77.9258 83.8892 77.5203 84.0007 77.1072 84.0008ZM72.6114 80.1124C72.5101 80.1129 72.4118 80.1468 72.3317 80.2088C72.2517 80.2709 72.1943 80.3577 72.1686 80.4556C72.1544 80.5145 72.152 80.5755 72.1616 80.6353C72.1712 80.6951 72.1926 80.7523 72.2246 80.8037C72.2565 80.8552 72.2983 80.8997 72.3477 80.9348C72.397 80.9699 72.4528 80.9948 72.5118 81.0082L77.0077 82.1441C77.0665 82.1589 77.1278 82.1616 77.1877 82.1522C77.2476 82.1428 77.3051 82.1215 77.3566 82.0895C77.4081 82.0575 77.4527 82.0154 77.4877 81.9659C77.5227 81.9163 77.5473 81.8602 77.5602 81.8009C77.5748 81.7432 77.5778 81.6831 77.5689 81.6242C77.5601 81.5653 77.5396 81.5087 77.5088 81.4578C77.4474 81.354 77.3474 81.2787 77.2308 81.2484L72.7349 80.1124C72.694 80.1063 72.6523 80.1063 72.6114 80.1124Z" fill="white"/>
<path d="M87.7251 85.329H87.5054L82.8929 84.8965C82.5922 84.8701 82.2999 84.784 82.0329 84.6431C81.7659 84.5023 81.5298 84.3096 81.3382 84.0763C81.1448 83.8443 80.9992 83.5764 80.9097 83.2879C80.8201 82.9994 80.7885 82.6961 80.8166 82.3954C80.8446 82.0946 80.9318 81.8024 81.0732 81.5355C81.2145 81.2685 81.4073 81.0322 81.6402 80.84C81.8735 80.6454 82.1435 80.4996 82.4341 80.4112C82.7247 80.3228 83.0301 80.2935 83.3322 80.3252L87.9482 80.7576C88.5518 80.8175 89.1073 81.114 89.4931 81.5821C89.8789 82.0502 90.0638 82.6521 90.0073 83.2561C89.9537 83.8251 89.6903 84.3538 89.2685 84.7394C88.8467 85.1251 88.2966 85.3401 87.7251 85.3427V85.329ZM83.1057 82.1441C82.9991 82.145 82.8961 82.1825 82.814 82.2505C82.722 82.327 82.664 82.4368 82.6527 82.5559C82.6421 82.6764 82.6794 82.7961 82.7565 82.8892C82.8336 82.9824 82.9442 83.0414 83.0645 83.0536L87.677 83.4826C87.7383 83.4905 87.8005 83.4854 87.8596 83.4677C87.9187 83.4499 87.9735 83.4199 88.0202 83.3796C88.0667 83.3415 88.1051 83.2946 88.1334 83.2416C88.1617 83.1886 88.1792 83.1305 88.185 83.0707C88.1946 82.9509 88.1568 82.832 88.0798 82.7396C88.0029 82.6473 87.8928 82.5887 87.7731 82.5765L83.1572 82.1475L83.1057 82.1441Z" fill="white"/>
</g>
<path d="M60.6839 78.8564C59.7858 78.8588 58.9183 78.5301 58.2472 77.9332L56.8401 76.684C56.4747 76.3651 56.176 75.9771 55.9613 75.5422C55.7467 75.1073 55.6203 74.6342 55.5895 74.1502C55.5586 73.6663 55.624 73.1809 55.7817 72.7223C55.9395 72.2637 56.1865 71.8409 56.5085 71.4783C56.8306 71.1157 57.2213 70.8205 57.658 70.6097C58.0948 70.3989 58.569 70.2767 59.0532 70.2501C59.5375 70.2236 60.0222 70.2932 60.4794 70.455C60.9366 70.6168 61.3572 70.8676 61.7169 71.1928L63.124 72.4421C63.4849 72.7622 63.7792 73.1503 63.9901 73.5842C64.2009 74.0181 64.3242 74.4893 64.3529 74.9709C64.3816 75.4525 64.3151 75.935 64.1573 76.3909C63.9994 76.8467 63.7533 77.267 63.4329 77.6278C63.0881 78.0159 62.6646 78.3262 62.1907 78.538C61.7167 78.7498 61.2031 78.8584 60.6839 78.8564ZM59.2802 72.1057H59.167C58.8056 72.1271 58.4588 72.2552 58.1702 72.4738C57.8817 72.6925 57.6646 72.9918 57.5463 73.3339C57.4279 73.676 57.4138 74.0455 57.5056 74.3956C57.5974 74.7458 57.791 75.0608 58.0619 75.3009L59.469 76.5501C59.8325 76.8724 60.309 77.0375 60.794 77.0092C61.2791 76.9809 61.7331 76.7615 62.0567 76.3991C62.3777 76.0347 62.5417 75.5582 62.5127 75.0734C62.4838 74.5887 62.2643 74.135 61.9022 73.8114L60.4917 72.5622C60.154 72.2634 59.7174 72.1008 59.2665 72.1057H59.2802Z" fill="#263238"/>
<path d="M70.5483 83.414C70.1344 83.4133 69.7236 83.3425 69.3334 83.2046L67.5487 82.5834C66.6299 82.2599 65.8772 81.5845 65.4563 80.706C65.0354 79.8275 64.9807 78.8177 65.3043 77.8988C65.6278 76.98 66.3032 76.2273 67.1817 75.8064C68.0602 75.3855 69.07 75.3308 69.9889 75.6544L71.7666 76.279C72.6845 76.6039 73.4361 77.2794 73.8569 78.1575C74.2776 79.0356 74.333 80.0446 74.0111 80.9636C73.757 81.6792 73.2879 82.2988 72.668 82.7375C72.0481 83.1762 71.3077 83.4125 70.5483 83.414ZM68.774 77.2811C68.3966 77.2838 68.0292 77.4029 67.7221 77.6222C67.415 77.8415 67.1831 78.1503 67.058 78.5063C66.9776 78.733 66.9428 78.9733 66.9556 79.2134C66.9684 79.4535 67.0285 79.6888 67.1325 79.9056C67.2364 80.1225 67.3822 80.3167 67.5614 80.477C67.7406 80.6374 67.9498 80.7607 68.1768 80.84L69.9511 81.4681C70.409 81.6275 70.9114 81.5994 71.3486 81.3897C71.7858 81.1801 72.1224 80.8061 72.2848 80.3493C72.4463 79.891 72.4191 79.3873 72.2093 78.949C71.9995 78.5108 71.6242 78.1738 71.166 78.0121L69.3917 77.3875C69.193 77.3188 68.9842 77.284 68.774 77.2845V77.2811Z" fill="#263238"/>
<path d="M80.9977 85.8678C80.7766 85.8675 80.556 85.8469 80.3388 85.8061L78.4855 85.4629C77.77 85.3331 77.1092 84.9938 76.5867 84.488C76.0643 83.9823 75.7038 83.3328 75.5509 82.6219C75.398 81.911 75.4595 81.1707 75.7278 80.4948C75.9961 79.819 76.459 79.238 77.0578 78.8255C77.4534 78.5497 77.8998 78.3555 78.3712 78.2542C78.8426 78.1528 79.3295 78.1464 79.8034 78.2352L81.6532 78.5784C82.6114 78.7537 83.4608 79.3021 84.0148 80.1033C84.5689 80.9045 84.7823 81.8928 84.6081 82.8511C84.4528 83.6962 84.0068 84.4603 83.3475 85.0113C82.6881 85.5622 81.8569 85.8652 80.9977 85.8678ZM79.141 80.0335C78.7726 80.0344 78.4132 80.1482 78.1114 80.3596C77.8124 80.565 77.5812 80.8547 77.4472 81.1919C77.3133 81.5291 77.2826 81.8984 77.3591 82.2531C77.4357 82.6077 77.6159 82.9316 77.877 83.1836C78.138 83.4355 78.4681 83.6041 78.8253 83.668L80.6751 84.0111C81.1454 84.0811 81.6245 83.9655 82.0112 83.6888C82.3979 83.412 82.6619 82.9958 82.7474 82.5281C82.8329 82.0603 82.7333 81.5776 82.4696 81.182C82.2059 80.7863 81.7987 80.5086 81.334 80.4076L79.4808 80.0644C79.3691 80.0401 79.2553 80.0263 79.141 80.0232V80.0335Z" fill="#263238"/>
<g opacity="0.6">
<path d="M60.6839 78.8564C59.7858 78.8588 58.9183 78.5301 58.2472 77.9332L56.8401 76.684C56.4747 76.3651 56.176 75.9771 55.9613 75.5422C55.7467 75.1073 55.6203 74.6342 55.5895 74.1502C55.5586 73.6663 55.624 73.1809 55.7817 72.7223C55.9395 72.2637 56.1865 71.8409 56.5085 71.4783C56.8306 71.1157 57.2213 70.8205 57.658 70.6097C58.0948 70.3989 58.569 70.2767 59.0532 70.2501C59.5375 70.2236 60.0222 70.2932 60.4794 70.455C60.9366 70.6168 61.3572 70.8676 61.7169 71.1928L63.124 72.4421C63.4849 72.7622 63.7792 73.1503 63.9901 73.5842C64.2009 74.0181 64.3242 74.4893 64.3529 74.9709C64.3816 75.4525 64.3151 75.935 64.1573 76.3909C63.9994 76.8467 63.7533 77.267 63.4329 77.6278C63.0881 78.0159 62.6646 78.3262 62.1907 78.538C61.7167 78.7498 61.2031 78.8584 60.6839 78.8564ZM59.2802 72.1057H59.167C58.8056 72.1271 58.4588 72.2552 58.1702 72.4738C57.8817 72.6925 57.6646 72.9918 57.5463 73.3339C57.4279 73.676 57.4138 74.0455 57.5056 74.3956C57.5974 74.7458 57.791 75.0608 58.0619 75.3009L59.469 76.5501C59.8325 76.8724 60.309 77.0375 60.794 77.0092C61.2791 76.9809 61.7331 76.7615 62.0567 76.3991C62.3777 76.0347 62.5417 75.5582 62.5127 75.0734C62.4838 74.5887 62.2643 74.135 61.9022 73.8114L60.4917 72.5622C60.154 72.2634 59.7174 72.1008 59.2665 72.1057H59.2802Z" fill="white"/>
<path d="M70.5463 83.414C70.1324 83.4134 69.7216 83.3426 69.3314 83.2047L67.5468 82.5835C66.6279 82.2599 65.8753 81.5846 65.4543 80.7061C65.0334 79.8275 64.9787 78.8178 65.3023 77.8989C65.6259 76.98 66.3012 76.2274 67.1798 75.8064C68.0583 75.3855 69.068 75.3308 69.9869 75.6544L71.7647 76.279C72.6825 76.6039 73.4342 77.2794 73.8549 78.1575C74.2756 79.0356 74.3311 80.0447 74.0091 80.9636C73.7551 81.6793 73.2859 82.2989 72.666 82.7376C72.0461 83.1762 71.3057 83.4125 70.5463 83.414ZM68.772 77.2812C68.3946 77.2839 68.0273 77.403 67.7202 77.6223C67.413 77.8416 67.1811 78.1503 67.056 78.5064C66.9757 78.733 66.9409 78.9733 66.9537 79.2135C66.9665 79.4536 67.0266 79.6888 67.1305 79.9057C67.2345 80.1225 67.3802 80.3167 67.5595 80.4771C67.7387 80.6374 67.9478 80.7608 68.1748 80.8401L69.9492 81.4681C70.4071 81.6276 70.9094 81.5994 71.3467 81.3898C71.7839 81.1802 72.1204 80.8062 72.2829 80.3493C72.4443 79.891 72.4171 79.3874 72.2073 78.9491C71.9975 78.5108 71.6223 78.1738 71.1641 78.0122L69.3897 77.3875C69.191 77.3189 68.9822 77.2841 68.772 77.2846V77.2812Z" fill="white"/>
<path d="M80.9977 85.8679C80.7766 85.8676 80.556 85.8469 80.3388 85.8061L78.4855 85.4629C77.77 85.3331 77.1092 84.9939 76.5867 84.4881C76.0643 83.9823 75.7038 83.3328 75.5509 82.6219C75.398 81.911 75.4595 81.1707 75.7278 80.4949C75.9961 79.819 76.459 79.238 77.0578 78.8255C77.4534 78.5498 77.8998 78.3556 78.3712 78.2542C78.8426 78.1529 79.3295 78.1464 79.8034 78.2352L81.6532 78.5784C82.6114 78.7537 83.4608 79.3022 84.0148 80.1034C84.5689 80.9045 84.7823 81.8928 84.6081 82.8512C84.4528 83.6963 84.0068 84.4604 83.3475 85.0113C82.6881 85.5622 81.8569 85.8652 80.9977 85.8679ZM79.141 80.0336C78.7726 80.0344 78.4132 80.1482 78.1114 80.3596C77.8124 80.5651 77.5812 80.8548 77.4472 81.192C77.3133 81.5291 77.2826 81.8985 77.3591 82.2532C77.4357 82.6078 77.6159 82.9317 77.877 83.1836C78.138 83.4356 78.4681 83.6042 78.8253 83.668L80.6751 84.0112C81.1454 84.0811 81.6245 83.9655 82.0112 83.6888C82.3979 83.4121 82.6619 82.9959 82.7474 82.5281C82.8329 82.0604 82.7333 81.5777 82.4696 81.182C82.2059 80.7864 81.7987 80.5087 81.334 80.4077L79.4808 80.0645C79.3691 80.0401 79.2553 80.0263 79.141 80.0233V80.0336Z" fill="white"/>
</g>
<path d="M97.7496 85.6997C97.1465 85.7126 96.5626 85.4877 96.124 85.0736C95.6854 84.6595 95.4274 84.0894 95.4058 83.4866C95.3841 82.8838 95.6006 82.2967 96.0084 81.8522C96.4161 81.4076 96.9824 81.1415 97.5849 81.1112L102.208 80.768C102.815 80.7224 103.416 80.9202 103.878 81.3176C104.34 81.715 104.625 82.2796 104.67 82.8872C104.716 83.4947 104.518 84.0955 104.121 84.5573C103.723 85.0191 103.158 85.3041 102.551 85.3496L97.9315 85.6928L97.7496 85.6997ZM102.376 82.6109H102.342L97.7187 82.9541C97.5984 82.9626 97.4862 83.0181 97.4064 83.1085C97.326 83.204 97.2865 83.3273 97.2966 83.4517C97.3072 83.5713 97.3638 83.682 97.4545 83.7606C97.5005 83.8023 97.555 83.8337 97.6142 83.8526C97.6734 83.8716 97.7359 83.8777 97.7977 83.8704L102.42 83.5272C102.541 83.5187 102.653 83.4633 102.733 83.3728C102.773 83.3256 102.803 83.271 102.822 83.2121C102.841 83.1533 102.848 83.0912 102.843 83.0296C102.833 82.9146 102.78 82.8075 102.695 82.7298C102.61 82.6521 102.498 82.6097 102.383 82.6109H102.376Z" fill="#263238"/>
<path d="M107.671 83.414C107.175 83.4142 106.693 83.2539 106.295 82.9573C105.898 82.6606 105.607 82.2433 105.466 81.7677C105.325 81.2922 105.342 80.7838 105.513 80.3185C105.685 79.8532 106.003 79.4559 106.419 79.1858L110.314 76.6736C110.825 76.3432 111.447 76.2296 112.043 76.3576C112.638 76.4857 113.158 76.8451 113.488 77.3566C113.819 77.8681 113.933 78.49 113.804 79.0853C113.676 79.6807 113.317 80.2007 112.805 80.5311L108.914 83.0468C108.543 83.2859 108.112 83.4134 107.671 83.414ZM111.56 78.1459C111.472 78.146 111.386 78.1723 111.313 78.2214L107.421 80.7336C107.371 80.7659 107.327 80.8077 107.293 80.8567C107.259 80.9057 107.235 80.9609 107.222 81.0192C107.209 81.0775 107.208 81.1378 107.219 81.1966C107.229 81.2553 107.251 81.3114 107.283 81.3617C107.316 81.4119 107.358 81.4553 107.407 81.4894C107.456 81.5235 107.511 81.5476 107.569 81.5604C107.627 81.5731 107.688 81.5743 107.746 81.5637C107.805 81.5532 107.861 81.5312 107.912 81.499L111.821 78.9868C111.871 78.9544 111.914 78.9125 111.948 78.8634C111.982 78.8142 112.006 78.7589 112.018 78.7006C112.03 78.6422 112.031 78.582 112.02 78.5233C112.009 78.4646 111.987 78.4087 111.954 78.3587C111.889 78.2582 111.787 78.1869 111.67 78.1597C111.633 78.153 111.597 78.1496 111.56 78.1494V78.1459Z" fill="#263238"/>
<path d="M116.015 76.4815C115.575 76.4818 115.145 76.3561 114.775 76.1191C114.405 75.8821 114.11 75.5438 113.927 75.1445C113.743 74.7452 113.678 74.3016 113.739 73.8663C113.8 73.4311 113.985 73.0225 114.271 72.6892L117.288 69.1714C117.685 68.7098 118.249 68.4242 118.856 68.3773C119.463 68.3303 120.064 68.5258 120.528 68.9209C120.99 69.318 121.275 69.8822 121.322 70.4896C121.368 71.0971 121.171 71.698 120.775 72.1606L117.758 75.6818C117.543 75.9331 117.275 76.1347 116.974 76.2727C116.673 76.4108 116.346 76.482 116.015 76.4815ZM119.028 70.2113C118.963 70.2116 118.899 70.2258 118.839 70.2531C118.78 70.2803 118.727 70.3199 118.685 70.3692L115.665 73.8903C115.604 73.983 115.579 74.0947 115.594 74.2045C115.61 74.3143 115.665 74.4147 115.749 74.487C115.833 74.5593 115.94 74.5985 116.051 74.5974C116.162 74.5962 116.269 74.5547 116.351 74.4806L119.371 70.9629C119.427 70.8968 119.463 70.8161 119.475 70.7303C119.487 70.6444 119.474 70.557 119.438 70.4781C119.402 70.3993 119.345 70.3323 119.272 70.2851C119.199 70.2378 119.115 70.2122 119.028 70.2113Z" fill="#263238"/>
<g opacity="0.4">
<path d="M97.7496 85.6997C97.1465 85.7127 96.5626 85.4878 96.124 85.0737C95.6854 84.6596 95.4274 84.0895 95.4058 83.4867C95.3841 82.8838 95.6006 82.2967 96.0084 81.8522C96.4161 81.4077 96.9824 81.1415 97.5849 81.1112L102.208 80.768C102.815 80.7225 103.416 80.9202 103.878 81.3176C104.34 81.7151 104.625 82.2797 104.67 82.8872C104.716 83.4948 104.518 84.0956 104.121 84.5574C103.723 85.0192 103.158 85.3042 102.551 85.3497L97.9315 85.6929L97.7496 85.6997ZM102.376 82.611H102.342L97.7187 82.9542C97.5984 82.9627 97.4862 83.0182 97.4064 83.1086C97.326 83.2041 97.2865 83.3274 97.2966 83.4518C97.3072 83.5713 97.3638 83.682 97.4545 83.7607C97.5005 83.8024 97.555 83.8338 97.6142 83.8527C97.6734 83.8716 97.7359 83.8777 97.7977 83.8705L102.42 83.5273C102.541 83.5188 102.653 83.4633 102.733 83.3729C102.773 83.3257 102.803 83.2711 102.822 83.2122C102.841 83.1533 102.848 83.0913 102.843 83.0297C102.833 82.9147 102.78 82.8076 102.695 82.7299C102.61 82.6522 102.498 82.6097 102.383 82.611H102.376Z" fill="white"/>
<path d="M107.671 83.414C107.175 83.4142 106.693 83.254 106.295 82.9573C105.898 82.6606 105.607 82.2434 105.466 81.7678C105.325 81.2922 105.342 80.7839 105.513 80.3186C105.685 79.8532 106.003 79.4559 106.419 79.1859L110.314 76.6737C110.825 76.3433 111.447 76.2296 112.043 76.3577C112.638 76.4858 113.158 76.8451 113.488 77.3567C113.819 77.8682 113.933 78.49 113.804 79.0854C113.676 79.6807 113.317 80.2008 112.805 80.5312L108.914 83.0468C108.543 83.2859 108.112 83.4134 107.671 83.414ZM111.56 78.146C111.472 78.146 111.386 78.1723 111.313 78.2215L107.421 80.7337C107.371 80.7659 107.327 80.8077 107.293 80.8567C107.259 80.9057 107.235 80.961 107.222 81.0193C107.209 81.0776 107.208 81.1379 107.219 81.1966C107.229 81.2554 107.251 81.3115 107.283 81.3617C107.316 81.412 107.358 81.4554 107.407 81.4895C107.456 81.5236 107.511 81.5477 107.569 81.5604C107.627 81.5732 107.688 81.5743 107.746 81.5638C107.805 81.5532 107.861 81.5312 107.912 81.499L111.821 78.9868C111.871 78.9545 111.914 78.9125 111.948 78.8634C111.982 78.8143 112.006 78.759 112.018 78.7006C112.03 78.6423 112.031 78.582 112.02 78.5234C112.009 78.4647 111.987 78.4088 111.954 78.3588C111.889 78.2582 111.787 78.1869 111.67 78.1597C111.633 78.1531 111.597 78.1497 111.56 78.1494V78.146Z" fill="white"/>
<path d="M116.015 76.4815C115.575 76.4819 115.145 76.3561 114.775 76.1191C114.405 75.8822 114.11 75.5439 113.927 75.1446C113.743 74.7452 113.678 74.3016 113.739 73.8664C113.8 73.4311 113.985 73.0226 114.271 72.6892L117.288 69.1715C117.685 68.7098 118.249 68.4243 118.856 68.3773C119.463 68.3304 120.064 68.5258 120.528 68.9209C120.99 69.3181 121.275 69.8823 121.322 70.4897C121.368 71.0971 121.171 71.6981 120.775 72.1607L117.758 75.6819C117.543 75.9332 117.275 76.1348 116.974 76.2728C116.673 76.4108 116.346 76.482 116.015 76.4815ZM119.028 70.2114C118.963 70.2116 118.899 70.2259 118.839 70.2531C118.78 70.2804 118.727 70.3199 118.685 70.3692L115.665 73.8904C115.604 73.9831 115.579 74.0947 115.594 74.2046C115.61 74.3144 115.665 74.4148 115.749 74.4871C115.833 74.5594 115.94 74.5986 116.051 74.5974C116.162 74.5963 116.269 74.5548 116.351 74.4807L119.371 70.963C119.427 70.8968 119.463 70.8162 119.475 70.7303C119.487 70.6445 119.474 70.557 119.438 70.4782C119.402 70.3994 119.345 70.3324 119.272 70.2851C119.199 70.2379 119.115 70.2123 119.028 70.2114Z" fill="white"/>
</g>
<path d="M104.296 86.5337C103.443 86.5348 102.616 86.2387 101.957 85.6961C101.298 85.1535 100.849 84.3984 100.686 83.5605C100.524 82.7226 100.658 81.8543 101.067 81.1049C101.475 80.3554 102.131 79.7715 102.923 79.4536L104.667 78.7466C105.571 78.3826 106.582 78.3922 107.479 78.7731C108.376 79.154 109.085 79.8751 109.451 80.7783C109.814 81.6818 109.804 82.6924 109.423 83.5885C109.042 84.4846 108.322 85.1932 107.419 85.559L105.676 86.266C105.237 86.4423 104.769 86.5332 104.296 86.5337ZM106.043 80.3219C105.808 80.3224 105.575 80.3679 105.357 80.4557L103.613 81.1627C103.163 81.3447 102.804 81.6981 102.614 82.1451C102.425 82.5921 102.421 83.0961 102.603 83.5462C102.785 83.9963 103.138 84.3556 103.585 84.5452C104.032 84.7347 104.536 84.7389 104.986 84.5569L106.733 83.8499C106.957 83.7617 107.162 83.63 107.336 83.4624C107.509 83.2948 107.647 83.0945 107.743 82.8732C107.839 82.6518 107.89 82.4137 107.893 82.1726C107.896 81.9315 107.852 81.6921 107.763 81.4681C107.624 81.1274 107.386 80.8361 107.08 80.6317C106.775 80.4274 106.414 80.3195 106.047 80.3219H106.043Z" fill="#263238"/>
<path d="M113.008 80.6479C112.277 80.6478 111.563 80.4299 110.957 80.0218C110.351 79.6138 109.881 79.0343 109.606 78.3574C109.331 77.6805 109.264 76.9369 109.414 76.2219C109.564 75.5068 109.924 74.8528 110.448 74.3434L111.8 73.0289C112.499 72.3513 113.438 71.9786 114.412 71.9928C115.385 72.0069 116.313 72.4067 116.992 73.1044C117.672 73.8032 118.046 74.743 118.032 75.7174C118.018 76.6917 117.619 77.6208 116.92 78.3004L115.568 79.6114C114.883 80.2785 113.964 80.6506 113.008 80.6479ZM114.36 73.8355C113.884 73.8339 113.426 74.0186 113.083 74.3502L111.731 75.6647C111.406 76.0081 111.225 76.4641 111.228 76.9373C111.231 77.4105 111.417 77.8642 111.747 78.2035C112.077 78.5427 112.526 78.7412 112.998 78.7574C113.471 78.7735 113.932 78.6061 114.285 78.2901L115.633 76.9791C115.895 76.7257 116.075 76.3998 116.151 76.0432C116.226 75.6867 116.193 75.3158 116.057 74.978C115.92 74.6402 115.685 74.351 115.383 74.1474C115.081 73.9439 114.725 73.8352 114.36 73.8355Z" fill="#263238"/>
<g opacity="0.6">
<path d="M104.298 86.5336C103.445 86.5348 102.618 86.2386 101.959 85.696C101.3 85.1534 100.851 84.3983 100.688 83.5604C100.526 82.7226 100.66 81.8543 101.069 81.1048C101.477 80.3553 102.133 79.7714 102.925 79.4535L104.669 78.7465C105.573 78.3826 106.584 78.3921 107.481 78.773C108.378 79.1539 109.087 79.8751 109.453 80.7783C109.816 81.6818 109.806 82.6923 109.425 83.5884C109.044 84.4845 108.324 85.1931 107.421 85.559L105.678 86.2659C105.239 86.4423 104.771 86.5331 104.298 86.5336ZM106.045 80.3218C105.81 80.3224 105.577 80.3678 105.359 80.4557L103.615 81.1626C103.165 81.3447 102.806 81.6981 102.616 82.1451C102.427 82.5921 102.423 83.096 102.605 83.5461C102.787 83.9962 103.14 84.3556 103.587 84.5451C104.034 84.7347 104.538 84.7389 104.988 84.5568L106.735 83.8498C106.959 83.7617 107.164 83.63 107.338 83.4624C107.511 83.2947 107.649 83.0945 107.745 82.8731C107.841 82.6518 107.892 82.4137 107.895 82.1725C107.898 81.9314 107.854 81.692 107.764 81.4681C107.626 81.1273 107.388 80.836 107.082 80.6317C106.776 80.4273 106.416 80.3194 106.049 80.3218H106.045Z" fill="white"/>
<path d="M113.008 80.6479C112.277 80.6478 111.563 80.4299 110.957 80.0218C110.351 79.6138 109.881 79.0343 109.606 78.3574C109.331 77.6805 109.264 76.9369 109.414 76.2219C109.564 75.5068 109.924 74.8528 110.448 74.3434L111.8 73.0289C112.499 72.3513 113.438 71.9786 114.412 71.9928C115.385 72.0069 116.313 72.4067 116.992 73.1044C117.672 73.8032 118.046 74.743 118.032 75.7174C118.018 76.6917 117.619 77.6208 116.92 78.3004L115.568 79.6114C114.883 80.2785 113.964 80.6506 113.008 80.6479ZM114.36 73.8355C113.884 73.8339 113.426 74.0186 113.083 74.3502L111.731 75.6647C111.406 76.0081 111.225 76.4641 111.228 76.9373C111.231 77.4105 111.417 77.8642 111.747 78.2035C112.077 78.5427 112.526 78.7412 112.998 78.7574C113.471 78.7735 113.932 78.6061 114.285 78.2901L115.633 76.9791C115.895 76.7257 116.075 76.3998 116.151 76.0432C116.226 75.6867 116.193 75.3158 116.057 74.978C115.92 74.6402 115.685 74.351 115.383 74.1474C115.081 73.9439 114.725 73.8352 114.36 73.8355Z" fill="white"/>
</g>
<path d="M100.025 90.4358H97.7221V83.3762C97.7395 82.7224 97.6256 82.0718 97.3874 81.4627C97.1491 80.8536 96.7913 80.2983 96.335 79.8298C95.8787 79.3612 95.3331 78.9888 94.7305 78.7345C94.1279 78.4802 93.4805 78.3492 92.8265 78.3492C92.1724 78.3492 91.525 78.4802 90.9224 78.7345C90.3198 78.9888 89.7743 79.3612 89.318 79.8298C88.8616 80.2983 88.5038 80.8536 88.2656 81.4627C88.0273 82.0718 87.9135 82.7224 87.9308 83.3762V90.4358H85.6314V83.3762C85.5791 82.3988 85.7265 81.4209 86.0645 80.5022C86.4025 79.5836 86.9242 78.7434 87.5976 78.033C88.271 77.3226 89.0821 76.7568 89.9814 76.3701C90.8807 75.9835 91.8493 75.7841 92.8282 75.7841C93.8071 75.7841 94.7757 75.9835 95.675 76.3701C96.5742 76.7568 97.3853 77.3226 98.0587 78.033C98.7322 78.7434 99.2538 79.5836 99.5919 80.5022C99.9299 81.4209 100.077 82.3988 100.025 83.3762V90.4358Z" fill="#263238"/>
<g opacity="0.3">
<path d="M100.023 90.4358H97.7202V83.3762C97.7375 82.7224 97.6237 82.0718 97.3854 81.4627C97.1472 80.8536 96.7893 80.2983 96.333 79.8298C95.8767 79.3612 95.3312 78.9888 94.7286 78.7345C94.126 78.4802 93.4786 78.3492 92.8245 78.3492C92.1705 78.3492 91.5231 78.4802 90.9205 78.7345C90.3179 78.9888 89.7723 79.3612 89.316 79.8298C88.8597 80.2983 88.5018 80.8536 88.2636 81.4627C88.0254 82.0718 87.9115 82.7224 87.9288 83.3762V90.4358H85.6294V83.3762C85.5771 82.3988 85.7245 81.4209 86.0625 80.5022C86.4006 79.5836 86.9222 78.7434 87.5957 78.033C88.2691 77.3226 89.0802 76.7568 89.9795 76.3701C90.8787 75.9835 91.8474 75.7841 92.8262 75.7841C93.8051 75.7841 94.7737 75.9835 95.673 76.3701C96.5723 76.7568 97.3834 77.3226 98.0568 78.033C98.7302 78.7434 99.2519 79.5836 99.5899 80.5022C99.928 81.4209 100.075 82.3988 100.023 83.3762V90.4358Z" fill="white"/>
</g>
<path d="M102.44 88.6409V100.193C102.441 100.369 102.407 100.543 102.34 100.706C102.272 100.869 102.174 101.017 102.05 101.141C101.925 101.266 101.778 101.365 101.615 101.433C101.452 101.5 101.278 101.535 101.102 101.535H84.1104C83.9347 101.534 83.7607 101.499 83.5985 101.432C83.4363 101.364 83.289 101.265 83.165 101.14C83.041 101.016 82.9428 100.868 82.876 100.705C82.8091 100.543 82.7749 100.369 82.7754 100.193V88.6409C82.7749 88.4651 82.8091 88.291 82.876 88.1284C82.9428 87.9659 83.041 87.8181 83.165 87.6935C83.289 87.5689 83.4363 87.4699 83.5985 87.4022C83.7607 87.3345 83.9347 87.2995 84.1104 87.299H101.102C101.278 87.299 101.452 87.3337 101.615 87.4012C101.778 87.4687 101.925 87.5676 102.05 87.6922C102.174 87.8169 102.272 87.9649 102.34 88.1276C102.407 88.2904 102.441 88.4648 102.44 88.6409Z" fill="#263238"/>
<path opacity="0.2" d="M102.442 88.6409V100.193C102.442 100.369 102.408 100.543 102.341 100.706C102.274 100.869 102.175 101.017 102.051 101.141C101.927 101.266 101.779 101.365 101.616 101.433C101.454 101.5 101.279 101.535 101.103 101.535H88.7174C88.3621 101.534 88.0216 101.392 87.7707 101.14C87.5198 100.889 87.3789 100.548 87.3789 100.193V88.6409C87.3789 88.2856 87.5198 87.9448 87.7707 87.6933C88.0216 87.4417 88.3621 87.2999 88.7174 87.299H101.103C101.279 87.299 101.454 87.3337 101.616 87.4012C101.779 87.4687 101.927 87.5676 102.051 87.6922C102.175 87.8169 102.274 87.9649 102.341 88.1276C102.408 88.2904 102.442 88.4648 102.442 88.6409Z" fill="white"/>
<path d="M97.0618 92.9651C97.0618 91.5408 96.0974 90.3877 94.9134 90.3877C93.7294 90.3877 92.7616 91.5408 92.7616 92.9651C92.7433 93.4575 92.8656 93.9449 93.1141 94.3703C93.3627 94.7958 93.7273 95.1416 94.1652 95.3674L94.052 98.439H95.7679L95.5105 95.4224C95.9889 95.2199 96.3938 94.8759 96.6711 94.4367C96.9484 93.9975 97.0847 93.484 97.0618 92.9651Z" fill="#263238"/>
<path d="M118.64 73.0358H118.506C117.543 72.8918 116.677 72.3712 116.097 71.5887C115.518 70.8061 115.274 69.8255 115.417 68.8626L115.695 67.0024C115.839 66.0396 116.36 65.1733 117.142 64.5941C117.925 64.0149 118.905 63.7701 119.868 63.9137C119.988 63.9315 120.103 63.9727 120.207 64.0349C120.31 64.0972 120.401 64.1792 120.473 64.2764C120.545 64.3736 120.597 64.4841 120.626 64.6014C120.656 64.7188 120.662 64.8408 120.644 64.9604C120.626 65.0801 120.585 65.1951 120.523 65.2988C120.46 65.4025 120.378 65.493 120.281 65.565C120.184 65.6371 120.074 65.6892 119.956 65.7186C119.839 65.7479 119.717 65.7539 119.597 65.7361C119.357 65.6992 119.112 65.7106 118.876 65.7695C118.641 65.8285 118.419 65.9337 118.224 66.0792C118.03 66.2213 117.867 66.4008 117.743 66.6071C117.619 66.8134 117.538 67.0423 117.504 67.2804L117.226 69.1406C117.19 69.3783 117.202 69.6207 117.26 69.854C117.318 70.0872 117.422 70.3067 117.565 70.4998C117.708 70.693 117.888 70.856 118.094 70.9797C118.3 71.1033 118.529 71.1851 118.767 71.2203C119.002 71.2485 119.217 71.366 119.367 71.5486C119.517 71.7311 119.592 71.9646 119.575 72.2005C119.557 72.4364 119.45 72.6566 119.274 72.8154C119.099 72.9741 118.869 73.0592 118.633 73.053L118.64 73.0358Z" fill="#263238"/>
<g opacity="0.6">
<path d="M118.64 73.0358H118.506C117.543 72.8918 116.677 72.3712 116.097 71.5887C115.518 70.8061 115.274 69.8255 115.417 68.8626L115.695 67.0024C115.839 66.0396 116.36 65.1733 117.142 64.5941C117.925 64.0149 118.905 63.7701 119.868 63.9137C119.988 63.9315 120.103 63.9727 120.207 64.0349C120.31 64.0972 120.401 64.1792 120.473 64.2764C120.545 64.3736 120.597 64.4841 120.626 64.6014C120.656 64.7188 120.662 64.8408 120.644 64.9604C120.626 65.0801 120.585 65.1951 120.523 65.2988C120.46 65.4025 120.378 65.493 120.281 65.565C120.184 65.6371 120.074 65.6892 119.956 65.7186C119.839 65.7479 119.717 65.7539 119.597 65.7361C119.357 65.6992 119.112 65.7106 118.876 65.7695C118.641 65.8285 118.419 65.9337 118.224 66.0792C118.03 66.2213 117.867 66.4008 117.743 66.6071C117.619 66.8134 117.538 67.0423 117.504 67.2804L117.226 69.1406C117.19 69.3783 117.202 69.6207 117.26 69.854C117.318 70.0872 117.422 70.3067 117.565 70.4998C117.708 70.693 117.888 70.856 118.094 70.9797C118.3 71.1033 118.529 71.1851 118.767 71.2203C119.002 71.2485 119.217 71.366 119.367 71.5486C119.517 71.7311 119.592 71.9646 119.575 72.2005C119.557 72.4364 119.45 72.6566 119.274 72.8154C119.099 72.9741 118.869 73.0592 118.633 73.053L118.64 73.0358Z" fill="white"/>
</g>
<path d="M101.748 84.8109C101.564 84.8111 101.384 84.7563 101.232 84.6536C101.08 84.5508 100.962 84.4048 100.893 84.2343C100.712 83.7871 100.621 83.3085 100.625 82.826C100.629 82.3435 100.729 81.8665 100.917 81.4225C101.106 80.9784 101.38 80.5759 101.725 80.238C102.069 79.9002 102.477 79.6336 102.925 79.4536L104.668 78.7466C105.572 78.3826 106.584 78.3922 107.481 78.7731C108.377 79.154 109.087 79.8751 109.452 80.7783C109.543 81.0059 109.54 81.2603 109.444 81.4855C109.347 81.7108 109.165 81.8885 108.938 81.9795C108.71 82.0705 108.456 82.0674 108.23 81.9709C108.005 81.8743 107.828 81.6923 107.736 81.4647C107.646 81.2396 107.513 81.0346 107.343 80.8616C107.173 80.6886 106.97 80.551 106.747 80.4568C106.523 80.3626 106.283 80.3138 106.041 80.313C105.798 80.3122 105.558 80.3595 105.334 80.4523L103.591 81.1593C103.367 81.2478 103.162 81.3797 102.989 81.5474C102.816 81.7151 102.677 81.9153 102.582 82.1366C102.486 82.3578 102.435 82.5957 102.432 82.8367C102.428 83.0777 102.472 83.3171 102.561 83.541C102.652 83.7678 102.649 84.0212 102.554 84.2461C102.459 84.471 102.279 84.6493 102.053 84.7422C101.956 84.782 101.853 84.8052 101.748 84.8109Z" fill="#263238"/>
<path d="M111.035 79.8173C110.911 79.8171 110.79 79.7921 110.676 79.7437C110.563 79.6954 110.461 79.6247 110.376 79.5359C109.697 78.8378 109.323 77.8985 109.336 76.9247C109.35 75.951 109.75 75.0224 110.448 74.3434L111.8 73.0289C112.499 72.3513 113.438 71.9786 114.412 71.9928C115.385 72.0069 116.313 72.4067 116.992 73.1044C117.077 73.1912 117.143 73.2937 117.188 73.4061C117.232 73.5185 117.254 73.6386 117.253 73.7596C117.251 73.8805 117.225 73.9999 117.177 74.111C117.13 74.2221 117.06 74.3226 116.974 74.4069C116.887 74.4912 116.784 74.5575 116.672 74.6022C116.559 74.6468 116.439 74.6689 116.318 74.6672C116.197 74.6654 116.078 74.6399 115.967 74.592C115.856 74.5441 115.755 74.4748 115.671 74.388C115.333 74.0405 114.87 73.8414 114.385 73.8343C113.9 73.8272 113.432 74.0128 113.083 74.3502L111.731 75.6647C111.384 76.0036 111.186 76.4664 111.179 76.9514C111.173 77.4365 111.359 77.9043 111.697 78.2524C111.823 78.3826 111.908 78.547 111.941 78.7251C111.974 78.9032 111.954 79.0871 111.883 79.254C111.813 79.4208 111.695 79.5632 111.544 79.6634C111.393 79.7635 111.216 79.8171 111.035 79.8173Z" fill="#263238"/>
<g opacity="0.6">
<path d="M101.746 84.8108C101.562 84.811 101.382 84.7563 101.23 84.6535C101.078 84.5507 100.96 84.4047 100.891 84.2342C100.71 83.787 100.619 83.3084 100.623 82.8259C100.627 82.3434 100.727 81.8665 100.915 81.4224C101.104 80.9783 101.379 80.5758 101.723 80.238C102.068 79.9001 102.475 79.6336 102.923 79.4535L104.666 78.7465C105.57 78.3826 106.582 78.3921 107.479 78.773C108.376 79.1539 109.085 79.8751 109.451 80.7783C109.542 81.0058 109.538 81.2602 109.442 81.4855C109.345 81.7107 109.163 81.8884 108.936 81.9794C108.708 82.0705 108.454 82.0674 108.228 81.9708C108.003 81.8743 107.826 81.6922 107.735 81.4647C107.644 81.2395 107.511 81.0345 107.341 80.8615C107.171 80.6885 106.968 80.5509 106.745 80.4567C106.521 80.3626 106.281 80.3137 106.039 80.3129C105.796 80.3121 105.556 80.3595 105.332 80.4522L103.589 81.1592C103.365 81.2478 103.16 81.3797 102.987 81.5474C102.814 81.7151 102.675 81.9153 102.58 82.1365C102.484 82.3577 102.433 82.5957 102.43 82.8367C102.426 83.0777 102.47 83.317 102.559 83.541C102.65 83.7677 102.647 84.0211 102.552 84.2461C102.457 84.471 102.277 84.6493 102.051 84.7422C101.954 84.7819 101.851 84.8051 101.746 84.8108Z" fill="white"/>
<path d="M111.033 79.8173C110.909 79.8171 110.788 79.7921 110.674 79.7437C110.561 79.6954 110.459 79.6247 110.374 79.5359C109.695 78.8378 109.321 77.8985 109.334 76.9247C109.348 75.951 109.748 75.0224 110.446 74.3434L111.798 73.0289C112.497 72.3513 113.436 71.9786 114.41 71.9928C115.383 72.0069 116.311 72.4067 116.99 73.1044C117.075 73.1912 117.141 73.2937 117.186 73.4061C117.23 73.5185 117.252 73.6386 117.251 73.7596C117.249 73.8805 117.223 73.9999 117.176 74.111C117.128 74.2221 117.058 74.3226 116.972 74.4069C116.885 74.4912 116.782 74.5575 116.67 74.6022C116.557 74.6468 116.437 74.6689 116.316 74.6672C116.196 74.6654 116.076 74.6399 115.965 74.592C115.854 74.5441 115.753 74.4748 115.669 74.388C115.331 74.0405 114.868 73.8414 114.383 73.8343C113.898 73.8272 113.43 74.0128 113.081 74.3502L111.729 75.6647C111.382 76.0036 111.184 76.4664 111.177 76.9514C111.171 77.4365 111.357 77.9043 111.695 78.2524C111.821 78.3826 111.906 78.547 111.939 78.7251C111.972 78.9032 111.952 79.0871 111.881 79.254C111.811 79.4208 111.693 79.5632 111.542 79.6634C111.391 79.7635 111.214 79.8171 111.033 79.8173Z" fill="white"/>
</g>
<path d="M107.671 83.414C107.286 83.4145 106.907 83.3187 106.569 83.1353C106.231 82.9518 105.944 82.6866 105.735 82.3638C105.669 82.2622 105.625 82.1486 105.603 82.0296C105.581 81.9107 105.583 81.7886 105.609 81.6703C105.634 81.5521 105.683 81.44 105.751 81.3406C105.82 81.2411 105.908 81.1561 106.01 81.0906C106.111 81.025 106.225 80.9801 106.344 80.9584C106.463 80.9367 106.585 80.9386 106.703 80.9641C106.821 80.9896 106.933 81.0382 107.033 81.107C107.132 81.1758 107.217 81.2635 107.283 81.3651C107.349 81.4649 107.452 81.5348 107.57 81.5598C107.687 81.5848 107.809 81.563 107.911 81.499L111.82 78.9868C111.87 78.9544 111.913 78.9125 111.947 78.8634C111.981 78.8142 112.005 78.7589 112.017 78.7006C112.03 78.6422 112.031 78.582 112.02 78.5233C112.009 78.4646 111.986 78.4087 111.954 78.3587C111.888 78.2571 111.843 78.1435 111.822 78.0246C111.8 77.9056 111.802 77.7835 111.827 77.6652C111.853 77.547 111.901 77.435 111.97 77.3355C112.039 77.236 112.127 77.151 112.228 77.0855C112.33 77.0199 112.443 76.975 112.562 76.9533C112.681 76.9316 112.804 76.9336 112.922 76.959C113.04 76.9845 113.152 77.0331 113.252 77.1019C113.351 77.1707 113.436 77.2584 113.502 77.36C113.665 77.6135 113.777 77.8967 113.831 78.1935C113.885 78.4902 113.88 78.7947 113.816 79.0895C113.752 79.3843 113.631 79.6637 113.459 79.9116C113.288 80.1596 113.069 80.3713 112.815 80.5346L108.923 83.0502C108.55 83.29 108.115 83.4164 107.671 83.414Z" fill="#263238"/>
<path d="M116.013 76.4815C115.464 76.4826 114.933 76.2866 114.517 75.9289C114.342 75.7665 114.237 75.5429 114.224 75.305C114.211 75.067 114.29 74.8331 114.445 74.6522C114.6 74.4713 114.819 74.3574 115.057 74.3344C115.294 74.3114 115.531 74.381 115.718 74.5287C115.763 74.5679 115.816 74.5978 115.872 74.6167C115.929 74.6355 115.989 74.6429 116.049 74.6384C116.108 74.634 116.167 74.6177 116.22 74.5907C116.273 74.5636 116.321 74.5262 116.36 74.4807L119.37 70.9629C119.447 70.8708 119.486 70.7517 119.476 70.6314C119.467 70.5111 119.41 70.3996 119.318 70.3211C119.144 70.1587 119.039 69.9351 119.025 69.6972C119.012 69.4592 119.091 69.2253 119.246 69.0444C119.402 68.8635 119.621 68.7496 119.858 68.7266C120.095 68.7036 120.332 68.7732 120.519 68.9209C120.981 69.318 121.267 69.8822 121.313 70.4897C121.359 71.0971 121.163 71.6981 120.766 72.1607L117.75 75.6818C117.535 75.9322 117.268 76.1333 116.969 76.2713C116.669 76.4093 116.343 76.481 116.013 76.4815Z" fill="#263238"/>
<path d="M97.7486 85.6996C97.1686 85.7003 96.61 85.4811 96.1853 85.0863C95.7605 84.6914 95.5011 84.1503 95.4595 83.5718C95.4507 83.4513 95.4657 83.3302 95.5037 83.2154C95.5418 83.1007 95.602 82.9945 95.681 82.9031C95.7601 82.8116 95.8563 82.7366 95.9644 82.6824C96.0724 82.6281 96.19 82.5957 96.3106 82.5869C96.4311 82.5781 96.5523 82.5931 96.667 82.6311C96.7818 82.6692 96.8879 82.7294 96.9793 82.8084C97.0708 82.8875 97.1458 82.9837 97.2001 83.0918C97.2543 83.1998 97.2868 83.3174 97.2956 83.438C97.3062 83.5575 97.3628 83.6682 97.4534 83.7469C97.4995 83.7886 97.554 83.82 97.6131 83.8389C97.6723 83.8578 97.7349 83.8639 97.7966 83.8567L102.419 83.5135C102.54 83.505 102.652 83.4495 102.732 83.3591C102.772 83.3119 102.802 83.2573 102.821 83.1984C102.84 83.1395 102.847 83.0775 102.842 83.0159C102.833 82.8953 102.847 82.7741 102.885 82.6593C102.923 82.5445 102.983 82.4382 103.062 82.3466C103.141 82.255 103.237 82.1798 103.345 82.1253C103.453 82.0709 103.57 82.0382 103.691 82.0292C103.812 82.0202 103.933 82.035 104.048 82.0728C104.162 82.1106 104.269 82.1707 104.36 82.2495C104.452 82.3284 104.527 82.4246 104.582 82.5325C104.636 82.6404 104.669 82.758 104.678 82.8786C104.7 83.1797 104.663 83.4823 104.568 83.7691C104.474 84.0558 104.323 84.3211 104.126 84.5496C103.929 84.7782 103.688 84.9656 103.418 85.1011C103.148 85.2366 102.854 85.3176 102.553 85.3393L97.9339 85.6825L97.7486 85.6996Z" fill="#263238"/>
<g opacity="0.5">
<path d="M107.673 83.414C107.288 83.4145 106.909 83.3187 106.571 83.1353C106.233 82.9518 105.946 82.6866 105.737 82.3638C105.671 82.2622 105.626 82.1486 105.605 82.0296C105.583 81.9107 105.585 81.7886 105.611 81.6703C105.636 81.5521 105.685 81.44 105.753 81.3406C105.822 81.2411 105.91 81.1561 106.012 81.0906C106.113 81.025 106.227 80.9801 106.346 80.9584C106.465 80.9367 106.587 80.9386 106.705 80.9641C106.823 80.9896 106.935 81.0382 107.035 81.107C107.134 81.1758 107.219 81.2635 107.285 81.3651C107.351 81.4649 107.454 81.5348 107.572 81.5598C107.689 81.5848 107.811 81.563 107.913 81.499L111.822 78.9868C111.872 78.9544 111.915 78.9125 111.949 78.8634C111.983 78.8142 112.007 78.7589 112.019 78.7006C112.032 78.6422 112.032 78.582 112.022 78.5233C112.011 78.4646 111.988 78.4087 111.956 78.3587C111.89 78.2571 111.845 78.1435 111.823 78.0246C111.802 77.9056 111.804 77.7835 111.829 77.6652C111.855 77.547 111.903 77.435 111.972 77.3355C112.041 77.236 112.129 77.151 112.23 77.0855C112.332 77.0199 112.445 76.975 112.564 76.9533C112.683 76.9316 112.805 76.9336 112.924 76.959C113.042 76.9845 113.154 77.0331 113.253 77.1019C113.353 77.1707 113.438 77.2584 113.503 77.36C113.667 77.6135 113.779 77.8967 113.833 78.1935C113.887 78.4902 113.882 78.7947 113.818 79.0895C113.754 79.3843 113.633 79.6637 113.461 79.9116C113.29 80.1596 113.071 80.3713 112.817 80.5346L108.925 83.0502C108.552 83.29 108.117 83.4164 107.673 83.414Z" fill="white"/>
<path d="M116.015 76.4815C115.466 76.4826 114.935 76.2866 114.519 75.9289C114.344 75.7665 114.239 75.5429 114.226 75.305C114.213 75.067 114.292 74.8331 114.447 74.6522C114.602 74.4713 114.821 74.3574 115.059 74.3344C115.296 74.3114 115.533 74.381 115.72 74.5287C115.765 74.5679 115.818 74.5978 115.874 74.6167C115.931 74.6355 115.991 74.6429 116.051 74.6384C116.11 74.634 116.169 74.6177 116.222 74.5907C116.275 74.5636 116.323 74.5262 116.362 74.4807L119.371 70.9629C119.449 70.8708 119.488 70.7517 119.478 70.6314C119.468 70.5111 119.412 70.3996 119.32 70.3211C119.146 70.1587 119.041 69.9351 119.027 69.6972C119.014 69.4592 119.093 69.2253 119.248 69.0444C119.404 68.8635 119.623 68.7496 119.86 68.7266C120.097 68.7036 120.334 68.7732 120.521 68.9209C120.983 69.318 121.269 69.8822 121.315 70.4897C121.361 71.0971 121.165 71.6981 120.768 72.1607L117.752 75.6818C117.537 75.9322 117.27 76.1333 116.971 76.2713C116.671 76.4093 116.345 76.481 116.015 76.4815Z" fill="white"/>
<path d="M97.7505 85.6996C97.1706 85.7003 96.612 85.4811 96.1872 85.0863C95.7624 84.6914 95.5031 84.1503 95.4614 83.5718C95.4526 83.4513 95.4677 83.3302 95.5057 83.2154C95.5437 83.1007 95.604 82.9945 95.683 82.9031C95.762 82.8116 95.8583 82.7366 95.9663 82.6824C96.0743 82.6281 96.192 82.5957 96.3125 82.5869C96.4331 82.5781 96.5542 82.5931 96.669 82.6311C96.7837 82.6692 96.8898 82.7294 96.9813 82.8084C97.0728 82.8875 97.1478 82.9837 97.202 83.0918C97.2563 83.1998 97.2887 83.3174 97.2975 83.438C97.3082 83.5575 97.3647 83.6682 97.4554 83.7469C97.5014 83.7886 97.5559 83.82 97.6151 83.8389C97.6743 83.8578 97.7368 83.8639 97.7986 83.8567L102.421 83.5135C102.542 83.505 102.654 83.4495 102.734 83.3591C102.774 83.3119 102.804 83.2573 102.823 83.1984C102.842 83.1395 102.849 83.0775 102.844 83.0159C102.835 82.8953 102.849 82.7741 102.887 82.6593C102.925 82.5445 102.985 82.4382 103.064 82.3466C103.143 82.255 103.239 82.1798 103.347 82.1253C103.455 82.0709 103.572 82.0382 103.693 82.0292C103.814 82.0202 103.935 82.035 104.049 82.0728C104.164 82.1106 104.271 82.1707 104.362 82.2495C104.454 82.3284 104.529 82.4246 104.583 82.5325C104.638 82.6404 104.671 82.758 104.68 82.8786C104.702 83.1797 104.665 83.4823 104.57 83.7691C104.476 84.0558 104.325 84.3211 104.128 84.5496C103.931 84.7782 103.69 84.9656 103.42 85.1011C103.15 85.2366 102.856 85.3176 102.555 85.3393L97.9359 85.6825L97.7505 85.6996Z" fill="white"/>
</g>
<path d="M120.452 66.9921C120.291 66.9914 120.134 66.9487 119.995 66.8683C119.856 66.7879 119.741 66.6726 119.661 66.5338C119.58 66.3951 119.537 66.2377 119.536 66.0772C119.536 65.9168 119.577 65.759 119.656 65.6193C119.897 65.1985 119.963 64.6991 119.837 64.2303C119.712 63.7615 119.406 63.3614 118.986 63.1175C118.882 63.0571 118.79 62.9766 118.716 62.8807C118.642 62.7848 118.588 62.6754 118.557 62.5586C118.526 62.4418 118.517 62.3199 118.533 62.2C118.549 62.0801 118.588 61.9644 118.648 61.8596C118.709 61.7549 118.789 61.663 118.885 61.5893C118.981 61.5156 119.091 61.4615 119.207 61.4301C119.324 61.3987 119.446 61.3907 119.566 61.4063C119.686 61.422 119.801 61.4612 119.906 61.5216C120.324 61.7626 120.69 62.0836 120.984 62.4662C121.278 62.8489 121.494 63.2857 121.618 63.7516C121.743 64.2176 121.775 64.7036 121.712 65.1819C121.649 65.6602 121.493 66.1213 121.252 66.5391C121.169 66.6776 121.052 66.7923 120.912 66.8717C120.772 66.9512 120.613 66.9927 120.452 66.9921Z" fill="#263238"/>
<g opacity="0.5">
<path d="M120.452 66.9921C120.291 66.9914 120.134 66.9487 119.995 66.8683C119.856 66.7879 119.741 66.6726 119.661 66.5338C119.58 66.3951 119.537 66.2377 119.536 66.0772C119.536 65.9168 119.577 65.759 119.656 65.6193C119.897 65.1985 119.963 64.6991 119.837 64.2303C119.712 63.7615 119.406 63.3614 118.986 63.1175C118.882 63.0571 118.79 62.9766 118.716 62.8807C118.642 62.7848 118.588 62.6754 118.557 62.5586C118.526 62.4418 118.517 62.3199 118.533 62.2C118.549 62.0801 118.588 61.9644 118.648 61.8596C118.709 61.7549 118.789 61.663 118.885 61.5893C118.981 61.5156 119.091 61.4615 119.207 61.4301C119.324 61.3987 119.446 61.3907 119.566 61.4063C119.686 61.422 119.801 61.4612 119.906 61.5216C120.324 61.7626 120.69 62.0836 120.984 62.4662C121.278 62.8489 121.494 63.2857 121.618 63.7516C121.743 64.2176 121.775 64.7036 121.712 65.1819C121.649 65.6602 121.493 66.1213 121.252 66.5391C121.169 66.6776 121.052 66.7923 120.912 66.8717C120.772 66.9512 120.613 66.9927 120.452 66.9921Z" fill="white"/>
</g>
<path d="M60.6827 78.8564C59.7846 78.8588 58.9171 78.5301 58.246 77.9332L56.8389 76.6839C56.478 76.3638 56.1837 75.9757 55.9729 75.5418C55.762 75.1079 55.6387 74.6367 55.61 74.1551C55.5813 73.6735 55.6478 73.191 55.8057 72.7351C55.9635 72.2793 56.2097 71.859 56.53 71.4983C56.6084 71.4019 56.7055 71.3225 56.8155 71.2647C56.9254 71.2069 57.0459 71.172 57.1697 71.162C57.2935 71.1521 57.4181 71.1673 57.5358 71.2068C57.6536 71.2463 57.7621 71.3092 57.8549 71.3918C57.9477 71.4743 58.0228 71.5748 58.0757 71.6872C58.1285 71.7996 58.1581 71.9215 58.1626 72.0457C58.1671 72.1698 58.1464 72.2935 58.1017 72.4094C58.0571 72.5253 57.9894 72.631 57.9028 72.72C57.5811 73.0834 57.4167 73.5596 57.4457 74.0441C57.4746 74.5286 57.6946 74.9818 58.0572 75.3043L59.4643 76.5535C59.6444 76.7133 59.8541 76.8361 60.0816 76.9149C60.3091 76.9936 60.5499 77.0267 60.7902 77.0124C61.0305 76.998 61.2656 76.9365 61.4821 76.8313C61.6986 76.726 61.8923 76.5792 62.052 76.3991C62.1325 76.3089 62.2299 76.2355 62.3387 76.1831C62.4475 76.1306 62.5656 76.1 62.6863 76.0932C62.8069 76.0863 62.9277 76.1033 63.0417 76.1431C63.1558 76.1829 63.2609 76.2449 63.351 76.3253C63.4412 76.4058 63.5146 76.5032 63.5671 76.612C63.6196 76.7208 63.6501 76.8389 63.657 76.9595C63.6638 77.0801 63.6468 77.2009 63.607 77.315C63.5672 77.4291 63.5053 77.5342 63.4248 77.6243C63.0811 78.0122 62.6589 78.3226 62.1861 78.535C61.7134 78.7474 61.2009 78.8569 60.6827 78.8564Z" fill="#263238"/>
<path d="M70.5466 83.414C70.1327 83.4133 69.7219 83.3425 69.3317 83.2047L67.547 82.5835C67.092 82.4233 66.673 82.1751 66.3139 81.853C65.9548 81.5309 65.6627 81.1412 65.4542 80.7062C65.2458 80.2711 65.1251 79.7993 65.0991 79.3176C65.0731 78.8359 65.1422 78.3538 65.3026 77.8989C65.392 77.6795 65.5624 77.5029 65.7785 77.4056C65.9945 77.3084 66.2397 77.2979 66.4632 77.3764C66.6868 77.4549 66.8716 77.6163 66.9794 77.8273C67.0873 78.0382 67.1099 78.2826 67.0425 78.5097C66.9622 78.7364 66.9274 78.9767 66.9402 79.2168C66.953 79.457 67.0131 79.6922 67.117 79.9091C67.221 80.1259 67.3668 80.3201 67.546 80.4804C67.7252 80.6408 67.9343 80.7642 68.1614 80.8435L69.9357 81.4715C70.3936 81.6309 70.896 81.6028 71.3332 81.3932C71.7704 81.1836 72.1069 80.8095 72.2694 80.3527C72.3589 80.1333 72.5293 79.9567 72.7453 79.8595C72.9614 79.7622 73.2065 79.7518 73.4301 79.8302C73.6536 79.9087 73.8384 80.0702 73.9463 80.2811C74.0541 80.4921 74.0767 80.7364 74.0094 80.9636C73.7553 81.6792 73.2862 82.2988 72.6663 82.7375C72.0464 83.1762 71.306 83.4125 70.5466 83.414Z" fill="#263238"/>
<path d="M80.9985 85.8679C80.7774 85.8676 80.5568 85.8469 80.3395 85.8061L78.4863 85.4629C77.5283 85.286 76.6794 84.7366 76.1256 83.9351C75.5718 83.1337 75.3581 82.1454 75.5314 81.1867C75.5769 80.9464 75.716 80.734 75.9181 80.5963C76.1202 80.4586 76.3687 80.4068 76.609 80.4523C76.8493 80.4978 77.0617 80.6369 77.1994 80.839C77.3372 81.0411 77.389 81.2896 77.3435 81.5299C77.2583 82.008 77.3657 82.5004 77.6421 82.8996C77.9186 83.2989 78.3417 83.5726 78.8192 83.6611L80.669 84.0043C81.1468 84.0914 81.6397 83.9853 82.0393 83.7092C82.4389 83.4332 82.7126 83.0098 82.8003 82.532C82.8458 82.2917 82.9849 82.0794 83.187 81.9416C83.3891 81.8039 83.6376 81.7521 83.8779 81.7976C84.1182 81.8431 84.3306 81.9822 84.4683 82.1843C84.606 82.3864 84.6578 82.6349 84.6123 82.8752C84.4519 83.7164 84.0033 84.4754 83.3437 85.0216C82.6842 85.5678 81.8549 85.8671 80.9985 85.8679Z" fill="#263238"/>
<path d="M60.6827 78.8564C59.7846 78.8588 58.9171 78.5301 58.246 77.9332L56.8389 76.6839C56.478 76.3638 56.1837 75.9757 55.9729 75.5418C55.762 75.1079 55.6387 74.6367 55.61 74.1551C55.5813 73.6735 55.6478 73.191 55.8057 72.7351C55.9635 72.2793 56.2097 71.859 56.53 71.4983C56.6084 71.4019 56.7055 71.3225 56.8155 71.2647C56.9254 71.2069 57.0459 71.172 57.1697 71.162C57.2935 71.1521 57.4181 71.1673 57.5358 71.2068C57.6536 71.2463 57.7621 71.3092 57.8549 71.3918C57.9477 71.4743 58.0228 71.5748 58.0757 71.6872C58.1285 71.7996 58.1581 71.9215 58.1626 72.0457C58.1671 72.1698 58.1464 72.2935 58.1017 72.4094C58.0571 72.5253 57.9894 72.631 57.9028 72.72C57.5811 73.0834 57.4167 73.5596 57.4457 74.0441C57.4746 74.5286 57.6946 74.9818 58.0572 75.3043L59.4643 76.5535C59.6444 76.7133 59.8541 76.8361 60.0816 76.9149C60.3091 76.9936 60.5499 77.0267 60.7902 77.0124C61.0305 76.998 61.2656 76.9365 61.4821 76.8313C61.6986 76.726 61.8923 76.5792 62.052 76.3991C62.1325 76.3089 62.2299 76.2355 62.3387 76.1831C62.4475 76.1306 62.5656 76.1 62.6863 76.0932C62.8069 76.0863 62.9277 76.1033 63.0417 76.1431C63.1558 76.1829 63.2609 76.2449 63.351 76.3253C63.4412 76.4058 63.5146 76.5032 63.5671 76.612C63.6196 76.7208 63.6501 76.8389 63.657 76.9595C63.6638 77.0801 63.6468 77.2009 63.607 77.315C63.5672 77.4291 63.5053 77.5342 63.4248 77.6243C63.0811 78.0122 62.6589 78.3226 62.1861 78.535C61.7134 78.7474 61.2009 78.8569 60.6827 78.8564Z" fill="#263238"/>
<path d="M70.5466 83.414C70.1327 83.4133 69.7219 83.3425 69.3317 83.2047L67.547 82.5835C67.092 82.4233 66.673 82.1751 66.3139 81.853C65.9548 81.5309 65.6627 81.1412 65.4542 80.7062C65.2458 80.2711 65.1251 79.7993 65.0991 79.3176C65.0731 78.8359 65.1422 78.3538 65.3026 77.8989C65.392 77.6795 65.5624 77.5029 65.7785 77.4056C65.9945 77.3084 66.2397 77.2979 66.4632 77.3764C66.6868 77.4549 66.8716 77.6163 66.9794 77.8273C67.0873 78.0382 67.1099 78.2826 67.0425 78.5097C66.9622 78.7364 66.9274 78.9767 66.9402 79.2168C66.953 79.457 67.0131 79.6922 67.117 79.9091C67.221 80.1259 67.3668 80.3201 67.546 80.4804C67.7252 80.6408 67.9343 80.7642 68.1614 80.8435L69.9357 81.4715C70.3936 81.6309 70.896 81.6028 71.3332 81.3932C71.7704 81.1836 72.1069 80.8095 72.2694 80.3527C72.3589 80.1333 72.5293 79.9567 72.7453 79.8595C72.9614 79.7622 73.2065 79.7518 73.4301 79.8302C73.6536 79.9087 73.8384 80.0702 73.9463 80.2811C74.0541 80.4921 74.0767 80.7364 74.0094 80.9636C73.7553 81.6792 73.2862 82.2988 72.6663 82.7375C72.0464 83.1762 71.306 83.4125 70.5466 83.414Z" fill="#263238"/>
<path d="M80.9985 85.8679C80.7774 85.8676 80.5568 85.8469 80.3395 85.8061L78.4863 85.4629C77.5283 85.286 76.6794 84.7366 76.1256 83.9351C75.5718 83.1337 75.3581 82.1454 75.5314 81.1867C75.5769 80.9464 75.716 80.734 75.9181 80.5963C76.1202 80.4586 76.3687 80.4068 76.609 80.4523C76.8493 80.4978 77.0617 80.6369 77.1994 80.839C77.3372 81.0411 77.389 81.2896 77.3435 81.5299C77.2583 82.008 77.3657 82.5004 77.6421 82.8996C77.9186 83.2989 78.3417 83.5726 78.8192 83.6611L80.669 84.0043C81.1468 84.0914 81.6397 83.9853 82.0393 83.7092C82.4389 83.4332 82.7126 83.0098 82.8003 82.532C82.8458 82.2917 82.9849 82.0794 83.187 81.9416C83.3891 81.8039 83.6376 81.7521 83.8779 81.7976C84.1182 81.8431 84.3306 81.9822 84.4683 82.1843C84.606 82.3864 84.6578 82.6349 84.6123 82.8752C84.4519 83.7164 84.0033 84.4754 83.3437 85.0216C82.6842 85.5678 81.8549 85.8671 80.9985 85.8679Z" fill="#263238"/>
<g opacity="0.6">
<path d="M60.6846 78.8564C59.7865 78.8588 58.919 78.5301 58.248 77.9332L56.8409 76.684C56.48 76.3639 56.1857 75.9758 55.9748 75.5419C55.7639 75.1079 55.6406 74.6367 55.612 74.1552C55.5833 73.6736 55.6498 73.1911 55.8076 72.7352C55.9655 72.2793 56.2116 71.859 56.532 71.4983C56.6104 71.402 56.7075 71.3225 56.8174 71.2647C56.9274 71.207 57.0479 71.172 57.1717 71.1621C57.2955 71.1521 57.42 71.1673 57.5378 71.2068C57.6555 71.2463 57.7641 71.3092 57.8569 71.3918C57.9496 71.4744 58.0247 71.5749 58.0776 71.6873C58.1305 71.7997 58.1601 71.9216 58.1645 72.0457C58.169 72.1698 58.1483 72.2936 58.1037 72.4095C58.059 72.5254 57.9914 72.6311 57.9048 72.7201C57.5831 73.0835 57.4187 73.5597 57.4476 74.0442C57.4766 74.5286 57.6965 74.9818 58.0592 75.3044L59.4663 76.5536C59.6463 76.7134 59.8561 76.8362 60.0836 76.9149C60.3111 76.9936 60.5518 77.0268 60.7921 77.0124C61.0324 76.9981 61.2676 76.9366 61.4841 76.8313C61.7006 76.7261 61.8942 76.5792 62.054 76.3991C62.1344 76.309 62.2319 76.2356 62.3407 76.1831C62.4495 76.1306 62.5676 76.1001 62.6882 76.0932C62.8088 76.0864 62.9296 76.1033 63.0437 76.1432C63.1577 76.183 63.2628 76.2449 63.353 76.3254C63.4431 76.4058 63.5165 76.5032 63.569 76.612C63.6215 76.7209 63.6521 76.839 63.6589 76.9596C63.6658 77.0802 63.6488 77.201 63.609 77.3151C63.5691 77.4291 63.5072 77.5342 63.4268 77.6244C63.083 78.0122 62.6608 78.3227 62.1881 78.5351C61.7154 78.7475 61.2029 78.857 60.6846 78.8564Z" fill="white"/>
<path d="M70.5485 83.4141C70.1346 83.4134 69.7239 83.3426 69.3336 83.2047L67.549 82.5835C67.094 82.4234 66.6749 82.1752 66.3158 81.8531C65.9567 81.531 65.6646 81.1413 65.4562 80.7062C65.2478 80.2712 65.1271 79.7994 65.1011 79.3177C65.075 78.836 65.1442 78.3539 65.3045 77.8989C65.394 77.6795 65.5644 77.5029 65.7804 77.4057C65.9964 77.3084 66.2416 77.298 66.4652 77.3765C66.6887 77.4549 66.8735 77.6164 66.9814 77.8273C67.0892 78.0383 67.1118 78.2826 67.0445 78.5098C66.9641 78.7365 66.9294 78.9768 66.9421 79.2169C66.9549 79.457 67.015 79.6923 67.119 79.9091C67.223 80.126 67.3687 80.3202 67.5479 80.4805C67.7272 80.6409 67.9363 80.7642 68.1633 80.8435L69.9376 81.4716C70.3955 81.631 70.8979 81.6028 71.3351 81.3932C71.7723 81.1836 72.1089 80.8096 72.2714 80.3528C72.3608 80.1334 72.5312 79.9568 72.7473 79.8595C72.9633 79.7623 73.2085 79.7518 73.432 79.8303C73.6556 79.9088 73.8404 80.0702 73.9482 80.2812C74.0561 80.4921 74.0787 80.7365 74.0114 80.9636C73.7573 81.6793 73.2881 82.2989 72.6682 82.7376C72.0483 83.1762 71.3079 83.4125 70.5485 83.4141Z" fill="white"/>
<path d="M80.9985 85.8679C80.7774 85.8676 80.5568 85.847 80.3395 85.8062L78.4863 85.463C77.5283 85.286 76.6794 84.7367 76.1256 83.9352C75.5718 83.1337 75.3581 82.1454 75.5314 81.1868C75.5769 80.9465 75.716 80.7341 75.9181 80.5964C76.1202 80.4586 76.3687 80.4068 76.609 80.4523C76.8493 80.4978 77.0617 80.6369 77.1994 80.839C77.3372 81.0411 77.389 81.2897 77.3435 81.53C77.2583 82.0081 77.3657 82.5004 77.6421 82.8997C77.9186 83.299 78.3417 83.5727 78.8192 83.6612L80.669 84.0044C81.1468 84.0915 81.6397 83.9854 82.0393 83.7093C82.4389 83.4332 82.7126 83.0098 82.8003 82.5321C82.8458 82.2918 82.9849 82.0794 83.187 81.9417C83.3891 81.804 83.6376 81.7521 83.8779 81.7977C84.1182 81.8432 84.3306 81.9823 84.4683 82.1844C84.606 82.3865 84.6578 82.635 84.6123 82.8753C84.4519 83.7165 84.0033 84.4755 83.3437 85.0217C82.6842 85.5679 81.8549 85.8671 80.9985 85.8679Z" fill="white"/>
</g>
<path d="M58.56 74.4155C58.3581 74.4148 58.1621 74.3481 58.0018 74.2254C57.8415 74.1027 57.7258 73.9309 57.6725 73.7362C57.6191 73.5416 57.6311 73.3348 57.7064 73.1475C57.7818 72.9603 57.9165 72.8029 58.0898 72.6995C58.1414 72.6694 58.1865 72.6293 58.2225 72.5816C58.2584 72.5338 58.2845 72.4794 58.2992 72.4215C58.3141 72.3638 58.3173 72.3036 58.3084 72.2446C58.2996 72.1857 58.2789 72.1291 58.2477 72.0783L55.8796 68.0904C55.8494 68.0389 55.8092 67.9939 55.7615 67.9579C55.7138 67.922 55.6595 67.8959 55.6016 67.881C55.5441 67.8657 55.4841 67.8621 55.4252 67.8704C55.3662 67.8786 55.3096 67.8986 55.2584 67.9291C55.1543 67.9906 55.0391 68.031 54.9194 68.048C54.7997 68.065 54.6778 68.0582 54.5607 68.0281C54.4435 67.998 54.3335 67.9451 54.2368 67.8725C54.1401 67.7998 54.0587 67.7089 53.9972 67.6048C53.9357 67.5006 53.8953 67.3854 53.8783 67.2657C53.8613 67.146 53.868 67.0241 53.8982 66.907C53.9283 66.7899 53.9812 66.6798 54.0538 66.5831C54.1264 66.4865 54.2174 66.405 54.3215 66.3435C54.8459 66.0337 55.4719 65.9446 56.0619 66.0959C56.6519 66.2471 57.1578 66.6262 57.4686 67.15L59.8264 71.1379C59.9807 71.3974 60.0822 71.6847 60.1252 71.9835C60.1682 72.2823 60.1517 72.5866 60.0768 72.879C60.0019 73.1714 59.8699 73.4461 59.6885 73.6874C59.5072 73.9287 59.2799 74.1318 59.0199 74.285C58.8811 74.3692 58.7222 74.4143 58.56 74.4155Z" fill="#263238"/>
<path d="M67.8531 80.1708C67.6877 80.1693 67.5255 80.1243 67.3829 80.0404C67.1736 79.9149 67.0224 79.7115 66.9626 79.4748C66.9028 79.2381 66.9392 78.9874 67.0638 78.7774C67.1242 78.673 67.1412 78.549 67.111 78.4321C67.0808 78.3153 67.0059 78.215 66.9025 78.1528L62.918 75.7848C62.8145 75.7239 62.691 75.7066 62.5748 75.7367C62.5169 75.7514 62.4624 75.7775 62.4147 75.8134C62.367 75.8494 62.3269 75.8945 62.2968 75.9461C62.1652 76.1418 61.9638 76.2797 61.7337 76.3316C61.5037 76.3835 61.2625 76.3454 61.0597 76.2251C60.8569 76.1048 60.7078 75.9115 60.643 75.6847C60.5782 75.458 60.6026 75.215 60.7112 75.0057C61.0226 74.4815 61.5294 74.1025 62.1202 73.9519C62.711 73.8013 63.3374 73.8915 63.8618 74.2027L67.8462 76.5707C68.1054 76.7248 68.3317 76.9285 68.5121 77.1701C68.6925 77.4116 68.8236 77.6864 68.8979 77.9786C68.9721 78.2709 68.9881 78.5749 68.9449 78.8733C68.9016 79.1717 68.8 79.4587 68.6459 79.7178C68.5649 79.856 68.4491 79.9706 68.3099 80.0501C68.1708 80.1296 68.0133 80.1712 67.8531 80.1708Z" fill="#263238"/>
<path d="M78.4415 82.9644C78.365 82.9643 78.2888 82.9539 78.215 82.9336C78.0975 82.9043 77.987 82.8521 77.8898 82.7799C77.7927 82.7077 77.7107 82.617 77.6488 82.513C77.5869 82.4089 77.5463 82.2937 77.5292 82.1738C77.512 82.054 77.5189 81.9319 77.5492 81.8147C77.5768 81.698 77.5583 81.5751 77.4977 81.4715C77.4363 81.3678 77.3364 81.2925 77.2197 81.2622L72.7239 80.1262C72.6661 80.1118 72.606 80.109 72.5472 80.1178C72.4883 80.1266 72.4317 80.147 72.3807 80.1777C72.3289 80.2076 72.2837 80.2477 72.2478 80.2954C72.2118 80.3432 72.1858 80.3977 72.1713 80.4557L70.3867 80.0061C70.4605 79.7135 70.5912 79.4383 70.7713 79.1963C70.9515 78.9542 71.1776 78.7501 71.4368 78.5955C71.6959 78.4409 71.983 78.3389 72.2816 78.2954C72.5801 78.2518 72.8844 78.2675 73.1769 78.3416L77.6693 79.4776C77.9619 79.5513 78.2371 79.682 78.4791 79.8622C78.7212 80.0424 78.9253 80.2685 79.0799 80.5277C79.2345 80.7868 79.3365 81.0739 79.3801 81.3724C79.4236 81.671 79.4079 81.9753 79.3338 82.2678C79.2835 82.4665 79.1685 82.6428 79.007 82.7689C78.8454 82.8951 78.6465 82.9639 78.4415 82.9644Z" fill="#263238"/>
<path d="M89.0949 84.0798H89.0091C88.8885 84.0686 88.7712 84.0337 88.664 83.977C88.5569 83.9204 88.462 83.8431 88.3848 83.7496C88.3076 83.6562 88.2497 83.5484 88.2143 83.4325C88.1789 83.3166 88.1668 83.1948 88.1786 83.0742C88.1882 82.9543 88.1505 82.8355 88.0735 82.7431C87.9965 82.6507 87.8864 82.5922 87.7668 82.58L83.1508 82.151C83.0896 82.1447 83.0278 82.1506 82.9689 82.1682C82.91 82.1859 82.8552 82.2151 82.8076 82.254C82.7156 82.3305 82.6576 82.4403 82.6463 82.5594C82.6409 82.6844 82.6101 82.807 82.5559 82.9197C82.5016 83.0325 82.425 83.133 82.3307 83.2152C82.2364 83.2975 82.1264 83.3597 82.0073 83.3981C81.8883 83.4365 81.7626 83.4503 81.6381 83.4386C81.5135 83.427 81.3926 83.3901 81.2827 83.3303C81.1728 83.2705 81.0762 83.189 80.9988 83.0908C80.9214 82.9925 80.8647 82.8795 80.8323 82.7587C80.7999 82.6378 80.7924 82.5117 80.8102 82.3878C80.871 81.7839 81.1681 81.2284 81.6368 80.8427C82.1055 80.4569 82.7077 80.2722 83.3121 80.3287L87.9281 80.7611C88.5317 80.821 89.0872 81.1174 89.473 81.5856C89.8588 82.0537 90.0437 82.6555 89.9872 83.2595C89.9625 83.4809 89.8585 83.6858 89.6945 83.8366C89.5306 83.9873 89.3176 84.0737 89.0949 84.0798Z" fill="#263238"/>
<g opacity="0.5">
<path d="M58.56 74.4154C58.3581 74.4148 58.1621 74.348 58.0018 74.2253C57.8415 74.1027 57.7258 73.9308 57.6725 73.7362C57.6191 73.5415 57.6311 73.3347 57.7064 73.1475C57.7818 72.9602 57.9165 72.8028 58.0898 72.6994C58.1414 72.6693 58.1865 72.6292 58.2225 72.5815C58.2584 72.5338 58.2845 72.4794 58.2992 72.4214C58.3141 72.3637 58.3173 72.3036 58.3084 72.2446C58.2996 72.1856 58.2789 72.129 58.2477 72.0782L55.8796 68.0903C55.8494 68.0388 55.8092 67.9938 55.7615 67.9579C55.7138 67.922 55.6595 67.8958 55.6016 67.881C55.5441 67.8657 55.4841 67.8621 55.4252 67.8703C55.3662 67.8786 55.3096 67.8985 55.2584 67.929C55.1543 67.9905 55.0391 68.0309 54.9194 68.0479C54.7997 68.0649 54.6778 68.0582 54.5607 68.0281C54.4435 67.9979 54.3335 67.9451 54.2368 67.8724C54.1401 67.7998 54.0587 67.7088 53.9972 67.6047C53.9357 67.5006 53.8953 67.3854 53.8783 67.2656C53.8613 67.1459 53.868 67.024 53.8982 66.9069C53.9283 66.7898 53.9812 66.6797 54.0538 66.5831C54.1264 66.4864 54.2174 66.405 54.3215 66.3435C54.8459 66.0337 55.4719 65.9446 56.0619 66.0958C56.6519 66.247 57.1578 66.6261 57.4686 67.15L59.8264 71.1379C59.9807 71.3973 60.0822 71.6847 60.1252 71.9834C60.1682 72.2822 60.1517 72.5865 60.0768 72.8789C60.0019 73.1713 59.8699 73.4461 59.6885 73.6874C59.5072 73.9286 59.2799 74.1317 59.0199 74.285C58.8811 74.3691 58.7222 74.4142 58.56 74.4154Z" fill="white"/>
<path d="M67.8551 80.1708C67.6896 80.1693 67.5275 80.1243 67.3849 80.0404C67.1755 79.9148 67.0244 79.7115 66.9646 79.4748C66.9047 79.2381 66.9411 78.9873 67.0657 78.7774C67.1262 78.6729 67.1431 78.5489 67.113 78.4321C67.0828 78.3152 67.0079 78.2149 66.9044 78.1528L62.9199 75.7847C62.8164 75.7239 62.693 75.7066 62.5767 75.7367C62.5188 75.7514 62.4644 75.7774 62.4167 75.8134C62.3689 75.8493 62.3288 75.8944 62.2987 75.946C62.1672 76.1417 61.9657 76.2797 61.7357 76.3316C61.5056 76.3835 61.2645 76.3453 61.0616 76.225C60.8588 76.1048 60.7097 75.9114 60.6449 75.6847C60.5801 75.4579 60.6045 75.215 60.7132 75.0057C61.0245 74.4815 61.5314 74.1024 62.1222 73.9518C62.713 73.8012 63.3394 73.8914 63.8637 74.2026L67.8482 76.5706C68.1074 76.7248 68.3336 76.9284 68.5141 77.17C68.6945 77.4116 68.8256 77.6863 68.8998 77.9786C68.9741 78.2708 68.9901 78.5748 68.9468 78.8732C68.9036 79.1716 68.802 79.4586 68.6478 79.7177C68.5668 79.856 68.451 79.9705 68.3119 80.05C68.1728 80.1295 68.0153 80.1711 67.8551 80.1708Z" fill="white"/>
<path d="M78.4415 82.9644C78.365 82.9642 78.2888 82.9538 78.215 82.9335C78.0975 82.9043 77.987 82.852 77.8898 82.7798C77.7927 82.7076 77.7107 82.6169 77.6488 82.5129C77.5869 82.4089 77.5463 82.2936 77.5292 82.1738C77.512 82.0539 77.5189 81.9319 77.5492 81.8147C77.5768 81.6979 77.5583 81.575 77.4977 81.4715C77.4363 81.3677 77.3364 81.2925 77.2197 81.2621L72.7239 80.1262C72.6661 80.1118 72.606 80.1089 72.5472 80.1177C72.4883 80.1266 72.4317 80.1469 72.3807 80.1776C72.3289 80.2076 72.2837 80.2476 72.2478 80.2954C72.2118 80.3431 72.1858 80.3976 72.1713 80.4556L70.3867 80.006C70.4605 79.7135 70.5912 79.4383 70.7713 79.1962C70.9515 78.9542 71.1776 78.75 71.4368 78.5954C71.6959 78.4409 71.983 78.3389 72.2816 78.2953C72.5801 78.2517 72.8844 78.2674 73.1769 78.3415L77.6693 79.4775C77.9619 79.5513 78.2371 79.682 78.4791 79.8621C78.7212 80.0423 78.9253 80.2685 79.0799 80.5276C79.2345 80.7867 79.3365 81.0738 79.3801 81.3724C79.4236 81.671 79.4079 81.9752 79.3338 82.2677C79.2835 82.4664 79.1685 82.6427 79.007 82.7689C78.8454 82.895 78.6465 82.9638 78.4415 82.9644Z" fill="white"/>
<path d="M89.093 84.0797H89.0072C88.8865 84.0685 88.7692 84.0336 88.6621 83.977C88.5549 83.9203 88.4601 83.843 88.3829 83.7496C88.3057 83.6561 88.2477 83.5484 88.2123 83.4324C88.177 83.3165 88.1648 83.1948 88.1766 83.0742C88.1862 82.9543 88.1485 82.8354 88.0715 82.7431C87.9945 82.6507 87.8844 82.5921 87.7648 82.58L83.1488 82.151C83.0877 82.1447 83.0259 82.1505 82.967 82.1682C82.9081 82.1859 82.8533 82.215 82.8057 82.2539C82.7137 82.3304 82.6557 82.4402 82.6444 82.5594C82.6389 82.6844 82.6082 82.8069 82.5539 82.9197C82.4997 83.0324 82.4231 83.1329 82.3288 83.2152C82.2345 83.2974 82.1245 83.3596 82.0054 83.398C81.8863 83.4364 81.7607 83.4502 81.6361 83.4386C81.5116 83.4269 81.3907 83.3901 81.2808 83.3303C81.1709 83.2705 81.0743 83.189 80.9968 83.0907C80.9194 82.9924 80.8628 82.8794 80.8304 82.7586C80.7979 82.6378 80.7904 82.5116 80.8083 82.3878C80.869 81.7838 81.1662 81.2284 81.6349 80.8426C82.1036 80.4569 82.7058 80.2721 83.3101 80.3286L87.9261 80.761C88.5298 80.8209 89.0852 81.1174 89.471 81.5855C89.8569 82.0536 90.0418 82.6555 89.9853 83.2595C89.9605 83.4808 89.8566 83.6858 89.6926 83.8365C89.5286 83.9873 89.3156 84.0736 89.093 84.0797Z" fill="white"/>
</g>
<path d="M55.2684 69.5283C55.0436 69.5286 54.8264 69.4468 54.6576 69.2983C54.2965 68.9779 54.0022 68.5895 53.7913 68.1553C53.5804 67.7211 53.4571 67.2496 53.4284 66.7678C53.3997 66.2859 53.4662 65.8031 53.6241 65.347C53.782 64.8908 54.0282 64.4702 54.3487 64.1092C54.5167 63.9499 54.7385 63.8595 54.97 63.8559C55.2016 63.8524 55.426 63.9361 55.5988 64.0903C55.7715 64.2445 55.88 64.458 55.9028 64.6884C55.9255 64.9189 55.8608 65.1495 55.7215 65.3345C55.5615 65.514 55.4386 65.7233 55.3596 65.9504C55.2806 66.1774 55.2472 66.4179 55.2612 66.6579C55.2753 66.8979 55.3365 67.1328 55.4413 67.3491C55.5462 67.5655 55.6927 67.759 55.8725 67.9187C56.0127 68.0424 56.112 68.206 56.1569 68.3875C56.2019 68.5691 56.1904 68.76 56.124 68.9349C56.0577 69.1098 55.9395 69.2602 55.7855 69.3663C55.6314 69.4723 55.4486 69.5288 55.2616 69.5283H55.2684Z" fill="#263238"/>
<g opacity="0.6">
<path d="M55.2665 69.5284C55.0417 69.5286 54.8244 69.4469 54.6556 69.2984C54.2946 68.978 54.0002 68.5896 53.7893 68.1554C53.5784 67.7212 53.4551 67.2497 53.4264 66.7678C53.3977 66.286 53.4642 65.8032 53.6222 65.347C53.7801 64.8909 54.0263 64.4703 54.3467 64.1093C54.5147 63.9499 54.7365 63.8595 54.9681 63.856C55.1996 63.8525 55.424 63.9361 55.5968 64.0903C55.7696 64.2445 55.8781 64.458 55.9008 64.6885C55.9235 64.9189 55.8588 65.1495 55.7195 65.3345C55.5596 65.514 55.4366 65.7233 55.3577 65.9504C55.2787 66.1775 55.2453 66.4179 55.2593 66.6579C55.2733 66.898 55.3345 67.1329 55.4394 67.3492C55.5443 67.5655 55.6908 67.7591 55.8705 67.9188C56.0108 68.0425 56.11 68.206 56.155 68.3876C56.1999 68.5691 56.1884 68.7601 56.1221 68.935C56.0557 69.1098 55.9376 69.2603 55.7835 69.3663C55.6294 69.4723 55.4467 69.5289 55.2596 69.5284H55.2665Z" fill="white"/>
</g>
</svg>
