<svg width="81" height="82" viewBox="0 0 81 82" fill="none" xmlns="http://www.w3.org/2000/svg">
<g filter="url(#filter0_d_1763_14833)">
<rect x="9.10156" y="6.21429" width="62.4314" height="62.4314" rx="8.86067" fill="#FFD4E2" shape-rendering="crispEdges"/>
<g clip-path="url(#clip0_1763_14833)">
<path fill-rule="evenodd" clip-rule="evenodd" d="M45.7366 28.43C46.0612 28.43 46.381 28.509 46.6683 28.6602C46.9556 28.8114 47.2018 29.0303 47.3856 29.298L47.4726 29.438L50.8066 35.27C51.0101 35.626 51.0993 36.0359 51.0621 36.4443C51.0249 36.8526 50.8631 37.2397 50.5986 37.553L50.4846 37.676L41.2016 46.959C40.9838 47.1767 40.6934 47.3063 40.386 47.3231C40.0785 47.3399 39.7757 47.2427 39.5356 47.05L39.4336 46.96L30.1506 37.676C29.8606 37.3861 29.6667 37.0142 29.5951 36.6105C29.5236 36.2068 29.5778 35.7908 29.7506 35.419L29.8286 35.269L33.1616 29.437C33.3226 29.1551 33.5499 28.9166 33.8238 28.7422C34.0977 28.5678 34.41 28.4627 34.7336 28.436L34.8966 28.43H45.7366ZM35.6096 34.723C35.4221 34.9105 35.3168 35.1648 35.3168 35.43C35.3168 35.6952 35.4221 35.9495 35.6096 36.137L39.4326 39.96C39.5486 40.0761 39.6864 40.1682 39.8381 40.231C39.9898 40.2939 40.1524 40.3262 40.3166 40.3262C40.4807 40.3262 40.6433 40.2939 40.795 40.231C40.9467 40.1682 41.0845 40.0761 41.2006 39.96L45.0236 36.137C45.1191 36.0447 45.1952 35.9344 45.2477 35.8124C45.3001 35.6904 45.3277 35.5592 45.3288 35.4264C45.33 35.2936 45.3047 35.1619 45.2544 35.039C45.2041 34.9161 45.1298 34.8045 45.0359 34.7106C44.9421 34.6167 44.8304 34.5425 44.7075 34.4922C44.5846 34.4419 44.4529 34.4166 44.3202 34.4177C44.1874 34.4189 44.0562 34.4465 43.9341 34.4989C43.8121 34.5513 43.7018 34.6275 43.6096 34.723L40.3166 38.016L37.0236 34.723C36.836 34.5355 36.5817 34.4302 36.3166 34.4302C36.0514 34.4302 35.7971 34.5355 35.6096 34.723Z" fill="#E6346D"/>
</g>
</g>
<defs>
<filter id="filter0_d_1763_14833" x="0.240889" y="0.89789" width="80.153" height="80.1527" filterUnits="userSpaceOnUse" color-interpolation-filters="sRGB">
<feFlood flood-opacity="0" result="BackgroundImageFix"/>
<feColorMatrix in="SourceAlpha" type="matrix" values="0 0 0 0 0 0 0 0 0 0 0 0 0 0 0 0 0 0 127 0" result="hardAlpha"/>
<feOffset dy="3.54427"/>
<feGaussianBlur stdDeviation="4.43034"/>
<feComposite in2="hardAlpha" operator="out"/>
<feColorMatrix type="matrix" values="0 0 0 0 0.533333 0 0 0 0 0.027451 0 0 0 0 0.968627 0 0 0 0.07 0"/>
<feBlend mode="normal" in2="BackgroundImageFix" result="effect1_dropShadow_1763_14833"/>
<feBlend mode="normal" in="SourceGraphic" in2="effect1_dropShadow_1763_14833" result="shape"/>
</filter>
<clipPath id="clip0_1763_14833">
<rect width="24" height="24" fill="white" transform="translate(28.3164 25.43)"/>
</clipPath>
</defs>
</svg>
