<svg width="54" height="25" viewBox="0 0 54 25" fill="none" xmlns="http://www.w3.org/2000/svg">
<ellipse cx="11.9941" cy="12.501" rx="11.9941" ry="12.09" fill="#E9D6FA"/>
<rect x="3.58594" y="9.68927" width="15.5971" height="11.3943" rx="1.86791" transform="rotate(-19.5235 3.58594 9.68927)" fill="url(#paint0_linear_2088_17362)"/>
<g clip-path="url(#clip0_2088_17362)">
<path d="M4.20312 8.85672C4.20312 8.34274 4.4073 7.84982 4.77074 7.48638C5.13418 7.12294 5.62711 6.91876 6.14108 6.91876H17.7688C18.2828 6.91876 18.7758 7.12294 19.1392 7.48638C19.5026 7.84982 19.7068 8.34274 19.7068 8.85672V9.8257H4.20312V8.85672ZM4.20312 11.7637V16.6086C4.20312 17.1225 4.4073 17.6155 4.77074 17.9789C5.13418 18.3423 5.62711 18.5465 6.14108 18.5465H17.7688C18.2828 18.5465 18.7758 18.3423 19.1392 17.9789C19.5026 17.6155 19.7068 17.1225 19.7068 16.6086V11.7637H4.20312ZM7.11006 13.7016H8.07904C8.33603 13.7016 8.5825 13.8037 8.76422 13.9854C8.94594 14.1671 9.04802 14.4136 9.04802 14.6706V15.6396C9.04802 15.8966 8.94594 16.143 8.76422 16.3248C8.5825 16.5065 8.33603 16.6086 8.07904 16.6086H7.11006C6.85308 16.6086 6.60661 16.5065 6.42489 16.3248C6.24317 16.143 6.14108 15.8966 6.14108 15.6396V14.6706C6.14108 14.4136 6.24317 14.1671 6.42489 13.9854C6.60661 13.8037 6.85308 13.7016 7.11006 13.7016Z" fill="#8807F7"/>
<rect x="5.14062" y="13.1063" width="4.3896" height="4.10941" fill="#8807F7"/>
</g>
<g clip-path="url(#clip1_2088_17362)">
<path opacity="0.5" d="M16.3549 16.0012C16.1426 16.0013 15.935 15.9383 15.7585 15.8204C15.5819 15.7025 15.4443 15.5348 15.363 15.3387C15.2817 15.1426 15.2605 14.9267 15.3018 14.7185C15.3432 14.5103 15.4454 14.319 15.5955 14.1688C15.7456 14.0187 15.9369 13.9164 16.1451 13.875C16.3534 13.8335 16.5692 13.8547 16.7654 13.936C16.9615 14.0172 17.1292 14.1547 17.2472 14.3313C17.3651 14.5078 17.4281 14.7153 17.4282 14.9276V14.9278C17.4279 15.2123 17.3147 15.4852 17.1135 15.6864C16.9123 15.8877 16.6394 16.0009 16.3549 16.0012Z" fill="url(#paint1_linear_2088_17362)"/>
<path d="M15.3156 16.0012C15.1033 16.0012 14.8958 15.9383 14.7193 15.8203C14.5427 15.7024 14.4051 15.5347 14.3239 15.3386C14.2427 15.1424 14.2214 14.9266 14.2628 14.7183C14.3042 14.5101 14.4065 14.3188 14.5566 14.1687C14.7067 14.0186 14.898 13.9164 15.1062 13.8749C15.3145 13.8335 15.5303 13.8548 15.7264 13.936C15.9226 14.0173 16.0902 14.1549 16.2082 14.3314C16.3261 14.5079 16.3891 14.7155 16.3891 14.9278C16.3888 15.2124 16.2756 15.4852 16.0744 15.6865C15.8731 15.8877 15.6003 16.0009 15.3156 16.0012Z" fill="url(#paint2_linear_2088_17362)"/>
</g>
<path d="M33.3564 16.5C32.7564 15.204 32.1764 13.848 31.6164 12.432C31.0644 11.016 30.5484 9.6 30.0684 8.184H31.7364C31.9284 8.744 32.1244 9.316 32.3244 9.9C32.5244 10.484 32.7244 11.06 32.9244 11.628C33.1244 12.188 33.3244 12.732 33.5244 13.26C33.7244 13.788 33.9204 14.272 34.1124 14.712C34.2964 14.272 34.4884 13.792 34.6884 13.272C34.8884 12.744 35.0884 12.196 35.2884 11.628C35.4964 11.06 35.7004 10.484 35.9004 9.9C36.1004 9.316 36.2924 8.744 36.4764 8.184H38.0964C37.6084 9.6 37.0884 11.016 36.5364 12.432C35.9844 13.848 35.4084 15.204 34.8084 16.5H33.3564ZM39.1718 8.184H40.6838V16.5H39.1718V8.184ZM44.1757 15.456C44.5597 15.456 44.8397 15.412 45.0157 15.324C45.1917 15.228 45.2797 15.068 45.2797 14.844C45.2797 14.636 45.1837 14.464 44.9917 14.328C44.8077 14.192 44.4997 14.044 44.0677 13.884C43.8037 13.788 43.5597 13.688 43.3357 13.584C43.1197 13.472 42.9317 13.344 42.7717 13.2C42.6117 13.056 42.4837 12.884 42.3877 12.684C42.2997 12.476 42.2557 12.224 42.2557 11.928C42.2557 11.352 42.4677 10.9 42.8917 10.572C43.3157 10.236 43.8917 10.068 44.6197 10.068C44.9877 10.068 45.3397 10.104 45.6757 10.176C46.0117 10.24 46.2637 10.304 46.4317 10.368L46.1677 11.544C46.0077 11.472 45.8037 11.408 45.5557 11.352C45.3077 11.288 45.0197 11.256 44.6917 11.256C44.3957 11.256 44.1557 11.308 43.9717 11.412C43.7877 11.508 43.6957 11.66 43.6957 11.868C43.6957 11.972 43.7117 12.064 43.7437 12.144C43.7837 12.224 43.8477 12.3 43.9357 12.372C44.0237 12.436 44.1397 12.504 44.2837 12.576C44.4277 12.64 44.6037 12.708 44.8117 12.78C45.1557 12.908 45.4477 13.036 45.6877 13.164C45.9277 13.284 46.1237 13.424 46.2757 13.584C46.4357 13.736 46.5517 13.912 46.6237 14.112C46.6957 14.312 46.7317 14.552 46.7317 14.832C46.7317 15.432 46.5077 15.888 46.0597 16.2C45.6197 16.504 44.9877 16.656 44.1637 16.656C43.6117 16.656 43.1677 16.608 42.8317 16.512C42.4957 16.424 42.2597 16.352 42.1237 16.296L42.3757 15.084C42.5917 15.172 42.8477 15.256 43.1437 15.336C43.4477 15.416 43.7917 15.456 44.1757 15.456ZM50.2961 15.48C50.7441 15.48 51.0841 15.456 51.3161 15.408V13.8C51.2361 13.776 51.1201 13.752 50.9681 13.728C50.8161 13.704 50.6481 13.692 50.4641 13.692C50.3041 13.692 50.1401 13.704 49.9721 13.728C49.8121 13.752 49.6641 13.796 49.5281 13.86C49.4001 13.924 49.2961 14.016 49.2161 14.136C49.1361 14.248 49.0961 14.392 49.0961 14.568C49.0961 14.912 49.2041 15.152 49.4201 15.288C49.6361 15.416 49.9281 15.48 50.2961 15.48ZM50.1761 10.068C50.6561 10.068 51.0601 10.128 51.3881 10.248C51.7161 10.368 51.9761 10.536 52.1681 10.752C52.3681 10.968 52.5081 11.232 52.5881 11.544C52.6761 11.848 52.7201 12.184 52.7201 12.552V16.356C52.4961 16.404 52.1561 16.46 51.7001 16.524C51.2521 16.596 50.7441 16.632 50.1761 16.632C49.8001 16.632 49.4561 16.596 49.1441 16.524C48.8321 16.452 48.5641 16.336 48.3401 16.176C48.1241 16.016 47.9521 15.808 47.8241 15.552C47.7041 15.296 47.6441 14.98 47.6441 14.604C47.6441 14.244 47.7121 13.94 47.8481 13.692C47.9921 13.444 48.1841 13.244 48.4241 13.092C48.6641 12.932 48.9401 12.82 49.2521 12.756C49.5721 12.684 49.9041 12.648 50.2481 12.648C50.4081 12.648 50.5761 12.66 50.7521 12.684C50.9281 12.7 51.1161 12.732 51.3161 12.78V12.54C51.3161 12.372 51.2961 12.212 51.2561 12.06C51.2161 11.908 51.1441 11.776 51.0401 11.664C50.9441 11.544 50.8121 11.452 50.6441 11.388C50.4841 11.324 50.2801 11.292 50.0321 11.292C49.6961 11.292 49.3881 11.316 49.1081 11.364C48.8281 11.412 48.6001 11.468 48.4241 11.532L48.2441 10.356C48.4281 10.292 48.6961 10.228 49.0481 10.164C49.4001 10.1 49.7761 10.068 50.1761 10.068Z" fill="#3D0072"/>
<defs>
<linearGradient id="paint0_linear_2088_17362" x1="11.0939" y1="-6.817" x2="12.6815" y2="21.9729" gradientUnits="userSpaceOnUse">
<stop stop-color="#8807F7"/>
<stop offset="1" stop-color="white"/>
</linearGradient>
<linearGradient id="paint1_linear_2088_17362" x1="16.3147" y1="10.7442" x2="16.7231" y2="16.1545" gradientUnits="userSpaceOnUse">
<stop stop-color="#8807F7"/>
<stop offset="1" stop-color="white"/>
</linearGradient>
<linearGradient id="paint2_linear_2088_17362" x1="15.2757" y1="10.7442" x2="15.684" y2="16.1545" gradientUnits="userSpaceOnUse">
<stop stop-color="#8807F7"/>
<stop offset="1" stop-color="white"/>
</linearGradient>
<clipPath id="clip0_2088_17362">
<rect width="15.5037" height="15.5037" fill="white" transform="translate(4.20312 4.98029)"/>
</clipPath>
<clipPath id="clip1_2088_17362">
<rect width="3.82922" height="3.82922" fill="white" transform="translate(13.9219 13.0135)"/>
</clipPath>
</defs>
</svg>
