<svg width="52" height="25" viewBox="0 0 52 25" fill="none" xmlns="http://www.w3.org/2000/svg">
<ellipse cx="11.9941" cy="12.5002" rx="11.9941" ry="12.09" fill="#E9D6FA"/>
<rect x="3.58594" y="9.68945" width="15.5971" height="11.3943" rx="1.86791" transform="rotate(-19.5235 3.58594 9.68945)" fill="url(#paint0_linear_13543_83584)"/>
<g clip-path="url(#clip0_13543_83584)">
<path d="M4.20312 8.85593C4.20312 8.34195 4.4073 7.84902 4.77074 7.48558C5.13418 7.12215 5.62711 6.91797 6.14108 6.91797H17.7688C18.2828 6.91797 18.7758 7.12215 19.1392 7.48558C19.5026 7.84902 19.7068 8.34195 19.7068 8.85593V9.82491H4.20312V8.85593ZM4.20312 11.7629V16.6078C4.20312 17.1217 4.4073 17.6147 4.77074 17.9781C5.13418 18.3415 5.62711 18.5457 6.14108 18.5457H17.7688C18.2828 18.5457 18.7758 18.3415 19.1392 17.9781C19.5026 17.6147 19.7068 17.1217 19.7068 16.6078V11.7629H4.20312ZM7.11006 13.7008H8.07904C8.33603 13.7008 8.5825 13.8029 8.76422 13.9846C8.94594 14.1664 9.04802 14.4128 9.04802 14.6698V15.6388C9.04802 15.8958 8.94594 16.1422 8.76422 16.324C8.5825 16.5057 8.33603 16.6078 8.07904 16.6078H7.11006C6.85308 16.6078 6.60661 16.5057 6.42489 16.324C6.24317 16.1422 6.14108 15.8958 6.14108 15.6388V14.6698C6.14108 14.4128 6.24317 14.1664 6.42489 13.9846C6.60661 13.8029 6.85308 13.7008 7.11006 13.7008Z" fill="#3D0072"/>
<rect x="5.14062" y="13.1055" width="4.3896" height="4.10941" fill="#3D0072"/>
</g>
<g clip-path="url(#clip1_13543_83584)">
<path opacity="0.5" d="M16.3549 16.0024C16.1426 16.0024 15.935 15.9395 15.7585 15.8216C15.5819 15.7036 15.4443 15.536 15.363 15.3399C15.2817 15.1437 15.2605 14.9279 15.3018 14.7197C15.3432 14.5114 15.4454 14.3201 15.5955 14.17C15.7456 14.0198 15.9369 13.9176 16.1451 13.8761C16.3534 13.8347 16.5692 13.8559 16.7654 13.9371C16.9615 14.0183 17.1292 14.1559 17.2472 14.3324C17.3651 14.5089 17.4281 14.7165 17.4282 14.9288V14.9289C17.4279 15.2135 17.3147 15.4864 17.1135 15.6876C16.9123 15.8888 16.6394 16.002 16.3549 16.0024Z" fill="white"/>
<path d="M15.3156 16.0024C15.1033 16.0024 14.8958 15.9394 14.7193 15.8215C14.5427 15.7035 14.4051 15.5359 14.3239 15.3397C14.2427 15.1436 14.2214 14.9277 14.2628 14.7195C14.3042 14.5113 14.4065 14.32 14.5566 14.1699C14.7067 14.0198 14.898 13.9175 15.1062 13.8761C15.3145 13.8347 15.5303 13.8559 15.7264 13.9372C15.9226 14.0184 16.0902 14.156 16.2082 14.3325C16.3261 14.5091 16.3891 14.7166 16.3891 14.9289C16.3888 15.2135 16.2756 15.4864 16.0744 15.6877C15.8731 15.8889 15.6003 16.0021 15.3156 16.0024Z" fill="white"/>
</g>
<path d="M34.1124 16L37.1124 7.96H36.0204L34.2084 13L33.6084 15.076L33.0084 13L31.2084 7.96H30.0564L33.0684 16H34.1124ZM38.7958 16V7.96H37.7518V16H38.7958ZM42.6769 16.12C43.8049 16.12 44.7889 15.604 44.7889 14.452C44.7889 13.648 44.3569 13.108 43.0489 12.796L42.3049 12.604C41.5129 12.412 41.1289 12.232 41.1289 11.716C41.1289 11.224 41.5609 10.96 42.1609 10.96C42.9889 10.96 43.5409 11.392 43.8289 12.076L44.6209 11.488C44.2969 10.72 43.4449 10.072 42.2209 10.072C40.9609 10.072 40.1449 10.72 40.1449 11.776C40.1449 12.844 41.0449 13.24 41.8729 13.432L42.6409 13.612C43.3249 13.768 43.8529 13.936 43.8529 14.464C43.8529 14.98 43.3969 15.244 42.7129 15.244C41.5609 15.244 40.9249 14.584 40.7209 13.924L39.9649 14.512C40.3609 15.592 41.4649 16.12 42.6769 16.12ZM47.2342 16.12C48.4342 16.12 49.0582 15.256 49.2502 14.488V14.896C49.2502 15.712 49.6822 16 50.2822 16H50.9542V15.052H50.5822C50.3662 15.052 50.2582 14.968 50.2582 14.692V12.304C50.2582 10.924 49.4902 10.072 48.0622 10.072C46.7662 10.072 45.9022 10.804 45.5542 11.404L46.2622 12.136C46.5622 11.5 47.1142 11.02 47.9422 11.02C48.8542 11.02 49.1782 11.524 49.2142 12.208L47.1142 13.144C46.2862 13.516 45.6982 14.008 45.6982 14.788C45.6982 15.556 46.2502 16.12 47.2342 16.12ZM46.7542 14.62C46.7542 14.26 47.0062 14.02 47.5582 13.756L49.2502 12.964V13.768C49.2502 14.608 48.5542 15.256 47.5702 15.256C47.0302 15.256 46.7542 15.016 46.7542 14.62Z" fill="white"/>
<defs>
<linearGradient id="paint0_linear_13543_83584" x1="4.64029" y1="17.2244" x2="21.0086" y2="17.1524" gradientUnits="userSpaceOnUse">
<stop stop-color="#8807F7"/>
<stop offset="0.40625" stop-color="#520BB3"/>
<stop offset="1" stop-color="#EA00BE"/>
</linearGradient>
<clipPath id="clip0_13543_83584">
<rect width="15.5037" height="15.5037" fill="white" transform="translate(4.20312 4.98047)"/>
</clipPath>
<clipPath id="clip1_13543_83584">
<rect width="3.82922" height="3.82922" fill="white" transform="translate(13.9219 13.0137)"/>
</clipPath>
</defs>
</svg>
