<svg width="46" height="42" viewBox="0 0 46 42" fill="none" xmlns="http://www.w3.org/2000/svg">
<rect x="0.101562" width="45.2656" height="41.2656" rx="4" fill="#2563EB"/>
<path d="M22.9987 25.543C22.8876 25.543 22.787 25.5255 22.697 25.4905C22.6065 25.456 22.5195 25.4041 22.4362 25.3346C21.839 24.8069 21.3668 24.1505 21.0195 23.3655C20.6723 22.581 20.4987 21.793 20.4987 21.0013C20.4987 20.2096 20.6723 19.4213 21.0195 18.6363C21.3668 17.8519 21.832 17.1957 22.4154 16.668C22.4987 16.5985 22.589 16.543 22.6862 16.5013C22.7834 16.4596 22.8876 16.4388 22.9987 16.4388C23.1098 16.4388 23.2106 16.4596 23.3012 16.5013C23.3912 16.543 23.4779 16.5985 23.5612 16.668C24.1584 17.1957 24.6306 17.8519 24.9779 18.6363C25.3251 19.4213 25.4987 20.2096 25.4987 21.0013C25.4987 21.793 25.3251 22.581 24.9779 23.3655C24.6306 24.1505 24.1654 24.8069 23.582 25.3346C23.5126 25.4041 23.4259 25.456 23.322 25.4905C23.2176 25.5255 23.1098 25.543 22.9987 25.543ZM26.332 26.8346C25.957 26.8346 25.5926 26.7999 25.2387 26.7305C24.8843 26.661 24.5404 26.5569 24.207 26.418C24.9848 25.9041 25.6029 25.0985 26.0612 24.0013C26.5195 22.9041 26.7487 21.9041 26.7487 21.0013C26.7487 20.0985 26.5195 19.0985 26.0612 18.0013C25.6029 16.9041 24.9848 16.0985 24.207 15.5846C24.5404 15.4457 24.8843 15.3416 25.2387 15.2721C25.5926 15.2027 25.957 15.168 26.332 15.168C27.957 15.168 29.3354 15.7338 30.467 16.8655C31.5993 17.9977 32.1654 19.3763 32.1654 21.0013C32.1654 22.6263 31.5993 24.0046 30.467 25.1363C29.3354 26.2685 27.957 26.8346 26.332 26.8346ZM19.6654 26.8346C18.0404 26.8346 16.662 26.2685 15.5304 25.1363C14.3981 24.0046 13.832 22.6263 13.832 21.0013C13.832 19.3763 14.3981 17.9977 15.5304 16.8655C16.662 15.7338 18.0404 15.168 19.6654 15.168C20.0404 15.168 20.4048 15.2027 20.7587 15.2721C21.1131 15.3416 21.457 15.4457 21.7904 15.5846C21.0126 16.0985 20.3945 16.9041 19.9362 18.0013C19.4779 19.0985 19.2487 20.0985 19.2487 21.0013C19.2487 21.9041 19.4779 22.9041 19.9362 24.0013C20.3945 25.0985 21.0126 25.9041 21.7904 26.418C21.457 26.5569 21.1131 26.661 20.7587 26.7305C20.4048 26.7999 20.0404 26.8346 19.6654 26.8346Z" fill="white"/>
</svg>
