<svg width="46" height="42" viewBox="0 0 46 42" fill="none" xmlns="http://www.w3.org/2000/svg">
<rect x="0.101562" width="45.2656" height="41.2656" rx="4" fill="#069669"/>
<path d="M22.9987 25.5416C22.8876 25.5416 22.787 25.5241 22.697 25.4891C22.6065 25.4547 22.5195 25.4027 22.4362 25.3333C21.839 24.8055 21.3668 24.1491 21.0195 23.3641C20.6723 22.5797 20.4987 21.7916 20.4987 21C20.4987 20.2083 20.6723 19.42 21.0195 18.635C21.3668 17.8505 21.832 17.1944 22.4154 16.6666C22.4987 16.5972 22.589 16.5416 22.6862 16.5C22.7834 16.4583 22.8876 16.4375 22.9987 16.4375C23.1098 16.4375 23.2106 16.4583 23.3012 16.5C23.3912 16.5416 23.4779 16.5972 23.5612 16.6666C24.1584 17.1944 24.6306 17.8505 24.9779 18.635C25.3251 19.42 25.4987 20.2083 25.4987 21C25.4987 21.7916 25.3251 22.5797 24.9779 23.3641C24.6306 24.1491 24.1654 24.8055 23.582 25.3333C23.5126 25.4027 23.4259 25.4547 23.322 25.4891C23.2176 25.5241 23.1098 25.5416 22.9987 25.5416ZM26.332 26.8333C25.957 26.8333 25.5926 26.7986 25.2387 26.7291C24.8843 26.6597 24.5404 26.5555 24.207 26.4166C24.9848 25.9027 25.6029 25.0972 26.0612 24C26.5195 22.9027 26.7487 21.9027 26.7487 21C26.7487 20.0972 26.5195 19.0972 26.0612 18C25.6029 16.9027 24.9848 16.0972 24.207 15.5833C24.5404 15.4444 24.8843 15.3402 25.2387 15.2708C25.5926 15.2013 25.957 15.1666 26.332 15.1666C27.957 15.1666 29.3354 15.7325 30.467 16.8641C31.5993 17.9963 32.1654 19.375 32.1654 21C32.1654 22.625 31.5993 24.0033 30.467 25.135C29.3354 26.2672 27.957 26.8333 26.332 26.8333ZM19.6654 26.8333C18.0404 26.8333 16.662 26.2672 15.5304 25.135C14.3981 24.0033 13.832 22.625 13.832 21C13.832 19.375 14.3981 17.9963 15.5304 16.8641C16.662 15.7325 18.0404 15.1666 19.6654 15.1666C20.0404 15.1666 20.4048 15.2013 20.7587 15.2708C21.1131 15.3402 21.457 15.4444 21.7904 15.5833C21.0126 16.0972 20.3945 16.9027 19.9362 18C19.4779 19.0972 19.2487 20.0972 19.2487 21C19.2487 21.9027 19.4779 22.9027 19.9362 24C20.3945 25.0972 21.0126 25.9027 21.7904 26.4166C21.457 26.5555 21.1131 26.6597 20.7587 26.7291C20.4048 26.7986 20.0404 26.8333 19.6654 26.8333Z" fill="white"/>
</svg>
