<svg width="672" height="805" viewBox="0 0 672 805" fill="none" xmlns="http://www.w3.org/2000/svg">
<rect width="672" height="805" fill="white"/>
<g clip-path="url(#clip0_10993_114279)">
<path d="M116.244 67.8831C116.244 70.0156 116.244 72.1542 116.256 74.2867C116.256 76.1269 115.66 77.9174 113.95 78.8624C111.954 79.9566 109.119 79.6768 106.894 79.4468C106.807 79.4468 106.732 79.4281 106.651 79.4219C106.726 77.8863 106.695 76.3321 106.62 74.8027C106.527 72.7262 107.783 70.2518 110.015 69.9037C112.433 69.5244 114.541 69.2633 115.685 67.9266C115.722 67.8893 115.759 67.8458 115.79 67.8023C115.958 67.5723 116.138 67.3547 116.319 67.1309C116.263 67.3733 116.244 67.6282 116.244 67.8769V67.8831Z" fill="#8807F7"/>
<path d="M108.93 93.3531C110.596 93.4588 112.275 93.4339 113.941 93.465C115.887 93.4961 117.883 93.7386 119.76 93.3966C122.458 92.9055 125.492 91.1461 126.493 88.5411C127.419 86.1289 126.984 83.2504 125.387 81.2237C125.275 81.0869 125.156 80.9501 125.026 80.8134C123.41 79.0477 120.904 78.1214 118.517 78.4385C115.551 78.8301 112.94 81.1615 112.169 84.0524C111.69 85.8554 112.107 87.7702 111.827 89.6042C111.597 91.1212 110.298 92.6755 108.924 93.3531H108.93Z" fill="#8807F7"/>
<path d="M125.596 61C125.447 61.4538 125.627 61.945 125.82 62.3802C128.294 67.8947 134.921 71.6249 134.691 78.2523C134.586 81.2489 133.094 84.7677 130.588 86.5458C130.408 86.6763 130.24 86.7882 130.029 86.8504C129.55 85.9552 129.5 84.6496 129.096 83.6673C128.586 82.4301 127.915 81.2178 126.976 80.2604C126.075 79.3465 124.949 78.818 124.048 77.9228C122.158 76.0328 120.964 73.4465 120.809 70.7732C120.585 66.9683 122.487 63.1884 125.602 61.0124L125.596 61Z" fill="#8807F7"/>
<path d="M108.387 74.3046C108.387 74.3046 108.3 72.6447 110.004 72.7255C110.004 72.7255 110.626 74.5409 108.387 74.3046Z" fill="white" stroke="#8807F7" stroke-width="0.261407" stroke-miterlimit="10"/>
<path d="M107.823 88.3794C109.381 88.3794 110.645 87.1157 110.645 85.5569C110.645 83.9981 109.381 82.7344 107.823 82.7344C106.264 82.7344 105 83.9981 105 85.5569C105 87.1157 106.264 88.3794 107.823 88.3794Z" fill="#8807F7"/>
<path d="M141.364 88.4233L146.773 73.9688H149.67L155.079 88.4233H152.25L150.926 84.9169H145.536L144.211 88.4233H141.352H141.364ZM146.443 82.5731H150.049L148.228 77.0524L146.443 82.5731Z" fill="#8807F7"/>
<path d="M156.527 88.4235V78.6317H159.089V80.9257C159.325 80.0864 159.698 79.4585 160.208 79.042C160.711 78.6254 161.265 78.4141 161.868 78.4141C162.471 78.4141 163.012 78.5322 163.478 78.7747L163.037 81.0687C162.645 80.8884 162.154 80.8014 161.551 80.8014C159.909 80.8014 159.095 82.1878 159.095 84.9544V88.4235H156.534H156.527Z" fill="#8807F7"/>
<path d="M164.728 85.6322C164.466 84.9918 164.336 84.2893 164.336 83.537C164.336 82.7848 164.466 82.0823 164.728 81.4295C164.989 80.7767 165.337 80.2358 165.778 79.7944C166.22 79.3592 166.736 79.0173 167.32 78.7748C167.911 78.5323 168.526 78.408 169.173 78.408C169.819 78.408 170.453 78.5448 171.013 78.8121C171.573 79.0794 171.983 79.4587 172.25 79.9374V73.2852H174.812V88.4174H172.25V87.087C171.983 87.5657 171.573 87.9449 171.007 88.2122C170.447 88.4858 169.832 88.6164 169.173 88.6164C168.514 88.6164 167.911 88.492 167.326 88.2495C166.742 88.0071 166.226 87.6714 165.785 87.2362C165.343 86.801 164.989 86.2663 164.728 85.6197V85.6322ZM167.022 83.4997C167.022 84.2893 167.27 84.9297 167.762 85.427C168.259 85.9244 168.868 86.1731 169.596 86.1731C170.323 86.1731 170.932 85.9244 171.448 85.4332C171.964 84.9421 172.213 84.2955 172.213 83.506C172.213 82.7164 171.952 82.076 171.43 81.5973C170.907 81.1186 170.298 80.8824 169.596 80.8824C168.893 80.8824 168.253 81.1248 167.762 81.6098C167.27 82.0947 167.022 82.7288 167.022 83.5122V83.4997Z" fill="#8807F7"/>
<path d="M177.273 74.827C177.273 74.398 177.435 74.0312 177.765 73.7328C178.094 73.4344 178.48 73.2852 178.927 73.2852C179.375 73.2852 179.754 73.4344 180.077 73.7328C180.401 74.0312 180.556 74.3918 180.556 74.827C180.556 75.2622 180.394 75.629 180.077 75.9274C179.76 76.2258 179.375 76.375 178.927 76.375C178.48 76.375 178.082 76.2258 177.758 75.9274C177.435 75.629 177.273 75.2622 177.273 74.827ZM177.634 88.4236V78.6318H180.195V88.4236H177.634Z" fill="#8807F7"/>
<path d="M183.08 88.4236V76.375H185.642V88.4236H183.08Z" fill="#8807F7"/>
<path d="M188.525 88.4233V73.291H191.087V88.4233H188.525Z" fill="#8807F7"/>
<path d="M193.375 83.512C193.375 82.7473 193.512 82.0448 193.792 81.392C194.071 80.7454 194.444 80.2046 194.911 79.7756C195.377 79.3466 195.912 79.0109 196.515 78.7747C197.118 78.5384 197.746 78.4141 198.398 78.4141C198.939 78.4141 199.499 78.526 200.077 78.756C200.655 78.986 201.109 79.3466 201.438 79.8378V78.6254H204V88.4173H201.438V87.149C201.153 87.6153 200.711 87.9759 200.114 88.2245C199.517 88.4732 198.945 88.5976 198.405 88.5976C197.528 88.5976 196.714 88.3924 195.955 87.9883C195.197 87.5842 194.575 86.9811 194.096 86.1916C193.617 85.402 193.381 84.5068 193.381 83.4996L193.375 83.512ZM196.061 83.512C196.061 84.2767 196.328 84.9046 196.869 85.402C197.41 85.8994 198.038 86.148 198.759 86.148C199.48 86.148 200.114 85.9118 200.643 85.4331C201.171 84.9544 201.432 84.314 201.432 83.512C201.432 82.71 201.165 82.0697 200.63 81.591C200.096 81.1123 199.468 80.876 198.753 80.876C198.038 80.876 197.391 81.1247 196.857 81.6158C196.322 82.1132 196.055 82.7411 196.055 83.512H196.061Z" fill="#8807F7"/>
</g>
<defs>
<clipPath id="clip0_10993_114279">
<rect width="99" height="32.5772" fill="white" transform="translate(105 61)"/>
</clipPath>
</defs>
</svg>
